<svg width="197" height="38" viewBox="0 0 197 38" fill="none" xmlns="http://www.w3.org/2000/svg">
<path d="M2.59296 15.9632C2.30936 15.9201 2.02414 15.899 1.76573 15.8138C1.10019 15.566 0.727982 15.2296 0.700255 14.4114C0.682336 14.0571 0.7538 13.6873 0.909778 13.368C1.66449 11.8134 2.67112 10.4319 4.05158 9.36478C4.33271 9.14291 4.65447 8.96816 4.99331 8.86086C5.44509 8.71779 5.86357 8.72668 6.2894 8.93465C6.73716 9.14424 6.90541 9.55377 6.73808 10.0267C6.56749 10.5435 6.2295 10.9377 5.76799 11.2124C5.56079 11.3294 5.31134 11.4213 5.05455 11.3141C4.90421 11.2588 4.73193 11.202 4.6791 11.0216C4.62788 10.8192 4.76763 10.7193 4.90738 10.6193C5.04876 10.4974 5.27627 10.4039 5.22992 10.1358C5.01215 10.0976 4.88784 10.287 4.74809 10.3869C3.53094 11.3337 2.67056 12.5275 2.06047 13.9163C1.69165 14.7273 1.87289 14.9613 2.78541 14.8523C3.69631 14.7653 4.57469 14.5214 5.436 14.2101C7.49745 13.4801 9.4638 12.5446 11.2773 11.2889C11.6495 11.0297 11.8689 11.0459 12.1614 11.2661C12.3272 11.4107 12.3768 11.635 12.2338 11.7788C12.1363 11.904 12.0169 12.0275 11.8771 12.1275C11.5741 12.3477 11.2474 12.5883 10.924 12.785C9.14055 13.9325 7.21971 14.8494 5.18506 15.5151C4.34894 15.7842 3.49413 16.0078 2.59296 15.9632ZM13.9196 16.5582C13.1955 16.5046 12.7421 16.074 12.6404 15.3605C12.616 15.094 12.6371 14.8088 12.7004 14.5488C12.7353 14.3749 12.8597 14.1855 12.7426 13.9783C12.4712 14.0686 12.3201 14.3221 12.1097 14.483C11.7327 14.8081 11.376 15.1567 10.977 15.4802C10.531 15.8443 9.72892 15.6526 9.67926 14.8327C9.66783 14.3907 9.78479 14.0022 9.9237 13.6154C10.4127 12.3721 11.113 11.2547 12.0872 10.312C12.3497 10.0446 12.6747 9.82601 13.02 9.63094C13.6871 9.26113 14.6289 9.35284 15.1133 9.96223C15.4757 10.4302 15.5806 10.5042 15.2548 11.0316C14.7023 11.9393 14.258 12.8771 13.92 13.8669C13.7779 14.2975 13.6154 14.7047 13.583 15.1435C13.5554 15.5165 13.7195 15.683 14.0819 15.5554C14.3972 15.4684 14.6938 15.3359 14.992 15.1815C16.5927 14.4175 18.0561 13.4227 19.3788 12.241C19.5421 12.1207 19.6632 11.9753 19.8249 11.8769C20.1076 11.6331 20.4538 11.7249 20.6724 12.0499C20.7318 12.1425 20.7456 12.2539 20.6717 12.3587C20.5742 12.4838 20.4547 12.6074 20.3353 12.7309C18.9541 14.1068 17.3932 15.2267 15.6527 16.0907C15.2619 16.3045 14.8321 16.4492 14.4071 16.528C14.2519 16.5386 14.0731 16.5695 13.9196 16.5582ZM11.2515 13.5592C11.2279 13.5795 11.2702 13.6047 11.2889 13.6502C11.405 13.5706 11.4977 13.5112 11.5919 13.43C12.3256 12.7562 13.0187 12.0354 13.6288 11.2422C13.7986 11.0342 14.0529 10.8765 14.0318 10.5661C14.0196 10.4328 13.6791 10.5621 13.2582 10.8839L13.1892 10.9229C12.3409 11.6544 11.7023 12.5337 11.2515 13.5592ZM17.247 17.9734C17.0373 17.8255 16.9487 17.5322 17.103 17.2348C17.1818 17.0641 17.3029 16.9187 17.3817 16.748C17.9894 15.6899 18.5751 14.6303 19.1828 13.5722C19.7133 12.6628 20.0732 11.6747 20.2169 10.6264C20.2599 10.3428 20.2794 10.0796 20.4086 9.82439C20.5629 9.52697 20.7888 9.45543 21.0895 9.56591C21.3902 9.67638 21.5275 9.90714 21.5503 10.1956C21.5918 10.5296 21.5455 10.8571 21.4553 11.1813L21.18 12.2198C21.388 12.3896 21.5782 12.2051 21.7553 12.1962C22.4842 12.1839 22.897 12.5674 22.8419 13.3134C22.8379 13.666 22.768 14.0138 22.6966 14.3836C22.5934 14.8833 22.5325 15.4082 22.5155 15.9364C22.5115 16.2891 22.6789 16.4118 22.9755 16.2793C23.2956 16.1265 23.5719 15.9704 23.8498 15.7924C25.1417 15.0276 26.3337 14.1231 27.4647 13.1478C27.7019 12.9227 27.9595 12.7212 28.2187 12.4977C28.4307 12.3148 28.6534 12.2872 28.9102 12.3944C29.3189 12.5349 29.4075 12.8283 29.1199 13.1379C28.9265 13.3663 28.6893 13.5914 28.4756 13.7962C27.2642 14.964 25.9495 16.036 24.5162 16.9227C24.0531 17.2193 23.5713 17.4705 22.9927 17.538C22.2135 17.6348 21.4008 17.2879 21.2999 16.2657C21.2633 15.8659 21.2503 15.4458 21.325 15.0322C21.3964 14.6624 21.4476 14.2691 21.4971 13.8978L21.3484 13.8206C21.1315 14.0693 20.9145 14.3179 20.7195 14.5682C19.9648 15.5272 19.21 16.4861 18.4568 17.4231C18.3106 17.6109 18.166 17.7767 18.0213 17.9424C17.8312 18.1269 17.4769 18.1448 17.247 17.9734ZM28.5542 8.75023C28.3145 8.71044 28.13 8.52032 28.1698 8.2806C28.1828 8.10508 28.2632 7.91248 28.3201 7.74021C28.7636 6.51558 29.4201 5.39494 30.0123 4.2475C30.0139 4.22556 30.0375 4.20524 30.0391 4.1833C30.1886 3.9517 30.3487 3.87529 30.5209 3.93215C30.8216 4.04263 31.0028 4.27663 30.9159 4.55699C30.881 4.73089 30.8006 4.92348 30.6998 5.09251C30.1564 6.17738 29.5251 7.25576 29.0442 8.38938C28.9118 8.68843 28.7501 8.78677 28.5542 8.75023ZM29.387 18.9815C29.1676 18.9653 29.0205 18.8662 28.9473 18.6622C28.8758 18.4363 28.9139 18.2185 28.996 18.004C29.2754 17.2085 29.8497 15.7067 30.1292 14.9112C30.186 14.7389 30.6905 13.5849 31.299 12.2181C30.7034 12.2182 30.2629 12.2077 30.2191 12.2044C30.0232 12.1679 29.8258 12.1533 29.6803 12.0322C29.5348 11.9112 29.4332 11.7933 29.4681 11.6194C29.4844 11.4 29.6412 11.3675 29.8183 11.3586C30.2385 11.3455 30.6586 11.3325 31.077 11.3413L31.6727 11.3413C32.4119 9.69732 33.1983 8.01273 33.4705 7.61371C33.5712 7.44468 33.65 7.27403 33.7711 7.12856C34.0213 6.72793 34.4398 6.73682 34.6974 7.13089C34.7755 7.26902 34.7877 7.40228 34.734 7.53068C34.6552 7.70133 34.5545 7.87036 34.4757 8.04102C34.1418 8.67813 33.786 9.31361 33.474 9.95234L32.8623 11.3631C33.5237 11.3679 34.1194 11.3678 34.273 11.3792C34.5817 11.3799 34.8905 11.3807 35.1977 11.4034C35.3513 11.4148 35.5016 11.47 35.6219 11.6333C35.7015 11.7495 35.7137 11.8828 35.5959 11.9844C35.4277 12.1705 35.227 12.1998 34.9841 12.2038L32.5122 12.2196C31.6308 14.2942 30.3992 17.2254 29.9955 18.2103C29.9386 18.3826 29.8582 18.5752 29.7794 18.7458C29.7022 18.8945 29.5625 18.9945 29.387 18.9815ZM44.6084 19.2027C44.129 19.1231 43.7942 18.8778 43.6292 18.4244C43.4999 18.0839 43.4162 17.7248 43.4641 17.3753L43.5549 16.1467C43.364 16.0443 43.2884 16.1711 43.1925 16.2743C42.6189 16.8716 42.0453 17.469 41.4733 18.0443C41.2816 18.2508 41.0695 18.4336 40.8388 18.571C40.5389 18.7473 40.2115 18.7011 39.9831 18.5077C39.7547 18.3143 39.6897 18.0007 39.8676 17.6829C40.0236 17.3636 40.2234 17.0475 40.3997 16.7516C41.0009 15.7813 41.6225 14.8346 42.1172 13.8123C42.2496 13.5133 42.382 13.2142 42.5364 12.9168C42.6672 12.6397 42.6582 12.4625 42.3608 12.3082C42.1901 12.2294 42.2047 12.0319 42.3055 11.8629C42.3843 11.6922 42.4631 11.5216 42.5841 11.3761C42.8579 10.9552 43.4081 10.9738 43.6876 11.3695C43.825 11.6002 43.8526 11.8229 43.8551 12.0878C43.8617 12.5957 43.6943 13.0686 43.527 13.5415C43.4417 13.8 43.3361 14.0348 43.2289 14.2916C43.1468 14.5061 43.2395 14.4468 43.3337 14.3655L43.7578 13.9998C44.0406 13.756 44.3729 13.7365 44.6955 13.8486C45.0385 13.9842 45.1994 14.1947 45.1734 14.5457C45.1491 14.8748 45.0809 15.2007 45.0127 15.5265C44.8762 16.1782 44.8056 16.8348 44.7789 17.4946C44.774 17.5605 44.8098 17.6734 44.852 17.6986C44.9349 17.7709 45.0056 17.71 45.0544 17.6474C45.2965 17.3564 45.5605 17.0671 45.7839 16.7307C46.7312 15.2565 47.5737 13.7085 48.3536 12.1116C48.5616 11.6858 48.7476 11.2584 48.9556 10.8325C49.0563 10.6635 49.1774 10.518 49.3968 10.5343C49.6601 10.5537 49.8949 10.6593 50.0103 10.8885C50.0884 11.0266 50.0567 11.1566 50.0014 11.307C49.7618 11.8628 49.566 12.4219 49.3264 12.9777C48.7147 14.3885 48.0201 15.7269 47.2816 17.062C46.9038 17.6959 46.4822 18.3265 45.9166 18.8141C45.5193 19.1157 45.1098 19.2839 44.6084 19.2027ZM54.2645 19.5418C53.5404 19.4883 53.087 19.0576 52.9853 18.3442C52.9609 18.0777 52.982 17.7924 53.0453 17.5324C53.0802 17.3585 53.2046 17.1692 53.0875 16.962C52.8161 17.0522 52.665 17.3057 52.4546 17.4667C52.0776 17.7917 51.7209 18.1404 51.3219 18.4638C50.8759 18.8279 50.0738 18.6363 50.0242 17.8164C50.0127 17.3743 50.1297 16.9859 50.2686 16.5991C50.7576 15.3558 51.4579 14.2384 52.4321 13.2956C52.6946 13.0283 53.0196 12.8097 53.3649 12.6146C54.032 12.2448 54.9738 12.3365 55.4582 12.9459C55.8206 13.4139 55.9255 13.4878 55.5997 14.0152C55.0472 14.923 54.6029 15.8607 54.2649 16.8505C54.1228 17.2812 53.9603 17.6883 53.9279 18.1271C53.9003 18.5001 54.0644 18.6667 54.4268 18.539C54.7421 18.4521 55.0387 18.3196 55.3369 18.1651C56.9376 17.4011 58.401 16.4063 59.7237 15.2247C59.887 15.1044 60.0081 14.9589 60.1698 14.8606C60.4525 14.6168 60.7987 14.7086 61.0173 15.0336C61.0767 15.1262 61.0905 15.2375 61.0166 15.3423C60.9191 15.4675 60.7996 15.591 60.6802 15.7145C59.299 17.0904 57.7381 18.2104 55.9976 19.0744C55.6068 19.2881 55.177 19.4328 54.752 19.5117C54.5968 19.5223 54.418 19.5532 54.2645 19.5418ZM51.5964 16.5429C51.5728 16.5632 51.6151 16.5884 51.6338 16.6339C51.7499 16.5542 51.8426 16.4949 51.9368 16.4136C52.6705 15.7399 53.3636 15.019 53.9737 14.2259C54.1435 14.0178 54.3978 13.8602 54.3767 13.5498C54.3645 13.4165 54.024 13.5457 53.6031 13.8676L53.5341 13.9066C52.6858 14.638 52.0472 15.5173 51.5964 16.5429ZM59.4672 20.0589C58.5222 20.0111 58.1914 19.4131 58.1588 18.6606C58.1547 18.4176 58.218 18.1576 58.3017 17.9211C58.772 16.6323 59.5382 15.5198 60.5546 14.6023C60.93 14.2991 61.1981 14.2528 61.5362 14.4542C61.7255 14.5786 61.7768 14.7809 61.6541 14.9483C61.5314 15.1157 61.412 15.2392 61.269 15.3831C60.5727 16.1478 60.0031 16.9881 59.601 17.951C59.4922 18.2298 59.3614 18.5069 59.3606 18.8157C59.3525 18.9254 59.4557 19.0212 59.5686 18.9855C59.8652 18.853 60.1837 18.7221 60.4616 18.5441C61.6829 17.8403 64.0562 15.876 64.5307 15.4257C64.8151 15.16 64.9938 15.1291 65.2677 15.3038C65.479 15.4297 65.5505 15.6556 65.3823 15.8417C65.2345 16.0514 65.0663 16.2375 64.8997 16.4016C63.5047 17.6662 61.9715 19.0088 60.6609 19.7281C60.2936 19.9215 59.9076 20.0694 59.4672 20.0589ZM61.9698 12.17C61.9812 12.0164 61.9625 11.9709 61.9893 11.9067C62.1006 11.2973 62.5556 11.1103 63.0781 11.5019C63.2862 11.6717 63.3764 11.9431 63.2708 12.178C63.1936 12.3267 63.1181 12.4535 63.0189 12.6006C62.8979 12.746 62.7549 12.8899 62.5371 12.8517C62.2771 12.7884 62.0658 12.6624 61.9975 12.3927C61.9601 12.3017 61.9682 12.192 61.9698 12.17ZM62.8542 21.4565C62.6348 21.4403 62.4877 21.3412 62.4145 21.1372C62.343 20.9113 62.3811 20.6936 62.4632 20.479C62.7426 19.6835 63.3169 18.1817 63.5964 17.3862C63.6532 17.2139 64.1577 16.06 64.7662 14.6931C64.1706 14.6932 63.7301 14.6827 63.6863 14.6794C63.4904 14.6429 63.293 14.6283 63.1475 14.5072C63.002 14.3862 62.9004 14.2684 62.9353 14.0945C62.9516 13.8751 63.1084 13.8425 63.2855 13.8336C63.7056 13.8205 64.1258 13.8075 64.5442 13.8164L65.1399 13.8163C65.8791 12.1723 66.6655 10.4877 66.9377 10.0887C67.0384 9.9197 67.1172 9.74905 67.2383 9.60358C67.4885 9.20294 67.907 9.21183 68.1646 9.60591C68.2427 9.74404 68.2549 9.8773 68.2012 10.0057C68.1224 10.1763 68.0217 10.3454 67.9429 10.516C67.609 11.1531 67.2532 11.7886 66.9412 12.4274L66.3295 13.8381C66.9909 13.8429 67.5866 13.8428 67.7402 13.8542C68.0489 13.8549 68.3577 13.8557 68.6649 13.8784C68.8185 13.8898 68.9688 13.945 69.0891 14.1083C69.1687 14.2245 69.1809 14.3578 69.0631 14.4594C68.8949 14.6455 68.6942 14.6748 68.4513 14.6789L65.9794 14.6946C65.098 16.7692 63.8664 19.7004 63.4627 20.6853C63.4058 20.8576 63.3254 21.0502 63.2466 21.2208C63.1694 21.3695 63.0297 21.4695 62.8542 21.4565ZM71.5749 28.1459C71.3197 28.0167 71.1604 27.7844 71.1831 27.4772C71.2262 27.1936 71.2676 26.9319 71.3325 26.65C71.8913 24.4632 72.7102 22.3398 73.6135 20.2668C73.776 19.8597 73.9604 19.4542 74.1651 19.0722C74.3479 18.6887 74.5071 18.3254 74.4941 17.9053C74.824 17.6209 75.0051 17.2593 75.2082 16.8992C75.824 15.7315 76.4415 14.5418 77.0556 13.396C77.5642 12.485 78.0915 11.6195 78.6829 10.7809C79.246 10.0283 79.8497 9.32293 80.5582 8.69146C80.7954 8.46635 81.053 8.2648 81.3731 8.11199C81.6697 7.9795 81.9346 7.97703 82.2304 8.15333C82.7188 8.41005 82.8513 8.70663 82.723 9.24864C82.6263 9.66063 82.4232 10.0206 82.1998 10.3571C81.7529 11.03 81.2435 11.6541 80.6935 12.2311C79.9265 13.0568 79.1376 13.8808 78.3486 14.7049C77.9887 15.0974 77.6255 15.5338 77.2859 15.9499C77.0202 16.2612 76.8171 16.6212 76.7002 17.0096C76.8456 17.1306 76.9821 17.0746 77.117 17.0404C78.3261 16.7989 79.5352 16.5574 80.7647 16.3395C81.1677 16.259 81.5878 16.246 81.9892 16.1874C82.2777 16.1646 82.5361 16.2499 82.7661 16.4214C82.9538 16.5676 82.9546 16.8544 82.7678 16.995C82.628 17.095 82.4712 17.1275 82.2924 17.1584C80.6461 17.3455 79.0478 17.7788 77.4324 18.1447C77.0969 18.2081 77.0514 18.2268 77.1367 18.564C77.3196 19.3717 77.1548 20.1096 76.9005 20.8629C76.3652 22.4337 75.5731 23.8972 74.5714 25.2129C74.1814 25.7135 72.5979 27.7362 72.4061 27.9427C72.1908 28.1694 71.8081 28.2735 71.5749 28.1459ZM73.5409 24.2322C73.6116 24.1713 73.6603 24.1087 73.7091 24.0461C74.3793 23.0368 74.987 21.9788 75.424 20.8419C75.5914 20.369 75.7571 19.918 75.7725 19.4117C75.7806 19.302 75.8594 19.1314 75.6449 19.0493C74.8365 20.7323 74.0502 22.4169 73.5409 24.2322ZM81.6612 21.6341C80.938 21.8674 80.3042 21.4896 80.2277 20.7339C80.1911 20.3341 80.2422 19.9408 80.3576 19.5743C80.8417 17.8012 81.7906 16.3051 83.1401 15.0592C83.3758 14.8561 83.6098 14.6748 83.9047 14.5643C84.2232 14.4334 84.4849 14.4748 84.7588 14.6495C84.8855 14.725 85.0091 14.8445 84.9774 14.9745C84.8588 15.3849 85.0035 15.8147 84.9223 16.3161C84.8557 16.62 84.8029 17.0352 84.664 17.4221C84.5503 17.7666 84.6868 17.7105 85.033 17.8023C86.0073 18.0508 88.0681 18.2253 89.3665 17.3727C89.5062 17.2728 89.6695 17.1525 89.8516 17.0777C90.0807 16.9623 90.4439 17.1215 90.5593 17.3507C90.5951 17.4636 90.587 17.5733 90.5147 17.6562C90.3701 17.822 90.2035 17.9861 90.0402 18.1064C88.8011 19.0516 85.9952 19.1088 84.4586 18.7084C84.3083 18.6532 84.1937 18.7109 84.1165 18.8596L83.8094 19.4325C83.5007 20.0274 83.1294 20.5735 82.633 21.0221C82.3486 21.2878 82.0439 21.53 81.6612 21.6341ZM81.4043 20.3356C81.6424 20.3973 81.7634 20.2518 81.8609 20.1267C82.3842 19.6139 82.7181 18.9768 83.052 18.3397C83.3087 17.8513 83.3444 17.3686 83.081 16.7535C82.2491 17.8611 81.6349 19.007 81.4043 20.3356ZM88.0966 22.4188C87.6358 22.3848 87.3701 22.1004 87.4025 21.6616C87.3985 21.4186 87.4602 21.1805 87.5877 20.9473C87.8932 20.3963 88.1783 19.8218 88.4838 19.2708C89.0411 18.2973 89.6204 17.3253 90.1793 16.3298C90.3841 15.9479 90.5888 15.566 90.6229 15.1052C90.6261 15.0613 90.6529 14.9971 90.6781 14.9549C90.7683 14.6307 90.9568 14.4681 91.1745 14.5063C91.524 14.5542 91.7491 14.7914 91.7467 15.1222C91.7272 15.3854 91.6842 15.669 91.6208 15.9291C91.5827 16.1468 91.4819 16.3159 91.3999 16.5304C91.525 16.6279 91.5973 16.545 91.6916 16.4637L92.6203 15.5397C93.3117 14.8408 94.4672 15.3233 94.6485 16.153C94.7835 16.7145 94.7429 17.263 94.5927 17.8034C94.531 18.0415 94.3457 18.1601 94.1027 18.1642C93.7956 18.1415 93.5656 17.9701 93.5209 17.68C93.5119 17.5028 93.5233 17.3492 93.5143 17.1721L93.4777 16.7723C93.4809 16.7284 93.4184 16.6797 93.3997 16.6342C93.2038 16.5976 93.1031 16.7667 93.0072 16.8699C92.5733 17.3672 92.1175 17.863 91.704 18.3839C90.9476 19.3648 90.2115 20.3692 89.4551 21.3501C89.2366 21.6207 88.9961 21.8897 88.7556 22.1587C88.5858 22.3668 88.3379 22.4367 88.0966 22.4188ZM91.3982 16.5524L91.4169 16.5979L91.3999 16.5304L91.3982 16.5524ZM113.137 16.9247C113.241 16.7118 113.347 16.4769 113.473 16.2656L115.818 11.4093C115.974 11.09 116.151 10.7722 116.35 10.478C116.595 10.1432 117.059 10.1334 117.342 10.4852C117.445 10.5811 117.479 10.716 117.424 10.8663L117.23 11.4035C116.43 13.2636 115.568 15.0749 114.663 16.8831C113.658 18.8383 112.653 20.7935 111.753 22.8226C111.486 23.4426 111.24 24.0862 110.972 24.7282C110.892 24.9208 110.813 25.0915 110.589 25.1411C110.229 25.2248 109.895 24.9794 109.944 24.6081C109.99 24.2806 110.102 23.958 110.213 23.6573C110.748 22.0865 111.476 20.5962 112.14 19.079C112.217 18.9303 112.428 18.4606 112.639 17.9909C112.334 17.9462 112.005 17.9219 111.299 17.9138C109.845 17.8945 108.39 18.1839 106.941 18.3856C106.74 18.4149 106.56 18.4678 106.246 18.5328L105.967 19.0196C105.002 20.7351 104.017 22.427 103.031 24.1189C102.882 24.3505 102.753 24.6057 102.583 24.8137C102.413 25.0218 102.123 25.0665 101.913 24.9186C101.702 24.7927 101.607 24.5871 101.691 24.3507C101.774 24.1142 101.88 23.8793 101.984 23.6664C102.722 22.3313 103.481 21.0197 104.198 19.6829C104.248 19.5983 104.453 19.2164 104.705 18.7938L104.081 18.88C103.745 18.9435 103.386 19.0272 103.028 19.089C102.804 19.1386 102.585 19.1224 102.394 19.02C102.247 18.9209 102.147 18.7811 102.16 18.6056C102.151 18.4285 102.228 18.2798 102.408 18.2269C102.703 18.1164 102.975 18.0261 103.288 17.9611C103.826 17.8465 104.362 17.7538 104.899 17.6611C104.966 17.644 105.121 17.6334 105.344 17.6057C105.47 17.3945 105.549 17.2238 105.576 17.1596C106.528 15.3109 107.502 13.4857 108.326 11.5833C108.697 10.7504 109.045 9.91578 109.395 9.05927C109.474 8.88862 109.531 8.71634 109.632 8.54731C109.84 8.12149 110.11 8.0532 110.51 8.30343C110.721 8.42935 110.818 8.61299 110.756 8.85108L110.562 9.38823C109.696 11.861 108.597 14.1844 107.389 16.4996C107.285 16.7125 107.085 17.0286 106.906 17.3683L107.886 17.2422C109.134 17.0698 110.424 16.9226 111.678 16.9712C112.448 17.006 112.775 17.0523 113.057 17.1173C113.085 17.0311 113.136 16.9466 113.137 16.9247ZM116.213 25.8659C115.922 25.6237 115.903 25.2914 116.016 24.9468C116.128 24.6242 116.286 24.2829 116.442 23.9636C117.115 22.6235 117.808 21.307 118.458 19.9654C119.421 17.985 120.319 15.9778 121.005 13.8666C121.115 13.5659 121.184 13.2401 121.274 12.9158C121.361 12.6355 121.48 12.512 121.634 12.5233C121.897 12.5428 122.147 12.7378 122.175 12.9604C122.203 13.1831 122.208 13.4041 122.192 13.6235C122.123 14.2581 121.946 14.8627 121.747 15.4657C121.15 17.2746 120.338 19.0014 119.527 20.7283L118.75 22.2812C118.308 23.1971 118.328 23.2206 119.191 22.2917C120.418 20.9045 121.666 19.5408 122.894 18.1536C123.062 17.9675 123.229 17.8033 123.417 17.6408C123.749 17.3344 124.123 17.34 124.507 17.5228C124.847 17.7024 124.957 17.9973 124.953 18.35C124.93 18.9659 124.842 19.5551 124.731 20.1645C124.53 21.3851 124.286 22.6023 124.237 23.8562C124.211 24.2072 124.162 24.5786 124.314 24.8987C124.485 24.9775 124.581 24.8743 124.677 24.7711C124.958 24.5492 125.241 24.3054 125.459 24.0348C127.412 21.7967 129.092 19.362 130.349 16.6754C130.613 16.0993 130.812 15.4963 131.054 14.8966C131.111 14.7243 131.19 14.5536 131.271 14.361C131.322 14.2546 131.435 14.2188 131.545 14.2269C132.053 14.2204 132.316 14.5486 132.168 15.0451C131.822 16.1446 131.411 17.2392 130.892 18.2818C129.783 20.45 128.443 22.4686 126.871 24.3377C126.531 24.7538 126.148 25.1667 125.703 25.5088C125.397 25.7729 125.048 26.0119 124.622 26.1127C123.902 26.3021 123.309 25.9715 123.121 25.2296C123.037 24.8704 122.997 24.5145 123.023 24.1635C123.089 22.9771 123.198 21.7939 123.396 20.6173C123.66 19.1367 123.743 18.9003 123.091 19.6682L119.647 23.5829C119.117 24.1834 118.567 24.7605 117.995 25.3358C117.758 25.5609 117.478 25.7609 117.2 25.9389C116.875 26.1575 116.502 26.1299 116.213 25.8659ZM138.807 29.3898C138.642 29.2452 138.573 28.9755 138.676 28.7845L139.118 28.1774C140.644 26.327 142.316 24.5976 144.009 22.8918L145.792 21.1485C145.982 20.9641 146.063 20.7715 146.017 20.5033C145.928 19.6144 145.838 18.7473 145.771 17.86C145.721 17.0401 145.651 16.1966 145.711 15.3849C145.714 15.0541 145.835 14.9087 146.035 14.8794C146.325 14.8347 146.624 14.9671 146.715 15.2385C146.768 15.4189 146.798 15.5976 146.828 15.7983L147.228 19.3355C147.221 19.4232 147.239 19.4907 147.254 19.5801C147.514 19.6434 147.616 19.4525 147.736 19.3289C149.059 18.1473 150.422 17.0127 151.865 15.9944C152.308 15.6742 152.771 15.3775 153.256 15.0825C153.534 14.9045 153.838 14.9711 154.11 15.1677C154.213 15.2636 154.312 15.4253 154.238 15.5301C154.08 15.8714 154.004 16.307 153.516 16.3371C153.273 16.3412 153.105 16.5273 152.942 16.6476C151.183 18.0617 149.488 19.5026 147.832 21.0126C147.573 21.2361 147.445 21.4693 147.504 21.8707C147.676 23.1188 147.847 24.3889 148.109 25.6216C148.223 26.1595 148.36 26.699 148.679 27.1638C148.718 27.2329 148.755 27.3239 148.772 27.3913C148.825 27.5717 148.699 27.783 148.517 27.8578C148.222 27.9683 147.964 27.883 147.782 27.649C147.476 27.3175 147.284 26.9283 147.139 26.4985C146.844 25.7265 146.706 24.9002 146.545 24.0941C146.471 23.6033 146.375 23.1109 146.281 22.5965C145.964 22.7054 145.84 22.8948 145.675 23.037C143.701 24.9647 141.726 26.9143 139.918 28.9867C139.775 29.1305 139.654 29.276 139.513 29.3979C139.324 29.5604 138.995 29.5361 138.807 29.3898ZM152.638 28.692C152.434 28.7651 152.241 28.6847 152.094 28.5856C151.842 28.4125 151.828 28.0144 152.08 27.8786C152.379 27.7242 152.674 27.6137 152.991 27.5047C153.892 27.2405 154.812 27.0438 155.727 26.8909C155.952 26.8413 156.152 26.812 156.359 26.695C156.398 26.4772 156.414 26.2578 156.472 26.0636C156.532 25.8474 156.657 25.6581 156.761 25.4452C156.969 25.0194 157.18 24.5497 157.454 24.1287C157.654 23.8126 157.609 23.5225 157.456 23.2024C157.263 22.8351 157.024 22.4865 156.76 22.1802C156.353 21.709 155.896 21.3222 155.441 20.9135C155.024 20.5959 154.608 20.2563 154.237 19.8979C153.457 19.1123 153.417 18.1607 154.164 17.3115C154.549 16.8767 155.015 16.5362 155.522 16.2428C156.235 15.8543 156.981 15.6007 157.769 15.3942C159.119 15.0308 160.505 14.7803 161.919 14.7525C163.07 14.7053 164.238 14.7254 165.356 15.117C165.959 15.316 166.51 15.6214 166.984 16.0756C167.085 16.1934 167.185 16.3332 167.263 16.4713C167.341 16.6095 167.308 16.7614 167.214 16.8427C167.096 16.9443 166.98 17.0239 166.831 16.9467C166.703 16.8931 166.574 16.8395 166.471 16.7436C165.997 16.2895 165.418 16.0701 164.786 15.9573C164.135 15.8208 163.476 15.7721 162.808 15.8551C162.587 15.8608 162.448 15.9608 162.366 16.1753C161.43 18.6871 160.197 21.0446 159.004 23.4492C158.9 23.6621 158.772 23.8953 158.775 24.1602C158.831 24.8924 158.561 25.5563 158.141 26.165C158.069 26.2479 158.039 26.3559 157.963 26.4827C158.783 26.4331 159.539 26.3566 160.315 26.3037L161.466 26.2564C161.577 26.2426 161.687 26.2507 161.795 26.2807C162.099 26.3473 162.28 26.5813 162.243 26.7772C162.229 26.9746 162.044 27.0933 161.753 27.138C160.864 27.2267 159.977 27.2934 159.11 27.3837C157.106 27.6326 155.155 28.0619 153.2 28.557C152.997 28.6082 152.818 28.6391 152.638 28.692ZM154.946 18.3621C154.724 18.6766 154.746 18.987 155.011 19.2714C155.216 19.485 155.443 19.7003 155.671 19.8937C156.522 20.6184 157.418 21.3245 158.076 22.2776C158.196 22.4409 158.309 22.4051 158.437 22.1719C159.382 20.4328 160.22 18.6418 161.016 16.8256C161.122 16.5907 161.114 16.3916 161.019 16.186C161.002 16.1186 160.94 16.0699 160.901 16.0008L160.632 16.0471C159.384 16.2196 158.15 16.5033 156.969 16.9674C156.446 17.1715 155.942 17.421 155.52 17.7648C155.308 17.9476 155.116 18.154 154.946 18.3621ZM164.487 29.5682C164.283 29.6414 164.09 29.5609 163.943 29.4618C163.691 29.2888 163.676 28.8906 163.929 28.7549C164.227 28.6005 164.522 28.4899 164.839 28.381C165.741 28.1168 166.66 27.92 167.576 27.7671C167.8 27.7176 168.001 27.6883 168.208 27.5712C168.246 27.3535 168.262 27.1341 168.321 26.9398C168.381 26.7237 168.505 26.5343 168.609 26.3214C168.817 25.8956 169.028 25.4259 169.302 25.005C169.502 24.6888 169.457 24.3987 169.305 24.0786C169.111 23.7113 168.872 23.3628 168.608 23.0564C168.202 22.5852 167.745 22.1985 167.29 21.7898C166.872 21.4721 166.456 21.1325 166.085 20.7742C165.305 19.9885 165.265 19.037 166.012 18.1877C166.397 17.7529 166.864 17.4124 167.371 17.119C168.083 16.7305 168.83 16.4769 169.617 16.2704C170.968 15.907 172.354 15.6566 173.768 15.6288C174.918 15.5815 176.086 15.6017 177.204 15.9932C177.807 16.1922 178.358 16.4977 178.832 16.9519C178.934 17.0697 179.034 17.2094 179.112 17.3476C179.19 17.4857 179.156 17.6377 179.062 17.7189C178.944 17.8205 178.828 17.9002 178.679 17.823C178.551 17.7694 178.423 17.7157 178.319 17.6199C177.846 17.1657 177.266 16.9464 176.635 16.8335C175.983 16.6971 175.325 16.6484 174.657 16.7313C174.436 16.7371 174.296 16.837 174.214 17.0516C173.278 19.5634 172.045 21.9208 170.853 24.3254C170.749 24.5384 170.621 24.7716 170.623 25.0365C170.68 25.7686 170.41 26.4325 169.99 27.0412C169.918 27.1241 169.888 27.2322 169.812 27.359C170.632 27.3093 171.388 27.2328 172.164 27.1799L173.314 27.1326C173.426 27.1188 173.535 27.1269 173.643 27.157C173.947 27.2236 174.128 27.4576 174.092 27.6534C174.077 27.8509 173.892 27.9695 173.602 28.0143C172.713 28.1029 171.826 28.1697 170.959 28.26C168.955 28.5089 167.004 28.9382 165.048 29.4333C164.846 29.4845 164.667 29.5154 164.487 29.5682ZM166.795 19.2383C166.573 19.5528 166.594 19.8632 166.86 20.1476C167.065 20.3613 167.291 20.5766 167.52 20.77C168.371 21.4947 169.267 22.2007 169.924 23.1538C170.045 23.3171 170.158 23.2813 170.285 23.0481C171.23 21.3091 172.068 19.518 172.865 17.7018C172.97 17.4669 172.963 17.2679 172.868 17.0623C172.851 16.9948 172.788 16.9461 172.749 16.877L172.481 16.9234C171.233 17.0958 169.998 17.3795 168.817 17.8437C168.295 18.0477 167.791 18.2972 167.368 18.641C167.156 18.8238 166.964 19.0303 166.795 19.2383ZM182.886 27.4213C182.543 27.2857 182.418 26.8794 182.681 26.612C182.943 26.3446 183.248 26.1025 183.573 25.8838L186.144 24.221C186.33 24.1023 186.556 24.0308 186.641 23.7724C185.97 23.3036 185.226 22.9177 184.503 22.5554C184.227 22.4026 183.95 22.2718 183.695 22.1427C183.482 22.0387 183.293 21.9144 183.174 21.7291C183.074 21.5894 182.998 21.4293 183.12 21.2619C183.243 21.0945 183.405 20.9961 183.623 21.0343C183.731 21.0643 183.815 21.1147 183.922 21.1667C185.038 21.5802 186.101 22.1221 187.115 22.7265C187.389 22.9012 187.661 23.0978 187.91 23.3147C188.445 23.8396 188.356 24.4507 187.731 24.8457C187.5 24.983 187.249 25.0968 186.996 25.2325C185.778 25.8925 184.562 26.5305 183.423 27.3067C183.26 27.427 183.1 27.5034 182.886 27.4213ZM189.114 31.4336C188.631 31.3979 188.175 31.0112 188.031 30.5594C187.912 30.0873 188.25 29.6932 188.753 29.7524C189.104 29.7784 189.422 29.9563 189.691 30.1968C190.065 30.5112 190.022 31.0817 189.65 31.3409C189.487 31.4612 189.311 31.4482 189.114 31.4336ZM195.201 28.3542C195.093 28.3241 195.008 28.2737 194.902 28.2217C193.785 27.8083 192.723 27.2664 191.708 26.662C191.434 26.4873 191.162 26.2907 190.914 26.0737C190.379 25.5489 190.468 24.9378 191.093 24.5428C191.324 24.4055 191.575 24.2917 191.827 24.1559C193.045 23.496 194.262 22.8579 195.4 22.0818C195.564 21.9615 195.724 21.8851 195.938 21.9671C196.281 22.1028 196.405 22.5091 196.143 22.7764C195.881 23.0438 195.576 23.286 195.251 23.5046L192.679 25.1675C192.494 25.2862 192.268 25.3577 192.183 25.6161C192.854 26.0849 193.598 26.4708 194.321 26.8331C194.596 26.9858 194.873 27.1166 195.129 27.2458C195.341 27.3498 195.531 27.4741 195.65 27.6593C195.749 27.7991 195.826 27.9592 195.703 28.1266C195.581 28.294 195.419 28.3923 195.201 28.3542Z" fill="#3C204C"/>
</svg>
