<svg width="56" height="18" viewBox="0 0 56 18" fill="none" xmlns="http://www.w3.org/2000/svg">
<path d="M8.7131 10.1577C8.08318 10.0564 7.74458 9.66774 7.75895 9.02386C7.74538 8.55375 7.86564 8.08287 8.0658 7.6694C8.37651 6.98402 8.70895 6.30214 9.01617 5.63849C9.68103 4.27472 9.78733 3.89072 9.64652 3.93494C9.0581 4.13002 8.66672 4.62417 8.20241 5.01747C7.39987 5.71291 6.67024 6.50921 5.95885 7.33071C5.73969 7.58516 5.5023 7.81439 5.28314 8.06883C4.95964 8.41791 4.69549 8.39773 4.32197 8.22628C4.03184 8.09051 3.93915 7.69681 4.07414 7.27286C4.27702 6.70385 4.50162 6.13833 4.7045 5.56931C4.87169 5.08369 5.02065 4.57286 5.20181 4.00036C4.83332 4.07482 4.71152 4.27806 4.57498 4.43437C3.66887 5.35828 2.76275 6.28218 1.93304 7.28521C1.79651 7.44152 1.68518 7.5796 1.53041 7.7107C1.2713 7.93644 0.960223 7.931 0.709272 7.69012C0.498272 7.47794 0.471515 7.22854 0.672446 6.94888C0.855146 6.64401 1.05957 6.34264 1.26399 6.04126C1.75895 5.31866 2.19572 4.54213 2.58906 3.75863C2.92498 3.05502 3.27914 2.37663 3.31795 1.58071C3.33114 1.36 3.54758 1.2611 3.7613 1.31774C4.1453 1.42403 4.34932 1.67965 4.34814 2.10282C4.34542 2.25836 4.31749 2.43213 4.29305 2.58418L4.22322 3.0186C4.54205 3.11442 4.6561 2.8208 4.86904 2.74362C5.34886 2.53107 5.72161 2.56871 6.09241 2.8957C6.34336 3.13658 6.44653 3.46512 6.41239 3.81615L6.22035 5.01081C6.39489 5.17256 6.48799 5.00927 6.56712 4.93286L8.43481 3.29451C8.72262 3.02882 9.0434 2.83528 9.40414 2.67044C9.85874 2.47613 10.2749 2.52075 10.6779 2.78607C11.001 2.99398 11.1763 3.28955 11.1352 3.68403C11.1158 4.08199 11.013 4.44427 10.8668 4.79956C10.5211 5.70215 10.0704 6.56555 9.64138 7.43245C9.08706 8.52432 9.01297 8.84664 9.14679 8.84587C9.66383 8.81757 10.0525 8.47896 10.4889 8.25944C11.6137 7.63809 12.7091 6.92287 13.6734 6.05288C13.8534 5.90356 14.0264 5.79767 14.2836 5.86129C14.7692 6.02848 14.8689 6.37874 14.5201 6.74605C14.3297 6.96054 14.114 7.19326 13.8836 7.37905C12.7498 8.3332 11.5284 9.13957 10.2192 9.79815C9.95238 9.93351 9.64905 10.0184 9.36396 10.1286C9.15101 10.2058 8.93031 10.1926 8.7131 10.1577ZM13.303 11.0292C12.5625 11.1998 11.9632 10.7692 11.9516 10.0098C11.9493 9.60832 12.0339 9.22083 12.1801 8.86553C12.814 7.14026 13.8873 5.73074 15.3384 4.60477C15.5905 4.42247 15.8391 4.2619 16.1425 4.17696C16.471 4.0738 16.7282 4.13742 16.9861 4.33486C17.1059 4.42097 17.2188 4.55052 17.1761 4.67736C17.0229 5.07609 17.1303 5.51673 17.0066 6.00933C16.9143 6.30645 16.8262 6.71566 16.6548 7.08918C16.512 7.42275 16.6528 7.37854 16.9899 7.49957C17.9394 7.83046 19.9777 8.18039 21.3442 7.4419C21.492 7.35425 21.665 7.24836 21.8527 7.18941C22.0909 7.094 22.4392 7.28368 22.5346 7.52184C22.5606 7.63743 22.5431 7.74604 22.464 7.82245C22.3058 7.97527 22.1258 8.1246 21.9528 8.23048C20.6375 9.06632 17.837 8.88355 16.3402 8.35327C16.1951 8.28539 16.076 8.33309 15.9864 8.47467L15.6315 9.01924C15.2731 9.58553 14.8565 10.0979 14.3235 10.5025C14.0175 10.7429 13.6932 10.9582 13.303 11.0292ZM13.1579 9.71347C13.3899 9.79532 13.5229 9.66073 13.6308 9.54437C14.1959 9.07815 14.5831 8.47191 14.9702 7.86566C15.2677 7.40099 15.3445 6.92313 15.1347 6.28777C14.2111 7.32028 13.5013 8.40943 13.1579 9.71347ZM21.7349 12.4068C21.112 12.2621 20.5205 11.922 20.1299 11.3021C19.9364 10.9813 19.7265 10.346 20.1017 9.53726C20.8057 8.06838 21.7859 6.82215 23.097 5.87421C23.6047 5.4879 24.1819 5.22416 24.8432 5.12992C25.1865 5.07369 25.4836 5.16601 25.7633 5.36694C26.1663 5.63227 26.2877 5.98602 26.1926 6.43867C26.0863 6.82267 25.8567 7.14227 25.6306 7.44016C24.8226 8.44668 23.847 9.24801 22.7369 9.91629C22.2683 10.1975 21.7633 10.4283 21.2618 10.6373C21.0488 10.7145 21.0139 10.9317 21.1884 11.0935C21.3847 11.2587 21.5914 11.3588 21.8626 11.3355C22.1554 11.3157 22.47 11.2995 22.7698 11.2363C24.5002 10.8682 26.9861 9.81945 28.4927 8.90294C28.7378 8.76408 28.9465 8.57481 29.1734 8.41074C29.476 8.19198 29.7184 8.20867 29.9946 8.43132C30.1292 8.56437 30.1811 8.79555 30.0663 8.95535C30.0089 9.03525 29.9263 9.13338 29.8471 9.20979C29.5411 9.45027 29.2533 9.71596 28.9325 9.9095C27.4442 10.8512 25.0017 11.907 23.2896 12.3002C22.8237 12.4259 22.3214 12.5011 21.7349 12.4068ZM21.5357 9.21071C21.507 9.25066 21.5217 9.29759 21.5364 9.34452C21.6198 9.38021 21.7172 9.32901 21.8145 9.27782C22.8742 8.64599 23.8211 7.88461 24.5969 6.93976C24.7656 6.72178 25.0612 6.54647 24.965 6.17449C24.6791 6.15082 24.434 6.28967 24.1888 6.42852C23.057 7.09331 22.209 8.07113 21.5357 9.21071ZM31.0025 14.1862C30.5316 14.066 30.219 13.7929 30.0933 13.327C29.9936 12.9768 29.9409 12.6118 30.0185 12.2677L30.214 11.0514C30.0325 10.9331 29.9464 11.0529 29.842 11.1475C29.2195 11.6937 28.5969 12.2398 27.9778 12.7642C27.7692 12.9534 27.5422 13.1175 27.3006 13.2346C26.9868 13.3847 26.6645 13.3107 26.4535 13.0985C26.2425 12.8863 26.2045 12.5682 26.4089 12.2669C26.5916 11.962 26.8177 11.6641 27.0187 11.3845C27.7006 10.4691 28.4007 9.57891 28.981 8.60264C29.1385 8.316 29.296 8.02936 29.4752 7.74621C29.6292 7.4813 29.6354 7.30404 29.3523 7.12483C29.189 7.03173 29.2204 6.83624 29.3352 6.67644C29.4283 6.51314 29.5214 6.34985 29.6545 6.21526C29.9632 5.81924 30.5097 5.88481 30.7545 6.30295C30.8716 6.5446 30.8801 6.7688 30.86 7.03294C30.8231 7.53951 30.616 7.99643 30.4088 8.45335C30.3018 8.70353 30.1765 8.92849 30.0477 9.17518C29.9476 9.38192 30.045 9.33072 30.1458 9.2578L30.5996 8.92967C30.9022 8.71091 31.235 8.71985 31.5468 8.8591C31.8769 9.02357 32.0193 9.247 31.9634 9.59454C31.911 9.92035 31.8152 10.2392 31.7194 10.558C31.5278 11.1957 31.4013 11.8438 31.3183 12.499C31.3078 12.5641 31.3338 12.6797 31.3737 12.7084C31.4501 12.7875 31.5258 12.7329 31.5797 12.6747C31.8458 12.4055 32.1336 12.1398 32.385 11.8237C33.4548 10.4359 34.4265 8.96547 35.34 7.44113C35.5836 7.03464 35.8054 6.62466 36.049 6.21817C36.1639 6.05836 36.2969 5.92377 36.5141 5.95869C36.7748 6.00059 36.9997 6.12588 37.0952 6.36404C37.1611 6.50833 37.1184 6.63517 37.0505 6.78023C36.7643 7.31356 36.5214 7.85387 36.2352 8.38719C35.5051 9.74049 34.6987 11.0146 33.8488 12.2818C33.4182 12.8811 32.9442 13.4734 32.3391 13.9109C31.9175 14.1773 31.4951 14.31 31.0025 14.1862ZM40.1873 15.6626C39.7164 15.5424 39.4038 15.2693 39.2781 14.8035C39.1785 14.4532 39.1257 14.0882 39.2033 13.7442L39.3988 12.5278C39.2173 12.4095 39.1312 12.5293 39.0269 12.624C38.4043 13.1701 37.7817 13.7162 37.1627 14.2406C36.954 14.4299 36.7271 14.5939 36.4854 14.7111C36.1716 14.8612 35.8493 14.7871 35.6383 14.5749C35.4273 14.3627 35.3893 14.0447 35.5937 13.7433C35.7764 13.4384 36.0026 13.1405 36.2035 12.8609C36.8854 11.9455 37.5856 11.0553 38.1659 10.0791C38.3233 9.79242 38.4808 9.50578 38.66 9.22263C38.814 8.95771 38.8202 8.78045 38.5371 8.60124C38.3738 8.50815 38.4052 8.31266 38.52 8.15285C38.6131 7.98956 38.7062 7.82627 38.8393 7.69168C39.148 7.29566 39.6946 7.36123 39.9393 7.77937C40.0564 8.02102 40.065 8.24522 40.0448 8.50936C40.0079 9.01593 39.8008 9.47285 39.5936 9.92976C39.4866 10.1799 39.3613 10.4049 39.2325 10.6516C39.1324 10.8583 39.2298 10.8071 39.3306 10.7342L39.7845 10.4061C40.087 10.1873 40.4198 10.1963 40.7317 10.3355C41.0618 10.5 41.2041 10.7234 41.1482 11.071C41.0959 11.3968 41 11.7156 40.9042 12.0344C40.7126 12.6721 40.5861 13.3203 40.5031 13.9754C40.4926 14.0405 40.5186 14.1561 40.5586 14.1848C40.635 14.264 40.7106 14.2093 40.7645 14.1511C41.0306 13.8819 41.3184 13.6162 41.5698 13.3001C42.6396 11.9123 43.6113 10.4419 44.5248 8.91755C44.7684 8.51106 44.9903 8.10107 45.2339 7.69458C45.3487 7.53478 45.4817 7.40019 45.6989 7.43511C45.9596 7.477 46.1846 7.6023 46.28 7.84046C46.3459 7.98475 46.3032 8.11159 46.2354 8.25665C45.9491 8.78998 45.7063 9.33029 45.42 9.86361C44.69 11.2169 43.8835 12.4911 43.0336 13.7582C42.6031 14.3575 42.1291 14.9498 41.524 15.3873C41.1023 15.6538 40.6799 15.7864 40.1873 15.6626ZM49.3721 17.1391C48.9013 17.0188 48.5886 16.7457 48.463 16.2799C48.3633 15.9296 48.3106 15.5646 48.3881 15.2206L48.5837 14.0042C48.4022 13.8859 48.316 14.0057 48.2117 14.1004C47.5891 14.6465 46.9666 15.1926 46.3475 15.717C46.1388 15.9063 45.9119 16.0703 45.6702 16.1875C45.3564 16.3376 45.0341 16.2635 44.8231 16.0513C44.6121 15.8391 44.5741 15.5211 44.7785 15.2197C44.9612 14.9148 45.1874 14.6169 45.3883 14.3373C46.0702 13.4219 46.7704 12.5317 47.3507 11.5555C47.5082 11.2688 47.6657 10.9822 47.8449 10.699C47.9989 10.4341 48.0051 10.2569 47.7219 10.0777C47.5586 9.98457 47.5901 9.78907 47.7049 9.62927C47.798 9.46598 47.8911 9.30268 48.0241 9.16809C48.3329 8.77208 48.8794 8.83764 49.1241 9.25579C49.2413 9.49744 49.2498 9.72163 49.2296 9.98578C49.1928 10.4923 48.9856 10.9493 48.7785 11.4062C48.6714 11.6564 48.5461 11.8813 48.4173 12.128C48.3173 12.3348 48.4146 12.2836 48.5155 12.2106L48.9693 11.8825C49.2718 11.6637 49.6046 11.6727 49.9165 11.8119C50.2466 11.9764 50.3889 12.1998 50.3331 12.5474C50.2807 12.8732 50.1849 13.192 50.0891 13.5109C49.8974 14.1485 49.771 14.7967 49.6879 15.4518C49.6775 15.517 49.7034 15.6325 49.7434 15.6613C49.8198 15.7404 49.8954 15.6857 49.9494 15.6275C50.2154 15.3583 50.5033 15.0926 50.7546 14.7765C51.8244 13.3887 52.7961 11.9183 53.7096 10.394C53.9532 9.98747 54.1751 9.57749 54.4187 9.171C54.5335 9.0112 54.6666 8.87661 54.8838 8.91152C55.1444 8.95342 55.3694 9.07871 55.4648 9.31687C55.5307 9.46117 55.4881 9.588 55.4202 9.73307C55.1339 10.2664 54.8911 10.8067 54.6048 11.34C53.8748 12.6933 53.0683 13.9675 52.2185 15.2347C51.7879 15.8339 51.3139 16.4262 50.7088 16.8637C50.2871 17.1302 49.8647 17.2628 49.3721 17.1391Z" fill="#3C204C"/>
</svg>
