<svg width="104" height="21" viewBox="0 0 104 21" fill="none" xmlns="http://www.w3.org/2000/svg">
<path d="M1.64974 14.46C1.18774 14.46 0.90174 14.196 0.90174 13.756C0.87974 13.514 0.92374 13.272 1.03374 13.03C1.29774 12.458 1.53974 11.864 1.80374 11.292C2.28774 10.28 2.79374 9.268 3.27774 8.234C3.45374 7.838 3.62974 7.442 3.62974 6.98C3.62974 6.936 3.65174 6.87 3.67374 6.826C3.73974 6.496 3.91574 6.32 4.13574 6.342C4.48774 6.364 4.72974 6.584 4.75174 6.914C4.75174 7.178 4.72974 7.464 4.68574 7.728C4.66374 7.948 4.57574 8.124 4.50974 8.344C4.64174 8.432 4.70774 8.344 4.79574 8.256L5.65374 7.266C6.29174 6.518 7.47974 6.914 7.72174 7.728C7.89774 8.278 7.89774 8.828 7.78774 9.378C7.74374 9.62 7.56774 9.752 7.32574 9.774C7.01774 9.774 6.77574 9.62 6.70974 9.334C6.68774 9.158 6.68774 9.004 6.66574 8.828L6.59974 8.432C6.59974 8.388 6.53374 8.344 6.51174 8.3C6.31374 8.278 6.22574 8.454 6.13774 8.564C5.74174 9.092 5.32374 9.62 4.94974 10.17C4.26774 11.204 3.60774 12.26 2.92574 13.294C2.72774 13.58 2.50774 13.866 2.28774 14.152C2.13374 14.372 1.89174 14.46 1.64974 14.46ZM4.50974 8.366L4.53174 8.41L4.50974 8.344L4.50974 8.366ZM9.39666 14.152C8.69266 14.438 8.03266 14.108 7.90066 13.36C7.83466 12.964 7.85666 12.568 7.94466 12.194C8.29666 10.39 9.13266 8.828 10.3867 7.486C10.6067 7.266 10.8267 7.068 11.1127 6.936C11.4207 6.782 11.6847 6.804 11.9707 6.958C12.1027 7.024 12.2347 7.134 12.2127 7.266C12.1247 7.684 12.3007 8.102 12.2567 8.608C12.2127 8.916 12.1907 9.334 12.0807 9.73C11.9927 10.082 12.1247 10.016 12.4767 10.082C13.4667 10.258 15.5347 10.28 16.7667 9.334C16.8987 9.224 17.0527 9.092 17.2287 9.004C17.4487 8.872 17.8227 9.004 17.9547 9.224C17.9987 9.334 17.9987 9.444 17.9327 9.532C17.8007 9.708 17.6467 9.884 17.4927 10.016C16.3267 11.05 13.5327 11.314 11.9707 11.028C11.8167 10.984 11.7067 11.05 11.6407 11.204L11.3767 11.798C11.1127 12.414 10.7827 12.986 10.3207 13.47C10.0567 13.756 9.77066 14.02 9.39666 14.152ZM9.04466 12.876C9.28666 12.92 9.39666 12.766 9.48466 12.634C9.96866 12.084 10.2547 11.424 10.5407 10.764C10.7607 10.258 10.7607 9.774 10.4527 9.18C9.70466 10.346 9.17666 11.534 9.04466 12.876ZM17.5884 14.328C17.3024 14.306 17.0164 14.306 16.7524 14.24C16.0704 14.042 15.6744 13.734 15.5864 12.92C15.5424 12.568 15.5864 12.194 15.7184 11.864C16.3564 10.258 17.2584 8.806 18.5564 7.64C18.8204 7.398 19.1284 7.2 19.4584 7.068C19.8984 6.892 20.3164 6.87 20.7564 7.046C21.2184 7.222 21.4164 7.618 21.2844 8.102C21.1524 8.63 20.8444 9.048 20.4044 9.356C20.2064 9.488 19.9644 9.598 19.7004 9.51C19.5464 9.466 19.3704 9.422 19.3044 9.246C19.2384 9.048 19.3704 8.938 19.5024 8.828C19.6344 8.696 19.8544 8.586 19.7884 8.322C19.5684 8.3 19.4584 8.498 19.3264 8.608C18.1824 9.642 17.4124 10.896 16.9064 12.326C16.5984 13.162 16.7964 13.382 17.6984 13.206C18.6004 13.052 19.4584 12.744 20.2944 12.37C22.2964 11.49 24.1884 10.412 25.9044 9.026C26.2564 8.74 26.4764 8.74 26.7844 8.938C26.9604 9.07 27.0264 9.29 26.8944 9.444C26.8064 9.576 26.6964 9.708 26.5644 9.818C26.2784 10.06 25.9704 10.324 25.6624 10.544C23.9684 11.82 22.1204 12.876 20.1404 13.69C19.3264 14.02 18.4904 14.306 17.5884 14.328ZM23.714 15.758C23.45 15.67 23.274 15.406 23.318 15.098C23.384 14.812 23.494 14.526 23.604 14.24C24.704 11.556 25.914 8.916 27.234 6.32C27.586 5.616 27.938 4.89 28.312 4.186C28.444 3.9 28.532 3.636 28.51 3.306C28.466 2.668 28.862 2.228 29.258 1.788C29.412 1.612 29.654 1.656 29.874 1.744C30.116 1.854 30.27 2.03 30.292 2.294C30.292 2.448 30.248 2.58 30.204 2.712C30.05 3.46 29.742 4.186 29.412 4.89L28.29 7.2C28.07 7.64 27.96 7.948 28.268 7.728C28.268 7.728 28.84 7.288 29.214 7.134C29.522 7.002 29.808 7.068 30.094 7.178C30.424 7.332 30.578 7.662 30.468 7.992C30.38 8.234 30.27 8.454 30.116 8.652C29.522 9.488 28.796 10.192 27.828 10.654C27.41 10.852 27.41 10.852 27.52 11.336C27.63 11.798 27.784 12.238 28.026 12.656C28.334 13.162 28.554 13.25 29.126 13.14C29.324 13.118 29.5 13.074 29.676 13.008C30.952 12.568 32.954 10.258 33.922 9.312C34.01 9.246 34.076 9.158 34.164 9.092C34.45 8.806 34.626 8.784 34.978 8.938C35.242 9.07 35.33 9.312 35.176 9.554C35.066 9.752 34.934 9.928 34.78 10.082C33.702 11.226 31.524 13.668 30.028 14.174C29.544 14.328 29.038 14.35 28.554 14.24C27.894 14.108 27.41 13.712 27.08 13.118C26.794 12.59 26.618 11.996 26.486 11.424C26.288 11.402 26.244 11.512 26.178 11.644C25.694 12.722 25.188 13.8 24.704 14.878C24.616 15.098 24.528 15.296 24.418 15.472C24.242 15.758 24 15.846 23.714 15.758ZM41.565 14.328C41.279 14.306 40.993 14.306 40.729 14.24C40.047 14.042 39.651 13.734 39.563 12.92C39.519 12.568 39.563 12.194 39.695 11.864C40.333 10.258 41.235 8.806 42.533 7.64C42.797 7.398 43.105 7.2 43.435 7.068C43.875 6.892 44.293 6.87 44.733 7.046C45.195 7.222 45.393 7.618 45.261 8.102C45.129 8.63 44.821 9.048 44.381 9.356C44.183 9.488 43.941 9.598 43.677 9.51C43.523 9.466 43.347 9.422 43.281 9.246C43.215 9.048 43.347 8.938 43.479 8.828C43.611 8.696 43.831 8.586 43.765 8.322C43.545 8.3 43.435 8.498 43.303 8.608C42.159 9.642 41.389 10.896 40.883 12.326C40.575 13.162 40.773 13.382 41.675 13.206C42.577 13.052 43.435 12.744 44.271 12.37C46.273 11.49 48.165 10.412 49.881 9.026C50.233 8.74 50.453 8.74 50.761 8.938C50.937 9.07 51.003 9.29 50.871 9.444C50.783 9.576 50.673 9.708 50.541 9.818C50.255 10.06 49.947 10.324 49.639 10.544C47.945 11.82 46.097 12.876 44.117 13.69C43.303 14.02 42.467 14.306 41.565 14.328ZM49.1646 15.01C48.7246 15.032 48.4386 14.834 48.3506 14.372C48.3066 14.218 48.3066 14.042 48.3066 13.998C48.3286 13.448 48.4606 13.008 48.5926 12.59C48.9226 11.534 51.1446 5.704 51.7606 4.472C52.2006 3.57 52.5966 2.668 53.0366 1.788C53.2786 1.282 53.5866 0.819999 54.0046 0.446C54.2686 0.181999 54.5986 0.159999 54.9286 0.291999C55.2146 0.424 55.3466 0.644 55.3026 0.973999C55.2366 1.326 55.0606 1.634 54.9066 1.964C54.2686 3.284 53.5426 4.56 52.7506 5.792C52.4206 6.32 52.1346 6.892 51.8926 7.464C51.1666 9.268 50.4626 11.072 49.8906 12.898C49.7146 13.448 49.4506 13.976 49.6046 14.592C49.6486 14.79 49.4066 14.988 49.1646 15.01ZM53.6411 14.218C52.6951 14.24 52.3211 13.668 52.2331 12.92C52.2111 12.678 52.2551 12.414 52.3211 12.172C52.6951 10.852 53.3771 9.686 54.3231 8.696C54.6751 8.366 54.9391 8.3 55.2911 8.476C55.4891 8.586 55.5551 8.784 55.4451 8.96C55.3351 9.136 55.2251 9.268 55.0931 9.422C54.4551 10.236 53.9491 11.116 53.6191 12.106C53.5311 12.392 53.4211 12.678 53.4431 12.986C53.4431 13.096 53.5531 13.184 53.6631 13.14C53.9491 12.986 54.2571 12.832 54.5211 12.634C55.6871 11.842 57.9091 9.708 58.3491 9.224C58.6131 8.938 58.7891 8.894 59.0751 9.048C59.2951 9.158 59.3831 9.378 59.2291 9.576C59.0971 9.796 58.9431 9.994 58.7891 10.17C57.4911 11.534 56.0611 12.986 54.8071 13.8C54.4551 14.02 54.0811 14.196 53.6411 14.218ZM55.5551 6.166C55.5551 6.012 55.5331 5.968 55.5551 5.902C55.6211 5.286 56.0611 5.066 56.6111 5.418C56.8311 5.572 56.9411 5.836 56.8531 6.078C56.7871 6.232 56.7211 6.364 56.6331 6.518C56.5231 6.672 56.3911 6.826 56.1711 6.804C55.9071 6.76 55.6871 6.65 55.5991 6.386C55.5551 6.298 55.5551 6.188 55.5551 6.166ZM65.5919 14.02C64.9539 14.02 64.5579 13.69 64.4699 13.052C64.3819 12.59 64.4259 12.106 64.5579 11.666C64.7559 10.94 64.9759 10.214 65.1739 9.51C65.6139 8.058 65.6579 7.662 65.5259 7.728C64.9759 8.014 64.6679 8.564 64.2719 9.026C63.5899 9.84 62.9959 10.742 62.4239 11.666C62.2479 11.952 62.0499 12.216 61.8739 12.502C61.6099 12.898 61.3459 12.92 60.9499 12.81C60.6419 12.722 60.4879 12.348 60.5539 11.908C60.6639 11.314 60.7959 10.72 60.9059 10.126C60.9939 9.62 61.0599 9.092 61.1479 8.498C60.7959 8.63 60.7079 8.85 60.5979 9.026C59.8499 10.082 59.1019 11.138 58.4419 12.26C58.3319 12.436 58.2439 12.59 58.1119 12.744C57.8919 13.008 57.5839 13.052 57.2979 12.854C57.0559 12.678 56.9899 12.436 57.1439 12.128C57.2759 11.798 57.4299 11.468 57.5839 11.138C57.9579 10.346 58.2659 9.51 58.5299 8.674C58.7499 7.926 58.9919 7.2 58.9039 6.408C58.8819 6.188 59.0799 6.056 59.2999 6.078C59.6959 6.122 59.9379 6.342 60.0039 6.76C60.0259 6.914 60.0259 7.09 60.0259 7.244L60.0259 7.684C60.3559 7.728 60.4219 7.42 60.6199 7.31C61.0599 7.024 61.4339 7.002 61.8519 7.266C62.1379 7.464 62.2919 7.772 62.3139 8.124L62.3139 9.334C62.5119 9.466 62.5779 9.29 62.6439 9.202L64.2279 7.288C64.4699 6.98 64.7559 6.738 65.0859 6.518C65.5039 6.254 65.9219 6.232 66.3619 6.43C66.7139 6.584 66.9339 6.848 66.9559 7.244C66.9999 7.64 66.9559 8.014 66.8679 8.388C66.6699 9.334 66.3619 10.258 66.0759 11.182C65.7019 12.348 65.6799 12.678 65.8119 12.656C66.3179 12.546 66.6479 12.15 67.0439 11.864C68.0559 11.072 69.0239 10.192 69.8379 9.18C69.9919 9.004 70.1459 8.872 70.4099 8.894C70.9159 8.982 71.0699 9.312 70.7839 9.73C70.6299 9.972 70.4539 10.236 70.2559 10.456C69.2879 11.578 68.2099 12.568 67.0219 13.426C66.7799 13.602 66.4939 13.734 66.2299 13.888C66.0319 13.998 65.8119 14.02 65.5919 14.02ZM68.3259 13.888C68.1059 13.734 67.9959 13.514 68.0839 13.228C68.1279 13.008 68.2379 12.766 68.3259 12.546L69.7779 9.554C70.5039 8.102 71.2079 6.628 71.8239 5.132C72.1539 4.274 72.4399 3.416 72.6159 2.514C72.6599 2.206 72.7259 1.92 72.4839 1.656C72.4399 1.612 72.4399 1.502 72.4179 1.436C72.3959 1.15 72.6599 0.885999 72.9459 0.952C73.3859 1.062 73.6279 1.348 73.6939 1.766C73.7599 2.206 73.7379 2.646 73.6499 3.086C73.4739 4.054 73.1879 5.022 72.8139 5.924C72.4399 6.804 72.0439 7.64 71.6699 8.498C71.6039 8.652 71.4719 8.784 71.6039 8.982C71.8459 8.806 72.1099 8.63 72.3519 8.476C72.6819 8.256 73.0119 8.08 73.3859 7.97C74.4639 7.684 75.2339 8.432 74.9699 9.488C74.8599 9.928 74.6839 10.324 74.4199 10.698C74.0459 11.248 73.5839 11.732 73.0119 12.084C71.9779 12.722 70.8999 13.272 69.6459 13.338C69.5139 13.36 69.3819 13.404 69.2939 13.514C69.2279 13.602 69.1619 13.69 69.0739 13.778C68.8319 13.998 68.5899 14.042 68.3259 13.888ZM70.4819 11.886C71.3179 11.644 72.2859 11.006 72.9019 10.324C73.2539 9.95 73.5619 9.532 73.6939 8.982C72.6599 9.29 70.9219 10.874 70.4819 11.886ZM76.8657 14.218C75.9197 14.24 75.5457 13.668 75.4577 12.92C75.4357 12.678 75.4797 12.414 75.5457 12.172C75.9197 10.852 76.6017 9.686 77.5477 8.696C77.8997 8.366 78.1637 8.3 78.5157 8.476C78.7137 8.586 78.7797 8.784 78.6697 8.96C78.5597 9.136 78.4497 9.268 78.3177 9.422C77.6797 10.236 77.1737 11.116 76.8437 12.106C76.7557 12.392 76.6457 12.678 76.6677 12.986C76.6677 13.096 76.7777 13.184 76.8877 13.14C77.1737 12.986 77.4817 12.832 77.7457 12.634C78.9117 11.842 81.1337 9.708 81.5737 9.224C81.8377 8.938 82.0137 8.894 82.2997 9.048C82.5197 9.158 82.6077 9.378 82.4537 9.576C82.3217 9.796 82.1677 9.994 82.0137 10.17C80.7157 11.534 79.2857 12.986 78.0317 13.8C77.6797 14.02 77.3057 14.196 76.8657 14.218ZM78.7797 6.166C78.7797 6.012 78.7577 5.968 78.7797 5.902C78.8457 5.286 79.2857 5.066 79.8357 5.418C80.0557 5.572 80.1657 5.836 80.0777 6.078C80.0117 6.232 79.9457 6.364 79.8577 6.518C79.7477 6.672 79.6157 6.826 79.3957 6.804C79.1317 6.76 78.9117 6.65 78.8237 6.386C78.7797 6.298 78.7797 6.188 78.7797 6.166ZM79.4445 15.252C79.2245 15.12 79.1145 14.834 79.2465 14.526C79.3125 14.35 79.4225 14.196 79.4885 14.02C80.0165 12.92 80.5225 11.82 81.0505 10.72C81.5125 9.774 81.7985 8.762 81.8645 7.706C81.8865 7.42 81.8865 7.156 81.9965 6.892C82.1285 6.584 82.3485 6.496 82.6565 6.584C82.9645 6.672 83.1185 6.892 83.1625 7.178C83.2285 7.508 83.2065 7.838 83.1405 8.168L82.9425 9.224C83.1625 9.378 83.3385 9.18 83.5145 9.158C84.2405 9.092 84.6805 9.444 84.6805 10.192C84.7025 10.544 84.6585 10.896 84.6145 11.27C84.5485 11.776 84.5265 12.304 84.5485 12.832C84.5705 13.184 84.7465 13.294 85.0325 13.14C85.3405 12.964 85.6045 12.788 85.8685 12.59C87.1005 11.732 88.2225 10.742 89.2785 9.686C89.4985 9.444 89.7405 9.224 89.9825 8.982C90.1805 8.784 90.4005 8.74 90.6645 8.828C91.0825 8.938 91.1925 9.224 90.9285 9.554C90.7525 9.796 90.5325 10.038 90.3345 10.258C89.2125 11.512 87.9805 12.678 86.6165 13.668C86.1765 13.998 85.7145 14.284 85.1425 14.394C84.3725 14.548 83.5365 14.262 83.3605 13.25C83.2945 12.854 83.2505 12.436 83.2945 12.018C83.3385 11.644 83.3605 11.248 83.3825 10.874L83.2285 10.808C83.0305 11.072 82.8325 11.336 82.6565 11.6C81.9745 12.612 81.2925 13.624 80.6105 14.614C80.4785 14.812 80.3465 14.988 80.2145 15.164C80.0385 15.362 79.6865 15.406 79.4445 15.252ZM87.8408 20.752C87.4008 20.73 87.1588 20.4 87.2468 19.96C87.3128 19.652 87.4888 19.41 87.6648 19.146C88.1928 18.42 88.7868 17.716 89.4248 17.078C90.0188 16.484 90.4808 15.802 90.8768 15.076C91.5368 13.822 92.1968 12.568 92.7688 11.292C92.8568 11.138 93.0108 10.962 92.8568 10.764H92.9228L92.8788 10.742C92.2188 11.358 91.5588 11.952 90.8328 12.436C90.5468 12.656 90.2168 12.81 89.9088 12.986C89.6888 13.118 89.4248 13.118 89.1828 13.074C88.7648 12.986 88.5008 12.7 88.4568 12.282C88.4348 11.996 88.4788 11.732 88.5888 11.468C89.2708 9.906 90.2608 8.542 91.6248 7.486C91.9768 7.2 92.3948 6.958 92.8788 6.936C93.5168 6.914 94.0448 7.046 94.2868 7.706C94.3528 7.904 94.5068 7.926 94.6608 7.992C95.1008 8.19 95.1888 8.388 95.0568 8.828C94.9908 9.136 94.8588 9.422 94.7488 9.686C94.3528 10.632 93.9348 11.556 93.5168 12.502C93.4508 12.656 93.2968 12.81 93.3628 13.052C93.6268 12.964 93.8028 12.744 94.0008 12.568C94.6608 11.974 96.7068 9.884 97.4328 9.378C97.5868 9.268 97.7408 9.136 97.8948 9.048C98.1368 8.938 98.3788 8.982 98.5768 9.18C98.6868 9.29 98.7088 9.444 98.6208 9.576C98.5328 9.686 98.4448 9.774 98.3348 9.862C96.5528 11.314 93.5388 14.416 91.9108 16.044C91.4928 16.462 91.1408 16.902 90.8548 17.408C90.3708 18.222 89.8648 19.014 89.2708 19.74C89.0508 20.026 88.7868 20.268 88.5228 20.51C88.3468 20.708 88.1048 20.774 87.8408 20.752ZM89.8648 11.688C90.1508 11.556 90.4148 11.358 90.6348 11.16C91.3168 10.544 91.9768 9.928 92.6808 9.356C93.0988 9.004 93.2528 8.564 93.3408 8.08C93.3848 7.904 93.2528 7.794 93.0988 7.838C92.6588 7.992 92.2848 8.278 91.9328 8.608C91.0968 9.4 90.4148 10.324 89.8868 11.358C89.8208 11.446 89.7548 11.556 89.8648 11.688ZM98.8117 12.392C98.5697 12.326 98.3717 12.062 98.4157 11.82C98.4597 11.556 98.5257 11.292 98.6137 11.028C98.8557 10.126 99.1857 9.246 99.5817 8.388C100.308 6.76 101.078 5.132 101.848 3.504C101.87 3.438 101.914 3.35 101.958 3.284C102.046 3.064 102.2 2.888 102.464 2.954C102.75 2.998 102.992 3.13 103.102 3.416C103.124 3.46 103.124 3.504 103.146 3.614L103.036 3.966C102.882 4.67 102.574 5.33 102.244 5.968L100.77 8.938C100.352 9.796 99.9777 10.676 99.6697 11.6C99.6037 11.776 99.5377 11.974 99.4497 12.128C99.3177 12.37 99.0977 12.458 98.8117 12.392ZM97.2497 15.12C97.2937 14.636 97.7557 14.24 98.1957 14.284C98.6577 14.328 99.0977 14.812 99.0537 15.23C99.0097 15.692 98.5477 16.044 98.0637 16C97.5797 15.956 97.2057 15.538 97.2497 15.12Z" fill="#3C204C"/>
</svg>
