<?xml version="1.0" encoding="UTF-8"?>
<svg version="1.1" xmlns="http://www.w3.org/2000/svg" width="1024" height="283">
<path d="M0 0 C1.31670807 -0.00320648 2.63341614 -0.00641296 3.99002445 -0.0097166 C7.62238505 -0.01827699 11.25464135 -0.01453518 14.88700337 -0.00866088 C18.84736478 -0.00447021 22.80770786 -0.01190401 26.76806474 -0.01781338 C33.70187478 -0.02655867 40.63565527 -0.02789345 47.56946945 -0.02431011 C57.88062418 -0.0189955 68.1917504 -0.02510606 78.50290203 -0.03339304 C97.99149542 -0.04862555 117.48007581 -0.05033888 136.96867391 -0.04787002 C152.01923163 -0.04603663 167.06978508 -0.04779792 182.12034225 -0.05209446 C184.2834331 -0.05269686 186.44652395 -0.05329806 188.6096148 -0.05389806 C191.86927944 -0.05480533 195.12894407 -0.05571399 198.3886087 -0.05663041 C228.6917814 -0.06505888 258.99495251 -0.06939638 289.29812622 -0.06522369 C290.44027314 -0.06506732 291.58242006 -0.06491094 292.75917749 -0.06474983 C298.54789053 -0.06394406 304.33660356 -0.06309829 310.12531659 -0.06223653 C311.27495112 -0.06206544 312.42458565 -0.06189435 313.60905759 -0.06171808 C315.93389731 -0.06137142 318.25873703 -0.06102289 320.58357676 -0.06067249 C356.75678873 -0.05531548 392.92997632 -0.06324557 429.10318375 -0.08170605 C469.75469978 -0.10242772 510.40620072 -0.11314844 551.05772233 -0.10913056 C555.3932929 -0.10873522 559.72886348 -0.10837367 564.06443405 -0.10803318 C565.13194183 -0.10794245 566.1994496 -0.10785172 567.2993061 -0.10775824 C583.40564804 -0.10659287 599.51197471 -0.11323594 615.61831284 -0.1238451 C633.93874833 -0.13590044 652.25915024 -0.13745219 670.57958624 -0.12505493 C680.82742299 -0.11843044 691.0751794 -0.12004797 701.32300971 -0.13364345 C708.1751698 -0.14189939 715.02726981 -0.13917553 721.87942503 -0.12766818 C725.77893701 -0.12142313 729.67829242 -0.11978135 733.57779524 -0.13153151 C763.2993604 -0.21493718 763.2993604 -0.21493718 777.36001968 3.25447559 C778.08088453 3.43157805 778.80174937 3.6086805 779.5444586 3.7911497 C801.28387466 9.16666685 820.2742485 19.9440581 837.36001968 34.25447559 C838.07029312 34.84099903 838.78056656 35.42752247 839.51236343 36.03181934 C844.28591704 40.07238967 848.40858185 44.4123448 852.36001968 49.25447559 C853.13345718 50.19033497 853.90689468 51.12619434 854.70376968 52.09041309 C866.90024046 67.17596007 875.89107041 84.78217849 881.17251968 103.44197559 C881.36749039 104.1295293 881.56246109 104.81708302 881.76334 105.52547169 C884.92313575 117.42068164 885.73634619 129.25957945 885.67251968 141.50447559 C885.67069687 142.23158741 885.66887405 142.95869923 885.666996 143.70784473 C885.62139452 154.51554357 885.10897398 164.75034128 882.36001968 175.25447559 C882.12653824 176.23964161 882.12653824 176.23964161 881.88834 177.24470997 C876.70767509 199.02211576 865.63832118 218.20704895 851.36001968 235.25447559 C850.77349625 235.96474903 850.18697281 236.67502247 849.58267593 237.40681934 C845.54210561 242.18037295 841.20215047 246.30303776 836.36001968 250.25447559 C835.42416031 251.02791309 834.48830093 251.80135059 833.52408218 252.59822559 C818.43853521 264.79469637 800.83231679 273.78552632 782.17251968 279.06697559 C781.48496597 279.2619463 780.79741226 279.456917 780.08902359 279.65779591 C769.06096127 282.58724605 758.09830605 283.55054276 746.72003937 283.50895119 C744.74497727 283.5137609 744.74497727 283.5137609 742.73001492 283.51866779 C739.09765432 283.52722818 735.46539802 283.52348637 731.83303599 283.51761206 C727.87267458 283.5134214 723.91233151 283.52085519 719.95197463 283.52676457 C713.01816459 283.53550985 706.0843841 283.53684464 699.15056992 283.5332613 C688.83941518 283.52794668 678.52828897 283.53405724 668.21713734 283.54234423 C648.72854395 283.55757674 629.23996355 283.55929006 609.75136545 283.5568212 C594.70080774 283.55498782 579.65025429 283.55674911 564.59969711 283.56104565 C562.43660626 283.56164805 560.27351541 283.56224925 558.11042456 283.56284925 C554.85075993 283.56375651 551.5910953 283.56466518 548.33143067 283.5655816 C518.02825796 283.57401007 487.72508686 283.57834757 457.42191315 283.57417488 C456.27976623 283.5740185 455.13761931 283.57386213 453.96086187 283.57370101 C448.17214884 283.57289524 442.38343581 283.57204947 436.59472278 283.57118771 C435.44508825 283.57101662 434.29545372 283.57084554 433.11098178 283.57066926 C430.78614206 283.57032261 428.46130233 283.56997408 426.13646261 283.56962368 C389.96325064 283.56426667 353.79006305 283.57219676 317.61685562 283.59065723 C276.96533959 283.61137891 236.31383865 283.62209963 195.66231704 283.61808175 C191.32674647 283.61768641 186.99117589 283.61732486 182.65560532 283.61698437 C181.58809754 283.61689364 180.52058976 283.6168029 179.42073327 283.61670942 C163.31439133 283.61554406 147.20806466 283.62218713 131.10172653 283.63279629 C112.78129103 283.64485163 94.46088913 283.64640338 76.14045313 283.63400612 C65.89261637 283.62738163 55.64485997 283.62899915 45.39702965 283.64259463 C38.54486957 283.65085058 31.69276955 283.64812671 24.84061433 283.63661937 C20.94110236 283.63037432 17.04174694 283.62873254 13.14224413 283.6404827 C-16.57932103 283.72388837 -16.57932103 283.72388837 -30.63998032 280.25447559 C-31.36084516 280.07737314 -32.08171 279.90027068 -32.82441923 279.71780149 C-54.56383529 274.34228433 -73.55420913 263.56489309 -90.63998032 249.25447559 C-91.70539047 248.37469044 -91.70539047 248.37469044 -92.79232407 247.47713184 C-97.56587767 243.43656152 -101.68854248 239.09660638 -105.63998032 234.25447559 C-106.80013657 232.85068653 -106.80013657 232.85068653 -107.98373032 231.41853809 C-120.18020109 216.33299112 -129.17103104 198.7267727 -134.45248032 180.06697559 C-134.64745102 179.37942188 -134.84242172 178.69186817 -135.04330063 177.9834795 C-138.20309639 166.08826955 -139.01630682 154.24937174 -138.95248032 142.00447559 C-138.94974609 140.91380787 -138.94974609 140.91380787 -138.94695663 139.80110645 C-138.90135516 128.99340762 -138.38893462 118.75860991 -135.63998032 108.25447559 C-135.48432602 107.59769825 -135.32867172 106.94092091 -135.16830063 106.26424122 C-129.98763572 84.48683543 -118.91828182 65.30190223 -104.63998032 48.25447559 C-104.05345688 47.54420216 -103.46693344 46.83392872 -102.86263657 46.10213184 C-98.82206624 41.32857824 -94.48211111 37.20591343 -89.63998032 33.25447559 C-88.70412094 32.48103809 -87.76826157 31.70760059 -86.80404282 30.91072559 C-71.71849584 18.71425482 -54.11227742 9.72342487 -35.45248032 4.44197559 C-34.76492661 4.24700489 -34.07737289 4.05203419 -33.36898422 3.85115528 C-22.3409219 0.92170514 -11.37826669 -0.04159157 0 0 Z " fill="#1F1F1F" transform="translate(138.6399803161621,-0.25447559356689453)"/>
<path d="M0 0 C0.09307671 8.56295212 0.16395435 17.12568947 0.20724869 25.68902397 C0.22803801 29.66623807 0.25619481 33.64310362 0.30175781 37.62011719 C0.34552794 41.46512353 0.36920204 45.30979667 0.37950897 49.15503311 C0.38684494 50.61493289 0.40116906 52.07481643 0.42292023 53.5345726 C0.56148413 63.22784584 -0.04328158 71.49716892 -5.859375 79.5859375 C-13.4044469 86.72569562 -20.20982117 90.10168596 -30.69706726 90.14717102 C-31.83381393 90.15432632 -32.97056061 90.16148163 -34.14175415 90.16885376 C-35.37976776 90.17154266 -36.61778137 90.17423157 -37.89331055 90.17700195 C-39.20446335 90.18357315 -40.51561615 90.19014435 -41.86650085 90.19691467 C-46.20656118 90.21788934 -50.54662159 90.22831135 -54.88671875 90.23828125 C-56.38506399 90.24233137 -57.88340905 90.24644837 -59.38175392 90.25063133 C-66.42330163 90.26966907 -73.46483896 90.28390267 -80.50640744 90.2922433 C-88.61526324 90.30200862 -96.72384557 90.32831546 -104.83260506 90.36874419 C-111.11306725 90.39897514 -117.39345134 90.41371879 -123.67398483 90.41702431 C-127.41907368 90.41936696 -131.1638699 90.42822409 -134.90888023 90.45348549 C-139.09266548 90.48125208 -143.27584505 90.47691384 -147.4597168 90.4699707 C-149.30155548 90.48918579 -149.30155548 90.48918579 -151.18060303 90.50878906 C-160.44918535 90.45286555 -168.69017523 88.74273207 -175.8125 82.4375 C-176.49957031 81.85871094 -177.18664062 81.27992188 -177.89453125 80.68359375 C-184.9670436 71.66909286 -185.6979333 62.52816273 -185.48828125 51.48828125 C-185.47893249 50.02427897 -185.47182616 48.56026083 -185.46684265 47.09623718 C-185.44793428 43.28023557 -185.3989791 39.46521606 -185.34332275 35.64959717 C-185.29177619 31.74114256 -185.26925383 27.83252613 -185.24414062 23.92382812 C-185.19083948 16.28210885 -185.10573009 8.64119307 -185 1 C-179.80916979 1.58187878 -174.85104957 2.4048267 -169.765625 3.63671875 C-169.0988826 3.79646683 -168.4321402 3.9562149 -167.74519348 4.12080383 C-166.31972575 4.46240077 -164.89466947 4.80571868 -163.47000122 5.15063477 C-159.65318818 6.07365868 -155.83268796 6.98107543 -152.01171875 7.88671875 C-151.24198227 8.06919159 -150.47224579 8.25166443 -149.67918396 8.43966675 C-142.8270209 10.05602313 -135.95183706 11.55038553 -129.0625 13 C-118.26837729 15.27688526 -107.50443894 17.66877734 -96.75 20.125 C-96.02773224 20.28935547 -95.30546448 20.45371094 -94.56130981 20.62304688 C-92.45187183 21.10348827 -90.34295066 21.58610103 -88.234375 22.0703125 C-87.21510674 22.30436798 -87.21510674 22.30436798 -86.17524719 22.54315186 C-82.64908259 23.36058963 -79.13500567 24.21252237 -75.62939453 25.11425781 C-74.91454895 25.29753632 -74.19970337 25.48081482 -73.4631958 25.66964722 C-71.49338996 26.17834595 -69.52566945 26.69510024 -67.55810547 27.21240234 C-53.64937379 30.29114314 -40.28759187 26.66531976 -28.3515625 19.265625 C-22.47218456 15.36063779 -16.78439311 11.17151079 -11.1015625 6.98828125 C-1.57428633 0 -1.57428633 0 0 0 Z " fill="#3E82F1" transform="translate(293,129)"/>
<path d="M0 0 C1.31670807 -0.00320648 2.63341614 -0.00641296 3.99002445 -0.0097166 C7.62238505 -0.01827699 11.25464135 -0.01453518 14.88700337 -0.00866088 C18.84736478 -0.00447021 22.80770786 -0.01190401 26.76806474 -0.01781338 C33.70187478 -0.02655867 40.63565527 -0.02789345 47.56946945 -0.02431011 C57.88062418 -0.0189955 68.1917504 -0.02510606 78.50290203 -0.03339304 C97.99149542 -0.04862555 117.48007581 -0.05033888 136.96867391 -0.04787002 C152.01923163 -0.04603663 167.06978508 -0.04779792 182.12034225 -0.05209446 C184.2834331 -0.05269686 186.44652395 -0.05329806 188.6096148 -0.05389806 C191.86927944 -0.05480533 195.12894407 -0.05571399 198.3886087 -0.05663041 C228.6917814 -0.06505888 258.99495251 -0.06939638 289.29812622 -0.06522369 C290.44027314 -0.06506732 291.58242006 -0.06491094 292.75917749 -0.06474983 C298.54789053 -0.06394406 304.33660356 -0.06309829 310.12531659 -0.06223653 C311.27495112 -0.06206544 312.42458565 -0.06189435 313.60905759 -0.06171808 C315.93389731 -0.06137142 318.25873703 -0.06102289 320.58357676 -0.06067249 C356.75678873 -0.05531548 392.92997632 -0.06324557 429.10318375 -0.08170605 C469.75469978 -0.10242772 510.40620072 -0.11314844 551.05772233 -0.10913056 C555.3932929 -0.10873522 559.72886348 -0.10837367 564.06443405 -0.10803318 C565.13194183 -0.10794245 566.1994496 -0.10785172 567.2993061 -0.10775824 C583.40564804 -0.10659287 599.51197471 -0.11323594 615.61831284 -0.1238451 C633.93874833 -0.13590044 652.25915024 -0.13745219 670.57958624 -0.12505493 C680.82742299 -0.11843044 691.0751794 -0.12004797 701.32300971 -0.13364345 C708.1751698 -0.14189939 715.02726981 -0.13917553 721.87942503 -0.12766818 C725.77893701 -0.12142313 729.67829242 -0.11978135 733.57779524 -0.13153151 C763.2993604 -0.21493718 763.2993604 -0.21493718 777.36001968 3.25447559 C778.08088453 3.43157805 778.80174937 3.6086805 779.5444586 3.7911497 C801.28387466 9.16666685 820.2742485 19.9440581 837.36001968 34.25447559 C838.07029312 34.84099903 838.78056656 35.42752247 839.51236343 36.03181934 C844.28591704 40.07238967 848.40858185 44.4123448 852.36001968 49.25447559 C853.13345718 50.19033497 853.90689468 51.12619434 854.70376968 52.09041309 C866.90024046 67.17596007 875.89107041 84.78217849 881.17251968 103.44197559 C881.36749039 104.1295293 881.56246109 104.81708302 881.76334 105.52547169 C884.92313575 117.42068164 885.73634619 129.25957945 885.67251968 141.50447559 C885.67069687 142.23158741 885.66887405 142.95869923 885.666996 143.70784473 C885.62139452 154.51554357 885.10897398 164.75034128 882.36001968 175.25447559 C882.12653824 176.23964161 882.12653824 176.23964161 881.88834 177.24470997 C876.70767509 199.02211576 865.63832118 218.20704895 851.36001968 235.25447559 C850.77349625 235.96474903 850.18697281 236.67502247 849.58267593 237.40681934 C845.54210561 242.18037295 841.20215047 246.30303776 836.36001968 250.25447559 C835.42416031 251.02791309 834.48830093 251.80135059 833.52408218 252.59822559 C818.43853521 264.79469637 800.83231679 273.78552632 782.17251968 279.06697559 C781.48496597 279.2619463 780.79741226 279.456917 780.08902359 279.65779591 C769.06096127 282.58724605 758.09830605 283.55054276 746.72003937 283.50895119 C744.74497727 283.5137609 744.74497727 283.5137609 742.73001492 283.51866779 C739.09765432 283.52722818 735.46539802 283.52348637 731.83303599 283.51761206 C727.87267458 283.5134214 723.91233151 283.52085519 719.95197463 283.52676457 C713.01816459 283.53550985 706.0843841 283.53684464 699.15056992 283.5332613 C688.83941518 283.52794668 678.52828897 283.53405724 668.21713734 283.54234423 C648.72854395 283.55757674 629.23996355 283.55929006 609.75136545 283.5568212 C594.70080774 283.55498782 579.65025429 283.55674911 564.59969711 283.56104565 C562.43660626 283.56164805 560.27351541 283.56224925 558.11042456 283.56284925 C554.85075993 283.56375651 551.5910953 283.56466518 548.33143067 283.5655816 C518.02825796 283.57401007 487.72508686 283.57834757 457.42191315 283.57417488 C456.27976623 283.5740185 455.13761931 283.57386213 453.96086187 283.57370101 C448.17214884 283.57289524 442.38343581 283.57204947 436.59472278 283.57118771 C435.44508825 283.57101662 434.29545372 283.57084554 433.11098178 283.57066926 C430.78614206 283.57032261 428.46130233 283.56997408 426.13646261 283.56962368 C389.96325064 283.56426667 353.79006305 283.57219676 317.61685562 283.59065723 C276.96533959 283.61137891 236.31383865 283.62209963 195.66231704 283.61808175 C191.32674647 283.61768641 186.99117589 283.61732486 182.65560532 283.61698437 C181.58809754 283.61689364 180.52058976 283.6168029 179.42073327 283.61670942 C163.31439133 283.61554406 147.20806466 283.62218713 131.10172653 283.63279629 C112.78129103 283.64485163 94.46088913 283.64640338 76.14045313 283.63400612 C65.89261637 283.62738163 55.64485997 283.62899915 45.39702965 283.64259463 C38.54486957 283.65085058 31.69276955 283.64812671 24.84061433 283.63661937 C20.94110236 283.63037432 17.04174694 283.62873254 13.14224413 283.6404827 C-16.57932103 283.72388837 -16.57932103 283.72388837 -30.63998032 280.25447559 C-31.36084516 280.07737314 -32.08171 279.90027068 -32.82441923 279.71780149 C-54.56383529 274.34228433 -73.55420913 263.56489309 -90.63998032 249.25447559 C-91.70539047 248.37469044 -91.70539047 248.37469044 -92.79232407 247.47713184 C-97.56587767 243.43656152 -101.68854248 239.09660638 -105.63998032 234.25447559 C-106.80013657 232.85068653 -106.80013657 232.85068653 -107.98373032 231.41853809 C-120.18020109 216.33299112 -129.17103104 198.7267727 -134.45248032 180.06697559 C-134.64745102 179.37942188 -134.84242172 178.69186817 -135.04330063 177.9834795 C-138.20309639 166.08826955 -139.01630682 154.24937174 -138.95248032 142.00447559 C-138.94974609 140.91380787 -138.94974609 140.91380787 -138.94695663 139.80110645 C-138.90135516 128.99340762 -138.38893462 118.75860991 -135.63998032 108.25447559 C-135.48432602 107.59769825 -135.32867172 106.94092091 -135.16830063 106.26424122 C-129.98763572 84.48683543 -118.91828182 65.30190223 -104.63998032 48.25447559 C-104.05345688 47.54420216 -103.46693344 46.83392872 -102.86263657 46.10213184 C-98.82206624 41.32857824 -94.48211111 37.20591343 -89.63998032 33.25447559 C-88.70412094 32.48103809 -87.76826157 31.70760059 -86.80404282 30.91072559 C-71.71849584 18.71425482 -54.11227742 9.72342487 -35.45248032 4.44197559 C-34.76492661 4.24700489 -34.07737289 4.05203419 -33.36898422 3.85115528 C-22.3409219 0.92170514 -11.37826669 -0.04159157 0 0 Z M-34.32748032 10.00447559 C-35.21757797 10.26688038 -36.10767563 10.52928516 -37.02474594 10.79964161 C-44.25998162 13.00055617 -50.92919022 15.74475883 -57.63998032 19.25447559 C-58.71376938 19.78814747 -59.78755844 20.32181934 -60.89388657 20.87166309 C-72.83430017 26.98989155 -82.91577848 35.0776626 -92.63998032 44.25447559 C-93.37732407 44.92736622 -94.11466782 45.60025684 -94.87435532 46.29353809 C-118.28382889 68.4578269 -132.48123023 101.70055455 -133.73763657 133.74519825 C-133.8696936 139.58542069 -133.80827864 145.41571638 -133.63998032 151.25447559 C-133.61033188 152.28314747 -133.58068344 153.31181934 -133.55013657 154.37166309 C-131.60164695 185.64254527 -115.73125025 214.9051299 -94.63998032 237.25447559 C-93.96708969 237.99181934 -93.29419907 238.72916309 -92.60091782 239.48885059 C-70.76608054 262.55036412 -37.80422756 276.70981988 -6.30035517 278.43763586 C-2.87601137 278.50696857 0.54300649 278.5177339 3.96801662 278.50336456 C5.269104 278.50597185 6.57019139 278.50857913 7.91070566 278.51126543 C11.49455841 278.51816741 15.07829901 278.51276514 18.66214646 278.50520934 C22.57156564 278.49919938 26.4809715 278.50487953 30.39039069 278.50903016 C37.23303695 278.51469944 44.07564997 278.51297971 50.91829491 278.5063448 C61.09354572 278.49650575 71.26877231 278.49816505 81.44402597 278.50209509 C98.56552634 278.50836401 115.68701292 278.5052057 132.80851173 278.49650097 C149.76395864 278.48788258 166.71939936 278.48298091 183.67484856 278.4831686 C184.73007242 278.48317625 185.78529629 278.48318389 186.87249664 278.48319177 C191.15605537 278.48323268 195.43961411 278.48329829 199.72317285 278.48339758 C239.89564985 278.4843034 280.06811741 278.47436264 320.24059114 278.45896792 C355.93054851 278.44534137 391.62049918 278.43910678 427.31045914 278.43977833 C429.60256021 278.43981874 431.89466128 278.4398591 434.18676236 278.43989941 C435.31993519 278.43991976 436.45310803 278.43994011 437.62061944 278.43996108 C443.32488133 278.44006187 449.02914322 278.44015245 454.73340511 278.44023132 C455.85877387 278.44024804 456.98414263 278.44026475 458.14361347 278.44028197 C487.96983821 278.44064713 517.79606211 278.43610861 547.62228614 278.42990476 C549.21371653 278.42957435 549.21371653 278.42957435 550.83729702 278.42923727 C555.10359371 278.42834905 559.36989039 278.42746064 563.63618707 278.42654631 C578.47773445 278.42338693 593.31928116 278.42187713 608.16082885 278.42143482 C627.28463519 278.42083774 646.40843601 278.41684347 665.53224 278.40700337 C675.64578797 278.40188924 685.75932784 278.39947871 695.87287705 278.40099955 C702.62782985 278.40173417 709.38277476 278.39882886 716.13772503 278.39295574 C719.98658081 278.38970744 723.83541959 278.38801674 727.68427619 278.39071634 C731.83271528 278.39358378 735.98110988 278.38871829 740.12954617 278.38311005 C741.916371 278.38619302 741.916371 278.38619302 743.73929331 278.38933828 C780.32752573 278.29876474 812.82307001 264.29762347 839.36001968 239.25447559 C840.09736343 238.58158497 840.83470718 237.90869434 841.59439468 237.21541309 C864.98058502 215.07316905 879.4954366 181.18811203 880.4220314 149.10750294 C881.33977013 111.76843041 870.20936628 76.89504911 844.31607437 49.37117481 C843.0005788 47.99588399 841.68042751 46.62505089 840.36001968 45.25447559 C839.39709 44.19679981 839.39709 44.19679981 838.41470718 43.11775684 C824.39397583 28.15624049 805.47005358 18.36821709 786.29751968 11.81697559 C785.37785416 11.49897999 784.45818863 11.18098438 783.51065445 10.85335255 C765.10511383 4.91107907 746.71779356 4.8166791 727.56489574 4.87527429 C723.65401017 4.8838677 719.74315563 4.87486528 715.8322717 4.86821014 C708.99310239 4.85895608 702.15400677 4.86073739 695.31483841 4.86994267 C685.14456402 4.88359363 674.97434577 4.87996026 664.80406722 4.87298406 C646.63650195 4.86107933 628.46897146 4.86612634 610.30140811 4.87826234 C594.40366677 4.88880947 578.50593726 4.89333643 562.60819244 4.89196682 C561.55258281 4.89188279 560.49697318 4.89179876 559.40937538 4.89171218 C555.12405115 4.89135992 550.83872693 4.8909759 546.55340271 4.89054661 C506.37758711 4.88658409 466.20179243 4.89928776 426.02598282 4.92007317 C390.34874895 4.93844444 354.67153512 4.9442545 318.99429703 4.93880177 C316.70309587 4.93845533 314.41189471 4.93810923 312.12069355 4.93776347 C310.98795498 4.93759248 309.85521642 4.93742148 308.68815244 4.93724531 C302.98583294 4.93639174 297.28351343 4.93556795 291.58119392 4.93477631 C289.89364136 4.93454069 289.89364136 4.93454069 288.17199682 4.9343003 C258.33951262 4.93030865 228.50703035 4.93578793 198.67454731 4.9442876 C195.46388805 4.94519462 192.25322878 4.94610026 189.04256952 4.94700283 C186.9128038 4.94760394 184.78303809 4.94821256 182.65327239 4.94882874 C167.81786213 4.9530468 152.98245567 4.95362975 138.14704501 4.95172324 C119.02838262 4.94927847 99.90974053 4.9533668 80.79108368 4.96893325 C70.68522361 4.97697225 60.57939736 4.97959332 50.47353529 4.97429089 C43.71746361 4.97130714 36.96142174 4.97563731 30.20535719 4.98583947 C26.36002162 4.99144856 22.51475484 4.99399825 18.6694188 4.98767289 C-8.13194419 4.85824703 -8.13194419 4.85824703 -34.32748032 10.00447559 Z " fill="#737674" transform="translate(138.6399803161621,-0.25447559356689453)"/>
<path d="M0 0 C1.66302658 -0.01073296 1.66302658 -0.01073296 3.35964966 -0.02168274 C4.57163528 -0.02437164 5.78362091 -0.02706055 7.03233337 -0.02983093 C8.31247314 -0.03640213 9.59261292 -0.04297333 10.9115448 -0.04974365 C15.15483862 -0.0707459 19.39813262 -0.08114552 23.64146423 -0.09111023 C25.10604305 -0.09515984 26.57062168 -0.09927683 28.03520012 -0.10346031 C34.92031 -0.1225071 41.80540922 -0.13673668 48.69054037 -0.14507228 C56.61771763 -0.15482962 64.54461454 -0.18111166 72.4716931 -0.22157317 C78.61117531 -0.25182601 84.7505776 -0.26654998 90.89013284 -0.26985329 C94.5508755 -0.27219422 98.21131851 -0.28102794 101.87198067 -0.30631447 C105.96467054 -0.33412827 110.05674222 -0.32973622 114.14952087 -0.32279968 C115.94624489 -0.34201477 115.94624489 -0.34201477 117.77926636 -0.36161804 C128.29949798 -0.29688119 137.09007155 1.86981723 144.82505798 9.28779602 C151.84094988 16.87771543 154.52982186 24.82057814 154.87413025 35.11006165 C154.62819966 39.92932727 153.66238752 42.58853857 150.05552673 45.86201477 C146.22209906 48.80033601 142.13859768 51.28908459 137.96372986 53.70967102 C135.71366673 55.04627027 133.5921752 56.46746391 131.46568298 57.99092102 C118.6370255 67.16983289 105.59715743 72.52914104 89.54380798 71.14717102 C85.84192029 70.45566024 82.22201302 69.46414588 78.58726501 68.48628235 C69.57463294 66.07882087 60.47859882 64.147423 51.35630798 62.20967102 C39.78966209 59.74184901 28.25858214 57.18762483 16.7698822 54.37495422 C6.87332356 51.95888909 -3.06284021 49.72768573 -13.00453186 47.50630188 C-19.17537967 46.12491798 -25.33182879 44.72266925 -31.45619202 43.14717102 C-31.95513475 30.42413127 -32.17247629 20.66840781 -23.83119202 10.33467102 C-17.35781731 3.48550115 -9.34604013 0.04148272 0 0 Z " fill="#E94435" transform="translate(139.45619201660156,86.85282897949219)"/>
<path d="M0 0 C1.66302658 -0.01073296 1.66302658 -0.01073296 3.35964966 -0.02168274 C4.57163528 -0.02437164 5.78362091 -0.02706055 7.03233337 -0.02983093 C8.31247314 -0.03640213 9.59261292 -0.04297333 10.9115448 -0.04974365 C15.15483862 -0.0707459 19.39813262 -0.08114552 23.64146423 -0.09111023 C25.10604305 -0.09515984 26.57062168 -0.09927683 28.03520012 -0.10346031 C34.92031 -0.1225071 41.80540922 -0.13673668 48.69054037 -0.14507228 C56.61771763 -0.15482962 64.54461454 -0.18111166 72.4716931 -0.22157317 C78.61117531 -0.25182601 84.7505776 -0.26654998 90.89013284 -0.26985329 C94.5508755 -0.27219422 98.21131851 -0.28102794 101.87198067 -0.30631447 C105.96467054 -0.33412827 110.05674222 -0.32973622 114.14952087 -0.32279968 C115.94624489 -0.34201477 115.94624489 -0.34201477 117.77926636 -0.36161804 C128.29949798 -0.29688119 137.09007155 1.86981723 144.82505798 9.28779602 C151.75946335 16.78956183 153.87971916 23.34976258 153.66880798 33.52217102 C153.65978455 34.35361633 153.65076111 35.18506165 153.64146423 36.04170227 C153.61807019 38.07698439 153.58220524 40.11211666 153.54380798 42.14717102 C152.22380798 42.14717102 150.90380798 42.14717102 149.54380798 42.14717102 C148.15708923 40.57295227 148.15708923 40.57295227 146.85630798 38.45967102 C143.54904324 33.71701981 139.75145441 31.48381933 134.54380798 29.14717102 C133.41383062 28.62968166 133.41383062 28.62968166 132.26102543 28.10173798 C129.27634863 27.05321172 126.97961523 26.88525952 123.82223511 26.86628723 C122.6799646 26.85486694 121.53769409 26.84344666 120.36080933 26.8316803 C119.11658707 26.82944458 117.87236481 26.82720886 116.59043884 26.8249054 C114.61389816 26.81001068 114.61389816 26.81001068 112.59742737 26.79481506 C108.98753064 26.76863456 105.37770821 26.75568936 101.76773143 26.74679375 C99.50772729 26.74091862 97.24774313 26.73270626 94.9877491 26.7237854 C87.90347993 26.69644725 80.81925681 26.67711077 73.73493856 26.66938162 C65.58235303 26.66043615 57.43044083 26.62541046 49.2780599 26.56738043 C42.96103729 26.52399101 36.64420298 26.50396468 30.3270331 26.50129938 C26.56161949 26.49921342 22.79683925 26.48762032 19.03158379 26.45166016 C15.48293326 26.41842803 11.93538276 26.41451441 8.38663101 26.43193817 C6.48284066 26.43418605 4.57908463 26.40695405 2.67550659 26.37843323 C-6.71156324 26.4684119 -14.81892871 28.76914266 -21.78682041 35.34751129 C-24.01819019 37.81055115 -25.96746321 40.16971341 -27.45619202 43.14717102 C-28.77619202 43.14717102 -30.09619202 43.14717102 -31.45619202 43.14717102 C-31.95513475 30.42413127 -32.17247629 20.66840781 -23.83119202 10.33467102 C-17.35781731 3.48550115 -9.34604013 0.04148272 0 0 Z " fill="#F7BB05" transform="translate(139.45619201660156,86.85282897949219)"/>
<path d="M0 0 C1.27940964 -0.00686325 2.55881927 -0.0137265 3.8769989 -0.02079773 C7.35858033 -0.03861217 10.83990812 -0.03758294 14.32152128 -0.03185534 C17.24117074 -0.02874596 20.1607727 -0.03487535 23.08041537 -0.04089409 C29.97536337 -0.05489966 36.87018737 -0.05341166 43.76513672 -0.04199219 C50.84867385 -0.03051871 57.93183202 -0.0445825 65.01531923 -0.07138866 C71.12438963 -0.09363104 77.23334182 -0.10016382 83.34244978 -0.09431225 C86.97906747 -0.0909613 90.61544245 -0.0932321 94.2520256 -0.11056328 C98.31278781 -0.12907453 102.37282524 -0.11475815 106.43359375 -0.09765625 C108.21078545 -0.1121582 108.21078545 -0.1121582 110.02388 -0.12695312 C121.16821953 -0.02919883 130.35500694 2.35595546 138.81103516 9.81811523 C145.30178537 18.06547923 146.54958378 25.18543914 146.15869141 35.52905273 C146.12485352 37.24995117 146.12485352 37.24995117 146.09033203 39.00561523 C146.03198018 41.80650388 145.95017293 44.60455022 145.84619141 47.40405273 C144.30172639 45.08735522 143.26450139 43.15588527 142.15869141 40.65405273 C138.29503742 32.95504992 133.11951761 29.00166924 125.08056641 26.13061523 C124.34322266 25.89084961 123.60587891 25.65108398 122.84619141 25.40405273 C121.85619141 25.07405273 120.86619141 24.74405273 119.84619141 24.40405273 C118.06960973 24.30533528 116.28955864 24.26477167 114.51025391 24.25688171 C112.84928932 24.24614876 112.84928932 24.24614876 111.1547699 24.23519897 C109.939189 24.23251007 108.72360809 24.22982117 107.47119141 24.22705078 C106.19119766 24.22047958 104.91120392 24.21390839 103.59242249 24.20713806 C99.34369152 24.18610718 95.09496026 24.17573203 90.84619141 24.16577148 C89.38068625 24.16172263 87.91518129 24.15760567 86.44967651 24.1534214 C79.55922384 24.13436661 72.66878186 24.12013994 65.77830791 24.11180943 C57.84263058 24.10205564 49.90723356 24.07578631 41.97165489 24.03530854 C35.82794659 24.00505464 29.68431817 23.99033155 23.54053688 23.98702842 C19.87642601 23.98468716 16.21261446 23.97584945 12.54858398 23.95056725 C8.45099563 23.92275183 4.35402471 23.92714582 0.25634766 23.93408203 C-0.9430394 23.92127197 -2.14242645 23.90846191 -3.37815857 23.89526367 C-13.70483233 23.95872818 -22.76677747 26.07401507 -30.43505859 33.33374023 C-32.93952514 36.35048403 -34.56045708 39.59944304 -36.14599609 43.16967773 C-37.15380859 45.40405273 -37.15380859 45.40405273 -39.15380859 48.40405273 C-40.43911482 19.99548955 -40.43911482 19.99548955 -33.15380859 11.40405273 C-23.61498973 1.43910107 -13.31723286 -0.05042676 0 0 Z " fill="#34A652" transform="translate(147.15380859375,63.595947265625)"/>
<path d="M0 0 C3.63 0 7.26 0 11 0 C11.44653931 1.89274658 11.44653931 1.89274658 11.90209961 3.82373047 C13.00474061 8.49457177 14.11063631 13.16463733 15.2175293 17.83447266 C15.69661189 19.85769903 16.17480544 21.88113613 16.65209961 23.90478516 C17.33735599 26.80947522 18.02578104 29.71339837 18.71484375 32.6171875 C18.92842026 33.52556366 19.14199677 34.43393982 19.36204529 35.36984253 C19.56217728 36.21056305 19.76230927 37.05128357 19.96850586 37.91748047 C20.14393417 38.65916473 20.31936249 39.400849 20.50010681 40.16500854 C20.95619953 42.07606089 20.95619953 42.07606089 22 44 C22.35191406 42.75089844 22.70382812 41.50179687 23.06640625 40.21484375 C26.87570983 26.75695801 30.88850366 13.36844521 35 0 C38.63 0 42.26 0 46 0 C46.36351562 1.21171875 46.72703125 2.4234375 47.1015625 3.671875 C47.46193604 4.87263672 47.46193604 4.87263672 47.82958984 6.09765625 C48.36448478 7.88129608 48.89865229 9.6651542 49.43212891 11.44921875 C50.84937996 16.18501253 52.2785255 20.91654194 53.734375 25.640625 C54.14695557 26.98882324 54.14695557 26.98882324 54.56787109 28.36425781 C55.09760389 30.09414144 55.63164483 31.82271288 56.17041016 33.54980469 C56.53078369 34.73171387 56.53078369 34.73171387 56.8984375 35.9375 C57.21820557 36.97197266 57.21820557 36.97197266 57.54443359 38.02734375 C58 40 58 40 58 44 C58.66 44 59.32 44 60 44 C60.12238037 42.6910376 60.24476074 41.3820752 60.37084961 40.03344727 C60.8900398 35.38163266 61.8624363 30.98127275 63.06640625 26.46484375 C63.26475571 25.70071671 63.46310516 24.93658966 63.66746521 24.14930725 C64.29329581 21.74379929 64.92772543 19.34066141 65.5625 16.9375 C65.99211095 15.29246763 66.42115248 13.64728645 66.84960938 12.00195312 C67.89317514 7.99955422 68.94445122 3.99925456 70 0 C73.63 0 77.26 0 81 0 C78.07076206 12.5271665 75.03416033 25.01283406 71.68994141 37.43603516 C71.19543678 39.27371654 70.70318337 41.11200427 70.21240234 42.95068359 C69.39555759 46.00986622 68.57356884 49.06762138 67.75 52.125 C67.49162354 53.09236084 67.23324707 54.05972168 66.96704102 55.05639648 C66.72526123 55.94786377 66.48348145 56.83933105 66.234375 57.7578125 C66.02006836 58.5533252 65.80576172 59.34883789 65.58496094 60.16845703 C65 62 65 62 64 63 C62.31391034 63.07205511 60.62499341 63.08386068 58.9375 63.0625 C58.01839844 63.05347656 57.09929688 63.04445312 56.15234375 63.03515625 C55.44207031 63.02355469 54.73179687 63.01195312 54 63 C49.48693617 47.71355632 45.13068164 32.39430048 41 17 C37.48739277 26.19900008 34.71731528 35.54479027 32 45 C31.08763139 48.16792874 30.17010223 51.33431007 29.25 54.5 C29.03931885 55.23621582 28.8286377 55.97243164 28.61157227 56.73095703 C27.11285043 61.88714957 27.11285043 61.88714957 26 63 C24.31391034 63.07205511 22.62499341 63.08386068 20.9375 63.0625 C20.01839844 63.05347656 19.09929688 63.04445312 18.15234375 63.03515625 C17.44207031 63.02355469 16.73179687 63.01195312 16 63 C15.81937012 62.29206299 15.63874023 61.58412598 15.45263672 60.85473633 C11.52618079 45.49988767 7.41839364 30.22007477 3 15 C2.36873379 12.81430006 1.74237563 10.62716403 1.125 8.4375 C0.90070312 7.65246094 0.67640625 6.86742187 0.4453125 6.05859375 C0 4 0 4 0 0 Z " fill="#F7F7F7" transform="translate(673,151)"/>
<path d="M0 0 C2.08689697 1.16797526 4.01078327 2.42484577 5.7109375 4.125 C6.0409375 2.805 6.3709375 1.485 6.7109375 0.125 C9.6809375 0.125 12.6509375 0.125 15.7109375 0.125 C15.81014855 6.95682587 15.88256905 13.78822816 15.93066406 20.62060547 C15.95072327 22.94261993 15.97797741 25.26458423 16.01269531 27.58642578 C16.06146291 30.93274345 16.08396393 34.27839059 16.1015625 37.625 C16.12220764 38.6555249 16.14285278 39.6860498 16.16412354 40.74780273 C16.16640893 48.16405628 14.87890047 53.29981395 10.03515625 59.1484375 C4.03869809 64.10016667 -1.91121563 65.68909383 -9.6640625 65.5 C-15.20314462 64.70870255 -20.21969068 62.3757325 -24.02734375 58.234375 C-25.4140625 56.3125 -25.4140625 56.3125 -27.2890625 53.125 C-24.37334762 50.64124288 -22.19119955 49.03425263 -18.2890625 49.125 C-16.765625 50.40625 -16.765625 50.40625 -15.1015625 52.0625 C-12.13708135 54.85183675 -10.24393403 55.60262897 -6.1640625 55.6875 C-2.17090193 55.42654878 0.62246039 54.82741747 3.7109375 52.125 C5.57158808 49.10632213 5.93948038 46.895458 5.8359375 43.375 C5.81789063 42.57578125 5.79984375 41.7765625 5.78125 40.953125 C5.75804687 40.34984375 5.73484375 39.7465625 5.7109375 39.125 C4.31875 40.3315625 4.31875 40.3315625 2.8984375 41.5625 C-1.33963287 45.23549432 -5.28097833 45.47758843 -10.7265625 45.3984375 C-17.17033204 44.71084014 -20.99343154 40.76723821 -25.02734375 36.00390625 C-29.62905492 29.15120324 -29.1603915 21.0214191 -28.2890625 13.125 C-26.14737613 7.33772248 -22.02030902 2.91777639 -16.62890625 -0.0625 C-11.27959196 -1.92002483 -5.31021322 -2.0298426 0 0 Z " fill="#F9F9F9" transform="translate(562.2890625,168.875)"/>
<path d="M0 0 C1.4540625 0.86625 1.4540625 0.86625 2.9375 1.75 C3.80375 2.265625 4.67 2.78125 5.5625 3.3125 C10.88886387 8.77903134 13.25050742 14.69988099 13.5625 22.3125 C13.2417257 29.87742733 10.68409062 35.47712978 5.125 40.625 C-1.57439462 45.09126308 -7.98180243 46.90622064 -16.0625 45.75 C-22.83063514 43.55301372 -27.70837661 39.33122904 -31.375 33.25 C-34.20555634 27.18616588 -34.01109845 20.0539715 -32.58984375 13.60546875 C-30.46609765 7.97181892 -26.39062152 3.16397211 -21.296875 0.0703125 C-14.95151402 -2.51994355 -6.43184204 -2.57840364 0 0 Z " fill="#F9F9F9" transform="translate(461.0625,169.25)"/>
<path d="M0 0 C6.42281595 2.83072435 9.92470126 6.99694939 13.0703125 13.1953125 C15.3298451 19.97391029 14.97330706 27.16920872 11.9453125 33.6328125 C8.42795819 39.78079314 4.04254654 43.43974242 -2.7265625 45.6875 C-9.4001083 47.22572864 -15.21810718 46.83157719 -21.18359375 43.38671875 C-26.43896723 39.80083752 -30.17950059 35.32096667 -31.9296875 29.1953125 C-32.8355828 21.52875417 -33.30691424 14.13412072 -28.42578125 7.7734375 C-20.29309077 -0.80517074 -11.69738726 -3.21288237 0 0 Z " fill="#F9F9F9" transform="translate(512.9296875,168.8046875)"/>
<path d="M0 0 C2.85660796 1.70474991 5.48346342 3.66784984 8.125 5.6875 C6.8501791 8.53133123 5.67362922 10.82504018 3.125 12.6875 C0.20489603 12.22802194 -1.82951795 11.16787749 -4.3125 9.625 C-10.49125033 6.47210497 -17.64639677 6.58737558 -24.27734375 8.3125 C-29.66595453 10.62929235 -32.92596922 14.71802599 -35.875 19.6875 C-38.04298741 26.19146222 -38.18281164 34.87036114 -35.3125 41.1875 C-32.16795037 46.34721876 -28.06976473 49.79333659 -22.5 52.0625 C-14.33881721 53.46960048 -8.08651274 53.11307623 -0.875 48.6875 C3.35921489 44.67613853 3.91163817 41.58979821 6.125 35.6875 C-0.805 35.6875 -7.735 35.6875 -14.875 35.6875 C-14.875 33.0475 -14.875 30.4075 -14.875 27.6875 C-4.645 27.6875 5.585 27.6875 16.125 27.6875 C16.125 39.03926543 14.92330922 46.7399878 6.984375 55.03515625 C-0.42355732 61.61825577 -8.68463146 63.18105778 -18.34375 62.98828125 C-28.3024745 62.14002706 -35.38578215 57.113306 -41.875 49.6875 C-47.98678871 41.18943522 -49.16624193 32.97212872 -47.875 22.6875 C-45.89962638 13.7617377 -40.57174967 7.17056359 -33.3203125 1.79296875 C-23.56808262 -3.97462427 -10.33294108 -5.01361638 0 0 Z " fill="#F8F8F8" transform="translate(406.875,152.3125)"/>
<path d="M0 0 C4.15345935 2.80569287 6.64631735 5.75401056 8.375 10.5 C8.98370991 16.34897293 8.84774791 22.12948393 8.6875 28 C8.66238499 29.60152768 8.63957746 31.20309329 8.61914062 32.8046875 C8.5643986 36.70407136 8.47830853 40.60161285 8.375 44.5 C5.075 44.5 1.775 44.5 -1.625 44.5 C-1.955 43.18 -2.285 41.86 -2.625 40.5 C-3.08648438 40.8609375 -3.54796875 41.221875 -4.0234375 41.59375 C-8.71639433 44.93261256 -12.37073522 46.30049964 -18.16015625 45.98828125 C-23.39782438 44.95070832 -27.07777061 42.19228215 -30.625 38.3125 C-32.16929406 33.96917296 -32.49623146 30.04032007 -31.625 25.5 C-28.97687758 20.61325864 -24.92057839 17.13681514 -19.625 15.5 C-12.8509198 14.96361051 -7.02731786 15.07984671 -0.625 17.5 C-1.81881279 13.12268643 -2.71102044 9.98203582 -6.625 7.5 C-12.41709444 6.78492661 -17.28325706 7.07634168 -22.625 9.5 C-22.625 10.16 -22.625 10.82 -22.625 11.5 C-25.11861571 10.29618552 -27.30643083 9.04571278 -29.625 7.5 C-27.88824232 3.53510929 -25.99910419 1.67211728 -22.30078125 -0.51171875 C-15.50382922 -3.02212585 -6.69889123 -2.84002423 0 0 Z " fill="#F5F5F5" transform="translate(786.625,169.5)"/>
<path d="M0 0 C5.69944896 2.43945286 8.66504203 7.08061423 11.5078125 12.421875 C12.5078125 15.421875 12.5078125 15.421875 12.5078125 24.421875 C0.9578125 24.421875 -10.5921875 24.421875 -22.4921875 24.421875 C-18.82552083 34.25520833 -18.82552083 34.25520833 -13.4921875 36.421875 C-9.19321332 37.03879728 -4.43069927 37.61729059 -0.6171875 35.265625 C-0.1221875 34.8015625 0.3728125 34.3375 0.8828125 33.859375 C3.5078125 31.421875 3.5078125 31.421875 6.1953125 31.421875 C8.59088106 32.45779654 9.74237117 33.5495914 11.5078125 35.421875 C7.64632065 40.62903826 3.88123725 44.62068974 -2.4921875 46.421875 C-9.86045036 47.38511152 -16.44842318 47.01892169 -22.4921875 42.421875 C-28.51194759 36.88205023 -31.59189674 30.84693757 -31.9921875 22.609375 C-31.80328333 16.32044022 -30.25941726 11.48380902 -26.4921875 6.421875 C-18.70066382 -0.89292066 -10.55482784 -2.44845536 0 0 Z " fill="#F7F7F7" transform="translate(638.4921875,168.578125)"/>
<path d="M0 0 C1.19367187 -0.01675781 2.38734375 -0.03351563 3.6171875 -0.05078125 C9.43710284 0.5519494 13.1876603 2.83991764 16.9375 7.25 C17.81341797 8.25353516 17.81341797 8.25353516 18.70703125 9.27734375 C22.2060851 14.29940176 21.125 19.11448819 21.125 25.3125 C9.905 25.3125 -1.315 25.3125 -12.875 25.3125 C-10.22415374 33.0249936 -10.22415374 33.0249936 -4.875 37.3125 C0.05534562 38.06197132 4.67317515 37.95130294 9.25 35.9375 C11.22169252 34.43829415 11.22169252 34.43829415 12.125 32.3125 C15.49962715 32.85973683 17.20735 33.3674 20.125 35.3125 C18.76100763 39.77647502 17.02597811 41.76838384 13.125 44.3125 C7.33848067 47.32819159 1.59212922 48.2378444 -4.875 47.3125 C-11.61940095 45.12321802 -16.49473262 40.90952231 -20.1875 34.875 C-23.19867219 28.35902084 -23.22916286 20.3346518 -20.95703125 13.5859375 C-16.45491264 4.87309954 -9.86269696 0.03181515 0 0 Z " fill="#F9F9F9" transform="translate(865.875,167.6875)"/>
<path d="M0 0 C2.64 0 5.28 0 8 0 C8 15.84 8 31.68 8 48 C5.69 48 3.38 48 1 48 C0.67 46.68 0.34 45.36 0 44 C-1.175625 44.9590625 -1.175625 44.9590625 -2.375 45.9375 C-6.02531099 48.8056015 -8.21233854 49.3492777 -12.90625 49.28125 C-17.47713131 48.66725102 -20.28155343 45.79827396 -23.25 42.5 C-27.27668593 36.74759152 -27.94544467 31.97506627 -27 25 C-25.76171777 21.91452816 -24.1343353 19.53377793 -22 17 C-20.9790625 15.7625 -20.9790625 15.7625 -19.9375 14.5 C-15.230404 12.09637651 -10.16396246 12.0660919 -5 13 C-3.35 14.32 -1.7 15.64 0 17 C0 11.39 0 5.78 0 0 Z " fill="#F2F2F2" transform="translate(430,63)"/>
<path d="M0 0 C2.31 0 4.62 0 7 0 C7 15.51 7 31.02 7 47 C5.02 47 3.04 47 1 47 C0.67 46.01 0.34 45.02 0 44 C-1.175625 44.9590625 -1.175625 44.9590625 -2.375 45.9375 C-6.02555181 48.80579071 -8.21487211 49.35375886 -12.91015625 49.27734375 C-17.68710998 48.64339288 -20.77895004 45.41308152 -23.8125 41.9375 C-27.74186376 36.66092581 -27.63321149 31.36778879 -27 25 C-25.5729066 20.61270716 -22.61757638 16.70769396 -18.9765625 13.87890625 C-14.63939303 11.95032299 -9.60286766 12.2307185 -5 13 C-3.68 13.99 -2.36 14.98 -1 16 C-0.67 10.72 -0.34 5.44 0 0 Z " fill="#F7F7F7" transform="translate(471,63)"/>
<path d="M0 0 C4.01684726 2.93915653 6.95784056 6.06102168 8.5625 10.875 C9.05238853 16.44045491 9.33064541 21.28180952 6.875 26.375 C1.98096295 31.66585087 -2.06734371 34.54885584 -9.3125 35.25 C-14.54088467 35.09245922 -18.26837628 33.02170384 -21.94921875 29.37890625 C-26.58303703 24.05466232 -26.78442745 19.63004432 -26.71875 12.82421875 C-26.21290299 7.51985075 -23.66734831 4.95843779 -19.8125 1.5625 C-14.03972739 -2.53920685 -6.59541689 -2.15850007 0 0 Z " fill="#F6F6F6" transform="translate(552.4375,77.125)"/>
<path d="M0 0 C1.23556641 0.01740234 1.23556641 0.01740234 2.49609375 0.03515625 C3.32238281 0.04417969 4.14867187 0.05320313 5 0.0625 C5.63808594 0.07410156 6.27617187 0.08570313 6.93359375 0.09765625 C7.37751465 1.25289795 7.82143555 2.40813965 8.27880859 3.59838867 C9.92967044 7.89425607 11.58097942 12.18995147 13.23242188 16.4855957 C13.94641068 18.34297083 14.66027905 20.20039226 15.37402344 22.05786133 C16.40137398 24.73140519 17.4291609 27.40478095 18.45703125 30.078125 C18.77481537 30.90539597 19.09259949 31.73266693 19.42001343 32.58500671 C19.72017365 33.36543839 20.02033386 34.14587006 20.32958984 34.94995117 C20.6077655 35.67677094 20.88594116 36.4035907 21.17254639 37.1524353 C21.79846639 38.75227358 22.46876082 40.33468001 23.15087891 41.91137695 C23.93359375 44.09765625 23.93359375 44.09765625 23.93359375 48.09765625 C21.29359375 48.09765625 18.65359375 48.09765625 15.93359375 48.09765625 C14.61359375 44.13765625 13.29359375 40.17765625 11.93359375 36.09765625 C5.33359375 35.76765625 -1.26640625 35.43765625 -8.06640625 35.09765625 C-8.72640625 38.06765625 -9.38640625 41.03765625 -10.06640625 44.09765625 C-10.39640625 45.41765625 -10.72640625 46.73765625 -11.06640625 48.09765625 C-14.03640625 48.09765625 -17.00640625 48.09765625 -20.06640625 48.09765625 C-17.56203892 39.05410756 -14.24941779 30.35154803 -10.91357422 21.59008789 C-9.93247478 19.01168365 -8.95809062 16.43080991 -7.984375 13.84960938 C-7.36367425 12.21209056 -6.74259458 10.57471532 -6.12109375 8.9375 C-5.82943329 8.164702 -5.53777283 7.39190399 -5.23727417 6.59568787 C-2.76845531 0.13083437 -2.76845531 0.13083437 0 0 Z " fill="#F4F4F4" transform="translate(376.06640625,62.90234375)"/>
<path d="M0 0 C2.97 0 5.94 0 9 0 C9 4.29 9 8.58 9 13 C12.63 13 16.26 13 20 13 C20 15.64 20 18.28 20 21 C16.37 21 12.74 21 9 21 C9.11362874 24.93813307 9.24038724 28.87507674 9.375 32.8125 C9.4059375 33.93205078 9.436875 35.05160156 9.46875 36.20507812 C9.50742187 37.27822266 9.54609375 38.35136719 9.5859375 39.45703125 C9.63306885 40.9416687 9.63306885 40.9416687 9.68115234 42.45629883 C9.83773433 45.24075094 9.83773433 45.24075094 12 48 C15.03866799 48.41137202 17.92159703 48.13193156 21 48 C21 50.97 21 53.94 21 57 C15.78540733 58.73819756 10.18297546 58.88247944 5.0625 56.8125 C1.70075266 53.85823718 0.1329303 51.26059848 -0.34057617 46.77026367 C-0.32486572 45.58150635 -0.30915527 44.39274902 -0.29296875 43.16796875 C-0.28330078 41.87568359 -0.27363281 40.58339844 -0.26367188 39.25195312 C-0.23860985 37.8971293 -0.21321506 36.54231159 -0.1875 35.1875 C-0.17244013 33.81316555 -0.15875401 32.43881532 -0.14648438 31.06445312 C-0.11116628 27.70923368 -0.06183851 24.35481834 0 21 C-2.64 21 -5.28 21 -8 21 C-8 18.36 -8 15.72 -8 13 C-5.36 13 -2.72 13 0 13 C0 8.71 0 4.42 0 0 Z " fill="#FAFAFA" transform="translate(900,156)"/>
<path d="M0 0 C4.84253353 1.71930287 8.05195394 4.39241574 10.33984375 9.0078125 C11.56830256 12.71499588 11.70503516 16.16768018 11 20 C8.50586109 24.64425866 6.05874933 28.31375022 1 30 C-3.69131123 30.54508569 -7.10330648 30.44834676 -11.375 28.3125 C-14.91363567 25.19513048 -16.72310539 23.23566755 -17.31640625 18.4453125 C-17.50832092 13.87650528 -17.34850902 10.73723061 -15.375 6.5625 C-10.68379365 1.50093526 -7.04432016 -0.98867651 0 0 Z " fill="#242424" transform="translate(454,176)"/>
<path d="M0 0 C4.84253353 1.71930287 8.05195394 4.39241574 10.33984375 9.0078125 C11.56830256 12.71499588 11.70503516 16.16768018 11 20 C8.50586109 24.64425866 6.05874933 28.31375022 1 30 C-3.6594918 30.54138857 -7.10553068 30.43067041 -11.375 28.375 C-14.98217883 25.11136201 -16.67268132 22.48115645 -17.31640625 17.6015625 C-17.5819504 11.89664634 -16.96201333 8.37906737 -13 4 C-8.638806 0.31721396 -5.68625269 -0.79807055 0 0 Z " fill="#232323" transform="translate(507,176)"/>
<path d="M0 0 C3.3 0 6.6 0 10 0 C10 20.79 10 41.58 10 63 C6.7 63 3.4 63 0 63 C0 42.21 0 21.42 0 0 Z " fill="#F1F1F1" transform="translate(805,151)"/>
<path d="M0 0 C3.3 0 6.6 0 10 0 C10 20.79 10 41.58 10 63 C6.7 63 3.4 63 0 63 C0 42.21 0 21.42 0 0 Z " fill="#F1F1F1" transform="translate(589,151)"/>
<path d="M0 0 C3.54502453 2.36334969 5.0067807 3.98575842 6.8125 7.875 C7.59689619 13.2537167 7.51125713 17.47748575 5.0625 22.375 C2.43454432 25.29495076 0.40006269 27.53195881 -3.51953125 28.37890625 C-8.40684316 28.49435456 -11.43160668 28.22670014 -15.25 25 C-18.86466113 21.47889481 -19.38089403 19.16506301 -19.5 14.125 C-19.44964151 8.86883277 -18.92502121 5.81454939 -15.1875 1.875 C-10.35049215 -2.04689826 -5.76079882 -2.03322311 0 0 Z " fill="#232323" transform="translate(562.1875,177.125)"/>
<path d="M0 0 C2.97 0 5.94 0 9 0 C9 20.46 9 40.92 9 62 C6.03 62 3.06 62 0 62 C0 41.54 0 21.08 0 0 Z " fill="#FFFFFF" transform="translate(826,151)"/>
<path d="M0 0 C2.31 0 4.62 0 7 0 C7 3.3 7 6.6 7 10 C9.97 10 12.94 10 16 10 C16 11.98 16 13.96 16 16 C13.03 16 10.06 16 7 16 C7.14046255 18.95867918 7.28712224 21.91682264 7.4375 24.875 C7.47681641 25.71675781 7.51613281 26.55851562 7.55664062 27.42578125 C7.61948242 28.63427734 7.61948242 28.63427734 7.68359375 29.8671875 C7.72025146 30.61081543 7.75690918 31.35444336 7.79467773 32.12060547 C7.89955865 34.08864312 7.89955865 34.08864312 9 36 C11.31 36 13.62 36 16 36 C16 38.31 16 40.62 16 43 C12.78070427 44.60964787 9.48112288 44.60686242 6 44 C2.78045355 41.46546343 1.29567565 39.88702695 0 36 C-0.08106686 34.44578271 -0.10756898 32.88832973 -0.09765625 31.33203125 C-0.09443359 30.43935547 -0.09121094 29.54667969 -0.08789062 28.62695312 C-0.07951172 27.69818359 -0.07113281 26.76941406 -0.0625 25.8125 C-0.05798828 24.87212891 -0.05347656 23.93175781 -0.04882812 22.96289062 C-0.03704626 20.64186288 -0.02059558 18.32096356 0 16 C-1.98 16 -3.96 16 -6 16 C-6 13.69 -6 11.38 -6 9 C-4.02 9 -2.04 9 0 9 C0 6.03 0 3.06 0 0 Z " fill="#F5F5F5" transform="translate(506,67)"/>
<path d="M0 0 C2.92970081 2.45138231 4.63434275 4.18236398 5.40234375 8 C5.61407629 12.47179133 4.83857782 15.57413022 2 19 C-0.6982018 21.11480682 -2.55721934 21.92463308 -5.9375 22.5 C-10.25011712 21.79589925 -11.88856971 20.03907145 -15 17 C-16.74221711 13.51556578 -16.58675154 9.80112955 -16 6 C-12.13949362 -0.97195928 -7.29482489 -2.01236549 0 0 Z " fill="#222222" transform="translate(549,83)"/>
<path d="M0 0 C3.26433057 0.93266588 4.48805589 2.76068272 6.16015625 5.6171875 C7.71492315 8.72672129 7.44660062 11.17985511 7.16015625 14.6171875 C5.51639095 17.72860038 4.12978739 19.90612467 1.28515625 21.9921875 C-1.63811016 22.85197174 -3.80319352 22.98902222 -6.83984375 22.6171875 C-10.21934689 20.4665946 -12.62432526 18.48474633 -13.83984375 14.6171875 C-14.31999475 10.29582851 -14.13157461 8.1503508 -12.02734375 4.3046875 C-8.14609342 -0.46370576 -5.73227296 -0.76430306 0 0 Z " fill="#252525" transform="translate(423.83984375,82.3828125)"/>
<path d="M0 0 C3.03522895 1.63435405 5.28352297 3.055553 7.375 5.8125 C8.73537221 10.57380273 8.56878187 13.92337717 6.25 18.3125 C3.23987313 21.90792932 1.6634068 22.7876502 -2.9375 23.375 C-6.78465622 22.90391965 -8.28305891 21.71694109 -11 19 C-13.52481154 15.51335549 -13.43474022 12.20248882 -13 8 C-9.75301878 2.06586192 -6.96213549 -0.81907476 0 0 Z " fill="#252525" transform="translate(464,82)"/>
<path d="M0 0 C1.2065625 0.495 1.2065625 0.495 2.4375 1 C2.78309158 3.90296927 2.95624316 6.12537491 1.4296875 8.69921875 C-0.75729231 11.40347821 -2.22919298 12.88889766 -5.5625 14 C-12.46660959 14.43835616 -12.46660959 14.43835616 -16.0625 13 C-18.01107101 10.40190532 -18.18889003 8.14663394 -18 4.94140625 C-17.5625 3 -17.5625 3 -15.625 0.5 C-10.33841483 -2.08934784 -5.56990472 -1.56348203 0 0 Z " fill="#252525" transform="translate(782.5625,193)"/>
<path d="M0 0 C3.5625 1.625 3.5625 1.625 6 4 C6.33 5.98 6.66 7.96 7 10 C-0.92 10 -8.84 10 -17 10 C-13.86437403 0.59312209 -9.50986552 -1.48876489 0 0 Z " fill="#232323" transform="translate(634,176)"/>
<path d="M0 0 C2.7844834 1.37263266 3.89251586 2.56828753 6 5 C6.33 6.65 6.66 8.3 7 10 C-0.92 10 -8.84 10 -17 10 C-16.0570981 5.28549049 -15.66535232 3.78364092 -11.94140625 0.95703125 C-8.06001175 -0.95633224 -4.17514051 -0.84585505 0 0 Z " fill="#222222" transform="translate(871,176)"/>
<path d="M0 0 C2.60649468 2.60649468 3.44024981 5.53134321 4.625 8.9375 C4.85445313 9.57107422 5.08390625 10.20464844 5.3203125 10.85742188 C6.32801716 13.70958596 7 15.95183307 7 19 C2.71 19 -1.58 19 -6 19 C-5.52877252 12.0886636 -2.79363994 6.27795839 0 0 Z " fill="#292929" transform="translate(378,72)"/>
</svg>
