<svg width="101" height="149" viewBox="0 0 101 149" fill="none" xmlns="http://www.w3.org/2000/svg">
<mask id="mask0_857_2089" style="mask-type:alpha" maskUnits="userSpaceOnUse" x="4" y="1" width="97" height="146">
<path d="M90.2932 102.53L80.7858 100.371L94.9545 118.538L94.8173 118.838L84.1506 115.32L100.187 136.453L99.9316 136.766L81.1649 129.444L79.3281 124.696L78.3303 122.043C78.3303 122.043 77.9392 121.019 77.4297 119.474C75.7592 114.407 74.134 109.326 72.5541 104.232C72.4736 103.806 72.3658 103.385 72.2313 102.972C69.511 93.7667 66.4095 84.672 63.6443 75.4954C63.4778 74.8473 63.8754 74.3786 64.2083 73.894C65.3814 72.1485 66.6393 70.4809 67.8217 68.744C68.3646 67.9398 67.9712 67.6535 67.2169 66.9519C66.8896 66.6685 67.2207 65.9407 67.1725 65.5157C67.6648 63.3706 68.8797 61.4985 69.734 59.5123C70.8797 56.8817 72.0162 54.2513 73.394 51.721C73.6104 51.3402 73.7365 50.9168 73.7627 50.4822C73.7889 50.0476 73.7146 49.613 73.5453 49.2106C73.1731 48.5276 72.9797 47.765 72.9822 46.9908C73.1173 46.029 73.1232 45.4382 73.4911 44.6036C73.7423 44.1394 73.3944 43.8459 73.9458 43.5067C72.9144 42.1336 71.3879 41.8367 70.4283 40.4167C70.0354 39.8122 69.9788 38.2515 69.306 37.9675C69.2277 37.7828 69.1921 37.5834 69.2018 37.3836C69.2114 37.1837 69.2661 36.9884 69.3619 36.8114C70.502 34.5926 71.5675 32.3314 72.8185 30.145C73.0608 29.69 73.3444 29.386 73.9036 29.6998L79.5204 48.7254C79.5204 48.7254 76.6055 47.4004 75.6107 47.0079L82.7649 60.7202L75.0109 57.8189L83.1862 71.7785L74.9787 70.1068L87.4464 88.344L78.5082 85.9357L78.3036 86.1299C82.6172 91.5867 86.9182 97.0259 91.2064 102.448C91.0749 102.539 90.9212 102.594 90.7609 102.608C90.6006 102.623 90.4393 102.596 90.2932 102.53Z" fill="url(#paint0_linear_857_2089)"/>
<path d="M12.4716 104.936L21.8276 102.195L8.80809 121.202L8.96359 121.492L19.3925 117.322L4.69172 139.406L4.9664 139.702L23.6567 131.293L24.7851 126.383L25.617 123.673C25.617 123.673 25.9442 122.627 26.3572 121.053C27.7116 115.892 29.0199 110.721 30.282 105.54C30.3361 105.109 30.4177 104.682 30.5264 104.261C32.6729 94.9059 35.2067 85.6371 37.3997 76.3071C37.5259 75.6499 37.1002 75.2067 36.7379 74.7436C35.4592 73.0739 36.2101 71.7855 34.9226 70.125C34.3311 69.3557 34.1588 69.1131 34.8682 68.3663C35.1775 68.0632 33.24 66.9916 33.2618 66.5644C32.638 64.4538 31.3098 62.6603 30.3344 60.7307C29.0284 58.1759 28.5216 55.5964 26.9902 53.1559C26.7506 52.7893 26.5987 52.3745 26.5457 51.9423C26.4927 51.5102 27.33 51.0473 26.6841 50.6597C27.0133 49.955 26.3693 49.2063 26.319 48.4337C26.1247 47.4822 26.007 47.3605 25.5882 46.5502C27.3656 47.3901 27.3254 46.3533 27.5442 46.0244C28.4888 44.5902 28.5477 43.2187 29.4177 41.7421C29.7726 41.1145 28.7768 39.5256 29.4307 39.2007C29.4975 39.0114 29.5207 38.8102 29.4987 38.6114C29.4767 38.4125 29.4101 38.2209 29.3036 38.0502C28.0286 35.9061 26.8254 33.715 25.4418 31.61C25.1718 31.1709 24.87 30.8849 24.3313 31.2327L19.8827 50.4978C19.8827 50.4978 22.7279 49.0664 23.6965 48.6132L17.403 62.7413L24.963 59.3665L17.6655 73.8045L25.7541 71.6289L14.4367 90.6015L23.2092 87.6456L23.4254 87.8268C19.457 93.5396 15.5002 99.2341 11.5551 104.91C11.692 104.993 11.8488 105.039 12.0097 105.043C12.1706 105.048 12.3299 105.011 12.4716 104.936Z" fill="url(#paint1_linear_857_2089)"/>
<path d="M78.5019 2.64406C78.2845 1.43833 76.9323 0.8407 75.9246 1.53744C74.0818 2.81146 71.4579 4.78198 69.8032 6.70402C67.0356 9.91886 63.8911 15.2941 63.8911 15.2941L75.0023 30.6638L79.7816 21.0081C80.7486 19.0543 81.0619 16.8413 80.675 14.6958L78.5019 2.64406Z" fill="url(#paint2_linear_857_2089)"/>
<path d="M18.4646 4.41945C18.6137 3.2253 19.8919 2.54961 20.938 3.14454C22.9599 4.29443 25.943 6.14084 27.8513 8.00098C30.963 11.0341 34.1385 16.2139 34.1385 16.2139L23.6284 31.7543L18.345 23.0202C17.1622 21.0648 16.6729 18.7679 16.9561 16.5002L18.4646 4.41945Z" fill="url(#paint3_linear_857_2089)"/>
<path d="M50.8911 69.5045L65.4831 69.0534L81.9553 129.42L53.2769 146.677L50.8911 69.5045Z" fill="url(#paint4_linear_857_2089)"/>
<path d="M50.9164 69.6291L36.3244 70.0802L23.6567 131.293L53.3021 146.801L50.9164 69.6291Z" fill="url(#paint5_linear_857_2089)"/>
<path d="M23.6284 31.7543L34.1385 16.2139L43.5807 19.44L31.7548 46.0829L23.6284 31.7543Z" fill="url(#paint6_linear_857_2089)"/>
<path d="M75.0023 30.6638L63.8911 15.2941L54.6932 19.0711L68.1612 44.9507L75.0023 30.6638Z" fill="url(#paint7_linear_857_2089)"/>
<path d="M35.3769 22.3792C36.341 19.6794 38.8598 17.8453 41.7252 17.7568L56.4149 17.3028C59.2803 17.2141 61.9078 18.8891 63.0368 21.5243L74.1721 47.5153C74.9531 49.3382 74.9205 51.4075 74.0825 53.2049L63.0136 76.9465L57.6274 89.6084C55.3018 95.0756 47.6404 95.3124 44.9815 89.9994L38.8235 77.6943L26.3092 54.6818C25.3617 52.9396 25.2014 50.8763 25.8683 49.0086L35.3769 22.3792Z" fill="url(#paint8_linear_857_2089)"/>
<path d="M50.8879 68.7147L65.4799 68.2636L81.9634 128.998L53.2881 146.354L50.8879 68.7147Z" fill="url(#paint9_linear_857_2089)"/>
<path d="M50.8879 68.7147L36.296 69.1658L23.5955 130.803L53.2881 146.354L50.8879 68.7147Z" fill="url(#paint10_linear_857_2089)"/>
<path d="M35.8645 72.4068L66.5715 71.4575L74.7629 102.778L53.2293 136.99L29.1629 104.188L35.8645 72.4068Z" fill="url(#paint11_linear_857_2089)"/>
<path d="M55.6762 61.8291L58.1812 57.8732C58.5655 57.2663 59.2257 56.8895 59.9437 56.8673L60.0971 56.8626C60.7923 56.8411 61.4556 57.1549 61.8799 57.7061L64.8358 61.5459L69.0606 67.3162C69.6466 68.1165 69.6139 69.2126 68.9812 69.9766L65.2362 74.4986L62.4506 78.172C61.6174 79.2707 59.9833 79.3212 59.0839 78.2761L56.0766 74.7817L52.0595 70.4997C51.3808 69.7763 51.2804 68.6843 51.8159 67.8493L55.6762 61.8291Z" fill="url(#paint12_linear_857_2089)"/>
<path d="M38.9484 58.4195C39.3104 57.8438 39.9351 57.486 40.6149 57.4649C41.227 57.446 41.8152 57.7026 42.2178 58.1641L45.684 62.138L49.9088 67.9083C50.4948 68.7086 50.4621 69.8048 49.8294 70.5687L46.0844 75.0907L43.2988 78.7641C42.4656 79.8628 40.8315 79.9133 39.932 78.8682L36.9248 75.3738L32.8972 71.0807C32.2234 70.3624 32.1191 69.28 32.6433 68.4464L38.9484 58.4195Z" fill="url(#paint13_linear_857_2089)"/>
<path d="M45.3069 31.3274C46.3027 29.6092 48.1153 28.5272 50.1002 28.466L53.2885 28.3647C53.2896 28.3647 53.2906 28.3651 53.2914 28.3658L53.2917 28.3661C53.292 28.3664 53.2923 28.3668 53.2924 28.3672C53.2925 28.3674 53.2926 28.3676 53.2927 28.3678L62.068 42.7187C63.2026 44.5742 63.4059 46.853 62.6178 48.8801L57.2505 62.685C55.129 68.674 46.6527 68.936 44.1653 63.0895L38.0258 49.7946C37.0746 47.7348 37.1855 45.3409 38.3231 43.3779L45.3069 31.3274Z" fill="url(#paint14_linear_857_2089)"/>
<path d="M43.806 23.2183L49.168 13.0721L55.1465 22.8677L61.7741 36.9695L55.932 48.2775L50.6055 59.5695L44.5915 48.6281L38.0621 37.7025L43.806 23.2183Z" fill="url(#paint15_linear_857_2089)"/>
<path d="M33.7748 48.7411C35.3357 47.323 35.2697 44.9103 33.6342 43.5998L31.6558 42.0146C30.0588 40.735 27.6608 41.0687 26.4761 42.7354L25.2956 44.3961C24.4153 45.6344 24.462 47.2762 25.4108 48.4511L26.7124 50.063C27.9876 51.6422 30.3955 51.8112 31.9175 50.4284L33.7748 48.7411Z" fill="url(#paint16_linear_857_2089)"/>
<path d="M34.0483 47.4391L35.6398 46.608C35.9568 46.4424 35.8311 45.962 35.4735 45.973L24.2643 46.3195C23.9913 46.328 23.9429 46.7134 24.2053 46.7892C24.2183 46.7929 24.2309 46.7977 24.243 46.8036L26.2537 47.7745C28.1152 48.8516 30.3744 48.9924 32.3553 48.1549L34.0483 47.4391Z" fill="url(#paint17_linear_857_2089)"/>
<path d="M34.0637 45.0259L35.9097 45.8491C36.1862 45.9724 36.1051 46.3848 35.8025 46.3942L24.3676 46.7477C24.0946 46.7561 24.0224 46.3744 24.2796 46.2826C24.2924 46.2781 24.3047 46.2725 24.3164 46.2659L26.2633 45.1726C28.0547 43.9826 30.3009 43.7025 32.3298 44.4161L34.0637 45.0259Z" fill="url(#paint18_linear_857_2089)"/>
<path d="M66.7574 47.4544C65.1282 46.1255 65.049 43.6939 66.5886 42.2715L68.3749 40.6212C69.8788 39.2317 72.2727 39.4153 73.5461 41.0177L74.7786 42.5688C75.7243 43.7588 75.7776 45.4134 74.9104 46.6563L73.7713 48.2889C72.604 49.9618 70.2278 50.2852 68.6371 48.9877L66.7574 47.4544Z" fill="url(#paint19_linear_857_2089)"/>
<path d="M66.3889 46.1552L64.7724 45.4211C64.4484 45.2739 64.5453 44.7901 64.901 44.7791L75.9165 44.4386C76.1889 44.4301 76.2618 44.8105 76.0056 44.9034C75.9927 44.9081 75.9803 44.9138 75.9684 44.9206L74.0559 46.0125C72.2989 47.1994 70.0815 47.4781 68.0854 46.763L66.3889 46.1552Z" fill="url(#paint20_linear_857_2089)"/>
<path d="M66.3157 43.7874L64.5516 44.724C64.2856 44.8653 64.3928 45.2689 64.6938 45.2596L75.9311 44.9122C76.2035 44.9038 76.2528 44.5196 75.9913 44.4427C75.9782 44.4389 75.9655 44.4339 75.9532 44.4279L73.9769 43.4562C72.1499 42.3801 69.9195 42.2389 67.9714 43.076L66.3157 43.7874Z" fill="url(#paint21_linear_857_2089)"/>
<path d="M47.0695 84.3939L55.6683 84.128L64.3592 91.0577L56.8048 97.6897C56.8048 97.6897 53.7676 97.7836 51.7888 97.8447C49.8101 97.9059 46.7728 97.9998 46.7728 97.9998L38.8232 91.8471L47.0695 84.3939Z" fill="url(#paint22_linear_857_2089)"/>
<path d="M57.5433 86.275L45.3305 86.6525C42.1392 86.7512 39.857 83.5961 40.9495 80.5961L43.1998 74.417C44.1753 71.7384 46.6838 69.9239 49.5332 69.8358L52.3098 69.7499C55.1592 69.6618 57.775 71.318 58.9141 73.9312L61.5418 79.9595C62.8175 82.8863 60.7346 86.1764 57.5433 86.275Z" fill="url(#paint23_linear_857_2089)"/>
<path d="M46.9064 79.1199L55.5053 78.854L64.1789 85.2243L57.1094 92.779C57.1094 92.779 53.6162 92.8869 51.6374 92.9481C49.6587 93.0093 46.1655 93.1173 46.1655 93.1173L38.6429 86.0137L46.9064 79.1199Z" fill="url(#paint24_linear_857_2089)"/>
<path d="M40.8773 72.767L50.5966 59.29L61.1299 72.1409L55.7 78.9451L46.72 79.2227L40.8773 72.767Z" fill="url(#paint25_linear_857_2089)"/>
<path d="M49.169 13.0829L32.1557 19.2279L38.1383 37.7755L46.6066 18.7812L49.169 13.0829Z" fill="url(#paint26_linear_857_2089)"/>
<path d="M49.169 13.0829L66.2513 18.1739L61.73 37.1172L52.0785 18.612L49.169 13.0829Z" fill="url(#paint27_linear_857_2089)"/>
<path d="M38.8153 38.2123C38.4131 38.0332 38.3815 37.4744 38.7609 37.2511L49.4611 30.9556C49.6201 30.8621 49.8158 30.8559 49.9803 30.9394L61.0706 36.5612C61.4637 36.7605 61.4667 37.3208 61.0757 37.5243L50.3321 43.1156C50.1858 43.1918 50.0127 43.1971 49.862 43.13L38.8153 38.2123Z" fill="url(#paint28_linear_857_2089)"/>
</mask>
<g mask="url(#mask0_857_2089)">
<rect x="-15.1035" y="-7.01404" width="126.328" height="171.263" transform="rotate(-1.7707 -15.1035 -7.01404)" fill="#36383C"/>
<rect x="7.41699" y="8.73376" width="90.7186" height="161.417" transform="rotate(-31.7707 7.41699 8.73376)" fill="url(#paint29_linear_857_2089)"/>
</g>
<defs>
<linearGradient id="paint0_linear_857_2089" x1="48.9411" y1="24.763" x2="52.5028" y2="139.974" gradientUnits="userSpaceOnUse">
<stop stop-color="#FDFDFD"/>
<stop offset="1" stop-color="#76777B"/>
</linearGradient>
<linearGradient id="paint1_linear_857_2089" x1="48.9411" y1="24.763" x2="52.5028" y2="139.974" gradientUnits="userSpaceOnUse">
<stop stop-color="#FDFDFD"/>
<stop offset="1" stop-color="#76777B"/>
</linearGradient>
<linearGradient id="paint2_linear_857_2089" x1="48.9411" y1="24.763" x2="52.5028" y2="139.974" gradientUnits="userSpaceOnUse">
<stop stop-color="#FDFDFD"/>
<stop offset="1" stop-color="#76777B"/>
</linearGradient>
<linearGradient id="paint3_linear_857_2089" x1="48.9411" y1="24.763" x2="52.5028" y2="139.974" gradientUnits="userSpaceOnUse">
<stop stop-color="#FDFDFD"/>
<stop offset="1" stop-color="#76777B"/>
</linearGradient>
<linearGradient id="paint4_linear_857_2089" x1="48.9411" y1="24.763" x2="52.5028" y2="139.974" gradientUnits="userSpaceOnUse">
<stop stop-color="#FDFDFD"/>
<stop offset="1" stop-color="#76777B"/>
</linearGradient>
<linearGradient id="paint5_linear_857_2089" x1="48.9411" y1="24.763" x2="52.5028" y2="139.974" gradientUnits="userSpaceOnUse">
<stop stop-color="#FDFDFD"/>
<stop offset="1" stop-color="#76777B"/>
</linearGradient>
<linearGradient id="paint6_linear_857_2089" x1="48.9411" y1="24.763" x2="52.5028" y2="139.974" gradientUnits="userSpaceOnUse">
<stop stop-color="#FDFDFD"/>
<stop offset="1" stop-color="#76777B"/>
</linearGradient>
<linearGradient id="paint7_linear_857_2089" x1="48.9411" y1="24.763" x2="52.5028" y2="139.974" gradientUnits="userSpaceOnUse">
<stop stop-color="#FDFDFD"/>
<stop offset="1" stop-color="#76777B"/>
</linearGradient>
<linearGradient id="paint8_linear_857_2089" x1="48.9411" y1="24.763" x2="52.5028" y2="139.974" gradientUnits="userSpaceOnUse">
<stop stop-color="#FDFDFD"/>
<stop offset="1" stop-color="#76777B"/>
</linearGradient>
<linearGradient id="paint9_linear_857_2089" x1="48.9411" y1="24.763" x2="52.5028" y2="139.974" gradientUnits="userSpaceOnUse">
<stop stop-color="#FDFDFD"/>
<stop offset="1" stop-color="#76777B"/>
</linearGradient>
<linearGradient id="paint10_linear_857_2089" x1="48.9411" y1="24.763" x2="52.5028" y2="139.974" gradientUnits="userSpaceOnUse">
<stop stop-color="#FDFDFD"/>
<stop offset="1" stop-color="#76777B"/>
</linearGradient>
<linearGradient id="paint11_linear_857_2089" x1="48.9411" y1="24.763" x2="52.5028" y2="139.974" gradientUnits="userSpaceOnUse">
<stop stop-color="#FDFDFD"/>
<stop offset="1" stop-color="#76777B"/>
</linearGradient>
<linearGradient id="paint12_linear_857_2089" x1="48.9411" y1="24.763" x2="52.5028" y2="139.974" gradientUnits="userSpaceOnUse">
<stop stop-color="#FDFDFD"/>
<stop offset="1" stop-color="#76777B"/>
</linearGradient>
<linearGradient id="paint13_linear_857_2089" x1="48.9411" y1="24.763" x2="52.5028" y2="139.974" gradientUnits="userSpaceOnUse">
<stop stop-color="#FDFDFD"/>
<stop offset="1" stop-color="#76777B"/>
</linearGradient>
<linearGradient id="paint14_linear_857_2089" x1="48.9411" y1="24.763" x2="52.5028" y2="139.974" gradientUnits="userSpaceOnUse">
<stop stop-color="#FDFDFD"/>
<stop offset="1" stop-color="#76777B"/>
</linearGradient>
<linearGradient id="paint15_linear_857_2089" x1="48.9411" y1="24.763" x2="52.5028" y2="139.974" gradientUnits="userSpaceOnUse">
<stop stop-color="#FDFDFD"/>
<stop offset="1" stop-color="#76777B"/>
</linearGradient>
<linearGradient id="paint16_linear_857_2089" x1="48.9411" y1="24.763" x2="52.5028" y2="139.974" gradientUnits="userSpaceOnUse">
<stop stop-color="#FDFDFD"/>
<stop offset="1" stop-color="#76777B"/>
</linearGradient>
<linearGradient id="paint17_linear_857_2089" x1="48.9411" y1="24.763" x2="52.5028" y2="139.974" gradientUnits="userSpaceOnUse">
<stop stop-color="#FDFDFD"/>
<stop offset="1" stop-color="#76777B"/>
</linearGradient>
<linearGradient id="paint18_linear_857_2089" x1="48.9411" y1="24.763" x2="52.5028" y2="139.974" gradientUnits="userSpaceOnUse">
<stop stop-color="#FDFDFD"/>
<stop offset="1" stop-color="#76777B"/>
</linearGradient>
<linearGradient id="paint19_linear_857_2089" x1="48.9411" y1="24.763" x2="52.5028" y2="139.974" gradientUnits="userSpaceOnUse">
<stop stop-color="#FDFDFD"/>
<stop offset="1" stop-color="#76777B"/>
</linearGradient>
<linearGradient id="paint20_linear_857_2089" x1="48.9411" y1="24.763" x2="52.5028" y2="139.974" gradientUnits="userSpaceOnUse">
<stop stop-color="#FDFDFD"/>
<stop offset="1" stop-color="#76777B"/>
</linearGradient>
<linearGradient id="paint21_linear_857_2089" x1="48.9411" y1="24.763" x2="52.5028" y2="139.974" gradientUnits="userSpaceOnUse">
<stop stop-color="#FDFDFD"/>
<stop offset="1" stop-color="#76777B"/>
</linearGradient>
<linearGradient id="paint22_linear_857_2089" x1="48.9411" y1="24.763" x2="52.5028" y2="139.974" gradientUnits="userSpaceOnUse">
<stop stop-color="#FDFDFD"/>
<stop offset="1" stop-color="#76777B"/>
</linearGradient>
<linearGradient id="paint23_linear_857_2089" x1="48.9411" y1="24.763" x2="52.5028" y2="139.974" gradientUnits="userSpaceOnUse">
<stop stop-color="#FDFDFD"/>
<stop offset="1" stop-color="#76777B"/>
</linearGradient>
<linearGradient id="paint24_linear_857_2089" x1="48.9411" y1="24.763" x2="52.5028" y2="139.974" gradientUnits="userSpaceOnUse">
<stop stop-color="#FDFDFD"/>
<stop offset="1" stop-color="#76777B"/>
</linearGradient>
<linearGradient id="paint25_linear_857_2089" x1="48.9411" y1="24.763" x2="52.5028" y2="139.974" gradientUnits="userSpaceOnUse">
<stop stop-color="#FDFDFD"/>
<stop offset="1" stop-color="#76777B"/>
</linearGradient>
<linearGradient id="paint26_linear_857_2089" x1="48.9411" y1="24.763" x2="52.5028" y2="139.974" gradientUnits="userSpaceOnUse">
<stop stop-color="#FDFDFD"/>
<stop offset="1" stop-color="#76777B"/>
</linearGradient>
<linearGradient id="paint27_linear_857_2089" x1="48.9411" y1="24.763" x2="52.5028" y2="139.974" gradientUnits="userSpaceOnUse">
<stop stop-color="#FDFDFD"/>
<stop offset="1" stop-color="#76777B"/>
</linearGradient>
<linearGradient id="paint28_linear_857_2089" x1="48.9411" y1="24.763" x2="52.5028" y2="139.974" gradientUnits="userSpaceOnUse">
<stop stop-color="#FDFDFD"/>
<stop offset="1" stop-color="#76777B"/>
</linearGradient>
<linearGradient id="paint29_linear_857_2089" x1="52.7763" y1="34.0541" x2="52.7763" y2="162.518" gradientUnits="userSpaceOnUse">
<stop stop-color="#FDFDFD"/>
<stop offset="1" stop-color="#76777B"/>
</linearGradient>
</defs>
</svg>
