<svg width="262" height="52" viewBox="0 0 262 52" fill="none" xmlns="http://www.w3.org/2000/svg">
<path d="M5.7525 50.616C4.0245 50.104 2.8085 49.144 1.9125 47.608C0.7605 45.688 0.3125 43.576 0.3125 41.4C0.3125 37.88 0.9525 34.488 1.9125 31.16C4.0885 23.416 7.7365 16.376 12.6645 10.04C14.0725 8.184 15.7365 6.52 17.5285 4.984C18.8725 3.896 20.3445 2.936 22.0085 2.296C26.2965 0.631996 31.8645 2.872 31.4805 9.528C31.2885 13.112 29.2405 15.8 26.5525 18.04C26.4245 18.232 26.1685 18.296 25.9125 18.296C25.5925 18.36 25.2725 18.232 25.0805 17.976C24.8245 17.72 24.8245 17.4 24.9525 17.08C25.2085 16.696 25.5285 16.312 25.8485 15.928C26.6805 14.776 27.3845 13.496 27.8965 12.152C28.4085 10.744 28.5365 9.336 28.2805 7.864C28.2165 7.416 28.0885 6.904 27.8965 6.52C27.1925 4.792 26.1685 4.344 24.4405 4.856C22.7125 5.368 21.2405 6.328 19.8965 7.48C18.2325 8.888 16.6965 10.488 15.4165 12.216C9.8485 19.448 6.0085 27.512 4.4085 36.536C4.1525 37.944 4.0245 39.416 3.8325 40.824C3.9605 41.912 3.9605 42.936 4.1525 43.96C4.2165 44.92 4.6005 45.88 5.1765 46.648C6.0085 47.8 7.0965 48.376 8.5045 47.928C9.9125 47.48 11.2565 47.032 12.6005 46.456C17.8485 44.088 28.9845 35.896 33.1445 31.928C33.4005 31.736 33.5925 31.48 33.8485 31.288C34.6165 30.712 35.3205 30.776 36.0885 31.16C36.6645 31.48 36.8565 32.12 36.5365 32.632C36.2165 33.08 35.8965 33.528 35.5125 33.912C30.6485 38.904 18.6165 47.736 12.1525 50.232C10.1045 51 7.9925 51.32 5.7525 50.616ZM34.8725 45.624C32.8245 46.456 30.9045 45.496 30.5205 43.32C30.3285 42.168 30.3925 41.016 30.6485 39.928C31.6725 34.68 34.1045 30.136 37.7525 26.232C38.3925 25.592 39.0325 25.016 39.8645 24.632C40.7605 24.184 41.5285 24.248 42.3605 24.696C42.7445 24.888 43.1285 25.208 43.0645 25.592C42.8085 26.808 43.3205 28.024 43.1925 29.496C43.0645 30.392 43.0005 31.608 42.6805 32.76C42.4245 33.784 42.8085 33.592 43.8325 33.784C46.7125 34.296 52.7285 34.36 56.3125 31.608C56.6965 31.288 57.1445 30.904 57.6565 30.648C58.2965 30.264 59.3845 30.648 59.7685 31.288C59.8965 31.608 59.8965 31.928 59.7045 32.184C59.3205 32.696 58.8725 33.208 58.4245 33.592C55.0325 36.6 46.9045 37.368 42.3605 36.536C41.9125 36.408 41.5925 36.6 41.4005 37.048L40.6325 38.776C39.8645 40.568 38.9045 42.232 37.5605 43.64C36.7925 44.472 35.9605 45.24 34.8725 45.624ZM33.8485 41.912C34.5525 42.04 34.8725 41.592 35.1285 41.208C36.5365 39.608 37.3685 37.688 38.2005 35.768C38.8405 34.296 38.8405 32.888 37.9445 31.16C35.7685 34.552 34.2325 38.008 33.8485 41.912ZM59.023 33.08C58.191 33.08 57.423 32.888 56.719 32.504C56.399 32.312 56.079 31.992 55.887 31.672C55.503 31.096 55.823 30.328 56.527 30.136C56.911 30.072 57.295 29.944 57.679 30.008C61.775 30.52 65.871 30.264 69.903 30.136C70.223 30.136 70.543 30.072 70.863 30.136C71.375 30.2 71.759 30.456 72.015 30.904C72.335 31.288 72.207 31.864 71.887 32.184C71.503 32.504 70.991 32.568 70.543 32.632C68.175 33.144 65.743 33.08 63.375 33.08H59.023ZM73.588 50.936C72.82 50.68 72.436 50.04 72.564 49.272C72.692 48.44 72.948 47.672 73.14 46.904C75.252 39.8 77.364 32.632 79.092 25.336C79.54 23.544 79.924 21.752 80.308 19.96C80.82 17.208 82.42 15.352 84.852 14.072C86.196 13.304 87.54 12.728 89.076 12.344C90.1 12.152 90.74 11.512 90.932 10.424C90.996 10.104 90.996 9.784 91.124 9.528C91.316 8.824 91.764 8.504 92.34 8.568C92.98 8.632 93.364 9.016 93.556 9.592C93.556 9.656 93.556 9.72 93.62 9.848C93.62 10.232 93.492 10.68 93.684 11C94.004 11.384 94.516 11.128 95.028 11.128C97.076 11.064 99.188 11 101.3 11.064C103.796 11.192 106.164 11.768 108.404 12.92C109.492 13.496 110.516 14.2 111.284 15.096C112.5 16.376 113.14 17.912 113.076 19C113.076 21.176 112.564 22.52 111.924 23.8C111.028 25.72 109.748 27.384 108.404 28.984C105.524 32.248 102.26 35.128 98.676 37.56C92.724 41.528 86.388 44.792 79.796 47.672C79.22 47.928 78.644 48.184 78.004 48.312C76.852 48.632 75.764 48.952 75.252 50.296C74.996 51 74.228 51.128 73.588 50.936ZM77.684 45.432C78.644 45.048 79.092 44.92 79.476 44.728C84.148 42.488 88.628 40.056 92.98 37.368C95.86 35.512 98.548 33.528 101.108 31.352C103.412 29.304 105.524 27.128 107.38 24.632C108.276 23.416 109.044 22.136 109.556 20.664C110.26 18.36 109.556 16.568 107.444 15.352C106.612 14.904 105.716 14.648 104.756 14.392C102.388 13.752 100.02 13.752 97.588 13.816C96.18 13.88 94.708 13.88 93.3 14.264C92.596 14.456 92.148 14.776 91.892 15.416C91.124 17.208 90.356 18.936 89.524 20.664C86.068 27.896 82.612 35.128 79.092 42.36C78.708 43.192 78.324 44.088 77.684 45.432ZM80.436 31.48C80.372 31.736 80.244 32.056 80.5 32.312C81.716 30.648 87.284 19.384 88.5 16.184C88.5 16.056 88.884 15.416 88.308 15.672C85.428 16.568 83.38 18.168 82.804 21.368C82.164 24.76 81.204 28.088 80.436 31.48ZM113.084 45.816C110.331 45.88 109.243 44.216 108.987 42.04C108.923 41.336 109.051 40.568 109.243 39.864C110.331 36.024 112.316 32.632 115.068 29.752C116.092 28.792 116.86 28.6 117.884 29.112C118.46 29.432 118.652 30.008 118.332 30.52C118.012 31.032 117.692 31.416 117.308 31.864C115.452 34.232 113.98 36.792 113.02 39.672C112.764 40.504 112.444 41.336 112.508 42.232C112.508 42.552 112.828 42.808 113.148 42.68C113.98 42.232 114.876 41.784 115.644 41.208C119.036 38.904 125.5 32.696 126.78 31.288C127.548 30.456 128.06 30.328 128.892 30.776C129.532 31.096 129.788 31.736 129.34 32.312C128.956 32.952 128.508 33.528 128.06 34.04C124.284 38.008 120.124 42.232 116.476 44.6C115.452 45.24 114.364 45.752 113.084 45.816ZM118.652 22.392C118.652 21.944 118.588 21.816 118.652 21.624C118.844 19.832 120.124 19.192 121.724 20.216C122.364 20.664 122.684 21.432 122.428 22.136C122.236 22.584 122.044 22.968 121.788 23.416C121.468 23.864 121.084 24.312 120.444 24.248C119.676 24.12 119.036 23.8 118.78 23.032C118.652 22.776 118.652 22.456 118.652 22.392ZM123.273 46.52C121.929 46.52 121.097 45.752 121.097 44.472C121.033 43.768 121.161 43.064 121.481 42.36C122.249 40.696 122.953 38.968 123.721 37.304C125.13 34.36 126.602 31.416 128.01 28.408C128.522 27.256 129.034 26.104 129.034 24.76C129.034 24.632 129.098 24.44 129.161 24.312C129.354 23.352 129.866 22.84 130.506 22.904C131.53 22.968 132.234 23.608 132.298 24.568C132.298 25.336 132.234 26.168 132.106 26.936C132.042 27.576 131.786 28.088 131.594 28.728C131.978 28.984 132.17 28.728 132.426 28.472L134.922 25.592C136.778 23.416 140.234 24.568 140.938 26.936C141.45 28.536 141.45 30.136 141.13 31.736C141.002 32.44 140.49 32.824 139.786 32.888C138.89 32.888 138.186 32.44 137.994 31.608C137.93 31.096 137.93 30.648 137.866 30.136L137.674 28.984C137.674 28.856 137.482 28.728 137.418 28.6C136.842 28.536 136.586 29.048 136.33 29.368C135.178 30.904 133.962 32.44 132.874 34.04C130.89 37.048 128.97 40.12 126.986 43.128C126.41 43.96 125.77 44.792 125.13 45.624C124.681 46.264 123.977 46.52 123.273 46.52ZM131.594 28.792L131.658 28.92L131.594 28.728V28.792ZM148.227 45.688C146.371 45.56 144.515 44.856 143.107 43.256C142.403 42.424 141.507 40.696 142.211 38.2C143.555 33.656 145.795 29.624 149.123 26.296C150.403 24.952 151.939 23.928 153.795 23.352C154.755 23.032 155.651 23.16 156.547 23.608C157.827 24.184 158.339 25.144 158.275 26.488C158.147 27.64 157.635 28.664 157.123 29.624C155.267 32.888 152.835 35.64 149.955 38.072C148.739 39.096 147.395 39.992 146.051 40.824C145.475 41.144 145.475 41.784 146.051 42.168C146.691 42.552 147.331 42.744 148.099 42.552C148.931 42.36 149.827 42.168 150.659 41.848C155.459 39.992 162.115 35.832 166.019 32.504C166.659 31.992 167.171 31.352 167.747 30.776C168.515 30.008 169.219 29.944 170.115 30.456C170.563 30.776 170.819 31.416 170.563 31.928C170.435 32.184 170.243 32.504 170.051 32.76C169.283 33.592 168.579 34.488 167.747 35.192C163.907 38.584 157.379 42.744 152.643 44.664C151.363 45.24 149.955 45.688 148.227 45.688ZM146.179 36.6C146.115 36.728 146.179 36.856 146.243 36.984C146.499 37.048 146.755 36.856 147.011 36.664C149.763 34.36 152.131 31.736 153.923 28.664C154.307 27.96 155.075 27.32 154.627 26.296C153.795 26.36 153.155 26.872 152.515 27.384C149.571 29.816 147.587 33.016 146.179 36.6ZM169.203 46.136C168.371 46.072 167.539 46.072 166.771 45.88C164.787 45.304 163.635 44.408 163.379 42.04C163.251 41.016 163.379 39.928 163.763 38.968C165.619 34.296 168.243 30.072 172.019 26.68C172.787 25.976 173.683 25.4 174.643 25.016C175.923 24.504 177.139 24.44 178.419 24.952C179.763 25.464 180.339 26.616 179.955 28.024C179.571 29.56 178.675 30.776 177.395 31.672C176.819 32.056 176.115 32.376 175.347 32.12C174.899 31.992 174.387 31.864 174.195 31.352C174.003 30.776 174.387 30.456 174.771 30.136C175.155 29.752 175.795 29.432 175.603 28.664C174.963 28.6 174.643 29.176 174.259 29.496C170.931 32.504 168.691 36.152 167.219 40.312C166.323 42.744 166.899 43.384 169.523 42.872C172.147 42.424 174.643 41.528 177.075 40.44C182.899 37.88 188.403 34.744 193.395 30.712C194.419 29.88 195.059 29.88 195.955 30.456C196.467 30.84 196.659 31.48 196.275 31.928C196.019 32.312 195.699 32.696 195.315 33.016C194.483 33.72 193.587 34.488 192.691 35.128C187.763 38.84 182.387 41.912 176.627 44.28C174.259 45.24 171.827 46.072 169.203 46.136ZM189.647 49.144C189.007 49.144 188.559 48.888 188.303 48.312C188.047 47.672 188.111 47.032 188.303 46.392C188.943 44.024 190.287 39.544 190.927 37.176C191.055 36.664 192.271 33.208 193.743 29.112C192.015 29.24 190.735 29.304 190.607 29.304C190.031 29.24 189.455 29.24 189.007 28.92C188.559 28.6 188.239 28.28 188.303 27.768C188.303 27.128 188.751 27 189.263 26.936C190.479 26.808 191.695 26.68 192.911 26.616L194.639 26.488C196.431 21.56 198.351 16.504 199.055 15.288C199.311 14.776 199.503 14.264 199.823 13.816C200.463 12.6 201.679 12.536 202.511 13.624C202.767 14.008 202.831 14.392 202.703 14.776C202.511 15.288 202.255 15.8 202.063 16.312C201.231 18.232 200.335 20.152 199.567 22.072L198.095 26.296C200.015 26.168 201.743 26.04 202.191 26.04C203.087 25.976 203.983 25.912 204.879 25.912C205.327 25.912 205.775 26.04 206.159 26.488C206.415 26.808 206.479 27.192 206.159 27.512C205.711 28.088 205.135 28.216 204.431 28.28L197.263 28.856C195.151 35.064 192.207 43.832 191.247 46.776C191.119 47.288 190.927 47.864 190.735 48.376C190.543 48.824 190.159 49.144 189.647 49.144ZM207.435 45.624C205.387 46.456 203.467 45.496 203.083 43.32C202.891 42.168 202.955 41.016 203.211 39.928C204.235 34.68 206.667 30.136 210.315 26.232C210.955 25.592 211.595 25.016 212.427 24.632C213.323 24.184 214.091 24.248 214.923 24.696C215.307 24.888 215.691 25.208 215.627 25.592C215.371 26.808 215.883 28.024 215.755 29.496C215.627 30.392 215.563 31.608 215.243 32.76C214.987 33.784 215.371 33.592 216.395 33.784C219.275 34.296 225.291 34.36 228.875 31.608C229.259 31.288 229.707 30.904 230.219 30.648C230.859 30.264 231.947 30.648 232.331 31.288C232.459 31.608 232.459 31.928 232.267 32.184C231.883 32.696 231.435 33.208 230.987 33.592C227.595 36.6 219.467 37.368 214.923 36.536C214.475 36.408 214.155 36.6 213.963 37.048L213.195 38.776C212.427 40.568 211.467 42.232 210.123 43.64C209.355 44.472 208.523 45.24 207.435 45.624ZM206.411 41.912C207.115 42.04 207.435 41.592 207.691 41.208C209.099 39.608 209.931 37.688 210.763 35.768C211.403 34.296 211.403 32.888 210.507 31.16C208.331 34.552 206.795 38.008 206.411 41.912ZM226.273 46.52C224.929 46.52 224.097 45.752 224.097 44.472C224.033 43.768 224.161 43.064 224.481 42.36C225.249 40.696 225.953 38.968 226.721 37.304C228.13 34.36 229.602 31.416 231.01 28.408C231.522 27.256 232.034 26.104 232.034 24.76C232.034 24.632 232.098 24.44 232.161 24.312C232.354 23.352 232.866 22.84 233.506 22.904C234.53 22.968 235.234 23.608 235.298 24.568C235.298 25.336 235.234 26.168 235.106 26.936C235.042 27.576 234.786 28.088 234.594 28.728C234.978 28.984 235.17 28.728 235.426 28.472L237.922 25.592C239.778 23.416 243.234 24.568 243.938 26.936C244.45 28.536 244.45 30.136 244.13 31.736C244.002 32.44 243.49 32.824 242.786 32.888C241.89 32.888 241.186 32.44 240.994 31.608C240.93 31.096 240.93 30.648 240.866 30.136L240.674 28.984C240.674 28.856 240.482 28.728 240.418 28.6C239.842 28.536 239.586 29.048 239.33 29.368C238.178 30.904 236.962 32.44 235.874 34.04C233.89 37.048 231.97 40.12 229.986 43.128C229.41 43.96 228.77 44.792 228.13 45.624C227.681 46.264 226.977 46.52 226.273 46.52ZM234.594 28.792L234.658 28.92L234.594 28.728V28.792ZM244.315 50.744C243.227 51.192 242.267 51.064 241.307 50.424C240.795 50.104 240.539 49.656 240.475 49.016C240.475 48.376 240.667 47.992 241.307 47.736C245.339 46.136 248.667 43.512 251.547 40.312C252.443 39.288 253.275 38.136 253.723 36.856C253.979 36.088 253.851 35.576 253.147 35.192C252.379 34.808 251.547 34.488 250.779 34.104C247.771 32.504 247.451 30.264 249.947 27.96C251.803 26.168 253.851 24.632 256.155 23.416C256.795 23.032 257.435 22.84 258.139 22.52C258.843 22.2 259.547 22.456 260.187 22.84C261.467 23.544 261.467 24.632 260.187 25.4C259.803 25.592 259.483 25.784 259.099 25.912C256.411 27 254.491 29.112 252.379 30.968C252.891 31.8 253.531 31.8 253.979 32.12C254.619 32.504 255.259 32.824 255.835 33.272C257.755 34.68 258.267 36.536 257.499 38.84C257.051 40.12 256.411 41.336 255.579 42.424C252.699 46.392 248.731 48.888 244.315 50.744Z" fill="#3C204C"/>
</svg>
