<svg width="145" height="57" viewBox="0 0 145 57" fill="none" xmlns="http://www.w3.org/2000/svg">
<path d="M1.9005 42.936C1.1325 42.68 0.7485 42.04 0.8765 41.272C1.0045 40.44 1.2605 39.672 1.4525 38.904C3.5645 31.8 5.6765 24.632 7.4045 17.336C7.8525 15.544 8.2365 13.752 8.6205 11.96C9.1325 9.208 10.7325 7.352 13.1645 6.072C14.5085 5.304 15.8525 4.728 17.3885 4.344C18.4125 4.152 19.0525 3.512 19.2445 2.424C19.3085 2.104 19.3085 1.784 19.4365 1.528C19.6285 0.823997 20.0765 0.503998 20.6525 0.567997C21.2925 0.631996 21.6765 1.016 21.8685 1.592C21.8685 1.656 21.8685 1.72 21.9325 1.848C21.9325 2.232 21.8045 2.68 21.9965 3C22.3165 3.384 22.8285 3.128 23.3405 3.128C25.3885 3.064 27.5005 3 29.6125 3.064C32.1085 3.192 34.4765 3.768 36.7165 4.92C37.8045 5.496 38.8285 6.2 39.5965 7.096C40.8125 8.376 41.4525 9.912 41.3885 11C41.3885 13.176 40.8765 14.52 40.2365 15.8C39.3405 17.72 38.0605 19.384 36.7165 20.984C33.8365 24.248 30.5725 27.128 26.9885 29.56C21.0365 33.528 14.7005 36.792 8.1085 39.672C7.5325 39.928 6.9565 40.184 6.3165 40.312C5.1645 40.632 4.0765 40.952 3.5645 42.296C3.3085 43 2.5405 43.128 1.9005 42.936ZM5.9965 37.432C6.9565 37.048 7.4045 36.92 7.7885 36.728C12.4605 34.488 16.9405 32.056 21.2925 29.368C24.1725 27.512 26.8605 25.528 29.4205 23.352C31.7245 21.304 33.8365 19.128 35.6925 16.632C36.5885 15.416 37.3565 14.136 37.8685 12.664C38.5725 10.36 37.8685 8.568 35.7565 7.352C34.9245 6.904 34.0285 6.648 33.0685 6.392C30.7005 5.752 28.3325 5.752 25.9005 5.816C24.4925 5.88 23.0205 5.88 21.6125 6.264C20.9085 6.456 20.4605 6.776 20.2045 7.416C19.4365 9.208 18.6685 10.936 17.8365 12.664C14.3805 19.896 10.9245 27.128 7.4045 34.36C7.0205 35.192 6.6365 36.088 5.9965 37.432ZM8.7485 23.48C8.6845 23.736 8.5565 24.056 8.8125 24.312C10.0285 22.648 15.5965 11.384 16.8125 8.184C16.8125 8.056 17.1965 7.416 16.6205 7.672C13.7405 8.568 11.6925 10.168 11.1165 13.368C10.4765 16.76 9.5165 20.088 8.7485 23.48ZM44.852 37.688C42.996 37.56 41.14 36.856 39.732 35.256C39.028 34.424 38.132 32.696 38.836 30.2C40.18 25.656 42.42 21.624 45.748 18.296C47.028 16.952 48.564 15.928 50.42 15.352C51.38 15.032 52.276 15.16 53.172 15.608C54.452 16.184 54.964 17.144 54.9 18.488C54.772 19.64 54.26 20.664 53.748 21.624C51.892 24.888 49.46 27.64 46.58 30.072C45.364 31.096 44.02 31.992 42.676 32.824C42.1 33.144 42.1 33.784 42.676 34.168C43.316 34.552 43.956 34.744 44.724 34.552C45.556 34.36 46.452 34.168 47.284 33.848C52.084 31.992 58.74 27.832 62.644 24.504C63.284 23.992 63.796 23.352 64.372 22.776C65.14 22.008 65.844 21.944 66.74 22.456C67.188 22.776 67.444 23.416 67.188 23.928C67.06 24.184 66.868 24.504 66.676 24.76C65.908 25.592 65.204 26.488 64.372 27.192C60.532 30.584 54.004 34.744 49.268 36.664C47.988 37.24 46.58 37.688 44.852 37.688ZM42.804 28.6C42.74 28.728 42.804 28.856 42.868 28.984C43.124 29.048 43.38 28.856 43.636 28.664C46.388 26.36 48.756 23.736 50.548 20.664C50.932 19.96 51.7 19.32 51.252 18.296C50.42 18.36 49.78 18.872 49.14 19.384C46.196 21.816 44.212 25.016 42.804 28.6ZM59.94 42.744C58.852 43.192 57.892 43.064 56.932 42.424C56.42 42.104 56.164 41.656 56.1 41.016C56.1 40.376 56.292 39.992 56.932 39.736C60.964 38.136 64.292 35.512 67.172 32.312C68.068 31.288 68.9 30.136 69.348 28.856C69.604 28.088 69.476 27.576 68.772 27.192C68.004 26.808 67.172 26.488 66.404 26.104C63.396 24.504 63.076 22.264 65.572 19.96C67.428 18.168 69.476 16.632 71.78 15.416C72.42 15.032 73.06 14.84 73.764 14.52C74.468 14.2 75.172 14.456 75.812 14.84C77.092 15.544 77.092 16.632 75.812 17.4C75.428 17.592 75.108 17.784 74.724 17.912C72.036 19 70.116 21.112 68.004 22.968C68.516 23.8 69.156 23.8 69.604 24.12C70.244 24.504 70.884 24.824 71.46 25.272C73.38 26.68 73.892 28.536 73.124 30.84C72.676 32.12 72.036 33.336 71.204 34.424C68.324 38.392 64.356 40.888 59.94 42.744ZM80.2085 37.816C77.4565 37.88 76.3685 36.216 76.1125 34.04C76.0485 33.336 76.1765 32.568 76.3685 31.864C77.4565 28.024 79.4405 24.632 82.1925 21.752C83.2165 20.792 83.9845 20.6 85.0085 21.112C85.5845 21.432 85.7765 22.008 85.4565 22.52C85.1365 23.032 84.8165 23.416 84.4325 23.864C82.5765 26.232 81.1045 28.792 80.1445 31.672C79.8885 32.504 79.5685 33.336 79.6325 34.232C79.6325 34.552 79.9525 34.808 80.2725 34.68C81.1045 34.232 82.0005 33.784 82.7685 33.208C86.1605 30.904 92.6245 24.696 93.9045 23.288C94.6725 22.456 95.1845 22.328 96.0165 22.776C96.6565 23.096 96.9125 23.736 96.4645 24.312C96.0805 24.952 95.6325 25.528 95.1845 26.04C91.4085 30.008 87.2485 34.232 83.6005 36.6C82.5765 37.24 81.4885 37.752 80.2085 37.816ZM85.7765 14.392C85.7765 13.944 85.7125 13.816 85.7765 13.624C85.9685 11.832 87.2485 11.192 88.8485 12.216C89.4885 12.664 89.8085 13.432 89.5525 14.136C89.3605 14.584 89.1685 14.968 88.9125 15.416C88.5925 15.864 88.2085 16.312 87.5685 16.248C86.8005 16.12 86.1605 15.8 85.9045 15.032C85.7765 14.776 85.7765 14.456 85.7765 14.392ZM87.1985 56.824C85.9185 56.76 85.2145 55.8 85.4705 54.52C85.6625 53.624 86.1745 52.92 86.6865 52.152C88.2225 50.04 89.9505 47.992 91.8065 46.136C93.5345 44.408 94.8785 42.424 96.0305 40.312C97.9505 36.664 99.8705 33.016 101.535 29.304C101.791 28.856 102.239 28.344 101.791 27.768H101.983L101.855 27.704C99.9345 29.496 98.0145 31.224 95.9025 32.632C95.0705 33.272 94.1105 33.72 93.2145 34.232C92.5745 34.616 91.8065 34.616 91.1025 34.488C89.8865 34.232 89.1185 33.4 88.9905 32.184C88.9265 31.352 89.0545 30.584 89.3745 29.816C91.3585 25.272 94.2385 21.304 98.2065 18.232C99.2305 17.4 100.447 16.696 101.855 16.632C103.711 16.568 105.247 16.952 105.951 18.872C106.143 19.448 106.591 19.512 107.039 19.704C108.319 20.28 108.575 20.856 108.191 22.136C107.999 23.032 107.615 23.864 107.295 24.632C106.143 27.384 104.927 30.072 103.711 32.824C103.519 33.272 103.071 33.72 103.263 34.424C104.031 34.168 104.543 33.528 105.119 33.016C107.039 31.288 112.991 25.208 115.103 23.736C115.551 23.416 115.999 23.032 116.447 22.776C117.151 22.456 117.855 22.584 118.431 23.16C118.751 23.48 118.815 23.928 118.559 24.312C118.303 24.632 118.047 24.888 117.727 25.144C112.543 29.368 103.775 38.392 99.0385 43.128C97.8225 44.344 96.7985 45.624 95.9665 47.096C94.5585 49.464 93.0865 51.768 91.3585 53.88C90.7185 54.712 89.9505 55.416 89.1825 56.12C88.6705 56.696 87.9665 56.888 87.1985 56.824ZM93.0865 30.456C93.9185 30.072 94.6865 29.496 95.3265 28.92C97.3105 27.128 99.2305 25.336 101.279 23.672C102.495 22.648 102.943 21.368 103.199 19.96C103.327 19.448 102.943 19.128 102.495 19.256C101.215 19.704 100.127 20.536 99.1025 21.496C96.6705 23.8 94.6865 26.488 93.1505 29.496C92.9585 29.752 92.7665 30.072 93.0865 30.456ZM109.898 40.824C109.258 40.44 108.938 39.608 109.322 38.712C109.514 38.2 109.834 37.752 110.026 37.24C111.562 34.04 113.034 30.84 114.57 27.64C115.914 24.888 116.746 21.944 116.938 18.872C117.002 18.04 117.002 17.272 117.322 16.504C117.706 15.608 118.346 15.352 119.242 15.608C120.138 15.864 120.586 16.504 120.714 17.336C120.906 18.296 120.842 19.256 120.65 20.216L120.074 23.288C120.714 23.736 121.226 23.16 121.738 23.096C123.85 22.904 125.13 23.928 125.13 26.104C125.194 27.128 125.066 28.152 124.938 29.24C124.746 30.712 124.682 32.248 124.746 33.784C124.81 34.808 125.322 35.128 126.154 34.68C127.05 34.168 127.818 33.656 128.586 33.08C132.17 30.584 135.434 27.704 138.506 24.632C139.146 23.928 139.85 23.288 140.554 22.584C141.13 22.008 141.77 21.88 142.538 22.136C143.754 22.456 144.074 23.288 143.306 24.248C142.794 24.952 142.154 25.656 141.578 26.296C138.314 29.944 134.73 33.336 130.762 36.216C129.482 37.176 128.138 38.008 126.474 38.328C124.234 38.776 121.802 37.944 121.29 35C121.098 33.848 120.97 32.632 121.098 31.416C121.226 30.328 121.29 29.176 121.354 28.088L120.906 27.896C120.33 28.664 119.754 29.432 119.242 30.2C117.258 33.144 115.274 36.088 113.29 38.968C112.906 39.544 112.522 40.056 112.138 40.568C111.626 41.144 110.602 41.272 109.898 40.824Z" fill="#3C204C"/>
</svg>
