<svg width="90" height="51" viewBox="0 0 90 51" fill="none" xmlns="http://www.w3.org/2000/svg">
<path d="M11.4419 8.9639C11.9094 7.84067 12.351 6.68284 12.7667 5.49043C13.1996 4.29803 13.5894 3.07967 13.936 1.83536C14.0399 1.48972 14.1957 1.21326 14.4032 1.00597C14.6281 0.781418 14.8875 0.669242 15.1813 0.669444C15.3887 0.669587 15.5615 0.747491 15.6997 0.903156C15.8552 1.05883 15.9328 1.26631 15.9326 1.52559C15.9324 1.85402 15.8024 2.42435 15.5425 3.23659C15.3 4.04884 14.9881 5.07711 14.607 6.3214C14.2431 7.56571 13.8705 9.00015 13.4891 10.6247C13.125 12.232 12.8126 14.0122 12.552 15.9653C12.3087 17.9184 12.1862 20.0012 12.1847 22.2137C12.1844 22.6977 12.0804 23.0952 11.8727 23.4062C11.6651 23.7345 11.4143 23.8985 11.1205 23.8983C10.9476 23.8982 10.7835 23.8549 10.6279 23.7684C10.4724 23.6818 10.3343 23.4743 10.2135 23.1458C10.11 22.8346 10.0239 22.3419 9.95526 21.6677C9.88659 20.9762 9.85267 20.0428 9.85348 18.8674C9.8541 17.9685 9.90663 16.992 10.0111 15.9376C9.21495 17.3718 8.34981 18.6244 7.41565 19.6954C6.49879 20.7492 5.60803 21.561 4.74336 22.1308C3.89598 22.7007 3.1698 22.9854 2.5648 22.985C1.82153 22.9844 1.21671 22.7334 0.750347 22.2318C0.301258 21.7475 0.0770476 21.0213 0.077715 20.0533C0.078299 19.2064 0.277684 18.3336 0.67587 17.435C1.07406 16.5364 1.60187 15.6552 2.25931 14.7914C2.91677 13.9103 3.64333 13.0811 4.439 12.3038C5.23467 11.5265 6.03027 10.8443 6.82581 10.2571C7.63864 9.6527 8.39088 9.18651 9.08253 8.85856C9.77419 8.51333 10.3361 8.34086 10.7682 8.34116C10.9411 8.34128 11.0966 8.40188 11.2348 8.52298C11.373 8.64407 11.442 8.79105 11.4419 8.9639ZM11.1043 9.76744C10.9832 9.88836 10.8362 10.0093 10.6633 10.1301C10.4903 10.251 10.3001 10.3805 10.0926 10.5187C9.33166 11.054 8.49288 11.6757 7.57626 12.3838C6.67694 13.0746 5.81214 13.8345 4.98187 14.6637C4.16889 15.4755 3.50281 16.3307 2.98362 17.2292C2.46444 18.1277 2.20452 19.0523 2.20387 20.003C2.20358 20.4178 2.41086 20.6254 2.82571 20.6257C3.39613 20.6261 4.0186 20.3586 4.6931 19.8232C5.3849 19.2705 6.09413 18.5104 6.82079 17.543C7.54746 16.5582 8.27424 15.4092 9.00113 14.096C9.72804 12.7655 10.4291 11.3227 11.1043 9.76744ZM18.5116 22.5033C18.235 22.5031 18.0018 22.3906 17.8118 22.1658C17.6218 21.9409 17.5269 21.6297 17.5272 21.2322C17.5274 20.9383 17.5882 20.4543 17.7097 19.7803C17.8485 19.089 17.9959 18.2853 18.1522 17.3693C18.3256 16.4533 18.4732 15.5027 18.5949 14.5175C18.7166 13.515 18.7777 12.5557 18.7784 11.6396C18.7787 11.1901 18.8913 10.8618 19.1161 10.6545C19.3583 10.43 19.6263 10.3178 19.9201 10.318C20.1967 10.3182 20.404 10.4912 20.5421 10.837C20.6801 11.1828 20.7055 11.8742 20.6184 12.9113C21.4148 11.1487 22.2886 9.73194 23.2401 8.6609C24.2088 7.57258 25.1687 6.79539 26.1197 6.32934C27.0708 5.846 27.9266 5.6046 28.6871 5.60512C29.1884 5.60547 29.5513 5.70943 29.7759 5.91701C30.0178 6.10732 30.1386 6.32347 30.1384 6.56547C30.1382 6.89389 29.9998 7.15308 29.7231 7.34303C29.4637 7.5157 29.0054 7.72281 28.3484 7.96435C27.5877 8.25768 26.8874 8.60291 26.2475 9.00004C25.625 9.37989 25.0283 9.88076 24.4574 10.5026C23.9039 11.1245 23.3588 11.9193 22.8223 12.8869C22.2858 13.8372 21.7492 15.0123 21.2123 16.412C20.6755 17.8118 20.1039 19.4967 19.4976 21.4669C19.3936 21.8471 19.2551 22.1149 19.0822 22.2704C18.9265 22.4258 18.7363 22.5035 18.5116 22.5033ZM39.2608 10.8499C39.2604 11.403 39.0872 11.9474 38.7411 12.483C38.3951 13.0014 37.9366 13.5023 37.3659 13.9859C36.7951 14.4522 36.1639 14.8926 35.4722 15.307C34.7805 15.7213 34.0888 16.0839 33.3972 16.3945C32.7056 16.7052 32.0745 16.9554 31.5039 17.1451C31.3652 17.8192 31.2956 18.4155 31.2953 18.934C31.295 19.2625 31.3727 19.4959 31.5281 19.6343C31.6836 19.7726 31.9256 19.842 32.254 19.8422C32.98 19.8427 33.7493 19.7136 34.5619 19.4548C35.3745 19.1961 36.2044 18.8596 37.0517 18.4454C37.8989 18.0311 38.7117 17.5909 39.4898 17.1247C40.268 16.6585 40.977 16.2182 41.6169 15.8038C42.274 15.3894 42.8187 15.0527 43.251 14.7938C43.6834 14.5348 43.9687 14.4053 44.1069 14.4054C44.3144 14.4056 44.4699 14.4748 44.5735 14.6132C44.6944 14.7343 44.7548 14.8812 44.7547 15.0541C44.7546 15.1924 44.5383 15.4601 44.1059 15.8574C43.6908 16.2547 43.1287 16.721 42.4196 17.2564C41.7106 17.7744 40.9151 18.3097 40.0331 18.8623C39.1512 19.4148 38.2347 19.9327 37.2837 20.4161C36.3499 20.8994 35.4422 21.2877 34.5604 21.581C33.6959 21.8742 32.918 22.0206 32.2266 22.0201C31.3277 22.0195 30.6279 21.682 30.1271 21.0075C29.6263 20.333 29.3763 19.2871 29.3773 17.8697C29.378 16.9189 29.4996 15.9597 29.7423 14.9919C30.0022 14.0241 30.3486 13.0995 30.7813 12.2183C31.2314 11.3197 31.7246 10.5249 32.2609 9.83389C32.8145 9.12556 33.394 8.57283 33.9992 8.17568C34.6045 7.76124 35.1923 7.55422 35.7628 7.55462C36.8518 7.55537 37.7072 7.85845 38.329 8.46387C38.9509 9.06929 39.2615 9.86464 39.2608 10.8499ZM32.0498 15.149C32.5859 14.821 33.1392 14.4756 33.7099 14.113C34.2806 13.7504 34.8081 13.3792 35.2923 12.9992C35.7766 12.6193 36.1658 12.222 36.4599 11.8073C36.7713 11.3754 36.9272 10.9347 36.9275 10.4853C36.928 9.84575 36.5825 9.52573 35.8911 9.52525C35.4589 9.52495 35.0007 9.8012 34.5163 10.354C34.0492 10.8895 33.5993 11.5893 33.1666 12.4533C32.7338 13.3172 32.3616 14.2158 32.0498 15.149ZM44.6315 22.7028C43.9747 22.7024 43.4304 22.3995 42.9987 21.7942C42.5843 21.1716 42.3774 20.3677 42.3781 19.3825C42.3787 18.4663 42.604 17.559 43.0541 16.6605C43.5214 15.7619 44.1356 14.8981 44.8968 14.0689C45.6579 13.2397 46.4881 12.4797 47.3874 11.7889C48.2868 11.0808 49.186 10.4678 50.0852 9.94989C51.0017 9.43196 51.8404 9.02632 52.6011 8.733C53.3619 8.43967 53.967 8.29316 54.4164 8.29347C54.6584 8.29363 54.8572 8.34563 55.0126 8.44945C55.1682 8.53598 55.2458 8.70025 55.2457 8.94225C55.2456 9.09781 55.185 9.2447 55.0639 9.3829C55.0811 9.38291 55.0984 9.38292 55.1157 9.38294C55.496 9.3832 55.686 9.60804 55.6857 10.0575C55.6856 10.213 55.6248 10.5328 55.5035 11.0167C55.3822 11.4833 55.2435 12.0709 55.0874 12.7795C54.9314 13.4881 54.7926 14.2745 54.671 15.1387C54.5494 15.9856 54.4883 16.8498 54.4877 17.7314C54.4872 18.4747 54.7721 18.8465 55.3425 18.8469C55.9821 18.8473 56.6304 18.7009 57.2875 18.4075C57.9445 18.1141 58.5843 17.7601 59.2069 17.3457C59.8295 16.914 60.4002 16.4909 60.919 16.0764C61.4379 15.6446 61.8789 15.2819 62.2421 14.9883C62.6053 14.6947 62.8647 14.548 63.0203 14.5481C63.1586 14.5482 63.2795 14.5915 63.3832 14.678C63.4868 14.7645 63.5386 14.9028 63.5385 15.093C63.5383 15.2658 63.3653 15.5768 63.0192 16.026C62.6732 16.4752 62.2148 16.9848 61.644 17.5548C61.0732 18.1249 60.4332 18.6776 59.7242 19.2129C59.0151 19.7483 58.2888 20.1886 57.5453 20.5338C56.8018 20.8789 56.0929 21.0513 55.4188 21.0508C54.9002 21.0505 54.425 20.8946 53.9931 20.5832C53.5785 20.2544 53.2418 19.7011 52.983 18.9231C52.7416 18.145 52.6213 17.0733 52.6222 15.7077L52.6227 15.0595C51.7747 16.459 50.8837 17.7376 49.9494 18.895C49.0325 20.0525 48.1157 20.9767 47.1991 21.6675C46.2998 22.3583 45.4439 22.7034 44.6315 22.7028ZM53.9225 10.16C53.836 10.1945 53.715 10.2462 53.5594 10.3153C52.764 10.6777 51.934 11.1266 51.0693 11.6618C50.222 12.1971 49.3919 12.7929 48.579 13.4492C47.7834 14.1055 47.0656 14.7877 46.4255 15.496C45.7855 16.2043 45.2751 16.9213 44.8943 17.647C44.5135 18.3727 44.3229 19.0813 44.3224 19.7727C44.3223 19.9974 44.3653 20.1703 44.4517 20.2914C44.5553 20.4124 44.7281 20.4731 44.9701 20.4732C45.3158 20.4735 45.7654 20.2577 46.3188 19.8259C46.8723 19.3769 47.4777 18.7896 48.135 18.0641C48.8097 17.3386 49.4844 16.5352 50.1591 15.6542C50.8338 14.7731 51.474 13.8833 52.0796 12.9849C52.7025 12.0865 53.239 11.2571 53.6889 10.4969C53.7581 10.3759 53.836 10.2636 53.9225 10.16ZM82.0935 21.2767C82.0761 21.5532 81.9636 21.7779 81.756 21.9506C81.5485 22.1233 81.3064 22.2095 81.0298 22.2093C80.7187 22.2091 80.4595 22.1052 80.2522 21.8977C80.0449 21.6901 79.9414 21.3703 79.9417 20.9381C79.9425 19.8146 79.9952 18.596 80.0998 17.2823C80.2045 15.9514 80.335 14.6378 80.4915 13.3415C80.6479 12.0279 80.8043 10.8181 80.9607 9.71189C80.3897 10.5239 79.7668 11.4223 79.092 12.4071C78.4345 13.392 77.7596 14.3681 77.0676 15.3356C76.3755 16.3031 75.7007 17.1929 75.0433 18.0048C74.3859 18.7995 73.7891 19.4473 73.2529 19.9482C72.7167 20.4319 72.2758 20.6735 71.9301 20.6733C71.2905 20.6729 70.7376 20.4218 70.2712 19.9202C69.8049 19.4014 69.5719 18.753 69.5725 17.9751C69.5727 17.664 69.6076 17.2405 69.6771 16.7047C69.7466 16.1516 69.8248 15.5726 69.9116 14.9677C69.9985 14.3628 70.0766 13.801 70.1461 13.2825C70.2156 12.7467 70.2505 12.3492 70.2507 12.0899C70.2508 11.8479 70.2251 11.6405 70.1733 11.4676C70.1389 11.2774 70.0525 11.1823 69.9142 11.1822C69.7068 11.182 69.4214 11.4152 69.0581 11.8817C68.6948 12.3308 68.2882 12.9096 67.8383 13.618C67.4057 14.3264 66.9557 15.078 66.4885 15.8728C66.0385 16.6677 65.6145 17.4193 65.2164 18.1277C64.8184 18.8189 64.4809 19.3631 64.2041 19.7605C63.9791 20.1406 63.7715 20.417 63.5813 20.5898C63.391 20.7625 63.1576 20.8488 62.881 20.8486C62.5526 20.8483 62.2502 20.6753 61.9739 20.3294C61.7148 19.9835 61.5855 19.5599 61.5858 19.0586C61.586 18.7648 61.6382 18.3067 61.7424 17.6845C61.8465 17.045 61.9766 16.3451 62.1327 15.5846C62.3061 14.8242 62.4708 14.081 62.6269 13.3551C62.8003 12.612 62.9476 11.9812 63.069 11.4627C63.2077 10.8751 63.3808 10.4776 63.5884 10.2703C63.7959 10.0631 64.0207 9.9595 64.2627 9.95966C64.5911 9.95989 64.8503 10.0811 65.0403 10.3232C65.2476 10.548 65.3511 10.9025 65.3507 11.3865C65.3507 11.4729 65.2986 11.7062 65.1947 12.0864C65.0907 12.4493 64.9608 12.8987 64.8048 13.4344C64.6662 13.9529 64.5102 14.4973 64.337 15.0676C64.181 15.6379 64.051 16.165 63.947 16.6489C64.3277 16.0096 64.7257 15.3185 65.1411 14.5755C65.5737 13.8325 66.0064 13.0982 66.439 12.3725C66.8717 11.6295 67.3043 10.9557 67.7368 10.351C68.1694 9.729 68.5932 9.23666 69.0083 8.87395C69.4234 8.51124 69.8211 8.33002 70.2014 8.33028C70.6508 8.33059 71.0656 8.46916 71.4457 8.74599C71.8431 9.02283 72.1626 9.39469 72.4043 9.86156C72.6459 10.3284 72.7666 10.8471 72.7662 11.4175C72.7659 11.8151 72.6964 12.3768 72.5576 13.1027C72.4188 13.8113 72.2714 14.5804 72.1152 15.41C71.9764 16.2396 71.8894 17.026 71.8543 17.7693C71.8542 17.9422 71.906 18.0286 72.0097 18.0287C72.0961 18.0287 72.1999 17.9683 72.321 17.8474C72.8226 17.2946 73.3762 16.6295 73.9817 15.8521C74.5873 15.0574 75.2015 14.2194 75.8244 13.3383C76.4646 12.4572 77.0961 11.5933 77.7189 10.7468C78.3418 9.88294 78.9214 9.1055 79.4577 8.41445C80.0114 7.70612 80.4957 7.14468 80.9109 6.73011C81.3433 6.31556 81.6805 6.10837 81.9225 6.10853C82.4411 6.10889 82.8385 6.25609 83.1149 6.55013C83.3913 6.84418 83.5292 7.33691 83.5287 8.02833C83.5283 8.58146 83.4846 9.29878 83.3976 10.1803C83.3279 11.0618 83.2321 12.0211 83.1104 13.0581C83.006 14.0952 82.8843 15.1409 82.7453 16.1952C82.6235 17.2322 82.5019 18.2001 82.3803 19.0989C82.2586 19.9804 82.1631 20.7063 82.0935 21.2767ZM7.26454 40.7059C6.79785 40.671 6.58199 40.3684 6.61696 39.798C6.63434 39.6597 6.72952 39.4955 6.90251 39.3055C7.0755 39.0982 7.27436 38.986 7.49909 38.9689C8.03497 38.9174 8.69188 38.84 9.46979 38.7369C10.265 38.6164 11.138 38.4787 12.0888 38.3238C12.2623 37.477 12.4703 36.5869 12.7129 35.6536C12.9556 34.7204 13.2241 33.8131 13.5186 32.9317C13.8131 32.0331 14.1248 31.2209 14.4537 30.4951C14.7826 29.7694 15.1287 29.1992 15.492 28.7846C15.6823 28.5946 15.8552 28.465 16.0108 28.396C16.1665 28.3097 16.3048 28.2666 16.4258 28.2667C16.6678 28.2668 16.8578 28.3707 16.996 28.5782C17.1514 28.7857 17.229 29.0191 17.2289 29.2784C17.2288 29.4167 17.2027 29.555 17.1508 29.6932C16.8044 30.661 16.4319 31.8534 16.0334 33.2705C15.6349 34.6877 15.2103 36.2344 14.7597 37.9108C16.3502 37.6526 17.9406 37.3772 19.5311 37.0844C21.1216 36.7916 22.4873 36.5247 23.6283 36.2834C23.9568 36.1454 24.2074 36.1715 24.3802 36.3618C24.5702 36.552 24.6651 36.7422 24.665 36.9324C24.6648 37.1744 24.5955 37.3558 24.4572 37.4767C24.3361 37.5976 24.2064 37.7013 24.068 37.7876L24.0421 37.8135C23.6963 37.9515 23.1776 38.1154 22.4861 38.3051C21.7945 38.4774 20.9993 38.667 20.1003 38.8738C19.2013 39.0634 18.2418 39.2528 17.2218 39.4423C16.2192 39.6317 15.2251 39.8039 14.2397 39.9588C13.8411 41.4796 13.4338 43.0437 13.0179 44.651C12.6192 46.2409 12.2206 47.805 11.822 49.3431C11.6487 49.9653 11.4496 50.3541 11.2248 50.5095C11.0173 50.6822 10.7925 50.7685 10.5505 50.7683C10.2739 50.7681 10.032 50.6642 9.82471 50.4567C9.63471 50.2491 9.60908 49.8256 9.7478 49.1861L11.6467 40.3459C10.6094 40.5008 9.69321 40.6125 8.89803 40.6811C8.12014 40.7497 7.57564 40.758 7.26454 40.7059ZM32.1904 37.845C32.19 38.3982 32.0168 38.9426 31.6707 39.4782C31.3247 39.9965 30.8663 40.4975 30.2955 40.9811C29.7248 41.4474 29.0935 41.8877 28.4018 42.3021C27.7101 42.7165 27.0185 43.079 26.3268 43.3896C25.6352 43.7003 25.0041 43.9505 24.4335 44.1403C24.2948 44.8143 24.2252 45.4106 24.2249 45.9292C24.2247 46.2576 24.3023 46.491 24.4578 46.6294C24.6132 46.7678 24.8552 46.8371 25.1836 46.8373C25.9096 46.8378 26.6789 46.7087 27.4915 46.45C28.3041 46.1913 29.134 45.8548 29.9813 45.4405C30.8286 45.0262 31.6413 44.586 32.4195 44.1198C33.1976 43.6537 33.9066 43.2134 34.5465 42.799C35.2036 42.3846 35.7483 42.0479 36.1807 41.7889C36.613 41.5299 36.8983 41.4005 37.0366 41.4006C37.244 41.4007 37.3995 41.4699 37.5031 41.6083C37.624 41.7294 37.6844 41.8764 37.6843 42.0492C37.6842 42.1875 37.468 42.4553 37.0356 42.8525C36.6204 43.2498 36.0583 43.7161 35.3493 44.2515C34.6402 44.7696 33.8447 45.3049 32.9628 45.8574C32.0808 46.4099 31.1643 46.9279 30.2133 47.4112C29.2795 47.8946 28.3718 48.2828 27.49 48.5761C26.6255 48.8694 25.8476 49.0157 25.1562 49.0153C24.2573 49.0146 23.5575 48.6771 23.0567 48.0026C22.5559 47.3281 22.306 46.2822 22.3069 44.8648C22.3076 43.9141 22.4292 42.9548 22.6719 41.987C22.9319 41.0192 23.2782 40.0947 23.711 39.2134C24.161 38.3149 24.6542 37.5201 25.1905 36.829C25.7441 36.1207 26.3236 35.568 26.9288 35.1708C27.5341 34.7564 28.122 34.5494 28.6924 34.5497C29.7814 34.5505 30.6368 34.8536 31.2587 35.459C31.8805 36.0644 32.1911 36.8598 32.1904 37.845ZM24.9794 42.1442C25.5155 41.8161 26.0689 41.4708 26.6395 41.1082C27.2102 40.7456 27.7377 40.3743 28.2219 39.9944C28.7062 39.6144 29.0954 39.2171 29.3895 38.8025C29.701 38.3705 29.8568 37.9299 29.8571 37.4804C29.8576 36.8409 29.5121 36.5209 28.8207 36.5204C28.3885 36.5201 27.9303 36.7963 27.4459 37.3491C26.9788 37.8847 26.5289 38.5844 26.0962 39.4484C25.6635 40.3124 25.2912 41.211 24.9794 42.1442ZM37.5611 49.698C36.9043 49.6975 36.36 49.3946 35.9283 48.7893C35.5139 48.1668 35.307 47.3629 35.3077 46.3776C35.3083 45.4615 35.5336 44.5541 35.9837 43.6556C36.451 42.7571 37.0652 41.8932 37.8264 41.064C38.5875 40.2349 39.4177 39.4749 40.3171 38.7841C41.2164 38.076 42.1157 37.463 43.0149 36.945C43.9314 36.4271 44.77 36.0215 45.5307 35.7281C46.2915 35.4348 46.8966 35.2883 47.346 35.2886C47.588 35.2888 47.7868 35.3408 47.9423 35.4446C48.0978 35.5311 48.1754 35.6954 48.1753 35.9374C48.1752 36.0929 48.1146 36.2398 47.9935 36.378C48.0108 36.378 48.0281 36.3781 48.0453 36.3781C48.4256 36.3783 48.6156 36.6032 48.6153 37.0526C48.6152 37.2082 48.5545 37.5279 48.4331 38.0118C48.3118 38.4784 48.1731 39.066 48.0171 39.7746C47.861 40.4832 47.7222 41.2696 47.6006 42.1338C47.479 42.9807 47.4179 43.845 47.4173 44.7265C47.4168 45.4698 47.7017 45.8416 48.2722 45.842C48.9117 45.8425 49.56 45.696 50.2171 45.4026C50.8741 45.1092 51.5139 44.7553 52.1365 44.3409C52.7591 43.9091 53.3298 43.486 53.8486 43.0716C54.3675 42.6398 54.8085 42.2771 55.1717 41.9835C55.5349 41.6899 55.7943 41.5431 55.9499 41.5432C56.0882 41.5433 56.2091 41.5866 56.3128 41.6731C56.4164 41.7596 56.4682 41.8979 56.4681 42.0881C56.468 42.2609 56.2949 42.572 55.9489 43.0211C55.6028 43.4703 55.1444 43.9799 54.5736 44.55C54.0028 45.12 53.3629 45.6727 52.6538 46.208C51.9447 46.7434 51.2184 47.1837 50.4749 47.5289C49.7314 47.8741 49.0226 48.0464 48.3484 48.046C47.8299 48.0456 47.3546 47.8897 46.9227 47.5783C46.5081 47.2496 46.1714 46.6962 45.9126 45.9182C45.6712 45.1402 45.5509 44.0684 45.5519 42.7028L45.5523 42.0546C44.7044 43.4542 43.8133 44.7327 42.8791 45.8902C41.9621 47.0477 41.0454 47.9718 40.1288 48.6626C39.2294 49.3534 38.3736 49.6985 37.5611 49.698ZM46.8521 37.1551C46.7657 37.1896 46.6446 37.2414 46.489 37.3104C45.6936 37.6729 44.8636 38.1217 43.999 38.657C43.1516 39.1922 42.3215 39.788 41.5086 40.4443C40.713 41.1006 39.9952 41.7829 39.3552 42.4911C38.7151 43.1994 38.2047 43.9164 37.8239 44.6421C37.4431 45.3679 37.2525 46.0764 37.252 46.7678C37.2519 46.9926 37.295 47.1654 37.3813 47.2865C37.4849 47.4076 37.6578 47.4682 37.8998 47.4684C38.2455 47.4686 38.695 47.2528 39.2485 46.8211C39.8019 46.372 40.4073 45.7848 41.0647 45.0592C41.7393 44.3337 42.414 43.5304 43.0887 42.6493C43.7635 41.7682 44.4036 40.8784 45.0093 39.98C45.6321 39.0816 46.1686 38.2523 46.6185 37.492C46.6877 37.371 46.7656 37.2587 46.8521 37.1551ZM75.0232 48.2718C75.0057 48.5484 74.8932 48.773 74.6856 48.9457C74.4781 49.1184 74.236 49.2047 73.9595 49.2045C73.6483 49.2043 73.3891 49.1004 73.1818 48.8928C72.9745 48.6852 72.8711 48.3654 72.8714 47.9332C72.8721 46.8097 72.9248 45.5911 73.0294 44.2775C73.1341 42.9466 73.2646 41.633 73.4211 40.3367C73.5776 39.0231 73.734 37.8132 73.8903 36.707C73.3193 37.5191 72.6964 38.4175 72.0216 39.4023C71.3641 40.3871 70.6893 41.3633 69.9972 42.3308C69.3051 43.2983 68.6303 44.188 67.9729 45C67.3155 45.7947 66.7187 46.4425 66.1825 46.9434C65.6464 47.427 65.2054 47.6687 64.8597 47.6684C64.2201 47.668 63.6672 47.417 63.2008 46.9154C62.7345 46.3965 62.5016 45.7481 62.5021 44.9703C62.5023 44.6591 62.5372 44.2357 62.6067 43.6999C62.6762 43.1468 62.7544 42.5678 62.8412 41.9628C62.9281 41.3579 63.0063 40.7962 63.0758 40.2777C63.1453 39.7419 63.1801 39.3443 63.1803 39.085C63.1805 38.843 63.1547 38.6356 63.1029 38.4627C63.0685 38.2725 62.9821 38.1774 62.8439 38.1773C62.6364 38.1772 62.3511 38.4103 61.9877 38.8768C61.6244 39.326 61.2178 39.9047 60.7679 40.6131C60.3353 41.3215 59.8853 42.0732 59.4181 42.868C58.9681 43.6628 58.5441 44.4144 58.1461 45.1228C57.748 45.814 57.4106 46.3583 57.1337 46.7556C56.9088 47.1358 56.7011 47.4122 56.5109 47.5849C56.3206 47.7576 56.0872 47.8439 55.8106 47.8437C55.4822 47.8435 55.1798 47.6704 54.9035 47.3245C54.6445 46.9786 54.5151 46.555 54.5155 46.0538C54.5157 45.7599 54.5678 45.3019 54.672 44.6797C54.7761 44.0402 54.9063 43.3402 55.0623 42.5798C55.2357 41.8193 55.4004 41.0762 55.5565 40.3503C55.7299 39.6071 55.8772 38.9763 55.9986 38.4578C56.1373 37.8702 56.3104 37.4728 56.518 37.2655C56.7256 37.0582 56.9503 36.9546 57.1923 36.9548C57.5208 36.955 57.78 37.0762 57.9699 37.3183C58.1772 37.5432 58.2807 37.8976 58.2803 38.3816C58.2803 38.468 58.2283 38.7013 58.1243 39.0816C58.0203 39.4445 57.8904 39.8938 57.7344 40.4296C57.5958 40.948 57.4398 41.4924 57.2666 42.0627C57.1106 42.633 56.9806 43.1601 56.8766 43.6441C57.2573 43.0048 57.6554 42.3136 58.0707 41.5706C58.5034 40.8276 58.936 40.0933 59.3686 39.3676C59.8013 38.6246 60.2339 37.9508 60.6665 37.3461C61.099 36.7241 61.5229 36.2318 61.938 35.8691C62.3531 35.5064 62.7507 35.3251 63.131 35.3254C63.5805 35.3257 63.9952 35.4643 64.3753 35.7411C64.7727 36.018 65.0922 36.3898 65.3339 36.8567C65.5755 37.3236 65.6962 37.8422 65.6958 38.4126C65.6955 38.8102 65.626 39.3719 65.4872 40.0978C65.3484 40.8064 65.201 41.5755 65.0448 42.4051C64.906 43.2347 64.819 44.0212 64.7839 44.7644C64.7838 44.9373 64.8356 45.0237 64.9393 45.0238C65.0257 45.0239 65.1295 44.9635 65.2506 44.8425C65.7522 44.2897 66.3058 43.6246 66.9114 42.8472C67.5169 42.0525 68.1311 41.2146 68.754 40.3334C69.3942 39.4523 70.0257 38.5885 70.6485 37.7419C71.2714 36.8781 71.851 36.1006 72.3873 35.4096C72.941 34.7013 73.4254 34.1398 73.8405 33.7252C74.2729 33.3107 74.6101 33.1035 74.8521 33.1037C75.3707 33.104 75.7682 33.2512 76.0445 33.5453C76.3209 33.8393 76.4588 34.332 76.4583 35.0235C76.458 35.5766 76.4143 36.2939 76.3272 37.1754C76.2575 38.0569 76.1617 39.0162 76.04 40.0533C75.9356 41.0903 75.8139 42.136 75.6749 43.1903C75.5532 44.2274 75.4315 45.1953 75.3099 46.094C75.1883 46.9755 75.0927 47.7014 75.0232 48.2718ZM83.7495 42.6514C83.5939 42.6513 83.4557 42.5734 83.3348 42.4177C83.2312 42.2448 83.1795 42.0201 83.1797 41.7435C83.1799 41.3632 83.2495 40.7669 83.3883 39.9546C83.5445 39.125 83.7439 38.1658 83.9867 37.077C84.2467 35.9709 84.5413 34.8216 84.8706 33.6291C85.2171 32.4367 85.5809 31.2702 85.962 30.1296C86.3431 28.9717 86.7241 27.9435 87.105 27.0449C87.3647 26.4401 87.6846 26.1378 88.0649 26.1381C88.4625 26.1384 88.8254 26.3287 89.1535 26.7093C89.4817 27.0898 89.6456 27.5566 89.6452 28.1097C89.645 28.3171 89.5411 28.706 89.3332 29.2763C89.1427 29.8466 88.883 30.5378 88.554 31.35C88.2423 32.1622 87.896 33.0349 87.515 33.968C87.1341 34.9012 86.7445 35.8516 86.3463 36.8193C85.9654 37.7698 85.6104 38.6684 85.2814 39.5151C84.9524 40.3619 84.6926 41.0963 84.502 41.7185C84.3808 42.0987 84.2682 42.3493 84.1644 42.4702C84.0606 42.5911 83.9223 42.6515 83.7495 42.6514ZM82.2144 50.3769C81.9551 50.3768 81.6873 50.2297 81.4109 49.9356C81.1345 49.6416 80.9967 49.0451 80.9973 48.1463C80.9976 47.645 81.1621 47.2735 81.4907 47.0317C81.8193 46.7726 82.2429 46.6433 82.7614 46.6437C83.643 46.6443 84.0835 47.1026 84.0828 48.0188C84.0825 48.4509 83.9785 48.8398 83.7709 49.1853C83.5632 49.5482 83.3124 49.8332 83.0184 50.0404C82.7416 50.265 82.4736 50.3771 82.2144 50.3769Z" fill="#3C204C"/>
</svg>
