<svg width="216" height="33" viewBox="0 0 216 33" fill="none" xmlns="http://www.w3.org/2000/svg">
<path d="M26.8288 1.75036C28.1773 1.77119 30.2302 1.93869 32.2427 2.13097C33.8757 2.28721 35.5193 2.4642 36.7018 2.59138C36.7494 2.59642 36.7972 2.60148 36.845 2.60653C37.4588 2.67263 38.0724 2.73094 38.7494 2.7951C40.4004 2.95127 42.6129 3.16079 47.2609 3.69959C48.6029 3.81479 49.9663 3.9337 51.3145 4.05353C65.9242 5.35242 80.5119 6.78735 95.1108 8.29569C95.2955 8.31135 95.4827 8.32721 95.6711 8.34318C99.0535 8.62968 103.252 8.99064 106.085 9.30942C106.313 9.3349 106.531 9.35988 106.737 9.38436C110.338 9.81243 112.833 10.1418 114.833 10.4249C116.927 10.6773 118.987 10.9222 121.106 11.2858C121.658 11.384 122.172 11.4803 122.762 11.6342C123.093 11.7287 123.339 11.7778 123.837 12.0232C123.934 12.0749 124.134 12.1848 124.327 12.3615C124.515 12.5361 125.003 13.03 124.902 13.8937C124.839 14.3004 124.705 14.505 124.586 14.6801C124.46 14.8531 124.338 14.9625 124.266 15.0246C124.102 15.1642 123.946 15.2551 123.851 15.3075C122.357 15.9867 121.532 16.0385 120.434 16.3065C113.074 17.882 105.764 19.4511 98.4708 21.0568C94.9036 21.8434 91.3456 22.6358 87.7993 23.4595C84.5415 24.2341 81.215 24.9619 78.1808 25.9653C77.5138 26.2112 76.8791 26.506 76.6146 26.7574C76.7114 26.6775 76.9106 26.4907 76.9821 26.1141C77.0496 25.7438 76.9087 25.4435 76.8387 25.3373C76.6816 25.115 76.6849 25.1679 76.7192 25.1739C76.7987 25.216 77.0046 25.2979 77.2122 25.3593C77.6361 25.4869 78.1205 25.5853 78.6059 25.6669C80.8486 26.0236 82.9901 26.1023 84.7377 26.192C87.6295 26.3279 90.7713 26.3999 93.664 26.43C94.978 26.444 96.2725 26.4512 97.41 26.4542C97.9914 26.4558 98.5731 26.4557 99.0727 26.455C101.935 26.3835 104.808 26.2885 107.678 26.1827C107.87 26.1937 108.068 26.2051 108.264 26.2169C110.72 26.3641 113.726 26.2733 118.471 26.1106C120.534 26.0398 122.932 25.9549 125.75 25.8698C127.564 25.8149 128.503 25.8658 129.267 25.9076C129.492 25.9199 129.703 25.9313 129.916 25.9389C130.648 25.9652 131.415 25.88 132.321 25.7793C133.497 25.6486 134.907 25.4916 136.78 25.5178C142.747 25.601 145.362 25.3026 147.343 25.0774C147.927 25.0114 148.441 24.9522 148.989 24.9104C150.735 24.7756 153.246 24.7646 155.129 24.806C156.404 24.8331 158.737 24.7151 160.795 24.5829C160.801 24.5826 160.821 24.5825 160.827 24.5824C161.211 24.567 161.583 24.551 161.935 24.5348C162.79 24.495 163.963 24.4935 165.326 24.4977C166.745 24.5021 168.389 24.5127 170.143 24.4927C174.581 24.4446 176.951 24.4703 178.846 24.4917C179.389 24.4986 179.904 24.5068 180.402 24.5152C182.006 24.5425 183.959 24.6032 185.977 24.6953C188.369 24.8024 190.821 24.9588 192.679 25.0906C197.471 25.618 202.302 26.3007 207.078 27.7427C207.45 27.8572 207.832 27.9841 208.189 28.1135C208.198 28.1162 208.224 28.1254 208.233 28.1284C210.214 28.9198 211.761 29.7072 213.075 30.2697C214.618 30.9535 215.521 31.4862 215.45 31.8978C215.373 32.2953 214.353 32.5526 212.543 32.4325C211.007 32.3519 209.016 31.7681 207.154 31.162L207.191 31.1744C206.857 31.0784 206.503 30.9779 206.157 30.8818C201.564 29.6247 196.704 29.0719 191.838 28.659C185.908 28.1773 179.928 27.9785 173.949 27.8453C169.745 27.7547 165.578 27.7172 161.37 27.7109C161.193 27.7106 161.016 27.7104 160.838 27.7103L160.879 27.7097C160.626 27.7153 160.372 27.7212 160.115 27.7271C156.587 27.9268 153.068 28.1356 150.587 28.253C148.542 28.3499 147.039 28.349 145.762 28.3481C144.881 28.3476 144.096 28.3476 143.311 28.3804C142.89 28.3981 142.304 28.4255 141.611 28.4583C138.764 28.5922 133.924 28.8238 129.505 28.8856C127.544 28.9129 125.262 28.9085 123.086 28.9021C119.971 28.8933 117.077 28.879 115.606 28.9599C113.037 29.1021 110.086 29.1408 107.478 29.1653C104.99 29.1892 102.819 29.1996 101.576 29.2925C100.117 29.4028 98.8262 29.3924 96.9639 29.3644C96.0317 29.3504 94.9619 29.3321 93.669 29.3143C93.0995 29.3068 92.5298 29.2988 91.8779 29.2897C89.3542 29.2531 87.5803 29.1424 86.0654 29.0281C83.9327 28.8575 82.3286 28.719 79.9086 28.5081C79.0391 28.4255 78.1429 28.3131 77.2407 28.1159C76.7822 28.0126 76.3279 27.8965 75.8279 27.6905C75.5666 27.5746 75.3185 27.4753 74.9601 27.1782C74.7891 27.0126 74.5276 26.8201 74.3786 26.2347C74.309 25.9347 74.3518 25.5562 74.4853 25.2803C74.6157 25.0033 74.7791 24.8368 74.9259 24.7128C75.9442 23.9123 76.8116 23.6914 77.5807 23.4242C78.5842 23.1073 79.6784 22.8039 80.8298 22.4999C82.3481 22.1005 83.957 21.7086 85.4177 21.4021C86.626 21.1489 87.6211 21.0003 88.5432 20.8601C88.8172 20.8195 89.0763 20.7815 89.3358 20.7408C90.3212 20.5133 91.2478 20.3003 92.2115 20.0786C92.3604 20.0315 92.5182 19.9811 92.6847 19.9281C93.544 19.6572 94.5403 19.3387 95.8488 18.9968C97.8897 18.4626 99.7088 18.0988 101.613 17.7188C103.102 17.4214 104.67 17.1082 106.414 16.7016C107.665 16.4103 108.951 16.0875 110.353 15.7386C112.324 15.2453 114.328 14.745 115.727 14.4601C116.262 14.351 116.717 14.2996 117.16 14.2508C117.162 14.2507 117.164 14.2506 117.166 14.2504C117.196 14.2471 117.227 14.2436 117.257 14.2402C118.097 14.0406 118.954 13.8367 119.829 13.6286C120.452 13.4797 121.069 13.3264 121.64 13.1555C121.928 13.0685 122.203 12.9761 122.393 12.8885C122.431 12.8713 122.475 12.8473 122.479 12.8434C122.482 12.8469 122.473 12.8199 122.324 12.9862C122.252 13.084 122.135 13.2178 122.093 13.5621C122.06 13.9017 122.192 14.1742 122.289 14.307C122.497 14.567 122.524 14.5263 122.531 14.5436C121.943 14.3129 120.343 14.0904 119.174 13.9487C118.889 13.9232 118.567 13.8944 118.287 13.872C116.84 13.7528 115.431 13.662 114.486 13.6469C113.485 13.6321 110.963 13.431 108.311 13.2361C107.435 13.1708 106.604 13.111 105.735 13.0499C104.897 12.9923 104.016 12.9332 103.292 12.8923C102.431 12.8425 101.62 12.716 100.788 12.5863C99.9905 12.4633 99.2237 12.3421 98.3288 12.2734C97.8764 12.2386 97.4197 12.2187 96.9069 12.1952C96.4614 12.1751 95.9694 12.152 95.4864 12.1216C95.0376 12.0932 93.992 11.9705 92.7017 11.8186C91.8905 11.7235 90.9744 11.6162 90.0102 11.5092C87.4564 11.313 84.8884 11.1154 82.337 10.9177C81.7944 10.915 81.3353 10.9333 80.9615 10.976C80.6944 11.0068 80.4649 11.0514 80.2289 11.097C79.9088 11.1591 79.5712 11.2227 79.123 11.2576C78.7709 11.2846 78.3586 11.2713 78.0848 11.2229C77.9572 11.2003 77.8603 11.1704 77.7723 11.1434C77.6715 11.1125 77.5814 11.0849 77.4693 11.0755C77.3884 11.0688 77.3029 11.0769 77.1977 11.0864C77.0291 11.1017 76.812 11.1214 76.4868 11.094C75.2752 10.9919 73.8947 10.8573 72.5448 10.7257C71.0428 10.5793 69.5746 10.4363 68.4043 10.3445C67.0922 10.2417 65.2298 10.0193 63.3627 9.79652C62.062 9.6413 60.7552 9.48571 59.6374 9.37039C58.5395 9.25716 57.3927 9.18771 56.2814 9.12053C54.9448 9.03968 53.6644 8.96239 52.5807 8.81538C52.3622 8.78567 52.0955 8.6992 51.7621 8.59103C51.5227 8.51409 51.2471 8.42595 50.9335 8.33939C49.5532 8.2167 48.1598 8.09005 46.7844 7.96252C46.7345 7.96659 46.6831 7.97066 46.6315 7.97492C46.6307 7.97505 46.6299 7.97518 46.6291 7.97531C45.4686 8.0715 43.8906 8.20388 41.7208 7.84586C41.1654 7.75449 40.8244 7.64723 40.5178 7.55072C40.2185 7.45609 39.9463 7.37102 39.5382 7.32146C39.0762 7.26535 38.5299 7.25756 37.9427 7.24958C37.0873 7.23558 36.1803 7.22416 35.2387 7.07233C35.175 7.06202 35.1065 7.05083 35.0354 7.0394C34.3653 6.93133 33.3699 6.77089 32.3897 6.54094C32.2059 6.52168 32.0232 6.50248 31.8416 6.48335C29.0752 6.19266 26.3016 5.89202 23.5516 5.58383C18.633 5.03193 13.7292 4.45605 8.82103 3.8172C6.43344 3.50608 4.16209 3.03991 2.51081 2.52504C0.862088 2.01013 -0.0328545 1.49927 0.0186023 1.09902C0.0699494 0.697997 1.06739 0.43478 2.7857 0.345917C4.50691 0.257877 6.8025 0.345089 9.18493 0.566265C13.0644 0.927951 16.9676 1.25111 20.8686 1.56649C21.0692 1.57767 21.2728 1.58937 21.4776 1.60166C23.0033 1.69325 24.4217 1.71489 25.8401 1.73504C26.1645 1.73953 26.4939 1.74436 26.8288 1.75036Z" fill="#594266"/>
</svg>
