<svg width="13" height="81" viewBox="0 0 13 81" fill="none" xmlns="http://www.w3.org/2000/svg">
<path d="M12.225 77.1925C12.225 77.7725 12.13 78.2825 11.94 78.7225C11.75 79.1525 11.505 79.5175 11.205 79.8175C10.895 80.1075 10.575 80.3325 10.245 80.4925C9.905 80.6425 9.59 80.7325 9.3 80.7625L8.595 78.6625C9.055 78.5325 9.405 78.3425 9.645 78.0925C9.885 77.8425 10.005 77.5325 10.005 77.1625C10.005 76.8825 9.945 76.6275 9.825 76.3975C9.695 76.1675 9.5 75.9825 9.24 75.8425C8.97 75.7025 8.63 75.6325 8.22 75.6325L1.5 75.6325L1.5 73.2175L8.85 73.2175C9.36 73.2175 9.825 73.3125 10.245 73.5025C10.655 73.6925 11.01 73.9625 11.31 74.3125C11.6 74.6625 11.825 75.0825 11.985 75.5725C12.145 76.0625 12.225 76.6025 12.225 77.1925ZM12.18 69.1778C12.18 70.0578 11.985 70.7428 11.595 71.2328C11.195 71.7228 10.625 71.9678 9.885 71.9678C9.095 71.9678 8.505 71.7128 8.115 71.2028C7.725 70.6928 7.53 69.9778 7.53 69.0578L7.53 67.2278C7.14 67.2778 6.835 67.3978 6.615 67.5878C6.385 67.7678 6.27 68.0628 6.27 68.4728C6.27 68.7528 6.335 68.9978 6.465 69.2078C6.595 69.4178 6.77 69.5978 6.99 69.7478L6.315 71.8028C5.945 71.6228 5.61 71.3878 5.31 71.0978C5.01 70.7978 4.77 70.4328 4.59 70.0028C4.41 69.5728 4.32 69.0728 4.32 68.5028C4.32 67.7228 4.465 67.0628 4.755 66.5228C5.045 65.9828 5.45 65.5778 5.97 65.3078C6.49 65.0378 7.105 64.9028 7.815 64.9028L12 64.9328L12 67.1228L11.235 67.1528C11.545 67.3628 11.78 67.6378 11.94 67.9778C12.1 68.3178 12.18 68.7178 12.18 69.1778ZM10.41 68.6528C10.41 68.3628 10.35 68.1128 10.23 67.9028C10.11 67.6828 9.95 67.5128 9.75 67.3928C9.54 67.2628 9.315 67.1978 9.075 67.1978L9.045 67.1978L9.045 68.1878C9.045 68.6778 9.115 69.0328 9.255 69.2528C9.385 69.4728 9.575 69.5828 9.825 69.5828C10.005 69.5828 10.15 69.5028 10.26 69.3428C10.36 69.1728 10.41 68.9428 10.41 68.6528ZM12.18 60.6572C12.18 61.1472 12.11 61.6072 11.97 62.0372C11.83 62.4572 11.63 62.8272 11.37 63.1472C11.1 63.4572 10.775 63.6872 10.395 63.8372L9.585 61.9022C9.835 61.7722 10.025 61.5922 10.155 61.3622C10.275 61.1322 10.335 60.8972 10.335 60.6572C10.335 60.4172 10.295 60.2272 10.215 60.0872C10.125 59.9472 10.005 59.8772 9.855 59.8772C9.695 59.8772 9.57 59.9472 9.48 60.0872C9.39 60.2272 9.31 60.4322 9.24 60.7022L9.09 61.3622C8.91 62.0522 8.61 62.5872 8.19 62.9672C7.77 63.3472 7.285 63.5372 6.735 63.5372C5.965 63.5372 5.37 63.2722 4.95 62.7422C4.53 62.2122 4.32 61.4772 4.32 60.5372C4.32 59.9972 4.395 59.5272 4.545 59.1272C4.685 58.7172 4.885 58.3772 5.145 58.1072C5.395 57.8272 5.685 57.6272 6.015 57.5072L6.795 59.3672C6.595 59.4372 6.44 59.5822 6.33 59.8022C6.22 60.0222 6.165 60.2572 6.165 60.5072C6.165 60.7272 6.215 60.8972 6.315 61.0172C6.415 61.1372 6.54 61.1972 6.69 61.1972C6.81 61.1972 6.915 61.1272 7.005 60.9872C7.085 60.8372 7.16 60.6222 7.23 60.3422L7.425 59.5472C7.545 59.0772 7.73 58.6822 7.98 58.3622C8.22 58.0422 8.505 57.8022 8.835 57.6422C9.155 57.4822 9.5 57.4022 9.87 57.4022C10.35 57.4022 10.765 57.5422 11.115 57.8222C11.455 58.0922 11.72 58.4722 11.91 58.9622C12.09 59.4522 12.18 60.0172 12.18 60.6572ZM12 56.2995L4.5 56.2995L4.5 54.0945L5.445 54.0045C5.075 53.7645 4.795 53.4695 4.605 53.1195C4.415 52.7595 4.32 52.3645 4.32 51.9345C4.32 51.3145 4.45 50.8045 4.71 50.4045C4.96 49.9945 5.345 49.6945 5.865 49.5045C5.365 49.2745 4.985 48.9595 4.725 48.5595C4.455 48.1595 4.32 47.7095 4.32 47.2095C4.32 46.3095 4.595 45.6345 5.145 45.1845C5.695 44.7245 6.55 44.4995 7.71 44.5095L12 44.5095L12 46.8495L8.16 46.8495C7.76 46.8495 7.445 46.8945 7.215 46.9845C6.975 47.0645 6.8 47.1845 6.69 47.3445C6.58 47.5045 6.52 47.6945 6.51 47.9145C6.5 48.3445 6.625 48.6745 6.885 48.9045C7.135 49.1245 7.52 49.2345 8.04 49.2345L12 49.2345L12 51.5745L8.16 51.5745C7.76 51.5745 7.445 51.6195 7.215 51.7095C6.975 51.7895 6.8 51.9095 6.69 52.0695C6.58 52.2295 6.52 52.4195 6.51 52.6395C6.5 53.0695 6.625 53.3995 6.885 53.6295C7.135 53.8495 7.52 53.9595 8.04 53.9595L12 53.9595L12 56.2995ZM12 42.9516L4.5 42.9516L4.5 40.6116L12 40.6116L12 42.9516ZM3.54 41.7816C3.54 42.1316 3.41 42.4416 3.15 42.7116C2.88 42.9716 2.57 43.1016 2.22 43.1016C1.85 43.1016 1.54 42.9716 1.29 42.7116C1.03 42.4416 0.9 42.1316 0.9 41.7816C0.9 41.4216 1.03 41.1116 1.29 40.8516C1.54 40.5916 1.85 40.4616 2.22 40.4616C2.57 40.4616 2.88 40.5916 3.15 40.8516C3.41 41.1116 3.54 41.4216 3.54 41.7816ZM12 38.9411L4.5 38.9411L4.5 36.7361L5.46 36.6461C5.1 36.3961 4.82 36.0911 4.62 35.7311C4.42 35.3711 4.32 34.9661 4.32 34.5161C4.32 33.9161 4.445 33.4111 4.695 33.0011C4.935 32.5911 5.305 32.2861 5.805 32.0861C6.305 31.8761 6.945 31.7711 7.725 31.7711L12 31.7711L12 34.1111L8.16 34.1111C7.76 34.1111 7.445 34.1561 7.215 34.2461C6.975 34.3361 6.8 34.4661 6.69 34.6361C6.58 34.7961 6.52 34.9961 6.51 35.2361C6.5 35.6861 6.625 36.0261 6.885 36.2561C7.135 36.4861 7.52 36.6011 8.04 36.6011L12 36.6011L12 38.9411ZM12.18 26.7425C12.18 27.5225 12.015 28.2125 11.685 28.8125C11.355 29.4125 10.895 29.8825 10.305 30.2225C9.715 30.5625 9.03 30.7325 8.25 30.7325C7.47 30.7325 6.785 30.5625 6.195 30.2225C5.605 29.8825 5.145 29.4125 4.815 28.8125C4.485 28.2025 4.32 27.5025 4.32 26.7125C4.32 26.0025 4.49 25.3625 4.83 24.7925C5.17 24.2225 5.68 23.7725 6.36 23.4425C7.03 23.1025 7.86 22.9325 8.85 22.9325L8.85 28.3025C9.28 28.2525 9.625 28.0775 9.885 27.7775C10.135 27.4675 10.26 27.1025 10.26 26.6825C10.26 26.3125 10.18 26.0025 10.02 25.7525C9.85 25.5025 9.64 25.3275 9.39 25.2275L10.095 23.1425C10.575 23.3425 10.97 23.6275 11.28 23.9975C11.59 24.3575 11.82 24.7725 11.97 25.2425C12.11 25.7125 12.18 26.2125 12.18 26.7425ZM7.29 28.2425L7.29 25.3775C7 25.4175 6.77 25.5125 6.6 25.6625C6.42 25.8125 6.29 25.9875 6.21 26.1875C6.13 26.3875 6.09 26.5875 6.09 26.7875C6.09 26.9775 6.13 27.1775 6.21 27.3875C6.28 27.5975 6.405 27.7825 6.585 27.9425C6.755 28.0925 6.99 28.1925 7.29 28.2425ZM12.18 13.2433C12.18 14.3233 11.95 15.2783 11.49 16.1083C11.02 16.9283 10.38 17.5733 9.57 18.0433C8.75 18.5133 7.81 18.7483 6.75 18.7483C5.69 18.7483 4.755 18.5133 3.945 18.0433C3.125 17.5733 2.485 16.9283 2.025 16.1083C1.555 15.2783 1.32 14.3233 1.32 13.2433C1.32 12.5733 1.42 11.9683 1.62 11.4283C1.81 10.8783 2.075 10.3983 2.415 9.98829C2.755 9.57829 3.145 9.23829 3.585 8.96829L4.785 10.9633C4.545 11.1133 4.33 11.3133 4.14 11.5633C3.95 11.8033 3.805 12.0683 3.705 12.3583C3.595 12.6483 3.54 12.9433 3.54 13.2433C3.54 13.8333 3.675 14.3583 3.945 14.8183C4.215 15.2683 4.595 15.6233 5.085 15.8833C5.565 16.1433 6.12 16.2733 6.75 16.2733C7.38 16.2733 7.94 16.1483 8.43 15.8983C8.91 15.6483 9.29 15.2883 9.57 14.8183C9.85 14.3483 9.99 13.8033 9.99 13.1833C9.99 12.7533 9.91 12.3633 9.75 12.0133C9.59 11.6633 9.37 11.3833 9.09 11.1733C8.81 10.9633 8.48 10.8383 8.1 10.7983L8.1 13.1683L6.24 13.1683L6.24 8.47329L7.665 8.47329C8.645 8.49329 9.475 8.71329 10.155 9.1333C10.825 9.5533 11.33 10.1183 11.67 10.8283C12.01 11.5283 12.18 12.3333 12.18 13.2433ZM12.18 4.76302C12.18 5.36302 12.06 5.86802 11.82 6.27802C11.57 6.68802 11.195 6.99802 10.695 7.20802C10.195 7.40802 9.555 7.50802 8.775 7.50802L4.5 7.50802L4.5 5.16802L8.34 5.16802C8.73 5.16802 9.045 5.12302 9.285 5.03302C9.525 4.94302 9.7 4.81302 9.81 4.64302C9.92 4.47302 9.98 4.27302 9.99 4.04302C9.99 3.59302 9.865 3.25302 9.615 3.02302C9.355 2.79302 8.97 2.67802 8.46 2.67802L4.5 2.67802L4.5 0.338022L12 0.338022L12 2.54302L11.04 2.63302C11.4 2.87302 11.68 3.17802 11.88 3.54802C12.08 3.90802 12.18 4.31302 12.18 4.76302Z" fill="#776780"/>
</svg>
