<svg width="219" height="56" viewBox="0 0 219 56" fill="none" xmlns="http://www.w3.org/2000/svg">
<path d="M3.5095 38.544C2.2295 39.184 0.8215 38.544 0.5015 37.136C0.3095 36.176 0.4375 35.216 0.6935 34.32C1.2695 32.208 2.1655 30.224 3.1895 28.304C4.5975 25.68 6.2615 23.184 8.0535 20.88C8.9495 19.728 9.5895 18.576 9.9735 17.232C10.2935 15.952 10.7415 14.608 11.1255 13.328C11.3175 12.56 11.5735 11.792 10.7415 11.152C10.4215 10.896 10.4215 10.384 10.5495 10C10.7415 9.488 10.9975 8.976 11.2535 8.464C11.6375 7.888 12.1495 7.504 12.8535 7.696C13.6855 7.824 14.3895 8.464 14.3895 9.296C14.4535 10.064 14.3895 10.896 14.2615 11.664C14.1975 12.24 13.9415 12.752 14.0695 13.328C14.5815 13.648 14.7735 13.2 15.0295 13.008C16.1815 12.048 17.2055 11.088 18.3575 10.192C19.0615 9.616 19.8295 9.232 20.6615 8.976C22.9655 8.272 24.8855 9.232 25.6535 11.472C25.9735 12.368 26.0375 13.328 26.0375 14.288C26.1015 17.232 25.5255 20.048 24.8855 22.864C24.6935 23.632 24.3095 24.4 24.8855 25.168C28.2775 20.112 31.7335 15.184 35.8935 10.64C37.1095 9.36 38.4535 8.208 39.9255 7.184C40.6935 6.672 41.5895 6.16 42.4855 5.84C44.0215 5.264 46.5815 6.16 46.4535 8.656C46.3895 9.552 46.3255 10.448 46.0695 11.28C44.2135 18.512 42.2295 25.744 39.6695 32.784C39.2215 33.936 38.7095 35.152 38.1335 36.304C37.9415 36.752 37.6215 37.136 37.3015 37.456C36.8535 37.968 36.1495 37.968 35.5095 37.648C34.8695 37.264 34.6135 36.688 34.8055 35.984C34.8055 35.856 34.8695 35.728 34.9335 35.536C37.5575 29.328 39.0935 22.736 41.0135 16.272L42.7415 10.256C42.8695 9.936 42.9335 9.616 42.9335 9.296C42.9335 9.04 42.6775 8.848 42.4215 8.976C41.7175 9.488 40.9495 9.936 40.3095 10.512C38.2615 12.24 36.4695 14.224 34.7415 16.272C32.2455 19.28 30.0055 22.544 27.7015 25.744C26.4215 27.536 25.0775 29.392 23.7335 31.184C23.2855 31.76 22.7735 32.272 22.2615 32.784C21.6215 33.424 20.7895 33.424 20.0215 33.104C19.2535 32.784 19.0615 32.016 19.1255 31.312C19.1895 30.48 19.4455 29.712 19.6375 28.944C20.4055 25.744 21.2375 22.544 22.0055 19.344C22.4535 17.36 22.8375 15.376 22.7095 13.392C22.7095 12.88 22.6455 12.432 22.5815 11.92C22.5175 11.536 22.1335 11.408 21.8775 11.536C21.2375 11.792 20.6615 12.112 20.2135 12.496C17.2055 14.8 14.6455 17.616 12.1495 20.496C11.5735 21.2 11.3815 22.032 11.1255 22.864C9.9095 26.32 8.6935 29.712 7.2215 32.976C6.5815 34.32 5.8775 35.6 5.1735 36.816C4.7895 37.52 4.2775 38.16 3.5095 38.544ZM24.7575 25.104L24.8215 25.232L24.8855 25.168C24.8215 25.168 24.7575 25.104 24.7575 25.104ZM59.8785 36.432C57.7665 36.432 56.3585 35.28 55.9105 33.232C55.7825 32.464 55.7825 31.632 55.9105 30.864C55.9745 30.352 56.2945 29.776 55.9105 29.2C55.1425 29.52 54.7585 30.288 54.1825 30.8C53.1585 31.824 52.1985 32.912 51.1105 33.936C49.8945 35.088 47.5265 34.704 47.2065 32.336C47.0785 31.056 47.3345 29.904 47.6545 28.752C48.8065 25.04 50.5985 21.648 53.2225 18.704C53.9265 17.872 54.8225 17.168 55.7825 16.528C57.6385 15.312 60.3905 15.376 61.9265 17.04C63.0785 18.32 63.3985 18.512 62.5665 20.112C61.1585 22.864 60.0705 25.68 59.3025 28.624C58.9825 29.904 58.5985 31.12 58.5985 32.4C58.5985 33.488 59.1105 33.936 60.1345 33.488C61.0305 33.168 61.8625 32.72 62.6945 32.208C67.1745 29.648 71.2065 26.448 74.7905 22.736C75.2385 22.352 75.5585 21.904 76.0065 21.584C76.7745 20.816 77.7985 21.008 78.5025 21.904C78.6945 22.16 78.7585 22.48 78.5665 22.8C78.3105 23.184 77.9905 23.568 77.6705 23.952C73.9585 28.24 69.6705 31.824 64.8065 34.704C63.7185 35.408 62.5025 35.92 61.2865 36.24C60.8385 36.304 60.3265 36.432 59.8785 36.432ZM51.4945 28.304C51.4305 28.368 51.5585 28.432 51.6225 28.56C51.9425 28.304 52.1985 28.112 52.4545 27.856C54.4385 25.744 56.2945 23.504 57.8945 21.072C58.3425 20.432 59.0465 19.92 58.9185 19.024C58.8545 18.64 57.8945 19.088 56.7425 20.112L56.5505 20.24C54.2465 22.544 52.5825 25.232 51.4945 28.304ZM72.5235 37.52C71.1795 37.52 70.3475 36.752 70.3475 35.472C70.2835 34.768 70.4115 34.064 70.7315 33.36C71.4995 31.696 72.2035 29.968 72.9715 28.304C74.3795 25.36 75.8515 22.416 77.2595 19.408C77.7715 18.256 78.2835 17.104 78.2835 15.76C78.2835 15.632 78.3475 15.44 78.4115 15.312C78.6035 14.352 79.1155 13.84 79.7555 13.904C80.7795 13.968 81.4835 14.608 81.5475 15.568C81.5475 16.336 81.4835 17.168 81.3555 17.936C81.2915 18.576 81.0355 19.088 80.8435 19.728C81.2275 19.984 81.4195 19.728 81.6755 19.472L84.1715 16.592C86.0275 14.416 89.4835 15.568 90.1875 17.936C90.6995 19.536 90.6995 21.136 90.3795 22.736C90.2515 23.44 89.7395 23.824 89.0355 23.888C88.1395 23.888 87.4355 23.44 87.2435 22.608C87.1795 22.096 87.1795 21.648 87.1155 21.136L86.9235 19.984C86.9235 19.856 86.7315 19.728 86.6675 19.6C86.0915 19.536 85.8355 20.048 85.5795 20.368C84.4275 21.904 83.2115 23.44 82.1235 25.04C80.1395 28.048 78.2195 31.12 76.2355 34.128C75.6595 34.96 75.0195 35.792 74.3795 36.624C73.9315 37.264 73.2275 37.52 72.5235 37.52ZM80.8435 19.792L80.9075 19.92L80.8435 19.728V19.792ZM88.773 41.296C88.005 41.04 87.493 40.272 87.621 39.376C87.813 38.544 88.133 37.712 88.453 36.88C91.653 29.072 95.173 21.392 99.013 13.84C100.037 11.792 101.061 9.68 102.149 7.632C102.533 6.8 102.789 6.032 102.725 5.072C102.597 3.216 103.749 1.936 104.901 0.655998C105.349 0.143997 106.053 0.271999 106.693 0.528C107.397 0.848 107.845 1.36 107.909 2.128C107.909 2.576 107.781 2.96 107.653 3.344C107.205 5.52 106.309 7.632 105.349 9.68L102.085 16.4C101.445 17.68 101.125 18.576 102.021 17.936C102.021 17.936 103.685 16.656 104.773 16.208C105.669 15.824 106.501 16.016 107.333 16.336C108.293 16.784 108.741 17.744 108.421 18.704C108.165 19.408 107.845 20.048 107.397 20.624C105.669 23.056 103.557 25.104 100.741 26.448C99.525 27.024 99.525 27.024 99.845 28.432C100.165 29.776 100.613 31.056 101.317 32.272C102.213 33.744 102.853 34 104.517 33.68C105.093 33.616 105.605 33.488 106.117 33.296C109.829 32.016 115.653 25.296 118.469 22.544C118.725 22.352 118.917 22.096 119.173 21.904C120.005 21.072 120.517 21.008 121.541 21.456C122.309 21.84 122.565 22.544 122.117 23.248C121.797 23.824 121.413 24.336 120.965 24.784C117.829 28.112 111.493 35.216 107.141 36.688C105.733 37.136 104.261 37.2 102.853 36.88C100.933 36.496 99.525 35.344 98.565 33.616C97.733 32.08 97.221 30.352 96.837 28.688C96.261 28.624 96.133 28.944 95.941 29.328C94.533 32.464 93.061 35.6 91.653 38.736C91.397 39.376 91.141 39.952 90.821 40.464C90.309 41.296 89.605 41.552 88.773 41.296ZM122.54 36.688C120.684 36.56 118.828 35.856 117.419 34.256C116.715 33.424 115.819 31.696 116.523 29.2C117.867 24.656 120.108 20.624 123.436 17.296C124.716 15.952 126.252 14.928 128.108 14.352C129.068 14.032 129.964 14.16 130.86 14.608C132.14 15.184 132.652 16.144 132.588 17.488C132.46 18.64 131.948 19.664 131.436 20.624C129.58 23.888 127.148 26.64 124.268 29.072C123.052 30.096 121.708 30.992 120.364 31.824C119.788 32.144 119.788 32.784 120.364 33.168C121.004 33.552 121.644 33.744 122.411 33.552C123.244 33.36 124.14 33.168 124.972 32.848C129.772 30.992 136.428 26.832 140.332 23.504C140.972 22.992 141.484 22.352 142.06 21.776C142.828 21.008 143.532 20.944 144.428 21.456C144.876 21.776 145.132 22.416 144.876 22.928C144.748 23.184 144.556 23.504 144.364 23.76C143.596 24.592 142.892 25.488 142.06 26.192C138.22 29.584 131.692 33.744 126.956 35.664C125.676 36.24 124.268 36.688 122.54 36.688ZM120.492 27.6C120.428 27.728 120.492 27.856 120.556 27.984C120.812 28.048 121.068 27.856 121.324 27.664C124.076 25.36 126.444 22.736 128.236 19.664C128.62 18.96 129.388 18.32 128.94 17.296C128.108 17.36 127.468 17.872 126.828 18.384C123.884 20.816 121.9 24.016 120.492 27.6ZM138.459 40.144C137.819 40.144 137.371 39.888 137.115 39.312C136.859 38.672 136.923 38.032 137.115 37.392C137.755 35.024 139.099 30.544 139.739 28.176C139.867 27.664 141.084 24.208 142.556 20.112C140.828 20.24 139.547 20.304 139.419 20.304C138.843 20.24 138.267 20.24 137.819 19.92C137.371 19.6 137.051 19.28 137.115 18.768C137.115 18.128 137.563 18 138.076 17.936C139.291 17.808 140.508 17.68 141.724 17.616L143.452 17.488C145.244 12.56 147.164 7.504 147.868 6.288C148.124 5.776 148.316 5.264 148.635 4.816C149.276 3.6 150.492 3.536 151.324 4.624C151.58 5.008 151.644 5.392 151.516 5.776C151.324 6.288 151.068 6.8 150.876 7.312C150.044 9.232 149.148 11.152 148.38 13.072L146.908 17.296C148.828 17.168 150.556 17.04 151.004 17.04C151.9 16.976 152.796 16.912 153.692 16.912C154.14 16.912 154.588 17.04 154.972 17.488C155.228 17.808 155.292 18.192 154.972 18.512C154.524 19.088 153.948 19.216 153.244 19.28L146.076 19.856C143.964 26.064 141.02 34.832 140.059 37.776C139.931 38.288 139.739 38.864 139.547 39.376C139.355 39.824 138.971 40.144 138.459 40.144ZM154.584 36.816C151.831 36.88 150.743 35.216 150.487 33.04C150.423 32.336 150.551 31.568 150.743 30.864C151.831 27.024 153.816 23.632 156.568 20.752C157.592 19.792 158.36 19.6 159.384 20.112C159.96 20.432 160.152 21.008 159.832 21.52C159.512 22.032 159.192 22.416 158.808 22.864C156.952 25.232 155.48 27.792 154.52 30.672C154.264 31.504 153.944 32.336 154.008 33.232C154.008 33.552 154.328 33.808 154.648 33.68C155.48 33.232 156.376 32.784 157.144 32.208C160.536 29.904 167 23.696 168.28 22.288C169.048 21.456 169.56 21.328 170.392 21.776C171.032 22.096 171.288 22.736 170.84 23.312C170.456 23.952 170.008 24.528 169.56 25.04C165.784 29.008 161.624 33.232 157.976 35.6C156.952 36.24 155.864 36.752 154.584 36.816ZM160.152 13.392C160.152 12.944 160.088 12.816 160.152 12.624C160.344 10.832 161.624 10.192 163.224 11.216C163.864 11.664 164.184 12.432 163.928 13.136C163.736 13.584 163.544 13.968 163.288 14.416C162.968 14.864 162.584 15.312 161.944 15.248C161.176 15.12 160.536 14.8 160.28 14.032C160.152 13.776 160.152 13.456 160.152 13.392ZM162.085 39.824C161.445 39.44 161.125 38.608 161.509 37.712C161.701 37.2 162.021 36.752 162.214 36.24C163.749 33.04 165.221 29.84 166.758 26.64C168.102 23.888 168.934 20.944 169.126 17.872C169.19 17.04 169.19 16.272 169.51 15.504C169.894 14.608 170.534 14.352 171.43 14.608C172.326 14.864 172.774 15.504 172.902 16.336C173.094 17.296 173.03 18.256 172.838 19.216L172.262 22.288C172.902 22.736 173.414 22.16 173.926 22.096C176.038 21.904 177.318 22.928 177.318 25.104C177.382 26.128 177.254 27.152 177.126 28.24C176.934 29.712 176.87 31.248 176.934 32.784C176.998 33.808 177.51 34.128 178.342 33.68C179.238 33.168 180.006 32.656 180.774 32.08C184.358 29.584 187.622 26.704 190.694 23.632C191.334 22.928 192.038 22.288 192.742 21.584C193.318 21.008 193.958 20.88 194.726 21.136C195.942 21.456 196.262 22.288 195.494 23.248C194.982 23.952 194.342 24.656 193.766 25.296C190.502 28.944 186.918 32.336 182.95 35.216C181.67 36.176 180.326 37.008 178.662 37.328C176.422 37.776 173.99 36.944 173.478 34C173.286 32.848 173.158 31.632 173.286 30.416C173.414 29.328 173.478 28.176 173.542 27.088L173.094 26.896C172.518 27.664 171.942 28.432 171.43 29.2C169.446 32.144 167.462 35.088 165.477 37.968C165.093 38.544 164.709 39.056 164.326 39.568C163.813 40.144 162.789 40.272 162.085 39.824ZM186.511 55.824C185.231 55.76 184.527 54.8 184.783 53.52C184.975 52.624 185.487 51.92 185.999 51.152C187.535 49.04 189.263 46.992 191.119 45.136C192.847 43.408 194.191 41.424 195.343 39.312C197.263 35.664 199.183 32.016 200.847 28.304C201.103 27.856 201.551 27.344 201.103 26.768H201.295L201.167 26.704C199.247 28.496 197.327 30.224 195.215 31.632C194.383 32.272 193.423 32.72 192.527 33.232C191.887 33.616 191.119 33.616 190.415 33.488C189.199 33.232 188.431 32.4 188.303 31.184C188.239 30.352 188.367 29.584 188.687 28.816C190.671 24.272 193.551 20.304 197.519 17.232C198.543 16.4 199.759 15.696 201.167 15.632C203.023 15.568 204.559 15.952 205.263 17.872C205.455 18.448 205.903 18.512 206.351 18.704C207.631 19.28 207.887 19.856 207.503 21.136C207.311 22.032 206.927 22.864 206.607 23.632C205.455 26.384 204.239 29.072 203.023 31.824C202.831 32.272 202.383 32.72 202.575 33.424C203.343 33.168 203.855 32.528 204.431 32.016C206.351 30.288 212.303 24.208 214.415 22.736C214.863 22.416 215.311 22.032 215.759 21.776C216.463 21.456 217.167 21.584 217.743 22.16C218.063 22.48 218.127 22.928 217.871 23.312C217.615 23.632 217.359 23.888 217.039 24.144C211.855 28.368 203.087 37.392 198.351 42.128C197.135 43.344 196.111 44.624 195.279 46.096C193.871 48.464 192.399 50.768 190.671 52.88C190.031 53.712 189.263 54.416 188.495 55.12C187.983 55.696 187.279 55.888 186.511 55.824ZM192.399 29.456C193.231 29.072 193.999 28.496 194.639 27.92C196.623 26.128 198.543 24.336 200.591 22.672C201.807 21.648 202.255 20.368 202.511 18.96C202.639 18.448 202.255 18.128 201.807 18.256C200.527 18.704 199.439 19.536 198.415 20.496C195.983 22.8 193.999 25.488 192.463 28.496C192.271 28.752 192.079 29.072 192.399 29.456Z" fill="#3C204C"/>
</svg>
