<svg width="12" height="97" viewBox="0 0 12 97" fill="none" xmlns="http://www.w3.org/2000/svg">
<path d="M11 96.0513L0.499999 96.0513L0.499999 91.9263C0.499999 91.1663 0.654999 90.4913 0.965 89.9013C1.265 89.3113 1.685 88.8513 2.225 88.5213C2.755 88.1813 3.375 88.0113 4.085 88.0113C4.775 88.0113 5.395 88.1763 5.945 88.5063C6.485 88.8263 6.91 89.2763 7.22 89.8563C7.53 90.4363 7.685 91.1013 7.685 91.8513L7.685 93.6363L11 93.6363L11 96.0513ZM5.465 93.6363L5.465 91.9113C5.465 91.4813 5.34 91.1363 5.09 90.8763C4.83 90.6163 4.495 90.4863 4.085 90.4863C3.675 90.4863 3.345 90.6263 3.095 90.9063C2.835 91.1763 2.705 91.5363 2.705 91.9863L2.705 93.6363L5.465 93.6363ZM7.115 85.3821C6.305 85.3821 5.63 85.2221 5.09 84.9021C4.55 84.5721 4.145 84.1621 3.875 83.6721C3.605 83.1721 3.47 82.6521 3.47 82.1121L5.75 82.1121C5.75 82.5721 5.8 83.0071 5.9 83.4171C6 83.8171 6.155 84.1421 6.365 84.3921C6.565 84.6421 6.825 84.7671 7.145 84.7671L7.115 85.3821ZM11 87.1071L3.5 87.1071L3.5 84.7671L11 84.7671L11 87.1071ZM11 76.6756L9.38 76.7506L7.265 76.7506C6.865 76.7506 6.515 76.7856 6.215 76.8556C5.915 76.9156 5.685 77.0406 5.525 77.2306C5.355 77.4106 5.27 77.6756 5.27 78.0256C5.27 78.3056 5.335 78.5506 5.465 78.7606C5.595 78.9706 5.77 79.1506 5.99 79.3006L5.315 81.3556C4.945 81.1756 4.61 80.9406 4.31 80.6506C4.01 80.3506 3.77 79.9856 3.59 79.5556C3.41 79.1256 3.32 78.6256 3.32 78.0556C3.32 77.2756 3.465 76.6156 3.755 76.0756C4.045 75.5356 4.45 75.1306 4.97 74.8606C5.49 74.5906 6.105 74.4556 6.815 74.4556L11 74.4856L11 76.6756ZM11.18 78.7306C11.18 79.6106 10.985 80.2956 10.595 80.7856C10.195 81.2756 9.625 81.5206 8.885 81.5206C8.095 81.5206 7.505 81.2656 7.115 80.7556C6.725 80.2456 6.53 79.5306 6.53 78.6106L6.53 76.5556L8.045 76.5556L8.045 77.7406C8.045 78.2306 8.115 78.5856 8.255 78.8056C8.385 79.0256 8.575 79.1356 8.825 79.1356C9.005 79.1356 9.15 79.0556 9.26 78.8956C9.36 78.7256 9.41 78.4956 9.41 78.2056C9.41 77.9156 9.35 77.6656 9.23 77.4556C9.1 77.2356 8.93 77.0656 8.72 76.9456C8.51 76.8156 8.285 76.7506 8.045 76.7506V76.1506C9.035 76.1506 9.805 76.3656 10.355 76.7956C10.905 77.2156 11.18 77.8606 11.18 78.7306ZM11 73.03L3.5 73.03L3.5 70.825L4.88 70.69L11 70.69L11 73.03ZM11 68.2L7.16 68.2L7.16 65.86L11 65.86L11 68.2ZM7.16 68.2C6.76 68.2 6.445 68.245 6.215 68.335C5.975 68.425 5.8 68.555 5.69 68.725C5.58 68.885 5.52 69.085 5.51 69.325C5.5 69.775 5.625 70.115 5.885 70.345C6.135 70.575 6.52 70.69 7.04 70.69V71.395C6.25 71.395 5.58 71.275 5.03 71.035C4.47 70.795 4.045 70.47 3.755 70.06C3.465 69.64 3.32 69.155 3.32 68.605C3.32 68.005 3.445 67.5 3.695 67.09C3.935 66.68 4.305 66.375 4.805 66.175C5.305 65.965 5.945 65.86 6.725 65.86L7.16 65.86L7.16 68.2ZM11 59.9763L9.38 60.0513L7.265 60.0513C6.865 60.0513 6.515 60.0863 6.215 60.1563C5.915 60.2163 5.685 60.3413 5.525 60.5313C5.355 60.7113 5.27 60.9763 5.27 61.3263C5.27 61.6063 5.335 61.8513 5.465 62.0613C5.595 62.2713 5.77 62.4513 5.99 62.6013L5.315 64.6563C4.945 64.4763 4.61 64.2413 4.31 63.9513C4.01 63.6513 3.77 63.2863 3.59 62.8563C3.41 62.4263 3.32 61.9263 3.32 61.3563C3.32 60.5763 3.465 59.9163 3.755 59.3763C4.045 58.8363 4.45 58.4313 4.97 58.1613C5.49 57.8913 6.105 57.7563 6.815 57.7563L11 57.7863L11 59.9763ZM11.18 62.0313C11.18 62.9113 10.985 63.5963 10.595 64.0863C10.195 64.5763 9.625 64.8213 8.885 64.8213C8.095 64.8213 7.505 64.5663 7.115 64.0563C6.725 63.5463 6.53 62.8313 6.53 61.9113L6.53 59.8563L8.045 59.8563L8.045 61.0413C8.045 61.5313 8.115 61.8863 8.255 62.1063C8.385 62.3263 8.575 62.4363 8.825 62.4363C9.005 62.4363 9.15 62.3563 9.26 62.1963C9.36 62.0263 9.41 61.7963 9.41 61.5063C9.41 61.2163 9.35 60.9663 9.23 60.7563C9.1 60.5363 8.93 60.3663 8.72 60.2463C8.51 60.1163 8.285 60.0513 8.045 60.0513L8.045 59.4513C9.035 59.4513 9.805 59.6663 10.355 60.0963C10.905 60.5163 11.18 61.1613 11.18 62.0313ZM11 53.9998L3.5 51.2548L3.5 48.8398L11 51.8848L11 53.9998ZM11 54.2098L3.5 57.2548L3.5 54.8398L11 52.0948L11 54.2098ZM11 40.7305L0.499999 36.9055L0.499999 34.2955L11 38.3905L11 40.7305ZM11 41.0005L0.499999 45.1105L0.499999 42.5155L11 38.6605L11 41.0005ZM11 29.5662L9.38 29.6412L7.265 29.6412C6.865 29.6412 6.515 29.6762 6.215 29.7462C5.915 29.8062 5.685 29.9312 5.525 30.1212C5.355 30.3012 5.27 30.5662 5.27 30.9162C5.27 31.1962 5.335 31.4412 5.465 31.6512C5.595 31.8612 5.77 32.0412 5.99 32.1912L5.315 34.2462C4.945 34.0662 4.61 33.8312 4.31 33.5412C4.01 33.2412 3.77 32.8762 3.59 32.4462C3.41 32.0162 3.32 31.5162 3.32 30.9462C3.32 30.1662 3.465 29.5062 3.755 28.9662C4.045 28.4262 4.45 28.0212 4.97 27.7512C5.49 27.4812 6.105 27.3462 6.815 27.3462L11 27.3762L11 29.5662ZM11.18 31.6212C11.18 32.5012 10.985 33.1862 10.595 33.6762C10.195 34.1662 9.625 34.4112 8.885 34.4112C8.095 34.4112 7.505 34.1562 7.115 33.6462C6.725 33.1362 6.53 32.4212 6.53 31.5012L6.53 29.4462L8.045 29.4462L8.045 30.6312C8.045 31.1212 8.115 31.4762 8.255 31.6962C8.385 31.9162 8.575 32.0262 8.825 32.0262C9.005 32.0262 9.15 31.9462 9.26 31.7862C9.36 31.6162 9.41 31.3862 9.41 31.0962C9.41 30.8062 9.35 30.5562 9.23 30.3462C9.1 30.1262 8.93 29.9562 8.72 29.8362C8.51 29.7062 8.285 29.6412 8.045 29.6412L8.045 29.0412C9.035 29.0412 9.805 29.2562 10.355 29.6862C10.905 30.1062 11.18 30.7512 11.18 31.6212ZM7.115 24.1956C6.305 24.1956 5.63 24.0356 5.09 23.7156C4.55 23.3856 4.145 22.9756 3.875 22.4856C3.605 21.9856 3.47 21.4656 3.47 20.9256L5.75 20.9256C5.75 21.3856 5.8 21.8206 5.9 22.2306C6 22.6306 6.155 22.9556 6.365 23.2056C6.565 23.4556 6.825 23.5806 7.145 23.5806L7.115 24.1956ZM11 25.9206L3.5 25.9206L3.5 23.5806L11 23.5806L11 25.9206ZM11 19.944L3.5 19.944L3.5 17.739L4.445 17.649C4.075 17.409 3.795 17.114 3.605 16.764C3.415 16.404 3.32 16.009 3.32 15.579C3.32 14.959 3.45 14.449 3.71 14.049C3.96 13.639 4.345 13.339 4.865 13.149C4.365 12.919 3.985 12.604 3.725 12.204C3.455 11.804 3.32 11.354 3.32 10.854C3.32 9.95404 3.595 9.27904 4.145 8.82904C4.695 8.36904 5.55 8.14404 6.71 8.15404L11 8.15404L11 10.494L7.16 10.494C6.76 10.494 6.445 10.539 6.215 10.629C5.975 10.709 5.8 10.829 5.69 10.989C5.58 11.149 5.52 11.339 5.51 11.559C5.5 11.989 5.625 12.319 5.885 12.549C6.135 12.769 6.52 12.879 7.04 12.879L11 12.879L11 15.219L7.16 15.219C6.76 15.219 6.445 15.264 6.215 15.354C5.975 15.434 5.8 15.554 5.69 15.714C5.58 15.874 5.52 16.064 5.51 16.284C5.5 16.714 5.625 17.044 5.885 17.274C6.135 17.494 6.52 17.604 7.04 17.604L11 17.604L11 19.944ZM11 2.27615L9.38 2.35115L7.265 2.35115C6.865 2.35115 6.515 2.38615 6.215 2.45615C5.915 2.51615 5.685 2.64115 5.525 2.83115C5.355 3.01115 5.27 3.27615 5.27 3.62615C5.27 3.90615 5.335 4.15115 5.465 4.36115C5.595 4.57115 5.77 4.75115 5.99 4.90115L5.315 6.95615C4.945 6.77615 4.61 6.54115 4.31 6.25115C4.01 5.95115 3.77 5.58615 3.59 5.15615C3.41 4.72615 3.32 4.22615 3.32 3.65615C3.32 2.87615 3.465 2.21615 3.755 1.67615C4.045 1.13615 4.45 0.731147 4.97 0.461148C5.49 0.191147 6.105 0.0561474 6.815 0.0561474L11 0.0861475L11 2.27615ZM11.18 4.33115C11.18 5.21115 10.985 5.89615 10.595 6.38615C10.195 6.87615 9.625 7.12115 8.885 7.12115C8.095 7.12115 7.505 6.86615 7.115 6.35615C6.725 5.84615 6.53 5.13115 6.53 4.21115L6.53 2.15615L8.045 2.15615L8.045 3.34115C8.045 3.83115 8.115 4.18615 8.255 4.40615C8.385 4.62615 8.575 4.73615 8.825 4.73615C9.005 4.73615 9.15 4.65615 9.26 4.49615C9.36 4.32615 9.41 4.09615 9.41 3.80615C9.41 3.51615 9.35 3.26615 9.23 3.05615C9.1 2.83615 8.93 2.66615 8.72 2.54615C8.51 2.41615 8.285 2.35115 8.045 2.35115V1.75115C9.035 1.75115 9.805 1.96615 10.355 2.39615C10.905 2.81615 11.18 3.46115 11.18 4.33115Z" fill="#776780"/>
</svg>
