<svg width="88" height="46" viewBox="0 0 88 46" fill="none" xmlns="http://www.w3.org/2000/svg">
<path d="M1.92368 43.987C1.03321 43.3393 0.913462 42.3783 1.17825 41.3565C1.44249 40.3987 1.83527 39.3781 2.2275 38.4214C3.92607 34.4038 5.68809 30.4508 7.32266 26.4327C9.7417 20.5013 11.9693 14.5042 13.5591 8.24562C13.8228 7.35185 13.959 6.39298 14.1593 5.43467C14.3584 4.60435 14.6817 4.22311 15.1297 4.22696C15.8977 4.23355 16.6612 4.75213 16.7837 5.39321C16.9062 6.03428 16.9647 6.67481 16.9592 7.31479C16.8793 9.17017 16.4799 10.9588 16.0165 12.7469C14.6264 18.1111 12.598 23.2779 10.5695 28.4447L8.60944 33.1C7.49784 35.8426 7.56129 35.9071 9.88995 33.047C13.1907 28.7872 16.5548 24.5919 19.8555 20.3321C20.3085 19.76 20.7608 19.2519 21.2772 18.7443C22.1814 17.792 23.2699 17.7374 24.4181 18.1953C25.4382 18.652 25.815 19.4873 25.8702 20.5118C25.9188 22.3043 25.776 24.0311 25.5686 25.8214C25.2178 29.4025 24.739 32.9826 24.8357 36.6315C24.8269 37.6555 24.7536 38.7429 25.2579 39.6433C25.7682 39.8397 26.0269 39.5219 26.2857 39.2041C27.0597 38.5067 27.8342 37.7453 28.4174 36.9183C33.6606 30.0511 38.0762 22.6647 41.2173 14.6274C41.8721 12.905 42.3355 11.1169 42.9269 9.32992C43.0593 8.81903 43.2557 8.3087 43.4526 7.73437C43.5834 7.41548 43.9044 7.29024 44.2244 7.29299C45.6975 7.17763 46.5217 8.08075 46.1891 9.54994C45.3931 12.8072 44.4051 16.0629 43.0982 19.1877C40.2902 25.6919 36.7816 31.806 32.5723 37.53C31.6653 38.8023 30.6304 40.0734 29.4051 41.1509C28.5659 41.9758 27.5994 42.7355 26.3801 43.109C24.3262 43.7954 22.5414 42.948 21.8555 40.8301C21.5443 39.8034 21.3611 38.7778 21.3699 37.7538C21.3356 34.2974 21.4293 30.8421 21.779 27.3889C22.2644 23.0409 22.4624 22.3386 20.7141 24.6917L11.4586 36.7086C10.0347 38.5525 8.54732 40.3317 6.99599 42.1105C6.34996 42.809 5.57649 43.4423 4.80357 44.0117C3.90156 44.708 2.8136 44.6987 1.92368 43.987ZM52.794 39.6238C50.9392 39.4798 49.0893 38.7599 47.6951 37.1479C46.9983 36.3099 46.1172 34.5742 46.8426 32.0844C48.2256 27.5521 50.5001 23.5395 53.8566 20.2402C55.1481 18.9072 56.6928 17.8965 58.5537 17.3364C59.5164 17.0247 60.4113 17.1604 61.3034 17.6161C62.5784 18.203 63.0821 19.1674 63.0066 20.5108C62.8687 21.6617 62.3479 22.6812 61.8277 23.6368C59.9437 26.8847 57.4882 29.6157 54.5874 32.0229C53.3626 33.0364 52.011 33.9209 50.6599 34.7413C50.0812 35.0563 50.0757 35.6963 50.6483 36.0852C51.285 36.4747 51.9234 36.6722 52.693 36.4868C53.5266 36.302 54.4242 36.1177 55.2589 35.8048C60.0747 33.9901 66.7662 29.8874 70.6986 26.5931C71.343 26.0866 71.8605 25.451 72.4414 24.88C73.216 24.1186 73.9205 24.0607 74.8121 24.5804C75.2573 24.9042 75.5078 25.5464 75.2474 26.0562C75.1172 26.311 74.9225 26.6294 74.7283 26.8837C73.9532 27.7091 73.2415 28.599 72.4035 29.2958C68.5345 32.6547 61.971 36.7585 57.2187 38.6378C55.9338 39.2027 54.522 39.6386 52.794 39.6238ZM50.8242 30.5185C50.7591 30.646 50.822 30.7745 50.8849 30.9031C51.1403 30.9693 51.398 30.7795 51.6556 30.5897C54.4273 28.3094 56.8177 25.7058 58.6361 22.6493C59.0261 21.9487 59.7996 21.3153 59.3604 20.2875C58.5278 20.3443 57.8835 20.8508 57.2391 21.3573C54.2743 23.7639 52.2629 26.9468 50.8242 30.5185ZM67.3766 38.917C66.7405 38.4635 66.426 37.8208 66.6892 36.991C66.8227 36.3522 67.1487 35.6509 67.4102 35.0132L71.7088 26.3458C73.857 22.1401 75.9417 17.8698 77.7711 13.5334C78.7525 11.0457 79.6059 8.55695 80.1404 5.93744C80.2761 5.04257 80.4752 4.21225 79.7778 3.43824C79.651 3.30914 79.6537 2.98915 79.5914 2.79661C79.5345 1.96409 80.3091 1.20271 81.1394 1.40186C82.4166 1.73284 83.1134 2.57086 83.295 3.78846C83.476 5.07006 83.401 6.34946 83.134 7.62722C82.5978 10.4387 81.7417 13.2475 80.6312 15.862C79.5212 18.4126 78.3484 20.8346 77.239 23.3212C77.0431 23.7675 76.6558 24.1482 77.0349 24.7275C77.7433 24.2215 78.5156 23.7161 79.2234 23.2742C80.1889 22.6425 81.1533 22.1387 82.244 21.8281C85.387 21.0231 87.6082 23.2182 86.8139 26.2835C86.4829 27.5607 85.961 28.7083 85.1837 29.7896C84.082 31.3802 82.726 32.7766 81.0532 33.7863C78.0294 35.6164 74.8798 37.1894 71.2302 37.3501C70.8457 37.4108 70.4606 37.5355 70.2019 37.8532C70.0077 38.1076 69.8135 38.3619 69.5553 38.6157C68.8458 39.2497 68.1408 39.3716 67.3766 38.917ZM73.6984 33.1471C76.1364 32.464 78.9682 30.6323 80.7772 28.6637C81.8105 27.5846 82.7169 26.3763 83.1147 24.7797C80.0991 25.6498 75.0037 30.2142 73.6984 33.1471Z" fill="#3C204C"/>
</svg>
