<svg width="527" height="379" viewBox="0 0 527 379" fill="none" xmlns="http://www.w3.org/2000/svg">
<g filter="url(#filter0_d_1023_153)">
<mask id="mask0_1023_153" style="mask-type:alpha" maskUnits="userSpaceOnUse" x="5" y="6" width="509" height="360">
<ellipse cx="259.75" cy="186" rx="180" ry="254.25" transform="rotate(90 259.75 186)" fill="#0A4153"/>
</mask>
<g mask="url(#mask0_1023_153)">
<ellipse cx="259.75" cy="186" rx="180" ry="254.25" transform="rotate(90 259.75 186)" fill="#099067"/>
<path d="M496.94 186C496.94 230.335 470.853 270.805 427.999 300.322C385.158 329.831 325.805 348.18 260.099 348.18C194.392 348.18 135.039 329.831 92.1982 300.322C49.3439 270.805 23.2569 230.335 23.2568 186C23.2568 141.666 49.3439 101.195 92.1982 71.6779C135.04 42.1696 194.392 23.8195 260.099 23.8195C325.805 23.8195 385.158 42.1696 427.999 71.6779C470.853 101.195 496.94 141.666 496.94 186Z" stroke="#A8F6BE" stroke-width="6.12"/>
<path d="M180.084 72.1016L175.49 57.4762L183.904 54.8329L184.42 56.4758L177.789 58.5589L179.211 63.0868L185.141 61.2239L185.651 62.8467L179.721 64.7096L181.351 69.8986L187.982 67.8154L188.499 69.4583L180.084 72.1016ZM202.372 65.8724C201.389 66.094 200.505 66.1209 199.721 65.9532C198.951 65.7824 198.305 65.4328 197.784 64.9043C197.263 64.3759 196.9 63.6899 196.696 62.8462L198.54 62.4307C198.709 63.1819 199.096 63.719 199.699 64.0422C200.317 64.3623 201.083 64.4192 201.998 64.213C202.859 64.0191 203.48 63.6566 203.863 63.1255C204.259 62.5913 204.372 61.9486 204.203 61.1975C204.068 60.5965 203.785 60.1077 203.356 59.7308C202.94 59.3509 202.412 59.1399 201.771 59.0978L199.6 58.9198C198.505 58.8365 197.594 58.4892 196.868 57.8778C196.155 57.2635 195.687 56.4578 195.462 55.4608C195.281 54.655 195.301 53.9184 195.524 53.2511C195.757 52.5671 196.165 51.9873 196.746 51.5118C197.325 51.0226 198.058 50.678 198.946 50.478C200.257 50.1825 201.392 50.3143 202.35 50.8733C203.305 51.4186 203.927 52.2975 204.214 53.5099L202.371 53.9254C202.204 53.1879 201.85 52.6651 201.307 52.3569C200.774 52.032 200.105 51.9604 199.299 52.142C198.507 52.3205 197.929 52.6517 197.564 53.1357C197.214 53.6166 197.115 54.1985 197.269 54.8814C197.408 55.496 197.691 55.9917 198.121 56.3685C198.55 56.7453 199.094 56.9601 199.751 57.0128L201.948 57.2067C203.015 57.2961 203.907 57.6549 204.623 58.2829C205.338 58.911 205.81 59.7303 206.038 60.741C206.222 61.5604 206.193 62.3206 205.949 63.0213C205.705 63.7221 205.273 64.3217 204.654 64.8201C204.048 65.3154 203.287 65.6662 202.372 65.8724ZM219.823 62.1581L217.887 48.6674L213.729 49.2641L213.485 47.5596L223.67 46.0975L223.915 47.8021L219.758 48.3988L221.694 61.8895L219.823 62.1581ZM239.518 60.0234C238.987 60.059 238.55 59.9339 238.209 59.6481C237.881 59.3614 237.699 58.9597 237.665 58.4428C237.628 57.8981 237.753 57.4547 238.039 57.1128C238.338 56.77 238.754 56.5808 239.284 56.5452C239.815 56.5096 240.245 56.6421 240.574 56.9428C240.917 57.2425 241.106 57.6648 241.143 58.2096C241.178 58.7264 241.045 59.1492 240.744 59.4781C240.457 59.806 240.048 59.9878 239.518 60.0234ZM272.875 59.257L273.031 57.3313L278.1 52.7488C278.965 51.962 279.605 51.2554 280.021 50.629C280.438 49.9886 280.671 49.3614 280.721 48.7474C280.79 47.8962 280.607 47.2072 280.172 46.6803C279.751 46.1546 279.136 45.859 278.327 45.7934C277.434 45.721 276.709 45.9151 276.152 46.3756C275.609 46.8373 275.301 47.5076 275.23 48.3868L273.346 48.2341C273.449 47.3154 273.723 46.537 274.168 45.8988C274.628 45.2478 275.221 44.7692 275.949 44.4629C276.69 44.1578 277.528 44.0431 278.463 44.1189C279.383 44.1935 280.164 44.4393 280.805 44.8564C281.46 45.2607 281.943 45.8054 282.252 46.4907C282.562 47.1759 282.68 47.9721 282.607 48.8791C282.536 49.7443 282.237 50.5838 281.707 51.3977C281.178 52.2116 280.346 53.1204 279.211 54.124L275.128 57.7119L282.098 58.2767L281.959 59.9931L272.875 59.257ZM295.964 61.8183C295.037 61.6717 294.257 61.3639 293.622 60.895C293.004 60.4145 292.561 59.8128 292.292 59.09C292.026 58.3533 291.964 57.5356 292.106 56.6368L293.156 49.9993C293.301 49.0867 293.612 48.328 294.091 47.7233C294.569 47.1187 295.175 46.6902 295.91 46.4378C296.66 46.1739 297.499 46.1152 298.425 46.2617C299.365 46.4105 300.145 46.7252 300.763 47.2057C301.384 47.6724 301.829 48.2672 302.097 48.99C302.365 49.7128 302.427 50.5306 302.283 51.4432L301.233 58.0807C301.091 58.9795 300.779 59.7382 300.299 60.3567C299.82 60.9613 299.206 61.3957 298.455 61.6596C297.721 61.912 296.89 61.9648 295.964 61.8183ZM296.217 60.2211C297.046 60.3524 297.752 60.1947 298.333 59.748C298.93 59.2896 299.295 58.6387 299.428 57.7952L300.478 51.1577C300.612 50.3142 300.464 49.5893 300.036 48.9828C299.623 48.3648 299.002 47.9901 298.172 47.8589C297.343 47.7276 296.629 47.8912 296.033 48.3495C295.452 48.7962 295.094 49.4413 294.961 50.2848L293.911 56.9223C293.777 57.7658 293.917 58.4966 294.329 59.1146C294.758 59.721 295.387 60.0899 296.217 60.2211ZM297.001 55.2638C296.628 55.2047 296.342 55.039 296.144 54.7668C295.96 54.4967 295.899 54.1681 295.96 53.7809C296.019 53.4075 296.177 53.1277 296.433 52.9415C296.705 52.7436 297.028 52.6742 297.401 52.7333C297.775 52.7923 298.053 52.9569 298.237 53.227C298.437 53.4854 298.508 53.8013 298.449 54.1747C298.388 54.5619 298.221 54.8544 297.949 55.0523C297.69 55.2523 297.374 55.3228 297.001 55.2638ZM310.266 64.0212L310.67 62.3473L314.712 63.323L317.536 51.626L312.765 53.6715L313.257 51.6302L317.232 49.9324L319.743 50.5385L316.549 63.7665L319.856 64.5649L319.452 66.2388L310.266 64.0212ZM332.692 70.0945C331.504 69.7193 330.626 69.1044 330.059 68.25C329.492 67.3956 329.307 66.4266 329.502 65.3432L331.304 65.9123C331.19 66.5075 331.295 67.0327 331.621 67.488C331.952 67.93 332.484 68.2669 333.218 68.4988C334.059 68.7644 334.758 68.7356 335.315 68.4124C335.886 68.0935 336.302 67.5201 336.563 66.6924L337.012 65.2706C337.274 64.4429 337.263 63.7347 336.979 63.1458C336.708 62.5612 336.159 62.1382 335.331 61.8768C334.811 61.7124 334.313 61.7092 333.837 61.8673C333.365 62.012 332.971 62.284 332.654 62.683L330.852 62.1139L333.507 54.0554L341.197 56.4839L340.678 58.1259L334.731 56.2476L333.134 61.0947L333.695 61.2718L332.97 61.6154C333.168 60.9879 333.571 60.572 334.178 60.3675C334.8 60.1673 335.531 60.2 336.372 60.4656C337.564 60.8275 338.369 61.4855 338.787 62.4397C339.223 63.3848 339.232 64.5181 338.815 65.8398L338.366 67.2616C337.957 68.5565 337.252 69.4643 336.25 69.985C335.253 70.4922 334.067 70.5288 332.692 70.0945Z" fill="#A8F6BE"/>
<path d="M214.445 159.732H221.179V156.365H224.547C225.501 156.365 226.301 156.042 226.946 155.396C227.591 154.751 227.914 153.951 227.914 152.997V142.895C227.914 141.941 227.591 141.141 226.946 140.496C226.301 139.85 225.501 139.528 224.547 139.528H214.445V136.16H227.914V129.426H221.179V126.058H214.445V129.426H211.077C210.123 129.426 209.324 129.748 208.678 130.394C208.033 131.039 207.71 131.839 207.71 132.793V142.895C207.71 143.849 208.033 144.649 208.678 145.294C209.324 145.94 210.123 146.262 211.077 146.262H221.179V149.63H207.71V156.365H214.445V159.732ZM190.873 169.834C189.021 169.834 187.436 169.174 186.117 167.856C184.798 166.537 184.139 164.951 184.139 163.099V122.691C184.139 120.839 184.798 119.254 186.117 117.935C187.436 116.616 189.021 115.956 190.873 115.956H244.751C246.603 115.956 248.188 116.616 249.507 117.935C250.826 119.254 251.486 120.839 251.486 122.691V163.099C251.486 164.951 250.826 166.537 249.507 167.856C248.188 169.174 246.603 169.834 244.751 169.834H190.873Z" fill="#19D74F"/>
<path d="M148.322 207.793C150.526 203.875 156.179 192.895 158.73 187.895L165.465 199.222L174.648 172.589L186.281 194.324L201.281 157.895L214.75 176.875L226.077 157.895L234.036 165.548L258.526 113.507L268.322 149.324L273.22 140.752L283.322 172.589L287.608 157.895L298.934 187.895L308.424 157.895L312.71 168.609L327.71 124.834L339.954 146.262L365.669 87.793" stroke="#99EAAF" stroke-width="6.12245"/>
<path d="M350.67 94.5278L365.67 88.4054L371.18 103.099" stroke="#99EAAF" stroke-width="6.12245"/>
<path d="M162.586 261.793V231.133H171.616C174.528 231.133 176.81 231.833 178.462 233.233C180.114 234.633 180.94 236.565 180.94 239.029C180.94 240.429 180.632 241.647 180.016 242.683C179.428 243.691 178.602 244.475 177.538 245.035C176.474 245.595 175.228 245.875 173.8 245.875V245.455C175.34 245.427 176.698 245.721 177.874 246.337C179.05 246.925 179.974 247.807 180.646 248.983C181.318 250.159 181.654 251.559 181.654 253.183C181.654 254.919 181.262 256.445 180.478 257.761C179.722 259.049 178.63 260.043 177.202 260.743C175.802 261.443 174.136 261.793 172.204 261.793H162.586ZM166.996 257.887H171.826C173.45 257.887 174.738 257.453 175.69 256.585C176.642 255.717 177.118 254.513 177.118 252.973C177.118 251.405 176.642 250.145 175.69 249.193C174.738 248.241 173.45 247.765 171.826 247.765H166.996V257.887ZM166.996 243.985H171.574C173.086 243.985 174.276 243.579 175.144 242.767C176.012 241.955 176.446 240.863 176.446 239.491C176.446 238.119 176.012 237.041 175.144 236.257C174.276 235.445 173.1 235.039 171.616 235.039H166.996V243.985ZM196.799 262.213C193.859 262.213 191.591 261.415 189.995 259.819C188.399 258.195 187.601 255.997 187.601 253.225V231.133H192.137V253.225C192.137 254.765 192.515 255.983 193.271 256.879C194.055 257.775 195.231 258.223 196.799 258.223C198.339 258.223 199.501 257.775 200.285 256.879C201.069 255.983 201.461 254.765 201.461 253.225V231.133H205.997V253.225C205.997 255.997 205.199 258.195 203.603 259.819C202.007 261.415 199.739 262.213 196.799 262.213ZM222.109 262.213C220.037 262.213 218.259 261.877 216.775 261.205C215.291 260.505 214.143 259.525 213.331 258.265C212.519 256.977 212.113 255.451 212.113 253.687H216.607C216.607 255.087 217.097 256.193 218.077 257.005C219.057 257.789 220.415 258.181 222.151 258.181C223.775 258.181 225.049 257.789 225.973 257.005C226.897 256.221 227.359 255.143 227.359 253.771C227.359 252.623 227.037 251.629 226.393 250.789C225.777 249.949 224.881 249.375 223.705 249.067L219.841 247.933C217.601 247.289 215.865 246.197 214.633 244.657C213.429 243.089 212.827 241.227 212.827 239.071C212.827 237.391 213.205 235.921 213.961 234.661C214.717 233.401 215.795 232.421 217.195 231.721C218.595 231.021 220.247 230.671 222.151 230.671C224.951 230.671 227.191 231.427 228.871 232.939C230.579 234.451 231.447 236.481 231.475 239.029H226.939C226.939 237.685 226.505 236.635 225.637 235.879C224.797 235.095 223.607 234.703 222.067 234.703C220.583 234.703 219.421 235.067 218.581 235.795C217.741 236.495 217.321 237.489 217.321 238.777C217.321 239.925 217.629 240.919 218.245 241.759C218.889 242.599 219.799 243.187 220.975 243.523L224.881 244.699C227.121 245.315 228.843 246.407 230.047 247.975C231.251 249.543 231.853 251.419 231.853 253.603C231.853 255.311 231.447 256.823 230.635 258.139C229.823 259.427 228.689 260.435 227.233 261.163C225.777 261.863 224.069 262.213 222.109 262.213ZM238.682 261.793V257.761H244.856V235.165H238.682V231.133H255.65V235.165H249.476V257.761H255.65V261.793H238.682ZM263.152 261.793V231.133H268.864L277.81 256.627C277.754 255.815 277.684 254.849 277.6 253.729C277.516 252.609 277.446 251.447 277.39 250.243C277.362 249.039 277.348 247.947 277.348 246.967V231.133H281.548V261.793H275.836L266.932 236.299C266.988 237.027 267.044 237.937 267.1 239.029C267.184 240.121 267.24 241.255 267.268 242.431C267.324 243.607 267.352 244.699 267.352 245.707V261.793H263.152ZM288.882 261.793V231.133H306.9V235.165H293.334V243.859H305.43V247.849H293.334V257.761H306.9V261.793H288.882ZM322.843 262.213C320.771 262.213 318.993 261.877 317.509 261.205C316.025 260.505 314.877 259.525 314.065 258.265C313.253 256.977 312.847 255.451 312.847 253.687H317.341C317.341 255.087 317.831 256.193 318.811 257.005C319.791 257.789 321.149 258.181 322.885 258.181C324.509 258.181 325.783 257.789 326.707 257.005C327.631 256.221 328.093 255.143 328.093 253.771C328.093 252.623 327.771 251.629 327.127 250.789C326.511 249.949 325.615 249.375 324.439 249.067L320.575 247.933C318.335 247.289 316.599 246.197 315.367 244.657C314.163 243.089 313.561 241.227 313.561 239.071C313.561 237.391 313.939 235.921 314.695 234.661C315.451 233.401 316.529 232.421 317.929 231.721C319.329 231.021 320.981 230.671 322.885 230.671C325.685 230.671 327.925 231.427 329.605 232.939C331.313 234.451 332.181 236.481 332.209 239.029H327.673C327.673 237.685 327.239 236.635 326.371 235.879C325.531 235.095 324.341 234.703 322.801 234.703C321.317 234.703 320.155 235.067 319.315 235.795C318.475 236.495 318.055 237.489 318.055 238.777C318.055 239.925 318.363 240.919 318.979 241.759C319.623 242.599 320.533 243.187 321.709 243.523L325.615 244.699C327.855 245.315 329.577 246.407 330.781 247.975C331.985 249.543 332.587 251.419 332.587 253.603C332.587 255.311 332.181 256.823 331.369 258.139C330.557 259.427 329.423 260.435 327.967 261.163C326.511 261.863 324.803 262.213 322.843 262.213ZM348.027 262.213C345.955 262.213 344.177 261.877 342.693 261.205C341.209 260.505 340.061 259.525 339.249 258.265C338.437 256.977 338.031 255.451 338.031 253.687H342.525C342.525 255.087 343.015 256.193 343.995 257.005C344.975 257.789 346.333 258.181 348.069 258.181C349.693 258.181 350.967 257.789 351.891 257.005C352.815 256.221 353.277 255.143 353.277 253.771C353.277 252.623 352.955 251.629 352.311 250.789C351.695 249.949 350.799 249.375 349.623 249.067L345.759 247.933C343.519 247.289 341.783 246.197 340.551 244.657C339.347 243.089 338.745 241.227 338.745 239.071C338.745 237.391 339.123 235.921 339.879 234.661C340.635 233.401 341.713 232.421 343.113 231.721C344.513 231.021 346.165 230.671 348.069 230.671C350.869 230.671 353.109 231.427 354.789 232.939C356.497 234.451 357.365 236.481 357.393 239.029H352.857C352.857 237.685 352.423 236.635 351.555 235.879C350.715 235.095 349.525 234.703 347.985 234.703C346.501 234.703 345.339 235.067 344.499 235.795C343.659 236.495 343.239 237.489 343.239 238.777C343.239 239.925 343.547 240.919 344.163 241.759C344.807 242.599 345.717 243.187 346.893 243.523L350.799 244.699C353.039 245.315 354.761 246.407 355.965 247.975C357.169 249.543 357.771 251.419 357.771 253.603C357.771 255.311 357.365 256.823 356.553 258.139C355.741 259.427 354.607 260.435 353.151 261.163C351.695 261.863 349.987 262.213 348.027 262.213ZM186.005 303.793L193.817 273.133H199.781L207.593 303.793H203.015L201.167 296.023H192.473L190.625 303.793H186.005ZM193.313 292.285H200.285L198.185 283.423C197.821 281.855 197.513 280.497 197.261 279.349C197.037 278.173 196.883 277.375 196.799 276.955C196.715 277.375 196.561 278.173 196.337 279.349C196.113 280.497 195.805 281.841 195.413 283.381L193.313 292.285ZM212.869 303.793V273.133H221.437C223.453 273.133 225.203 273.525 226.687 274.309C228.171 275.065 229.319 276.143 230.131 277.543C230.971 278.943 231.391 280.595 231.391 282.499V294.385C231.391 296.261 230.971 297.913 230.131 299.341C229.319 300.769 228.171 301.875 226.687 302.659C225.203 303.415 223.453 303.793 221.437 303.793H212.869ZM217.405 299.677H221.437C223.117 299.677 224.433 299.215 225.385 298.291C226.365 297.339 226.855 296.037 226.855 294.385V282.499C226.855 280.875 226.365 279.601 225.385 278.677C224.433 277.725 223.117 277.249 221.437 277.249H217.405V299.677ZM237.338 303.793V273.133H242.924L245.99 282.961C246.298 283.885 246.564 284.781 246.788 285.649C247.012 286.489 247.166 287.119 247.25 287.539C247.362 287.119 247.516 286.489 247.712 285.649C247.936 284.781 248.188 283.885 248.468 282.961L251.408 273.133H256.994V303.793H252.71V293.461C252.71 292.145 252.738 290.689 252.794 289.093C252.878 287.469 252.99 285.845 253.13 284.221C253.27 282.569 253.41 281.001 253.55 279.517C253.69 278.005 253.816 276.689 253.928 275.569L249.392 290.479H245.024L240.404 275.569C240.544 276.661 240.684 277.935 240.824 279.391C240.964 280.819 241.09 282.345 241.202 283.969C241.314 285.593 241.412 287.231 241.496 288.883C241.58 290.507 241.622 292.033 241.622 293.461V303.793H237.338ZM263.866 303.793V299.761H270.04V277.165H263.866V273.133H280.834V277.165H274.66V299.761H280.834V303.793H263.866ZM288.336 303.793V273.133H294.048L302.994 298.627C302.938 297.815 302.868 296.849 302.784 295.729C302.7 294.609 302.63 293.447 302.574 292.243C302.546 291.039 302.532 289.947 302.532 288.967V273.133H306.732V303.793H301.02L292.116 278.299C292.172 279.027 292.228 279.937 292.284 281.029C292.368 282.121 292.424 283.255 292.452 284.431C292.508 285.607 292.536 286.699 292.536 287.707V303.793H288.336ZM322.717 304.213C321.597 304.213 320.701 303.891 320.029 303.247C319.357 302.575 319.021 301.679 319.021 300.559C319.021 299.411 319.357 298.501 320.029 297.829C320.701 297.129 321.597 296.779 322.717 296.779C323.865 296.779 324.761 297.129 325.405 297.829C326.077 298.501 326.413 299.411 326.413 300.559C326.413 301.679 326.077 302.575 325.405 303.247C324.761 303.891 323.865 304.213 322.717 304.213Z" fill="white"/>
<g opacity="0.5">
<g opacity="0.7" filter="url(#filter1_f_1023_153)">
<rect x="196" y="366.123" width="413.079" height="40.8916" transform="rotate(-45.9959 196 366.123)" fill="url(#paint0_linear_1023_153)" fill-opacity="0.2"/>
</g>
<g filter="url(#filter2_f_1023_153)">
<rect x="225.413" y="394.531" width="413.079" height="61.3123" transform="rotate(-45.9959 225.413 394.531)" fill="url(#paint1_linear_1023_153)" fill-opacity="0.4"/>
</g>
</g>
<g opacity="0.5">
<g opacity="0.7" filter="url(#filter3_f_1023_153)">
<rect x="-27.5" y="246.123" width="413.079" height="61.3123" transform="rotate(-45.9959 -27.5 246.123)" fill="url(#paint2_linear_1023_153)" fill-opacity="0.2"/>
</g>
<g opacity="0.5" filter="url(#filter4_f_1023_153)">
<rect x="16.6011" y="288.718" width="413.079" height="61.3123" transform="rotate(-45.9959 16.6011 288.718)" fill="url(#paint3_linear_1023_153)" fill-opacity="0.4"/>
</g>
</g>
</g>
</g>
<defs>
<filter id="filter0_d_1023_153" x="0.0999999" y="0.6" width="526.5" height="378" filterUnits="userSpaceOnUse" color-interpolation-filters="sRGB">
<feFlood flood-opacity="0" result="BackgroundImageFix"/>
<feColorMatrix in="SourceAlpha" type="matrix" values="0 0 0 0 0 0 0 0 0 0 0 0 0 0 0 0 0 0 127 0" result="hardAlpha"/>
<feOffset dx="3.6" dy="3.6"/>
<feGaussianBlur stdDeviation="4.5"/>
<feComposite in2="hardAlpha" operator="out"/>
<feColorMatrix type="matrix" values="0 0 0 0 0 0 0 0 0 0 0 0 0 0 0 0 0 0 0.1 0"/>
<feBlend mode="normal" in2="BackgroundImageFix" result="effect1_dropShadow_1023_153"/>
<feBlend mode="normal" in="SourceGraphic" in2="effect1_dropShadow_1023_153" result="shape"/>
</filter>
<filter id="filter1_f_1023_153" x="181" y="54.0001" width="346.383" height="355.531" filterUnits="userSpaceOnUse" color-interpolation-filters="sRGB">
<feFlood flood-opacity="0" result="BackgroundImageFix"/>
<feBlend mode="normal" in="SourceGraphic" in2="BackgroundImageFix" result="shape"/>
<feGaussianBlur stdDeviation="7.5" result="effect1_foregroundBlur_1023_153"/>
</filter>
<filter id="filter2_f_1023_153" x="210.413" y="82.4078" width="361.071" height="369.718" filterUnits="userSpaceOnUse" color-interpolation-filters="sRGB">
<feFlood flood-opacity="0" result="BackgroundImageFix"/>
<feBlend mode="normal" in="SourceGraphic" in2="BackgroundImageFix" result="shape"/>
<feGaussianBlur stdDeviation="7.5" result="effect1_foregroundBlur_1023_153"/>
</filter>
<filter id="filter3_f_1023_153" x="-42.5" y="-65.9999" width="361.071" height="369.718" filterUnits="userSpaceOnUse" color-interpolation-filters="sRGB">
<feFlood flood-opacity="0" result="BackgroundImageFix"/>
<feBlend mode="normal" in="SourceGraphic" in2="BackgroundImageFix" result="shape"/>
<feGaussianBlur stdDeviation="7.5" result="effect1_foregroundBlur_1023_153"/>
</filter>
<filter id="filter4_f_1023_153" x="1.60107" y="-23.4057" width="361.072" height="369.718" filterUnits="userSpaceOnUse" color-interpolation-filters="sRGB">
<feFlood flood-opacity="0" result="BackgroundImageFix"/>
<feBlend mode="normal" in="SourceGraphic" in2="BackgroundImageFix" result="shape"/>
<feGaussianBlur stdDeviation="7.5" result="effect1_foregroundBlur_1023_153"/>
</filter>
<linearGradient id="paint0_linear_1023_153" x1="402.539" y1="366.123" x2="402.539" y2="407.015" gradientUnits="userSpaceOnUse">
<stop stop-color="white" stop-opacity="0"/>
<stop offset="1" stop-color="white"/>
</linearGradient>
<linearGradient id="paint1_linear_1023_153" x1="431.952" y1="394.531" x2="431.952" y2="455.843" gradientUnits="userSpaceOnUse">
<stop/>
<stop offset="1" stop-opacity="0"/>
</linearGradient>
<linearGradient id="paint2_linear_1023_153" x1="179.039" y1="246.123" x2="179.039" y2="307.436" gradientUnits="userSpaceOnUse">
<stop stop-color="white" stop-opacity="0"/>
<stop offset="1" stop-color="white"/>
</linearGradient>
<linearGradient id="paint3_linear_1023_153" x1="223.14" y1="288.718" x2="223.14" y2="350.03" gradientUnits="userSpaceOnUse">
<stop/>
<stop offset="1" stop-opacity="0"/>
</linearGradient>
</defs>
</svg>
