<svg width="527" height="379" viewBox="0 0 527 379" fill="none" xmlns="http://www.w3.org/2000/svg">
<g filter="url(#filter0_d_1023_103)">
<mask id="mask0_1023_103" style="mask-type:alpha" maskUnits="userSpaceOnUse" x="5" y="6" width="509" height="360">
<ellipse cx="259.75" cy="186" rx="180" ry="254.25" transform="rotate(90 259.75 186)" fill="#0A4153"/>
</mask>
<g mask="url(#mask0_1023_103)">
<ellipse cx="259.75" cy="186" rx="180" ry="254.25" transform="rotate(90 259.75 186)" fill="#730030"/>
<path d="M496.94 186C496.94 230.335 470.853 270.805 427.999 300.322C385.158 329.831 325.805 348.18 260.099 348.18C194.392 348.18 135.039 329.831 92.1982 300.322C49.3439 270.805 23.2569 230.335 23.2568 186C23.2568 141.666 49.3439 101.195 92.1982 71.6779C135.04 42.1696 194.392 23.8195 260.099 23.8195C325.805 23.8195 385.158 42.1696 427.999 71.6779C470.853 101.195 496.94 141.666 496.94 186Z" stroke="#FF9E9E" stroke-width="6.12"/>
<path d="M180.084 72.1016L175.49 57.4762L183.904 54.8329L184.42 56.4758L177.789 58.5589L179.211 63.0868L185.141 61.2239L185.651 62.8467L179.721 64.7096L181.351 69.8986L187.982 67.8154L188.499 69.4583L180.084 72.1016ZM202.372 65.8724C201.389 66.094 200.505 66.1209 199.721 65.9532C198.951 65.7824 198.305 65.4328 197.784 64.9043C197.263 64.3759 196.9 63.6899 196.696 62.8462L198.54 62.4307C198.709 63.1819 199.096 63.719 199.699 64.0422C200.317 64.3623 201.083 64.4192 201.998 64.213C202.859 64.0191 203.48 63.6566 203.863 63.1255C204.259 62.5913 204.372 61.9486 204.203 61.1975C204.068 60.5965 203.785 60.1077 203.356 59.7308C202.94 59.3509 202.412 59.1399 201.771 59.0978L199.6 58.9198C198.505 58.8365 197.594 58.4892 196.868 57.8778C196.155 57.2635 195.687 56.4578 195.462 55.4608C195.281 54.655 195.301 53.9184 195.524 53.2511C195.757 52.5671 196.165 51.9873 196.746 51.5118C197.325 51.0226 198.058 50.678 198.946 50.478C200.257 50.1825 201.392 50.3143 202.35 50.8733C203.305 51.4186 203.927 52.2975 204.214 53.5099L202.371 53.9254C202.204 53.1879 201.85 52.6651 201.307 52.3569C200.774 52.032 200.105 51.9604 199.299 52.142C198.507 52.3205 197.929 52.6517 197.564 53.1357C197.214 53.6166 197.115 54.1985 197.269 54.8814C197.408 55.496 197.691 55.9917 198.121 56.3685C198.55 56.7453 199.094 56.9601 199.751 57.0128L201.948 57.2067C203.015 57.2961 203.907 57.6549 204.623 58.2829C205.338 58.911 205.81 59.7303 206.038 60.741C206.222 61.5604 206.193 62.3206 205.949 63.0213C205.705 63.7221 205.273 64.3217 204.654 64.8201C204.048 65.3154 203.287 65.6662 202.372 65.8724ZM219.823 62.1581L217.887 48.6674L213.729 49.2641L213.485 47.5596L223.67 46.0975L223.915 47.8021L219.758 48.3988L221.694 61.8895L219.823 62.1581ZM239.518 60.0234C238.987 60.059 238.55 59.9339 238.209 59.6481C237.881 59.3614 237.699 58.9597 237.665 58.4428C237.628 57.8981 237.753 57.4547 238.039 57.1128C238.338 56.77 238.754 56.5808 239.284 56.5452C239.815 56.5096 240.245 56.6421 240.574 56.9428C240.917 57.2425 241.106 57.6648 241.143 58.2096C241.178 58.7264 241.045 59.1492 240.744 59.4781C240.457 59.806 240.048 59.9878 239.518 60.0234ZM272.875 59.257L273.031 57.3313L278.1 52.7488C278.965 51.962 279.605 51.2554 280.021 50.629C280.438 49.9886 280.671 49.3614 280.721 48.7474C280.79 47.8962 280.607 47.2072 280.172 46.6803C279.751 46.1546 279.136 45.859 278.327 45.7934C277.434 45.721 276.709 45.9151 276.152 46.3756C275.609 46.8373 275.301 47.5076 275.23 48.3868L273.346 48.2341C273.449 47.3154 273.723 46.537 274.168 45.8988C274.628 45.2478 275.221 44.7692 275.949 44.4629C276.69 44.1578 277.528 44.0431 278.463 44.1189C279.383 44.1935 280.164 44.4393 280.805 44.8564C281.46 45.2607 281.943 45.8054 282.252 46.4907C282.562 47.1759 282.68 47.9721 282.607 48.8791C282.536 49.7443 282.237 50.5838 281.707 51.3977C281.178 52.2116 280.346 53.1204 279.211 54.124L275.128 57.7119L282.098 58.2767L281.959 59.9931L272.875 59.257ZM295.964 61.8183C295.037 61.6717 294.257 61.3639 293.622 60.895C293.004 60.4145 292.561 59.8128 292.292 59.09C292.026 58.3533 291.964 57.5356 292.106 56.6368L293.156 49.9993C293.301 49.0867 293.612 48.328 294.091 47.7233C294.569 47.1187 295.175 46.6902 295.91 46.4378C296.66 46.1739 297.499 46.1152 298.425 46.2617C299.365 46.4105 300.145 46.7252 300.763 47.2057C301.384 47.6724 301.829 48.2672 302.097 48.99C302.365 49.7128 302.427 50.5306 302.283 51.4432L301.233 58.0807C301.091 58.9795 300.779 59.7382 300.299 60.3567C299.82 60.9613 299.206 61.3957 298.455 61.6596C297.721 61.912 296.89 61.9648 295.964 61.8183ZM296.217 60.2211C297.046 60.3524 297.752 60.1947 298.333 59.748C298.93 59.2896 299.295 58.6387 299.428 57.7952L300.478 51.1577C300.612 50.3142 300.464 49.5893 300.036 48.9828C299.623 48.3648 299.002 47.9901 298.172 47.8589C297.343 47.7276 296.629 47.8912 296.033 48.3495C295.452 48.7962 295.094 49.4413 294.961 50.2848L293.911 56.9223C293.777 57.7658 293.917 58.4966 294.329 59.1146C294.758 59.721 295.387 60.0899 296.217 60.2211ZM297.001 55.2638C296.628 55.2047 296.342 55.039 296.144 54.7668C295.96 54.4967 295.899 54.1681 295.96 53.7809C296.019 53.4075 296.177 53.1277 296.433 52.9415C296.705 52.7436 297.028 52.6742 297.401 52.7333C297.775 52.7923 298.053 52.9569 298.237 53.227C298.437 53.4854 298.508 53.8013 298.449 54.1747C298.388 54.5619 298.221 54.8544 297.949 55.0523C297.69 55.2523 297.374 55.3228 297.001 55.2638ZM310.266 64.0212L310.67 62.3473L314.712 63.323L317.536 51.626L312.765 53.6715L313.257 51.6302L317.232 49.9324L319.743 50.5385L316.549 63.7665L319.856 64.5649L319.452 66.2388L310.266 64.0212ZM332.692 70.0945C331.504 69.7193 330.626 69.1044 330.059 68.25C329.492 67.3956 329.307 66.4266 329.502 65.3432L331.304 65.9123C331.19 66.5075 331.295 67.0327 331.621 67.488C331.952 67.93 332.484 68.2669 333.218 68.4988C334.059 68.7644 334.758 68.7356 335.315 68.4124C335.886 68.0935 336.302 67.5201 336.563 66.6924L337.012 65.2706C337.274 64.4429 337.263 63.7347 336.979 63.1458C336.708 62.5612 336.159 62.1382 335.331 61.8768C334.811 61.7124 334.313 61.7092 333.837 61.8673C333.365 62.012 332.971 62.284 332.654 62.683L330.852 62.1139L333.507 54.0554L341.197 56.4839L340.678 58.1259L334.731 56.2476L333.134 61.0947L333.695 61.2718L332.97 61.6154C333.168 60.9879 333.571 60.572 334.178 60.3675C334.8 60.1673 335.531 60.2 336.372 60.4656C337.564 60.8275 338.369 61.4855 338.787 62.4397C339.223 63.3848 339.232 64.5181 338.815 65.8398L338.366 67.2616C337.957 68.5565 337.252 69.4643 336.25 69.985C335.253 70.4922 334.067 70.5288 332.692 70.0945Z" fill="#FF9E9E"/>
<path d="M220.255 197.636C217.575 196.974 215.808 194.42 216.132 191.679L216.962 184.649C217.194 182.689 216.275 180.809 214.882 179.409C214.86 179.386 214.837 179.364 214.815 179.341C213.47 177.982 211.585 177.248 209.696 177.543L202.518 178.662C199.799 179.086 197.188 177.426 196.418 174.785L191.919 159.344C191.145 156.687 192.475 153.87 195.019 152.78L203.041 149.343C203.941 148.958 204.531 148.105 204.766 147.154L205.525 144.083C205.76 143.132 205.635 142.103 205.018 141.342L199.52 134.564C197.777 132.415 197.912 129.303 199.834 127.312L211.008 115.744C212.92 113.765 216.003 113.512 218.211 115.154L224.042 119.488C225.577 120.629 227.586 120.853 229.418 120.308C229.465 120.294 229.511 120.28 229.558 120.267C231.428 119.719 233.063 118.454 233.762 116.635L236.321 109.977C237.311 107.4 240.065 105.964 242.744 106.626L258.449 110.507C261.129 111.169 262.896 113.722 262.572 116.463L261.742 123.493C261.51 125.454 262.429 127.334 263.821 128.734C263.844 128.756 263.867 128.779 263.889 128.802C265.234 130.16 267.118 130.894 269.007 130.599L276.186 129.48C278.905 129.056 281.516 130.716 282.285 133.358L286.785 148.799C287.559 151.456 286.229 154.272 283.685 155.362L275.663 158.799C274.763 159.185 274.173 160.037 273.938 160.988L273.179 164.06C272.947 164.999 272.973 166.035 273.582 166.785L279.069 173.55C280.813 175.699 280.678 178.811 278.755 180.802L267.592 192.36C265.676 194.343 262.584 194.592 260.375 192.94L254.665 188.668C253.129 187.52 251.113 187.291 249.275 187.838C249.232 187.851 249.189 187.863 249.146 187.876C247.276 188.424 245.641 189.688 244.941 191.507L242.383 198.166C241.393 200.742 238.639 202.179 235.959 201.517L220.255 197.636ZM226.353 184.72C226.034 187.363 227.736 189.828 230.32 190.466C232.886 191.1 235.524 189.736 236.489 187.275L238.03 183.348C238.845 181.27 240.851 179.951 243.06 179.629C244.264 179.453 245.442 179.196 246.596 178.856C247.739 178.52 248.854 178.114 249.942 177.636C251.966 176.747 254.34 176.81 256.121 178.119L259.624 180.695C261.736 182.249 264.673 181.995 266.486 180.101C268.308 178.2 268.429 175.24 266.768 173.197L263.941 169.719C262.606 168.075 262.556 165.771 263.323 163.797C263.766 162.659 264.137 161.483 264.437 160.27C264.737 159.057 264.956 157.843 265.094 156.63C265.335 154.526 266.452 152.51 268.399 151.678L272.539 149.909C274.95 148.879 276.216 146.215 275.493 143.695C274.768 141.169 272.273 139.582 269.678 139.996L265.48 140.665C263.237 141.023 261.05 139.921 259.653 138.129C258.928 137.2 258.146 136.328 257.307 135.513C256.453 134.684 255.539 133.914 254.567 133.204C252.749 131.877 251.588 129.75 251.858 127.515L252.351 123.422C252.669 120.78 250.967 118.315 248.384 117.676C245.818 117.042 243.18 118.407 242.214 120.867L240.674 124.794C239.858 126.872 237.853 128.192 235.644 128.514C234.44 128.689 233.261 128.947 232.108 129.286C230.965 129.622 229.85 130.029 228.761 130.507C226.738 131.395 224.364 131.333 222.583 130.023L219.066 127.437C216.962 125.889 214.036 126.143 212.229 128.029C210.405 129.933 210.295 132.902 211.973 134.937L214.735 138.284C216.108 139.947 216.185 142.281 215.395 144.288C214.961 145.388 214.586 146.583 214.267 147.872C213.967 149.086 213.753 150.28 213.624 151.455C213.388 153.603 212.24 155.638 210.253 156.486L206.164 158.234C203.754 159.264 202.488 161.928 203.211 164.447C203.935 166.973 206.431 168.561 209.026 168.147L213.224 167.477C215.467 167.119 217.654 168.222 219.051 170.013C219.775 170.943 220.558 171.815 221.397 172.629C222.251 173.458 223.164 174.228 224.137 174.938C225.955 176.265 227.116 178.393 226.846 180.627L226.353 184.72ZM235.644 170.054C240.053 171.144 244.2 170.519 248.085 168.179C251.97 165.84 254.456 162.471 255.543 158.072C256.63 153.673 256 149.534 253.651 145.655C251.303 141.775 247.925 139.29 243.516 138.201C239.031 137.093 234.865 137.713 231.018 140.062C227.171 142.41 224.704 145.784 223.617 150.183C222.53 154.582 223.141 158.716 225.452 162.587C227.762 166.457 231.159 168.946 235.644 170.054Z" fill="#FF9E9E"/>
<path d="M216.343 192.029L262.059 175.234C264.143 174.469 265.525 172.523 265.864 170.329C266.007 169.407 266.186 168.497 266.403 167.599C266.9 165.536 267.635 163.442 268.607 161.318C272.835 152.081 279.661 145.709 289.086 142.202C298.512 138.696 307.843 139.056 317.08 143.284C320.405 144.806 323.358 146.715 325.937 149.013C326.774 149.759 327.577 150.536 328.344 151.344C330.798 153.928 329.486 157.982 326.147 159.224L308.377 165.835C305.515 166.9 304.058 170.084 305.123 172.946L306.677 177.123C307.742 179.985 310.925 181.442 313.788 180.377L331.558 173.766C334.897 172.524 338.539 174.734 338.37 178.293C338.318 179.407 338.219 180.519 338.072 181.631C337.623 185.056 336.636 188.431 335.114 191.756C330.887 200.994 324.06 207.365 314.635 210.872C305.21 214.379 295.878 214.018 286.641 209.791C284.517 208.818 282.592 207.714 280.868 206.478C280.117 205.94 279.386 205.368 278.676 204.764C276.985 203.325 274.667 202.756 272.59 203.538L227.013 220.709C225.398 221.31 223.805 221.251 222.234 220.532C220.664 219.814 219.578 218.647 218.977 217.031L212.665 200.065C212.064 198.449 212.123 196.856 212.841 195.286C213.56 193.716 214.727 192.63 216.343 192.029Z" fill="#F87272"/>
<path d="M138.644 273.033V245.439H154.861V249.068H142.651V256.892H153.538V260.483H142.651V269.404H154.861V273.033H138.644ZM160.818 273.033V245.439H165.959L174.01 268.384C173.96 267.653 173.897 266.783 173.821 265.775C173.746 264.767 173.683 263.722 173.632 262.638C173.607 261.554 173.595 260.572 173.595 259.69V245.439H177.375V273.033H172.234L164.22 250.088C164.271 250.744 164.321 251.563 164.371 252.545C164.447 253.528 164.497 254.549 164.523 255.607C164.573 256.666 164.598 257.648 164.598 258.556V273.033H160.818ZM191.913 273.411C190.199 273.411 188.7 273.096 187.415 272.466C186.155 271.811 185.172 270.878 184.466 269.669C183.786 268.434 183.446 266.998 183.446 265.36V253.112C183.446 251.449 183.786 250.013 184.466 248.803C185.172 247.594 186.155 246.674 187.415 246.044C188.7 245.389 190.199 245.061 191.913 245.061C193.626 245.061 195.113 245.389 196.373 246.044C197.633 246.699 198.603 247.631 199.284 248.841C199.989 250.025 200.342 251.449 200.342 253.112H196.26C196.26 251.676 195.882 250.58 195.126 249.824C194.37 249.068 193.299 248.69 191.913 248.69C190.527 248.69 189.443 249.068 188.662 249.824C187.906 250.58 187.528 251.663 187.528 253.075V265.36C187.528 266.771 187.906 267.867 188.662 268.648C189.443 269.429 190.527 269.82 191.913 269.82C193.299 269.82 194.37 269.429 195.126 268.648C195.882 267.867 196.26 266.771 196.26 265.36V262.26H191.119V258.669H200.342V265.36C200.342 266.998 199.989 268.421 199.284 269.631C198.603 270.841 197.633 271.773 196.373 272.428C195.113 273.083 193.626 273.411 191.913 273.411ZM206.791 273.033V269.404H212.348V249.068H206.791V245.439H222.063V249.068H216.506V269.404H222.063V273.033H206.791ZM228.814 273.033V245.439H233.955L242.006 268.384C241.956 267.653 241.893 266.783 241.817 265.775C241.742 264.767 241.679 263.722 241.628 262.638C241.603 261.554 241.59 260.572 241.59 259.69V245.439H245.37V273.033H240.23L232.216 250.088C232.266 250.744 232.317 251.563 232.367 252.545C232.443 253.528 232.493 254.549 232.518 255.607C232.569 256.666 232.594 257.648 232.594 258.556V273.033H228.814ZM251.971 273.033V245.439H268.187V249.068H255.977V256.892H266.864V260.483H255.977V269.404H268.187V273.033H251.971ZM274.636 273.033V245.439H290.852V249.068H278.643V256.892H289.529V260.483H278.643V269.404H290.852V273.033H274.636ZM296.923 273.033V245.439H305.579C307.318 245.439 308.83 245.779 310.115 246.46C311.4 247.115 312.396 248.047 313.101 249.257C313.832 250.466 314.198 251.89 314.198 253.528C314.198 255.368 313.719 256.968 312.761 258.329C311.829 259.664 310.556 260.609 308.943 261.164L314.576 273.033H309.926L304.899 261.693H301.005V273.033H296.923ZM301.005 258.102H305.579C306.94 258.102 308.024 257.699 308.83 256.892C309.636 256.061 310.04 254.965 310.04 253.604C310.04 252.193 309.636 251.084 308.83 250.277C308.024 249.471 306.94 249.068 305.579 249.068H301.005V258.102ZM320.117 273.033V269.404H325.674V249.068H320.117V245.439H335.389V249.068H329.832V269.404H335.389V273.033H320.117ZM342.14 273.033V245.439H347.281L355.332 268.384C355.282 267.653 355.219 266.783 355.143 265.775C355.068 264.767 355.005 263.722 354.954 262.638C354.929 261.554 354.917 260.572 354.917 259.69V245.439H358.697V273.033H353.556L345.542 250.088C345.593 250.744 345.643 251.563 345.693 252.545C345.769 253.528 345.819 254.549 345.845 255.607C345.895 256.666 345.92 257.648 345.92 258.556V273.033H342.14ZM373.235 273.411C371.521 273.411 370.022 273.096 368.737 272.466C367.477 271.811 366.494 270.878 365.788 269.669C365.108 268.434 364.768 266.998 364.768 265.36V253.112C364.768 251.449 365.108 250.013 365.788 248.803C366.494 247.594 367.477 246.674 368.737 246.044C370.022 245.389 371.521 245.061 373.235 245.061C374.948 245.061 376.435 245.389 377.695 246.044C378.955 246.699 379.925 247.631 380.606 248.841C381.311 250.025 381.664 251.449 381.664 253.112H377.582C377.582 251.676 377.204 250.58 376.448 249.824C375.692 249.068 374.621 248.69 373.235 248.69C371.849 248.69 370.765 249.068 369.984 249.824C369.228 250.58 368.85 251.663 368.85 253.075V265.36C368.85 266.771 369.228 267.867 369.984 268.648C370.765 269.429 371.849 269.82 373.235 269.82C374.621 269.82 375.692 269.429 376.448 268.648C377.204 267.867 377.582 266.771 377.582 265.36V262.26H372.441V258.669H381.664V265.36C381.664 266.998 381.311 268.421 380.606 269.631C379.925 270.841 378.955 271.773 377.695 272.428C376.435 273.083 374.948 273.411 373.235 273.411Z" fill="white"/>
<g opacity="0.5">
<g opacity="0.7" filter="url(#filter1_f_1023_103)">
<rect x="196" y="366.123" width="413.079" height="40.8916" transform="rotate(-45.9959 196 366.123)" fill="url(#paint0_linear_1023_103)" fill-opacity="0.2"/>
</g>
<g filter="url(#filter2_f_1023_103)">
<rect x="225.413" y="394.531" width="413.079" height="61.3123" transform="rotate(-45.9959 225.413 394.531)" fill="url(#paint1_linear_1023_103)" fill-opacity="0.4"/>
</g>
</g>
<g opacity="0.5">
<g opacity="0.7" filter="url(#filter3_f_1023_103)">
<rect x="-27.5" y="246.123" width="413.079" height="61.3123" transform="rotate(-45.9959 -27.5 246.123)" fill="url(#paint2_linear_1023_103)" fill-opacity="0.2"/>
</g>
<g opacity="0.5" filter="url(#filter4_f_1023_103)">
<rect x="16.6011" y="288.718" width="413.079" height="61.3123" transform="rotate(-45.9959 16.6011 288.718)" fill="url(#paint3_linear_1023_103)" fill-opacity="0.4"/>
</g>
</g>
</g>
</g>
<defs>
<filter id="filter0_d_1023_103" x="0.0999999" y="0.6" width="526.5" height="378" filterUnits="userSpaceOnUse" color-interpolation-filters="sRGB">
<feFlood flood-opacity="0" result="BackgroundImageFix"/>
<feColorMatrix in="SourceAlpha" type="matrix" values="0 0 0 0 0 0 0 0 0 0 0 0 0 0 0 0 0 0 127 0" result="hardAlpha"/>
<feOffset dx="3.6" dy="3.6"/>
<feGaussianBlur stdDeviation="4.5"/>
<feComposite in2="hardAlpha" operator="out"/>
<feColorMatrix type="matrix" values="0 0 0 0 0 0 0 0 0 0 0 0 0 0 0 0 0 0 0.1 0"/>
<feBlend mode="normal" in2="BackgroundImageFix" result="effect1_dropShadow_1023_103"/>
<feBlend mode="normal" in="SourceGraphic" in2="effect1_dropShadow_1023_103" result="shape"/>
</filter>
<filter id="filter1_f_1023_103" x="181" y="54" width="346.383" height="355.531" filterUnits="userSpaceOnUse" color-interpolation-filters="sRGB">
<feFlood flood-opacity="0" result="BackgroundImageFix"/>
<feBlend mode="normal" in="SourceGraphic" in2="BackgroundImageFix" result="shape"/>
<feGaussianBlur stdDeviation="7.5" result="effect1_foregroundBlur_1023_103"/>
</filter>
<filter id="filter2_f_1023_103" x="210.413" y="82.4078" width="361.071" height="369.718" filterUnits="userSpaceOnUse" color-interpolation-filters="sRGB">
<feFlood flood-opacity="0" result="BackgroundImageFix"/>
<feBlend mode="normal" in="SourceGraphic" in2="BackgroundImageFix" result="shape"/>
<feGaussianBlur stdDeviation="7.5" result="effect1_foregroundBlur_1023_103"/>
</filter>
<filter id="filter3_f_1023_103" x="-42.5" y="-66" width="361.071" height="369.718" filterUnits="userSpaceOnUse" color-interpolation-filters="sRGB">
<feFlood flood-opacity="0" result="BackgroundImageFix"/>
<feBlend mode="normal" in="SourceGraphic" in2="BackgroundImageFix" result="shape"/>
<feGaussianBlur stdDeviation="7.5" result="effect1_foregroundBlur_1023_103"/>
</filter>
<filter id="filter4_f_1023_103" x="1.60107" y="-23.4058" width="361.071" height="369.718" filterUnits="userSpaceOnUse" color-interpolation-filters="sRGB">
<feFlood flood-opacity="0" result="BackgroundImageFix"/>
<feBlend mode="normal" in="SourceGraphic" in2="BackgroundImageFix" result="shape"/>
<feGaussianBlur stdDeviation="7.5" result="effect1_foregroundBlur_1023_103"/>
</filter>
<linearGradient id="paint0_linear_1023_103" x1="402.539" y1="366.123" x2="402.539" y2="407.015" gradientUnits="userSpaceOnUse">
<stop stop-color="white" stop-opacity="0"/>
<stop offset="1" stop-color="white"/>
</linearGradient>
<linearGradient id="paint1_linear_1023_103" x1="431.952" y1="394.531" x2="431.952" y2="455.843" gradientUnits="userSpaceOnUse">
<stop/>
<stop offset="1" stop-opacity="0"/>
</linearGradient>
<linearGradient id="paint2_linear_1023_103" x1="179.039" y1="246.123" x2="179.039" y2="307.436" gradientUnits="userSpaceOnUse">
<stop stop-color="white" stop-opacity="0"/>
<stop offset="1" stop-color="white"/>
</linearGradient>
<linearGradient id="paint3_linear_1023_103" x1="223.14" y1="288.718" x2="223.14" y2="350.03" gradientUnits="userSpaceOnUse">
<stop/>
<stop offset="1" stop-opacity="0"/>
</linearGradient>
</defs>
</svg>
