<svg width="528" height="379" viewBox="0 0 528 379" fill="none" xmlns="http://www.w3.org/2000/svg">
<g filter="url(#filter0_d_1023_19)">
<mask id="mask0_1023_19" style="mask-type:alpha" maskUnits="userSpaceOnUse" x="6" y="6" width="509" height="360">
<ellipse cx="260.25" cy="186" rx="180" ry="254.25" transform="rotate(90 260.25 186)" fill="#0A4153"/>
</mask>
<g mask="url(#mask0_1023_19)">
<ellipse cx="260.25" cy="186" rx="180" ry="254.25" transform="rotate(90 260.25 186)" fill="#0A4153"/>
<path d="M496.94 186C496.94 230.335 470.853 270.805 427.999 300.322C385.158 329.831 325.805 348.18 260.099 348.18C194.392 348.18 135.039 329.831 92.1982 300.322C49.3439 270.805 23.2569 230.335 23.2568 186C23.2568 141.666 49.3439 101.195 92.1982 71.6779C135.04 42.1696 194.392 23.8195 260.099 23.8195C325.805 23.8195 385.158 42.1696 427.999 71.6779C470.853 101.195 496.94 141.666 496.94 186Z" stroke="#83D6F1" stroke-width="6.12"/>
<path d="M180.584 72.1016L175.99 57.4762L184.404 54.8329L184.92 56.4758L178.289 58.5589L179.711 63.0868L185.641 61.2239L186.151 62.8467L180.221 64.7096L181.851 69.8986L188.482 67.8154L188.999 69.4583L180.584 72.1016ZM202.872 65.8724C201.889 66.094 201.005 66.1209 200.221 65.9532C199.451 65.7824 198.805 65.4328 198.284 64.9043C197.763 64.3759 197.4 63.6899 197.196 62.8462L199.04 62.4307C199.209 63.1819 199.596 63.719 200.199 64.0422C200.817 64.3623 201.583 64.4192 202.498 64.213C203.359 64.0191 203.98 63.6566 204.363 63.1255C204.759 62.5913 204.872 61.9486 204.703 61.1975C204.568 60.5965 204.285 60.1077 203.856 59.7308C203.44 59.3509 202.912 59.1399 202.271 59.0978L200.1 58.9198C199.005 58.8365 198.094 58.4892 197.368 57.8778C196.655 57.2635 196.187 56.4578 195.962 55.4608C195.781 54.655 195.801 53.9184 196.024 53.2511C196.257 52.5671 196.665 51.9873 197.246 51.5118C197.825 51.0226 198.558 50.678 199.446 50.478C200.757 50.1825 201.892 50.3143 202.85 50.8733C203.805 51.4186 204.427 52.2975 204.714 53.5099L202.871 53.9254C202.704 53.1879 202.35 52.6651 201.807 52.3569C201.274 52.032 200.605 51.9604 199.799 52.142C199.007 52.3205 198.429 52.6517 198.064 53.1357C197.714 53.6166 197.615 54.1985 197.769 54.8814C197.908 55.496 198.191 55.9917 198.621 56.3685C199.05 56.7453 199.594 56.9601 200.251 57.0128L202.448 57.2067C203.515 57.2961 204.407 57.6549 205.123 58.2829C205.838 58.911 206.31 59.7303 206.538 60.741C206.722 61.5604 206.693 62.3206 206.449 63.0213C206.205 63.7221 205.773 64.3217 205.154 64.8201C204.548 65.3154 203.787 65.6662 202.872 65.8724ZM220.323 62.1581L218.387 48.6674L214.229 49.2641L213.985 47.5596L224.17 46.0975L224.415 47.8021L220.258 48.3988L222.194 61.8895L220.323 62.1581ZM240.018 60.0234C239.487 60.059 239.05 59.9339 238.709 59.6481C238.381 59.3614 238.199 58.9597 238.165 58.4428C238.128 57.8981 238.253 57.4547 238.539 57.1128C238.838 56.77 239.254 56.5808 239.784 56.5452C240.315 56.5096 240.745 56.6421 241.074 56.9428C241.417 57.2425 241.606 57.6648 241.643 58.2096C241.678 58.7264 241.545 59.1492 241.244 59.4781C240.957 59.806 240.548 59.9878 240.018 60.0234ZM273.375 59.257L273.531 57.3313L278.6 52.7488C279.465 51.962 280.105 51.2554 280.521 50.629C280.938 49.9886 281.171 49.3614 281.221 48.7474C281.29 47.8962 281.107 47.2072 280.672 46.6803C280.251 46.1546 279.636 45.859 278.827 45.7934C277.934 45.721 277.209 45.9151 276.652 46.3756C276.109 46.8373 275.801 47.5076 275.73 48.3868L273.846 48.2341C273.949 47.3154 274.223 46.537 274.668 45.8988C275.128 45.2478 275.721 44.7692 276.449 44.4629C277.19 44.1578 278.028 44.0431 278.963 44.1189C279.883 44.1935 280.664 44.4393 281.305 44.8564C281.96 45.2607 282.443 45.8054 282.752 46.4907C283.062 47.1759 283.18 47.9721 283.107 48.8791C283.036 49.7443 282.737 50.5838 282.207 51.3977C281.678 52.2116 280.846 53.1204 279.711 54.124L275.628 57.7119L282.598 58.2767L282.459 59.9931L273.375 59.257ZM296.464 61.8183C295.537 61.6717 294.757 61.3639 294.122 60.895C293.504 60.4145 293.061 59.8128 292.792 59.09C292.526 58.3533 292.464 57.5356 292.606 56.6368L293.656 49.9993C293.801 49.0867 294.112 48.328 294.591 47.7233C295.069 47.1187 295.675 46.6902 296.41 46.4378C297.16 46.1739 297.999 46.1152 298.925 46.2617C299.865 46.4105 300.645 46.7252 301.263 47.2057C301.884 47.6724 302.329 48.2672 302.597 48.99C302.865 49.7128 302.927 50.5306 302.783 51.4432L301.733 58.0807C301.591 58.9795 301.279 59.7382 300.799 60.3567C300.32 60.9613 299.706 61.3957 298.955 61.6596C298.221 61.912 297.39 61.9648 296.464 61.8183ZM296.717 60.2211C297.546 60.3524 298.252 60.1947 298.833 59.748C299.43 59.2896 299.795 58.6387 299.928 57.7952L300.978 51.1577C301.112 50.3142 300.964 49.5893 300.536 48.9828C300.123 48.3648 299.502 47.9901 298.672 47.8589C297.843 47.7276 297.129 47.8912 296.533 48.3495C295.952 48.7962 295.594 49.4413 295.461 50.2848L294.411 56.9223C294.277 57.7658 294.417 58.4966 294.829 59.1146C295.258 59.721 295.887 60.0899 296.717 60.2211ZM297.501 55.2638C297.128 55.2047 296.842 55.039 296.644 54.7668C296.46 54.4967 296.399 54.1681 296.46 53.7809C296.519 53.4075 296.677 53.1277 296.933 52.9415C297.205 52.7436 297.528 52.6742 297.901 52.7333C298.275 52.7923 298.553 52.9569 298.737 53.227C298.937 53.4854 299.008 53.8013 298.949 54.1747C298.888 54.5619 298.721 54.8544 298.449 55.0523C298.19 55.2523 297.874 55.3228 297.501 55.2638ZM310.766 64.0212L311.17 62.3473L315.212 63.323L318.036 51.626L313.265 53.6715L313.757 51.6302L317.732 49.9324L320.243 50.5385L317.049 63.7665L320.356 64.5649L319.952 66.2388L310.766 64.0212ZM333.192 70.0945C332.004 69.7193 331.126 69.1044 330.559 68.25C329.992 67.3956 329.807 66.4266 330.002 65.3432L331.804 65.9123C331.69 66.5075 331.795 67.0327 332.121 67.488C332.452 67.93 332.984 68.2669 333.718 68.4988C334.559 68.7644 335.258 68.7356 335.815 68.4124C336.386 68.0935 336.802 67.5201 337.063 66.6924L337.512 65.2706C337.774 64.4429 337.763 63.7347 337.479 63.1458C337.208 62.5612 336.659 62.1382 335.831 61.8768C335.311 61.7124 334.813 61.7092 334.337 61.8673C333.865 62.012 333.471 62.284 333.154 62.683L331.352 62.1139L334.007 54.0554L341.697 56.4839L341.178 58.1259L335.231 56.2476L333.634 61.0947L334.195 61.2718L333.47 61.6154C333.668 60.9879 334.071 60.572 334.678 60.3675C335.3 60.1673 336.031 60.2 336.872 60.4656C338.064 60.8275 338.869 61.4855 339.287 62.4397C339.723 63.3848 339.732 64.5181 339.315 65.8398L338.866 67.2616C338.457 68.5565 337.752 69.4643 336.75 69.985C335.753 70.4922 334.567 70.5288 333.192 70.0945Z" fill="#83D6F1"/>
<path d="M339.721 163.889C336.617 165.936 333.248 167.984 329.616 170.031C326.049 172.013 322.45 173.895 318.817 175.678C315.184 177.462 311.816 179.08 308.712 180.533C305.607 181.92 302.965 183.01 300.786 183.802C298.606 184.595 297.186 184.991 296.526 184.991C295.139 184.991 293.917 184.562 292.86 183.703C291.803 182.845 291.275 181.788 291.275 180.533C291.275 179.476 292.332 178.155 294.445 176.57C296.625 174.985 299.465 173.202 302.965 171.22C306.466 169.239 310.33 167.125 314.557 164.88C318.85 162.634 323.11 160.322 327.337 157.945C323.837 155.699 320.369 153.585 316.935 151.604C313.566 149.623 310.462 147.839 307.622 146.254C304.848 144.603 302.635 143.183 300.984 141.994C299.333 140.739 298.507 139.748 298.507 139.022C298.507 137.503 298.969 136.248 299.894 135.257C300.819 134.266 302.239 133.771 304.154 133.771C304.683 133.771 305.838 134.134 307.622 134.861C309.405 135.587 311.585 136.578 314.161 137.833C316.736 139.088 319.51 140.541 322.483 142.192C325.521 143.777 328.526 145.461 331.498 147.245C334.536 149.028 337.343 150.811 339.919 152.595C341.24 153.519 342.132 154.477 342.594 155.468C343.123 156.392 343.387 157.284 343.387 158.143C343.387 159.133 343.09 160.124 342.495 161.115C341.967 162.04 341.042 162.964 339.721 163.889Z" fill="#42CAF5"/>
<path d="M234.836 217.586C233.383 217.586 232.26 216.925 231.468 215.604C230.675 214.35 230.279 212.93 230.279 211.344C230.279 210.354 230.807 208.471 231.864 205.697C232.921 202.989 234.341 199.654 236.124 195.691C237.973 191.662 240.087 187.27 242.465 182.514C244.842 177.693 247.385 172.706 250.093 167.555C252.801 162.337 255.509 157.152 258.217 152C260.991 146.849 263.666 141.961 266.242 137.338C268.818 132.714 271.196 128.586 273.375 124.954C274.234 123.633 275.257 122.477 276.446 121.486C277.701 120.495 279.088 120 280.607 120C282.126 120 283.348 120.627 284.273 121.882C285.264 123.071 285.759 124.491 285.759 126.142C285.759 126.737 285.132 128.388 283.877 131.096C282.622 133.738 280.905 137.206 278.725 141.499C276.545 145.726 274.003 150.58 271.096 156.062C268.256 161.544 265.185 167.422 261.883 173.697C258.646 179.906 255.311 186.279 251.877 192.818C248.508 199.357 245.206 205.862 241.969 212.335C241.309 213.788 240.351 215.01 239.096 216.001C237.841 217.058 236.421 217.586 234.836 217.586Z" fill="#42CAF5"/>
<path d="M228.333 138.427C228.333 139.286 227.276 140.409 225.162 141.796C223.115 143.183 220.341 144.768 216.84 146.551C213.34 148.335 209.476 150.25 205.249 152.297C201.088 154.345 196.894 156.458 192.667 158.638C196.233 161.148 199.8 163.493 203.366 165.672C206.933 167.852 210.169 169.833 213.075 171.617C216.048 173.4 218.392 174.985 220.11 176.372C221.893 177.693 222.785 178.783 222.785 179.641C222.785 180.896 222.322 182.118 221.397 183.307C220.473 184.43 218.987 184.991 216.939 184.991C216.345 184.991 215.123 184.595 213.274 183.802C211.424 182.944 209.179 181.821 206.537 180.434C203.895 178.981 201.022 177.363 197.917 175.579C194.879 173.796 191.808 171.914 188.704 169.932C185.666 167.885 182.825 165.87 180.184 163.889C178.995 163.03 178.169 162.172 177.707 161.313C177.31 160.388 177.112 159.53 177.112 158.737C177.112 157.614 177.41 156.558 178.004 155.567C178.664 154.51 179.754 153.552 181.273 152.694C184.312 150.844 187.548 149.028 190.982 147.245C194.483 145.395 197.95 143.678 201.385 142.093C204.885 140.442 208.155 139.022 211.193 137.833C214.231 136.578 216.807 135.587 218.921 134.861C221.1 134.134 222.586 133.771 223.379 133.771C225.228 133.771 226.516 134.167 227.243 134.96C227.969 135.686 228.333 136.842 228.333 138.427Z" fill="#42CAF5"/>
<path d="M151.04 271.586V267.554H157.214V244.958H151.04V240.926H168.008V244.958H161.834V267.554H168.008V271.586H151.04ZM175.509 271.586V240.926H181.221L190.167 266.42C190.111 265.608 190.041 264.642 189.957 263.522C189.873 262.402 189.803 261.24 189.747 260.036C189.719 258.832 189.705 257.74 189.705 256.76V240.926H193.905V271.586H188.193L179.289 246.092C179.345 246.82 179.401 247.73 179.457 248.822C179.541 249.914 179.597 251.048 179.625 252.224C179.681 253.4 179.709 254.492 179.709 255.5V271.586H175.509ZM200.987 271.586V240.884H219.509V245.084H205.397V254.24H218.417V258.44H205.481V271.586H200.987ZM235.075 272.006C233.171 272.006 231.519 271.656 230.119 270.956C228.747 270.228 227.683 269.192 226.927 267.848C226.199 266.476 225.835 264.88 225.835 263.06V249.452C225.835 247.604 226.199 246.008 226.927 244.664C227.683 243.32 228.747 242.298 230.119 241.598C231.519 240.87 233.171 240.506 235.075 240.506C236.979 240.506 238.617 240.87 239.989 241.598C241.389 242.298 242.453 243.32 243.181 244.664C243.937 246.008 244.315 247.59 244.315 249.41V263.06C244.315 264.88 243.937 266.476 243.181 267.848C242.453 269.192 241.389 270.228 239.989 270.956C238.617 271.656 236.979 272.006 235.075 272.006ZM235.075 267.974C236.615 267.974 237.777 267.554 238.561 266.714C239.373 265.846 239.779 264.628 239.779 263.06V249.452C239.779 247.856 239.373 246.638 238.561 245.798C237.777 244.958 236.615 244.538 235.075 244.538C233.563 244.538 232.401 244.958 231.589 245.798C230.777 246.638 230.371 247.856 230.371 249.452V263.06C230.371 264.628 230.777 265.846 231.589 266.714C232.401 267.554 233.563 267.974 235.075 267.974ZM283.174 271.586V245.084H274.984V240.884H295.9V245.084H287.71V271.586H283.174ZM301.973 271.586V240.926H319.991V244.958H306.425V253.652H318.521V257.642H306.425V267.554H319.991V271.586H301.973ZM335.977 272.006C334.073 272.006 332.407 271.656 330.979 270.956C329.579 270.228 328.487 269.192 327.703 267.848C326.947 266.476 326.569 264.88 326.569 263.06V249.452C326.569 247.604 326.947 246.008 327.703 244.664C328.487 243.32 329.579 242.298 330.979 241.598C332.407 240.87 334.073 240.506 335.977 240.506C337.881 240.506 339.533 240.87 340.933 241.598C342.333 242.326 343.411 243.362 344.167 244.706C344.951 246.022 345.343 247.604 345.343 249.452H340.807C340.807 247.856 340.387 246.638 339.547 245.798C338.707 244.958 337.517 244.538 335.977 244.538C334.437 244.538 333.233 244.958 332.365 245.798C331.525 246.638 331.105 247.842 331.105 249.41V263.06C331.105 264.628 331.525 265.846 332.365 266.714C333.233 267.554 334.437 267.974 335.977 267.974C337.517 267.974 338.707 267.554 339.547 266.714C340.387 265.846 340.807 264.628 340.807 263.06H345.343C345.343 264.88 344.951 266.462 344.167 267.806C343.411 269.15 342.333 270.186 340.933 270.914C339.533 271.642 337.881 272.006 335.977 272.006ZM351.963 271.586V240.926H356.499V253.61H365.487V240.926H370.023V271.586H365.487V257.81H356.499V271.586H351.963Z" fill="white"/>
<g opacity="0.5">
<g opacity="0.7" filter="url(#filter1_f_1023_19)">
<rect x="196.5" y="366.123" width="413.079" height="40.8916" transform="rotate(-45.9959 196.5 366.123)" fill="url(#paint0_linear_1023_19)" fill-opacity="0.2"/>
</g>
<g filter="url(#filter2_f_1023_19)">
<rect x="225.913" y="394.531" width="413.079" height="61.3123" transform="rotate(-45.9959 225.913 394.531)" fill="url(#paint1_linear_1023_19)" fill-opacity="0.4"/>
</g>
</g>
<g opacity="0.5">
<g opacity="0.7" filter="url(#filter3_f_1023_19)">
<rect x="-27" y="246.123" width="413.079" height="61.3123" transform="rotate(-45.9959 -27 246.123)" fill="url(#paint2_linear_1023_19)" fill-opacity="0.2"/>
</g>
<g opacity="0.5" filter="url(#filter4_f_1023_19)">
<rect x="17.1011" y="288.718" width="413.079" height="61.3123" transform="rotate(-45.9959 17.1011 288.718)" fill="url(#paint3_linear_1023_19)" fill-opacity="0.4"/>
</g>
</g>
</g>
</g>
<defs>
<filter id="filter0_d_1023_19" x="0.6" y="0.6" width="526.5" height="378" filterUnits="userSpaceOnUse" color-interpolation-filters="sRGB">
<feFlood flood-opacity="0" result="BackgroundImageFix"/>
<feColorMatrix in="SourceAlpha" type="matrix" values="0 0 0 0 0 0 0 0 0 0 0 0 0 0 0 0 0 0 127 0" result="hardAlpha"/>
<feOffset dx="3.6" dy="3.6"/>
<feGaussianBlur stdDeviation="4.5"/>
<feComposite in2="hardAlpha" operator="out"/>
<feColorMatrix type="matrix" values="0 0 0 0 0 0 0 0 0 0 0 0 0 0 0 0 0 0 0.1 0"/>
<feBlend mode="normal" in2="BackgroundImageFix" result="effect1_dropShadow_1023_19"/>
<feBlend mode="normal" in="SourceGraphic" in2="effect1_dropShadow_1023_19" result="shape"/>
</filter>
<filter id="filter1_f_1023_19" x="181.5" y="54" width="346.383" height="355.531" filterUnits="userSpaceOnUse" color-interpolation-filters="sRGB">
<feFlood flood-opacity="0" result="BackgroundImageFix"/>
<feBlend mode="normal" in="SourceGraphic" in2="BackgroundImageFix" result="shape"/>
<feGaussianBlur stdDeviation="7.5" result="effect1_foregroundBlur_1023_19"/>
</filter>
<filter id="filter2_f_1023_19" x="210.913" y="82.4078" width="361.071" height="369.718" filterUnits="userSpaceOnUse" color-interpolation-filters="sRGB">
<feFlood flood-opacity="0" result="BackgroundImageFix"/>
<feBlend mode="normal" in="SourceGraphic" in2="BackgroundImageFix" result="shape"/>
<feGaussianBlur stdDeviation="7.5" result="effect1_foregroundBlur_1023_19"/>
</filter>
<filter id="filter3_f_1023_19" x="-42" y="-66" width="361.071" height="369.718" filterUnits="userSpaceOnUse" color-interpolation-filters="sRGB">
<feFlood flood-opacity="0" result="BackgroundImageFix"/>
<feBlend mode="normal" in="SourceGraphic" in2="BackgroundImageFix" result="shape"/>
<feGaussianBlur stdDeviation="7.5" result="effect1_foregroundBlur_1023_19"/>
</filter>
<filter id="filter4_f_1023_19" x="2.10107" y="-23.4058" width="361.071" height="369.718" filterUnits="userSpaceOnUse" color-interpolation-filters="sRGB">
<feFlood flood-opacity="0" result="BackgroundImageFix"/>
<feBlend mode="normal" in="SourceGraphic" in2="BackgroundImageFix" result="shape"/>
<feGaussianBlur stdDeviation="7.5" result="effect1_foregroundBlur_1023_19"/>
</filter>
<linearGradient id="paint0_linear_1023_19" x1="403.039" y1="366.123" x2="403.039" y2="407.015" gradientUnits="userSpaceOnUse">
<stop stop-color="white" stop-opacity="0"/>
<stop offset="1" stop-color="white"/>
</linearGradient>
<linearGradient id="paint1_linear_1023_19" x1="432.452" y1="394.531" x2="432.452" y2="455.843" gradientUnits="userSpaceOnUse">
<stop/>
<stop offset="1" stop-opacity="0"/>
</linearGradient>
<linearGradient id="paint2_linear_1023_19" x1="179.539" y1="246.123" x2="179.539" y2="307.436" gradientUnits="userSpaceOnUse">
<stop stop-color="white" stop-opacity="0"/>
<stop offset="1" stop-color="white"/>
</linearGradient>
<linearGradient id="paint3_linear_1023_19" x1="223.64" y1="288.718" x2="223.64" y2="350.03" gradientUnits="userSpaceOnUse">
<stop/>
<stop offset="1" stop-opacity="0"/>
</linearGradient>
</defs>
</svg>
