<svg width="528" height="379" viewBox="0 0 528 379" fill="none" xmlns="http://www.w3.org/2000/svg">
<g filter="url(#filter0_d_1023_2)">
<mask id="mask0_1023_2" style="mask-type:alpha" maskUnits="userSpaceOnUse" x="6" y="5" width="509" height="361">
<ellipse cx="260.25" cy="185.5" rx="180" ry="254.25" transform="rotate(90 260.25 185.5)" fill="#0A4153"/>
</mask>
<g mask="url(#mask0_1023_2)">
<ellipse cx="260.25" cy="185.5" rx="180" ry="254.25" transform="rotate(90 260.25 185.5)" fill="#0A4153"/>
<path d="M496.94 185.5C496.94 229.835 470.853 270.305 427.999 299.822C385.158 329.331 325.805 347.68 260.099 347.68C194.392 347.68 135.039 329.331 92.1982 299.822C49.3439 270.305 23.2569 229.835 23.2568 185.5C23.2568 141.166 49.3439 100.695 92.1982 71.1779C135.04 41.6696 194.392 23.3195 260.099 23.3195C325.805 23.3195 385.158 41.6696 427.999 71.1779C470.853 100.695 496.94 141.166 496.94 185.5Z" stroke="#83D6F1" stroke-width="6.12"/>
<path d="M180.584 71.6016L175.99 56.9762L184.404 54.3329L184.92 55.9758L178.289 58.0589L179.711 62.5868L185.641 60.7239L186.151 62.3467L180.221 64.2096L181.851 69.3986L188.482 67.3154L188.999 68.9583L180.584 71.6016ZM202.872 65.3724C201.889 65.594 201.005 65.6209 200.221 65.4532C199.451 65.2824 198.805 64.9328 198.284 64.4043C197.763 63.8759 197.4 63.1899 197.196 62.3462L199.04 61.9307C199.209 62.6819 199.596 63.219 200.199 63.5422C200.817 63.8623 201.583 63.9192 202.498 63.713C203.359 63.5191 203.98 63.1566 204.363 62.6255C204.759 62.0913 204.872 61.4486 204.703 60.6975C204.568 60.0965 204.285 59.6077 203.856 59.2308C203.44 58.8509 202.912 58.6399 202.271 58.5978L200.1 58.4198C199.005 58.3365 198.094 57.9892 197.368 57.3778C196.655 56.7635 196.187 55.9578 195.962 54.9608C195.781 54.155 195.801 53.4184 196.024 52.7511C196.257 52.0671 196.665 51.4873 197.246 51.0118C197.825 50.5226 198.558 50.178 199.446 49.978C200.757 49.6825 201.892 49.8143 202.85 50.3733C203.805 50.9186 204.427 51.7975 204.714 53.0099L202.871 53.4254C202.704 52.6879 202.35 52.1651 201.807 51.8569C201.274 51.532 200.605 51.4604 199.799 51.642C199.007 51.8205 198.429 52.1517 198.064 52.6357C197.714 53.1166 197.615 53.6985 197.769 54.3814C197.908 54.996 198.191 55.4917 198.621 55.8685C199.05 56.2453 199.594 56.4601 200.251 56.5128L202.448 56.7067C203.515 56.7961 204.407 57.1549 205.123 57.7829C205.838 58.411 206.31 59.2303 206.538 60.241C206.722 61.0604 206.693 61.8206 206.449 62.5213C206.205 63.2221 205.773 63.8217 205.154 64.3201C204.548 64.8154 203.787 65.1662 202.872 65.3724ZM220.323 61.6581L218.387 48.1674L214.229 48.7641L213.985 47.0596L224.17 45.5975L224.415 47.3021L220.258 47.8988L222.194 61.3895L220.323 61.6581ZM240.018 59.5234C239.487 59.559 239.05 59.4339 238.709 59.1481C238.381 58.8614 238.199 58.4597 238.165 57.9428C238.128 57.3981 238.253 56.9547 238.539 56.6128C238.838 56.27 239.254 56.0808 239.784 56.0452C240.315 56.0096 240.745 56.1421 241.074 56.4428C241.417 56.7425 241.606 57.1648 241.643 57.7096C241.678 58.2264 241.545 58.6492 241.244 58.9781C240.957 59.306 240.548 59.4878 240.018 59.5234ZM273.375 58.757L273.531 56.8313L278.6 52.2488C279.465 51.462 280.105 50.7554 280.521 50.129C280.938 49.4886 281.171 48.8614 281.221 48.2474C281.29 47.3962 281.107 46.7072 280.672 46.1803C280.251 45.6546 279.636 45.359 278.827 45.2934C277.934 45.221 277.209 45.4151 276.652 45.8756C276.109 46.3373 275.801 47.0076 275.73 47.8868L273.846 47.7341C273.949 46.8154 274.223 46.037 274.668 45.3988C275.128 44.7478 275.721 44.2692 276.449 43.9629C277.19 43.6578 278.028 43.5431 278.963 43.6189C279.883 43.6935 280.664 43.9393 281.305 44.3564C281.96 44.7607 282.443 45.3054 282.752 45.9907C283.062 46.6759 283.18 47.4721 283.107 48.3791C283.036 49.2443 282.737 50.0838 282.207 50.8977C281.678 51.7116 280.846 52.6204 279.711 53.624L275.628 57.2119L282.598 57.7767L282.459 59.4931L273.375 58.757ZM296.464 61.3183C295.537 61.1717 294.757 60.8639 294.122 60.395C293.504 59.9145 293.061 59.3128 292.792 58.59C292.526 57.8533 292.464 57.0356 292.606 56.1368L293.656 49.4993C293.801 48.5867 294.112 47.828 294.591 47.2233C295.069 46.6187 295.675 46.1902 296.41 45.9378C297.16 45.6739 297.999 45.6152 298.925 45.7617C299.865 45.9105 300.645 46.2252 301.263 46.7057C301.884 47.1724 302.329 47.7672 302.597 48.49C302.865 49.2128 302.927 50.0306 302.783 50.9432L301.733 57.5807C301.591 58.4795 301.279 59.2382 300.799 59.8567C300.32 60.4613 299.706 60.8957 298.955 61.1596C298.221 61.412 297.39 61.4648 296.464 61.3183ZM296.717 59.7211C297.546 59.8524 298.252 59.6947 298.833 59.248C299.43 58.7896 299.795 58.1387 299.928 57.2952L300.978 50.6577C301.112 49.8142 300.964 49.0893 300.536 48.4828C300.123 47.8648 299.502 47.4901 298.672 47.3589C297.843 47.2276 297.129 47.3912 296.533 47.8495C295.952 48.2962 295.594 48.9413 295.461 49.7848L294.411 56.4223C294.277 57.2658 294.417 57.9966 294.829 58.6146C295.258 59.221 295.887 59.5899 296.717 59.7211ZM297.501 54.7638C297.128 54.7047 296.842 54.539 296.644 54.2668C296.46 53.9967 296.399 53.6681 296.46 53.2809C296.519 52.9075 296.677 52.6277 296.933 52.4415C297.205 52.2436 297.528 52.1742 297.901 52.2333C298.275 52.2923 298.553 52.4569 298.737 52.727C298.937 52.9854 299.008 53.3013 298.949 53.6747C298.888 54.0619 298.721 54.3544 298.449 54.5523C298.19 54.7523 297.874 54.8228 297.501 54.7638ZM310.766 63.5212L311.17 61.8473L315.212 62.823L318.036 51.126L313.265 53.1715L313.757 51.1302L317.732 49.4324L320.243 50.0385L317.049 63.2665L320.356 64.0649L319.952 65.7388L310.766 63.5212ZM333.192 69.5945C332.004 69.2193 331.126 68.6044 330.559 67.75C329.992 66.8956 329.807 65.9266 330.002 64.8432L331.804 65.4123C331.69 66.0075 331.795 66.5327 332.121 66.988C332.452 67.43 332.984 67.7669 333.718 67.9988C334.559 68.2644 335.258 68.2356 335.815 67.9124C336.386 67.5935 336.802 67.0201 337.063 66.1924L337.512 64.7706C337.774 63.9429 337.763 63.2347 337.479 62.6458C337.208 62.0612 336.659 61.6382 335.831 61.3768C335.311 61.2124 334.813 61.2092 334.337 61.3673C333.865 61.512 333.471 61.784 333.154 62.183L331.352 61.6139L334.007 53.5554L341.697 55.9839L341.178 57.6259L335.231 55.7476L333.634 60.5947L334.195 60.7718L333.47 61.1154C333.668 60.4879 334.071 60.072 334.678 59.8675C335.3 59.6673 336.031 59.7 336.872 59.9656C338.064 60.3275 338.869 60.9855 339.287 61.9397C339.723 62.8848 339.732 64.0181 339.315 65.3398L338.866 66.7616C338.457 68.0565 337.752 68.9643 336.75 69.485C335.753 69.9922 334.567 70.0288 333.192 69.5945Z" fill="#83D6F1"/>
<path d="M339.721 142.389C336.617 144.436 333.248 146.484 329.616 148.531C326.049 150.513 322.45 152.395 318.817 154.178C315.184 155.962 311.816 157.58 308.712 159.033C305.607 160.42 302.965 161.51 300.786 162.302C298.606 163.095 297.186 163.491 296.526 163.491C295.139 163.491 293.917 163.062 292.86 162.203C291.803 161.345 291.275 160.288 291.275 159.033C291.275 157.976 292.332 156.655 294.445 155.07C296.625 153.485 299.465 151.702 302.965 149.72C306.466 147.739 310.33 145.625 314.557 143.38C318.85 141.134 323.11 138.822 327.337 136.445C323.837 134.199 320.369 132.085 316.935 130.104C313.566 128.123 310.462 126.339 307.622 124.754C304.848 123.103 302.635 121.683 300.984 120.494C299.333 119.239 298.507 118.248 298.507 117.522C298.507 116.003 298.969 114.748 299.894 113.757C300.819 112.766 302.239 112.271 304.154 112.271C304.683 112.271 305.838 112.634 307.622 113.361C309.405 114.087 311.585 115.078 314.161 116.333C316.736 117.588 319.51 119.041 322.483 120.692C325.521 122.277 328.526 123.961 331.498 125.745C334.536 127.528 337.343 129.311 339.919 131.095C341.24 132.019 342.132 132.977 342.594 133.968C343.123 134.892 343.387 135.784 343.387 136.643C343.387 137.633 343.09 138.624 342.495 139.615C341.967 140.54 341.042 141.464 339.721 142.389Z" fill="#42CAF5"/>
<path d="M234.836 196.086C233.383 196.086 232.26 195.425 231.468 194.104C230.675 192.85 230.279 191.43 230.279 189.844C230.279 188.854 230.807 186.971 231.864 184.197C232.921 181.489 234.341 178.154 236.124 174.191C237.973 170.162 240.087 165.77 242.465 161.014C244.842 156.193 247.385 151.206 250.093 146.055C252.801 140.837 255.509 135.652 258.217 130.5C260.991 125.349 263.666 120.461 266.242 115.838C268.818 111.214 271.196 107.086 273.375 103.454C274.234 102.133 275.257 100.977 276.446 99.9861C277.701 98.9954 279.088 98.5 280.607 98.5C282.126 98.5 283.348 99.1275 284.273 100.382C285.264 101.571 285.759 102.991 285.759 104.642C285.759 105.237 285.132 106.888 283.877 109.596C282.622 112.238 280.905 115.706 278.725 119.999C276.545 124.226 274.003 129.08 271.096 134.562C268.256 140.044 265.185 145.922 261.883 152.197C258.646 158.406 255.311 164.779 251.877 171.318C248.508 177.857 245.206 184.362 241.969 190.835C241.309 192.288 240.351 193.51 239.096 194.501C237.841 195.558 236.421 196.086 234.836 196.086Z" fill="#42CAF5"/>
<path d="M228.333 116.927C228.333 117.786 227.276 118.909 225.162 120.296C223.115 121.683 220.341 123.268 216.84 125.051C213.34 126.835 209.476 128.75 205.249 130.797C201.088 132.845 196.894 134.958 192.667 137.138C196.233 139.648 199.8 141.993 203.366 144.172C206.933 146.352 210.169 148.333 213.075 150.116C216.048 151.9 218.392 153.485 220.11 154.872C221.893 156.193 222.785 157.283 222.785 158.141C222.785 159.396 222.322 160.618 221.397 161.807C220.473 162.93 218.987 163.491 216.939 163.491C216.345 163.491 215.123 163.095 213.274 162.302C211.424 161.444 209.179 160.321 206.537 158.934C203.895 157.481 201.022 155.863 197.917 154.079C194.879 152.296 191.808 150.414 188.704 148.432C185.666 146.385 182.825 144.37 180.184 142.389C178.995 141.53 178.169 140.672 177.707 139.813C177.31 138.888 177.112 138.03 177.112 137.237C177.112 136.114 177.41 135.058 178.004 134.067C178.664 133.01 179.754 132.052 181.273 131.194C184.312 129.344 187.548 127.528 190.982 125.745C194.483 123.895 197.95 122.178 201.385 120.593C204.885 118.942 208.155 117.522 211.193 116.333C214.231 115.078 216.807 114.087 218.921 113.361C221.1 112.634 222.586 112.271 223.379 112.271C225.228 112.271 226.516 112.667 227.243 113.46C227.969 114.186 228.333 115.342 228.333 116.927Z" fill="#42CAF5"/>
<path d="M213.999 250.086V246.054H220.173V223.458H213.999V219.426H230.967V223.458H224.793V246.054H230.967V250.086H213.999ZM238.468 250.086V219.426H244.18L253.126 244.92C253.07 244.108 253 243.142 252.916 242.022C252.832 240.902 252.762 239.74 252.706 238.536C252.678 237.332 252.664 236.24 252.664 235.26V219.426H256.864V250.086H251.152L242.248 224.592C242.304 225.32 242.36 226.23 242.416 227.322C242.5 228.414 242.556 229.548 242.584 230.724C242.64 231.9 242.668 232.992 242.668 234V250.086H238.468ZM263.946 250.086V219.384H282.468V223.584H268.356V232.74H281.376V236.94H268.44V250.086H263.946ZM298.034 250.506C296.13 250.506 294.478 250.156 293.078 249.456C291.706 248.728 290.642 247.692 289.886 246.348C289.158 244.976 288.794 243.38 288.794 241.56V227.952C288.794 226.104 289.158 224.508 289.886 223.164C290.642 221.82 291.706 220.798 293.078 220.098C294.478 219.37 296.13 219.006 298.034 219.006C299.938 219.006 301.576 219.37 302.948 220.098C304.348 220.798 305.412 221.82 306.14 223.164C306.896 224.508 307.274 226.09 307.274 227.91V241.56C307.274 243.38 306.896 244.976 306.14 246.348C305.412 247.692 304.348 248.728 302.948 249.456C301.576 250.156 299.938 250.506 298.034 250.506ZM298.034 246.474C299.574 246.474 300.736 246.054 301.52 245.214C302.332 244.346 302.738 243.128 302.738 241.56V227.952C302.738 226.356 302.332 225.138 301.52 224.298C300.736 223.458 299.574 223.038 298.034 223.038C296.522 223.038 295.36 223.458 294.548 224.298C293.736 225.138 293.33 226.356 293.33 227.952V241.56C293.33 243.128 293.736 244.346 294.548 245.214C295.36 246.054 296.522 246.474 298.034 246.474ZM184.833 292.506C182.761 292.506 180.983 292.17 179.499 291.498C178.015 290.798 176.867 289.818 176.055 288.558C175.243 287.27 174.837 285.744 174.837 283.98H179.331C179.331 285.38 179.821 286.486 180.801 287.298C181.781 288.082 183.139 288.474 184.875 288.474C186.499 288.474 187.773 288.082 188.697 287.298C189.621 286.514 190.083 285.436 190.083 284.064C190.083 282.916 189.761 281.922 189.117 281.082C188.501 280.242 187.605 279.668 186.429 279.36L182.565 278.226C180.325 277.582 178.589 276.49 177.357 274.95C176.153 273.382 175.551 271.52 175.551 269.364C175.551 267.684 175.929 266.214 176.685 264.954C177.441 263.694 178.519 262.714 179.919 262.014C181.319 261.314 182.971 260.964 184.875 260.964C187.675 260.964 189.915 261.72 191.595 263.232C193.303 264.744 194.171 266.774 194.199 269.322H189.663C189.663 267.978 189.229 266.928 188.361 266.172C187.521 265.388 186.331 264.996 184.791 264.996C183.307 264.996 182.145 265.36 181.305 266.088C180.465 266.788 180.045 267.782 180.045 269.07C180.045 270.218 180.353 271.212 180.969 272.052C181.613 272.892 182.523 273.48 183.699 273.816L187.605 274.992C189.845 275.608 191.567 276.7 192.771 278.268C193.975 279.836 194.577 281.712 194.577 283.896C194.577 285.604 194.171 287.116 193.359 288.432C192.547 289.72 191.413 290.728 189.957 291.456C188.501 292.156 186.793 292.506 184.833 292.506ZM207.623 292.086V280.788L198.509 261.426H203.213L208.631 273.018C208.995 273.774 209.289 274.488 209.513 275.16C209.737 275.804 209.891 276.308 209.975 276.672C210.031 276.308 210.171 275.804 210.395 275.16C210.647 274.488 210.941 273.774 211.277 273.018L216.569 261.426H221.273L212.159 280.788V292.086H207.623ZM235.201 292.506C233.129 292.506 231.351 292.17 229.867 291.498C228.383 290.798 227.235 289.818 226.423 288.558C225.611 287.27 225.205 285.744 225.205 283.98H229.699C229.699 285.38 230.189 286.486 231.169 287.298C232.149 288.082 233.507 288.474 235.243 288.474C236.867 288.474 238.141 288.082 239.065 287.298C239.989 286.514 240.451 285.436 240.451 284.064C240.451 282.916 240.129 281.922 239.485 281.082C238.869 280.242 237.973 279.668 236.797 279.36L232.933 278.226C230.693 277.582 228.957 276.49 227.725 274.95C226.521 273.382 225.919 271.52 225.919 269.364C225.919 267.684 226.297 266.214 227.053 264.954C227.809 263.694 228.887 262.714 230.287 262.014C231.687 261.314 233.339 260.964 235.243 260.964C238.043 260.964 240.283 261.72 241.963 263.232C243.671 264.744 244.539 266.774 244.567 269.322H240.031C240.031 267.978 239.597 266.928 238.729 266.172C237.889 265.388 236.699 264.996 235.159 264.996C233.675 264.996 232.513 265.36 231.673 266.088C230.833 266.788 230.413 267.782 230.413 269.07C230.413 270.218 230.721 271.212 231.337 272.052C231.981 272.892 232.891 273.48 234.067 273.816L237.973 274.992C240.213 275.608 241.935 276.7 243.139 278.268C244.343 279.836 244.945 281.712 244.945 283.896C244.945 285.604 244.539 287.116 243.727 288.432C242.915 289.72 241.781 290.728 240.325 291.456C238.869 292.156 237.161 292.506 235.201 292.506ZM257.99 292.086V265.584H249.8V261.384H270.716V265.584H262.526V292.086H257.99ZM276.79 292.086V261.426H294.808V265.458H281.242V274.152H293.338V278.142H281.242V288.054H294.808V292.086H276.79ZM300.797 292.086V261.426H306.383L309.449 271.254C309.757 272.178 310.023 273.074 310.247 273.942C310.471 274.782 310.625 275.412 310.709 275.832C310.821 275.412 310.975 274.782 311.171 273.942C311.395 273.074 311.647 272.178 311.927 271.254L314.867 261.426H320.453V292.086H316.169V281.754C316.169 280.438 316.197 278.982 316.253 277.386C316.337 275.762 316.449 274.138 316.589 272.514C316.729 270.862 316.869 269.294 317.009 267.81C317.149 266.298 317.275 264.982 317.387 263.862L312.851 278.772H308.483L303.863 263.862C304.003 264.954 304.143 266.228 304.283 267.684C304.423 269.112 304.549 270.638 304.661 272.262C304.773 273.886 304.871 275.524 304.955 277.176C305.039 278.8 305.081 280.326 305.081 281.754V292.086H300.797ZM335.935 292.506C333.863 292.506 332.085 292.17 330.601 291.498C329.117 290.798 327.969 289.818 327.157 288.558C326.345 287.27 325.939 285.744 325.939 283.98H330.433C330.433 285.38 330.923 286.486 331.903 287.298C332.883 288.082 334.241 288.474 335.977 288.474C337.601 288.474 338.875 288.082 339.799 287.298C340.723 286.514 341.185 285.436 341.185 284.064C341.185 282.916 340.863 281.922 340.219 281.082C339.603 280.242 338.707 279.668 337.531 279.36L333.667 278.226C331.427 277.582 329.691 276.49 328.459 274.95C327.255 273.382 326.653 271.52 326.653 269.364C326.653 267.684 327.031 266.214 327.787 264.954C328.543 263.694 329.621 262.714 331.021 262.014C332.421 261.314 334.073 260.964 335.977 260.964C338.777 260.964 341.017 261.72 342.697 263.232C344.405 264.744 345.273 266.774 345.301 269.322H340.765C340.765 267.978 340.331 266.928 339.463 266.172C338.623 265.388 337.433 264.996 335.893 264.996C334.409 264.996 333.247 265.36 332.407 266.088C331.567 266.788 331.147 267.782 331.147 269.07C331.147 270.218 331.455 271.212 332.071 272.052C332.715 272.892 333.625 273.48 334.801 273.816L338.707 274.992C340.947 275.608 342.669 276.7 343.873 278.268C345.077 279.836 345.679 281.712 345.679 283.896C345.679 285.604 345.273 287.116 344.461 288.432C343.649 289.72 342.515 290.728 341.059 291.456C339.603 292.156 337.895 292.506 335.935 292.506Z" fill="white"/>
<g opacity="0.5">
<g opacity="0.7" filter="url(#filter1_f_1023_2)">
<rect x="196.5" y="365.623" width="413.079" height="40.8916" transform="rotate(-45.9959 196.5 365.623)" fill="url(#paint0_linear_1023_2)" fill-opacity="0.2"/>
</g>
<g filter="url(#filter2_f_1023_2)">
<rect x="225.913" y="394.031" width="413.079" height="61.3123" transform="rotate(-45.9959 225.913 394.031)" fill="url(#paint1_linear_1023_2)" fill-opacity="0.4"/>
</g>
</g>
<g opacity="0.5">
<g opacity="0.7" filter="url(#filter3_f_1023_2)">
<rect x="-27" y="245.623" width="413.079" height="61.3123" transform="rotate(-45.9959 -27 245.623)" fill="url(#paint2_linear_1023_2)" fill-opacity="0.2"/>
</g>
<g opacity="0.5" filter="url(#filter4_f_1023_2)">
<rect x="17.1011" y="288.218" width="413.079" height="61.3123" transform="rotate(-45.9959 17.1011 288.218)" fill="url(#paint3_linear_1023_2)" fill-opacity="0.4"/>
</g>
</g>
</g>
</g>
<defs>
<filter id="filter0_d_1023_2" x="0.6" y="0.0999846" width="526.5" height="378" filterUnits="userSpaceOnUse" color-interpolation-filters="sRGB">
<feFlood flood-opacity="0" result="BackgroundImageFix"/>
<feColorMatrix in="SourceAlpha" type="matrix" values="0 0 0 0 0 0 0 0 0 0 0 0 0 0 0 0 0 0 127 0" result="hardAlpha"/>
<feOffset dx="3.6" dy="3.6"/>
<feGaussianBlur stdDeviation="4.5"/>
<feComposite in2="hardAlpha" operator="out"/>
<feColorMatrix type="matrix" values="0 0 0 0 0 0 0 0 0 0 0 0 0 0 0 0 0 0 0.1 0"/>
<feBlend mode="normal" in2="BackgroundImageFix" result="effect1_dropShadow_1023_2"/>
<feBlend mode="normal" in="SourceGraphic" in2="effect1_dropShadow_1023_2" result="shape"/>
</filter>
<filter id="filter1_f_1023_2" x="181.5" y="53.5001" width="346.383" height="355.531" filterUnits="userSpaceOnUse" color-interpolation-filters="sRGB">
<feFlood flood-opacity="0" result="BackgroundImageFix"/>
<feBlend mode="normal" in="SourceGraphic" in2="BackgroundImageFix" result="shape"/>
<feGaussianBlur stdDeviation="7.5" result="effect1_foregroundBlur_1023_2"/>
</filter>
<filter id="filter2_f_1023_2" x="210.913" y="81.9079" width="361.071" height="369.718" filterUnits="userSpaceOnUse" color-interpolation-filters="sRGB">
<feFlood flood-opacity="0" result="BackgroundImageFix"/>
<feBlend mode="normal" in="SourceGraphic" in2="BackgroundImageFix" result="shape"/>
<feGaussianBlur stdDeviation="7.5" result="effect1_foregroundBlur_1023_2"/>
</filter>
<filter id="filter3_f_1023_2" x="-42" y="-66.4999" width="361.071" height="369.718" filterUnits="userSpaceOnUse" color-interpolation-filters="sRGB">
<feFlood flood-opacity="0" result="BackgroundImageFix"/>
<feBlend mode="normal" in="SourceGraphic" in2="BackgroundImageFix" result="shape"/>
<feGaussianBlur stdDeviation="7.5" result="effect1_foregroundBlur_1023_2"/>
</filter>
<filter id="filter4_f_1023_2" x="2.10107" y="-23.9057" width="361.071" height="369.718" filterUnits="userSpaceOnUse" color-interpolation-filters="sRGB">
<feFlood flood-opacity="0" result="BackgroundImageFix"/>
<feBlend mode="normal" in="SourceGraphic" in2="BackgroundImageFix" result="shape"/>
<feGaussianBlur stdDeviation="7.5" result="effect1_foregroundBlur_1023_2"/>
</filter>
<linearGradient id="paint0_linear_1023_2" x1="403.039" y1="365.623" x2="403.039" y2="406.515" gradientUnits="userSpaceOnUse">
<stop stop-color="white" stop-opacity="0"/>
<stop offset="1" stop-color="white"/>
</linearGradient>
<linearGradient id="paint1_linear_1023_2" x1="432.452" y1="394.031" x2="432.452" y2="455.343" gradientUnits="userSpaceOnUse">
<stop/>
<stop offset="1" stop-opacity="0"/>
</linearGradient>
<linearGradient id="paint2_linear_1023_2" x1="179.539" y1="245.623" x2="179.539" y2="306.936" gradientUnits="userSpaceOnUse">
<stop stop-color="white" stop-opacity="0"/>
<stop offset="1" stop-color="white"/>
</linearGradient>
<linearGradient id="paint3_linear_1023_2" x1="223.64" y1="288.218" x2="223.64" y2="349.53" gradientUnits="userSpaceOnUse">
<stop/>
<stop offset="1" stop-opacity="0"/>
</linearGradient>
</defs>
</svg>
