<svg width="528" height="379" viewBox="0 0 528 379" fill="none" xmlns="http://www.w3.org/2000/svg">
<g filter="url(#filter0_d_1023_119)">
<mask id="mask0_1023_119" style="mask-type:alpha" maskUnits="userSpaceOnUse" x="6" y="6" width="509" height="360">
<ellipse cx="260.25" cy="186" rx="180" ry="254.25" transform="rotate(90 260.25 186)" fill="#0A4153"/>
</mask>
<g mask="url(#mask0_1023_119)">
<ellipse cx="260.25" cy="186" rx="180" ry="254.25" transform="rotate(90 260.25 186)" fill="#487500"/>
<path d="M496.94 186C496.94 230.335 470.853 270.805 427.999 300.322C385.158 329.831 325.805 348.18 260.099 348.18C194.392 348.18 135.039 329.831 92.1982 300.322C49.3439 270.805 23.2569 230.335 23.2568 186C23.2568 141.666 49.3439 101.195 92.1982 71.6779C135.04 42.1696 194.392 23.8195 260.099 23.8195C325.805 23.8195 385.158 42.1696 427.999 71.6779C470.853 101.195 496.94 141.666 496.94 186Z" stroke="#E8F9A4" stroke-width="6.12"/>
<path d="M180.584 72.1016L175.99 57.4762L184.404 54.8329L184.92 56.4758L178.289 58.5589L179.711 63.0868L185.641 61.2239L186.151 62.8467L180.221 64.7096L181.851 69.8986L188.482 67.8154L188.999 69.4583L180.584 72.1016ZM202.872 65.8724C201.889 66.094 201.005 66.1209 200.221 65.9532C199.451 65.7824 198.805 65.4328 198.284 64.9043C197.763 64.3759 197.4 63.6899 197.196 62.8462L199.04 62.4307C199.209 63.1819 199.596 63.719 200.199 64.0422C200.817 64.3623 201.583 64.4192 202.498 64.213C203.359 64.0191 203.98 63.6566 204.363 63.1255C204.759 62.5913 204.872 61.9486 204.703 61.1975C204.568 60.5965 204.285 60.1077 203.856 59.7308C203.44 59.3509 202.912 59.1399 202.271 59.0978L200.1 58.9198C199.005 58.8365 198.094 58.4892 197.368 57.8778C196.655 57.2635 196.187 56.4578 195.962 55.4608C195.781 54.655 195.801 53.9184 196.024 53.2511C196.257 52.5671 196.665 51.9873 197.246 51.5118C197.825 51.0226 198.558 50.678 199.446 50.478C200.757 50.1825 201.892 50.3143 202.85 50.8733C203.805 51.4186 204.427 52.2975 204.714 53.5099L202.871 53.9254C202.704 53.1879 202.35 52.6651 201.807 52.3569C201.274 52.032 200.605 51.9604 199.799 52.142C199.007 52.3205 198.429 52.6517 198.064 53.1357C197.714 53.6166 197.615 54.1985 197.769 54.8814C197.908 55.496 198.191 55.9917 198.621 56.3685C199.05 56.7453 199.594 56.9601 200.251 57.0128L202.448 57.2067C203.515 57.2961 204.407 57.6549 205.123 58.2829C205.838 58.911 206.31 59.7303 206.538 60.741C206.722 61.5604 206.693 62.3206 206.449 63.0213C206.205 63.7221 205.773 64.3217 205.154 64.8201C204.548 65.3154 203.787 65.6662 202.872 65.8724ZM220.323 62.1581L218.387 48.6674L214.229 49.2641L213.985 47.5596L224.17 46.0975L224.415 47.8021L220.258 48.3988L222.194 61.8895L220.323 62.1581ZM240.018 60.0234C239.487 60.059 239.05 59.9339 238.709 59.6481C238.381 59.3614 238.199 58.9597 238.165 58.4428C238.128 57.8981 238.253 57.4547 238.539 57.1128C238.838 56.77 239.254 56.5808 239.784 56.5452C240.315 56.5096 240.745 56.6421 241.074 56.9428C241.417 57.2425 241.606 57.6648 241.643 58.2096C241.678 58.7264 241.545 59.1492 241.244 59.4781C240.957 59.806 240.548 59.9878 240.018 60.0234ZM273.375 59.257L273.531 57.3313L278.6 52.7488C279.465 51.962 280.105 51.2554 280.521 50.629C280.938 49.9886 281.171 49.3614 281.221 48.7474C281.29 47.8962 281.107 47.2072 280.672 46.6803C280.251 46.1546 279.636 45.859 278.827 45.7934C277.934 45.721 277.209 45.9151 276.652 46.3756C276.109 46.8373 275.801 47.5076 275.73 48.3868L273.846 48.2341C273.949 47.3154 274.223 46.537 274.668 45.8988C275.128 45.2478 275.721 44.7692 276.449 44.4629C277.19 44.1578 278.028 44.0431 278.963 44.1189C279.883 44.1935 280.664 44.4393 281.305 44.8564C281.96 45.2607 282.443 45.8054 282.752 46.4907C283.062 47.1759 283.18 47.9721 283.107 48.8791C283.036 49.7443 282.737 50.5838 282.207 51.3977C281.678 52.2116 280.846 53.1204 279.711 54.124L275.628 57.7119L282.598 58.2767L282.459 59.9931L273.375 59.257ZM296.464 61.8183C295.537 61.6717 294.757 61.3639 294.122 60.895C293.504 60.4145 293.061 59.8128 292.792 59.09C292.526 58.3533 292.464 57.5356 292.606 56.6368L293.656 49.9993C293.801 49.0867 294.112 48.328 294.591 47.7233C295.069 47.1187 295.675 46.6902 296.41 46.4378C297.16 46.1739 297.999 46.1152 298.925 46.2617C299.865 46.4105 300.645 46.7252 301.263 47.2057C301.884 47.6724 302.329 48.2672 302.597 48.99C302.865 49.7128 302.927 50.5306 302.783 51.4432L301.733 58.0807C301.591 58.9795 301.279 59.7382 300.799 60.3567C300.32 60.9613 299.706 61.3957 298.955 61.6596C298.221 61.912 297.39 61.9648 296.464 61.8183ZM296.717 60.2211C297.546 60.3524 298.252 60.1947 298.833 59.748C299.43 59.2896 299.795 58.6387 299.928 57.7952L300.978 51.1577C301.112 50.3142 300.964 49.5893 300.536 48.9828C300.123 48.3648 299.502 47.9901 298.672 47.8589C297.843 47.7276 297.129 47.8912 296.533 48.3495C295.952 48.7962 295.594 49.4413 295.461 50.2848L294.411 56.9223C294.277 57.7658 294.417 58.4966 294.829 59.1146C295.258 59.721 295.887 60.0899 296.717 60.2211ZM297.501 55.2638C297.128 55.2047 296.842 55.039 296.644 54.7668C296.46 54.4967 296.399 54.1681 296.46 53.7809C296.519 53.4075 296.677 53.1277 296.933 52.9415C297.205 52.7436 297.528 52.6742 297.901 52.7333C298.275 52.7923 298.553 52.9569 298.737 53.227C298.937 53.4854 299.008 53.8013 298.949 54.1747C298.888 54.5619 298.721 54.8544 298.449 55.0523C298.19 55.2523 297.874 55.3228 297.501 55.2638ZM310.766 64.0212L311.17 62.3473L315.212 63.323L318.036 51.626L313.265 53.6715L313.757 51.6302L317.732 49.9324L320.243 50.5385L317.049 63.7665L320.356 64.5649L319.952 66.2388L310.766 64.0212ZM333.192 70.0945C332.004 69.7193 331.126 69.1044 330.559 68.25C329.992 67.3956 329.807 66.4266 330.002 65.3432L331.804 65.9123C331.69 66.5075 331.795 67.0327 332.121 67.488C332.452 67.93 332.984 68.2669 333.718 68.4988C334.559 68.7644 335.258 68.7356 335.815 68.4124C336.386 68.0935 336.802 67.5201 337.063 66.6924L337.512 65.2706C337.774 64.4429 337.763 63.7347 337.479 63.1458C337.208 62.5612 336.659 62.1382 335.831 61.8768C335.311 61.7124 334.813 61.7092 334.337 61.8673C333.865 62.012 333.471 62.284 333.154 62.683L331.352 62.1139L334.007 54.0554L341.697 56.4839L341.178 58.1259L335.231 56.2476L333.634 61.0947L334.195 61.2718L333.47 61.6154C333.668 60.9879 334.071 60.572 334.678 60.3675C335.3 60.1673 336.031 60.2 336.872 60.4656C338.064 60.8275 338.869 61.4855 339.287 62.4397C339.723 63.3848 339.732 64.5181 339.315 65.8398L338.866 67.2616C338.457 68.5565 337.752 69.4643 336.75 69.985C335.753 70.4922 334.567 70.5288 333.192 70.0945Z" fill="#E8F9A4"/>
<path d="M210.854 119.275C213.728 114.296 221.26 111.439 232.992 112.436C244.429 113.409 258.621 118.014 272.737 126.164C286.854 134.314 297.938 144.302 304.499 153.721C311.229 163.382 312.52 171.334 309.646 176.312C306.772 181.29 299.239 184.148 287.508 183.151C276.071 182.178 261.879 177.572 247.762 169.422C233.646 161.272 222.562 151.284 216.001 141.866C209.271 132.205 207.98 124.253 210.854 119.275Z" stroke="#AED76A" stroke-width="6.75"/>
<path d="M309.646 119.275C306.772 114.296 299.24 111.439 287.508 112.436C276.071 113.409 261.879 118.014 247.763 126.164C233.646 134.314 222.562 144.302 216.001 153.721C209.271 163.382 207.98 171.334 210.854 176.312C213.728 181.29 221.261 184.148 232.992 183.151C244.429 182.178 258.621 177.572 272.738 169.422C286.854 161.272 297.938 151.284 304.499 141.866C311.229 132.205 312.52 124.253 309.646 119.275Z" stroke="#AED76A" stroke-width="6.75"/>
<path d="M260.249 90.7556C265.997 90.7556 272.238 95.8498 277.24 106.509C282.116 116.9 285.225 131.492 285.225 147.793C285.225 164.093 282.117 178.687 277.24 189.078C272.238 199.736 265.997 204.831 260.249 204.831C254.501 204.831 248.26 199.736 243.258 189.078C238.382 178.687 235.274 164.093 235.274 147.793C235.274 131.492 238.382 116.9 243.258 106.509C248.26 95.8499 254.501 90.7558 260.249 90.7556Z" stroke="#AED76A" stroke-width="6.75"/>
<circle cx="260.581" cy="147.456" r="10.125" fill="#ADD76A"/>
<path d="M175.509 262.206V231.546H181.221L190.167 257.04C190.111 256.228 190.041 255.262 189.957 254.142C189.873 253.022 189.803 251.86 189.747 250.656C189.719 249.452 189.705 248.36 189.705 247.38V231.546H193.905V262.206H188.193L179.289 236.712C179.345 237.44 179.401 238.35 179.457 239.442C179.541 240.534 179.597 241.668 179.625 242.844C179.681 244.02 179.709 245.112 179.709 246.12V262.206H175.509ZM199.097 262.206L206.909 231.546H212.873L220.685 262.206H216.107L214.259 254.436H205.565L203.717 262.206H199.097ZM206.405 250.698H213.377L211.277 241.836C210.913 240.268 210.605 238.91 210.353 237.762C210.129 236.586 209.975 235.788 209.891 235.368C209.807 235.788 209.653 236.586 209.429 237.762C209.205 238.91 208.897 240.254 208.505 241.794L206.405 250.698ZM232.807 262.206V235.704H224.617V231.504H245.533V235.704H237.343V262.206H232.807ZM260.258 262.626C257.318 262.626 255.05 261.828 253.454 260.232C251.858 258.608 251.06 256.41 251.06 253.638V231.546H255.596V253.638C255.596 255.178 255.974 256.396 256.73 257.292C257.514 258.188 258.69 258.636 260.258 258.636C261.798 258.636 262.96 258.188 263.744 257.292C264.528 256.396 264.92 255.178 264.92 253.638V231.546H269.456V253.638C269.456 256.41 268.658 258.608 267.062 260.232C265.466 261.828 263.198 262.626 260.258 262.626ZM276.37 262.206V231.546H285.988C287.92 231.546 289.6 231.924 291.028 232.68C292.456 233.408 293.562 234.444 294.346 235.788C295.158 237.132 295.564 238.714 295.564 240.534C295.564 242.578 295.032 244.356 293.968 245.868C292.932 247.352 291.518 248.402 289.726 249.018L295.984 262.206H290.818L285.232 249.606H280.906V262.206H276.37ZM280.906 245.616H285.988C287.5 245.616 288.704 245.168 289.6 244.272C290.496 243.348 290.944 242.13 290.944 240.618C290.944 239.05 290.496 237.818 289.6 236.922C288.704 236.026 287.5 235.578 285.988 235.578H280.906V245.616ZM299.831 262.206L307.643 231.546H313.607L321.419 262.206H316.841L314.993 254.436H306.299L304.451 262.206H299.831ZM307.139 250.698H314.111L312.011 241.836C311.647 240.268 311.339 238.91 311.087 237.762C310.863 236.586 310.709 235.788 310.625 235.368C310.541 235.788 310.387 236.586 310.163 237.762C309.939 238.91 309.631 240.254 309.239 241.794L307.139 250.698ZM327.787 262.206V231.546H332.323V258.048H345.721V262.206H327.787ZM184.833 304.626C182.761 304.626 180.983 304.29 179.499 303.618C178.015 302.918 176.867 301.938 176.055 300.678C175.243 299.39 174.837 297.864 174.837 296.1H179.331C179.331 297.5 179.821 298.606 180.801 299.418C181.781 300.202 183.139 300.594 184.875 300.594C186.499 300.594 187.773 300.202 188.697 299.418C189.621 298.634 190.083 297.556 190.083 296.184C190.083 295.036 189.761 294.042 189.117 293.202C188.501 292.362 187.605 291.788 186.429 291.48L182.565 290.346C180.325 289.702 178.589 288.61 177.357 287.07C176.153 285.502 175.551 283.64 175.551 281.484C175.551 279.804 175.929 278.334 176.685 277.074C177.441 275.814 178.519 274.834 179.919 274.134C181.319 273.434 182.971 273.084 184.875 273.084C187.675 273.084 189.915 273.84 191.595 275.352C193.303 276.864 194.171 278.894 194.199 281.442H189.663C189.663 280.098 189.229 279.048 188.361 278.292C187.521 277.508 186.331 277.116 184.791 277.116C183.307 277.116 182.145 277.48 181.305 278.208C180.465 278.908 180.045 279.902 180.045 281.19C180.045 282.338 180.353 283.332 180.969 284.172C181.613 285.012 182.523 285.6 183.699 285.936L187.605 287.112C189.845 287.728 191.567 288.82 192.771 290.388C193.975 291.956 194.577 293.832 194.577 296.016C194.577 297.724 194.171 299.236 193.359 300.552C192.547 301.84 191.413 302.848 189.957 303.576C188.501 304.276 186.793 304.626 184.833 304.626ZM210.059 304.626C208.155 304.626 206.489 304.276 205.061 303.576C203.661 302.848 202.569 301.812 201.785 300.468C201.029 299.096 200.651 297.5 200.651 295.68V282.072C200.651 280.224 201.029 278.628 201.785 277.284C202.569 275.94 203.661 274.918 205.061 274.218C206.489 273.49 208.155 273.126 210.059 273.126C211.963 273.126 213.615 273.49 215.015 274.218C216.415 274.946 217.493 275.982 218.249 277.326C219.033 278.642 219.425 280.224 219.425 282.072H214.889C214.889 280.476 214.469 279.258 213.629 278.418C212.789 277.578 211.599 277.158 210.059 277.158C208.519 277.158 207.315 277.578 206.447 278.418C205.607 279.258 205.187 280.462 205.187 282.03V295.68C205.187 297.248 205.607 298.466 206.447 299.334C207.315 300.174 208.519 300.594 210.059 300.594C211.599 300.594 212.789 300.174 213.629 299.334C214.469 298.466 214.889 297.248 214.889 295.68H219.425C219.425 297.5 219.033 299.082 218.249 300.426C217.493 301.77 216.415 302.806 215.015 303.534C213.615 304.262 211.963 304.626 210.059 304.626ZM226.591 304.206V300.174H232.765V277.578H226.591V273.546H243.559V277.578H237.385V300.174H243.559V304.206H226.591ZM251.606 304.206V273.546H269.624V277.578H256.058V286.272H268.154V290.262H256.058V300.174H269.624V304.206H251.606ZM276.244 304.206V273.546H281.956L290.902 299.04C290.846 298.228 290.776 297.262 290.692 296.142C290.608 295.022 290.538 293.86 290.482 292.656C290.454 291.452 290.44 290.36 290.44 289.38V273.546H294.64V304.206H288.928L280.024 278.712C280.08 279.44 280.136 280.35 280.192 281.442C280.276 282.534 280.332 283.668 280.36 284.844C280.416 286.02 280.444 287.112 280.444 288.12V304.206H276.244ZM310.793 304.626C308.889 304.626 307.223 304.276 305.795 303.576C304.395 302.848 303.303 301.812 302.519 300.468C301.763 299.096 301.385 297.5 301.385 295.68V282.072C301.385 280.224 301.763 278.628 302.519 277.284C303.303 275.94 304.395 274.918 305.795 274.218C307.223 273.49 308.889 273.126 310.793 273.126C312.697 273.126 314.349 273.49 315.749 274.218C317.149 274.946 318.227 275.982 318.983 277.326C319.767 278.642 320.159 280.224 320.159 282.072H315.623C315.623 280.476 315.203 279.258 314.363 278.418C313.523 277.578 312.333 277.158 310.793 277.158C309.253 277.158 308.049 277.578 307.181 278.418C306.341 279.258 305.921 280.462 305.921 282.03V295.68C305.921 297.248 306.341 298.466 307.181 299.334C308.049 300.174 309.253 300.594 310.793 300.594C312.333 300.594 313.523 300.174 314.363 299.334C315.203 298.466 315.623 297.248 315.623 295.68H320.159C320.159 297.5 319.767 299.082 318.983 300.426C318.227 301.77 317.149 302.806 315.749 303.534C314.349 304.262 312.697 304.626 310.793 304.626ZM327.157 304.206V273.546H345.175V277.578H331.609V286.272H343.705V290.262H331.609V300.174H345.175V304.206H327.157Z" fill="white"/>
<g opacity="0.5">
<g opacity="0.7" filter="url(#filter1_f_1023_119)">
<rect x="196.5" y="366.123" width="413.079" height="40.8916" transform="rotate(-45.9959 196.5 366.123)" fill="url(#paint0_linear_1023_119)" fill-opacity="0.2"/>
</g>
<g filter="url(#filter2_f_1023_119)">
<rect x="225.913" y="394.531" width="413.079" height="61.3123" transform="rotate(-45.9959 225.913 394.531)" fill="url(#paint1_linear_1023_119)" fill-opacity="0.4"/>
</g>
</g>
<g opacity="0.5">
<g opacity="0.7" filter="url(#filter3_f_1023_119)">
<rect x="-27" y="246.123" width="413.079" height="61.3123" transform="rotate(-45.9959 -27 246.123)" fill="url(#paint2_linear_1023_119)" fill-opacity="0.2"/>
</g>
<g opacity="0.5" filter="url(#filter4_f_1023_119)">
<rect x="17.1011" y="288.718" width="413.079" height="61.3123" transform="rotate(-45.9959 17.1011 288.718)" fill="url(#paint3_linear_1023_119)" fill-opacity="0.4"/>
</g>
</g>
</g>
</g>
<defs>
<filter id="filter0_d_1023_119" x="0.6" y="0.6" width="526.5" height="378" filterUnits="userSpaceOnUse" color-interpolation-filters="sRGB">
<feFlood flood-opacity="0" result="BackgroundImageFix"/>
<feColorMatrix in="SourceAlpha" type="matrix" values="0 0 0 0 0 0 0 0 0 0 0 0 0 0 0 0 0 0 127 0" result="hardAlpha"/>
<feOffset dx="3.6" dy="3.6"/>
<feGaussianBlur stdDeviation="4.5"/>
<feComposite in2="hardAlpha" operator="out"/>
<feColorMatrix type="matrix" values="0 0 0 0 0 0 0 0 0 0 0 0 0 0 0 0 0 0 0.1 0"/>
<feBlend mode="normal" in2="BackgroundImageFix" result="effect1_dropShadow_1023_119"/>
<feBlend mode="normal" in="SourceGraphic" in2="effect1_dropShadow_1023_119" result="shape"/>
</filter>
<filter id="filter1_f_1023_119" x="181.5" y="54.0001" width="346.383" height="355.531" filterUnits="userSpaceOnUse" color-interpolation-filters="sRGB">
<feFlood flood-opacity="0" result="BackgroundImageFix"/>
<feBlend mode="normal" in="SourceGraphic" in2="BackgroundImageFix" result="shape"/>
<feGaussianBlur stdDeviation="7.5" result="effect1_foregroundBlur_1023_119"/>
</filter>
<filter id="filter2_f_1023_119" x="210.913" y="82.4078" width="361.071" height="369.718" filterUnits="userSpaceOnUse" color-interpolation-filters="sRGB">
<feFlood flood-opacity="0" result="BackgroundImageFix"/>
<feBlend mode="normal" in="SourceGraphic" in2="BackgroundImageFix" result="shape"/>
<feGaussianBlur stdDeviation="7.5" result="effect1_foregroundBlur_1023_119"/>
</filter>
<filter id="filter3_f_1023_119" x="-42" y="-65.9999" width="361.071" height="369.718" filterUnits="userSpaceOnUse" color-interpolation-filters="sRGB">
<feFlood flood-opacity="0" result="BackgroundImageFix"/>
<feBlend mode="normal" in="SourceGraphic" in2="BackgroundImageFix" result="shape"/>
<feGaussianBlur stdDeviation="7.5" result="effect1_foregroundBlur_1023_119"/>
</filter>
<filter id="filter4_f_1023_119" x="2.10107" y="-23.4057" width="361.071" height="369.718" filterUnits="userSpaceOnUse" color-interpolation-filters="sRGB">
<feFlood flood-opacity="0" result="BackgroundImageFix"/>
<feBlend mode="normal" in="SourceGraphic" in2="BackgroundImageFix" result="shape"/>
<feGaussianBlur stdDeviation="7.5" result="effect1_foregroundBlur_1023_119"/>
</filter>
<linearGradient id="paint0_linear_1023_119" x1="403.039" y1="366.123" x2="403.039" y2="407.015" gradientUnits="userSpaceOnUse">
<stop stop-color="white" stop-opacity="0"/>
<stop offset="1" stop-color="white"/>
</linearGradient>
<linearGradient id="paint1_linear_1023_119" x1="432.452" y1="394.531" x2="432.452" y2="455.843" gradientUnits="userSpaceOnUse">
<stop/>
<stop offset="1" stop-opacity="0"/>
</linearGradient>
<linearGradient id="paint2_linear_1023_119" x1="179.539" y1="246.123" x2="179.539" y2="307.436" gradientUnits="userSpaceOnUse">
<stop stop-color="white" stop-opacity="0"/>
<stop offset="1" stop-color="white"/>
</linearGradient>
<linearGradient id="paint3_linear_1023_119" x1="223.64" y1="288.718" x2="223.64" y2="350.03" gradientUnits="userSpaceOnUse">
<stop/>
<stop offset="1" stop-opacity="0"/>
</linearGradient>
</defs>
</svg>
