<svg width="528" height="379" viewBox="0 0 528 379" fill="none" xmlns="http://www.w3.org/2000/svg">
<g filter="url(#filter0_d_1023_53)">
<mask id="mask0_1023_53" style="mask-type:alpha" maskUnits="userSpaceOnUse" x="6" y="5" width="509" height="361">
<ellipse cx="260.25" cy="185.5" rx="180" ry="254.25" transform="rotate(90 260.25 185.5)" fill="#0A4153"/>
</mask>
<g mask="url(#mask0_1023_53)">
<ellipse cx="260.25" cy="185.5" rx="180" ry="254.25" transform="rotate(90 260.25 185.5)" fill="#0A4153"/>
<path d="M496.94 185.5C496.94 229.835 470.853 270.305 427.999 299.823C385.158 329.331 325.805 347.68 260.099 347.68C194.392 347.68 135.039 329.331 92.1982 299.822C49.3439 270.305 23.2569 229.835 23.2568 185.5C23.2568 141.166 49.3439 100.695 92.1982 71.178C135.04 41.6696 194.392 23.3196 260.099 23.3196C325.805 23.3196 385.158 41.6697 427.999 71.178C470.853 100.695 496.94 141.166 496.94 185.5Z" stroke="#83D6F1" stroke-width="6.12"/>
<path d="M180.584 71.6016L175.99 56.9762L184.404 54.3329L184.92 55.9758L178.289 58.0589L179.711 62.5868L185.641 60.7239L186.151 62.3467L180.221 64.2096L181.851 69.3986L188.482 67.3154L188.999 68.9583L180.584 71.6016ZM202.872 65.3724C201.889 65.594 201.005 65.6209 200.221 65.4532C199.451 65.2824 198.805 64.9328 198.284 64.4043C197.763 63.8759 197.4 63.1899 197.196 62.3462L199.04 61.9307C199.209 62.6819 199.596 63.219 200.199 63.5422C200.817 63.8623 201.583 63.9192 202.498 63.713C203.359 63.5191 203.98 63.1566 204.363 62.6255C204.759 62.0913 204.872 61.4486 204.703 60.6975C204.568 60.0965 204.285 59.6077 203.856 59.2308C203.44 58.8509 202.912 58.6399 202.271 58.5978L200.1 58.4198C199.005 58.3365 198.094 57.9892 197.368 57.3778C196.655 56.7635 196.187 55.9578 195.962 54.9608C195.781 54.155 195.801 53.4184 196.024 52.7511C196.257 52.0671 196.665 51.4873 197.246 51.0118C197.825 50.5226 198.558 50.178 199.446 49.978C200.757 49.6825 201.892 49.8143 202.85 50.3733C203.805 50.9186 204.427 51.7975 204.714 53.0099L202.871 53.4254C202.704 52.6879 202.35 52.1651 201.807 51.8569C201.274 51.532 200.605 51.4604 199.799 51.642C199.007 51.8205 198.429 52.1517 198.064 52.6357C197.714 53.1166 197.615 53.6985 197.769 54.3814C197.908 54.996 198.191 55.4917 198.621 55.8685C199.05 56.2453 199.594 56.4601 200.251 56.5128L202.448 56.7067C203.515 56.7961 204.407 57.1549 205.123 57.7829C205.838 58.411 206.31 59.2303 206.538 60.241C206.722 61.0604 206.693 61.8206 206.449 62.5213C206.205 63.2221 205.773 63.8217 205.154 64.3201C204.548 64.8154 203.787 65.1662 202.872 65.3724ZM220.323 61.6581L218.387 48.1674L214.229 48.7641L213.985 47.0596L224.17 45.5975L224.415 47.3021L220.258 47.8988L222.194 61.3895L220.323 61.6581ZM240.018 59.5234C239.487 59.559 239.05 59.4339 238.709 59.1481C238.381 58.8614 238.199 58.4597 238.165 57.9428C238.128 57.3981 238.253 56.9547 238.539 56.6128C238.838 56.27 239.254 56.0808 239.784 56.0452C240.315 56.0096 240.745 56.1421 241.074 56.4428C241.417 56.7425 241.606 57.1648 241.643 57.7096C241.678 58.2264 241.545 58.6492 241.244 58.9781C240.957 59.306 240.548 59.4878 240.018 59.5234ZM273.375 58.757L273.531 56.8313L278.6 52.2488C279.465 51.462 280.105 50.7554 280.521 50.129C280.938 49.4886 281.171 48.8614 281.221 48.2474C281.29 47.3962 281.107 46.7072 280.672 46.1803C280.251 45.6546 279.636 45.359 278.827 45.2934C277.934 45.221 277.209 45.4151 276.652 45.8756C276.109 46.3373 275.801 47.0076 275.73 47.8868L273.846 47.7341C273.949 46.8154 274.223 46.037 274.668 45.3988C275.128 44.7478 275.721 44.2692 276.449 43.9629C277.19 43.6578 278.028 43.5431 278.963 43.6189C279.883 43.6935 280.664 43.9393 281.305 44.3564C281.96 44.7607 282.443 45.3054 282.752 45.9907C283.062 46.6759 283.18 47.4721 283.107 48.3791C283.036 49.2443 282.737 50.0838 282.207 50.8977C281.678 51.7116 280.846 52.6204 279.711 53.624L275.628 57.2119L282.598 57.7767L282.459 59.4931L273.375 58.757ZM296.464 61.3183C295.537 61.1717 294.757 60.8639 294.122 60.395C293.504 59.9145 293.061 59.3128 292.792 58.59C292.526 57.8533 292.464 57.0356 292.606 56.1368L293.656 49.4993C293.801 48.5867 294.112 47.828 294.591 47.2233C295.069 46.6187 295.675 46.1902 296.41 45.9378C297.16 45.6739 297.999 45.6152 298.925 45.7617C299.865 45.9105 300.645 46.2252 301.263 46.7057C301.884 47.1724 302.329 47.7672 302.597 48.49C302.865 49.2128 302.927 50.0306 302.783 50.9432L301.733 57.5807C301.591 58.4795 301.279 59.2382 300.799 59.8567C300.32 60.4613 299.706 60.8957 298.955 61.1596C298.221 61.412 297.39 61.4648 296.464 61.3183ZM296.717 59.7211C297.546 59.8524 298.252 59.6947 298.833 59.248C299.43 58.7896 299.795 58.1387 299.928 57.2952L300.978 50.6577C301.112 49.8142 300.964 49.0893 300.536 48.4828C300.123 47.8648 299.502 47.4901 298.672 47.3589C297.843 47.2276 297.129 47.3912 296.533 47.8495C295.952 48.2962 295.594 48.9413 295.461 49.7848L294.411 56.4223C294.277 57.2658 294.417 57.9966 294.829 58.6146C295.258 59.221 295.887 59.5899 296.717 59.7211ZM297.501 54.7638C297.128 54.7047 296.842 54.539 296.644 54.2668C296.46 53.9967 296.399 53.6681 296.46 53.2809C296.519 52.9075 296.677 52.6277 296.933 52.4415C297.205 52.2436 297.528 52.1742 297.901 52.2333C298.275 52.2923 298.553 52.4569 298.737 52.727C298.937 52.9854 299.008 53.3013 298.949 53.6747C298.888 54.0619 298.721 54.3544 298.449 54.5523C298.19 54.7523 297.874 54.8228 297.501 54.7638ZM310.766 63.5212L311.17 61.8473L315.212 62.823L318.036 51.126L313.265 53.1715L313.757 51.1302L317.732 49.4324L320.243 50.0385L317.049 63.2665L320.356 64.0649L319.952 65.7388L310.766 63.5212ZM333.192 69.5945C332.004 69.2193 331.126 68.6044 330.559 67.75C329.992 66.8956 329.807 65.9266 330.002 64.8432L331.804 65.4123C331.69 66.0075 331.795 66.5327 332.121 66.988C332.452 67.43 332.984 67.7669 333.718 67.9988C334.559 68.2644 335.258 68.2356 335.815 67.9124C336.386 67.5935 336.802 67.0201 337.063 66.1924L337.512 64.7706C337.774 63.9429 337.763 63.2347 337.479 62.6458C337.208 62.0612 336.659 61.6382 335.831 61.3768C335.311 61.2124 334.813 61.2092 334.337 61.3673C333.865 61.512 333.471 61.784 333.154 62.183L331.352 61.6139L334.007 53.5554L341.697 55.9839L341.178 57.6259L335.231 55.7476L333.634 60.5947L334.195 60.7718L333.47 61.1154C333.668 60.4879 334.071 60.072 334.678 59.8675C335.3 59.6673 336.031 59.7 336.872 59.9656C338.064 60.3275 338.869 60.9855 339.287 61.9397C339.723 62.8848 339.732 64.0181 339.315 65.3398L338.866 66.7616C338.457 68.0565 337.752 68.9643 336.75 69.485C335.753 69.9922 334.567 70.0288 333.192 69.5945Z" fill="#83D6F1"/>
<path d="M339.721 142.389C336.617 144.436 333.248 146.484 329.616 148.531C326.049 150.513 322.45 152.395 318.817 154.179C315.184 155.962 311.816 157.58 308.712 159.033C305.607 160.42 302.965 161.51 300.786 162.302C298.606 163.095 297.186 163.491 296.526 163.491C295.139 163.491 293.917 163.062 292.86 162.203C291.803 161.345 291.275 160.288 291.275 159.033C291.275 157.976 292.332 156.655 294.445 155.07C296.625 153.485 299.465 151.702 302.965 149.72C306.466 147.739 310.33 145.625 314.557 143.38C318.85 141.134 323.11 138.822 327.337 136.445C323.837 134.199 320.369 132.085 316.935 130.104C313.566 128.123 310.462 126.339 307.622 124.754C304.848 123.103 302.635 121.683 300.984 120.494C299.333 119.239 298.507 118.248 298.507 117.522C298.507 116.003 298.969 114.748 299.894 113.757C300.819 112.766 302.239 112.271 304.154 112.271C304.683 112.271 305.838 112.634 307.622 113.361C309.405 114.087 311.585 115.078 314.161 116.333C316.736 117.588 319.51 119.041 322.483 120.692C325.521 122.277 328.526 123.962 331.498 125.745C334.536 127.528 337.343 129.311 339.919 131.095C341.24 132.019 342.132 132.977 342.594 133.968C343.123 134.892 343.387 135.784 343.387 136.643C343.387 137.633 343.09 138.624 342.495 139.615C341.967 140.54 341.042 141.464 339.721 142.389Z" fill="#42CAF5"/>
<path d="M234.836 196.086C233.383 196.086 232.26 195.425 231.468 194.104C230.675 192.85 230.279 191.43 230.279 189.844C230.279 188.854 230.807 186.971 231.864 184.197C232.921 181.489 234.341 178.154 236.124 174.191C237.973 170.162 240.087 165.77 242.465 161.014C244.842 156.193 247.385 151.206 250.093 146.055C252.801 140.837 255.509 135.652 258.217 130.5C260.991 125.349 263.666 120.461 266.242 115.838C268.818 111.214 271.196 107.086 273.375 103.454C274.234 102.133 275.257 100.977 276.446 99.9861C277.701 98.9954 279.088 98.5 280.607 98.5C282.126 98.5 283.348 99.1275 284.273 100.382C285.264 101.571 285.759 102.991 285.759 104.642C285.759 105.237 285.132 106.888 283.877 109.596C282.622 112.238 280.905 115.706 278.725 119.999C276.545 124.226 274.003 129.08 271.096 134.562C268.256 140.044 265.185 145.922 261.883 152.197C258.646 158.406 255.311 164.779 251.877 171.318C248.508 177.857 245.206 184.362 241.969 190.835C241.309 192.288 240.351 193.51 239.096 194.501C237.841 195.558 236.421 196.086 234.836 196.086Z" fill="#42CAF5"/>
<path d="M228.333 116.927C228.333 117.786 227.276 118.909 225.162 120.296C223.115 121.683 220.341 123.268 216.84 125.051C213.34 126.835 209.476 128.75 205.249 130.798C201.088 132.845 196.894 134.959 192.667 137.138C196.233 139.648 199.8 141.993 203.366 144.172C206.933 146.352 210.169 148.333 213.075 150.117C216.048 151.9 218.392 153.485 220.11 154.872C221.893 156.193 222.785 157.283 222.785 158.141C222.785 159.396 222.322 160.618 221.397 161.807C220.473 162.93 218.987 163.491 216.939 163.491C216.345 163.491 215.123 163.095 213.274 162.302C211.424 161.444 209.179 160.321 206.537 158.934C203.895 157.481 201.022 155.863 197.917 154.079C194.879 152.296 191.808 150.414 188.704 148.432C185.666 146.385 182.825 144.37 180.184 142.389C178.995 141.53 178.169 140.672 177.707 139.813C177.31 138.888 177.112 138.03 177.112 137.237C177.112 136.114 177.41 135.058 178.004 134.067C178.664 133.01 179.754 132.052 181.273 131.194C184.312 129.344 187.548 127.528 190.982 125.745C194.483 123.896 197.95 122.178 201.385 120.593C204.885 118.942 208.155 117.522 211.193 116.333C214.231 115.078 216.807 114.087 218.921 113.361C221.1 112.634 222.586 112.271 223.379 112.271C225.228 112.271 226.516 112.667 227.243 113.46C227.969 114.186 228.333 115.342 228.333 116.927Z" fill="#42CAF5"/>
<path d="M184.833 250.506C182.761 250.506 180.983 250.17 179.499 249.498C178.015 248.798 176.867 247.818 176.055 246.558C175.243 245.27 174.837 243.744 174.837 241.98H179.331C179.331 243.38 179.821 244.486 180.801 245.298C181.781 246.082 183.139 246.474 184.875 246.474C186.499 246.474 187.773 246.082 188.697 245.298C189.621 244.514 190.083 243.436 190.083 242.064C190.083 240.916 189.761 239.922 189.117 239.082C188.501 238.242 187.605 237.668 186.429 237.36L182.565 236.226C180.325 235.582 178.589 234.49 177.357 232.95C176.153 231.382 175.551 229.52 175.551 227.364C175.551 225.684 175.929 224.214 176.685 222.954C177.441 221.694 178.519 220.714 179.919 220.014C181.319 219.314 182.971 218.964 184.875 218.964C187.675 218.964 189.915 219.72 191.595 221.232C193.303 222.744 194.171 224.774 194.199 227.322H189.663C189.663 225.978 189.229 224.928 188.361 224.172C187.521 223.388 186.331 222.996 184.791 222.996C183.307 222.996 182.145 223.36 181.305 224.088C180.465 224.788 180.045 225.782 180.045 227.07C180.045 228.218 180.353 229.212 180.969 230.052C181.613 230.892 182.523 231.48 183.699 231.816L187.605 232.992C189.845 233.608 191.567 234.7 192.771 236.268C193.975 237.836 194.577 239.712 194.577 241.896C194.577 243.604 194.171 245.116 193.359 246.432C192.547 247.72 191.413 248.728 189.957 249.456C188.501 250.156 186.793 250.506 184.833 250.506ZM207.623 250.086V238.788L198.509 219.426H203.213L208.631 231.018C208.995 231.774 209.289 232.488 209.513 233.16C209.737 233.804 209.891 234.308 209.975 234.672C210.031 234.308 210.171 233.804 210.395 233.16C210.647 232.488 210.941 231.774 211.277 231.018L216.569 219.426H221.273L212.159 238.788V250.086H207.623ZM235.201 250.506C233.129 250.506 231.351 250.17 229.867 249.498C228.383 248.798 227.235 247.818 226.423 246.558C225.611 245.27 225.205 243.744 225.205 241.98H229.699C229.699 243.38 230.189 244.486 231.169 245.298C232.149 246.082 233.507 246.474 235.243 246.474C236.867 246.474 238.141 246.082 239.065 245.298C239.989 244.514 240.451 243.436 240.451 242.064C240.451 240.916 240.129 239.922 239.485 239.082C238.869 238.242 237.973 237.668 236.797 237.36L232.933 236.226C230.693 235.582 228.957 234.49 227.725 232.95C226.521 231.382 225.919 229.52 225.919 227.364C225.919 225.684 226.297 224.214 227.053 222.954C227.809 221.694 228.887 220.714 230.287 220.014C231.687 219.314 233.339 218.964 235.243 218.964C238.043 218.964 240.283 219.72 241.963 221.232C243.671 222.744 244.539 224.774 244.567 227.322H240.031C240.031 225.978 239.597 224.928 238.729 224.172C237.889 223.388 236.699 222.996 235.159 222.996C233.675 222.996 232.513 223.36 231.673 224.088C230.833 224.788 230.413 225.782 230.413 227.07C230.413 228.218 230.721 229.212 231.337 230.052C231.981 230.892 232.891 231.48 234.067 231.816L237.973 232.992C240.213 233.608 241.935 234.7 243.139 236.268C244.343 237.836 244.945 239.712 244.945 241.896C244.945 243.604 244.539 245.116 243.727 246.432C242.915 247.72 241.781 248.728 240.325 249.456C238.869 250.156 237.161 250.506 235.201 250.506ZM257.99 250.086V223.584H249.8V219.384H270.716V223.584H262.526V250.086H257.99ZM276.79 250.086V219.426H294.808V223.458H281.242V232.152H293.338V236.142H281.242V246.054H294.808V250.086H276.79ZM300.797 250.086V219.426H306.383L309.449 229.254C309.757 230.178 310.023 231.074 310.247 231.942C310.471 232.782 310.625 233.412 310.709 233.832C310.821 233.412 310.975 232.782 311.171 231.942C311.395 231.074 311.647 230.178 311.927 229.254L314.867 219.426H320.453V250.086H316.169V239.754C316.169 238.438 316.197 236.982 316.253 235.386C316.337 233.762 316.449 232.138 316.589 230.514C316.729 228.862 316.869 227.294 317.009 225.81C317.149 224.298 317.275 222.982 317.387 221.862L312.851 236.772H308.483L303.863 221.862C304.003 222.954 304.143 224.228 304.283 225.684C304.423 227.112 304.549 228.638 304.661 230.262C304.773 231.886 304.871 233.524 304.955 235.176C305.039 236.8 305.081 238.326 305.081 239.754V250.086H300.797ZM335.935 250.506C333.863 250.506 332.085 250.17 330.601 249.498C329.117 248.798 327.969 247.818 327.157 246.558C326.345 245.27 325.939 243.744 325.939 241.98H330.433C330.433 243.38 330.923 244.486 331.903 245.298C332.883 246.082 334.241 246.474 335.977 246.474C337.601 246.474 338.875 246.082 339.799 245.298C340.723 244.514 341.185 243.436 341.185 242.064C341.185 240.916 340.863 239.922 340.219 239.082C339.603 238.242 338.707 237.668 337.531 237.36L333.667 236.226C331.427 235.582 329.691 234.49 328.459 232.95C327.255 231.382 326.653 229.52 326.653 227.364C326.653 225.684 327.031 224.214 327.787 222.954C328.543 221.694 329.621 220.714 331.021 220.014C332.421 219.314 334.073 218.964 335.977 218.964C338.777 218.964 341.017 219.72 342.697 221.232C344.405 222.744 345.273 224.774 345.301 227.322H340.765C340.765 225.978 340.331 224.928 339.463 224.172C338.623 223.388 337.433 222.996 335.893 222.996C334.409 222.996 333.247 223.36 332.407 224.088C331.567 224.788 331.147 225.782 331.147 227.07C331.147 228.218 331.455 229.212 332.071 230.052C332.715 230.892 333.625 231.48 334.801 231.816L338.707 232.992C340.947 233.608 342.669 234.7 343.873 236.268C345.077 237.836 345.679 239.712 345.679 241.896C345.679 243.604 345.273 245.116 344.461 246.432C343.649 247.72 342.515 248.728 341.059 249.456C339.603 250.156 337.895 250.506 335.935 250.506ZM186.505 292.086L194.317 261.426H200.281L208.093 292.086H203.515L201.667 284.316H192.973L191.125 292.086H186.505ZM193.813 280.578H200.785L198.685 271.716C198.321 270.148 198.013 268.79 197.761 267.642C197.537 266.466 197.383 265.668 197.299 265.248C197.215 265.668 197.061 266.466 196.837 267.642C196.613 268.79 196.305 270.134 195.913 271.674L193.813 280.578ZM213.369 292.086V261.426H221.937C223.953 261.426 225.703 261.818 227.187 262.602C228.671 263.358 229.819 264.436 230.631 265.836C231.471 267.236 231.891 268.888 231.891 270.792V282.678C231.891 284.554 231.471 286.206 230.631 287.634C229.819 289.062 228.671 290.168 227.187 290.952C225.703 291.708 223.953 292.086 221.937 292.086H213.369ZM217.905 287.97H221.937C223.617 287.97 224.933 287.508 225.885 286.584C226.865 285.632 227.355 284.33 227.355 282.678V270.792C227.355 269.168 226.865 267.894 225.885 266.97C224.933 266.018 223.617 265.542 221.937 265.542H217.905V287.97ZM237.838 292.086V261.426H243.424L246.49 271.254C246.798 272.178 247.064 273.074 247.288 273.942C247.512 274.782 247.666 275.412 247.75 275.832C247.862 275.412 248.016 274.782 248.212 273.942C248.436 273.074 248.688 272.178 248.968 271.254L251.908 261.426H257.494V292.086H253.21V281.754C253.21 280.438 253.238 278.982 253.294 277.386C253.378 275.762 253.49 274.138 253.63 272.514C253.77 270.862 253.91 269.294 254.05 267.81C254.19 266.298 254.316 264.982 254.428 263.862L249.892 278.772H245.524L240.904 263.862C241.044 264.954 241.184 266.228 241.324 267.684C241.464 269.112 241.59 270.638 241.702 272.262C241.814 273.886 241.912 275.524 241.996 277.176C242.08 278.8 242.122 280.326 242.122 281.754V292.086H237.838ZM264.366 292.086V288.054H270.54V265.458H264.366V261.426H281.334V265.458H275.16V288.054H281.334V292.086H264.366ZM288.836 292.086V261.426H294.548L303.494 286.92C303.438 286.108 303.368 285.142 303.284 284.022C303.2 282.902 303.13 281.74 303.074 280.536C303.046 279.332 303.032 278.24 303.032 277.26V261.426H307.232V292.086H301.52L292.616 266.592C292.672 267.32 292.728 268.23 292.784 269.322C292.868 270.414 292.924 271.548 292.952 272.724C293.008 273.9 293.036 274.992 293.036 276V292.086H288.836ZM323.217 292.506C322.097 292.506 321.201 292.184 320.529 291.54C319.857 290.868 319.521 289.972 319.521 288.852C319.521 287.704 319.857 286.794 320.529 286.122C321.201 285.422 322.097 285.072 323.217 285.072C324.365 285.072 325.261 285.422 325.905 286.122C326.577 286.794 326.913 287.704 326.913 288.852C326.913 289.972 326.577 290.868 325.905 291.54C325.261 292.184 324.365 292.506 323.217 292.506Z" fill="white"/>
<g opacity="0.5">
<g opacity="0.7" filter="url(#filter1_f_1023_53)">
<rect x="196.5" y="365.623" width="413.079" height="40.8916" transform="rotate(-45.9959 196.5 365.623)" fill="url(#paint0_linear_1023_53)" fill-opacity="0.2"/>
</g>
<g filter="url(#filter2_f_1023_53)">
<rect x="225.913" y="394.031" width="413.079" height="61.3123" transform="rotate(-45.9959 225.913 394.031)" fill="url(#paint1_linear_1023_53)" fill-opacity="0.4"/>
</g>
</g>
<g opacity="0.5">
<g opacity="0.7" filter="url(#filter3_f_1023_53)">
<rect x="-27" y="245.623" width="413.079" height="61.3123" transform="rotate(-45.9959 -27 245.623)" fill="url(#paint2_linear_1023_53)" fill-opacity="0.2"/>
</g>
<g opacity="0.5" filter="url(#filter4_f_1023_53)">
<rect x="17.1011" y="288.218" width="413.079" height="61.3123" transform="rotate(-45.9959 17.1011 288.218)" fill="url(#paint3_linear_1023_53)" fill-opacity="0.4"/>
</g>
</g>
</g>
</g>
<defs>
<filter id="filter0_d_1023_53" x="0.6" y="0.0999999" width="526.5" height="378" filterUnits="userSpaceOnUse" color-interpolation-filters="sRGB">
<feFlood flood-opacity="0" result="BackgroundImageFix"/>
<feColorMatrix in="SourceAlpha" type="matrix" values="0 0 0 0 0 0 0 0 0 0 0 0 0 0 0 0 0 0 127 0" result="hardAlpha"/>
<feOffset dx="3.6" dy="3.6"/>
<feGaussianBlur stdDeviation="4.5"/>
<feComposite in2="hardAlpha" operator="out"/>
<feColorMatrix type="matrix" values="0 0 0 0 0 0 0 0 0 0 0 0 0 0 0 0 0 0 0.1 0"/>
<feBlend mode="normal" in2="BackgroundImageFix" result="effect1_dropShadow_1023_53"/>
<feBlend mode="normal" in="SourceGraphic" in2="effect1_dropShadow_1023_53" result="shape"/>
</filter>
<filter id="filter1_f_1023_53" x="181.5" y="53.4999" width="346.383" height="355.531" filterUnits="userSpaceOnUse" color-interpolation-filters="sRGB">
<feFlood flood-opacity="0" result="BackgroundImageFix"/>
<feBlend mode="normal" in="SourceGraphic" in2="BackgroundImageFix" result="shape"/>
<feGaussianBlur stdDeviation="7.5" result="effect1_foregroundBlur_1023_53"/>
</filter>
<filter id="filter2_f_1023_53" x="210.913" y="81.9078" width="361.071" height="369.718" filterUnits="userSpaceOnUse" color-interpolation-filters="sRGB">
<feFlood flood-opacity="0" result="BackgroundImageFix"/>
<feBlend mode="normal" in="SourceGraphic" in2="BackgroundImageFix" result="shape"/>
<feGaussianBlur stdDeviation="7.5" result="effect1_foregroundBlur_1023_53"/>
</filter>
<filter id="filter3_f_1023_53" x="-42" y="-66.5001" width="361.071" height="369.718" filterUnits="userSpaceOnUse" color-interpolation-filters="sRGB">
<feFlood flood-opacity="0" result="BackgroundImageFix"/>
<feBlend mode="normal" in="SourceGraphic" in2="BackgroundImageFix" result="shape"/>
<feGaussianBlur stdDeviation="7.5" result="effect1_foregroundBlur_1023_53"/>
</filter>
<filter id="filter4_f_1023_53" x="2.10107" y="-23.9058" width="361.071" height="369.718" filterUnits="userSpaceOnUse" color-interpolation-filters="sRGB">
<feFlood flood-opacity="0" result="BackgroundImageFix"/>
<feBlend mode="normal" in="SourceGraphic" in2="BackgroundImageFix" result="shape"/>
<feGaussianBlur stdDeviation="7.5" result="effect1_foregroundBlur_1023_53"/>
</filter>
<linearGradient id="paint0_linear_1023_53" x1="403.039" y1="365.623" x2="403.039" y2="406.515" gradientUnits="userSpaceOnUse">
<stop stop-color="white" stop-opacity="0"/>
<stop offset="1" stop-color="white"/>
</linearGradient>
<linearGradient id="paint1_linear_1023_53" x1="432.452" y1="394.031" x2="432.452" y2="455.343" gradientUnits="userSpaceOnUse">
<stop/>
<stop offset="1" stop-opacity="0"/>
</linearGradient>
<linearGradient id="paint2_linear_1023_53" x1="179.539" y1="245.623" x2="179.539" y2="306.936" gradientUnits="userSpaceOnUse">
<stop stop-color="white" stop-opacity="0"/>
<stop offset="1" stop-color="white"/>
</linearGradient>
<linearGradient id="paint3_linear_1023_53" x1="223.64" y1="288.218" x2="223.64" y2="349.53" gradientUnits="userSpaceOnUse">
<stop/>
<stop offset="1" stop-opacity="0"/>
</linearGradient>
</defs>
</svg>
