<?xml version="1.0" encoding="UTF-8"?>
<svg version="1.1" xmlns="http://www.w3.org/2000/svg" width="2560" height="791">
<path d="M0 0 C844.8 0 1689.6 0 2560 0 C2560 261.03 2560 522.06 2560 791 C1715.2 791 870.4 791 0 791 C0 529.97 0 268.94 0 0 Z " fill="#000000" transform="translate(0,0)"/>
<path d="M0 0 C0.86213104 -0.00350607 1.72426208 -0.00701215 2.61251831 -0.01062447 C5.49731062 -0.01991781 8.38190015 -0.01502045 11.26670074 -0.01015663 C13.35760236 -0.01389395 15.44850258 -0.01849579 17.53940058 -0.02388728 C23.28245147 -0.03612297 29.02544414 -0.03585612 34.7685051 -0.03349853 C40.96369322 -0.0330905 47.15886264 -0.04412831 53.35404205 -0.05361366 C65.49165574 -0.07022859 77.62924293 -0.07574939 89.76686567 -0.07683842 C99.63496228 -0.07775802 109.50305259 -0.0818774 119.37114716 -0.08823967 C122.21323474 -0.09003481 125.05532232 -0.09181444 127.89740992 -0.09358943 C128.95729647 -0.09425257 128.95729647 -0.09425257 130.03859487 -0.09492911 C149.91228531 -0.10723647 169.78597356 -0.11513037 189.65966797 -0.11424255 C190.78341005 -0.11419582 190.78341005 -0.11419582 191.92985399 -0.11414814 C195.72676702 -0.11398193 199.52368004 -0.11378385 203.32059306 -0.11357872 C204.07464853 -0.11353883 204.82870401 -0.11349894 205.60560965 -0.11345784 C207.13049483 -0.11337697 208.65538001 -0.11329337 210.1802652 -0.11320706 C233.89289879 -0.11198217 257.60547513 -0.12698365 281.31809235 -0.15435219 C307.97136503 -0.18510222 334.6246001 -0.20228285 361.27789164 -0.20042574 C364.12249406 -0.20027649 366.96709648 -0.20017907 369.81169891 -0.20011711 C370.51208859 -0.2000938 371.21247826 -0.20007049 371.93409186 -0.20004648 C383.18521406 -0.19998504 394.4362864 -0.21273467 405.68739379 -0.22998164 C417.00529689 -0.24697152 428.32310763 -0.24854402 439.64102358 -0.235763 C445.76753314 -0.22923991 451.89386285 -0.22909254 458.02035522 -0.2464695 C463.6363999 -0.26223434 469.25212261 -0.25930147 474.86815959 -0.24190123 C476.8924193 -0.23883884 478.91670324 -0.24243479 480.94093436 -0.25362138 C501.08143791 -0.35749165 518.6490341 2.40490568 533.84152985 16.85101891 C543.90201771 27.44462664 549.20299418 40.31758826 549.28490448 54.92645836 C549.28984299 55.57348866 549.2947815 56.22051897 549.29986966 56.88715625 C549.31517519 59.04828517 549.32359465 61.20938424 549.33200836 63.37055016 C549.34159755 64.93296239 549.35160006 66.49537214 549.36198139 68.05777931 C549.38909061 72.32927912 549.41009554 76.60078996 549.42997122 80.87232876 C549.45216679 85.43529237 549.47972965 89.99822418 549.50647736 94.56116295 C549.56310927 104.41749606 549.6121586 114.27385805 549.6595192 124.13023949 C549.68891348 130.24098905 549.72001995 136.35172921 549.7513504 142.4624691 C549.89556078 170.72732778 550.019573 198.99224577 550.1266861 227.25726891 C550.13178161 228.59545362 550.13178161 228.59545362 550.13698006 229.96067238 C550.21802965 251.31600186 550.27976561 272.67125099 550.3053413 294.02672148 C550.31126307 298.64525171 550.32217186 303.26375307 550.33496857 307.88226891 C550.35152008 314.03910864 550.35779345 320.19587455 550.35594559 326.35273552 C550.35672903 328.5483113 550.36072846 330.74388925 550.36855698 332.93945122 C550.4050988 343.90981552 550.15259354 354.7797403 549.22556305 365.71527672 C549.14641505 366.65326984 549.06726706 367.59126297 548.98572063 368.55768013 C546.86881755 391.14406364 537.12368642 412.86354274 519.49143219 427.62640953 C496.83196721 445.5286034 470.58199975 448.41938538 442.600914 448.39098167 C440.84280825 448.39285275 439.08470291 448.39515463 437.32659823 448.397847 C432.52191529 448.40393485 427.71724983 448.40383497 422.91256392 448.40265262 C417.72013116 448.40244785 412.52770391 448.4079747 407.33527374 448.41271019 C397.17174777 448.42100095 387.00822761 448.42376433 376.84469854 448.42432257 C368.57855625 448.42479851 360.31241587 448.42685718 352.04627419 448.43002319 C328.58429397 448.43882578 305.12231831 448.44344323 281.66033643 448.44269272 C280.3966659 448.44265276 279.13299537 448.44261281 277.8310318 448.44257164 C275.93319791 448.44251032 275.93319791 448.44251032 273.99702395 448.44244776 C253.50202603 448.44204149 233.0070465 448.45160725 212.5120539 448.46571001 C191.44249973 448.48009312 170.37295453 448.48697911 149.30339533 448.48611623 C137.48473335 448.48578491 125.66609064 448.48850342 113.84743309 448.49929428 C103.78313119 448.50842481 93.71885731 448.51055366 83.65455305 448.50378486 C78.52614642 448.5005324 73.39779345 448.5004166 68.26939201 448.50913811 C63.56198484 448.51706085 58.85467337 448.51551346 54.14726836 448.50685398 C52.45685561 448.50533158 50.76643551 448.50708672 49.07603144 448.51271405 C40.30979188 448.53993147 31.66552366 448.25217087 22.94061375 447.35509777 C22.1676318 447.27601151 21.39464986 447.19692525 20.59824422 447.11544244 C-1.36681029 444.63680337 -21.75715423 434.26657853 -36.2483139 417.51117516 C-50.70751375 399.11965914 -56.21374829 377.92941308 -56.12728119 354.86041832 C-56.13040117 353.56414591 -56.13352115 352.26787351 -56.13673568 350.93232012 C-56.14501673 347.36826479 -56.14098919 343.80431778 -56.13476324 340.24026227 C-56.1302121 336.38334976 -56.13723563 332.52645503 -56.14272308 328.66954613 C-56.15159046 321.12726469 -56.14970695 313.58502319 -56.1438978 306.04274023 C-56.13937084 299.9099262 -56.13877288 293.77712331 -56.14094543 287.64430809 C-56.1412519 286.76960913 -56.14155837 285.89491017 -56.14187412 284.99370518 C-56.14251361 283.21646336 -56.14316203 281.43922155 -56.1438193 279.66197973 C-56.14951482 263.0184656 -56.14297694 246.37497353 -56.13221857 229.73146302 C-56.12328377 215.46775575 -56.12483603 201.20408105 -56.13405609 186.94037437 C-56.14477249 170.35415534 -56.14896557 153.76795562 -56.14283156 137.18173361 C-56.1421945 135.41123232 -56.14156576 133.64073102 -56.14094543 131.87022972 C-56.14063688 130.99923516 -56.14032833 130.12824061 -56.14001043 129.23085228 C-56.1382876 123.10934811 -56.1411897 116.98785625 -56.14590454 110.86635399 C-56.15152861 103.40065481 -56.14996493 95.93499765 -56.13934305 88.46930325 C-56.13410683 84.66425905 -56.13199443 80.85928478 -56.13864136 77.05424118 C-56.14575244 72.92080708 -56.13722988 68.78754774 -56.12728119 64.65411949 C-56.13174263 63.46382842 -56.13620408 62.27353734 -56.14080071 61.04717684 C-56.05711418 43.06424409 -52.00598598 29.60343464 -39.91628265 16.06586266 C-29.33518909 5.72754753 -14.66668644 -0.07637201 0 0 Z " fill="#D2D0C7" transform="translate(231.8733139038086,171.74273109436035)"/>
<path d="M0 0 C844.8 0 1689.6 0 2560 0 C2560 261.03 2560 522.06 2560 791 C1715.2 791 870.4 791 0 791 C0 529.97 0 268.94 0 0 Z M160 17 C159.07714306 17.07520127 158.15428612 17.15040253 157.20346382 17.22788262 C124.65488341 19.92011651 93.83213554 31.56741466 69 53 C68.44473633 53.47163574 67.88947266 53.94327148 67.31738281 54.42919922 C43.26416843 75.01735634 27.80903785 103.32135144 20.8125 134 C20.6575708 134.67458252 20.5026416 135.34916504 20.34301758 136.04418945 C17.62074022 148.67454867 16.5762245 161.54049749 15.89117432 174.41711426 C15.84923125 175.18352252 15.80728818 175.94993077 15.76407412 176.73956352 C14.78424332 195.00786025 14.71245348 213.26245107 14.73855066 231.55237556 C14.7431755 236.37456765 14.73604305 241.19674685 14.73059082 246.01893616 C14.7217995 255.41084507 14.72357228 264.80272163 14.7294161 274.1946317 C14.73397367 281.84268334 14.73452804 289.49072606 14.73236847 297.13877869 C14.732062 298.23642688 14.73175554 299.33407508 14.73143978 300.46498534 C14.73080019 302.69636079 14.73015176 304.92773624 14.7294946 307.15911168 C14.72382137 327.97531739 14.7303016 348.79150536 14.74109533 369.60770816 C14.75002808 387.38382603 14.74847519 405.15991776 14.73925781 422.93603516 C14.7285016 443.68893821 14.72437041 464.44182579 14.73048234 485.19473124 C14.73111929 487.41689459 14.73174804 489.63905795 14.73236847 491.86122131 C14.73267702 492.95394434 14.73298557 494.04666736 14.73330347 495.1725032 C14.73501445 502.79184009 14.73215026 510.41116698 14.72740936 518.03050232 C14.72174057 527.34385126 14.72344068 536.6571666 14.73397085 545.97051179 C14.73914831 550.7022132 14.74142403 555.43385905 14.73467255 560.16555977 C14.71101133 578.33302816 14.89906987 596.44723479 15.89898682 614.59069824 C15.95804473 615.68653798 15.95804473 615.68653798 16.01829574 616.8045159 C17.04082984 635.27130122 18.65029122 654.50346703 25 672 C25.4019458 673.1135083 25.4019458 673.1135083 25.81201172 674.24951172 C40.208424 713.5612941 67.04545935 743.04760913 105 761 C134.19619955 774.27169479 168.23499497 776.17815101 199.87030953 776.1276505 C201.42201624 776.1288965 202.97372264 776.1305792 204.52542846 776.13265286 C208.77118842 776.13707291 213.01692637 776.13533605 217.26268688 776.13255108 C221.90591282 776.1306194 226.54913464 776.13451677 231.19235942 776.13764787 C239.35551894 776.14235206 247.5186724 776.14334859 255.68183305 776.14191952 C267.90271455 776.13979586 280.12358978 776.14341532 292.34447031 776.1481343 C313.17401789 776.15600364 334.00356376 776.15909614 354.83311272 776.15958023 C375.94328132 776.16008266 397.05344824 776.16272343 418.16361618 776.16798782 C419.51027625 776.16832136 420.85693632 776.16865483 422.20359638 776.16898823 C427.63350113 776.17033638 433.06340588 776.17169968 438.49331062 776.17308033 C498.19672152 776.18823954 557.90013194 776.1950221 617.60354447 776.1995023 C618.3585546 776.19955899 619.11356474 776.19961568 619.89145396 776.19967409 C623.71054511 776.19996061 627.52963626 776.20024564 631.34872741 776.2005282 C663.36178988 776.20290446 695.37485214 776.20661437 727.38791444 776.2105653 C742.724743 776.21245794 758.06157156 776.21428645 773.39840013 776.2160995 C774.16120122 776.21618969 774.92400232 776.21627988 775.7099186 776.2163728 C812.42190173 776.22070894 849.13388489 776.22463728 885.84586811 776.22809982 C886.62898168 776.2281737 887.41209526 776.22824757 888.21893954 776.22832368 C938.12144 776.23301818 988.02394039 776.23584148 1037.92644103 776.2374866 C1042.01731183 776.23762218 1046.10818262 776.23776121 1050.19905342 776.23790014 C1056.75760403 776.23812262 1063.31615465 776.23834398 1069.87470526 776.23856402 C1070.6874125 776.23859129 1071.50011975 776.23861856 1072.33745448 776.23864666 C1073.97999483 776.23870177 1075.62253519 776.23875688 1077.26507554 776.23881199 C1088.78682516 776.2391986 1100.30857477 776.23958655 1111.83032439 776.23998112 C1115.9530143 776.24012223 1120.0757042 776.24026231 1124.19839411 776.24040002 C1202.04494292 776.24300364 1279.89148975 776.24832969 1357.73803711 776.26428223 C1358.96693097 776.26453392 1358.96693097 776.26453392 1360.22065096 776.26479069 C1385.81775499 776.27004133 1411.41485894 776.27561571 1437.01196289 776.28125 C1463.27719972 776.28703121 1489.54243655 776.29276187 1515.80767345 776.29820633 C1516.61644668 776.29837414 1517.4252199 776.29854194 1518.25850141 776.29871484 C1568.93282613 776.30921249 1619.6071503 776.31607088 1670.28147602 776.31907272 C1671.06447063 776.31911953 1671.84746523 776.31916635 1672.65418694 776.31921458 C1707.04619276 776.32126551 1741.43819855 776.32250937 1775.83020442 776.32286063 C1789.66747386 776.32300389 1803.50474329 776.32324255 1817.34201272 776.32352469 C1819.63621827 776.32357022 1821.93042382 776.32361187 1824.22462937 776.3236528 C1859.28880418 776.32429839 1894.35297671 776.32724588 1929.41715026 776.33711338 C1930.17248369 776.33732575 1930.92781712 776.33753812 1931.70603944 776.33775693 C1943.85527747 776.34118539 1956.00451543 776.34479846 1968.1537534 776.34843333 C2002.67083961 776.35875531 2037.18792299 776.36752531 2071.70501101 776.36558867 C2072.40643531 776.36554993 2073.1078596 776.36551119 2073.83053918 776.36547127 C2089.1390706 776.36459439 2104.4476018 776.36288173 2119.75613303 776.36035165 C2125.86307585 776.359355 2131.97001868 776.35846831 2138.07696152 776.35761642 C2138.74309664 776.35752054 2139.40923176 776.35742465 2140.0955528 776.35732586 C2161.80776702 776.35425416 2183.51996574 776.36126532 2205.23217663 776.37318979 C2225.94364258 776.38435407 2246.65508584 776.38473838 2267.36655216 776.37381961 C2279.49375572 776.36774511 2291.62089063 776.36975911 2303.74808766 776.38407158 C2311.82446043 776.39277237 2319.90078321 776.39038716 2327.97715299 776.37937287 C2332.54111301 776.37344785 2337.10493948 776.37184913 2341.6688901 776.38405773 C2359.34093224 776.42809118 2376.88330304 776.10304667 2394.50268632 774.64862895 C2395.60498808 774.55960057 2395.60498808 774.55960057 2396.72955856 774.46877363 C2438.55212268 771.00190409 2477.13795569 755.78386306 2505.55859375 724.15234375 C2507.78301109 721.48529361 2509.91312005 718.77563281 2512 716 C2512.59039063 715.22527344 2513.18078125 714.45054687 2513.7890625 713.65234375 C2523.15468224 700.84411036 2529.81601285 686.9420806 2535 672 C2535.38929688 670.89914062 2535.77859375 669.79828125 2536.1796875 668.6640625 C2543.21658681 646.57147164 2544.15645267 622.75821061 2544.13371277 599.74932861 C2544.13558458 597.93673841 2544.13788675 596.12414861 2544.14057809 594.31155944 C2544.1466571 589.3652876 2544.14656712 584.41903277 2544.14538372 579.47275805 C2544.14517871 574.1241243 2544.15070808 568.77549587 2544.15544128 563.42686462 C2544.16372775 552.95913361 2544.16649525 542.49140824 2544.16705366 532.02367422 C2544.16752992 523.50640039 2544.16959015 514.98912841 2544.17275429 506.47185516 C2544.18155659 482.28242551 2544.18617451 458.09300028 2544.18542381 433.90356901 C2544.18538386 432.60105042 2544.1853439 431.29853182 2544.18530273 429.95654297 C2544.18526185 428.65241895 2544.18522097 427.34829493 2544.18517885 426.00465199 C2544.18477285 404.89372386 2544.19433207 383.78281361 2544.2084411 362.67189065 C2544.22283978 340.9547423 2544.22970932 319.23760264 2544.22884732 297.5204494 C2544.22851649 285.34444851 2544.23121358 273.16846635 2544.24202538 260.99246979 C2544.2511766 250.62062927 2544.25326808 240.24881595 2544.24651595 229.87697312 C2544.24327348 224.59579086 2544.24311066 219.31466066 2544.2518692 214.03348351 C2544.34107476 156.50716269 2540.39088639 104.51290348 2499.5625 60.55859375 C2495.32556109 56.32811359 2490.75276191 52.63170084 2486 49 C2485.14921875 48.33355469 2484.2984375 47.66710938 2483.421875 46.98046875 C2465.39321464 33.29703941 2444.19190567 24.30289037 2422 20 C2421.29214355 19.86255371 2420.58428711 19.72510742 2419.85498047 19.58349609 C2392.58646218 14.51125367 2364.60989077 14.69900488 2336.97864597 14.74518268 C2332.34371681 14.7506384 2327.70879939 14.74425262 2323.07387149 14.73950899 C2314.94871885 14.73277327 2306.82359313 14.73334929 2298.69843996 14.73887607 C2286.53478449 14.74711227 2274.37115058 14.74368861 2262.20749459 14.73811079 C2241.46980486 14.72893825 2220.73212496 14.72919738 2199.99443436 14.73467255 C2178.99216135 14.74018371 2157.9898947 14.74134511 2136.98762131 14.73719788 C2136.32382561 14.73706885 2135.66002992 14.73693982 2134.9761192 14.73680688 C2128.89232352 14.73562371 2122.80852784 14.73439589 2116.72473218 14.73311446 C2101.47250933 14.72990709 2086.2202864 14.72739467 2070.96806335 14.72535372 C2069.91997155 14.72521301 2069.91997155 14.72521301 2068.85070617 14.72506947 C2034.44965453 14.72051744 2000.04860405 14.72358181 1965.64755249 14.72740936 C1964.14154519 14.72757664 1962.63553788 14.7277439 1961.12953058 14.72791115 C1960.00994821 14.72803552 1960.00994821 14.72803552 1958.86774802 14.7281624 C1949.02411509 14.72925551 1939.18048215 14.73032874 1929.33684921 14.73134899 C1928.58435086 14.73142731 1927.8318525 14.73150564 1927.05655117 14.73158633 C1892.1523715 14.73519215 1857.2481924 14.73433068 1822.34401265 14.73248808 C1818.53382467 14.73228848 1814.7236367 14.73209749 1810.91344873 14.73190553 C1799.42850075 14.73132432 1787.94355277 14.73073044 1776.45860479 14.73011033 C1741.43814723 14.72822146 1706.41768966 14.72702084 1671.39723206 14.72641373 C1670.61754038 14.72639999 1669.8378487 14.72638625 1669.03453 14.7263721 C1618.55568878 14.72549489 1568.07684822 14.72769477 1517.5980072 14.73211288 C1516.79241065 14.73218312 1515.98681411 14.73225336 1515.15680554 14.73232572 C1488.17495775 14.73467828 1461.19310998 14.73719049 1434.21126221 14.73971898 C1352.62314233 14.74735951 1271.03502476 14.75154705 1125.32731375 14.73948832 C1098.35220677 14.73696182 1071.37709979 14.73446473 1044.4019928 14.73211288 C1043.59662136 14.7320424 1042.79124992 14.73197191 1041.96147328 14.73189928 C991.50857142 14.72748723 941.05567 14.72552483 890.60276794 14.72641373 C889.82333808 14.72642724 889.04390821 14.72644075 888.24085926 14.72645467 C853.23969992 14.72706817 818.23854062 14.7283449 783.23738133 14.73023473 C771.75756704 14.7308538 760.27775275 14.73144248 748.79793846 14.73202083 C744.98995025 14.73221281 741.18196205 14.73240752 737.37397384 14.73260855 C702.47036587 14.7344455 667.56675866 14.73498185 632.66315079 14.73134899 C631.5351219 14.73123208 631.5351219 14.73123208 630.38430455 14.7311128 C620.5463595 14.73008929 610.70841446 14.72900399 600.87046942 14.72791115 C600.12467378 14.72782833 599.37887814 14.7277455 598.61048262 14.72766016 C597.10585004 14.72749304 595.60121746 14.72732578 594.09658488 14.72715837 C559.7417017 14.72334591 525.38681988 14.72074165 491.03193665 14.72535372 C490.3341334 14.72544709 489.63633014 14.72554047 488.91738134 14.72563667 C473.68979379 14.72769748 458.46220639 14.73033689 443.23461904 14.73354428 C437.16053893 14.73481597 431.08645882 14.7360172 425.01237869 14.73719788 C424.01854788 14.73739412 424.01854788 14.73739412 423.00463968 14.73759434 C401.39307043 14.74182827 379.78150816 14.73936575 358.16993946 14.73365986 C337.56427903 14.72836239 316.95862948 14.73023902 296.35297042 14.73968804 C284.28161981 14.74501277 272.21029911 14.74493586 260.13894995 14.73672485 C252.10734296 14.73181331 244.0757591 14.73423858 236.04415489 14.74245855 C231.50080731 14.74690872 226.95751896 14.74841843 222.41417418 14.74082552 C201.51303911 14.70830805 180.83918608 15.2611699 160 17 Z " fill="#B0B2B5" transform="translate(0,0)"/>
<path d="M0 0 C2.00885746 -0.00302255 4.01771377 -0.00691255 6.02656806 -0.01159257 C11.53339353 -0.02186788 17.04015387 -0.01969192 22.54698467 -0.01541197 C28.49120472 -0.01294393 34.43540911 -0.02195988 40.37962341 -0.02944946 C52.01964445 -0.04219611 63.65964726 -0.04399601 75.2996733 -0.0416492 C84.76110091 -0.03981496 94.22252175 -0.04157889 103.68394852 -0.04587364 C105.04433372 -0.04647605 106.40471892 -0.04707725 107.76510412 -0.04767724 C109.81519139 -0.04858452 111.86527866 -0.04949319 113.91536593 -0.0504096 C132.97028239 -0.05883636 152.0251963 -0.06317671 171.08011436 -0.05900288 C172.15709961 -0.05876831 172.15709961 -0.05876831 173.25584214 -0.05852901 C176.89471783 -0.05772325 180.53359351 -0.05687748 184.17246918 -0.05601571 C184.89513303 -0.05584462 185.61779689 -0.05567353 186.36235964 -0.05549726 C187.82376035 -0.0551506 189.28516106 -0.05480207 190.74656177 -0.05445167 C213.48605529 -0.04909446 236.22551004 -0.05702604 258.96499634 -0.07548523 C284.5261337 -0.09621076 310.08724704 -0.10692693 335.64839327 -0.10290974 C338.37493618 -0.10251441 341.10147909 -0.10215286 343.828022 -0.10181236 C344.83500231 -0.10167627 344.83500231 -0.10167627 345.86232565 -0.10153742 C355.98698673 -0.1003725 366.11162352 -0.10701166 376.23627853 -0.11762428 C387.75340605 -0.12953347 399.2704765 -0.13094808 410.78760479 -0.11883412 C416.66247105 -0.11294235 422.53723288 -0.11185439 428.41209221 -0.12383652 C433.79341788 -0.13468443 439.1745518 -0.13160477 444.55586846 -0.11757483 C446.49924251 -0.11492493 448.44263154 -0.11730362 450.3859909 -0.1253107 C465.30762199 -0.18250817 480.18075425 0.24677564 491.63980103 11.01069641 C500.66327855 20.58265983 501.70050722 31.62003691 501.61685181 44.29804993 C501.61714386 45.46979263 501.61743591 46.64153534 501.61773682 47.8487854 C501.61635098 51.69580159 501.60082479 55.54262059 501.58511353 59.38960266 C501.58138074 62.06717252 501.57843655 64.74473167 501.57653809 67.42230225 C501.57034336 73.73316146 501.55395998 80.04395067 501.53383911 86.35477918 C501.5114173 93.54468401 501.50047094 100.73459234 501.49044824 107.92452347 C501.46959177 122.70328345 501.43445519 137.4819887 501.38980103 152.26069641 C500.59357016 152.26308476 499.79733929 152.26547312 498.97698021 152.26793385 C479.5526993 152.32721443 460.12854404 152.40284745 440.7043972 152.49641132 C431.31080629 152.54126979 421.91725244 152.5807071 412.52359009 152.60713196 C404.33072727 152.63019293 396.13798275 152.66368054 387.94521391 152.70939797 C383.61205234 152.73322155 379.27900715 152.75202118 374.94578171 152.75831032 C370.85649687 152.76441078 366.76750937 152.78458667 362.67833519 152.81497192 C361.18778368 152.82367346 359.69719319 152.82749136 358.20661736 152.82570457 C335.46373318 152.80707127 317.62796869 159.26337261 300.89761353 174.68257141 C295.40597433 180.3281818 290.85340849 186.7526318 286.33511353 193.18647766 C278.87136524 203.78260224 270.71235633 211.86173713 259.38980103 218.26069641 C258.72464478 218.64870422 258.05948853 219.03671204 257.37417603 219.43647766 C242.71925661 227.41047793 223.1474943 229.99202325 206.83511353 226.01069641 C184.23595615 219.07932546 169.14476716 206.56747905 155.95230103 187.26069641 C144.1439821 170.22792939 128.90625589 158.49183473 108.38980103 154.26069641 C103.77412685 153.51510236 99.33730312 153.12901151 94.66362 153.10247803 C93.34980347 153.09268921 92.03598694 153.08290039 90.68235779 153.07281494 C89.24377478 153.06691223 87.80519139 153.06110169 86.36660767 153.05537415 C84.83849835 153.04578496 83.31039162 153.03577428 81.7822876 153.02537537 C77.6485531 152.99843288 73.51480731 152.9773659 69.38103414 152.95737338 C65.05552079 152.93544779 60.73004183 152.90809137 56.40455627 152.88131714 C48.2201782 152.83147889 40.03578095 152.7865073 31.85136551 152.74329478 C22.5309225 152.69384644 13.210514 152.63895656 3.89010441 152.58361518 C-15.27663131 152.46993134 -34.44339964 152.36306288 -53.61019897 152.26069641 C-53.65704479 137.06540246 -53.69224923 121.87011185 -53.71382332 106.67476177 C-53.72410948 99.61833969 -53.73811857 92.56196263 -53.76107788 85.50556946 C-53.78323974 78.69098295 -53.79478073 71.87644318 -53.79995346 65.06182289 C-53.80363807 62.4668231 -53.8108331 59.87182576 -53.82165909 57.27684593 C-53.83625637 53.63167753 -53.83817346 49.98670006 -53.83724976 46.34150696 C-53.84444031 45.27766785 -53.85163086 44.21382874 -53.85903931 43.11775208 C-53.82489676 30.6000071 -52.08720985 19.99261397 -43.42269897 10.51069641 C-31.23550162 -0.85874528 -15.54960344 -0.03311248 0 0 Z " fill="#F9B722" transform="translate(254.61019897460938,246.7393035888672)"/>
<path d="M0 0 C2.0188343 -0.00346036 4.03766671 -0.00822746 6.05649519 -0.01418173 C11.58163704 -0.02666927 17.10662282 -0.02053152 22.63176513 -0.01122308 C28.59913025 -0.00442375 34.5664689 -0.01491821 40.53382874 -0.02316284 C51.54050692 -0.03572316 62.54713888 -0.03464711 73.55381884 -0.02642844 C83.72309461 -0.01887262 93.89235224 -0.01691593 104.06163025 -0.02049637 C105.07466605 -0.0208401 105.07466605 -0.0208401 106.10816723 -0.02119078 C108.84987381 -0.02212484 111.59158038 -0.02308005 114.33328694 -0.02407007 C140.03648385 -0.03324074 165.73964924 -0.02493673 191.44284128 -0.00877938 C214.2632213 0.00545674 237.08355109 0.00418282 259.90393066 -0.01016235 C285.5610387 -0.02623694 311.21811889 -0.03259028 336.87523127 -0.02332556 C339.61185359 -0.02236345 342.34847593 -0.02142493 345.08509827 -0.02049637 C346.09578852 -0.02014052 346.09578852 -0.02014052 347.12689677 -0.01977748 C357.28813231 -0.01636948 367.44934769 -0.02034765 377.61058044 -0.02793503 C389.16791933 -0.03652201 400.72520181 -0.03406066 412.282534 -0.0180928 C418.17766392 -0.01021602 424.07269199 -0.00710848 429.96782112 -0.01704025 C435.36757552 -0.02599977 440.76713395 -0.02103341 446.16687065 -0.0051076 C448.11691249 -0.00176515 450.06697098 -0.00344175 452.01700205 -0.01073496 C466.9323404 -0.06222626 480.08149275 0.43464587 491.76086426 10.75595093 C500.3577906 20.51462407 502.25524263 28.88145267 502.13586426 41.75595093 C502.13135254 42.68278687 502.12684082 43.6096228 502.12219238 44.56454468 C502.11047999 46.83674801 502.09407798 49.10881481 502.07336426 51.38095093 C501.27713339 51.38333928 500.48090252 51.38572763 499.66054344 51.38818836 C480.23626253 51.44746895 460.81210727 51.52310197 441.38796043 51.61666584 C431.99436952 51.6615243 422.60081567 51.70096162 413.20715332 51.72738647 C405.0142905 51.75044745 396.82154598 51.78393506 388.62877715 51.82965249 C384.29561558 51.85347607 379.96257038 51.8722757 375.62934494 51.87856483 C371.54006011 51.8846653 367.45107261 51.90484118 363.36189842 51.93522644 C361.87134692 51.94392797 360.38075642 51.94774588 358.89018059 51.94595909 C336.14729641 51.92732579 318.31153192 58.38362712 301.58117676 73.80282593 C296.08953756 79.44843631 291.53697172 85.87288631 287.01867676 92.30673218 C279.55492847 102.90285676 271.39591956 110.98199164 260.07336426 117.38095093 C259.40820801 117.76895874 258.74305176 118.15696655 258.05773926 118.55673218 C243.40281984 126.53073245 223.83105754 129.11227776 207.51867676 125.13095093 C184.91951938 118.19957997 169.82833039 105.68773356 156.63586426 86.38095093 C144.82754533 69.3481839 129.58981912 57.61208925 109.07336426 53.38095093 C104.45769008 52.63535687 100.02086635 52.24926602 95.34718323 52.22273254 C93.37645844 52.20804932 93.37645844 52.20804932 91.36592102 52.19306946 C89.92733801 52.18716675 88.48875462 52.18135621 87.0501709 52.17562866 C85.52206158 52.16603948 83.99395485 52.1560288 82.46585083 52.14562988 C78.33211633 52.1186874 74.19837054 52.09762042 70.06459737 52.0776279 C65.73908402 52.0557023 61.41360507 52.02834589 57.08811951 52.00157166 C48.90374143 51.95173341 40.71934418 51.90676182 32.53492874 51.86354929 C23.21448573 51.81410095 13.89407724 51.75921108 4.57366765 51.7038697 C-14.59306808 51.59018585 -33.7598364 51.4833174 -52.92663574 51.38095093 C-52.96872079 48.02031228 -52.99404149 44.65974241 -53.01647949 41.29891968 C-53.02852417 40.35335205 -53.04056885 39.40778442 -53.05297852 38.43356323 C-53.11115142 26.80656934 -50.55058477 18.90336019 -42.27429199 10.50595093 C-30.14484534 -0.47311559 -15.48452475 -0.05791286 0 0 Z " fill="#F07062" transform="translate(253.9266357421875,347.6190490722656)"/>
<path d="M0 0 C0.8382833 -0.00205263 1.6765666 -0.00410527 2.54025242 -0.0062201 C5.35584542 -0.01188515 8.17138942 -0.01043346 10.98698711 -0.00901413 C13.02340316 -0.01159804 15.05981871 -0.01461127 17.09623355 -0.01801753 C22.69768192 -0.02608756 28.29911749 -0.0278771 33.90057099 -0.028615 C39.93955239 -0.03046551 45.97852714 -0.03801276 52.01750469 -0.04475021 C65.91254415 -0.05904155 79.80758048 -0.06485967 93.70262544 -0.06944216 C100.56951308 -0.07177882 107.43639988 -0.07538151 114.30328687 -0.07913754 C137.81124228 -0.09197115 161.31919723 -0.10269126 184.82715607 -0.10614014 C186.30243402 -0.10636177 187.77771198 -0.10658355 189.25298993 -0.10680549 C190.73181475 -0.10702613 192.21063957 -0.10724661 193.68946439 -0.10746694 C196.6562076 -0.10790949 199.62295081 -0.1083566 202.58969402 -0.10880661 C203.32527216 -0.108916 204.06085031 -0.10902539 204.81871869 -0.1091381 C228.67562024 -0.1127696 252.53249142 -0.12869413 276.38938134 -0.15199697 C301.61519506 -0.1765919 326.84099141 -0.19031278 352.06681746 -0.19150805 C354.83577709 -0.19167951 357.60473671 -0.19189494 360.37369633 -0.19214249 C361.05548686 -0.19219826 361.73727738 -0.19225402 362.43972823 -0.19231148 C373.41152555 -0.19346211 384.38329168 -0.20448494 395.35507847 -0.21902954 C406.38183163 -0.23339434 417.40855323 -0.23637903 428.43531541 -0.22858956 C434.40902236 -0.22467735 440.38262437 -0.22564066 446.35631847 -0.23964691 C451.82461122 -0.25235111 457.2927198 -0.25121889 462.76101216 -0.2390562 C464.73944728 -0.23709319 466.7178953 -0.2402054 468.69631229 -0.24890056 C471.38650487 -0.25997564 474.07604551 -0.25251659 476.76622009 -0.24050903 C477.53340853 -0.24810423 478.30059697 -0.25569942 479.09103355 -0.26352477 C484.69518989 -0.20956403 489.3685249 1.101964 494.57187176 3.13142776 C495.28851877 3.41091658 496.00516578 3.69040539 496.74352937 3.97836356 C504.35813039 7.11170166 509.64100207 13.57485907 513.00937176 20.94392776 C514.85714113 25.49292054 515.69734822 29.43512609 515.68539715 34.35896683 C515.68532162 35.3997438 515.68524609 36.44052078 515.68516827 37.51283646 C515.68000698 38.62962784 515.6748457 39.74641922 515.66952801 40.89705276 C515.66811306 42.04558731 515.66669811 43.19412186 515.66524029 44.37746048 C515.65964319 48.04547608 515.64709119 51.71343062 515.63437176 55.38142776 C515.62935638 57.86840605 515.62479354 60.35538529 515.62069988 62.84236526 C515.60967471 68.93874026 515.59293944 75.03507965 515.57187176 81.13142776 C515.24187176 81.13142776 514.91187176 81.13142776 514.57187176 81.13142776 C514.32437176 79.97642776 514.07687176 78.82142776 513.82187176 77.63142776 C512.55066142 72.55560208 510.73344432 67.26189856 506.94296551 63.52595901 C505.57187176 62.13142776 505.57187176 62.13142776 505.57187176 60.13142776 C504.99694988 59.85299026 504.42202801 59.57455276 503.82968426 59.28767776 C501.57187176 58.13142776 501.57187176 58.13142776 499.56405926 56.91267776 C498.86538738 56.48986526 498.16671551 56.06705276 497.44687176 55.63142776 C496.42206707 54.99720901 496.42206707 54.99720901 495.37655926 54.35017776 C485.17209799 49.91592719 473.77272258 50.84764457 462.88574505 50.87073135 C460.86863799 50.86770883 458.85153208 50.86381884 456.83442819 50.85913879 C451.30479965 50.84886313 445.77523598 50.85103953 440.24560213 50.85531938 C434.27684201 50.85778737 428.30809748 50.84877155 422.33934307 50.84128189 C410.65119512 50.82853507 398.96306531 50.82673536 387.27491237 50.82908215 C377.77439247 50.83091637 368.27387931 50.8291525 358.77336025 50.82485771 C357.40736826 50.82425531 356.04137627 50.82365411 354.67538428 50.82305411 C352.6168492 50.82214683 350.55831413 50.82123817 348.49977906 50.82032176 C329.36627091 50.81189496 310.2327653 50.80755467 291.09925556 50.81172848 C290.37829968 50.81188485 289.65734379 50.81204123 288.91454076 50.81220234 C285.26063197 50.8130081 281.60672319 50.81385387 277.95281442 50.81471565 C276.86433982 50.81497228 276.86433982 50.81497228 275.75387584 50.81523409 C274.28643695 50.81558075 272.81899806 50.81592928 271.35155918 50.81627968 C248.51808039 50.82163691 225.68464022 50.81370531 202.85116863 50.79524612 C177.18455587 50.77452074 151.51796702 50.76380439 125.85134542 50.76782161 C123.11356855 50.76821694 120.37579167 50.76857849 117.63801479 50.76891899 C116.62688504 50.76905509 116.62688504 50.76905509 115.59532841 50.76919394 C105.42880423 50.77035887 95.26230424 50.76371958 85.09578609 50.75310707 C73.53108316 50.7410472 61.96643247 50.73978307 50.40172841 50.75189724 C44.5025591 50.75778913 38.6034938 50.75887661 32.7043314 50.74689484 C27.30080092 50.73604735 21.89746142 50.73912607 16.49393992 50.75315652 C14.54249055 50.75580654 12.59102627 50.75342736 10.63959153 50.74542066 C-3.81455119 50.69024673 -17.25408185 50.91863256 -28.55312824 61.03377151 C-34.12351319 66.69631357 -36.46699832 72.50624499 -38.42812824 80.13142776 C-38.75812824 80.13142776 -39.08812824 80.13142776 -39.42812824 80.13142776 C-39.47908107 73.31790252 -39.51396757 66.50442692 -39.53799152 59.69075394 C-39.548013 57.37563109 -39.56163381 55.06052079 -39.57900715 52.74544144 C-39.60342526 49.40662402 -39.6146502 46.06797483 -39.62344074 42.72908401 C-39.63376331 41.7037204 -39.64408588 40.67835678 -39.65472126 39.62192154 C-39.65649791 28.09211341 -37.49918424 18.82876112 -29.57265949 10.08455276 C-20.87940791 1.96391057 -11.65133392 -0.02662927 0 0 Z " fill="#6DB846" transform="translate(240.42812824249268,297.8685722351074)"/>
<path d="M0 0 C0.83009648 -0.00205263 1.66019297 -0.00410527 2.51544389 -0.0062201 C5.29719556 -0.01187488 8.07889748 -0.01043474 10.86065388 -0.00901413 C12.87517091 -0.01159863 14.88968743 -0.01461203 16.90420324 -0.01801753 C22.44059258 -0.02608067 27.97696896 -0.02787672 33.51336348 -0.028615 C39.48421776 -0.03046672 45.45506532 -0.03801462 51.42591572 -0.04475021 C65.16234619 -0.05903666 78.89877569 -0.06485921 92.6352119 -0.06944216 C99.42559191 -0.07177959 106.21597108 -0.07538239 113.00635043 -0.07913754 C136.25807021 -0.09197104 159.50978952 -0.10269081 182.76151276 -0.10614014 C184.22049994 -0.10636177 185.67948712 -0.10658355 187.1384743 -0.10680549 C188.60094638 -0.10702613 190.06341845 -0.10724661 191.52589053 -0.10746694 C194.45976937 -0.10790948 197.39364821 -0.1083566 200.32752705 -0.10880661 C201.41867019 -0.1089707 201.41867019 -0.1089707 202.53185663 -0.1091381 C226.11859692 -0.11276871 249.70530646 -0.12868993 273.29203498 -0.15199697 C298.23929369 -0.17660328 323.18653484 -0.19031333 348.13380605 -0.19150805 C350.87331474 -0.1916795 353.61282343 -0.19189493 356.35233212 -0.19214249 C357.36412112 -0.19222614 357.36412112 -0.19222614 358.39635032 -0.19231148 C369.2419729 -0.19346116 380.08756389 -0.204476 390.93317581 -0.21902954 C401.83776056 -0.23340902 412.74230295 -0.23637118 423.64689448 -0.22858956 C429.55212149 -0.22468257 435.45724237 -0.22561525 441.36245632 -0.23964691 C446.77165319 -0.25238237 452.18066412 -0.25119127 457.58986071 -0.2390562 C459.54342045 -0.23709862 461.49699335 -0.24018043 463.4505346 -0.24890056 C477.36512667 -0.30706401 491.23964048 -0.18985672 502.53529072 9.13142776 C511.82680806 19.05609791 514.03055402 29.66301827 513.82825947 42.92439651 C513.82401463 43.99643829 513.81976978 45.06848007 513.81539631 46.17300797 C513.79877061 49.55525038 513.76114918 52.93686925 513.72279072 56.31892776 C513.70772305 58.62946596 513.69403832 60.94001361 513.68177509 63.25056839 C513.64892016 68.87772978 513.59888474 74.50453421 513.53529072 80.13142776 C512.51631467 78.12232698 511.54205483 76.1484823 510.71107197 74.05330276 C507.46372862 65.88351587 502.36524711 59.35960422 494.53529072 55.13142776 C486.82429307 52.0414612 479.52721932 50.98072315 471.22765732 51 C470.40239102 50.99794737 469.57712473 50.99589473 468.72685036 50.9937799 C465.95549821 50.98811571 463.18419585 50.98956644 460.41283894 50.99098587 C458.40814725 50.9884019 456.40345608 50.98538865 454.39876562 50.98198247 C448.88485068 50.97391292 443.37094875 50.97212292 437.8570286 50.971385 C431.91204105 50.96953436 425.96706025 50.96198695 420.02207661 50.95524979 C406.34188485 50.94095773 392.66169406 50.93513985 378.98149654 50.93055784 C372.21892667 50.92822084 365.45635764 50.92461807 358.69378842 50.92086246 C335.53763165 50.90802753 312.38147535 50.89730851 289.22531509 50.89385986 C287.77203666 50.89363823 286.31875823 50.89341645 284.8654798 50.89319451 C283.40872213 50.89297387 281.95196445 50.89275339 280.49520677 50.89253306 C277.57277707 50.89209052 274.65034737 50.8916434 271.72791767 50.89119339 C270.64103086 50.8910293 270.64103086 50.8910293 269.53218674 50.8908619 C246.04275675 50.88723211 222.55335763 50.87131468 199.06393945 50.84800303 C174.22044737 50.82339269 149.37697293 50.80968646 124.53346831 50.80849195 C121.80487922 50.8083205 119.07629015 50.80810507 116.34770107 50.80785751 C115.67586229 50.80780174 115.00402351 50.80774598 114.31182597 50.80768852 C103.51190768 50.80653909 92.71202113 50.79552632 81.91211355 50.78097046 C71.0510775 50.76658564 60.19008397 50.76363163 49.32904112 50.77141044 C43.44800018 50.77531568 37.56706582 50.77439334 31.68603802 50.76035309 C26.29772018 50.74760693 20.9095889 50.74881813 15.5212713 50.7609438 C13.57641213 50.76289954 11.63153971 50.75982808 9.68669914 50.75109944 C-5.43200719 50.68756452 -19.55979601 50.87055594 -31.20689678 61.76033401 C-34.64828957 65.44998648 -36.71863829 69.35933142 -38.60533428 74.01814651 C-39.45908688 76.11760177 -40.44095831 78.11060251 -41.46470928 80.13142776 C-41.56691239 73.23051617 -41.63650876 66.32980285 -41.68443584 59.42830276 C-41.7044354 57.08512961 -41.73164405 54.74200563 -41.76646709 52.39900589 C-41.81550054 49.01281406 -41.83779549 45.62728735 -41.85533428 42.24080276 C-41.87597942 41.20904922 -41.89662457 40.17729568 -41.91789532 39.11427689 C-41.9208789 29.23762688 -39.61727999 19.63540254 -33.23033428 11.87752151 C-23.80300674 2.55447857 -12.93419696 -0.03000724 0 0 Z " fill="#309AC8" transform="translate(242.4647092819214,196.86857223510742)"/>
<path d="M0 0 C0.91652344 -0.01224609 1.83304688 -0.02449219 2.77734375 -0.03710938 C16.77709782 -0.06706605 29.29653391 4.88877725 39.75 14.1875 C40.35328125 14.68636719 40.9565625 15.18523437 41.578125 15.69921875 C52.31681121 25.30115214 58.41634297 41.27636642 60.75 55.1875 C60.98873902 59.59412829 61.02053673 64.00043747 61.04516602 68.41259766 C61.05657848 69.8280648 61.07685589 71.24349268 61.10668945 72.65869141 C61.38912517 86.09884461 59.39133665 98.44804355 53 110.5 C52.65710937 111.16241699 52.31421875 111.82483398 51.9609375 112.50732422 C44.31200104 126.83163268 33.47454574 135.70691086 18.10546875 140.8046875 C12.67509978 142.38217144 7.56870947 142.68752488 1.9375 142.625 C0.97553711 142.61742676 0.01357422 142.60985352 -0.97753906 142.60205078 C-15.36156237 142.27040972 -27.62831582 137.39448354 -37.77734375 126.99609375 C-39.25 125.1875 -39.25 125.1875 -42.25 120.1875 C-42.58 142.6275 -42.91 165.0675 -43.25 188.1875 C-50.84 188.1875 -58.43 188.1875 -66.25 188.1875 C-66.25 126.4775 -66.25 64.7675 -66.25 1.1875 C-58.99 1.1875 -51.73 1.1875 -44.25 1.1875 C-43.92 7.7875 -43.59 14.3875 -43.25 21.1875 C-42.156875 19.846875 -41.06375 18.50625 -39.9375 17.125 C-29.37430637 5.27633836 -15.49943219 0.01071883 0 0 Z " fill="#FBFBFB" transform="translate(1150.25,456.8125)"/>
<path d="M0 0 C0.91652344 -0.01224609 1.83304688 -0.02449219 2.77734375 -0.03710938 C16.02764818 -0.06546238 28.74520231 4.38075581 38.75 13.1875 C39.73226563 14.01314453 39.73226563 14.01314453 40.734375 14.85546875 C53.70541856 26.64504129 59.78568431 44.49224925 60.98925781 61.58544922 C61.8796638 85.12184741 59.45009308 106.52885314 43.875 125.1875 C33.38156587 136.04840848 20.20651197 142.18302008 5.14770508 142.48022461 C-10.58376936 142.58758407 -23.93074714 140.34167753 -35.67578125 128.8046875 C-40.7374752 123.2125496 -40.7374752 123.2125496 -42.25 120.1875 C-42.58 142.6275 -42.91 165.0675 -43.25 188.1875 C-50.84 188.1875 -58.43 188.1875 -66.25 188.1875 C-66.25 126.4775 -66.25 64.7675 -66.25 1.1875 C-58.99 1.1875 -51.73 1.1875 -44.25 1.1875 C-43.92 7.7875 -43.59 14.3875 -43.25 21.1875 C-42.156875 19.846875 -41.06375 18.50625 -39.9375 17.125 C-29.37430637 5.27633836 -15.49943219 0.01071883 0 0 Z " fill="#FBFBFB" transform="translate(1307.25,456.8125)"/>
<path d="M0 0 C7.92 0 15.84 0 24 0 C25.88739897 7.21348373 27.7723833 14.42752347 29.65185547 21.64306641 C30.28856916 24.08481388 30.92653976 26.52623404 31.56591797 28.96728516 C35.24404404 43.01367212 38.77012728 57.07573037 41.99026489 71.23458862 C43.68878741 78.69837854 45.51397265 86.10698397 47.5 93.5 C50.17656437 103.63350703 52.61675579 113.80331386 54.92822266 124.02587891 C56.54768769 131.15616157 58.32947057 138.21139687 60.3359375 145.2421875 C61 148 61 148 61 152 C61.66 152 62.32 152 63 152 C63.14695312 151.24460937 63.29390625 150.48921875 63.4453125 149.7109375 C65.5801731 139.23294354 68.38157792 128.97661075 71.25341797 118.68066406 C71.92613031 116.26523517 72.5918726 113.84806061 73.25390625 111.4296875 C74.99080939 105.10270358 76.75997501 98.78782674 78.62109375 92.49609375 C82.13864592 80.60365349 85.43377667 68.68091779 88.51074219 56.66650391 C90.6991879 48.12414716 93.002355 39.62186771 95.3984375 31.13574219 C96.48422212 27.28085427 97.55364026 23.4214165 98.625 19.5625 C98.81916504 18.86503662 99.01333008 18.16757324 99.21337891 17.44897461 C100.82940491 11.6379973 102.41293953 5.81922172 104 0 C112.25 0 120.5 0 129 0 C134.93307858 20.63024784 140.75509564 41.27729579 146.125 62.0625 C147.90489458 68.94838916 149.79467732 75.7622471 151.9453125 82.54296875 C155.72558889 94.93387468 158.88635495 107.5217581 162.125 120.0625 C163.9677188 127.19426192 165.89378619 134.26480599 168.140625 141.28125 C169.15938644 144.50424074 170.08204781 147.74690627 171 151 C176.93396448 130.79926985 182.01251623 110.45097304 186.6796875 89.9230957 C188.74143289 80.93567514 191.04490368 72.02205677 193.39428711 63.10620117 C195.6782904 54.38323238 197.72942422 45.62115181 199.71728516 36.82666016 C202.53178065 24.47950053 205.76234795 12.24177315 209 0 C216.92 0 224.84 0 233 0 C232.3076104 6.23150643 231.69288468 10.63241066 229.875 16.375 C227.51678439 24.02688171 225.47942687 31.74214868 223.5 39.5 C221.44610401 47.52546944 219.3208411 55.5033633 216.9140625 63.4296875 C214.92405953 70.07164547 213.21947284 76.7837685 211.5 83.5 C209.61307513 90.87029629 207.7104549 98.21958461 205.5 105.5 C203.31591027 112.69870173 201.42882644 119.9629928 199.5625 127.25 C197.24004688 136.31339997 194.81704325 145.33318805 192.21044922 154.31884766 C190.02753582 161.85114668 187.95968918 169.41254725 185.91577148 176.98364258 C185.67930908 177.85786865 185.44284668 178.73209473 185.19921875 179.6328125 C184.99127686 180.40512207 184.78333496 181.17743164 184.5690918 181.97314453 C184.09458101 183.66314389 183.55509083 185.3347275 183 187 C175.41 187 167.82 187 160 187 C159.50371094 185.2571875 159.00742188 183.514375 158.49609375 181.71875 C150.16810727 152.48762727 150.16810727 152.48762727 141.4375 123.375 C138.88566858 115.06831956 136.5220081 106.72668204 134.26708984 98.33496094 C131.6313768 88.5541169 128.77436872 78.84127761 125.91308594 69.12451172 C124.95262689 65.83789278 124.00973007 62.54659793 123.0703125 59.25390625 C122.75505615 58.15481934 122.4397998 57.05573242 122.11499023 55.92333984 C121.50893423 53.80892386 120.90671563 51.69340318 120.30883789 49.57666016 C120.03547607 48.62710449 119.76211426 47.67754883 119.48046875 46.69921875 C119.24223389 45.86221436 119.00399902 45.02520996 118.75854492 44.1628418 C118.01301774 41.75078211 118.01301774 41.75078211 116 39 C115.71334473 40.08716309 115.71334473 40.08716309 115.42089844 41.19628906 C114.53456053 44.54858755 113.64230962 47.89928633 112.75 51.25 C112.29947266 52.95929688 112.29947266 52.95929688 111.83984375 54.703125 C110.06190466 61.36093947 108.0939309 67.90428544 105.87060547 74.42675781 C104.88328169 77.34498346 104.01073258 80.2814963 103.1875 83.25 C101.39098676 89.63604316 99.54830879 96.00738568 97.6875 102.375 C97.38811523 103.40052979 97.08873047 104.42605957 96.78027344 105.48266602 C95.55297429 109.68613306 94.32479674 113.88934247 93.09570312 118.09228516 C90.05485776 128.49071207 87.02302563 138.89088722 84.0625 149.3125 C80.48362432 161.90689222 76.73695563 174.45179621 73 187 C65.41 187 57.82 187 50 187 C49.56429688 185.37835937 49.12859375 183.75671875 48.6796875 182.0859375 C45.80296527 171.38609284 42.92202584 160.68757306 40 150 C37.81424548 142.00508677 35.65141349 134.00422143 33.5 126 C30.60249327 115.22175062 27.67700469 104.4514213 24.73388672 93.68554688 C23.48739655 89.12420559 22.24386709 84.56205715 21 80 C20.50001377 78.16666291 20.00001378 76.33332958 19.5 74.5 C16.5 63.5 13.5 52.5 10.5 41.5 C10.2520166 40.59096924 10.0040332 39.68193848 9.74853516 38.74536133 C9.2529213 36.92762558 8.75779719 35.10975622 8.26318359 33.29174805 C6.95023787 28.4685141 5.62675127 23.64846659 4.2890625 18.83203125 C4.010625 17.82462891 3.7321875 16.81722656 3.4453125 15.77929688 C2.90935973 13.84093436 2.37042513 11.90339317 1.828125 9.96679688 C1.58835937 9.09732422 1.34859375 8.22785156 1.1015625 7.33203125 C0.88838379 6.56608643 0.67520508 5.8001416 0.45556641 5.01098633 C0 3 0 3 0 0 Z " fill="#FCFCFC" transform="translate(1667,411)"/>
<path d="M0 0 C7.92 0 15.84 0 24 0 C32.64325654 22.52196583 40.96119687 45.1596819 49.26228333 67.80953979 C53.5723894 79.56723634 57.89956906 91.31862813 62.22943115 103.06906128 C63.55613507 106.67022323 64.88190412 110.27172826 66.20751953 113.87329102 C70.47557816 125.46503126 74.75893866 137.05075066 79.07421875 148.625 C80.25718671 151.80373925 81.43978891 154.98261433 82.62228394 158.16152954 C83.72284282 161.11462986 84.82921802 164.06550657 85.93579102 167.01635742 C86.59811117 168.79595249 87.26015587 170.57565011 87.921875 172.35546875 C88.37182076 173.54662292 88.37182076 173.54662292 88.83085632 174.76184082 C89.10420303 175.50067505 89.37754974 176.23950928 89.65917969 177.00073242 C89.89562195 177.63267014 90.13206421 178.26460785 90.37567139 178.91569519 C91.16436686 181.54873447 91.54812892 184.28877354 92 187 C84.08 187 76.16 187 68 187 C66.72125 183.4525 65.4425 179.905 64.125 176.25 C63.74617676 175.19973633 63.36735352 174.14947266 62.97705078 173.06738281 C58.28981408 160.05492162 53.65189882 147.02531669 49 134 C24.25 133.67 -0.5 133.34 -26 133 C-26.66 135.97 -27.32 138.94 -28 142 C-28.52567063 143.73005895 -29.08488809 145.45075968 -29.69580078 147.15258789 C-30.01598175 148.05284195 -30.33616272 148.95309601 -30.66604614 149.88063049 C-31.00570404 150.81849899 -31.34536194 151.75636749 -31.6953125 152.72265625 C-32.04761932 153.70874374 -32.39992615 154.69483124 -32.76290894 155.71080017 C-33.87857411 158.82986361 -35.00165559 161.94619513 -36.125 165.0625 C-36.88721227 167.18927632 -37.64893593 169.31622782 -38.41015625 171.44335938 C-40.26689239 176.63129859 -42.13365429 181.81547017 -44 187 C-52.25 187 -60.5 187 -69 187 C-63.89981882 172.32603089 -58.6542174 157.71256901 -53.3125 143.125 C-52.90537781 142.01184418 -52.49825562 140.89868835 -52.07879639 139.75180054 C-44.9918119 120.3757052 -37.84274499 101.02286086 -30.66381836 81.68066406 C-26.38666904 70.15485118 -22.12131858 58.624881 -17.8821907 47.08503532 C-17.1463117 45.08188612 -16.4101551 43.07883915 -15.67391968 41.07582092 C-12.82483583 33.32447571 -12.82483583 33.32447571 -9.98101807 25.57119751 C-8.68463646 22.03371422 -7.38552654 18.49724346 -6.0859375 14.9609375 C-5.70044739 13.90632828 -5.31495728 12.85171906 -4.91778564 11.76515198 C-4.56125916 10.79641647 -4.20473267 9.82768097 -3.83740234 8.82958984 C-3.37495621 7.56832779 -3.37495621 7.56832779 -2.90316772 6.28158569 C-2.05416741 4.1368379 -1.03157594 2.06315189 0 0 Z " fill="#FCFCFC" transform="translate(967,411)"/>
<path d="M0 0 C1.46687256 0.01450195 1.46687256 0.01450195 2.96337891 0.02929688 C18.96407556 0.29548714 33.27657016 4.07479882 45.25 15.25 C53.40869542 25.84838298 56.41408771 36.02025838 56.36352539 49.1809082 C56.36367142 50.17650253 56.36381744 51.17209686 56.3639679 52.19786072 C56.36327232 55.48218988 56.35549652 58.76646202 56.34765625 62.05078125 C56.34579081 64.33049997 56.3443675 66.61021909 56.34336853 68.88993835 C56.33955329 74.88551951 56.32973146 80.88107638 56.31866455 86.87664795 C56.3084291 92.996538 56.30386633 99.11643198 56.29882812 105.23632812 C56.28810832 117.24089779 56.27051953 129.24544308 56.25 141.25 C48.99 141.25 41.73 141.25 34.25 141.25 C33.92 133.99 33.59 126.73 33.25 119.25 C32.280625 120.590625 31.31125 121.93125 30.3125 123.3125 C22.34943867 133.5231996 11.7524326 139.39053602 -0.75 142.25 C-4.40824172 142.64243981 -8.01101934 142.68121039 -11.6875 142.625 C-12.65606934 142.61412354 -13.62463867 142.60324707 -14.62255859 142.59204102 C-27.40711878 142.30652707 -38.02635956 138.92876038 -47.88671875 130.40234375 C-56.59800954 121.19974372 -59.1698572 110.19568305 -59.015625 97.8828125 C-58.24812321 87.38609679 -53.49439062 80.17855073 -45.75 73.25 C-32.32699702 63.18274777 -16.51716479 61.12615118 -0.25 60.125 C0.73447113 60.06146332 0.73447113 60.06146332 1.73883057 59.99664307 C12.25567908 59.31977971 22.71548087 58.99306051 33.25 59.25 C33.36044815 42.81101844 33.36044815 42.81101844 25.8671875 28.65234375 C17.94265369 21.22579977 6.51333623 20.77947654 -3.73046875 20.9765625 C-11.89855969 21.36179583 -17.80920379 24.81039467 -23.9609375 29.98046875 C-26.5705794 33.09896725 -26.5705794 33.09896725 -29.75 41.25 C-37.01 41.25 -44.27 41.25 -51.75 41.25 C-50.40937776 29.18439982 -46.6920288 20.93417857 -37.796875 12.578125 C-26.40261675 3.87174305 -14.23147461 -0.14709534 0 0 Z " fill="#FBFBFB" transform="translate(1967.75,456.75)"/>
<path d="M0 0 C0.88558594 -0.00773437 1.77117188 -0.01546875 2.68359375 -0.0234375 C17.67908974 0.02060214 31.51839576 4.91093643 42.5 15.25 C43.12390625 15.82105469 43.7478125 16.39210938 44.390625 16.98046875 C60.19854715 33.10882176 61.5 56.02753625 61.5 77.25 C28.17 77.25 -5.16 77.25 -39.5 77.25 C-37.32463344 92.47756591 -35.34950136 104.15057884 -23.5 114.25 C-11.84594193 122.07258692 -0.17651127 122.26317716 13.5 121.25 C17.30198183 120.46723904 20.22887808 119.31597174 23.5 117.25 C24.60021484 116.56164062 24.60021484 116.56164062 25.72265625 115.859375 C31.42876393 111.92412832 34.40767918 107.43464163 37.5 101.25 C44.76 101.25 52.02 101.25 59.5 101.25 C57.06546417 113.42267916 52.35317029 122.48785621 42.5 130.25 C24.87811083 141.78962955 5.95678678 145.07259064 -15 141.86767578 C-23.73283272 139.8881546 -31.35738502 135.52418259 -38.5 130.25 C-39.15484375 129.77820313 -39.8096875 129.30640625 -40.484375 128.8203125 C-53.08836596 118.94904524 -60.02181737 101.83132293 -62.14453125 86.35546875 C-64.39681716 63.67628128 -62.57869251 40.2258062 -47.8515625 21.79296875 C-35.35147659 7.14956951 -19.13027365 -0.16707663 0 0 Z " fill="#FBFBFB" transform="translate(2237.5,456.75)"/>
<path d="M0 0 C0.79470703 -0.01224609 1.58941406 -0.02449219 2.40820312 -0.03710938 C17.10592446 -0.07298664 30.52912736 5.53329894 41.5625 15.1875 C58.63289176 32.46826631 60.5625 53.87014807 60.5625 77.1875 C27.2325 77.1875 -6.0975 77.1875 -40.4375 77.1875 C-37.76124207 97.28886312 -37.76124207 97.28886312 -26.109375 113.19921875 C-17.57202892 119.44509924 -10.29563245 121.75779204 0.25 121.6875 C1.21808594 121.68322998 2.18617187 121.67895996 3.18359375 121.67456055 C12.455448 121.45531466 20.31920544 119.47232183 28 114 C30.65128263 111.45214038 30.65128263 111.45214038 31.47265625 108.6484375 C32.82423824 105.20892777 33.63243245 103.51119405 36.5625 101.1875 C43.75864927 99.84276503 51.31033879 100.58944052 58.5625 101.1875 C55.82725186 114.77226081 49.04218659 125.03904685 37.4375 133 C21.52782503 142.50535666 0.50271623 145.1768481 -17.5859375 141.50390625 C-20.68306482 140.60026499 -23.51107326 139.54076092 -26.4375 138.1875 C-27.37078125 137.775 -28.3040625 137.3625 -29.265625 136.9375 C-44.67093971 129.36393746 -53.74236869 116.95541384 -59.44140625 101.12890625 C-59.77011719 100.15824219 -60.09882812 99.18757812 -60.4375 98.1875 C-60.67339844 97.49527344 -60.90929688 96.80304688 -61.15234375 96.08984375 C-67.60234247 75.42159967 -64.14911871 50.15437634 -54.94140625 31.08984375 C-47.28953598 16.86874193 -35.16440489 6.64044913 -19.765625 1.6953125 C-13.19981021 0.26317169 -6.6926408 0.00540165 0 0 Z " fill="#FBFBFB" transform="translate(1511.4375,456.8125)"/>
<path d="M0 0 C5.61 0 11.22 0 17 0 C17 48.51 17 97.02 17 147 C11.72 147 6.44 147 1 147 C1 141.39 1 135.78 1 130 C-2.71968217 133.71863244 -2.71968217 133.71863244 -6.375 137.5 C-15.66952636 146.35192987 -24.47207149 148.57566608 -37.05786133 148.47827148 C-48.553782 148.16539572 -56.54333845 144.46659493 -64.8125 136.44921875 C-78.16700394 121.4969438 -78.75059671 103.04537907 -78.17919922 84.00732422 C-77.55810302 73.58407772 -74.08226594 64.4546681 -68 56 C-67.236875 54.9275 -66.47375 53.855 -65.6875 52.75 C-62.13875776 49.11872887 -58.39260751 46.52220689 -54 44 C-53.28328125 43.58234375 -52.5665625 43.1646875 -51.828125 42.734375 C-42.42729109 38.13120805 -29.69745607 38.36454736 -19.875 41.625 C-12.48664009 44.84324266 -6.72653866 49.50100934 -2 56 C-2 56.66 -2 57.32 -2 58 C-1.34 58 -0.68 58 0 58 C0 38.86 0 19.72 0 0 Z " fill="#FAFAFA" transform="translate(1234,184)"/>
<path d="M0 0 C5.61 0 11.22 0 17 0 C17 48.51 17 97.02 17 147 C11.72 147 6.44 147 1 147 C1 141.39 1 135.78 1 130 C0.34 130 -0.32 130 -1 130 C-1.226875 130.53625 -1.45375 131.0725 -1.6875 131.625 C-6.05020007 139.51940965 -12.50949588 143.64349166 -20.67578125 147.1484375 C-30.20966737 149.5907256 -43.98048116 149.91949976 -52.87109375 145.38671875 C-65.41651041 137.21493358 -73.44225154 126.51856149 -77.12890625 111.84375 C-78.23745714 106.55529072 -78.25815306 101.38450674 -78.1875 96 C-78.18685547 95.06671875 -78.18621094 94.1334375 -78.18554688 93.171875 C-78.08178272 76.6618448 -74.12249177 62.84307942 -62.875 50.3125 C-53.66452389 41.45309585 -42.64559248 39.61566085 -30.46875 39.78515625 C-25.53039359 39.9497 -21.41378889 40.72399612 -17 43 C-16.33097656 43.32871094 -15.66195313 43.65742188 -14.97265625 43.99609375 C-8.74887499 47.44844074 -6.07303224 51.29283873 -1 57 C-0.67 38.19 -0.34 19.38 0 0 Z " fill="#FBFBFB" transform="translate(1111,184)"/>
<path d="M0 0 C9.90216506 7.17861875 16.30480598 18.60574389 18.71386719 30.5546875 C19.41860193 35.75037894 19.34836988 40.95348714 19.3125 46.1875 C19.32410156 47.88616211 19.32410156 47.88616211 19.3359375 49.61914062 C19.30112088 64.56417555 14.67799766 78.05405753 4.2890625 88.9921875 C-7.20877729 99.92686779 -20.26695523 100.59873049 -35.30078125 100.3984375 C-47.12368657 100.00750169 -56.97409892 94.60153923 -65.125 86.0625 C-74.44511602 74.29950457 -77.2943823 61.4497813 -77.25 46.8125 C-77.26611328 45.76126953 -77.28222656 44.71003906 -77.29882812 43.62695312 C-77.30744317 29.6102783 -73.41511686 15.1230157 -63.625 4.64453125 C-45.64369698 -11.54696615 -20.18421428 -12.39030976 0 0 Z " fill="#FBFBFB" transform="translate(1480.9375,231.875)"/>
<path d="M0 0 C0.74886475 0.00523682 1.49772949 0.01047363 2.26928711 0.01586914 C3.07817383 0.0190918 3.88706055 0.02231445 4.72045898 0.02563477 C5.5705957 0.03401367 6.42073242 0.04239258 7.29663086 0.05102539 C8.15063477 0.05553711 9.00463867 0.06004883 9.88452148 0.06469727 C12.00108749 0.07652166 14.11761771 0.0944577 16.23413086 0.11352539 C18.63054675 6.59247672 21.02630186 13.07167215 23.42163086 19.55102539 C23.98110413 21.06437973 23.98110413 21.06437973 24.55187988 22.60830688 C29.23571819 35.27927125 33.91357338 47.95242076 38.58178711 60.62915039 C39.02772217 61.84001816 39.47365723 63.05088593 39.93310547 64.29844666 C42.1787632 70.39669565 44.42353371 76.49526968 46.66723633 82.59423828 C50.57314151 93.2073759 54.48673969 103.81715869 58.45678711 114.40649414 C58.77096588 115.24587021 59.08514465 116.08524628 59.40884399 116.95005798 C60.82666983 120.73757699 62.24876869 124.52334903 63.68041992 128.30566406 C64.16336895 129.59310472 64.64613016 130.88061586 65.12866211 132.16821289 C65.53963135 133.25602051 65.95060059 134.34382812 66.37402344 135.46459961 C67.23413086 138.11352539 67.23413086 138.11352539 67.23413086 141.11352539 C61.29413086 141.11352539 55.35413086 141.11352539 49.23413086 141.11352539 C47.01118638 134.94352262 44.78926271 128.77315924 42.57006836 122.60180664 C41.22706902 118.86783699 39.88048546 115.13529108 38.52319336 111.40649414 C38.07717773 110.17543945 37.63116211 108.94438477 37.17163086 107.67602539 C36.7887793 106.62543945 36.40592773 105.57485352 36.01147461 104.49243164 C35.23413086 102.11352539 35.23413086 102.11352539 35.23413086 100.11352539 C16.75413086 100.44352539 -1.72586914 100.77352539 -20.76586914 101.11352539 C-25.38586914 114.31352539 -30.00586914 127.51352539 -34.76586914 141.11352539 C-41.03586914 141.11352539 -47.30586914 141.11352539 -53.76586914 141.11352539 C-50.38861111 130.98175129 -50.38861111 130.98175129 -49.16625977 127.58666992 C-48.88671951 126.80900269 -48.60717926 126.03133545 -48.31916809 125.23010254 C-48.02314194 124.41046021 -47.72711578 123.59081787 -47.42211914 122.74633789 C-47.10075485 121.85466919 -46.77939056 120.96300049 -46.44828796 120.04431152 C-45.38913628 117.10844889 -44.32775863 114.17339881 -43.26586914 111.23852539 C-42.89748932 110.21942078 -42.5291095 109.20031616 -42.14956665 108.15032959 C-35.39922398 89.48784067 -28.49670093 70.88393 -21.54370117 52.29614258 C-16.32592725 38.34148713 -11.17878593 24.36375628 -6.15332031 10.33862305 C-5.7135083 9.1170752 -5.27369629 7.89552734 -4.82055664 6.63696289 C-4.44398926 5.58428223 -4.06742188 4.53160156 -3.67944336 3.44702148 C-2.39007548 0.15365479 -2.39007548 0.15365479 0 0 Z " fill="#FBFBFB" transform="translate(953.765869140625,189.886474609375)"/>
<path d="M0 0 C10.82061466 6.35322045 17.10646051 16.33148182 20.8125 28.125 C22.26753587 34.45771294 22.28272823 40.78318146 22.3125 47.25 C22.31805908 48.28012207 22.32361816 49.31024414 22.3293457 50.37158203 C22.27352342 56.27156804 21.70173247 61.35000333 20 67 C19.72800781 67.94746094 19.45601562 68.89492188 19.17578125 69.87109375 C15.75932135 80.02771887 9.34349784 89.11006566 -0.30078125 94.21875 C-9.76338048 98.55512935 -20.61506458 99.78011529 -30.8359375 97.31640625 C-33.06075757 96.37573671 -34.98439628 95.32865306 -37 94 C-37.69351562 93.55269531 -38.38703125 93.10539063 -39.1015625 92.64453125 C-47.73949803 86.6109171 -52.06211709 79.67349496 -56 70 C-56.35578125 69.20851563 -56.7115625 68.41703125 -57.078125 67.6015625 C-61.87800492 54.05613866 -60.94851655 34.02452969 -55 21 C-54.62617187 20.17757813 -54.25234375 19.35515625 -53.8671875 18.5078125 C-48.59111803 8.13037785 -40.9612504 1.17146673 -30.13671875 -3.140625 C-20.07592584 -5.89700662 -9.32831333 -4.43747453 0 0 Z " fill="#010101" transform="translate(1323,481)"/>
<path d="M0 0 C2.96123721 1.73866212 5.48517548 3.66642409 8 6 C8.79664063 6.73476563 8.79664063 6.73476563 9.609375 7.484375 C19.44833299 17.72906322 22.35733905 31.70716051 22.25 45.375 C22.26160156 46.84066406 22.26160156 46.84066406 22.2734375 48.3359375 C22.23307053 63.51391909 18.08918067 77.58229473 7.37890625 88.6796875 C-1.6530866 97.06504807 -11.92591192 98.48229527 -23.7890625 98.27734375 C-28.88818747 98.05149004 -32.73331733 96.81252756 -37 94 C-37.69351562 93.55269531 -38.38703125 93.10539063 -39.1015625 92.64453125 C-47.73949803 86.6109171 -52.06211709 79.67349496 -56 70 C-56.35578125 69.20851563 -56.7115625 68.41703125 -57.078125 67.6015625 C-62.08227632 53.47967783 -60.54341717 33.08474249 -54.48828125 19.64453125 C-48.76872292 8.2696793 -42.03467023 1.55156002 -30.16796875 -3.11328125 C-20.11807289 -5.92626073 -9.32652319 -4.43662296 0 0 Z " fill="#010101" transform="translate(1166,481)"/>
<path d="M0 0 C0.33 0 0.66 0 1 0 C1 57.42 1 114.84 1 174 C-56.09 174 -113.18 174 -172 174 C-172 173.67 -172 173.34 -172 173 C-171.13556274 172.94054199 -171.13556274 172.94054199 -170.25366211 172.87988281 C-119.25119693 169.23936376 -74.76987422 153.79537035 -40 115 C-35.99243196 110.23291382 -32.41806231 105.20139917 -29 100 C-28.40348633 99.09797852 -28.40348633 99.09797852 -27.79492188 98.17773438 C-11.35221297 72.95835713 -3.90277007 44.31712607 -1.3125 14.5625 C-1.18237539 13.13730251 -1.05151877 11.71217167 -0.91992188 10.28710938 C-0.60489359 6.85879459 -0.29958924 3.42970274 0 0 Z " fill="#000000" transform="translate(2559,617)"/>
<path d="M0 0 C57.09 0 114.18 0 173 0 C173 57.42 173 114.84 173 174 C172.67 174 172.34 174 172 174 C171.90295776 172.77204712 171.90295776 172.77204712 171.80395508 171.51928711 C167.57171943 119.55905838 152.7852953 74.36933064 112.04882812 39.32128906 C79.88681916 12.87589096 40.77515957 3.48572537 0 1 C0 0.67 0 0.34 0 0 Z " fill="#000000" transform="translate(2387,0)"/>
<path d="M0 0 C0.33 0 0.66 0 1 0 C1.06469482 0.78310547 1.12938965 1.56621094 1.19604492 2.37304688 C4.92654934 46.25530656 15.13091587 87.05582102 46.59228516 119.53662109 C47.99234478 120.99204208 49.36190975 122.47201996 50.73046875 123.95703125 C82.30400505 157.58839195 128.31048958 169.78840307 173 172 C173 172.33 173 172.66 173 173 C115.91 173 58.82 173 0 173 C0 115.91 0 58.82 0 0 Z " fill="#000000" transform="translate(0,618)"/>
<path d="M0 0 C57.09 0 114.18 0 173 0 C173 0.33 173 0.66 173 1 C172.18136475 1.06469482 171.36272949 1.12938965 170.51928711 1.19604492 C126.25951407 4.80106734 85.84018206 15.43269322 53 47 C52.25435791 47.69899414 52.25435791 47.69899414 51.49365234 48.41210938 C16.17349939 81.59652534 4.48877758 126.16143858 1 173 C0.67 173 0.34 173 0 173 C0 115.91 0 58.82 0 0 Z " fill="#000000" transform="translate(0,0)"/>
<path d="M0 0 C7.59 0 15.18 0 23 0 C23 10.56 23 21.12 23 32 C31.91 32 40.82 32 50 32 C50 38.27 50 44.54 50 51 C41.09 51 32.18 51 23 51 C23.06293272 62.8918494 23.13835538 74.78344 23.23571491 86.67505836 C23.28042556 92.19693159 23.31968033 97.71873092 23.34643555 103.24072266 C23.37246134 108.5706325 23.41285903 113.90025807 23.46318626 119.22999191 C23.4798598 121.2624902 23.49137104 123.29503767 23.49761391 125.32759476 C23.50724954 128.17654408 23.53530284 131.02476532 23.56762695 133.87353516 C23.56619186 134.71223145 23.56475677 135.55092773 23.5632782 136.41503906 C23.64220296 141.33975415 24.30115016 144.72088178 27 149 C31.25965422 152.70645238 35.92969821 152.53764094 41.3125 152.6875 C45.6128125 152.8421875 45.6128125 152.8421875 50 153 C50 159.27 50 165.54 50 172 C46.10504945 173.94747527 41.28311038 173.22866446 37 173.25 C35.49373047 173.2809375 35.49373047 173.2809375 33.95703125 173.3125 C24.76704775 173.3600549 16.14891883 171.92105922 8.82421875 166.0078125 C1.34199233 157.77255687 -0.15689177 148.23078698 -0.11352539 137.61987305 C-0.11367142 136.68280014 -0.11381744 135.74572723 -0.1139679 134.78025818 C-0.11327264 131.69072128 -0.10549832 128.60124508 -0.09765625 125.51171875 C-0.0957907 123.36652153 -0.09436744 121.22132389 -0.09336853 119.0761261 C-0.08955417 113.43564676 -0.07973309 107.79519326 -0.06866455 102.15472412 C-0.0584272 96.39677276 -0.05386593 90.63881722 -0.04882812 84.88085938 C-0.03810987 73.58722642 -0.0205218 62.2936194 0 51 C-6.6 51 -13.2 51 -20 51 C-20 44.73 -20 38.46 -20 32 C-13.4 32 -6.8 32 0 32 C0 21.44 0 10.88 0 0 Z " fill="#FAFAFA" transform="translate(2336,426)"/>
<path d="M0 0 C7.59 0 15.18 0 23 0 C23 64.68 23 129.36 23 196 C15.41 196 7.82 196 0 196 C0 131.32 0 66.64 0 0 Z " fill="#FAFAFA" transform="translate(2057,402)"/>
<path d="M0 0 C7.59 0 15.18 0 23 0 C23 64.68 23 129.36 23 196 C15.41 196 7.82 196 0 196 C0 131.32 0 66.64 0 0 Z " fill="#F9F9F9" transform="translate(1395,402)"/>
<path d="M0 0 C7.26 0 14.52 0 22 0 C22 64.68 22 129.36 22 196 C14.74 196 7.48 196 0 196 C0 131.32 0 66.64 0 0 Z " fill="#FEFEFE" transform="translate(2123,402)"/>
<path d="M0 0 C7.94651743 4.5408671 12.29004963 11.59093428 15.078125 20.1875 C16.14899995 25.31519318 16.26150375 30.28662342 16.265625 35.5 C16.27787109 36.30373047 16.29011719 37.10746094 16.30273438 37.93554688 C16.32944534 49.00279111 13.65737565 60.34932295 5.875 68.61328125 C-1.33818323 74.93265699 -8.83724628 76.00030479 -18.140625 75.5390625 C-25.2828608 74.87501165 -30.96345347 73.14155491 -36.2890625 68.1875 C-46.47720303 55.70824653 -47.08384936 40.50813193 -45.921875 25.1875 C-45.12923638 20.81898034 -43.92116976 17.14235495 -41.921875 13.1875 C-41.509375 12.36121094 -41.096875 11.53492188 -40.671875 10.68359375 C-32.49838247 -3.41103683 -14.19027108 -6.76622197 0 0 Z " fill="#020202" transform="translate(1466.921875,241.8125)"/>
<path d="M0 0 C8.61273681 6.32032416 12.59229162 15.64028627 14.59765625 25.90625 C16.03488883 39.48739564 14.41127468 52.77628584 6.16015625 64.0390625 C1.94968138 69.07057997 -2.86039664 72.5709475 -9.40234375 73.90625 C-19.75924131 74.7894901 -27.56595812 74.287974 -35.65234375 67.59375 C-44.38051767 59.41215449 -46.89480499 49.84382339 -47.640625 38.1796875 C-47.88430706 25.37996656 -45.95642357 12.8407511 -36.7734375 3.1953125 C-26.28057782 -6.4290107 -12.32679563 -7.03440289 0 0 Z " fill="#020202" transform="translate(1097.40234375,243.09375)"/>
<path d="M0 0 C8.58110521 6.14275837 13.33617524 14.07245584 15.14453125 24.53515625 C16.27318361 39.71669805 16.32325057 54.61831704 5.94140625 66.73046875 C-0.19416737 72.89271878 -6.5227188 74.94912745 -15.04296875 74.97265625 C-23.28129659 74.95946085 -29.31397759 73.5225657 -35.6484375 67.9609375 C-45.60427356 57.41512597 -46.49124683 42.93258893 -46.16796875 29.1796875 C-45.65784438 18.69875712 -41.68675858 10.44378414 -34.3828125 3.04296875 C-24.94339161 -5.46509594 -10.9342905 -6.50980148 0 0 Z " fill="#010101" transform="translate(1218.85546875,242.46484375)"/>
<path d="M0 0 C5.61 0 11.22 0 17 0 C17 8.58 17 17.16 17 26 C24.92 26 32.84 26 41 26 C41 30.95 41 35.9 41 41 C33.08 41 25.16 41 17 41 C17.06299689 49.63231438 17.13847346 58.26427477 17.23571491 66.89627266 C17.28037715 70.90478619 17.31964218 74.91319905 17.34643555 78.921875 C17.37251025 82.79297374 17.4129415 86.66368427 17.46318626 90.53454208 C17.47982694 92.00880975 17.49135864 93.48314452 17.49761391 94.95749283 C17.507286 97.02822485 17.5353794 99.09797 17.56762695 101.16845703 C17.58428154 102.93384323 17.58428154 102.93384323 17.60127258 104.7348938 C18.0508717 108.4165791 19.09042905 110.8362808 21 114 C26.4679976 118.17294553 33.39602362 117.66306243 40 118 C40 122.62 40 127.24 40 132 C36.51997565 132.10884524 33.04341937 132.18772157 29.5625 132.25 C28.58861328 132.28351563 27.61472656 132.31703125 26.61132812 132.3515625 C18.47884057 132.46035832 12.39005564 130.87417761 6.125 125.5625 C0.58924306 118.88702839 -0.12875651 113.36115753 -0.11352539 104.80126953 C-0.11367142 104.10788986 -0.11381744 103.41451019 -0.1139679 102.70011902 C-0.11327596 100.42765074 -0.1055175 98.15526631 -0.09765625 95.8828125 C-0.09578951 94.29955083 -0.09436682 92.71628858 -0.09336853 91.13302612 C-0.08956349 86.98037094 -0.07975051 82.82775114 -0.06866455 78.67510986 C-0.05840703 74.43184894 -0.05386163 70.18858227 -0.04882812 65.9453125 C-0.03812632 57.63019035 -0.02054595 49.31510366 0 41 C-5.94 41 -11.88 41 -18 41 C-18 36.38 -18 31.76 -18 27 C-12.06 27 -6.12 27 0 27 C0 18.09 0 9.18 0 0 Z " fill="#F8F8F8" transform="translate(1345,199)"/>
<path d="M0 0 C0.66 0 1.32 0 2 0 C2.18632996 0.53837494 2.37265991 1.07674988 2.56463623 1.63143921 C4.56935747 7.42313463 6.57541826 13.21436497 8.58230591 19.00531006 C9.35877067 21.24600435 10.13503716 23.48676736 10.91110229 25.7276001 C14.8400913 37.07018961 18.77382397 48.4105041 22.80078125 59.71875 C23.08406281 60.51527985 23.36734436 61.31180969 23.65921021 62.13247681 C24.96462979 65.80078523 26.27543999 69.46702742 27.59472656 73.13037109 C28.05418902 74.41758878 28.51350843 75.70485755 28.97265625 76.9921875 C29.36718994 78.08901855 29.76172363 79.18584961 30.16821289 80.31591797 C31 83 31 83 31 86 C11.2 86 -8.6 86 -29 86 C-27.87502131 78.12514915 -27.87502131 78.12514915 -26.50048828 74.29101562 C-26.04279305 72.9988916 -26.04279305 72.9988916 -25.57585144 71.68066406 C-25.24402359 70.76510742 -24.91219574 69.84955078 -24.5703125 68.90625 C-24.22370071 67.93333008 -23.87708893 66.96041016 -23.51997375 65.95800781 C-22.39445183 62.80310656 -21.25979546 59.65157609 -20.125 56.5 C-19.35100019 54.33551653 -18.57764686 52.17080178 -17.80493164 50.00585938 C-16.26421117 45.69157524 -14.72022558 41.37848356 -13.17333984 37.06640625 C-10.47817795 29.54991726 -7.80956347 22.02410312 -5.14471436 14.49682617 C-4.03440335 11.36185294 -2.92145919 8.22781734 -1.80859375 5.09375 C-1.45595459 4.10052734 -1.10331543 3.10730469 -0.73999023 2.08398438 C-0.49579346 1.39626953 -0.25159668 0.70855469 0 0 Z " fill="#050505" transform="translate(978,439)"/>
<path d="M0 0 C0.53908501 12.77331975 0.47291037 22.9481777 -8 33.3125 C-15.42750774 41.03465268 -26.25245811 46.15328262 -37.0144043 46.38012695 C-46.39142047 46.3580039 -54.61071447 45.46510329 -62.4375 39.75 C-66.46695599 35.42570576 -69.16550696 31.01932429 -69.4375 25 C-69.05813306 18.95383934 -67.41712384 13.95492992 -62.9375 9.75 C-46.76500829 -2.59746255 -19.42369329 -0.36193217 0 0 Z " fill="#030303" transform="translate(2001,534)"/>
<path d="M0 0 C0.83047852 0.00499512 1.66095703 0.00999023 2.51660156 0.01513672 C11.89260056 0.27912116 20.3250034 3.15896664 27.2265625 9.70703125 C35.0443064 18.90791446 37.75 27.47231887 37.75 39.5 C12.67 39.5 -12.41 39.5 -38.25 39.5 C-38.25 28.27917941 -35.30845906 18.64624184 -27.25 10.5 C-18.83564833 3.48568331 -10.9643053 -0.0870183 0 0 Z " fill="#010101" transform="translate(2237.25,476.5)"/>
<path d="M0 0 C8.51890218 5.04373097 15.5609835 12.10068106 18.421875 21.671875 C19.67178269 26.76897562 20.4609375 31.18304899 20.4609375 36.45703125 C-4.9490625 36.45703125 -30.3590625 36.45703125 -56.5390625 36.45703125 C-54.55671326 23.57176119 -52.21244406 14.15933976 -42.5390625 5.45703125 C-30.29319658 -3.29001584 -14.20114836 -6.18296152 0 0 Z " fill="#010101" transform="translate(1527.5390625,479.54296875)"/>
<path d="M0 0 C0.66 0 1.32 0 2 0 C2.20455811 0.56879883 2.40911621 1.13759766 2.61987305 1.72363281 C3.26020513 3.50387169 3.90068474 5.28405751 4.54125977 7.06420898 C5.31685084 9.21984006 6.09206817 11.37560563 6.86694336 13.53149414 C9.09822026 19.73474516 11.33771387 25.93485885 13.59165955 32.12991333 C14.78726652 35.4166423 15.98053613 38.70421803 17.17373657 41.99182129 C17.76681076 43.62382918 18.36103117 45.25542098 18.95639038 46.88659668 C19.79802532 49.19289389 20.63573444 51.50058281 21.47265625 53.80859375 C21.85639908 54.85541573 21.85639908 54.85541573 22.24789429 55.92338562 C24 60.77237191 24 60.77237191 24 63 C8.82 63 -6.36 63 -22 63 C-18.62437649 50.62271381 -18.62437649 50.62271381 -17.02294922 46.08544922 C-16.66602997 45.0684494 -16.30911072 44.05144958 -15.94137573 43.00363159 C-15.56626862 41.94798004 -15.1911615 40.89232849 -14.8046875 39.8046875 C-14.41177521 38.69062531 -14.01886292 37.57656311 -13.61404419 36.42874146 C-12.7906515 34.09700685 -11.96534043 31.76594885 -11.13818359 29.43554688 C-9.86686764 25.85207725 -8.60294684 22.26605918 -7.33984375 18.6796875 C-6.53689208 16.40870076 -5.73352194 14.13786193 -4.9296875 11.8671875 C-4.55053192 10.79129364 -4.17137634 9.71539978 -3.7807312 8.60690308 C-3.43011627 7.62142487 -3.07950134 6.63594666 -2.71826172 5.62060547 C-2.40976288 4.74999481 -2.10126404 3.87938416 -1.78341675 2.98239136 C-1 1 -1 1 0 0 Z " fill="#080808" transform="translate(960,213)"/>
</svg>
