<svg width="605" height="403" viewBox="0 0 605 403" fill="none" xmlns="http://www.w3.org/2000/svg">
<ellipse cx="302.5" cy="201.5" rx="297.5" ry="196.5" stroke="#E8CC6A" stroke-width="10" stroke-linecap="round" stroke-dasharray="10 15"/>
<ellipse cx="303" cy="201.5" rx="282" ry="184.5" fill="#FFD37E"/>
<mask id="mask0_489_6447" style="mask-type:luminance" maskUnits="userSpaceOnUse" x="125" y="116" width="144" height="183">
<path d="M125 116H269V298.872H125V116Z" fill="white"/>
</mask>
<g mask="url(#mask0_489_6447)">
<path d="M196.464 298.452C155.791 285.871 131.166 245.045 129.002 220.401C128.982 220.056 128.963 219.96 128.963 124.101V117.188H267.965V219.807C265.82 244.72 241.195 285.89 200.561 298.452L198.588 298.892L196.464 298.452Z" fill="white"/>
</g>
<path d="M263.811 120.635H132.43V124.1C132.43 187.618 132.43 219.921 132.444 220.094C134.512 243.762 158.276 283.017 197.474 295.139L198.086 295.33L198.298 295.386L198.509 295.469L198.72 295.386L198.912 295.33L199.524 295.139C238.703 283.017 262.429 243.628 264.497 219.788V120.635H263.811Z" fill="#454F59"/>
<path d="M198.742 134.172H220.649V154.892H202.687C202.687 154.892 201.346 151.943 198.704 151.981C196.138 151.995 194.779 154.892 194.779 154.892H176.817V134.172H198.742Z" fill="#730030" stroke="#730030" stroke-width="0.53802"/>
<path d="M198.322 159.87H261.034V219.806C259.234 240.411 237.787 279.685 198.513 291.845C159.238 279.685 137.696 240.411 135.896 219.806V159.87H198.628H198.322Z" fill="#FAB83A" stroke="#FAB83A" stroke-width="0.53802"/>
<path d="M156.615 154.279H158.147C157.687 153.954 156.825 153.551 156.768 152.038C156.671 149.779 157.209 148.017 157.209 148.017L162.647 148.477L161.574 146.754L167.223 141.392L165.692 140.914L166.668 137.084L163.145 137.83L162.513 136.068L160.042 138.883L160.694 132.258L158.664 133.924L156.29 129.309L153.915 133.924L151.905 132.258L152.557 138.883L150.086 136.068L149.454 137.83L145.931 137.084L146.907 140.914L145.356 141.392L151.025 146.754L149.932 148.477L155.39 148.017C155.39 148.017 155.963 149.798 155.83 152.038C155.733 153.551 154.912 153.953 154.452 154.279H156.615Z" fill="#FAB83A" stroke="#FAB83A" stroke-width="0.53802"/>
<path d="M240.008 154.279H238.476C238.936 153.954 239.798 153.551 239.855 152.038C239.952 149.779 239.414 148.017 239.414 148.017L233.957 148.477L235.049 146.754L229.381 141.392L230.951 140.914L229.955 137.084L233.478 137.83L234.111 136.068L236.581 138.883L235.929 132.258L237.959 133.924L240.333 129.309L242.708 133.924L244.719 132.258L244.067 138.883L246.537 136.068L247.169 137.83L250.692 137.084L249.716 140.914L251.267 141.392L245.599 146.754L246.691 148.477L241.234 148.017C241.234 148.017 240.66 149.798 240.793 152.038C240.89 153.551 241.711 153.953 242.171 154.279H240.008Z" fill="#FAB83A" stroke="#FAB83A" stroke-width="0.53802"/>
<path d="M198.743 149.855C201.232 147.232 208.068 151.349 210.366 151.636C211.477 151.775 216.972 151.72 216.972 151.72V131.02L214.311 131.006C214.311 131.006 210.405 131.197 208.394 130.373C206.383 129.551 201.175 127.712 198.743 131.331C196.311 127.712 191.083 129.55 189.073 130.373C187.062 131.197 183.175 131.006 183.175 131.006L180.494 131.02V151.72C180.494 151.72 185.99 151.775 187.1 151.636C189.398 151.348 196.253 147.232 198.743 149.855Z" fill="#FAB83A"/>
<path d="M198.743 149.855C201.232 147.232 208.068 151.349 210.366 151.637C211.476 151.776 216.972 151.72 216.972 151.72V131.02L214.311 131.006C214.311 131.006 210.404 131.197 208.393 130.373C206.383 129.549 201.175 127.712 198.743 131.331C196.311 127.712 191.083 129.55 189.072 130.373C187.062 131.196 183.175 131.006 183.175 131.006L180.494 131.02V151.72C180.494 151.72 185.99 151.776 187.1 151.637C189.398 151.349 196.253 147.232 198.743 149.855Z" stroke="#FAB83A" stroke-width="0.53802"/>
<path d="M198.034 149.338L198.743 149.855L199.412 149.358V130.477L198.743 131.319L198.034 130.477V149.338Z" fill="#730030" stroke="#730030" stroke-width="0.53802"/>
<path d="M189.953 185.549C189.953 185.549 196.311 185.97 196.809 180.513C196.809 180.513 197.306 184.611 198.551 184.63C199.987 184.616 199.987 180.36 199.987 180.36C202.17 186.181 207.666 186.564 207.666 186.564C203.051 183.385 203.3 174.864 203.357 174.213C203.625 169.943 207.302 170.345 207.589 167.817C207.973 164.313 203.76 165.06 203.76 165.06C203.76 165.06 205.54 165.074 205.866 165.941C206.632 167.951 203.185 168.181 203.185 168.181C198.991 169.273 197.555 166.783 196.042 166.496C194.51 166.228 194.243 167.224 193.917 167.588C193.592 167.952 187.119 168.317 185.779 169.752C184.228 171.38 184.4 173.295 185.453 174.501C185.453 174.501 186.047 172.222 188.498 172.146C190.873 172.048 195.009 175.229 195.928 177.086C194.894 177.142 185.645 177.738 184.439 176.857C183.673 176.283 182.811 175.134 182.849 174.387C182.849 174.387 182.37 176.761 183.482 177.508C184.592 178.274 184.937 178.14 185.607 178.178C186.257 178.219 195.201 177.948 196.139 177.948C195.928 178.618 196.139 180.342 194.186 180.514H186.813C186.813 180.514 186.602 182.372 189.475 181.568C190.069 181.395 192.003 180.879 192.596 181.912C192.98 182.602 194.281 184.917 189.953 185.549Z" fill="#730030"/>
<path d="M189.953 185.549C189.953 185.549 196.311 185.97 196.809 180.513C196.809 180.513 197.306 184.611 198.551 184.63C199.987 184.616 199.987 180.36 199.987 180.36C202.17 186.181 207.666 186.564 207.666 186.564C203.051 183.385 203.3 174.864 203.358 174.213C203.626 169.943 207.302 170.345 207.589 167.817C207.973 164.313 203.76 165.06 203.76 165.06C203.76 165.06 205.54 165.074 205.866 165.941C206.632 167.951 203.185 168.181 203.185 168.181C198.991 169.273 197.555 166.783 196.042 166.496C194.51 166.228 194.242 167.224 193.917 167.588C193.592 167.952 187.119 168.317 185.779 169.752C184.228 171.38 184.4 173.295 185.453 174.501C185.453 174.501 186.047 172.222 188.498 172.146C190.873 172.048 195.009 175.229 195.928 177.086C194.894 177.142 185.645 177.738 184.439 176.857C183.673 176.283 182.811 175.134 182.849 174.387C182.849 174.387 182.37 176.761 183.482 177.508C184.592 178.274 184.937 178.14 185.607 178.178C186.258 178.219 195.201 177.949 196.139 177.949C195.928 178.618 196.139 180.342 194.186 180.515H186.813C186.813 180.515 186.602 182.372 189.475 181.568C190.069 181.396 192.003 180.879 192.596 181.912C192.98 182.602 194.281 184.917 189.953 185.549Z" stroke="#730030" stroke-width="0.53802"/>
<path d="M194.721 249.832C192.098 251.536 187.655 250.1 187.655 250.1C187.655 250.1 187.752 251.325 183.768 253.01C177.793 255.519 171.513 261.857 179.728 271.087C179.728 271.087 176.319 260.574 181.585 258.123C181.585 258.123 186.162 262.604 192.787 253.719C194.109 251.919 194.721 249.832 194.721 249.832Z" fill="#730030"/>
<path d="M194.721 249.832C192.098 251.536 187.655 250.1 187.655 250.1C187.655 250.1 187.753 251.325 183.768 253.01C177.794 255.519 171.513 261.857 179.728 271.087C179.728 271.087 176.319 260.574 181.585 258.123C181.585 258.123 186.162 262.604 192.787 253.719C194.109 251.919 194.721 249.832 194.721 249.832Z" stroke="#730030" stroke-width="0.53802"/>
<path d="M179.881 212.817C179.67 215.536 179.268 215.651 176.779 216.877C176.779 216.877 175.802 215.958 175.304 215.019C173.773 212.051 176.358 207.666 176.358 207.666C173.543 211.132 169.464 209.964 169.464 209.964C169.77 207.015 173.734 204.315 173.734 204.315C170.077 205.004 167.204 202.994 167.204 202.994C168.219 201.06 172.068 198.647 172.068 198.647C168.353 198.398 165.749 196.081 165.749 196.081C166.86 194.491 171.035 192.423 171.035 192.423C169.043 191.237 167.07 187.77 167.07 187.77C169.904 186.239 173.179 186.584 173.179 186.584C167.932 182.735 173.6 172.26 173.6 172.26C172.796 188.077 184.994 183.96 184.055 192.022C183.27 198.648 176.07 193.784 176.07 193.784C174.806 203.013 180.091 203.875 180.091 203.875C180.091 203.875 179.823 206.097 179.747 208.452C179.65 211.305 179.971 211.496 179.881 212.817Z" fill="#730030"/>
<path d="M179.881 212.817C179.67 215.536 179.268 215.651 176.779 216.877C176.779 216.877 175.802 215.958 175.304 215.019C173.773 212.051 176.358 207.666 176.358 207.666C173.543 211.132 169.464 209.964 169.464 209.964C169.77 207.015 173.734 204.315 173.734 204.315C170.077 205.004 167.204 202.994 167.204 202.994C168.219 201.059 172.068 198.647 172.068 198.647C168.353 198.398 165.749 196.081 165.749 196.081C166.86 194.492 171.035 192.423 171.035 192.423C169.043 191.237 167.07 187.77 167.07 187.77C169.904 186.238 173.179 186.584 173.179 186.584C167.932 182.735 173.6 172.26 173.6 172.26C172.796 188.077 184.993 183.96 184.055 192.022C183.27 198.647 176.07 193.784 176.07 193.784C174.807 203.013 180.091 203.875 180.091 203.875C180.091 203.875 179.823 206.096 179.747 208.452C179.65 211.305 179.971 211.496 179.881 212.817Z" stroke="#730030" stroke-width="0.53802"/>
<path d="M163.815 235.815C180.609 235.413 183.615 222.679 183.615 222.679C182.006 220.324 181.719 219.098 181.719 219.098L181.47 218.409C180.341 219.615 176.109 221.186 176.109 221.186C176.109 221.186 173.677 219.079 173.064 218.198C171.436 215.843 171.188 214.138 171.188 214.138C168.334 214.208 165.73 211.726 165.73 211.726C165.558 209.122 166.631 206.939 166.631 206.939C164.62 206.001 162.513 203.932 162.513 203.932C163.892 201.06 164.773 200.122 164.773 200.122C161.537 197.613 161.422 196.081 161.422 196.081C162.227 193.898 165.175 191.773 165.175 191.773C163.911 190.068 162.705 186.756 162.705 186.756C165.041 184.42 167.282 183.711 167.282 183.711C166.937 182.389 167.013 181.126 167.109 179.728C167.109 179.728 147.845 169.694 145.72 163.203C145.72 163.203 144.819 168.966 145.183 172.681C145.509 175.994 150.641 181.394 163.03 189.686C155.428 188.517 145.011 184.439 142.732 180.36C142.732 180.36 142.69 186.277 144.015 189.781C145.087 192.615 150.468 194.645 162.608 200.62C156.615 203.913 145.987 200.256 142.943 197.192C142.943 197.192 144.627 202.343 146.619 205.502C147.883 207.513 152.919 210.864 164.619 209.141C160.272 214.541 151.943 218.619 146.294 216.054C146.294 216.054 146.867 221.186 150.296 222.679C152.842 223.789 158.185 224.498 166.726 217.892C161.575 230.626 149.032 226.739 149.032 226.739C149.032 226.739 152 231.813 155.294 233.575C158.223 235.126 164.274 233.88 174.078 223.215C174.078 223.215 173.466 232.655 163.815 235.815Z" fill="#730030"/>
<path d="M163.815 235.815C180.608 235.413 183.615 222.679 183.615 222.679C182.006 220.324 181.719 219.098 181.719 219.098L181.47 218.409C180.341 219.615 176.109 221.186 176.109 221.186C176.109 221.186 173.677 219.079 173.064 218.198C171.436 215.843 171.188 214.138 171.188 214.138C168.334 214.222 165.73 211.726 165.73 211.726C165.558 209.122 166.631 206.939 166.631 206.939C164.62 206.001 162.513 203.932 162.513 203.932C163.892 201.06 164.773 200.122 164.773 200.122C161.537 197.613 161.422 196.081 161.422 196.081C162.227 193.898 165.175 191.773 165.175 191.773C163.911 190.068 162.705 186.756 162.705 186.756C165.041 184.42 167.282 183.711 167.282 183.711C166.937 182.389 167.013 181.126 167.109 179.728C167.109 179.728 147.845 169.694 145.72 163.203C145.72 163.203 144.819 168.966 145.183 172.681C145.509 175.994 150.641 181.394 163.03 189.686C155.428 188.517 145.011 184.439 142.732 180.36C142.732 180.36 142.691 186.277 144.015 189.781C145.088 192.615 150.468 194.645 162.609 200.62C156.615 203.913 145.987 200.256 142.943 197.192C142.943 197.192 144.628 202.343 146.619 205.502C147.884 207.513 152.919 210.864 164.619 209.141C160.272 214.541 151.943 218.62 146.294 216.054C146.294 216.054 146.868 221.186 150.296 222.679C152.843 223.789 158.185 224.498 166.726 217.892C161.574 230.626 149.032 226.739 149.032 226.739C149.032 226.739 152 231.813 155.294 233.575C158.224 235.126 164.275 233.88 174.079 223.215C174.079 223.215 173.466 232.656 163.815 235.815Z" stroke="#730030" stroke-width="0.53802"/>
<path d="M185.453 226.145C185.453 226.145 188.746 230.779 189.781 233.843C189.781 233.843 183.251 239.472 184.419 245.658C184.419 245.658 182.217 241.177 183.73 237.768L184.554 235.547C184.554 235.547 178.905 238.247 175.171 236.236C175.171 236.236 179.192 236.696 183.635 229.668C186.009 225.915 185.453 226.145 185.453 226.145Z" fill="#730030"/>
<path d="M185.453 226.145C185.453 226.145 188.747 230.779 189.781 233.843C189.781 233.843 183.251 239.472 184.419 245.658C184.419 245.658 182.217 241.177 183.73 237.768L184.554 235.547C184.554 235.547 178.905 238.247 175.171 236.236C175.171 236.236 179.192 236.696 183.635 229.668C186.009 225.915 185.453 226.145 185.453 226.145Z" stroke="#730030" stroke-width="0.53802"/>
<path d="M163.738 245.179C162.972 245.221 160.023 244.145 159.257 246.366C158.376 248.97 161.402 250.119 163.144 248.606C165.021 246.979 167.893 247.017 168.564 248.166C168.869 248.702 169.272 249.851 166.725 251.766C165.94 252.378 161.689 255.002 164.657 257.817C165.671 258.754 168.43 258.373 169.138 254.542C169.655 251.67 170.536 250.215 171.589 249.736C172.126 249.487 173.849 248.99 174.768 249.75L175.61 250.401C177.142 251.416 179.057 250.21 178.655 248.544C178.195 246.629 176.701 247.089 175.61 247.625C174.805 248.027 173.772 247.681 173.772 247.681C173.043 247.317 172.814 246.494 174.001 245.919C179.133 243.487 180.129 240.673 180.129 240.673C177.678 240.96 175.629 240.213 175.629 240.213C175.629 240.213 171.014 246.379 167.509 244.751C166.38 244.215 165.939 242.357 165.92 241.495C165.878 239.657 163.852 238.7 162.742 240.002C161.669 241.247 162.894 242.549 163.987 242.97C164.638 243.238 165.633 244.081 165.232 244.732C164.83 245.384 164.255 245.14 163.738 245.179Z" fill="#730030"/>
<path d="M163.738 245.179C162.972 245.22 160.023 244.145 159.257 246.365C158.376 248.97 161.402 250.119 163.144 248.606C165.021 246.978 167.893 247.016 168.564 248.165C168.869 248.702 169.272 249.85 166.725 251.765C165.94 252.378 161.689 255.001 164.657 257.816C165.671 258.754 168.43 258.372 169.138 254.542C169.655 251.67 170.536 250.214 171.589 249.736C172.126 249.487 173.849 248.989 174.768 249.75L175.61 250.401C177.142 251.415 179.056 250.209 178.654 248.543C178.194 246.629 176.701 247.088 175.61 247.625C174.805 248.027 173.772 247.681 173.772 247.681C173.043 247.316 172.814 246.494 174.001 245.919C179.133 243.487 180.128 240.672 180.128 240.672C177.677 240.96 175.629 240.212 175.629 240.212C175.629 240.212 171.014 246.378 167.509 244.751C166.38 244.214 165.939 242.357 165.92 241.495C165.878 239.657 163.852 238.699 162.741 240.002C161.668 241.247 162.894 242.548 163.986 242.97C164.638 243.238 165.633 244.08 165.231 244.731C164.83 245.383 164.255 245.14 163.738 245.179Z" stroke="#730030" stroke-width="0.53802"/>
<path d="M161.957 238.419C161.957 238.419 161.02 238.84 160.885 239.702C160.885 239.702 159.085 238.361 157.821 240.467C157.821 240.467 158.166 237.098 161.957 238.419Z" fill="#730030"/>
<path d="M161.957 238.419C161.957 238.419 161.02 238.84 160.885 239.702C160.885 239.702 159.085 238.361 157.821 240.467C157.821 240.467 158.166 237.098 161.957 238.419Z" stroke="#730030" stroke-width="0.53802"/>
<path d="M157.534 246.998C157.534 246.998 157.113 247.936 157.935 249.334C157.935 249.334 155.638 250.176 157.17 253.106C157.17 253.106 153.819 249.908 157.534 246.998Z" fill="#730030"/>
<path d="M157.534 246.998C157.534 246.998 157.113 247.936 157.935 249.334C157.935 249.334 155.638 250.176 157.17 253.106C157.17 253.106 153.819 249.908 157.534 246.998Z" stroke="#730030" stroke-width="0.53802"/>
<path d="M162.187 257.223C162.187 257.223 162.131 258.257 163.393 259.253C163.393 259.253 161.536 260.862 163.987 263.064C163.987 263.064 159.755 261.244 162.187 257.223Z" fill="#730030"/>
<path d="M162.187 257.223C162.187 257.223 162.131 258.257 163.393 259.253C163.393 259.253 161.536 260.862 163.987 263.064C163.987 263.064 159.755 261.244 162.187 257.223Z" stroke="#730030" stroke-width="0.53802"/>
<path d="M180.206 250.33C180.819 250.579 181.355 251.191 181.107 252.838C181.107 252.838 183.366 250.502 180.264 248.702L179.94 248.53C179.94 248.53 180.284 249.507 179.767 250.196L180.206 250.33Z" fill="#730030"/>
<path d="M180.206 250.33C180.819 250.579 181.355 251.192 181.107 252.839C181.107 252.839 183.366 250.502 180.264 248.702L179.94 248.53C179.94 248.53 180.284 249.507 179.767 250.196L180.206 250.33Z" stroke="#730030" stroke-width="0.53802"/>
<path d="M216.608 250.177C215.995 250.425 215.479 251.038 215.708 252.685C215.708 252.685 213.448 250.349 216.55 248.549L216.875 248.376C216.875 248.376 216.531 249.354 217.048 250.043L216.608 250.177Z" fill="#730030"/>
<path d="M216.608 250.177C215.995 250.425 215.479 251.038 215.708 252.685C215.708 252.685 213.448 250.349 216.55 248.549L216.875 248.376C216.875 248.376 216.531 249.354 217.048 250.043L216.608 250.177Z" stroke="#730030" stroke-width="0.53802"/>
<path d="M198.57 189.417C200.179 188.939 200.926 187.771 200.926 187.771C202.016 189.188 205.291 189.973 206.862 190.088C210.711 200.16 219.002 206.268 211.323 219.902C203.3 234.149 197.498 236.083 208.681 245.83C208.681 245.83 201.538 247.821 199.872 241.636C199.872 241.636 200.236 248.453 198.57 250.253C196.904 248.453 197.229 241.732 197.229 241.732C195.563 247.917 188.421 245.926 188.421 245.926C199.604 236.179 193.802 234.245 185.797 219.998C178.1 206.345 186.467 200.217 190.297 190.145C192.059 189.973 195.008 189.226 196.329 187.809C196.329 187.809 196.943 188.958 198.57 189.417Z" fill="#730030"/>
<path d="M198.57 189.417C200.179 188.939 200.926 187.771 200.926 187.771C202.016 189.188 205.291 189.973 206.862 190.088C210.711 200.16 219.002 206.268 211.323 219.902C203.3 234.149 197.498 236.083 208.681 245.83C208.681 245.83 201.538 247.821 199.872 241.636C199.872 241.636 200.236 248.453 198.57 250.253C196.904 248.453 197.229 241.732 197.229 241.732C195.563 247.917 188.421 245.926 188.421 245.926C199.604 236.179 193.802 234.245 185.797 219.998C178.1 206.345 186.467 200.217 190.297 190.145C192.059 189.973 195.008 189.226 196.329 187.809C196.329 187.809 196.943 188.958 198.57 189.417Z" stroke="#730030" stroke-width="0.53802"/>
<path d="M202.4 249.832C205.024 251.536 209.466 250.1 209.466 250.1C209.466 250.1 209.355 251.325 213.353 253.01C219.328 255.519 225.609 261.857 217.394 271.087C217.394 271.087 220.802 260.574 215.536 258.123C215.536 258.123 210.96 262.604 204.353 253.719C202.994 251.919 202.4 249.832 202.4 249.832Z" fill="#730030"/>
<path d="M202.4 249.832C205.024 251.536 209.466 250.1 209.466 250.1C209.466 250.1 209.355 251.325 213.353 253.01C219.328 255.519 225.609 261.857 217.394 271.087C217.394 271.087 220.802 260.574 215.536 258.123C215.536 258.123 210.96 262.604 204.353 253.719C202.994 251.919 202.4 249.832 202.4 249.832Z" stroke="#730030" stroke-width="0.53802"/>
<path d="M217.24 212.817C217.451 215.536 217.853 215.651 220.343 216.877C220.343 216.877 221.319 215.958 221.817 215.019C223.349 212.051 220.764 207.666 220.764 207.666C223.579 211.132 227.657 209.964 227.657 209.964C227.352 207.015 223.406 204.315 223.406 204.315C227.044 205.004 229.917 202.994 229.917 202.994C228.902 201.06 225.053 198.647 225.053 198.647C228.768 198.398 231.372 196.081 231.372 196.081C230.262 194.491 226.087 192.423 226.087 192.423C228.078 191.237 230.051 187.77 230.051 187.77C227.217 186.239 223.942 186.584 223.942 186.584C229.189 182.735 223.521 172.26 223.521 172.26C224.326 188.077 212.128 183.96 213.066 192.022C213.851 198.648 221.051 193.784 221.051 193.784C222.314 203.013 217.03 203.875 217.03 203.875C217.03 203.875 217.298 206.097 217.375 208.452C217.472 211.305 217.15 211.496 217.24 212.817Z" fill="#730030"/>
<path d="M217.24 212.817C217.451 215.536 217.853 215.651 220.343 216.877C220.343 216.877 221.319 215.958 221.817 215.019C223.349 212.051 220.764 207.666 220.764 207.666C223.579 211.132 227.657 209.964 227.657 209.964C227.352 207.015 223.406 204.315 223.406 204.315C227.044 205.004 229.917 202.994 229.917 202.994C228.902 201.059 225.053 198.647 225.053 198.647C228.768 198.398 231.372 196.081 231.372 196.081C230.262 194.492 226.087 192.423 226.087 192.423C228.078 191.237 230.051 187.77 230.051 187.77C227.217 186.238 223.942 186.584 223.942 186.584C229.189 182.735 223.521 172.26 223.521 172.26C224.326 188.077 212.128 183.96 213.066 192.022C213.851 198.647 221.051 193.784 221.051 193.784C222.316 203.013 217.03 203.875 217.03 203.875C217.03 203.875 217.298 206.096 217.375 208.452C217.472 211.305 217.15 211.496 217.24 212.817Z" stroke="#730030" stroke-width="0.53802"/>
<path d="M233.306 235.815C216.513 235.413 213.525 222.679 213.525 222.679C215.115 220.324 215.402 219.098 215.402 219.098L215.67 218.409C216.78 219.615 221.013 221.186 221.013 221.186C221.013 221.186 223.445 219.079 224.057 218.198C225.685 215.843 225.953 214.138 225.953 214.138C228.787 214.208 231.392 211.726 231.392 211.726C231.564 209.122 230.491 206.939 230.491 206.939C232.502 206.001 234.589 203.932 234.589 203.932C233.23 201.06 232.348 200.122 232.348 200.122C235.584 197.613 235.7 196.081 235.7 196.081C234.895 193.898 231.946 191.773 231.946 191.773C233.211 190.068 234.416 186.756 234.416 186.756C232.08 184.42 229.84 183.711 229.84 183.711C230.185 182.389 230.108 181.126 230.012 179.728C230.012 179.728 249.276 169.694 251.402 163.203C251.402 163.203 252.302 168.966 251.938 172.681C251.613 175.994 246.481 181.394 234.091 189.686C241.693 188.517 252.11 184.439 254.389 180.36C254.389 180.36 254.431 186.277 253.106 189.781C252.034 192.615 246.654 194.645 234.513 200.62C240.507 203.913 251.134 200.256 254.179 197.192C254.179 197.192 252.494 202.343 250.502 205.502C249.238 207.513 244.202 210.864 232.502 209.141C236.849 214.541 245.179 218.619 250.828 216.054C250.828 216.054 250.254 221.186 246.826 222.679C244.279 223.789 238.936 224.498 230.396 217.892C235.547 230.626 248.09 226.739 248.09 226.739C248.09 226.739 245.121 231.813 241.828 233.575C238.898 235.126 232.847 233.88 223.043 223.215C223.043 223.215 223.655 232.655 233.306 235.815Z" fill="#730030"/>
<path d="M233.306 235.815C216.513 235.413 213.525 222.679 213.525 222.679C215.115 220.324 215.402 219.098 215.402 219.098L215.67 218.409C216.78 219.615 221.013 221.186 221.013 221.186C221.013 221.186 223.445 219.079 224.057 218.198C225.685 215.843 225.953 214.138 225.953 214.138C228.787 214.222 231.392 211.726 231.392 211.726C231.564 209.122 230.491 206.939 230.491 206.939C232.501 206.001 234.589 203.932 234.589 203.932C233.23 201.06 232.348 200.122 232.348 200.122C235.584 197.613 235.7 196.081 235.7 196.081C234.895 193.898 231.946 191.773 231.946 191.773C233.209 190.068 234.416 186.756 234.416 186.756C232.08 184.42 229.84 183.711 229.84 183.711C230.185 182.389 230.108 181.126 230.012 179.728C230.012 179.728 249.276 169.694 251.402 163.203C251.402 163.203 252.302 168.966 251.938 172.681C251.613 175.994 246.481 181.394 234.091 189.686C241.693 188.517 252.11 184.439 254.389 180.36C254.389 180.36 254.431 186.277 253.106 189.781C252.034 192.615 246.653 194.645 234.513 200.62C240.507 203.913 251.134 200.256 254.179 197.192C254.179 197.192 252.494 202.343 250.502 205.502C249.239 207.513 244.202 210.864 232.502 209.141C236.849 214.541 245.179 218.62 250.828 216.054C250.828 216.054 250.254 221.186 246.826 222.679C244.279 223.789 238.936 224.498 230.396 217.892C235.547 230.626 248.09 226.739 248.09 226.739C248.09 226.739 245.121 231.813 241.828 233.575C238.898 235.126 232.847 233.88 223.043 223.215C223.043 223.215 223.655 232.656 233.306 235.815Z" stroke="#730030" stroke-width="0.53802"/>
<path d="M211.668 226.145C211.668 226.145 208.374 230.779 207.34 233.843C207.34 233.843 213.87 239.472 212.702 245.658C212.702 245.658 214.904 241.177 213.411 237.768L212.569 235.547C212.569 235.547 218.217 238.247 221.951 236.236C221.951 236.236 217.93 236.696 213.468 229.668C211.113 225.915 211.668 226.145 211.668 226.145Z" fill="#730030"/>
<path d="M211.668 226.145C211.668 226.145 208.374 230.779 207.34 233.843C207.34 233.843 213.87 239.472 212.702 245.658C212.702 245.658 214.904 241.177 213.411 237.768L212.569 235.547C212.569 235.547 218.217 238.247 221.951 236.236C221.951 236.236 217.93 236.696 213.468 229.668C211.113 225.915 211.668 226.145 211.668 226.145Z" stroke="#730030" stroke-width="0.53802"/>
<path d="M233.383 245.179C234.149 245.221 237.098 244.145 237.864 246.366C238.745 248.97 235.719 250.119 233.996 248.606C232.1 246.979 229.228 247.017 228.558 248.166C228.232 248.702 227.849 249.851 230.396 251.766C231.181 252.378 235.432 255.002 232.464 257.817C231.45 258.754 228.692 258.373 227.983 254.542C227.486 251.67 226.586 250.215 225.532 249.736C224.996 249.487 223.272 248.99 222.353 249.75L221.511 250.401C219.979 251.416 218.064 250.21 218.466 248.544C218.926 246.629 220.42 247.089 221.511 247.625C222.316 248.027 223.35 247.681 223.35 247.681C224.078 247.317 224.307 246.494 223.12 245.919C217.988 243.487 216.993 240.673 216.993 240.673C219.444 240.96 221.493 240.213 221.493 240.213C221.493 240.213 226.088 246.379 229.612 244.751C230.761 244.215 231.182 242.357 231.201 241.495C231.243 239.657 233.269 238.7 234.38 240.002C235.453 241.247 234.227 242.549 233.135 242.97C232.483 243.238 231.488 244.081 231.89 244.732C232.291 245.384 232.867 245.14 233.383 245.179Z" fill="#730030"/>
<path d="M233.383 245.179C234.148 245.22 237.098 244.145 237.864 246.365C238.744 248.97 235.719 250.119 233.996 248.606C232.1 246.978 229.228 247.016 228.557 248.165C228.232 248.702 227.848 249.85 230.395 251.765C231.18 252.378 235.431 255.001 232.463 257.816C231.449 258.754 228.691 258.372 227.983 254.542C227.485 251.67 226.585 250.214 225.532 249.736C224.995 249.487 223.272 248.989 222.353 249.75L221.511 250.401C219.979 251.415 218.064 250.209 218.466 248.543C218.926 246.629 220.419 247.088 221.511 247.625C222.315 248.027 223.349 247.681 223.349 247.681C224.077 247.316 224.306 246.494 223.12 245.919C217.988 243.487 216.992 240.672 216.992 240.672C219.443 240.96 221.492 240.212 221.492 240.212C221.492 240.212 226.088 246.378 229.611 244.751C230.76 244.214 231.181 242.357 231.201 241.495C231.242 239.657 233.269 238.699 234.379 240.002C235.452 241.247 234.227 242.548 233.134 242.97C232.483 243.238 231.488 244.08 231.889 244.731C232.291 245.383 232.866 245.14 233.383 245.179Z" stroke="#730030" stroke-width="0.53802"/>
<path d="M235.164 238.419C235.164 238.419 236.102 238.84 236.237 239.702C236.237 239.702 238.037 238.361 239.301 240.467C239.301 240.467 238.955 237.098 235.164 238.419Z" fill="#730030"/>
<path d="M235.164 238.419C235.164 238.419 236.102 238.84 236.237 239.702C236.237 239.702 238.037 238.361 239.301 240.467C239.301 240.467 238.955 237.098 235.164 238.419Z" stroke="#730030" stroke-width="0.53802"/>
<path d="M239.587 246.998C239.587 246.998 240.008 247.936 239.186 249.334C239.186 249.334 241.483 250.176 239.971 253.106C239.971 253.106 243.303 249.908 239.587 246.998Z" fill="#730030"/>
<path d="M239.587 246.998C239.587 246.998 240.008 247.936 239.186 249.334C239.186 249.334 241.483 250.176 239.971 253.106C239.971 253.106 243.303 249.908 239.587 246.998Z" stroke="#730030" stroke-width="0.53802"/>
<path d="M234.934 257.223C234.934 257.223 234.989 258.257 233.728 259.253C233.728 259.253 235.585 260.862 233.134 263.064C233.134 263.064 237.366 261.244 234.934 257.223Z" fill="#730030"/>
<path d="M234.934 257.223C234.934 257.223 234.989 258.257 233.728 259.253C233.728 259.253 235.585 260.862 233.134 263.064C233.134 263.064 237.366 261.244 234.934 257.223Z" stroke="#730030" stroke-width="0.53802"/>
<path d="M198.551 255.098C199.049 254.849 199.565 254.753 200.198 254.121C200.198 254.121 204.507 264.27 214.196 263.217C214.196 263.217 213.64 265.381 209.811 265.63C209.811 265.63 216.36 268.674 212.587 271.738C210.117 273.768 208.164 268.119 208.164 268.119C208.164 268.119 207.876 273.289 203.415 273.327C203.415 273.327 210.04 269.459 203.108 260.345C203.778 266.74 201.557 272.677 198.569 272.677C195.563 272.677 193.342 266.74 194.012 260.345C187.08 269.459 193.706 273.327 193.706 273.327C189.245 273.286 188.958 268.119 188.958 268.119C188.958 268.119 187.004 273.768 184.534 271.738C180.743 268.674 187.33 265.63 187.33 265.63C183.481 265.381 182.926 263.217 182.926 263.217C192.615 264.27 196.923 254.121 196.923 254.121C197.555 254.753 198.053 254.849 198.551 255.098Z" fill="#730030"/>
<path d="M198.551 255.098C199.048 254.849 199.565 254.753 200.198 254.121C200.198 254.121 204.506 264.27 214.196 263.217C214.196 263.217 213.64 265.381 209.81 265.63C209.81 265.63 216.36 268.674 212.587 271.738C210.117 273.768 208.164 268.119 208.164 268.119C208.164 268.119 207.876 273.289 203.415 273.327C203.415 273.327 210.04 269.46 203.109 260.345C203.779 266.741 201.558 272.677 198.57 272.677C195.564 272.677 193.343 266.741 194.013 260.345C187.081 269.46 193.707 273.327 193.707 273.327C189.246 273.286 188.959 268.119 188.959 268.119C188.959 268.119 187.005 273.768 184.535 271.738C180.744 268.674 187.331 265.63 187.331 265.63C183.482 265.381 182.927 263.217 182.927 263.217C192.616 264.27 196.925 254.121 196.925 254.121C197.557 254.753 198.053 254.849 198.551 255.098Z" stroke="#730030" stroke-width="0.53802"/>
<path d="M197.651 170.555L197.568 170.268L197.262 169.099L197.178 168.812L196.91 168.923L191.721 170.933L194.498 170.78L194.345 171.336C194.345 171.968 194.862 172.505 195.494 172.505C196.146 172.505 196.663 171.968 196.663 171.336L196.451 170.666L197.332 170.569L197.651 170.555Z" fill="#FAB83A" stroke="#FAB83A" stroke-width="0.53802"/>
<path d="M211.955 206.996C211.037 205.176 210.021 204.621 209.083 204.315L208.642 203.51C207.436 201.768 205.482 201.538 204.066 202.093C203.568 202.285 203.261 202.418 203.012 202.571L203.337 202.15L203.393 202.053C203.622 201.747 203.834 201.44 204.139 200.636C204.676 199.238 204.445 197.266 202.722 196.059L201.918 195.638C201.612 194.72 201.056 193.685 199.218 192.766L198.72 192.498L198.203 192.766C196.384 193.666 195.829 194.7 195.522 195.638L194.718 196.059C192.994 197.265 192.745 199.238 193.282 200.636C193.589 201.44 193.818 201.746 194.047 202.053L194.103 202.15L194.428 202.61C194.198 202.457 193.872 202.304 193.318 202.093C191.92 201.537 189.967 201.768 188.741 203.51L188.32 204.315C187.401 204.602 186.367 205.157 185.448 206.996L185.179 207.512L185.448 208.01C186.348 209.829 187.382 210.384 188.32 210.691L188.741 211.515C189.967 213.238 191.92 213.468 193.318 212.932C194.122 212.626 194.428 212.415 194.735 212.186L194.832 212.13L195.349 211.746V216.4L194.793 215.94L194.104 216.917L194.048 217.014C193.819 217.301 193.588 217.627 193.282 218.431C192.746 219.829 192.995 221.782 194.719 223.007L195.523 223.429C195.811 224.347 196.365 225.382 198.204 226.301L198.721 226.569L199.218 226.301C201.038 225.4 201.612 224.367 201.899 223.429L202.722 223.007C204.446 221.782 204.675 219.829 204.139 218.431C203.832 217.626 203.622 217.301 203.393 217.014L203.337 216.917L202.629 215.959L202.073 216.4V211.765L202.57 212.13L202.654 212.185C202.96 212.415 203.286 212.626 204.071 212.932C205.488 213.468 207.441 213.238 208.648 211.514L209.088 210.71C210.006 210.404 211.041 209.848 211.96 208.01L212.209 207.512L211.955 206.996Z" fill="#FAB83A" stroke="#FAB83A" stroke-width="0.53802"/>
<path d="M209.217 207.379C209.217 207.379 208.203 205.981 206.766 206.325C206.938 205.924 207.015 205.368 206.613 204.813C206.039 203.971 205.177 204.047 204.794 204.2L204.565 204.297L204.717 204.508L204.929 205.045C204.943 205.332 204.929 205.791 204.373 206.213L203.09 206.443H199.797V201.502L200.026 200.22C200.447 199.664 200.907 199.626 201.194 199.664L201.731 199.855L201.942 200.028L202.039 199.779C202.192 199.415 202.269 198.554 201.446 197.96C200.89 197.576 200.317 197.654 199.914 197.821C200.259 196.385 198.861 195.37 198.861 195.37L198.805 195.328H198.694L198.638 195.37C198.638 195.37 197.241 196.385 197.585 197.821C197.184 197.649 196.608 197.572 196.053 197.96C195.229 198.553 195.307 199.415 195.46 199.779L195.557 200.009L195.749 199.869L196.285 199.658C196.593 199.617 197.051 199.658 197.472 200.214L197.701 201.44L197.687 201.454V206.432H194.241L192.977 206.203C192.422 205.782 192.384 205.322 192.404 205.034L192.614 204.498L192.766 204.287L192.537 204.189C192.173 204.037 191.292 203.96 190.718 204.802C190.334 205.358 190.393 205.913 190.579 206.315C189.143 205.971 188.128 207.369 188.128 207.369L188.086 207.424V207.535L188.128 207.591C188.128 207.591 189.142 208.989 190.579 208.644C190.387 209.065 190.33 209.621 190.718 210.176C191.292 211 192.173 210.922 192.537 210.769L192.766 210.672L192.614 210.48L192.404 209.944C192.39 209.638 192.417 209.178 192.977 208.757L194.203 208.528L194.217 208.542H197.683V217.484L197.697 217.54L197.468 218.765C197.047 219.321 196.587 219.339 196.281 219.321L195.745 219.13L195.553 218.957L195.456 219.187C195.303 219.57 195.226 220.432 196.049 221.006C196.605 221.407 197.179 221.331 197.581 221.158C197.236 222.595 198.634 223.61 198.634 223.61L198.69 223.624H198.801L198.857 223.61C198.857 223.61 200.255 222.595 199.91 221.158C200.312 221.331 200.887 221.407 201.442 221.006C202.266 220.432 202.188 219.569 202.035 219.187L201.938 218.957L201.727 219.11L201.19 219.321C200.903 219.335 200.443 219.321 200.022 218.765L199.793 217.483V208.54H203.086L203.141 208.526L204.367 208.756C204.923 209.177 204.941 209.637 204.923 209.942L204.731 210.479L204.559 210.67L204.788 210.768C205.172 210.921 206.033 210.997 206.607 210.175C207.009 209.619 206.932 209.064 206.76 208.643C208.196 208.987 209.211 207.59 209.211 207.59L209.225 207.534V207.422L209.217 207.379Z" fill="#730030" stroke="#730030" stroke-width="0.53802"/>
<path d="M333.48 199.82V151.436H357.864L357.096 158.988H342.888V171.532H352.936V179.468H342.888V199.052L333.48 199.82ZM375.91 178.38H372.262V199.052L362.918 199.82V151.82L374.31 151.436C379.814 151.436 384.123 152.546 387.238 154.764C390.352 156.94 391.91 160.29 391.91 164.812C391.91 167.799 391.312 170.252 390.118 172.172C388.966 174.092 387.28 175.692 385.062 176.972L389.35 187.404L393.701 197.772L384.486 200.268L375.91 178.38ZM375.462 171.468C377.68 171.468 379.408 171.02 380.646 170.124C381.926 169.186 382.566 167.436 382.566 164.876C382.566 160.908 380.603 158.924 376.678 158.924H372.262V171.468H375.462ZM412.033 200.332C406.614 200.332 402.796 198.007 400.577 193.356C398.401 188.663 397.313 182.604 397.313 175.18C397.313 167.287 398.486 161.207 400.833 156.94C403.18 152.674 406.956 150.54 412.161 150.54C422.102 150.54 427.073 158.668 427.073 174.924C427.073 182.22 425.942 188.279 423.681 193.1C421.462 197.922 417.58 200.332 412.033 200.332ZM412.161 192.78C414.422 192.78 415.916 191.308 416.641 188.364C417.366 185.378 417.729 180.876 417.729 174.86C417.729 170.039 417.366 166.05 416.641 162.892C415.958 159.692 414.465 158.092 412.161 158.092C409.857 158.092 408.364 159.671 407.681 162.828C406.998 165.986 406.657 169.975 406.657 174.796C406.657 180.855 406.998 185.378 407.681 188.364C408.406 191.308 409.9 192.78 412.161 192.78ZM466.358 199.82V163.788L457.398 199.436H451.638L441.974 163.66V199.052L434.23 199.436V151.884L447.99 151.5L455.926 181.196L463.542 152.588L476.086 151.82V199.052L466.358 199.82ZM365.608 263.82V227.788L356.648 263.436H350.888L341.224 227.66V263.052L333.48 263.436V215.884L347.24 215.5L355.176 245.196L362.792 216.588L375.336 215.82V263.052L365.608 263.82ZM380.581 263.436L390.693 216.012L404.069 215.436L414.437 263.052L404.197 263.436L402.469 253.132H391.013L388.965 263.436H380.581ZM392.741 245.452H400.741L396.325 222.476L392.741 245.452ZM432.661 264.332C427.157 264.332 423.274 261.836 421.013 256.844C418.794 251.852 417.685 245.708 417.685 238.412C417.685 234.487 418.197 230.711 419.221 227.084C420.245 223.458 421.888 220.471 424.149 218.124C426.453 215.735 429.354 214.54 432.853 214.54C435.541 214.54 437.888 215.372 439.893 217.036C441.941 218.7 443.498 220.876 444.565 223.564C445.674 226.21 446.229 228.983 446.229 231.884L437.141 232.332C437.141 230.412 436.821 228.236 436.181 225.804C435.541 223.33 434.261 222.092 432.341 222.092C430.336 222.092 428.949 223.692 428.181 226.892C427.413 230.092 427.029 233.932 427.029 238.412C427.029 243.959 427.456 248.418 428.309 251.788C429.162 255.116 430.805 256.78 433.237 256.78C434.944 256.78 436.16 255.778 436.885 253.772C437.61 251.724 438.08 249.25 438.293 246.348L446.293 247.116C446.293 250.188 445.781 253.047 444.757 255.692C443.733 258.295 442.197 260.386 440.149 261.964C438.101 263.543 435.605 264.332 432.661 264.332Z" fill="#B92362"/>
</svg>
