<svg width="605" height="403" viewBox="0 0 605 403" fill="none" xmlns="http://www.w3.org/2000/svg">
<ellipse cx="302.5" cy="201.5" rx="297.5" ry="196.5" stroke="#68ABE9" stroke-width="10" stroke-linecap="round" stroke-dasharray="10 15"/>
<ellipse cx="303" cy="201.5" rx="282" ry="184.5" fill="#8FC9FF"/>
<path d="M101.48 170.384V122H125.864L125.096 129.552H110.888V142.096H120.936V150.032H110.888V169.616L101.48 170.384ZM143.91 148.944H140.262V169.616L130.918 170.384V122.384L142.31 122C147.814 122 152.123 123.109 155.238 125.328C158.352 127.504 159.91 130.853 159.91 135.376C159.91 138.363 159.312 140.816 158.118 142.736C156.966 144.656 155.28 146.256 153.062 147.536L157.35 157.968L161.701 168.336L152.486 170.832L143.91 148.944ZM143.462 142.032C145.68 142.032 147.408 141.584 148.646 140.688C149.926 139.749 150.566 138 150.566 135.44C150.566 131.472 148.603 129.488 144.678 129.488H140.262V142.032H143.462ZM180.033 170.896C174.614 170.896 170.796 168.571 168.577 163.92C166.401 159.227 165.313 153.168 165.313 145.744C165.313 137.851 166.486 131.771 168.833 127.504C171.18 123.237 174.956 121.104 180.161 121.104C190.102 121.104 195.073 129.232 195.073 145.488C195.073 152.784 193.942 158.843 191.681 163.664C189.462 168.485 185.58 170.896 180.033 170.896ZM180.161 163.344C182.422 163.344 183.916 161.872 184.641 158.928C185.366 155.941 185.729 151.44 185.729 145.424C185.729 140.603 185.366 136.613 184.641 133.456C183.958 130.256 182.465 128.656 180.161 128.656C177.857 128.656 176.364 130.235 175.681 133.392C174.998 136.549 174.657 140.539 174.657 145.36C174.657 151.419 174.998 155.941 175.681 158.928C176.406 161.872 177.9 163.344 180.161 163.344ZM234.358 170.384V134.352L225.398 170H219.638L209.974 134.224V169.616L202.23 170V122.448L215.99 122.064L223.926 151.76L231.542 123.152L244.086 122.384V169.616L234.358 170.384ZM108.456 234.384V214.992L96.936 186H107.24L113.832 205.968L120.936 186H129L117.928 213.904V233.616L108.456 234.384ZM146.471 234.896C141.052 234.896 137.233 232.571 135.015 227.92C132.839 223.227 131.751 217.168 131.751 209.744C131.751 201.851 132.924 195.771 135.271 191.504C137.617 187.237 141.393 185.104 146.599 185.104C156.54 185.104 161.511 193.232 161.511 209.488C161.511 216.784 160.38 222.843 158.119 227.664C155.9 232.485 152.017 234.896 146.471 234.896ZM146.599 227.344C148.86 227.344 150.353 225.872 151.079 222.928C151.804 219.941 152.167 215.44 152.167 209.424C152.167 204.603 151.804 200.613 151.079 197.456C150.396 194.256 148.903 192.656 146.599 192.656C144.295 192.656 142.801 194.235 142.119 197.392C141.436 200.549 141.095 204.539 141.095 209.36C141.095 215.419 141.436 219.941 142.119 222.928C142.844 225.872 144.337 227.344 146.599 227.344ZM182.62 234.896C177.841 234.896 174.257 233.36 171.868 230.288C169.478 227.216 168.284 223.184 168.284 218.192V186.384L177.692 186V218.96C177.692 220.624 177.777 222.032 177.948 223.184C178.161 224.336 178.652 225.317 179.42 226.128C180.188 226.939 181.361 227.344 182.94 227.344C184.433 227.344 185.521 226.939 186.204 226.128C186.929 225.275 187.377 224.293 187.548 223.184C187.718 222.032 187.804 220.581 187.804 218.832V186.768L196.38 186V217.104C196.38 221.627 195.484 225.723 193.692 229.392C191.942 233.061 188.252 234.896 182.62 234.896ZM218.035 212.944H214.387V233.616L205.043 234.384V186.384L216.435 186C221.939 186 226.248 187.109 229.363 189.328C232.477 191.504 234.035 194.853 234.035 199.376C234.035 202.363 233.437 204.816 232.243 206.736C231.091 208.656 229.405 210.256 227.187 211.536L231.475 221.968L235.826 232.336L226.611 234.832L218.035 212.944ZM217.587 206.032C219.805 206.032 221.533 205.584 222.771 204.688C224.051 203.749 224.691 202 224.691 199.44C224.691 195.472 222.728 193.488 218.803 193.488H214.387V206.032H217.587ZM279.255 234.384L265.239 204.368V233.616L256.855 234V186.384L266.647 186L279.063 214.544V186.768L286.999 186V233.616L279.255 234.384ZM295.98 234V186H320.364L319.596 193.488H305.388V204.944H315.5L315.436 213.008H305.388V226.512H320.876L320.108 234H295.98ZM322.438 234L334.406 209.616L322.95 186H334.15L339.718 198.48L345.478 186H354.438L343.622 207.824L356.038 234H344.902L338.118 218.96L331.334 234H322.438ZM366.376 234.384V193.488H356.584L357.288 186H385.448L384.68 193.488H375.72V233.616L366.376 234.384ZM101.48 250H111.336C117.651 250 122.365 252.005 125.48 256.016C128.595 260.027 130.152 266.085 130.152 274.192C130.152 278.501 129.555 282.448 128.36 286.032C127.208 289.616 125.352 292.517 122.792 294.736C120.232 296.912 116.968 298 113 298H101.48V250ZM112.168 290.512C115.411 290.512 117.651 289.125 118.888 286.352C120.168 283.536 120.808 280.08 120.808 275.984V273.808C120.808 270.864 120.616 268.261 120.232 266C119.891 263.696 119.059 261.712 117.736 260.048C116.456 258.341 114.515 257.488 111.912 257.488H110.824V290.512H112.168ZM136.918 298V250H161.302L160.534 257.488H146.326V268.944H156.438L156.374 277.008H146.326V290.512H161.814L161.046 298H136.918ZM180.527 298.896C176.644 298.896 173.359 297.829 170.671 295.696C168.026 293.52 166.084 290.619 164.847 286.992L172.783 283.28L173.551 284.56C174.788 286.693 175.962 288.357 177.071 289.552C178.223 290.747 179.652 291.344 181.359 291.344C182.468 291.344 183.45 290.811 184.303 289.744C185.199 288.677 185.647 287.504 185.647 286.224C185.647 285.029 185.348 283.941 184.751 282.96C184.154 281.979 183.386 281.189 182.447 280.592L174.063 275.6C171.631 274.235 169.69 272.507 168.239 270.416C166.788 268.325 166.063 265.979 166.063 263.376C166.063 260.603 166.703 258.128 167.983 255.952C169.306 253.776 171.076 252.091 173.295 250.896C175.556 249.701 178.095 249.104 180.911 249.104C184.196 249.104 186.991 249.915 189.295 251.536C191.599 253.157 193.306 255.568 194.415 258.768L186.479 262.352C186.308 262.011 185.946 261.243 185.391 260.048C184.836 258.853 184.154 258 183.343 257.488C182.575 256.933 181.615 256.656 180.463 256.656C179.055 256.656 177.967 257.104 177.199 258C176.474 258.896 176.111 260.048 176.111 261.456C176.111 262.48 176.388 263.419 176.943 264.272C177.54 265.083 178.244 265.723 179.055 266.192L186.799 270.736C192.516 273.979 195.524 278.245 195.823 283.536C195.823 286.565 195.14 289.253 193.775 291.6C192.452 293.904 190.618 295.696 188.271 296.976C185.967 298.256 183.386 298.896 180.527 298.896ZM208.188 298.384V257.488H198.396L199.1 250H227.26L226.492 257.488H217.532V297.616L208.188 298.384ZM232.48 298.384V250.768L241.888 250V297.616L232.48 298.384ZM273.255 298.384L259.239 268.368V297.616L250.855 298V250.384L260.647 250L273.063 278.544V250.768L280.999 250V297.616L273.255 298.384ZM286.268 298L296.38 250.576L309.756 250L320.124 297.616L309.884 298L308.156 287.696H296.7L294.652 298H286.268ZM298.428 280.016H306.428L302.012 257.04L298.428 280.016ZM331.501 298.384V257.488H321.709L322.413 250H350.573L349.805 257.488H340.845V297.616L331.501 298.384ZM355.793 298.384V250.768L365.201 250V297.616L355.793 298.384ZM387.096 298.896C381.677 298.896 377.858 296.571 375.64 291.92C373.464 287.227 372.376 281.168 372.376 273.744C372.376 265.851 373.549 259.771 375.896 255.504C378.242 251.237 382.018 249.104 387.224 249.104C397.165 249.104 402.136 257.232 402.136 273.488C402.136 280.784 401.005 286.843 398.744 291.664C396.525 296.485 392.642 298.896 387.096 298.896ZM387.224 291.344C389.485 291.344 390.978 289.872 391.704 286.928C392.429 283.941 392.792 279.44 392.792 273.424C392.792 268.603 392.429 264.613 391.704 261.456C391.021 258.256 389.528 256.656 387.224 256.656C384.92 256.656 383.426 258.235 382.744 261.392C382.061 264.549 381.72 268.539 381.72 273.36C381.72 279.419 382.061 283.941 382.744 286.928C383.469 289.872 384.962 291.344 387.224 291.344ZM431.693 298.384L417.677 268.368V297.616L409.293 298V250.384L419.085 250L431.501 278.544V250.768L439.437 250V297.616L431.693 298.384Z" fill="#2196D8"/>
<path d="M458.757 99.6476L461.224 79.5302L471.282 80.7636L468.816 100.881L458.757 99.6476ZM490.506 117.579L484.439 109.816L500.294 97.0834L506.456 105.114L490.506 117.579ZM494.058 144.816L495.291 134.757L515.409 137.224L514.175 147.283L494.058 144.816ZM447.656 190.175L450.123 170.058L460.182 171.292L457.715 191.409L447.656 190.175ZM433.705 110.359L421.083 94.6451L429.113 88.4829L441.579 104.433L433.705 110.359ZM489.684 182.567L477.501 166.396L485.123 160.439L497.761 176.027L489.684 182.567ZM403.53 133.715L404.763 123.657L424.881 126.123L423.647 136.182L403.53 133.715ZM418.645 173.856L412.483 165.826L428.292 153.47L431.522 157.312L434.736 161.28L418.645 173.856ZM455.769 165.646C447.387 164.618 440.622 160.81 435.474 154.223C430.326 147.636 428.266 140.152 429.293 131.769C430.321 123.387 434.129 116.622 440.716 111.474C447.303 106.326 454.787 104.266 463.17 105.294C471.552 106.321 478.317 110.129 483.465 116.716C488.613 123.303 490.673 130.788 489.645 139.17C488.618 147.552 484.81 154.317 478.223 159.465C471.636 164.613 464.151 166.673 455.769 165.646Z" fill="url(#paint0_radial_489_7185)"/>
<defs>
<radialGradient id="paint0_radial_489_7185" cx="0" cy="0" r="1" gradientUnits="userSpaceOnUse" gradientTransform="translate(459.469 135.47) rotate(96.0836) scale(71.2591)">
<stop stop-color="#FFF5E2"/>
<stop offset="1" stop-color="#FAD863"/>
</radialGradient>
</defs>
</svg>
