<svg width="467" height="226" viewBox="0 0 467 226" fill="none" xmlns="http://www.w3.org/2000/svg">
<g filter="url(#filter0_d_1029_327)">
<path d="M6 75.2C6 36.9819 36.9819 6 75.2 6H383.2C421.418 6 452.4 36.9819 452.4 75.2V142.4C452.4 180.618 421.418 211.6 383.2 211.6H75.1999C36.9818 211.6 6 180.618 6 142.4V75.2Z" fill="white" shape-rendering="crispEdges"/>
<path d="M75.2002 7.5H383.2C420.59 7.50006 450.9 37.8106 450.9 75.2002V142.4C450.9 179.79 420.59 210.1 383.2 210.1H75.2002C37.8106 210.1 7.5002 179.79 7.5 142.4V75.2002C7.5 37.8105 37.8105 7.5 75.2002 7.5Z" stroke="black" stroke-opacity="0.2" stroke-width="3" shape-rendering="crispEdges"/>
<rect x="27.2" y="27.2" width="404" height="163.2" rx="48" fill="#8FC9FF"/>
<rect x="27.2" y="27.2" width="404" height="163.2" rx="48" stroke="#055785" stroke-width="6.4"/>
<path d="M86.3232 133.8C100.13 133.8 111.323 122.607 111.323 108.8C111.323 94.9929 100.13 83.8 86.3232 83.8C72.5161 83.8 61.3232 94.9929 61.3232 108.8C61.3232 122.607 72.5161 133.8 86.3232 133.8Z" stroke="#5E8D11" stroke-width="5" stroke-linecap="round" stroke-linejoin="round"/>
<path d="M86.3232 83.8C79.9038 90.5404 76.3232 99.4919 76.3232 108.8C76.3232 118.108 79.9038 127.06 86.3232 133.8C92.7427 127.06 96.3232 118.108 96.3232 108.8C96.3232 99.4919 92.7427 90.5404 86.3232 83.8Z" stroke="#5E8D11" stroke-width="5" stroke-linecap="round" stroke-linejoin="round"/>
<path d="M61.3232 108.8H111.323" stroke="#5E8D11" stroke-width="5" stroke-linecap="round" stroke-linejoin="round"/>
<path d="M81.5996 133.8C95.4067 133.8 106.6 122.607 106.6 108.8C106.6 94.9929 95.4067 83.8 81.5996 83.8C67.7925 83.8 56.5996 94.9929 56.5996 108.8C56.5996 122.607 67.7925 133.8 81.5996 133.8Z" stroke="#D9FF78" stroke-width="5" stroke-linecap="round" stroke-linejoin="round"/>
<path d="M81.5996 83.8C75.1802 90.5404 71.5996 99.4919 71.5996 108.8C71.5996 118.108 75.1802 127.06 81.5996 133.8C88.019 127.06 91.5996 118.108 91.5996 108.8C91.5996 99.4919 88.019 90.5404 81.5996 83.8Z" stroke="#D9FF78" stroke-width="5" stroke-linecap="round" stroke-linejoin="round"/>
<path d="M56.5996 108.8H106.6" stroke="#D9FF78" stroke-width="5" stroke-linecap="round" stroke-linejoin="round"/>
<path d="M135.744 127.3V88.902H158.31V93.9516H141.32V104.84H156.469V109.837H141.32V122.25H158.31V127.3H135.744ZM167.021 127.3V88.902H172.701V122.093H189.481V127.3H167.021ZM207.713 127.826C205.118 127.826 202.891 127.405 201.032 126.564C199.174 125.687 197.736 124.46 196.719 122.882C195.702 121.269 195.194 119.357 195.194 117.148H200.822C200.822 118.902 201.436 120.287 202.663 121.304C203.89 122.286 205.591 122.776 207.765 122.776C209.799 122.776 211.395 122.286 212.552 121.304C213.709 120.322 214.288 118.972 214.288 117.253C214.288 115.816 213.884 114.571 213.078 113.519C212.306 112.467 211.184 111.748 209.711 111.362L204.872 109.942C202.067 109.136 199.893 107.768 198.35 105.839C196.842 103.876 196.088 101.544 196.088 98.8434C196.088 96.7394 196.561 94.8984 197.508 93.3204C198.455 91.7424 199.805 90.5151 201.558 89.6384C203.312 88.7618 205.381 88.3234 207.765 88.3234C211.272 88.3234 214.077 89.2702 216.181 91.1638C218.32 93.0574 219.407 95.5998 219.442 98.7908H213.762C213.762 97.1076 213.218 95.7926 212.131 94.8458C211.079 93.864 209.589 93.373 207.66 93.373C205.801 93.373 204.346 93.8289 203.294 94.7406C202.242 95.6173 201.716 96.8622 201.716 98.4752C201.716 99.913 202.102 101.158 202.873 102.21C203.68 103.262 204.82 103.998 206.292 104.419L211.184 105.892C213.989 106.663 216.146 108.031 217.654 109.995C219.162 111.958 219.916 114.308 219.916 117.043C219.916 119.182 219.407 121.076 218.39 122.724C217.373 124.337 215.953 125.599 214.13 126.511C212.306 127.388 210.167 127.826 207.713 127.826ZM227.207 127.3V88.902H249.772V93.9516H232.782V104.84H247.931V109.837H232.782V122.25H249.772V127.3H227.207ZM258.01 127.3L253.854 88.902H258.956L261.534 116.464C261.604 117.166 261.657 117.937 261.692 118.779C261.762 119.62 261.814 120.445 261.849 121.251C261.92 122.058 261.955 122.759 261.955 123.355C262.025 122.759 262.095 122.058 262.165 121.251C262.235 120.445 262.305 119.62 262.375 118.779C262.481 117.937 262.586 117.166 262.691 116.464L266.005 88.902H271.265L274.368 116.464C274.438 117.166 274.508 117.937 274.579 118.779C274.684 119.62 274.789 120.445 274.894 121.251C274.999 122.058 275.07 122.759 275.105 123.355C275.14 122.759 275.175 122.058 275.21 121.251C275.28 120.445 275.35 119.62 275.42 118.779C275.49 117.937 275.56 117.166 275.631 116.464L278.261 88.902H283.205L278.892 127.3H272.317L269.213 99.3694C269.143 98.633 269.073 97.8616 269.003 97.055C268.933 96.2134 268.863 95.4069 268.793 94.6354C268.722 93.8289 268.652 93.1626 268.582 92.6366C268.547 93.1626 268.495 93.8289 268.424 94.6354C268.354 95.4069 268.284 96.2134 268.214 97.055C268.144 97.8616 268.056 98.633 267.951 99.3694L264.637 127.3H258.01ZM287.708 127.3V88.902H293.389V104.787H304.645V88.902H310.326V127.3H304.645V110.047H293.389V127.3H287.708ZM318.669 127.3V88.902H341.234V93.9516H324.245V104.84H339.393V109.837H324.245V122.25H341.234V127.3H318.669ZM348.63 127.3V88.902H360.676C363.095 88.902 365.199 89.3754 366.988 90.3222C368.776 91.234 370.161 92.5314 371.143 94.2146C372.16 95.8978 372.669 97.8791 372.669 100.158C372.669 102.718 372.002 104.945 370.67 106.839C369.372 108.697 367.601 110.012 365.357 110.784L373.195 127.3H366.725L359.729 111.52H354.311V127.3H348.63ZM354.311 106.523H360.676C362.569 106.523 364.077 105.962 365.199 104.84C366.322 103.683 366.883 102.157 366.883 100.264C366.883 98.2999 366.322 96.757 365.199 95.6348C364.077 94.5127 362.569 93.9516 360.676 93.9516H354.311V106.523ZM379.644 127.3V88.902H402.209V93.9516H385.219V104.84H400.368V109.837H385.219V122.25H402.209V127.3H379.644Z" fill="#055785"/>
</g>
<defs>
<filter id="filter0_d_1029_327" x="0" y="0" width="466.4" height="225.6" filterUnits="userSpaceOnUse" color-interpolation-filters="sRGB">
<feFlood flood-opacity="0" result="BackgroundImageFix"/>
<feColorMatrix in="SourceAlpha" type="matrix" values="0 0 0 0 0 0 0 0 0 0 0 0 0 0 0 0 0 0 127 0" result="hardAlpha"/>
<feOffset dx="4" dy="4"/>
<feGaussianBlur stdDeviation="5"/>
<feComposite in2="hardAlpha" operator="out"/>
<feColorMatrix type="matrix" values="0 0 0 0 0 0 0 0 0 0 0 0 0 0 0 0 0 0 0.1 0"/>
<feBlend mode="normal" in2="BackgroundImageFix" result="effect1_dropShadow_1029_327"/>
<feBlend mode="normal" in="SourceGraphic" in2="effect1_dropShadow_1029_327" result="shape"/>
</filter>
</defs>
</svg>
