<svg width="605" height="403" viewBox="0 0 605 403" fill="none" xmlns="http://www.w3.org/2000/svg">
<ellipse cx="302.5" cy="201.5" rx="297.5" ry="196.5" stroke="#E8CC6A" stroke-width="10" stroke-linecap="round" stroke-dasharray="10 15"/>
<ellipse cx="303" cy="201.5" rx="282" ry="184.5" fill="#FFE793"/>
<path d="M174.04 293.605L172.235 292.76C152.171 283.477 135.981 269.99 125.404 253.762C100.042 214.848 99.2057 174.654 98.3195 132.098C98.2514 128.873 98.1846 125.643 98.1035 122.402L98 118H250L249.891 122.402C249.811 125.661 249.743 128.913 249.678 132.158C248.785 174.69 247.943 214.872 222.59 253.762C212.039 269.968 195.876 283.45 175.848 292.76L174.04 293.605Z" fill="white"/>
<path d="M173.691 170.398L114.138 217.28C104.567 187.635 104.831 156.642 104.062 125.078H243.006C242.238 156.719 242.596 187.589 232.958 217.303L173.691 170.398Z" fill="#FCD634"/>
<path d="M221.918 242.58C220.449 245.188 218.88 247.78 217.195 250.368C206.604 266.632 190.871 278.671 173.57 286.71C156.198 278.671 140.471 266.632 129.875 250.368C128.223 247.845 125.25 242.765 125.25 242.765L173.69 204.103L221.918 242.58Z" fill="#FCD634"/>
<path d="M132.923 148.877C125.885 147.383 119.623 142.15 121.133 135.513C121.148 135.45 120.862 133.797 120.254 133.57C120.207 133.55 120.108 133.365 120.005 133.335C119.736 133.266 119.513 133.148 119.287 132.989C119.21 132.929 118.88 132.818 118.88 132.701C118.754 132.975 118.78 133.228 118.592 133.47C118.527 133.558 118.425 133.695 118.324 133.747C118.199 133.813 118.189 133.93 118.091 134.017C117.563 134.551 117.845 135.352 117.928 135.961C117.951 136.114 118.017 136.301 117.83 136.335C117.604 136.373 117.784 136.275 117.525 136.114C117.463 136.076 117.372 135.977 117.305 135.945C117.197 135.893 116.757 135.834 116.685 135.728C116.604 135.611 116.64 135.573 116.534 135.48C116.289 135.261 116.266 134.825 116.088 134.372C116.057 134.294 115.986 133.902 115.986 133.813C115.986 133.365 114.837 132.643 115.283 133.013C115.436 133.14 115.257 132.83 114.647 132.679C114.257 132.581 113.806 132.603 113.372 132.657C113.28 132.671 113.198 132.746 113.132 132.794C112.685 133.14 112.27 133.552 111.69 133.58C111.785 133.518 111.839 133.632 111.882 133.683C112.158 134.043 111.957 134.481 112.121 134.877C112.286 135.263 112.567 135.559 112.895 135.824C113.216 136.076 113.775 135.746 114.02 136.182C114.02 136.168 114.545 136.305 114.029 136.822C113.083 137.777 112.031 137.005 111.247 138.774C112.433 138.261 112.567 140.071 113.072 140.138C115.34 140.449 117.065 140.849 118.31 143.15C119.071 144.551 116.947 144.618 118.869 144.947C119.844 145.112 120.496 145.607 120.99 146.297C121.506 147.021 121.578 147.994 122.13 148.674C122.533 149.156 122.685 149.255 123.169 149.661C123.388 149.842 124.086 150.025 124.348 150.089C124.608 150.16 124.765 150.29 125.014 150.381C125.28 150.479 125.559 150.572 125.783 150.757C125.971 150.914 126.453 151.079 126.564 151.296C126.761 151.684 126.604 152.078 126.812 152.464C126.874 152.571 127.173 152.478 127.299 152.516C127.417 152.561 127.684 152.575 127.758 152.561C128.218 152.456 128.33 152.426 128.673 152.386C129.197 152.325 129.137 152.486 129.816 152.456C129.959 152.456 130.018 152.561 130.213 152.561C130.344 152.561 130.573 152.703 130.611 152.583C130.816 151.935 131.154 151.314 131.536 150.684C131.913 150.057 131.882 149.997 132.363 149.339C132.306 149.359 132.982 148.883 132.923 148.877Z" fill="#CF113F"/>
<path d="M115.363 149.695C117.425 150.807 117.146 153.548 119.004 154.432C122.308 156.007 126.254 157.087 129.766 155.361C128.985 157.805 129.849 159.852 129.507 160.125C128.405 161.01 125.05 159.956 122.901 159.106C121.421 158.517 120.221 160.714 118.589 160.523C118.671 160.33 118.856 159.767 118.746 159.419C118.489 158.623 118.284 158.394 116.961 158.547C116.107 158.641 116.463 159.347 115.185 159.972C114.68 159.675 113.598 159.337 113.441 160.294C113.368 160.743 112.467 158.736 112.649 158.402C113.486 156.902 113.657 156.554 113.596 156.226C113.498 155.732 111.685 155.064 111.449 155.48C110.886 156.469 109.222 152.295 114.131 152.56C112.813 151.714 112.965 151.565 113.272 150.554C113.311 150.417 112.816 149.894 112.48 150.254C112.369 149.868 112.631 149.444 112.938 149.403C113.745 149.291 114.537 149.249 115.363 149.695Z" fill="#CF113F"/>
<path d="M125.132 139.581C128.113 140.266 132.568 136.42 135.153 140.954C133.245 140.258 127.597 143.283 125.132 139.581Z" fill="#CF113F"/>
<path d="M150.053 146.17C149.993 150.053 145.971 154.245 149.233 157.943C147.902 157.923 146.321 157.461 145.395 156.709C144.878 156.288 144.992 158.559 145.061 159.025C145.121 159.423 142.584 156.63 141.63 157.314C138.941 159.248 137.773 160.047 133.775 160.194C132.663 160.234 132.085 161.131 131.768 162.102C130.861 160.248 131.536 156.033 132.057 154.161C133.47 149.027 138.628 147.503 142.765 145.05C145.732 143.284 147.003 139.834 146.851 136.47C148.957 139.1 150.099 142.866 150.053 146.17Z" fill="#CF113F"/>
<path d="M131.122 189.89C131.624 190.004 131.252 190.42 131.053 190.545C130.641 190.821 130.358 191.154 130.097 191.567C129.899 191.868 129.761 192.2 129.836 192.576C129.887 192.856 129.981 193.103 130.085 193.354C130.15 193.511 130.295 193.598 130.413 193.728C130.46 193.779 130.641 194.006 130.645 194.026C130.535 193.632 131.087 193.236 131.216 193.31C133.777 194.8 133.927 191.786 135.461 190.766C136.114 190.326 137.587 190.833 137.205 192.164C138.735 191.351 139.187 189.292 140.381 188.005C143.015 185.142 146.706 183.244 150.211 181.695C148.943 180.348 147.077 179.218 146.131 177.678C145.663 176.916 145.104 175.415 146.139 175.693C150.447 176.819 152.864 174.189 153.343 170.797C159.724 171.621 161.382 165.591 162.243 161.03C162.659 158.82 163.872 158.627 162.546 154.855C161.997 153.282 165.38 152.765 164.805 150.043C164.642 149.291 163.715 148.537 163.164 148.446C163.687 149.912 161.229 150.284 160.962 150.883C160.548 151.82 159.942 152.574 159.86 153.56C157.78 150.684 159.464 147.221 161.414 144.525C164.264 140.602 170.17 142.665 172.657 145.195C172.701 143.924 171.718 142.309 170.908 141.531C173.232 141.233 175.756 142.649 178.927 140.97C180.759 139.994 182.607 139.16 183.465 136.998C179.572 137.535 174.294 134.539 170.789 133.926C164.246 132.794 159.86 137.25 157.519 142.572C155.187 147.885 156.682 151.852 159.211 155.824C159.845 156.825 156.967 156.166 155.829 156.757C154.722 157.326 154.271 158.693 154.522 159.9C155.916 158.402 159.614 159.327 159.945 161.889C160.403 165.347 156.915 170.382 153.546 168.872C149.94 167.253 147.898 163.449 146.7 159.172C143.621 161.826 137.921 159.632 135.274 162.226C132.755 164.692 139.197 166.363 141.704 167.525C142.627 167.957 143.554 168.9 143.401 170.067C139.474 167.758 134.743 170.376 134.975 174.571C135.151 177.708 138.988 179.66 142.186 179.924C143.515 180.03 144.318 181.516 142.698 182.528C139.859 184.299 136.695 186.28 133.635 183.073C133.125 182.536 131.293 182.87 130.929 183.847C130.751 184.318 130.694 185.047 130.769 185.53C130.934 185.24 131.128 184.824 131.387 184.856C131.69 184.895 132.057 185.212 132.016 185.436C131.75 187.016 129.685 185.995 129.044 187.219C129.031 187.243 128.998 187.267 128.982 187.294C128.943 187.396 128.887 187.483 128.842 187.573C128.422 188.406 127.846 188.928 128.877 189.576C128.85 189.423 129.388 190.239 129.376 190.38C129.427 189.626 130.213 189.638 130.213 189.638L130.669 189.686L131.122 189.89Z" fill="#CF113F"/>
<path d="M117.83 175.118C117.423 174.987 117.001 175.144 116.6 175.325C116.345 175.438 116.037 175.317 115.88 175.576C115.786 175.737 115.728 175.91 115.779 176.091C115.805 176.184 115.846 176.363 115.927 176.421C115.388 176.377 114.884 176.013 114.472 175.643C114.338 175.52 114.255 175.387 114.126 175.255C114.046 175.168 114.055 175.011 114 174.893C113.941 174.766 113.967 174.623 113.962 174.493C113.949 174.125 113.941 173.743 114.109 173.399C114.185 173.244 114.262 173.081 114.375 172.944C114.465 172.83 114.554 172.745 114.652 172.647C114.927 172.383 115.234 172.178 115.599 172.074C116.129 171.911 116.71 171.961 117.217 172.182C117.621 172.357 118.102 172.337 118.527 172.454C118.754 172.518 119.179 171.862 118.87 171.788C117.531 171.464 117.539 171.098 117.036 169.743C116.802 169.478 116.497 169.783 116.363 169.922C116.357 167.324 119.44 167.153 120.73 168.183C122.637 169.717 121.203 172.717 123.546 173.548C124.768 173.982 126.06 174.316 127.32 173.781C129.584 172.816 127.328 170.543 128.054 168.619C129.536 164.734 132.806 164.531 136.707 168.273C133.219 169.429 131.59 174.046 133.498 177.085C130.423 175.88 126.545 177.913 124.383 179.292C126.389 177.278 123.567 175.657 122.854 176.013L121.998 176.608C121.586 177.129 121.557 177.668 121.048 178.164C120.765 178.44 120.605 178.494 120.233 178.591C119.723 178.723 119.407 178.683 118.95 178.382C118.869 178.329 118.591 178.446 118.54 178.514C118.293 178.818 118.533 178.967 118.527 179.081C118.478 179.041 118.158 178.784 118.11 178.748C117.822 178.528 117.488 178.339 117.305 178.044C117.125 177.742 117.001 176.988 117.207 176.576C117.409 176.17 117.818 176.041 118.091 175.763C118.35 175.502 118.042 175.104 117.731 175.058" fill="#CF113F"/>
<path d="M192.701 140.829C192.976 141.006 192.679 141.509 192.363 141.597C191.987 141.702 191.462 141.543 191.134 141.672C189.669 142.211 189.665 145.818 189.866 145.402C190.087 144.939 191.169 145.241 191.868 145.38C193.001 145.609 193.857 143.311 194.601 143.373C196.365 143.532 198.01 145.724 198.681 147.163C198.804 147.427 197.943 147.437 197.887 148.324C200.288 148.096 202.317 149.655 204.05 151.081C204.897 149.613 205.747 148.704 206.706 147.745C203.097 144.23 195.922 143.146 197.028 136.743C197.175 135.923 196.246 135.199 195.834 134.795C195.367 134.35 194.304 134.322 193.652 134.169C194.338 135.589 193.101 135.728 193.28 137.978C193.28 138.05 193.075 138.002 192.997 137.972C192.566 137.785 192.2 137.517 191.786 137.26C191.416 137.029 191.068 137.089 190.658 137.151C190.407 137.186 190.181 137.3 189.97 137.451C189.628 137.694 189.453 138.01 189.218 138.358C189.17 138.418 189.124 138.493 189.071 138.549C188.993 138.627 188.84 138.871 188.83 138.991C189.017 138.973 189.6 139.017 189.699 139.174C189.866 139.436 189.872 139.737 190.071 139.987C190.318 140.302 190.525 140.312 190.885 140.463C191.448 140.701 191.949 140.805 192.562 140.753" fill="#CF113F"/>
<path d="M202.033 138.249C204.288 138.084 206.522 136.355 209.013 139.277C208.551 139.06 208.018 138.983 207.736 139.208C204.979 141.43 201.631 140.678 199.866 137.925C200.584 137.811 201.452 138.293 202.033 138.249Z" fill="#CF113F"/>
<path d="M211.784 146.427C215.488 144.555 219.23 143.049 220.754 138.456C221.052 137.56 221.738 139.792 221.782 139.918C223.739 145.525 219.835 151.093 220.638 156.815C219.335 156.017 217.867 155.468 216.435 155.426C211.352 155.277 210.147 158.37 209.86 158.08C208.464 156.673 204.461 155.464 204.752 155.728C202.375 153.532 209.234 147.73 211.784 146.427Z" fill="#CF113F"/>
<path d="M201.661 183.739C202.17 184.519 201.494 183.294 202.071 184.625C204.752 183.503 207.527 182.219 210.491 183.423C209.178 177.394 213.577 175.929 213.925 175.026C214.484 173.582 211.544 170.704 209.326 171.507C206.499 172.518 207.676 176.087 207.145 178.585C206.851 179.964 205.14 180.978 203.72 180.487C201.38 179.681 200.441 177.501 199.861 175.056C199.475 173.427 196.306 173.23 195.623 174.563C193.676 178.346 196.779 174.125 196.576 176.998C196.544 177.483 194.303 177.117 193.801 178.82C193.461 179.98 194.561 180.757 195.946 181.165C196.2 181.237 195.677 180.59 196.027 180.447C196.276 180.348 197.294 180.893 197.171 180.96C195.838 181.776 195.498 183.664 197.881 184.487C197.897 184.493 197.708 183.807 197.887 183.672C199.749 182.285 201.689 183.787 201.693 183.739" fill="#CF113F"/>
<path d="M161.346 221.86C163.574 222.887 164.296 221.781 167.225 221.309C167.636 221.239 169.285 222.315 169.763 222.862C166.827 223.328 163.254 225.886 161.346 221.86Z" fill="#CF113F"/>
<path d="M160.153 224.205C160.016 224.052 159.824 223.992 159.642 223.921C159.463 223.835 159.265 223.769 159.054 223.744C159.003 223.728 158.634 223.645 158.577 223.627C158.565 223.756 158.734 224.099 158.637 224.185C158.404 224.404 158.319 224.35 158.131 224.633C158.062 224.746 157.99 224.857 157.96 224.981C157.907 225.236 157.795 225.532 157.764 225.821C157.754 225.972 157.815 226.32 157.848 226.451C157.867 226.525 158.024 226.843 158.07 226.929C158.07 226.929 158.426 227.311 158.406 227.295C158.818 227.716 158.48 227.468 158.989 227.975C159.248 228.218 158.871 228.643 158.621 228.577C156.898 228.075 156.656 226.072 155.085 225.461C153.942 225.022 152.299 225.908 152.124 227.649C152.511 227.539 152.912 227.684 152.988 228.006C153.408 229.757 155.979 228.713 156.039 229.946C156.085 230.756 154.117 229.809 153.34 230.324C152.31 231.009 152.171 232.986 153.078 234.136C154.013 233.246 155.177 234.549 156.085 233.902C156.72 233.444 156.947 232.801 157.597 232.516C159.573 231.643 160.153 233.461 159.716 235.286C160.784 234.796 163.294 234.277 163.869 234.116C164.909 233.835 164.955 231.433 166.228 230.551C164.42 230.547 162.188 229.757 161.686 227.997C161.637 227.81 161.766 227.593 161.784 227.382C161.826 226.71 161.766 226.059 161.511 225.442C161.484 225.375 161.418 225.292 161.372 225.214C161.299 225.12 161.239 225.017 161.171 224.911C160.99 224.663 160.725 224.546 160.468 224.386C160.353 224.309 160.212 224.291 160.129 224.176" fill="#CF113F"/>
<path d="M146.882 236.642C147.672 238.182 143.778 235.719 142.32 237.993C141.854 238.723 142.104 240.37 142.104 241.297C142.997 240.482 143.888 242.031 145.559 240.55C145.743 240.719 145.942 240.82 145.689 241.08C145.072 241.701 144.727 242.479 145.053 243.225C145.256 243.716 146.644 244.689 146.655 244.607C146.797 243.605 148.507 244.607 148.774 242.64C148.89 241.825 149.127 240.477 150.306 240.967C151.375 241.41 151.598 242.624 151.348 243.832C153.059 243.271 156.065 241.516 157.86 242.817C160.273 244.556 164.234 245.278 167.059 246.155C165.185 244.85 164.59 241.458 164.901 239.246C160.456 240.122 155.792 239.974 151.671 238.068C150.543 237.543 150.694 236.241 150.355 235.17C149.968 233.959 148.449 232.846 147.072 232.95C146.331 233.006 144.552 234.56 144.89 234.639C144.776 234.611 144.778 234.862 144.721 234.977C145.055 234.765 145.479 234.977 145.63 235.339C145.738 235.59 145.844 235.866 146.056 236.068C146.308 236.316 146.743 236.374 146.882 236.642Z" fill="#CF113F"/>
<path d="M157.536 260.933C158.398 259.873 159.116 260.438 159.493 260.446C160.395 260.478 160.332 261.752 160.242 262.56C163.777 260.846 167.141 258.411 171.29 259.304C168.877 256.778 169.731 251.355 173.144 250.687C173.154 250.687 170.94 250.326 170.708 250.176C167.74 248.295 164.111 246.497 162.116 250.444C161.121 252.403 162.945 253.989 164.306 255.604C164.555 255.897 164.157 256.075 163.837 256.157C160.591 256.989 154.61 257.478 154.343 252.62C154.313 252.131 153.059 251.727 152.25 251.748C149.845 251.821 149.883 254.886 150.158 254.673C150.683 254.277 152.293 254.417 152.099 255.646C151.917 256.794 149.677 255.043 148.782 256.197C148.034 257.154 148.057 258.739 148.589 259.799C148.482 259.412 148.935 259.123 149.177 259.086C151.671 258.666 151.81 259.535 151.071 261.95C151.014 262.131 151.81 263.659 152.335 263.796C152.293 263.78 152.301 263.447 152.371 263.333C152.442 263.215 152.564 263.129 152.692 263.086C152.963 263 153.238 263.012 153.512 262.939C153.642 262.902 153.741 262.819 153.864 262.744C154.059 262.622 154.192 262.449 154.331 262.267C154.915 261.542 155.423 260.607 156.401 260.513C156.851 260.47 157.137 260.673 157.527 260.92" fill="#CF113F"/>
<path d="M183.328 272.202C185.605 269.936 187.254 266.919 189.691 264.715C187.018 263.137 183.707 261.5 183.355 257.965C183.328 257.725 183.727 257.462 183.821 257.505C187.533 259.589 192.542 259.754 195.223 255.962C197.382 252.894 198.321 247.915 202.538 247.631C201.137 244.933 202.713 241.822 205.021 240.4C204.241 240.107 203.242 239.471 202.365 239.632C201.303 239.811 200.845 241.257 199.632 241.478C201.541 235.048 197.851 226.063 190.767 226.22C189.439 226.246 187.716 227.316 187.282 228.771C186.874 230.139 186.664 231.859 187.65 233.033C189.97 235.809 191.643 238.841 190.911 242.502C192.566 241.08 194.091 238.978 194.034 236.74C194.024 236.179 195.04 236.579 195.199 236.348C197.133 233.513 193.966 231.758 192.287 229.97C191.82 229.487 193.005 228.737 193.155 228.787C199.23 230.606 199.805 238.087 197.203 242.954C196.51 242.085 193.938 242.373 193.067 242.077C195.908 243.511 195.172 243.716 195.054 244.187C194.839 245.043 192.289 244.669 191.794 245.299C190.944 246.387 190.3 246.869 190.234 250.486C191.414 249.214 192.958 247.285 194.633 248.146C198.209 249.984 194.456 256.165 191.082 257.19C188.201 258.059 185.534 257.145 183.749 254.635C181.169 251.005 183.041 246.61 181.211 242.93C179.683 243.308 180.031 245.299 179.234 244.941C176.427 243.641 174.831 240.638 172.794 238.12C171.951 238.421 171.579 239.204 170.765 239.164C169.564 239.113 167.294 238.743 166.809 239.349C166.25 240.053 165.838 245.157 170.805 247.003C174.175 248.265 176.846 249.383 178.967 252.015C177.543 252.127 177.047 251.441 175.884 251.398C174.742 251.355 174.018 251.802 173.154 252.242C172.327 252.671 171.358 254.293 171.521 255.584C172.299 261.765 179.554 261.847 182.894 265.761C183.469 266.421 182.017 269.107 180.652 270.195C179.488 271.126 176.695 268.794 177.149 266.821C177.517 265.246 173.707 264.188 172.371 265.996C172.904 265.934 173.035 266.286 172.987 266.531C172.751 267.987 174.555 268.041 174.497 268.781C174.414 269.801 173.53 268.353 172.836 268.223C171.296 267.912 169.769 268.451 168.871 269.684C168.597 270.05 167.994 270.645 168.261 271.279C169.438 270.705 170.051 272.536 171.145 271.966C171.81 271.628 172.357 271.039 173.16 271.243C173.479 271.329 173.811 271.761 173.522 271.947C171.38 273.32 169.667 275.248 171.217 277.44C171.257 276.929 171.662 276.569 171.987 276.479C172.611 276.298 173.437 276.73 174.046 276.529C175.042 276.191 174.527 275.206 174.911 274.498C175.504 273.376 177.527 271.534 178.663 272.877C178.874 273.121 178.71 274.023 178.098 274.031C178.726 274.023 179.289 274.637 179.822 274.522C179.972 274.498 180.133 274.498 180.27 274.424C180.391 274.365 180.529 274.338 180.618 274.241C180.869 273.99 181.159 273.722 181.201 273.32C181.657 273.36 182.239 273.406 182.54 273.014C182.83 272.622 183.194 272.318 183.515 272.02" fill="#CF113F"/>
<path d="M172.977 227.511C176.956 226.397 181.378 224.329 182.329 219.907C183.536 220.634 183.916 222.284 183.93 223.294C184.016 228.833 181.593 233.622 182.769 239.426C182.902 240.082 184.101 242.146 183.556 241.9C182.894 241.598 181.493 240.287 180.722 240.894C179.759 241.653 179.822 242.847 179.359 242.57C177.612 241.5 175.762 239.929 174.911 237.903C174.581 237.132 174.718 235.491 174.501 235.727C173.176 237.177 170.453 237.486 168.436 237.794C168.899 237.38 169.309 235.731 169.236 235.389C167.652 234.596 165.374 237.306 165.41 236.959C165.494 236.085 165.589 235.813 165.673 235.574C166.854 232.101 169.08 228.586 172.977 227.511Z" fill="#CF113F"/>
<path d="M140.58 135.297C140.746 135.223 140.833 135.106 140.811 135.084C139.368 133.063 137.63 133.262 136.895 135.066C136.399 136.285 139.301 135.892 140.58 135.297ZM143.401 133.148C144.433 133.121 145.196 132.482 145.852 131.786C145.799 132.367 146.652 133.19 146.335 133.809C145.942 134.585 144.946 135.05 144.752 135.776C144.342 137.25 145.53 138.696 144.663 140.163C142.107 144.487 136.532 143.053 132.722 144.012C132.983 143.546 132.656 142.854 132.371 142.659C134.062 142.878 136.308 142.506 136.764 141.231C137.32 139.655 137.598 138.492 136.861 137.193C135.637 135.048 133.101 136.051 131.196 136.795C130.896 135.466 132.144 134.658 132.862 134.473C134.881 133.942 136.71 133.065 138.593 132.367C140.229 131.752 141.722 133.19 143.401 133.148Z" fill="#CF113F"/>
<path d="M214.493 134.529C214.652 134.437 214.364 134.654 214.497 134.519C212.92 133.731 210.869 132.695 210.147 134.801C209.618 136.345 213.125 135.263 214.493 134.529ZM217.018 141.294C216.473 141.764 215.565 141.752 214.945 142.173C214.569 142.438 214.227 142.715 213.835 142.949C213.652 143.065 213.103 143.311 212.904 143.357C212.349 143.502 212.47 143.435 211.959 143.502C211.649 143.546 211.507 143.56 211.201 143.56C210.893 143.56 209.954 143.588 209.653 143.58C208.927 143.566 208.802 143.614 208.078 143.502C207.66 143.435 207.262 143.323 206.868 143.188C206.604 143.102 206.323 143.051 206.045 143.045C206.079 142.754 206.114 142.44 206.343 142.251C206.644 141.99 206.703 142.223 207.145 142.183C207.165 142.181 207.77 142.233 207.793 142.233C207.893 142.229 208.018 142.225 208.124 142.211C208.315 142.183 208.476 142.146 208.645 142.062C208.864 141.959 209.1 141.895 209.297 141.738C209.365 141.678 209.446 141.624 209.514 141.555C209.659 141.418 209.856 141.348 209.986 141.183C210.401 140.678 210.712 140.19 210.755 139.538C210.799 139.056 210.835 138.561 210.745 138.066C210.73 137.988 210.718 137.905 210.712 137.837C210.68 137.455 210.493 137.097 210.306 136.739C209.202 134.634 206.546 136.695 204.728 136.6C204.728 136.198 204.692 135.458 204.897 135.195C206.194 133.526 208.199 134.346 209.236 133.58C212.737 130.988 213.666 132.856 217.322 133.87C218.42 134.173 219.99 133.48 221.028 133.035C221.281 132.929 221.279 134.582 221.149 134.919C220.714 136.076 219.516 136.017 219.096 137.055C218.478 138.581 218.382 140.725 216.771 141.495" fill="#CF113F"/>
<path d="M173.192 219.051C173.817 219.282 175.671 218.262 176.343 217.885C176.507 217.794 176.62 217.633 176.751 217.5C176.761 217.485 176.737 217.444 176.711 217.44C176.18 217.328 175.697 217.288 175.178 217.233C174.786 217.185 174.497 216.919 174.106 216.849C174.004 216.821 173.909 216.837 173.803 216.875C173.654 216.933 173.602 217.04 173.479 217.101C173.292 217.185 173.025 217.185 172.856 217.343C172.683 217.497 172.534 217.645 172.482 217.869C172.411 218.128 172.468 218.506 172.649 218.725C172.787 218.902 172.998 218.98 173.192 219.051ZM178.001 216.219C179.62 216.603 181.384 216.656 182.431 215.242C182.946 217.435 180.937 217.712 180.563 218.779C179.998 220.415 180.036 222.047 178.456 222.887C175.307 224.564 171.37 226.575 167.758 226.875C167.786 226.431 167.483 225.622 168.062 225.594C169.327 225.536 170.31 224.593 170.596 223.847C170.992 222.805 170.541 220.282 169.598 219.785C168.51 219.212 167.557 220.093 166.556 220.533C166.137 219.425 167.863 217.591 170.569 217.748C170.499 217.744 171.911 216.208 171.844 216.256C173.612 215.041 175.55 215.655 178.001 216.219Z" fill="#CF113F"/>
<path d="M227.1 200.887C227.048 200.352 228.379 198.766 228.412 197.599C228.538 193.636 230.925 191.768 230.998 187.533C231.012 186.425 226.437 185.39 226.236 183.009C226.141 181.828 225.751 180.121 226.934 180.149C228.452 180.175 229.942 179.906 231.014 178.959C235.801 174.744 231.76 168.989 231.183 163.906C231.056 162.788 233.117 160.391 233.057 159.6C232.727 155.287 231.927 151.354 233.463 147.119C232.258 148.195 231.898 149.973 230.889 150.883C230.396 151.338 230.157 150.332 230.189 150.178C230.794 146.452 232.278 143.188 234.004 139.647C236.045 135.45 235.021 132.04 231.247 130.787C227.784 129.633 224.442 132.856 224.066 136.166C223.718 139.204 224.665 142.846 225.383 145.332C225.59 146.059 225.468 146.888 225.623 147.519C226.24 145.008 226.308 142.386 226.268 139.729C226.258 139.082 226.775 138.215 227.438 138.024C229.688 137.373 230.851 138.999 230.702 140.258C230.207 144.24 229.405 147.286 228.452 151.239C227.366 155.75 228.983 160.226 229.457 164.609C227.728 163.594 225.844 163.544 225.176 166.242C224.812 167.674 226.107 169.18 226.503 170.447C226.543 168.724 228.17 166.371 229.751 167.423C231.689 168.712 231.76 174.901 231.333 175.721C230.39 177.513 228.842 178.794 226.694 178.161C225.484 177.805 225.974 176.013 225.251 175.255C221.39 171.263 219.632 166.494 219.304 160.98C219.25 160.174 219.672 158.054 219.556 158.01C214.507 155.931 212.184 158.002 210.089 160.98C209.729 160.079 207.802 158.82 207.65 159.1C206.692 160.877 206.966 164.101 208.402 165.347C212.293 168.716 216.149 170.97 218.335 175.782C216.001 176.087 213.722 176.763 212.826 179.202C211.892 181.75 212.212 185.291 214.903 186.329C217.095 187.169 220.861 186.23 221.687 186.333C224.018 186.634 226.624 188.645 226.258 190.853C226.24 190.964 225.261 196.107 223.031 194.83C221.824 194.139 222.502 191.32 220.664 190.875C218.186 190.278 217.579 193.739 217.895 193.437C218.681 192.687 219.23 193.928 220.762 194.776C215.578 193.648 217.187 198.404 217.376 197.879C217.643 197.141 218.583 197.913 220.441 197.784C220.509 197.784 220.034 198.172 220.01 198.213C219.719 198.691 219.574 198.923 219.363 199.425C219.262 199.661 219.272 199.92 219.308 200.167C219.331 200.427 219.423 200.648 219.558 200.867C219.584 200.917 219.632 200.962 219.689 200.986C219.711 200.994 219.785 201.11 219.799 201.11C219.912 201.126 219.697 200.746 220 200.726C220.069 200.718 220.29 200.686 220.348 200.706C220.485 200.76 220.662 200.849 220.805 200.887C220.939 200.921 221.078 200.945 221.227 200.974C221.581 201.018 221.703 201.028 222.015 200.921C222.276 200.829 222.536 200.775 222.785 200.6C222.451 200.829 223.151 200.266 223.121 200.326C223.443 199.638 223.642 199.835 223.712 199.713C224.263 198.663 224.742 198.567 225.962 198.711C226.079 198.723 226.304 198.971 226.377 199.081C226.463 199.21 226.714 199.87 226.67 199.626C226.757 200.113 227.058 200.415 227.1 200.887Z" fill="#CF113F"/>
<path d="M189.711 153.16C189.397 152.959 189.293 152.478 189.077 152.281C189.011 152.209 188.953 152.126 188.884 152.05C188.776 151.939 188.726 151.788 188.683 151.631C188.468 150.893 188.579 150.017 189.248 149.526C189.272 149.502 189.268 149.46 189.281 149.434C189.315 149.365 189.417 149.331 189.435 149.275C189.453 149.21 189.566 149.21 189.528 149.126C189.576 149.148 189.578 149.084 189.596 149.068C189.729 148.895 189.735 148.587 189.478 148.5C189.691 148.519 189.91 148.515 190.125 148.561C190.21 148.579 190.296 148.603 190.376 148.615C191.197 148.722 192.226 149.092 192.448 149.912L192.733 150.242C193.586 152.223 193.294 157.095 198.038 158.267C200.507 158.876 202.995 159.643 205.526 159.6C204.917 162.07 204.923 165.201 206.879 166.99C204.032 165.438 202.136 165.766 199.663 163.425C198.557 162.377 195.981 160.95 194.738 161.161C194.225 161.247 195.448 159.518 194.306 159.172C193.558 158.949 191.561 158.997 191.219 159.508C189.578 161.979 187.849 161.965 187.272 162.464C187.937 161.897 184.585 159.162 188.75 157.68C189.148 157.533 189.293 156.628 188.804 156.401C187.988 156.025 187.31 156.586 186.506 157.057C185.583 157.604 185.369 155.599 183.924 156.339C183.624 152.056 187.439 151.688 189.711 154.358C189.872 154.561 190.507 154.318 190.244 154.091L189.711 153.16Z" fill="#CF113F"/>
<path d="M241.45 134.521C240.863 162.651 240.288 189.693 232.023 215.799L173.678 169.478L115.088 215.932C106.78 189.775 106.206 162.673 105.617 134.481C105.563 131.802 105.508 129.12 105.444 126.429H241.627C241.563 129.132 241.506 131.829 241.45 134.521ZM216.063 249.634C206.487 264.335 191.8 276.631 173.568 285.223C155.309 276.655 140.598 264.357 131.004 249.634C129.397 247.168 127.905 244.693 126.501 242.212L173.672 204.818L220.628 242.101C219.206 244.622 217.692 247.128 216.063 249.634ZM117.932 224.04L173.672 179.854L229.18 223.921C227.784 227.559 226.222 231.177 224.47 234.774L173.678 194.446L122.656 234.898C120.901 231.297 119.332 227.676 117.932 224.04ZM102.679 123.731L102.713 125.11C102.79 128.261 102.854 131.404 102.919 134.539C103.772 175.416 104.574 214.024 128.742 251.112C138.713 266.413 154.019 279.145 173.003 287.934L173.572 288.202L174.137 287.934C193.095 279.121 208.376 266.384 218.325 251.112C242.486 214.04 243.296 175.444 244.146 134.577C244.215 131.43 244.281 128.275 244.358 125.11L244.392 123.731H102.679Z" fill="#231F20"/>
<path d="M274.48 198.186V149.802H298.864L298.096 157.354H283.888V169.898H293.936V177.834H283.888V197.418L274.48 198.186ZM316.91 176.746H313.262V197.418L303.918 198.186V150.186L315.31 149.802C320.814 149.802 325.123 150.912 328.238 153.13C331.352 155.306 332.91 158.656 332.91 163.178C332.91 166.165 332.312 168.618 331.118 170.538C329.966 172.458 328.28 174.058 326.062 175.338L330.35 185.77L334.701 196.138L325.486 198.634L316.91 176.746ZM316.462 169.834C318.68 169.834 320.408 169.386 321.646 168.49C322.926 167.552 323.566 165.802 323.566 163.242C323.566 159.274 321.603 157.29 317.678 157.29H313.262V169.834H316.462ZM353.033 198.698C347.614 198.698 343.796 196.373 341.577 191.722C339.401 187.029 338.313 180.97 338.313 173.546C338.313 165.653 339.486 159.573 341.833 155.306C344.18 151.04 347.956 148.906 353.161 148.906C363.102 148.906 368.073 157.034 368.073 173.29C368.073 180.586 366.942 186.645 364.681 191.466C362.462 196.288 358.58 198.698 353.033 198.698ZM353.161 191.146C355.422 191.146 356.916 189.674 357.641 186.73C358.366 183.744 358.729 179.242 358.729 173.226C358.729 168.405 358.366 164.416 357.641 161.258C356.958 158.058 355.465 156.458 353.161 156.458C350.857 156.458 349.364 158.037 348.681 161.194C347.998 164.352 347.657 168.341 347.657 173.162C347.657 179.221 347.998 183.744 348.681 186.73C349.406 189.674 350.9 191.146 353.161 191.146ZM407.358 198.186V162.154L398.398 197.802H392.638L382.974 162.026V197.418L375.23 197.802V150.25L388.99 149.866L396.926 179.562L404.542 150.954L417.086 150.186V197.418L407.358 198.186ZM280.624 261.802L270.832 214.186L281.072 213.802L286.128 242.538L291.568 214.186L299.248 213.802L304.304 242.858L310.384 214.186L319.024 213.802L308.72 261.802H299.44L294.384 232.49L289.2 261.802H280.624ZM320.331 261.802L330.443 214.378L343.819 213.802L354.187 261.418L343.947 261.802L342.219 251.498H330.763L328.715 261.802H320.331ZM332.491 243.818H340.491L336.075 220.842L332.491 243.818ZM365.563 262.186V221.29H355.771L356.475 213.802H384.635L383.867 221.29H374.907V261.418L365.563 262.186ZM389.855 261.802V213.802H414.239L413.471 221.29H399.263V232.746H409.375L409.311 240.81H399.263V254.314H414.751L413.983 261.802H389.855ZM433.785 240.746H430.137V261.418L420.793 262.186V214.186L432.185 213.802C437.689 213.802 441.998 214.912 445.113 217.13C448.227 219.306 449.785 222.656 449.785 227.178C449.785 230.165 449.187 232.618 447.993 234.538C446.841 236.458 445.155 238.058 442.937 239.338L447.225 249.77L451.576 260.138L442.361 262.634L433.785 240.746ZM433.337 233.834C435.555 233.834 437.283 233.386 438.521 232.49C439.801 231.552 440.441 229.802 440.441 227.242C440.441 223.274 438.478 221.29 434.553 221.29H430.137V233.834H433.337ZM456.98 261.802V214.57L466.324 213.802V254.314H482.068L481.108 261.802H456.98ZM499.908 262.698C494.489 262.698 490.671 260.373 488.452 255.722C486.276 251.029 485.188 244.97 485.188 237.546C485.188 229.653 486.361 223.573 488.708 219.306C491.055 215.04 494.831 212.906 500.036 212.906C509.977 212.906 514.948 221.034 514.948 237.29C514.948 244.586 513.817 250.645 511.556 255.466C509.337 260.288 505.455 262.698 499.908 262.698ZM500.036 255.146C502.297 255.146 503.791 253.674 504.516 250.73C505.241 247.744 505.604 243.242 505.604 237.226C505.604 232.405 505.241 228.416 504.516 225.258C503.833 222.058 502.34 220.458 500.036 220.458C497.732 220.458 496.239 222.037 495.556 225.194C494.873 228.352 494.532 232.341 494.532 237.162C494.532 243.221 494.873 247.744 495.556 250.73C496.281 253.674 497.775 255.146 500.036 255.146ZM535.033 262.698C529.614 262.698 525.796 260.373 523.577 255.722C521.401 251.029 520.313 244.97 520.313 237.546C520.313 229.653 521.486 223.573 523.833 219.306C526.18 215.04 529.956 212.906 535.161 212.906C545.102 212.906 550.073 221.034 550.073 237.29C550.073 244.586 548.942 250.645 546.681 255.466C544.462 260.288 540.58 262.698 535.033 262.698ZM535.161 255.146C537.422 255.146 538.916 253.674 539.641 250.73C540.366 247.744 540.729 243.242 540.729 237.226C540.729 232.405 540.366 228.416 539.641 225.258C538.958 222.058 537.465 220.458 535.161 220.458C532.857 220.458 531.364 222.037 530.681 225.194C529.998 228.352 529.657 232.341 529.657 237.162C529.657 243.221 529.998 247.744 530.681 250.73C531.406 253.674 532.9 255.146 535.161 255.146Z" fill="#CF3F62"/>
</svg>
