<svg width="468" height="226" viewBox="0 0 468 226" fill="none" xmlns="http://www.w3.org/2000/svg">
<g filter="url(#filter0_d_1023_316)">
<path d="M6.71973 75.2C6.71973 36.9819 37.7016 6 75.9197 6H383.92C422.138 6 453.12 36.9819 453.12 75.2V142.4C453.12 180.618 422.138 211.6 383.92 211.6H75.9196C37.7015 211.6 6.71973 180.618 6.71973 142.4V75.2Z" fill="white" shape-rendering="crispEdges"/>
<path d="M75.9199 7.5H383.92C421.31 7.50006 451.62 37.8106 451.62 75.2002V142.4C451.62 179.79 421.309 210.1 383.92 210.1H75.9199C38.5304 210.1 8.21993 179.79 8.21973 142.4V75.2002C8.21973 37.8105 38.5302 7.5 75.9199 7.5Z" stroke="black" stroke-opacity="0.2" stroke-width="3" shape-rendering="crispEdges"/>
<rect x="27.9197" y="27.2" width="404" height="163.2" rx="48" fill="#FFEFA8"/>
<rect x="27.9197" y="27.2" width="404" height="163.2" rx="48" stroke="#CF113F" stroke-width="6.4"/>
<path d="M86.0363 144.961L85.2926 144.613C77.0296 140.79 70.3618 135.235 66.0058 128.552C55.5608 112.525 55.2163 95.9716 54.8513 78.4454C54.8232 77.1171 54.7957 75.7871 54.7624 74.4521L54.7197 72.6393H117.32L117.275 74.4521C117.242 75.7945 117.214 77.1336 117.187 78.4703C116.82 95.9865 116.473 112.535 106.031 128.552C101.686 135.226 95.0292 140.779 86.7808 144.613L86.0363 144.961Z" fill="white"/>
<path d="M85.8919 94.2193L61.3657 113.527C57.4239 101.318 57.5328 88.5539 57.2158 75.5544H114.439C114.123 88.5853 114.27 101.299 110.301 113.537L85.8919 94.2193Z" fill="#FCD634"/>
<path d="M105.755 123.946C105.15 125.021 104.504 126.088 103.81 127.154C99.4479 133.852 92.9684 138.81 85.843 142.121C78.6886 138.81 72.2116 133.852 67.8476 127.154C67.1673 126.115 65.9429 124.023 65.9429 124.023L85.8927 108.1L105.755 123.946Z" fill="#FCD634"/>
<path d="M69.1026 85.3554C66.2041 84.7401 63.6252 82.5852 64.247 79.8515C64.2534 79.8258 64.1353 79.1451 63.8852 79.0515C63.8659 79.0432 63.8248 78.967 63.7827 78.9546C63.6717 78.9265 63.5799 78.8776 63.4867 78.8122C63.455 78.7873 63.3192 78.7418 63.3192 78.6937C63.2674 78.8064 63.278 78.9107 63.2004 79.0101C63.1739 79.0465 63.1319 79.1028 63.0905 79.1244C63.0387 79.1517 63.0348 79.1997 62.9944 79.2353C62.7767 79.4556 62.8931 79.7852 62.9271 80.0362C62.9368 80.0991 62.9637 80.1761 62.8867 80.1902C62.7938 80.2059 62.8679 80.1654 62.7611 80.0991C62.7356 80.0834 62.6981 80.0428 62.6706 80.0295C62.6262 80.008 62.4451 79.984 62.4153 79.9401C62.382 79.8921 62.3966 79.8763 62.3529 79.8382C62.252 79.748 62.2428 79.5683 62.1695 79.3819C62.1565 79.3496 62.1274 79.1881 62.1274 79.1517C62.1274 78.967 61.6541 78.6697 61.8379 78.8221C61.901 78.8743 61.8272 78.7467 61.5759 78.6846C61.4154 78.6441 61.2294 78.6532 61.0508 78.6755C61.013 78.6813 60.979 78.712 60.9522 78.7318C60.7677 78.8743 60.5969 79.044 60.3579 79.0556C60.3973 79.03 60.4193 79.0772 60.4371 79.0979C60.551 79.2461 60.4679 79.4266 60.5354 79.5898C60.6037 79.7488 60.7192 79.8705 60.8545 79.9799C60.9867 80.0834 61.2168 79.9476 61.3177 80.1273C61.3177 80.1215 61.5338 80.1778 61.3215 80.3906C60.9317 80.784 60.4986 80.466 60.1758 81.1947C60.6642 80.9836 60.7192 81.7289 60.9272 81.7562C61.8612 81.8846 62.5719 82.0494 63.0847 82.9968C63.3978 83.574 62.5233 83.6014 63.3146 83.7372C63.7164 83.8051 63.9849 84.0088 64.1881 84.2929C64.4006 84.591 64.4304 84.9918 64.6578 85.2717C64.8238 85.4705 64.8865 85.5111 65.0858 85.6784C65.176 85.7529 65.4633 85.8283 65.571 85.8548C65.6784 85.8837 65.7431 85.9376 65.8456 85.9748C65.955 86.0154 66.0698 86.0535 66.1621 86.1297C66.2397 86.1943 66.438 86.2622 66.4839 86.3516C66.5648 86.5115 66.5001 86.6738 66.5858 86.8328C66.6117 86.8767 66.7347 86.8386 66.7864 86.8543C66.8349 86.8725 66.9449 86.8784 66.9756 86.8726C67.1649 86.8295 67.2112 86.8171 67.3525 86.8005C67.5683 86.7757 67.5433 86.8419 67.8232 86.8295C67.8821 86.8295 67.9063 86.8726 67.9866 86.8726C68.0406 86.8726 68.1347 86.9314 68.1505 86.8817C68.235 86.615 68.3741 86.3591 68.5317 86.0999C68.6869 85.8415 68.674 85.8167 68.8719 85.5459C68.8487 85.5541 69.1268 85.3579 69.1026 85.3554Z" fill="#CF113F"/>
<path d="M61.8705 85.6925C62.7196 86.1505 62.6048 87.2793 63.3699 87.6436C64.7308 88.2921 66.3557 88.7368 67.8024 88.0263C67.4805 89.0325 67.8364 89.8755 67.6957 89.9881C67.2415 90.3525 65.8598 89.9186 64.9751 89.5683C64.3653 89.3256 63.8713 90.2308 63.1991 90.1521C63.233 90.0726 63.309 89.8407 63.2637 89.6975C63.158 89.3695 63.0733 89.2751 62.5287 89.338C62.1768 89.377 62.3234 89.6677 61.7971 89.9252C61.589 89.8026 61.1436 89.6635 61.0789 90.0577C61.0488 90.2424 60.6777 89.4159 60.7528 89.2784C61.0973 88.6606 61.1678 88.5173 61.1426 88.3824C61.1022 88.1786 60.3555 87.9037 60.2585 88.0751C60.0266 88.4826 59.3414 86.7633 61.3632 86.8726C60.8201 86.524 60.8828 86.4627 61.0093 86.0461C61.0252 85.9898 60.8214 85.7745 60.6832 85.9227C60.6373 85.7637 60.7453 85.589 60.8719 85.5724C61.204 85.5261 61.5302 85.5087 61.8705 85.6925Z" fill="#CF113F"/>
<path d="M65.894 81.527C67.1218 81.8094 68.9563 80.2252 70.0212 82.0926C69.2351 81.8061 66.9092 83.0517 65.894 81.527Z" fill="#CF113F"/>
<path d="M76.1572 84.2406C76.1326 85.8397 74.4763 87.5664 75.8198 89.0894C75.2715 89.0811 74.6202 88.8906 74.2389 88.5809C74.026 88.4078 74.0729 89.3428 74.1014 89.5349C74.1263 89.6989 73.0814 88.5486 72.6883 88.8302C71.581 89.6269 71.1 89.9556 69.4534 90.0161C68.9956 90.0327 68.7573 90.402 68.6268 90.802C68.2532 90.0384 68.5314 88.3026 68.7459 87.5316C69.3279 85.4174 71.452 84.7896 73.1558 83.7793C74.378 83.0522 74.9011 81.6311 74.8386 80.2456C75.7059 81.3288 76.1762 82.8799 76.1572 84.2406Z" fill="#CF113F"/>
<path d="M68.3602 102.246C68.5672 102.293 68.4139 102.465 68.3321 102.516C68.1623 102.63 68.0458 102.767 67.9384 102.937C67.8565 103.061 67.8 103.198 67.8307 103.353C67.8517 103.468 67.8905 103.57 67.9332 103.673C67.96 103.738 68.0199 103.773 68.0684 103.827C68.0878 103.848 68.1623 103.941 68.1638 103.95C68.1185 103.787 68.346 103.624 68.399 103.655C69.4539 104.269 69.5155 103.027 70.1475 102.607C70.4164 102.426 71.0229 102.635 70.8657 103.183C71.4959 102.848 71.6819 102 72.1736 101.47C73.2583 100.291 74.7784 99.5092 76.2222 98.8715C75.6997 98.3166 74.9314 97.8512 74.5416 97.2168C74.3491 96.903 74.1188 96.2852 74.5448 96.3995C76.3192 96.8632 77.3146 95.78 77.5119 94.3829C80.1397 94.7224 80.8228 92.2388 81.1772 90.3606C81.3487 89.4504 81.848 89.3709 81.3023 87.8173C81.0762 87.1697 82.4692 86.9569 82.2323 85.8356C82.1652 85.5258 81.7834 85.2153 81.5565 85.178C81.7718 85.7817 80.7598 85.9349 80.6497 86.1817C80.4794 86.5676 80.2297 86.8782 80.1957 87.284C79.3391 86.0997 80.033 84.6737 80.836 83.5631C82.0095 81.9474 84.4418 82.7971 85.4662 83.8389C85.4844 83.3155 85.0795 82.6505 84.7457 82.33C85.7031 82.2074 86.7424 82.7905 88.0484 82.0989C88.8028 81.6973 89.5639 81.3536 89.9175 80.4634C88.3142 80.6845 86.1403 79.4505 84.6969 79.1979C82.0021 78.7317 80.1957 80.5669 79.2317 82.759C78.2715 84.947 78.8872 86.5809 79.9288 88.2165C80.1898 88.6289 79.0043 88.3573 78.5358 88.6008C78.08 88.8351 77.894 89.3983 77.9976 89.8952C78.5714 89.2782 80.0944 89.6591 80.2309 90.7142C80.4196 92.1386 78.9832 94.2123 77.5954 93.5904C76.1105 92.9237 75.2695 91.3568 74.7761 89.5954C73.5081 90.6885 71.1604 89.785 70.0702 90.8533C69.0331 91.8686 71.6861 92.5568 72.7187 93.0355C73.0988 93.2136 73.4806 93.602 73.4175 94.0823C71.8 93.1316 69.8515 94.2098 69.9473 95.9373C70.0198 97.2293 71.6001 98.0334 72.917 98.1419C73.4643 98.1858 73.7949 98.7978 73.1279 99.2143C71.9585 99.9439 70.6554 100.76 69.3954 99.4388C69.1851 99.2177 68.4307 99.3551 68.2809 99.7576C68.2076 99.9514 68.184 100.252 68.215 100.451C68.2829 100.332 68.3628 100.16 68.4696 100.173C68.5941 100.189 68.7455 100.32 68.7284 100.412C68.619 101.063 67.7686 100.642 67.5045 101.146C67.4991 101.156 67.4855 101.166 67.479 101.177C67.4629 101.219 67.4399 101.255 67.4215 101.292C67.2484 101.635 67.0112 101.85 67.436 102.117C67.4247 102.054 67.6462 102.39 67.6414 102.448C67.6625 102.138 67.986 102.143 67.986 102.143L68.1736 102.163L68.3602 102.246Z" fill="#CF113F"/>
<path d="M62.8867 96.1628C62.7191 96.109 62.5454 96.1736 62.3805 96.2481C62.2753 96.2945 62.1485 96.2448 62.0838 96.3517C62.045 96.4179 62.0214 96.4891 62.0424 96.5637C62.053 96.6018 62.0699 96.6755 62.1032 96.6995C61.8813 96.6813 61.6736 96.5314 61.5038 96.379C61.4488 96.3285 61.4148 96.2738 61.3614 96.2192C61.3284 96.1835 61.3323 96.1189 61.3097 96.0701C61.2854 96.0179 61.2961 95.9591 61.2941 95.9053C61.2886 95.7537 61.2854 95.5964 61.3543 95.4548C61.3857 95.391 61.4174 95.3239 61.4639 95.2676C61.5011 95.2204 61.5377 95.1856 61.5781 95.145C61.6914 95.0366 61.8176 94.9521 61.968 94.909C62.1863 94.8419 62.4257 94.8626 62.6344 94.9537C62.801 95.0258 62.9989 95.0175 63.174 95.0655C63.2675 95.092 63.4425 94.8221 63.3154 94.7914C62.7638 94.6581 62.767 94.5074 62.56 93.9492C62.4636 93.8399 62.3377 93.9658 62.2827 94.0229C62.2802 92.9529 63.5499 92.8825 64.0814 93.3065C64.8665 93.9384 64.2761 95.174 65.2411 95.5161C65.7442 95.6949 66.2763 95.8324 66.7952 95.6121C67.7278 95.2146 66.7984 94.2788 67.0977 93.4863C67.7078 91.8863 69.0548 91.8026 70.6613 93.3438C69.2246 93.82 68.5537 95.7214 69.3398 96.9728C68.0733 96.4767 66.4759 97.314 65.5857 97.8821C66.4118 97.0523 65.2498 96.3848 64.9561 96.5314L64.6035 96.7765C64.4339 96.991 64.4217 97.2129 64.2124 97.4175C64.0956 97.5309 64.0296 97.5533 63.8766 97.5931C63.6663 97.6477 63.5363 97.6311 63.3483 97.5069C63.3147 97.4854 63.2005 97.5334 63.1795 97.5616C63.0776 97.6866 63.1762 97.7479 63.174 97.7951C63.1536 97.7786 63.0219 97.6726 63.0022 97.6577C62.8835 97.5674 62.746 97.4895 62.6706 97.3678C62.5965 97.2436 62.5454 96.933 62.6301 96.7632C62.7136 96.596 62.8818 96.543 62.9945 96.4287C63.1012 96.321 62.9741 96.157 62.8463 96.138" fill="#CF113F"/>
<path d="M93.7216 82.0413C93.8351 82.1141 93.7125 82.3212 93.5825 82.3576C93.4276 82.4007 93.2115 82.3353 93.0765 82.3883C92.4728 82.6102 92.4711 84.0959 92.5539 83.9245C92.645 83.734 93.0906 83.8582 93.3788 83.9154C93.845 84.0098 94.1978 83.0632 94.5042 83.0889C95.2305 83.1543 95.9079 84.057 96.1846 84.6499C96.2351 84.7584 95.8806 84.7626 95.8574 85.1278C96.8462 85.0342 97.6818 85.676 98.3957 86.2632C98.7444 85.6586 99.0947 85.2843 99.4897 84.8893C98.0032 83.4417 95.0483 82.9953 95.5038 80.3585C95.5643 80.0206 95.1817 79.7224 95.0119 79.556C94.8198 79.373 94.3817 79.3614 94.1133 79.2984C94.3957 79.8831 93.8864 79.9402 93.9601 80.867C93.9601 80.8968 93.8757 80.8769 93.8434 80.8645C93.6661 80.7874 93.5154 80.6773 93.3448 80.5713C93.1924 80.4761 93.0492 80.5009 92.8802 80.5266C92.7767 80.5407 92.684 80.5879 92.597 80.65C92.4562 80.7502 92.3842 80.8802 92.2873 81.0235C92.2674 81.0483 92.2483 81.079 92.2268 81.1021C92.1945 81.1344 92.1316 81.2347 92.1274 81.2843C92.2045 81.2769 92.4446 81.2951 92.4852 81.3597C92.5539 81.4674 92.5564 81.5916 92.6384 81.6943C92.7403 81.8243 92.8256 81.8284 92.9738 81.8905C93.2057 81.9883 93.4119 82.0313 93.6645 82.0098" fill="#CF113F"/>
<path d="M97.5651 80.9788C98.4935 80.9109 99.4135 80.1987 100.44 81.402C100.249 81.3125 100.03 81.2811 99.9137 81.3738C98.7784 82.2889 97.3995 81.9792 96.6724 80.8454C96.968 80.7982 97.3258 80.997 97.5651 80.9788Z" fill="#CF113F"/>
<path d="M101.581 84.3468C103.106 83.5758 104.648 82.9555 105.275 81.064C105.398 80.6946 105.68 81.6139 105.698 81.6661C106.504 83.975 104.897 86.2681 105.227 88.625C104.691 88.2962 104.086 88.0702 103.496 88.0528C101.403 87.9915 100.907 89.2652 100.788 89.1459C100.214 88.5662 98.5648 88.0685 98.6848 88.177C97.706 87.2726 100.531 84.8834 101.581 84.3468Z" fill="#CF113F"/>
<path d="M97.4118 99.7132C97.6213 100.034 97.343 99.5301 97.5807 100.078C98.6847 99.6163 99.8275 99.0871 101.048 99.5831C100.507 97.1003 102.319 96.4966 102.463 96.1248C102.693 95.5302 101.482 94.3451 100.569 94.6755C99.4043 95.0921 99.8888 96.562 99.6702 97.5906C99.5492 98.1587 98.8445 98.5761 98.2598 98.374C97.2959 98.0419 96.9091 97.1442 96.6706 96.1372C96.5116 95.4664 95.2064 95.3852 94.9249 95.9343C94.1232 97.4921 95.401 95.7538 95.3174 96.9372C95.3041 97.1368 94.3816 96.9861 94.1745 97.6875C94.0346 98.1653 94.4876 98.485 95.0582 98.6531C95.1625 98.6829 94.9472 98.4163 95.0913 98.3575C95.194 98.3169 95.613 98.5413 95.5625 98.5687C95.0135 98.9049 94.8735 99.6825 95.8549 100.021C95.8615 100.024 95.7836 99.7413 95.8574 99.6858C96.6242 99.1144 97.4234 99.733 97.425 99.7132" fill="#CF113F"/>
<path d="M80.8081 115.413C81.7257 115.836 82.023 115.381 83.2296 115.186C83.3986 115.157 84.0776 115.6 84.2747 115.826C83.0656 116.018 81.594 117.071 80.8081 115.413Z" fill="#CF113F"/>
<path d="M80.317 116.378C80.2607 116.316 80.1815 116.291 80.1067 116.262C80.0327 116.226 79.9514 116.199 79.8645 116.189C79.8434 116.182 79.6914 116.148 79.6678 116.141C79.6629 116.194 79.7325 116.335 79.6926 116.37C79.5966 116.461 79.5616 116.438 79.4844 116.555C79.4559 116.601 79.4261 116.647 79.4138 116.698C79.3921 116.803 79.3459 116.925 79.333 117.044C79.3291 117.106 79.354 117.25 79.3679 117.304C79.3756 117.334 79.4404 117.465 79.4591 117.501C79.4591 117.501 79.6057 117.658 79.5976 117.651C79.7674 117.824 79.628 117.723 79.8376 117.931C79.9443 118.032 79.789 118.206 79.6862 118.179C78.9765 117.973 78.8768 117.148 78.2298 116.896C77.7592 116.715 77.0824 117.08 77.0103 117.797C77.1698 117.752 77.3347 117.811 77.3661 117.944C77.5391 118.665 78.598 118.235 78.6228 118.743C78.6416 119.077 77.8313 118.687 77.511 118.899C77.0869 119.181 77.0296 119.995 77.4033 120.469C77.7882 120.102 78.2676 120.639 78.6416 120.372C78.9033 120.184 78.9965 119.919 79.2644 119.801C80.078 119.442 80.317 120.191 80.1369 120.942C80.5768 120.74 81.6107 120.527 81.8476 120.46C82.2757 120.345 82.2948 119.356 82.819 118.992C82.0745 118.99 81.1552 118.665 80.9482 117.94C80.9283 117.863 80.9813 117.774 80.9888 117.687C81.0062 117.41 80.9813 117.142 80.8761 116.888C80.8654 116.861 80.8381 116.826 80.819 116.794C80.7892 116.755 80.7643 116.713 80.7362 116.669C80.6617 116.567 80.5525 116.519 80.4468 116.453C80.3995 116.422 80.3412 116.414 80.3073 116.367" fill="#CF113F"/>
<path d="M74.8516 121.501C75.1767 122.135 73.5732 121.121 72.9724 122.057C72.7806 122.358 72.8835 123.036 72.8835 123.418C73.2513 123.082 73.6185 123.72 74.3065 123.111C74.3825 123.18 74.4644 123.222 74.3603 123.329C74.1059 123.585 73.964 123.905 74.0982 124.212C74.182 124.414 74.7533 124.815 74.7579 124.781C74.8164 124.369 75.5206 124.781 75.6306 123.971C75.6785 123.636 75.7762 123.08 76.2614 123.282C76.702 123.465 76.7936 123.965 76.6907 124.462C77.3953 124.231 78.6333 123.508 79.3725 124.044C80.3666 124.76 81.9975 125.058 83.1611 125.419C82.3893 124.881 82.1441 123.484 82.2725 122.573C80.4416 122.934 78.5211 122.873 76.8237 122.088C76.3591 121.872 76.4215 121.336 76.2818 120.895C76.1223 120.396 75.497 119.937 74.9296 119.98C74.6245 120.003 73.8919 120.644 74.0309 120.676C73.984 120.664 73.985 120.768 73.9613 120.815C74.0989 120.728 74.2736 120.815 74.336 120.964C74.3803 121.068 74.4239 121.181 74.5113 121.265C74.6148 121.367 74.7944 121.391 74.8516 121.501Z" fill="#CF113F"/>
<path d="M79.2396 131.505C79.5948 131.068 79.8905 131.301 80.0457 131.305C80.4172 131.318 80.3912 131.842 80.3541 132.175C81.8099 131.469 83.1954 130.466 84.9039 130.834C83.9101 129.794 84.2621 127.56 85.6675 127.285C85.6716 127.285 84.7598 127.137 84.6646 127.075C83.4422 126.3 81.9474 125.56 81.1259 127.185C80.716 127.992 81.4671 128.645 82.0277 129.311C82.1304 129.431 81.9665 129.504 81.8348 129.538C80.498 129.881 78.0346 130.082 77.9246 128.082C77.9123 127.88 77.3957 127.714 77.0625 127.722C76.0719 127.753 76.0878 129.015 76.201 128.927C76.4171 128.764 77.0803 128.822 77.0004 129.328C76.9256 129.801 76.003 129.079 75.6343 129.555C75.3263 129.949 75.3356 130.602 75.555 131.038C75.5106 130.879 75.6973 130.76 75.797 130.745C76.8241 130.572 76.8813 130.929 76.5772 131.924C76.5536 131.999 76.8813 132.628 77.0974 132.684C77.0803 132.678 77.0835 132.54 77.1126 132.494C77.1417 132.445 77.1918 132.409 77.2446 132.392C77.3562 132.356 77.4694 132.361 77.5823 132.331C77.6361 132.316 77.6765 132.282 77.7272 132.251C77.8075 132.201 77.8625 132.13 77.9197 132.055C78.1601 131.756 78.3694 131.371 78.7721 131.332C78.9575 131.315 79.0752 131.398 79.2357 131.5" fill="#CF113F"/>
<path d="M89.8617 136.146C90.7992 135.213 91.4783 133.971 92.482 133.063C91.3814 132.413 90.0174 131.739 89.8725 130.283C89.8617 130.184 90.0257 130.076 90.0646 130.093C91.5934 130.952 93.6563 131.02 94.7603 129.458C95.6497 128.194 96.0364 126.144 97.7731 126.027C97.1958 124.916 97.8451 123.634 98.7958 123.049C98.4745 122.928 98.0629 122.666 97.7018 122.733C97.2646 122.806 97.0758 123.402 96.5764 123.493C97.3623 120.844 95.8426 117.144 92.9251 117.209C92.3785 117.22 91.6688 117.66 91.4899 118.26C91.3218 118.823 91.2356 119.531 91.6414 120.015C92.5971 121.158 93.2861 122.407 92.9847 123.914C93.6663 123.329 94.294 122.463 94.2708 121.542C94.2667 121.311 94.6849 121.475 94.7503 121.38C95.547 120.212 94.2427 119.49 93.5511 118.753C93.359 118.554 93.8468 118.245 93.9089 118.266C96.4108 119.015 96.6476 122.096 95.576 124.101C95.2903 123.743 94.2311 123.861 93.8725 123.739C95.0426 124.33 94.7395 124.414 94.6907 124.608C94.6021 124.961 93.552 124.807 93.3483 125.066C92.9979 125.514 92.7329 125.713 92.7056 127.203C93.1917 126.679 93.8278 125.884 94.5176 126.239C95.9901 126.996 94.4447 129.542 93.0551 129.964C91.8683 130.322 90.7702 129.945 90.0348 128.911C88.9723 127.417 89.7433 125.606 88.9897 124.091C88.3603 124.246 88.5036 125.066 88.1756 124.919C87.0195 124.384 86.362 123.147 85.5231 122.11C85.1761 122.234 85.0229 122.556 84.6875 122.54C84.1931 122.519 83.2581 122.366 83.0585 122.616C82.8283 122.906 82.6585 125.008 84.704 125.768C86.092 126.288 87.1918 126.748 88.0655 127.832C87.4791 127.879 87.2746 127.596 86.7959 127.578C86.3255 127.561 86.0274 127.745 85.6713 127.926C85.3309 128.102 84.9318 128.77 84.9988 129.302C85.3193 131.848 88.3073 131.882 89.6829 133.493C89.9197 133.765 89.3218 134.872 88.7595 135.32C88.28 135.703 87.1297 134.742 87.3168 133.93C87.4684 133.282 85.899 132.846 85.3491 133.59C85.5686 133.565 85.6224 133.71 85.6026 133.811C85.5057 134.41 86.2485 134.433 86.2245 134.737C86.1905 135.157 85.8262 134.561 85.5404 134.507C84.9061 134.38 84.2775 134.601 83.9073 135.109C83.7947 135.26 83.5463 135.505 83.6564 135.766C84.1409 135.53 84.3935 136.284 84.844 136.049C85.1181 135.91 85.3433 135.667 85.6738 135.751C85.8055 135.787 85.9421 135.965 85.8228 136.041C84.9409 136.606 84.2353 137.401 84.8738 138.303C84.8904 138.093 85.0568 137.945 85.191 137.908C85.4477 137.833 85.7881 138.011 86.039 137.928C86.4489 137.789 86.2369 137.383 86.3951 137.092C86.6394 136.63 87.4725 135.871 87.9404 136.424C88.0274 136.525 87.9595 136.896 87.7077 136.9C87.9661 136.896 88.198 137.149 88.4174 137.102C88.4796 137.092 88.5458 137.092 88.6021 137.061C88.6518 137.037 88.709 137.026 88.7454 136.986C88.8489 136.882 88.9682 136.772 88.9856 136.606C89.1735 136.623 89.4129 136.642 89.5371 136.481C89.6564 136.319 89.8063 136.194 89.9388 136.071" fill="#CF113F"/>
<path d="M85.5984 117.74C87.2374 117.282 89.0585 116.43 89.4502 114.609C89.9471 114.908 90.1036 115.588 90.1094 116.004C90.145 118.285 89.1471 120.257 89.6315 122.648C89.6862 122.918 90.1798 123.768 89.9553 123.666C89.6829 123.542 89.1057 123.002 88.7885 123.252C88.3918 123.565 88.4175 124.057 88.227 123.942C87.5073 123.502 86.7454 122.855 86.3951 122.02C86.2593 121.703 86.3156 121.027 86.2262 121.124C85.6804 121.721 84.5591 121.849 83.7285 121.976C83.9189 121.805 84.0879 121.126 84.0581 120.985C83.4055 120.659 82.4672 121.774 82.4821 121.632C82.5169 121.272 82.5558 121.16 82.5906 121.061C83.0767 119.631 83.9935 118.183 85.5984 117.74Z" fill="#CF113F"/>
<path d="M72.2559 79.7628C72.3245 79.7322 72.36 79.6842 72.3513 79.6751C71.7567 78.8428 71.0412 78.9248 70.7383 79.6676C70.5339 80.1695 71.7292 80.008 72.2559 79.7628ZM73.4179 78.8775C73.8426 78.8668 74.1571 78.6034 74.4271 78.3169C74.4055 78.5562 74.7565 78.8949 74.6261 79.15C74.4644 79.4697 74.0541 79.661 73.9743 79.9599C73.8055 80.567 74.2946 81.1624 73.9377 81.767C72.8847 83.5475 70.5889 82.957 69.0199 83.3521C69.1273 83.1599 68.9924 82.875 68.875 82.7947C69.5715 82.885 70.4967 82.7318 70.6843 82.2067C70.9134 81.5574 71.0278 81.0788 70.7241 80.5438C70.2201 79.6602 69.1758 80.0734 68.3914 80.3798C68.2678 79.8324 68.7815 79.4995 69.0775 79.4233C69.9089 79.2047 70.6623 78.8436 71.4374 78.5562C72.1116 78.3028 72.7262 78.8949 73.4179 78.8775Z" fill="#CF113F"/>
<path d="M102.696 79.4467C102.762 79.4086 102.643 79.498 102.698 79.4426C102.049 79.1179 101.204 78.6914 100.907 79.5585C100.689 80.1945 102.133 79.749 102.696 79.4467ZM103.736 82.2326C103.512 82.4264 103.138 82.4214 102.883 82.5945C102.728 82.7038 102.587 82.8181 102.426 82.9142C102.35 82.9622 102.124 83.0632 102.042 83.0823C101.814 83.1419 101.863 83.1146 101.653 83.1419C101.525 83.1601 101.467 83.1659 101.341 83.1659C101.214 83.1659 100.827 83.1775 100.703 83.1742C100.404 83.1684 100.353 83.1883 100.055 83.1419C99.8823 83.1146 99.7183 83.0682 99.556 83.0127C99.4475 82.9771 99.3316 82.9564 99.2173 82.9539C99.2314 82.8338 99.2454 82.7046 99.3398 82.6268C99.4641 82.5191 99.4881 82.6152 99.6703 82.5986C99.6786 82.5978 99.9278 82.6194 99.937 82.6194C99.9784 82.6177 100.03 82.616 100.074 82.6102C100.152 82.5986 100.219 82.5837 100.288 82.549C100.378 82.5067 100.475 82.4802 100.556 82.4156C100.585 82.3908 100.618 82.3684 100.646 82.3403C100.705 82.284 100.787 82.255 100.84 82.187C101.011 81.9792 101.139 81.7779 101.157 81.5096C101.175 81.3109 101.19 81.1071 101.153 80.9034C101.147 80.8711 101.142 80.8372 101.139 80.809C101.126 80.6517 101.049 80.5042 100.972 80.3568C100.517 79.4898 99.4235 80.3386 98.6748 80.2997C98.6748 80.1341 98.6599 79.8293 98.7444 79.7208C99.2786 79.0335 100.104 79.3713 100.532 79.0558C101.973 77.9883 102.356 78.7577 103.862 79.1751C104.314 79.3001 104.961 79.0144 105.388 78.8314C105.492 78.7875 105.491 79.4682 105.438 79.6074C105.259 80.0836 104.765 80.0595 104.592 80.4869C104.338 81.1154 104.298 81.9982 103.635 82.3154" fill="#CF113F"/>
<path d="M85.6873 114.256C85.9448 114.351 86.7084 113.931 86.985 113.776C87.0529 113.739 87.0993 113.672 87.1531 113.618C87.1572 113.611 87.1473 113.594 87.1365 113.593C86.9179 113.546 86.7192 113.53 86.5055 113.508C86.344 113.488 86.2248 113.378 86.0641 113.349C86.0219 113.338 85.9829 113.344 85.939 113.36C85.8778 113.384 85.8562 113.428 85.8057 113.453C85.7287 113.488 85.6185 113.488 85.549 113.553C85.4778 113.616 85.4165 113.677 85.3949 113.769C85.366 113.876 85.3891 114.032 85.4637 114.122C85.5208 114.195 85.6078 114.227 85.6873 114.256ZM87.6682 113.09C88.3349 113.248 89.0612 113.27 89.4926 112.688C89.7046 113.59 88.8773 113.705 88.7233 114.144C88.4906 114.818 88.5063 115.49 87.8554 115.836C86.5585 116.527 84.937 117.355 83.4496 117.479C83.4612 117.295 83.3362 116.963 83.5747 116.951C84.0956 116.927 84.5005 116.538 84.6181 116.231C84.7813 115.802 84.5958 114.763 84.2074 114.558C83.7593 114.323 83.3668 114.685 82.9544 114.867C82.7821 114.41 83.4927 113.655 84.6074 113.72C84.5784 113.718 85.1598 113.085 85.1324 113.105C85.8604 112.605 86.6587 112.857 87.6682 113.09Z" fill="#CF113F"/>
<path d="M107.889 106.776C107.867 106.555 108.416 105.902 108.429 105.422C108.481 103.789 109.464 103.02 109.494 101.276C109.5 100.819 107.616 100.393 107.533 99.4125C107.494 98.9263 107.333 98.2232 107.82 98.2348C108.445 98.2456 109.059 98.1346 109.5 97.7446C111.472 96.0088 109.808 93.6386 109.57 91.545C109.518 91.0846 110.367 90.0974 110.342 89.772C110.206 87.9956 109.876 86.3757 110.509 84.6316C110.013 85.0747 109.865 85.8068 109.449 86.1819C109.246 86.3691 109.148 85.955 109.161 85.8912C109.41 84.3567 110.021 83.0126 110.732 81.5542C111.572 79.8259 111.151 78.4213 109.596 77.9054C108.17 77.43 106.794 78.7576 106.639 80.1207C106.496 81.372 106.886 82.8718 107.182 83.8954C107.267 84.1952 107.216 84.5364 107.28 84.7964C107.534 83.7621 107.563 82.6822 107.546 81.5882C107.542 81.3215 107.755 80.9646 108.028 80.8859C108.955 80.6176 109.433 81.2876 109.372 81.806C109.168 83.4457 108.838 84.7004 108.445 86.3285C107.998 88.186 108.664 90.0295 108.859 91.8349C108.147 91.4167 107.371 91.396 107.096 92.5073C106.946 93.097 107.48 93.7173 107.643 94.239C107.659 93.5293 108.329 92.5603 108.98 92.9935C109.779 93.5243 109.808 96.0734 109.632 96.4112C109.244 97.1491 108.606 97.6767 107.722 97.4158C107.223 97.2692 107.425 96.5313 107.127 96.2191C105.537 94.5752 104.813 92.6109 104.678 90.3401C104.656 90.008 104.83 89.1351 104.782 89.1169C102.702 88.2606 101.746 89.1136 100.883 90.3401C100.734 89.9691 99.9411 89.4506 99.8781 89.5658C99.4839 90.2978 99.5965 91.6254 100.188 92.1388C101.79 93.526 103.379 94.4543 104.279 96.4361C103.317 96.562 102.379 96.8402 102.01 97.8448C101.626 98.894 101.757 100.352 102.865 100.78C103.768 101.126 105.319 100.739 105.659 100.781C106.619 100.906 107.693 101.734 107.542 102.643C107.534 102.689 107.131 104.807 106.213 104.281C105.716 103.996 105.995 102.835 105.238 102.652C104.218 102.406 103.968 103.831 104.098 103.707C104.421 103.398 104.647 103.909 105.278 104.259C103.144 103.794 103.806 105.753 103.884 105.537C103.994 105.233 104.381 105.551 105.146 105.498C105.174 105.498 104.979 105.658 104.969 105.674C104.849 105.871 104.789 105.966 104.702 106.173C104.661 106.27 104.665 106.377 104.68 106.479C104.689 106.586 104.727 106.677 104.782 106.767C104.793 106.788 104.813 106.806 104.836 106.816C104.845 106.819 104.876 106.867 104.882 106.867C104.928 106.874 104.84 106.718 104.965 106.709C104.993 106.706 105.084 106.693 105.108 106.701C105.164 106.723 105.237 106.76 105.296 106.776C105.351 106.79 105.409 106.8 105.47 106.811C105.616 106.829 105.666 106.834 105.794 106.79C105.902 106.752 106.009 106.729 106.112 106.657C105.974 106.752 106.262 106.52 106.25 106.544C106.382 106.261 106.464 106.342 106.493 106.292C106.72 105.86 106.917 105.82 107.42 105.879C107.468 105.884 107.561 105.986 107.591 106.032C107.626 106.085 107.73 106.357 107.712 106.256C107.747 106.457 107.871 106.581 107.889 106.776Z" fill="#CF113F"/>
<path d="M92.4904 87.1194C92.3612 87.0366 92.3181 86.8387 92.2295 86.7575C92.2022 86.7277 92.1782 86.6937 92.15 86.6623C92.1053 86.6167 92.0846 86.5546 92.0672 86.49C91.9786 86.1861 92.0241 85.825 92.2999 85.6229C92.3098 85.613 92.3082 85.5956 92.3131 85.5848C92.3272 85.5567 92.3695 85.5426 92.3769 85.5194C92.3844 85.4929 92.4307 85.4929 92.415 85.4581C92.4349 85.4672 92.4357 85.4407 92.4432 85.4341C92.4978 85.3629 92.5003 85.2362 92.3943 85.2006C92.4821 85.208 92.5724 85.2064 92.661 85.2254C92.6958 85.2329 92.7314 85.2428 92.7645 85.2478C93.1024 85.2917 93.5264 85.4441 93.6175 85.7819L93.7351 85.9178C94.0862 86.7335 93.9661 88.7401 95.9198 89.2229C96.9367 89.4738 97.9611 89.7894 99.0038 89.772C98.7529 90.7889 98.7553 92.0784 99.5611 92.8154C98.3885 92.1761 97.6075 92.3111 96.5889 91.3471C96.1334 90.9156 95.0725 90.3277 94.5608 90.4146C94.3496 90.4502 94.8531 89.738 94.3827 89.5956C94.0746 89.5037 93.2523 89.5235 93.1115 89.7339C92.4357 90.7517 91.7235 90.7459 91.4858 90.9513C91.7599 90.7177 90.3794 89.5914 92.0945 88.9811C92.2585 88.9206 92.3181 88.548 92.1169 88.4544C91.7806 88.2995 91.5016 88.5306 91.1703 88.7244C90.7902 88.9496 90.7024 88.1239 90.107 88.4287C89.9836 86.6647 91.5546 86.5132 92.4904 87.613C92.5566 87.6966 92.8183 87.5964 92.7098 87.5028L92.4904 87.1194Z" fill="#CF113F"/>
<path d="M113.799 79.4432C113.557 91.0283 113.32 102.165 109.916 112.917L85.8875 93.8398L61.7576 112.972C58.336 102.199 58.0995 91.0374 57.8569 79.4267C57.8345 78.3236 57.8119 77.2188 57.7857 76.1108H113.872C113.845 77.2238 113.822 78.3344 113.799 79.4432ZM103.343 126.852C99.3996 132.906 93.3508 137.97 85.8419 141.509C78.3222 137.98 72.2637 132.915 68.3123 126.852C67.6507 125.836 67.036 124.817 66.458 123.795L85.885 108.395L105.223 123.749C104.638 124.788 104.014 125.82 103.343 126.852ZM62.9287 116.311L85.885 98.1131L108.745 116.262C108.171 117.76 107.527 119.25 106.806 120.732L85.8875 104.123L64.8745 120.783C64.1514 119.3 63.5055 117.808 62.9287 116.311ZM56.647 74.9994L56.6609 75.5675C56.6926 76.8652 56.7191 78.1596 56.7457 79.4507C57.097 96.2854 57.4276 112.186 67.3806 127.46C71.4874 133.762 77.7911 139.005 85.6092 142.625L85.8436 142.736L86.0763 142.625C93.8841 138.996 100.177 133.75 104.275 127.46C114.225 112.192 114.559 96.297 114.909 79.4664C114.937 78.1704 114.965 76.871 114.996 75.5675L115.01 74.9994H56.647Z" fill="#231F20"/>
<path d="M141.88 129.8L137.329 87.752H142.916L145.739 117.934C145.816 118.702 145.873 119.547 145.912 120.469C145.988 121.39 146.046 122.293 146.084 123.176C146.161 124.059 146.2 124.827 146.2 125.48C146.276 124.827 146.353 124.059 146.43 123.176C146.507 122.293 146.584 121.39 146.66 120.469C146.776 119.547 146.891 118.702 147.006 117.934L150.635 87.752H156.395L159.793 117.934C159.87 118.702 159.947 119.547 160.024 120.469C160.139 121.39 160.254 122.293 160.369 123.176C160.484 124.059 160.561 124.827 160.6 125.48C160.638 124.827 160.676 124.059 160.715 123.176C160.792 122.293 160.868 121.39 160.945 120.469C161.022 119.547 161.099 118.702 161.176 117.934L164.056 87.752H169.47L164.747 129.8H157.547L154.148 99.2144C154.072 98.408 153.995 97.5632 153.918 96.68C153.841 95.7584 153.764 94.8752 153.688 94.0304C153.611 93.1472 153.534 92.4176 153.457 91.8416C153.419 92.4176 153.361 93.1472 153.284 94.0304C153.208 94.8752 153.131 95.7584 153.054 96.68C152.977 97.5632 152.881 98.408 152.766 99.2144L149.137 129.8H141.88ZM171.982 129.8L182.696 87.752H190.875L201.588 129.8H195.31L192.776 119.144H180.852L178.318 129.8H171.982ZM182.004 114.018H191.566L188.686 101.864C188.187 99.7136 187.764 97.8512 187.419 96.2768C187.112 94.664 186.9 93.5696 186.785 92.9936C186.67 93.5696 186.459 94.664 186.152 96.2768C185.844 97.8512 185.422 99.6944 184.884 101.806L182.004 114.018ZM217.06 129.8V93.4544H205.828V87.6944H234.513V93.4544H223.281V129.8H217.06ZM241.691 129.8V87.752H266.401V93.2816H247.796V105.205H264.385V110.677H247.796V124.27H266.401V129.8H241.691ZM274.5 129.8V87.752H287.69C290.34 87.752 292.644 88.2704 294.602 89.3072C296.561 90.3056 298.078 91.7264 299.153 93.5696C300.266 95.4128 300.823 97.5824 300.823 100.078C300.823 102.882 300.094 105.32 298.634 107.394C297.214 109.429 295.274 110.869 292.817 111.714L301.399 129.8H294.314L286.654 112.52H280.721V129.8H274.5ZM280.721 107.048H287.69C289.764 107.048 291.415 106.434 292.644 105.205C293.873 103.938 294.487 102.267 294.487 100.194C294.487 98.0432 293.873 96.3536 292.644 95.1248C291.415 93.896 289.764 93.2816 287.69 93.2816H280.721V107.048ZM309.326 129.8V87.752H315.546V124.098H333.921V129.8H309.326ZM353.713 130.376C351.101 130.376 348.836 129.896 346.916 128.936C345.034 127.938 343.575 126.517 342.538 124.674C341.54 122.792 341.041 120.603 341.041 118.107V99.4448C341.041 96.9104 341.54 94.7216 342.538 92.8784C343.575 91.0352 345.034 89.6336 346.916 88.6736C348.836 87.6752 351.101 87.176 353.713 87.176C356.324 87.176 358.57 87.6752 360.452 88.6736C362.372 89.6336 363.831 91.0352 364.829 92.8784C365.866 94.7216 366.385 96.8912 366.385 99.3872V118.107C366.385 120.603 365.866 122.792 364.829 124.674C363.831 126.517 362.372 127.938 360.452 128.936C358.57 129.896 356.324 130.376 353.713 130.376ZM353.713 124.846C355.825 124.846 357.418 124.27 358.493 123.118C359.607 121.928 360.164 120.258 360.164 118.107V99.4448C360.164 97.256 359.607 95.5856 358.493 94.4336C357.418 93.2816 355.825 92.7056 353.713 92.7056C351.639 92.7056 350.045 93.2816 348.932 94.4336C347.818 95.5856 347.261 97.256 347.261 99.4448V118.107C347.261 120.258 347.818 121.928 348.932 123.118C350.045 124.27 351.639 124.846 353.713 124.846ZM387.098 130.376C384.487 130.376 382.221 129.896 380.301 128.936C378.42 127.938 376.961 126.517 375.924 124.674C374.925 122.792 374.426 120.603 374.426 118.107V99.4448C374.426 96.9104 374.925 94.7216 375.924 92.8784C376.961 91.0352 378.42 89.6336 380.301 88.6736C382.221 87.6752 384.487 87.176 387.098 87.176C389.709 87.176 391.956 87.6752 393.837 88.6736C395.757 89.6336 397.217 91.0352 398.215 92.8784C399.252 94.7216 399.77 96.8912 399.77 99.3872V118.107C399.77 120.603 399.252 122.792 398.215 124.674C397.217 126.517 395.757 127.938 393.837 128.936C391.956 129.896 389.709 130.376 387.098 130.376ZM387.098 124.846C389.21 124.846 390.804 124.27 391.879 123.118C392.993 121.928 393.549 120.258 393.549 118.107V99.4448C393.549 97.256 392.993 95.5856 391.879 94.4336C390.804 93.2816 389.21 92.7056 387.098 92.7056C385.025 92.7056 383.431 93.2816 382.317 94.4336C381.204 95.5856 380.647 97.256 380.647 99.4448V118.107C380.647 120.258 381.204 121.928 382.317 123.118C383.431 124.27 385.025 124.846 387.098 124.846Z" fill="#CF113F"/>
</g>
<defs>
<filter id="filter0_d_1023_316" x="0.719727" y="0" width="466.4" height="225.6" filterUnits="userSpaceOnUse" color-interpolation-filters="sRGB">
<feFlood flood-opacity="0" result="BackgroundImageFix"/>
<feColorMatrix in="SourceAlpha" type="matrix" values="0 0 0 0 0 0 0 0 0 0 0 0 0 0 0 0 0 0 127 0" result="hardAlpha"/>
<feOffset dx="4" dy="4"/>
<feGaussianBlur stdDeviation="5"/>
<feComposite in2="hardAlpha" operator="out"/>
<feColorMatrix type="matrix" values="0 0 0 0 0 0 0 0 0 0 0 0 0 0 0 0 0 0 0.1 0"/>
<feBlend mode="normal" in2="BackgroundImageFix" result="effect1_dropShadow_1023_316"/>
<feBlend mode="normal" in="SourceGraphic" in2="effect1_dropShadow_1023_316" result="shape"/>
</filter>
</defs>
</svg>
