<svg width="467" height="226" viewBox="0 0 467 226" fill="none" xmlns="http://www.w3.org/2000/svg">
<g filter="url(#filter0_d_1023_315)">
<rect x="6" y="6" width="446.4" height="205.6" rx="69.2" fill="white" shape-rendering="crispEdges"/>
<rect x="7.5" y="7.5" width="443.4" height="202.6" rx="67.7" stroke="black" stroke-opacity="0.2" stroke-width="3" shape-rendering="crispEdges"/>
<rect x="27.2" y="27.2" width="404" height="163.2" rx="48" fill="#E5DBF0"/>
<rect x="27.2" y="27.2" width="404" height="163.2" rx="48" stroke="#4F2683" stroke-width="6.4"/>
<path d="M135.094 101.245V70.1244C127.042 67.2685 114.344 65.4219 100.058 65.4219C85.7712 65.4219 73.5676 67.2614 65.5011 70.1244V101.245C65.5011 105.969 65.4223 114.759 69.6668 124.65C74.9347 136.926 84.991 146.087 99.5423 151.871L100.294 152.178L101.045 151.878C115.604 146.087 125.66 136.926 130.928 124.65C135.172 114.766 135.101 105.733 135.101 101.245H135.094Z" fill="white"/>
<path d="M100.294 117.4L121.444 134.642C116.219 140.741 109.141 145.601 100.294 149.165C91.44 145.601 84.3683 140.741 79.1433 134.642L100.294 117.4ZM132.302 91.3035V72.1213C124.264 69.6305 112.419 68.2205 100.058 68.2205C87.6966 68.2205 76.3733 69.6376 68.2925 72.1428V91.3107L100.294 117.4L132.302 91.3035ZM101.203 107.336H99.2631L99.1987 107.2C99.1987 107.2 98.7048 106.277 96.6077 106.277H90.2804V96.0489H90.7457V105.812H96.6077C98.5617 105.812 99.3061 106.556 99.5351 106.864H101.067C101.289 106.549 102.004 105.812 103.951 105.812H109.828V96.0847H110.293V106.277H103.951C101.854 106.277 101.418 107.186 101.41 107.193L101.346 107.329H101.196L101.203 107.336ZM100.036 105.597V106.098C99.1558 104.438 95.1332 104.71 91.7119 105.053V95.5694C95.9993 95.3475 99.6568 94.7534 100.036 96.6215V105.132C98.9411 103.829 95.6701 103.965 92.2416 104.294V104.566C95.6271 104.237 99.2059 104.13 100.036 105.604V105.597ZM108.876 95.5622V105.046C105.454 104.702 101.432 104.43 100.551 106.091V105.59C101.353 104.094 104.953 104.223 108.36 104.552V104.28C104.925 103.951 101.632 103.793 100.551 105.118V96.6072C100.938 94.7391 104.588 95.3403 108.876 95.5551V95.5622ZM127.843 91.2963H72.7874L69.2659 87.6031L76.2875 89.9436C75.7077 88.19 74.1044 87.5887 73.0666 86.0928C72.451 85.2053 72.2435 84.3321 72.3079 83.4159C72.494 83.738 72.8375 84.1889 73.3672 84.5539C73.8754 84.9047 74.5554 85.1766 75.4858 85.3771C77.1464 85.7349 77.9981 86.2574 78.7282 86.9302L75.1351 80.4956L81.3264 84.4895C81.0687 82.65 79.8018 81.6909 79.1719 79.9946C78.7997 78.9782 78.8069 78.0692 79.1004 77.2103C79.2006 77.5682 79.4225 78.0835 79.8447 78.5702C80.2456 79.0355 80.8397 79.4721 81.6914 79.8944C83.2589 80.6817 83.9603 81.4261 84.5043 82.2922L82.5933 75.0845L87.5749 80.4598C87.7753 78.649 86.7947 77.4036 86.6086 75.607C86.4941 74.5334 86.7231 73.6459 87.2242 72.88C87.2313 73.2522 87.3172 73.8105 87.6035 74.3831C87.8827 74.9342 88.3479 75.4997 89.0637 76.1224C90.4379 77.3177 90.9103 78.2338 91.2252 79.2502L91.1751 71.6847L94.6394 78.0979C95.3193 76.4731 94.6036 74.9772 94.8684 73.2021C95.0259 72.1356 95.4983 71.3197 96.1639 70.7041C96.078 71.0692 96.0208 71.6274 96.1639 72.2573C96.2927 72.8585 96.6077 73.5242 97.1445 74.3044C98.2038 75.8361 98.4185 76.8524 98.4615 77.9404H98.4758L100.322 70.5252L102.09 77.6398C103.157 76.1725 102.885 74.5119 103.586 72.8442C104.009 71.8493 104.653 71.2553 105.462 70.8258C105.29 71.155 105.089 71.6847 105.068 72.3289C105.046 72.9444 105.175 73.6673 105.504 74.562C106.127 76.2584 106.091 77.2891 105.87 78.3197L109.455 71.6775L109.405 78.9782C110.794 77.8831 110.894 76.1438 111.989 74.7195C112.648 73.8606 113.435 73.4526 114.323 73.2379C114.072 73.517 113.75 73.9751 113.564 74.5907C113.385 75.1776 113.335 75.9148 113.435 76.8596C113.621 78.7062 113.321 79.7011 112.834 80.6674L118.023 75.0631L116.162 82.0989C117.722 81.3545 118.288 79.8586 119.684 78.7563C120.535 78.0835 121.394 77.7614 122.303 77.7686C121.988 77.9762 121.566 78.3412 121.237 78.8923C120.922 79.422 120.686 80.1163 120.542 81.0611C120.263 82.8862 119.741 83.7809 119.025 84.5969L119.054 84.6184L125.474 80.4813L121.931 86.8229C123.663 86.5795 124.493 85.1981 126.111 84.4824C127.099 84.0458 128.036 83.9312 128.917 84.1674C128.566 84.2891 128.065 84.5396 127.6 84.9906C127.163 85.42 126.762 86.0427 126.39 86.9159C125.674 88.6051 124.937 89.3352 124.057 89.9507L124.093 89.9937L131.343 87.5816L127.822 91.2749L127.843 91.2963ZM92.8786 101.668H93.0647C93.6373 101.668 93.6803 101.61 93.6803 101.231V99.5848C93.6803 99.1338 93.6087 99.1052 93.2293 99.1052H92.8715V98.912C93.2651 98.912 93.6731 98.9334 94.0381 98.9334C94.439 98.9334 94.8326 98.9191 95.2048 98.912V99.1052H94.8541C94.4748 99.1052 94.4032 99.1338 94.4032 99.5848V101.231C94.4032 101.61 94.4461 101.668 95.0187 101.668H95.2048V101.861C94.8469 101.861 94.4748 101.839 94.0381 101.839C93.7017 101.839 93.2794 101.854 92.8715 101.861V101.668H92.8786ZM96.9513 99.8496C96.5075 99.5848 96.1997 99.1983 96.1997 98.7044C96.1997 98.2821 96.5075 97.5162 97.5167 97.5162C98.3183 97.5162 98.6619 98.0173 98.6619 98.4682C98.6619 98.9191 98.4973 99.2126 97.8245 99.5275C98.4758 99.8567 98.7621 100.207 98.7621 100.723C98.7621 101.424 98.211 101.94 97.3664 101.94C96.6077 101.94 96.121 101.417 96.121 100.873C96.121 100.272 96.5934 99.9784 96.9513 99.8567V99.8496ZM98.0821 101.031C98.0821 100.658 97.9104 100.422 97.1374 99.9498C96.7938 100.129 96.6148 100.487 96.6148 100.816C96.6148 101.424 97.0371 101.711 97.3807 101.711C97.8603 101.711 98.0821 101.36 98.0821 101.031ZM97.6742 99.4416C97.9676 99.2054 98.168 98.9621 98.168 98.5469C98.168 98.0602 97.8459 97.7524 97.4737 97.7524C97.0515 97.7524 96.8153 98.096 96.8153 98.4539C96.8153 98.8332 97.0801 99.0909 97.6742 99.4416ZM101.704 98.912H104.366L104.417 98.9692L102.248 103.228L101.926 103.142L103.665 99.5848H101.883L101.732 99.9856H101.546L101.711 98.9191L101.704 98.912ZM105.827 99.8496C105.383 99.5848 105.075 99.1983 105.075 98.7044C105.075 98.2821 105.383 97.5162 106.392 97.5162C107.194 97.5162 107.537 98.0173 107.537 98.4682C107.537 98.9191 107.373 99.2126 106.7 99.5275C107.351 99.8567 107.645 100.207 107.645 100.723C107.645 101.424 107.086 101.94 106.249 101.94C105.49 101.94 105.003 101.417 105.003 100.873C105.003 100.272 105.476 99.9784 105.834 99.8567L105.827 99.8496ZM106.957 101.031C106.957 100.658 106.786 100.422 106.013 99.9498C105.669 100.129 105.49 100.487 105.49 100.816C105.49 101.424 105.912 101.711 106.256 101.711C106.743 101.711 106.957 101.36 106.957 101.031ZM106.549 99.4416C106.843 99.2054 107.043 98.9621 107.043 98.5469C107.043 98.0602 106.721 97.7524 106.349 97.7524C105.92 97.7524 105.691 98.096 105.691 98.4539C105.691 98.8332 105.955 99.0909 106.549 99.4416ZM110.636 117.185C110.644 112.633 114.315 108.954 118.832 108.961C123.348 108.968 127.006 112.669 126.999 117.214C126.999 121.766 123.32 125.445 118.803 125.438C114.287 125.431 110.629 121.644 110.636 117.185ZM122.582 111.574C122.632 111.631 122.661 111.71 122.668 111.796C122.668 111.996 122.511 112.168 122.31 112.175C122.11 112.175 121.938 112.017 121.931 111.817C121.931 111.631 122.06 111.473 122.246 111.445L121.824 110.793L121.108 111.108C121.18 111.173 121.23 111.266 121.237 111.373C121.237 111.574 121.079 111.745 120.879 111.753C120.678 111.753 120.507 111.595 120.5 111.395C120.5 111.237 120.593 111.101 120.729 111.044C120.514 110.815 120.049 110.471 119.605 110.321C119.948 110.944 120.135 111.717 120.12 112.354C120.578 112.325 121.852 112.712 122.332 113.077C122.726 112.497 123.312 111.946 123.964 111.717C123.649 111.609 123.04 111.516 122.59 111.574H122.582ZM120.285 113.213C120.228 113.213 120.177 113.206 120.12 113.191C120.07 113.177 120.049 113.155 120.034 113.141C120.02 113.12 119.97 113.062 119.848 113.055C119.633 113.041 119.526 113.206 119.512 113.306C119.505 113.384 119.519 113.456 119.569 113.513C119.612 113.563 119.669 113.592 119.727 113.599C119.769 113.599 119.82 113.599 119.87 113.578C119.956 113.52 120.006 113.449 120.034 113.37C120.049 113.334 120.149 113.299 120.263 113.291C120.285 113.291 120.306 113.277 120.306 113.256C120.306 113.234 120.306 113.213 120.278 113.213H120.285ZM118.066 113.327C118.023 113.406 118.023 113.485 118.037 113.549C118.037 113.556 118.066 113.592 118.073 113.599C118.045 113.721 118.052 113.878 118.102 114.1C118.13 114.229 118.245 114.272 118.467 114.279C118.467 114.329 118.474 114.387 118.488 114.437C118.488 114.437 118.488 114.451 118.488 114.458C118.359 114.494 118.238 114.515 118.123 114.508C117.78 114.487 117.572 114.301 117.615 113.957C117.622 113.893 117.636 113.843 117.672 113.785C117.687 113.757 117.672 113.735 117.644 113.721C117.522 113.678 117.171 113.964 117.121 114.365C117.071 114.744 117.286 114.959 117.601 114.973C117.773 114.981 118.009 114.959 118.259 114.859C118.681 114.687 119.161 114.637 119.455 114.931C119.233 114.888 118.66 114.931 118.495 114.966C118.245 115.009 118.13 115.525 118.402 115.539C118.617 115.553 119.383 115.503 119.426 115.517C119.347 115.854 118.846 116.276 118.367 116.376C118.073 116.255 117.207 116.283 116.821 116.398C116.327 115.84 115.969 114.809 115.933 114.472C115.912 114.315 115.912 114.136 115.99 113.993C116.148 113.714 116.463 113.735 116.613 113.492C116.692 113.363 116.656 113.206 116.685 113.062C116.692 113.005 116.821 112.783 116.663 112.712C116.592 112.798 116.484 112.862 116.341 112.819C116.248 112.79 116.148 112.755 116.048 112.798C115.876 112.869 115.84 113.084 115.711 113.227C115.64 113.306 115.547 113.27 115.568 113.148C115.604 112.955 115.697 112.769 115.668 112.569C115.64 112.368 115.489 112.211 115.282 112.096C115.196 112.046 115.096 111.96 114.995 111.939C114.902 111.917 114.816 111.953 114.809 111.996C114.859 112.032 114.895 112.082 114.895 112.161C114.895 112.339 114.702 112.44 114.702 112.611C114.702 112.869 114.881 113.112 114.895 113.248C114.91 113.349 114.816 113.356 114.759 113.32C114.623 113.248 114.408 113.134 114.215 113.127C114.051 113.127 113.943 113.256 113.807 113.313C113.75 113.334 113.492 113.334 113.542 113.456C113.686 113.485 113.786 113.571 113.836 113.707C113.872 113.807 113.893 113.886 113.986 113.957C114.144 114.072 114.473 114.043 114.63 114.064C114.731 114.086 114.852 114.143 114.888 114.358C114.91 114.508 114.852 114.673 114.788 114.787C114.666 115.009 114.602 115.231 114.659 115.446C114.716 115.367 114.781 115.331 114.845 115.331C114.981 115.331 115.024 115.489 114.924 115.704C114.831 115.897 114.773 116.119 114.867 116.369C114.909 116.283 114.974 116.233 115.06 116.233C115.181 116.233 115.253 116.362 115.167 116.605C115.081 116.827 115.06 117.035 115.153 117.25C115.189 117.157 115.26 117.092 115.346 117.092C115.482 117.092 115.532 117.228 115.582 117.343C115.74 117.722 115.983 117.915 116.599 117.915C116.384 118.316 114.609 118.058 113.893 117.98C113.736 117.965 113.65 117.915 113.6 117.794C113.485 117.507 113.75 117.278 113.6 116.978C113.528 116.827 113.406 116.791 113.278 116.713C113.22 116.677 113.056 116.469 112.948 116.555C112.991 116.663 112.984 116.763 112.855 116.877C112.769 116.949 112.691 117.013 112.676 117.135C112.655 117.335 112.82 117.529 112.87 117.7C112.913 117.829 112.834 117.879 112.726 117.801C112.555 117.672 112.304 117.364 112.046 117.364C111.868 117.364 111.817 117.471 111.674 117.536C111.61 117.564 111.331 117.593 111.359 117.729C111.481 117.751 111.588 117.822 111.617 117.98C111.639 118.087 111.667 118.194 111.76 118.266C111.996 118.452 112.376 118.366 112.598 118.416C112.684 118.431 112.698 118.509 112.619 118.559C112.433 118.674 112.168 118.745 112.075 118.932C111.996 119.082 112.046 119.261 112.039 119.411C112.039 119.476 111.946 119.69 112.097 119.733C112.168 119.633 112.268 119.561 112.44 119.583C112.547 119.597 112.641 119.647 112.755 119.59C112.941 119.497 112.956 119.325 113.056 119.168C113.106 119.089 113.185 119.003 113.321 119.003C113.399 119.003 113.478 119.017 113.542 119.082C113.686 119.211 113.671 119.511 114.108 119.576C114.086 119.526 114.072 119.468 114.072 119.418C114.072 119.332 114.122 119.261 114.215 119.261C114.315 119.261 114.387 119.311 114.473 119.461C114.587 119.662 114.709 119.719 114.909 119.74C114.881 119.69 114.867 119.626 114.867 119.576C114.867 119.483 114.924 119.425 115.003 119.425C115.053 119.425 115.146 119.447 115.224 119.583C115.346 119.798 115.446 119.898 115.661 119.919C115.597 119.798 115.647 119.626 115.811 119.626C115.976 119.626 116.398 119.769 116.706 119.898C116.699 120.699 117.214 121.558 117.987 122.074C117.959 121.923 118.037 121.838 118.152 121.838C118.467 121.838 118.624 122.575 119.326 122.911C119.29 122.768 119.361 122.682 119.462 122.682C119.548 122.682 119.655 122.732 119.719 122.768C120.349 123.104 121.015 123.534 121.337 123.82C121.988 123.62 123.055 122.983 123.749 122.267C123.32 122.138 122.131 121.251 121.723 120.821C120.979 120.055 120.779 119.254 120.779 118.667C120.779 118.466 120.807 118.28 120.857 118.137C121.072 118.266 121.38 118.244 121.566 118.073C121.23 117.808 121.28 117.285 121.394 117.092C121.58 117.25 121.924 117.199 122.096 117.042C121.838 116.877 121.695 116.462 121.831 116.097C121.974 116.247 122.31 116.255 122.518 116.09C122.246 115.861 122.11 115.496 122.182 115.074C122.31 115.245 122.547 115.267 122.726 115.195C122.618 114.966 122.604 114.587 122.575 114.336C122.532 113.993 122.432 113.599 122.318 113.384C121.945 113.062 120.807 112.604 120.099 112.604C120.006 112.604 119.913 112.619 119.834 112.64C119.633 112.683 119.497 112.755 119.49 112.79C119.39 112.955 119.125 112.991 118.889 113.055C118.724 113.105 118.274 113.227 118.095 113.327H118.066ZM119.154 118.867H119.097C119.054 119.354 118.782 120.084 118.617 120.349L118.925 120.105L119.125 120.349L119.326 120.105L119.612 120.349C119.455 120.07 119.197 119.347 119.154 118.867ZM124.615 121.208C124.68 121.115 124.765 120.971 124.765 120.971C124.465 120.506 124.236 120.005 124.272 119.418C124.314 118.788 124.672 118.595 124.944 118.609C125.195 118.617 125.367 118.81 125.381 119.089C125.596 118.91 125.689 118.703 125.703 118.488C125.717 118.323 125.631 118.073 125.352 118.001C125.853 117.536 125.803 116.605 125.295 116.247C125.367 116.92 124.866 117.378 124.422 117.808C123.821 118.388 123.742 119.053 123.849 119.74C123.491 119.053 123.327 118.402 123.37 117.758C123.42 117.035 123.785 116.29 124.307 116.333C124.479 116.348 124.651 116.434 124.722 116.584C124.98 116.162 124.794 115.696 124.393 115.661C124.808 114.666 124.136 113.671 123.584 113.456C123.728 113.757 123.799 114.057 123.771 114.401C123.706 115.36 122.869 116.119 122.783 117.536C122.69 119.075 123.549 120.406 124.465 121.422C124.465 121.422 124.544 121.322 124.622 121.208H124.615ZM121.008 120.979H120.95C120.907 121.465 120.636 122.195 120.464 122.46L120.772 122.217L120.972 122.46L121.172 122.217L121.459 122.46C121.301 122.181 121.043 121.458 121.001 120.979H121.008ZM119.583 114.759C119.633 114.666 119.655 114.53 119.655 114.458C119.655 114.401 119.655 114.329 119.591 114.272C119.533 114.215 119.383 114.186 119.233 114.186C119.082 114.186 118.918 114.208 118.825 114.265C118.81 114.308 118.796 114.365 118.767 114.422C119.047 114.422 119.354 114.494 119.576 114.759H119.583ZM81.7272 125.452C86.2436 125.452 89.9154 121.773 89.9226 117.221C89.9297 112.669 86.2722 108.975 81.7558 108.961C77.2394 108.961 73.5676 112.64 73.5605 117.185C73.5533 121.737 77.2108 125.431 81.7343 125.445L81.7272 125.452ZM87.0309 113.807C87.0524 114.057 86.9236 114.472 86.8305 114.58C86.7446 114.608 86.5084 114.63 86.3366 114.637C86.2293 114.637 86.2007 114.659 86.1291 114.766C85.9287 115.109 85.7426 115.432 85.5278 115.847C85.4849 116.333 85.4849 116.799 85.4491 117.371C85.4348 117.572 85.4634 117.844 85.3274 118.073C85.1485 118.302 84.9552 118.466 84.7977 118.574C84.7691 118.595 84.719 118.652 84.855 118.609C84.9338 118.588 85.3131 118.395 85.3918 118.366C85.6567 118.28 85.9716 117.951 86.3939 118.366C86.6015 118.567 86.9092 118.753 87.2814 119.003C87.4174 119.096 87.489 119.075 87.6751 119.239C87.8254 119.368 87.897 119.662 87.9829 119.812C88.2119 120.198 88.2334 120.442 88.2334 120.528C88.0902 120.606 87.5534 120.614 87.3387 120.549C87.2671 120.413 87.2743 120.213 87.2313 120.113C87.1526 119.919 87.0882 119.826 86.9879 119.762C86.8233 119.647 86.7017 119.511 86.5299 119.418C86.1219 119.189 86.0647 119.132 85.764 119.282C85.4849 119.418 85.0554 119.805 84.6045 120.048C84.2466 120.22 83.2661 120.048 83.0012 119.798C83.0943 120.062 83.6382 120.363 84.0534 120.556C83.9961 120.699 83.8458 121.458 83.5523 121.895C83.5309 121.787 83.4665 121.709 83.3734 121.709C83.0943 121.709 83.1515 122.296 82.8867 122.603C82.8724 122.51 82.808 122.41 82.6934 122.41C82.4358 122.41 82.4644 122.961 82.1709 123.255C82.1352 123.133 82.0707 123.047 81.9491 123.047C81.8274 123.047 81.7272 123.162 81.627 123.269C81.2762 123.641 81.1116 123.856 80.7752 124.214C79.6586 124.149 77.9981 123.369 77.4112 122.661C78.4705 121.523 79.4296 120.385 79.8949 120.055C80.1167 119.382 80.7896 117.965 81.0329 117.314C81.0043 117.25 80.9685 117.192 80.9327 117.128C80.7681 117.221 80.5677 117.242 80.4889 117.199C80.5605 117.013 80.5677 116.727 80.4889 116.505C80.3673 116.577 80.2026 116.613 80.081 116.562C80.1525 116.341 80.1668 116.083 80.0952 115.875C79.9449 115.94 79.8018 115.968 79.6873 115.925C79.7517 115.682 79.8089 115.446 79.7374 115.131C79.7374 115.109 79.7231 115.088 79.7159 115.066C79.5155 115.167 78.7997 115.296 78.6351 115.231C78.5349 115.152 79.1433 114.53 79.6586 114.014C79.1719 114.229 78.5421 114.458 77.5758 114.651C77.0247 114.759 75.8723 114.966 75.0492 114.816C74.9132 114.795 74.9419 114.608 75.0778 114.608C75.5073 114.608 76.0942 114.587 76.5165 114.48C76.631 114.451 76.8099 114.351 76.4807 114.293C76.13 114.236 75.493 114.129 75.178 114.022C75.0635 113.986 75.1279 113.85 75.221 113.857C75.6146 113.886 76.0727 113.971 76.4091 113.979C76.6024 113.979 76.6883 113.957 76.5451 113.835C76.4592 113.757 76.1801 113.585 75.9009 113.42C75.8365 113.384 75.8437 113.299 75.9224 113.284C76.1443 113.248 77.0175 113.792 77.5973 113.95C77.7261 113.986 77.8406 114.007 77.948 113.993C78.0625 113.971 78.084 113.907 78.0769 113.85C78.0554 113.714 77.4756 113.442 77.1965 113.248C77.0819 113.177 77.1964 113.084 77.3253 113.12C77.6331 113.206 78.3488 113.585 78.6709 113.621C78.9286 113.649 79.0216 113.578 79.0073 113.506C78.9787 113.334 77.991 112.869 77.7548 112.697C77.6975 112.654 77.7762 112.576 77.8406 112.583C78.3417 112.647 79.3223 113.32 79.7589 113.248C79.809 113.241 79.8662 113.206 79.8591 113.141C79.8233 112.948 79.0073 112.518 78.8069 112.382C78.7067 112.318 78.8212 112.246 78.9644 112.275C79.265 112.347 79.7302 112.576 80.0094 112.719C80.1382 112.783 80.2527 112.812 80.3887 112.79C80.5677 112.755 80.7251 112.569 80.6536 112.182C80.582 111.788 80.2098 111.631 79.9593 111.559C79.673 111.481 79.8877 111.345 80.1311 111.395C80.6035 111.488 80.947 111.702 81.0258 112.125C81.0401 112.189 81.04 112.289 81.0472 112.375C81.0544 112.604 81.219 112.526 81.355 112.332C81.6126 111.967 81.6699 111.609 81.627 111.359C81.5482 110.929 80.947 110.758 80.947 110.657C80.947 110.622 80.9828 110.593 81.0114 110.586C81.2405 110.543 81.8775 110.815 81.9706 111.33C82.0207 111.602 81.9706 111.745 81.9204 112.01C81.9133 112.067 81.9491 112.11 82.0349 112.025C82.3356 111.724 82.5861 111.173 82.5002 110.679C82.4072 110.149 81.8632 109.97 81.8488 109.877C81.8488 109.856 81.8918 109.82 81.9276 109.813C82.1495 109.777 82.7507 110.128 82.8652 110.708C82.9655 111.223 82.7221 112.297 81.1259 113.148C81.7987 112.998 81.9849 113.019 82.0564 113.098C82.8295 112.891 83.3233 112.733 83.5237 112.776C83.7385 113.105 83.2803 113.241 83.2732 113.492C83.2803 113.735 83.8172 113.334 83.7241 113.707C83.5595 114 83.3519 114.021 83.1157 114.115C82.9941 114.193 82.5145 114.537 82.2568 114.752C83.0298 115.288 83.8243 116.111 83.8744 116.147C83.9245 116.269 84.1106 116.605 84.3254 117.114C84.3254 117.121 84.3397 117.135 84.3397 117.142C84.4471 116.813 84.626 116.262 84.7047 115.983C84.7763 115.739 84.7477 115.661 84.8264 115.517C84.8908 115.396 85.1055 115.195 85.2988 114.909C85.4706 114.651 85.7497 114.258 85.8499 114.107C86.0145 113.857 86.172 113.907 86.4726 113.828C86.5871 113.8 86.9236 113.778 87.0596 113.785L87.0309 113.807ZM80.9542 113.843C80.9899 113.807 81.0544 113.75 81.1116 113.714C81.2333 113.642 81.4122 113.606 81.5267 113.585C81.584 113.671 81.5626 113.814 81.4624 113.921C81.3622 114.036 81.2548 113.986 81.1474 113.936C81.0758 113.9 81.0186 113.907 80.9899 113.907C80.9541 113.907 80.9255 113.871 80.9542 113.843ZM108.632 135.072C108.704 135.015 108.883 134.785 108.811 134.743C108.69 134.685 108.453 134.929 108.088 134.929C107.723 134.929 107.337 134.7 107.208 134.227C107.058 133.683 107.308 133.282 107.716 132.939C107.859 132.824 108.167 132.638 108.26 132.474C108.239 132.18 108.554 131.693 108.561 131.429C108.561 131.128 108.861 131.006 109.126 130.606C109.269 130.384 109.377 130.169 109.262 130.054C108.933 130.319 108.01 131.042 107.451 130.835C107.194 130.741 107.179 130.727 106.95 130.899C106.771 131.028 106.528 131.092 106.227 131.042C105.734 130.971 105.411 130.641 105.411 130.412C105.104 130.384 104.782 130.963 104.617 131.185C104.402 131.486 104.152 131.701 103.858 131.93C103.622 132.116 103.243 132.517 102.942 132.316C102.735 132.173 102.72 131.686 102.727 131.414C102.749 130.956 102.799 130.62 102.856 130.326C102.906 130.069 102.985 129.754 103.057 129.51C103.143 129.21 103.314 128.888 103.422 128.587C103.472 128.458 103.815 127.85 103.815 127.621C103.815 127.556 103.772 127.528 103.708 127.528C103.558 127.528 103.343 127.678 103.143 127.8C102.978 127.893 102.82 127.964 102.591 127.964C102.334 127.964 102.126 127.857 101.962 127.556C101.682 127.055 101.682 125.975 101.546 125.645C101.267 125.788 101.045 125.717 100.874 125.466C100.666 125.173 100.544 124.829 100.415 124.479C100.365 124.343 100.265 123.956 100.208 123.734C100.05 124.064 100.029 124.407 99.9288 124.708C99.8715 124.879 99.8357 125.109 99.7856 125.302C99.7284 125.531 99.5423 125.91 99.3204 125.91C99.1916 125.91 99.1128 125.781 99.0914 125.703C99.0198 125.703 98.9482 125.788 98.8981 125.932C98.805 126.175 98.8051 126.375 98.7478 126.626C98.6333 127.098 98.5689 127.728 97.982 127.807C97.7386 127.843 97.4308 127.657 97.2233 127.556C96.7294 127.32 96.9298 127.993 97.0658 128.258C97.2018 128.523 97.4165 128.838 97.4594 129.21C97.5382 129.825 97.6527 130.112 97.7887 130.706C97.8746 131.071 98.0106 131.565 98.0177 131.944C98.0177 132.402 97.6813 132.667 97.1374 132.194C96.9799 132.058 96.6363 131.629 96.3357 131.543C95.9277 131.429 95.5126 130.992 95.3551 130.763C95.2621 130.77 95.0688 130.913 94.9901 130.985C94.532 131.407 94.031 131.522 93.2437 131.379C92.8428 131.307 92.6997 131.207 92.3346 131.028C92.0412 130.885 91.7549 130.741 91.5616 130.455C91.5115 130.384 91.4757 130.226 91.3541 130.248C91.2324 130.269 91.2181 130.52 91.2181 130.613C91.2181 130.906 91.3254 131.214 91.4614 131.472C91.6189 131.758 91.8909 131.872 92.0984 132.101C92.2845 132.309 92.1987 132.581 91.8837 132.459C91.8909 132.688 92.1486 132.724 92.2989 132.846C92.4706 132.982 92.5494 133.154 92.6424 133.333C92.7569 133.554 93.0933 133.762 93.0933 134.063C93.0933 134.284 93.0289 134.435 92.8357 134.535C92.5995 134.664 92.3418 134.628 92.0841 134.499C91.9481 134.922 92.4348 135.229 92.7641 135.401C92.943 135.494 93.1434 135.551 93.3081 135.666C93.4798 135.788 93.7017 135.966 93.6659 136.095C93.9165 136.196 94.1956 136.095 94.5964 136.153C94.8469 136.188 95.2048 136.374 95.398 136.532C95.5985 136.704 95.7273 136.918 95.7273 137.183C95.7273 138.135 94.0954 138.414 94.0954 138.414C94.7682 138.672 95.6414 139.123 96.3858 138.944C96.5289 138.908 96.758 138.779 96.9226 138.865C97.0658 138.944 97.1803 139.152 97.0658 139.359C97.1946 139.488 97.4451 139.531 97.6742 139.531C97.8531 139.531 98.0607 139.502 98.2253 139.431C98.4257 139.338 98.4901 139.195 98.6619 139.087C98.8265 138.987 99.0055 139.023 99.1772 138.944C99.4564 138.822 99.5852 138.507 99.9288 138.486L99.7999 144.09H100.866C100.852 143.525 100.838 142.952 100.816 142.387C100.788 141.413 100.766 140.447 100.723 139.481C100.709 139.166 100.695 138.844 100.723 138.529C101.024 138.622 101.16 138.994 101.425 139.152C101.725 139.338 102.477 139.774 102.806 139.452C102.756 139.331 102.563 138.973 102.806 139.008C102.885 139.023 103.035 139.137 103.114 139.173C103.286 139.273 103.457 139.295 103.658 139.273C103.923 139.245 104.173 139.23 104.495 139.288C104.703 139.323 104.825 139.338 105.068 139.288C105.254 139.252 105.397 139.152 105.569 139.087C105.87 138.965 106.199 139.023 106.428 138.772C106.184 138.772 105.734 138.6 105.633 138.529C105.347 138.35 105.132 138.099 105.003 137.785C104.875 137.477 104.782 137.09 105.204 136.997C105.447 136.947 105.39 136.997 105.54 136.825C105.691 136.668 105.948 136.417 106.17 136.346C106.428 136.253 107.222 136.296 107.308 135.966C107.272 135.931 107.215 135.852 107.222 135.795C107.237 135.716 107.294 135.687 107.394 135.637C107.544 135.566 107.73 135.494 107.888 135.444C108.11 135.372 108.432 135.251 108.632 135.072Z" fill="#4F2683"/>
<path d="M367.67 129.853V87.8047H375.504L387.772 122.768C387.696 121.654 387.6 120.329 387.484 118.793C387.369 117.257 387.273 115.664 387.196 114.013C387.158 112.361 387.139 110.864 387.139 109.52V87.8047H392.899V129.853H385.065L372.854 94.8895C372.931 95.8879 373.008 97.1359 373.084 98.6335C373.2 100.131 373.276 101.686 373.315 103.299C373.392 104.912 373.43 106.409 373.43 107.792V129.853H367.67Z" fill="#4F2683"/>
<path d="M334.458 129.853V87.8047H347.648C350.298 87.8047 352.602 88.3231 354.56 89.3599C356.518 90.3583 358.035 91.7791 359.11 93.6223C360.224 95.4655 360.781 97.6351 360.781 100.131C360.781 102.934 360.051 105.373 358.592 107.446C357.171 109.481 355.232 110.921 352.774 111.766L361.357 129.853H354.272L346.611 112.573H340.678V129.853H334.458ZM340.678 107.101H347.648C349.722 107.101 351.373 106.486 352.602 105.257C353.83 103.99 354.445 102.32 354.445 100.246C354.445 98.0959 353.83 96.4063 352.602 95.1775C351.373 93.9487 349.722 93.3343 347.648 93.3343H340.678V107.101Z" fill="#4F2683"/>
<path d="M301.648 129.853V87.8047H326.358V93.3343H307.754V105.257H324.342V110.729H307.754V124.323H326.358V129.853H301.648Z" fill="#4F2683"/>
<path d="M277.018 129.853V93.5071H265.786V87.7471H294.47V93.5071H283.238V129.853H277.018Z" fill="#4F2683"/>
<path d="M246.915 130.429C244.074 130.429 241.635 129.968 239.6 129.046C237.565 128.086 235.991 126.742 234.877 125.014C233.763 123.248 233.207 121.155 233.207 118.736H239.37C239.37 120.656 240.042 122.173 241.386 123.286C242.73 124.362 244.592 124.899 246.973 124.899C249.2 124.899 250.947 124.362 252.215 123.286C253.482 122.211 254.115 120.733 254.115 118.851C254.115 117.277 253.674 115.914 252.791 114.762C251.946 113.61 250.717 112.822 249.104 112.4L243.805 110.845C240.733 109.962 238.352 108.464 236.663 106.352C235.011 104.202 234.186 101.648 234.186 98.6911C234.186 96.3871 234.704 94.3711 235.741 92.6431C236.778 90.9151 238.256 89.5711 240.176 88.6111C242.096 87.6511 244.362 87.1711 246.973 87.1711C250.813 87.1711 253.885 88.2079 256.189 90.2815C258.531 92.3551 259.722 95.1391 259.76 98.6335H253.539C253.539 96.7903 252.944 95.3503 251.754 94.3135C250.602 93.2383 248.97 92.7007 246.858 92.7007C244.823 92.7007 243.229 93.1999 242.077 94.1983C240.925 95.1583 240.349 96.5215 240.349 98.2879C240.349 99.8623 240.771 101.226 241.616 102.378C242.499 103.53 243.747 104.336 245.36 104.797L250.717 106.41C253.789 107.254 256.151 108.752 257.802 110.902C259.453 113.053 260.279 115.626 260.279 118.621C260.279 120.963 259.722 123.037 258.608 124.842C257.495 126.608 255.939 127.99 253.943 128.989C251.946 129.949 249.603 130.429 246.915 130.429Z" fill="#4F2683"/>
<path d="M201.491 129.853V87.8047H226.202V93.3343H207.597V105.257H224.186V110.729H207.597V124.323H226.202V129.853H201.491Z" fill="#4F2683"/>
<path d="M168.451 129.853L163.901 87.8047H169.488L172.31 117.987C172.387 118.755 172.445 119.6 172.483 120.521C172.56 121.443 172.618 122.345 172.656 123.229C172.733 124.112 172.771 124.88 172.771 125.533C172.848 124.88 172.925 124.112 173.002 123.229C173.078 122.345 173.155 121.443 173.232 120.521C173.347 119.6 173.462 118.755 173.578 117.987L177.206 87.8047H182.966L186.365 117.987C186.442 118.755 186.518 119.6 186.595 120.521C186.71 121.443 186.826 122.345 186.941 123.229C187.056 124.112 187.133 124.88 187.171 125.533C187.21 124.88 187.248 124.112 187.286 123.229C187.363 122.345 187.44 121.443 187.517 120.521C187.594 119.6 187.67 118.755 187.747 117.987L190.627 87.8047H196.042L191.318 129.853H184.118L180.72 99.2671C180.643 98.4607 180.566 97.6159 180.49 96.7327C180.413 95.8111 180.336 94.9279 180.259 94.0831C180.182 93.1999 180.106 92.4703 180.029 91.8943C179.99 92.4703 179.933 93.1999 179.856 94.0831C179.779 94.9279 179.702 95.8111 179.626 96.7327C179.549 97.6159 179.453 98.4607 179.338 99.2671L175.709 129.853H168.451Z" fill="#4F2683"/>
</g>
<defs>
<filter id="filter0_d_1023_315" x="0" y="0" width="466.4" height="225.6" filterUnits="userSpaceOnUse" color-interpolation-filters="sRGB">
<feFlood flood-opacity="0" result="BackgroundImageFix"/>
<feColorMatrix in="SourceAlpha" type="matrix" values="0 0 0 0 0 0 0 0 0 0 0 0 0 0 0 0 0 0 127 0" result="hardAlpha"/>
<feOffset dx="4" dy="4"/>
<feGaussianBlur stdDeviation="5"/>
<feComposite in2="hardAlpha" operator="out"/>
<feColorMatrix type="matrix" values="0 0 0 0 0 0 0 0 0 0 0 0 0 0 0 0 0 0 0.1 0"/>
<feBlend mode="normal" in2="BackgroundImageFix" result="effect1_dropShadow_1023_315"/>
<feBlend mode="normal" in="SourceGraphic" in2="effect1_dropShadow_1023_315" result="shape"/>
</filter>
</defs>
</svg>
