<svg width="605" height="403" viewBox="0 0 605 403" fill="none" xmlns="http://www.w3.org/2000/svg">
<ellipse cx="302.5" cy="201.5" rx="297.5" ry="196.5" stroke="#C09BED" stroke-width="10" stroke-linecap="round" stroke-dasharray="10 15"/>
<ellipse cx="303" cy="201.5" rx="282" ry="184.5" fill="#D0B2F5"/>
<path d="M259.985 186.632V121.797C243.209 115.847 216.756 112 186.993 112C157.23 112 131.805 115.832 115 121.797V186.632C115 196.474 114.836 214.785 123.679 235.393C134.654 260.966 155.604 280.053 185.919 292.101L187.485 292.743L189.051 292.116C219.381 280.053 240.332 260.966 251.306 235.393C260.149 214.8 260 195.982 260 186.632H259.985Z" fill="white"/>
<path d="M187.485 220.287L231.549 256.209C220.663 268.914 205.916 279.039 187.485 286.465C169.04 279.039 154.307 268.914 143.422 256.209L187.485 220.287ZM254.169 165.92V125.957C237.424 120.768 212.745 117.83 186.993 117.83C161.241 117.83 137.651 120.783 120.816 126.002V165.935L187.485 220.287L254.169 165.92ZM189.379 199.322H185.338L185.204 199.038C185.204 199.038 184.175 197.115 179.806 197.115H166.624V175.806H167.593V196.146H179.806C183.877 196.146 185.427 197.696 185.905 198.338H189.096C189.558 197.682 191.049 196.146 195.105 196.146H207.347V175.881H208.316V197.115H195.105C190.736 197.115 189.826 199.009 189.811 199.024L189.677 199.307H189.364L189.379 199.322ZM186.948 195.698V196.742C185.114 193.283 176.734 193.849 169.606 194.565V174.807C178.538 174.345 186.158 173.107 186.948 176.999V194.729C184.667 192.015 177.852 192.298 170.71 192.984V193.551C177.763 192.865 185.219 192.641 186.948 195.713V195.698ZM205.364 174.792V194.55C198.236 193.834 189.856 193.268 188.022 196.727V195.683C189.692 192.567 197.193 192.835 204.29 193.521V192.955C197.133 192.269 190.274 191.941 188.022 194.699V176.969C188.827 173.078 196.432 174.33 205.364 174.777V174.792ZM244.88 165.905H130.18L122.844 158.211L137.472 163.087C136.264 159.433 132.924 158.181 130.762 155.064C129.479 153.215 129.047 151.396 129.181 149.487C129.569 150.159 130.285 151.098 131.388 151.858C132.447 152.589 133.863 153.156 135.802 153.573C139.261 154.319 141.036 155.407 142.557 156.809L135.071 143.404L147.97 151.724C147.433 147.892 144.793 145.894 143.481 142.36C142.706 140.242 142.721 138.349 143.332 136.559C143.541 137.305 144.003 138.378 144.883 139.392C145.718 140.362 146.956 141.271 148.73 142.151C151.996 143.791 153.457 145.342 154.59 147.146L150.609 132.13L160.987 143.329C161.405 139.556 159.362 136.962 158.974 133.219C158.736 130.982 159.213 129.133 160.257 127.538C160.272 128.313 160.451 129.476 161.047 130.669C161.629 131.817 162.598 132.995 164.089 134.293C166.952 136.783 167.936 138.692 168.592 140.809L168.488 125.048L175.705 138.408C177.122 135.023 175.63 131.907 176.182 128.209C176.51 125.987 177.494 124.287 178.881 123.005C178.702 123.765 178.583 124.928 178.881 126.24C179.15 127.493 179.806 128.88 180.924 130.505C183.131 133.696 183.578 135.814 183.668 138.08H183.698L187.545 122.632L191.228 137.454C193.45 134.397 192.883 130.938 194.344 127.463C195.224 125.39 196.566 124.153 198.251 123.258C197.893 123.944 197.476 125.047 197.431 126.39C197.386 127.672 197.655 129.178 198.341 131.042C199.638 134.576 199.563 136.723 199.101 138.87L206.572 125.033L206.467 140.242C209.36 137.961 209.569 134.337 211.851 131.37C213.222 129.581 214.863 128.731 216.712 128.283C216.19 128.865 215.519 129.819 215.131 131.102C214.758 132.324 214.654 133.86 214.863 135.829C215.25 139.676 214.624 141.748 213.61 143.761L224.421 132.086L220.544 146.744C223.795 145.193 224.973 142.076 227.88 139.78C229.655 138.378 231.444 137.707 233.338 137.722C232.682 138.155 231.802 138.915 231.116 140.063C230.46 141.167 229.968 142.613 229.67 144.582C229.088 148.384 228 150.248 226.509 151.948L226.568 151.993L239.944 143.374L232.563 156.585C236.171 156.078 237.901 153.2 241.271 151.709C243.329 150.8 245.282 150.561 247.116 151.053C246.386 151.307 245.342 151.829 244.373 152.768C243.463 153.663 242.628 154.96 241.853 156.779C240.361 160.298 238.826 161.819 236.991 163.102L237.066 163.191L252.171 158.166L244.835 165.86L244.88 165.905ZM172.037 187.512H172.425C173.617 187.512 173.707 187.393 173.707 186.602V183.173C173.707 182.233 173.558 182.174 172.767 182.174H172.022V181.771C172.842 181.771 173.692 181.816 174.452 181.816C175.288 181.816 176.108 181.786 176.883 181.771V182.174H176.152C175.362 182.174 175.213 182.233 175.213 183.173V186.602C175.213 187.393 175.302 187.512 176.495 187.512H176.883V187.914C176.137 187.914 175.362 187.87 174.452 187.87C173.752 187.87 172.872 187.9 172.022 187.914V187.512H172.037ZM180.521 183.724C179.597 183.173 178.956 182.367 178.956 181.339C178.956 180.459 179.597 178.863 181.699 178.863C183.37 178.863 184.085 179.907 184.085 180.846C184.085 181.786 183.742 182.397 182.341 183.053C183.698 183.739 184.294 184.47 184.294 185.544C184.294 187.005 183.146 188.079 181.386 188.079C179.806 188.079 178.792 186.99 178.792 185.857C178.792 184.604 179.776 183.993 180.521 183.739V183.724ZM182.877 186.185C182.877 185.409 182.52 184.917 180.909 183.933C180.193 184.306 179.821 185.051 179.821 185.737C179.821 187.005 180.7 187.601 181.416 187.601C182.415 187.601 182.877 186.871 182.877 186.185ZM182.028 182.874C182.639 182.382 183.056 181.875 183.056 181.01C183.056 179.996 182.385 179.355 181.61 179.355C180.73 179.355 180.238 180.071 180.238 180.817C180.238 181.607 180.79 182.144 182.028 182.874ZM190.423 181.771H195.97L196.074 181.89L191.556 190.763L190.885 190.584L194.508 183.173H190.795L190.482 184.008H190.095L190.438 181.786L190.423 181.771ZM199.012 183.724C198.087 183.173 197.446 182.367 197.446 181.339C197.446 180.459 198.087 178.863 200.19 178.863C201.86 178.863 202.576 179.907 202.576 180.846C202.576 181.786 202.233 182.397 200.831 183.053C202.188 183.739 202.799 184.47 202.799 185.544C202.799 187.005 201.636 188.079 199.892 188.079C198.311 188.079 197.297 186.99 197.297 185.857C197.297 184.604 198.281 183.993 199.027 183.739L199.012 183.724ZM201.368 186.185C201.368 185.409 201.01 184.917 199.399 183.933C198.684 184.306 198.311 185.051 198.311 185.737C198.311 187.005 199.191 187.601 199.906 187.601C200.92 187.601 201.368 186.871 201.368 186.185ZM200.518 182.874C201.129 182.382 201.547 181.875 201.547 181.01C201.547 179.996 200.876 179.355 200.1 179.355C199.206 179.355 198.728 180.071 198.728 180.817C198.728 181.607 199.28 182.144 200.518 182.874ZM209.032 219.84C209.047 210.356 216.697 202.692 226.106 202.707C235.515 202.722 243.135 210.431 243.12 219.9C243.12 229.383 235.455 237.048 226.046 237.033C216.637 237.018 209.017 229.13 209.032 219.84ZM233.92 208.149C234.024 208.269 234.084 208.433 234.099 208.612C234.099 209.029 233.771 209.387 233.353 209.402C232.935 209.402 232.578 209.074 232.563 208.656C232.563 208.269 232.831 207.941 233.219 207.881L232.339 206.524L230.848 207.18C230.997 207.314 231.101 207.508 231.116 207.732C231.116 208.149 230.788 208.507 230.371 208.522C229.953 208.522 229.595 208.194 229.58 207.777C229.58 207.449 229.774 207.165 230.058 207.046C229.61 206.569 228.641 205.853 227.716 205.54C228.432 206.837 228.82 208.448 228.79 209.775C229.744 209.715 232.399 210.52 233.398 211.281C234.218 210.073 235.441 208.925 236.798 208.448C236.141 208.224 234.874 208.03 233.935 208.149H233.92ZM229.133 211.564C229.014 211.564 228.909 211.549 228.79 211.519C228.686 211.49 228.641 211.445 228.611 211.415C228.581 211.37 228.477 211.251 228.223 211.236C227.776 211.206 227.552 211.549 227.523 211.758C227.508 211.922 227.537 212.071 227.642 212.19C227.731 212.295 227.851 212.354 227.97 212.369C228.059 212.369 228.164 212.369 228.268 212.325C228.447 212.205 228.551 212.056 228.611 211.892C228.641 211.818 228.85 211.743 229.088 211.728C229.133 211.728 229.178 211.698 229.178 211.654C229.178 211.609 229.178 211.564 229.118 211.564H229.133ZM224.51 211.803C224.421 211.967 224.421 212.131 224.451 212.265C224.451 212.28 224.51 212.354 224.525 212.369C224.466 212.623 224.481 212.951 224.585 213.413C224.645 213.682 224.883 213.771 225.346 213.786C225.346 213.89 225.36 214.01 225.39 214.114C225.39 214.114 225.39 214.144 225.39 214.159C225.122 214.233 224.868 214.278 224.63 214.263C223.914 214.218 223.482 213.831 223.571 213.115C223.586 212.981 223.616 212.876 223.69 212.757C223.72 212.697 223.69 212.653 223.631 212.623C223.377 212.533 222.647 213.13 222.542 213.965C222.438 214.755 222.885 215.203 223.541 215.232C223.899 215.247 224.391 215.203 224.913 214.994C225.793 214.636 226.792 214.532 227.403 215.143C226.941 215.053 225.748 215.143 225.405 215.217C224.883 215.307 224.645 216.381 225.211 216.41C225.659 216.44 227.254 216.336 227.344 216.366C227.18 217.067 226.136 217.946 225.137 218.155C224.525 217.902 222.721 217.961 221.916 218.2C220.887 217.037 220.141 214.889 220.067 214.189C220.022 213.861 220.022 213.488 220.186 213.19C220.514 212.608 221.17 212.653 221.483 212.146C221.647 211.877 221.573 211.549 221.633 211.251C221.647 211.132 221.916 210.669 221.588 210.52C221.439 210.699 221.215 210.833 220.917 210.744C220.723 210.684 220.514 210.61 220.305 210.699C219.948 210.848 219.873 211.296 219.605 211.594C219.455 211.758 219.262 211.683 219.306 211.43C219.381 211.027 219.575 210.64 219.515 210.222C219.455 209.805 219.142 209.477 218.71 209.238C218.531 209.134 218.322 208.955 218.113 208.91C217.92 208.865 217.741 208.94 217.726 209.029C217.83 209.104 217.905 209.208 217.905 209.372C217.905 209.745 217.502 209.954 217.502 210.312C217.502 210.848 217.875 211.355 217.905 211.639C217.935 211.847 217.741 211.862 217.621 211.788C217.338 211.639 216.891 211.4 216.488 211.385C216.145 211.385 215.921 211.654 215.638 211.773C215.519 211.818 214.982 211.818 215.086 212.071C215.385 212.131 215.593 212.31 215.698 212.593C215.772 212.802 215.817 212.966 216.011 213.115C216.339 213.354 217.025 213.294 217.353 213.339C217.562 213.383 217.815 213.503 217.89 213.95C217.934 214.263 217.815 214.606 217.681 214.845C217.427 215.307 217.293 215.769 217.413 216.217C217.532 216.053 217.666 215.978 217.8 215.978C218.084 215.978 218.173 216.306 217.964 216.753C217.77 217.156 217.651 217.618 217.845 218.14C217.934 217.961 218.069 217.857 218.248 217.857C218.501 217.857 218.65 218.125 218.471 218.632C218.292 219.094 218.248 219.527 218.441 219.974C218.516 219.78 218.665 219.646 218.844 219.646C219.127 219.646 219.232 219.93 219.336 220.168C219.664 220.958 220.171 221.361 221.454 221.361C221.006 222.196 217.308 221.659 215.817 221.495C215.489 221.465 215.31 221.361 215.206 221.108C214.967 220.511 215.519 220.034 215.206 219.408C215.057 219.094 214.803 219.02 214.535 218.856C214.415 218.781 214.072 218.349 213.849 218.528C213.938 218.752 213.923 218.96 213.655 219.199C213.476 219.348 213.312 219.482 213.282 219.736C213.237 220.153 213.58 220.556 213.685 220.914C213.774 221.182 213.61 221.286 213.386 221.122C213.029 220.854 212.507 220.213 211.97 220.213C211.597 220.213 211.493 220.437 211.194 220.571C211.06 220.63 210.479 220.69 210.538 220.973C210.792 221.018 211.016 221.167 211.075 221.495C211.12 221.719 211.18 221.943 211.373 222.092C211.866 222.479 212.656 222.3 213.118 222.405C213.297 222.435 213.327 222.599 213.163 222.703C212.775 222.942 212.223 223.091 212.03 223.478C211.866 223.792 211.97 224.164 211.955 224.478C211.955 224.612 211.761 225.059 212.074 225.149C212.223 224.94 212.432 224.791 212.79 224.835C213.014 224.865 213.207 224.97 213.446 224.85C213.834 224.656 213.864 224.299 214.072 223.971C214.177 223.807 214.341 223.628 214.624 223.628C214.788 223.628 214.952 223.657 215.086 223.792C215.385 224.06 215.355 224.686 216.264 224.821C216.22 224.716 216.19 224.597 216.19 224.492C216.19 224.314 216.294 224.164 216.488 224.164C216.697 224.164 216.846 224.269 217.025 224.582C217.263 224.999 217.517 225.119 217.934 225.163C217.875 225.059 217.845 224.925 217.845 224.821C217.845 224.627 217.964 224.507 218.128 224.507C218.233 224.507 218.427 224.552 218.591 224.835C218.844 225.283 219.053 225.492 219.5 225.536C219.366 225.283 219.47 224.925 219.813 224.925C220.156 224.925 221.036 225.223 221.677 225.492C221.662 227.162 222.736 228.951 224.346 230.025C224.287 229.711 224.451 229.533 224.689 229.533C225.346 229.533 225.674 231.068 227.135 231.769C227.06 231.471 227.209 231.292 227.418 231.292C227.597 231.292 227.821 231.396 227.955 231.471C229.267 232.172 230.654 233.067 231.325 233.663C232.682 233.246 234.904 231.918 236.35 230.427C235.456 230.159 232.98 228.31 232.13 227.415C230.579 225.82 230.162 224.149 230.162 222.927C230.162 222.509 230.222 222.122 230.326 221.823C230.773 222.092 231.414 222.047 231.802 221.689C231.101 221.137 231.206 220.049 231.444 219.646C231.832 219.974 232.548 219.87 232.906 219.542C232.369 219.199 232.071 218.334 232.354 217.574C232.652 217.887 233.353 217.902 233.785 217.559C233.219 217.081 232.935 216.321 233.085 215.441C233.353 215.799 233.845 215.844 234.218 215.695C233.994 215.217 233.964 214.427 233.905 213.905C233.815 213.19 233.607 212.369 233.368 211.922C232.593 211.251 230.222 210.297 228.745 210.297C228.551 210.297 228.358 210.327 228.194 210.371C227.776 210.461 227.493 210.61 227.478 210.684C227.269 211.027 226.717 211.102 226.225 211.236C225.882 211.34 224.943 211.594 224.57 211.803H224.51ZM226.777 223.344H226.658C226.568 224.358 226.002 225.879 225.659 226.431L226.3 225.924L226.717 226.431L227.135 225.924L227.731 226.431C227.403 225.849 226.866 224.343 226.777 223.344ZM238.154 228.22C238.289 228.026 238.468 227.728 238.468 227.728C237.841 226.759 237.364 225.715 237.439 224.492C237.528 223.18 238.274 222.778 238.84 222.807C239.362 222.822 239.72 223.225 239.75 223.807C240.197 223.434 240.391 223.001 240.421 222.554C240.451 222.211 240.272 221.689 239.69 221.54C240.734 220.571 240.63 218.632 239.571 217.887C239.72 219.288 238.676 220.243 237.752 221.137C236.499 222.345 236.335 223.732 236.559 225.163C235.813 223.732 235.47 222.375 235.56 221.033C235.664 219.527 236.425 217.976 237.513 218.066C237.871 218.095 238.229 218.274 238.378 218.587C238.915 217.708 238.527 216.738 237.692 216.664C238.557 214.591 237.155 212.519 236.007 212.071C236.305 212.697 236.455 213.324 236.395 214.039C236.261 216.038 234.516 217.618 234.337 220.571C234.143 223.777 235.933 226.55 237.841 228.668C237.841 228.668 238.005 228.459 238.169 228.22H238.154ZM230.639 227.743H230.52C230.43 228.757 229.864 230.278 229.506 230.83L230.147 230.323L230.565 230.83L230.982 230.323L231.579 230.83C231.25 230.248 230.714 228.742 230.624 227.743H230.639ZM227.672 214.785C227.776 214.591 227.821 214.308 227.821 214.159C227.821 214.039 227.821 213.89 227.687 213.771C227.567 213.652 227.254 213.592 226.941 213.592C226.628 213.592 226.285 213.637 226.091 213.756C226.061 213.846 226.031 213.965 225.972 214.084C226.553 214.084 227.195 214.233 227.657 214.785H227.672ZM148.805 237.063C158.214 237.063 165.863 229.398 165.878 219.915C165.893 210.431 158.273 202.737 148.864 202.707C139.455 202.707 131.806 210.371 131.791 219.84C131.776 229.324 139.395 237.018 148.82 237.048L148.805 237.063ZM159.854 212.802C159.899 213.324 159.63 214.189 159.437 214.412C159.258 214.472 158.766 214.517 158.408 214.532C158.184 214.532 158.124 214.576 157.975 214.8C157.558 215.516 157.17 216.187 156.723 217.052C156.633 218.066 156.633 219.035 156.559 220.228C156.529 220.645 156.588 221.212 156.305 221.689C155.932 222.166 155.53 222.509 155.202 222.733C155.142 222.778 155.038 222.897 155.321 222.807C155.485 222.763 156.275 222.36 156.439 222.3C156.991 222.122 157.647 221.436 158.527 222.3C158.959 222.718 159.601 223.106 160.376 223.628C160.659 223.821 160.808 223.777 161.196 224.12C161.509 224.388 161.658 224.999 161.837 225.313C162.314 226.118 162.359 226.625 162.359 226.804C162.061 226.968 160.943 226.983 160.495 226.848C160.346 226.565 160.361 226.148 160.272 225.939C160.108 225.536 159.973 225.342 159.765 225.208C159.422 224.97 159.168 224.686 158.81 224.492C157.96 224.015 157.841 223.896 157.215 224.209C156.633 224.492 155.739 225.298 154.799 225.805C154.054 226.163 152.011 225.805 151.459 225.283C151.653 225.834 152.786 226.461 153.651 226.863C153.532 227.162 153.218 228.742 152.607 229.652C152.562 229.428 152.428 229.264 152.234 229.264C151.653 229.264 151.772 230.487 151.22 231.128C151.19 230.934 151.056 230.725 150.818 230.725C150.281 230.725 150.341 231.874 149.729 232.485C149.655 232.232 149.52 232.053 149.267 232.053C149.013 232.053 148.805 232.291 148.596 232.515C147.865 233.29 147.522 233.738 146.821 234.483C144.495 234.349 141.036 232.724 139.813 231.247C142.02 228.876 144.018 226.506 144.987 225.82C145.45 224.418 146.851 221.465 147.358 220.108C147.299 219.974 147.224 219.855 147.149 219.721C146.807 219.915 146.389 219.959 146.225 219.87C146.374 219.482 146.389 218.886 146.225 218.423C145.971 218.573 145.628 218.647 145.375 218.543C145.524 218.08 145.554 217.544 145.405 217.111C145.092 217.245 144.793 217.305 144.555 217.216C144.689 216.709 144.808 216.217 144.659 215.56C144.659 215.516 144.629 215.471 144.614 215.426C144.197 215.635 142.706 215.903 142.363 215.769C142.154 215.605 143.422 214.308 144.495 213.234C143.481 213.682 142.169 214.159 140.156 214.561C139.008 214.785 136.607 215.217 134.892 214.904C134.609 214.86 134.669 214.472 134.952 214.472C135.847 214.472 137.069 214.427 137.949 214.204C138.188 214.144 138.56 213.935 137.874 213.816C137.144 213.697 135.817 213.473 135.161 213.249C134.922 213.175 135.056 212.891 135.25 212.906C136.07 212.966 137.025 213.145 137.725 213.16C138.128 213.16 138.307 213.115 138.009 212.861C137.83 212.697 137.248 212.34 136.667 211.997C136.532 211.922 136.547 211.743 136.711 211.713C137.174 211.639 138.993 212.772 140.201 213.1C140.469 213.175 140.708 213.219 140.931 213.19C141.17 213.145 141.215 213.011 141.2 212.891C141.155 212.608 139.947 212.041 139.366 211.639C139.127 211.49 139.366 211.296 139.634 211.37C140.275 211.549 141.766 212.34 142.437 212.414C142.974 212.474 143.168 212.325 143.138 212.176C143.079 211.818 141.021 210.848 140.529 210.491C140.409 210.401 140.573 210.237 140.708 210.252C141.751 210.386 143.794 211.788 144.704 211.639C144.808 211.624 144.928 211.549 144.913 211.415C144.838 211.012 143.138 210.118 142.721 209.834C142.512 209.7 142.751 209.551 143.049 209.611C143.675 209.76 144.644 210.237 145.226 210.535C145.494 210.669 145.733 210.729 146.016 210.684C146.389 210.61 146.717 210.222 146.568 209.417C146.419 208.597 145.643 208.269 145.122 208.12C144.525 207.956 144.972 207.672 145.479 207.777C146.464 207.97 147.179 208.418 147.343 209.298C147.373 209.432 147.373 209.641 147.388 209.82C147.403 210.297 147.746 210.133 148.029 209.73C148.566 208.97 148.685 208.224 148.596 207.702C148.432 206.807 147.179 206.45 147.179 206.241C147.179 206.166 147.254 206.107 147.313 206.092C147.791 206.002 149.118 206.569 149.312 207.642C149.416 208.209 149.312 208.507 149.207 209.059C149.192 209.178 149.267 209.268 149.446 209.089C150.072 208.463 150.594 207.314 150.415 206.285C150.221 205.182 149.088 204.809 149.058 204.615C149.058 204.571 149.148 204.496 149.222 204.481C149.684 204.407 150.937 205.137 151.176 206.345C151.384 207.419 150.877 209.655 147.552 211.43C148.954 211.117 149.341 211.162 149.491 211.326C151.101 210.893 152.13 210.565 152.547 210.655C152.995 211.34 152.04 211.624 152.025 212.146C152.04 212.653 153.159 211.818 152.965 212.593C152.622 213.204 152.19 213.249 151.697 213.443C151.444 213.607 150.445 214.323 149.908 214.77C151.519 215.888 153.174 217.603 153.278 217.678C153.382 217.931 153.77 218.632 154.218 219.691C154.218 219.706 154.247 219.736 154.247 219.751C154.471 219.065 154.844 217.916 155.008 217.335C155.157 216.828 155.097 216.664 155.261 216.366C155.396 216.112 155.843 215.695 156.245 215.098C156.603 214.561 157.185 213.741 157.394 213.428C157.737 212.906 158.065 213.011 158.691 212.847C158.93 212.787 159.63 212.742 159.914 212.757L159.854 212.802ZM147.194 212.876C147.269 212.802 147.403 212.683 147.522 212.608C147.776 212.459 148.148 212.384 148.387 212.34C148.506 212.519 148.462 212.817 148.253 213.04C148.044 213.279 147.82 213.175 147.597 213.07C147.448 212.996 147.328 213.011 147.269 213.011C147.194 213.011 147.135 212.936 147.194 212.876ZM204.857 257.104C205.006 256.985 205.379 256.507 205.23 256.418C204.976 256.299 204.484 256.806 203.724 256.806C202.963 256.806 202.158 256.329 201.89 255.344C201.576 254.211 202.098 253.376 202.948 252.66C203.247 252.422 203.888 252.034 204.082 251.691C204.037 251.08 204.693 250.066 204.708 249.514C204.708 248.888 205.334 248.634 205.886 247.799C206.184 247.337 206.408 246.89 206.169 246.651C205.483 247.203 203.56 248.709 202.397 248.276C201.86 248.082 201.83 248.053 201.353 248.411C200.98 248.679 200.473 248.813 199.847 248.709C198.818 248.56 198.147 247.874 198.147 247.397C197.506 247.337 196.835 248.545 196.492 249.007C196.044 249.633 195.522 250.081 194.911 250.558C194.419 250.945 193.629 251.781 193.002 251.363C192.57 251.065 192.54 250.051 192.555 249.484C192.6 248.53 192.704 247.829 192.823 247.218C192.928 246.681 193.092 246.025 193.241 245.518C193.42 244.891 193.778 244.22 194.001 243.594C194.106 243.326 194.822 242.058 194.822 241.581C194.822 241.447 194.732 241.387 194.598 241.387C194.285 241.387 193.837 241.7 193.42 241.954C193.077 242.148 192.749 242.297 192.272 242.297C191.735 242.297 191.303 242.073 190.96 241.447C190.378 240.403 190.378 238.151 190.095 237.465C189.513 237.764 189.051 237.615 188.693 237.093C188.261 236.481 188.007 235.766 187.739 235.035C187.634 234.752 187.425 233.946 187.306 233.484C186.978 234.17 186.933 234.886 186.725 235.512C186.605 235.87 186.531 236.347 186.426 236.75C186.307 237.227 185.919 238.017 185.457 238.017C185.189 238.017 185.025 237.749 184.98 237.585C184.831 237.585 184.682 237.764 184.577 238.062C184.384 238.569 184.384 238.986 184.264 239.508C184.026 240.493 183.891 241.805 182.669 241.969C182.162 242.043 181.521 241.656 181.088 241.447C180.059 240.955 180.477 242.356 180.76 242.908C181.043 243.46 181.491 244.116 181.58 244.891C181.744 246.174 181.983 246.77 182.266 248.008C182.445 248.768 182.728 249.797 182.743 250.588C182.743 251.542 182.042 252.094 180.909 251.11C180.581 250.826 179.865 249.932 179.239 249.753C178.389 249.514 177.524 248.604 177.196 248.127C177.002 248.142 176.6 248.44 176.436 248.589C175.481 249.469 174.438 249.708 172.797 249.41C171.962 249.26 171.664 249.052 170.904 248.679C170.292 248.381 169.696 248.082 169.293 247.486C169.189 247.337 169.114 247.009 168.861 247.054C168.607 247.098 168.577 247.62 168.577 247.814C168.577 248.425 168.801 249.067 169.084 249.603C169.412 250.2 169.979 250.439 170.411 250.916C170.799 251.348 170.62 251.915 169.964 251.661C169.979 252.138 170.516 252.213 170.829 252.466C171.187 252.75 171.351 253.108 171.545 253.48C171.783 253.943 172.484 254.375 172.484 255.001C172.484 255.464 172.35 255.777 171.947 255.986C171.455 256.254 170.918 256.179 170.382 255.911C170.098 256.791 171.112 257.432 171.798 257.79C172.171 257.984 172.589 258.103 172.931 258.342C173.289 258.595 173.752 258.968 173.677 259.236C174.199 259.445 174.78 259.236 175.616 259.356C176.137 259.43 176.883 259.818 177.286 260.146C177.703 260.504 177.972 260.951 177.972 261.503C177.972 263.486 174.572 264.068 174.572 264.068C175.973 264.604 177.793 265.544 179.343 265.171C179.642 265.097 180.119 264.828 180.462 265.007C180.76 265.171 180.999 265.604 180.76 266.036C181.028 266.304 181.55 266.394 182.028 266.394C182.4 266.394 182.833 266.334 183.176 266.185C183.593 265.991 183.727 265.693 184.085 265.469C184.428 265.261 184.801 265.335 185.159 265.171C185.74 264.918 186.009 264.261 186.725 264.217L186.456 275.892H188.678C188.648 274.714 188.618 273.522 188.574 272.344C188.514 270.316 188.469 268.303 188.38 266.289C188.35 265.633 188.32 264.962 188.38 264.306C189.006 264.5 189.289 265.275 189.841 265.604C190.467 265.991 192.033 266.901 192.719 266.23C192.615 265.976 192.212 265.231 192.719 265.305C192.883 265.335 193.196 265.574 193.36 265.648C193.718 265.857 194.076 265.902 194.494 265.857C195.045 265.797 195.567 265.768 196.238 265.887C196.671 265.961 196.924 265.991 197.431 265.887C197.819 265.812 198.117 265.604 198.475 265.469C199.101 265.216 199.787 265.335 200.264 264.813C199.757 264.813 198.818 264.455 198.609 264.306C198.013 263.933 197.565 263.412 197.297 262.755C197.029 262.114 196.835 261.309 197.714 261.115C198.221 261.011 198.102 261.115 198.415 260.757C198.728 260.429 199.265 259.907 199.728 259.758C200.264 259.564 201.919 259.654 202.098 258.968C202.024 258.893 201.905 258.729 201.919 258.61C201.949 258.446 202.069 258.386 202.277 258.282C202.59 258.133 202.978 257.984 203.306 257.879C203.768 257.73 204.44 257.477 204.857 257.104Z" fill="#4F2683"/>
<path d="M295.48 194.755V146.371H319.864L319.096 153.923H304.888V166.467H314.936V174.403H304.888V193.987L295.48 194.755ZM337.91 173.315H334.262V193.987L324.918 194.755V146.755L336.31 146.371C341.814 146.371 346.123 147.481 349.238 149.699C352.352 151.875 353.91 155.225 353.91 159.747C353.91 162.734 353.312 165.187 352.118 167.107C350.966 169.027 349.28 170.627 347.062 171.907L351.35 182.339L355.701 192.707L346.486 195.203L337.91 173.315ZM337.462 166.403C339.68 166.403 341.408 165.955 342.646 165.059C343.926 164.121 344.566 162.371 344.566 159.811C344.566 155.843 342.603 153.859 338.678 153.859H334.262V166.403H337.462ZM374.033 195.267C368.614 195.267 364.796 192.942 362.577 188.291C360.401 183.598 359.313 177.539 359.313 170.115C359.313 162.222 360.486 156.142 362.833 151.875C365.18 147.609 368.956 145.475 374.161 145.475C384.102 145.475 389.073 153.603 389.073 169.859C389.073 177.155 387.942 183.214 385.681 188.035C383.462 192.857 379.58 195.267 374.033 195.267ZM374.161 187.715C376.422 187.715 377.916 186.243 378.641 183.299C379.366 180.313 379.729 175.811 379.729 169.795C379.729 164.974 379.366 160.985 378.641 157.827C377.958 154.627 376.465 153.027 374.161 153.027C371.857 153.027 370.364 154.606 369.681 157.763C368.998 160.921 368.657 164.91 368.657 169.731C368.657 175.79 368.998 180.313 369.681 183.299C370.406 186.243 371.9 187.715 374.161 187.715ZM428.358 194.755V158.723L419.398 194.371H413.638L403.974 158.595V193.987L396.23 194.371V146.819L409.99 146.435L417.926 176.131L425.542 147.523L438.086 146.755V193.987L428.358 194.755ZM301.624 258.371L291.832 210.755L302.072 210.371L307.128 239.107L312.568 210.755L320.248 210.371L325.304 239.427L331.384 210.755L340.024 210.371L329.72 258.371H320.44L315.384 229.059L310.2 258.371H301.624ZM345.043 258.371V210.371H369.427L368.659 217.859H354.451V229.315H364.563L364.499 237.379H354.451V250.883H369.939L369.171 258.371H345.043ZM388.652 259.267C384.769 259.267 381.484 258.201 378.796 256.067C376.151 253.891 374.209 250.99 372.972 247.363L380.908 243.651L381.676 244.931C382.913 247.065 384.087 248.729 385.196 249.923C386.348 251.118 387.777 251.715 389.484 251.715C390.593 251.715 391.575 251.182 392.428 250.115C393.324 249.049 393.772 247.875 393.772 246.595C393.772 245.401 393.473 244.313 392.876 243.331C392.279 242.35 391.511 241.561 390.572 240.963L382.188 235.971C379.756 234.606 377.815 232.878 376.364 230.787C374.913 228.697 374.188 226.35 374.188 223.747C374.188 220.974 374.828 218.499 376.108 216.323C377.431 214.147 379.201 212.462 381.42 211.267C383.681 210.073 386.22 209.475 389.036 209.475C392.321 209.475 395.116 210.286 397.42 211.907C399.724 213.529 401.431 215.939 402.54 219.139L394.604 222.723C394.433 222.382 394.071 221.614 393.516 220.419C392.961 219.225 392.279 218.371 391.468 217.859C390.7 217.305 389.74 217.027 388.588 217.027C387.18 217.027 386.092 217.475 385.324 218.371C384.599 219.267 384.236 220.419 384.236 221.827C384.236 222.851 384.513 223.79 385.068 224.643C385.665 225.454 386.369 226.094 387.18 226.563L394.924 231.107C400.641 234.35 403.649 238.617 403.948 243.907C403.948 246.937 403.265 249.625 401.9 251.971C400.577 254.275 398.743 256.067 396.396 257.347C394.092 258.627 391.511 259.267 388.652 259.267ZM416.313 258.755V217.859H406.521L407.225 210.371H435.385L434.617 217.859H425.657V257.987L416.313 258.755ZM440.605 258.371V210.371H464.989L464.221 217.859H450.013V229.315H460.125L460.061 237.379H450.013V250.883H465.501L464.733 258.371H440.605ZM484.535 237.315H480.887V257.987L471.543 258.755V210.755L482.935 210.371C488.439 210.371 492.748 211.481 495.863 213.699C498.977 215.875 500.535 219.225 500.535 223.747C500.535 226.734 499.937 229.187 498.743 231.107C497.591 233.027 495.905 234.627 493.687 235.907L497.975 246.339L502.326 256.707L493.111 259.203L484.535 237.315ZM484.087 230.403C486.305 230.403 488.033 229.955 489.271 229.059C490.551 228.121 491.191 226.371 491.191 223.811C491.191 219.843 489.228 217.859 485.303 217.859H480.887V230.403H484.087ZM530.13 258.755L516.114 228.739V257.987L507.73 258.371V210.755L517.522 210.371L529.938 238.915V211.139L537.874 210.371V257.987L530.13 258.755Z" fill="#7547AF"/>
</svg>
