<svg width="605" height="403" viewBox="0 0 605 403" fill="none" xmlns="http://www.w3.org/2000/svg">
<ellipse cx="302.5" cy="201.5" rx="297.5" ry="196.5" stroke="#DA6173" stroke-width="10" stroke-linecap="round" stroke-dasharray="10 15"/>
<ellipse cx="303" cy="201.5" rx="282" ry="184.5" fill="#FCA4B1"/>
<path d="M247.455 264.926C219.298 264.926 194.917 247.518 194.917 209.466V119H132V285H298V224.433C293.007 248.57 275.459 264.926 247.455 264.926Z" fill="#E51535"/>
<path d="M247.498 230.984C262.955 230.984 267.698 217.703 267.698 204.713V119H228.175V204.713C228.175 218.243 233.091 230.984 247.498 230.984Z" fill="#E51535"/>
<path d="M364.48 194.384V146H388.864L388.096 153.552H373.888V166.096H383.936V174.032H373.888V193.616L364.48 194.384ZM406.91 172.944H403.262V193.616L393.918 194.384V146.384L405.31 146C410.814 146 415.123 147.109 418.238 149.328C421.352 151.504 422.91 154.853 422.91 159.376C422.91 162.363 422.312 164.816 421.118 166.736C419.966 168.656 418.28 170.256 416.062 171.536L420.35 181.968L424.701 192.336L415.486 194.832L406.91 172.944ZM406.462 166.032C408.68 166.032 410.408 165.584 411.646 164.688C412.926 163.749 413.566 162 413.566 159.44C413.566 155.472 411.603 153.488 407.678 153.488H403.262V166.032H406.462ZM443.033 194.896C437.614 194.896 433.796 192.571 431.577 187.92C429.401 183.227 428.313 177.168 428.313 169.744C428.313 161.851 429.486 155.771 431.833 151.504C434.18 147.237 437.956 145.104 443.161 145.104C453.102 145.104 458.073 153.232 458.073 169.488C458.073 176.784 456.942 182.843 454.681 187.664C452.462 192.485 448.58 194.896 443.033 194.896ZM443.161 187.344C445.422 187.344 446.916 185.872 447.641 182.928C448.366 179.941 448.729 175.44 448.729 169.424C448.729 164.603 448.366 160.613 447.641 157.456C446.958 154.256 445.465 152.656 443.161 152.656C440.857 152.656 439.364 154.235 438.681 157.392C437.998 160.549 437.657 164.539 437.657 169.36C437.657 175.419 437.998 179.941 438.681 182.928C439.406 185.872 440.9 187.344 443.161 187.344ZM497.358 194.384V158.352L488.398 194H482.638L472.974 158.224V193.616L465.23 194V146.448L478.99 146.064L486.926 175.76L494.542 147.152L507.086 146.384V193.616L497.358 194.384ZM371.456 258.384V238.992L359.936 210H370.24L376.832 229.968L383.936 210H392L380.928 237.904V257.616L371.456 258.384ZM409.471 258.896C404.052 258.896 400.233 256.571 398.015 251.92C395.839 247.227 394.751 241.168 394.751 233.744C394.751 225.851 395.924 219.771 398.271 215.504C400.617 211.237 404.393 209.104 409.599 209.104C419.54 209.104 424.511 217.232 424.511 233.488C424.511 240.784 423.38 246.843 421.119 251.664C418.9 256.485 415.017 258.896 409.471 258.896ZM409.599 251.344C411.86 251.344 413.353 249.872 414.079 246.928C414.804 243.941 415.167 239.44 415.167 233.424C415.167 228.603 414.804 224.613 414.079 221.456C413.396 218.256 411.903 216.656 409.599 216.656C407.295 216.656 405.801 218.235 405.119 221.392C404.436 224.549 404.095 228.539 404.095 233.36C404.095 239.419 404.436 243.941 405.119 246.928C405.844 249.872 407.337 251.344 409.599 251.344ZM444.66 236.944H441.012V257.616L431.668 258.384V210.384L443.06 210C448.564 210 452.873 211.109 455.988 213.328C459.102 215.504 460.66 218.853 460.66 223.376C460.66 226.363 460.062 228.816 458.868 230.736C457.716 232.656 456.03 234.256 453.812 235.536L458.1 245.968L462.451 256.336L453.236 258.832L444.66 236.944ZM444.212 230.032C446.43 230.032 448.158 229.584 449.396 228.688C450.676 227.749 451.316 226 451.316 223.44C451.316 219.472 449.353 217.488 445.428 217.488H441.012V230.032H444.212ZM489.231 258.832L480.911 236.496L477.263 242.832V258H467.855V210.768L477.263 210V230.992L488.655 210H498.639L488.335 229.84L498.767 256.656L489.231 258.832Z" fill="#C93B51"/>
</svg>
