<svg width="467" height="226" viewBox="0 0 467 226" fill="none" xmlns="http://www.w3.org/2000/svg">
<g filter="url(#filter0_d_1023_318)">
<path d="M6.52002 75.2C6.52002 36.9819 37.5019 6 75.72 6H383.72C421.938 6 452.92 36.9819 452.92 75.2V142.4C452.92 180.618 421.938 211.6 383.72 211.6H75.7199C37.5018 211.6 6.52002 180.618 6.52002 142.4V75.2Z" fill="white" shape-rendering="crispEdges"/>
<path d="M75.7202 7.5H383.72C421.11 7.50006 451.42 37.8106 451.42 75.2002V142.4C451.42 179.79 421.11 210.1 383.72 210.1H75.7202C38.3307 210.1 8.02022 179.79 8.02002 142.4V75.2002C8.02002 37.8105 38.3305 7.5 75.7202 7.5Z" stroke="black" stroke-opacity="0.2" stroke-width="3" shape-rendering="crispEdges"/>
<rect x="27.72" y="27.2" width="404" height="163.2" rx="48" fill="#F9E6E9"/>
<rect x="27.72" y="27.2" width="404" height="163.2" rx="48" stroke="#E51535" stroke-width="6.4"/>
<path d="M161.427 135.183C149.622 135.183 139.399 127.885 139.399 111.93V74H113.02V143.6H182.62V118.206C180.526 128.326 173.169 135.183 161.427 135.183Z" fill="#E51535"/>
<path d="M161.445 120.952C167.926 120.952 169.915 115.384 169.915 109.938V74H153.343V109.938C153.343 115.61 155.404 120.952 161.445 120.952Z" fill="#E51535"/>
<path d="M225.071 129.8V114.536L212.745 87.752H220.29L226.857 102.325C227.356 103.477 227.778 104.61 228.124 105.723C228.47 106.837 228.7 107.701 228.815 108.315C228.969 107.701 229.199 106.837 229.506 105.723C229.852 104.61 230.274 103.477 230.774 102.325L237.167 87.752H244.655L232.329 114.536V129.8H225.071ZM262.085 130.376C259.397 130.376 257.055 129.877 255.058 128.878C253.1 127.842 251.583 126.402 250.508 124.558C249.471 122.677 248.953 120.469 248.953 117.934V99.6176C248.953 97.0832 249.471 94.8944 250.508 93.0512C251.583 91.1696 253.1 89.7296 255.058 88.7312C257.055 87.6944 259.397 87.176 262.085 87.176C264.812 87.176 267.154 87.6944 269.113 88.7312C271.071 89.7296 272.569 91.1696 273.605 93.0512C274.681 94.8944 275.218 97.064 275.218 99.56V117.934C275.218 120.469 274.681 122.677 273.605 124.558C272.569 126.402 271.071 127.842 269.113 128.878C267.154 129.877 264.812 130.376 262.085 130.376ZM262.085 124.04C264.044 124.04 265.522 123.522 266.521 122.485C267.519 121.41 268.018 119.893 268.018 117.934V99.6176C268.018 97.6208 267.519 96.104 266.521 95.0672C265.522 94.0304 264.044 93.512 262.085 93.512C260.127 93.512 258.649 94.0304 257.65 95.0672C256.652 96.104 256.153 97.6208 256.153 99.6176V117.934C256.153 119.893 256.652 121.41 257.65 122.485C258.687 123.522 260.165 124.04 262.085 124.04ZM282.569 129.8V87.752H295.874C298.677 87.752 301.097 88.2704 303.132 89.3072C305.205 90.344 306.818 91.8032 307.97 93.6848C309.122 95.528 309.698 97.7168 309.698 100.251C309.698 103.016 308.988 105.454 307.567 107.566C306.185 109.678 304.303 111.176 301.922 112.059L310.274 129.8H302.21L294.895 113.096H289.769V129.8H282.569ZM289.769 106.76H295.874C297.909 106.76 299.503 106.203 300.655 105.09C301.807 103.976 302.383 102.44 302.383 100.482C302.383 98.4848 301.807 96.9296 300.655 95.816C299.503 94.664 297.909 94.088 295.874 94.088H289.769V106.76ZM315.954 129.8V87.752H323.154V104.744H328.165L336.056 87.752H343.89L334.501 107.912L344.351 129.8H336.344L328.05 111.31H323.154V129.8H315.954Z" fill="#E51535"/>
</g>
<defs>
<filter id="filter0_d_1023_318" x="0.52002" y="0" width="466.4" height="225.6" filterUnits="userSpaceOnUse" color-interpolation-filters="sRGB">
<feFlood flood-opacity="0" result="BackgroundImageFix"/>
<feColorMatrix in="SourceAlpha" type="matrix" values="0 0 0 0 0 0 0 0 0 0 0 0 0 0 0 0 0 0 127 0" result="hardAlpha"/>
<feOffset dx="4" dy="4"/>
<feGaussianBlur stdDeviation="5"/>
<feComposite in2="hardAlpha" operator="out"/>
<feColorMatrix type="matrix" values="0 0 0 0 0 0 0 0 0 0 0 0 0 0 0 0 0 0 0.1 0"/>
<feBlend mode="normal" in2="BackgroundImageFix" result="effect1_dropShadow_1023_318"/>
<feBlend mode="normal" in="SourceGraphic" in2="effect1_dropShadow_1023_318" result="shape"/>
</filter>
</defs>
</svg>
