<svg width="554" height="1103" viewBox="0 0 554 1103" fill="none" xmlns="http://www.w3.org/2000/svg">
<path fill-rule="evenodd" clip-rule="evenodd" d="M-239.98 440.988C-238.748 439.087 -237.414 437.235 -235.974 435.438C-210.911 404.145 -161.93 399.034 -116.875 419.736C-112.66 408.31 -106.77 397.622 -99.2343 388.213C-59.8988 339.101 9.36861 343.452 64.0216 385.401C104.997 416.851 122.231 466.216 111.714 509.652C132.591 504.568 154.917 507.672 176.083 520.681C198.843 534.671 211.956 562.16 215.959 592.382C229.763 588.811 247.23 588.654 270.565 592.261C310.081 598.37 369.394 629.619 350.619 658.938C338.32 700 258.307 729.118 223.82 707C214.492 701.017 205.19 694.468 196.954 687.518C167.017 733.619 123.092 730.366 77.3702 702.263C65.8562 695.186 56.3538 686.01 49.0188 675.461C18.1655 696.809 -20.4097 701.489 -83.7096 675.706C-128.028 657.654 -205.473 614.492 -248.917 572.198C-270.03 573 -293.646 566.312 -314.102 550.612C-338.041 532.237 -353.582 517.251 -359.801 501.842C-390.761 487.311 -443.437 451.111 -421.903 423.727C-417.531 405.268 -377.639 403.128 -344.699 428.411C-341.304 431.017 -337.835 434.091 -334.419 437.491C-307.698 419.975 -268.794 422.644 -239.98 440.988Z" fill="url(#paint0_radial_1521_479)"/>
<path fill-rule="evenodd" clip-rule="evenodd" d="M-107.988 698.835C-43.9086 725.184 -5.02891 719.589 26.2687 696.659C32.8132 704.902 40.7624 712.12 50.0371 717.921C91.5412 743.88 140.136 749.64 171.755 714.615C174.387 716.852 177.195 718.954 180.171 720.898C213.996 742.99 308.374 708.507 327.418 678.234C346.461 647.961 286.851 622.637 249.134 611.271C229.335 605.304 212.997 601.635 199.298 601.391C194.644 572.603 181.718 546.887 160.155 533.4C143.672 523.091 125.209 518.637 106.883 519.441C107.046 515.046 106.967 510.631 106.651 506.216C104.084 470.365 85.8467 434.51 53.7265 409.33C-3.47325 364.489 -83.0383 370.484 -123.987 422.72C-127.925 427.743 -131.362 433.011 -134.308 438.47C-180.598 414.759 -232.43 419.582 -258.722 453.12C-260.178 454.978 -261.53 456.891 -262.779 458.854C-291.514 440.227 -330.482 437.787 -357.398 455.992C-360.794 452.525 -364.247 449.394 -367.63 446.742C-400.445 421.017 -440.441 423.525 -444.965 442.527C-466.759 470.835 -414.249 507.625 -383.334 522.317C-377.221 538.102 -361.762 553.382 -337.913 572.077C-317.534 588.053 -293.918 594.742 -272.752 593.754C-229.54 636.877 -152.263 680.629 -107.988 698.835Z" fill="url(#paint1_linear_1521_479)"/>
<defs>
<radialGradient id="paint0_radial_1521_479" cx="0" cy="0" r="1" gradientUnits="userSpaceOnUse" gradientTransform="translate(305.5 331.5) rotate(109.857) scale(541.707 477.736)">
<stop stop-color="#E0C4FD"/>
<stop offset="1" stop-color="#815BBD"/>
</radialGradient>
<linearGradient id="paint1_linear_1521_479" x1="-5.05255" y1="416.81" x2="-247.171" y2="760.602" gradientUnits="userSpaceOnUse">
<stop stop-color="#A172D1"/>
<stop offset="0.435" stop-color="#7F5AA5"/>
<stop offset="0.6" stop-color="#7047A3"/>
<stop offset="1" stop-color="#4A179C"/>
</linearGradient>
</defs>
</svg>
