<svg width="431" height="614" viewBox="0 0 431 614" fill="none" xmlns="http://www.w3.org/2000/svg">
<path fill-rule="evenodd" clip-rule="evenodd" d="M185.807 270.904C195.17 267.085 204.798 264.935 214.363 264.315C210.764 230.485 230.415 196.579 264.477 182.686C305.228 166.066 351.27 184.346 367.725 223.524C371.061 221.724 374.531 220.083 378.129 218.616C416.667 202.898 458.712 211.675 485.07 237.637C487.111 236.115 489.264 234.688 491.525 233.37C520.57 216.424 581.561 230.997 596.678 256.909C611.795 282.82 575.314 310.256 546.269 327.202C532.588 335.184 517.408 337.794 503.597 335.613C493.645 358.973 474.17 378.964 447.898 389.679C425.873 398.662 402.703 399.644 381.97 393.99C370.013 425.935 315.5 454.749 247.506 462.333C167.758 471.228 99.6648 447.551 95.415 409.449C93.384 391.24 106.301 373.033 129.046 358.013C127.983 321.083 149.582 285.679 185.807 270.904Z" fill="url(#paint0_radial_1165_417)"/>
<path fill-rule="evenodd" clip-rule="evenodd" d="M205.983 280.805C214.893 277.171 224.077 275.176 233.217 274.68C229.377 241.468 247.773 208.456 280.188 195.235C319.08 179.373 363.475 197.99 379.558 236.825C384.061 234.009 388.862 231.54 393.942 229.468C429.481 214.973 468.858 223.898 495.488 249.062C525.052 232.609 575.788 252.495 590.404 277.823C605.167 303.406 577.49 324.854 548.064 342.216C539.59 347.216 530.586 350.223 521.707 351.36C513.318 377.136 494.296 399.042 467.552 409.95C445.247 419.047 421.43 418.919 400.202 411.341C382.256 439.268 332.834 462.759 272.494 468.925C193.443 477.002 125.588 452.286 120.935 413.719C118.748 395.585 130.922 377.619 152.652 362.831C152.291 327.613 172.373 294.513 205.983 280.805Z" fill="url(#paint1_linear_1165_417)"/>
<defs>
<radialGradient id="paint0_radial_1165_417" cx="0" cy="0" r="1" gradientUnits="userSpaceOnUse" gradientTransform="translate(129 120.5) rotate(25.7424) scale(264.778 269.291)">
<stop stop-color="#E2C8E1"/>
<stop offset="0.995148" stop-color="#B08AE1"/>
</radialGradient>
<linearGradient id="paint1_linear_1165_417" x1="119.5" y1="156.5" x2="326.819" y2="512.103" gradientUnits="userSpaceOnUse">
<stop stop-color="#A277DB"/>
<stop offset="1" stop-color="#5F2F99"/>
</linearGradient>
</defs>
</svg>
