<svg width="184" height="188" viewBox="0 0 184 188" fill="none" xmlns="http://www.w3.org/2000/svg">
<g clip-path="url(#clip0_833_2277)">
<path d="M0 8.44791C0 3.9802 3.6218 0.358398 8.08952 0.358398H175.456C179.924 0.358398 183.546 3.9802 183.546 8.44792V179.137C183.546 183.605 179.924 187.226 175.456 187.226H8.08952C3.6218 187.226 0 183.605 0 179.137V8.44791Z" fill="#white"/>
</g>
<path d="M8.08952 0.77366H175.456C179.695 0.77366 183.131 4.20954 183.131 8.44792V179.137C183.131 183.375 179.695 186.811 175.456 186.811H8.08952C3.85115 186.811 0.415262 183.375 0.415262 179.137V8.44791C0.415262 4.20954 3.85114 0.77366 8.08952 0.77366Z"/>
<g clip-path="url(#clip1_833_2277)">
<g clip-path="url(#clip2_833_2277)">
<path d="M98.463 123.818C86.6859 125.113 76.5051 124.113 64.3629 123.566C63.794 123.54 63.4204 122.879 63.4713 122.262C63.7345 119.168 63.3185 109.19 62.0533 99.4896C60.4315 87.0865 57.6549 61.4286 73.7115 51.6852C89.7682 41.9417 114.07 43.1325 121.814 64.7575C126.925 79.0293 101.809 114.326 99.0829 118.107C98.9301 118.325 98.7093 123.792 98.463 123.826V123.818Z" fill="#492B7C"/>
<path d="M153.799 185.546V185.512C153.799 185.39 153.757 185.26 153.706 185.129C150.378 176.846 134.27 148.398 131.714 147.086C131.009 146.72 123.953 141.888 109.765 141.775H109.612C99.1084 141.697 87.1784 141.671 77.125 141.671H77.108C65.7469 141.671 66.5281 141.61 64.728 141.671C64.3035 141.679 49.6648 149.05 49.3676 149.345C44.0437 154.691 32.4704 181.435 30.4071 186.546C30.4071 186.572 30.3901 186.598 30.3901 186.624C30.3901 186.633 30.3901 186.642 30.3901 186.65C30.2967 187.737 35.8838 188.554 44.774 189.11H119.861L153.799 185.546Z" fill="#C1ACE5"/>
<path d="M107.328 141.696C107.379 141.809 107.43 141.931 107.472 142.053C96.4677 141.966 83.9603 141.94 73.4314 141.94V110.693L88.7663 112.101L105.018 115.604L107.328 141.696Z" fill="#C1ACE5"/>
<path d="M105.451 120.532L85.2593 117.064C84.3507 117.933 83.3657 119.176 83.578 120.906C84.7073 130.015 94.8881 139.019 107.09 139.019L105.451 120.532Z" fill="#976CDF"/>
<path d="M137.777 89.1551C137.777 92.7709 137.556 96.2389 137.14 99.533C136.826 102.149 136.376 104.652 135.815 107.043C132.173 122.775 123.809 133.335 114.095 135.647C93.9629 140.428 69.5935 122.488 68.617 90.85C68.3623 82.7145 69.2623 67.3128 77.21 60.0379C85.6076 52.3544 106.708 48.3736 124.072 55.9267C132.478 59.5859 137.785 76.1262 137.777 89.1551Z" fill="#C1ACE5"/>
<path d="M114.061 56.8137C114.061 56.8137 114.027 56.7963 114.019 56.7876C114.316 56.7876 114.622 56.7876 114.927 56.7963C114.647 56.7963 114.358 56.805 114.07 56.8137H114.061Z" fill="#4C4D5C"/>
<path d="M67.012 89.2591H57.5359C56.3132 89.2591 55.5575 87.9119 56.1604 86.8255C57.7906 83.879 57.9944 79.8025 58.2492 74.6484C59.5823 47.8083 90.4558 31.5635 114.469 49.0252C118.188 51.7283 113.339 61.5412 113.339 61.5412C85.3612 46.9218 99.1507 88.3552 67.012 89.2591Z" fill="#492B7C"/>
<path d="M100.943 83.4967C102.879 82.9926 104.916 83.0882 104.933 84.983C104.942 86.4693 102.547 86.4954 101.087 86.6866C99.601 86.8778 97.4188 87.1733 97.1556 86.0173C96.9009 84.8874 98.7519 84.0704 100.943 83.4967Z" fill="#4C4D5C"/>
<path d="M128.954 83.6007C127.12 83.2356 125.218 83.4356 125.303 85.2087C125.371 86.5993 127.613 86.495 128.98 86.5906C130.372 86.6863 132.427 86.8514 132.614 85.7562C132.792 84.6872 131.026 84.0266 128.954 83.6094V83.6007Z" fill="#4C4D5C"/>
<path d="M116.846 104.148C114.172 103.957 112.108 105.269 111.938 106.921C111.769 108.572 120.005 109.154 120.192 107.207C120.336 105.678 119.623 104.357 116.846 104.148Z" fill="#976CDF"/>
<path d="M154.169 188.163C146.12 189.528 126.75 190.447 105.182 190.848C105.259 188.913 105.957 181.001 105.957 179.324C105.957 169.476 111.213 150.235 107.354 141.512C122.891 141.628 130.31 141.976 135.319 145.686C141.725 150.423 151.853 177.513 155.481 186.023H155.49C155.89 186.95 155.26 187.985 154.169 188.172V188.163Z" fill="#589CF7"/>
<path d="M93.5125 189.11H40.5706C30.8738 188.562 26.3481 189.483 26.2547 188.388C26.2377 188.336 26.2462 188.284 26.2717 188.232C27.7067 183.79 35.1194 155.151 40.2989 149.11C45.1728 143.426 61.6625 140.975 73.4311 141.618C73.4311 141.627 73.4396 141.644 73.4481 141.67C73.9406 143.252 82.9411 172.361 92.8332 178.819L93.5125 189.11Z" fill="#589CF7"/>
<path d="M73.4228 141.636C60.7286 138.012 72.9558 165.295 76.4881 176.898C76.4881 176.898 87.5604 176.777 92.8419 178.871C94.608 179.567 73.4228 141.645 73.4228 141.645V141.636Z" fill="#90C4F2"/>
<path d="M107.328 141.453C114.97 138.255 116.982 153.439 120.336 172.5C120.336 172.5 110.605 176.246 106.122 178.619L107.319 141.453H107.328Z" fill="#90C4F2"/>
<path d="M137.768 86.5737C136.155 70.129 128.912 56.257 116.057 61.3764C109.722 63.897 107.26 51.7286 116.354 48.7126C129.09 44.4797 147.049 58.9775 137.768 86.5737Z" fill="#492B7C"/>
<path opacity="0.5" d="M137.14 99.5332C136.826 102.149 136.376 104.653 135.815 107.043C131.578 108.121 125.923 106.695 126.297 102.375C126.62 98.6206 133.098 98.073 137.14 99.5332Z" fill="#976CDF"/>
<path opacity="0.5" d="M103.889 102.21C104.033 97.2297 88.7832 95.6826 88.2567 101.81C87.6029 109.415 103.685 108.946 103.889 102.21Z" fill="#976CDF"/>
<path d="M137.692 103.088H120.616C120.09 103.088 119.64 102.671 119.572 102.115L118.103 89.9811C118.018 89.3118 118.51 88.7295 119.147 88.7295H139.169C139.806 88.7295 140.29 89.3205 140.214 89.9811L138.745 102.115C138.677 102.671 138.227 103.088 137.7 103.088H137.692Z" fill="#292A35"/>
<path d="M111.65 103.088H93.9882C93.4447 103.088 92.9777 102.671 92.9098 102.115L91.3899 89.9811C91.305 89.3118 91.8144 88.7295 92.4682 88.7295H113.17C113.823 88.7295 114.333 89.3205 114.248 89.9811L112.728 102.115C112.66 102.671 112.193 103.088 111.65 103.088Z" fill="#292A35"/>
<path d="M120.905 88.7295H72.4292L67.9629 91.2588H125.363L120.905 88.7295Z" fill="#292A35"/>
<path d="M71.2576 102.897C75.4861 102.897 78.9165 99.3764 78.9165 95.0306C78.9165 90.6847 75.4861 87.1646 71.2576 87.1646C67.029 87.1646 63.5986 90.6847 63.5986 95.0306C63.5986 99.3764 67.029 102.897 71.2576 102.897Z" fill="#C1ACE5"/>
<path d="M103.914 116.56C104.95 117.308 106.75 118.403 109.349 119.081C112.575 119.924 115.403 119.689 116.889 119.472" stroke="#4C4D5C" stroke-width="3.7975" stroke-miterlimit="10" stroke-linecap="round"/>
</g>
</g>
<defs>
<clipPath id="clip0_833_2277">
<path d="M0 8.44791C0 3.9802 3.6218 0.358398 8.08952 0.358398H175.456C179.924 0.358398 183.546 3.9802 183.546 8.44792V179.137C183.546 183.605 179.924 187.226 175.456 187.226H8.08952C3.6218 187.226 0 183.605 0 179.137V8.44791Z" fill="white"/>
</clipPath>
<clipPath id="clip1_833_2277">
<rect width="134.31" height="149.49" fill="white" transform="translate(25 37)"/>
</clipPath>
<clipPath id="clip2_833_2277">
<rect width="140.706" height="161.257" fill="white" transform="translate(18.6045 29.5908)"/>
</clipPath>
</defs>
</svg>
