<svg width="184" height="188" viewBox="0 0 184 188" fill="none" xmlns="http://www.w3.org/2000/svg">
<g clip-path="url(#clip0_833_2201)">
<path d="M0 8.44791C0 3.9802 3.6218 0.358398 8.08952 0.358398H175.456C179.924 0.358398 183.546 3.9802 183.546 8.44792V179.137C183.546 183.605 179.924 187.226 175.456 187.226H8.08952C3.6218 187.226 0 183.605 0 179.137V8.44791Z" fill="#white"/>
</g>
<path d="M8.08952 0.77366H175.456C179.695 0.77366 183.131 4.20954 183.131 8.44792V179.137C183.131 183.375 179.695 186.811 175.456 186.811H8.08952C3.85115 186.811 0.415262 183.375 0.415262 179.137V8.44791C0.415262 4.20954 3.85114 0.77366 8.08952 0.77366Z"/>
<g clip-path="url(#clip1_833_2201)">
<path d="M98.9437 121.765C88.3155 122.902 70.4273 127.315 66.0905 100.385C64.3453 89.5291 62.1289 66.9354 76.614 58.3715C91.6663 49.4766 113.027 50.8516 120.017 69.8636C124.624 82.4081 101.972 113.421 99.5109 116.74C99.3713 116.927 99.1793 121.739 98.9525 121.765H98.9437Z" fill="#492B7C"/>
<path d="M156.439 181.032V181.066L121.562 184.546H44.398C35.2619 184.003 29.5115 183.205 29.6162 182.144C29.6162 182.135 29.6075 182.127 29.6162 182.118C29.6162 182.093 29.6249 182.068 29.6336 182.042C31.7453 177.051 43.6388 150.935 49.11 145.716C49.4154 145.427 64.8167 139.876 73.8481 138.221V107.963L89.6072 109.347L106.309 112.759L108.682 138.238C108.682 138.238 108.7 138.281 108.708 138.306C109.485 138.315 133.01 143.152 133.734 143.509C136.361 144.791 152.923 172.57 156.343 180.667H156.352C156.396 180.786 156.431 180.913 156.439 181.032Z" fill="#C1ACE5"/>
<path d="M106.762 117.58L86.0121 114.194C85.0784 115.043 84.0662 116.256 84.2844 117.945C85.4449 126.84 95.9074 135.633 108.447 135.633L106.762 117.58Z" fill="#976CDF"/>
<path d="M133.315 68.4547C138.554 68.4547 142.8 64.3241 142.8 59.2288C142.8 54.1335 138.554 50.0029 133.315 50.0029C128.077 50.0029 123.83 54.1335 123.83 59.2288C123.83 64.3241 128.077 68.4547 133.315 68.4547Z" fill="#492B7C"/>
<path d="M130.095 82.2384C135.334 82.2384 139.581 78.1078 139.581 73.0125C139.581 67.9172 135.334 63.7866 130.095 63.7866C124.857 63.7866 120.61 67.9172 120.61 73.0125C120.61 78.1078 124.857 82.2384 130.095 82.2384Z" fill="#492B7C"/>
<path d="M135.942 98.152C135.697 100.537 135.287 102.888 134.729 105.163C131.535 118.098 123.228 128.656 109.773 130.294C86.675 133.103 65.4185 105.01 66.2649 89.8258C66.6838 82.3568 66.9281 68.2082 75.0956 61.5285C83.7256 54.4754 110.244 45.8012 123.83 59.2284C133.35 68.6325 137.399 84.0543 135.942 98.152Z" fill="#C1ACE5"/>
<path d="M111.954 56.2242C111.954 56.2242 111.919 56.2072 111.911 56.1987C112.216 56.1987 112.53 56.1987 112.844 56.2072C112.556 56.2072 112.26 56.2157 111.963 56.2242H111.954Z" fill="#4C4D5C"/>
<path d="M98.4814 82.2807C100.471 81.7884 102.565 81.8818 102.583 83.732C102.591 85.1834 100.131 85.2089 98.6297 85.3956C97.1027 85.5823 94.8601 85.8709 94.5896 84.742C94.3278 83.6387 96.2301 82.8408 98.4814 82.2807Z" fill="#2B1A07"/>
<path d="M127.26 82.3828C125.375 82.0263 123.42 82.2215 123.507 83.9529C123.577 85.3109 125.881 85.2091 127.286 85.3025C128.717 85.3958 130.829 85.5571 131.021 84.4877C131.204 83.4437 129.389 82.7986 127.26 82.3912V82.3828Z" fill="#2B1A07"/>
<path d="M114.825 102.439C112.076 102.252 109.956 103.533 109.781 105.146C109.607 106.759 118.071 107.327 118.263 105.426C118.411 103.932 117.678 102.642 114.825 102.439Z" fill="#976CDF"/>
<path d="M159.31 186.49H39.7208C29.7558 185.93 25.1048 186.872 25.0088 185.76C24.9914 185.709 25.0001 185.65 25.0263 185.599C32.0158 157.31 39.4416 145.801 39.4416 145.801C39.4416 145.801 48.0716 140.912 73.4903 138.179C73.4903 138.188 73.499 138.205 73.5077 138.23C74.0138 139.843 85.9684 157.972 100.68 156.614C110.087 155.74 111.352 147.218 109.38 138.179C130.122 139.291 137.923 144.146 137.923 144.146C137.923 144.146 153.289 162.708 159.31 186.49Z" fill="#EA6D54"/>
<path d="M103.141 92.3638C103.586 94.7064 102.931 97.0404 99.3102 97.2187C96.3521 97.363 95.4097 95.9371 95.5232 93.5691C95.6366 91.201 95.4708 89.6733 98.9699 88.7906C101.387 88.1795 102.582 89.4272 103.15 92.3638H103.141Z" fill="#2B1A07"/>
<path d="M129.973 92.3217C130.418 94.6643 129.764 96.9983 126.143 97.1765C123.185 97.3208 122.626 95.182 122.74 92.8055C122.853 90.429 123.324 89.0965 125.802 88.7485C128.272 88.4005 129.415 89.385 129.982 92.3217H129.973Z" fill="#2B1A07"/>
<path d="M118.132 163.701C117.984 164.576 116.308 162.581 116.308 162.581C117.992 152.82 113.42 142.899 108.691 138.239C108.333 137.882 108.656 137.594 108.656 137.331C109.397 137.11 110.261 136.94 111.806 137.237C113.717 137.611 114.467 137.815 114.895 138.527C118.324 145.716 120.095 152.328 118.132 163.701Z" fill="#4C4D5C"/>
<path d="M67.5303 139.079C67.7135 137.517 74.066 134.852 73.9089 136.414C73.9002 136.541 73.8828 136.677 73.874 136.821C73.874 136.991 73.8566 137.169 73.8653 137.347C73.8828 143.984 76.0119 153.584 84.0922 164.821C84.2579 165.059 84.6332 167.707 84.415 167.512C72.7135 157.471 68.2371 146.047 67.5303 139.087V139.079Z" fill="#4C4D5C"/>
<path d="M119.127 179.972L86.5703 185.59L84.8775 184.309L82.3469 163.463L95.3312 161.893L95.0432 159.118L104.31 158.065L105.689 159.025L105.506 160.45L116.64 159.585L118.394 160.943L119.127 179.972Z" fill="#29292B"/>
<path d="M120.872 181.72L86.5705 185.59L84.0923 164.813L97.2947 163.217L96.9107 160.017L105.689 159.024L106.073 162.233L118.394 160.943L120.872 181.72Z" fill="#41424F"/>
<path d="M120.46 178.258L86.1707 182.135L86.2603 182.885L120.549 179.008L120.46 178.258Z" fill="#29292B"/>
<path d="M118.717 163.622L84.428 167.499L84.5176 168.249L118.807 164.373L118.717 163.622Z" fill="#29292B"/>
<path d="M104.475 160.37L98.4773 161.048L98.6697 162.659L104.668 161.98L104.475 160.37Z" fill="#686A77"/>
<path d="M102.748 181.627C107.741 181.627 111.788 177.69 111.788 172.834C111.788 167.977 107.741 164.041 102.748 164.041C97.7554 164.041 93.708 167.977 93.708 172.834C93.708 177.69 97.7554 181.627 102.748 181.627Z" fill="#29292B"/>
<path d="M104.38 181.745C109.373 181.745 113.42 177.808 113.42 172.952C113.42 168.096 109.373 164.159 104.38 164.159C99.3872 164.159 95.3398 168.096 95.3398 172.952C95.3398 177.808 99.3872 181.745 104.38 181.745Z" fill="#686A77"/>
<path d="M104.38 179.971C108.366 179.971 111.597 176.829 111.597 172.952C111.597 169.076 108.366 165.933 104.38 165.933C100.395 165.933 97.1638 169.076 97.1638 172.952C97.1638 176.829 100.395 179.971 104.38 179.971Z" fill="#29292B"/>
<path d="M108.97 119.108C114.022 119.821 117.172 117.843 117.696 116.307C117.958 115.535 116.064 116.129 111.317 115.127C105.951 113.999 103.883 112.199 103.586 113.107C103.115 114.533 103.918 118.395 108.97 119.108Z" fill="#F1F3FC"/>
<path opacity="0.5" d="M92.0154 105.902C95.9333 106.309 99.511 105.8 99.0223 100.758C98.6558 96.9642 88.9962 95.6402 86.8758 99.5444C85.2004 102.642 87.9404 105.477 92.0067 105.902H92.0154Z" fill="#976CDF"/>
<path opacity="0.5" d="M135.942 98.1525C135.698 100.537 135.287 102.888 134.729 105.163C131.657 106.114 127.556 105.494 126.972 103.27C125.82 98.8315 128.952 97.8384 132.521 97.6093C133.813 97.5244 134.991 97.7281 135.942 98.1525Z" fill="#976CDF"/>
<path fill-rule="evenodd" clip-rule="evenodd" d="M112.844 37C114.789 37 116.54 37.8082 117.762 39.0981C119.678 37.8073 122.004 37.051 124.511 37.051C131.065 37.051 136.378 42.219 136.378 48.594C136.378 51.3236 135.404 53.8319 133.776 55.808C133.776 55.9343 133.774 56.0618 133.769 56.1904C133.169 70.8144 119.903 70.2759 106.67 69.7387C96.0412 69.3072 85.4341 68.8767 81.4306 76.3057C69.1182 99.1625 64.0833 96.2174 60.8635 83.1806C60.4523 81.5201 60.2253 79.9114 60.1669 78.355C59.0721 76.8441 58.4292 75.0012 58.4292 73.0122C58.4292 69.8904 60.0131 67.1284 62.442 65.445C61.8203 64.0936 61.4745 62.5957 61.4745 61.0194C61.4745 55.0287 66.4674 50.1724 72.6263 50.1724C73.2864 50.1724 73.9331 50.2282 74.5617 50.3351C74.5339 50.0922 74.5197 49.8454 74.5197 49.5953C74.5197 45.9343 77.5709 42.9666 81.3347 42.9666C83.2774 42.9666 85.0303 43.7572 86.2717 45.0258C88.1813 41.1518 92.251 38.4767 96.963 38.4767C100.697 38.4767 104.029 40.157 106.2 42.7828C106.568 39.5303 109.402 37 112.844 37Z" fill="#492B7C"/>
<path d="M70.8288 102.294C75.1744 102.294 78.6996 98.8565 78.6996 94.6128C78.6996 90.3691 75.1744 86.9316 70.8288 86.9316C66.4833 86.9316 62.958 90.3691 62.958 94.6128C62.958 98.8565 66.4833 102.294 70.8288 102.294Z" fill="#C1ACE5"/>
</g>
<defs>
<clipPath id="clip0_833_2201">
<path d="M0 8.44791C0 3.9802 3.6218 0.358398 8.08952 0.358398H175.456C179.924 0.358398 183.546 3.9802 183.546 8.44792V179.137C183.546 183.605 179.924 187.226 175.456 187.226H8.08952C3.6218 187.226 0 183.605 0 179.137V8.44791Z" fill="white"/>
</clipPath>
<clipPath id="clip1_833_2201">
<rect width="134.31" height="149.49" fill="white" transform="translate(25 37)"/>
</clipPath>
</defs>
</svg>
