<svg width="563" height="459" viewBox="0 0 563 459" fill="none" xmlns="http://www.w3.org/2000/svg">
<g style="mix-blend-mode:overlay">
<path fill-rule="evenodd" clip-rule="evenodd" d="M195.195 312.384C195.055 309.223 195.059 306.034 195.21 302.823C197.876 246.338 245.51 201.039 307.508 190.632C306.903 183.803 306.753 176.857 307.085 169.824C311.136 83.9889 385.528 17.7618 473.245 21.9019C543.963 25.2398 601.752 73.2959 619.37 136.775C667.83 147.946 704.963 170.411 702.697 218.429C698.533 306.641 594.474 412.624 475.26 443.547C421.03 457.614 334.213 472.635 273.296 464.219C252.838 477.389 225.968 484.757 196.895 483.385C190.751 483.095 184.815 482.872 179.109 482.657C150.46 481.58 127.624 480.721 113.411 472.731C73.7554 472.423 10.7821 455.112 3.74181 435.734C-4.90488 411.934 67.3362 398.034 94.2694 392.852L95.1047 392.691C99.2899 392.888 103.538 393.182 107.783 393.596C123.396 355.308 155.081 316.279 195.195 312.384Z" fill="url(#paint0_linear_213_144)"/>
</g>
<path fill-rule="evenodd" clip-rule="evenodd" d="M711.665 363.894C702.582 364.525 693.652 363.945 684.991 362.271C653.444 409.348 605.582 449.304 542.186 465.749C484.112 480.813 372.666 493.72 299.973 478.639C279.574 491.62 252.894 498.866 224.044 497.504C217.901 497.214 211.967 496.991 206.264 496.776L206.258 496.776C177.608 495.698 154.773 494.839 140.56 486.851C100.904 486.542 37.9305 469.232 30.8902 449.853C22.2436 426.053 94.4842 412.153 121.418 406.971L121.418 406.971L122.253 406.81C126.438 407.008 130.686 407.302 134.931 407.715C150.544 369.427 182.229 330.398 222.343 326.503C222.204 323.342 222.207 320.153 222.359 316.942C225.032 260.304 272.917 214.913 335.16 204.667C334.277 196.482 334.012 188.122 334.412 179.639C338.576 91.4264 413.06 23.2721 500.776 27.4122C556.099 30.0234 603.473 60.7684 629.873 105.251C647.429 90.1782 668.776 80.6822 692.238 79.0514C722.929 76.9182 753.584 94.7005 778.198 122.216C791.91 111.861 810.612 103.164 834.331 94.2678C879.517 77.3203 956.048 58.4929 958.269 105.982C960.491 153.471 891.17 263.907 842.375 266.242C838.081 266.447 833.844 266.351 829.687 265.972C822.782 328.347 770.74 359.788 711.665 363.894Z" fill="url(#paint1_linear_213_144)"/>
<g style="mix-blend-mode:screen">
<path fill-rule="evenodd" clip-rule="evenodd" d="M312.443 326.394C302.539 270.23 343.057 211.767 407.73 192.177C431.146 185.084 454.716 184 476.329 187.987C460.14 177.233 440.947 170.589 420.155 169.608C358.591 166.702 306.315 214.537 303.392 276.449C302.555 294.181 305.858 311.145 312.443 326.394Z" fill="url(#paint2_linear_213_144)"/>
</g>
<g style="mix-blend-mode:screen">
<path fill-rule="evenodd" clip-rule="evenodd" d="M546.759 292.538C536.157 243.015 567.783 190.098 619.263 172.749C639.712 165.858 660.309 165.584 678.683 170.759C665.728 161.268 650.318 155.437 633.593 154.647C584.369 152.324 542.383 194.55 539.815 248.963C539.085 264.439 541.622 279.234 546.759 292.538Z" fill="url(#paint3_linear_213_144)"/>
</g>
<g style="mix-blend-mode:screen">
<path fill-rule="evenodd" clip-rule="evenodd" d="M212.858 397.313C206.617 368.078 230.96 337.854 270.118 327.937C284.296 324.347 298.591 323.88 311.72 326.041C301.854 320.385 290.182 316.852 277.563 316.257C240.2 314.493 208.679 339.143 207.161 371.312C206.726 380.527 208.8 389.359 212.858 397.313Z" fill="url(#paint4_linear_213_144)"/>
</g>
<defs>
<linearGradient id="paint0_linear_213_144" x1="560.596" y1="19.0309" x2="125.678" y2="459.591" gradientUnits="userSpaceOnUse">
<stop stop-color="#FFECBA"/>
<stop offset="1" stop-color="#F5A7A7"/>
</linearGradient>
<linearGradient id="paint1_linear_213_144" x1="84.7684" y1="252.852" x2="398.743" y2="576.093" gradientUnits="userSpaceOnUse">
<stop stop-color="#FFD5BD"/>
<stop offset="0.2" stop-color="#D7B8D8"/>
<stop offset="0.5" stop-color="#9D8CCB"/>
<stop offset="1" stop-color="#8267CF"/>
</linearGradient>
<linearGradient id="paint2_linear_213_144" x1="440.186" y1="168.169" x2="296.761" y2="272.094" gradientUnits="userSpaceOnUse">
<stop stop-color="#FFECBA"/>
<stop offset="1" stop-color="#F5A7A7"/>
</linearGradient>
<linearGradient id="paint3_linear_213_144" x1="649.807" y1="153.321" x2="527.357" y2="234.112" gradientUnits="userSpaceOnUse">
<stop stop-color="#FFECBA"/>
<stop offset="1" stop-color="#F5A7A7"/>
</linearGradient>
<linearGradient id="paint4_linear_213_144" x1="289.71" y1="315.591" x2="213.018" y2="380.685" gradientUnits="userSpaceOnUse">
<stop stop-color="#FFECBA"/>
<stop offset="1" stop-color="#F5A7A7"/>
</linearGradient>
</defs>
</svg>
