<svg width="1144" height="1451" viewBox="0 0 1144 1451" fill="none" xmlns="http://www.w3.org/2000/svg">
<path d="M332.087 1032.47C79.3186 891.364 15.7706 1076.83 1.5 1210L1207.44 1450.94L1234.06 158.187C807.209 -325.74 1036.86 468.532 905.755 325.427C799.504 209.456 772.175 470.774 782.125 640.373C782.125 675.366 793.701 695.15 658.449 615.243C530.921 539.9 459.525 820.575 461.356 982.373C462.821 1111.81 392.555 1070.23 332.087 1032.47Z" fill="url(#paint0_radial_3002_672)"/>
<path d="M24.5 1136C67.7478 1020.6 149.169 975.936 339.928 1082.43C400.396 1120.18 470.662 1161.77 469.197 1032.33C467.366 870.53 538.762 589.855 666.29 665.198C801.542 745.104 789.966 722.758 789.966 690.327C789.966 516.483 807.346 259.411 913.596 375.382C1044.71 518.486 853.666 -290.254 1241.9 208.141L1207.44 1450.94L208.661 1437.11C86.9836 1435.43 -7.97807 1331.32 1.5 1210L24.5 1136Z" fill="url(#paint1_radial_3002_672)"/>
<defs>
<radialGradient id="paint0_radial_3002_672" cx="0" cy="0" r="1" gradientUnits="userSpaceOnUse" gradientTransform="translate(210.693 646.262) rotate(18.6616) scale(689.394 595.46)">
<stop stop-color="#FFEFD7"/>
<stop offset="1" stop-color="#F8CEF4"/>
</radialGradient>
<radialGradient id="paint1_radial_3002_672" cx="0" cy="0" r="1" gradientUnits="userSpaceOnUse" gradientTransform="translate(122.586 707.888) rotate(36.4036) scale(1007.18 1007.18)">
<stop stop-color="#FFCAAF"/>
<stop offset="0.264862" stop-color="#FEAAB9"/>
<stop offset="0.729804" stop-color="#A883D9"/>
<stop offset="1" stop-color="#8461BD"/>
</radialGradient>
</defs>
</svg>
