<svg width="539" height="293" viewBox="0 0 539 293" fill="none" xmlns="http://www.w3.org/2000/svg">
<g style="mix-blend-mode:overlay">
<path fill-rule="evenodd" clip-rule="evenodd" d="M82.6607 88.3851C94.3157 90.4352 105.194 94.3037 115.056 99.6476C132.566 63.8915 173.157 42.5452 215.556 50.0033C266.281 58.9259 300.505 105.719 292.398 154.783C296.824 155.078 301.284 155.614 305.763 156.402C353.733 164.84 389.916 199.729 399.855 241.869C402.825 241.633 405.846 241.562 408.907 241.663C448.238 242.971 499.58 295.406 498.413 330.493C497.247 365.58 444.014 370.032 404.682 368.724C386.156 368.108 369.493 361.237 357.169 350.473C332.757 367.414 301.009 375.085 268.308 369.333C240.921 364.515 217.375 351.076 200.363 332.588C168.655 356.954 96.5826 351.611 24.4008 316.716C-60.1431 275.846 -112.822 209.911 -93.261 169.448C-83.9134 150.112 -59.7609 140.091 -27.8618 139.358C-5.91508 102.087 37.5539 80.4507 82.6607 88.3851Z" fill="url(#paint0_radial_551_10136)"/>
</g>
<path fill-rule="evenodd" clip-rule="evenodd" d="M74.3414 91.6543C85.4322 93.6052 95.7729 97.3502 105.137 102.553C122.023 67.2593 160.814 46.0161 201.162 53.1134C249.574 61.629 281.955 107.73 273.694 156.223C279.909 156.237 286.203 156.783 292.526 157.895C336.764 165.677 370.213 199.05 380.917 240.569C420.455 242.689 458.327 293.996 457.028 328.194C455.715 362.735 414.934 366.74 374.967 365.607C363.457 365.281 352.664 362.651 343.159 358.245C318.791 378.554 286.299 388.405 253.009 382.549C225.245 377.665 201.73 362.701 185.421 341.969C150.245 358.454 86.6503 350.936 23.0328 319.452C-60.3116 278.206 -112.134 211.446 -92.7165 170.341C-83.5867 151.015 -60.3337 140.8 -29.5938 139.689C-8.0107 104.575 32.505 84.2952 74.3414 91.6543Z" fill="url(#paint1_linear_551_10136)"/>
<g style="mix-blend-mode:overlay">
<path fill-rule="evenodd" clip-rule="evenodd" d="M60.2412 188.504C77.7027 170.118 103.726 160.552 130.534 165.267C173.083 172.752 201.497 213.381 193.998 256.016C193.931 256.396 193.861 256.775 193.789 257.153C202.415 256.679 211.268 257.18 220.198 258.75C248.333 263.699 272.117 278.374 288.172 298.315C275.148 270.948 250.069 250.266 218.653 244.74C213.574 243.847 208.516 243.382 203.513 243.321C210.635 200.91 182.29 160.633 139.944 153.185C107.76 147.523 76.7063 162.447 60.2412 188.504Z" fill="url(#paint2_radial_551_10136)"/>
</g>
<defs>
<radialGradient id="paint0_radial_551_10136" cx="0" cy="0" r="1" gradientUnits="userSpaceOnUse" gradientTransform="translate(235.932 188.943) rotate(132.886) scale(509.216 517.895)">
<stop stop-color="#FFF3D5"/>
<stop offset="0.585267" stop-color="#FFBBBB"/>
</radialGradient>
<linearGradient id="paint1_linear_551_10136" x1="373.986" y1="78.7943" x2="52.2361" y2="391.92" gradientUnits="userSpaceOnUse">
<stop stop-color="#FFCFC5"/>
<stop offset="1" stop-color="#9C7BC6"/>
</linearGradient>
<radialGradient id="paint2_radial_551_10136" cx="0" cy="0" r="1" gradientUnits="userSpaceOnUse" gradientTransform="translate(224.979 271.033) rotate(118.536) scale(369.949 308.683)">
<stop stop-color="#FFF1CD"/>
<stop offset="0.585267" stop-color="#F2C2C2"/>
</radialGradient>
</defs>
</svg>
