<svg width="1069" height="901" viewBox="0 0 1069 901" fill="none" xmlns="http://www.w3.org/2000/svg">
<path d="M113.594 218.162C32.9537 -48.7333 -128.814 118.115 -199.621 234.903L-482.572 759.452L764.756 1265.91C760.381 1224.03 751.884 1138.61 752.893 1131.92C753.902 1125.23 738.589 954.511 730.806 869.986C731.501 844.278 714.466 747.366 640.763 565.387C567.06 383.408 465.768 512.484 418.582 594.862C364.314 671.279 323.965 494.608 318.5 453C315.639 431.219 308.173 370.822 284.525 311.916C254.966 238.283 213.352 401.967 213.785 513.696C214.131 603.079 181.052 472.328 160.5 388.5C160.5 388.5 149.5 337 113.594 218.162Z" fill="url(#paint0_linear_362_70)"/>
<path d="M122.156 320.734C43.1136 70.7469 -105.797 226.653 -172.382 336.477L-438.46 829.747L734.488 1306C730.374 1266.62 722.384 1186.3 723.333 1180.01C724.282 1173.72 709.882 1013.17 702.563 933.69C703.217 909.514 687.197 818.381 617.89 647.254C548.582 476.127 442.511 588.277 398.139 665.743C347.106 737.602 321.851 563.098 318.763 539.587C316.072 519.105 305.132 464.291 282.894 408.898C255.098 339.656 210.446 487.025 210.853 592.092C211.178 676.145 186.099 560.689 169.977 481.076C140.5 364 124.611 328.5 122.156 320.734Z" fill="url(#paint1_radial_362_70)"/>
<defs>
<linearGradient id="paint0_linear_362_70" x1="552" y1="284" x2="84.5001" y2="817" gradientUnits="userSpaceOnUse">
<stop stop-color="#FFF3ED"/>
<stop offset="1" stop-color="#FF9B9B"/>
</linearGradient>
<radialGradient id="paint1_radial_362_70" cx="0" cy="0" r="1" gradientUnits="userSpaceOnUse" gradientTransform="translate(478 535.5) rotate(91.2139) scale(613.638 674.51)">
<stop stop-color="#FFCAAF"/>
<stop offset="0.202401" stop-color="#FEAAAF"/>
<stop offset="0.805" stop-color="#B7A8CB"/>
</radialGradient>
</defs>
</svg>
