<svg width="746" height="897" viewBox="0 0 746 897" fill="none" xmlns="http://www.w3.org/2000/svg">
<path d="M122.166 143.063C41.5257 -123.832 -120.242 43.0166 -191.049 159.804L-474 684.354L234.5 839.5L619.656 894.843C689.799 904.922 751.497 853.066 745 782.5V782.5C745 782.5 723.038 672.267 649.335 490.288C575.632 308.309 474.34 437.386 427.154 519.764C372.886 596.18 332.537 419.509 327.072 377.902C324.211 356.12 316.745 295.724 293.097 236.817C263.538 163.184 221.924 326.868 222.357 438.597C222.703 527.981 189.624 397.23 169.072 313.401C169.072 313.401 158.072 261.902 122.166 143.063Z" fill="url(#paint0_linear_3002_675)"/>
<path d="M130.728 245.636C51.6856 -4.35139 -97.2247 151.555 -163.81 261.378L-429.888 754.649L234.5 839.5L620.031 890.662C677.373 898.272 724.39 845.774 710.528 789.615V789.615C710.509 789.538 710.497 789.484 710.478 789.408C709.908 787.011 697.664 737.244 626.462 572.156C557.154 401.028 451.083 513.178 406.711 590.644C355.678 662.504 330.423 488 327.335 464.489C324.644 444.006 313.704 389.193 291.466 333.799C263.67 264.557 219.018 411.927 219.425 516.994C219.75 601.047 194.671 485.59 178.549 405.978C149.072 288.901 133.183 253.402 130.728 245.636Z" fill="url(#paint1_radial_3002_675)"/>
<defs>
<linearGradient id="paint0_linear_3002_675" x1="243.335" y1="-5.79541" x2="-59.7857" y2="690.936" gradientUnits="userSpaceOnUse">
<stop stop-color="#FFF3ED"/>
<stop offset="1" stop-color="#FF9B9B"/>
</linearGradient>
<radialGradient id="paint1_radial_3002_675" cx="0" cy="0" r="1" gradientUnits="userSpaceOnUse" gradientTransform="translate(486.572 460.401) rotate(91.2139) scale(613.637 674.51)">
<stop stop-color="#FFCAAF"/>
<stop offset="0.202401" stop-color="#FEAAAF"/>
<stop offset="0.805" stop-color="#B7A8CB"/>
</radialGradient>
</defs>
</svg>
