<svg width="459" height="325" viewBox="0 0 459 325" fill="none" xmlns="http://www.w3.org/2000/svg">
<g style="mix-blend-mode:overlay">
<path fill-rule="evenodd" clip-rule="evenodd" d="M150.749 239.771C150.642 237.339 150.644 234.886 150.761 232.416C152.812 188.968 189.452 154.124 237.14 146.119C236.676 140.867 236.56 135.524 236.815 130.114C239.931 64.0901 297.154 13.1484 364.625 16.333C419.021 18.9004 463.472 55.865 477.024 104.693C514.299 113.286 542.863 130.566 541.119 167.501C537.917 235.354 457.875 316.875 366.175 340.662C324.462 351.482 257.682 363.036 210.824 356.562C195.088 366.692 174.42 372.36 152.058 371.305C147.331 371.082 142.765 370.91 138.376 370.745C116.339 369.916 98.7739 369.255 87.8413 363.11C57.3381 362.872 8.89798 349.557 3.48254 334.651C-3.16851 316.344 52.3997 305.652 73.1165 301.666L73.7586 301.543C76.9784 301.695 80.2469 301.921 83.5122 302.239C95.5217 272.788 119.894 242.768 150.749 239.771Z" fill="url(#paint0_linear_551_10162)"/>
</g>
<path fill-rule="evenodd" clip-rule="evenodd" d="M548.015 279.392C541.028 279.878 534.16 279.431 527.498 278.144C503.231 314.355 466.416 345.09 417.652 357.739C372.982 369.326 287.258 379.254 231.343 367.654C215.653 377.639 195.13 383.213 172.938 382.165C168.214 381.942 163.651 381.771 159.264 381.606L159.261 381.605L159.257 381.605C137.22 380.776 119.656 380.116 108.723 373.971C78.2195 373.733 29.7816 360.418 24.3663 345.512C17.7152 327.205 73.2835 316.513 94.0002 312.527L94.6424 312.404C97.8612 312.556 101.129 312.782 104.393 313.1C116.402 283.649 140.774 253.628 171.63 250.632C171.522 248.2 171.525 245.747 171.642 243.277C173.698 199.711 210.532 164.796 258.409 156.916C257.73 150.62 257.527 144.189 257.835 137.664C261.037 69.811 318.33 17.3869 385.801 20.5715C428.355 22.58 464.794 46.2286 485.102 80.4444C498.606 68.8505 515.025 61.5464 533.071 60.2921C556.679 58.6512 580.259 72.3294 599.192 93.4944C609.739 85.5295 624.125 78.8393 642.369 71.9966C677.127 58.9606 735.994 44.4786 737.703 81.0073C739.411 117.536 686.09 202.483 648.557 204.278C645.254 204.436 641.995 204.362 638.797 204.071C633.485 252.05 593.455 276.234 548.015 279.392Z" fill="url(#paint1_linear_551_10162)"/>
<g style="mix-blend-mode:screen">
<path fill-rule="evenodd" clip-rule="evenodd" d="M240.936 250.549C233.316 207.348 264.483 162.376 314.23 147.308C332.241 141.852 350.37 141.018 366.994 144.084C354.542 135.813 339.779 130.703 323.787 129.948C276.432 127.713 236.221 164.507 233.973 212.13C233.329 225.77 235.87 238.819 240.936 250.549Z" fill="url(#paint2_linear_551_10162)"/>
</g>
<g style="mix-blend-mode:screen">
<path fill-rule="evenodd" clip-rule="evenodd" d="M421.17 224.508C413.013 186.415 437.34 145.71 476.939 132.365C492.668 127.064 508.512 126.854 522.645 130.834C512.68 123.533 500.827 119.048 487.961 118.44C450.098 116.653 417.803 149.134 415.827 190.988C415.266 202.893 417.217 214.274 421.17 224.508Z" fill="url(#paint3_linear_551_10162)"/>
</g>
<g style="mix-blend-mode:screen">
<path fill-rule="evenodd" clip-rule="evenodd" d="M164.336 305.096C159.537 282.609 178.261 259.363 208.38 251.735C219.286 248.973 230.283 248.614 240.382 250.277C232.793 245.926 223.815 243.209 214.108 242.75C185.368 241.394 161.123 260.354 159.955 285.099C159.62 292.186 161.215 298.978 164.336 305.096Z" fill="url(#paint4_linear_551_10162)"/>
</g>
<defs>
<linearGradient id="paint0_linear_551_10162" x1="431.815" y1="14.1244" x2="97.2774" y2="353.004" gradientUnits="userSpaceOnUse">
<stop stop-color="#FFF9F1"/>
<stop offset="1" stop-color="#FFD2D2"/>
</linearGradient>
<linearGradient id="paint1_linear_551_10162" x1="65.8092" y1="193.98" x2="307.318" y2="442.615" gradientUnits="userSpaceOnUse">
<stop stop-color="#FFE2D2"/>
<stop offset="0.2" stop-color="#E4C5E4"/>
<stop offset="0.5" stop-color="#B1A2DA"/>
<stop offset="1" stop-color="#9D86DF"/>
</linearGradient>
<linearGradient id="paint2_linear_551_10162" x1="339.193" y1="128.841" x2="228.87" y2="208.778" gradientUnits="userSpaceOnUse">
<stop stop-color="#FFF9F1"/>
<stop offset="1" stop-color="#FFD2D2"/>
</linearGradient>
<linearGradient id="paint3_linear_551_10162" x1="500.434" y1="117.42" x2="406.244" y2="179.565" gradientUnits="userSpaceOnUse">
<stop stop-color="#FFF9F1"/>
<stop offset="1" stop-color="#FFD2D2"/>
</linearGradient>
<linearGradient id="paint4_linear_551_10162" x1="223.452" y1="242.238" x2="164.463" y2="292.309" gradientUnits="userSpaceOnUse">
<stop stop-color="#FFF9F1"/>
<stop offset="1" stop-color="#FFD2D2"/>
</linearGradient>
</defs>
</svg>
