<svg width="759" height="1068" viewBox="0 0 759 1068" fill="none" xmlns="http://www.w3.org/2000/svg">
<path d="M130.166 143.063C49.5257 -123.832 -112.242 43.0166 -183.049 159.804L-466 684.354L747.378 963.704L751.997 940.795C755.662 922.617 758.173 904.243 758.187 885.7C758.204 863.615 757.259 828.755 753 782.5C753 782.5 731.038 672.267 657.335 490.288C583.632 308.309 482.34 437.386 435.154 519.764C380.886 596.18 340.537 419.509 335.072 377.902C332.211 356.12 324.745 295.724 301.097 236.817C271.538 163.184 229.924 326.868 230.357 438.597C230.703 527.981 197.624 397.23 177.072 313.401C177.072 313.401 166.072 261.902 130.166 143.063Z" fill="url(#paint0_linear_3002_675)"/>
<path d="M138.728 245.636C59.6856 -4.35139 -89.2247 151.555 -155.81 261.378L-421.888 754.649C345.704 1113.95 736.24 1135.58 747.378 963.704V906.5L740.008 842.997C734.803 798.15 717.395 754.466 697.206 714.084C681.944 683.558 661.278 638.367 634.462 572.156C565.154 401.028 459.083 513.178 414.711 590.644C363.678 662.504 338.423 488 335.335 464.489C332.644 444.006 321.704 389.193 299.466 333.799C271.67 264.557 227.018 411.927 227.425 516.994C227.75 601.047 202.671 485.59 186.549 405.978C157.072 288.901 141.183 253.402 138.728 245.636Z" fill="url(#paint1_radial_3002_675)"/>
<defs>
<linearGradient id="paint0_linear_3002_675" x1="251.335" y1="-6.77528" x2="-140.105" y2="762.837" gradientUnits="userSpaceOnUse">
<stop stop-color="#FFF3ED"/>
<stop offset="1" stop-color="#FF9B9B"/>
</linearGradient>
<radialGradient id="paint1_radial_3002_675" cx="0" cy="0" r="1" gradientUnits="userSpaceOnUse" gradientTransform="translate(494.572 460.401) rotate(91.2139) scale(613.637 674.51)">
<stop stop-color="#FFCAAF"/>
<stop offset="0.202401" stop-color="#FEAAAF"/>
<stop offset="0.805" stop-color="#B7A8CB"/>
</radialGradient>
</defs>
</svg>
