<svg width="613" height="398" viewBox="0 0 613 398" fill="none" xmlns="http://www.w3.org/2000/svg">
<g style="mix-blend-mode:overlay">
<path fill-rule="evenodd" clip-rule="evenodd" d="M15.8547 115.778C31.1263 118.464 45.3805 123.533 58.3023 130.535C81.247 83.6831 134.434 55.7125 189.99 65.4849C256.457 77.1766 301.302 138.491 290.679 202.781C296.478 203.168 302.323 203.87 308.191 204.902C371.047 215.959 418.46 261.675 431.482 316.893C435.374 316.584 439.333 316.489 443.344 316.623C494.881 318.336 562.155 387.043 560.626 433.018C559.098 478.994 489.345 484.828 437.808 483.114C413.533 482.307 391.698 473.303 375.55 459.199C343.562 481.397 301.962 491.449 259.113 483.912C223.227 477.599 192.375 459.99 170.083 435.765C128.534 467.691 34.0969 460.69 -60.484 414.967C-171.264 361.413 -240.291 275.017 -214.66 221.997C-202.411 196.66 -170.764 183.53 -128.966 182.569C-100.209 133.732 -43.25 105.381 15.8547 115.778Z" fill="url(#paint0_radial_213_118)"/>
</g>
<path fill-rule="evenodd" clip-rule="evenodd" d="M4.95455 120.061C19.4872 122.618 33.037 127.525 45.3064 134.342C67.4338 88.096 118.263 60.2605 171.132 69.5602C234.566 80.7185 276.997 141.126 266.172 204.667C274.316 204.686 282.563 205.401 290.848 206.859C348.815 217.055 392.643 260.784 406.669 315.189C458.477 317.966 508.102 385.196 506.399 430.005C504.679 475.267 451.243 480.514 398.873 479.03C383.792 478.603 369.648 475.156 357.194 469.383C325.263 495.994 282.688 508.902 239.068 501.229C202.688 494.83 171.876 475.222 150.506 448.056C104.413 469.657 21.0831 459.806 -62.2769 418.552C-171.485 364.505 -239.39 277.029 -213.946 223.167C-201.983 197.843 -171.514 184.459 -131.235 183.003C-102.954 136.992 -49.8651 110.419 4.95455 120.061Z" fill="url(#paint1_linear_213_118)"/>
<g style="mix-blend-mode:overlay">
<path fill-rule="evenodd" clip-rule="evenodd" d="M-13.5299 246.983C9.35053 222.881 43.4566 210.339 78.5913 216.519C134.345 226.326 171.577 279.565 161.75 335.43C161.663 335.928 161.572 336.424 161.477 336.919C172.779 336.299 184.378 336.954 196.08 339.012C232.941 345.496 264.103 364.721 285.142 390.847C268.074 354.99 235.214 327.894 194.052 320.654C187.398 319.483 180.77 318.875 174.214 318.794C183.546 263.222 146.405 210.446 90.9176 200.686C48.7385 193.266 8.04201 212.829 -13.5299 246.983Z" fill="url(#paint2_radial_213_118)"/>
</g>
<defs>
<radialGradient id="paint0_radial_213_118" cx="0" cy="0" r="1" gradientUnits="userSpaceOnUse" gradientTransform="translate(435 139.5) rotate(140.682) scale(564.215 573.832)">
<stop stop-color="#FFECBA"/>
<stop offset="0.995148" stop-color="#F5A7A7"/>
</radialGradient>
<linearGradient id="paint1_linear_213_118" x1="397.588" y1="103.211" x2="-24.0104" y2="513.509" gradientUnits="userSpaceOnUse">
<stop stop-color="#FFBDAE"/>
<stop offset="1" stop-color="#8562B1"/>
</linearGradient>
<radialGradient id="paint2_radial_213_118" cx="0" cy="0" r="1" gradientUnits="userSpaceOnUse" gradientTransform="translate(202.336 355.1) rotate(118.537) scale(484.742 404.479)">
<stop stop-color="#FFECBA"/>
<stop offset="0.585267" stop-color="#F5A7A7"/>
</radialGradient>
</defs>
</svg>
