<svg width="1100" height="435" viewBox="0 0 1100 435" fill="none" xmlns="http://www.w3.org/2000/svg">
<path d="M309.569 106.218C242.873 -23.8622 109.077 57.4569 50.5135 114.377L-183.51 370.034L848.134 616.87C844.516 596.462 837.488 554.831 838.322 551.57C839.157 548.309 826.492 465.102 820.055 423.906C820.63 411.376 806.54 364.143 745.582 275.45C684.624 186.756 600.846 249.666 561.819 289.815C516.935 327.059 483.564 240.953 479.043 220.674C476.677 210.058 470.502 180.622 450.943 151.912C426.495 116.025 392.077 195.801 392.435 250.256C392.721 293.82 365.363 230.094 348.364 189.238C348.364 189.238 339.266 164.138 309.569 106.218Z" fill="url(#paint0_linear_551_10130)"/>
<path d="M316.648 156.21C251.274 34.3708 128.112 110.357 73.0406 163.883L-147.028 404.295L823.098 636.412C819.696 617.221 813.087 578.072 813.872 575.006C814.656 571.94 802.747 493.694 796.694 454.954C797.234 443.172 783.985 398.755 726.661 315.35C669.338 231.946 581.608 286.606 544.909 324.362C502.701 359.385 481.813 274.334 479.258 262.875C477.033 252.893 467.985 226.178 449.592 199.18C426.602 165.432 389.671 237.258 390.008 288.465C390.277 329.431 369.534 273.16 356.2 234.358C331.82 177.297 318.679 159.995 316.648 156.21Z" fill="url(#paint1_radial_551_10130)"/>
<defs>
<linearGradient id="paint0_linear_551_10130" x1="575.564" y1="184.15" x2="372.348" y2="481.968" gradientUnits="userSpaceOnUse">
<stop stop-color="#FFF5F0"/>
<stop offset="1" stop-color="#FFD7D7"/>
</linearGradient>
<radialGradient id="paint1_radial_551_10130" cx="0" cy="0" r="1" gradientUnits="userSpaceOnUse" gradientTransform="translate(596.283 277.121) rotate(135.903) scale(361.085 446.788)">
<stop stop-color="#FFD2BB"/>
<stop offset="0.23" stop-color="#FBC2C2"/>
<stop offset="0.805" stop-color="#CEC3DC"/>
</radialGradient>
</defs>
</svg>
