<svg width="184" height="188" viewBox="0 0 184 188" fill="none" xmlns="http://www.w3.org/2000/svg">
<g clip-path="url(#clip0_833_2163)">
<path d="M0 8.44791C0 3.9802 3.6218 0.358398 8.08952 0.358398H175.456C179.924 0.358398 183.546 3.9802 183.546 8.44792V179.137C183.546 183.605 179.924 187.226 175.456 187.226H8.08952C3.6218 187.226 0 183.605 0 179.137V8.44791Z" fill="#ECE7F7"/>
</g>
<path d="M8.08952 0.77366H175.456C179.695 0.77366 183.131 4.20954 183.131 8.44792V179.137C183.131 183.375 179.695 186.811 175.456 186.811H8.08952C3.85115 186.811 0.415262 183.375 0.415262 179.137V8.44791C0.415262 4.20954 3.85114 0.77366 8.08952 0.77366Z" stroke="#E3DBF2" stroke-width="0.830524"/>
<g clip-path="url(#clip1_833_2163)">
<g clip-path="url(#clip2_833_2163)">
<path d="M133.983 169.091C123.657 176.252 49.9374 183.396 39.7298 161.111C28.9238 137.528 60.3536 130.606 55.984 106.516C51.1884 80.0855 56.2741 62.4623 68.5215 55.461C86.4166 45.2305 110.404 46.5205 120.403 67.9601C127.002 82.1049 125.298 116.898 137.119 127.858C155.785 145.178 145.006 161.458 133.992 169.091H133.983Z" fill="#492B7C"/>
<path d="M155.785 186.839C155.785 186.839 26.6755 189.828 26.7843 188.716C26.7843 188.707 26.7752 188.698 26.7843 188.689C26.7843 188.662 26.7934 188.636 26.8024 188.609C28.9963 183.378 40.8901 155.498 47.0364 150.525C52.2943 146.272 72.7368 142.945 72.7368 142.945C72.7368 142.945 76.9432 138.23 71.3226 110.839C70.4433 106.542 89.1089 112.405 89.1089 112.405L106.46 115.99L108.926 142.696C108.926 142.696 108.944 142.741 108.953 142.767C109.76 142.767 126.196 144.066 134.953 148.212C137.7 149.511 152.113 177.916 155.676 186.412C155.731 186.545 155.776 186.839 155.776 186.839H155.785Z" fill="#C1ACE5"/>
<path d="M106.932 121.043L85.3741 117.494C84.4041 118.383 80.3247 119.237 80.5513 121.017C81.757 130.34 95.4911 138.239 108.518 138.23L106.932 121.043Z" fill="#976CDF"/>
<path d="M116.115 134.61C94.5936 138.204 61.7134 122.92 69.3736 94.3193C71.5312 86.2594 74.1239 70.5845 82.8901 63.1384C92.155 55.2743 106.034 52.8723 126.332 56.8756C144.888 60.5319 161.496 127.048 116.124 134.61H116.115Z" fill="#C1ACE5"/>
<path d="M116.115 55.8171C116.115 55.8171 116.079 55.7991 116.07 55.79C116.387 55.79 116.713 55.79 117.04 55.7991C116.74 55.7991 116.432 55.8081 116.124 55.8171H116.115Z" fill="#4C4D5C"/>
<path d="M69.3739 94.3194C65.0225 94.6575 54.6245 93.6255 55.0506 80.1657C56.0387 48.6201 99.1991 34.5554 109.108 52.8902C117.158 67.7734 94.3763 92.3979 69.383 94.3194H69.3739Z" fill="#492B7C"/>
<path d="M98.4919 88.065C100.387 87.0953 102.535 86.7128 102.997 88.5988C103.36 90.0755 100.876 90.6805 99.3984 91.2142C97.9026 91.7569 95.6998 92.5753 95.1558 91.4811C94.621 90.4136 96.3525 89.1592 98.4919 88.0739V88.065Z" fill="#3A352F"/>
<path d="M131.726 85.6632C129.894 84.8714 127.873 84.6313 127.555 86.4194C127.302 87.825 129.668 88.2431 131.073 88.6523C132.496 89.0704 134.599 89.7109 135.053 88.6523C135.488 87.6292 133.802 86.5528 131.735 85.6543L131.726 85.6632Z" fill="#3A352F"/>
<path d="M119.061 104.941C116.206 104.959 113.078 106.569 113.033 108.268C112.987 109.967 122.995 109.487 123.032 107.485C123.068 105.911 122.026 104.923 119.061 104.941Z" fill="#976CDF"/>
<path d="M98.3286 195.254C83.7877 195.308 25.8779 197.861 25.8779 191.847C25.8779 175.772 32.7495 160.622 38.2794 154.439C43.4829 148.621 60.1723 141.949 72.737 142.607C72.737 142.616 72.737 142.643 72.7551 142.661C106.904 181.901 106.904 181.225 109.135 142.34C125.67 142.456 132.369 145.223 137.7 148.923C144.517 153.638 158.45 173.966 158.432 187.159C158.432 192.132 113.277 195.201 98.3286 195.254Z" fill="#F3D057"/>
<path d="M145.251 72.6039C139.83 88.5724 88.4563 70.202 102.363 52.4898C115.317 36.0053 152.839 50.2302 145.251 72.6039Z" fill="#492B7C"/>
<path d="M105.59 124.388C107.503 125.9 111.328 124.655 113.232 121.568L105.771 117.583C104.022 120.438 103.614 122.822 105.59 124.397V124.388Z" fill="#FF80AA"/>
<path d="M69.41 107.494C73.9155 107.147 77.2788 103.277 76.9252 98.8468C76.5717 94.4166 72.6373 91.1072 68.1318 91.4542C63.6263 91.8011 60.263 95.6709 60.6166 100.101C60.9701 104.531 64.9045 107.841 69.41 107.494Z" fill="#C1ACE5"/>
<path d="M105.128 96.9792C105.59 99.4345 104.91 101.881 101.148 102.068C98.0747 102.219 97.0956 100.724 97.2134 98.2424C97.3313 95.7604 97.1591 94.1591 100.794 93.2339C103.305 92.5934 104.547 93.9011 105.137 96.9792H105.128Z" fill="#3A352F"/>
<path d="M133.856 94.577C134.318 97.0324 133.638 99.4788 129.876 99.6656C126.803 99.8168 126.223 97.575 126.341 95.0841C126.458 92.5932 126.948 91.1965 129.523 90.8318C132.088 90.467 133.276 91.499 133.865 94.577H133.856Z" fill="#3A352F"/>
<path d="M101.81 118.722C102.426 118.57 103.523 118.214 104.584 117.334C106.025 116.142 106.56 114.683 106.75 114.069" stroke="#4C4D5C" stroke-width="3.7975" stroke-miterlimit="10" stroke-linecap="round"/>
<path d="M105.599 116.657C106.533 117.689 109.497 120.687 114.347 121.488C117.221 121.959 119.596 121.479 120.965 121.079" stroke="#4C4D5C" stroke-width="3.7975" stroke-miterlimit="10" stroke-linecap="round"/>
<path d="M95.3188 163.531C97.4492 164.545 103.315 166.013 105.073 161.761C107.167 156.699 135.741 182.836 137.101 192.692C137.99 199.142 70.4162 204.24 74.7494 195.859C86.8971 172.374 91.7743 161.841 95.3098 163.531H95.3188Z" fill="#F1F3FC"/>
<path opacity="0.5" d="M92.5719 110.803C96.6423 111.23 100.359 110.697 99.8515 105.412C99.4707 101.436 89.4353 100.048 87.2324 104.14C85.4919 107.387 88.3384 110.359 92.5629 110.803H92.5719Z" fill="#976CDF"/>
<path opacity="0.5" d="M136.177 100.573C132.469 100.813 129.214 101.854 130.411 106.507C131.317 110.012 140.501 109.718 141.888 105.724C142.994 102.557 140.02 100.333 136.167 100.573H136.177Z" fill="#976CDF"/>
</g>
</g>
<defs>
<clipPath id="clip0_833_2163">
<path d="M0 8.44791C0 3.9802 3.6218 0.358398 8.08952 0.358398H175.456C179.924 0.358398 183.546 3.9802 183.546 8.44792V179.137C183.546 183.605 179.924 187.226 175.456 187.226H8.08952C3.6218 187.226 0 183.605 0 179.137V8.44791Z" fill="white"/>
</clipPath>
<clipPath id="clip1_833_2163">
<rect width="134.31" height="149.49" fill="white" transform="translate(25 37)"/>
</clipPath>
<clipPath id="clip2_833_2163">
<rect width="132.554" height="155.504" fill="white" transform="translate(25.8779 44.7324)"/>
</clipPath>
</defs>
</svg>
