<svg width="184" height="188" viewBox="0 0 184 188" fill="none" xmlns="http://www.w3.org/2000/svg">
<g clip-path="url(#clip0_480_2359)">
<path d="M0.101562 8.71403C0.101562 4.24631 3.72336 0.624512 8.19108 0.624512H175.558C180.026 0.624512 183.647 4.24631 183.647 8.71403V179.403C183.647 183.871 180.026 187.492 175.558 187.492H8.19108C3.72337 187.492 0.101562 183.871 0.101562 179.403V8.71403Z" fill="#white"/>
<g clip-path="url(#clip1_480_2359)">
<g clip-path="url(#clip2_480_2359)">
<mask id="mask0_480_2359" style="mask-type:luminance" maskUnits="userSpaceOnUse" x="24" y="37" width="136" height="152">
<path d="M159.027 37.998H24.7219V188.269H159.027V37.998Z" fill="white"/>
</mask>
<g mask="url(#mask0_480_2359)">
<path d="M136.428 171.38C136.677 172.056 114.461 169.786 113.738 169.886C98.5727 171.914 32.7615 188.87 31.0257 185.372C28.966 181.231 37.5703 141.259 38.8327 139.89C40.4107 138.179 95.5662 137.502 116.695 140.416C119.353 140.783 134.178 165.261 136.437 171.38H136.428Z" fill="#205134"/>
<path d="M151.054 188.686C151.428 189.663 150.838 190.732 149.816 190.924C128.538 194.897 22.7952 195.231 24.7386 190.189C26.8482 184.746 42.4455 151.962 47.9021 146.268C48.2011 145.959 48.5997 145.784 49.0316 145.767C54.7374 145.575 130.374 145.5 132.234 146.494C134.85 147.888 147.632 179.854 151.037 188.686H151.054Z" fill="#3C8258"/>
<path d="M99.7521 168.358C82.9505 170.211 75.0355 145.926 75.0355 145.926L80.1101 118.092L90.0349 119.987L110.707 123.944L108.755 140.883L108.199 145.725C114.436 158.548 108.074 167.439 99.7604 168.358H99.7521Z" fill="#C1ACE5"/>
<path d="M136.038 193.712L121.221 195.615C121.221 195.615 119.029 158.507 111.978 145.609C110.225 142.403 125.656 142.52 127.459 145.701C135.382 159.709 136.03 193.712 136.03 193.712H136.038Z" fill="#205134"/>
<path d="M76.0654 197.736L60.0362 197.953C60.0362 197.953 60.659 162.322 55.7589 146.886C55.626 146.469 55.4932 146.068 55.352 145.684C55.2357 145.367 55.1194 145.058 55.0031 144.774C53.5829 141.301 69.5706 141.46 71.049 144.907C77.5354 160.126 76.082 197.744 76.082 197.744L76.0654 197.736Z" fill="#205134"/>
<path d="M66.6555 78.3041C66.4229 75.1818 66.3648 72.2682 66.398 69.5967C66.4063 69.0958 66.4146 68.6033 66.4312 68.1191C66.5807 62.509 67.1206 58.0677 67.3282 55.1374C67.3947 54.1773 69.0308 52.1403 69.77 51.4641C74.097 47.4986 82.1947 41.1121 98.3153 38.833C114.552 36.5289 123.306 39.4842 128.297 41.947C128.904 42.2475 130.274 43.2326 130.573 43.8087C132.732 48.0413 136.113 54.8035 140.581 63.8698C144.584 71.9927 67.4113 88.3889 66.6638 78.3041H66.6555Z" fill="#3C8258"/>
<path d="M159.027 72.7607C158.853 84.7072 132.458 86.2683 112.7 90.6345C85.7244 96.5869 53.7656 97.1796 52.7108 85.6923C51.6062 73.7124 78.233 61.0145 108.049 57.3078C130.98 54.461 159.26 57.8505 159.035 72.769L159.027 72.7607Z" fill="#3C8258"/>
<path d="M85.1099 113.851C77.0288 125.764 62.2287 127.292 49.4801 124.487C49.4801 124.487 49.2808 112.031 51.7308 100.828C54.1809 89.6327 66.7053 84.2063 75.9159 87.8044C85.1265 91.4026 91.5797 104.301 85.1015 113.843L85.1099 113.851Z" fill="#492B7C"/>
<path d="M110.699 123.945L108.747 140.883C107.709 141.034 106.637 141.05 105.541 140.908C93.9633 139.389 87.9835 130.056 88.5981 123.652C88.7559 121.999 89.2625 120.814 90.0349 119.996L110.699 123.953V123.945Z" fill="#976CDF"/>
<path d="M141.86 95.0176C141.827 95.5101 141.794 96.0027 141.76 96.4869C141.744 96.7624 141.719 97.0295 141.702 97.305C140 120.672 136.038 132.886 117.866 137.753C115.109 138.487 112.21 138.596 109.361 138.27C83.5402 135.298 67.9844 116.481 72.3364 92.6884C72.3613 92.5464 72.3862 92.3962 72.4194 92.2543C72.4942 91.8285 72.5855 91.4027 72.6769 90.977C72.7101 90.5679 72.7433 90.1672 72.7683 89.7831C72.8098 89.1487 72.843 88.5309 72.8762 87.9465C73.0756 83.6137 72.9593 80.4413 74.7532 77.0268C86.2395 69.1376 105.491 66.2074 120.1 65.6898C120.416 65.6814 120.74 65.6731 121.055 65.6647C122.442 65.6313 123.829 65.648 125.216 65.7065C125.881 65.7315 126.545 65.7649 127.21 65.815C129.676 65.982 132.442 66.199 135.008 66.7083C137.533 69.0709 138.679 72.6189 139.443 77.102C139.593 77.9953 139.734 78.9136 139.859 79.8736C140.44 84.2649 140.863 89.3741 141.86 95.0176Z" fill="#C1ACE5"/>
<path d="M73.9891 108.492C78.6484 108.492 82.419 104.685 82.419 99.9933C82.419 95.3015 78.6401 91.4946 73.9891 91.4946C69.3381 91.4946 65.5592 95.3015 65.5592 99.9933C65.5592 104.685 69.3381 108.492 73.9891 108.492Z" fill="#C1ACE5"/>
<path opacity="0.5" d="M140.888 105.879C140.631 108.525 140.182 110.971 139.725 113.392C136.237 114.486 132.674 113.125 132.982 108.751C133.247 104.944 137.558 104.401 140.888 105.879Z" fill="#976CDF"/>
<path opacity="0.5" d="M104.154 108.358C104.262 103.758 93.2574 102.331 92.8836 107.982C92.4185 115.003 104.013 114.569 104.154 108.358Z" fill="#976CDF"/>
<path d="M118.663 64.1454C118.663 64.1454 118.63 64.1287 118.622 64.1204C118.913 64.1204 119.212 64.1204 119.51 64.1287C119.236 64.1287 118.954 64.1371 118.672 64.1454H118.663Z" fill="#4C4D5C"/>
<path d="M125.224 65.7064C124.984 66.583 124.701 67.4512 124.369 68.3028C120.839 77.6279 112.393 85.7425 103.207 89.7413C101.471 90.5511 99.7022 91.2858 97.9415 91.9453C87.6678 95.7856 77.4772 96.8207 72.411 92.2542C71.024 91.0019 70.019 89.3239 69.5041 87.1701C69.147 85.684 69.0307 83.9643 69.1802 82.0108C70.7084 80.1658 72.5937 78.5045 74.7448 77.0351C86.231 69.1459 105.483 66.2157 120.092 65.6981C120.407 65.6897 120.731 65.6814 121.047 65.673C122.434 65.6396 123.821 65.6563 125.208 65.7148L125.224 65.7064Z" fill="#492B7C"/>
<path d="M141.71 97.3217V97.305C140.606 93.1642 138.471 87.8296 135.465 82.5284C132.55 77.3775 128.804 72.2599 124.377 68.3028C123.314 67.3511 122.21 66.4662 121.063 65.6647C122.459 65.6313 123.837 65.648 125.224 65.7065C125.889 65.7315 126.553 65.7649 127.218 65.815C129.684 65.982 132.45 66.199 135.016 66.7083C137.226 67.1424 139.302 67.7936 140.921 68.8037C142.167 70.8574 143.114 73.1115 143.787 75.4657C145.963 83.1211 145.141 91.7533 141.71 97.3217Z" fill="#492B7C"/>
<path d="M109.81 101.154C110.059 103.775 109.253 106.304 105.798 106.196C102.983 106.104 102.609 103.691 102.9 101.087C103.191 98.482 103.739 97.0378 106.114 96.8624C108.489 96.6871 109.494 97.8726 109.802 101.162L109.81 101.154Z" fill="#292A35"/>
<path d="M135.398 100.953C135.648 103.574 134.842 106.104 131.395 105.987C128.58 105.895 128.206 103.483 128.497 100.878C128.787 98.2649 129.336 96.829 131.711 96.6537C134.086 96.4784 135.091 97.6639 135.398 100.953Z" fill="#292A35"/>
<path d="M104.503 91.553C106.338 90.7766 108.331 90.6513 108.539 92.6967C108.697 94.3079 106.363 94.6168 104.968 94.9841C103.539 95.3682 101.455 95.9359 101.081 94.7087C100.724 93.5148 102.435 92.4212 104.511 91.5446L104.503 91.553Z" fill="#292A35"/>
<path d="M133.455 91.1438C131.736 90.4174 129.867 90.3006 129.684 92.2207C129.535 93.7317 131.719 94.0156 133.031 94.3662C134.36 94.7252 136.32 95.2595 136.669 94.1158C137.01 92.9971 135.398 91.9702 133.463 91.1521L133.455 91.1438Z" fill="#292A35"/>
<path d="M120.715 107.757C118.522 107.473 116.753 109.844 116.587 111.43C116.421 113.017 118.065 112.791 120.216 112.791C122.367 112.791 124.477 113.576 124.66 111.706C124.801 110.237 123.406 108.108 120.715 107.757Z" fill="#976CDF"/>
<path d="M123.721 123.118C122.949 125.89 119.087 129.546 115.275 128.377C110.591 126.925 108.755 122.701 109.461 120.138C109.959 118.318 111.28 118.151 113.016 118.485C114.378 118.743 116.006 119.303 117.675 119.595C119.178 119.854 120.549 120.012 121.62 120.271C123.281 120.689 124.203 121.373 123.713 123.126L123.721 123.118Z" fill="#492B7C"/>
<path d="M121.553 121.29C121.47 121.833 121.005 122.217 120.482 122.217C120.424 122.217 120.366 122.217 120.316 122.208C119.178 122.033 118.032 121.816 116.911 121.582C115.806 121.348 114.685 121.081 113.589 120.789C113.007 120.639 112.667 120.038 112.816 119.453C112.908 119.086 112.908 118.702 113.024 118.493C114.386 118.752 116.014 119.311 117.683 119.603C119.186 119.862 120.557 120.021 121.628 120.28C121.72 120.53 121.62 120.914 121.562 121.298L121.553 121.29Z" fill="white"/>
<path d="M80.8161 63.7029C77.6767 64.6212 74.5539 65.765 71.5557 67.0924C69.8199 67.8604 68.0923 68.7036 66.4064 69.6052C66.4147 69.1043 66.423 68.6118 66.4396 68.1276C67.9512 67.3428 69.4959 66.5915 71.049 65.9069C74.1054 64.5545 77.2697 63.4024 80.4673 62.4674C80.8078 62.3588 81.1566 62.5675 81.2646 62.9015C81.3642 63.2438 81.1649 63.6027 80.8327 63.7029H80.8161Z" fill="#205134"/>
</g>
</g>
</g>
</g>
<path d="M8.19108 1.03977H175.558C179.796 1.03977 183.232 4.47566 183.232 8.71403V179.403C183.232 183.641 179.796 187.077 175.558 187.077H8.19108C3.95271 187.077 0.516825 183.641 0.516825 179.403V8.71403C0.516825 4.47565 3.95271 1.03977 8.19108 1.03977Z"/>
<defs>
<clipPath id="clip0_480_2359">
<path d="M0.101562 8.71403C0.101562 4.24631 3.72336 0.624512 8.19108 0.624512H175.558C180.026 0.624512 183.647 4.24631 183.647 8.71403V179.403C183.647 183.871 180.026 187.492 175.558 187.492H8.19108C3.72337 187.492 0.101562 183.871 0.101562 179.403V8.71403Z" fill="white"/>
</clipPath>
<clipPath id="clip1_480_2359">
<rect width="134.305" height="149.494" fill="white" transform="translate(24.7219 37.998)"/>
</clipPath>
<clipPath id="clip2_480_2359">
<rect width="134.305" height="159.955" fill="white" transform="translate(24.7219 37.998)"/>
</clipPath>
</defs>
</svg>
