<svg width="2607" height="1239" viewBox="0 0 2607 1239" fill="none" xmlns="http://www.w3.org/2000/svg">
<rect x="8.5" y="0.5" width="332" height="434" rx="161.5" fill="url(#paint0_linear_3041_291)" stroke="#430262"/>
<rect x="33.5" y="33.5" width="281" height="368" rx="138.5" fill="url(#paint1_linear_3041_291)" stroke="url(#paint2_linear_3041_291)"/>
<rect x="54" y="60" width="242" height="315" rx="121" fill="url(#paint3_linear_3041_291)"/>
<g style="mix-blend-mode:screen">
<path d="M52 185.145C52 128.934 90.2564 79.9359 144.789 66.3027L148.382 65.4046C182.473 56.8818 218.722 63.5058 247.671 83.425V83.425C253.528 87.455 259.751 90.986 266.218 93.9412L2494.17 1112.16C2520.44 1124.17 2511.88 1163.5 2483 1163.5V1163.5L711.147 1235.25C662.469 1237.23 617.25 1210.17 595.981 1166.34L474.5 916L205.5 398L194.789 391.09C181.399 382.451 166.414 376.581 150.718 373.826V373.826C93.6353 363.807 52 314.228 52 256.273V185.145Z" fill="url(#paint4_linear_3041_291)"/>
</g>
<mask id="mask0_3041_291" style="mask-type:alpha" maskUnits="userSpaceOnUse" x="0" y="28" width="340" height="228">
<rect y="28" width="340" height="228" fill="url(#paint5_linear_3041_291)"/>
</mask>
<g mask="url(#mask0_3041_291)">
<rect x="53" y="60" width="242" height="315" rx="121" fill="url(#paint6_linear_3041_291)"/>
</g>
<mask id="mask1_3041_291" style="mask-type:alpha" maskUnits="userSpaceOnUse" x="41" y="256" width="281" height="122">
<rect x="41" y="256" width="281" height="122" fill="url(#paint7_linear_3041_291)"/>
</mask>
<g mask="url(#mask1_3041_291)">
<rect x="53" y="60" width="242" height="315" rx="121" fill="url(#paint8_linear_3041_291)"/>
</g>
<g style="mix-blend-mode:soft-light">
<path fill-rule="evenodd" clip-rule="evenodd" d="M54.2924 163C53.4409 168.83 53 174.793 53 180.859V246.254C62.4172 249.409 73.5115 252.4 86.5747 255.114C128.408 250.781 206.975 235.814 186.575 210.614C166.175 185.414 145.741 186.781 138.075 190.614C132.408 183.447 111.375 170.514 72.5747 176.114C66.133 169.599 60.0237 165.408 54.2924 163Z" fill="#FFD1FD"/>
</g>
<path d="M189.538 194.851L52.5 254L54.5 274L58.5 292L204.457 192.395L212.93 159L206.348 160.084L189.538 194.851Z" fill="#DAA7F2"/>
<path d="M190.13 193.851L205.049 191.395L213.522 158L206.94 159.084L190.13 193.851Z" fill="#B87EE7"/>
<g style="mix-blend-mode:soft-light">
<path fill-rule="evenodd" clip-rule="evenodd" d="M292.923 277.831C288.183 301.74 276.678 323.214 260.487 340.176C254.53 339.621 248.568 338.062 242.455 336.462C229.278 333.015 215.395 329.382 199.336 335.236C171.406 345.418 132.557 332.031 116.624 324.065C56.0911 328.453 126.057 306.317 168.607 294.701C164.222 309.358 158.943 329.779 172.899 294.21C186.854 258.641 216.953 275.013 230.257 287.646C248.383 249.431 274.979 260.771 292.923 277.831Z" fill="#FFD1FD"/>
</g>
<g style="mix-blend-mode:soft-light">
<path fill-rule="evenodd" clip-rule="evenodd" d="M253.95 90.1178C270.389 104.445 282.968 123.089 289.921 144.282C286.822 144.054 283.776 143.602 280.816 142.891C264.195 138.901 250.816 144.088 238.116 149.012C223.207 154.792 209.235 160.208 192.056 149.988C176.608 156.034 143.827 164.498 136.287 149.988C128.746 135.478 156.186 118.445 170.848 111.742C183.678 88.6103 216.406 53.7023 244.684 99.1247C247.144 96.1884 250.313 93.007 253.95 90.1178Z" fill="#FFD1FD"/>
</g>
<mask id="path-14-inside-1_3041_291" fill="white">
<path d="M52 182.5C52 114.845 106.845 60 174.5 60V60C242.155 60 297 114.845 297 182.5V255.5C297 323.155 242.155 378 174.5 378V378C106.845 378 52 323.155 52 255.5V182.5Z"/>
</mask>
<path d="M52 60H297H52ZM299 256.5C299 324.707 243.707 380 175.5 380C107.293 380 52 324.707 52 256.5V255.5C52 322.05 106.845 376 174.5 376C241.05 376 295 322.05 295 255.5L299 256.5ZM52 378V60V378ZM174.5 60C243.259 60 299 115.741 299 184.5V256.5C299 324.707 243.707 380 175.5 380L174.5 376C241.05 376 295 322.05 295 255.5V182.5C295 114.845 241.05 60 174.5 60Z" fill="white" mask="url(#path-14-inside-1_3041_291)"/>
<defs>
<linearGradient id="paint0_linear_3041_291" x1="72.5" y1="-53" x2="297.5" y2="505" gradientUnits="userSpaceOnUse">
<stop stop-color="#510091"/>
<stop offset="1" stop-color="#DF9DED"/>
</linearGradient>
<linearGradient id="paint1_linear_3041_291" x1="361" y1="355.5" x2="60.1058" y2="76.7118" gradientUnits="userSpaceOnUse">
<stop stop-color="#F6B274"/>
<stop offset="0.475" stop-color="#C084A3"/>
<stop offset="1" stop-color="#8639AA"/>
</linearGradient>
<linearGradient id="paint2_linear_3041_291" x1="174" y1="33" x2="217.5" y2="409" gradientUnits="userSpaceOnUse">
<stop stop-color="#561361"/>
<stop offset="1" stop-color="#432706"/>
</linearGradient>
<linearGradient id="paint3_linear_3041_291" x1="174.506" y1="453.75" x2="211.837" y2="43.7393" gradientUnits="userSpaceOnUse">
<stop stop-color="#FDB9B9"/>
<stop offset="1" stop-color="#A96ED7"/>
</linearGradient>
<linearGradient id="paint4_linear_3041_291" x1="382" y1="470.5" x2="24.5001" y2="132" gradientUnits="userSpaceOnUse">
<stop stop-color="#A96ED7" stop-opacity="0.25"/>
<stop offset="1" stop-color="#FDB9B9"/>
</linearGradient>
<linearGradient id="paint5_linear_3041_291" x1="170" y1="28" x2="170" y2="256" gradientUnits="userSpaceOnUse">
<stop stop-color="#9713AC"/>
<stop offset="1" stop-color="#FABC60"/>
</linearGradient>
<linearGradient id="paint6_linear_3041_291" x1="173.506" y1="453.75" x2="210.837" y2="43.7393" gradientUnits="userSpaceOnUse">
<stop offset="0.465" stop-color="#FFE0A3"/>
<stop offset="0.515" stop-color="#F9ACBA"/>
<stop offset="0.775" stop-color="#C485D1"/>
<stop offset="1" stop-color="#9B76C7"/>
</linearGradient>
<linearGradient id="paint7_linear_3041_291" x1="181.5" y1="256" x2="181.5" y2="378" gradientUnits="userSpaceOnUse">
<stop stop-color="#FABC60"/>
<stop offset="1" stop-color="#E64A66"/>
</linearGradient>
<linearGradient id="paint8_linear_3041_291" x1="173.506" y1="453.75" x2="210.837" y2="43.7393" gradientUnits="userSpaceOnUse">
<stop stop-color="#9673C4"/>
<stop offset="0.085" stop-color="#CF8AD7"/>
<stop offset="0.315" stop-color="#F1A5BF"/>
<stop offset="0.495" stop-color="#FFEDD9"/>
</linearGradient>
</defs>
</svg>
