<svg width="24" height="25" viewBox="0 0 24 25" fill="none" xmlns="http://www.w3.org/2000/svg">
<g id="Instagram">
<path id="Vector" d="M17 2.08325H7C4.23858 2.08325 2 4.4151 2 7.29159V17.7083C2 20.5847 4.23858 22.9166 7 22.9166H17C19.7614 22.9166 22 20.5847 22 17.7083V7.29159C22 4.4151 19.7614 2.08325 17 2.08325Z" stroke="white" stroke-width="2" stroke-linecap="round" stroke-linejoin="round"/>
<path id="Vector_2" d="M16 11.8437C16.1234 12.7106 15.9812 13.596 15.5937 14.3739C15.2062 15.1518 14.5931 15.7827 13.8416 16.1767C13.0901 16.5707 12.2384 16.7079 11.4077 16.5686C10.5771 16.4294 9.80971 16.0209 9.21479 15.4012C8.61987 14.7814 8.22768 13.9821 8.09402 13.1168C7.96035 12.2516 8.09202 11.3644 8.47028 10.5816C8.84854 9.79875 9.45414 9.16009 10.2009 8.75645C10.9477 8.3528 11.7977 8.20473 12.63 8.33328C13.4789 8.46441 14.2648 8.87647 14.8716 9.5086C15.4785 10.1407 15.8741 10.9594 16 11.8437Z" stroke="white" stroke-width="2" stroke-linecap="round" stroke-linejoin="round"/>
<path id="Vector_3" d="M17.5 6.77075H17.51" stroke="white" stroke-width="2" stroke-linecap="round" stroke-linejoin="round"/>
</g>
</svg>
