<svg width="24" height="25" viewBox="0 0 24 25" fill="none" xmlns="http://www.w3.org/2000/svg">
<g id="Icon">
<path id="Vector" d="M19.8749 4.24902H4.12488C3.42891 4.24977 2.76167 4.52657 2.26954 5.01869C1.77742 5.51081 1.50062 6.17806 1.49988 6.87402V18.124C1.50062 18.82 1.77742 19.4872 2.26954 19.9794C2.76167 20.4715 3.42891 20.7483 4.12488 20.749H19.8749C20.5708 20.7483 21.2381 20.4715 21.7302 19.9794C22.2223 19.4872 22.4991 18.82 22.4999 18.124V6.87402C22.4991 6.17806 22.2223 5.51081 21.7302 5.01869C21.2381 4.52657 20.5708 4.24977 19.8749 4.24902ZM19.2102 8.59105L12.4602 13.8411C12.3286 13.9434 12.1666 13.9989 11.9999 13.9989C11.8332 13.9989 11.6712 13.9434 11.5396 13.8411L4.78956 8.59105C4.71026 8.53116 4.64364 8.45611 4.5936 8.37025C4.54355 8.28439 4.51106 8.18945 4.49802 8.09093C4.48499 7.99241 4.49166 7.89228 4.51766 7.79636C4.54365 7.70044 4.58845 7.61064 4.64945 7.53219C4.71045 7.45373 4.78644 7.38818 4.87299 7.33934C4.95954 7.29051 5.05494 7.25936 5.15363 7.24771C5.25233 7.23606 5.35235 7.24415 5.4479 7.27149C5.54344 7.29883 5.6326 7.34489 5.71019 7.40699L11.9999 12.2989L18.2896 7.40699C18.4468 7.28822 18.6445 7.23613 18.8399 7.26198C19.0353 7.28783 19.2127 7.38955 19.3336 7.54514C19.4546 7.70073 19.5095 7.89768 19.4864 8.09341C19.4633 8.28914 19.3641 8.4679 19.2102 8.59105Z" fill="white"/>
</g>
</svg>
