<svg width="25" height="23" viewBox="0 0 25 23" fill="none" xmlns="http://www.w3.org/2000/svg">
<path id="Vector" d="M25 0.512329C23.9118 1.3405 22.7069 1.97392 21.4318 2.3882C20.7474 1.53917 19.8379 0.937393 18.8262 0.66427C17.8145 0.391146 16.7494 0.459848 15.7751 0.861085C14.8008 1.26232 13.9641 1.97673 13.3784 2.9077C12.7926 3.83866 12.486 4.94126 12.5 6.06637V7.29243C10.503 7.3483 8.52418 6.87044 6.73978 5.9014C4.95539 4.93237 3.42081 3.50224 2.27273 1.73839C2.27273 1.73839 -2.27273 12.7729 7.95455 17.6771C5.61424 19.3911 2.82631 20.2506 0 20.1293C10.2273 26.2596 22.7273 20.1293 22.7273 6.02959C22.7262 5.68808 22.6958 5.34741 22.6364 5.01196C23.7961 3.77793 24.6146 2.21988 25 0.512329V0.512329Z" fill="white"/>
</svg>
