<svg width="489" height="385" viewBox="0 0 489 385" fill="none" xmlns="http://www.w3.org/2000/svg">
<g filter="url(#filter0_d_961_6687)">
<rect x="5.56055" y="6.32007" width="470.16" height="365.76" rx="51.723" fill="white" shape-rendering="crispEdges"/>
<rect x="6.91055" y="7.67007" width="467.46" height="363.06" rx="50.373" stroke="black" stroke-opacity="0.2" stroke-width="2.7" shape-rendering="crispEdges"/>
<rect x="21.7603" y="22.52" width="437.76" height="333.36" rx="35.5268" fill="#DE4949"/>
<path d="M169.586 92.4639H165.886H162.185H158.484H154.784V88.7632H158.484H162.185V85.0624V81.3617V77.661V73.9603H158.484H154.784H151.083H147.382H143.681V77.661V81.3617V85.0624V88.7632H147.382H151.083V92.4639H147.382H143.681H139.981H136.28H132.579V88.7632H136.28V85.0624V81.3617V77.661V73.9603V70.2596V66.5589V62.8582V59.1575V55.4568V51.7561H132.579V48.0553H136.28H139.981H143.681H147.382H151.083V51.7561H147.382H143.681V55.4568V59.1575V62.8582V66.5589V70.2596H147.382H151.083H154.784H158.484H162.185V66.5589V62.8582V59.1575V55.4568V51.7561H158.484H154.784V48.0553H158.484H162.185H165.886H169.586H173.287V51.7561H169.586V55.4568V59.1575V62.8582V66.5589V70.2596V73.9603V77.661V81.3617V85.0624V88.7632H173.287V92.4639H169.586ZM205.113 77.661V73.9603V70.2596H201.413H197.712H194.011V73.9603V77.661V81.3617V85.0624V88.7632H197.712H201.413H205.113H208.814V85.0624H212.515V81.3617H216.215V85.0624V88.7632V92.4639H212.515H208.814H205.113H201.413H197.712H194.011H190.31H186.61H182.909V88.7632H186.61V85.0624V81.3617V77.661V73.9603V70.2596V66.5589V62.8582V59.1575V55.4568V51.7561H182.909V48.0553H186.61H190.31H194.011H197.712H201.413H205.113H208.814H212.515H216.215V51.7561V55.4568V59.1575H212.515V55.4568H208.814V51.7561H205.113H201.413H197.712H194.011V55.4568V59.1575V62.8582V66.5589H197.712H201.413H205.113V62.8582V59.1575H208.814V62.8582V66.5589V70.2596V73.9603V77.661H205.113ZM251.742 92.4639H248.042H244.341H240.64H236.939H233.239H229.538H225.837V88.7632H229.538V85.0624V81.3617V77.661V73.9603V70.2596V66.5589V62.8582V59.1575V55.4568V51.7561H225.837V48.0553H229.538H233.239H236.939H240.64V51.7561H236.939V55.4568V59.1575V62.8582V66.5589V70.2596V73.9603V77.661V81.3617V85.0624V88.7632H240.64H244.341V85.0624H248.042V81.3617H251.742V77.661H255.443V81.3617V85.0624V88.7632V92.4639H251.742ZM290.97 92.4639H287.269H283.568H279.868H276.167H272.466H268.765H265.065V88.7632H268.765V85.0624V81.3617V77.661V73.9603V70.2596V66.5589V62.8582V59.1575V55.4568V51.7561H265.065V48.0553H268.765H272.466H276.167H279.868V51.7561H276.167V55.4568V59.1575V62.8582V66.5589V70.2596V73.9603V77.661V81.3617V85.0624V88.7632H279.868H283.568V85.0624H287.269V81.3617H290.97V77.661H294.67V81.3617V85.0624V88.7632V92.4639H290.97ZM333.898 92.4639H330.197H326.497H322.796H319.095H315.394V88.7632H311.694V85.0624H307.993V81.3617V77.661V73.9603V70.2596V66.5589V62.8582V59.1575H311.694V55.4568V51.7561H315.394H319.095V48.0553H322.796H326.497H330.197H333.898V51.7561H337.599H341.299V55.4568V59.1575H345V62.8582V66.5589V70.2596V73.9603V77.661V81.3617V85.0624H341.299V88.7632H337.599V92.4639H333.898ZM326.497 88.7632H330.197V85.0624H333.898V81.3617H337.599V77.661V73.9603V70.2596V66.5589V62.8582H333.898V59.1575V55.4568H330.197V51.7561H326.497H322.796V55.4568H319.095V59.1575V62.8582H315.394V66.5589V70.2596V73.9603V77.661V81.3617H319.095V85.0624H322.796V88.7632H326.497Z" fill="white"/>
<path d="M187.173 140.864V110.624H191.407V140.864H187.173ZM221.928 140.864L221.755 137.105V129.589C221.755 128.005 221.568 126.68 221.193 125.614C220.848 124.549 220.301 123.742 219.552 123.195C218.832 122.648 217.867 122.374 216.658 122.374C215.534 122.374 214.555 122.605 213.72 123.065C212.914 123.526 212.237 124.246 211.69 125.225L208.061 123.843C208.579 122.864 209.227 122 210.005 121.251C210.782 120.473 211.718 119.869 212.813 119.437C213.907 118.976 215.189 118.745 216.658 118.745C218.702 118.745 220.402 119.149 221.755 119.955C223.109 120.761 224.117 121.928 224.779 123.454C225.47 124.981 225.802 126.867 225.773 129.113L225.73 140.864H221.928ZM215.578 141.382C213.014 141.382 211.013 140.806 209.573 139.654C208.162 138.473 207.456 136.846 207.456 134.773C207.456 132.555 208.19 130.87 209.659 129.718C211.157 128.537 213.23 127.947 215.88 127.947H221.885V131.187H217.003C215.016 131.187 213.619 131.504 212.813 132.137C212.006 132.742 211.603 133.592 211.603 134.686C211.603 135.694 211.978 136.486 212.726 137.062C213.504 137.609 214.57 137.883 215.923 137.883C217.104 137.883 218.126 137.638 218.99 137.149C219.854 136.63 220.531 135.91 221.021 134.989C221.51 134.067 221.755 133.016 221.755 131.835H223.181C223.181 134.773 222.547 137.105 221.28 138.833C220.042 140.533 218.141 141.382 215.578 141.382ZM230.94 140.864V119.264H234.785L234.958 122.245C235.649 121.093 236.513 120.229 237.55 119.653C238.587 119.048 239.782 118.745 241.136 118.745C242.864 118.745 244.332 119.149 245.542 119.955C246.752 120.733 247.63 121.928 248.177 123.541C248.811 121.985 249.704 120.805 250.856 119.998C252.008 119.163 253.376 118.745 254.96 118.745C257.408 118.745 259.323 119.552 260.705 121.165C262.088 122.749 262.764 125.197 262.736 128.509V140.864H258.675V129.805C258.675 127.846 258.459 126.363 258.027 125.355C257.624 124.318 257.076 123.598 256.385 123.195C255.694 122.792 254.888 122.576 253.966 122.547C252.353 122.547 251.1 123.166 250.208 124.405C249.344 125.643 248.912 127.385 248.912 129.632V140.864H244.808V129.805C244.808 127.846 244.606 126.363 244.203 125.355C243.8 124.318 243.238 123.598 242.518 123.195C241.827 122.792 241.02 122.576 240.099 122.547C238.486 122.547 237.233 123.166 236.34 124.405C235.476 125.643 235.044 127.385 235.044 129.632V140.864H230.94ZM291.79 140.864L291.618 137.105V129.589C291.618 128.005 291.43 126.68 291.056 125.614C290.71 124.549 290.163 123.742 289.414 123.195C288.694 122.648 287.73 122.374 286.52 122.374C285.397 122.374 284.418 122.605 283.582 123.065C282.776 123.526 282.099 124.246 281.552 125.225L277.923 123.843C278.442 122.864 279.09 122 279.867 121.251C280.645 120.473 281.581 119.869 282.675 119.437C283.77 118.976 285.051 118.745 286.52 118.745C288.565 118.745 290.264 119.149 291.618 119.955C292.971 120.761 293.979 121.928 294.642 123.454C295.333 124.981 295.664 126.867 295.635 129.113L295.592 140.864H291.79ZM285.44 141.382C282.877 141.382 280.875 140.806 279.435 139.654C278.024 138.473 277.318 136.846 277.318 134.773C277.318 132.555 278.053 130.87 279.522 129.718C281.019 128.537 283.093 127.947 285.742 127.947H291.747V131.187H286.866C284.878 131.187 283.482 131.504 282.675 132.137C281.869 132.742 281.466 133.592 281.466 134.686C281.466 135.694 281.84 136.486 282.589 137.062C283.366 137.609 284.432 137.883 285.786 137.883C286.966 137.883 287.989 137.638 288.853 137.149C289.717 136.63 290.394 135.91 290.883 134.989C291.373 134.067 291.618 133.016 291.618 131.835H293.043C293.043 134.773 292.41 137.105 291.142 138.833C289.904 140.533 288.003 141.382 285.44 141.382Z" fill="white"/>
<rect x="43.0767" y="168.18" width="395.128" height="166.384" rx="14.2107" fill="white"/>
<path d="M74.7803 241.074C73.7935 241.074 72.9843 240.798 72.3527 240.245C71.7606 239.732 71.4645 239.16 71.4645 238.528C71.4645 237.817 71.5632 237.285 71.7606 236.929C71.9974 236.535 72.4908 236.258 73.2409 236.1C75.0961 235.666 77.0106 235.153 78.9844 234.561C80.9975 233.929 82.8726 233.278 84.6094 232.607C86.3463 231.896 87.7476 231.206 88.8134 230.534C89.9187 229.863 90.4714 229.271 90.4714 228.758C90.4714 228.284 90.0371 227.83 89.1687 227.396C88.3003 226.923 87.195 226.409 85.8529 225.857C84.5107 225.304 83.0699 224.692 81.5304 224.021C79.9909 223.35 78.5501 222.58 77.208 221.712C75.8659 220.844 74.7606 219.857 73.8922 218.751C73.0237 217.607 72.5895 216.304 72.5895 214.843C72.5895 212.554 73.1422 210.422 74.2474 208.449C75.3922 206.435 76.8725 204.58 78.6883 202.883C80.5041 201.185 82.4976 199.626 84.6686 198.205C86.8792 196.745 89.0503 195.462 91.1819 194.356C93.353 193.212 95.2872 192.205 96.9846 191.337C97.5373 191.021 98.0702 190.804 98.5833 190.685C99.0965 190.567 99.5504 190.508 99.9452 190.508C101.09 190.508 101.919 190.764 102.432 191.277C102.945 191.79 103.202 192.383 103.202 193.054C103.202 193.606 102.906 194.258 102.314 195.008C101.722 195.718 100.873 196.35 99.7675 196.902C98.6623 197.455 97.3399 197.731 95.8004 197.731H95.3267C93.9846 198.442 92.524 199.291 90.9451 200.277C89.3661 201.264 87.8068 202.35 86.2674 203.534C84.7279 204.718 83.3068 205.942 82.0041 207.205C80.741 208.429 79.7146 209.613 78.9251 210.758C78.1751 211.903 77.8001 212.949 77.8001 213.896C77.8001 215.041 78.2343 216.067 79.1028 216.975C79.9712 217.883 81.0765 218.692 82.4186 219.403C83.8002 220.113 85.241 220.804 86.741 221.475C88.2805 222.146 89.7213 222.837 91.0635 223.548C92.4451 224.219 93.5701 224.969 94.4385 225.798C95.307 226.587 95.7412 227.515 95.7412 228.58C95.7412 229.804 95.307 230.969 94.4385 232.074C93.6096 233.179 92.5043 234.206 91.1227 235.153C89.7411 236.061 88.2213 236.89 86.5634 237.64C84.945 238.35 83.3463 238.962 81.7673 239.475C80.1883 239.989 78.7672 240.383 77.5041 240.66C76.2804 240.936 75.3725 241.074 74.7803 241.074ZM127.368 213.6C127.368 214.863 126.974 216.107 126.184 217.33C125.395 218.515 124.349 219.659 123.046 220.765C121.743 221.83 120.302 222.837 118.724 223.784C117.145 224.732 115.566 225.561 113.987 226.271C112.408 226.982 110.967 227.554 109.664 227.988C109.348 229.528 109.19 230.89 109.19 232.074C109.19 232.824 109.368 233.357 109.723 233.673C110.079 233.988 110.631 234.146 111.381 234.146C113.039 234.146 114.796 233.85 116.651 233.258C118.506 232.666 120.401 231.896 122.335 230.949C124.27 230.002 126.125 228.995 127.901 227.929C129.678 226.863 131.296 225.857 132.757 224.909C134.257 223.962 135.5 223.192 136.487 222.6C137.474 222.008 138.125 221.712 138.441 221.712C138.915 221.712 139.27 221.87 139.507 222.186C139.783 222.462 139.921 222.798 139.921 223.192C139.921 223.508 139.428 224.12 138.441 225.028C137.494 225.936 136.211 227.002 134.592 228.225C132.974 229.409 131.158 230.633 129.145 231.896C127.132 233.16 125.039 234.344 122.868 235.449C120.737 236.554 118.664 237.442 116.651 238.114C114.677 238.785 112.901 239.12 111.322 239.12C109.269 239.12 107.671 238.35 106.526 236.811C105.381 235.271 104.809 232.883 104.809 229.646C104.809 227.475 105.085 225.284 105.638 223.074C106.23 220.863 107.019 218.751 108.006 216.738C109.033 214.686 110.158 212.87 111.381 211.291C112.644 209.672 113.967 208.409 115.348 207.501C116.73 206.554 118.072 206.08 119.375 206.08C121.862 206.08 123.816 206.771 125.237 208.153C126.658 209.534 127.368 211.35 127.368 213.6ZM110.908 223.429C112.131 222.679 113.394 221.89 114.697 221.061C116 220.232 117.204 219.383 118.309 218.515C119.414 217.646 120.302 216.738 120.974 215.791C121.684 214.804 122.039 213.797 122.039 212.771C122.039 211.311 121.25 210.58 119.671 210.58C118.684 210.58 117.638 211.212 116.533 212.475C115.467 213.699 114.441 215.297 113.454 217.271C112.467 219.245 111.618 221.297 110.908 223.429ZM136.691 240.66C135.191 240.66 133.948 239.969 132.961 238.587C132.014 237.166 131.54 235.331 131.54 233.081C131.54 230.988 132.053 228.916 133.079 226.863C134.145 224.811 135.547 222.837 137.284 220.942C139.02 219.047 140.915 217.311 142.968 215.732C145.02 214.113 147.073 212.712 149.126 211.528C151.218 210.343 153.132 209.416 154.869 208.745C156.606 208.074 157.988 207.738 159.014 207.738C159.567 207.738 160.021 207.857 160.376 208.093C160.731 208.291 160.909 208.666 160.909 209.218C160.909 209.574 160.771 209.909 160.494 210.225C160.534 210.225 160.573 210.225 160.613 210.225C161.481 210.225 161.915 210.738 161.915 211.764C161.915 212.12 161.777 212.85 161.501 213.955C161.225 215.021 160.909 216.363 160.554 217.982C160.198 219.6 159.883 221.396 159.606 223.37C159.33 225.304 159.192 227.278 159.192 229.291C159.192 230.988 159.843 231.837 161.146 231.837C162.606 231.837 164.087 231.502 165.587 230.831C167.087 230.159 168.547 229.35 169.968 228.403C171.389 227.416 172.692 226.449 173.876 225.502C175.06 224.515 176.067 223.686 176.896 223.015C177.725 222.344 178.317 222.008 178.672 222.008C178.988 222.008 179.264 222.107 179.501 222.304C179.738 222.501 179.856 222.817 179.856 223.251C179.856 223.646 179.462 224.357 178.672 225.383C177.883 226.409 176.837 227.574 175.534 228.877C174.231 230.179 172.771 231.442 171.152 232.666C169.534 233.89 167.876 234.896 166.179 235.686C164.481 236.475 162.863 236.87 161.323 236.87C160.139 236.87 159.054 236.515 158.067 235.804C157.119 235.054 156.35 233.791 155.757 232.015C155.205 230.238 154.928 227.791 154.928 224.673V223.192C152.994 226.39 150.961 229.311 148.83 231.956C146.738 234.6 144.645 236.712 142.553 238.291C140.501 239.87 138.547 240.66 136.691 240.66ZM157.889 212.001C157.692 212.08 157.415 212.199 157.06 212.357C155.244 213.186 153.35 214.212 151.376 215.436C149.442 216.659 147.547 218.021 145.692 219.521C143.876 221.021 142.238 222.58 140.777 224.199C139.316 225.817 138.152 227.455 137.284 229.113C136.415 230.771 135.981 232.39 135.981 233.969C135.981 234.482 136.08 234.877 136.277 235.153C136.514 235.429 136.908 235.567 137.461 235.567C138.251 235.567 139.277 235.074 140.54 234.087C141.803 233.061 143.185 231.719 144.685 230.061C146.224 228.403 147.764 226.567 149.303 224.554C150.843 222.541 152.303 220.508 153.685 218.455C155.106 216.403 156.33 214.508 157.356 212.771C157.514 212.495 157.692 212.238 157.889 212.001ZM181.049 240.423C180.181 240.423 179.51 240.166 179.036 239.653C178.602 239.179 178.385 238.627 178.385 237.995C178.385 237.442 178.622 236.929 179.096 236.456C179.609 235.942 180.299 235.488 181.168 235.094C182.747 234.265 184.227 233.436 185.609 232.607C187.03 231.778 188.175 230.89 189.043 229.942C189.911 228.995 190.346 227.988 190.346 226.923C190.346 226.015 190.05 225.324 189.458 224.85C188.865 224.337 188.056 224.08 187.03 224.08C186.438 224.08 185.609 224.199 184.543 224.436C183.477 224.633 182.313 224.87 181.049 225.146C179.826 225.383 178.622 225.62 177.438 225.857C176.253 226.054 175.247 226.153 174.418 226.153C172.918 226.153 171.793 225.798 171.043 225.087C170.293 224.337 169.918 223.33 169.918 222.067C169.918 221.436 170.293 220.488 171.043 219.225C171.793 217.962 172.78 216.561 174.003 215.021C175.267 213.442 176.648 211.863 178.148 210.284C179.648 208.705 181.168 207.245 182.707 205.903C184.286 204.56 185.747 203.475 187.089 202.646C188.471 201.817 189.615 201.402 190.523 201.402C191.431 201.402 192.122 201.699 192.596 202.291C193.069 202.883 193.306 203.633 193.306 204.541C193.306 205.251 193.188 205.863 192.951 206.376C192.714 206.85 192.221 207.225 191.471 207.501C190.76 207.778 189.655 207.935 188.155 207.975C186.615 209.199 184.977 210.6 183.24 212.179C181.543 213.718 179.984 215.317 178.563 216.975C177.181 218.594 176.174 220.153 175.543 221.653C176.845 221.219 178.424 220.844 180.28 220.528C182.175 220.172 184.089 219.995 186.023 219.995C189.063 219.995 191.313 220.686 192.773 222.067C194.273 223.409 195.023 225.186 195.023 227.396C195.023 228.817 194.569 230.298 193.662 231.837C192.793 233.337 191.648 234.738 190.227 236.041C188.806 237.344 187.286 238.39 185.668 239.179C184.05 240.008 182.51 240.423 181.049 240.423ZM234.239 241.252C233.094 241.252 232.285 240.877 231.811 240.127C231.338 239.377 231.101 238.094 231.101 236.278C231.101 234.817 231.278 233.002 231.634 230.831C232.028 228.659 232.502 226.271 233.055 223.666C233.607 221.021 234.18 218.297 234.772 215.495C232.364 218.771 229.699 221.396 226.778 223.37C223.897 225.304 220.699 226.567 217.186 227.159C216.357 229.094 215.41 230.85 214.344 232.429C213.278 234.008 212.114 235.271 210.85 236.219C209.587 237.166 208.265 237.64 206.883 237.64C205.186 237.64 203.745 236.949 202.561 235.567C201.416 234.186 200.844 232.173 200.844 229.528C200.844 227.712 201.081 226.094 201.554 224.673C202.028 223.212 202.561 222.166 203.153 221.534C202.6 220.074 202.324 218.396 202.324 216.501C202.324 214.172 202.857 212.12 203.923 210.343C204.988 208.528 206.41 207.126 208.186 206.139C209.962 205.113 211.877 204.6 213.929 204.6C215.587 204.6 217.068 205.37 218.37 206.909C219.673 208.449 220.324 210.659 220.324 213.541C220.324 216.225 219.851 219.205 218.903 222.482C221.074 221.653 223.245 220.39 225.416 218.692C227.627 216.995 229.759 214.962 231.811 212.593C233.864 210.225 235.719 207.6 237.377 204.718C237.811 204.008 238.423 203.653 239.213 203.653C239.923 203.653 240.476 203.87 240.871 204.304C241.305 204.699 241.522 205.251 241.522 205.962C241.522 206.159 241.403 206.83 241.167 207.975C240.969 209.12 240.693 210.58 240.338 212.357C240.022 214.133 239.667 216.087 239.272 218.219C238.877 220.35 238.482 222.501 238.088 224.673C237.732 226.844 237.436 228.857 237.199 230.712C238.107 228.975 239.134 227.08 240.278 225.028C241.423 222.975 242.588 220.962 243.772 218.988C244.996 216.975 246.16 215.14 247.265 213.482C248.41 211.824 249.417 210.501 250.285 209.514C251.193 208.488 251.904 207.975 252.417 207.975C253.364 207.975 254.193 208.291 254.904 208.922C255.614 209.554 255.969 210.205 255.969 210.876C255.969 211.784 255.871 213.166 255.673 215.021C255.476 216.837 255.239 218.89 254.963 221.179C254.687 223.469 254.41 225.758 254.134 228.048C253.858 230.337 253.621 232.409 253.423 234.265C253.226 236.12 253.127 237.502 253.127 238.41C253.127 239.002 252.871 239.535 252.358 240.008C251.844 240.482 251.272 240.719 250.64 240.719C250.206 240.719 249.831 240.581 249.515 240.304C249.239 240.067 249.022 239.515 248.864 238.646C248.706 237.778 248.627 236.436 248.627 234.62C248.627 232.844 248.686 230.909 248.805 228.817C248.923 226.686 249.081 224.574 249.279 222.482C249.515 220.35 249.772 218.436 250.048 216.738C249.14 218.238 248.094 220.034 246.91 222.126C245.765 224.219 244.561 226.37 243.298 228.58C242.035 230.791 240.811 232.863 239.627 234.798C238.443 236.732 237.377 238.291 236.43 239.475C235.482 240.66 234.752 241.252 234.239 241.252ZM213.693 223.429C214.166 221.929 214.541 220.33 214.818 218.633C215.133 216.896 215.291 215.159 215.291 213.422C215.291 212.396 215.094 211.567 214.699 210.936C214.304 210.304 213.771 209.988 213.1 209.988C212.074 209.988 211.067 210.284 210.081 210.876C209.094 211.429 208.265 212.218 207.594 213.245C206.962 214.271 206.646 215.495 206.646 216.916C206.646 218.692 207.317 220.212 208.66 221.475C210.041 222.699 211.719 223.35 213.693 223.429ZM212.094 227.515C209.41 227.396 207.238 226.607 205.581 225.146C205.502 225.659 205.423 226.153 205.344 226.627C205.265 227.061 205.225 227.495 205.225 227.929C205.225 229.153 205.423 230.12 205.817 230.831C206.252 231.502 206.903 231.837 207.771 231.837C208.482 231.837 209.212 231.442 209.962 230.653C210.712 229.863 211.423 228.817 212.094 227.515ZM287.725 213.6C287.725 214.863 287.33 216.107 286.541 217.33C285.751 218.515 284.705 219.659 283.402 220.765C282.1 221.83 280.659 222.837 279.08 223.784C277.501 224.732 275.922 225.561 274.343 226.271C272.764 226.982 271.323 227.554 270.021 227.988C269.705 229.528 269.547 230.89 269.547 232.074C269.547 232.824 269.725 233.357 270.08 233.673C270.435 233.988 270.988 234.146 271.738 234.146C273.396 234.146 275.152 233.85 277.008 233.258C278.863 232.666 280.758 231.896 282.692 230.949C284.626 230.002 286.481 228.995 288.258 227.929C290.034 226.863 291.652 225.857 293.113 224.909C294.613 223.962 295.856 223.192 296.843 222.6C297.83 222.008 298.482 221.712 298.797 221.712C299.271 221.712 299.626 221.87 299.863 222.186C300.139 222.462 300.278 222.798 300.278 223.192C300.278 223.508 299.784 224.12 298.797 225.028C297.85 225.936 296.567 227.002 294.949 228.225C293.33 229.409 291.514 230.633 289.501 231.896C287.488 233.16 285.396 234.344 283.225 235.449C281.093 236.554 279.021 237.442 277.008 238.114C275.034 238.785 273.257 239.12 271.679 239.12C269.626 239.12 268.027 238.35 266.882 236.811C265.738 235.271 265.165 232.883 265.165 229.646C265.165 227.475 265.442 225.284 265.994 223.074C266.586 220.863 267.376 218.751 268.363 216.738C269.389 214.686 270.514 212.87 271.738 211.291C273.001 209.672 274.323 208.409 275.705 207.501C277.086 206.554 278.429 206.08 279.731 206.08C282.218 206.08 284.172 206.771 285.593 208.153C287.014 209.534 287.725 211.35 287.725 213.6ZM271.264 223.429C272.488 222.679 273.751 221.89 275.054 221.061C276.356 220.232 277.56 219.383 278.665 218.515C279.771 217.646 280.659 216.738 281.33 215.791C282.04 214.804 282.396 213.797 282.396 212.771C282.396 211.311 281.606 210.58 280.027 210.58C279.04 210.58 277.994 211.212 276.889 212.475C275.823 213.699 274.797 215.297 273.81 217.271C272.823 219.245 271.975 221.297 271.264 223.429ZM317.277 209.337C318.343 206.771 319.35 204.126 320.297 201.402C321.284 198.679 322.172 195.896 322.962 193.054C323.198 192.264 323.554 191.633 324.027 191.159C324.541 190.646 325.133 190.389 325.804 190.389C326.277 190.389 326.672 190.567 326.988 190.922C327.343 191.277 327.521 191.751 327.521 192.343C327.521 193.093 327.225 194.396 326.633 196.251C326.08 198.106 325.369 200.455 324.501 203.297C323.672 206.139 322.823 209.416 321.955 213.126C321.126 216.797 320.415 220.863 319.823 225.324C319.271 229.784 318.994 234.541 318.994 239.594C318.994 240.699 318.758 241.607 318.284 242.318C317.81 243.068 317.238 243.443 316.567 243.443C316.172 243.443 315.797 243.344 315.442 243.146C315.086 242.949 314.771 242.475 314.494 241.725C314.257 241.015 314.06 239.89 313.902 238.35C313.744 236.771 313.665 234.64 313.665 231.956C313.665 229.903 313.784 227.673 314.021 225.265C312.205 228.541 310.231 231.403 308.1 233.85C306.007 236.258 303.974 238.114 302.001 239.416C300.067 240.719 298.409 241.37 297.027 241.37C295.33 241.37 293.948 240.798 292.882 239.653C291.856 238.548 291.343 236.89 291.343 234.679C291.343 232.745 291.797 230.752 292.705 228.699C293.612 226.646 294.816 224.633 296.316 222.659C297.816 220.646 299.474 218.751 301.29 216.975C303.106 215.199 304.922 213.639 306.738 212.297C308.593 210.916 310.31 209.85 311.889 209.1C313.468 208.31 314.751 207.916 315.738 207.916C316.133 207.916 316.488 208.054 316.804 208.33C317.119 208.607 317.277 208.942 317.277 209.337ZM316.508 211.172C316.231 211.449 315.896 211.725 315.501 212.001C315.106 212.278 314.672 212.574 314.198 212.889C312.461 214.113 310.547 215.534 308.455 217.153C306.402 218.732 304.428 220.469 302.534 222.363C300.678 224.219 299.159 226.173 297.974 228.225C296.79 230.278 296.198 232.39 296.198 234.561C296.198 235.508 296.672 235.982 297.619 235.982C298.922 235.982 300.343 235.37 301.882 234.146C303.461 232.883 305.08 231.146 306.738 228.936C308.396 226.686 310.053 224.061 311.711 221.061C313.369 218.021 314.968 214.725 316.508 211.172ZM69.925 300.785C69.0566 300.785 68.3855 300.528 67.9118 300.015C67.4381 299.541 67.2013 298.337 67.2013 296.403C67.2013 294.627 67.5171 292.317 68.1487 289.475C68.7803 286.594 69.629 283.396 70.6948 279.883C71.7606 276.37 72.9645 272.738 74.3067 268.988C75.6488 265.199 77.0501 261.488 78.5107 257.856C80.0107 254.185 81.4515 250.83 82.8331 247.79C83.3463 246.685 83.8792 245.915 84.4318 245.481C84.9844 245.047 85.6358 244.83 86.3858 244.83C86.8989 244.83 87.3332 244.988 87.6884 245.304C88.0832 245.58 88.2805 246.054 88.2805 246.725C88.2805 246.961 88.024 247.731 87.5108 249.034C87.0371 250.337 86.366 252.054 85.4976 254.185C84.6686 256.317 83.741 258.705 82.7147 261.35C81.6883 263.995 80.6423 266.778 79.5765 269.699C78.5107 272.62 77.5041 275.561 76.5567 278.521C75.6093 281.442 74.8001 284.245 74.129 286.929C73.458 289.613 73.004 292.021 72.7672 294.153C73.7145 293.008 74.8001 291.548 76.0238 289.771C77.2475 287.995 78.5501 286.08 79.9317 284.028C81.3133 281.975 82.7147 279.942 84.1357 277.929C85.5568 275.916 86.9582 274.08 88.3397 272.422C89.7213 270.764 91.0043 269.442 92.1885 268.455C93.4122 267.429 94.478 266.916 95.3859 266.916C96.8859 266.916 98.0899 267.389 98.9978 268.337C99.9452 269.245 100.419 270.745 100.419 272.837C100.419 274.021 100.182 275.442 99.7083 277.1C99.2741 278.758 98.761 280.495 98.1688 282.311C97.5767 284.126 97.0438 285.863 96.5701 287.521C96.1359 289.179 95.9188 290.6 95.9188 291.785C95.9188 293.403 96.5307 294.212 97.7544 294.212C99.6491 294.212 101.544 293.798 103.439 292.969C105.373 292.14 107.208 291.113 108.945 289.89C110.682 288.627 112.281 287.363 113.741 286.1C115.202 284.798 116.445 283.692 117.472 282.784C118.577 281.798 119.505 281.304 120.255 281.304C121.202 281.304 121.676 281.798 121.676 282.784C121.676 283.061 121.617 283.376 121.498 283.732C121.38 284.087 121.064 284.541 120.551 285.094C119.919 285.804 119.011 286.732 117.827 287.877C116.682 289.021 115.34 290.245 113.801 291.548C112.301 292.85 110.662 294.074 108.886 295.219C107.149 296.364 105.353 297.311 103.498 298.061C101.682 298.771 99.9057 299.127 98.1688 299.127C95.8004 299.127 93.9648 298.456 92.6622 297.114C91.399 295.732 90.7674 293.837 90.7674 291.429C90.7674 289.929 91.0043 288.113 91.478 285.982C91.9516 283.85 92.5438 281.6 93.2543 279.232C94.0043 276.824 94.7543 274.475 95.5043 272.186C94.2412 273.054 92.8596 274.357 91.3595 276.093C89.899 277.791 88.3595 279.725 86.741 281.896C85.1226 284.028 83.5042 286.199 81.8857 288.409C80.3067 290.62 78.7672 292.673 77.2672 294.567C75.8067 296.423 74.4448 297.923 73.1816 299.067C71.9185 300.212 70.8329 300.785 69.925 300.785ZM117.274 299.66C115.774 299.66 114.531 298.969 113.544 297.587C112.597 296.166 112.123 294.331 112.123 292.081C112.123 289.988 112.636 287.916 113.662 285.863C114.728 283.811 116.129 281.837 117.866 279.942C119.603 278.047 121.498 276.311 123.551 274.732C125.603 273.113 127.656 271.712 129.709 270.528C131.801 269.343 133.715 268.416 135.452 267.745C137.189 267.074 138.571 266.738 139.597 266.738C140.15 266.738 140.603 266.857 140.959 267.093C141.314 267.291 141.492 267.666 141.492 268.218C141.492 268.574 141.354 268.909 141.077 269.225C141.117 269.225 141.156 269.225 141.196 269.225C142.064 269.225 142.498 269.738 142.498 270.764C142.498 271.12 142.36 271.85 142.084 272.955C141.807 274.021 141.492 275.363 141.136 276.982C140.781 278.6 140.465 280.396 140.189 282.37C139.913 284.304 139.775 286.278 139.775 288.291C139.775 289.988 140.426 290.837 141.729 290.837C143.189 290.837 144.669 290.502 146.169 289.831C147.669 289.159 149.13 288.35 150.551 287.403C151.972 286.416 153.275 285.449 154.459 284.502C155.643 283.515 156.65 282.686 157.479 282.015C158.308 281.344 158.9 281.008 159.255 281.008C159.571 281.008 159.847 281.107 160.084 281.304C160.321 281.501 160.439 281.817 160.439 282.251C160.439 282.646 160.045 283.357 159.255 284.383C158.466 285.409 157.42 286.574 156.117 287.877C154.814 289.179 153.354 290.442 151.735 291.666C150.117 292.89 148.459 293.896 146.761 294.686C145.064 295.475 143.446 295.87 141.906 295.87C140.722 295.87 139.636 295.515 138.65 294.804C137.702 294.054 136.932 292.791 136.34 291.015C135.788 289.238 135.511 286.791 135.511 283.673V282.192C133.577 285.39 131.544 288.311 129.413 290.956C127.32 293.6 125.228 295.712 123.136 297.291C121.083 298.87 119.13 299.66 117.274 299.66ZM138.472 271.001C138.275 271.08 137.998 271.199 137.643 271.357C135.827 272.186 133.932 273.212 131.959 274.436C130.024 275.659 128.13 277.021 126.274 278.521C124.459 280.021 122.82 281.58 121.36 283.199C119.899 284.817 118.735 286.455 117.866 288.113C116.998 289.771 116.564 291.39 116.564 292.969C116.564 293.482 116.662 293.877 116.86 294.153C117.097 294.429 117.491 294.567 118.044 294.567C118.833 294.567 119.86 294.074 121.123 293.087C122.386 292.061 123.768 290.719 125.268 289.061C126.807 287.403 128.347 285.567 129.886 283.554C131.426 281.541 132.886 279.508 134.268 277.455C135.689 275.403 136.913 273.508 137.939 271.771C138.097 271.495 138.275 271.238 138.472 271.001ZM163.349 298.949C161.415 298.949 159.738 298.515 158.316 297.646C156.935 296.739 155.869 295.574 155.119 294.153C154.369 292.732 153.994 291.271 153.994 289.771C153.994 286.613 154.547 283.732 155.652 281.126C156.757 278.482 158.139 276.153 159.797 274.14C161.494 272.087 163.231 270.35 165.007 268.929C166.823 267.508 168.461 266.442 169.922 265.731C171.422 264.981 172.488 264.606 173.119 264.606C174.383 264.606 175.014 265.238 175.014 266.501C175.014 267.093 174.619 267.784 173.83 268.574C173.04 269.324 172.034 270.212 170.81 271.238C169.586 272.264 168.284 273.429 166.902 274.732C165.521 275.995 164.218 277.436 162.994 279.054C161.77 280.633 160.764 282.409 159.974 284.383C159.185 286.317 158.79 288.449 158.79 290.778C158.79 293.146 159.757 294.331 161.692 294.331C163.468 294.331 165.284 293.995 167.139 293.324C169.034 292.653 170.889 291.785 172.705 290.719C174.56 289.613 176.336 288.469 178.034 287.284C179.731 286.1 181.271 284.975 182.652 283.909C184.034 282.804 185.198 281.916 186.146 281.245C187.093 280.574 187.764 280.238 188.159 280.238C188.949 280.238 189.343 280.672 189.343 281.541C189.343 282.212 188.889 283.1 187.981 284.205C187.073 285.311 185.85 286.515 184.31 287.817C182.771 289.12 181.054 290.442 179.159 291.785C177.264 293.087 175.35 294.291 173.415 295.396C171.481 296.462 169.626 297.331 167.85 298.002C166.113 298.633 164.613 298.949 163.349 298.949ZM211.857 301.258C209.291 301.258 206.922 300.646 204.751 299.423C202.62 298.199 200.685 296.62 198.948 294.686C197.251 292.752 195.731 290.679 194.389 288.469C193.087 286.219 191.961 284.107 191.014 282.133C190.343 285.33 189.81 287.916 189.415 289.89C189.06 291.863 188.764 293.363 188.527 294.39C188.33 295.416 188.132 296.107 187.935 296.462C187.738 296.817 187.481 296.995 187.165 296.995C186.297 296.995 185.468 296.521 184.678 295.574C183.889 294.627 183.494 293.403 183.494 291.903C183.494 290.324 183.771 288.232 184.323 285.627C184.876 282.982 185.606 280.061 186.514 276.863C187.461 273.626 188.547 270.291 189.771 266.857C190.994 263.383 192.258 260.008 193.56 256.731C194.902 253.416 196.244 250.396 197.587 247.672C198.258 246.33 198.83 245.461 199.304 245.067C199.817 244.672 200.429 244.475 201.139 244.475C202.284 244.475 202.856 245.008 202.856 246.073C202.856 246.468 202.738 246.902 202.501 247.376C202.304 247.85 202.087 248.383 201.85 248.975C201.139 250.712 200.35 252.666 199.481 254.837C198.652 257.008 197.804 259.277 196.935 261.646C196.106 264.014 195.317 266.363 194.567 268.692C193.817 271.021 193.165 273.172 192.613 275.146C194.31 273.962 196.304 272.778 198.593 271.593C200.883 270.409 203.251 269.343 205.699 268.396C208.146 267.409 210.455 266.62 212.626 266.028C214.797 265.435 216.593 265.139 218.015 265.139C218.765 265.139 219.337 265.376 219.732 265.85C220.166 266.284 220.383 266.778 220.383 267.33C220.383 267.764 220.245 268.199 219.968 268.633C219.732 269.028 219.218 269.383 218.429 269.699C215.824 270.607 213.238 271.534 210.672 272.482C208.106 273.39 205.422 274.376 202.62 275.442C199.856 276.468 196.837 277.692 193.56 279.113C194.587 280.85 195.791 282.725 197.172 284.738C198.554 286.712 200.034 288.587 201.613 290.363C203.192 292.1 204.81 293.541 206.468 294.686C208.126 295.791 209.784 296.344 211.442 296.344C213.613 296.344 215.705 295.89 217.718 294.982C219.732 294.074 221.587 292.969 223.284 291.666C225.021 290.363 226.541 289.1 227.844 287.877C229.146 286.613 230.173 285.627 230.923 284.916C231.317 284.561 231.673 284.324 231.988 284.205C232.344 284.048 232.659 283.969 232.936 283.969C233.488 283.969 233.863 284.265 234.061 284.857C234.298 285.409 234.1 286.021 233.469 286.692C232.995 287.245 232.265 288.094 231.278 289.238C230.291 290.383 229.087 291.646 227.666 293.028C226.284 294.37 224.745 295.673 223.047 296.936C221.39 298.199 219.593 299.225 217.659 300.015C215.764 300.844 213.83 301.258 211.857 301.258ZM248.352 271.653C248.352 274.179 247.148 276.626 244.741 278.995C242.333 281.363 238.662 283.534 233.727 285.508C233.569 286.495 233.49 287.324 233.49 287.995C233.49 289.574 233.688 290.719 234.083 291.429C234.517 292.14 235.227 292.495 236.214 292.495C237.675 292.495 239.313 292.041 241.129 291.133C242.944 290.186 244.82 288.982 246.754 287.521C248.688 286.021 250.583 284.442 252.438 282.784C254.333 281.126 256.07 279.567 257.649 278.107C259.228 276.607 260.57 275.403 261.675 274.495C262.78 273.547 263.53 273.074 263.925 273.074C264.478 273.074 264.932 273.33 265.287 273.843C265.642 274.317 265.82 274.968 265.82 275.797C265.82 276.824 265.761 278.008 265.642 279.35C265.524 280.653 265.386 282.034 265.228 283.495C266.254 280.613 267.537 278.107 269.076 275.975C270.655 273.804 272.333 272.008 274.109 270.587C275.886 269.166 277.623 268.1 279.32 267.389C281.017 266.679 282.478 266.324 283.702 266.324C284.846 266.324 285.695 266.541 286.248 266.975C286.8 267.409 287.077 267.922 287.077 268.514C287.077 269.067 286.82 269.58 286.307 270.054C285.833 270.488 284.728 271.061 282.991 271.771C280.978 272.561 279.083 273.488 277.307 274.554C275.57 275.62 273.952 277.08 272.451 278.936C270.951 280.751 269.609 283.179 268.425 286.219C267.241 289.258 266.234 293.166 265.405 297.942C265.247 298.89 264.971 299.561 264.576 299.956C264.182 300.39 263.708 300.607 263.155 300.607C262.761 300.607 262.366 300.429 261.971 300.074C261.576 299.758 261.261 298.989 261.024 297.765C260.787 296.502 260.668 294.528 260.668 291.844C260.668 290.028 260.747 288.054 260.905 285.923C261.103 283.791 261.379 281.561 261.734 279.232C259.918 281.205 257.905 283.278 255.695 285.449C253.484 287.58 251.195 289.574 248.826 291.429C246.458 293.245 244.129 294.725 241.839 295.87C239.55 297.015 237.418 297.587 235.444 297.587C233.352 297.587 231.675 296.857 230.411 295.396C229.148 293.936 228.517 291.765 228.517 288.883C228.517 285.567 228.951 282.528 229.819 279.765C230.688 277.001 231.813 274.613 233.194 272.6C234.576 270.547 236.056 268.968 237.635 267.863C239.214 266.758 240.734 266.205 242.194 266.205C244.168 266.205 245.688 266.718 246.754 267.745C247.82 268.732 248.352 270.034 248.352 271.653ZM234.675 281.186C235.859 280.357 237.142 279.429 238.523 278.403C239.944 277.376 241.148 276.33 242.135 275.265C243.162 274.159 243.675 273.153 243.675 272.245C243.675 271.692 243.537 271.297 243.26 271.061C242.984 270.824 242.51 270.705 241.839 270.705C240.773 270.705 239.787 271.238 238.879 272.304C237.971 273.33 237.162 274.653 236.451 276.271C235.74 277.85 235.148 279.488 234.675 281.186Z" fill="black"/>
<path d="M372.709 228.601C378.934 228.953 382.049 226.923 392.375 229.691C395.144 230.443 397.368 230.853 399.283 231.046C401.029 231.224 402.518 231.218 404.056 231.19C405.589 231.329 407.135 230.52 410.495 232.635C413.418 234.941 414.263 236.285 416.062 238.386C416.585 239.031 417.142 239.743 417.728 240.527C419.612 243.046 421.533 245.857 423.395 248.698C423.931 249.516 424.465 250.329 425.018 251.171C425.296 251.597 425.573 252.017 425.906 252.545C426.076 252.817 426.258 253.104 426.507 253.558C426.734 254.016 427.173 254.686 427.407 256.151C427.585 257.274 427.331 258.411 427.138 258.931C426.938 259.494 426.779 259.77 426.65 260.007C426.393 260.456 426.227 260.682 426.064 260.912C425.747 261.349 425.485 261.675 425.221 262.005C424.698 262.655 424.203 263.252 423.71 263.85C418.93 269.07 415.389 271.321 413.165 273.852C411.942 275.163 410.662 276.605 409.412 278.159C405.484 283.009 400.74 288.663 394.99 293.929C394.913 293.999 394.836 294.067 394.76 294.137C391.626 296.875 389.244 300.316 384.797 304.273C381.934 306.652 379.446 309.001 376.66 311.81C376.026 312.396 375.231 313.218 373.665 313.933C372.202 314.589 370.844 314.322 370.227 314.116C369.549 313.888 369.243 313.68 368.965 313.501C368.488 313.175 368.277 312.957 368.096 312.78C367.753 312.43 367.584 312.207 367.424 311.999C367.114 311.588 366.911 311.272 366.713 310.96C366.326 310.342 366.014 309.789 365.711 309.235C365.113 308.134 364.583 307.067 364.082 306.009C363.974 305.783 363.867 305.556 363.758 305.324C362.457 302.542 361.77 300.377 360.53 297.975C358.565 294.094 356.2 289.995 354.123 286.172C352.091 282.466 350.429 278.958 349.096 276.558C348.791 276.023 348.522 275.528 348.277 275.073C347.461 273.552 346.786 272.314 346.165 271.221C344.11 267.584 342.746 265.7 339.524 261.142C339.492 261.096 339.46 261.05 339.428 261.003C337.788 258.632 336.031 255.183 335.129 251.86L335.108 251.814C334.682 250.38 334.267 248.957 333.877 247.578C333.826 247.395 333.782 247.227 333.747 247.068L333.759 247.092C333.313 245.824 333.601 245.478 334.631 246.478C335.179 246.362 335.906 246.115 336.751 245.634C337.731 245.074 338.248 245.15 338.856 245.293C339.438 245.43 340.094 245.627 341.344 245.397C343.888 244.928 345.485 243.793 348.398 244.797C351.076 245.734 352.098 242.996 355.43 244.371C355.178 242.624 353.7 238.69 352.293 237.592C351.418 236.935 351.282 235.833 351.332 234.819C351.369 234.1 351.491 233.42 351.475 232.927C351.464 232.609 351.508 232.333 351.581 232.095C351.308 232.082 351.043 232.072 350.789 232.067C350.529 232.063 350.272 232.064 350.077 232.081C350.055 232.083 350.033 232.086 350.013 232.088C348.855 233.149 347.923 234.268 347.321 235.132C345.998 237.055 344.137 238.743 342.24 240.145C340.245 241.612 338.3 242.878 337.026 244.005C336.266 244.677 335.627 245.187 335.147 245.566C334.944 245.728 334.782 245.738 334.651 245.685C334.48 245.619 334.45 245.306 334.645 245.016C335.588 243.615 337.058 241.627 338.688 239.11C339.07 238.522 339.43 238.019 339.777 237.575C342.179 234.556 343.396 234.314 348.01 229.419C348.012 229.417 348.013 229.416 348.015 229.414C348.705 228.877 349.097 228.874 349.389 228.794C349.68 228.736 349.898 228.714 350.102 228.693C350.501 228.655 350.835 228.637 351.158 228.619C351.799 228.585 352.385 228.557 352.957 228.524C354.096 228.457 355.172 228.374 356.231 228.285C359.982 227.907 363.987 227.47 369.579 228.289C370.728 228.455 371.753 228.553 372.709 228.601ZM416.749 257.317C416.199 257.916 415.805 258.352 415.393 258.562L415.436 258.565C414.877 258.828 414.298 258.736 413.479 258.191C412.323 257.419 411.543 258.377 410.841 258.765L410.952 258.771C410.753 258.905 410.514 258.978 410.261 258.908C409.237 258.6 409.286 257.443 404.452 257.827C402.606 257.968 401.09 258.033 399.808 258.06C398.576 258.088 397.572 258.082 396.725 258.071C396.733 258.09 396.742 258.107 396.75 258.126L396.713 258.231C397.184 260.135 397.153 260.953 395.636 262.35C393.895 263.935 395.359 265.734 394.624 266.775C394.1 267.522 393.382 267.476 392.38 269.648C391.979 270.52 391.527 271.766 391.029 273.57C389.297 279.855 388.098 283.203 387.315 285.539C386.948 286.635 386.084 288.156 385.129 289.854C384.471 291.029 383.755 292.297 383.134 293.553C383.694 292.928 384.247 292.291 384.776 291.672C385.806 290.457 387.097 289.018 388.594 287.487C392.997 283.001 398.453 276.915 402.305 272.118C403.908 270.14 405.34 268.516 406.363 267.264C410.89 261.777 412.085 262.825 416.089 259.606C416.383 259.36 416.632 259.107 416.808 258.882C417.052 258.562 417.275 258.237 417.482 257.908C417.252 257.726 417.001 257.525 416.749 257.317ZM347.263 249.948C345.848 249.116 341.339 248.217 339.643 249.021C339.308 249.177 338.968 249.239 338.64 249.236C337.595 249.225 336.58 248.577 335.759 248.112C336.344 249.091 336.815 250.049 337.231 250.935L337.21 250.888C338.03 252.647 338.64 253.848 339.56 254.621C341.391 256.127 342.591 257.001 343.6 258.477C344.227 259.384 344.803 260.533 345.466 262.182C346.867 265.633 349.074 266.703 350.561 268.222C350.929 268.599 351.251 268.998 351.513 269.47C352.217 270.739 352.268 271.585 353.387 273.614C354.494 275.497 356.006 278.263 359.356 282.831C359.527 283.062 359.706 283.306 359.889 283.55C361.666 285.923 363.279 288.071 364.729 290.072C365.116 288.833 365.477 287.718 364.882 285.626C364.149 283.071 364.219 280.387 363.888 278.559C363.765 277.873 363.588 277.307 363.299 276.92C362.235 275.504 364.378 274.851 363.374 272.713C362.365 270.582 362.314 269.163 362.518 267.025C362.644 265.7 362.314 262.811 361.645 260.374C361.231 258.865 360.711 257.521 360.142 256.784C359.224 255.598 359.151 254.035 359.214 252.632C357.137 252.353 355.294 251.509 354.293 252.02C353.053 252.654 353.114 250.42 351.395 250.779C349.676 251.141 348.68 250.775 347.263 249.948ZM371.79 253.668C369.982 252.679 368.093 255.863 365.85 255.129C365.186 254.912 364.695 254.597 364.28 254.267C363.823 253.91 363.442 253.533 362.98 253.238C363.478 254.433 363.128 255.387 364.282 257.714C364.575 258.304 364.875 258.843 365.17 259.356C366.45 261.6 367.644 263.376 367.835 266.764C368.04 270.9 371.501 271.083 370.915 277.105C370.911 277.137 370.908 277.169 370.905 277.201C370.189 283.272 373.693 283.249 375.073 288.901C375.134 289.153 375.19 289.41 375.242 289.67C375.732 288.501 376.204 287.307 376.69 286.079C377.571 283.883 378.532 281.67 379.776 279.71C382.175 275.93 385.31 270.807 387.51 267.481C387.983 266.763 388.414 266.128 388.78 265.613C390.861 262.687 391.374 261.967 392.406 258.728C392.519 258.368 392.667 257.983 392.821 257.606C391.046 257.142 388.88 256.484 386.98 256.481C384.062 256.474 378.277 255.361 375.853 255.692C373.43 256.02 373.596 254.66 371.79 253.668ZM418.123 256.688C418.118 256.723 418.112 256.759 418.108 256.796C418.126 256.76 418.141 256.723 418.158 256.687C418.147 256.687 418.135 256.687 418.123 256.688ZM407.253 242.4C407.213 242.538 407.156 242.665 407.073 242.78C406.886 242.97 406.602 243.137 406.187 243.308C404.624 243.98 406.022 245.691 405.378 246.286C404.666 246.937 404.01 246.115 402.055 250.466C404.988 251.464 407.98 252.459 409.605 253.052C410.217 253.277 410.686 253.436 411.164 253.56L411.204 253.563C411.953 253.789 412.543 253.91 413.24 253.938C412.595 253.182 411.977 252.347 411.408 251.403C409.45 248.152 408.853 246.118 407.908 243.866C407.709 243.391 407.493 242.904 407.253 242.4ZM379.511 240.098C379.062 239.994 378.537 239.885 377.846 239.997C376.129 240.301 376.687 243.312 375.297 244.519C375.195 244.611 375.074 244.689 374.93 244.751C374.128 245.119 373.374 245.074 372.636 245.149C374.39 245.712 375.941 246.228 377.026 246.296C379.329 246.439 382.377 246.479 385.536 247.197C384.913 246.247 384.24 245.321 383.479 244.602C382.378 243.565 380.915 241.728 379.531 240.122C379.524 240.114 379.517 240.106 379.511 240.098ZM396.556 247.27C396.388 247.266 396.185 247.274 395.943 247.308C395.674 247.419 395.551 247.593 395.606 247.654C395.655 247.72 395.83 247.689 396.032 247.593C396.194 247.515 396.372 247.403 396.556 247.27ZM367.109 233.399C364.978 232.921 360.663 232.586 356.085 232.38C354.887 232.302 353.688 232.218 352.538 232.147C352.84 232.566 353.342 233.084 354.083 233.586C354.126 233.615 354.169 233.644 354.209 233.674C355.793 234.77 354.729 235.483 356.266 237.305C357.867 239.151 359.589 239.752 360.31 242.505C360.431 242.954 360.621 243.298 360.851 243.574C361.124 243.866 361.463 243.868 361.74 243.766C361.783 243.808 361.846 243.849 361.931 243.88C362.555 244.074 363.241 243.692 363.612 243.267C364.006 242.824 364.196 242.265 364.336 241.647C364.63 240.406 364.674 238.923 366.207 237.212C366.788 236.573 367.505 235.956 368.337 235.387C369.056 234.91 369.807 234.482 370.572 234.087C369.476 233.891 368.351 233.662 367.109 233.399ZM361.775 243.484C361.944 243.35 362.365 243.309 362.683 243.412C362.365 243.317 362.202 243.541 361.891 243.7C361.844 243.725 361.793 243.747 361.74 243.766C361.649 243.677 361.655 243.573 361.775 243.484ZM398.454 237.887C394.467 237.233 390.952 236.564 388.625 236.567C388.873 236.926 389.114 237.294 389.345 237.674C390.371 239.365 391.974 240.941 393.46 242.558C394.535 243.719 395.592 244.914 396.173 245.898C396.313 246.134 396.44 246.347 396.559 246.536C396.651 246.681 396.743 246.816 396.916 246.987C397.086 246.848 397.259 246.7 397.425 246.548C398.377 245.669 399.256 244.722 399.92 244.098C401.786 242.337 402.219 241.895 403.296 239.725L403.36 239.645C403.377 239.617 403.394 239.589 403.411 239.56C403.572 239.294 403.762 239.025 403.98 238.761C403.756 238.722 403.52 238.683 403.278 238.645L400.386 238.197C399.738 238.096 399.09 237.992 398.454 237.887ZM407.035 242.834C407.048 242.817 407.06 242.798 407.073 242.78C407.082 242.771 407.091 242.762 407.099 242.753L407.035 242.834ZM377.953 238.444C377.949 238.448 377.94 238.485 378.242 238.724C378.271 238.744 378.302 238.766 378.336 238.79C378.167 238.616 377.993 238.452 377.953 238.444Z" fill="#29CBFF"/>
</g>
<defs>
<filter id="filter0_d_961_6687" x="0.160547" y="0.920068" width="488.16" height="383.76" filterUnits="userSpaceOnUse" color-interpolation-filters="sRGB">
<feFlood flood-opacity="0" result="BackgroundImageFix"/>
<feColorMatrix in="SourceAlpha" type="matrix" values="0 0 0 0 0 0 0 0 0 0 0 0 0 0 0 0 0 0 127 0" result="hardAlpha"/>
<feOffset dx="3.6" dy="3.6"/>
<feGaussianBlur stdDeviation="4.5"/>
<feComposite in2="hardAlpha" operator="out"/>
<feColorMatrix type="matrix" values="0 0 0 0 0 0 0 0 0 0 0 0 0 0 0 0 0 0 0.1 0"/>
<feBlend mode="normal" in2="BackgroundImageFix" result="effect1_dropShadow_961_6687"/>
<feBlend mode="normal" in="SourceGraphic" in2="effect1_dropShadow_961_6687" result="shape"/>
</filter>
</defs>
</svg>
