<svg width="583" height="232" viewBox="0 0 583 232" fill="none" xmlns="http://www.w3.org/2000/svg">
<g filter="url(#filter0_d_953_6251)">
<path d="M63.2662 187.829L19.0732 221.44H427.6H463.2H571.895L528.296 170.511L571.568 137.6L523.967 138.226L546.984 120.721L545.949 87.5492L572.753 59.0778L542.01 53.3521L510.942 30.0839L533.533 3.20008L19.1743 3.20007L46.8998 27.2472L3.2002 50.7801L18.9282 61.4578L10.642 67.7598L54.2095 83.1379L14.6199 113.248L46.5693 124.525L16.1866 147.632L63.7878 147.006L27.8809 174.315L63.2662 187.829Z" fill="#240A46" fill-opacity="0.6" shape-rendering="crispEdges"/>
</g>
<mask id="mask0_953_6251" style="mask-type:alpha" maskUnits="userSpaceOnUse" x="3" y="3" width="571" height="219">
<path d="M572.295 221.44H19.4731L63.6661 187.829L28.2808 174.315L64.1877 147.006L16.5865 147.632L46.9692 124.525L15.0198 113.248L54.6094 83.1379L11.0419 67.7598L19.3281 61.4578L3.6001 50.7801L47.2997 27.2472L19.5742 3.20007L533.933 3.20008L511.342 30.0839L542.41 53.3521L573.153 59.0778L546.349 87.5492L547.384 120.721L524.367 138.226L571.968 137.6L528.696 170.511L572.295 221.44Z" fill="#AC7AE0"/>
</mask>
<g mask="url(#mask0_953_6251)">
<rect x="-15.5996" y="-30.08" width="609.28" height="312.96" fill="#AC7AE0"/>
<path d="M221.84 -34.4354V-39.0399H224.401V-33.8534L273.041 -22.7928V-39.0399H275.601V-22.2108L324.241 -11.1512V-39.0399H326.8V-10.5692L375.441 0.491333V-39.0399H378V1.07336L426.641 12.1339V-39.0399H429.201V12.7159L477.84 23.7755V-39.0399H480.401V24.3585L529.041 35.4181V-39.0399H531.601V36.0001L580.241 47.0607V-39.0399H582.8V47.6427L594.776 50.3663L594.208 52.8624L582.8 50.2677V100.151L583.424 100.293L582.857 102.788L582.8 102.775V263.04H580.241V102.193L531.601 91.1329V141.015L572.071 150.218L571.502 152.714L531.601 143.641V193.523L560.718 200.144L560.15 202.64L531.601 196.148V246.028L549.367 250.068L548.798 252.566L531.601 248.654V263.04H529.041V248.072L480.401 237.012V263.04H477.84V236.43L429.201 225.369V263.04H426.641V224.787L378 213.728V263.04H375.499L538.013 299.994L537.445 302.49L326.8 254.591V263.04H324.241V254.009L275.601 242.949V263.04H273.041V242.366L224.401 231.307V263.04H221.84V230.724L173.201 219.664V263.04H170.641V219.082L122 208.022V263.04H119.441V207.44L70.8003 196.379V263.04H68.2407V195.797L19.6011 184.736V263.04H17.0405V184.154L-17.9761 176.193L-17.4087 173.697L17.0405 181.53V131.649L-6.62354 126.268L-6.05615 123.772L17.0405 129.023V79.1407L4.729 76.3419L5.29639 73.8468L17.0405 76.5167V26.6349L16.0815 26.4171L16.6489 23.921L17.0405 24.0099V-39.0399H19.6011V24.5919L68.2407 35.6515V-14.2303L27.4341 -23.5087L28.0015 -26.0048L68.2407 -16.8553V-39.0399H70.8003V-16.2733L119.441 -5.21277V-39.0399H122V-4.63074L170.641 6.42981V-39.0399H173.201V7.01184L221.84 18.0714V-31.8104L38.7866 -73.4344L39.354 -75.9305L221.84 -34.4354ZM326.8 251.966L375.441 263.026V213.146L326.8 202.085V251.966ZM275.601 240.324L324.241 251.384V201.503L275.601 190.443V240.324ZM480.401 234.386L529.041 245.446V195.566L480.401 184.505V234.386ZM224.401 228.682L273.041 239.742V189.86L224.401 178.8V228.682ZM429.201 222.743L477.839 233.804L477.84 183.923L429.2 172.862L429.201 222.743ZM173.201 217.039L221.84 228.1V178.218L173.201 167.157V217.039ZM378 211.102L426.641 222.161V172.28L378 161.22V211.102ZM122 205.397L170.641 216.457V166.575L122 155.515V205.397ZM326.8 199.459L375.441 210.52V160.638L326.8 149.577V199.459ZM70.8003 193.755L119.441 204.815V154.933L70.8003 143.873V193.755ZM275.601 187.817L324.241 198.877V148.995L275.601 137.936V187.817ZM19.6011 182.112L68.2407 193.173V143.291L19.6011 132.231V182.112ZM480.401 181.88L529.041 192.94V143.058L480.401 131.998V181.88ZM224.4 176.175L273.041 187.234V137.353L224.401 126.293L224.4 176.175ZM429.201 170.237L477.84 181.298V131.416L429.2 120.356L429.201 170.237ZM173.201 164.532L221.84 175.592V125.711L173.201 114.651V164.532ZM378 158.595L426.641 169.655V119.774L378 108.713V158.595ZM122 152.89L170.641 163.95V114.068L122 103.008V152.89ZM326.8 146.953L375.441 158.013V108.131L326.8 97.0704V146.953ZM70.8003 141.247L119.441 152.308V102.426L70.8003 91.3654V141.247ZM275.601 135.311L324.241 146.371V96.4884L275.601 85.4288V135.311ZM19.6011 129.606L68.2407 140.665V90.7833L19.6011 79.7228V129.606ZM480.401 129.372L529.041 140.433V90.5509L480.401 79.4904V129.372ZM224.401 123.668L273.041 134.729V84.8468L224.401 73.7863V123.668ZM429.201 117.731L477.84 128.79L477.839 78.9083L429.201 67.8478V117.731ZM173.201 112.026L221.84 123.086V73.2042L173.201 62.1437V112.026ZM378 106.088L426.641 117.149V67.2657L378 56.2052V106.088ZM122 100.384L170.641 111.443V61.5616L122 50.5011V100.384ZM326.8 94.4454L375.441 105.506V55.6241L326.8 44.5636V94.4454ZM70.8003 88.7413L119.441 99.8019V49.9191L70.8003 38.8595V88.7413ZM531.601 88.5089L580.241 99.5685V49.6857L531.601 38.6261V88.5089ZM275.601 82.8038L324.241 93.8634V43.9816L275.601 32.921V82.8038ZM19.6011 77.0988L68.2407 88.1593V38.2775L19.6011 27.2169V77.0988ZM480.401 76.8663L529.041 87.9259V38.0431L480.401 26.9835V76.8663ZM224.401 71.1613L273.041 82.2208V32.339L224.4 21.2784L224.401 71.1613ZM429.201 65.2238L477.839 76.2833L477.84 26.4015L429.201 15.3409V65.2238ZM173.201 59.5187L221.84 70.5792V20.6964L173.201 9.63684V59.5187ZM378 53.5812L426.641 64.6417V14.7589L378 3.69836V53.5812ZM122 47.8761L170.641 58.9366V9.05481L122 -2.00574V47.8761ZM326.8 41.9386L375.441 52.9991V3.11633L326.8 -7.94421V41.9386ZM70.8003 36.2335L119.441 47.2941V-2.58777L70.8003 -13.6483V36.2335ZM275.601 30.297L324.241 41.3566V-8.52625L275.601 -19.5858V30.297ZM224.4 18.6544L273.041 29.714V-20.1678L224.401 -31.2284L224.4 18.6544Z" fill="#C9A9EA" fill-opacity="0.5"/>
<g filter="url(#filter1_d_953_6251)">
<path d="M201.134 143.595L191.268 141.04L205.488 160.431L205.335 160.739L194.301 156.728L210.379 179.272L210.101 179.589L190.725 171.354L188.958 166.346L188.001 163.548C188.001 163.548 187.626 162.468 187.143 160.841C185.561 155.506 184.026 150.158 182.54 144.798C182.47 144.351 182.371 143.909 182.243 143.474C179.698 133.792 176.75 124.213 174.157 114.56C174.004 113.879 174.434 113.403 174.798 112.909C176.08 111.127 177.449 109.43 178.741 107.658C179.334 106.837 178.932 106.526 178.167 105.77C177.834 105.464 178.203 104.717 178.167 104.272C178.75 102.052 180.081 100.14 181.038 98.0974C182.32 95.3925 183.593 92.6877 185.114 90.0947C185.353 89.7049 185.498 89.2677 185.54 88.8155C185.581 88.3634 185.517 87.908 185.354 87.4831C184.987 86.7593 184.809 85.9582 184.837 85.1513C185.009 84.1533 185.034 83.5377 185.446 82.6796C185.723 82.204 185.369 81.8868 185.956 81.5511C184.923 80.0867 183.337 79.7281 182.38 78.2171C181.989 77.5744 181.98 75.9459 181.286 75.6283C181.21 75.4333 181.18 75.2243 181.196 75.0163C181.213 74.8083 181.276 74.6065 181.382 74.4251C182.645 72.1493 183.832 69.8268 185.21 67.5883C185.478 67.122 185.784 66.8142 186.358 67.1593L191.614 87.17C191.614 87.17 188.61 85.695 187.583 85.2539L194.617 99.7763L186.607 96.5025L194.7 111.316L186.177 109.309L198.617 128.718L189.354 125.92L189.134 126.116C193.466 131.943 197.785 137.75 202.091 143.539C201.951 143.63 201.788 143.683 201.62 143.692C201.452 143.702 201.285 143.669 201.134 143.595Z" fill="#230F3D"/>
<path d="M119.725 143.596L129.592 141.04L115.371 160.431L115.524 160.739L126.558 156.728L110.481 179.272L110.758 179.589L130.563 171.427L131.901 166.346L132.858 163.548C132.858 163.548 133.234 162.468 133.716 160.842C135.299 155.506 136.833 150.159 138.319 144.799C138.39 144.352 138.489 143.909 138.616 143.474C141.162 133.793 144.109 124.214 146.703 114.56C146.856 113.879 146.425 113.404 146.061 112.909C144.779 111.128 145.605 109.809 144.313 108.037C143.72 107.216 143.548 106.958 144.313 106.202C144.646 105.896 142.656 104.717 142.693 104.272C142.109 102.052 140.779 100.14 139.822 98.0978C138.54 95.3929 138.093 92.688 136.572 90.0951C136.333 89.7052 136.188 89.268 136.146 88.8159C136.105 88.3638 136.995 87.9084 136.332 87.4835C136.699 86.7596 136.05 85.9586 136.023 85.1517C135.85 84.1537 135.731 84.0231 135.32 83.165C137.15 84.0977 137.142 83.0158 137.381 82.68C138.414 81.2156 138.52 79.7881 139.477 78.2771C139.868 77.6345 138.879 75.9463 139.573 75.6287C139.649 75.4336 139.68 75.2246 139.663 75.0167C139.647 74.8087 139.583 74.6068 139.477 74.4255C138.214 72.1497 137.027 69.8272 135.649 67.5887C135.381 67.1223 135.075 66.8145 134.501 67.1596L129.229 87.0956C129.229 87.0956 132.249 85.6954 133.276 85.2543L126.242 99.7767L134.252 96.5028L126.159 111.316L134.683 109.309L122.242 128.719L131.506 125.921L131.726 126.117C127.394 131.943 123.075 137.751 118.768 143.54C118.909 143.63 119.071 143.683 119.239 143.693C119.407 143.703 119.575 143.669 119.725 143.596Z" fill="#230F3D"/>
<path d="M192.377 41.3806C192.026 39.0205 189.429 37.7775 187.477 39.1505C185.853 40.2932 184.081 41.68 182.816 43.0571C179.82 46.3186 176.36 51.8198 176.36 51.8198L187.476 68.197L191.339 60.9836C193.35 57.2278 194.097 52.9238 193.469 48.7099L192.377 41.3806Z" fill="#513B7A"/>
<path d="M128.891 41.2239C129.254 38.9083 131.786 37.6726 133.742 38.963C135.526 40.1396 137.525 41.6037 138.931 43.0571C142.085 46.3186 145.236 51.8198 145.236 51.8198L133.75 67.6783L130.091 61.2034C127.895 57.3152 127.076 52.7988 127.768 48.3868L128.891 41.2239Z" fill="#513B7A"/>
<path d="M161.022 107.904H170.562H176.287L191.551 171.352L161.022 188.414V107.904Z" fill="#513B7A"/>
<path d="M161.045 108.032H151.504H145.78L130.563 171.425L161.045 188.543V108.032Z" fill="#513B7A"/>
<path d="M133.749 67.6778L145.235 51.8193L154.999 55.4855L141.779 82.8734L133.749 67.6778Z" fill="#473772"/>
<path d="M187.476 68.2L176.36 51.8227L166.625 55.4627L179.865 82.87L187.476 68.2Z" fill="#473772"/>
<path d="M145.59 60.1702C147.132 56.2493 150.916 53.6714 155.13 53.6714L162.689 53.6716L167.885 53.6716C171.243 53.6715 174.26 55.7262 175.489 58.8513L185.024 83.089C186.443 86.6957 186.254 90.7368 184.505 94.1953L173.452 116.049L173.126 116.752C168.259 127.248 153.338 127.248 148.472 116.752L148.146 116.049L137.093 94.1953C135.344 90.7368 135.155 86.6957 136.574 83.089L145.59 60.1702Z" fill="#513B7A"/>
<mask id="mask1_953_6251" style="mask-type:alpha" maskUnits="userSpaceOnUse" x="130" y="107" width="62" height="82">
<path d="M161.043 107.082H170.584H176.308L191.573 170.915L161.043 188.08V107.082Z" fill="#513B7A"/>
<path d="M161.043 107.082H151.503H145.779L130.514 170.915L161.043 188.08V107.082Z" fill="#513B7A"/>
</mask>
<g mask="url(#mask1_953_6251)">
<path d="M145.224 110.448H177.347L184.896 143.356L161.285 178.321L137.193 143.356L145.224 110.448Z" fill="#694E9E"/>
</g>
<path d="M166.271 100.058L168.97 96.0849C169.421 95.4212 170.171 95.0238 170.973 95.0238C171.75 95.0238 172.48 95.3965 172.935 96.0258L175.853 100.058L179.211 104.942C180.309 106.538 180.179 108.678 178.896 110.129L175.853 113.571L174.342 115.436C172.653 117.52 169.472 117.52 167.783 115.436L166.271 113.571L163.229 110.129C161.946 108.678 161.815 106.538 162.913 104.942L166.271 100.058Z" fill="#9080BB"/>
<path d="M148.897 95.9669C149.295 95.3772 149.96 95.0238 150.671 95.0238C151.311 95.0238 151.918 95.3106 152.324 95.8053L155.818 100.058L159.176 104.941C160.274 106.538 160.144 108.678 158.86 110.129L155.818 113.571L154.306 115.436C152.617 117.52 149.437 117.52 147.747 115.436L146.236 113.571L143.174 110.107C141.899 108.666 141.761 106.545 142.837 104.95L148.897 95.9669Z" fill="#9080BB"/>
<path d="M156.417 67.9377C157.515 66.1752 159.445 65.104 161.522 65.1042L164.859 65.1013C164.86 65.1013 164.861 65.1022 164.861 65.1034C164.861 65.1037 164.861 65.1041 164.861 65.1044L172.009 77.6138C174.117 81.3042 174.377 85.7687 172.712 89.679L167.889 101C165.455 107.233 156.635 107.233 154.201 101L149.507 89.9801C147.769 85.9012 148.131 81.231 150.476 77.4684L156.417 67.9377Z" fill="#6D61AB"/>
<path d="M155.113 59.4306L161.045 49.0283L166.977 59.4306L173.448 74.3419L166.977 85.9396L161.045 97.5373L155.113 85.9396L148.643 74.3419L155.113 59.4306Z" fill="#9080BB"/>
<path d="M142.787 86.5748C145.004 84.6875 144.997 81.3445 142.795 79.4703C140.647 77.6424 137.306 77.9842 135.6 80.2273C134.332 81.8941 134.338 84.1712 135.597 85.8277C137.29 88.0562 140.626 88.4147 142.787 86.5748Z" fill="#827697"/>
<path d="M144.132 84.3609L145.821 83.5463C146.158 83.3841 146.042 82.8788 145.669 82.8788L139.32 82.8788L133.942 82.8788C133.658 82.8788 133.595 83.2792 133.866 83.3664C133.879 83.3707 133.892 83.3761 133.905 83.3826L135.975 84.4593C137.886 85.6422 140.241 85.8619 142.338 85.0529L144.132 84.3609Z" fill="#E6E2F0"/>
<path d="M144.226 81.8481L146.128 82.7653C146.412 82.9025 146.315 83.3302 145.999 83.3302L139.414 83.3302L134.036 83.3302C133.751 83.3302 133.688 82.9298 133.96 82.8426C133.973 82.8383 133.986 82.8329 133.999 82.8264L136.069 81.7497C137.98 80.5668 140.335 80.3471 142.432 81.1561L144.226 81.8481Z" fill="white"/>
<path d="M179.29 86.274C177.113 84.3881 177.114 81.054 179.284 79.1751C181.403 77.3408 184.682 77.6872 186.359 79.9309C187.605 81.5973 187.603 83.867 186.363 85.5282C184.693 87.7647 181.416 88.115 179.29 86.274Z" fill="#827697"/>
<path d="M177.972 84.0636L176.307 83.2467C175.974 83.0832 176.09 82.5814 176.462 82.5814L182.702 82.5814L187.985 82.5814C188.27 82.5814 188.333 82.9804 188.063 83.0688C188.05 83.0732 188.036 83.0788 188.024 83.0855L185.99 84.1619C184.115 85.3427 181.79 85.5618 179.727 84.7522L177.972 84.0636Z" fill="#E6E2F0"/>
<path d="M177.972 81.5956L176.099 82.5147C175.817 82.6531 175.915 83.0778 176.23 83.0778L182.702 83.0778L187.985 83.0778C188.27 83.0778 188.333 82.6787 188.063 82.5904C188.05 82.5859 188.036 82.5804 188.024 82.5737L185.99 81.4972C184.115 80.3165 181.79 80.0973 179.727 80.9069L177.972 81.5956Z" fill="white"/>
<path d="M156.547 123.298H165.542L174.401 130.801L166.292 137.47C166.292 137.47 163.115 137.47 161.045 137.47C158.975 137.47 155.797 137.47 155.797 137.47L147.688 130.801L156.547 123.298Z" fill="#3F2861"/>
<path d="M167.432 125.595L161.044 125.595L154.656 125.595C151.319 125.595 149.038 122.224 150.28 119.126L152.468 113.665C153.79 110.366 156.986 108.203 160.54 108.203L161.548 108.203C165.102 108.203 168.299 110.366 169.621 113.665L171.809 119.126C173.05 122.224 170.769 125.595 167.432 125.595Z" fill="#3F2961"/>
<path d="M156.547 117.794L165.542 117.794L174.401 124.713L166.769 132.359C166.769 132.359 163.115 132.359 161.045 132.359C158.975 132.359 155.32 132.359 155.32 132.359L147.688 124.713L156.547 117.794Z" fill="#9080BB"/>
<path d="M150.451 110.98L161.044 97.2466L171.638 110.98L165.743 117.897H156.349L150.451 110.98Z" fill="#BBAED5"/>
<path d="M161.046 49.0432L143.067 54.8997L148.72 74.424L158.184 54.8997L161.046 49.0432Z" fill="#6D61AB"/>
<path d="M161.046 49.0432L178.734 54.8997L173.397 74.4981L163.908 54.8997L161.046 49.0432Z" fill="#6D61AB"/>
<path d="M150.274 75.3152C149.5 74.9424 149.472 73.8498 150.227 73.4379L160.539 67.8074C160.854 67.6354 161.235 67.6352 161.55 67.8069L171.883 73.4375C172.638 73.8491 172.61 74.943 171.835 75.3155L161.502 80.2801C161.213 80.419 160.876 80.4189 160.587 80.2797L150.274 75.3152Z" fill="#BBAED5"/>
</g>
<path d="M261.932 83.512V49.8736H266.909V63.7897H276.77V49.8736H281.746V83.512H276.77V68.3977H266.909V83.512H261.932ZM286.705 83.512L295.276 49.8736H301.819L310.39 83.512H305.367L303.34 74.9872H293.801L291.774 83.512H286.705ZM294.723 70.886H302.372L300.068 61.1632C299.669 59.4428 299.331 57.9529 299.054 56.6934C298.809 55.4032 298.64 54.5276 298.548 54.0668C298.455 54.5276 298.286 55.4032 298.041 56.6934C297.795 57.9529 297.457 59.4275 297.027 61.1171L294.723 70.886ZM325.44 83.9728C323.351 83.9728 321.523 83.5888 319.957 82.8208C318.421 82.022 317.223 80.8854 316.362 79.4108C315.533 77.9056 315.118 76.1545 315.118 74.1577V59.2278C315.118 57.2003 315.533 55.4492 316.362 53.9747C317.223 52.5001 318.421 51.3788 319.957 50.6108C321.523 49.8121 323.351 49.4128 325.44 49.4128C327.529 49.4128 329.342 49.8121 330.878 50.6108C332.414 51.4096 333.596 52.5462 334.426 54.0208C335.286 55.4646 335.716 57.2003 335.716 59.2278H330.739C330.739 57.4768 330.279 56.1404 329.357 55.2188C328.435 54.2972 327.13 53.8364 325.44 53.8364C323.751 53.8364 322.43 54.2972 321.477 55.2188C320.556 56.1404 320.095 57.4614 320.095 59.1817V74.1577C320.095 75.878 320.556 77.2144 321.477 78.1667C322.43 79.0883 323.751 79.5491 325.44 79.5491C327.13 79.5491 328.435 79.0883 329.357 78.1667C330.279 77.2144 330.739 75.878 330.739 74.1577H335.716C335.716 76.1545 335.286 77.8902 334.426 79.3648C333.596 80.8393 332.414 81.976 330.878 82.7747C329.342 83.5734 327.529 83.9728 325.44 83.9728ZM342.011 83.512V49.8736H346.988V63.8819H351.457L358.323 49.8736H363.761L355.835 66.0016L364.129 83.512H358.554L351.365 68.3516H346.988V83.512H342.011ZM262.623 129.512L258.983 95.8736H263.453L265.71 120.019C265.772 120.634 265.818 121.31 265.849 122.047C265.91 122.784 265.956 123.506 265.987 124.213C266.048 124.919 266.079 125.534 266.079 126.056C266.141 125.534 266.202 124.919 266.263 124.213C266.325 123.506 266.386 122.784 266.448 122.047C266.54 121.31 266.632 120.634 266.724 120.019L269.627 95.8736H274.235L276.954 120.019C277.015 120.634 277.077 121.31 277.138 122.047C277.23 122.784 277.323 123.506 277.415 124.213C277.507 124.919 277.568 125.534 277.599 126.056C277.63 125.534 277.661 124.919 277.691 124.213C277.753 123.506 277.814 122.784 277.876 122.047C277.937 121.31 277.998 120.634 278.06 120.019L280.364 95.8736H284.695L280.917 129.512H275.157L272.438 105.043C272.377 104.398 272.315 103.723 272.254 103.016C272.192 102.279 272.131 101.572 272.07 100.896C272.008 100.19 271.947 99.606 271.885 99.1452C271.854 99.606 271.808 100.19 271.747 100.896C271.686 101.572 271.624 102.279 271.563 103.016C271.501 103.723 271.424 104.398 271.332 105.043L268.429 129.512H262.623ZM289.055 129.512V95.8736H308.823V100.297H293.94V109.836H307.211V114.213H293.94V125.088H308.823V129.512H289.055ZM325.394 129.973C323.121 129.973 321.17 129.604 319.542 128.867C317.914 128.099 316.654 127.024 315.763 125.641C314.873 124.228 314.427 122.554 314.427 120.619H319.358C319.358 122.155 319.895 123.368 320.97 124.259C322.046 125.119 323.536 125.549 325.44 125.549C327.222 125.549 328.62 125.119 329.634 124.259C330.647 123.399 331.154 122.216 331.154 120.711C331.154 119.451 330.801 118.361 330.094 117.439C329.418 116.517 328.435 115.888 327.145 115.55L322.906 114.306C320.448 113.599 318.544 112.401 317.192 110.711C315.871 108.991 315.21 106.948 315.21 104.583C315.21 102.739 315.625 101.127 316.455 99.7443C317.284 98.3619 318.467 97.2867 320.003 96.5187C321.539 95.7507 323.351 95.3667 325.44 95.3667C328.512 95.3667 330.97 96.1961 332.813 97.855C334.687 99.5139 335.639 101.741 335.67 104.537H330.693C330.693 103.062 330.217 101.91 329.265 101.081C328.343 100.22 327.038 99.7904 325.348 99.7904C323.72 99.7904 322.445 100.19 321.523 100.988C320.602 101.756 320.141 102.847 320.141 104.26C320.141 105.52 320.479 106.61 321.155 107.532C321.861 108.453 322.86 109.099 324.15 109.467L328.435 110.757C330.893 111.433 332.782 112.631 334.103 114.352C335.424 116.072 336.085 118.13 336.085 120.526C336.085 122.4 335.639 124.059 334.748 125.503C333.858 126.916 332.613 128.022 331.016 128.821C329.418 129.589 327.545 129.973 325.394 129.973ZM349.476 129.512V100.435H340.49V95.8275H363.438V100.435H354.453V129.512H349.476ZM369.18 129.512V95.8736H388.949V100.297H374.065V109.836H387.336V114.213H374.065V125.088H388.949V129.512H369.18ZM395.428 129.512V95.8736H405.98C408.1 95.8736 409.943 96.2883 411.51 97.1177C413.077 97.9164 414.29 99.0531 415.15 100.528C416.041 102.002 416.486 103.738 416.486 105.735C416.486 107.977 415.903 109.928 414.735 111.587C413.599 113.215 412.047 114.367 410.081 115.043L416.947 129.512H411.279L405.151 115.688H400.405V129.512H395.428ZM400.405 111.31H405.98C407.639 111.31 408.96 110.819 409.943 109.836C410.926 108.822 411.418 107.486 411.418 105.827C411.418 104.107 410.926 102.755 409.943 101.772C408.96 100.789 407.639 100.297 405.98 100.297H400.405V111.31ZM421.998 129.512V95.8736H428.265L438.08 123.844C438.019 122.953 437.942 121.893 437.85 120.665C437.757 119.436 437.681 118.161 437.619 116.84C437.588 115.519 437.573 114.321 437.573 113.246V95.8736H442.181V129.512H435.914L426.145 101.541C426.207 102.34 426.268 103.339 426.33 104.537C426.422 105.735 426.483 106.979 426.514 108.269C426.575 109.559 426.606 110.757 426.606 111.863V129.512H421.998Z" fill="white"/>
<path d="M261.748 175.512V141.874H268.014L277.83 169.844C277.768 168.953 277.691 167.893 277.599 166.665C277.507 165.436 277.43 164.161 277.369 162.84C277.338 161.519 277.323 160.321 277.323 159.246V141.874H281.931V175.512H275.664L265.895 147.541C265.956 148.34 266.018 149.339 266.079 150.537C266.171 151.735 266.233 152.979 266.263 154.269C266.325 155.559 266.356 156.757 266.356 157.863V175.512H261.748ZM289.055 175.512V141.874H308.823V146.297H293.94V155.836H307.211V160.213H293.94V171.088H308.823V175.512H289.055ZM316.04 175.512L312.4 141.874H316.869L319.127 166.019C319.189 166.634 319.235 167.31 319.266 168.047C319.327 168.784 319.373 169.506 319.404 170.213C319.465 170.919 319.496 171.534 319.496 172.056C319.557 171.534 319.619 170.919 319.68 170.213C319.742 169.506 319.803 168.784 319.865 168.047C319.957 167.31 320.049 166.634 320.141 166.019L323.044 141.874H327.652L330.371 166.019C330.432 166.634 330.494 167.31 330.555 168.047C330.647 168.784 330.739 169.506 330.832 170.213C330.924 170.919 330.985 171.534 331.016 172.056C331.047 171.534 331.077 170.919 331.108 170.213C331.17 169.506 331.231 168.784 331.292 168.047C331.354 167.31 331.415 166.634 331.477 166.019L333.781 141.874H338.112L334.334 175.512H328.574L325.855 151.043C325.794 150.398 325.732 149.723 325.671 149.016C325.609 148.279 325.548 147.572 325.486 146.896C325.425 146.19 325.363 145.606 325.302 145.145C325.271 145.606 325.225 146.19 325.164 146.896C325.102 147.572 325.041 148.279 324.979 149.016C324.918 149.723 324.841 150.398 324.749 151.043L321.846 175.512H316.04ZM352.149 175.973C350.06 175.973 348.232 175.589 346.665 174.821C345.129 174.022 343.931 172.885 343.071 171.411C342.241 169.906 341.827 168.155 341.827 166.158V151.228C341.827 149.2 342.241 147.449 343.071 145.975C343.931 144.5 345.129 143.379 346.665 142.611C348.232 141.812 350.06 141.413 352.149 141.413C354.238 141.413 356.05 141.812 357.586 142.611C359.122 143.41 360.305 144.546 361.134 146.021C361.994 147.465 362.425 149.2 362.425 151.228H357.448C357.448 149.477 356.987 148.14 356.065 147.219C355.144 146.297 353.838 145.836 352.149 145.836C350.459 145.836 349.138 146.297 348.186 147.219C347.264 148.14 346.803 149.461 346.803 151.182V166.158C346.803 167.878 347.264 169.214 348.186 170.167C349.138 171.088 350.459 171.549 352.149 171.549C353.838 171.549 355.144 171.088 356.065 170.167C356.987 169.214 357.448 167.878 357.448 166.158H362.425C362.425 168.155 361.994 169.89 361.134 171.365C360.305 172.839 359.122 173.976 357.586 174.775C356.05 175.573 354.238 175.973 352.149 175.973ZM378.673 175.973C376.584 175.973 374.771 175.589 373.235 174.821C371.73 174.022 370.563 172.885 369.733 171.411C368.935 169.906 368.535 168.155 368.535 166.158V151.228C368.535 149.2 368.935 147.449 369.733 145.975C370.563 144.5 371.73 143.379 373.235 142.611C374.771 141.812 376.584 141.413 378.673 141.413C380.762 141.413 382.559 141.812 384.064 142.611C385.6 143.379 386.767 144.5 387.566 145.975C388.396 147.449 388.81 149.185 388.81 151.182V166.158C388.81 168.155 388.396 169.906 387.566 171.411C386.767 172.885 385.6 174.022 384.064 174.821C382.559 175.589 380.762 175.973 378.673 175.973ZM378.673 171.549C380.362 171.549 381.637 171.088 382.497 170.167C383.388 169.214 383.834 167.878 383.834 166.158V151.228C383.834 149.477 383.388 148.14 382.497 147.219C381.637 146.297 380.362 145.836 378.673 145.836C377.014 145.836 375.739 146.297 374.848 147.219C373.957 148.14 373.512 149.477 373.512 151.228V166.158C373.512 167.878 373.957 169.214 374.848 170.167C375.739 171.088 377.014 171.549 378.673 171.549ZM394.598 175.512V141.874H400.727L404.091 152.656C404.429 153.67 404.721 154.653 404.966 155.605C405.212 156.527 405.381 157.218 405.473 157.679C405.596 157.218 405.765 156.527 405.98 155.605C406.226 154.653 406.502 153.67 406.81 152.656L410.035 141.874H416.164V175.512H411.464V164.176C411.464 162.732 411.494 161.135 411.556 159.384C411.648 157.602 411.771 155.82 411.925 154.039C412.078 152.226 412.232 150.506 412.385 148.878C412.539 147.219 412.677 145.775 412.8 144.546L407.823 160.905H403.031L397.962 144.546C398.116 145.744 398.269 147.142 398.423 148.739C398.577 150.306 398.715 151.98 398.838 153.762C398.961 155.544 399.068 157.341 399.16 159.154C399.253 160.935 399.299 162.61 399.299 164.176V175.512H394.598ZM422.597 175.512V141.874H442.365V146.297H427.482V155.836H440.753V160.213H427.482V171.088H442.365V175.512H422.597ZM448.845 175.512V141.874H459.397C461.517 141.874 463.36 142.288 464.927 143.118C466.493 143.916 467.707 145.053 468.567 146.528C469.458 148.002 469.903 149.738 469.903 151.735C469.903 153.977 469.32 155.928 468.152 157.587C467.016 159.215 465.464 160.367 463.498 161.043L470.364 175.512H464.696L458.568 161.688H453.821V175.512H448.845ZM453.821 157.31H459.397C461.056 157.31 462.377 156.819 463.36 155.836C464.343 154.822 464.834 153.486 464.834 151.827C464.834 150.107 464.343 148.755 463.36 147.772C462.377 146.789 461.056 146.297 459.397 146.297H453.821V157.31Z" fill="#240A46"/>
<path d="M235.785 150.95C236.058 149.576 238.022 149.576 238.295 150.95L239.476 156.883C239.567 157.343 239.903 157.716 240.35 157.855L246.081 159.642C247.28 160.016 247.28 161.712 246.081 162.086L240.35 163.873C239.903 164.012 239.567 164.385 239.476 164.845L238.295 170.778C238.022 172.152 236.058 172.152 235.785 170.778L234.604 164.845C234.513 164.385 234.177 164.012 233.73 163.873L227.999 162.086C226.801 161.712 226.801 160.016 227.999 159.642L233.73 157.855C234.177 157.716 234.513 157.343 234.604 156.883L235.785 150.95Z" fill="#FAB83A"/>
<path d="M235.785 150.95C236.058 149.576 238.022 149.576 238.295 150.95L239.476 156.883C239.567 157.343 239.903 157.716 240.35 157.855L246.081 159.642C247.28 160.016 247.28 161.712 246.081 162.086L240.35 163.873C239.903 164.012 239.567 164.385 239.476 164.845L238.295 170.778C238.022 172.152 236.058 172.152 235.785 170.778L234.604 164.845C234.513 164.385 234.177 164.012 233.73 163.873L227.999 162.086C226.801 161.712 226.801 160.016 227.999 159.642L233.73 157.855C234.177 157.716 234.513 157.343 234.604 156.883L235.785 150.95Z" fill="#3A1A0D" fill-opacity="0.9"/>
<path d="M202.535 161.338C203.014 159.387 205.787 159.387 206.265 161.338L209.232 173.445C209.382 174.056 209.821 174.555 210.409 174.78L221.333 178.976C222.975 179.606 222.975 181.93 221.333 182.56L210.409 186.756C209.821 186.981 209.382 187.48 209.232 188.091L206.265 200.198C205.787 202.149 203.014 202.149 202.535 200.198L199.569 188.091C199.419 187.48 198.979 186.981 198.392 186.756L187.467 182.56C185.825 181.93 185.825 179.606 187.467 178.976L198.392 174.78C198.979 174.555 199.419 174.056 199.569 173.445L202.535 161.338Z" fill="#FAB83A"/>
<path d="M202.535 161.338C203.014 159.387 205.787 159.387 206.265 161.338L209.232 173.445C209.382 174.056 209.821 174.555 210.409 174.78L221.333 178.976C222.975 179.606 222.975 181.93 221.333 182.56L210.409 186.756C209.821 186.981 209.382 187.48 209.232 188.091L206.265 200.198C205.787 202.149 203.014 202.149 202.535 200.198L199.569 188.091C199.419 187.48 198.979 186.981 198.392 186.756L187.467 182.56C185.825 181.93 185.825 179.606 187.467 178.976L198.392 174.78C198.979 174.555 199.419 174.056 199.569 173.445L202.535 161.338Z" fill="#3A1A0D" fill-opacity="0.9"/>
<path d="M234.287 190.963C234.451 190.139 235.629 190.139 235.793 190.963L236.502 194.523C236.557 194.799 236.758 195.023 237.026 195.107L240.465 196.179C241.184 196.403 241.184 197.421 240.465 197.645L237.026 198.717C236.758 198.801 236.557 199.025 236.502 199.301L235.793 202.861C235.629 203.685 234.451 203.685 234.287 202.861L233.579 199.301C233.524 199.025 233.322 198.801 233.054 198.717L229.616 197.645C228.896 197.421 228.896 196.403 229.616 196.179L233.054 195.107C233.322 195.023 233.524 194.799 233.579 194.523L234.287 190.963Z" fill="#FAB83A"/>
<path d="M234.287 190.963C234.451 190.139 235.629 190.139 235.793 190.963L236.502 194.523C236.557 194.799 236.758 195.023 237.026 195.107L240.465 196.179C241.184 196.403 241.184 197.421 240.465 197.645L237.026 198.717C236.758 198.801 236.557 199.025 236.502 199.301L235.793 202.861C235.629 203.685 234.451 203.685 234.287 202.861L233.579 199.301C233.524 199.025 233.322 198.801 233.054 198.717L229.616 197.645C228.896 197.421 228.896 196.403 229.616 196.179L233.054 195.107C233.322 195.023 233.524 194.799 233.579 194.523L234.287 190.963Z" fill="#3A1A0D" fill-opacity="0.9"/>
<path d="M224.905 145.19C225.178 143.816 227.142 143.816 227.416 145.19L228.596 151.123C228.688 151.583 229.023 151.956 229.47 152.095L235.201 153.882C236.4 154.256 236.4 155.952 235.201 156.326L229.47 158.113C229.023 158.252 228.688 158.625 228.596 159.085L227.416 165.018C227.142 166.392 225.178 166.392 224.905 165.018L223.724 159.085C223.633 158.625 223.297 158.252 222.85 158.113L217.119 156.326C215.921 155.952 215.921 154.256 217.119 153.882L222.85 152.095C223.297 151.956 223.633 151.583 223.724 151.123L224.905 145.19Z" fill="#FAB83A"/>
<path d="M191.655 155.578C192.133 153.627 194.907 153.627 195.385 155.578L198.352 167.685C198.501 168.296 198.941 168.795 199.528 169.02L210.453 173.216C212.095 173.846 212.095 176.17 210.453 176.801L199.528 180.996C198.941 181.222 198.501 181.72 198.352 182.331L195.385 194.438C194.907 196.389 192.133 196.389 191.655 194.438L188.688 182.331C188.538 181.72 188.099 181.222 187.512 180.996L176.587 176.801C174.945 176.17 174.945 173.846 176.587 173.216L187.512 169.02C188.099 168.795 188.538 168.296 188.688 167.685L191.655 155.578Z" fill="#FAB83A"/>
<path d="M223.407 185.203C223.571 184.379 224.75 184.379 224.914 185.203L225.622 188.763C225.677 189.039 225.878 189.263 226.146 189.347L229.585 190.419C230.304 190.643 230.304 191.661 229.585 191.885L226.146 192.957C225.878 193.041 225.677 193.265 225.622 193.541L224.914 197.101C224.75 197.925 223.571 197.925 223.407 197.101L222.699 193.541C222.644 193.265 222.443 193.041 222.174 192.957L218.736 191.885C218.017 191.661 218.017 190.643 218.736 190.419L222.174 189.347C222.443 189.263 222.644 189.039 222.699 188.763L223.407 185.203Z" fill="#FAB83A"/>
</g>
<defs>
<filter id="filter0_d_953_6251" x="0.800195" y="0.800073" width="581.553" height="230.24" filterUnits="userSpaceOnUse" color-interpolation-filters="sRGB">
<feFlood flood-opacity="0" result="BackgroundImageFix"/>
<feColorMatrix in="SourceAlpha" type="matrix" values="0 0 0 0 0 0 0 0 0 0 0 0 0 0 0 0 0 0 127 0" result="hardAlpha"/>
<feOffset dx="3.6" dy="3.6"/>
<feGaussianBlur stdDeviation="3"/>
<feComposite in2="hardAlpha" operator="out"/>
<feColorMatrix type="matrix" values="0 0 0 0 0 0 0 0 0 0 0 0 0 0 0 0 0 0 0.2 0"/>
<feBlend mode="normal" in2="BackgroundImageFix" result="effect1_dropShadow_953_6251"/>
<feBlend mode="normal" in="SourceGraphic" in2="effect1_dropShadow_953_6251" result="shape"/>
</filter>
<filter id="filter1_d_953_6251" x="97.6805" y="27.52" width="125.775" height="177.664" filterUnits="userSpaceOnUse" color-interpolation-filters="sRGB">
<feFlood flood-opacity="0" result="BackgroundImageFix"/>
<feColorMatrix in="SourceAlpha" type="matrix" values="0 0 0 0 0 0 0 0 0 0 0 0 0 0 0 0 0 0 127 0" result="hardAlpha"/>
<feOffset dy="3.84"/>
<feGaussianBlur stdDeviation="6.4"/>
<feComposite in2="hardAlpha" operator="out"/>
<feColorMatrix type="matrix" values="0 0 0 0 0.317647 0 0 0 0 0.231373 0 0 0 0 0.478431 0 0 0 0.6 0"/>
<feBlend mode="normal" in2="BackgroundImageFix" result="effect1_dropShadow_953_6251"/>
<feBlend mode="normal" in="SourceGraphic" in2="effect1_dropShadow_953_6251" result="shape"/>
</filter>
</defs>
</svg>
