<svg width="582" height="232" viewBox="0 0 582 232" fill="none" xmlns="http://www.w3.org/2000/svg">
<g filter="url(#filter0_d_996_7731)">
<path d="M62.8663 187.829L18.6733 221.44H427.2H462.8H571.496L527.896 170.511L571.168 137.6L523.567 138.226L546.584 120.721L545.549 87.5492L572.353 59.0778L541.61 53.3521L510.543 30.0839L533.133 3.20008L18.7744 3.20007L46.4999 27.2472L2.80029 50.7801L18.5283 61.4578L10.2421 67.7598L53.8096 83.1379L14.22 113.248L46.1694 124.525L15.7867 147.632L63.3879 147.006L27.481 174.315L62.8663 187.829Z" fill="#05313F" fill-opacity="0.6" shape-rendering="crispEdges"/>
</g>
<mask id="mask0_996_7731" style="mask-type:alpha" maskUnits="userSpaceOnUse" x="3" y="3" width="570" height="219">
<path d="M571.895 221.44H19.0732L63.2662 187.829L27.8809 174.315L63.7878 147.006L16.1866 147.632L46.5693 124.525L14.6199 113.248L54.2095 83.1379L10.642 67.7598L18.9282 61.4578L3.2002 50.7801L46.8998 27.2472L19.1743 3.20007L533.533 3.20008L510.942 30.0839L542.01 53.3521L572.753 59.0778L545.949 87.5492L546.984 120.721L523.967 138.226L571.568 137.6L528.296 170.511L571.895 221.44Z" fill="#AC7AE0"/>
</mask>
<g mask="url(#mask0_996_7731)">
<rect x="-16" y="-30.08" width="609.28" height="312.96" fill="#2FA3AF"/>
<path d="M79.3813 111.26L79.9858 112.043L79.3813 112.826L-25.4253 248.505L-26.438 247.723L-27.4507 246.94L76.7505 112.043L-27.4507 -22.8549L-25.4253 -24.4193L79.3813 111.26ZM133.628 111.26L134.233 112.043L133.628 112.826L28.8218 248.505L27.8091 247.723L26.7964 246.94L130.998 112.043L26.7964 -22.8549L28.8218 -24.4193L133.628 111.26ZM187.875 111.26L188.48 112.043L187.875 112.826L83.0688 248.505L82.0562 247.723L81.0435 246.94L185.245 112.043L81.0435 -22.8549L83.0688 -24.4193L187.875 111.26ZM242.122 111.26L242.726 112.043L242.122 112.826L137.315 248.505L136.302 247.723L135.29 246.94L239.491 112.043L135.29 -22.8549L137.315 -24.4193L242.122 111.26ZM296.368 111.26L296.972 112.043L296.368 112.826L191.561 248.505L190.548 247.723L189.536 246.94L293.737 112.043L189.536 -22.8549L191.561 -24.4193L296.368 111.26ZM350.615 111.26L351.219 112.043L350.615 112.826L245.808 248.505L244.795 247.723L243.783 246.94L347.984 112.043L243.783 -22.8549L245.808 -24.4193L350.615 111.26ZM404.861 111.26L405.465 112.043L404.861 112.826L300.054 248.505L299.042 247.723L298.029 246.94L402.23 112.043L298.029 -22.8549L300.054 -24.4193L404.861 111.26ZM459.108 111.26L459.712 112.043L459.108 112.826L354.301 248.505L353.289 247.723L352.276 246.94L456.477 112.043L352.276 -22.8549L354.301 -24.4193L459.108 111.26ZM513.354 111.26L513.958 112.043L513.354 112.826L408.547 248.505L407.535 247.723L406.522 246.94L510.723 112.043L406.522 -22.8549L408.547 -24.4193L513.354 111.26ZM567.601 111.26L568.206 112.043L567.601 112.826L462.794 248.505L461.782 247.723L460.769 246.94L564.97 112.043L460.769 -22.8549L462.794 -24.4193L567.601 111.26ZM621.847 111.26L622.452 112.043L621.847 112.826L517.041 248.505L516.028 247.723L515.015 246.94L619.216 112.043L515.015 -22.8549L517.041 -24.4193L621.847 111.26Z" fill="#92E4FF" fill-opacity="0.3"/>
<g filter="url(#filter1_d_996_7731)">
<path d="M200.734 143.595L190.868 141.04L205.089 160.431L204.935 160.739L193.901 156.728L209.979 179.272L209.701 179.589L190.325 171.354L188.558 166.346L187.601 163.548C187.601 163.548 187.226 162.468 186.743 160.841C185.161 155.506 183.627 150.158 182.14 144.798C182.07 144.351 181.971 143.909 181.843 143.474C179.298 133.792 176.35 124.213 173.757 114.56C173.604 113.879 174.034 113.403 174.398 112.909C175.68 111.127 177.049 109.43 178.341 107.658C178.934 106.837 178.532 106.526 177.767 105.77C177.434 105.464 177.803 104.717 177.767 104.272C178.35 102.052 179.681 100.14 180.638 98.0974C181.92 95.3925 183.193 92.6877 184.714 90.0947C184.953 89.7049 185.098 89.2677 185.14 88.8155C185.181 88.3634 185.118 87.908 184.954 87.4831C184.587 86.7593 184.409 85.9582 184.437 85.1513C184.609 84.1533 184.634 83.5377 185.046 82.6796C185.323 82.204 184.969 81.8868 185.557 81.5511C184.523 80.0867 182.937 79.7281 181.98 78.2171C181.589 77.5744 181.58 75.9459 180.886 75.6283C180.811 75.4333 180.78 75.2243 180.796 75.0163C180.813 74.8083 180.876 74.6065 180.982 74.4251C182.245 72.1493 183.432 69.8268 184.81 67.5883C185.078 67.122 185.384 66.8142 185.958 67.1593L191.214 87.17C191.214 87.17 188.21 85.695 187.183 85.2539L194.217 99.7763L186.207 96.5025L194.3 111.316L185.777 109.309L198.217 128.718L188.954 125.92L188.734 126.116C193.066 131.943 197.385 137.75 201.691 143.539C201.551 143.63 201.389 143.683 201.22 143.692C201.052 143.702 200.885 143.669 200.734 143.595Z" fill="#230F3D"/>
<path d="M119.325 143.596L129.192 141.04L114.971 160.431L115.124 160.739L126.158 156.728L110.081 179.272L110.358 179.589L130.163 171.427L131.501 166.346L132.458 163.548C132.458 163.548 132.834 162.468 133.316 160.842C134.899 155.506 136.433 150.159 137.92 144.799C137.99 144.352 138.089 143.909 138.216 143.474C140.762 133.793 143.709 124.214 146.303 114.56C146.456 113.879 146.025 113.404 145.662 112.909C144.379 111.128 145.206 109.809 143.914 108.037C143.32 107.216 143.148 106.958 143.914 106.202C144.247 105.896 142.256 104.717 142.293 104.272C141.709 102.052 140.379 100.14 139.422 98.0978C138.14 95.3929 137.693 92.688 136.172 90.0951C135.933 89.7052 135.788 89.268 135.746 88.8159C135.705 88.3638 136.595 87.9084 135.932 87.4835C136.299 86.7596 135.65 85.9586 135.623 85.1517C135.45 84.1537 135.331 84.0231 134.92 83.165C136.75 84.0977 136.742 83.0158 136.981 82.68C138.015 81.2156 138.12 79.7881 139.077 78.2771C139.469 77.6345 138.479 75.9463 139.173 75.6287C139.249 75.4336 139.28 75.2246 139.263 75.0167C139.247 74.8087 139.183 74.6068 139.077 74.4255C137.814 72.1497 136.628 69.8272 135.25 67.5887C134.982 67.1223 134.675 66.8145 134.101 67.1596L128.829 87.0956C128.829 87.0956 131.849 85.6954 132.876 85.2543L125.842 99.7767L133.852 96.5028L125.759 111.316L134.283 109.309L121.842 128.719L131.106 125.921L131.326 126.117C126.994 131.943 122.675 137.751 118.368 143.54C118.509 143.63 118.671 143.683 118.839 143.693C119.007 143.703 119.175 143.669 119.325 143.596Z" fill="#230F3D"/>
<path d="M191.977 41.3806C191.626 39.0205 189.029 37.7775 187.077 39.1505C185.453 40.2932 183.682 41.68 182.416 43.0571C179.42 46.3186 175.96 51.8198 175.96 51.8198L187.076 68.197L190.939 60.9836C192.95 57.2278 193.697 52.9238 193.069 48.7099L191.977 41.3806Z" fill="#513B7A"/>
<path d="M128.49 41.2239C128.854 38.9083 131.385 37.6726 133.342 38.963C135.126 40.1396 137.125 41.6037 138.53 43.0571C141.684 46.3186 144.836 51.8198 144.836 51.8198L133.349 67.6783L129.691 61.2034C127.494 57.3152 126.675 52.7988 127.367 48.3868L128.49 41.2239Z" fill="#513B7A"/>
<path d="M160.622 107.904H170.163H175.887L191.151 171.352L160.622 188.414V107.904Z" fill="#513B7A"/>
<path d="M160.645 108.032H151.104H145.38L130.163 171.425L160.645 188.543V108.032Z" fill="#513B7A"/>
<path d="M133.349 67.6778L144.835 51.8193L154.599 55.4855L141.379 82.8734L133.349 67.6778Z" fill="#473772"/>
<path d="M187.076 68.2L175.96 51.8227L166.225 55.4627L179.464 82.87L187.076 68.2Z" fill="#473772"/>
<path d="M145.19 60.1702C146.732 56.2493 150.516 53.6714 154.73 53.6714L162.289 53.6716L167.485 53.6716C170.844 53.6715 173.86 55.7262 175.089 58.8513L184.624 83.089C186.043 86.6957 185.854 90.7368 184.105 94.1953L173.052 116.049L172.726 116.752C167.859 127.248 152.939 127.248 148.072 116.752L147.746 116.049L136.693 94.1953C134.944 90.7368 134.755 86.6957 136.174 83.089L145.19 60.1702Z" fill="#513B7A"/>
<mask id="mask1_996_7731" style="mask-type:alpha" maskUnits="userSpaceOnUse" x="130" y="107" width="62" height="82">
<path d="M160.643 107.082H170.184H175.908L191.172 170.915L160.643 188.08V107.082Z" fill="#513B7A"/>
<path d="M160.643 107.082H151.103H145.378L130.114 170.915L160.643 188.08V107.082Z" fill="#513B7A"/>
</mask>
<g mask="url(#mask1_996_7731)">
<path d="M144.824 110.448H176.946L184.495 143.356L160.885 178.321L136.793 143.356L144.824 110.448Z" fill="#694E9E"/>
</g>
<path d="M165.871 100.058L168.57 96.0849C169.02 95.4212 169.771 95.0238 170.573 95.0238C171.35 95.0238 172.08 95.3965 172.535 96.0258L175.453 100.058L178.811 104.942C179.909 106.538 179.779 108.678 178.495 110.129L175.453 113.571L173.942 115.436C172.252 117.52 169.072 117.52 167.382 115.436L165.871 113.571L162.829 110.129C161.545 108.678 161.415 106.538 162.513 104.942L165.871 100.058Z" fill="#9080BB"/>
<path d="M148.497 95.9669C148.895 95.3772 149.56 95.0238 150.271 95.0238C150.911 95.0238 151.518 95.3106 151.925 95.8053L155.418 100.058L158.776 104.941C159.874 106.538 159.744 108.678 158.46 110.129L155.418 113.571L153.907 115.436C152.217 117.52 149.037 117.52 147.347 115.436L145.836 113.571L142.774 110.107C141.499 108.666 141.361 106.545 142.437 104.95L148.497 95.9669Z" fill="#9080BB"/>
<path d="M156.016 67.9377C157.115 66.1752 159.045 65.104 161.122 65.1042L164.459 65.1013C164.46 65.1013 164.461 65.1022 164.461 65.1034C164.461 65.1037 164.461 65.1041 164.461 65.1044L171.608 77.6138C173.717 81.3042 173.977 85.7687 172.311 89.679L167.489 101C165.055 107.233 156.234 107.233 153.8 101L149.106 89.9801C147.369 85.9012 147.731 81.231 150.076 77.4684L156.016 67.9377Z" fill="#6D61AB"/>
<path d="M154.713 59.4306L160.645 49.0283L166.576 59.4306L173.047 74.3419L166.576 85.9396L160.645 97.5373L154.713 85.9396L148.242 74.3419L154.713 59.4306Z" fill="#9080BB"/>
<path d="M142.387 86.5748C144.604 84.6875 144.597 81.3445 142.395 79.4703C140.247 77.6424 136.906 77.9842 135.2 80.2273C133.932 81.8941 133.938 84.1712 135.197 85.8277C136.89 88.0562 140.226 88.4147 142.387 86.5748Z" fill="#827697"/>
<path d="M143.732 84.3609L145.421 83.5463C145.758 83.3841 145.642 82.8788 145.269 82.8788L138.92 82.8788L133.543 82.8788C133.258 82.8788 133.195 83.2792 133.466 83.3664C133.479 83.3707 133.492 83.3761 133.505 83.3826L135.575 84.4593C137.486 85.6422 139.841 85.8619 141.938 85.0529L143.732 84.3609Z" fill="#E6E2F0"/>
<path d="M143.826 81.8481L145.728 82.7653C146.012 82.9025 145.915 83.3302 145.599 83.3302L139.014 83.3302L133.636 83.3302C133.351 83.3302 133.289 82.9298 133.56 82.8426C133.573 82.8383 133.586 82.8329 133.599 82.8264L135.669 81.7497C137.58 80.5668 139.935 80.3471 142.032 81.1561L143.826 81.8481Z" fill="white"/>
<path d="M178.891 86.274C176.713 84.3881 176.714 81.054 178.884 79.1751C181.003 77.3408 184.282 77.6872 185.959 79.9309C187.205 81.5973 187.204 83.867 185.963 85.5282C184.293 87.7647 181.016 88.115 178.891 86.274Z" fill="#827697"/>
<path d="M177.572 84.0636L175.907 83.2467C175.574 83.0832 175.69 82.5814 176.062 82.5814L182.302 82.5814L187.585 82.5814C187.87 82.5814 187.933 82.9804 187.663 83.0688C187.65 83.0732 187.637 83.0788 187.624 83.0855L185.59 84.1619C183.715 85.3427 181.39 85.5618 179.327 84.7522L177.572 84.0636Z" fill="#E6E2F0"/>
<path d="M177.572 81.5956L175.699 82.5147C175.417 82.6531 175.515 83.0778 175.83 83.0778L182.302 83.0778L187.585 83.0778C187.87 83.0778 187.933 82.6787 187.663 82.5904C187.65 82.5859 187.637 82.5804 187.624 82.5737L185.59 81.4972C183.715 80.3165 181.39 80.0973 179.327 80.9069L177.572 81.5956Z" fill="white"/>
<path d="M156.147 123.298H165.142L174.001 130.801L165.892 137.47C165.892 137.47 162.715 137.47 160.645 137.47C158.575 137.47 155.397 137.47 155.397 137.47L147.288 130.801L156.147 123.298Z" fill="#3F2861"/>
<path d="M167.032 125.595L160.644 125.595L154.256 125.595C150.92 125.595 148.639 122.224 149.88 119.126L152.068 113.665C153.39 110.366 156.586 108.203 160.14 108.203L161.148 108.203C164.702 108.203 167.899 110.366 169.221 113.665L171.409 119.126C172.65 122.224 170.369 125.595 167.032 125.595Z" fill="#3F2961"/>
<path d="M156.147 117.794L165.142 117.794L174.001 124.713L166.369 132.359C166.369 132.359 162.715 132.359 160.645 132.359C158.575 132.359 154.92 132.359 154.92 132.359L147.288 124.713L156.147 117.794Z" fill="#9080BB"/>
<path d="M150.051 110.98L160.644 97.2466L171.238 110.98L165.343 117.897H155.949L150.051 110.98Z" fill="#BBAED5"/>
<path d="M160.646 49.0432L142.667 54.8997L148.32 74.424L157.784 54.8997L160.646 49.0432Z" fill="#6D61AB"/>
<path d="M160.646 49.0432L178.334 54.8997L172.997 74.4981L163.508 54.8997L160.646 49.0432Z" fill="#6D61AB"/>
<path d="M149.875 75.3152C149.1 74.9424 149.072 73.8498 149.827 73.4379L160.139 67.8074C160.454 67.6354 160.835 67.6352 161.15 67.8069L171.483 73.4375C172.238 73.8491 172.21 74.943 171.435 75.3155L161.102 80.2801C160.813 80.419 160.476 80.4189 160.187 80.2797L149.875 75.3152Z" fill="#BBAED5"/>
</g>
<path d="M261.532 83.512V49.8736H266.508V63.7897H276.369V49.8736H281.346V83.512H276.369V68.3977H266.508V83.512H261.532ZM286.305 83.512L294.875 49.8736H301.419L309.99 83.512H304.967L302.939 74.9872H293.401L291.373 83.512H286.305ZM294.323 70.886H301.972L299.668 61.1632C299.268 59.4428 298.931 57.9529 298.654 56.6934C298.408 55.4032 298.239 54.5276 298.147 54.0668C298.055 54.5276 297.886 55.4032 297.64 56.6934C297.395 57.9529 297.057 59.4275 296.627 61.1171L294.323 70.886ZM325.04 83.9728C322.951 83.9728 321.123 83.5888 319.556 82.8208C318.02 82.022 316.822 80.8854 315.962 79.4108C315.133 77.9056 314.718 76.1545 314.718 74.1577V59.2278C314.718 57.2003 315.133 55.4492 315.962 53.9747C316.822 52.5001 318.02 51.3788 319.556 50.6108C321.123 49.8121 322.951 49.4128 325.04 49.4128C327.129 49.4128 328.941 49.8121 330.477 50.6108C332.013 51.4096 333.196 52.5462 334.025 54.0208C334.886 55.4646 335.316 57.2003 335.316 59.2278H330.339C330.339 57.4768 329.878 56.1404 328.957 55.2188C328.035 54.2972 326.729 53.8364 325.04 53.8364C323.35 53.8364 322.029 54.2972 321.077 55.2188C320.155 56.1404 319.695 57.4614 319.695 59.1817V74.1577C319.695 75.878 320.155 77.2144 321.077 78.1667C322.029 79.0883 323.35 79.5491 325.04 79.5491C326.729 79.5491 328.035 79.0883 328.957 78.1667C329.878 77.2144 330.339 75.878 330.339 74.1577H335.316C335.316 76.1545 334.886 77.8902 334.025 79.3648C333.196 80.8393 332.013 81.976 330.477 82.7747C328.941 83.5734 327.129 83.9728 325.04 83.9728ZM341.611 83.512V49.8736H346.587V63.8819H351.057L357.923 49.8736H363.36L355.435 66.0016L363.729 83.512H358.153L350.965 68.3516H346.587V83.512H341.611ZM262.223 129.512L258.582 95.8736H263.052L265.31 120.019C265.372 120.634 265.418 121.31 265.448 122.047C265.51 122.784 265.556 123.506 265.587 124.213C265.648 124.919 265.679 125.534 265.679 126.056C265.74 125.534 265.802 124.919 265.863 124.213C265.925 123.506 265.986 122.784 266.047 122.047C266.14 121.31 266.232 120.634 266.324 120.019L269.227 95.8736H273.835L276.554 120.019C276.615 120.634 276.677 121.31 276.738 122.047C276.83 122.784 276.922 123.506 277.014 124.213C277.107 124.919 277.168 125.534 277.199 126.056C277.229 125.534 277.26 124.919 277.291 124.213C277.352 123.506 277.414 122.784 277.475 122.047C277.537 121.31 277.598 120.634 277.66 120.019L279.964 95.8736H284.295L280.517 129.512H274.757L272.038 105.043C271.976 104.398 271.915 103.723 271.853 103.016C271.792 102.279 271.731 101.572 271.669 100.896C271.608 100.19 271.546 99.606 271.485 99.1452C271.454 99.606 271.408 100.19 271.347 100.896C271.285 101.572 271.224 102.279 271.162 103.016C271.101 103.723 271.024 104.398 270.932 105.043L268.029 129.512H262.223ZM288.655 129.512V95.8736H308.423V100.297H293.539V109.836H306.81V114.213H293.539V125.088H308.423V129.512H288.655ZM324.994 129.973C322.721 129.973 320.77 129.604 319.142 128.867C317.513 128.099 316.254 127.024 315.363 125.641C314.472 124.228 314.027 122.554 314.027 120.619H318.957C318.957 122.155 319.495 123.368 320.57 124.259C321.645 125.119 323.135 125.549 325.04 125.549C326.822 125.549 328.219 125.119 329.233 124.259C330.247 123.399 330.754 122.216 330.754 120.711C330.754 119.451 330.401 118.361 329.694 117.439C329.018 116.517 328.035 115.888 326.745 115.55L322.505 114.306C320.048 113.599 318.143 112.401 316.792 110.711C315.471 108.991 314.81 106.948 314.81 104.583C314.81 102.739 315.225 101.127 316.054 99.7443C316.884 98.3619 318.066 97.2867 319.602 96.5187C321.138 95.7507 322.951 95.3667 325.04 95.3667C328.112 95.3667 330.569 96.1961 332.413 97.855C334.287 99.5139 335.239 101.741 335.27 104.537H330.293C330.293 103.062 329.817 101.91 328.865 101.081C327.943 100.22 326.637 99.7904 324.948 99.7904C323.32 99.7904 322.045 100.19 321.123 100.988C320.201 101.756 319.741 102.847 319.741 104.26C319.741 105.52 320.079 106.61 320.754 107.532C321.461 108.453 322.459 109.099 323.75 109.467L328.035 110.757C330.493 111.433 332.382 112.631 333.703 114.352C335.024 116.072 335.684 118.13 335.684 120.526C335.684 122.4 335.239 124.059 334.348 125.503C333.457 126.916 332.213 128.022 330.616 128.821C329.018 129.589 327.144 129.973 324.994 129.973ZM349.076 129.512V100.435H340.09V95.8275H363.038V100.435H354.052V129.512H349.076ZM368.78 129.512V95.8736H388.548V100.297H373.664V109.836H386.935V114.213H373.664V125.088H388.548V129.512H368.78ZM395.027 129.512V95.8736H405.58C407.699 95.8736 409.543 96.2883 411.109 97.1177C412.676 97.9164 413.89 99.0531 414.75 100.528C415.641 102.002 416.086 103.738 416.086 105.735C416.086 107.977 415.502 109.928 414.335 111.587C413.198 113.215 411.647 114.367 409.681 115.043L416.547 129.512H410.879L404.75 115.688H400.004V129.512H395.027ZM400.004 111.31H405.58C407.239 111.31 408.56 110.819 409.543 109.836C410.526 108.822 411.017 107.486 411.017 105.827C411.017 104.107 410.526 102.755 409.543 101.772C408.56 100.789 407.239 100.297 405.58 100.297H400.004V111.31ZM421.598 129.512V95.8736H427.865L437.68 123.844C437.618 122.953 437.541 121.893 437.449 120.665C437.357 119.436 437.28 118.161 437.219 116.84C437.188 115.519 437.173 114.321 437.173 113.246V95.8736H441.781V129.512H435.514L425.745 101.541C425.806 102.34 425.868 103.339 425.929 104.537C426.021 105.735 426.083 106.979 426.113 108.269C426.175 109.559 426.206 110.757 426.206 111.863V129.512H421.598Z" fill="white"/>
<path d="M261.485 175.512V141.874H272.038C274.157 141.874 276.001 142.288 277.567 143.118C279.134 143.916 280.348 145.053 281.208 146.528C282.099 148.002 282.544 149.738 282.544 151.735C282.544 153.977 281.96 155.928 280.793 157.587C279.656 159.215 278.105 160.367 276.139 161.043L283.005 175.512H277.337L271.208 161.688H266.462V175.512H261.485ZM266.462 157.31H272.038C273.697 157.31 275.018 156.819 276.001 155.836C276.984 154.822 277.475 153.486 277.475 151.827C277.475 150.107 276.984 148.755 276.001 147.772C275.018 146.789 273.697 146.297 272.038 146.297H266.462V157.31ZM288.655 175.512V141.874H308.423V146.297H293.539V155.836H306.81V160.213H293.539V171.088H308.423V175.512H288.655ZM322.367 175.512V146.435H313.382V141.827H336.329V146.435H327.344V175.512H322.367ZM351.564 175.973C348.338 175.973 345.85 175.097 344.099 173.346C342.348 171.564 341.472 169.153 341.472 166.112V141.874H346.449V166.112C346.449 167.801 346.864 169.138 347.693 170.121C348.553 171.104 349.844 171.595 351.564 171.595C353.254 171.595 354.528 171.104 355.389 170.121C356.249 169.138 356.679 167.801 356.679 166.112V141.874H361.655V166.112C361.655 169.153 360.78 171.564 359.029 173.346C357.278 175.097 354.79 175.973 351.564 175.973ZM368.319 175.512V141.874H378.871C380.991 141.874 382.834 142.288 384.401 143.118C385.968 143.916 387.181 145.053 388.041 146.528C388.932 148.002 389.378 149.738 389.378 151.735C389.378 153.977 388.794 155.928 387.627 157.587C386.49 159.215 384.939 160.367 382.973 161.043L389.838 175.512H384.171L378.042 161.688H373.296V175.512H368.319ZM373.296 157.31H378.871C380.53 157.31 381.851 156.819 382.834 155.836C383.817 154.822 384.309 153.486 384.309 151.827C384.309 150.107 383.817 148.755 382.834 147.772C381.851 146.789 380.53 146.297 378.871 146.297H373.296V157.31ZM394.889 175.512V141.874H401.156L410.971 169.844C410.91 168.953 410.833 167.893 410.741 166.665C410.649 165.436 410.572 164.161 410.51 162.84C410.48 161.519 410.464 160.321 410.464 159.246V141.874H415.072V175.512H408.805L399.036 147.541C399.098 148.34 399.159 149.339 399.221 150.537C399.313 151.735 399.374 152.979 399.405 154.269C399.467 155.559 399.497 156.757 399.497 157.863V175.512H394.889ZM422.197 175.512V141.874H441.965V146.297H427.081V155.836H440.352V160.213H427.081V171.088H441.965V175.512H422.197ZM448.905 175.512V141.874H468.673V146.297H453.79V155.836H467.061V160.213H453.79V171.088H468.673V175.512H448.905Z" fill="#05313F"/>
<path d="M210.524 152.565C209.303 152.566 208.312 153.556 208.312 154.777C208.312 159.47 206.448 163.971 203.129 167.289C199.812 170.606 195.314 172.469 190.623 172.471C185.637 172.451 180.852 170.509 177.264 167.049L176.052 165.837H181.77C182.992 165.837 183.982 164.846 183.982 163.625C183.982 162.403 182.992 161.413 181.77 161.413H170.71C170.697 161.413 170.684 161.415 170.671 161.415C170.613 161.416 170.555 161.418 170.498 161.424C170.444 161.429 170.39 161.437 170.337 161.446C170.32 161.449 170.302 161.452 170.285 161.455C170.245 161.463 170.206 161.473 170.167 161.483C170.133 161.492 170.099 161.499 170.066 161.509C170.03 161.52 169.995 161.534 169.959 161.547C169.933 161.556 169.906 161.564 169.879 161.575L169.85 161.587C169.822 161.599 169.796 161.614 169.768 161.627C169.74 161.64 169.711 161.651 169.683 161.666L169.657 161.681C169.634 161.693 169.612 161.708 169.589 161.722C169.555 161.742 169.52 161.762 169.486 161.784C169.386 161.851 169.292 161.927 169.205 162.009C169.186 162.026 169.165 162.042 169.147 162.06C169.122 162.085 169.1 162.113 169.077 162.139C169.051 162.167 169.024 162.193 169 162.223C168.986 162.24 168.973 162.26 168.959 162.278C168.929 162.318 168.898 162.358 168.87 162.4C168.854 162.424 168.841 162.449 168.826 162.474C168.804 162.51 168.781 162.545 168.761 162.583C168.744 162.616 168.728 162.65 168.712 162.683C168.697 162.715 168.682 162.747 168.668 162.779C168.657 162.807 168.647 162.835 168.637 162.863C168.622 162.904 168.607 162.944 168.594 162.985C168.586 163.011 168.582 163.037 168.575 163.063C168.528 163.243 168.499 163.431 168.499 163.625V174.684C168.499 175.906 169.489 176.896 170.71 176.896C171.932 176.896 172.922 175.906 172.922 174.684V168.964L174.172 170.214C178.584 174.478 184.473 176.872 190.609 176.895H190.618C196.484 176.895 202.109 174.565 206.257 170.417C210.405 166.269 212.736 160.643 212.736 154.777C212.736 153.556 211.745 152.565 210.524 152.565ZM190.618 132.659C184.752 132.659 179.125 134.99 174.977 139.138C170.829 143.285 168.499 148.911 168.499 154.777C168.499 155.999 169.489 156.989 170.71 156.989C171.932 156.989 172.922 155.999 172.922 154.777C172.922 150.085 174.787 145.584 178.105 142.266C181.422 138.948 185.922 137.084 190.614 137.083C195.606 137.103 200.398 139.051 203.988 142.521L205.185 143.719H199.464C198.243 143.719 197.252 144.709 197.252 145.931C197.253 147.152 198.243 148.142 199.464 148.142H210.524C210.58 148.142 210.636 148.138 210.691 148.134C210.707 148.132 210.724 148.132 210.74 148.131C210.792 148.126 210.844 148.117 210.895 148.108C210.914 148.105 210.933 148.104 210.952 148.1C211.002 148.091 211.052 148.077 211.101 148.063C211.122 148.058 211.143 148.054 211.164 148.048C211.204 148.035 211.244 148.02 211.284 148.006C211.313 147.995 211.342 147.985 211.371 147.974C211.419 147.954 211.465 147.931 211.511 147.908C211.527 147.9 211.543 147.894 211.558 147.886C211.607 147.86 211.654 147.831 211.701 147.802C211.716 147.792 211.733 147.783 211.749 147.772C211.79 147.745 211.83 147.714 211.87 147.683C211.888 147.669 211.907 147.656 211.925 147.641C212.037 147.55 212.139 147.449 212.231 147.338L212.241 147.326C212.27 147.291 212.295 147.253 212.322 147.217C212.335 147.198 212.35 147.18 212.363 147.161C212.389 147.122 212.412 147.081 212.436 147.04C212.447 147.021 212.459 147.004 212.469 146.985L212.484 146.959C212.506 146.916 212.525 146.872 212.544 146.829C212.551 146.813 212.559 146.798 212.566 146.782C212.579 146.75 212.59 146.718 212.602 146.685C212.64 146.582 212.671 146.476 212.693 146.366C212.701 146.328 212.705 146.289 212.71 146.251C212.716 146.215 212.723 146.179 212.726 146.142C212.733 146.065 212.737 145.988 212.736 145.911V134.871C212.736 133.649 211.745 132.659 210.524 132.659C209.303 132.659 208.312 133.65 208.312 134.871V140.59L207.089 139.367C207.081 139.358 207.071 139.349 207.062 139.341C202.651 135.076 196.761 132.682 190.625 132.659H190.618Z" fill="white"/>
</g>
<defs>
<filter id="filter0_d_996_7731" x="0.400293" y="0.800073" width="581.553" height="230.24" filterUnits="userSpaceOnUse" color-interpolation-filters="sRGB">
<feFlood flood-opacity="0" result="BackgroundImageFix"/>
<feColorMatrix in="SourceAlpha" type="matrix" values="0 0 0 0 0 0 0 0 0 0 0 0 0 0 0 0 0 0 127 0" result="hardAlpha"/>
<feOffset dx="3.6" dy="3.6"/>
<feGaussianBlur stdDeviation="3"/>
<feComposite in2="hardAlpha" operator="out"/>
<feColorMatrix type="matrix" values="0 0 0 0 0 0 0 0 0 0 0 0 0 0 0 0 0 0 0.2 0"/>
<feBlend mode="normal" in2="BackgroundImageFix" result="effect1_dropShadow_996_7731"/>
<feBlend mode="normal" in="SourceGraphic" in2="effect1_dropShadow_996_7731" result="shape"/>
</filter>
<filter id="filter1_d_996_7731" x="97.2801" y="27.52" width="125.775" height="177.664" filterUnits="userSpaceOnUse" color-interpolation-filters="sRGB">
<feFlood flood-opacity="0" result="BackgroundImageFix"/>
<feColorMatrix in="SourceAlpha" type="matrix" values="0 0 0 0 0 0 0 0 0 0 0 0 0 0 0 0 0 0 127 0" result="hardAlpha"/>
<feOffset dy="3.84"/>
<feGaussianBlur stdDeviation="6.4"/>
<feComposite in2="hardAlpha" operator="out"/>
<feColorMatrix type="matrix" values="0 0 0 0 0.132222 0 0 0 0 0.407147 0 0 0 0 0.495833 0 0 0 0.6 0"/>
<feBlend mode="normal" in2="BackgroundImageFix" result="effect1_dropShadow_996_7731"/>
<feBlend mode="normal" in="SourceGraphic" in2="effect1_dropShadow_996_7731" result="shape"/>
</filter>
</defs>
</svg>
