<svg width="60" height="38" viewBox="0 0 60 38" fill="none" xmlns="http://www.w3.org/2000/svg">
<path d="M5.604 6.964C5.82 6.444 6.024 5.908 6.216 5.356C6.416 4.804 6.596 4.24 6.756 3.664C6.804 3.504 6.876 3.376 6.972 3.28C7.076 3.176 7.196 3.124 7.332 3.124C7.428 3.124 7.508 3.16 7.572 3.232C7.644 3.304 7.68 3.4 7.68 3.52C7.68 3.672 7.62 3.936 7.5 4.312C7.388 4.688 7.244 5.164 7.068 5.74C6.9 6.316 6.728 6.98 6.552 7.732C6.384 8.476 6.24 9.3 6.12 10.204C6.008 11.108 5.952 12.072 5.952 13.096C5.952 13.32 5.904 13.504 5.808 13.648C5.712 13.8 5.596 13.876 5.46 13.876C5.38 13.876 5.304 13.856 5.232 13.816C5.16 13.776 5.096 13.68 5.04 13.528C4.992 13.384 4.952 13.156 4.92 12.844C4.888 12.524 4.872 12.092 4.872 11.548C4.872 11.132 4.896 10.68 4.944 10.192C4.576 10.856 4.176 11.436 3.744 11.932C3.32 12.42 2.908 12.796 2.508 13.06C2.116 13.324 1.78 13.456 1.5 13.456C1.156 13.456 0.876 13.34 0.66 13.108C0.452 12.884 0.348 12.548 0.348 12.1C0.348 11.708 0.44 11.304 0.624 10.888C0.808 10.472 1.052 10.064 1.356 9.664C1.66 9.256 1.996 8.872 2.364 8.512C2.732 8.152 3.1 7.836 3.468 7.564C3.844 7.284 4.192 7.068 4.512 6.916C4.832 6.756 5.092 6.676 5.292 6.676C5.372 6.676 5.444 6.704 5.508 6.76C5.572 6.816 5.604 6.884 5.604 6.964ZM5.448 7.336C5.392 7.392 5.324 7.448 5.244 7.504C5.164 7.56 5.076 7.62 4.98 7.684C4.628 7.932 4.24 8.22 3.816 8.548C3.4 8.868 3 9.22 2.616 9.604C2.24 9.98 1.932 10.376 1.692 10.792C1.452 11.208 1.332 11.636 1.332 12.076C1.332 12.268 1.428 12.364 1.62 12.364C1.884 12.364 2.172 12.24 2.484 11.992C2.804 11.736 3.132 11.384 3.468 10.936C3.804 10.48 4.14 9.948 4.476 9.34C4.812 8.724 5.136 8.056 5.448 7.336ZM8.88028 13.228C8.75228 13.228 8.64428 13.176 8.55628 13.072C8.46828 12.968 8.42428 12.824 8.42428 12.64C8.42428 12.504 8.45228 12.28 8.50828 11.968C8.57228 11.648 8.64028 11.276 8.71228 10.852C8.79228 10.428 8.86028 9.988 8.91628 9.532C8.97228 9.068 9.00028 8.624 9.00028 8.2C9.00028 7.992 9.05228 7.84 9.15628 7.744C9.26828 7.64 9.39228 7.588 9.52828 7.588C9.65628 7.588 9.75228 7.668 9.81628 7.828C9.88028 7.988 9.89228 8.308 9.85228 8.788C10.2203 7.972 10.6243 7.316 11.0643 6.82C11.5123 6.316 11.9563 5.956 12.3963 5.74C12.8363 5.516 13.2323 5.404 13.5843 5.404C13.8163 5.404 13.9843 5.452 14.0883 5.548C14.2003 5.636 14.2563 5.736 14.2563 5.848C14.2563 6 14.1923 6.12 14.0643 6.208C13.9443 6.288 13.7323 6.384 13.4283 6.496C13.0763 6.632 12.7523 6.792 12.4563 6.976C12.1683 7.152 11.8923 7.384 11.6283 7.672C11.3723 7.96 11.1203 8.328 10.8723 8.776C10.6243 9.216 10.3763 9.76 10.1283 10.408C9.88028 11.056 9.61628 11.836 9.33628 12.748C9.28828 12.924 9.22428 13.048 9.14428 13.12C9.07228 13.192 8.98428 13.228 8.88028 13.228ZM13.9495 13.312C13.6455 13.312 13.3935 13.172 13.1935 12.892C13.0015 12.604 12.9055 12.232 12.9055 11.776C12.9055 11.352 13.0095 10.932 13.2175 10.516C13.4335 10.1 13.7175 9.7 14.0695 9.316C14.4215 8.932 14.8055 8.58 15.2215 8.26C15.6375 7.932 16.0535 7.648 16.4695 7.408C16.8935 7.168 17.2815 6.98 17.6335 6.844C17.9855 6.708 18.2655 6.64 18.4735 6.64C18.5855 6.64 18.6775 6.664 18.7495 6.712C18.8215 6.752 18.8575 6.828 18.8575 6.94C18.8575 7.012 18.8295 7.08 18.7735 7.144C18.7815 7.144 18.7895 7.144 18.7975 7.144C18.9735 7.144 19.0615 7.248 19.0615 7.456C19.0615 7.528 19.0335 7.676 18.9775 7.9C18.9215 8.116 18.8575 8.388 18.7855 8.716C18.7135 9.044 18.6495 9.408 18.5935 9.808C18.5375 10.2 18.5095 10.6 18.5095 11.008C18.5095 11.352 18.6415 11.524 18.9055 11.524C19.2015 11.524 19.5015 11.456 19.8055 11.32C20.1095 11.184 20.4055 11.02 20.6935 10.828C20.9815 10.628 21.2455 10.432 21.4855 10.24C21.7255 10.04 21.9295 9.872 22.0975 9.736C22.2655 9.6 22.3855 9.532 22.4575 9.532C22.5215 9.532 22.5775 9.552 22.6255 9.592C22.6735 9.632 22.6975 9.696 22.6975 9.784C22.6975 9.864 22.6175 10.008 22.4575 10.216C22.2975 10.424 22.0855 10.66 21.8215 10.924C21.5575 11.188 21.2615 11.444 20.9335 11.692C20.6055 11.94 20.2695 12.144 19.9255 12.304C19.5815 12.464 19.2535 12.544 18.9415 12.544C18.7015 12.544 18.4815 12.472 18.2815 12.328C18.0895 12.176 17.9335 11.92 17.8135 11.56C17.7015 11.2 17.6455 10.704 17.6455 10.072V9.772C17.2535 10.42 16.8415 11.012 16.4095 11.548C15.9855 12.084 15.5615 12.512 15.1375 12.832C14.7215 13.152 14.3255 13.312 13.9495 13.312ZM18.2455 7.504C18.2055 7.52 18.1495 7.544 18.0775 7.576C17.7095 7.744 17.3255 7.952 16.9255 8.2C16.5335 8.448 16.1495 8.724 15.7735 9.028C15.4055 9.332 15.0735 9.648 14.7775 9.976C14.4815 10.304 14.2455 10.636 14.0695 10.972C13.8935 11.308 13.8055 11.636 13.8055 11.956C13.8055 12.06 13.8255 12.14 13.8655 12.196C13.9135 12.252 13.9935 12.28 14.1055 12.28C14.2655 12.28 14.4735 12.18 14.7295 11.98C14.9855 11.772 15.2655 11.5 15.5695 11.164C15.8815 10.828 16.1935 10.456 16.5055 10.048C16.8175 9.64 17.1135 9.228 17.3935 8.812C17.6815 8.396 17.9295 8.012 18.1375 7.66C18.1695 7.604 18.2055 7.552 18.2455 7.504ZM22.7297 16.168C22.1137 16.168 21.6617 16.108 21.3737 15.988C21.0857 15.868 20.9417 15.708 20.9417 15.508C20.9417 15.38 20.9817 15.276 21.0617 15.196C21.1497 15.116 21.2577 15.076 21.3857 15.076C21.5217 15.076 21.7177 15.096 21.9737 15.136C22.2297 15.184 22.4817 15.208 22.7297 15.208C23.5537 15.208 24.2297 14.964 24.7577 14.476C25.2857 13.988 25.6897 13.24 25.9697 12.232C26.2497 11.216 26.4377 9.92 26.5337 8.344C26.2937 8.832 26.0217 9.32 25.7177 9.808C25.4217 10.288 25.1017 10.728 24.7577 11.128C24.4217 11.52 24.0737 11.836 23.7137 12.076C23.3537 12.316 22.9977 12.436 22.6457 12.436C22.3097 12.436 22.0617 12.352 21.9017 12.184C21.7497 12.016 21.6737 11.74 21.6737 11.356C21.6737 11.012 21.7697 10.648 21.9617 10.264C22.1537 9.872 22.4097 9.48 22.7297 9.088C23.0497 8.696 23.4017 8.324 23.7857 7.972C24.1697 7.612 24.5537 7.296 24.9377 7.024C25.3297 6.744 25.6937 6.524 26.0297 6.364C26.3657 6.204 26.6377 6.124 26.8457 6.124C27.0537 6.124 27.2137 6.196 27.3257 6.34C27.4377 6.484 27.4937 6.756 27.4937 7.156C27.4937 8.092 27.4617 9.004 27.3977 9.892C27.3417 10.772 27.2257 11.592 27.0497 12.352C26.8737 13.112 26.6097 13.776 26.2577 14.344C25.9137 14.92 25.4537 15.368 24.8777 15.688C24.3017 16.008 23.5857 16.168 22.7297 16.168ZM26.3177 7.168C25.9177 7.424 25.5057 7.712 25.0817 8.032C24.6577 8.352 24.2617 8.692 23.8937 9.052C23.5337 9.412 23.2417 9.784 23.0177 10.168C22.7937 10.552 22.6817 10.936 22.6817 11.32C22.6817 11.44 22.7577 11.5 22.9097 11.5C23.0297 11.5 23.1937 11.408 23.4017 11.224C23.6177 11.032 23.8577 10.78 24.1217 10.468C24.3857 10.148 24.6537 9.8 24.9257 9.424C25.2057 9.04 25.4657 8.652 25.7057 8.26C25.9457 7.868 26.1497 7.504 26.3177 7.168ZM45.4551 12.64C45.4471 12.768 45.3951 12.872 45.2991 12.952C45.2031 13.032 45.0911 13.072 44.9631 13.072C44.8191 13.072 44.6991 13.024 44.6031 12.928C44.5071 12.832 44.4591 12.684 44.4591 12.484C44.4591 11.964 44.4831 11.4 44.5311 10.792C44.5791 10.176 44.6391 9.568 44.7111 8.968C44.7831 8.36 44.8551 7.8 44.9271 7.288C44.6631 7.664 44.3751 8.08 44.0631 8.536C43.7591 8.992 43.4471 9.444 43.1271 9.892C42.8071 10.34 42.4951 10.752 42.1911 11.128C41.8871 11.496 41.6111 11.796 41.3631 12.028C41.1151 12.252 40.9111 12.364 40.7511 12.364C40.4551 12.364 40.1991 12.248 39.9831 12.016C39.7671 11.776 39.6591 11.476 39.6591 11.116C39.6591 10.972 39.6751 10.776 39.7071 10.528C39.7391 10.272 39.7751 10.004 39.8151 9.724C39.8551 9.444 39.8911 9.184 39.9231 8.944C39.9551 8.696 39.9711 8.512 39.9711 8.392C39.9711 8.28 39.9591 8.184 39.9351 8.104C39.9191 8.016 39.8791 7.972 39.8151 7.972C39.7191 7.972 39.5871 8.08 39.4191 8.296C39.2511 8.504 39.0631 8.772 38.8551 9.1C38.6551 9.428 38.4471 9.776 38.2311 10.144C38.0231 10.512 37.8271 10.86 37.6431 11.188C37.4591 11.508 37.3031 11.76 37.1751 11.944C37.0711 12.12 36.9751 12.248 36.8871 12.328C36.7991 12.408 36.6911 12.448 36.5631 12.448C36.4111 12.448 36.2711 12.368 36.1431 12.208C36.0231 12.048 35.9631 11.852 35.9631 11.62C35.9631 11.484 35.9871 11.272 36.0351 10.984C36.0831 10.688 36.1431 10.364 36.2151 10.012C36.2951 9.66 36.3711 9.316 36.4431 8.98C36.5231 8.636 36.5911 8.344 36.6471 8.104C36.7111 7.832 36.7911 7.648 36.8871 7.552C36.9831 7.456 37.0871 7.408 37.1991 7.408C37.3511 7.408 37.4711 7.464 37.5591 7.576C37.6551 7.68 37.7031 7.844 37.7031 8.068C37.7031 8.108 37.6791 8.216 37.6311 8.392C37.5831 8.56 37.5231 8.768 37.4511 9.016C37.3871 9.256 37.3151 9.508 37.2351 9.772C37.1631 10.036 37.1031 10.28 37.0551 10.504C37.2311 10.208 37.4151 9.888 37.6071 9.544C37.8071 9.2 38.0071 8.86 38.2071 8.524C38.4071 8.18 38.6071 7.868 38.8071 7.588C39.0071 7.3 39.2031 7.072 39.3951 6.904C39.5871 6.736 39.7711 6.652 39.9471 6.652C40.1551 6.652 40.3471 6.716 40.5231 6.844C40.7071 6.972 40.8551 7.144 40.9671 7.36C41.0791 7.576 41.1351 7.816 41.1351 8.08C41.1351 8.264 41.1031 8.524 41.0391 8.86C40.9751 9.188 40.9071 9.544 40.8351 9.928C40.7711 10.312 40.7311 10.676 40.7151 11.02C40.7151 11.1 40.7391 11.14 40.7871 11.14C40.8271 11.14 40.8751 11.112 40.9311 11.056C41.1631 10.8 41.4191 10.492 41.6991 10.132C41.9791 9.764 42.2631 9.376 42.5511 8.968C42.8471 8.56 43.1391 8.16 43.4271 7.768C43.7151 7.368 43.9831 7.008 44.2311 6.688C44.4871 6.36 44.7111 6.1 44.9031 5.908C45.1031 5.716 45.2591 5.62 45.3711 5.62C45.6111 5.62 45.7951 5.688 45.9231 5.824C46.0511 5.96 46.1151 6.188 46.1151 6.508C46.1151 6.764 46.0951 7.096 46.0551 7.504C46.0231 7.912 45.9791 8.356 45.9231 8.836C45.8751 9.316 45.8191 9.8 45.7551 10.288C45.6991 10.768 45.6431 11.216 45.5871 11.632C45.5311 12.04 45.4871 12.376 45.4551 12.64ZM52.6632 7.828C52.6632 8.084 52.5832 8.336 52.4232 8.584C52.2632 8.824 52.0512 9.056 51.7872 9.28C51.5232 9.496 51.2312 9.7 50.9112 9.892C50.5912 10.084 50.2712 10.252 49.9512 10.396C49.6312 10.54 49.3392 10.656 49.0752 10.744C49.0112 11.056 48.9792 11.332 48.9792 11.572C48.9792 11.724 49.0152 11.832 49.0872 11.896C49.1592 11.96 49.2712 11.992 49.4232 11.992C49.7592 11.992 50.1152 11.932 50.4912 11.812C50.8672 11.692 51.2512 11.536 51.6432 11.344C52.0352 11.152 52.4112 10.948 52.7712 10.732C53.1312 10.516 53.4592 10.312 53.7552 10.12C54.0592 9.928 54.3112 9.772 54.5112 9.652C54.7112 9.532 54.8432 9.472 54.9072 9.472C55.0032 9.472 55.0752 9.504 55.1232 9.568C55.1792 9.624 55.2072 9.692 55.2072 9.772C55.2072 9.836 55.1072 9.96 54.9072 10.144C54.7152 10.328 54.4552 10.544 54.1272 10.792C53.7992 11.032 53.4312 11.28 53.0232 11.536C52.6152 11.792 52.1912 12.032 51.7512 12.256C51.3192 12.48 50.8992 12.66 50.4912 12.796C50.0912 12.932 49.7312 13 49.4112 13C48.9952 13 48.6712 12.844 48.4392 12.532C48.2072 12.22 48.0912 11.736 48.0912 11.08C48.0912 10.64 48.1472 10.196 48.2592 9.748C48.3792 9.3 48.5392 8.872 48.7392 8.464C48.9472 8.048 49.1752 7.68 49.4232 7.36C49.6792 7.032 49.9472 6.776 50.2272 6.592C50.5072 6.4 50.7792 6.304 51.0432 6.304C51.5472 6.304 51.9432 6.444 52.2312 6.724C52.5192 7.004 52.6632 7.372 52.6632 7.828ZM49.3272 9.82C49.5752 9.668 49.8312 9.508 50.0952 9.34C50.3592 9.172 50.6032 9 50.8272 8.824C51.0512 8.648 51.2312 8.464 51.3672 8.272C51.5112 8.072 51.5832 7.868 51.5832 7.66C51.5832 7.364 51.4232 7.216 51.1032 7.216C50.9032 7.216 50.6912 7.344 50.4672 7.6C50.2512 7.848 50.0432 8.172 49.8432 8.572C49.6432 8.972 49.4712 9.388 49.3272 9.82ZM56.2654 10.036C56.1934 10.036 56.1294 10 56.0734 9.928C56.0254 9.848 56.0014 9.744 56.0014 9.616C56.0014 9.44 56.0334 9.164 56.0974 8.788C56.1694 8.404 56.2614 7.96 56.3734 7.456C56.4934 6.944 56.6294 6.412 56.7814 5.86C56.9414 5.308 57.1094 4.768 57.2854 4.24C57.4614 3.704 57.6374 3.228 57.8134 2.812C57.9334 2.532 58.0814 2.392 58.2574 2.392C58.4414 2.392 58.6094 2.48 58.7614 2.656C58.9134 2.832 58.9894 3.048 58.9894 3.304C58.9894 3.4 58.9414 3.58 58.8454 3.844C58.7574 4.108 58.6374 4.428 58.4854 4.804C58.3414 5.18 58.1814 5.584 58.0054 6.016C57.8294 6.448 57.6494 6.888 57.4654 7.336C57.2894 7.776 57.1254 8.192 56.9734 8.584C56.8214 8.976 56.7014 9.316 56.6134 9.604C56.5574 9.78 56.5054 9.896 56.4574 9.952C56.4094 10.008 56.3454 10.036 56.2654 10.036ZM55.5574 13.612C55.4374 13.612 55.3134 13.544 55.1854 13.408C55.0574 13.272 54.9934 12.996 54.9934 12.58C54.9934 12.348 55.0694 12.176 55.2214 12.064C55.3734 11.944 55.5694 11.884 55.8094 11.884C56.2174 11.884 56.4214 12.096 56.4214 12.52C56.4214 12.72 56.3734 12.9 56.2774 13.06C56.1814 13.228 56.0654 13.36 55.9294 13.456C55.8014 13.56 55.6774 13.612 55.5574 13.612Z" fill="#776780"/>
<path d="M32 18C32 22 33 30.5 22.5 29C13.616 27.7309 20.5 21 22.9065 26.1616C26.5287 33.9305 12.7456 32.9414 4 31.4184" stroke="#776780" stroke-linecap="round"/>
<path d="M9.4219 28.9254C1.4462 31.4765 3.40523 29.695 7.29983 36.7631" stroke="#776780" stroke-linecap="round"/>
</svg>
