<svg width="245" height="188" viewBox="0 0 245 188" fill="none" xmlns="http://www.w3.org/2000/svg">
<mask id="path-1-outside-1_356_2635" maskUnits="userSpaceOnUse" x="43.4199" y="0" width="158" height="50" fill="black">
<rect fill="white" x="43.4199" width="158" height="50"/>
<path d="M68.4199 49V45H76.4199V29H56.4199V45H64.4199V49H44.4199V45H48.4199V5H44.4199V1H64.4199V5H56.4199V25H76.4199V5H68.4199V1H88.4199V5H84.4199V45H88.4199V49H68.4199Z"/>
<path d="M95.1399 25V21H99.1399V25H95.1399ZM119.14 49V45H111.14V41H115.14V29H111.14V33H99.1399V45H111.14V49H95.1399V45H91.1399V33H95.1399V29H111.14V25H115.14V21H99.1399V17H119.14V21H123.14V45H127.14V49H119.14Z"/>
<path d="M153.86 45V49H137.86V45H133.86V41H129.86V25H133.86V21H141.86V25H137.86V37H141.86V41H145.86V45H153.86ZM153.86 45V37H157.86V45H153.86ZM149.86 29V21H153.86V25H157.86V29H149.86ZM149.86 21H141.86V17H149.86V21Z"/>
<path d="M200.58 45V49H180.58V45H184.58V41H180.58V37H176.58V33H172.58V45H176.58V49H160.58V45H164.58V5H160.58V1H172.58V29H180.58V33H184.58V37H188.58V41H192.58V45H200.58ZM180.58 29V25H184.58V29H180.58ZM184.58 25V21H180.58V17H192.58V21H188.58V25H184.58Z"/>
</mask>
<path d="M68.4199 49V45H76.4199V29H56.4199V45H64.4199V49H44.4199V45H48.4199V5H44.4199V1H64.4199V5H56.4199V25H76.4199V5H68.4199V1H88.4199V5H84.4199V45H88.4199V49H68.4199Z" fill="#47324C"/>
<path d="M95.1399 25V21H99.1399V25H95.1399ZM119.14 49V45H111.14V41H115.14V29H111.14V33H99.1399V45H111.14V49H95.1399V45H91.1399V33H95.1399V29H111.14V25H115.14V21H99.1399V17H119.14V21H123.14V45H127.14V49H119.14Z" fill="#47324C"/>
<path d="M153.86 45V49H137.86V45H133.86V41H129.86V25H133.86V21H141.86V25H137.86V37H141.86V41H145.86V45H153.86ZM153.86 45V37H157.86V45H153.86ZM149.86 29V21H153.86V25H157.86V29H149.86ZM149.86 21H141.86V17H149.86V21Z" fill="#47324C"/>
<path d="M200.58 45V49H180.58V45H184.58V41H180.58V37H176.58V33H172.58V45H176.58V49H160.58V45H164.58V5H160.58V1H172.58V29H180.58V33H184.58V37H188.58V41H192.58V45H200.58ZM180.58 29V25H184.58V29H180.58ZM184.58 25V21H180.58V17H192.58V21H188.58V25H184.58Z" fill="#47324C"/>
<path d="M68.4199 49H67.9199V49.5H68.4199V49ZM68.4199 45V44.5H67.9199V45H68.4199ZM76.4199 45V45.5H76.9199V45H76.4199ZM76.4199 29H76.9199V28.5H76.4199V29ZM56.4199 29V28.5H55.9199V29H56.4199ZM56.4199 45H55.9199V45.5H56.4199V45ZM64.4199 45H64.9199V44.5H64.4199V45ZM64.4199 49V49.5H64.9199V49H64.4199ZM44.4199 49H43.9199V49.5H44.4199V49ZM44.4199 45V44.5H43.9199V45H44.4199ZM48.4199 45V45.5H48.9199V45H48.4199ZM48.4199 5H48.9199V4.5H48.4199V5ZM44.4199 5H43.9199V5.5H44.4199V5ZM44.4199 1V0.5H43.9199V1H44.4199ZM64.4199 1H64.9199V0.5H64.4199V1ZM64.4199 5V5.5H64.9199V5H64.4199ZM56.4199 5V4.5H55.9199V5H56.4199ZM56.4199 25H55.9199V25.5H56.4199V25ZM76.4199 25V25.5H76.9199V25H76.4199ZM76.4199 5H76.9199V4.5H76.4199V5ZM68.4199 5H67.9199V5.5H68.4199V5ZM68.4199 1V0.5H67.9199V1H68.4199ZM88.4199 1H88.9199V0.5H88.4199V1ZM88.4199 5V5.5H88.9199V5H88.4199ZM84.4199 5V4.5H83.9199V5H84.4199ZM84.4199 45H83.9199V45.5H84.4199V45ZM88.4199 45H88.9199V44.5H88.4199V45ZM88.4199 49V49.5H88.9199V49H88.4199ZM95.1399 25H94.6399V25.5H95.1399V25ZM95.1399 21V20.5H94.6399V21H95.1399ZM99.1399 25V25.5H99.6399V25H99.1399ZM119.14 49H118.64V49.5H119.14V49ZM119.14 45H119.64V44.5H119.14V45ZM111.14 41V40.5H110.64V41H111.14ZM115.14 41V41.5H115.64V41H115.14ZM115.14 29H115.64V28.5H115.14V29ZM111.14 33V33.5H111.64V33H111.14ZM99.1399 33V32.5H98.6399V33H99.1399ZM99.1399 45H98.6399V45.5H99.1399V45ZM111.14 49V49.5H111.64V49H111.14ZM95.1399 49H94.6399V49.5H95.1399V49ZM95.1399 45H95.6399V44.5H95.1399V45ZM91.1399 45H90.6399V45.5H91.1399V45ZM91.1399 33V32.5H90.6399V33H91.1399ZM95.1399 33V33.5H95.6399V33H95.1399ZM95.1399 29V28.5H94.6399V29H95.1399ZM111.14 25V24.5H110.64V25H111.14ZM115.14 25V25.5H115.64V25H115.14ZM115.14 21H115.64V20.5H115.14V21ZM99.1399 17V16.5H98.6399V17H99.1399ZM119.14 17H119.64V16.5H119.14V17ZM119.14 21H118.64V21.5H119.14V21ZM123.14 21H123.64V20.5H123.14V21ZM123.14 45H122.64V45.5H123.14V45ZM127.14 45H127.64V44.5H127.14V45ZM127.14 49V49.5H127.64V49H127.14ZM153.86 49V49.5H154.36V49H153.86ZM137.86 49H137.36V49.5H137.86V49ZM137.86 45H138.36V44.5H137.86V45ZM133.86 45H133.36V45.5H133.86V45ZM133.86 41H134.36V40.5H133.86V41ZM129.86 41H129.36V41.5H129.86V41ZM129.86 25V24.5H129.36V25H129.86ZM133.86 25V25.5H134.36V25H133.86ZM133.86 21V20.5H133.36V21H133.86ZM141.86 25V25.5H142.36V25H141.86ZM137.86 25V24.5H137.36V25H137.86ZM137.86 37H137.36V37.5H137.86V37ZM141.86 37H142.36V36.5H141.86V37ZM141.86 41H141.36V41.5H141.86V41ZM145.86 41H146.36V40.5H145.86V41ZM145.86 45H145.36V45.5H145.86V45ZM153.86 37V36.5H153.36V37H153.86ZM157.86 37H158.36V36.5H157.86V37ZM157.86 45V45.5H158.36V45H157.86ZM149.86 29H149.36V29.5H149.86V29ZM153.86 21H154.36V20.5H153.86V21ZM153.86 25H153.36V25.5H153.86V25ZM157.86 25H158.36V24.5H157.86V25ZM157.86 29V29.5H158.36V29H157.86ZM141.86 17V16.5H141.36V17H141.86ZM149.86 17H150.36V16.5H149.86V17ZM200.58 45H201.08V44.5H200.58V45ZM200.58 49V49.5H201.08V49H200.58ZM180.58 49H180.08V49.5H180.58V49ZM180.58 45V44.5H180.08V45H180.58ZM184.58 45V45.5H185.08V45H184.58ZM184.58 41H185.08V40.5H184.58V41ZM180.58 41H180.08V41.5H180.58V41ZM180.58 37H181.08V36.5H180.58V37ZM176.58 37H176.08V37.5H176.58V37ZM176.58 33H177.08V32.5H176.58V33ZM172.58 33V32.5H172.08V33H172.58ZM172.58 45H172.08V45.5H172.58V45ZM176.58 45H177.08V44.5H176.58V45ZM176.58 49V49.5H177.08V49H176.58ZM160.58 49H160.08V49.5H160.58V49ZM160.58 45V44.5H160.08V45H160.58ZM164.58 45V45.5H165.08V45H164.58ZM164.58 5H165.08V4.5H164.58V5ZM160.58 5H160.08V5.5H160.58V5ZM160.58 1V0.5H160.08V1H160.58ZM172.58 1H173.08V0.5H172.58V1ZM172.58 29H172.08V29.5H172.58V29ZM180.58 33H180.08V33.5H180.58V33ZM184.58 33H185.08V32.5H184.58V33ZM184.58 37H184.08V37.5H184.58V37ZM188.58 37H189.08V36.5H188.58V37ZM188.58 41H188.08V41.5H188.58V41ZM192.58 41H193.08V40.5H192.58V41ZM192.58 45H192.08V45.5H192.58V45ZM180.58 25V24.5H180.08V25H180.58ZM184.58 29V29.5H185.08V29H184.58ZM184.58 21H185.08V20.5H184.58V21ZM180.58 21H180.08V21.5H180.58V21ZM180.58 17V16.5H180.08V17H180.58ZM192.58 17H193.08V16.5H192.58V17ZM192.58 21V21.5H193.08V21H192.58ZM188.58 21V20.5H188.08V21H188.58ZM188.58 25V25.5H189.08V25H188.58ZM68.4199 49H68.9199V45H68.4199H67.9199V49H68.4199ZM64.4199 45H63.9199V49H64.4199H64.9199V45H64.4199ZM44.4199 49H44.9199V45H44.4199H43.9199V49H44.4199ZM44.4199 45V45.5H48.4199V45V44.5H44.4199V45ZM48.4199 5V4.5H44.4199V5V5.5H48.4199V5ZM44.4199 5H44.9199V1H44.4199H43.9199V5H44.4199ZM64.4199 1H63.9199V5H64.4199H64.9199V1H64.4199ZM68.4199 5H68.9199V1H68.4199H67.9199V5H68.4199ZM88.4199 1H87.9199V5H88.4199H88.9199V1H88.4199ZM88.4199 5V4.5H84.4199V5V5.5H88.4199V5ZM84.4199 45V45.5H88.4199V45V44.5H84.4199V45ZM88.4199 45H87.9199V49H88.4199H88.9199V45H88.4199ZM95.1399 25H95.6399V21H95.1399H94.6399V25H95.1399ZM95.1399 21V21.5H99.1399V21V20.5H95.1399V21ZM99.1399 21H98.6399V25H99.1399H99.6399V21H99.1399ZM99.1399 25V24.5H95.1399V25V25.5H99.1399V25ZM119.14 49H119.64V45H119.14H118.64V49H119.14ZM111.14 45H111.64V41H111.14H110.64V45H111.14ZM111.14 41V41.5H115.14V41V40.5H111.14V41ZM115.14 29V28.5H111.14V29V29.5H115.14V29ZM111.14 29H110.64V33H111.14H111.64V29H111.14ZM111.14 45H110.64V49H111.14H111.64V45H111.14ZM95.1399 49H95.6399V45H95.1399H94.6399V49H95.1399ZM95.1399 45V44.5H91.1399V45V45.5H95.1399V45ZM91.1399 33V33.5H95.1399V33V32.5H91.1399V33ZM95.1399 33H95.6399V29H95.1399H94.6399V33H95.1399ZM111.14 29H111.64V25H111.14H110.64V29H111.14ZM111.14 25V25.5H115.14V25V24.5H111.14V25ZM115.14 25H115.64V21H115.14H114.64V25H115.14ZM99.1399 21H99.6399V17H99.1399H98.6399V21H99.1399ZM119.14 17H118.64V21H119.14H119.64V17H119.14ZM119.14 21V21.5H123.14V21V20.5H119.14V21ZM123.14 45V45.5H127.14V45V44.5H123.14V45ZM127.14 45H126.64V49H127.14H127.64V45H127.14ZM153.86 45H153.36V49H153.86H154.36V45H153.86ZM137.86 49H138.36V45H137.86H137.36V49H137.86ZM137.86 45V44.5H133.86V45V45.5H137.86V45ZM133.86 45H134.36V41H133.86H133.36V45H133.86ZM133.86 41V40.5H129.86V41V41.5H133.86V41ZM129.86 25V25.5H133.86V25V24.5H129.86V25ZM133.86 25H134.36V21H133.86H133.36V25H133.86ZM141.86 21H141.36V25H141.86H142.36V21H141.86ZM141.86 25V24.5H137.86V25V25.5H141.86V25ZM137.86 37V37.5H141.86V37V36.5H137.86V37ZM141.86 37H141.36V41H141.86H142.36V37H141.86ZM141.86 41V41.5H145.86V41V40.5H141.86V41ZM145.86 41H145.36V45H145.86H146.36V41H145.86ZM153.86 37V37.5H157.86V37V36.5H153.86V37ZM157.86 45V44.5H153.86V45V45.5H157.86V45ZM149.86 21V21.5H153.86V21V20.5H149.86V21ZM153.86 21H153.36V25H153.86H154.36V21H153.86ZM153.86 25V25.5H157.86V25V24.5H153.86V25ZM157.86 25H157.36V29H157.86H158.36V25H157.86ZM141.86 21H142.36V17H141.86H141.36V21H141.86ZM149.86 17H149.36V21H149.86H150.36V17H149.86ZM200.58 45H200.08V49H200.58H201.08V45H200.58ZM180.58 49H181.08V45H180.58H180.08V49H180.58ZM180.58 45V45.5H184.58V45V44.5H180.58V45ZM184.58 45H185.08V41H184.58H184.08V45H184.58ZM184.58 41V40.5H180.58V41V41.5H184.58V41ZM180.58 41H181.08V37H180.58H180.08V41H180.58ZM180.58 37V36.5H176.58V37V37.5H180.58V37ZM176.58 37H177.08V33H176.58H176.08V37H176.58ZM176.58 33V32.5H172.58V33V33.5H176.58V33ZM172.58 45V45.5H176.58V45V44.5H172.58V45ZM176.58 45H176.08V49H176.58H177.08V45H176.58ZM160.58 49H161.08V45H160.58H160.08V49H160.58ZM160.58 45V45.5H164.58V45V44.5H160.58V45ZM164.58 5V4.5H160.58V5V5.5H164.58V5ZM160.58 5H161.08V1H160.58H160.08V5H160.58ZM180.58 29H180.08V33H180.58H181.08V29H180.58ZM180.58 33V33.5H184.58V33V32.5H180.58V33ZM184.58 33H184.08V37H184.58H185.08V33H184.58ZM184.58 37V37.5H188.58V37V36.5H184.58V37ZM188.58 37H188.08V41H188.58H189.08V37H188.58ZM188.58 41V41.5H192.58V41V40.5H188.58V41ZM192.58 41H192.08V45H192.58H193.08V41H192.58ZM180.58 29H181.08V25H180.58H180.08V29H180.58ZM180.58 25V25.5H184.58V25V24.5H180.58V25ZM184.58 25H184.08V29H184.58H185.08V25H184.58ZM184.58 29V28.5H180.58V29V29.5H184.58V29ZM184.58 25H185.08V21H184.58H184.08V25H184.58ZM184.58 21V20.5H180.58V21V21.5H184.58V21ZM180.58 21H181.08V17H180.58H180.08V21H180.58ZM192.58 17H192.08V21H192.58H193.08V17H192.58ZM192.58 21V20.5H188.58V21V21.5H192.58V21ZM188.58 21H188.08V25H188.58H189.08V21H188.58ZM188.58 25V24.5H184.58V25V25.5H188.58V25ZM88.4199 49V48.5H68.4199V49V49.5H88.4199V49ZM68.4199 45V45.5H76.4199V45V44.5H68.4199V45ZM76.4199 45H76.9199V29H76.4199H75.9199V45H76.4199ZM76.4199 29V28.5H56.4199V29V29.5H76.4199V29ZM56.4199 29H55.9199V45H56.4199H56.9199V29H56.4199ZM56.4199 45V45.5H64.4199V45V44.5H56.4199V45ZM64.4199 49V48.5H44.4199V49V49.5H64.4199V49ZM48.4199 45H48.9199V5H48.4199H47.9199V45H48.4199ZM44.4199 1V1.5H64.4199V1V0.5H44.4199V1ZM64.4199 5V4.5H56.4199V5V5.5H64.4199V5ZM56.4199 5H55.9199V25H56.4199H56.9199V5H56.4199ZM56.4199 25V25.5H76.4199V25V24.5H56.4199V25ZM76.4199 25H76.9199V5H76.4199H75.9199V25H76.4199ZM76.4199 5V4.5H68.4199V5V5.5H76.4199V5ZM68.4199 1V1.5H88.4199V1V0.5H68.4199V1ZM84.4199 5H83.9199V45H84.4199H84.9199V5H84.4199ZM127.14 49V48.5H119.14V49V49.5H127.14V49ZM119.14 45V44.5H111.14V45V45.5H119.14V45ZM115.14 41H115.64V29H115.14H114.64V41H115.14ZM111.14 33V32.5H99.1399V33V33.5H111.14V33ZM99.1399 33H98.6399V45H99.1399H99.6399V33H99.1399ZM99.1399 45V45.5H111.14V45V44.5H99.1399V45ZM111.14 49V48.5H95.1399V49V49.5H111.14V49ZM91.1399 45H91.6399V33H91.1399H90.6399V45H91.1399ZM95.1399 29V29.5H111.14V29V28.5H95.1399V29ZM115.14 21V20.5H99.1399V21V21.5H115.14V21ZM99.1399 17V17.5H119.14V17V16.5H99.1399V17ZM123.14 21H122.64V45H123.14H123.64V21H123.14ZM145.86 45V45.5H153.86V45V44.5H145.86V45ZM153.86 49V48.5H137.86V49V49.5H153.86V49ZM129.86 41H130.36V25H129.86H129.36V41H129.86ZM133.86 21V21.5H141.86V21V20.5H133.86V21ZM137.86 25H137.36V37H137.86H138.36V25H137.86ZM153.86 45H154.36V37H153.86H153.36V45H153.86ZM157.86 37H157.36V45H157.86H158.36V37H157.86ZM157.86 29V28.5H149.86V29V29.5H157.86V29ZM149.86 29H150.36V21H149.86H149.36V29H149.86ZM149.86 21V20.5H141.86V21V21.5H149.86V21ZM141.86 17V17.5H149.86V17V16.5H141.86V17ZM192.58 45V45.5H200.58V45V44.5H192.58V45ZM200.58 49V48.5H180.58V49V49.5H200.58V49ZM172.58 33H172.08V45H172.58H173.08V33H172.58ZM176.58 49V48.5H160.58V49V49.5H176.58V49ZM164.58 45H165.08V5H164.58H164.08V45H164.58ZM160.58 1V1.5H172.58V1V0.5H160.58V1ZM172.58 1H172.08V29H172.58H173.08V1H172.58ZM172.58 29V29.5H180.58V29V28.5H172.58V29ZM180.58 17V17.5H192.58V17V16.5H180.58V17Z" fill="#47324C" mask="url(#path-1-outside-1_356_2635)"/>
<mask id="path-3-outside-2_356_2635" maskUnits="userSpaceOnUse" x="1.33984" y="66" width="242" height="50" fill="black">
<rect fill="white" x="1.33984" y="66" width="242" height="50"/>
<path d="M38.3398 115V111H34.3398V103H30.3398V91H26.3398V107H22.3398V115H18.3398V111H14.3398V103H10.3398V91H6.33984V71H2.33984V67H18.3398V71H14.3398V91H18.3398V103H22.3398V91H26.3398V71H22.3398V67H38.3398V71H34.3398V91H38.3398V103H42.3398V91H46.3398V107H42.3398V115H38.3398ZM46.3398 91V71H42.3398V67H54.3398V71H50.3398V91H46.3398Z"/>
<path d="M81.0598 111V115H65.0598V111H61.0598V107H57.0598V91H61.0598V87H65.0598V83H81.0598V87H85.0598V91H89.0598V99H65.0598V107H69.0598V111H81.0598ZM81.0598 111V107H85.0598V111H81.0598ZM85.0598 107V103H89.0598V107H85.0598ZM81.0598 95V91H77.0598V87H69.0598V91H65.0598V95H81.0598Z"/>
<path d="M95.7798 115V111H91.7798V103H95.7798V107H99.7798V111H111.78V107H115.78V103H99.7798V99H95.7798V95H91.7798V87H95.7798V83H115.78V87H119.78V91H111.78V87H99.7798V95H115.78V99H119.78V111H115.78V115H95.7798Z"/>
<path d="M130.5 115V111H126.5V87H122.5V83H126.5V71H134.5V83H138.5V87H134.5V111H138.5V115H130.5ZM138.5 111V107H142.5V111H138.5Z"/>
<path d="M169.22 111V115H153.22V111H149.22V107H145.22V91H149.22V87H153.22V83H169.22V87H173.22V91H177.22V99H153.22V107H157.22V111H169.22ZM169.22 111V107H173.22V111H169.22ZM173.22 107V103H177.22V107H173.22ZM169.22 95V91H165.22V87H157.22V91H153.22V95H169.22Z"/>
<path d="M199.94 91V87H195.94V91H191.94V111H195.94V115H179.94V111H183.94V87H179.94V83H191.94V87H195.94V83H203.94V91H199.94Z"/>
<path d="M226.66 115V111H230.66V87H222.66V91H218.66V111H222.66V115H206.66V111H210.66V87H206.66V83H218.66V87H222.66V83H234.66V87H238.66V111H242.66V115H226.66Z"/>
</mask>
<path d="M38.3398 115V111H34.3398V103H30.3398V91H26.3398V107H22.3398V115H18.3398V111H14.3398V103H10.3398V91H6.33984V71H2.33984V67H18.3398V71H14.3398V91H18.3398V103H22.3398V91H26.3398V71H22.3398V67H38.3398V71H34.3398V91H38.3398V103H42.3398V91H46.3398V107H42.3398V115H38.3398ZM46.3398 91V71H42.3398V67H54.3398V71H50.3398V91H46.3398Z" fill="#47324C"/>
<path d="M81.0598 111V115H65.0598V111H61.0598V107H57.0598V91H61.0598V87H65.0598V83H81.0598V87H85.0598V91H89.0598V99H65.0598V107H69.0598V111H81.0598ZM81.0598 111V107H85.0598V111H81.0598ZM85.0598 107V103H89.0598V107H85.0598ZM81.0598 95V91H77.0598V87H69.0598V91H65.0598V95H81.0598Z" fill="#47324C"/>
<path d="M95.7798 115V111H91.7798V103H95.7798V107H99.7798V111H111.78V107H115.78V103H99.7798V99H95.7798V95H91.7798V87H95.7798V83H115.78V87H119.78V91H111.78V87H99.7798V95H115.78V99H119.78V111H115.78V115H95.7798Z" fill="#47324C"/>
<path d="M130.5 115V111H126.5V87H122.5V83H126.5V71H134.5V83H138.5V87H134.5V111H138.5V115H130.5ZM138.5 111V107H142.5V111H138.5Z" fill="#47324C"/>
<path d="M169.22 111V115H153.22V111H149.22V107H145.22V91H149.22V87H153.22V83H169.22V87H173.22V91H177.22V99H153.22V107H157.22V111H169.22ZM169.22 111V107H173.22V111H169.22ZM173.22 107V103H177.22V107H173.22ZM169.22 95V91H165.22V87H157.22V91H153.22V95H169.22Z" fill="#47324C"/>
<path d="M199.94 91V87H195.94V91H191.94V111H195.94V115H179.94V111H183.94V87H179.94V83H191.94V87H195.94V83H203.94V91H199.94Z" fill="#47324C"/>
<path d="M226.66 115V111H230.66V87H222.66V91H218.66V111H222.66V115H206.66V111H210.66V87H206.66V83H218.66V87H222.66V83H234.66V87H238.66V111H242.66V115H226.66Z" fill="#47324C"/>
<path d="M38.3398 115H37.8398V115.5H38.3398V115ZM38.3398 111H38.8398V110.5H38.3398V111ZM34.3398 111H33.8398V111.5H34.3398V111ZM34.3398 103H34.8398V102.5H34.3398V103ZM30.3398 103H29.8398V103.5H30.3398V103ZM30.3398 91H30.8398V90.5H30.3398V91ZM26.3398 107V107.5H26.8398V107H26.3398ZM22.3398 107V106.5H21.8398V107H22.3398ZM22.3398 115V115.5H22.8398V115H22.3398ZM18.3398 115H17.8398V115.5H18.3398V115ZM18.3398 111H18.8398V110.5H18.3398V111ZM14.3398 111H13.8398V111.5H14.3398V111ZM14.3398 103H14.8398V102.5H14.3398V103ZM10.3398 103H9.83984V103.5H10.3398V103ZM10.3398 91H10.8398V90.5H10.3398V91ZM6.33984 91H5.83984V91.5H6.33984V91ZM6.33984 71H6.83984V70.5H6.33984V71ZM2.33984 71H1.83984V71.5H2.33984V71ZM2.33984 67V66.5H1.83984V67H2.33984ZM18.3398 67H18.8398V66.5H18.3398V67ZM18.3398 71V71.5H18.8398V71H18.3398ZM14.3398 71V70.5H13.8398V71H14.3398ZM14.3398 91H13.8398V91.5H14.3398V91ZM18.3398 91H18.8398V90.5H18.3398V91ZM18.3398 103H17.8398V103.5H18.3398V103ZM22.3398 103V103.5H22.8398V103H22.3398ZM22.3398 91V90.5H21.8398V91H22.3398ZM26.3398 71H26.8398V70.5H26.3398V71ZM22.3398 71H21.8398V71.5H22.3398V71ZM22.3398 67V66.5H21.8398V67H22.3398ZM38.3398 67H38.8398V66.5H38.3398V67ZM38.3398 71V71.5H38.8398V71H38.3398ZM34.3398 71V70.5H33.8398V71H34.3398ZM34.3398 91H33.8398V91.5H34.3398V91ZM38.3398 91H38.8398V90.5H38.3398V91ZM38.3398 103H37.8398V103.5H38.3398V103ZM42.3398 103V103.5H42.8398V103H42.3398ZM42.3398 91V90.5H41.8398V91H42.3398ZM46.3398 107V107.5H46.8398V107H46.3398ZM42.3398 107V106.5H41.8398V107H42.3398ZM42.3398 115V115.5H42.8398V115H42.3398ZM46.3398 71H46.8398V70.5H46.3398V71ZM42.3398 71H41.8398V71.5H42.3398V71ZM42.3398 67V66.5H41.8398V67H42.3398ZM54.3398 67H54.8398V66.5H54.3398V67ZM54.3398 71V71.5H54.8398V71H54.3398ZM50.3398 71V70.5H49.8398V71H50.3398ZM50.3398 91V91.5H50.8398V91H50.3398ZM81.0598 115V115.5H81.5598V115H81.0598ZM65.0598 115H64.5598V115.5H65.0598V115ZM65.0598 111H65.5598V110.5H65.0598V111ZM61.0598 111H60.5598V111.5H61.0598V111ZM61.0598 107H61.5598V106.5H61.0598V107ZM57.0598 107H56.5598V107.5H57.0598V107ZM57.0598 91V90.5H56.5598V91H57.0598ZM61.0598 91V91.5H61.5598V91H61.0598ZM61.0598 87V86.5H60.5598V87H61.0598ZM65.0598 87V87.5H65.5598V87H65.0598ZM65.0598 83V82.5H64.5598V83H65.0598ZM81.0598 83H81.5598V82.5H81.0598V83ZM81.0598 87H80.5598V87.5H81.0598V87ZM85.0598 87H85.5598V86.5H85.0598V87ZM85.0598 91H84.5598V91.5H85.0598V91ZM89.0598 91H89.5598V90.5H89.0598V91ZM89.0598 99V99.5H89.5598V99H89.0598ZM65.0598 99V98.5H64.5598V99H65.0598ZM65.0598 107H64.5598V107.5H65.0598V107ZM69.0598 107H69.5598V106.5H69.0598V107ZM69.0598 111H68.5598V111.5H69.0598V111ZM81.0598 107V106.5H80.5598V107H81.0598ZM85.0598 111V111.5H85.5598V111H85.0598ZM85.0598 103V102.5H84.5598V103H85.0598ZM89.0598 103H89.5598V102.5H89.0598V103ZM89.0598 107V107.5H89.5598V107H89.0598ZM81.0598 95V95.5H81.5598V95H81.0598ZM81.0598 91H81.5598V90.5H81.0598V91ZM77.0598 91H76.5598V91.5H77.0598V91ZM77.0598 87H77.5598V86.5H77.0598V87ZM69.0598 87V86.5H68.5598V87H69.0598ZM69.0598 91V91.5H69.5598V91H69.0598ZM65.0598 91V90.5H64.5598V91H65.0598ZM65.0598 95H64.5598V95.5H65.0598V95ZM95.7798 115H95.2798V115.5H95.7798V115ZM95.7798 111H96.2798V110.5H95.7798V111ZM91.7798 111H91.2798V111.5H91.7798V111ZM91.7798 103V102.5H91.2798V103H91.7798ZM95.7798 103H96.2798V102.5H95.7798V103ZM95.7798 107H95.2798V107.5H95.7798V107ZM99.7798 107H100.28V106.5H99.7798V107ZM99.7798 111H99.2798V111.5H99.7798V111ZM111.78 111V111.5H112.28V111H111.78ZM111.78 107V106.5H111.28V107H111.78ZM115.78 107V107.5H116.28V107H115.78ZM115.78 103H116.28V102.5H115.78V103ZM99.7798 103H99.2798V103.5H99.7798V103ZM99.7798 99H100.28V98.5H99.7798V99ZM95.7798 99H95.2798V99.5H95.7798V99ZM95.7798 95H96.2798V94.5H95.7798V95ZM91.7798 95H91.2798V95.5H91.7798V95ZM91.7798 87V86.5H91.2798V87H91.7798ZM95.7798 87V87.5H96.2798V87H95.7798ZM95.7798 83V82.5H95.2798V83H95.7798ZM115.78 83H116.28V82.5H115.78V83ZM115.78 87H115.28V87.5H115.78V87ZM119.78 87H120.28V86.5H119.78V87ZM119.78 91V91.5H120.28V91H119.78ZM111.78 91H111.28V91.5H111.78V91ZM111.78 87H112.28V86.5H111.78V87ZM99.7798 87V86.5H99.2798V87H99.7798ZM99.7798 95H99.2798V95.5H99.7798V95ZM115.78 95H116.28V94.5H115.78V95ZM115.78 99H115.28V99.5H115.78V99ZM119.78 99H120.28V98.5H119.78V99ZM119.78 111V111.5H120.28V111H119.78ZM115.78 111V110.5H115.28V111H115.78ZM115.78 115V115.5H116.28V115H115.78ZM130.5 115H130V115.5H130.5V115ZM130.5 111H131V110.5H130.5V111ZM126.5 111H126V111.5H126.5V111ZM126.5 87H127V86.5H126.5V87ZM122.5 87H122V87.5H122.5V87ZM122.5 83V82.5H122V83H122.5ZM126.5 83V83.5H127V83H126.5ZM126.5 71V70.5H126V71H126.5ZM134.5 71H135V70.5H134.5V71ZM134.5 83H134V83.5H134.5V83ZM138.5 83H139V82.5H138.5V83ZM138.5 87V87.5H139V87H138.5ZM134.5 87V86.5H134V87H134.5ZM134.5 111H134V111.5H134.5V111ZM138.5 115V115.5H139V115H138.5ZM138.5 107V106.5H138V107H138.5ZM142.5 107H143V106.5H142.5V107ZM142.5 111V111.5H143V111H142.5ZM169.22 115V115.5H169.72V115H169.22ZM153.22 115H152.72V115.5H153.22V115ZM153.22 111H153.72V110.5H153.22V111ZM149.22 111H148.72V111.5H149.22V111ZM149.22 107H149.72V106.5H149.22V107ZM145.22 107H144.72V107.5H145.22V107ZM145.22 91V90.5H144.72V91H145.22ZM149.22 91V91.5H149.72V91H149.22ZM149.22 87V86.5H148.72V87H149.22ZM153.22 87V87.5H153.72V87H153.22ZM153.22 83V82.5H152.72V83H153.22ZM169.22 83H169.72V82.5H169.22V83ZM169.22 87H168.72V87.5H169.22V87ZM173.22 87H173.72V86.5H173.22V87ZM173.22 91H172.72V91.5H173.22V91ZM177.22 91H177.72V90.5H177.22V91ZM177.22 99V99.5H177.72V99H177.22ZM153.22 99V98.5H152.72V99H153.22ZM153.22 107H152.72V107.5H153.22V107ZM157.22 107H157.72V106.5H157.22V107ZM157.22 111H156.72V111.5H157.22V111ZM169.22 107V106.5H168.72V107H169.22ZM173.22 111V111.5H173.72V111H173.22ZM173.22 103V102.5H172.72V103H173.22ZM177.22 103H177.72V102.5H177.22V103ZM177.22 107V107.5H177.72V107H177.22ZM169.22 95V95.5H169.72V95H169.22ZM169.22 91H169.72V90.5H169.22V91ZM165.22 91H164.72V91.5H165.22V91ZM165.22 87H165.72V86.5H165.22V87ZM157.22 87V86.5H156.72V87H157.22ZM157.22 91V91.5H157.72V91H157.22ZM153.22 91V90.5H152.72V91H153.22ZM153.22 95H152.72V95.5H153.22V95ZM199.94 91H199.44V91.5H199.94V91ZM199.94 87H200.44V86.5H199.94V87ZM195.94 91V91.5H196.44V91H195.94ZM191.94 91V90.5H191.44V91H191.94ZM191.94 111H191.44V111.5H191.94V111ZM195.94 111H196.44V110.5H195.94V111ZM195.94 115V115.5H196.44V115H195.94ZM179.94 115H179.44V115.5H179.94V115ZM179.94 111V110.5H179.44V111H179.94ZM183.94 111V111.5H184.44V111H183.94ZM183.94 87H184.44V86.5H183.94V87ZM179.94 87H179.44V87.5H179.94V87ZM179.94 83V82.5H179.44V83H179.94ZM191.94 83H192.44V82.5H191.94V83ZM191.94 87H191.44V87.5H191.94V87ZM195.94 83V82.5H195.44V83H195.94ZM203.94 83H204.44V82.5H203.94V83ZM203.94 91V91.5H204.44V91H203.94ZM226.66 115H226.16V115.5H226.66V115ZM226.66 111V110.5H226.16V111H226.66ZM230.66 111V111.5H231.16V111H230.66ZM230.66 87H231.16V86.5H230.66V87ZM222.66 91V91.5H223.16V91H222.66ZM218.66 91V90.5H218.16V91H218.66ZM218.66 111H218.16V111.5H218.66V111ZM222.66 111H223.16V110.5H222.66V111ZM222.66 115V115.5H223.16V115H222.66ZM206.66 115H206.16V115.5H206.66V115ZM206.66 111V110.5H206.16V111H206.66ZM210.66 111V111.5H211.16V111H210.66ZM210.66 87H211.16V86.5H210.66V87ZM206.66 87H206.16V87.5H206.66V87ZM206.66 83V82.5H206.16V83H206.66ZM218.66 83H219.16V82.5H218.66V83ZM218.66 87H218.16V87.5H218.66V87ZM222.66 83V82.5H222.16V83H222.66ZM234.66 83H235.16V82.5H234.66V83ZM234.66 87H234.16V87.5H234.66V87ZM238.66 87H239.16V86.5H238.66V87ZM238.66 111H238.16V111.5H238.66V111ZM242.66 111H243.16V110.5H242.66V111ZM242.66 115V115.5H243.16V115H242.66ZM38.3398 115H38.8398V111H38.3398H37.8398V115H38.3398ZM38.3398 111V110.5H34.3398V111V111.5H38.3398V111ZM34.3398 103V102.5H30.3398V103V103.5H34.3398V103ZM30.3398 91V90.5H26.3398V91V91.5H30.3398V91ZM26.3398 107V106.5H22.3398V107V107.5H26.3398V107ZM22.3398 115V114.5H18.3398V115V115.5H22.3398V115ZM18.3398 115H18.8398V111H18.3398H17.8398V115H18.3398ZM18.3398 111V110.5H14.3398V111V111.5H18.3398V111ZM14.3398 103V102.5H10.3398V103V103.5H14.3398V103ZM10.3398 91V90.5H6.33984V91V91.5H10.3398V91ZM6.33984 71V70.5H2.33984V71V71.5H6.33984V71ZM2.33984 71H2.83984V67H2.33984H1.83984V71H2.33984ZM18.3398 67H17.8398V71H18.3398H18.8398V67H18.3398ZM18.3398 71V70.5H14.3398V71V71.5H18.3398V71ZM14.3398 91V91.5H18.3398V91V90.5H14.3398V91ZM18.3398 103V103.5H22.3398V103V102.5H18.3398V103ZM22.3398 91V91.5H26.3398V91V90.5H22.3398V91ZM26.3398 71V70.5H22.3398V71V71.5H26.3398V71ZM22.3398 71H22.8398V67H22.3398H21.8398V71H22.3398ZM38.3398 67H37.8398V71H38.3398H38.8398V67H38.3398ZM38.3398 71V70.5H34.3398V71V71.5H38.3398V71ZM34.3398 91V91.5H38.3398V91V90.5H34.3398V91ZM38.3398 103V103.5H42.3398V103V102.5H38.3398V103ZM42.3398 91V91.5H46.3398V91V90.5H42.3398V91ZM46.3398 107V106.5H42.3398V107V107.5H46.3398V107ZM42.3398 115V114.5H38.3398V115V115.5H42.3398V115ZM46.3398 71V70.5H42.3398V71V71.5H46.3398V71ZM42.3398 71H42.8398V67H42.3398H41.8398V71H42.3398ZM54.3398 67H53.8398V71H54.3398H54.8398V67H54.3398ZM54.3398 71V70.5H50.3398V71V71.5H54.3398V71ZM50.3398 91V90.5H46.3398V91V91.5H50.3398V91ZM81.0598 111H80.5598V115H81.0598H81.5598V111H81.0598ZM65.0598 115H65.5598V111H65.0598H64.5598V115H65.0598ZM65.0598 111V110.5H61.0598V111V111.5H65.0598V111ZM61.0598 111H61.5598V107H61.0598H60.5598V111H61.0598ZM61.0598 107V106.5H57.0598V107V107.5H61.0598V107ZM57.0598 91V91.5H61.0598V91V90.5H57.0598V91ZM61.0598 91H61.5598V87H61.0598H60.5598V91H61.0598ZM61.0598 87V87.5H65.0598V87V86.5H61.0598V87ZM65.0598 87H65.5598V83H65.0598H64.5598V87H65.0598ZM81.0598 83H80.5598V87H81.0598H81.5598V83H81.0598ZM81.0598 87V87.5H85.0598V87V86.5H81.0598V87ZM85.0598 87H84.5598V91H85.0598H85.5598V87H85.0598ZM85.0598 91V91.5H89.0598V91V90.5H85.0598V91ZM65.0598 107V107.5H69.0598V107V106.5H65.0598V107ZM69.0598 107H68.5598V111H69.0598H69.5598V107H69.0598ZM81.0598 111H81.5598V107H81.0598H80.5598V111H81.0598ZM81.0598 107V107.5H85.0598V107V106.5H81.0598V107ZM85.0598 107H84.5598V111H85.0598H85.5598V107H85.0598ZM85.0598 111V110.5H81.0598V111V111.5H85.0598V111ZM85.0598 107H85.5598V103H85.0598H84.5598V107H85.0598ZM85.0598 103V103.5H89.0598V103V102.5H85.0598V103ZM89.0598 103H88.5598V107H89.0598H89.5598V103H89.0598ZM89.0598 107V106.5H85.0598V107V107.5H89.0598V107ZM81.0598 95H81.5598V91H81.0598H80.5598V95H81.0598ZM81.0598 91V90.5H77.0598V91V91.5H81.0598V91ZM77.0598 91H77.5598V87H77.0598H76.5598V91H77.0598ZM69.0598 87H68.5598V91H69.0598H69.5598V87H69.0598ZM69.0598 91V90.5H65.0598V91V91.5H69.0598V91ZM65.0598 91H64.5598V95H65.0598H65.5598V91H65.0598ZM95.7798 115H96.2798V111H95.7798H95.2798V115H95.7798ZM95.7798 111V110.5H91.7798V111V111.5H95.7798V111ZM91.7798 103V103.5H95.7798V103V102.5H91.7798V103ZM95.7798 103H95.2798V107H95.7798H96.2798V103H95.7798ZM95.7798 107V107.5H99.7798V107V106.5H95.7798V107ZM99.7798 107H99.2798V111H99.7798H100.28V107H99.7798ZM111.78 111H112.28V107H111.78H111.28V111H111.78ZM111.78 107V107.5H115.78V107V106.5H111.78V107ZM115.78 107H116.28V103H115.78H115.28V107H115.78ZM99.7798 103H100.28V99H99.7798H99.2798V103H99.7798ZM99.7798 99V98.5H95.7798V99V99.5H99.7798V99ZM95.7798 99H96.2798V95H95.7798H95.2798V99H95.7798ZM95.7798 95V94.5H91.7798V95V95.5H95.7798V95ZM91.7798 87V87.5H95.7798V87V86.5H91.7798V87ZM95.7798 87H96.2798V83H95.7798H95.2798V87H95.7798ZM115.78 83H115.28V87H115.78H116.28V83H115.78ZM115.78 87V87.5H119.78V87V86.5H115.78V87ZM119.78 87H119.28V91H119.78H120.28V87H119.78ZM111.78 91H112.28V87H111.78H111.28V91H111.78ZM115.78 95H115.28V99H115.78H116.28V95H115.78ZM115.78 99V99.5H119.78V99V98.5H115.78V99ZM119.78 111V110.5H115.78V111V111.5H119.78V111ZM115.78 111H115.28V115H115.78H116.28V111H115.78ZM130.5 115H131V111H130.5H130V115H130.5ZM130.5 111V110.5H126.5V111V111.5H130.5V111ZM126.5 87V86.5H122.5V87V87.5H126.5V87ZM122.5 87H123V83H122.5H122V87H122.5ZM122.5 83V83.5H126.5V83V82.5H122.5V83ZM134.5 83V83.5H138.5V83V82.5H134.5V83ZM138.5 83H138V87H138.5H139V83H138.5ZM138.5 87V86.5H134.5V87V87.5H138.5V87ZM134.5 111V111.5H138.5V111V110.5H134.5V111ZM138.5 111H138V115H138.5H139V111H138.5ZM138.5 111H139V107H138.5H138V111H138.5ZM138.5 107V107.5H142.5V107V106.5H138.5V107ZM142.5 107H142V111H142.5H143V107H142.5ZM142.5 111V110.5H138.5V111V111.5H142.5V111ZM169.22 111H168.72V115H169.22H169.72V111H169.22ZM153.22 115H153.72V111H153.22H152.72V115H153.22ZM153.22 111V110.5H149.22V111V111.5H153.22V111ZM149.22 111H149.72V107H149.22H148.72V111H149.22ZM149.22 107V106.5H145.22V107V107.5H149.22V107ZM145.22 91V91.5H149.22V91V90.5H145.22V91ZM149.22 91H149.72V87H149.22H148.72V91H149.22ZM149.22 87V87.5H153.22V87V86.5H149.22V87ZM153.22 87H153.72V83H153.22H152.72V87H153.22ZM169.22 83H168.72V87H169.22H169.72V83H169.22ZM169.22 87V87.5H173.22V87V86.5H169.22V87ZM173.22 87H172.72V91H173.22H173.72V87H173.22ZM173.22 91V91.5H177.22V91V90.5H173.22V91ZM153.22 107V107.5H157.22V107V106.5H153.22V107ZM157.22 107H156.72V111H157.22H157.72V107H157.22ZM169.22 111H169.72V107H169.22H168.72V111H169.22ZM169.22 107V107.5H173.22V107V106.5H169.22V107ZM173.22 107H172.72V111H173.22H173.72V107H173.22ZM173.22 111V110.5H169.22V111V111.5H173.22V111ZM173.22 107H173.72V103H173.22H172.72V107H173.22ZM173.22 103V103.5H177.22V103V102.5H173.22V103ZM177.22 103H176.72V107H177.22H177.72V103H177.22ZM177.22 107V106.5H173.22V107V107.5H177.22V107ZM169.22 95H169.72V91H169.22H168.72V95H169.22ZM169.22 91V90.5H165.22V91V91.5H169.22V91ZM165.22 91H165.72V87H165.22H164.72V91H165.22ZM157.22 87H156.72V91H157.22H157.72V87H157.22ZM157.22 91V90.5H153.22V91V91.5H157.22V91ZM153.22 91H152.72V95H153.22H153.72V91H153.22ZM199.94 91H200.44V87H199.94H199.44V91H199.94ZM199.94 87V86.5H195.94V87V87.5H199.94V87ZM195.94 87H195.44V91H195.94H196.44V87H195.94ZM195.94 91V90.5H191.94V91V91.5H195.94V91ZM191.94 111V111.5H195.94V111V110.5H191.94V111ZM195.94 111H195.44V115H195.94H196.44V111H195.94ZM179.94 115H180.44V111H179.94H179.44V115H179.94ZM179.94 111V111.5H183.94V111V110.5H179.94V111ZM183.94 87V86.5H179.94V87V87.5H183.94V87ZM179.94 87H180.44V83H179.94H179.44V87H179.94ZM191.94 83H191.44V87H191.94H192.44V83H191.94ZM191.94 87V87.5H195.94V87V86.5H191.94V87ZM195.94 87H196.44V83H195.94H195.44V87H195.94ZM203.94 91V90.5H199.94V91V91.5H203.94V91ZM226.66 115H227.16V111H226.66H226.16V115H226.66ZM226.66 111V111.5H230.66V111V110.5H226.66V111ZM222.66 87H222.16V91H222.66H223.16V87H222.66ZM222.66 91V90.5H218.66V91V91.5H222.66V91ZM218.66 111V111.5H222.66V111V110.5H218.66V111ZM222.66 111H222.16V115H222.66H223.16V111H222.66ZM206.66 115H207.16V111H206.66H206.16V115H206.66ZM206.66 111V111.5H210.66V111V110.5H206.66V111ZM210.66 87V86.5H206.66V87V87.5H210.66V87ZM206.66 87H207.16V83H206.66H206.16V87H206.66ZM218.66 83H218.16V87H218.66H219.16V83H218.66ZM218.66 87V87.5H222.66V87V86.5H218.66V87ZM222.66 87H223.16V83H222.66H222.16V87H222.66ZM234.66 83H234.16V87H234.66H235.16V83H234.66ZM234.66 87V87.5H238.66V87V86.5H234.66V87ZM238.66 111V111.5H242.66V111V110.5H238.66V111ZM242.66 111H242.16V115H242.66H243.16V111H242.66ZM34.3398 111H34.8398V103H34.3398H33.8398V111H34.3398ZM30.3398 103H30.8398V91H30.3398H29.8398V103H30.3398ZM26.3398 91H25.8398V107H26.3398H26.8398V91H26.3398ZM22.3398 107H21.8398V115H22.3398H22.8398V107H22.3398ZM14.3398 111H14.8398V103H14.3398H13.8398V111H14.3398ZM10.3398 103H10.8398V91H10.3398H9.83984V103H10.3398ZM6.33984 91H6.83984V71H6.33984H5.83984V91H6.33984ZM2.33984 67V67.5H18.3398V67V66.5H2.33984V67ZM14.3398 71H13.8398V91H14.3398H14.8398V71H14.3398ZM18.3398 91H17.8398V103H18.3398H18.8398V91H18.3398ZM22.3398 103H22.8398V91H22.3398H21.8398V103H22.3398ZM26.3398 91H26.8398V71H26.3398H25.8398V91H26.3398ZM22.3398 67V67.5H38.3398V67V66.5H22.3398V67ZM34.3398 71H33.8398V91H34.3398H34.8398V71H34.3398ZM38.3398 91H37.8398V103H38.3398H38.8398V91H38.3398ZM42.3398 103H42.8398V91H42.3398H41.8398V103H42.3398ZM46.3398 91H45.8398V107H46.3398H46.8398V91H46.3398ZM42.3398 107H41.8398V115H42.3398H42.8398V107H42.3398ZM46.3398 91H46.8398V71H46.3398H45.8398V91H46.3398ZM42.3398 67V67.5H54.3398V67V66.5H42.3398V67ZM50.3398 71H49.8398V91H50.3398H50.8398V71H50.3398ZM69.0598 111V111.5H81.0598V111V110.5H69.0598V111ZM81.0598 115V114.5H65.0598V115V115.5H81.0598V115ZM57.0598 107H57.5598V91H57.0598H56.5598V107H57.0598ZM65.0598 83V83.5H81.0598V83V82.5H65.0598V83ZM89.0598 91H88.5598V99H89.0598H89.5598V91H89.0598ZM89.0598 99V98.5H65.0598V99V99.5H89.0598V99ZM65.0598 99H64.5598V107H65.0598H65.5598V99H65.0598ZM65.0598 95V95.5H81.0598V95V94.5H65.0598V95ZM77.0598 87V86.5H69.0598V87V87.5H77.0598V87ZM115.78 115V114.5H95.7798V115V115.5H115.78V115ZM91.7798 111H92.2798V103H91.7798H91.2798V111H91.7798ZM99.7798 111V111.5H111.78V111V110.5H99.7798V111ZM115.78 103V102.5H99.7798V103V103.5H115.78V103ZM91.7798 95H92.2798V87H91.7798H91.2798V95H91.7798ZM95.7798 83V83.5H115.78V83V82.5H95.7798V83ZM119.78 91V90.5H111.78V91V91.5H119.78V91ZM111.78 87V86.5H99.7798V87V87.5H111.78V87ZM99.7798 87H99.2798V95H99.7798H100.28V87H99.7798ZM99.7798 95V95.5H115.78V95V94.5H99.7798V95ZM119.78 99H119.28V111H119.78H120.28V99H119.78ZM138.5 115V114.5H130.5V115V115.5H138.5V115ZM126.5 111H127V87H126.5H126V111H126.5ZM126.5 83H127V71H126.5H126V83H126.5ZM126.5 71V71.5H134.5V71V70.5H126.5V71ZM134.5 71H134V83H134.5H135V71H134.5ZM134.5 87H134V111H134.5H135V87H134.5ZM157.22 111V111.5H169.22V111V110.5H157.22V111ZM169.22 115V114.5H153.22V115V115.5H169.22V115ZM145.22 107H145.72V91H145.22H144.72V107H145.22ZM153.22 83V83.5H169.22V83V82.5H153.22V83ZM177.22 91H176.72V99H177.22H177.72V91H177.22ZM177.22 99V98.5H153.22V99V99.5H177.22V99ZM153.22 99H152.72V107H153.22H153.72V99H153.22ZM153.22 95V95.5H169.22V95V94.5H153.22V95ZM165.22 87V86.5H157.22V87V87.5H165.22V87ZM191.94 91H191.44V111H191.94H192.44V91H191.94ZM195.94 115V114.5H179.94V115V115.5H195.94V115ZM183.94 111H184.44V87H183.94H183.44V111H183.94ZM179.94 83V83.5H191.94V83V82.5H179.94V83ZM195.94 83V83.5H203.94V83V82.5H195.94V83ZM203.94 83H203.44V91H203.94H204.44V83H203.94ZM242.66 115V114.5H226.66V115V115.5H242.66V115ZM230.66 111H231.16V87H230.66H230.16V111H230.66ZM230.66 87V86.5H222.66V87V87.5H230.66V87ZM218.66 91H218.16V111H218.66H219.16V91H218.66ZM222.66 115V114.5H206.66V115V115.5H222.66V115ZM210.66 111H211.16V87H210.66H210.16V111H210.66ZM206.66 83V83.5H218.66V83V82.5H206.66V83ZM222.66 83V83.5H234.66V83V82.5H222.66V83ZM238.66 87H238.16V111H238.66H239.16V87H238.66Z" fill="#47324C" mask="url(#path-3-outside-2_356_2635)"/>
<path d="M86.251 138.75V143.25H78.251V146.75H82.251V154.75H86.251V158.75H89.751V154.75H93.751V150.75H97.752V143.25H93.751V138.75H110.252V143.25H106.252V147.25H102.252V151.25H98.252V155.25H94.251V159.25H90.251V166.75H94.251V170.75H98.252V174.75H102.252V178.75H106.252V182.75H110.252V187.25H89.751V182.75H93.751V175.25H89.751V171.25H82.251V175.25H78.251V182.75H82.251V187.25H65.75V182.75H69.75V178.75H73.75V174.75H77.751V170.75H81.751V163.25H77.751V155.25H73.75V147.25H69.75V143.25H65.75V138.75H86.251ZM144.751 138.75V143.25H133.579V182.75H144.751V187.25H113.906V182.75H125.079V143.25H113.906V138.75H144.751ZM179.25 138.75V143.25H168.078V182.75H179.25V187.25H148.405V182.75H159.577V143.25H148.405V138.75H179.25Z" fill="#47324C" stroke="#47324C" stroke-width="0.5"/>
</svg>
