<svg width="245" height="188" viewBox="0 0 245 188" fill="none" xmlns="http://www.w3.org/2000/svg">
<mask id="path-1-outside-1_32_11774" maskUnits="userSpaceOnUse" x="43.42" y="0" width="158" height="50" fill="black">
<rect fill="white" x="43.42" width="158" height="50"/>
<path d="M68.42 49V45H76.42V29H56.42V45H64.42V49H44.42V45H48.42V5H44.42V1H64.42V5H56.42V25H76.42V5H68.42V1H88.42V5H84.42V45H88.42V49H68.42Z"/>
<path d="M95.14 25V21H99.14V25H95.14ZM119.14 49V45H111.14V41H115.14V29H111.14V33H99.14V45H111.14V49H95.14V45H91.14V33H95.14V29H111.14V25H115.14V21H99.14V17H119.14V21H123.14V45H127.14V49H119.14Z"/>
<path d="M153.86 45V49H137.86V45H133.86V41H129.86V25H133.86V21H141.86V25H137.86V37H141.86V41H145.86V45H153.86ZM153.86 45V37H157.86V45H153.86ZM149.86 29V21H153.86V25H157.86V29H149.86ZM149.86 21H141.86V17H149.86V21Z"/>
<path d="M200.58 45V49H180.58V45H184.58V41H180.58V37H176.58V33H172.58V45H176.58V49H160.58V45H164.58V5H160.58V1H172.58V29H180.58V33H184.58V37H188.58V41H192.58V45H200.58ZM180.58 29V25H184.58V29H180.58ZM184.58 25V21H180.58V17H192.58V21H188.58V25H184.58Z"/>
</mask>
<path d="M68.42 49V45H76.42V29H56.42V45H64.42V49H44.42V45H48.42V5H44.42V1H64.42V5H56.42V25H76.42V5H68.42V1H88.42V5H84.42V45H88.42V49H68.42Z" fill="#47324C"/>
<path d="M95.14 25V21H99.14V25H95.14ZM119.14 49V45H111.14V41H115.14V29H111.14V33H99.14V45H111.14V49H95.14V45H91.14V33H95.14V29H111.14V25H115.14V21H99.14V17H119.14V21H123.14V45H127.14V49H119.14Z" fill="#47324C"/>
<path d="M153.86 45V49H137.86V45H133.86V41H129.86V25H133.86V21H141.86V25H137.86V37H141.86V41H145.86V45H153.86ZM153.86 45V37H157.86V45H153.86ZM149.86 29V21H153.86V25H157.86V29H149.86ZM149.86 21H141.86V17H149.86V21Z" fill="#47324C"/>
<path d="M200.58 45V49H180.58V45H184.58V41H180.58V37H176.58V33H172.58V45H176.58V49H160.58V45H164.58V5H160.58V1H172.58V29H180.58V33H184.58V37H188.58V41H192.58V45H200.58ZM180.58 29V25H184.58V29H180.58ZM184.58 25V21H180.58V17H192.58V21H188.58V25H184.58Z" fill="#47324C"/>
<path d="M68.42 49H67.92V49.5H68.42V49ZM68.42 45V44.5H67.92V45H68.42ZM76.42 45V45.5H76.92V45H76.42ZM76.42 29H76.92V28.5H76.42V29ZM56.42 29V28.5H55.92V29H56.42ZM56.42 45H55.92V45.5H56.42V45ZM64.42 45H64.92V44.5H64.42V45ZM64.42 49V49.5H64.92V49H64.42ZM44.42 49H43.92V49.5H44.42V49ZM44.42 45V44.5H43.92V45H44.42ZM48.42 45V45.5H48.92V45H48.42ZM48.42 5H48.92V4.5H48.42V5ZM44.42 5H43.92V5.5H44.42V5ZM44.42 1V0.5H43.92V1H44.42ZM64.42 1H64.92V0.5H64.42V1ZM64.42 5V5.5H64.92V5H64.42ZM56.42 5V4.5H55.92V5H56.42ZM56.42 25H55.92V25.5H56.42V25ZM76.42 25V25.5H76.92V25H76.42ZM76.42 5H76.92V4.5H76.42V5ZM68.42 5H67.92V5.5H68.42V5ZM68.42 1V0.5H67.92V1H68.42ZM88.42 1H88.92V0.5H88.42V1ZM88.42 5V5.5H88.92V5H88.42ZM84.42 5V4.5H83.92V5H84.42ZM84.42 45H83.92V45.5H84.42V45ZM88.42 45H88.92V44.5H88.42V45ZM88.42 49V49.5H88.92V49H88.42ZM95.14 25H94.64V25.5H95.14V25ZM95.14 21V20.5H94.64V21H95.14ZM99.14 25V25.5H99.64V25H99.14ZM119.14 49H118.64V49.5H119.14V49ZM119.14 45H119.64V44.5H119.14V45ZM111.14 41V40.5H110.64V41H111.14ZM115.14 41V41.5H115.64V41H115.14ZM115.14 29H115.64V28.5H115.14V29ZM111.14 33V33.5H111.64V33H111.14ZM99.14 33V32.5H98.64V33H99.14ZM99.14 45H98.64V45.5H99.14V45ZM111.14 49V49.5H111.64V49H111.14ZM95.14 49H94.64V49.5H95.14V49ZM95.14 45H95.64V44.5H95.14V45ZM91.14 45H90.64V45.5H91.14V45ZM91.14 33V32.5H90.64V33H91.14ZM95.14 33V33.5H95.64V33H95.14ZM95.14 29V28.5H94.64V29H95.14ZM111.14 25V24.5H110.64V25H111.14ZM115.14 25V25.5H115.64V25H115.14ZM115.14 21H115.64V20.5H115.14V21ZM99.14 17V16.5H98.64V17H99.14ZM119.14 17H119.64V16.5H119.14V17ZM119.14 21H118.64V21.5H119.14V21ZM123.14 21H123.64V20.5H123.14V21ZM123.14 45H122.64V45.5H123.14V45ZM127.14 45H127.64V44.5H127.14V45ZM127.14 49V49.5H127.64V49H127.14ZM153.86 49V49.5H154.36V49H153.86ZM137.86 49H137.36V49.5H137.86V49ZM137.86 45H138.36V44.5H137.86V45ZM133.86 45H133.36V45.5H133.86V45ZM133.86 41H134.36V40.5H133.86V41ZM129.86 41H129.36V41.5H129.86V41ZM129.86 25V24.5H129.36V25H129.86ZM133.86 25V25.5H134.36V25H133.86ZM133.86 21V20.5H133.36V21H133.86ZM141.86 25V25.5H142.36V25H141.86ZM137.86 25V24.5H137.36V25H137.86ZM137.86 37H137.36V37.5H137.86V37ZM141.86 37H142.36V36.5H141.86V37ZM141.86 41H141.36V41.5H141.86V41ZM145.86 41H146.36V40.5H145.86V41ZM145.86 45H145.36V45.5H145.86V45ZM153.86 37V36.5H153.36V37H153.86ZM157.86 37H158.36V36.5H157.86V37ZM157.86 45V45.5H158.36V45H157.86ZM149.86 29H149.36V29.5H149.86V29ZM153.86 21H154.36V20.5H153.86V21ZM153.86 25H153.36V25.5H153.86V25ZM157.86 25H158.36V24.5H157.86V25ZM157.86 29V29.5H158.36V29H157.86ZM141.86 17V16.5H141.36V17H141.86ZM149.86 17H150.36V16.5H149.86V17ZM200.58 45H201.08V44.5H200.58V45ZM200.58 49V49.5H201.08V49H200.58ZM180.58 49H180.08V49.5H180.58V49ZM180.58 45V44.5H180.08V45H180.58ZM184.58 45V45.5H185.08V45H184.58ZM184.58 41H185.08V40.5H184.58V41ZM180.58 41H180.08V41.5H180.58V41ZM180.58 37H181.08V36.5H180.58V37ZM176.58 37H176.08V37.5H176.58V37ZM176.58 33H177.08V32.5H176.58V33ZM172.58 33V32.5H172.08V33H172.58ZM172.58 45H172.08V45.5H172.58V45ZM176.58 45H177.08V44.5H176.58V45ZM176.58 49V49.5H177.08V49H176.58ZM160.58 49H160.08V49.5H160.58V49ZM160.58 45V44.5H160.08V45H160.58ZM164.58 45V45.5H165.08V45H164.58ZM164.58 5H165.08V4.5H164.58V5ZM160.58 5H160.08V5.5H160.58V5ZM160.58 1V0.5H160.08V1H160.58ZM172.58 1H173.08V0.5H172.58V1ZM172.58 29H172.08V29.5H172.58V29ZM180.58 33H180.08V33.5H180.58V33ZM184.58 33H185.08V32.5H184.58V33ZM184.58 37H184.08V37.5H184.58V37ZM188.58 37H189.08V36.5H188.58V37ZM188.58 41H188.08V41.5H188.58V41ZM192.58 41H193.08V40.5H192.58V41ZM192.58 45H192.08V45.5H192.58V45ZM180.58 25V24.5H180.08V25H180.58ZM184.58 29V29.5H185.08V29H184.58ZM184.58 21H185.08V20.5H184.58V21ZM180.58 21H180.08V21.5H180.58V21ZM180.58 17V16.5H180.08V17H180.58ZM192.58 17H193.08V16.5H192.58V17ZM192.58 21V21.5H193.08V21H192.58ZM188.58 21V20.5H188.08V21H188.58ZM188.58 25V25.5H189.08V25H188.58ZM68.42 49H68.92V45H68.42H67.92V49H68.42ZM64.42 45H63.92V49H64.42H64.92V45H64.42ZM44.42 49H44.92V45H44.42H43.92V49H44.42ZM44.42 45V45.5H48.42V45V44.5H44.42V45ZM48.42 5V4.5H44.42V5V5.5H48.42V5ZM44.42 5H44.92V1H44.42H43.92V5H44.42ZM64.42 1H63.92V5H64.42H64.92V1H64.42ZM68.42 5H68.92V1H68.42H67.92V5H68.42ZM88.42 1H87.92V5H88.42H88.92V1H88.42ZM88.42 5V4.5H84.42V5V5.5H88.42V5ZM84.42 45V45.5H88.42V45V44.5H84.42V45ZM88.42 45H87.92V49H88.42H88.92V45H88.42ZM95.14 25H95.64V21H95.14H94.64V25H95.14ZM95.14 21V21.5H99.14V21V20.5H95.14V21ZM99.14 21H98.64V25H99.14H99.64V21H99.14ZM99.14 25V24.5H95.14V25V25.5H99.14V25ZM119.14 49H119.64V45H119.14H118.64V49H119.14ZM111.14 45H111.64V41H111.14H110.64V45H111.14ZM111.14 41V41.5H115.14V41V40.5H111.14V41ZM115.14 29V28.5H111.14V29V29.5H115.14V29ZM111.14 29H110.64V33H111.14H111.64V29H111.14ZM111.14 45H110.64V49H111.14H111.64V45H111.14ZM95.14 49H95.64V45H95.14H94.64V49H95.14ZM95.14 45V44.5H91.14V45V45.5H95.14V45ZM91.14 33V33.5H95.14V33V32.5H91.14V33ZM95.14 33H95.64V29H95.14H94.64V33H95.14ZM111.14 29H111.64V25H111.14H110.64V29H111.14ZM111.14 25V25.5H115.14V25V24.5H111.14V25ZM115.14 25H115.64V21H115.14H114.64V25H115.14ZM99.14 21H99.64V17H99.14H98.64V21H99.14ZM119.14 17H118.64V21H119.14H119.64V17H119.14ZM119.14 21V21.5H123.14V21V20.5H119.14V21ZM123.14 45V45.5H127.14V45V44.5H123.14V45ZM127.14 45H126.64V49H127.14H127.64V45H127.14ZM153.86 45H153.36V49H153.86H154.36V45H153.86ZM137.86 49H138.36V45H137.86H137.36V49H137.86ZM137.86 45V44.5H133.86V45V45.5H137.86V45ZM133.86 45H134.36V41H133.86H133.36V45H133.86ZM133.86 41V40.5H129.86V41V41.5H133.86V41ZM129.86 25V25.5H133.86V25V24.5H129.86V25ZM133.86 25H134.36V21H133.86H133.36V25H133.86ZM141.86 21H141.36V25H141.86H142.36V21H141.86ZM141.86 25V24.5H137.86V25V25.5H141.86V25ZM137.86 37V37.5H141.86V37V36.5H137.86V37ZM141.86 37H141.36V41H141.86H142.36V37H141.86ZM141.86 41V41.5H145.86V41V40.5H141.86V41ZM145.86 41H145.36V45H145.86H146.36V41H145.86ZM153.86 37V37.5H157.86V37V36.5H153.86V37ZM157.86 45V44.5H153.86V45V45.5H157.86V45ZM149.86 21V21.5H153.86V21V20.5H149.86V21ZM153.86 21H153.36V25H153.86H154.36V21H153.86ZM153.86 25V25.5H157.86V25V24.5H153.86V25ZM157.86 25H157.36V29H157.86H158.36V25H157.86ZM141.86 21H142.36V17H141.86H141.36V21H141.86ZM149.86 17H149.36V21H149.86H150.36V17H149.86ZM200.58 45H200.08V49H200.58H201.08V45H200.58ZM180.58 49H181.08V45H180.58H180.08V49H180.58ZM180.58 45V45.5H184.58V45V44.5H180.58V45ZM184.58 45H185.08V41H184.58H184.08V45H184.58ZM184.58 41V40.5H180.58V41V41.5H184.58V41ZM180.58 41H181.08V37H180.58H180.08V41H180.58ZM180.58 37V36.5H176.58V37V37.5H180.58V37ZM176.58 37H177.08V33H176.58H176.08V37H176.58ZM176.58 33V32.5H172.58V33V33.5H176.58V33ZM172.58 45V45.5H176.58V45V44.5H172.58V45ZM176.58 45H176.08V49H176.58H177.08V45H176.58ZM160.58 49H161.08V45H160.58H160.08V49H160.58ZM160.58 45V45.5H164.58V45V44.5H160.58V45ZM164.58 5V4.5H160.58V5V5.5H164.58V5ZM160.58 5H161.08V1H160.58H160.08V5H160.58ZM180.58 29H180.08V33H180.58H181.08V29H180.58ZM180.58 33V33.5H184.58V33V32.5H180.58V33ZM184.58 33H184.08V37H184.58H185.08V33H184.58ZM184.58 37V37.5H188.58V37V36.5H184.58V37ZM188.58 37H188.08V41H188.58H189.08V37H188.58ZM188.58 41V41.5H192.58V41V40.5H188.58V41ZM192.58 41H192.08V45H192.58H193.08V41H192.58ZM180.58 29H181.08V25H180.58H180.08V29H180.58ZM180.58 25V25.5H184.58V25V24.5H180.58V25ZM184.58 25H184.08V29H184.58H185.08V25H184.58ZM184.58 29V28.5H180.58V29V29.5H184.58V29ZM184.58 25H185.08V21H184.58H184.08V25H184.58ZM184.58 21V20.5H180.58V21V21.5H184.58V21ZM180.58 21H181.08V17H180.58H180.08V21H180.58ZM192.58 17H192.08V21H192.58H193.08V17H192.58ZM192.58 21V20.5H188.58V21V21.5H192.58V21ZM188.58 21H188.08V25H188.58H189.08V21H188.58ZM188.58 25V24.5H184.58V25V25.5H188.58V25ZM88.42 49V48.5H68.42V49V49.5H88.42V49ZM68.42 45V45.5H76.42V45V44.5H68.42V45ZM76.42 45H76.92V29H76.42H75.92V45H76.42ZM76.42 29V28.5H56.42V29V29.5H76.42V29ZM56.42 29H55.92V45H56.42H56.92V29H56.42ZM56.42 45V45.5H64.42V45V44.5H56.42V45ZM64.42 49V48.5H44.42V49V49.5H64.42V49ZM48.42 45H48.92V5H48.42H47.92V45H48.42ZM44.42 1V1.5H64.42V1V0.5H44.42V1ZM64.42 5V4.5H56.42V5V5.5H64.42V5ZM56.42 5H55.92V25H56.42H56.92V5H56.42ZM56.42 25V25.5H76.42V25V24.5H56.42V25ZM76.42 25H76.92V5H76.42H75.92V25H76.42ZM76.42 5V4.5H68.42V5V5.5H76.42V5ZM68.42 1V1.5H88.42V1V0.5H68.42V1ZM84.42 5H83.92V45H84.42H84.92V5H84.42ZM127.14 49V48.5H119.14V49V49.5H127.14V49ZM119.14 45V44.5H111.14V45V45.5H119.14V45ZM115.14 41H115.64V29H115.14H114.64V41H115.14ZM111.14 33V32.5H99.14V33V33.5H111.14V33ZM99.14 33H98.64V45H99.14H99.64V33H99.14ZM99.14 45V45.5H111.14V45V44.5H99.14V45ZM111.14 49V48.5H95.14V49V49.5H111.14V49ZM91.14 45H91.64V33H91.14H90.64V45H91.14ZM95.14 29V29.5H111.14V29V28.5H95.14V29ZM115.14 21V20.5H99.14V21V21.5H115.14V21ZM99.14 17V17.5H119.14V17V16.5H99.14V17ZM123.14 21H122.64V45H123.14H123.64V21H123.14ZM145.86 45V45.5H153.86V45V44.5H145.86V45ZM153.86 49V48.5H137.86V49V49.5H153.86V49ZM129.86 41H130.36V25H129.86H129.36V41H129.86ZM133.86 21V21.5H141.86V21V20.5H133.86V21ZM137.86 25H137.36V37H137.86H138.36V25H137.86ZM153.86 45H154.36V37H153.86H153.36V45H153.86ZM157.86 37H157.36V45H157.86H158.36V37H157.86ZM157.86 29V28.5H149.86V29V29.5H157.86V29ZM149.86 29H150.36V21H149.86H149.36V29H149.86ZM149.86 21V20.5H141.86V21V21.5H149.86V21ZM141.86 17V17.5H149.86V17V16.5H141.86V17ZM192.58 45V45.5H200.58V45V44.5H192.58V45ZM200.58 49V48.5H180.58V49V49.5H200.58V49ZM172.58 33H172.08V45H172.58H173.08V33H172.58ZM176.58 49V48.5H160.58V49V49.5H176.58V49ZM164.58 45H165.08V5H164.58H164.08V45H164.58ZM160.58 1V1.5H172.58V1V0.5H160.58V1ZM172.58 1H172.08V29H172.58H173.08V1H172.58ZM172.58 29V29.5H180.58V29V28.5H172.58V29ZM180.58 17V17.5H192.58V17V16.5H180.58V17Z" fill="#47324C" mask="url(#path-1-outside-1_32_11774)"/>
<mask id="path-3-outside-2_32_11774" maskUnits="userSpaceOnUse" x="1.33997" y="66" width="242" height="50" fill="black">
<rect fill="white" x="1.33997" y="66" width="242" height="50"/>
<path d="M38.34 115V111H34.34V103H30.34V91H26.34V107H22.34V115H18.34V111H14.34V103H10.34V91H6.33997V71H2.33997V67H18.34V71H14.34V91H18.34V103H22.34V91H26.34V71H22.34V67H38.34V71H34.34V91H38.34V103H42.34V91H46.34V107H42.34V115H38.34ZM46.34 91V71H42.34V67H54.34V71H50.34V91H46.34Z"/>
<path d="M81.06 111V115H65.06V111H61.06V107H57.06V91H61.06V87H65.06V83H81.06V87H85.06V91H89.06V99H65.06V107H69.06V111H81.06ZM81.06 111V107H85.06V111H81.06ZM85.06 107V103H89.06V107H85.06ZM81.06 95V91H77.06V87H69.06V91H65.06V95H81.06Z"/>
<path d="M95.78 115V111H91.78V103H95.78V107H99.78V111H111.78V107H115.78V103H99.78V99H95.78V95H91.78V87H95.78V83H115.78V87H119.78V91H111.78V87H99.78V95H115.78V99H119.78V111H115.78V115H95.78Z"/>
<path d="M130.5 115V111H126.5V87H122.5V83H126.5V71H134.5V83H138.5V87H134.5V111H138.5V115H130.5ZM138.5 111V107H142.5V111H138.5Z"/>
<path d="M169.22 111V115H153.22V111H149.22V107H145.22V91H149.22V87H153.22V83H169.22V87H173.22V91H177.22V99H153.22V107H157.22V111H169.22ZM169.22 111V107H173.22V111H169.22ZM173.22 107V103H177.22V107H173.22ZM169.22 95V91H165.22V87H157.22V91H153.22V95H169.22Z"/>
<path d="M199.94 91V87H195.94V91H191.94V111H195.94V115H179.94V111H183.94V87H179.94V83H191.94V87H195.94V83H203.94V91H199.94Z"/>
<path d="M226.66 115V111H230.66V87H222.66V91H218.66V111H222.66V115H206.66V111H210.66V87H206.66V83H218.66V87H222.66V83H234.66V87H238.66V111H242.66V115H226.66Z"/>
</mask>
<path d="M38.34 115V111H34.34V103H30.34V91H26.34V107H22.34V115H18.34V111H14.34V103H10.34V91H6.33997V71H2.33997V67H18.34V71H14.34V91H18.34V103H22.34V91H26.34V71H22.34V67H38.34V71H34.34V91H38.34V103H42.34V91H46.34V107H42.34V115H38.34ZM46.34 91V71H42.34V67H54.34V71H50.34V91H46.34Z" fill="#47324C"/>
<path d="M81.06 111V115H65.06V111H61.06V107H57.06V91H61.06V87H65.06V83H81.06V87H85.06V91H89.06V99H65.06V107H69.06V111H81.06ZM81.06 111V107H85.06V111H81.06ZM85.06 107V103H89.06V107H85.06ZM81.06 95V91H77.06V87H69.06V91H65.06V95H81.06Z" fill="#47324C"/>
<path d="M95.78 115V111H91.78V103H95.78V107H99.78V111H111.78V107H115.78V103H99.78V99H95.78V95H91.78V87H95.78V83H115.78V87H119.78V91H111.78V87H99.78V95H115.78V99H119.78V111H115.78V115H95.78Z" fill="#47324C"/>
<path d="M130.5 115V111H126.5V87H122.5V83H126.5V71H134.5V83H138.5V87H134.5V111H138.5V115H130.5ZM138.5 111V107H142.5V111H138.5Z" fill="#47324C"/>
<path d="M169.22 111V115H153.22V111H149.22V107H145.22V91H149.22V87H153.22V83H169.22V87H173.22V91H177.22V99H153.22V107H157.22V111H169.22ZM169.22 111V107H173.22V111H169.22ZM173.22 107V103H177.22V107H173.22ZM169.22 95V91H165.22V87H157.22V91H153.22V95H169.22Z" fill="#47324C"/>
<path d="M199.94 91V87H195.94V91H191.94V111H195.94V115H179.94V111H183.94V87H179.94V83H191.94V87H195.94V83H203.94V91H199.94Z" fill="#47324C"/>
<path d="M226.66 115V111H230.66V87H222.66V91H218.66V111H222.66V115H206.66V111H210.66V87H206.66V83H218.66V87H222.66V83H234.66V87H238.66V111H242.66V115H226.66Z" fill="#47324C"/>
<path d="M38.34 115H37.84V115.5H38.34V115ZM38.34 111H38.84V110.5H38.34V111ZM34.34 111H33.84V111.5H34.34V111ZM34.34 103H34.84V102.5H34.34V103ZM30.34 103H29.84V103.5H30.34V103ZM30.34 91H30.84V90.5H30.34V91ZM26.34 107V107.5H26.84V107H26.34ZM22.34 107V106.5H21.84V107H22.34ZM22.34 115V115.5H22.84V115H22.34ZM18.34 115H17.84V115.5H18.34V115ZM18.34 111H18.84V110.5H18.34V111ZM14.34 111H13.84V111.5H14.34V111ZM14.34 103H14.84V102.5H14.34V103ZM10.34 103H9.83997V103.5H10.34V103ZM10.34 91H10.84V90.5H10.34V91ZM6.33997 91H5.83997V91.5H6.33997V91ZM6.33997 71H6.83997V70.5H6.33997V71ZM2.33997 71H1.83997V71.5H2.33997V71ZM2.33997 67V66.5H1.83997V67H2.33997ZM18.34 67H18.84V66.5H18.34V67ZM18.34 71V71.5H18.84V71H18.34ZM14.34 71V70.5H13.84V71H14.34ZM14.34 91H13.84V91.5H14.34V91ZM18.34 91H18.84V90.5H18.34V91ZM18.34 103H17.84V103.5H18.34V103ZM22.34 103V103.5H22.84V103H22.34ZM22.34 91V90.5H21.84V91H22.34ZM26.34 71H26.84V70.5H26.34V71ZM22.34 71H21.84V71.5H22.34V71ZM22.34 67V66.5H21.84V67H22.34ZM38.34 67H38.84V66.5H38.34V67ZM38.34 71V71.5H38.84V71H38.34ZM34.34 71V70.5H33.84V71H34.34ZM34.34 91H33.84V91.5H34.34V91ZM38.34 91H38.84V90.5H38.34V91ZM38.34 103H37.84V103.5H38.34V103ZM42.34 103V103.5H42.84V103H42.34ZM42.34 91V90.5H41.84V91H42.34ZM46.34 107V107.5H46.84V107H46.34ZM42.34 107V106.5H41.84V107H42.34ZM42.34 115V115.5H42.84V115H42.34ZM46.34 71H46.84V70.5H46.34V71ZM42.34 71H41.84V71.5H42.34V71ZM42.34 67V66.5H41.84V67H42.34ZM54.34 67H54.84V66.5H54.34V67ZM54.34 71V71.5H54.84V71H54.34ZM50.34 71V70.5H49.84V71H50.34ZM50.34 91V91.5H50.84V91H50.34ZM81.06 115V115.5H81.56V115H81.06ZM65.06 115H64.56V115.5H65.06V115ZM65.06 111H65.56V110.5H65.06V111ZM61.06 111H60.56V111.5H61.06V111ZM61.06 107H61.56V106.5H61.06V107ZM57.06 107H56.56V107.5H57.06V107ZM57.06 91V90.5H56.56V91H57.06ZM61.06 91V91.5H61.56V91H61.06ZM61.06 87V86.5H60.56V87H61.06ZM65.06 87V87.5H65.56V87H65.06ZM65.06 83V82.5H64.56V83H65.06ZM81.06 83H81.56V82.5H81.06V83ZM81.06 87H80.56V87.5H81.06V87ZM85.06 87H85.56V86.5H85.06V87ZM85.06 91H84.56V91.5H85.06V91ZM89.06 91H89.56V90.5H89.06V91ZM89.06 99V99.5H89.56V99H89.06ZM65.06 99V98.5H64.56V99H65.06ZM65.06 107H64.56V107.5H65.06V107ZM69.06 107H69.56V106.5H69.06V107ZM69.06 111H68.56V111.5H69.06V111ZM81.06 107V106.5H80.56V107H81.06ZM85.06 111V111.5H85.56V111H85.06ZM85.06 103V102.5H84.56V103H85.06ZM89.06 103H89.56V102.5H89.06V103ZM89.06 107V107.5H89.56V107H89.06ZM81.06 95V95.5H81.56V95H81.06ZM81.06 91H81.56V90.5H81.06V91ZM77.06 91H76.56V91.5H77.06V91ZM77.06 87H77.56V86.5H77.06V87ZM69.06 87V86.5H68.56V87H69.06ZM69.06 91V91.5H69.56V91H69.06ZM65.06 91V90.5H64.56V91H65.06ZM65.06 95H64.56V95.5H65.06V95ZM95.78 115H95.28V115.5H95.78V115ZM95.78 111H96.28V110.5H95.78V111ZM91.78 111H91.28V111.5H91.78V111ZM91.78 103V102.5H91.28V103H91.78ZM95.78 103H96.28V102.5H95.78V103ZM95.78 107H95.28V107.5H95.78V107ZM99.78 107H100.28V106.5H99.78V107ZM99.78 111H99.28V111.5H99.78V111ZM111.78 111V111.5H112.28V111H111.78ZM111.78 107V106.5H111.28V107H111.78ZM115.78 107V107.5H116.28V107H115.78ZM115.78 103H116.28V102.5H115.78V103ZM99.78 103H99.28V103.5H99.78V103ZM99.78 99H100.28V98.5H99.78V99ZM95.78 99H95.28V99.5H95.78V99ZM95.78 95H96.28V94.5H95.78V95ZM91.78 95H91.28V95.5H91.78V95ZM91.78 87V86.5H91.28V87H91.78ZM95.78 87V87.5H96.28V87H95.78ZM95.78 83V82.5H95.28V83H95.78ZM115.78 83H116.28V82.5H115.78V83ZM115.78 87H115.28V87.5H115.78V87ZM119.78 87H120.28V86.5H119.78V87ZM119.78 91V91.5H120.28V91H119.78ZM111.78 91H111.28V91.5H111.78V91ZM111.78 87H112.28V86.5H111.78V87ZM99.78 87V86.5H99.28V87H99.78ZM99.78 95H99.28V95.5H99.78V95ZM115.78 95H116.28V94.5H115.78V95ZM115.78 99H115.28V99.5H115.78V99ZM119.78 99H120.28V98.5H119.78V99ZM119.78 111V111.5H120.28V111H119.78ZM115.78 111V110.5H115.28V111H115.78ZM115.78 115V115.5H116.28V115H115.78ZM130.5 115H130V115.5H130.5V115ZM130.5 111H131V110.5H130.5V111ZM126.5 111H126V111.5H126.5V111ZM126.5 87H127V86.5H126.5V87ZM122.5 87H122V87.5H122.5V87ZM122.5 83V82.5H122V83H122.5ZM126.5 83V83.5H127V83H126.5ZM126.5 71V70.5H126V71H126.5ZM134.5 71H135V70.5H134.5V71ZM134.5 83H134V83.5H134.5V83ZM138.5 83H139V82.5H138.5V83ZM138.5 87V87.5H139V87H138.5ZM134.5 87V86.5H134V87H134.5ZM134.5 111H134V111.5H134.5V111ZM138.5 115V115.5H139V115H138.5ZM138.5 107V106.5H138V107H138.5ZM142.5 107H143V106.5H142.5V107ZM142.5 111V111.5H143V111H142.5ZM169.22 115V115.5H169.72V115H169.22ZM153.22 115H152.72V115.5H153.22V115ZM153.22 111H153.72V110.5H153.22V111ZM149.22 111H148.72V111.5H149.22V111ZM149.22 107H149.72V106.5H149.22V107ZM145.22 107H144.72V107.5H145.22V107ZM145.22 91V90.5H144.72V91H145.22ZM149.22 91V91.5H149.72V91H149.22ZM149.22 87V86.5H148.72V87H149.22ZM153.22 87V87.5H153.72V87H153.22ZM153.22 83V82.5H152.72V83H153.22ZM169.22 83H169.72V82.5H169.22V83ZM169.22 87H168.72V87.5H169.22V87ZM173.22 87H173.72V86.5H173.22V87ZM173.22 91H172.72V91.5H173.22V91ZM177.22 91H177.72V90.5H177.22V91ZM177.22 99V99.5H177.72V99H177.22ZM153.22 99V98.5H152.72V99H153.22ZM153.22 107H152.72V107.5H153.22V107ZM157.22 107H157.72V106.5H157.22V107ZM157.22 111H156.72V111.5H157.22V111ZM169.22 107V106.5H168.72V107H169.22ZM173.22 111V111.5H173.72V111H173.22ZM173.22 103V102.5H172.72V103H173.22ZM177.22 103H177.72V102.5H177.22V103ZM177.22 107V107.5H177.72V107H177.22ZM169.22 95V95.5H169.72V95H169.22ZM169.22 91H169.72V90.5H169.22V91ZM165.22 91H164.72V91.5H165.22V91ZM165.22 87H165.72V86.5H165.22V87ZM157.22 87V86.5H156.72V87H157.22ZM157.22 91V91.5H157.72V91H157.22ZM153.22 91V90.5H152.72V91H153.22ZM153.22 95H152.72V95.5H153.22V95ZM199.94 91H199.44V91.5H199.94V91ZM199.94 87H200.44V86.5H199.94V87ZM195.94 91V91.5H196.44V91H195.94ZM191.94 91V90.5H191.44V91H191.94ZM191.94 111H191.44V111.5H191.94V111ZM195.94 111H196.44V110.5H195.94V111ZM195.94 115V115.5H196.44V115H195.94ZM179.94 115H179.44V115.5H179.94V115ZM179.94 111V110.5H179.44V111H179.94ZM183.94 111V111.5H184.44V111H183.94ZM183.94 87H184.44V86.5H183.94V87ZM179.94 87H179.44V87.5H179.94V87ZM179.94 83V82.5H179.44V83H179.94ZM191.94 83H192.44V82.5H191.94V83ZM191.94 87H191.44V87.5H191.94V87ZM195.94 83V82.5H195.44V83H195.94ZM203.94 83H204.44V82.5H203.94V83ZM203.94 91V91.5H204.44V91H203.94ZM226.66 115H226.16V115.5H226.66V115ZM226.66 111V110.5H226.16V111H226.66ZM230.66 111V111.5H231.16V111H230.66ZM230.66 87H231.16V86.5H230.66V87ZM222.66 91V91.5H223.16V91H222.66ZM218.66 91V90.5H218.16V91H218.66ZM218.66 111H218.16V111.5H218.66V111ZM222.66 111H223.16V110.5H222.66V111ZM222.66 115V115.5H223.16V115H222.66ZM206.66 115H206.16V115.5H206.66V115ZM206.66 111V110.5H206.16V111H206.66ZM210.66 111V111.5H211.16V111H210.66ZM210.66 87H211.16V86.5H210.66V87ZM206.66 87H206.16V87.5H206.66V87ZM206.66 83V82.5H206.16V83H206.66ZM218.66 83H219.16V82.5H218.66V83ZM218.66 87H218.16V87.5H218.66V87ZM222.66 83V82.5H222.16V83H222.66ZM234.66 83H235.16V82.5H234.66V83ZM234.66 87H234.16V87.5H234.66V87ZM238.66 87H239.16V86.5H238.66V87ZM238.66 111H238.16V111.5H238.66V111ZM242.66 111H243.16V110.5H242.66V111ZM242.66 115V115.5H243.16V115H242.66ZM38.34 115H38.84V111H38.34H37.84V115H38.34ZM38.34 111V110.5H34.34V111V111.5H38.34V111ZM34.34 103V102.5H30.34V103V103.5H34.34V103ZM30.34 91V90.5H26.34V91V91.5H30.34V91ZM26.34 107V106.5H22.34V107V107.5H26.34V107ZM22.34 115V114.5H18.34V115V115.5H22.34V115ZM18.34 115H18.84V111H18.34H17.84V115H18.34ZM18.34 111V110.5H14.34V111V111.5H18.34V111ZM14.34 103V102.5H10.34V103V103.5H14.34V103ZM10.34 91V90.5H6.33997V91V91.5H10.34V91ZM6.33997 71V70.5H2.33997V71V71.5H6.33997V71ZM2.33997 71H2.83997V67H2.33997H1.83997V71H2.33997ZM18.34 67H17.84V71H18.34H18.84V67H18.34ZM18.34 71V70.5H14.34V71V71.5H18.34V71ZM14.34 91V91.5H18.34V91V90.5H14.34V91ZM18.34 103V103.5H22.34V103V102.5H18.34V103ZM22.34 91V91.5H26.34V91V90.5H22.34V91ZM26.34 71V70.5H22.34V71V71.5H26.34V71ZM22.34 71H22.84V67H22.34H21.84V71H22.34ZM38.34 67H37.84V71H38.34H38.84V67H38.34ZM38.34 71V70.5H34.34V71V71.5H38.34V71ZM34.34 91V91.5H38.34V91V90.5H34.34V91ZM38.34 103V103.5H42.34V103V102.5H38.34V103ZM42.34 91V91.5H46.34V91V90.5H42.34V91ZM46.34 107V106.5H42.34V107V107.5H46.34V107ZM42.34 115V114.5H38.34V115V115.5H42.34V115ZM46.34 71V70.5H42.34V71V71.5H46.34V71ZM42.34 71H42.84V67H42.34H41.84V71H42.34ZM54.34 67H53.84V71H54.34H54.84V67H54.34ZM54.34 71V70.5H50.34V71V71.5H54.34V71ZM50.34 91V90.5H46.34V91V91.5H50.34V91ZM81.06 111H80.56V115H81.06H81.56V111H81.06ZM65.06 115H65.56V111H65.06H64.56V115H65.06ZM65.06 111V110.5H61.06V111V111.5H65.06V111ZM61.06 111H61.56V107H61.06H60.56V111H61.06ZM61.06 107V106.5H57.06V107V107.5H61.06V107ZM57.06 91V91.5H61.06V91V90.5H57.06V91ZM61.06 91H61.56V87H61.06H60.56V91H61.06ZM61.06 87V87.5H65.06V87V86.5H61.06V87ZM65.06 87H65.56V83H65.06H64.56V87H65.06ZM81.06 83H80.56V87H81.06H81.56V83H81.06ZM81.06 87V87.5H85.06V87V86.5H81.06V87ZM85.06 87H84.56V91H85.06H85.56V87H85.06ZM85.06 91V91.5H89.06V91V90.5H85.06V91ZM65.06 107V107.5H69.06V107V106.5H65.06V107ZM69.06 107H68.56V111H69.06H69.56V107H69.06ZM81.06 111H81.56V107H81.06H80.56V111H81.06ZM81.06 107V107.5H85.06V107V106.5H81.06V107ZM85.06 107H84.56V111H85.06H85.56V107H85.06ZM85.06 111V110.5H81.06V111V111.5H85.06V111ZM85.06 107H85.56V103H85.06H84.56V107H85.06ZM85.06 103V103.5H89.06V103V102.5H85.06V103ZM89.06 103H88.56V107H89.06H89.56V103H89.06ZM89.06 107V106.5H85.06V107V107.5H89.06V107ZM81.06 95H81.56V91H81.06H80.56V95H81.06ZM81.06 91V90.5H77.06V91V91.5H81.06V91ZM77.06 91H77.56V87H77.06H76.56V91H77.06ZM69.06 87H68.56V91H69.06H69.56V87H69.06ZM69.06 91V90.5H65.06V91V91.5H69.06V91ZM65.06 91H64.56V95H65.06H65.56V91H65.06ZM95.78 115H96.28V111H95.78H95.28V115H95.78ZM95.78 111V110.5H91.78V111V111.5H95.78V111ZM91.78 103V103.5H95.78V103V102.5H91.78V103ZM95.78 103H95.28V107H95.78H96.28V103H95.78ZM95.78 107V107.5H99.78V107V106.5H95.78V107ZM99.78 107H99.28V111H99.78H100.28V107H99.78ZM111.78 111H112.28V107H111.78H111.28V111H111.78ZM111.78 107V107.5H115.78V107V106.5H111.78V107ZM115.78 107H116.28V103H115.78H115.28V107H115.78ZM99.78 103H100.28V99H99.78H99.28V103H99.78ZM99.78 99V98.5H95.78V99V99.5H99.78V99ZM95.78 99H96.28V95H95.78H95.28V99H95.78ZM95.78 95V94.5H91.78V95V95.5H95.78V95ZM91.78 87V87.5H95.78V87V86.5H91.78V87ZM95.78 87H96.28V83H95.78H95.28V87H95.78ZM115.78 83H115.28V87H115.78H116.28V83H115.78ZM115.78 87V87.5H119.78V87V86.5H115.78V87ZM119.78 87H119.28V91H119.78H120.28V87H119.78ZM111.78 91H112.28V87H111.78H111.28V91H111.78ZM115.78 95H115.28V99H115.78H116.28V95H115.78ZM115.78 99V99.5H119.78V99V98.5H115.78V99ZM119.78 111V110.5H115.78V111V111.5H119.78V111ZM115.78 111H115.28V115H115.78H116.28V111H115.78ZM130.5 115H131V111H130.5H130V115H130.5ZM130.5 111V110.5H126.5V111V111.5H130.5V111ZM126.5 87V86.5H122.5V87V87.5H126.5V87ZM122.5 87H123V83H122.5H122V87H122.5ZM122.5 83V83.5H126.5V83V82.5H122.5V83ZM134.5 83V83.5H138.5V83V82.5H134.5V83ZM138.5 83H138V87H138.5H139V83H138.5ZM138.5 87V86.5H134.5V87V87.5H138.5V87ZM134.5 111V111.5H138.5V111V110.5H134.5V111ZM138.5 111H138V115H138.5H139V111H138.5ZM138.5 111H139V107H138.5H138V111H138.5ZM138.5 107V107.5H142.5V107V106.5H138.5V107ZM142.5 107H142V111H142.5H143V107H142.5ZM142.5 111V110.5H138.5V111V111.5H142.5V111ZM169.22 111H168.72V115H169.22H169.72V111H169.22ZM153.22 115H153.72V111H153.22H152.72V115H153.22ZM153.22 111V110.5H149.22V111V111.5H153.22V111ZM149.22 111H149.72V107H149.22H148.72V111H149.22ZM149.22 107V106.5H145.22V107V107.5H149.22V107ZM145.22 91V91.5H149.22V91V90.5H145.22V91ZM149.22 91H149.72V87H149.22H148.72V91H149.22ZM149.22 87V87.5H153.22V87V86.5H149.22V87ZM153.22 87H153.72V83H153.22H152.72V87H153.22ZM169.22 83H168.72V87H169.22H169.72V83H169.22ZM169.22 87V87.5H173.22V87V86.5H169.22V87ZM173.22 87H172.72V91H173.22H173.72V87H173.22ZM173.22 91V91.5H177.22V91V90.5H173.22V91ZM153.22 107V107.5H157.22V107V106.5H153.22V107ZM157.22 107H156.72V111H157.22H157.72V107H157.22ZM169.22 111H169.72V107H169.22H168.72V111H169.22ZM169.22 107V107.5H173.22V107V106.5H169.22V107ZM173.22 107H172.72V111H173.22H173.72V107H173.22ZM173.22 111V110.5H169.22V111V111.5H173.22V111ZM173.22 107H173.72V103H173.22H172.72V107H173.22ZM173.22 103V103.5H177.22V103V102.5H173.22V103ZM177.22 103H176.72V107H177.22H177.72V103H177.22ZM177.22 107V106.5H173.22V107V107.5H177.22V107ZM169.22 95H169.72V91H169.22H168.72V95H169.22ZM169.22 91V90.5H165.22V91V91.5H169.22V91ZM165.22 91H165.72V87H165.22H164.72V91H165.22ZM157.22 87H156.72V91H157.22H157.72V87H157.22ZM157.22 91V90.5H153.22V91V91.5H157.22V91ZM153.22 91H152.72V95H153.22H153.72V91H153.22ZM199.94 91H200.44V87H199.94H199.44V91H199.94ZM199.94 87V86.5H195.94V87V87.5H199.94V87ZM195.94 87H195.44V91H195.94H196.44V87H195.94ZM195.94 91V90.5H191.94V91V91.5H195.94V91ZM191.94 111V111.5H195.94V111V110.5H191.94V111ZM195.94 111H195.44V115H195.94H196.44V111H195.94ZM179.94 115H180.44V111H179.94H179.44V115H179.94ZM179.94 111V111.5H183.94V111V110.5H179.94V111ZM183.94 87V86.5H179.94V87V87.5H183.94V87ZM179.94 87H180.44V83H179.94H179.44V87H179.94ZM191.94 83H191.44V87H191.94H192.44V83H191.94ZM191.94 87V87.5H195.94V87V86.5H191.94V87ZM195.94 87H196.44V83H195.94H195.44V87H195.94ZM203.94 91V90.5H199.94V91V91.5H203.94V91ZM226.66 115H227.16V111H226.66H226.16V115H226.66ZM226.66 111V111.5H230.66V111V110.5H226.66V111ZM222.66 87H222.16V91H222.66H223.16V87H222.66ZM222.66 91V90.5H218.66V91V91.5H222.66V91ZM218.66 111V111.5H222.66V111V110.5H218.66V111ZM222.66 111H222.16V115H222.66H223.16V111H222.66ZM206.66 115H207.16V111H206.66H206.16V115H206.66ZM206.66 111V111.5H210.66V111V110.5H206.66V111ZM210.66 87V86.5H206.66V87V87.5H210.66V87ZM206.66 87H207.16V83H206.66H206.16V87H206.66ZM218.66 83H218.16V87H218.66H219.16V83H218.66ZM218.66 87V87.5H222.66V87V86.5H218.66V87ZM222.66 87H223.16V83H222.66H222.16V87H222.66ZM234.66 83H234.16V87H234.66H235.16V83H234.66ZM234.66 87V87.5H238.66V87V86.5H234.66V87ZM238.66 111V111.5H242.66V111V110.5H238.66V111ZM242.66 111H242.16V115H242.66H243.16V111H242.66ZM34.34 111H34.84V103H34.34H33.84V111H34.34ZM30.34 103H30.84V91H30.34H29.84V103H30.34ZM26.34 91H25.84V107H26.34H26.84V91H26.34ZM22.34 107H21.84V115H22.34H22.84V107H22.34ZM14.34 111H14.84V103H14.34H13.84V111H14.34ZM10.34 103H10.84V91H10.34H9.83997V103H10.34ZM6.33997 91H6.83997V71H6.33997H5.83997V91H6.33997ZM2.33997 67V67.5H18.34V67V66.5H2.33997V67ZM14.34 71H13.84V91H14.34H14.84V71H14.34ZM18.34 91H17.84V103H18.34H18.84V91H18.34ZM22.34 103H22.84V91H22.34H21.84V103H22.34ZM26.34 91H26.84V71H26.34H25.84V91H26.34ZM22.34 67V67.5H38.34V67V66.5H22.34V67ZM34.34 71H33.84V91H34.34H34.84V71H34.34ZM38.34 91H37.84V103H38.34H38.84V91H38.34ZM42.34 103H42.84V91H42.34H41.84V103H42.34ZM46.34 91H45.84V107H46.34H46.84V91H46.34ZM42.34 107H41.84V115H42.34H42.84V107H42.34ZM46.34 91H46.84V71H46.34H45.84V91H46.34ZM42.34 67V67.5H54.34V67V66.5H42.34V67ZM50.34 71H49.84V91H50.34H50.84V71H50.34ZM69.06 111V111.5H81.06V111V110.5H69.06V111ZM81.06 115V114.5H65.06V115V115.5H81.06V115ZM57.06 107H57.56V91H57.06H56.56V107H57.06ZM65.06 83V83.5H81.06V83V82.5H65.06V83ZM89.06 91H88.56V99H89.06H89.56V91H89.06ZM89.06 99V98.5H65.06V99V99.5H89.06V99ZM65.06 99H64.56V107H65.06H65.56V99H65.06ZM65.06 95V95.5H81.06V95V94.5H65.06V95ZM77.06 87V86.5H69.06V87V87.5H77.06V87ZM115.78 115V114.5H95.78V115V115.5H115.78V115ZM91.78 111H92.28V103H91.78H91.28V111H91.78ZM99.78 111V111.5H111.78V111V110.5H99.78V111ZM115.78 103V102.5H99.78V103V103.5H115.78V103ZM91.78 95H92.28V87H91.78H91.28V95H91.78ZM95.78 83V83.5H115.78V83V82.5H95.78V83ZM119.78 91V90.5H111.78V91V91.5H119.78V91ZM111.78 87V86.5H99.78V87V87.5H111.78V87ZM99.78 87H99.28V95H99.78H100.28V87H99.78ZM99.78 95V95.5H115.78V95V94.5H99.78V95ZM119.78 99H119.28V111H119.78H120.28V99H119.78ZM138.5 115V114.5H130.5V115V115.5H138.5V115ZM126.5 111H127V87H126.5H126V111H126.5ZM126.5 83H127V71H126.5H126V83H126.5ZM126.5 71V71.5H134.5V71V70.5H126.5V71ZM134.5 71H134V83H134.5H135V71H134.5ZM134.5 87H134V111H134.5H135V87H134.5ZM157.22 111V111.5H169.22V111V110.5H157.22V111ZM169.22 115V114.5H153.22V115V115.5H169.22V115ZM145.22 107H145.72V91H145.22H144.72V107H145.22ZM153.22 83V83.5H169.22V83V82.5H153.22V83ZM177.22 91H176.72V99H177.22H177.72V91H177.22ZM177.22 99V98.5H153.22V99V99.5H177.22V99ZM153.22 99H152.72V107H153.22H153.72V99H153.22ZM153.22 95V95.5H169.22V95V94.5H153.22V95ZM165.22 87V86.5H157.22V87V87.5H165.22V87ZM191.94 91H191.44V111H191.94H192.44V91H191.94ZM195.94 115V114.5H179.94V115V115.5H195.94V115ZM183.94 111H184.44V87H183.94H183.44V111H183.94ZM179.94 83V83.5H191.94V83V82.5H179.94V83ZM195.94 83V83.5H203.94V83V82.5H195.94V83ZM203.94 83H203.44V91H203.94H204.44V83H203.94ZM242.66 115V114.5H226.66V115V115.5H242.66V115ZM230.66 111H231.16V87H230.66H230.16V111H230.66ZM230.66 87V86.5H222.66V87V87.5H230.66V87ZM218.66 91H218.16V111H218.66H219.16V91H218.66ZM222.66 115V114.5H206.66V115V115.5H222.66V115ZM210.66 111H211.16V87H210.66H210.16V111H210.66ZM206.66 83V83.5H218.66V83V82.5H206.66V83ZM222.66 83V83.5H234.66V83V82.5H222.66V83ZM238.66 87H238.16V111H238.66H239.16V87H238.66Z" fill="#47324C" mask="url(#path-3-outside-2_32_11774)"/>
<path d="M86.251 138.75V143.25H78.251V146.75H82.251V154.75H86.251V158.75H89.751V154.75H93.751V150.75H97.752V143.25H93.751V138.75H110.252V143.25H106.252V147.25H102.252V151.25H98.252V155.25H94.251V159.25H90.251V166.75H94.251V170.75H98.252V174.75H102.252V178.75H106.252V182.75H110.252V187.25H89.751V182.75H93.751V175.25H89.751V171.25H82.251V175.25H78.251V182.75H82.251V187.25H65.75V182.75H69.75V178.75H73.75V174.75H77.751V170.75H81.751V163.25H77.751V155.25H73.75V147.25H69.75V143.25H65.75V138.75H86.251ZM144.751 138.75V143.25H133.579V182.75H144.751V187.25H113.906V182.75H125.079V143.25H113.906V138.75H144.751ZM179.25 138.75V143.25H168.078V182.75H179.25V187.25H148.405V182.75H159.577V143.25H148.405V138.75H179.25Z" fill="#47324C" stroke="#47324C" stroke-width="0.5"/>
</svg>
