<svg width="360" height="276" viewBox="0 0 360 276" fill="none" xmlns="http://www.w3.org/2000/svg">
<mask id="path-1-outside-1_406_3909" maskUnits="userSpaceOnUse" x="64.2705" y="0" width="232" height="73" fill="black">
<rect fill="white" x="64.2705" width="232" height="73"/>
<path d="M100.536 71.5306V65.6531H112.291V42.1429H82.9032V65.6531H94.6583V71.5306H65.2705V65.6531H71.1481V6.87755H65.2705V1H94.6583V6.87755H82.9032V36.2653H112.291V6.87755H100.536V1H129.924V6.87755H124.046V65.6531H129.924V71.5306H100.536Z"/>
<path d="M139.798 36.2653V30.3878H145.675V36.2653H139.798ZM175.063 71.5306V65.6531H163.308V59.7755H169.186V42.1429H163.308V48.0204H145.675V65.6531H163.308V71.5306H139.798V65.6531H133.92V48.0204H139.798V42.1429H163.308V36.2653H169.186V30.3878H145.675V24.5102H175.063V30.3878H180.941V65.6531H186.818V71.5306H175.063Z"/>
<path d="M226.08 65.6531V71.5306H202.57V65.6531H196.693V59.7755H190.815V36.2653H196.693V30.3878H208.448V36.2653H202.57V53.898H208.448V59.7755H214.325V65.6531H226.08ZM226.08 65.6531V53.898H231.958V65.6531H226.08ZM220.203 42.1429V30.3878H226.08V36.2653H231.958V42.1429H220.203ZM220.203 30.3878H208.448V24.5102H220.203V30.3878Z"/>
<path d="M294.73 65.6531V71.5306H265.342V65.6531H271.22V59.7755H265.342V53.898H259.465V48.0204H253.587V65.6531H259.465V71.5306H235.955V65.6531H241.832V6.87755H235.955V1H253.587V42.1429H265.342V48.0204H271.22V53.898H277.097V59.7755H282.975V65.6531H294.73ZM265.342 42.1429V36.2653H271.22V42.1429H265.342ZM271.22 36.2653V30.3878H265.342V24.5102H282.975V30.3878H277.097V36.2653H271.22Z"/>
</mask>
<path d="M100.536 71.5306V65.6531H112.291V42.1429H82.9032V65.6531H94.6583V71.5306H65.2705V65.6531H71.1481V6.87755H65.2705V1H94.6583V6.87755H82.9032V36.2653H112.291V6.87755H100.536V1H129.924V6.87755H124.046V65.6531H129.924V71.5306H100.536Z" fill="#3C204C"/>
<path d="M139.798 36.2653V30.3878H145.675V36.2653H139.798ZM175.063 71.5306V65.6531H163.308V59.7755H169.186V42.1429H163.308V48.0204H145.675V65.6531H163.308V71.5306H139.798V65.6531H133.92V48.0204H139.798V42.1429H163.308V36.2653H169.186V30.3878H145.675V24.5102H175.063V30.3878H180.941V65.6531H186.818V71.5306H175.063Z" fill="#3C204C"/>
<path d="M226.08 65.6531V71.5306H202.57V65.6531H196.693V59.7755H190.815V36.2653H196.693V30.3878H208.448V36.2653H202.57V53.898H208.448V59.7755H214.325V65.6531H226.08ZM226.08 65.6531V53.898H231.958V65.6531H226.08ZM220.203 42.1429V30.3878H226.08V36.2653H231.958V42.1429H220.203ZM220.203 30.3878H208.448V24.5102H220.203V30.3878Z" fill="#3C204C"/>
<path d="M294.73 65.6531V71.5306H265.342V65.6531H271.22V59.7755H265.342V53.898H259.465V48.0204H253.587V65.6531H259.465V71.5306H235.955V65.6531H241.832V6.87755H235.955V1H253.587V42.1429H265.342V48.0204H271.22V53.898H277.097V59.7755H282.975V65.6531H294.73ZM265.342 42.1429V36.2653H271.22V42.1429H265.342ZM271.22 36.2653V30.3878H265.342V24.5102H282.975V30.3878H277.097V36.2653H271.22Z" fill="#3C204C"/>
<path d="M100.536 71.5306H99.8011V72.2653H100.536V71.5306ZM100.536 65.6531V64.9184H99.8011V65.6531H100.536ZM112.291 65.6531V66.3877H113.026V65.6531H112.291ZM112.291 42.1429H113.026V41.4082H112.291V42.1429ZM82.9032 42.1429V41.4082H82.1685V42.1429H82.9032ZM82.9032 65.6531H82.1685V66.3877H82.9032V65.6531ZM94.6583 65.6531H95.393V64.9184H94.6583V65.6531ZM94.6583 71.5306V72.2653H95.393V71.5306H94.6583ZM65.2705 71.5306H64.5358V72.2653H65.2705V71.5306ZM65.2705 65.6531V64.9184H64.5358V65.6531H65.2705ZM71.1481 65.6531V66.3877H71.8828V65.6531H71.1481ZM71.1481 6.87755H71.8828V6.14286H71.1481V6.87755ZM65.2705 6.87755H64.5358V7.61224H65.2705V6.87755ZM65.2705 1V0.265306H64.5358V1H65.2705ZM94.6583 1H95.393V0.265306H94.6583V1ZM94.6583 6.87755V7.61224H95.393V6.87755H94.6583ZM82.9032 6.87755V6.14286H82.1685V6.87755H82.9032ZM82.9032 36.2653H82.1685V37H82.9032V36.2653ZM112.291 36.2653V37H113.026V36.2653H112.291ZM112.291 6.87755H113.026V6.14286H112.291V6.87755ZM100.536 6.87755H99.8011V7.61224H100.536V6.87755ZM100.536 1V0.265306H99.8011V1H100.536ZM129.924 1H130.658V0.265306H129.924V1ZM129.924 6.87755V7.61224H130.658V6.87755H129.924ZM124.046 6.87755V6.14286H123.311V6.87755H124.046ZM124.046 65.6531H123.311V66.3877H124.046V65.6531ZM129.924 65.6531H130.658V64.9184H129.924V65.6531ZM129.924 71.5306V72.2653H130.658V71.5306H129.924ZM139.798 36.2653H139.063V37H139.798V36.2653ZM139.798 30.3878V29.6531H139.063V30.3878H139.798ZM145.675 36.2653V37H146.41V36.2653H145.675ZM175.063 71.5306H174.328V72.2653H175.063V71.5306ZM175.063 65.6531H175.798V64.9184H175.063V65.6531ZM163.308 59.7755V59.0408H162.573V59.7755H163.308ZM169.186 59.7755V60.5102H169.92V59.7755H169.186ZM169.186 42.1429H169.92V41.4082H169.186V42.1429ZM163.308 48.0204V48.7551H164.043V48.0204H163.308ZM145.675 48.0204V47.2857H144.941V48.0204H145.675ZM145.675 65.6531H144.941V66.3877H145.675V65.6531ZM163.308 71.5306V72.2653H164.043V71.5306H163.308ZM139.798 71.5306H139.063V72.2653H139.798V71.5306ZM139.798 65.6531H140.533V64.9184H139.798V65.6531ZM133.92 65.6531H133.186V66.3877H133.92V65.6531ZM133.92 48.0204V47.2857H133.186V48.0204H133.92ZM139.798 48.0204V48.7551H140.533V48.0204H139.798ZM139.798 42.1429V41.4082H139.063V42.1429H139.798ZM163.308 36.2653V35.5306H162.573V36.2653H163.308ZM169.186 36.2653V37H169.92V36.2653H169.186ZM169.186 30.3878H169.92V29.6531H169.186V30.3878ZM145.675 24.5102V23.7755H144.941V24.5102H145.675ZM175.063 24.5102H175.798V23.7755H175.063V24.5102ZM175.063 30.3878H174.328V31.1224H175.063V30.3878ZM180.941 30.3878H181.675V29.6531H180.941V30.3878ZM180.941 65.6531H180.206V66.3877H180.941V65.6531ZM186.818 65.6531H187.553V64.9184H186.818V65.6531ZM186.818 71.5306V72.2653H187.553V71.5306H186.818ZM226.08 71.5306V72.2653H226.815V71.5306H226.08ZM202.57 71.5306H201.835V72.2653H202.57V71.5306ZM202.57 65.6531H203.305V64.9184H202.57V65.6531ZM196.693 65.6531H195.958V66.3877H196.693V65.6531ZM196.693 59.7755H197.427V59.0408H196.693V59.7755ZM190.815 59.7755H190.08V60.5102H190.815V59.7755ZM190.815 36.2653V35.5306H190.08V36.2653H190.815ZM196.693 36.2653V37H197.427V36.2653H196.693ZM196.693 30.3878V29.6531H195.958V30.3878H196.693ZM208.448 36.2653V37H209.182V36.2653H208.448ZM202.57 36.2653V35.5306H201.835V36.2653H202.57ZM202.57 53.898H201.835V54.6326H202.57V53.898ZM208.448 53.898H209.182V53.1633H208.448V53.898ZM208.448 59.7755H207.713V60.5102H208.448V59.7755ZM214.325 59.7755H215.06V59.0408H214.325V59.7755ZM214.325 65.6531H213.591V66.3877H214.325V65.6531ZM226.08 53.898V53.1633H225.346V53.898H226.08ZM231.958 53.898H232.693V53.1633H231.958V53.898ZM231.958 65.6531V66.3877H232.693V65.6531H231.958ZM220.203 42.1429H219.468V42.8775H220.203V42.1429ZM226.08 30.3878H226.815V29.6531H226.08V30.3878ZM226.08 36.2653H225.346V37H226.08V36.2653ZM231.958 36.2653H232.693V35.5306H231.958V36.2653ZM231.958 42.1429V42.8775H232.693V42.1429H231.958ZM208.448 24.5102V23.7755H207.713V24.5102H208.448ZM220.203 24.5102H220.937V23.7755H220.203V24.5102ZM294.73 65.6531H295.465V64.9184H294.73V65.6531ZM294.73 71.5306V72.2653H295.465V71.5306H294.73ZM265.342 71.5306H264.608V72.2653H265.342V71.5306ZM265.342 65.6531V64.9184H264.608V65.6531H265.342ZM271.22 65.6531V66.3877H271.955V65.6531H271.22ZM271.22 59.7755H271.955V59.0408H271.22V59.7755ZM265.342 59.7755H264.608V60.5102H265.342V59.7755ZM265.342 53.898H266.077V53.1633H265.342V53.898ZM259.465 53.898H258.73V54.6326H259.465V53.898ZM259.465 48.0204H260.199V47.2857H259.465V48.0204ZM253.587 48.0204V47.2857H252.853V48.0204H253.587ZM253.587 65.6531H252.853V66.3877H253.587V65.6531ZM259.465 65.6531H260.199V64.9184H259.465V65.6531ZM259.465 71.5306V72.2653H260.199V71.5306H259.465ZM235.955 71.5306H235.22V72.2653H235.955V71.5306ZM235.955 65.6531V64.9184H235.22V65.6531H235.955ZM241.832 65.6531V66.3877H242.567V65.6531H241.832ZM241.832 6.87755H242.567V6.14286H241.832V6.87755ZM235.955 6.87755H235.22V7.61224H235.955V6.87755ZM235.955 1V0.265306H235.22V1H235.955ZM253.587 1H254.322V0.265306H253.587V1ZM253.587 42.1429H252.853V42.8775H253.587V42.1429ZM265.342 48.0204H264.608V48.7551H265.342V48.0204ZM271.22 48.0204H271.955V47.2857H271.22V48.0204ZM271.22 53.898H270.485V54.6326H271.22V53.898ZM277.097 53.898H277.832V53.1633H277.097V53.898ZM277.097 59.7755H276.363V60.5102H277.097V59.7755ZM282.975 59.7755H283.71V59.0408H282.975V59.7755ZM282.975 65.6531H282.24V66.3877H282.975V65.6531ZM265.342 36.2653V35.5306H264.608V36.2653H265.342ZM271.22 42.1429V42.8775H271.955V42.1429H271.22ZM271.22 30.3878H271.955V29.6531H271.22V30.3878ZM265.342 30.3878H264.608V31.1224H265.342V30.3878ZM265.342 24.5102V23.7755H264.608V24.5102H265.342ZM282.975 24.5102H283.71V23.7755H282.975V24.5102ZM282.975 30.3878V31.1224H283.71V30.3878H282.975ZM277.097 30.3878V29.6531H276.363V30.3878H277.097ZM277.097 36.2653V37H277.832V36.2653H277.097ZM100.536 71.5306H101.271V65.6531H100.536H99.8011V71.5306H100.536ZM94.6583 65.6531H93.9236V71.5306H94.6583H95.393V65.6531H94.6583ZM65.2705 71.5306H66.0052V65.6531H65.2705H64.5358V71.5306H65.2705ZM65.2705 65.6531V66.3877H71.1481V65.6531V64.9184H65.2705V65.6531ZM71.1481 6.87755V6.14286H65.2705V6.87755V7.61224H71.1481V6.87755ZM65.2705 6.87755H66.0052V1H65.2705H64.5358V6.87755H65.2705ZM94.6583 1H93.9236V6.87755H94.6583H95.393V1H94.6583ZM100.536 6.87755H101.271V1H100.536H99.8011V6.87755H100.536ZM129.924 1H129.189V6.87755H129.924H130.658V1H129.924ZM129.924 6.87755V6.14286H124.046V6.87755V7.61224H129.924V6.87755ZM124.046 65.6531V66.3877H129.924V65.6531V64.9184H124.046V65.6531ZM129.924 65.6531H129.189V71.5306H129.924H130.658V65.6531H129.924ZM139.798 36.2653H140.533V30.3878H139.798H139.063V36.2653H139.798ZM139.798 30.3878V31.1224H145.675V30.3878V29.6531H139.798V30.3878ZM145.675 30.3878H144.941V36.2653H145.675H146.41V30.3878H145.675ZM145.675 36.2653V35.5306H139.798V36.2653V37H145.675V36.2653ZM175.063 71.5306H175.798V65.6531H175.063H174.328V71.5306H175.063ZM163.308 65.6531H164.043V59.7755H163.308H162.573V65.6531H163.308ZM163.308 59.7755V60.5102H169.186V59.7755V59.0408H163.308V59.7755ZM169.186 42.1429V41.4082H163.308V42.1429V42.8775H169.186V42.1429ZM163.308 42.1429H162.573V48.0204H163.308H164.043V42.1429H163.308ZM163.308 65.6531H162.573V71.5306H163.308H164.043V65.6531H163.308ZM139.798 71.5306H140.533V65.6531H139.798H139.063V71.5306H139.798ZM139.798 65.6531V64.9184H133.92V65.6531V66.3877H139.798V65.6531ZM133.92 48.0204V48.7551H139.798V48.0204V47.2857H133.92V48.0204ZM139.798 48.0204H140.533V42.1429H139.798H139.063V48.0204H139.798ZM163.308 42.1429H164.043V36.2653H163.308H162.573V42.1429H163.308ZM163.308 36.2653V37H169.186V36.2653V35.5306H163.308V36.2653ZM169.186 36.2653H169.92V30.3878H169.186H168.451V36.2653H169.186ZM145.675 30.3878H146.41V24.5102H145.675H144.941V30.3878H145.675ZM175.063 24.5102H174.328V30.3878H175.063H175.798V24.5102H175.063ZM175.063 30.3878V31.1224H180.941V30.3878V29.6531H175.063V30.3878ZM180.941 65.6531V66.3877H186.818V65.6531V64.9184H180.941V65.6531ZM186.818 65.6531H186.084V71.5306H186.818H187.553V65.6531H186.818ZM226.08 65.6531H225.346V71.5306H226.08H226.815V65.6531H226.08ZM202.57 71.5306H203.305V65.6531H202.57H201.835V71.5306H202.57ZM202.57 65.6531V64.9184H196.693V65.6531V66.3877H202.57V65.6531ZM196.693 65.6531H197.427V59.7755H196.693H195.958V65.6531H196.693ZM196.693 59.7755V59.0408H190.815V59.7755V60.5102H196.693V59.7755ZM190.815 36.2653V37H196.693V36.2653V35.5306H190.815V36.2653ZM196.693 36.2653H197.427V30.3878H196.693H195.958V36.2653H196.693ZM208.448 30.3878H207.713V36.2653H208.448H209.182V30.3878H208.448ZM208.448 36.2653V35.5306H202.57V36.2653V37H208.448V36.2653ZM202.57 53.898V54.6326H208.448V53.898V53.1633H202.57V53.898ZM208.448 53.898H207.713V59.7755H208.448H209.182V53.898H208.448ZM208.448 59.7755V60.5102H214.325V59.7755V59.0408H208.448V59.7755ZM214.325 59.7755H213.591V65.6531H214.325H215.06V59.7755H214.325ZM226.08 53.898V54.6326H231.958V53.898V53.1633H226.08V53.898ZM231.958 65.6531V64.9184H226.08V65.6531V66.3877H231.958V65.6531ZM220.203 30.3878V31.1224H226.08V30.3878V29.6531H220.203V30.3878ZM226.08 30.3878H225.346V36.2653H226.08H226.815V30.3878H226.08ZM226.08 36.2653V37H231.958V36.2653V35.5306H226.08V36.2653ZM231.958 36.2653H231.223V42.1429H231.958H232.693V36.2653H231.958ZM208.448 30.3878H209.182V24.5102H208.448H207.713V30.3878H208.448ZM220.203 24.5102H219.468V30.3878H220.203H220.937V24.5102H220.203ZM294.73 65.6531H293.995V71.5306H294.73H295.465V65.6531H294.73ZM265.342 71.5306H266.077V65.6531H265.342H264.608V71.5306H265.342ZM265.342 65.6531V66.3877H271.22V65.6531V64.9184H265.342V65.6531ZM271.22 65.6531H271.955V59.7755H271.22H270.485V65.6531H271.22ZM271.22 59.7755V59.0408H265.342V59.7755V60.5102H271.22V59.7755ZM265.342 59.7755H266.077V53.898H265.342H264.608V59.7755H265.342ZM265.342 53.898V53.1633H259.465V53.898V54.6326H265.342V53.898ZM259.465 53.898H260.199V48.0204H259.465H258.73V53.898H259.465ZM259.465 48.0204V47.2857H253.587V48.0204V48.7551H259.465V48.0204ZM253.587 65.6531V66.3877H259.465V65.6531V64.9184H253.587V65.6531ZM259.465 65.6531H258.73V71.5306H259.465H260.199V65.6531H259.465ZM235.955 71.5306H236.689V65.6531H235.955H235.22V71.5306H235.955ZM235.955 65.6531V66.3877H241.832V65.6531V64.9184H235.955V65.6531ZM241.832 6.87755V6.14286H235.955V6.87755V7.61224H241.832V6.87755ZM235.955 6.87755H236.689V1H235.955H235.22V6.87755H235.955ZM265.342 42.1429H264.608V48.0204H265.342H266.077V42.1429H265.342ZM265.342 48.0204V48.7551H271.22V48.0204V47.2857H265.342V48.0204ZM271.22 48.0204H270.485V53.898H271.22H271.955V48.0204H271.22ZM271.22 53.898V54.6326H277.097V53.898V53.1633H271.22V53.898ZM277.097 53.898H276.363V59.7755H277.097H277.832V53.898H277.097ZM277.097 59.7755V60.5102H282.975V59.7755V59.0408H277.097V59.7755ZM282.975 59.7755H282.24V65.6531H282.975H283.71V59.7755H282.975ZM265.342 42.1429H266.077V36.2653H265.342H264.608V42.1429H265.342ZM265.342 36.2653V37H271.22V36.2653V35.5306H265.342V36.2653ZM271.22 36.2653H270.485V42.1429H271.22H271.955V36.2653H271.22ZM271.22 42.1429V41.4082H265.342V42.1429V42.8775H271.22V42.1429ZM271.22 36.2653H271.955V30.3878H271.22H270.485V36.2653H271.22ZM271.22 30.3878V29.6531H265.342V30.3878V31.1224H271.22V30.3878ZM265.342 30.3878H266.077V24.5102H265.342H264.608V30.3878H265.342ZM282.975 24.5102H282.24V30.3878H282.975H283.71V24.5102H282.975ZM282.975 30.3878V29.6531H277.097V30.3878V31.1224H282.975V30.3878ZM277.097 30.3878H276.363V36.2653H277.097H277.832V30.3878H277.097ZM277.097 36.2653V35.5306H271.22V36.2653V37H277.097V36.2653ZM129.924 71.5306V70.7959H100.536V71.5306V72.2653H129.924V71.5306ZM100.536 65.6531V66.3877H112.291V65.6531V64.9184H100.536V65.6531ZM112.291 65.6531H113.026V42.1429H112.291H111.556V65.6531H112.291ZM112.291 42.1429V41.4082H82.9032V42.1429V42.8775H112.291V42.1429ZM82.9032 42.1429H82.1685V65.6531H82.9032H83.6379V42.1429H82.9032ZM82.9032 65.6531V66.3877H94.6583V65.6531V64.9184H82.9032V65.6531ZM94.6583 71.5306V70.7959H65.2705V71.5306V72.2653H94.6583V71.5306ZM71.1481 65.6531H71.8828V6.87755H71.1481H70.4134V65.6531H71.1481ZM65.2705 1V1.73469H94.6583V1V0.265306H65.2705V1ZM94.6583 6.87755V6.14286H82.9032V6.87755V7.61224H94.6583V6.87755ZM82.9032 6.87755H82.1685V36.2653H82.9032H83.6379V6.87755H82.9032ZM82.9032 36.2653V37H112.291V36.2653V35.5306H82.9032V36.2653ZM112.291 36.2653H113.026V6.87755H112.291H111.556V36.2653H112.291ZM112.291 6.87755V6.14286H100.536V6.87755V7.61224H112.291V6.87755ZM100.536 1V1.73469H129.924V1V0.265306H100.536V1ZM124.046 6.87755H123.311V65.6531H124.046H124.781V6.87755H124.046ZM186.818 71.5306V70.7959H175.063V71.5306V72.2653H186.818V71.5306ZM175.063 65.6531V64.9184H163.308V65.6531V66.3877H175.063V65.6531ZM169.186 59.7755H169.92V42.1429H169.186H168.451V59.7755H169.186ZM163.308 48.0204V47.2857H145.675V48.0204V48.7551H163.308V48.0204ZM145.675 48.0204H144.941V65.6531H145.675H146.41V48.0204H145.675ZM145.675 65.6531V66.3877H163.308V65.6531V64.9184H145.675V65.6531ZM163.308 71.5306V70.7959H139.798V71.5306V72.2653H163.308V71.5306ZM133.92 65.6531H134.655V48.0204H133.92H133.186V65.6531H133.92ZM139.798 42.1429V42.8775H163.308V42.1429V41.4082H139.798V42.1429ZM169.186 30.3878V29.6531H145.675V30.3878V31.1224H169.186V30.3878ZM145.675 24.5102V25.2449H175.063V24.5102V23.7755H145.675V24.5102ZM180.941 30.3878H180.206V65.6531H180.941H181.675V30.3878H180.941ZM214.325 65.6531V66.3877H226.08V65.6531V64.9184H214.325V65.6531ZM226.08 71.5306V70.7959H202.57V71.5306V72.2653H226.08V71.5306ZM190.815 59.7755H191.55V36.2653H190.815H190.08V59.7755H190.815ZM196.693 30.3878V31.1224H208.448V30.3878V29.6531H196.693V30.3878ZM202.57 36.2653H201.835V53.898H202.57H203.305V36.2653H202.57ZM226.08 65.6531H226.815V53.898H226.08H225.346V65.6531H226.08ZM231.958 53.898H231.223V65.6531H231.958H232.693V53.898H231.958ZM231.958 42.1429V41.4082H220.203V42.1429V42.8775H231.958V42.1429ZM220.203 42.1429H220.937V30.3878H220.203H219.468V42.1429H220.203ZM220.203 30.3878V29.6531H208.448V30.3878V31.1224H220.203V30.3878ZM208.448 24.5102V25.2449H220.203V24.5102V23.7755H208.448V24.5102ZM282.975 65.6531V66.3877H294.73V65.6531V64.9184H282.975V65.6531ZM294.73 71.5306V70.7959H265.342V71.5306V72.2653H294.73V71.5306ZM253.587 48.0204H252.853V65.6531H253.587H254.322V48.0204H253.587ZM259.465 71.5306V70.7959H235.955V71.5306V72.2653H259.465V71.5306ZM241.832 65.6531H242.567V6.87755H241.832H241.097V65.6531H241.832ZM235.955 1V1.73469H253.587V1V0.265306H235.955V1ZM253.587 1H252.853V42.1429H253.587H254.322V1H253.587ZM253.587 42.1429V42.8775H265.342V42.1429V41.4082H253.587V42.1429ZM265.342 24.5102V25.2449H282.975V24.5102V23.7755H265.342V24.5102Z" fill="#3C204C" mask="url(#path-1-outside-1_406_3909)"/>
<mask id="path-3-outside-2_406_3909" maskUnits="userSpaceOnUse" x="2.43848" y="96.9795" width="355" height="73" fill="black">
<rect fill="white" x="2.43848" y="96.9795" width="355" height="73"/>
<path d="M56.3364 168.51V162.633H50.4589V150.877H44.5813V133.245H38.7038V156.755H32.8262V168.51H26.9487V162.633H21.0711V150.877H15.1936V133.245H9.31603V103.857H3.43848V97.9795H26.9487V103.857H21.0711V133.245H26.9487V150.877H32.8262V133.245H38.7038V103.857H32.8262V97.9795H56.3364V103.857H50.4589V133.245H56.3364V150.877H62.214V133.245H68.0915V156.755H62.214V168.51H56.3364ZM68.0915 133.245V103.857H62.214V97.9795H79.8466V103.857H73.9691V133.245H68.0915Z"/>
<path d="M119.109 162.633V168.51H95.5985V162.633H89.7209V156.755H83.8434V133.245H89.7209V127.367H95.5985V121.49H119.109V127.367H124.986V133.245H130.864V145H95.5985V156.755H101.476V162.633H119.109ZM119.109 162.633V156.755H124.986V162.633H119.109ZM124.986 156.755V150.877H130.864V156.755H124.986ZM119.109 139.122V133.245H113.231V127.367H101.476V133.245H95.5985V139.122H119.109Z"/>
<path d="M140.738 168.51V162.633H134.861V150.877H140.738V156.755H146.616V162.633H164.248V156.755H170.126V150.877H146.616V145H140.738V139.122H134.861V127.367H140.738V121.49H170.126V127.367H176.003V133.245H164.248V127.367H146.616V139.122H170.126V145H176.003V162.633H170.126V168.51H140.738Z"/>
<path d="M191.755 168.51V162.633H185.878V127.367H180V121.49H185.878V103.857H197.633V121.49H203.51V127.367H197.633V162.633H203.51V168.51H191.755ZM203.51 162.633V156.755H209.388V162.633H203.51Z"/>
<path d="M248.65 162.633V168.51H225.14V162.633H219.262V156.755H213.385V133.245H219.262V127.367H225.14V121.49H248.65V127.367H254.527V133.245H260.405V145H225.14V156.755H231.017V162.633H248.65ZM248.65 162.633V156.755H254.527V162.633H248.65ZM254.527 156.755V150.877H260.405V156.755H254.527ZM248.65 139.122V133.245H242.772V127.367H231.017V133.245H225.14V139.122H248.65Z"/>
<path d="M293.789 133.245V127.367H287.912V133.245H282.034V162.633H287.912V168.51H264.402V162.633H270.279V127.367H264.402V121.49H282.034V127.367H287.912V121.49H299.667V133.245H293.789Z"/>
<path d="M333.052 168.51V162.633H338.929V127.367H327.174V133.245H321.296V162.633H327.174V168.51H303.664V162.633H309.541V127.367H303.664V121.49H321.296V127.367H327.174V121.49H344.807V127.367H350.684V162.633H356.562V168.51H333.052Z"/>
</mask>
<path d="M56.3364 168.51V162.633H50.4589V150.877H44.5813V133.245H38.7038V156.755H32.8262V168.51H26.9487V162.633H21.0711V150.877H15.1936V133.245H9.31603V103.857H3.43848V97.9795H26.9487V103.857H21.0711V133.245H26.9487V150.877H32.8262V133.245H38.7038V103.857H32.8262V97.9795H56.3364V103.857H50.4589V133.245H56.3364V150.877H62.214V133.245H68.0915V156.755H62.214V168.51H56.3364ZM68.0915 133.245V103.857H62.214V97.9795H79.8466V103.857H73.9691V133.245H68.0915Z" fill="#3C204C"/>
<path d="M119.109 162.633V168.51H95.5985V162.633H89.7209V156.755H83.8434V133.245H89.7209V127.367H95.5985V121.49H119.109V127.367H124.986V133.245H130.864V145H95.5985V156.755H101.476V162.633H119.109ZM119.109 162.633V156.755H124.986V162.633H119.109ZM124.986 156.755V150.877H130.864V156.755H124.986ZM119.109 139.122V133.245H113.231V127.367H101.476V133.245H95.5985V139.122H119.109Z" fill="#3C204C"/>
<path d="M140.738 168.51V162.633H134.861V150.877H140.738V156.755H146.616V162.633H164.248V156.755H170.126V150.877H146.616V145H140.738V139.122H134.861V127.367H140.738V121.49H170.126V127.367H176.003V133.245H164.248V127.367H146.616V139.122H170.126V145H176.003V162.633H170.126V168.51H140.738Z" fill="#3C204C"/>
<path d="M191.755 168.51V162.633H185.878V127.367H180V121.49H185.878V103.857H197.633V121.49H203.51V127.367H197.633V162.633H203.51V168.51H191.755ZM203.51 162.633V156.755H209.388V162.633H203.51Z" fill="#3C204C"/>
<path d="M248.65 162.633V168.51H225.14V162.633H219.262V156.755H213.385V133.245H219.262V127.367H225.14V121.49H248.65V127.367H254.527V133.245H260.405V145H225.14V156.755H231.017V162.633H248.65ZM248.65 162.633V156.755H254.527V162.633H248.65ZM254.527 156.755V150.877H260.405V156.755H254.527ZM248.65 139.122V133.245H242.772V127.367H231.017V133.245H225.14V139.122H248.65Z" fill="#3C204C"/>
<path d="M293.789 133.245V127.367H287.912V133.245H282.034V162.633H287.912V168.51H264.402V162.633H270.279V127.367H264.402V121.49H282.034V127.367H287.912V121.49H299.667V133.245H293.789Z" fill="#3C204C"/>
<path d="M333.052 168.51V162.633H338.929V127.367H327.174V133.245H321.296V162.633H327.174V168.51H303.664V162.633H309.541V127.367H303.664V121.49H321.296V127.367H327.174V121.49H344.807V127.367H350.684V162.633H356.562V168.51H333.052Z" fill="#3C204C"/>
<path d="M56.3364 168.51H55.6017V169.245H56.3364V168.51ZM56.3364 162.633H57.0711V161.898H56.3364V162.633ZM50.4589 162.633H49.7242V163.367H50.4589V162.633ZM50.4589 150.877H51.1936V150.143H50.4589V150.877ZM44.5813 150.877H43.8466V151.612H44.5813V150.877ZM44.5813 133.245H45.316V132.51H44.5813V133.245ZM38.7038 156.755V157.49H39.4385V156.755H38.7038ZM32.8262 156.755V156.02H32.0915V156.755H32.8262ZM32.8262 168.51V169.245H33.5609V168.51H32.8262ZM26.9487 168.51H26.214V169.245H26.9487V168.51ZM26.9487 162.633H27.6834V161.898H26.9487V162.633ZM21.0711 162.633H20.3364V163.367H21.0711V162.633ZM21.0711 150.877H21.8058V150.143H21.0711V150.877ZM15.1936 150.877H14.4589V151.612H15.1936V150.877ZM15.1936 133.245H15.9283V132.51H15.1936V133.245ZM9.31603 133.245H8.58133V133.979H9.31603V133.245ZM9.31603 103.857H10.0507V103.122H9.31603V103.857ZM3.43848 103.857H2.70378V104.592H3.43848V103.857ZM3.43848 97.9795V97.2448H2.70378V97.9795H3.43848ZM26.9487 97.9795H27.6834V97.2448H26.9487V97.9795ZM26.9487 103.857V104.592H27.6834V103.857H26.9487ZM21.0711 103.857V103.122H20.3364V103.857H21.0711ZM21.0711 133.245H20.3364V133.979H21.0711V133.245ZM26.9487 133.245H27.6834V132.51H26.9487V133.245ZM26.9487 150.877H26.214V151.612H26.9487V150.877ZM32.8262 150.877V151.612H33.5609V150.877H32.8262ZM32.8262 133.245V132.51H32.0915V133.245H32.8262ZM38.7038 103.857H39.4385V103.122H38.7038V103.857ZM32.8262 103.857H32.0915V104.592H32.8262V103.857ZM32.8262 97.9795V97.2448H32.0915V97.9795H32.8262ZM56.3364 97.9795H57.0711V97.2448H56.3364V97.9795ZM56.3364 103.857V104.592H57.0711V103.857H56.3364ZM50.4589 103.857V103.122H49.7242V103.857H50.4589ZM50.4589 133.245H49.7242V133.979H50.4589V133.245ZM56.3364 133.245H57.0711V132.51H56.3364V133.245ZM56.3364 150.877H55.6017V151.612H56.3364V150.877ZM62.214 150.877V151.612H62.9487V150.877H62.214ZM62.214 133.245V132.51H61.4793V133.245H62.214ZM68.0915 156.755V157.49H68.8262V156.755H68.0915ZM62.214 156.755V156.02H61.4793V156.755H62.214ZM62.214 168.51V169.245H62.9487V168.51H62.214ZM68.0915 103.857H68.8262V103.122H68.0915V103.857ZM62.214 103.857H61.4793V104.592H62.214V103.857ZM62.214 97.9795V97.2448H61.4793V97.9795H62.214ZM79.8466 97.9795H80.5813V97.2448H79.8466V97.9795ZM79.8466 103.857V104.592H80.5813V103.857H79.8466ZM73.9691 103.857V103.122H73.2344V103.857H73.9691ZM73.9691 133.245V133.979H74.7038V133.245H73.9691ZM119.109 168.51V169.245H119.843V168.51H119.109ZM95.5985 168.51H94.8638V169.245H95.5985V168.51ZM95.5985 162.633H96.3332V161.898H95.5985V162.633ZM89.7209 162.633H88.9862V163.367H89.7209V162.633ZM89.7209 156.755H90.4556V156.02H89.7209V156.755ZM83.8434 156.755H83.1087V157.49H83.8434V156.755ZM83.8434 133.245V132.51H83.1087V133.245H83.8434ZM89.7209 133.245V133.979H90.4556V133.245H89.7209ZM89.7209 127.367V126.633H88.9862V127.367H89.7209ZM95.5985 127.367V128.102H96.3332V127.367H95.5985ZM95.5985 121.49V120.755H94.8638V121.49H95.5985ZM119.109 121.49H119.843V120.755H119.109V121.49ZM119.109 127.367H118.374V128.102H119.109V127.367ZM124.986 127.367H125.721V126.633H124.986V127.367ZM124.986 133.245H124.252V133.979H124.986V133.245ZM130.864 133.245H131.598V132.51H130.864V133.245ZM130.864 145V145.735H131.598V145H130.864ZM95.5985 145V144.265H94.8638V145H95.5985ZM95.5985 156.755H94.8638V157.49H95.5985V156.755ZM101.476 156.755H102.211V156.02H101.476V156.755ZM101.476 162.633H100.741V163.367H101.476V162.633ZM119.109 156.755V156.02H118.374V156.755H119.109ZM124.986 162.633V163.367H125.721V162.633H124.986ZM124.986 150.877V150.143H124.252V150.877H124.986ZM130.864 150.877H131.598V150.143H130.864V150.877ZM130.864 156.755V157.49H131.598V156.755H130.864ZM119.109 139.122V139.857H119.843V139.122H119.109ZM119.109 133.245H119.843V132.51H119.109V133.245ZM113.231 133.245H112.496V133.979H113.231V133.245ZM113.231 127.367H113.966V126.633H113.231V127.367ZM101.476 127.367V126.633H100.741V127.367H101.476ZM101.476 133.245V133.979H102.211V133.245H101.476ZM95.5985 133.245V132.51H94.8638V133.245H95.5985ZM95.5985 139.122H94.8638V139.857H95.5985V139.122ZM140.738 168.51H140.003V169.245H140.738V168.51ZM140.738 162.633H141.473V161.898H140.738V162.633ZM134.861 162.633H134.126V163.367H134.861V162.633ZM134.861 150.877V150.143H134.126V150.877H134.861ZM140.738 150.877H141.473V150.143H140.738V150.877ZM140.738 156.755H140.003V157.49H140.738V156.755ZM146.616 156.755H147.35V156.02H146.616V156.755ZM146.616 162.633H145.881V163.367H146.616V162.633ZM164.248 162.633V163.367H164.983V162.633H164.248ZM164.248 156.755V156.02H163.514V156.755H164.248ZM170.126 156.755V157.49H170.861V156.755H170.126ZM170.126 150.877H170.861V150.143H170.126V150.877ZM146.616 150.877H145.881V151.612H146.616V150.877ZM146.616 145H147.35V144.265H146.616V145ZM140.738 145H140.003V145.735H140.738V145ZM140.738 139.122H141.473V138.388H140.738V139.122ZM134.861 139.122H134.126V139.857H134.861V139.122ZM134.861 127.367V126.633H134.126V127.367H134.861ZM140.738 127.367V128.102H141.473V127.367H140.738ZM140.738 121.49V120.755H140.003V121.49H140.738ZM170.126 121.49H170.861V120.755H170.126V121.49ZM170.126 127.367H169.391V128.102H170.126V127.367ZM176.003 127.367H176.738V126.633H176.003V127.367ZM176.003 133.245V133.979H176.738V133.245H176.003ZM164.248 133.245H163.514V133.979H164.248V133.245ZM164.248 127.367H164.983V126.633H164.248V127.367ZM146.616 127.367V126.633H145.881V127.367H146.616ZM146.616 139.122H145.881V139.857H146.616V139.122ZM170.126 139.122H170.861V138.388H170.126V139.122ZM170.126 145H169.391V145.735H170.126V145ZM176.003 145H176.738V144.265H176.003V145ZM176.003 162.633V163.367H176.738V162.633H176.003ZM170.126 162.633V161.898H169.391V162.633H170.126ZM170.126 168.51V169.245H170.861V168.51H170.126ZM191.755 168.51H191.021V169.245H191.755V168.51ZM191.755 162.633H192.49V161.898H191.755V162.633ZM185.878 162.633H185.143V163.367H185.878V162.633ZM185.878 127.367H186.612V126.633H185.878V127.367ZM180 127.367H179.265V128.102H180V127.367ZM180 121.49V120.755H179.265V121.49H180ZM185.878 121.49V122.224H186.612V121.49H185.878ZM185.878 103.857V103.122H185.143V103.857H185.878ZM197.633 103.857H198.367V103.122H197.633V103.857ZM197.633 121.49H196.898V122.224H197.633V121.49ZM203.51 121.49H204.245V120.755H203.51V121.49ZM203.51 127.367V128.102H204.245V127.367H203.51ZM197.633 127.367V126.633H196.898V127.367H197.633ZM197.633 162.633H196.898V163.367H197.633V162.633ZM203.51 168.51V169.245H204.245V168.51H203.51ZM203.51 156.755V156.02H202.776V156.755H203.51ZM209.388 156.755H210.123V156.02H209.388V156.755ZM209.388 162.633V163.367H210.123V162.633H209.388ZM248.65 168.51V169.245H249.385V168.51H248.65ZM225.14 168.51H224.405V169.245H225.14V168.51ZM225.14 162.633H225.874V161.898H225.14V162.633ZM219.262 162.633H218.527V163.367H219.262V162.633ZM219.262 156.755H219.997V156.02H219.262V156.755ZM213.385 156.755H212.65V157.49H213.385V156.755ZM213.385 133.245V132.51H212.65V133.245H213.385ZM219.262 133.245V133.979H219.997V133.245H219.262ZM219.262 127.367V126.633H218.527V127.367H219.262ZM225.14 127.367V128.102H225.874V127.367H225.14ZM225.14 121.49V120.755H224.405V121.49H225.14ZM248.65 121.49H249.385V120.755H248.65V121.49ZM248.65 127.367H247.915V128.102H248.65V127.367ZM254.527 127.367H255.262V126.633H254.527V127.367ZM254.527 133.245H253.793V133.979H254.527V133.245ZM260.405 133.245H261.14V132.51H260.405V133.245ZM260.405 145V145.735H261.14V145H260.405ZM225.14 145V144.265H224.405V145H225.14ZM225.14 156.755H224.405V157.49H225.14V156.755ZM231.017 156.755H231.752V156.02H231.017V156.755ZM231.017 162.633H230.283V163.367H231.017V162.633ZM248.65 156.755V156.02H247.915V156.755H248.65ZM254.527 162.633V163.367H255.262V162.633H254.527ZM254.527 150.877V150.143H253.793V150.877H254.527ZM260.405 150.877H261.14V150.143H260.405V150.877ZM260.405 156.755V157.49H261.14V156.755H260.405ZM248.65 139.122V139.857H249.385V139.122H248.65ZM248.65 133.245H249.385V132.51H248.65V133.245ZM242.772 133.245H242.038V133.979H242.772V133.245ZM242.772 127.367H243.507V126.633H242.772V127.367ZM231.017 127.367V126.633H230.283V127.367H231.017ZM231.017 133.245V133.979H231.752V133.245H231.017ZM225.14 133.245V132.51H224.405V133.245H225.14ZM225.14 139.122H224.405V139.857H225.14V139.122ZM293.789 133.245H293.055V133.979H293.789V133.245ZM293.789 127.367H294.524V126.633H293.789V127.367ZM287.912 133.245V133.979H288.647V133.245H287.912ZM282.034 133.245V132.51H281.3V133.245H282.034ZM282.034 162.633H281.3V163.367H282.034V162.633ZM287.912 162.633H288.647V161.898H287.912V162.633ZM287.912 168.51V169.245H288.647V168.51H287.912ZM264.402 168.51H263.667V169.245H264.402V168.51ZM264.402 162.633V161.898H263.667V162.633H264.402ZM270.279 162.633V163.367H271.014V162.633H270.279ZM270.279 127.367H271.014V126.633H270.279V127.367ZM264.402 127.367H263.667V128.102H264.402V127.367ZM264.402 121.49V120.755H263.667V121.49H264.402ZM282.034 121.49H282.769V120.755H282.034V121.49ZM282.034 127.367H281.3V128.102H282.034V127.367ZM287.912 121.49V120.755H287.177V121.49H287.912ZM299.667 121.49H300.402V120.755H299.667V121.49ZM299.667 133.245V133.979H300.402V133.245H299.667ZM333.052 168.51H332.317V169.245H333.052V168.51ZM333.052 162.633V161.898H332.317V162.633H333.052ZM338.929 162.633V163.367H339.664V162.633H338.929ZM338.929 127.367H339.664V126.633H338.929V127.367ZM327.174 133.245V133.979H327.909V133.245H327.174ZM321.296 133.245V132.51H320.562V133.245H321.296ZM321.296 162.633H320.562V163.367H321.296V162.633ZM327.174 162.633H327.909V161.898H327.174V162.633ZM327.174 168.51V169.245H327.909V168.51H327.174ZM303.664 168.51H302.929V169.245H303.664V168.51ZM303.664 162.633V161.898H302.929V162.633H303.664ZM309.541 162.633V163.367H310.276V162.633H309.541ZM309.541 127.367H310.276V126.633H309.541V127.367ZM303.664 127.367H302.929V128.102H303.664V127.367ZM303.664 121.49V120.755H302.929V121.49H303.664ZM321.296 121.49H322.031V120.755H321.296V121.49ZM321.296 127.367H320.562V128.102H321.296V127.367ZM327.174 121.49V120.755H326.439V121.49H327.174ZM344.807 121.49H345.541V120.755H344.807V121.49ZM344.807 127.367H344.072V128.102H344.807V127.367ZM350.684 127.367H351.419V126.633H350.684V127.367ZM350.684 162.633H349.949V163.367H350.684V162.633ZM356.562 162.633H357.296V161.898H356.562V162.633ZM356.562 168.51V169.245H357.296V168.51H356.562ZM56.3364 168.51H57.0711V162.633H56.3364H55.6017V168.51H56.3364ZM56.3364 162.633V161.898H50.4589V162.633V163.367H56.3364V162.633ZM50.4589 150.877V150.143H44.5813V150.877V151.612H50.4589V150.877ZM44.5813 133.245V132.51H38.7038V133.245V133.979H44.5813V133.245ZM38.7038 156.755V156.02H32.8262V156.755V157.49H38.7038V156.755ZM32.8262 168.51V167.775H26.9487V168.51V169.245H32.8262V168.51ZM26.9487 168.51H27.6834V162.633H26.9487H26.214V168.51H26.9487ZM26.9487 162.633V161.898H21.0711V162.633V163.367H26.9487V162.633ZM21.0711 150.877V150.143H15.1936V150.877V151.612H21.0711V150.877ZM15.1936 133.245V132.51H9.31603V133.245V133.979H15.1936V133.245ZM9.31603 103.857V103.122H3.43848V103.857V104.592H9.31603V103.857ZM3.43848 103.857H4.17317V97.9795H3.43848H2.70378V103.857H3.43848ZM26.9487 97.9795H26.214V103.857H26.9487H27.6834V97.9795H26.9487ZM26.9487 103.857V103.122H21.0711V103.857V104.592H26.9487V103.857ZM21.0711 133.245V133.979H26.9487V133.245V132.51H21.0711V133.245ZM26.9487 150.877V151.612H32.8262V150.877V150.143H26.9487V150.877ZM32.8262 133.245V133.979H38.7038V133.245V132.51H32.8262V133.245ZM38.7038 103.857V103.122H32.8262V103.857V104.592H38.7038V103.857ZM32.8262 103.857H33.5609V97.9795H32.8262H32.0915V103.857H32.8262ZM56.3364 97.9795H55.6017V103.857H56.3364H57.0711V97.9795H56.3364ZM56.3364 103.857V103.122H50.4589V103.857V104.592H56.3364V103.857ZM50.4589 133.245V133.979H56.3364V133.245V132.51H50.4589V133.245ZM56.3364 150.877V151.612H62.214V150.877V150.143H56.3364V150.877ZM62.214 133.245V133.979H68.0915V133.245V132.51H62.214V133.245ZM68.0915 156.755V156.02H62.214V156.755V157.49H68.0915V156.755ZM62.214 168.51V167.775H56.3364V168.51V169.245H62.214V168.51ZM68.0915 103.857V103.122H62.214V103.857V104.592H68.0915V103.857ZM62.214 103.857H62.9487V97.9795H62.214H61.4793V103.857H62.214ZM79.8466 97.9795H79.1119V103.857H79.8466H80.5813V97.9795H79.8466ZM79.8466 103.857V103.122H73.9691V103.857V104.592H79.8466V103.857ZM73.9691 133.245V132.51H68.0915V133.245V133.979H73.9691V133.245ZM119.109 162.633H118.374V168.51H119.109H119.843V162.633H119.109ZM95.5985 168.51H96.3332V162.633H95.5985H94.8638V168.51H95.5985ZM95.5985 162.633V161.898H89.7209V162.633V163.367H95.5985V162.633ZM89.7209 162.633H90.4556V156.755H89.7209H88.9862V162.633H89.7209ZM89.7209 156.755V156.02H83.8434V156.755V157.49H89.7209V156.755ZM83.8434 133.245V133.979H89.7209V133.245V132.51H83.8434V133.245ZM89.7209 133.245H90.4556V127.367H89.7209H88.9862V133.245H89.7209ZM89.7209 127.367V128.102H95.5985V127.367V126.633H89.7209V127.367ZM95.5985 127.367H96.3332V121.49H95.5985H94.8638V127.367H95.5985ZM119.109 121.49H118.374V127.367H119.109H119.843V121.49H119.109ZM119.109 127.367V128.102H124.986V127.367V126.633H119.109V127.367ZM124.986 127.367H124.252V133.245H124.986H125.721V127.367H124.986ZM124.986 133.245V133.979H130.864V133.245V132.51H124.986V133.245ZM95.5985 156.755V157.49H101.476V156.755V156.02H95.5985V156.755ZM101.476 156.755H100.741V162.633H101.476H102.211V156.755H101.476ZM119.109 162.633H119.843V156.755H119.109H118.374V162.633H119.109ZM119.109 156.755V157.49H124.986V156.755V156.02H119.109V156.755ZM124.986 156.755H124.252V162.633H124.986H125.721V156.755H124.986ZM124.986 162.633V161.898H119.109V162.633V163.367H124.986V162.633ZM124.986 156.755H125.721V150.877H124.986H124.252V156.755H124.986ZM124.986 150.877V151.612H130.864V150.877V150.143H124.986V150.877ZM130.864 150.877H130.129V156.755H130.864H131.598V150.877H130.864ZM130.864 156.755V156.02H124.986V156.755V157.49H130.864V156.755ZM119.109 139.122H119.843V133.245H119.109H118.374V139.122H119.109ZM119.109 133.245V132.51H113.231V133.245V133.979H119.109V133.245ZM113.231 133.245H113.966V127.367H113.231H112.496V133.245H113.231ZM101.476 127.367H100.741V133.245H101.476H102.211V127.367H101.476ZM101.476 133.245V132.51H95.5985V133.245V133.979H101.476V133.245ZM95.5985 133.245H94.8638V139.122H95.5985H96.3332V133.245H95.5985ZM140.738 168.51H141.473V162.633H140.738H140.003V168.51H140.738ZM140.738 162.633V161.898H134.861V162.633V163.367H140.738V162.633ZM134.861 150.877V151.612H140.738V150.877V150.143H134.861V150.877ZM140.738 150.877H140.003V156.755H140.738H141.473V150.877H140.738ZM140.738 156.755V157.49H146.616V156.755V156.02H140.738V156.755ZM146.616 156.755H145.881V162.633H146.616H147.35V156.755H146.616ZM164.248 162.633H164.983V156.755H164.248H163.514V162.633H164.248ZM164.248 156.755V157.49H170.126V156.755V156.02H164.248V156.755ZM170.126 156.755H170.861V150.877H170.126H169.391V156.755H170.126ZM146.616 150.877H147.35V145H146.616H145.881V150.877H146.616ZM146.616 145V144.265H140.738V145V145.735H146.616V145ZM140.738 145H141.473V139.122H140.738H140.003V145H140.738ZM140.738 139.122V138.388H134.861V139.122V139.857H140.738V139.122ZM134.861 127.367V128.102H140.738V127.367V126.633H134.861V127.367ZM140.738 127.367H141.473V121.49H140.738H140.003V127.367H140.738ZM170.126 121.49H169.391V127.367H170.126H170.861V121.49H170.126ZM170.126 127.367V128.102H176.003V127.367V126.633H170.126V127.367ZM176.003 127.367H175.269V133.245H176.003H176.738V127.367H176.003ZM164.248 133.245H164.983V127.367H164.248H163.514V133.245H164.248ZM170.126 139.122H169.391V145H170.126H170.861V139.122H170.126ZM170.126 145V145.735H176.003V145V144.265H170.126V145ZM176.003 162.633V161.898H170.126V162.633V163.367H176.003V162.633ZM170.126 162.633H169.391V168.51H170.126H170.861V162.633H170.126ZM191.755 168.51H192.49V162.633H191.755H191.021V168.51H191.755ZM191.755 162.633V161.898H185.878V162.633V163.367H191.755V162.633ZM185.878 127.367V126.633H180V127.367V128.102H185.878V127.367ZM180 127.367H180.735V121.49H180H179.265V127.367H180ZM180 121.49V122.224H185.878V121.49V120.755H180V121.49ZM197.633 121.49V122.224H203.51V121.49V120.755H197.633V121.49ZM203.51 121.49H202.776V127.367H203.51H204.245V121.49H203.51ZM203.51 127.367V126.633H197.633V127.367V128.102H203.51V127.367ZM197.633 162.633V163.367H203.51V162.633V161.898H197.633V162.633ZM203.51 162.633H202.776V168.51H203.51H204.245V162.633H203.51ZM203.51 162.633H204.245V156.755H203.51H202.776V162.633H203.51ZM203.51 156.755V157.49H209.388V156.755V156.02H203.51V156.755ZM209.388 156.755H208.653V162.633H209.388H210.123V156.755H209.388ZM209.388 162.633V161.898H203.51V162.633V163.367H209.388V162.633ZM248.65 162.633H247.915V168.51H248.65H249.385V162.633H248.65ZM225.14 168.51H225.874V162.633H225.14H224.405V168.51H225.14ZM225.14 162.633V161.898H219.262V162.633V163.367H225.14V162.633ZM219.262 162.633H219.997V156.755H219.262H218.527V162.633H219.262ZM219.262 156.755V156.02H213.385V156.755V157.49H219.262V156.755ZM213.385 133.245V133.979H219.262V133.245V132.51H213.385V133.245ZM219.262 133.245H219.997V127.367H219.262H218.527V133.245H219.262ZM219.262 127.367V128.102H225.14V127.367V126.633H219.262V127.367ZM225.14 127.367H225.874V121.49H225.14H224.405V127.367H225.14ZM248.65 121.49H247.915V127.367H248.65H249.385V121.49H248.65ZM248.65 127.367V128.102H254.527V127.367V126.633H248.65V127.367ZM254.527 127.367H253.793V133.245H254.527H255.262V127.367H254.527ZM254.527 133.245V133.979H260.405V133.245V132.51H254.527V133.245ZM225.14 156.755V157.49H231.017V156.755V156.02H225.14V156.755ZM231.017 156.755H230.283V162.633H231.017H231.752V156.755H231.017ZM248.65 162.633H249.385V156.755H248.65H247.915V162.633H248.65ZM248.65 156.755V157.49H254.527V156.755V156.02H248.65V156.755ZM254.527 156.755H253.793V162.633H254.527H255.262V156.755H254.527ZM254.527 162.633V161.898H248.65V162.633V163.367H254.527V162.633ZM254.527 156.755H255.262V150.877H254.527H253.793V156.755H254.527ZM254.527 150.877V151.612H260.405V150.877V150.143H254.527V150.877ZM260.405 150.877H259.67V156.755H260.405H261.14V150.877H260.405ZM260.405 156.755V156.02H254.527V156.755V157.49H260.405V156.755ZM248.65 139.122H249.385V133.245H248.65H247.915V139.122H248.65ZM248.65 133.245V132.51H242.772V133.245V133.979H248.65V133.245ZM242.772 133.245H243.507V127.367H242.772H242.038V133.245H242.772ZM231.017 127.367H230.283V133.245H231.017H231.752V127.367H231.017ZM231.017 133.245V132.51H225.14V133.245V133.979H231.017V133.245ZM225.14 133.245H224.405V139.122H225.14H225.874V133.245H225.14ZM293.789 133.245H294.524V127.367H293.789H293.055V133.245H293.789ZM293.789 127.367V126.633H287.912V127.367V128.102H293.789V127.367ZM287.912 127.367H287.177V133.245H287.912H288.647V127.367H287.912ZM287.912 133.245V132.51H282.034V133.245V133.979H287.912V133.245ZM282.034 162.633V163.367H287.912V162.633V161.898H282.034V162.633ZM287.912 162.633H287.177V168.51H287.912H288.647V162.633H287.912ZM264.402 168.51H265.136V162.633H264.402H263.667V168.51H264.402ZM264.402 162.633V163.367H270.279V162.633V161.898H264.402V162.633ZM270.279 127.367V126.633H264.402V127.367V128.102H270.279V127.367ZM264.402 127.367H265.136V121.49H264.402H263.667V127.367H264.402ZM282.034 121.49H281.3V127.367H282.034H282.769V121.49H282.034ZM282.034 127.367V128.102H287.912V127.367V126.633H282.034V127.367ZM287.912 127.367H288.647V121.49H287.912H287.177V127.367H287.912ZM299.667 133.245V132.51H293.789V133.245V133.979H299.667V133.245ZM333.052 168.51H333.786V162.633H333.052H332.317V168.51H333.052ZM333.052 162.633V163.367H338.929V162.633V161.898H333.052V162.633ZM327.174 127.367H326.439V133.245H327.174H327.909V127.367H327.174ZM327.174 133.245V132.51H321.296V133.245V133.979H327.174V133.245ZM321.296 162.633V163.367H327.174V162.633V161.898H321.296V162.633ZM327.174 162.633H326.439V168.51H327.174H327.909V162.633H327.174ZM303.664 168.51H304.398V162.633H303.664H302.929V168.51H303.664ZM303.664 162.633V163.367H309.541V162.633V161.898H303.664V162.633ZM309.541 127.367V126.633H303.664V127.367V128.102H309.541V127.367ZM303.664 127.367H304.398V121.49H303.664H302.929V127.367H303.664ZM321.296 121.49H320.562V127.367H321.296H322.031V121.49H321.296ZM321.296 127.367V128.102H327.174V127.367V126.633H321.296V127.367ZM327.174 127.367H327.909V121.49H327.174H326.439V127.367H327.174ZM344.807 121.49H344.072V127.367H344.807H345.541V121.49H344.807ZM344.807 127.367V128.102H350.684V127.367V126.633H344.807V127.367ZM350.684 162.633V163.367H356.562V162.633V161.898H350.684V162.633ZM356.562 162.633H355.827V168.51H356.562H357.296V162.633H356.562ZM50.4589 162.633H51.1936V150.877H50.4589H49.7242V162.633H50.4589ZM44.5813 150.877H45.316V133.245H44.5813H43.8466V150.877H44.5813ZM38.7038 133.245H37.9691V156.755H38.7038H39.4385V133.245H38.7038ZM32.8262 156.755H32.0915V168.51H32.8262H33.5609V156.755H32.8262ZM21.0711 162.633H21.8058V150.877H21.0711H20.3364V162.633H21.0711ZM15.1936 150.877H15.9283V133.245H15.1936H14.4589V150.877H15.1936ZM9.31603 133.245H10.0507V103.857H9.31603H8.58133V133.245H9.31603ZM3.43848 97.9795V98.7142H26.9487V97.9795V97.2448H3.43848V97.9795ZM21.0711 103.857H20.3364V133.245H21.0711H21.8058V103.857H21.0711ZM26.9487 133.245H26.214V150.877H26.9487H27.6834V133.245H26.9487ZM32.8262 150.877H33.5609V133.245H32.8262H32.0915V150.877H32.8262ZM38.7038 133.245H39.4385V103.857H38.7038H37.9691V133.245H38.7038ZM32.8262 97.9795V98.7142H56.3364V97.9795V97.2448H32.8262V97.9795ZM50.4589 103.857H49.7242V133.245H50.4589H51.1936V103.857H50.4589ZM56.3364 133.245H55.6017V150.877H56.3364H57.0711V133.245H56.3364ZM62.214 150.877H62.9487V133.245H62.214H61.4793V150.877H62.214ZM68.0915 133.245H67.3568V156.755H68.0915H68.8262V133.245H68.0915ZM62.214 156.755H61.4793V168.51H62.214H62.9487V156.755H62.214ZM68.0915 133.245H68.8262V103.857H68.0915H67.3568V133.245H68.0915ZM62.214 97.9795V98.7142H79.8466V97.9795V97.2448H62.214V97.9795ZM73.9691 103.857H73.2344V133.245H73.9691H74.7038V103.857H73.9691ZM101.476 162.633V163.367H119.109V162.633V161.898H101.476V162.633ZM119.109 168.51V167.775H95.5985V168.51V169.245H119.109V168.51ZM83.8434 156.755H84.5781V133.245H83.8434H83.1087V156.755H83.8434ZM95.5985 121.49V122.224H119.109V121.49V120.755H95.5985V121.49ZM130.864 133.245H130.129V145H130.864H131.598V133.245H130.864ZM130.864 145V144.265H95.5985V145V145.735H130.864V145ZM95.5985 145H94.8638V156.755H95.5985H96.3332V145H95.5985ZM95.5985 139.122V139.857H119.109V139.122V138.388H95.5985V139.122ZM113.231 127.367V126.633H101.476V127.367V128.102H113.231V127.367ZM170.126 168.51V167.775H140.738V168.51V169.245H170.126V168.51ZM134.861 162.633H135.595V150.877H134.861H134.126V162.633H134.861ZM146.616 162.633V163.367H164.248V162.633V161.898H146.616V162.633ZM170.126 150.877V150.143H146.616V150.877V151.612H170.126V150.877ZM134.861 139.122H135.595V127.367H134.861H134.126V139.122H134.861ZM140.738 121.49V122.224H170.126V121.49V120.755H140.738V121.49ZM176.003 133.245V132.51H164.248V133.245V133.979H176.003V133.245ZM164.248 127.367V126.633H146.616V127.367V128.102H164.248V127.367ZM146.616 127.367H145.881V139.122H146.616H147.35V127.367H146.616ZM146.616 139.122V139.857H170.126V139.122V138.388H146.616V139.122ZM176.003 145H175.269V162.633H176.003H176.738V145H176.003ZM203.51 168.51V167.775H191.755V168.51V169.245H203.51V168.51ZM185.878 162.633H186.612V127.367H185.878H185.143V162.633H185.878ZM185.878 121.49H186.612V103.857H185.878H185.143V121.49H185.878ZM185.878 103.857V104.592H197.633V103.857V103.122H185.878V103.857ZM197.633 103.857H196.898V121.49H197.633H198.367V103.857H197.633ZM197.633 127.367H196.898V162.633H197.633H198.367V127.367H197.633ZM231.017 162.633V163.367H248.65V162.633V161.898H231.017V162.633ZM248.65 168.51V167.775H225.14V168.51V169.245H248.65V168.51ZM213.385 156.755H214.119V133.245H213.385H212.65V156.755H213.385ZM225.14 121.49V122.224H248.65V121.49V120.755H225.14V121.49ZM260.405 133.245H259.67V145H260.405H261.14V133.245H260.405ZM260.405 145V144.265H225.14V145V145.735H260.405V145ZM225.14 145H224.405V156.755H225.14H225.874V145H225.14ZM225.14 139.122V139.857H248.65V139.122V138.388H225.14V139.122ZM242.772 127.367V126.633H231.017V127.367V128.102H242.772V127.367ZM282.034 133.245H281.3V162.633H282.034H282.769V133.245H282.034ZM287.912 168.51V167.775H264.402V168.51V169.245H287.912V168.51ZM270.279 162.633H271.014V127.367H270.279H269.545V162.633H270.279ZM264.402 121.49V122.224H282.034V121.49V120.755H264.402V121.49ZM287.912 121.49V122.224H299.667V121.49V120.755H287.912V121.49ZM299.667 121.49H298.932V133.245H299.667H300.402V121.49H299.667ZM356.562 168.51V167.775H333.052V168.51V169.245H356.562V168.51ZM338.929 162.633H339.664V127.367H338.929H338.194V162.633H338.929ZM338.929 127.367V126.633H327.174V127.367V128.102H338.929V127.367ZM321.296 133.245H320.562V162.633H321.296H322.031V133.245H321.296ZM327.174 168.51V167.775H303.664V168.51V169.245H327.174V168.51ZM309.541 162.633H310.276V127.367H309.541H308.807V162.633H309.541ZM303.664 121.49V122.224H321.296V121.49V120.755H303.664V121.49ZM327.174 121.49V122.224H344.807V121.49V120.755H327.174V121.49ZM350.684 127.367H349.949V162.633H350.684H351.419V127.367H350.684Z" fill="#3C204C" mask="url(#path-3-outside-2_406_3909)"/>
<path d="M126.736 203.408V210.021H114.98V215.163H120.858V226.918H126.736V232.796H131.879V226.918H137.757V221.041H143.635V210.021H137.757V203.408H162.003V210.021H156.125V215.898H150.247V221.776H144.369V227.654H138.492V233.531H132.614V244.551H138.492V250.429H144.369V256.306H150.247V262.184H156.125V268.062H162.003V274.674H131.879V268.062H137.757V257.041H131.879V251.163H120.858V257.041H114.98V268.062H120.858V274.674H96.6123V268.062H102.49V262.184H108.368V256.306H114.246V250.429H120.124V239.408H114.246V227.654H108.368V215.898H102.49V210.021H96.6123V203.408H126.736ZM212.695 203.408V210.021H196.279V268.062H212.695V274.674H167.373V268.062H183.789V210.021H167.373V203.408H212.695ZM263.388 203.408V210.021H246.972V268.062H263.388V274.674H218.065V268.062H234.481V210.021H218.065V203.408H263.388Z" fill="#3C204C" stroke="#3C204C" stroke-width="0.734694"/>
</svg>
