<svg width="75" height="106" viewBox="0 0 75 106" fill="none" xmlns="http://www.w3.org/2000/svg">
<g filter="url(#filter0_d_33_13821)">
<path d="M51.8901 21.7214C52.6841 21.3194 53.4576 21.4573 54.0151 21.7244L54.2407 21.8455L54.4028 21.9539C54.7661 22.2236 55.0291 22.6102 55.145 23.0515L58.3247 35.158C58.5235 35.915 58.2616 36.719 57.6558 37.2146C57.615 37.2479 57.5726 37.2786 57.5298 37.3083L60.0073 42.4216C60.3683 43.167 60.2322 44.0579 59.6655 44.6619C59.1805 45.1784 58.466 45.3924 57.7896 45.2478L60.0122 49.3162C60.3905 50.0088 60.3264 50.8593 59.8481 51.4871C59.3997 52.0756 58.6659 52.365 57.9429 52.2498L57.7993 52.2214L57.4487 52.1384L62.311 59.7244C62.7629 60.4293 62.7279 61.3414 62.2231 62.0095C61.7184 62.6775 60.8508 62.9604 60.0493 62.7185L59.9556 62.6902C61.4174 64.6558 62.8765 66.6183 64.3335 68.5769C64.6638 69.021 64.7954 69.5821 64.6968 70.1267C64.5981 70.6714 64.2781 71.1509 63.813 71.4509C63.4361 71.694 63.0042 71.8342 62.561 71.8601C62.2112 71.8806 61.8606 71.8286 61.5308 71.7097L61.1118 71.6013L66.397 78.8074L66.4761 78.9226C66.8469 79.5102 66.8871 80.2526 66.5747 80.8806L66.4819 81.0671C66.0287 81.9777 64.9643 82.4029 64.0083 82.0554L63.3804 81.8269L69.3716 90.2273C69.9099 90.9821 69.8581 92.0081 69.2476 92.7058L69.0796 92.8982C68.5103 93.5482 67.5878 93.7596 66.7925 93.4216L55.0698 88.4392C54.6177 88.2471 54.2542 87.8962 54.0454 87.4568L53.9663 87.2634L52.897 84.2341L52.8911 84.2156L52.312 82.5232H52.311V82.5212C52.3088 82.5149 52.3061 82.506 52.3022 82.4949C52.2945 82.4722 52.283 82.4396 52.269 82.3982C52.2411 82.3154 52.2018 82.196 52.1528 82.0457C52.1039 81.8954 52.045 81.7138 51.98 81.5056L51.7681 80.8064C51.0476 78.3771 50.3435 75.9435 49.6558 73.5056L48.9731 71.0671L48.9243 70.8435C48.9097 70.7507 48.8921 70.658 48.8716 70.5662L48.8013 70.2917C48.7962 70.2744 48.7912 70.2565 48.7866 70.239C48.0229 67.3344 47.1975 64.441 46.3628 61.5291C45.7381 59.3498 45.1079 57.1584 44.4985 54.9587L43.897 52.7566C43.8899 52.7301 43.8835 52.7033 43.8774 52.6765C43.7053 51.9111 43.8848 51.2597 44.1187 50.7957C44.299 50.4379 44.5852 50.0803 44.605 50.0535H44.606C45.0089 49.4944 45.4213 48.9522 45.8179 48.4333C46.0119 48.1795 46.201 47.9311 46.3872 47.6853C46.2609 47.4113 46.2044 47.15 46.1831 46.949C46.1463 46.6021 46.1918 46.3048 46.2134 46.1736C46.2261 46.0965 46.24 46.0252 46.2485 45.9822C46.2523 45.963 46.255 45.9479 46.2573 45.9363C46.2629 45.7908 46.2827 45.6459 46.3198 45.5046L46.4136 45.1775C46.6454 44.4248 46.9659 43.7556 47.2632 43.1833C47.6416 42.455 47.9096 42.007 48.1802 41.4294L48.1841 41.4207L48.769 40.1902C49.3545 38.9691 49.9797 37.7152 50.6929 36.4929C50.4043 35.8274 50.2656 35.1051 50.2905 34.3767L50.3003 34.24C50.3049 34.1949 50.3111 34.1499 50.3188 34.1052C50.3671 33.8254 50.4132 33.354 50.5786 32.8035C50.239 32.5586 49.7448 32.1838 49.3159 31.613L49.1138 31.3201L49.0952 31.2898C48.9746 31.0916 48.8962 30.9031 48.8462 30.7664C48.7946 30.6254 48.7561 30.492 48.728 30.3875C48.6999 30.2828 48.6744 30.1788 48.6558 30.1013C48.6452 30.0574 48.6356 30.0204 48.6274 29.9871C48.4807 29.8166 48.3609 29.6224 48.2778 29.4089C48.1231 29.011 48.0593 28.5823 48.0933 28.155L48.1108 27.9949C48.1595 27.6391 48.2752 27.2967 48.4507 26.9851L49.5776 24.9187C49.97 24.2028 50.38 23.473 50.812 22.7712V22.7722C50.9375 22.5578 51.2688 22.0362 51.8901 21.7214Z" fill="white" stroke="white" stroke-width="4" stroke-linejoin="round"/>
<path d="M23.1562 21.7217C22.3623 21.3196 21.5888 21.4576 21.0312 21.7246L20.8057 21.8457L20.6445 21.9541C20.2818 22.2232 20.0188 22.6085 19.9023 23.0488L16.7129 35.1104C16.5148 35.8598 16.7682 36.6563 17.3623 37.1543C17.4162 37.1995 17.4727 37.2405 17.5303 37.2793L15.0391 42.4219C14.6781 43.1673 14.8142 44.0582 15.3809 44.6621C15.8659 45.1787 16.5804 45.3927 17.2568 45.248L15.0342 49.3164C14.6559 50.009 14.72 50.8595 15.1982 51.4873C15.6467 52.0758 16.3805 52.3653 17.1035 52.25L17.2471 52.2217L17.5977 52.1387L12.7354 59.7246C12.2835 60.4296 12.3184 61.3417 12.8232 62.0098C13.3279 62.6777 14.1956 62.9606 14.9971 62.7188L15.0908 62.6904C13.629 64.6561 12.1699 66.6186 10.7129 68.5771C10.3826 69.0213 10.251 69.5823 10.3496 70.127C10.4483 70.6716 10.7683 71.1511 11.2334 71.4512C11.6103 71.6943 12.0422 71.8344 12.4854 71.8604C12.8352 71.8808 13.1858 71.8288 13.5156 71.71L13.9346 71.6016L8.64941 78.8076L8.57031 78.9229C8.1995 79.5104 8.15924 80.2528 8.47168 80.8809L8.56445 81.0674C9.01767 81.978 10.0821 82.4032 11.0381 82.0557L11.666 81.8271L5.6748 90.2275C5.13653 90.9824 5.18826 92.0084 5.79883 92.7061L5.9668 92.8984C6.53073 93.5424 7.44193 93.7559 8.2334 93.4297L20.2158 88.4922C20.7222 88.2835 21.1177 87.8777 21.3154 87.374L21.3877 87.1523L22.1807 84.1426L22.7344 82.5234H22.7354V82.5215C22.7376 82.5151 22.7403 82.5062 22.7441 82.4951C22.7519 82.4724 22.7634 82.4399 22.7773 82.3984C22.8053 82.3156 22.8445 82.1963 22.8936 82.0459C22.9425 81.8957 23.0014 81.7141 23.0664 81.5059L23.2783 80.8066C23.9988 78.3773 24.7028 75.9437 25.3906 73.5059L26.0732 71.0674L26.1221 70.8438C26.1367 70.7509 26.1542 70.6582 26.1748 70.5664L26.2451 70.292C26.2502 70.2746 26.2552 70.2568 26.2598 70.2393C27.0235 67.3347 27.8489 64.4412 28.6836 61.5293C29.3083 59.35 29.9384 57.1586 30.5479 54.959L31.1494 52.7568C31.1565 52.7304 31.1629 52.7035 31.1689 52.6768C31.3411 51.9113 31.1616 51.2599 30.9277 50.7959C30.7536 50.4504 30.4806 50.105 30.4443 50.0576C30.3664 49.9477 30.3449 49.8895 30.2822 49.4688C30.2212 49.0591 30.1298 48.3957 29.7266 47.6494C29.7453 47.5772 29.7625 47.5039 29.7734 47.4287C29.8376 46.9885 29.7471 46.628 29.6689 46.4111C29.5264 46.0154 29.2946 45.7438 29.2119 45.6484C29.0138 45.42 28.7634 45.2072 28.6543 45.1133C28.6323 45.0944 28.6133 45.0756 28.5947 45.0596C28.3666 44.3549 28.0648 43.7257 27.7832 43.1836C27.4048 42.4552 27.1368 42.0072 26.8662 41.4297L26.8623 41.4209L26.7441 41.1621C26.4786 40.5563 26.2791 39.939 26.0166 39.1787C25.7617 38.4403 25.4553 37.5954 24.9893 36.7354C25.0622 36.4993 25.1151 36.2021 25.083 35.8633C25.0699 35.7245 25.044 35.5946 25.0098 35.4727C24.9987 35.1142 24.9224 34.8236 24.8721 34.6533C25.1149 34.3784 25.2414 34.1131 25.2959 33.9941C25.3004 33.9844 25.3085 33.9666 25.3174 33.9463C25.7212 33.3332 25.944 32.7495 26.1006 32.335C26.2363 31.9756 26.3231 31.7476 26.4258 31.5488L26.5361 31.3564L26.5557 31.3262C26.7828 30.9529 26.8608 30.5864 26.8887 30.3291C26.9166 30.0714 26.9024 29.8446 26.8857 29.6875C26.8686 29.5259 26.842 29.3792 26.8213 29.2734C26.8207 29.2706 26.8209 29.2676 26.8203 29.2646C26.9372 28.9083 26.983 28.5314 26.9531 28.1553L26.9355 27.9951C26.8868 27.6394 26.7712 27.2969 26.5957 26.9854L25.4688 24.9189C25.0764 24.203 24.6664 23.4732 24.2344 22.7715V22.7725C24.1089 22.558 23.7776 22.0364 23.1562 21.7217ZM28.792 46.0439L28.7852 46.1777C28.7895 46.1254 28.7918 46.0729 28.792 46.0205C28.792 46.0283 28.7921 46.0361 28.792 46.0439ZM25.873 30.4326L25.7373 30.5029L25.8799 30.4277C25.8775 30.4291 25.8755 30.4312 25.873 30.4326Z" fill="white" stroke="white" stroke-width="4" stroke-linejoin="round"/>
<path d="M58.7837 7.41504C58.2407 4.89737 55.3685 3.36606 52.9741 4.82422L52.7358 4.97949L52.3452 5.25879C51.4179 5.93222 50.3918 6.75789 49.5942 7.62598L49.2183 8.04883C48.3384 9.06475 47.4597 10.2688 46.7925 11.2285C46.4048 11.7861 46.0756 12.2791 45.8433 12.6338C45.7271 12.8112 45.6348 12.9547 45.5708 13.0547C45.5389 13.1044 45.5138 13.1437 45.4966 13.1709C45.4879 13.1845 45.4808 13.1956 45.4761 13.2031C45.4738 13.2068 45.4716 13.2098 45.4702 13.2119C45.4696 13.2129 45.4696 13.2142 45.4692 13.2148H45.4683V13.2158L45.394 13.3438C45.0718 13.951 45.0843 14.6826 45.4272 15.2783L45.5063 15.4043L52.231 25.3125C52.6241 25.8917 53.2917 26.2231 53.9907 26.1865C54.6461 26.1522 55.2396 25.7986 55.5835 25.2461L55.6489 25.1328L57.9858 20.7686C59.4056 18.1172 59.9339 15.0792 59.4907 12.1045L58.8296 7.66992L58.7837 7.41504Z" fill="#513B7A" stroke="white" stroke-width="4" stroke-linejoin="round"/>
<path d="M16.5132 7.3096C17.0642 4.83168 19.8618 3.33064 22.2417 4.68753L22.478 4.83304L22.9058 5.11917C23.9246 5.81298 25.0735 6.67875 25.9536 7.5889L26.3569 8.02347C27.2907 9.06622 28.1634 10.2952 28.8062 11.2647C29.1809 11.83 29.4924 12.3305 29.7114 12.6905C29.8211 12.8708 29.908 13.0169 29.9683 13.1192C29.9983 13.1701 30.0222 13.21 30.0386 13.2383C30.0468 13.2525 30.0535 13.2645 30.0581 13.2725C30.0601 13.276 30.0617 13.279 30.063 13.2813C30.0637 13.2825 30.0645 13.2844 30.0649 13.2852L30.0659 13.2862L30.1343 13.416C30.4498 14.0738 30.3832 14.857 29.9507 15.4541L23.0015 25.0489C22.602 25.6003 21.9489 25.9103 21.269 25.8721C20.5892 25.8338 19.9752 25.4522 19.6401 24.8594L17.4263 20.9414C15.8756 18.1966 15.2982 15.0081 15.7866 11.8936L16.4653 7.56058L16.5132 7.3096Z" fill="#513B7A" stroke="white" stroke-width="4" stroke-linejoin="round"/>
<path d="M47.1167 46.2112L47.2886 46.219C48.1393 46.292 48.8583 46.9009 49.061 47.7434L58.2964 86.1301C58.5061 87.0017 58.1102 87.9066 57.3276 88.344L38.8569 98.6663C38.2376 99.0124 37.4816 99.0047 36.8696 98.6458C36.2577 98.2867 35.8814 97.6306 35.8813 96.9211V48.2112L35.8921 48.0071C35.9944 46.9984 36.8457 46.2112 37.8813 46.2112H47.1167Z" fill="#513B7A" stroke="white" stroke-width="4" stroke-linejoin="round"/>
<path d="M28.6592 46.2903L28.4873 46.2981C27.6363 46.3711 26.9172 46.9806 26.7148 47.8235L17.5078 86.176C17.299 87.0459 17.6936 87.9489 18.4736 88.387L36.915 98.7434C37.5343 99.0912 38.2923 99.0846 38.9053 98.7258C39.5179 98.367 39.8944 97.7102 39.8945 97.0002V48.2903L39.8838 48.0862C39.7815 47.0775 38.9302 46.2903 37.8945 46.2903H28.6592Z" fill="#513B7A" stroke="white" stroke-width="4" stroke-linejoin="round"/>
<path d="M27.1011 12.7467C27.5837 12.1691 28.2829 11.9494 28.9165 12.1873L34.8239 14.4057C35.3345 14.5975 35.7384 15.0635 35.9226 15.6747C36.1067 16.286 36.0515 16.9773 35.7727 17.5552L27.7748 34.1255C27.4537 34.7907 26.8788 35.2178 26.2566 35.2542C25.6345 35.2907 25.0536 34.9313 24.7223 34.3043L19.8638 25.1109L19.7898 24.9557C19.4464 24.1639 19.548 23.1666 20.0585 22.4617L27.0079 12.8671L27.1011 12.7467Z" fill="#473772" stroke="white" stroke-width="4" stroke-linejoin="round"/>
<path d="M48.4294 12.796C47.9478 12.1842 47.2287 11.9422 46.5764 12.1861L40.6866 14.3884C40.1752 14.5797 39.7707 15.0465 39.5862 15.6583C39.4248 16.1936 39.447 16.79 39.6421 17.3182L39.7363 17.5403L47.7463 34.1217C48.0688 34.7894 48.6467 35.2171 49.2713 35.2505C49.8958 35.2838 50.4771 34.9182 50.8055 34.2854L55.4106 25.4101L55.4819 25.259C55.8103 24.4911 55.7229 23.5312 55.2481 22.8316L48.5226 12.9232L48.4294 12.796Z" fill="#473772" stroke="white" stroke-width="4" stroke-linejoin="round"/>
<path d="M42.0332 13.4015L42.2998 13.4064C45.0456 13.5111 47.483 15.2303 48.4951 17.8029L54.2637 32.4669L54.4492 32.9796C55.251 35.3868 55.1286 38.0074 54.1055 40.3292L53.873 40.8214L47.2061 54.0011L47.0186 54.4073C43.4152 62.1787 32.4839 62.3 28.6514 54.7716L28.4736 54.4073L28.2852 54.0011L21.6191 40.8214C20.3033 38.2199 20.1613 35.1799 21.2285 32.4669L26.6836 18.6007L26.8037 18.3107C28.1064 15.3373 31.0505 13.4015 34.3164 13.4015L42.0332 13.4015Z" fill="#513B7A" stroke="white" stroke-width="4" stroke-linejoin="round"/>
<mask id="mask0_33_13821" style="mask-type:alpha" maskUnits="userSpaceOnUse" x="15" y="43" width="46" height="58">
<path d="M47.1304 45.7131L47.3022 45.7209C48.1539 45.794 48.8739 46.4045 49.0757 47.2483L58.311 85.8674C58.5188 86.7363 58.1247 87.6374 57.3462 88.0754L38.8755 98.4612C38.2562 98.8094 37.4985 98.8023 36.8853 98.4436C36.2722 98.0849 35.8952 97.4283 35.895 96.718V47.7131L35.9058 47.509C36.008 46.5004 36.8594 45.7131 37.895 45.7131H47.1304Z" fill="#513B7A" stroke="white" stroke-width="4" stroke-linejoin="round"/>
<path d="M28.6597 45.7131L28.4878 45.7209C27.6361 45.794 26.9161 46.4045 26.7144 47.2483L17.479 85.8674C17.2713 86.7363 17.6653 87.6374 18.4438 88.0754L36.9146 98.4612C37.5338 98.8094 38.2915 98.8023 38.9048 98.4436C39.5179 98.0849 39.8949 97.4283 39.895 96.718V47.7131L39.8843 47.509C39.782 46.5004 38.9307 45.7131 37.895 45.7131H28.6597Z" fill="#513B7A" stroke="white" stroke-width="4" stroke-linejoin="round"/>
</mask>
<g mask="url(#mask0_33_13821)">
<path d="M47.7578 47.7484L47.9316 47.7562C48.7892 47.8305 49.5116 48.4495 49.707 49.3011L54.2744 69.2113C54.3981 69.7512 54.2924 70.3187 53.9824 70.7777L39.6982 91.931C39.3282 92.479 38.711 92.8088 38.0498 92.8119C37.43 92.8147 36.8464 92.5304 36.4668 92.0463L36.3936 91.9467L21.8184 70.7924C21.4949 70.3228 21.3864 69.7379 21.5215 69.184L26.3809 49.2738L26.4277 49.1097C26.6992 48.3024 27.4589 47.7485 28.3232 47.7484H47.7578Z" fill="#694E9E" stroke="white" stroke-width="4" stroke-linejoin="round"/>
</g>
<path d="M44.1094 38.4248C45.0734 38.4827 45.9701 38.9413 46.582 39.6885L46.709 39.8525L48.4736 42.292L48.502 42.3311L50.5332 45.2861L50.6406 45.4492C51.6734 47.0971 51.5442 49.2229 50.3193 50.7334L50.1924 50.8828L48.3721 52.9414L47.4932 54.0273C45.7275 56.2061 42.4528 56.2741 40.5928 54.2314L40.417 54.0273L39.5264 52.9287L37.7178 50.8828C36.3332 49.3166 36.1925 47.0087 37.377 45.2861L39.4082 42.3311L41.0352 39.9375L41.1611 39.7637C41.8148 38.9188 42.8252 38.4189 43.9014 38.4189L44.1094 38.4248Z" fill="#9080BB" stroke="white" stroke-width="4" stroke-linejoin="round"/>
<path d="M31.8027 38.4239C32.6591 38.4717 33.4634 38.8521 34.0439 39.4835L34.165 39.6221L36.2783 42.1954L36.3809 42.3311L38.4121 45.2862L38.5195 45.4493C39.5523 47.0971 39.4231 49.2229 38.1982 50.7335L38.0713 50.8829L36.251 52.9415L35.3721 54.0274C33.6064 56.2062 30.3317 56.2741 28.4717 54.2315L28.2959 54.0274L27.4053 52.9288L25.584 50.8692C24.2095 49.3143 24.0601 47.0262 25.2207 45.3057L28.8877 39.8712L29.0068 39.7051C29.628 38.8972 30.5924 38.419 31.6191 38.419L31.8027 38.4239Z" fill="#9080BB" stroke="white" stroke-width="4" stroke-linejoin="round"/>
<path d="M40.4058 20.3258C41.0699 20.3928 41.6365 20.786 41.9478 21.3414C41.9449 21.3364 41.9428 21.3309 41.9399 21.3258L46.2642 28.8942L46.4087 29.1559C47.8142 31.7917 47.9967 34.9118 46.9067 37.693L46.7935 37.9694L43.8755 44.819C41.7165 50.2114 34.0718 50.2112 31.9136 44.818V44.819L29.0737 38.152C27.7668 35.0838 28.0392 31.5701 29.8032 28.7399L33.397 22.9742L33.5991 22.6725C34.6533 21.2008 36.3572 20.3193 38.1821 20.319V20.318L40.2007 20.316L40.4058 20.3258ZM42.2036 22.317L42.1997 22.1881C42.1981 22.164 42.1953 22.1399 42.1929 22.1158C42.1995 22.182 42.2036 22.2491 42.2036 22.317Z" fill="#6D61AB" stroke="white" stroke-width="4" stroke-linejoin="round"/>
<path d="M37.895 10.5925C38.6133 10.5926 39.2765 10.9783 39.6323 11.6023L43.2212 17.8953L43.3179 18.0896L47.2329 27.1111C47.481 27.6827 47.4485 28.3374 47.145 28.8816L43.2505 35.8611L39.6753 42.8513C39.3334 43.5198 38.6459 43.9411 37.895 43.9412C37.144 43.9412 36.4557 43.5199 36.1138 42.8513L32.5493 35.8816L28.645 28.8816C28.3414 28.3374 28.3081 27.6828 28.5562 27.1111L32.4712 18.0896L32.5688 17.8953L36.1577 11.6023L36.228 11.488C36.5967 10.9315 37.2215 10.5925 37.895 10.5925Z" fill="#9080BB" stroke="white" stroke-width="4" stroke-linejoin="round"/>
<path d="M27.9968 29.3643C25.881 27.7508 22.7689 28.0594 21.033 30.1023L20.8641 30.3121C19.6041 31.9689 19.5766 34.1972 20.7392 35.8658L20.8555 36.0256C22.5202 38.2167 25.7588 38.6425 27.9775 36.949L28.1884 36.7788C30.4629 34.8424 30.4421 31.4361 28.205 29.5322L27.9968 29.3643Z" fill="#827697" stroke="white" stroke-width="4" stroke-linejoin="round"/>
<path d="M29.7441 35.1753C31.6248 34.0597 30.8709 31.0719 28.5928 31.0718L21.498 31.0718L21.2734 31.0825C19.0813 31.2797 18.6055 34.35 20.6445 35.1978L21.791 35.7954C23.4587 36.7798 25.4866 36.9522 27.2979 36.2534L28.3828 35.8345L28.5313 35.77L29.5537 35.2778L29.7441 35.1753Z" fill="#E6E2F0" stroke="white" stroke-width="4" stroke-linejoin="round"/>
<path d="M29.9272 31.3016C31.7801 32.4008 31.0371 35.3446 28.7925 35.3446L21.5552 35.3446L21.3306 35.3339C19.1384 35.1367 18.6626 32.0664 20.7017 31.2186L21.8481 30.621C23.5158 29.6366 25.5437 29.4642 27.355 30.163L28.4399 30.5819L28.5884 30.6464L29.7397 31.201L29.9272 31.3016Z" fill="white" stroke="white" stroke-width="4" stroke-linejoin="round"/>
<path d="M47.7997 29.1749C49.8975 27.547 52.9641 27.8664 54.6709 29.9104L54.8362 30.1208C56.0744 31.7774 56.1095 34.0084 54.9574 35.6904L54.8424 35.8511C53.1895 38.0646 49.9921 38.4767 47.8103 36.7824L47.6028 36.6112C45.3686 34.6761 45.3746 31.2643 47.5923 29.3439L47.7997 29.1749Z" fill="#827697" stroke="white" stroke-width="4" stroke-linejoin="round"/>
<path d="M46.0601 34.9883C44.1924 33.8644 44.9529 30.8926 47.2231 30.8926L54.1948 30.8926L54.4185 30.9033C56.6043 31.0991 57.0876 34.154 55.063 35.0127L53.9448 35.6055C52.2917 36.6004 50.2687 36.7748 48.4683 36.0684L47.4058 35.6514L47.2563 35.585L46.2485 35.0908L46.0601 34.9883Z" fill="#E6E2F0" stroke="white" stroke-width="4" stroke-linejoin="round"/>
<path d="M45.936 31.1572C44.0967 32.2649 44.8461 35.1923 47.0825 35.1924L54.1948 35.1924L54.4185 35.1816C56.6043 34.9858 57.0876 31.931 55.063 31.0723L53.9448 30.4795C52.2917 29.4846 50.2687 29.3101 48.4683 30.0166L47.4058 30.4336L47.2563 30.5L46.1226 31.0557L45.936 31.1572Z" fill="white" stroke="white" stroke-width="4" stroke-linejoin="round"/>
<path d="M40.6157 55.5256L40.7925 55.5334C41.2022 55.5697 41.5926 55.7316 41.9087 55.9993L47.2681 60.5383C47.7206 60.9216 47.9804 61.4863 47.9761 62.0793C47.9717 62.6723 47.7036 63.233 47.2456 63.6096L42.3394 67.6438C42.0263 67.9013 41.6438 68.0572 41.2427 68.092L41.0698 68.0999H34.7202C34.3148 68.0999 33.9204 67.9762 33.5884 67.7483L33.4497 67.6438L28.5435 63.6096C28.0855 63.233 27.8183 62.6723 27.814 62.0793C27.8097 61.4864 28.0685 60.9216 28.521 60.5383L33.8813 55.9993L34.021 55.8909C34.357 55.6539 34.7594 55.5257 35.1733 55.5256H40.6157Z" fill="#3F2861" stroke="white" stroke-width="4" stroke-linejoin="round"/>
<path d="M34.0303 60.916L33.7109 60.9062C30.5573 60.7062 28.4283 57.5594 29.416 54.5576L29.5254 54.2588L30.8496 50.9541C31.9534 48.1995 34.6223 46.3936 37.5898 46.3936L38.2002 46.3936C41.0747 46.3937 43.6692 48.0882 44.832 50.6982L44.9404 50.9541L46.2637 54.2588C47.5408 57.4466 45.1939 60.9158 41.7598 60.916L34.0303 60.916Z" fill="#3F2961" stroke="white" stroke-width="4" stroke-linejoin="round"/>
<path d="M40.6157 52.1968L40.7827 52.2036C41.1693 52.236 41.5396 52.3804 41.8472 52.6206L47.2065 56.8062C47.6578 57.1586 47.9368 57.6879 47.9722 58.2593C48.0074 58.8308 47.7956 59.3901 47.3911 59.7954L42.7739 64.4214C42.4457 64.7502 42.0144 64.9529 41.5562 64.9985L41.3579 65.0093H34.4312C33.9003 65.0092 33.3912 64.7971 33.0161 64.4214L28.3989 59.7954C27.9944 59.3901 27.7826 58.8308 27.8179 58.2593C27.8532 57.6879 28.1313 57.1586 28.5825 56.8062L33.9429 52.6206L34.0786 52.5239C34.4031 52.3115 34.7831 52.1969 35.1733 52.1968H40.6157Z" fill="#9080BB" stroke="white" stroke-width="4" stroke-linejoin="round"/>
<path d="M37.895 39.7644C38.5148 39.7645 39.0994 40.052 39.478 40.5427L45.8872 48.8513C46.4286 49.5532 46.4402 50.5211 45.9341 51.2322L45.8257 51.3708L42.2593 55.5554C41.8794 56.001 41.3234 56.2575 40.7378 56.2576H35.0542C34.4685 56.2576 33.9117 56.0011 33.5317 55.5554L29.9644 51.3708C29.3508 50.6513 29.3243 49.6001 29.9019 48.8513L36.311 40.5427L36.4624 40.3689C36.8365 39.9848 37.3524 39.7644 37.895 39.7644Z" fill="#BBAED5" stroke="white" stroke-width="4" stroke-linejoin="round"/>
<path d="M39.4048 11.2869C38.8779 10.6808 38.0394 10.4494 37.2759 10.698L26.3979 14.241L26.2114 14.3123C25.3642 14.6842 24.8818 15.5948 25.0503 16.5046L25.0962 16.699L28.5161 28.5115C28.7464 29.3066 29.4432 29.8778 30.2681 29.948C31.0414 30.0137 31.7779 29.6261 32.1646 28.9636L32.2378 28.8269L37.9634 17.0154L37.9624 17.0144L39.6919 13.4773C40.0444 12.7558 39.9316 11.893 39.4048 11.2869Z" fill="#6D61AB" stroke="white" stroke-width="4" stroke-linejoin="round"/>
<path d="M36.3892 11.2839C36.9187 10.6778 37.7598 10.4479 38.5239 10.7009L49.2251 14.2439L49.4087 14.3152C50.2423 14.6846 50.7214 15.5764 50.5688 16.4753L50.5259 16.6677L47.2974 28.5251C47.0782 29.3298 46.3826 29.9139 45.5522 29.991C44.7218 30.068 43.9303 29.6215 43.5669 28.8708L37.8296 17.0212L36.0981 13.4773C35.7448 12.7542 35.8597 11.8901 36.3892 11.2839Z" fill="#6D61AB" stroke="white" stroke-width="4" stroke-linejoin="round"/>
<path d="M36.7808 22.1215C37.4865 21.7924 38.3023 21.7919 39.0083 22.1205L39.1577 22.1957L45.4097 25.6029L45.5806 25.7035C47.2366 26.765 47.1735 29.23 45.4653 30.2054L45.2896 30.2972L39.0376 33.3011C38.3598 33.6267 37.5777 33.6472 36.8872 33.3617L36.7505 33.3002L30.5112 30.2972C28.5754 29.3652 28.5063 26.6335 30.3921 25.6039L36.6304 22.1967L36.7808 22.1215Z" fill="#BBAED5" stroke="white" stroke-width="4" stroke-linejoin="round"/>
<path d="M62.1499 69.8042L56.1805 68.258L64.7843 79.9898L64.6916 80.1761L58.0159 77.7496L67.7429 91.3887L67.575 91.5806L55.852 86.5982L54.7833 83.5685L54.2044 81.8756C54.2044 81.8756 53.977 81.2224 53.6851 80.2381C52.7279 77.0103 51.7996 73.775 50.9002 70.5322C50.8576 70.2617 50.7977 69.994 50.7207 69.7309C49.1806 63.8734 47.3974 58.0781 45.8283 52.2375C45.7357 51.8256 45.9962 51.5378 46.2162 51.2387C46.9921 50.1609 47.82 49.1339 48.6016 48.0617C48.9606 47.5651 48.7174 47.3769 48.2543 46.9199C48.0528 46.7348 48.2764 46.2823 48.2543 46.0133C48.6074 44.6703 49.4122 43.5135 49.9912 42.2776C50.767 40.6412 51.5371 39.0047 52.4577 37.4359C52.602 37.2001 52.69 36.9356 52.715 36.662C52.7401 36.3885 52.7016 36.113 52.6024 35.8559C52.3805 35.418 52.2731 34.9333 52.2898 34.4452C52.394 33.8414 52.4093 33.4689 52.6583 32.9498C52.8262 32.662 52.6119 32.4701 52.9672 32.267C52.3419 31.381 51.3825 31.164 50.8035 30.2499C50.5668 29.8611 50.5616 28.8758 50.1417 28.6836C50.0959 28.5656 50.0772 28.4392 50.0873 28.3134C50.0973 28.1875 50.1356 28.0654 50.1996 27.9557C50.9639 26.5788 51.6818 25.1737 52.5156 23.8194C52.6777 23.5372 52.863 23.351 53.2104 23.5598L56.39 35.6664C56.39 35.6664 54.5728 34.7741 53.9515 34.5072L58.207 43.2934L53.3609 41.3127L58.2572 50.2747L53.1004 49.0605L60.6271 60.8036L55.0226 59.1107L54.8894 59.2292C57.5103 62.7542 60.1234 66.2679 62.7289 69.7704C62.6439 69.8251 62.5457 69.8571 62.444 69.8631C62.3424 69.869 62.2409 69.8487 62.1499 69.8042Z" fill="#230F3D"/>
<path d="M12.8965 69.8045L18.8658 68.2583L10.2621 79.9901L10.3548 80.1763L17.0305 77.7498L7.30352 91.389L7.47143 91.5808L19.4536 86.6429L20.263 83.5687L20.842 81.8758C20.842 81.8758 21.0694 81.2227 21.3613 80.2384C22.3185 77.0106 23.2468 73.7753 24.1462 70.5324C24.1888 70.2619 24.2487 69.9943 24.3257 69.7311C25.8658 63.8737 27.649 58.0783 29.2181 52.2378C29.3107 51.8259 29.0502 51.5381 28.8302 51.239C28.0543 50.1612 28.5543 49.3633 27.7726 48.2912C27.4137 47.7946 27.3095 47.6382 27.7726 47.1811C27.9741 46.9961 26.77 46.2825 26.7921 46.0136C26.439 44.6705 25.6342 43.5137 25.0552 42.2779C24.2793 40.6414 24.0093 39.0049 23.0887 37.4362C22.9444 37.2003 22.8564 36.9358 22.8314 36.6623C22.8063 36.3887 23.3448 36.1132 22.944 35.8561C23.1659 35.4182 22.7733 34.9336 22.7566 34.4454C22.6524 33.8416 22.5803 33.7626 22.3314 33.2434C23.4388 33.8077 23.4336 33.1531 23.5784 32.95C24.2037 32.064 24.2678 31.2004 24.8467 30.2862C25.0834 29.8974 24.4848 28.8761 24.9046 28.6839C24.9505 28.5659 24.9691 28.4394 24.9591 28.3136C24.9491 28.1878 24.9108 28.0657 24.8467 27.9559C24.0825 26.579 23.3645 25.1739 22.5308 23.8196C22.3687 23.5375 22.1834 23.3513 21.836 23.56L18.6466 35.6215C18.6466 35.6215 20.4736 34.7743 21.0949 34.5075L16.8394 43.2936L21.6855 41.3129L16.7891 50.275L21.946 49.0608L14.4192 60.8039L20.0238 59.111L20.157 59.2295C17.5361 62.7545 14.923 66.2682 12.3175 69.7706C12.4025 69.8254 12.5007 69.8574 12.6024 69.8633C12.704 69.8692 12.8055 69.8489 12.8965 69.8045Z" fill="#230F3D"/>
<path d="M56.8517 7.96494C56.6389 6.53702 55.0676 5.78499 53.8868 6.61568C52.9041 7.30704 51.8325 8.14604 51.0671 8.97921C49.2543 10.9525 47.161 14.2807 47.161 14.2807L53.8861 24.1891L56.2232 19.8249C57.44 17.5526 57.8921 14.9486 57.5123 12.3992L56.8517 7.96494Z" fill="#513B7A"/>
<path d="M18.4417 7.87011C18.6614 6.46918 20.193 5.72155 21.3768 6.50226C22.4562 7.21416 23.6655 8.09995 24.5158 8.97924C26.424 10.9525 28.3306 14.2807 28.3306 14.2807L21.3813 23.8753L19.168 19.9579C17.8389 17.6055 17.3435 14.8731 17.7621 12.2037L18.4417 7.87011Z" fill="#513B7A"/>
<path d="M37.8813 48.2112H43.6534H47.1166L56.3519 86.5983L37.8813 96.9209V48.2112Z" fill="#513B7A"/>
<path d="M37.8945 48.2903H32.1225H28.6593L19.4528 86.6431L37.8945 96.9999V48.2903Z" fill="#513B7A"/>
<path d="M21.3811 23.8755L28.3304 14.281L34.2376 16.4991L26.2393 33.069L21.3811 23.8755Z" fill="#473772"/>
<path d="M53.8859 24.1893L47.1608 14.2809L41.2711 16.4831L49.2809 33.0647L53.8859 24.1893Z" fill="#473772"/>
<path d="M28.5444 19.3333C29.4776 16.9612 31.7671 15.4015 34.3163 15.4015L38.8894 15.4016L42.0334 15.4016C44.0652 15.4015 45.8901 16.6446 46.6339 18.5354L52.4025 33.1994C53.261 35.3815 53.1466 37.8263 52.0883 39.9188L45.4011 53.1403L45.2038 53.5657C42.2597 59.9158 33.2325 59.9158 30.2883 53.5657L30.0911 53.1403L23.4039 39.9188C22.3456 37.8264 22.2312 35.3815 23.0896 33.1994L28.5444 19.3333Z" fill="#513B7A"/>
<mask id="mask1_33_13821" style="mask-type:alpha" maskUnits="userSpaceOnUse" x="19" y="47" width="38" height="50">
<path d="M37.8945 47.7131H43.6666H47.1298L56.3651 86.3325L37.8945 96.7176V47.7131Z" fill="#513B7A"/>
<path d="M37.8945 47.7131H32.1225H28.6593L19.424 86.3325L37.8945 96.7176V47.7131Z" fill="#513B7A"/>
</mask>
<g mask="url(#mask1_33_13821)">
<path d="M28.3235 49.7484H47.758L52.3251 69.658L38.0407 90.812L23.4648 69.658L28.3235 49.7484Z" fill="#694E9E"/>
</g>
<path d="M41.0566 43.4645L42.6893 41.0609C42.962 40.6593 43.416 40.4189 43.9014 40.4189C44.3714 40.4189 44.8129 40.6444 45.0884 41.0252L46.8537 43.4645L48.8854 46.4192C49.5497 47.3853 49.4709 48.6796 48.6944 49.558L46.8537 51.64L45.9395 52.7682C44.9173 54.0296 42.9931 54.0296 41.9709 52.7682L41.0566 51.64L39.216 49.558C38.4394 48.6796 38.3607 47.3853 39.0249 46.4192L41.0566 43.4645Z" fill="#9080BB"/>
<path d="M30.5457 40.9896C30.7863 40.6328 31.1886 40.419 31.6189 40.419C32.0063 40.419 32.3733 40.5925 32.6192 40.8918L34.7327 43.4646L36.7643 46.4193C37.4286 47.3854 37.3498 48.6796 36.5733 49.558L34.7327 51.64L33.8184 52.7683C32.7962 54.0296 30.872 54.0296 29.8498 52.7683L28.9355 51.64L27.0829 49.5444C26.3119 48.6724 26.2281 47.3893 26.8791 46.4244L30.5457 40.9896Z" fill="#9080BB"/>
<path d="M35.0947 24.0321C35.7593 22.9657 36.927 22.3177 38.1835 22.3178L40.2025 22.316C40.2031 22.316 40.2037 22.3166 40.2037 22.3173C40.2037 22.3175 40.2038 22.3177 40.2039 22.3179L44.528 29.8862C45.8037 32.1189 45.961 34.82 44.9533 37.1857L42.0357 44.0349C40.5631 47.8062 35.2266 47.8062 33.7541 44.0349L30.9141 37.3679C29.8629 34.9001 30.0818 32.0746 31.5007 29.7982L35.0947 24.0321Z" fill="#6D61AB"/>
<path d="M34.3061 18.886L37.8948 12.5925L41.4835 18.886L45.3984 27.9075L41.4835 34.9242L37.8948 41.9409L34.3061 34.9242L30.3911 27.9075L34.3061 18.886Z" fill="#9080BB"/>
<path d="M26.849 35.3085C28.1903 34.1667 28.1861 32.1441 26.8537 31.0102C25.5542 29.9043 23.5328 30.1111 22.5007 31.4682C21.7339 32.4766 21.7376 33.8543 22.499 34.8565C23.5234 36.2048 25.5414 36.4216 26.849 35.3085Z" fill="#827697"/>
<path d="M27.6628 33.9689L28.6849 33.4761C28.8884 33.378 28.8185 33.0722 28.5926 33.0722L24.7517 33.0722L21.4982 33.0722C21.3258 33.0722 21.2878 33.3144 21.4519 33.3672C21.46 33.3698 21.4678 33.3731 21.4754 33.377L22.7278 34.0284C23.8841 34.7441 25.3088 34.877 26.5776 34.3876L27.6628 33.9689Z" fill="#E6E2F0"/>
<path d="M27.72 32.4475L28.8707 33.0024C29.0429 33.0854 28.9838 33.3442 28.7926 33.3442L24.8089 33.3442L21.5553 33.3442C21.3829 33.3442 21.3449 33.1019 21.509 33.0492C21.5171 33.0466 21.525 33.0433 21.5325 33.0394L22.7849 32.388C23.9412 31.6723 25.366 31.5394 26.6347 32.0288L27.72 32.4475Z" fill="white"/>
<path d="M48.9345 35.1272C47.6171 33.9862 47.6178 31.9691 48.9307 30.8323C50.2125 29.7225 52.1965 29.9321 53.2111 31.2896C53.9647 32.2978 53.9639 33.6709 53.2133 34.676C52.2029 36.0291 50.2204 36.241 48.9345 35.1272Z" fill="#827697"/>
<path d="M48.1369 33.7897L47.1296 33.2955C46.9278 33.1966 46.9983 32.893 47.223 32.893L50.9982 32.893L54.1949 32.893C54.3669 32.893 54.4054 33.1344 54.2419 33.1879C54.2337 33.1906 54.2258 33.1939 54.2182 33.198L52.9875 33.8492C51.853 34.5636 50.4465 34.6962 49.1985 34.2064L48.1369 33.7897Z" fill="#E6E2F0"/>
<path d="M48.1369 32.2952L47.0035 32.8513C46.8328 32.935 46.8924 33.192 47.0826 33.192L50.9982 33.192L54.1949 33.192C54.3669 33.192 54.4054 32.9505 54.2419 32.8971C54.2337 32.8944 54.2258 32.891 54.2182 32.887L52.9875 32.2357C51.853 31.5214 50.4465 31.3888 49.1985 31.8786L48.1369 32.2952Z" fill="white"/>
<path d="M35.1737 57.5256H40.6159L45.9757 62.0647L41.0694 66.0995C41.0694 66.0995 39.1472 66.0995 37.8948 66.0995C36.6425 66.0995 34.7202 66.0995 34.7202 66.0995L29.814 62.0647L35.1737 57.5256Z" fill="#3F2861"/>
<path d="M41.7595 58.916L37.8947 58.916L34.03 58.916C32.0111 58.916 30.6311 56.8764 31.382 55.0024L32.706 51.698C33.5057 49.7021 35.4395 48.3936 37.5897 48.3936L38.1997 48.3936C40.3499 48.3936 42.2837 49.7021 43.0835 51.698L44.4075 55.0024C45.1584 56.8764 43.7783 58.916 41.7595 58.916Z" fill="#3F2961"/>
<path d="M35.1737 54.1968L40.6159 54.1968L45.9757 58.3828L41.3581 63.0088C41.3581 63.0088 39.1472 63.0088 37.8948 63.0088C36.6425 63.0088 34.4316 63.0088 34.4316 63.0088L29.814 58.3828L35.1737 54.1968Z" fill="#9080BB"/>
<path d="M31.4858 50.0733L37.8948 41.7644L44.3038 50.0733L40.7374 54.258H35.054L31.4858 50.0733Z" fill="#BBAED5"/>
<path d="M37.895 12.5994L27.0174 16.1426L30.4376 27.9549L36.1634 16.1426L37.895 12.5994Z" fill="#6D61AB"/>
<path d="M37.895 12.5994L48.5966 16.1426L45.3675 27.9998L39.6266 16.1426L37.895 12.5994Z" fill="#6D61AB"/>
<path d="M31.3792 28.4947C30.9107 28.2692 30.8938 27.6082 31.3501 27.359L37.5893 23.9524C37.7798 23.8484 38.0101 23.8483 38.2008 23.9522L44.4523 27.3587C44.9093 27.6077 44.8924 28.2695 44.4233 28.4949L38.1717 31.4985C37.9968 31.5826 37.7931 31.5825 37.6182 31.4983L31.3792 28.4947Z" fill="#BBAED5"/>
</g>
<defs>
<filter id="filter0_d_33_13821" x="0.226587" y="0.626142" width="74.5932" height="104.989" filterUnits="userSpaceOnUse" color-interpolation-filters="sRGB">
<feFlood flood-opacity="0" result="BackgroundImageFix"/>
<feColorMatrix in="SourceAlpha" type="matrix" values="0 0 0 0 0 0 0 0 0 0 0 0 0 0 0 0 0 0 127 0" result="hardAlpha"/>
<feOffset dy="1.53856"/>
<feGaussianBlur stdDeviation="1.53856"/>
<feColorMatrix type="matrix" values="0 0 0 0 0.235294 0 0 0 0 0.12549 0 0 0 0 0.298039 0 0 0 0.2 0"/>
<feBlend mode="normal" in2="BackgroundImageFix" result="effect1_dropShadow_33_13821"/>
<feBlend mode="normal" in="SourceGraphic" in2="effect1_dropShadow_33_13821" result="shape"/>
</filter>
</defs>
</svg>
