<svg width="125" height="183" viewBox="0 0 125 183" fill="none" xmlns="http://www.w3.org/2000/svg">
<g filter="url(#filter0_d_406_1992)">
<path d="M82.9673 37.115C84.3978 36.3904 85.7898 36.7089 86.7368 37.2195L86.9204 37.324L87.0591 37.4119C87.7393 37.8673 88.232 38.5569 88.4409 39.3523L93.7866 59.7087C94.1208 60.9816 93.6822 62.3326 92.6636 63.1658C92.5949 63.2219 92.5237 63.2739 92.4517 63.324L96.6157 71.9207C97.2229 73.1743 96.994 74.6727 96.0405 75.6882C95.225 76.5566 94.0245 76.9159 92.8872 76.6726L96.6245 83.5125C97.2608 84.677 97.1533 86.1072 96.3491 87.1628C95.5449 88.2184 94.1945 88.7023 92.9028 88.3982L92.3149 88.2595L100.49 101.013C101.249 102.199 101.19 103.732 100.341 104.855C99.4925 105.978 98.0338 106.454 96.686 106.047L96.5278 105.999C98.986 109.304 101.44 112.604 103.89 115.897C104.446 116.644 104.667 117.588 104.501 118.504C104.336 119.419 103.797 120.226 103.015 120.73C102.381 121.139 101.655 121.374 100.91 121.418C100.323 121.452 99.7361 121.364 99.1831 121.166L98.4751 120.983L107.36 133.098C108.104 134.113 108.219 135.458 107.659 136.585L107.503 136.898C106.742 138.43 104.951 139.146 103.343 138.561L102.289 138.177L112.361 152.301C113.266 153.57 113.18 155.294 112.154 156.468L111.871 156.791C110.913 157.884 109.362 158.239 108.025 157.671L88.314 149.294C87.4455 148.925 86.7724 148.207 86.4585 147.317L84.6616 142.222C84.6581 142.212 84.6543 142.202 84.6509 142.192L83.6772 139.346V139.345L83.6763 139.344C83.6725 139.333 83.6681 139.318 83.6616 139.299C83.6485 139.26 83.6295 139.206 83.606 139.136C83.5589 138.997 83.4921 138.797 83.4097 138.544C83.245 138.039 83.0174 137.321 82.7622 136.461C81.1471 131.015 79.5805 125.555 78.063 120.084C78.0288 119.96 78.0019 119.834 77.9819 119.708C77.9327 119.395 77.8629 119.086 77.7739 118.782C77.7653 118.753 77.7573 118.723 77.7495 118.693C76.4654 113.809 75.0778 108.944 73.6743 104.048C72.2739 99.162 70.8567 94.2406 69.5288 89.2976C69.5168 89.253 69.5057 89.2079 69.4956 89.1628C69.2062 87.8758 69.5086 86.781 69.9019 86.0007C70.2051 85.3991 70.6862 84.7976 70.7192 84.7527C71.3969 83.8124 72.0914 82.9016 72.7583 82.0291C73.084 81.6029 73.4018 81.1859 73.7144 80.7732C73.5015 80.312 73.4095 79.8713 73.3735 79.533C73.3116 78.9492 73.3871 78.4486 73.4233 78.2283C73.4447 78.0986 73.4686 77.9793 73.4829 77.907C73.4894 77.874 73.4937 77.8486 73.4976 77.8289C73.5071 77.5846 73.5407 77.3414 73.603 77.1042C73.9953 75.6128 74.6178 74.3004 75.189 73.2009C75.8252 71.9763 76.275 71.2229 76.73 70.2517C76.7321 70.2471 76.7346 70.2426 76.7368 70.238C78.0089 67.5549 79.3481 64.7052 80.9546 61.9519C80.4695 60.8331 80.2379 59.6189 80.2798 58.3943L80.2954 58.1648C80.3032 58.0886 80.3136 58.0127 80.3267 57.9373C80.4078 57.4671 80.4864 56.6757 80.7642 55.7507C80.1007 55.2724 79.0871 54.4969 78.3003 53.2546C78.2896 53.2377 78.2785 53.2209 78.2681 53.2039C78.0651 52.8703 77.9342 52.553 77.8501 52.323C77.7633 52.0858 77.6981 51.862 77.6509 51.6863C77.6036 51.5106 77.562 51.336 77.5308 51.2058C77.5137 51.135 77.4981 51.0745 77.4849 51.0203C77.2359 50.7323 77.0346 50.4021 76.894 50.0408C76.6338 49.3715 76.5273 48.6509 76.5845 47.9324C76.6397 47.238 76.8467 46.5676 77.186 45.9656L78.1118 44.2712C79.0578 42.5256 80.0661 40.6506 81.1558 38.8806V38.8816C81.3671 38.5206 81.9233 37.6438 82.9673 37.115Z" fill="white" stroke="white" stroke-width="6.72554" stroke-linejoin="round"/>
<path d="M34.6562 37.115C33.2257 36.3904 31.8338 36.7089 30.8867 37.2195L30.7031 37.324L30.5654 37.4119C29.8864 37.8662 29.3944 38.554 29.1846 39.3474L23.8223 59.6267C23.489 60.887 23.914 62.2269 24.9131 63.0642C25.0039 63.1403 25.0994 63.2089 25.1963 63.2742L21.0078 71.9207C20.4006 73.1743 20.6295 74.6727 21.583 75.6882C22.3985 76.5566 23.5991 76.9159 24.7363 76.6726L20.999 83.5125C20.3628 84.677 20.4702 86.1072 21.2744 87.1628C22.0786 88.2184 23.429 88.7023 24.7207 88.3982L25.3086 88.2595L17.1338 101.013C16.3741 102.199 16.4335 103.732 17.2822 104.855C18.131 105.978 19.5898 106.454 20.9375 106.047L21.0957 105.999C18.6375 109.304 16.1834 112.604 13.7334 115.897C13.1779 116.644 12.9562 117.588 13.1221 118.504C13.288 119.419 13.8263 120.226 14.6084 120.73C15.2423 121.139 15.9687 121.374 16.7139 121.418C17.3005 121.452 17.8874 121.364 18.4404 121.166L19.1484 120.983L10.2637 133.098C9.51958 134.113 9.40448 135.458 9.96484 136.585L10.1201 136.898C10.882 138.43 12.6727 139.146 14.2803 138.561L15.335 138.177L5.2627 152.301C4.35766 153.57 4.44341 155.294 5.46973 156.468L5.75293 156.791C6.70108 157.874 8.23355 158.234 9.56445 157.685L29.7109 149.383C30.6842 148.981 31.4136 148.148 31.6816 147.13L33.0137 142.073L33.9463 139.346V139.345L33.9473 139.344C33.951 139.333 33.9554 139.318 33.9619 139.299C33.975 139.26 33.9941 139.206 34.0176 139.136C34.0646 138.997 34.1315 138.797 34.2139 138.544C34.3785 138.039 34.6061 137.321 34.8613 136.461C36.4765 131.015 38.0431 125.555 39.5605 120.084C39.5948 119.96 39.6217 119.834 39.6416 119.708C39.6908 119.395 39.7606 119.086 39.8496 118.782C39.8582 118.753 39.8662 118.723 39.874 118.693C41.1582 113.809 42.5457 108.944 43.9492 104.048C45.3497 99.162 46.7668 94.2406 48.0947 89.2976C48.1067 89.253 48.1178 89.2079 48.1279 89.1628C48.4174 87.8758 48.1149 86.781 47.7217 86.0007C47.4434 85.4487 47.0151 84.897 46.9209 84.7751C46.7804 84.5794 46.7441 84.4964 46.6357 83.7683C46.5332 83.0797 46.3814 81.9648 45.7041 80.7107C45.7356 80.5893 45.7638 80.466 45.7822 80.3396C45.8901 79.5991 45.7369 78.9923 45.6055 78.6277C45.3657 77.9624 44.9769 77.5058 44.8379 77.3455C44.505 76.9615 44.084 76.6041 43.9004 76.446C43.8639 76.4146 43.8307 76.3848 43.7998 76.3582C43.4161 75.1723 42.9084 74.113 42.4346 73.2009C41.7984 71.9763 41.3485 71.2229 40.8936 70.2517C40.8914 70.2471 40.8889 70.2426 40.8867 70.238C40.3354 69.075 39.9691 67.929 39.4648 66.4685C39.0365 65.2278 38.521 63.8082 37.7383 62.363C37.8614 61.9657 37.9486 61.4644 37.8945 60.8933C37.8724 60.6595 37.8292 60.4405 37.7715 60.2351C37.7527 59.6321 37.6256 59.1431 37.541 58.8572C37.9487 58.3952 38.1623 57.9505 38.2539 57.7507C38.2615 57.7341 38.2748 57.7034 38.29 57.6687C38.9684 56.6385 39.3433 55.6584 39.6064 54.9617C39.9108 54.156 40.0681 53.7426 40.3389 53.3152C40.3495 53.2984 40.3598 53.2814 40.3701 53.2644C40.7521 52.6368 40.8838 52.0204 40.9307 51.5876C40.9776 51.1545 40.9538 50.7737 40.9258 50.5095C40.8969 50.2377 40.8523 49.9911 40.8174 49.8132C40.8165 49.8088 40.8163 49.8041 40.8154 49.7996C41.0124 49.1999 41.0894 48.5654 41.0391 47.9324C40.9838 47.238 40.7768 46.5676 40.4375 45.9656L39.5117 44.2712C38.5657 42.5256 37.5574 40.6506 36.4678 38.8806V38.8816C36.2564 38.5206 35.7002 37.6438 34.6562 37.115ZM44.1309 78.0115L44.1201 78.2361C44.1269 78.1533 44.1302 78.0699 44.1309 77.9871C44.1308 77.9952 44.131 78.0033 44.1309 78.0115Z" fill="white" stroke="white" stroke-width="6.72554" stroke-linejoin="round"/>
<path d="M94.6357 13.4893C93.9565 8.93221 88.7866 6.07915 84.5889 8.83105L84.3906 8.96582L83.7334 9.43555C82.1743 10.5679 80.4484 11.9564 79.1074 13.416C77.4246 15.2479 75.6784 17.6287 74.3965 19.4727C73.7447 20.4102 73.1914 21.2396 72.8008 21.8359C72.6054 22.1343 72.4495 22.375 72.3418 22.543C72.288 22.627 72.2468 22.6935 72.2178 22.7393C72.2034 22.762 72.1915 22.7794 72.1836 22.792C72.1796 22.7983 72.1761 22.804 72.1738 22.8076C72.1728 22.8093 72.1716 22.8105 72.1709 22.8115V22.8135H72.1699C72.1698 22.8137 72.1701 22.8141 75.0166 24.6045L72.1699 22.8145C71.4592 23.9447 71.4846 25.3884 72.2344 26.4932L83.542 43.1523C84.203 44.1262 85.3247 44.6836 86.5 44.6221C87.6753 44.5604 88.7325 43.8891 89.2881 42.8516L93.2178 35.5137C95.605 31.0557 96.4922 25.947 95.7471 20.9453L94.6357 13.4893Z" fill="#513B7A" stroke="white" stroke-width="6.72554" stroke-linejoin="round"/>
<path d="M23.4058 13.3047C24.1203 8.74813 29.3014 5.9405 33.5142 8.71875C35.385 9.95255 37.6666 11.6036 39.3579 13.3525C41.1796 15.2363 42.9187 17.6702 44.1538 19.5332C44.7841 20.4838 45.309 21.3253 45.6772 21.9307C45.8616 22.2338 46.0076 22.4794 46.1089 22.6514C46.1594 22.7372 46.1985 22.805 46.2261 22.8525C46.2398 22.8763 46.2515 22.8947 46.2593 22.9082C46.2631 22.9149 46.2657 22.9207 46.2681 22.9248C46.2692 22.9267 46.2702 22.9284 46.271 22.9297L46.272 22.9316L46.2729 22.9326L46.3872 23.1514C46.9175 24.2573 46.8057 25.5732 46.0786 26.5771L34.394 42.709C33.7223 43.6364 32.6243 44.1582 31.481 44.0938C30.3378 44.0292 29.3059 43.3875 28.7427 42.3906L25.021 35.8037C22.4137 31.1886 21.442 25.8275 22.2632 20.5908L23.4058 13.3047Z" fill="#513B7A" stroke="white" stroke-width="6.72554" stroke-linejoin="round"/>
<path d="M74.9424 78.292L75.2314 78.3037C76.6617 78.4264 77.8711 79.4517 78.2119 80.8682L93.7393 145.411C94.0918 146.877 93.4262 148.397 92.1104 149.133L61.0547 166.489C60.0133 167.071 58.7409 167.058 57.7119 166.454C56.6832 165.85 56.0518 164.747 56.0518 163.554L56.0518 81.6543C56.0518 79.7971 57.5569 78.292 59.4141 78.292H74.9424Z" fill="#513B7A" stroke="white" stroke-width="6.72554" stroke-linejoin="round"/>
<path d="M43.9087 78.425L43.6196 78.4368C42.1888 78.5595 40.9795 79.585 40.6392 81.0022L25.1597 145.489C24.8086 146.951 25.4713 148.469 26.7827 149.205L57.7905 166.619C58.8317 167.204 60.1047 167.192 61.1353 166.589C62.1659 165.986 62.7993 164.881 62.7993 163.687L62.7993 81.7874C62.7993 79.9301 61.2942 78.425 59.437 78.425H43.9087Z" fill="#513B7A" stroke="white" stroke-width="6.72554" stroke-linejoin="round"/>
<path d="M41.2882 22.0253C42.0996 21.0544 43.2745 20.685 44.3396 21.0849L54.2723 24.814C55.1311 25.1366 55.8097 25.9214 56.1194 26.9495C56.4289 27.9776 56.336 29.1391 55.867 30.1108L42.419 57.971C41.8791 59.0895 40.9135 59.8078 39.8674 59.8691C38.8214 59.9304 37.845 59.3259 37.2879 58.2717L29.1197 42.8145L28.9938 42.5526C28.4167 41.2212 28.5883 39.5449 29.4466 38.3599L41.1308 22.227L41.2882 22.0253Z" fill="#473772" stroke="white" stroke-width="6.72554" stroke-linejoin="round"/>
<path d="M77.3057 22.323C76.5012 21.1378 75.2032 20.6461 74.0331 21.0836L64.1308 24.7863C63.2708 25.1079 62.5909 25.8925 62.2806 26.9213C61.9704 27.95 62.063 29.1125 62.5326 30.0849L76.0005 57.9653C76.5428 59.088 77.5143 59.8076 78.5645 59.8638C79.6146 59.9198 80.5919 59.3045 81.144 58.2405L88.8865 43.3176L89.007 43.0637C89.5592 41.7726 89.4114 40.1589 88.613 38.9825L77.3057 22.323Z" fill="#473772" stroke="white" stroke-width="6.72554" stroke-linejoin="round"/>
<path d="M66.394 23.1265C71.1923 23.1263 75.5027 26.0617 77.2593 30.5269L86.9585 55.1831C88.7529 59.7447 88.5137 64.8558 86.3013 69.23L75.0786 91.4185L74.7759 92.0718C68.6212 105.347 49.7509 105.347 43.5962 92.0718L43.2925 91.4185L32.0708 69.23C29.8584 64.8558 29.6192 59.7447 31.4136 55.1831L40.5854 31.8687C42.6605 26.5941 47.7514 23.1265 53.4194 23.1265H66.394Z" fill="#513B7A" stroke="white" stroke-width="6.72554" stroke-linejoin="round"/>
<mask id="mask0_406_1992" style="mask-type:alpha" maskUnits="userSpaceOnUse" x="21" y="74" width="77" height="96">
<path d="M74.9648 77.4553L75.2539 77.467C76.6858 77.5899 77.8961 78.6168 78.2354 80.0354L93.7637 144.97C94.1129 146.431 93.4501 147.947 92.1406 148.683L61.085 166.144C60.0437 166.729 58.7694 166.719 57.7383 166.115C56.7074 165.512 56.0743 164.408 56.0742 163.213L56.0742 80.8176C56.0742 78.9604 57.5793 77.4553 59.4365 77.4553H74.9648Z" fill="#513B7A" stroke="white" stroke-width="6.72554" stroke-linejoin="round"/>
<path d="M43.9082 77.4553L43.6191 77.467C42.1872 77.5899 40.977 78.6168 40.6377 80.0354L25.1094 144.97C24.7602 146.431 25.4229 147.947 26.7324 148.683L57.7881 166.144C58.8293 166.729 60.1037 166.719 61.1348 166.115C62.1657 165.512 62.7988 164.408 62.7988 163.213L62.7988 80.8176C62.7988 78.9604 61.2937 77.4553 59.4365 77.4553H43.9082Z" fill="#513B7A" stroke="white" stroke-width="6.72554" stroke-linejoin="round"/>
</mask>
<g mask="url(#mask0_406_1992)">
<path d="M76.0195 80.8772C77.5871 80.8772 78.9474 81.9597 79.2979 83.4875L86.9766 116.963C87.1848 117.871 87.0075 118.825 86.4863 119.597L62.4688 155.165C61.8466 156.087 60.809 156.641 59.6973 156.646C58.5856 156.651 57.5429 156.107 56.9121 155.192L32.4043 119.623C31.8604 118.834 31.68 117.85 31.9072 116.918L40.0762 83.4426L40.1562 83.1653C40.6129 81.8081 41.8896 80.8773 43.3428 80.8772H76.0195Z" fill="#694E9E" stroke="white" stroke-width="6.72554" stroke-linejoin="round"/>
</g>
<path d="M69.5352 65.1907C71.2872 65.1907 72.9395 65.9785 74.042 67.3245L74.2559 67.6008L77.2236 71.7024L77.2705 71.7688L80.6865 76.7366C82.678 79.6329 82.4413 83.5133 80.1133 86.1467L77.0791 89.5774L75.5752 91.4338C72.5107 95.2154 66.7413 95.2154 63.6768 91.4338L62.1826 89.5901L59.1377 86.1467C56.8096 83.5133 56.5739 79.6329 58.5654 76.7366L61.9814 71.7688L64.7158 67.7424L64.9277 67.4514C66.0267 66.0308 67.7256 65.1907 69.5352 65.1907Z" fill="#9080BB" stroke="white" stroke-width="6.72554" stroke-linejoin="round"/>
<path d="M48.8838 65.1907C50.4378 65.1907 51.9153 65.8428 52.9609 66.9797L53.1641 67.2131L56.7178 71.5393L56.8906 71.7688L60.3066 76.7366C62.2981 79.6329 62.0615 83.5133 59.7334 86.1467L56.6992 89.5774L55.1953 91.4338C52.1308 95.2154 46.3614 95.2154 43.2969 91.4338L41.8027 89.5901L38.7383 86.1233C36.427 83.5088 36.1754 79.6627 38.127 76.7698L44.292 67.6321L44.4932 67.3528C45.5375 65.9946 47.1576 65.1908 48.8838 65.1907Z" fill="#9080BB" stroke="white" stroke-width="6.72554" stroke-linejoin="round"/>
<path d="M63.3135 34.7524C64.5972 34.7513 65.7141 35.4697 66.2822 36.5278L73.5088 49.1753C76.1754 53.8426 76.5049 59.4887 74.3984 64.4341L69.4922 75.9507C65.8625 85.0171 53.0106 85.0171 49.3809 75.9507L44.6055 64.7407C42.408 59.5819 42.8651 53.6752 45.8311 48.9165L51.874 39.2212C53.6051 36.4438 56.6464 34.7562 59.9189 34.7554V34.7544L63.3135 34.7524Z" fill="#6D61AB" stroke="white" stroke-width="6.72554" stroke-linejoin="round"/>
<path d="M59.436 18.4036C60.6439 18.4036 61.7596 19.0506 62.3579 20.0999L68.3911 30.6819L68.478 30.843C68.5053 30.8976 68.5309 30.9531 68.5552 31.009L75.1382 46.178C75.555 47.1391 75.5001 48.2397 74.9897 49.1545L68.438 60.8948L62.4302 72.6428C61.8552 73.767 60.6987 74.4749 59.436 74.4749C58.1735 74.4747 57.0178 73.7669 56.4429 72.6428L50.4448 60.9153L43.8833 49.1545C43.3728 48.2396 43.3179 47.1391 43.7349 46.178L50.3179 31.009L50.395 30.843C50.4223 30.7886 50.4508 30.7348 50.481 30.6819L56.5151 20.0999L56.6333 19.9084C57.2531 18.9727 58.3037 18.4037 59.436 18.4036Z" fill="#9080BB" stroke="white" stroke-width="6.72554" stroke-linejoin="round"/>
<path d="M43.1442 50.2482C39.4735 47.1245 33.7452 47.6891 30.8013 51.5598C28.6144 54.4355 28.636 58.3353 30.7872 61.1668C33.6764 64.9695 39.385 65.6094 43.1169 62.4325C46.9414 59.1766 46.9058 53.4494 43.1442 50.2482Z" fill="#827697" stroke="white" stroke-width="6.72554" stroke-linejoin="round"/>
<path d="M45.5752 59.8247C48.9347 58.0242 47.6885 52.8374 43.7959 52.8374L31.8672 52.8374C27.861 52.8376 26.8888 58.3042 30.4336 59.7759L32.3066 60.7505C35.1204 62.4328 38.5539 62.7314 41.6182 61.5493L43.4434 60.8452C43.5281 60.8125 43.6116 60.7763 43.6934 60.7368L45.4121 59.9087L45.5752 59.8247Z" fill="#E6E2F0" stroke="white" stroke-width="6.72554" stroke-linejoin="round"/>
<path d="M45.8853 53.1357C49.1955 54.9095 47.9676 60.0205 44.1323 60.0205L31.9634 60.0205C27.9572 60.0203 26.985 54.5537 30.5298 53.082L32.4028 52.1074C35.2166 50.4251 38.6501 50.1265 41.7144 51.3086L43.5396 52.0127C43.6243 52.0454 43.7078 52.0817 43.7896 52.1211L45.7241 53.0537L45.8853 53.1357Z" fill="white" stroke="white" stroke-width="6.72554" stroke-linejoin="round"/>
<path d="M75.7423 49.9321C79.3841 46.779 85.0285 47.3669 87.9225 51.2385C90.0714 54.1136 90.0644 58.0176 87.932 60.8734C85.063 64.7154 79.4279 65.3283 75.7593 62.1511C72.0028 58.8974 72.0134 53.161 75.7423 49.9321Z" fill="#827697" stroke="white" stroke-width="6.72554" stroke-linejoin="round"/>
<path d="M73.4824 59.5947C69.9451 57.8593 71.1811 52.5361 75.1211 52.5361L86.8428 52.5361C90.8377 52.5361 91.8216 57.9788 88.2969 59.4668L86.4717 60.4326C83.6833 62.1312 80.2588 62.4323 77.2139 61.2373L75.4287 60.5371L75.1758 60.4258L73.4824 59.5947Z" fill="#E6E2F0" stroke="white" stroke-width="6.72554" stroke-linejoin="round"/>
<path d="M73.1104 52.8923C69.8239 54.6821 71.0635 59.7644 74.8848 59.7644L86.8428 59.7644C90.8377 59.7644 91.8216 54.3217 88.2969 52.8337L86.4717 51.8679C83.6833 50.1693 80.2588 49.8682 77.2139 51.0632L75.4287 51.7634L75.1758 51.8748L73.2705 52.8093L73.1104 52.8923Z" fill="white" stroke="white" stroke-width="6.72554" stroke-linejoin="round"/>
<path d="M64.0112 93.9531C64.8071 93.9531 65.5777 94.2347 66.1851 94.749L75.1968 102.381C75.9577 103.025 76.3934 103.975 76.3862 104.972C76.379 105.969 75.9289 106.912 75.1587 107.545L66.9097 114.329C66.3832 114.762 65.7394 115.022 65.0649 115.081L64.7739 115.094H54.0981C53.3192 115.094 52.5641 114.824 51.9624 114.329L43.7134 107.545C42.9432 106.912 42.494 105.969 42.4868 104.972C42.4796 103.975 42.9153 103.025 43.6763 102.381L52.688 94.749L52.9224 94.5674C53.4875 94.1687 54.1644 93.9531 54.8608 93.9531H64.0112Z" fill="#3F2861" stroke="white" stroke-width="6.72554" stroke-linejoin="round"/>
<path d="M59.436 103.016L52.938 103.016C47.1637 103.016 43.2162 97.1826 45.3638 91.8225L47.5903 86.2668C49.4462 81.6352 53.9337 78.5989 58.9233 78.5989L59.9487 78.5989C64.9384 78.5989 69.4259 81.6351 71.2817 86.2668L73.5083 91.8225C75.6558 97.1826 71.7084 103.017 65.9341 103.017L59.436 103.016Z" fill="#3F2961" stroke="white" stroke-width="6.72554" stroke-linejoin="round"/>
<path d="M64.0112 88.3564C64.7614 88.3564 65.4904 88.6066 66.0815 89.0684L75.0933 96.1064C75.852 96.6991 76.32 97.5889 76.3794 98.5498C76.4387 99.5108 76.083 100.451 75.4028 101.133L67.6392 108.911C67.0084 109.543 66.1521 109.897 65.2593 109.897H53.6128C52.72 109.897 51.8636 109.543 51.2329 108.911L43.4692 101.133C42.789 100.451 42.4334 99.5108 42.4927 98.5498C42.552 97.5889 43.0201 96.6991 43.7788 96.1064L52.7915 89.0684L53.019 88.9053C53.5648 88.548 54.2046 88.3565 54.8608 88.3564H64.0112Z" fill="#9080BB" stroke="white" stroke-width="6.72554" stroke-linejoin="round"/>
<path d="M59.4365 67.4524C60.4788 67.4525 61.462 67.9357 62.0986 68.761L72.875 82.7317C73.8455 83.9903 73.8023 85.7564 72.7715 86.9661L66.7754 94.0022C66.1365 94.7518 65.2008 95.1838 64.2158 95.1838H54.6592C53.6746 95.1837 52.7394 94.7524 52.1006 94.0032L46.1016 86.967C45.0701 85.7574 45.0264 83.9906 45.9971 82.7317L56.7734 68.761L56.8965 68.6106C57.533 67.8771 58.459 67.4524 59.4365 67.4524Z" fill="#BBAED5" stroke="white" stroke-width="6.72554" stroke-linejoin="round"/>
<path d="M61.9751 19.5718C61.0892 18.5526 59.679 18.1623 58.395 18.5806L40.106 24.5376C38.3813 25.0994 37.4131 26.9281 37.9175 28.6704L43.6685 48.5317C44.0557 49.8689 45.2267 50.8289 46.6138 50.9468C48.0009 51.0646 49.3171 50.3157 49.9243 49.063L59.5513 29.2026L59.5503 29.2017L62.4585 23.2544C63.0514 22.0412 62.8609 20.5909 61.9751 19.5718Z" fill="#6D61AB" stroke="white" stroke-width="6.72554" stroke-linejoin="round"/>
<path d="M56.9048 19.5659C57.795 18.5468 59.209 18.1602 60.4937 18.5854L78.4878 24.5435C80.1837 25.1052 81.1445 26.8948 80.6753 28.6187L75.2456 48.5552C74.8772 49.908 73.7081 50.8904 72.312 51.02C70.9158 51.1496 69.5852 50.3993 68.9741 49.1372L59.3218 29.2007L59.3228 29.1997L56.4155 23.2544C55.8213 22.0385 56.0145 20.5851 56.9048 19.5659Z" fill="#6D61AB" stroke="white" stroke-width="6.72554" stroke-linejoin="round"/>
<path d="M57.562 37.7881C58.7487 37.2346 60.1209 37.2337 61.3081 37.7861L61.5591 37.9131L72.0708 43.6406C75.2459 45.3708 75.1286 49.9691 71.8696 51.5352L61.3579 56.5859C60.1425 57.1698 58.7271 57.1689 57.5122 56.584L47.022 51.5342C43.7669 49.9671 43.6499 45.3739 46.8208 43.6426L57.311 37.915L57.562 37.7881Z" fill="#BBAED5" stroke="white" stroke-width="6.72554" stroke-linejoin="round"/>
<path d="M100.218 117.961L90.1816 115.362L104.648 135.087L104.492 135.4L93.2676 131.321L109.622 154.253L109.34 154.576L89.6291 146.198L87.8324 141.104L86.8589 138.258C86.8589 138.258 86.4766 137.16 85.9858 135.505C84.3763 130.078 82.8155 124.638 81.3033 119.185C81.2317 118.73 81.1309 118.28 81.0015 117.838C78.412 107.989 75.4137 98.2451 72.7755 88.425C72.6197 87.7323 73.0578 87.2485 73.4277 86.7456C74.7322 84.9334 76.1243 83.2065 77.4385 81.4038C78.0421 80.5688 77.6332 80.2524 76.8544 79.4839C76.5157 79.1727 76.8917 78.4118 76.8544 77.9596C77.4483 75.7015 78.8014 73.7564 79.7749 71.6785C81.0794 68.927 82.3742 66.1754 83.922 63.5378C84.1647 63.1412 84.3126 62.6964 84.3547 62.2365C84.3969 61.7766 84.3322 61.3133 84.1654 60.8811C83.7922 60.1448 83.6116 59.3299 83.6397 58.5091C83.8149 57.4939 83.8407 56.8677 84.2593 55.9948C84.5416 55.5109 84.1814 55.1883 84.7787 54.8467C83.7273 53.3571 82.1141 52.9923 81.1407 51.4552C80.7428 50.8015 80.734 49.1449 80.028 48.8218C79.9509 48.6233 79.9196 48.4108 79.9364 48.1992C79.9532 47.9876 80.0178 47.7823 80.1254 47.5978C81.4104 45.2827 82.6175 42.9202 84.0194 40.6431C84.292 40.1687 84.6035 39.8556 85.1876 40.2066L90.5337 60.5625C90.5337 60.5625 87.4783 59.0622 86.4336 58.6135L93.5888 73.3864L85.4407 70.0561L93.6733 85.1247L85.0026 83.0832L97.6581 102.828L88.2346 99.9814L88.0107 100.181C92.4174 106.108 96.8111 112.015 101.192 117.904C101.049 117.996 100.884 118.05 100.713 118.06C100.542 118.07 100.371 118.036 100.218 117.961Z" fill="#230F3D"/>
<path d="M17.4047 117.961L27.4414 115.362L12.9753 135.087L13.1311 135.4L24.3555 131.321L8.00073 154.253L8.28304 154.576L28.4297 146.273L29.7907 141.104L30.7642 138.258C30.7642 138.258 31.1464 137.16 31.6372 135.505C33.2467 130.078 34.8076 124.638 36.3197 119.185C36.3913 118.73 36.4921 118.28 36.6215 117.838C39.211 107.989 42.2094 98.2451 44.8476 88.425C45.0033 87.7323 44.5652 87.2485 44.1953 86.7456C42.8908 84.9334 43.7314 83.5919 42.4172 81.7892C41.8136 80.9542 41.6384 80.6913 42.4172 79.9228C42.7559 79.6116 40.7314 78.4118 40.7686 77.9596C40.1748 75.7015 38.8216 73.7564 37.8481 71.6785C36.5436 68.927 36.0896 66.1754 34.5417 63.5378C34.299 63.1412 34.1511 62.6964 34.109 62.2365C34.0669 61.7766 34.9723 61.3133 34.2983 60.8811C34.6715 60.1448 34.0114 59.3299 33.9833 58.5091C33.8081 57.4939 33.6869 57.361 33.2683 56.4881C35.1303 57.4369 35.1217 56.3363 35.3651 55.9948C36.4164 54.5051 36.5242 53.053 37.4977 51.5159C37.8955 50.8622 36.8891 49.1449 37.595 48.8218C37.6722 48.6233 37.7035 48.4108 37.6866 48.1992C37.6698 47.9876 37.6053 47.7823 37.4977 47.5978C36.2126 45.2827 35.0055 42.9202 33.6037 40.6431C33.3311 40.1687 33.0196 39.8556 32.4355 40.2066L27.0728 60.4866C27.0728 60.4866 30.1448 59.0622 31.1894 58.6135L24.0342 73.3864L32.1824 70.0561L23.9497 85.1247L32.6204 83.0832L19.965 102.828L29.3884 99.9814L29.6123 100.181C25.2057 106.108 20.8119 112.015 16.4312 117.904C16.574 117.996 16.7392 118.05 16.9101 118.06C17.081 118.07 17.2516 118.036 17.4047 117.961Z" fill="#230F3D"/>
<path d="M91.3101 13.9852C90.9524 11.5843 88.3104 10.3199 86.3251 11.7166C84.6727 12.879 82.871 14.2897 81.5841 15.6906C78.536 19.0084 74 26 74 26L85.5 43L90.3146 33.8892C92.3218 30.091 93.0629 25.7508 92.4299 21.5017L91.3101 13.9852Z" fill="#513B7A"/>
<path d="M26.7279 13.8257C27.0973 11.4702 29.6726 10.2131 31.663 11.5258C33.478 12.7228 35.5112 14.2122 36.9409 15.6906C40.1493 19.0084 44 25.5 44 25.5L34 45L27.9079 34.1272C25.6992 30.1854 24.8791 25.6158 25.5791 21.1519L26.7279 13.8257Z" fill="#513B7A"/>
<path d="M59.4141 81.6543H69.1191H74.9421L90.4702 146.198L59.4141 163.554L49.5 157.5L59.4141 81.6543Z" fill="#513B7A"/>
<path d="M59.437 81.7874H49.732H43.909L28.4294 146.273L59.437 163.687L66.5 159.5L59.437 81.7874Z" fill="#513B7A"/>
<path d="M31.6698 40.737L43.3543 24.6049L53.2865 28.3343L39.8383 56.1947L31.6698 40.737Z" fill="#473772"/>
<path d="M86.3234 41.2648L75.0159 24.605L65.113 28.3078L78.5807 56.188L86.3234 41.2648Z" fill="#473772"/>
<path d="M43.7143 33.0997C45.2834 29.1112 49.133 26.4888 53.4191 26.4888L61.1082 26.4889L66.3945 26.489C69.8107 26.4889 72.8792 28.579 74.1298 31.7581L83.8291 56.4139C85.2724 60.0829 85.0802 64.1936 83.3007 67.7119L72.0569 89.9422L71.7253 90.6575C66.775 101.335 51.5969 101.335 46.6466 90.6575L46.315 89.9422L35.0712 67.7119C33.2917 64.1936 33.0994 60.0829 34.5428 56.4139L43.7143 33.0997Z" fill="#513B7A"/>
<mask id="mask1_406_1992" style="mask-type:alpha" maskUnits="userSpaceOnUse" x="28" y="81" width="63" height="83">
<path d="M59.436 81H69.1411H74.9641L90.4921 145.934L59.436 163.395L53 160L59.436 81Z" fill="#513B7A"/>
<path d="M59.436 81H49.731H43.908L28.3799 145.934L59.436 163.395L65.5 160L59.436 81Z" fill="#513B7A"/>
</mask>
<g mask="url(#mask1_406_1992)">
<path d="M43.343 84.2395H76.0199L83.699 117.715L59.6815 153.283L35.1738 117.715L43.343 84.2395Z" fill="#694E9E"/>
</g>
<path d="M64.7522 73.6738L67.4974 69.6323C67.956 68.9572 68.7192 68.553 69.5354 68.553C70.3256 68.553 71.0679 68.9321 71.5313 69.5723L74.4994 73.6738L77.9155 78.6418C79.0324 80.2661 78.8999 82.4423 77.5943 83.9192L74.4994 87.4199L72.9622 89.3169C71.2435 91.4377 68.0082 91.4377 66.2895 89.3169L64.7522 87.4199L61.6574 83.9192C60.3517 82.4423 60.2193 80.2661 61.3362 78.6418L64.7522 73.6738Z" fill="#9080BB"/>
<path d="M47.0796 69.5123C47.4843 68.9125 48.1606 68.553 48.8841 68.553C49.5355 68.553 50.1526 68.8447 50.5661 69.348L54.1196 73.6737L57.5356 78.6418C58.6525 80.2661 58.52 82.4423 57.2144 83.9192L54.1196 87.4199L52.5823 89.3168C50.8636 91.4377 47.6283 91.4377 45.9096 89.3168L44.3723 87.4199L41.2573 83.8963C39.961 82.4301 39.8202 80.2728 40.9147 78.6503L47.0796 69.5123Z" fill="#9080BB"/>
<path d="M54.7282 41C55.8457 39.2071 57.809 38.1175 59.9217 38.1176L63.3164 38.1147C63.3175 38.1147 63.3185 38.1157 63.3185 38.1168C63.3185 38.1172 63.3186 38.1175 63.3187 38.1179L70.5893 50.8431C72.7342 54.5972 72.9988 59.1387 71.3043 63.1164L66.3988 74.6326C63.9228 80.9735 54.9501 80.9735 52.4741 74.6326L47.6991 63.4228C45.9316 59.2734 46.2997 54.5227 48.6853 50.6952L54.7282 41Z" fill="#6D61AB"/>
<path d="M53.4024 32.3476L59.4364 21.7659L65.4704 32.3476L72.0529 47.5162L65.4704 59.314L59.4364 71.1117L53.4024 59.314L46.8198 47.5162L53.4024 32.3476Z" fill="#9080BB"/>
<path d="M40.8645 59.9607C43.1197 58.0408 43.1127 54.6402 40.8724 52.7337C38.6874 50.8742 35.2887 51.2219 33.5534 53.5038C32.264 55.1992 32.2703 57.5157 33.5505 59.2007C35.2728 61.4677 38.666 61.8324 40.8645 59.9607Z" fill="#827697"/>
<path d="M42.2326 57.7079L43.9512 56.8792C44.2932 56.7143 44.1758 56.2002 43.796 56.2002L37.3379 56.2002L31.8674 56.2002C31.5776 56.2002 31.5137 56.6075 31.7896 56.6962C31.8033 56.7006 31.8165 56.7061 31.8291 56.7127L33.9349 57.808C35.8791 59.0113 38.2746 59.2348 40.4079 58.4119L42.2326 57.7079Z" fill="#E6E2F0"/>
<path d="M42.3288 55.15L44.2637 56.083C44.5532 56.2226 44.4538 56.6577 44.1324 56.6577L37.4341 56.6577L31.9636 56.6577C31.6738 56.6577 31.6099 56.2504 31.8858 56.1617C31.8994 56.1573 31.9127 56.1518 31.9253 56.1452L34.0311 55.0499C35.9753 53.8466 38.3708 53.6231 40.5041 54.4461L42.3288 55.15Z" fill="white"/>
<path d="M77.9985 59.656C75.7836 57.7375 75.7848 54.3459 77.9923 52.4346C80.1475 50.5686 83.4832 50.921 85.1893 53.2034C86.4563 54.8985 86.4549 57.2074 85.193 58.8973C83.494 61.1724 80.1607 61.5287 77.9985 59.656Z" fill="#827697"/>
<path d="M76.6572 57.4067L74.9635 56.5757C74.6244 56.4093 74.7428 55.8989 75.1206 55.8989L81.4682 55.8989L86.843 55.8989C87.1322 55.8989 87.1969 56.3049 86.9221 56.3948C86.9083 56.3993 86.895 56.4049 86.8822 56.4117L84.813 57.5067C82.9054 58.7079 80.5405 58.9308 78.4422 58.1072L76.6572 57.4067Z" fill="#E6E2F0"/>
<path d="M76.6572 54.8939L74.7516 55.8288C74.4645 55.9696 74.5648 56.4016 74.8845 56.4016L81.4682 56.4016L86.843 56.4016C87.1322 56.4016 87.1969 55.9957 86.9221 55.9058C86.9083 55.9013 86.895 55.8956 86.8822 55.8889L84.813 54.7938C82.9054 53.5927 80.5405 53.3697 78.4422 54.1933L76.6572 54.8939Z" fill="white"/>
<path d="M54.8609 97.3154H64.0114L73.0232 104.947L64.7739 111.731C64.7739 111.731 61.5419 111.731 59.4362 111.731C57.3305 111.731 54.0984 111.731 54.0984 111.731L45.8491 104.947L54.8609 97.3154Z" fill="#3F2861"/>
<path d="M65.9341 99.6536L59.4359 99.6535L52.9378 99.6535C49.5433 99.6535 47.2229 96.2242 48.4855 93.0732L50.7116 87.5173C52.0563 84.1613 55.3078 81.9614 58.9231 81.9614L59.9487 81.9614C63.564 81.9614 66.8155 84.1614 68.1602 87.5173L70.3863 93.0732C71.6489 96.2242 69.3285 99.6536 65.9341 99.6536Z" fill="#3F2961"/>
<path d="M54.8609 91.7188L64.0114 91.7188L73.0232 98.7571L65.2592 106.535C65.2592 106.535 61.5419 106.535 59.4362 106.535C57.3305 106.535 53.6131 106.535 53.6131 106.535L45.8491 98.7571L54.8609 91.7188Z" fill="#9080BB"/>
<path d="M48.6602 84.7851L59.4361 70.8147L70.212 84.7851L64.2156 91.8212H54.6596L48.6602 84.7851Z" fill="#BBAED5"/>
<path d="M59.437 21.7778L41.1476 27.7354L46.8983 47.5965L56.5255 27.7354L59.437 21.7778Z" fill="#6D61AB"/>
<path d="M59.437 21.7778L77.4305 27.7354L72.0011 47.6719L62.3485 27.7354L59.437 21.7778Z" fill="#6D61AB"/>
<path d="M48.4808 48.5039C47.693 48.1247 47.6646 47.0133 48.432 46.5943L58.9223 40.8666C59.2427 40.6916 59.63 40.6915 59.9505 40.8661L70.4618 46.5938C71.2302 47.0125 71.2018 48.1253 70.413 48.5042L59.9017 53.5545C59.6076 53.6958 59.2651 53.6957 58.9711 53.5541L48.4808 48.5039Z" fill="#BBAED5"/>
</g>
<defs>
<filter id="filter0_d_406_1992" x="-6.72461" y="0.232666" width="131.073" height="182.18" filterUnits="userSpaceOnUse" color-interpolation-filters="sRGB">
<feFlood flood-opacity="0" result="BackgroundImageFix"/>
<feColorMatrix in="SourceAlpha" type="matrix" values="0 0 0 0 0 0 0 0 0 0 0 0 0 0 0 0 0 0 127 0" result="hardAlpha"/>
<feOffset dy="4"/>
<feGaussianBlur stdDeviation="4"/>
<feColorMatrix type="matrix" values="0 0 0 0 0.235294 0 0 0 0 0.12549 0 0 0 0 0.298039 0 0 0 0.2 0"/>
<feBlend mode="normal" in2="BackgroundImageFix" result="effect1_dropShadow_406_1992"/>
<feBlend mode="normal" in="SourceGraphic" in2="effect1_dropShadow_406_1992" result="shape"/>
</filter>
</defs>
</svg>
