<svg width="206" height="82" viewBox="0 0 206 82" fill="none" xmlns="http://www.w3.org/2000/svg">
<path d="M1.92655 68.8302C3.46583 68.01 5.65308 67.3834 7.3701 67.0196C7.90654 66.9054 7.80921 67.402 8.1896 67.3394C8.93254 67.2165 9.4816 66.7684 10.2348 66.6726C10.4796 66.645 10.4603 67.3787 10.7122 67.3351C12.1058 67.0852 13.2544 66.4258 14.6099 66.0174C19.7987 64.4542 24.8234 62.6208 29.9195 60.7064C31.3502 60.1699 32.8263 59.6096 34.2872 59.0578C36.4678 58.2331 39.3133 57.675 41.4097 56.4836C41.6566 56.343 41.2691 55.8678 41.2993 55.8019C41.783 54.7842 41.9884 55.9915 42.5528 55.921C44.8059 55.6318 47.0244 54.7359 48.8632 53.6962C49.6369 53.2557 48.358 52.5315 49.438 52.7819C49.5126 52.7982 49.5534 53.4623 49.8035 53.4273C50.3698 53.3469 51.2938 52.8269 51.7033 52.7044C52.4995 52.4689 52.6228 52.4089 53.3457 52.1051C54.3265 51.6989 55.6245 51.4783 56.6153 50.8966C56.827 50.7703 56.2757 50.309 56.5904 50.0544C56.905 49.8 57.878 49.4398 58.2557 49.4416C58.635 49.4429 58.6988 49.9648 58.8011 50.0466C59.6524 50.7424 60.215 49.0277 60.3431 48.936C62.6891 47.304 65.203 47.0583 67.616 46.0154C69.4511 45.2205 71.3062 44.1438 73.0692 43.4219C75.1602 42.5687 77.0714 42.1239 79.0595 41.2029C79.272 41.1053 78.722 40.5205 78.9809 40.4C81.7119 39.1286 84.4909 38.0229 87.4487 37.3075C87.7492 37.2348 87.6497 37.9986 87.9653 37.9625C89.8737 37.7356 93.0688 37.7897 92.9336 34.71C94.13 34.3207 95.5696 33.8323 96.8184 33.9321C97.6161 33.9989 97.2612 34.9347 97.9624 34.3012C98.1203 34.1594 97.6327 33.68 97.8875 33.5115C98.1695 33.3252 98.4667 33.1655 98.7674 33.018C99.656 32.5852 100.564 32.2525 101.321 31.6707C101.525 31.5108 101.241 31.0158 101.267 30.8944C101.506 29.8963 102.963 30.7644 103.199 30.7728C105.027 30.8074 106.052 30.0645 107.504 29.489C107.841 29.356 107.158 28.8135 107.47 28.6609C109.106 27.8789 110.879 27.2299 112.796 26.9191C113.238 26.8492 113.063 27.5936 113.284 27.5925C114.266 27.5982 113.92 26.3662 115.334 26.3588C115.668 26.3658 115.552 26.9433 115.618 26.9957C115.736 27.1015 115.903 27.1702 116.044 27.2217C116.176 27.2735 116.376 27.2984 116.633 27.3455C116.774 27.3742 116.852 27.3812 117.097 27.4588C117.318 27.5319 117.576 27.6478 117.832 27.8408C118.405 28.1915 118.822 29.2677 118.821 29.6684C118.869 30.6865 118.796 30.8681 118.793 31.1861C118.782 31.4475 118.8 31.5772 118.759 31.6538C118.107 32.8037 117.686 32.9392 117.135 33.2246C116.598 33.4695 116.08 33.5794 115.582 33.8306C115.294 33.9727 115.025 34.1555 114.794 34.4181C114.674 34.5561 115.443 34.8172 115.079 35.1724C112.705 37.5014 109.882 39.7063 107.015 41.4598C106.572 41.7311 106.501 41.0934 106.434 41.0656C105.372 40.6443 106.015 41.8887 105.925 42.0348C105.129 43.2181 103.507 43.1171 103.858 44.9612C99.2682 48.2153 95.6566 52.5585 90.509 55.16C90.4452 55.1938 90.096 54.6081 89.9708 54.6777C88.446 55.523 89.4031 56.0676 89.3943 57.7805C89.3994 58.2041 87.7376 57.6271 87.6023 57.5973C87.1191 57.4728 86.666 56.5394 86.5434 56.5414C85.5667 56.5703 87.835 58.9638 87.0983 59.6351C87.0699 59.6536 86.7649 59.1103 86.6579 59.1261C86.3239 59.1741 86.2912 59.5311 85.9648 59.5476C85.1925 59.6029 83.9368 58.5787 83.9187 59.8818C83.923 60.0464 85.3164 61.2957 84.6345 61.8367C84.3528 62.0494 83.3297 63.1567 83.0723 63.3158C82.776 63.4966 82.4343 62.9561 82.4006 62.9561C81.3667 63.1901 81.2052 62.8631 80.2562 62.807C80.1319 62.8134 79.9624 62.8399 79.8499 63.0568C79.7363 63.3027 79.8528 63.5764 79.9575 63.6876C80.0668 63.8087 80.1712 63.8325 80.2582 63.8103C80.4211 63.7584 80.544 63.5229 80.621 63.2361C80.7845 62.6616 80.859 61.8841 80.889 61.7292C80.9177 61.5753 81.0597 61.6601 81.3059 61.7775C81.5474 61.8968 81.8452 62.0563 81.9696 62.1441C82.23 62.3164 82.0565 62.753 82.2812 62.8311C83.7533 63.3052 82.4406 61.3418 82.6796 60.8076C83.2054 59.5339 84.6175 61.2182 85.5604 61.056C85.8152 61.011 85.4498 60.6491 85.633 60.5256C86.3673 60.0361 87.1054 60.4218 87.7777 59.4624C87.8772 59.3111 88.091 57.8346 88.9374 58.4465C89.0617 58.5338 89.0922 59.0937 89.4841 59.0349C90.0681 58.9493 91.0279 58.6043 91.4893 58.1783C91.8357 57.8609 90.9936 57.3288 91.6139 57.3131C91.8851 57.3085 91.7056 57.9594 92.199 57.9121C92.6999 57.8618 93.7437 57.2981 94.1521 57.0634C94.5445 56.8376 94.0229 56.3798 94.0355 56.3239C94.1079 56.0041 94.7331 55.3191 94.8056 55.2807C95.2535 55.0298 95.7068 54.7979 96.1819 54.5691C99.1336 53.1519 102.266 52.2795 104.962 50.3857C105.209 50.2139 104.698 49.7189 104.732 49.6866C105.481 48.93 105.684 50.9047 106.6 51.0818C105.825 49.9283 106.308 49.9415 106.859 49.4511C107.124 49.2135 106.693 48.842 106.693 48.7785C106.74 47.8124 107.567 48.5516 107.755 48.6923C108.442 49.2112 108.297 48.2148 108.763 48.5579C109.227 48.8973 109.15 49.8406 109.748 49.485C109.67 48.9576 108.575 48.0918 108.928 47.6459C110.237 45.9765 113.936 45.0062 115.362 44.2969C116.789 43.588 117.18 43.2534 118.071 42.9409C119.678 42.3767 118.66 41.8575 119.334 40.9534C120.01 40.0471 120.769 42.3453 121.156 42.7087C121.54 43.0731 121.413 42.5411 121.711 42.6902C122.009 42.8396 121.845 43.3369 122.266 43.2115C122.688 43.0863 123.243 41.7117 123.104 41.1762C122.81 40.042 121.757 39.2883 122.943 39.0743C123.012 39.0626 123.144 39.7063 123.391 39.6344C125.344 39.0437 127.132 38.0271 129.054 37.3883C129.318 37.3014 129.46 38.0215 129.618 37.9777C131.264 37.5227 130.164 36.8156 130.285 35.2394C130.985 36.83 131.953 37.4858 133.037 36.8596C133.688 36.4839 133.194 35.9002 133.345 35.195C133.39 34.9827 134.111 35.1584 134.015 34.804C133.701 33.6442 132.611 32.7801 133.984 32.5716C134.045 32.5639 134.211 33.2023 134.4 33.1358C135.621 32.7088 135.132 31.5904 136.239 30.7687C137.104 30.1257 139.125 29.7951 140.236 29.282C141.197 30.9677 141.968 29.9993 141.692 28.6104C142.4 28.2581 143.108 27.7553 143.856 27.5313C144.114 27.4534 144.249 28.025 144.308 28.0607C145.233 28.6227 144.873 27.3253 144.995 27.1948C146.336 25.8347 148.15 25.9174 149.186 24.1985C149.223 24.1373 148.631 22.9219 149.54 23.532C149.6 23.5753 149.4 24.401 150.148 24.0209C150.889 23.6448 152.614 23.4795 153.298 22.3632C153.468 22.0913 153.537 20.788 154.448 21.2504C154.469 21.2613 154.49 21.2815 154.511 21.3081C154.517 21.3043 154.536 21.2947 154.542 21.291C154.643 21.4209 154.747 21.7005 154.913 21.8129C155.556 22.2434 155.077 20.9532 155.995 21.7715C156.92 22.5865 158.058 22.9548 158.724 21.6901C158.746 21.6521 158.479 20.5697 158.809 20.4124C159.329 20.1652 160.175 19.9686 160.712 19.6753C160.968 19.5349 160.489 19.0305 160.528 18.9959C162.076 17.749 163.618 17.6142 165.593 16.8852C165.958 16.7513 166.543 15.4222 167.522 15.7348C168.619 16.065 169.369 19.3736 170.672 17.8368C171.211 17.2145 170.186 13.0561 172.392 14.3814C174.534 12.7306 177.216 12.6769 179.298 10.887C179.387 10.8093 179.262 9.58602 179.525 9.48486C179.92 9.33564 180.344 9.74282 180.631 9.65439C181.852 9.29119 182.694 8.41896 183.85 8.01303C184.283 7.86069 184.34 8.44653 184.863 8.26442C185.386 8.08293 185.425 7.26574 186.258 7.31955C186.871 7.37013 187.953 8.57485 188.678 8.4893C188.178 7.08028 188.661 6.92729 189.375 6.24897C189.514 6.11746 189.16 5.69167 189.217 5.60413C189.448 5.23554 189.869 5.54407 190.086 5.15935C190.137 5.06724 189.973 4.58358 190.006 4.48101C190.273 3.59095 191.51 4.39272 191.705 4.54109C192.508 5.08045 192.546 4.37363 193.079 4.52454C193.595 4.68223 193.064 5.23137 193.611 5.25727C194.745 5.31049 196.034 4.88448 197.094 4.67886C197.521 4.59298 197.088 3.98905 197.146 3.96128C197.509 3.80722 197.921 3.8205 198.27 3.77775C198.742 3.73157 199.138 3.57548 199.314 2.77145C200.421 6.15907 199.816 2.36678 201.173 2.8652C201.278 2.90519 201.693 4.52039 201.327 4.82681C200.959 5.13299 200.282 4.70398 199.803 5.15445C199.685 5.2605 199.193 6.90255 199.12 7.0097C199.002 7.16233 198.899 7.20619 198.794 7.17686L198.885 7.16152C198.452 7.03474 198.042 5.40267 197.989 5.29908C197.249 3.94385 196.737 5.77787 196.551 5.94382C195.67 6.70149 194.735 6.60114 194.007 7.21411C193.52 7.61681 193.967 9.18092 193.532 9.26629C192.111 9.55208 190.849 7.59285 190.194 9.92296C190.058 10.4209 190.962 11.9763 189.466 11.048C189.383 10.9848 188.154 10.0876 188.027 11.0074C188.011 11.1234 188.203 11.6042 188.148 11.6726C187.775 12.123 187.302 11.8688 186.86 12.2626C186.403 12.663 185.919 13.1836 185.244 13.2799C184.856 13.3303 184.016 12.6421 183.747 12.5013C182.98 12.0921 182.927 13.334 182.286 12.7169C181.644 12.0963 181.733 10.6805 180.711 10.5498C181.23 11.791 181.727 13.0813 182.233 14.3366C180.489 15.0654 178.6 15.4651 176.906 16.3412C176.693 16.4528 177.227 16.9987 177.007 17.1353C176.104 17.6961 175.02 17.65 174.12 18.3227C173.397 18.8593 172.925 19.9494 172.188 20.536C171.023 19.3987 170.03 20.4875 169.118 20.7974C168.792 20.9098 168.625 20.5339 168.346 20.5266C167.294 20.5104 168.299 21.5228 168.177 21.8266C167.655 23.1247 166.141 20.4418 165.044 21.1009C164.987 21.134 165.022 22.9689 164.968 23.113C164.636 24.0409 164.596 22.6631 164.135 22.769C163.293 22.9628 162.622 22.8748 161.979 23.7626C161.785 24.0274 161.688 25.2388 160.828 24.8024C160.716 24.7453 160.494 24.2485 160.428 24.2481C159.247 24.2816 160.017 25.803 159.775 26.59C159.528 27.379 158.146 26.791 157.814 26.5857C156.954 26.0553 157.973 26.0726 157.955 25.9847C157.763 25.0258 157.318 25.3407 156.856 25.5388L156.925 25.5004C156.882 25.5197 156.839 25.538 156.796 25.5539C155.899 24.1421 155.321 24.591 156.292 25.7487C156.399 25.8744 156.669 25.5389 156.796 25.5539C157.228 27.1972 156.631 27.7835 155.104 26.897C154.388 26.4821 154.311 25.5585 153.37 26.4581C152.939 26.8681 153.714 27.7483 153.438 28.2716C152.802 29.4682 150.974 29.291 150.031 30.0376C149.692 30.3064 150.37 30.64 150.149 30.8426C149.565 31.3816 148.722 31.3275 148.174 31.9286C148.124 31.984 148.607 32.4655 148.401 32.5957C146.836 33.6005 145.243 34.0453 143.567 35.0166C142.762 35.4829 141.502 36.6457 140.635 37.0711C139.123 37.8176 136.863 38.036 135.745 38.9643C135.013 39.5679 135.526 40.0314 135.408 40.6218C135.185 41.7641 133.213 41.1147 132.932 40.9996C132.923 40.9956 133.537 40.4537 132.996 40.3796C132.423 39.8983 132.938 40.9924 132.932 40.9996C132.748 40.9265 131.287 41.6127 131.075 41.8833C130.961 42.0306 131.361 42.5199 131.295 42.5866C129.727 44.1579 127.946 45.3888 125.918 46.2393C125.879 46.2479 125.575 45.6157 125.487 45.6435C124.235 46.0171 123.977 47.1594 123.329 48.1268C122.686 49.0906 121.885 49.3619 120.746 48.6375C120.146 49.1629 118.899 49.2762 118.177 49.3239C117.456 49.3716 118.064 50.5915 118.027 50.6443C116.911 52.289 115.629 52.1325 113.967 52.9535C113.172 53.3435 111.752 54.3894 111.005 54.9888C110.408 55.4696 109.849 55.4221 109.353 55.9404C109.285 56.0102 109.667 56.4896 109.654 56.5239C109.339 57.5381 108.927 56.068 108.657 55.9178C107.669 55.3741 107.115 55.1003 106.47 55.9863C106.319 56.191 106.784 58.3773 106.485 58.6893C106.092 59.0921 105.889 58.3297 105.48 58.7723C105.444 58.8094 105.683 59.216 105.366 59.3705C103.89 60.095 102.197 60.7221 100.703 61.5902C100.501 61.7059 101.121 62.2198 100.835 62.3973C100.733 62.46 100.632 62.5221 100.529 62.5835C99.2239 63.3656 97.7671 64.0828 96.3212 64.4609C95.9282 64.5628 95.9108 63.9834 95.7637 63.884C94.8757 63.2822 94.8421 64.829 94.7376 64.91C92.4001 66.7987 89.8859 66.6492 87.0697 68.3654C86.923 68.4627 86.0274 70.3443 84.9249 69.3528C84.8332 69.2915 83.8772 68.2433 83.3409 69.259C83.2863 69.3245 84.0246 69.8525 82.9955 69.9911C82.5404 70.039 82.0546 70.2066 80.9385 70.2518C80.2916 70.2277 79.7035 70.3657 77.8745 69.7012C76.9584 69.2894 75.3455 68.6241 74.0516 66.1783C72.8183 63.6966 73.4045 61.2845 73.8922 60.227C74.1627 59.7339 74.4813 59.3385 74.8196 59.0492C75.3838 58.5308 77.0293 58.4631 76.9098 57.0781C76.9067 56.9602 76.2566 54.2896 77.7108 55.1055C77.9456 55.2443 79.0934 56.4745 79.1739 55.1957C79.1922 54.9461 78.694 54.9009 78.8778 54.4011C79.173 53.6205 80.1617 53.321 80.3098 52.1692C80.331 51.9695 80.0339 50.6917 81.0045 50.988C81.1536 51.0369 81.42 51.5552 81.6584 51.4256C82.8283 50.7803 83.5484 49.6372 84.7791 49.0703C85.2065 48.8757 85.6351 49.7123 86.1547 49.5795C86.6975 49.4262 87.5216 49.0141 87.642 48.3545C87.7398 47.7146 86.3768 46.9791 86.8477 46.4115C88.9278 43.9166 91.9085 42.4483 94.3907 40.4502C94.7524 40.1597 94.119 40.0226 94.6331 39.5616C96.5519 37.8385 99.5949 34.5423 101.999 33.9114C103.937 33.3956 102.688 35.3768 103.943 34.7604C104.542 34.4655 103.974 32.7221 104.06 32.5762C104.921 31.11 106.161 31.0209 107.1 29.8975C107.291 29.6671 106.623 29.3425 106.791 29.1518C107.338 28.5174 108.193 28.1765 108.77 27.5987C109.028 27.3387 108.634 26.9893 108.915 26.7974C109.026 26.7202 109.138 26.6472 109.252 26.5782C109.764 26.2831 110.301 26.0984 110.873 26.1121C110.937 26.1121 111.175 26.7875 111.452 26.5504C111.552 26.4661 111.665 26.3915 111.627 26.5013C111.604 26.5726 111.54 26.6469 111.288 27.1405C111.213 27.2914 111.125 27.4822 111.031 27.7422C110.955 27.9603 110.791 28.4235 110.725 29.1085C110.692 29.4496 110.685 29.8489 110.739 30.298C110.796 30.8126 110.963 31.4753 111.258 32.0793C111.545 32.6842 111.993 33.2769 112.413 33.6749C112.803 34.0511 113.211 34.3337 113.584 34.5388C113.959 34.7446 114.299 34.8766 114.593 34.9681C114.837 35.0427 114.998 35.0777 115.17 35.1105C115.501 35.1719 115.754 35.1885 115.953 35.1937C116.257 35.1985 116.425 35.1787 116.549 35.1645C116.743 35.1386 116.779 35.1277 116.775 35.1421C116.759 35.1695 116.603 35.2759 116.48 35.4447C116.297 35.6595 116.697 36.7806 115.89 36.1866C115.721 36.0642 115.391 34.6558 115.136 36.0668C115.08 36.304 114.535 38.2964 113.528 37.5381C113.278 37.3317 112.439 36.4021 112.148 36.7177C112.113 36.7635 112.537 37.2843 112.278 37.4559C111.315 38.0692 110.234 38.44 109.232 39.0741C108.973 39.2415 109.647 39.6799 109.25 39.9109C108.139 40.5548 106.624 41.0093 105.391 41.3053C104.942 41.4111 105.017 40.782 104.964 40.7398C104.092 40.0517 104.295 41.3925 104.165 41.5311C103.725 41.9856 103.217 42.1311 102.697 42.258C102.271 42.3577 101.838 42.4433 101.426 42.7008C101.178 42.8533 101.611 43.3497 101.581 43.4235C101.247 44.1588 101.21 42.9518 100.825 42.9811C99.7461 43.0595 98.6946 43.5632 97.7586 44.0505C97.4114 44.2319 98.101 44.7269 97.7854 44.8823C95.965 45.797 93.9663 46.5781 91.9742 46.9975C91.5941 47.0772 91.5936 46.4689 91.4702 46.3828C90.6225 45.7742 90.3799 47.205 90.256 47.3846C89.6966 48.2019 89.21 47.8728 88.575 48.2461C85.4688 50.0815 81.2721 51.5321 78.091 52.6828C73.9448 54.186 70.5922 55.0526 66.7886 56.8435C66.5465 56.9567 67.0884 57.5331 66.8836 57.6395C64.2256 58.9811 61.4218 59.8737 58.7708 61.2505C58.5528 61.3623 59.1555 61.8705 58.815 62.0715C58.1215 62.4873 57.1654 62.8577 56.3302 62.9724C55.9234 63.0295 56.1718 62.2635 55.7674 62.3323C54.8297 62.4893 53.8817 62.843 53.0558 63.3218C52.7038 63.5275 53.551 63.948 53.0692 64.1646C49.7886 65.6554 46.5837 67.1696 42.8702 67.7474C42.6152 67.7871 41.8417 66.5238 41.4639 66.9918C41.5872 67.3817 41.7779 67.8206 41.9332 68.2272C39.4971 69.4041 36.9858 70.3962 34.4619 71.35C32.0946 72.2446 29.7032 73.111 27.3364 74.0709C27.1296 74.155 27.7868 74.7204 27.389 74.8863C25.0975 75.8426 22.932 76.9869 20.2897 77.2512C20.0285 77.2781 19.6144 75.9706 19.0073 76.4467C18.9102 76.5281 17.9257 77.1337 17.7796 77.5149C17.7596 77.5716 18.1964 78.0812 17.8623 78.2394C15.9501 79.1345 13.8395 79.8403 11.7299 80.2665C11.387 80.3349 11.4732 79.5686 11.228 79.6113C9.4966 79.9171 7.93462 81.0863 6.17915 81.1044C5.0048 81.1134 4.96222 79.8709 4.00388 79.0018C3.86985 78.8788 3.22862 79.0979 2.95496 78.4827C2.26429 76.9367 1.90424 75.0914 1.13209 73.4574C0.966253 73.1053 0.273519 73.8197 0.435772 72.7522C0.448452 72.68 0.946285 72.1549 0.982221 71.8C1.00768 71.5544 0.57398 70.9886 0.685263 70.6439C0.79545 70.2999 1.23677 70.7442 1.46765 70.3002C1.70019 69.8511 1.26218 69.1867 1.92655 68.8302ZM114.93 49.5478C114.078 49.2865 115.201 51.4014 115.481 50.5773C115.493 50.535 114.973 49.5598 114.93 49.5478ZM177.854 13.8292C176.686 13.2116 176.889 14.8338 177.722 15.341C178.562 15.8443 178.205 14.0181 177.854 13.8292ZM184.886 9.85649C183.728 9.43961 184.921 12.6191 185.537 11.6165C185.573 11.5596 184.953 9.88098 184.886 9.85649ZM6.39861 77.7205C6.37793 77.6945 5.913 77.8426 5.91492 77.8756C5.94897 78.678 6.87898 78.3812 6.39861 77.7205ZM192.048 6.26552C191.639 5.91503 191.027 6.68142 191.542 7.10967C191.961 7.45132 192.553 6.70132 192.048 6.26552ZM86.0258 62.1275C86.0017 62.0991 85.6656 62.2004 85.7481 62.3842C86.0082 62.98 86.4035 62.6212 86.0258 62.1275ZM205.366 3.16461C203.289 3.65628 201.56 1.14673 203.636 0.948518C204.023 0.902362 203.073 2.02667 203.61 2.14388C204.628 2.34554 204.685 0.48471 205.856 1.09262C206.077 1.20355 205.492 3.14367 205.364 3.16944C205.365 3.16783 205.365 3.16622 205.366 3.16461ZM113.186 47.2365C113.16 47.2153 112.726 47.4318 112.732 47.4646C112.887 48.2532 113.76 47.8173 113.186 47.2365ZM91.0431 53.8174C91.1014 53.8557 91.9922 53.1569 91.9827 53.0827C91.6072 51.7591 89.8018 53.1707 91.0431 53.8174ZM140.279 29.3168C140.347 28.3903 140.844 27.9942 141.689 28.6108C141.215 28.8301 140.757 29.09 140.279 29.3168Z" fill="white"/>
</svg>
