<svg width="297" height="182" viewBox="0 0 297 182" fill="none" xmlns="http://www.w3.org/2000/svg">
<path d="M13.0994 162.66C12.0636 162.587 10.9735 162.592 9.86767 162.662C8.75987 162.66 7.57437 163.931 6.48197 165.868C6.28209 166.213 6.14541 166.116 6.07261 166.207C5.87084 166.461 5.95886 166.725 5.83504 166.935C5.6267 167.289 5.42102 167.652 5.18869 168.039C5.10673 168.125 5.04376 168.289 5.04056 168.477C5.04362 168.526 5.04803 168.576 5.05386 168.626C5.17219 169.29 4.60701 169.174 4.5914 169.49C4.6343 170.16 5.01656 169.386 5.25506 169.522C5.51638 170.113 5.94566 170.783 6.46514 171.461C6.27798 171.35 6.09579 171.238 5.91882 171.12C6.13894 171.403 6.42877 171.875 5.8755 171.524C5.93029 171.661 5.975 171.796 6.03861 171.936C6.24548 171.799 6.72872 172.279 6.88113 172.223C7.02969 172.165 6.73809 171.912 6.74985 171.905C6.88435 171.79 7.84848 173.12 7.9307 173.233C8.11895 173.502 7.70065 173.514 7.9076 173.697C8.26291 174.017 8.49824 173.355 8.34336 174.404C8.71977 174.415 8.63426 174.527 8.84432 174.795C8.87212 174.831 8.96726 174.702 8.98342 174.714C9.41371 175.04 8.92832 174.918 8.91924 174.932C8.77277 175.109 9.07356 175.388 9.19638 175.543L8.85614 175.251C8.88304 175.265 8.90411 175.277 8.916 175.288C9.91797 176.198 10.6992 176.821 11.9765 177.418C12.1008 177.475 12.3522 177.555 12.6159 177.635L12.5374 177.612C12.8461 177.654 13.1866 177.67 13.3406 177.71C13.6175 177.781 13.4501 177.959 13.5934 178.063C13.8723 177.619 14.087 177.583 14.6259 177.904C14.838 177.571 14.8044 177.844 15.1975 177.782C15.5248 177.73 16.0944 177.325 16.4577 177.671C16.042 177.639 16.0853 177.806 15.6188 177.904C15.46 177.945 13.8597 177.909 13.9591 178.25C14.0127 178.435 14.5598 178.29 14.5788 178.323C14.6956 178.519 14.3853 178.75 14.1173 178.654C14.1863 178.618 14.2692 178.582 14.3424 178.546C13.752 178.278 14.114 179.226 13.7023 178.388C13.6529 178.285 13.6817 178.183 13.5981 178.07C13.5757 178.113 13.6804 178.229 13.5817 178.241C13.4799 178.254 13.3127 178.031 13.2677 178.201C13.1999 178.449 13.6253 178.387 13.6551 178.402C13.6556 178.401 13.656 178.399 13.6565 178.398C13.9247 178.551 13.3431 178.525 13.3118 178.543C13.1142 178.682 13.2292 178.817 12.932 178.913C12.7899 178.959 12.4781 178.892 12.2833 178.857C12.2599 178.85 12.1905 178.833 12.1683 178.823C12.1342 178.812 12.1043 178.803 12.0802 178.798C11.936 178.769 12.1046 178.961 12.0041 178.95C11.9034 178.94 11.822 178.811 11.7038 178.797C11.6532 178.791 11.6069 178.916 11.5829 178.911C11.3246 178.864 11.5836 178.669 11.3627 178.598C11.2203 178.554 10.6512 178.594 10.9452 178.801C10.7787 178.761 10.6192 178.714 10.4563 178.666C10.5378 178.745 10.6282 178.813 10.7062 178.897C10.4383 178.714 10.2154 178.864 10.0245 178.797C9.83351 178.73 9.78567 178.407 9.53023 178.433C8.98161 178.489 10.0963 178.868 10.211 178.968C10.2552 179.009 9.96837 179.117 9.93508 179.109C9.78658 179.072 9.68905 178.858 9.5821 178.816C9.19789 178.665 8.8813 178.736 8.50961 178.594C8.11909 178.445 7.70608 178.272 7.29467 178.087C7.13491 177.986 6.73984 177.676 6.63337 177.52C6.10607 176.968 5.40232 176.346 4.80322 175.785C4.47953 175.482 4.44527 175.123 4.29606 174.98C3.94445 174.64 3.75803 174.732 3.44619 174.413C2.97935 173.939 2.47098 173.059 2.15313 172.519C1.93057 172.154 1.55912 171.896 1.49587 171.791C1.06705 171.1 0.67019 170.184 0.508948 169.198C0.299595 167.984 0.56512 166.754 1.03391 165.876C1.05058 165.844 1.06756 165.813 1.08478 165.783C1.28569 165.445 1.56183 165.337 1.60008 165.251C1.77184 164.857 1.55464 164.876 1.73545 164.564C1.83391 164.393 2.0093 164.44 2.02725 164.42C2.1866 164.239 2.00416 164.089 2.08488 163.92C2.55497 162.941 3.24068 162.044 4.02442 161.094C4.08207 161.025 4.1567 161.095 4.18922 161.047C4.32943 160.839 4.12983 160.825 4.2975 160.614C4.65011 160.175 5.10089 159.767 5.62939 159.388C5.68212 159.35 5.78363 159.437 5.90191 159.352C6.02097 159.267 6.0425 159.099 6.249 158.977C6.79133 158.659 7.43015 158.524 8.07325 158.344C8.18061 158.314 8.27236 158.125 8.44079 158.088C8.77793 158.014 9.22469 158.009 9.61291 158.034C9.77632 158.05 9.92466 158.063 10.0435 158.06C11.1305 158.032 12.14 157.95 13.1811 158.016C13.4264 158.031 13.6321 158.196 13.7566 158.21C14.0439 158.244 13.8391 158.085 14.1308 158.113C15.5776 158.28 16.9463 158.473 18.6207 159.206C19.4189 159.583 20.2784 159.995 21.1308 160.464C21.9658 160.918 23.0648 161.458 23.8151 162.14C24.1257 162.424 24.0533 162.62 24.2686 162.823C24.6485 163.193 24.896 163.091 25.3045 163.524C25.6299 163.878 25.758 164.468 26.0266 164.89C26.2932 165.316 26.6199 165.419 26.8827 165.979C27.0982 166.443 27.1918 167.159 27.294 167.694C27.3469 167.959 27.3856 168.216 27.4128 168.483C27.5511 169.731 27.7232 171.036 27.6998 172.532C27.6305 173.955 27.5671 176.03 25.6345 177.771C24.7739 178.492 23.8426 179.058 22.8717 179.506C21.4929 180.146 19.902 180.718 18.3473 180.763C18.2019 180.766 18.376 180.504 17.9358 180.627C17.6996 180.691 17.3866 180.942 16.813 181.003C15.787 181.111 14.7212 181.076 13.6653 180.91C11.6094 180.45 8.807 180.476 6.55883 177.697C6.29254 177.321 6.07576 176.91 5.91357 176.495C4.21174 172.552 2.14668 167.074 5.79921 163.44C5.99088 163.273 6.47971 163.606 6.59139 163.773C6.44088 163.84 6.27616 163.888 6.11095 163.966C6.75271 164.333 6.57358 164.239 6.37345 164.744C6.25593 165.057 6.6177 164.872 6.6639 165.059C6.71103 165.304 6.91154 166.357 6.46975 166.099C6.54339 166.173 6.61473 166.242 6.68783 166.313C6.67251 167.054 6.7662 167.777 6.91864 168.487C6.94552 168.608 7.09548 168.61 7.12378 168.735C7.20177 169.069 7.12026 169.344 7.16556 169.692C7.1908 169.88 7.36556 169.893 7.38098 170.137C7.39828 170.385 7.16466 170.409 7.46228 170.713C7.72051 170.456 7.65029 171.45 7.74036 171.793C7.75162 171.844 8.09028 172.197 8.10882 172.418C8.1265 172.638 8.03925 173.007 8.21744 173.316C8.30171 173.463 8.52426 173.501 8.5809 173.664C8.62075 173.779 8.4849 173.97 8.52046 174.119C8.55586 174.27 8.79675 174.547 8.81733 174.603C8.89284 174.811 8.69735 174.617 8.73675 174.763C8.79886 174.99 8.86006 175.218 8.9313 175.459C9.02102 175.799 9.20427 176.087 9.48301 176.256C9.53211 176.285 9.57465 176.121 9.58442 176.123C9.97824 176.21 9.70842 176.238 9.71462 176.414C9.69418 176.599 10.5857 176.937 10.6916 176.673C10.6075 176.993 10.8996 176.826 10.9559 176.832C11.1806 176.86 11.0624 177.123 11.3069 177.095C11.3956 177.084 11.2859 176.858 11.3705 176.885C11.5784 176.951 11.7122 177.298 12.0188 177.387C12.0929 177.408 12.141 177.277 12.2739 177.305C12.4043 177.334 12.9571 177.585 12.7332 177.259C13.0491 177.539 13.1398 177.422 13.5559 177.481C13.6616 177.496 13.7727 177.732 14.0103 177.691C14.0212 177.689 14.031 177.683 14.0402 177.675C14.0943 177.622 14.1228 177.465 14.2139 177.473C14.4533 177.492 14.6671 177.731 14.9822 177.752C15.5718 177.791 16.1888 177.614 16.7987 177.602C16.9654 177.598 16.9491 177.817 17.1943 177.789C17.2312 177.784 17.4945 177.557 17.661 177.544C17.7618 177.54 18.304 177.561 18.4113 177.543C18.588 177.518 18.5664 177.309 18.6693 177.324C18.9665 177.366 18.8372 177.719 19.0443 177.225C19.2153 177.417 19.3976 177.336 19.5469 177.587C19.56 177.254 19.7991 177.492 19.9771 177.315C20.1572 177.137 20.0941 176.508 20.3895 177.093C20.4584 176.981 20.8084 176.68 20.8693 176.639C21.0535 176.521 21.0267 176.734 21.1654 176.639C21.1896 176.622 21.1084 176.526 21.2788 176.453C21.3961 176.413 22.1698 175.976 22.2186 175.954C22.8331 175.786 22.0084 176.239 21.953 176.415C21.9149 176.396 21.8769 176.378 21.8381 176.36C21.5737 176.442 21.8426 176.611 21.985 176.604C22.1285 176.598 22.2656 176.37 22.4025 176.392C22.4711 176.403 22.6231 176.704 22.4614 176.755C22.6653 176.751 22.5165 176.97 22.6265 177.016C22.751 177.073 23.4485 176.646 23.3385 176.49C23.2142 176.572 23.0637 176.683 22.9332 176.759C22.6061 176.589 22.4644 175.387 23.1022 175.435C23.532 175.451 23.3312 175.917 23.6468 175.465C23.6754 175.418 23.7068 175.359 23.739 175.285C23.6865 175.328 23.6329 175.359 23.5797 175.388C23.5396 175.411 23.4998 175.435 23.4603 175.461C23.3617 175.355 23.4383 175.341 23.5205 175.319C23.5661 175.312 23.6145 175.299 23.6157 175.255C23.6126 175.207 23.3451 175.224 23.436 175.062C23.7931 175.188 23.6301 174.857 23.7536 174.628C23.7694 174.726 23.7797 174.825 23.7831 174.926C24.0243 174.787 24.0097 174.965 23.9947 175.105C23.9745 175.23 24.0073 175.354 24.3625 174.877C24.3062 175.008 24.2295 175.128 24.1591 175.252C24.3038 175.267 24.5304 175.584 24.6357 175.572C24.9233 175.529 24.9763 175.193 25.0868 174.982C25.1367 174.886 25.2018 174.987 25.206 174.979C25.2739 174.845 25.1256 174.821 25.1612 174.7C25.2097 174.551 25.4667 174.146 25.4636 174.066C25.4638 173.873 25.1142 174.116 25.0967 174.09C24.9891 173.946 25.1468 173.741 24.964 173.72C25.0313 174.34 24.2337 175.639 24.4732 174.294C24.0718 174.532 23.7519 174.272 23.8355 173.854C23.8965 173.48 24.0001 173.757 24.2185 173.584C24.251 173.568 24.4133 173.002 24.2845 172.958C24.5736 173.011 24.8492 172.83 25.138 172.994C25.1814 173.017 25.1361 173.28 25.3871 173.214C25.5136 173.181 25.7909 173.067 25.9432 173.103C25.8412 173.035 25.7253 172.964 25.6173 172.898C25.614 172.484 25.7277 172.434 25.9351 172.21C25.8508 172.22 25.4941 172.418 25.6072 172.107C25.6137 172.091 25.7412 172.08 25.8047 171.919C25.9302 171.596 25.9669 171.521 26.3415 171.773C26.121 171.092 26.5264 170.934 26.3676 170.252C25.8973 170.417 26.0339 170.643 26.1462 171.273C26.0333 171.304 25.9212 171.32 25.807 171.351C26.0365 170.511 26.0239 170.918 25.7704 170.463C25.7086 170.351 25.7299 169.742 25.4216 169.965C25.3495 170.017 25.381 170.391 25.2591 170.355C25.2363 170.348 25.15 169.898 25.1777 169.856C25.5228 169.328 25.8517 170.206 25.614 168.833C25.6072 168.795 25.4674 168.792 25.4427 168.719C25.4289 168.677 25.4338 168.647 25.4461 168.622C25.4743 168.56 25.543 168.524 25.508 168.433C25.4574 168.301 25.221 168.156 25.383 167.928C25.6292 167.549 25.9577 168.129 25.9082 168.59C25.9006 168.653 25.8858 168.712 25.8627 168.764C25.9539 168.785 26.0218 168.712 26.0718 168.578C26.3738 167.889 25.6751 165.863 25.5167 165.781C24.973 165.139 25.7067 166.3 25.587 166.428C25.5462 166.48 24.8846 166.72 25.4263 166.863C25.5901 166.913 25.6136 166.455 25.7718 166.667C25.929 166.885 25.6958 166.856 25.6886 166.878C25.662 166.951 25.8134 167.184 25.7931 167.227C25.4812 167.84 24.8279 167.961 25.6104 167.05C25.3083 166.845 25.1538 167.571 24.9059 167.285C24.6102 166.963 24.7859 166.579 24.7761 166.52C24.6566 165.882 24.563 166.727 24.3408 166.001C24.1956 165.593 24.9449 166.396 24.4073 165.568C23.9178 164.902 24.0372 165.373 23.7024 165.542C23.6229 165.582 23.2949 165.318 23.6557 165.744C23.7442 165.7 23.8668 165.652 23.9617 165.631C23.988 165.793 23.6956 166.245 23.713 166.309C23.8097 166.639 24.0242 166.514 23.844 166.821C24.0762 166.553 24.0002 166.845 24.0966 166.896C24.4506 167.097 24.4044 166.673 24.3355 167.475C24.4537 167.339 24.5675 167.207 24.6764 167.061C24.7139 167.149 24.7492 167.237 24.7822 167.325C24.5078 167.565 24.655 167.99 24.2256 167.675C24.2566 168.17 24.3375 168.346 24.6139 168.427C24.666 168.442 24.6947 168.517 24.7071 168.609C24.779 168.586 25.0036 168.543 25.0327 168.556C25.0875 168.58 25.112 168.612 25.1147 168.646C25.1246 168.767 24.8449 168.908 24.7139 168.859C24.7111 168.929 24.706 168.984 24.7035 169.003C24.6872 169.127 24.5241 168.899 24.4812 169.001C24.4673 169.035 24.5237 169.374 24.4648 169.385C24.0869 169.452 24.3235 168.876 24.1797 170.012C24.5282 170.017 24.4161 169.5 24.793 169.608C25.1984 169.726 24.688 170.056 25.1767 170.089C25.0986 170.118 25.0327 170.133 24.9433 170.159C25.1825 170.603 24.7771 170.632 24.695 170.773C24.5394 171.049 24.5896 172.266 24.9136 171.158C24.9543 171.319 24.9746 171.485 25.0076 171.645C24.2797 171.689 24.5808 171.597 24.4545 172.341C24.4242 172.505 24.1035 172.535 24.4719 172.716C24.1047 172.672 24.289 173.147 24.2357 173.184C23.9203 173.402 23.6069 172.421 24.2544 172.296C24.0031 172.112 24.3414 172.121 24.2977 171.917C24.2323 171.623 24.1663 171.587 24.4054 171.225C24.0508 170.898 24.2701 172.565 23.7925 171.563C23.616 171.188 23.4129 170.134 23.1921 168.782C22.9816 167.256 21.4212 165.884 20.765 165.463C19.3131 164.48 18.186 164.058 16.7017 163.383C16.5235 163.304 16.2148 163.196 15.8601 163.099C15.7071 163.031 14.196 162.802 14.5659 162.457C14.62 162.404 15.3251 162.367 14.7923 161.954C14.8818 162.158 14.518 162.225 14.4869 162.242C13.7607 162.602 14.1436 162.747 13.0994 162.66ZM9.75734 159.013C11.3455 159.042 10.1714 158.817 10.4851 158.191C10.2757 158.195 10.067 158.201 9.85966 158.209C9.91626 158.245 9.97113 158.281 10.0277 158.317C10.0279 158.317 10.0281 158.317 10.0284 158.317C9.93601 158.549 9.84587 158.781 9.75734 159.013ZM11.05 179.267C10.9613 179.318 10.8738 179.37 10.7799 179.417C10.5921 179.312 10.4058 179.206 10.2202 179.097C10.2655 179.057 10.3106 179.016 10.3555 178.976C10.5848 179.078 10.8147 179.178 11.05 179.267ZM25.9666 168.97C25.7631 169.271 26.1612 169.217 26.0058 169.611C26.2976 169.544 26.5825 169.471 26.871 169.401C26.8067 169.113 26.6896 169.055 26.7393 168.738C26.6471 168.782 26.5544 168.826 26.4616 168.868C26.4857 168.918 26.5128 168.972 26.5345 169.021C26.275 169.121 26.1994 168.624 25.9659 168.969C25.9661 168.97 25.9664 168.97 25.9666 168.97ZM26.2287 171.957C26.1934 172.119 26.0255 172.758 26.1373 172.857C26.5458 173.192 26.3479 171.299 26.6686 172.701C26.7271 172.698 26.7838 172.707 26.8414 172.71C26.8756 172.451 26.8992 172.194 26.9164 171.939C26.6865 171.952 26.4597 171.942 26.2287 171.957ZM15.528 159.284C15.7627 159.344 17.0107 159.438 16.6809 159.09C16.5781 158.983 15.9538 159.231 15.7583 159.18C15.6291 159.146 15.8121 158.969 15.5392 158.997C15.5351 159.089 15.5248 159.189 15.5288 159.283C15.5285 159.284 15.5283 159.284 15.528 159.284ZM14.8826 160.395C15.1303 160.395 15.3819 160.391 15.6318 160.399C15.5 160.133 15.1172 160.222 15.1506 159.893C15.2221 159.879 15.2945 159.866 15.3675 159.853C15.4079 159.933 15.4451 160.013 15.4838 160.094C15.7301 159.958 15.6181 159.842 16.0076 159.976C15.8728 159.439 15.8547 159.152 15.0751 159.539C15.2519 159.293 15.2557 158.396 14.7677 158.966C14.6786 159.072 14.9748 159.192 14.9752 159.211C14.9878 159.448 14.7992 159.57 14.818 159.794C14.8269 159.896 15.0049 159.921 15.0119 160.061C15.0129 160.129 14.8168 160.293 14.8826 160.395ZM14.5476 159.16C14.6457 159.031 14.4121 158.665 14.1652 158.707C13.782 158.773 14.3351 159.148 14.5476 159.16ZM11.0514 179.267C11.0509 179.267 11.0505 179.267 11.05 179.267C11.0503 179.267 11.0507 179.267 11.051 179.267C11.0511 179.267 11.0513 179.267 11.0514 179.267ZM26.3778 171.122C26.5042 171.307 26.4917 171.592 26.6812 171.568C26.6453 171.662 26.6094 171.759 26.5722 171.852C26.6293 171.852 26.6866 171.85 26.7431 171.849C26.7782 171.562 26.8071 171.279 26.8326 170.998C26.6812 171.038 26.5291 171.076 26.3778 171.122ZM26.0306 174.253C25.9176 174.629 26.2478 174.373 26.3477 174.488C26.4495 174.607 26.2384 174.947 26.4204 174.96C26.5093 174.714 26.5826 174.458 26.6393 174.217C26.4352 174.241 26.232 174.241 26.0304 174.253C26.0305 174.253 26.0305 174.253 26.0306 174.253ZM3.78886 162.903C3.9692 162.724 4.07331 162.919 4.15468 162.383C4.15447 162.384 4.15426 162.384 4.15406 162.384C3.75527 162.679 3.31566 163.124 3.20851 163.635C3.53901 163.473 3.51016 163.186 3.78886 162.903ZM26.468 168.05C26.3169 167.97 26.2528 168.39 26.3412 168.559C26.3519 168.575 26.3652 168.589 26.3813 168.598C26.4774 168.653 26.5529 168.615 26.5945 168.541C26.6583 168.396 26.627 168.137 26.468 168.05ZM4.333 171.847C4.91914 171.804 4.93806 170.997 4.42156 170.619C4.37271 170.584 4.47043 171.007 4.32625 170.96C4.3109 170.955 4.19551 170.76 4.1097 170.747C4.02284 170.735 3.92265 170.869 3.81702 170.822C3.62723 170.736 3.63183 170.303 3.44597 170.258C3.41904 170.25 3.34185 170.559 3.34392 170.577C3.35265 170.863 3.71563 170.93 3.73582 170.958C3.84801 171.118 3.65511 171.21 3.6408 171.28C3.61494 171.413 3.79039 171.5 3.79133 171.513C3.81575 171.873 3.45445 171.266 3.34243 171.219C3.02975 171.1 2.9844 171.43 2.55973 170.894C2.52114 170.847 2.18044 170.128 2.41446 171.127C1.07678 169.517 2.61813 172.214 2.95529 172.303C3.07983 172.387 3.11839 172.095 3.2425 172.11C3.52388 172.142 3.74655 172.366 3.96057 172.16C4.41045 171.73 3.84907 171.669 3.778 171.378C3.90525 171.325 4.01951 171.26 4.15685 171.226C3.96101 171.263 4.2844 171.851 4.33204 171.847C4.33236 171.847 4.33268 171.847 4.333 171.847ZM2.13879 167.919C2.38875 167.501 2.00503 167.438 2.35289 167.093C2.1619 166.598 1.90855 167.351 1.88668 167.447C1.71755 167.843 1.33434 167.807 1.4332 168.289C1.66176 168.13 1.89891 168.023 2.13879 167.919ZM3.03794 171.534C2.71975 171.404 2.99422 171.826 2.97654 171.863C2.76003 172.288 2.00673 170.923 3.03794 171.534ZM16.8615 160.395C16.9842 160.445 16.9569 160.239 17.0889 160.22C17.2217 160.199 17.5605 160.49 17.5927 160.379C17.633 160.263 16.9698 159.71 17.7577 159.915C17.7542 159.843 17.7804 159.8 17.7882 159.739C17.5718 159.657 17.3581 159.585 17.1464 159.521C17.2086 159.738 17.2638 159.966 17.314 160.177C17.1521 160.284 17.1513 160.08 17.144 160.078C17.144 160.078 17.1439 160.078 17.1438 160.078C16.9251 160.027 16.5811 160.285 16.8615 160.395ZM6.37302 160.45C6.62921 160.852 6.57731 160.223 6.67657 160.088C6.76799 159.955 7.03758 159.997 6.86413 159.863C6.57054 159.872 6.33664 160.408 6.37339 160.451C6.37327 160.451 6.37314 160.45 6.37302 160.45ZM2.97268 165.803C3.01362 165.47 2.88014 165.459 3.18254 165.178C3.07342 165.139 2.96206 165.099 2.85448 165.061C2.71182 165.334 3.01897 165.467 2.73856 165.72C2.69256 165.761 2.51218 165.53 2.46979 165.799C2.63075 165.797 2.80586 165.802 2.97268 165.803ZM3.32586 164.2C3.16304 164.54 3.84973 165.23 3.79876 164.435C3.79169 164.317 3.44973 163.944 3.32586 164.2ZM13.4943 159.843C14.1152 159.925 13.4218 159.711 13.266 159.559C14.7435 159.571 13.1025 159.577 12.9798 159.103C12.7875 159.227 12.4392 159.52 12.8067 159.622C12.9602 159.664 12.9115 159.52 12.9208 159.521C13.205 159.574 13.1541 159.802 13.4943 159.843ZM2.15623 168.717C2.14658 168.689 1.99072 168.751 1.95062 168.659C1.9094 168.565 2.01713 168.349 1.91995 168.328C1.81627 168.302 1.75512 168.758 1.85246 168.885C1.9454 169.011 2.24618 168.959 2.15623 168.717ZM3.19374 166.29C3.23106 165.966 2.47745 166.136 2.45081 166.19C2.21116 166.704 3.03453 166.195 3.19374 166.29ZM12.0193 160.77C12.7536 160.494 12.2512 159.95 11.7771 159.63C11.714 159.693 11.6497 159.755 11.5878 159.818C11.8728 159.436 12.3865 159.057 11.2632 159.386C11.8738 159.478 11.3602 159.58 11.3584 159.602C11.2918 160.308 12.1788 159.992 12.0187 160.77C12.0189 160.77 12.0191 160.77 12.0193 160.77ZM2.24788 169.891C2.35676 170.264 2.89116 171.038 2.97453 170.515C2.72429 170.333 2.47987 170.128 2.24788 169.891ZM22.6672 164.882C22.7161 165.181 22.8665 165.338 23.0639 165.558C23.0892 165.188 23.2236 165.301 23.3331 165.335C23.4978 165.386 23.2696 165.122 23.2805 165.111C23.4671 164.956 23.654 165.102 23.2965 164.715C23.4475 164.753 23.5982 164.793 23.7494 164.841C23.4884 164.521 23.5357 164.346 23.4823 164.015C23.329 164.537 23.2995 164.077 22.9143 164.046C22.7274 164.035 22.6496 164.732 22.6679 164.882C22.6677 164.882 22.6674 164.882 22.6672 164.882ZM12.7623 160.895C12.8414 160.814 12.9156 160.702 12.9943 160.609C13.0746 160.605 13.1543 160.602 13.2333 160.599C13.2374 160.675 13.2396 160.755 13.2453 160.828C13.3475 160.858 13.3151 160.75 13.3468 160.742C13.3468 160.743 13.3468 160.743 13.3467 160.743C13.799 160.64 13.9823 160.676 14.2958 160.95C14.3245 160.72 14.3531 160.489 14.3818 160.259C14.3007 160.271 14.218 160.283 14.1356 160.295C14.0799 160.415 14.0247 160.534 13.9701 160.654C13.8874 160.576 13.8039 160.499 13.72 160.422C13.6432 160.459 13.5499 160.499 13.4846 160.537C13.1742 159.859 13.9654 160.37 14.0018 160.106C14.0245 159.931 13.1732 159.863 13.043 159.979C13.0251 159.996 13.1742 160.489 12.8845 160.219C12.8416 160.177 12.8738 159.13 12.4986 159.96C12.4468 160.079 12.5829 160.734 12.7623 160.895ZM15.6136 161.59C15.3203 160.833 16.7628 161.904 16.2058 161.2C16.4788 160.953 16.4499 160.949 16.3048 160.631C16.2921 160.603 16.4591 160.558 16.4493 160.544C16.2856 160.346 16.0251 160.371 16.0826 160.103C16.0246 160.105 15.9684 160.107 15.9106 160.109C16.086 160.41 15.6872 160.502 15.5122 160.691C15.4325 160.776 15.5673 160.833 15.4996 160.908C15.476 160.935 15.2881 160.836 15.2655 160.924C15.2127 161.122 15.2888 161.415 15.4573 161.602C15.4573 161.602 15.4573 161.602 15.4572 161.603C15.5102 161.599 15.5617 161.593 15.6136 161.59ZM6.61383 162.256C6.29842 162.054 5.98358 162.225 6.29317 161.646C6.21959 161.616 6.14526 161.588 6.07081 161.56C5.9986 161.643 5.93026 161.724 5.86009 161.81C6.45744 162.766 5.17013 162.425 5.99653 162.624C6.08672 162.646 6.16477 162.404 6.19266 162.729C6.19302 162.729 6.19338 162.729 6.19373 162.728C6.34446 162.436 6.27993 162.313 6.61383 162.256ZM8.18748 160.796C8.39086 160.293 8.10781 160.278 7.79294 160.447C7.48155 160.614 7.2261 160.956 7.41552 160.954C7.43559 160.944 8.08798 160.413 8.18748 160.796ZM4.84516 165.693C5.01685 165.393 4.65822 165.176 4.50788 165.136C4.35674 165.097 4.38015 165.382 4.34419 165.4C4.22681 165.455 4.28166 165.237 4.12407 165.306C4.07194 165.329 3.658 165.808 3.6611 165.842C3.6795 166.027 4.09179 165.981 4.10681 166.039C4.15687 166.226 3.90464 166.324 4.04952 166.445C4.35697 166.706 4.16063 166.185 4.18192 166.128C4.25102 165.952 4.44085 166.067 4.54386 165.963C4.64731 165.858 4.62143 165.743 4.69193 165.641C4.71544 165.607 4.83575 165.708 4.84516 165.693ZM4.61511 164.257C4.71121 164.729 5.44828 164.139 5.44038 164.021C5.41469 163.641 4.57046 164.021 4.61511 164.257ZM14.657 160.401C14.297 160.584 15.0359 160.874 15.2652 160.825C15.2446 160.722 14.7866 160.337 14.657 160.401ZM11.8184 160.765C12.1247 160.699 11.7309 160.17 11.4688 160.178C11.3166 160.519 11.459 160.451 11.6264 160.467C11.7927 160.483 11.5806 160.817 11.8184 160.765ZM3.382 168.745C3.38193 168.744 3.38177 168.742 3.38151 168.741C3.37212 168.703 3.27393 168.481 3.19543 168.307C3.117 168.138 3.02566 168.019 2.95653 168.308C2.95002 168.333 2.96538 168.588 3.02511 168.798C3.06685 168.954 3.1199 169.086 3.14658 169.103C3.2745 169.182 3.38847 168.895 3.382 168.745ZM10.3796 161.281C10.5264 160.981 10.688 160.981 10.5295 160.638C10.5293 160.638 10.5291 160.638 10.5288 160.638C10.9356 160.522 10.9653 161.232 11.0501 161.216C11.3521 161.16 11.0605 160.658 11.2531 160.491C10.8036 160.65 10.9273 160.309 10.5819 160.295C10.5027 160.292 10.2014 160.506 10.1615 160.635C10.1222 160.763 10.2943 161.136 10.3796 161.281ZM3.86532 170.012C3.8325 169.679 3.27412 169.552 3.38944 170.032C3.45535 170.271 3.89339 170.223 3.86532 170.012ZM24.5346 172.448C24.662 172.401 24.7887 172.35 24.9144 172.295C24.9411 172.426 24.9665 172.559 24.9895 172.692C24.9562 172.585 24.9218 172.482 24.8863 172.376C24.8333 172.621 24.599 172.712 24.5346 172.449C24.5346 172.448 24.5346 172.448 24.5346 172.448ZM19.2186 177.555C19.0841 177.47 18.9832 177.886 19.0157 177.907C19.2735 178.062 19.4101 177.672 19.2186 177.555ZM14.9626 161.596C15.3392 161.715 15.1837 161.069 14.941 160.988C15.0707 161.126 14.7485 161.531 14.9626 161.596ZM21.953 176.415C22.0098 176.442 22.0671 176.469 22.1282 176.494C21.9828 176.495 21.9398 176.463 21.953 176.415ZM3.89741 168.549C3.93337 168.5 3.97041 168.207 3.92271 168.162C3.81137 168.054 3.44739 168.297 3.56408 168.471C3.57541 168.493 3.85536 168.598 3.89735 168.548C3.89737 168.548 3.89739 168.549 3.89741 168.549ZM24.2682 172.955C24.2741 172.955 24.2796 172.956 24.2845 172.958C24.2792 172.957 24.2736 172.956 24.2682 172.955ZM10.6984 176.646C10.6971 176.655 10.6949 176.665 10.6916 176.673C10.6939 176.664 10.6956 176.655 10.6984 176.646ZM5.29894 166.282C5.88508 166.408 5.7723 165.958 5.39022 166.072C5.36969 166.079 5.3174 166.249 5.29894 166.282Z" fill="white"/>
<path d="M53.8784 159.036C52.5295 160.232 52.0516 162.223 48.4437 163.822C44.0576 164.886 41.6171 162.118 39.8303 160.692C38.7577 159.74 37.9375 158.599 37.3335 157.494C36.9707 156.819 37.1583 156.789 37.0813 156.594C36.8846 156.064 36.571 155.847 36.4245 155.479C35.7836 153.844 35.3271 152.424 34.7493 151.195C34.6676 151.026 34.5918 150.856 34.5218 150.686C33.7733 148.554 34.6839 149.406 34.5893 148.676C34.5294 147.293 34.1171 148.571 33.8539 148.067C33.5862 146.477 33.5946 144.934 33.7052 143.441C33.7593 143.807 33.8191 144.173 33.8837 144.542C33.8865 143.886 34.0164 142.971 34.1777 144.05C34.2276 143.812 34.2887 143.592 34.3436 143.351C34.0996 143.28 34.1278 142.203 34.0081 142.04C34.0048 142.034 34.0012 142.029 33.9975 142.025C33.9721 141.997 33.9503 142.004 33.9316 142.034C33.8525 142.131 33.8464 142.556 33.8368 142.553C33.7871 142.538 33.7807 142.326 33.8045 142.025C33.8012 140.914 34.8198 139.233 34.9574 139.151C35.3666 138.664 35.2927 139.286 35.5885 138.869C36.1177 138.214 35.3093 138.128 36.6988 137.984C36.8605 137.501 36.9855 137.577 37.4358 137.286C37.4958 137.248 37.3625 137.15 37.3863 137.129C38.0116 136.584 37.6374 137.172 37.6523 137.181C37.8575 137.358 38.515 136.829 38.6862 136.775C40.4819 136.152 41.8439 135.932 43.5123 135.52C43.5335 135.513 43.5976 135.502 43.6198 135.5C43.9074 135.491 44.2043 135.487 44.5125 135.486C44.9838 135.471 46.4373 135.391 46.9075 135.508C47.3649 135.61 47.0914 135.77 47.3133 135.897C47.542 135.697 47.7678 135.606 48.0483 135.655C48.3121 135.704 48.7001 135.899 48.9835 136.363C49.4915 136.401 49.3063 136.569 49.6909 137.095C50.0051 137.545 50.7107 138.18 50.6158 138.813C50.392 138.232 50.2719 138.358 49.8844 137.75C49.8201 137.663 49.6212 137.172 49.2196 136.69C48.8105 136.171 48.1113 136.007 47.9244 136.08C47.8653 136.098 47.8371 136.13 47.8477 136.178C47.8519 136.197 47.8633 136.215 47.88 136.232C48.0456 136.36 48.6644 136.565 48.6589 136.636C48.6405 136.885 48.2402 136.805 47.9637 136.631C48.0572 136.624 48.1678 136.63 48.2678 136.641C48.0015 136.382 47.8449 136.487 47.7821 136.567C47.6887 136.673 47.7198 136.762 47.454 136.243C47.3906 136.13 47.4433 136.033 47.3202 135.905C47.285 135.943 47.4355 136.079 47.2873 136.073C47.1387 136.067 46.8784 135.828 46.816 135.997C46.7289 136.238 47.3423 136.218 47.3847 136.248C47.3854 136.246 47.3862 136.245 47.3869 136.243C47.7534 136.448 46.9343 136.314 46.8903 136.344C46.6175 136.473 46.7775 136.608 46.3912 136.706C46.1729 136.761 45.6229 136.697 45.4163 136.721C45.2126 136.744 45.5277 136.866 45.391 136.891C45.2554 136.915 45.0851 136.825 44.9249 136.858C44.8565 136.872 44.8629 137.005 44.8299 137.011C44.4781 137.072 44.7014 136.787 44.3785 136.817C44.1643 136.835 43.4988 137.147 43.9764 137.188C43.9055 137.201 43.8353 137.214 43.767 137.228L44.0142 137.18C43.8653 137.242 43.7128 137.303 43.5633 137.364C43.7168 137.358 43.875 137.338 44.0274 137.34C43.5785 137.41 43.458 137.688 43.1993 137.788C42.9446 137.888 42.6214 137.707 42.3821 137.932C41.8729 138.409 43.3225 137.77 43.5371 137.765C43.6165 137.761 43.3985 138.055 43.3567 138.075C43.1731 138.161 42.899 138.091 42.7549 138.147C42.2395 138.35 41.9972 138.654 41.5454 138.879C39.985 139.613 38.4 140.845 38.1594 141.623C38.0424 141.899 37.794 142.02 37.7759 142.179C37.7713 142.23 37.7728 142.275 37.7783 142.317C37.7992 142.756 37.9381 142.891 37.9294 143.37C37.9118 144.201 37.7743 145.36 37.8113 146.029C37.8317 146.495 38.0879 146.866 38.1123 146.976C38.2764 147.735 38.5192 148.519 38.8245 149.084C39.3827 150.15 39.7677 151.136 40.0742 151.887C40.3526 152.578 40.2783 152.963 40.3411 153.097C40.6076 153.66 40.7113 153.434 40.8922 153.885C40.9907 154.125 40.8519 154.242 40.8603 154.276C40.9389 154.575 41.1728 154.524 41.2833 154.722C41.8229 155.675 42.2886 156.496 42.9557 157.147C43.1169 157.3 43.2782 157.449 43.4411 157.592C43.5166 157.658 43.444 157.73 43.4972 157.768C43.7266 157.925 43.7304 157.72 43.9573 157.888C44.4275 158.232 44.8719 158.582 45.311 158.851C45.3538 158.876 45.3117 159.004 45.4137 159.057C45.5162 159.11 45.6465 159.036 45.7904 159.105C46.1637 159.283 46.4589 159.498 46.746 159.494C46.7949 159.493 46.8329 159.331 46.8886 159.323C46.936 159.317 46.9899 159.316 47.0517 159.313C47.1155 159.347 47.3937 159.285 47.5685 159.146C48.3791 158.521 49.196 157.278 50.2357 156.141C50.4842 155.869 50.8245 155.729 50.9669 155.592C51.2931 155.281 50.9491 155.42 51.2872 155.098C52.5547 153.884 54.4713 152.686 56.6387 152.563C58.4059 152.443 60.1558 152.35 61.8695 152.188C63.1324 152.07 64.6178 151.75 65.7231 151.563C66.1832 151.485 66.3051 151.651 66.6193 151.574C67.1675 151.427 67.1973 151.162 67.6721 150.953C68.0147 150.797 68.4601 150.801 68.6871 150.638C68.714 150.618 68.7401 150.597 68.7653 150.576C69.1654 150.233 69.196 149.898 69.5915 149.494C69.9162 149.161 70.4245 148.782 70.685 148.413C71.2047 147.69 71.47 147.01 71.4971 146.428C71.6645 144.449 71.6424 142.598 71.1292 141.647C70.6839 140.742 70.4034 140.025 70.1362 139.589C70.0098 139.374 69.9026 139.258 69.8896 139.241C69.8697 139.225 69.9775 139.264 69.9783 139.246C69.7093 139.202 69.3675 139.193 68.9801 139.224C67.5162 139.326 65.5262 140.157 63.3279 140.479C63.118 140.506 63.3796 140.212 62.7331 140.409C62.4414 140.493 62.0745 140.718 61.4182 140.847C61.1277 140.866 60.7255 140.996 59.8661 140.606C59.3968 140.383 58.9539 139.887 58.7783 139.495C58.5891 139.097 58.5512 138.817 58.5229 138.606C58.4793 138.19 58.5036 137.982 58.5116 137.798C58.5358 137.447 58.5523 137.253 58.5509 137.119C58.551 133.242 59.0446 128.384 57.19 127.372C57.1173 127.331 57.0431 127.297 56.9606 127.267C56.4734 127.082 55.5126 127.249 54.8922 127.729C53.854 128.391 52.7681 129.733 52.8484 130.007C52.0859 132.973 52.2737 136.102 51.2017 139.478C51.1025 139.777 50.5165 139.654 50.3418 139.492C50.4484 139.323 50.5774 139.165 50.698 138.988C49.9639 138.826 50.1537 138.85 50.1641 138.064C50.1716 137.581 49.8898 137.986 49.7852 137.735C49.6449 137.413 49.2112 135.853 49.7048 136.137C49.6181 136.043 49.5355 135.956 49.4513 135.863C49.3411 134.723 49.2365 133.6 49.2201 132.445C49.2175 132.245 49.0696 132.219 49.0715 132.01C49.0784 131.448 49.2494 131.025 49.3557 130.461C49.4158 130.155 49.2558 130.072 49.3713 129.673C49.4692 129.347 49.6371 129.341 49.6506 129.01C49.6596 128.919 49.6657 128.81 49.6721 128.675C49.451 128.849 49.5665 128.423 49.8564 127.977C50.1418 127.526 50.5838 127.093 50.7973 126.862C50.8522 126.792 51.217 126.077 51.5526 125.856C51.8831 125.628 52.4519 125.42 52.9186 125.03C53.0476 124.922 53.12 124.787 53.2134 124.661C53.2888 124.567 53.3769 124.479 53.5054 124.412C53.7276 124.297 54.0699 124.352 54.3611 124.266C54.6474 124.17 55.2793 123.889 55.4103 123.877C55.861 123.812 55.3787 123.997 55.6851 123.97C56.4682 123.915 57.3414 124.001 58.2128 124.383C58.9307 124.698 59.5703 125.194 60.0532 125.709C60.1799 125.844 60.1311 125.55 60.1493 125.564C61.0824 126.47 60.4955 126.049 60.5733 126.395C60.7202 126.724 61.4839 128.679 61.6935 128.637C61.3925 128.78 61.7353 129.159 61.7659 129.276C61.886 129.716 61.5897 129.675 61.7401 130.085C61.794 130.237 61.9412 129.904 61.9596 130.075C62.0036 130.494 61.7373 130.899 61.747 131.432C61.7488 131.562 61.8896 131.594 61.899 131.824C61.9118 132.056 61.7774 133.013 62.0517 132.563C61.8386 133.148 61.9684 133.259 61.9703 133.92C61.97 134.087 61.75 134.304 61.82 134.655C61.8438 134.774 62.0577 134.77 62.0599 134.948C62.0656 135.357 61.844 135.738 61.8399 136.246C61.8379 136.507 61.8502 136.77 61.8705 137.029C61.9001 137.474 61.8725 137.903 61.8837 138.138C61.8652 138.238 61.9919 138.319 61.7725 137.899C61.6466 137.687 61.3379 137.521 61.2094 137.506C61.0723 137.479 61.0453 137.495 61.0487 137.496C61.0774 137.494 61.1063 137.493 61.1354 137.491C61.372 137.475 61.3422 137.699 61.6996 137.641C61.7539 137.633 62.1442 137.365 62.3965 137.32C62.5458 137.299 63.3693 137.208 63.5365 137.167C63.8088 137.104 63.7962 136.89 63.9551 136.884C64.416 136.864 64.1635 137.263 64.5565 136.702C64.7959 136.871 65.0955 136.753 65.2782 136.996C65.365 136.641 65.6849 136.857 66.0074 136.653C66.3276 136.45 66.4735 135.783 66.7281 136.391C66.873 136.266 67.5836 135.962 67.7156 135.93C68.0905 135.831 67.9203 136.046 68.2032 135.973C68.2537 135.962 68.1799 135.845 68.5159 135.812C68.6914 135.779 69.8927 135.709 70.3718 135.804C70.4849 135.82 70.5585 135.836 70.5786 135.842C71.4218 136.185 70.9096 136.025 70.352 135.977C70.054 135.959 69.7352 135.975 69.6437 136.026C69.6011 135.991 69.5584 135.956 69.5116 135.922C69.0108 135.879 69.311 136.146 69.5265 136.207C69.7339 136.264 70.1323 136.17 70.3187 136.268C70.3265 136.272 70.3339 136.276 70.3409 136.28C70.4028 136.317 70.3776 136.457 70.2878 136.539C70.238 136.588 70.1671 136.618 70.0712 136.595C70.338 136.722 69.9552 136.798 70.0558 136.904C70.0779 136.928 70.1458 136.952 70.2378 136.977C70.5958 137.037 71.1993 137.369 71.2858 137.275C71.1091 137.138 70.8559 137.018 70.6415 136.949C70.543 136.761 70.7599 136.425 71.2351 136.348C71.699 136.259 72.3735 136.555 72.5416 137.105C72.7276 137.879 71.905 137.078 72.9645 138.262C72.8607 138.05 72.7794 137.859 72.6612 137.664C72.8475 137.508 72.8342 137.963 72.9862 138.08C73.0667 138.141 72.9241 137.571 73.2231 137.962C73.1272 138.487 73.5691 138.599 73.8375 139.174C73.7096 139.042 73.5798 138.906 73.4465 138.771C73.6802 139.845 72.5468 137.648 73.2984 139.568C73.1874 139.351 73.0881 139.127 72.963 138.91C72.9023 139.073 72.4865 139.064 72.4624 139.193C72.3975 139.527 72.6755 139.843 72.8021 140.162C72.8578 140.301 72.7284 140.259 72.7331 140.27C72.8102 140.462 72.9233 140.359 73.0099 140.517C73.0305 140.555 73.0531 140.609 73.0769 140.671C73.1766 140.923 73.233 141.345 73.2675 141.417C73.3861 141.65 73.5275 141.149 73.5519 141.162C73.7453 141.278 73.7316 141.657 73.9019 141.59C73.7868 141.317 73.6258 140.867 73.4497 140.484C73.1383 139.76 73.0294 139.202 73.7734 140.322C73.7898 140.346 73.8064 140.371 73.8232 140.397C73.822 140.363 73.8215 140.329 73.8218 140.298C73.8553 139.878 74.0985 139.788 74.3635 140.026C74.4774 140.148 74.5986 140.333 74.7022 140.58C75.0173 141.402 74.6801 140.921 74.6328 141.391C74.645 141.454 74.7607 142.53 74.8776 142.567C74.5835 142.566 74.3633 142.921 74.0388 142.738C73.9933 142.711 73.9531 142.312 73.7333 142.486C73.6239 142.574 73.3847 142.795 73.2266 142.783C73.3429 142.845 73.4725 142.912 73.5922 142.981C73.6731 143.554 73.5503 143.648 73.356 143.962C73.4396 143.948 73.7899 143.646 73.6864 144.097C73.6797 144.12 73.5543 144.14 73.4883 144.365C73.3521 144.821 73.306 144.906 72.9468 144.551C73.1174 145.455 72.7142 145.651 72.7119 146.548C72.7123 146.574 72.7131 146.6 72.7141 146.627C72.7885 146.613 72.8497 146.593 72.8997 146.567C73.183 146.382 73.1291 146.002 73.1009 145.246C73.2168 145.215 73.3303 145.204 73.4473 145.17C73.1065 146.345 73.1739 145.752 73.343 146.455C73.3504 146.487 73.3514 146.543 73.3503 146.612C73.3562 146.885 73.2423 147.382 73.5501 147.22C73.647 147.172 73.7187 146.632 73.8251 146.705C73.8577 146.719 73.793 147.405 73.7357 147.454C73.45 147.765 73.3355 147.566 73.2391 147.556C73.1278 147.54 73.1171 147.698 72.7273 148.578C72.7049 148.626 72.817 148.712 72.7789 148.814C72.7055 149.005 72.5675 148.921 72.5009 149.089C72.435 149.255 72.4599 149.594 72.1312 149.684C71.5461 149.827 72.0913 148.836 72.4731 148.514C72.3111 148.316 71.831 148.938 71.2026 149.547C70.5873 150.164 69.8523 150.792 69.7791 150.881C69.1324 151.653 70.3323 150.517 70.4699 150.547C70.5314 150.565 71.0107 151.095 70.9954 150.467C70.9871 150.285 70.4952 150.511 70.6613 150.246C70.8233 149.981 70.8852 150.212 70.9114 150.208C71.0018 150.189 71.1686 149.903 71.2172 149.893C71.9812 149.708 72.4598 150.216 71.1232 150.174C71.0179 150.609 71.8966 150.218 71.6707 150.676C71.3822 151.243 70.8264 151.297 70.7639 151.335C69.9711 151.792 71.073 151.48 70.1233 152.072C69.6287 152.369 70.503 151.402 69.7606 151.995C69.7104 152.035 69.6508 152.081 69.578 152.135C68.6534 152.74 69.2261 152.565 69.342 152.94C69.3695 153.024 68.8067 153.445 69.6159 152.965C69.59 152.868 69.565 152.734 69.5671 152.627C69.7244 152.59 70.0633 152.67 70.2998 152.677C70.3925 152.685 70.4651 152.685 70.4952 152.668C70.9961 152.366 70.808 152.189 71.2628 152.191C70.864 152.105 71.2937 151.994 71.3585 151.841C71.593 151.274 71.0043 151.725 72.1172 151.079C71.8939 151.09 71.6852 151.087 71.4694 151.084C71.5701 150.979 71.669 150.872 71.7659 150.764C72.1593 150.849 72.6668 150.211 72.4296 150.983C73.0991 150.392 73.2499 150.021 73.1471 149.718C73.1271 149.659 73.1858 149.54 73.2653 149.407C73.1874 149.392 72.977 149.298 72.9664 149.263C72.8726 148.961 73.3963 148.895 73.4827 149.07C73.5434 148.98 73.5924 148.907 73.6102 148.882C73.724 148.72 73.6722 149.129 73.7918 149.012C73.8365 148.976 74.0515 148.449 74.1058 148.459C74.296 148.5 74.2299 148.718 74.2392 148.711C74.2378 148.696 74.3828 148.509 74.7478 147.555C74.4334 147.439 74.2416 148.308 73.961 147.969C73.6648 147.636 74.2899 147.317 73.8296 147.116C73.915 147.096 73.9834 147.091 74.0787 147.075C74.0601 146.908 74.0582 146.783 74.072 146.683C74.1178 146.352 74.3798 146.334 74.4639 146.176C74.6869 145.782 74.7576 143.856 74.3113 145.554C74.2942 145.303 74.2929 145.047 74.2718 144.797C74.9913 144.766 74.7312 144.922 74.8273 143.675C74.8426 143.401 75.156 143.284 74.7571 143.037C75.1378 143.047 74.8177 142.221 74.8391 142.137C75.0601 141.549 75.7252 143.492 75.0304 143.737C75.2922 144.043 74.9542 144.047 74.9951 144.388C75.0485 144.88 75.1113 144.957 74.8257 145.512C75.1569 146.115 75.0742 143.271 75.4771 145.015C75.5529 145.356 75.5922 146.015 75.5852 146.834C75.6089 149.48 73.2725 152.325 71.2903 153.929C68.9173 155.707 67.0207 155.808 66.1682 156.062C62.2052 156.829 60.1509 156.904 56.9888 157.159C56.8665 157.168 56.7484 157.183 56.6255 157.206C56.5285 157.221 56.1388 157.324 55.7676 157.472C55.398 157.611 55.0277 157.776 55.0774 157.49C55.0808 157.404 55.7418 156.838 54.9383 156.945C55.1672 157.021 54.8648 157.363 54.8488 157.404C54.4333 158.308 54.9217 157.986 53.8784 159.036ZM47.8598 160.092C49.3506 159.013 48.1195 159.663 47.993 158.971C47.8267 159.125 47.6637 159.259 47.5225 159.357C47.5829 159.361 47.6428 159.365 47.7075 159.363C47.7077 159.363 47.7079 159.363 47.708 159.363C47.772 159.601 47.8233 159.845 47.8598 160.092ZM44.363 137.556C44.2848 137.641 44.2093 137.726 44.1278 137.811C44.0232 137.808 43.9183 137.806 43.8162 137.805L44.1818 137.735C44.0055 137.772 43.8269 137.811 43.6508 137.85C43.668 137.787 43.6839 137.724 43.7011 137.661C43.8388 137.619 43.9829 137.577 44.1214 137.535L43.7985 137.597C43.9829 137.582 44.1722 137.569 44.363 137.556ZM72.5303 148.223C72.8971 147.98 72.5257 147.853 72.854 147.466C72.5544 147.431 72.2614 147.393 71.969 147.34C71.9008 147.638 71.9704 147.758 71.7348 148.04C71.8381 148.05 71.9432 148.057 72.0477 148.064C72.0592 147.999 72.0685 147.93 72.0781 147.869C72.3679 147.892 72.1058 148.476 72.5302 148.224C72.5302 148.224 72.5303 148.223 72.5303 148.223ZM73.0649 144.309C73.1143 144.093 73.2282 143.233 73.088 143.132C72.6707 142.785 73.0104 145.085 72.5852 143.397C72.5275 143.408 72.4701 143.404 72.4125 143.408C72.4105 143.706 72.3981 144.011 72.377 144.324C72.607 144.311 72.8337 144.325 73.0649 144.309ZM53.8915 154.364C54.0789 154.274 54.6017 153.966 55.0429 153.741C55.4786 153.513 55.821 153.331 55.4421 153.285C55.2034 153.251 54.4266 153.927 54.1315 154.076C53.9273 154.169 54.0541 153.866 53.6965 154.147C53.7583 154.217 53.8181 154.299 53.8922 154.363C53.8919 154.363 53.8917 154.364 53.8915 154.364ZM53.9085 155.762C54.1897 155.526 54.4893 155.297 54.8134 155.103C54.4576 155.003 54.0545 155.416 53.8536 155.156C53.9318 155.077 54.0113 155.001 54.0942 154.925C54.2029 154.946 54.3095 154.97 54.4141 154.997C54.6344 154.688 54.4064 154.68 55.0271 154.481C54.4968 154.166 54.1953 153.945 53.499 154.983C53.5404 154.637 52.8463 154.011 52.6885 154.92C52.6639 155.084 53.1112 154.848 53.1281 154.863C53.3218 155.009 53.1899 155.285 53.3832 155.417C53.4686 155.476 53.7003 155.314 53.8114 155.407C53.8622 155.453 53.7566 155.756 53.9085 155.762ZM52.583 155.285C52.5967 155.093 52.0343 155.115 51.7969 155.426C51.4391 155.903 52.3232 155.505 52.583 155.285ZM44.3648 137.556C44.3642 137.556 44.3636 137.556 44.363 137.556C44.3632 137.556 44.3635 137.556 44.3638 137.555C44.3641 137.555 44.3645 137.556 44.3648 137.556ZM72.8519 145.429C72.7521 145.16 72.787 144.784 72.5956 144.804C72.6382 144.683 72.6791 144.561 72.7191 144.44C72.662 144.439 72.6047 144.44 72.5482 144.44C72.5044 144.803 72.448 145.169 72.3834 145.542C72.5393 145.507 72.6955 145.474 72.8519 145.429ZM72.6831 141.543C72.5592 141.148 72.437 141.564 72.2891 141.524C72.1463 141.488 72.1039 141.153 71.9579 141.267C72.0421 141.454 72.1161 141.663 72.175 141.879C72.344 141.766 72.5194 141.663 72.6829 141.543C72.6829 141.543 72.683 141.543 72.6831 141.543ZM41.5617 156.944C41.704 157.197 41.4779 157.256 42.0389 157.505C42.0386 157.505 42.0383 157.504 42.038 157.504C41.7688 157.01 41.4729 156.403 41.017 155.968C41.0449 156.398 41.3456 156.54 41.5617 156.944ZM71.5042 148.772C71.559 148.966 71.9989 148.571 71.9327 148.388C71.8305 148.106 71.4264 148.488 71.5042 148.772ZM35.5934 145.22C35.0958 144.715 34.5682 145.747 34.9387 146.798C34.968 146.886 35.0428 146.186 35.1589 146.379C35.1694 146.398 35.201 146.77 35.2808 146.853C35.3597 146.935 35.5007 146.82 35.5861 146.957C35.7324 147.197 35.6308 147.815 35.8229 147.976C35.8468 147.995 35.9769 147.599 35.982 147.577C36.0366 147.195 35.7197 146.886 35.71 146.827C35.6619 146.535 35.881 146.554 35.9218 146.475C35.9991 146.327 35.8817 146.094 35.8873 146.076C36.0329 145.621 36.0734 146.626 36.1752 146.747C36.4344 147.071 36.5634 146.729 36.8295 147.525C36.8553 147.604 37.0383 148.507 37.0313 147.318C37.9994 149.389 37.0576 146.192 37.0047 145.771C36.9401 145.599 36.7585 145.882 36.6587 145.782C36.4289 145.552 36.3708 145.124 36.0783 145.175C35.4612 145.289 35.8995 145.85 35.8383 146.253C35.7 146.224 35.5676 146.221 35.4288 146.155C35.6116 146.258 35.6251 145.255 35.5946 145.22C35.5942 145.22 35.5938 145.22 35.5934 145.22ZM37.8879 151.011C37.9453 151.613 38.2889 151.425 38.2812 151.994C38.781 152.288 38.4155 151.454 38.3894 151.346C38.2785 150.86 38.6337 150.714 38.3106 150.29C38.1805 150.548 38.0301 150.771 37.8879 151.011ZM36.5797 146.557C36.8216 146.883 36.7378 146.255 36.7757 146.226C37.1319 145.912 37.3125 147.764 36.5797 146.557ZM56.4884 154.319C56.6943 154.309 56.5421 154.134 56.7258 154.061C56.7337 154.058 56.7426 154.056 56.7522 154.053C56.9436 154.001 57.483 154.106 57.461 153.994C57.4376 153.877 56.3537 153.65 57.414 153.504C57.3731 153.441 57.3816 153.39 57.3598 153.332C57.1408 153.347 56.9209 153.361 56.7006 153.376C56.6075 153.383 56.5152 153.391 56.4239 153.401C56.5251 153.478 56.6248 153.559 56.7209 153.642C56.8161 153.74 56.9103 153.838 57.0009 153.931C56.8702 154.071 56.7728 153.954 56.7419 153.918C56.736 153.912 56.7322 153.908 56.7307 153.908C56.7308 153.909 56.7308 153.909 56.7308 153.909C56.3702 153.952 56.0294 154.358 56.4884 154.319ZM44.6248 159.951C44.3453 160.341 44.9636 160.076 45.1219 160.082C45.2862 160.096 45.4112 160.335 45.4168 160.117C45.2551 159.905 44.6611 159.914 44.6245 159.951C44.6246 159.951 44.6247 159.951 44.6248 159.951ZM39.0599 153.852C39.3483 154.233 39.4291 154.115 39.5323 154.681C39.6275 154.613 39.7251 154.545 39.8191 154.478C39.641 154.08 39.3472 154.241 39.2679 153.711C39.2556 153.624 39.571 153.689 39.3449 153.368C39.2562 153.526 39.1541 153.691 39.0599 153.852ZM40.4084 155.68C40.1556 155.258 39.1304 155.311 39.9611 155.962C40.0873 156.057 40.606 155.997 40.4084 155.68ZM52.0077 156.885C52.6964 156.236 51.826 156.884 51.5555 156.973C53.049 155.303 51.3938 157.166 50.9139 157.027C50.8304 157.322 50.7361 157.9 51.1647 157.538C51.3444 157.389 51.1831 157.357 51.1927 157.347C51.5081 157.052 51.6407 157.246 52.0077 156.885ZM37.4398 150.104C37.4622 150.134 37.5808 150.011 37.6609 150.101C37.7415 150.192 37.7518 150.477 37.8516 150.459C37.9541 150.441 37.7951 149.928 37.6534 149.814C37.5957 149.767 37.5141 149.764 37.4531 149.795C37.4521 149.795 37.451 149.796 37.45 149.796C37.3657 149.841 37.3233 149.951 37.4398 150.104ZM38.4828 153.555C38.7635 153.934 39.0266 153.019 38.9878 152.928C38.6313 152.127 38.6644 153.509 38.4828 153.555ZM51.3241 159.153C51.8194 158.117 50.8938 158.392 50.2041 158.715C50.1921 158.826 50.1787 158.939 50.1673 159.047C50.149 158.477 50.3308 157.696 49.5328 159.113C50.1786 158.523 49.772 159.139 49.7843 159.157C50.25 159.707 50.8693 158.488 51.3234 159.154C51.3237 159.154 51.3239 159.154 51.3241 159.153ZM37.0425 148.764C36.8859 148.36 36.5266 147.217 36.3396 147.827C36.5601 148.161 36.7945 148.476 37.0425 148.764ZM67.6727 153.973C68.1194 154.026 68.4933 153.903 68.9794 153.684C68.4434 153.627 68.7248 153.481 68.839 153.363C69.0175 153.184 68.5006 153.411 68.4905 153.392C68.4143 153.156 68.7241 153.011 67.9835 153.281C68.1427 153.137 68.29 152.992 68.4363 152.842C67.8868 153.045 67.6942 152.928 67.2943 152.845C67.7693 153.2 67.2405 153.053 66.8735 153.385C66.686 153.554 67.4371 153.951 67.6742 153.973C67.6737 153.973 67.6732 153.973 67.6727 153.973ZM52.1418 158.357C52.1519 158.217 52.1343 158.063 52.1353 157.917C52.2085 157.823 52.2829 157.73 52.3574 157.638C52.4225 157.679 52.4885 157.725 52.553 157.763C52.6749 157.667 52.5574 157.637 52.582 157.597C52.5823 157.598 52.5826 157.598 52.5829 157.598C52.9398 157.031 53.161 156.85 53.693 156.711C53.5458 156.532 53.3985 156.352 53.2513 156.173C53.1725 156.266 53.0945 156.361 53.0191 156.456C53.0539 156.591 53.0906 156.726 53.1292 156.86C52.9841 156.899 52.8396 156.941 52.6938 156.986C52.6466 157.095 52.5874 157.22 52.5527 157.318C51.7032 157.254 52.8973 156.677 52.7307 156.482C52.6108 156.338 51.701 157.26 51.6771 157.482C51.673 157.513 52.2122 157.637 51.7168 157.809C51.6415 157.834 50.8361 157.162 51.1434 158.098C51.1877 158.231 51.8402 158.469 52.1418 158.357ZM55.5621 156.055C55.1587 155.863 55.5359 155.699 55.8986 155.622C56.2554 155.546 56.5889 155.53 56.0414 155.364C56.2548 155.001 56.2273 155.008 55.8434 154.82C55.808 154.803 56.0118 154.667 55.9906 154.662C55.6475 154.581 55.3064 154.784 55.2125 154.528C55.1334 154.572 55.0604 154.613 54.9833 154.66C55.4146 154.769 54.9396 155.135 54.8611 155.423C54.8217 155.551 55.0237 155.488 54.9917 155.599C54.9799 155.637 54.6951 155.713 54.7285 155.799C54.8062 155.991 55.0915 156.143 55.3952 156.172C55.3953 156.172 55.3953 156.172 55.3954 156.173C55.451 156.133 55.5048 156.093 55.5621 156.055ZM42.5847 160.391C42.7068 160.017 42.3921 159.653 43.239 160.058C43.2447 159.972 43.2496 159.886 43.2567 159.801C43.1299 159.716 43.0078 159.631 42.8812 159.539C41.8251 160.101 41.9383 158.574 41.8699 159.532C41.8623 159.636 42.2136 159.806 41.7804 159.742C41.7807 159.742 41.781 159.743 41.7812 159.743C42.2296 160.024 42.3588 159.959 42.5847 160.391ZM45.8772 161.762C46.5436 161.47 46.1268 161.324 45.6797 161.221C45.222 161.119 44.6434 160.99 44.8126 161.182C44.8421 161.249 46.0278 161.441 45.8772 161.762ZM38.1839 155.834C38.4213 156.342 38.8154 156.173 38.9217 156.054C39.0292 155.936 38.7235 155.674 38.7241 155.619C38.7255 155.444 38.9187 155.718 38.9258 155.489C38.9222 155.414 38.6732 154.513 38.6439 154.481C38.458 154.306 38.2779 154.76 38.2149 154.714C38.006 154.562 38.0549 154.214 37.8605 154.226C37.4438 154.25 38.0433 154.61 38.0882 154.693C38.2207 154.949 38.0087 155.016 38.0587 155.233C38.1096 155.451 38.2396 155.548 38.3103 155.729C38.334 155.789 38.1728 155.809 38.1839 155.834ZM39.8434 156.972C39.2598 156.668 39.7529 158.03 39.9456 158.115C40.4178 158.353 40.0913 157.108 39.8434 156.972ZM53.6603 155.986C53.4062 156.463 54.4215 155.933 54.6589 155.726C54.5651 155.656 53.752 155.806 53.6603 155.986ZM51.121 159.388C51.3708 158.987 50.5749 159.12 50.3247 159.415C50.4279 159.813 50.5222 159.606 50.7001 159.423C50.878 159.24 50.9235 159.702 51.121 159.388ZM36.2345 150.408C36.2359 150.412 36.2384 150.416 36.2418 150.422C36.3434 150.562 37.1941 151.788 36.9283 150.931C36.9161 150.892 36.7389 150.545 36.5624 150.256C36.4278 150.034 36.3162 149.828 36.2811 149.803C36.113 149.678 36.115 150.15 36.2345 150.408ZM49.853 161.449C49.8732 161.039 50.0526 160.868 49.641 160.781C49.6408 160.782 49.6405 160.782 49.6402 160.782C50.0363 160.257 50.5552 160.718 50.6473 160.603C50.9447 160.203 50.2573 160.205 50.3395 159.869C49.979 160.489 49.8677 160.113 49.4776 160.466C49.3923 160.546 49.1655 161.013 49.1777 161.16C49.196 161.307 49.6425 161.437 49.853 161.449ZM35.3639 148.144C35.3849 148.74 35.9926 149.096 35.862 148.332C35.8088 147.963 35.3577 147.788 35.3639 148.144ZM74.7371 143.503C74.6156 143.596 74.4937 143.69 74.3716 143.784C74.3366 143.578 74.2964 143.373 74.2506 143.169C74.302 143.329 74.3493 143.491 74.3937 143.655C74.4229 143.266 74.6362 143.063 74.737 143.502C74.737 143.502 74.7371 143.502 74.7371 143.503ZM64.7785 137.016C64.5807 136.952 64.3754 137.407 64.424 137.422C64.7911 137.536 65.0529 137.106 64.7785 137.016ZM54.8624 156.545C55.3379 156.336 54.7418 155.962 54.4069 156.125C54.6475 156.111 54.5904 156.678 54.8624 156.545ZM69.6437 136.026C69.707 136.079 69.7698 136.132 69.8386 136.187C69.6194 136.108 69.5796 136.062 69.6437 136.026ZM35.8674 150.871C35.8682 150.969 36.1167 151.592 36.2049 151.655C36.3938 151.782 36.4841 151.153 36.2526 150.915C36.2275 150.888 35.8689 150.769 35.868 150.872C35.8678 150.872 35.8676 150.871 35.8674 150.871ZM74.8942 142.567C74.8886 142.569 74.883 142.569 74.8776 142.567C74.8831 142.567 74.8887 142.566 74.8942 142.567ZM61.7189 128.624C61.7109 128.631 61.7024 128.635 61.6935 128.637C61.7017 128.633 61.7098 128.627 61.7189 128.624ZM37.3562 155.663C36.9357 156.138 37.4814 156.547 37.5312 155.998C37.5329 155.968 37.3804 155.719 37.3562 155.663Z" fill="white"/>
<path d="M258.42 106.668C255.175 111.579 251.268 117.144 245.462 120.704C238.742 124.945 231.804 129.693 224.253 133.339C212.884 138.924 199.967 142.486 187.43 140.845C184.121 140.361 184.406 140.154 183.482 139.951C181.018 139.326 179.469 139.02 177.715 138.331C177.178 138.115 176.647 137.888 176.135 137.653C173.513 136.453 171.114 134.995 168.871 133.492C167.754 132.747 166.665 131.982 165.628 131.311C165.111 130.978 164.599 130.666 164.153 130.445C163.719 130.211 163.281 130.139 163.424 130.154C161.365 130.277 159.493 131.039 157.671 132.375C151.503 137.608 154.043 134.873 151.761 136.771C147.028 140.611 151.399 137.718 149.63 139.404C147.183 141.354 144.211 142.943 141.041 143.675C136.635 144.723 132.41 143.608 128.721 142.59C130.352 142.96 132.027 143.322 133.791 143.541C130.688 143.019 126.639 141.732 131.557 142.805C130.471 142.508 129.486 142.188 128.411 141.847C128.386 141.858 128.341 141.862 128.277 141.86C127.791 141.841 126.326 141.446 125.03 140.775C123.722 140.125 122.624 139.257 122.392 139.149C121.849 138.958 124.53 140.9 124.553 140.833C124.416 140.9 121.347 139 119.385 136.164C117.346 133.391 116.124 130.259 115.938 129.886C115.028 127.787 116.145 129.431 115.323 127.771C115.182 127.503 115.052 127.303 114.976 127.223C114.432 126.613 114.217 126.676 113.97 126.505C113.676 126.376 113.524 125.921 111.884 125.232C110.3 125.334 110.171 125.192 108.043 125.459C107.761 125.503 108.006 125.621 107.882 125.646C104.686 126.41 107.102 125.615 107.084 125.602C106.737 125.353 103.25 126.403 102.504 126.639C99.2962 127.514 96.3742 128.483 93.3739 129.07C90.0426 129.779 86.8167 128.214 84.476 126.107C82.2894 124.17 80.6557 121.64 79.1177 118.779C78.5 117.647 77.2441 115.161 76.2273 112.817C75.3891 110.952 75.3156 109.001 75.3898 108.039C75.6316 105.825 75.7152 107.039 75.9937 105.932C75.9416 104.071 76.412 102.211 78.7038 98.8334C78.7677 98.6313 78.8292 98.4593 78.8862 98.3137C78.8993 98.2915 78.9451 98.2332 78.9632 98.2147C79.5616 97.4151 79.7946 97.3568 81.7261 95.737C82.7422 94.9011 84.2069 93.7561 85.7619 92.7865C85.7702 92.7816 85.7958 92.7679 85.8044 92.7635C87.2754 92.0482 88.2518 91.4182 89.0492 90.5786C87.6655 92.1942 87.3309 92.1654 85.9243 93.002C85.9187 93.0049 85.902 93.0138 85.8966 93.0171C85.4998 93.28 85.0084 93.6007 84.3614 94.0382C83.8924 94.3465 81.1468 96.1302 79.0827 98.3334C79.0705 98.3459 79.0396 98.3853 79.0307 98.4003C77.4783 101.002 76.6094 103.679 76.9336 103.318C77.1884 102.924 78.7827 99.3632 78.9362 99.2703C79.5517 98.6134 78.6172 100.583 77.7826 102.29C77.9384 101.839 78.1504 101.304 78.3505 100.829C76.3306 104.658 78.3292 102.237 76.5258 105.068C76.3274 105.436 76.2585 105.253 76.0083 105.895C76.021 106.039 76.3044 105.255 76.1715 105.954C76.0227 106.657 75.6947 108.023 75.8783 108.239C76.0527 108.542 76.3109 105.598 76.4594 105.392C76.4585 105.389 76.4576 105.387 76.4567 105.384C77.0693 103.51 76.0985 107.5 76.2442 107.71C76.3584 108.962 76.4207 108.141 76.7042 109.93C76.8098 110.467 77.021 111.437 77.4058 112.311C77.7599 113.135 78.1099 113.924 78.3198 114.356C78.7676 115.272 78.2146 113.781 78.5237 114.394C78.8322 115.005 79.1147 115.814 79.4999 116.518C79.6654 116.819 79.7769 116.743 79.8558 116.888C80.7215 118.435 79.9271 117.541 80.7217 118.94C81.2163 119.876 83.3655 122.57 82.1107 120.563C82.7522 121.502 83.4158 122.379 84.1533 123.191C83.7271 122.644 83.3062 122.058 82.9462 121.472C84.1169 123.19 84.9452 123.7 85.8584 124.471C85.8677 124.479 85.8771 124.486 85.8864 124.494C86.8621 125.285 87.6555 126.168 88.9251 126.543C90.9735 126.991 87.6311 126.111 85.9019 124.419C85.3916 123.989 85.0092 123.584 84.8728 123.424C84.6443 123.164 85.7318 123.968 85.8883 124.072C85.9481 124.122 86.008 124.172 86.0678 124.223C86.7237 124.786 87.4229 125.425 87.9637 125.718C89.8454 126.715 91.1489 126.719 92.7704 126.333C93.0282 126.267 93.3081 126.194 93.5933 126.117C96.8993 125.233 100.57 123.737 104.605 122.647C106.635 122.118 108.773 121.647 111.16 121.728C113.482 121.746 116.44 122.864 117.945 125.073C119.455 127.568 119.843 128.984 120.751 130.578C122.178 133.218 123.141 134.642 124.04 135.541C126.228 137.495 126.681 137.463 128.958 138.278C129.047 138.304 129.137 138.329 129.23 138.354C132.778 139.361 137.152 140.407 140.042 139.625C140.619 139.493 141.137 139.343 141.602 139.185C143.753 138.469 145.365 137.111 145.846 136.763C150.366 133.846 154.762 126.041 163.093 125.535C164.815 125.485 165.665 126.041 166.463 126.41C167.245 126.817 167.886 127.227 168.502 127.625C169.72 128.42 170.787 129.158 171.792 129.813C174.706 131.713 176.041 132.58 176.673 132.901C177.244 133.179 177.669 133.361 178.006 133.496C179.256 133.968 179.189 133.845 180.983 134.486C182.216 134.9 182.413 135.119 182.579 135.177C184.061 135.637 184.428 135.472 185.606 135.7C192.461 136.952 199.387 136.595 206.254 134.974C206.753 134.855 206.734 134.964 207.06 134.877C208.421 134.495 207.753 134.511 209.179 134.094C212.142 133.208 215.166 132.139 218.214 130.846C218.512 130.719 218.697 130.784 219.385 130.477C220.081 130.163 220.534 129.821 221.608 129.314C221.79 129.227 221.973 129.14 222.156 129.053C224.768 127.81 227.357 126.558 230.022 125C230.494 124.723 230.993 124.242 231.695 123.818C233.897 122.496 237.199 120.539 239.086 119.33C240.414 118.479 241.728 117.635 243.041 116.813C247.474 114.054 250.6 110.002 253.591 105.532C254.496 104.192 255.437 103.053 255.947 102.339C257.119 100.727 256.091 101.866 257.357 100.224C258.862 98.3694 260.849 96.2233 263.899 95.4961C272.775 93.2949 283.068 91.8145 288.705 86.1997C290.445 84.1282 291.678 81.8321 291.81 79.4632C291.878 78.3359 291.821 77.1628 291.649 76.0235C291.262 73.3771 290.097 70.6138 288.135 68.5794C288.459 68.8758 288.358 68.7178 288.11 68.6969C287.857 68.6522 287.504 68.6291 287.135 68.6258C286.38 68.6191 285.541 68.6786 284.702 68.7515C283.016 68.9016 281.319 69.1024 279.691 69.2254C277.077 69.4032 276.58 69.2296 274.628 69.1617C272.872 69.0589 271.756 68.9038 270.546 68.5297C269.436 68.1273 267.634 67.5088 266.593 64.903C266.438 64.4752 266.344 64.0802 266.281 63.6396C265.952 61.1694 265.747 58.5355 265.184 56.177C264.54 53.56 263.984 52.4305 262.895 49.5779C262.736 49.1746 262.565 48.7465 262.381 48.298C261.465 46.0558 260.373 43.43 259.293 41.3699C252.683 28.2692 241.254 18.2883 227.725 12.9055C217.544 8.77268 206.836 5.67992 195.87 4.62215C191.415 4.20679 186.684 4.17639 182.051 4.81142C177.128 5.48105 172.285 6.41979 167.915 8.05652C167.113 8.37411 168.222 7.60515 165.718 8.79594C164.394 9.47427 162.612 10.5504 159.925 12.6105C158.744 13.5279 157.622 14.5342 156.567 15.6223C149.392 22.2034 146.197 30.5577 137.019 38.0112C136.356 38.3364 135.354 38.8322 134.191 38.9328C133.029 39.0455 131.925 38.7679 131.039 38.3942C122.675 35.0033 113.482 31.9784 105.092 32.907C102.505 33.2649 100.135 34.2691 98.8405 36.0897C96.7814 40.2737 99.109 53.007 88.9262 56.183C87.6697 56.5396 87.0934 56.3947 86.4511 56.3773C85.8298 56.3306 85.3027 56.2667 84.7671 56.2066C83.7184 56.0864 82.7291 55.985 81.7741 55.9549C79.8683 55.8887 78.0929 56.1149 76.5761 56.7684C73.5232 58.0309 71.5321 61.163 70.3301 64.7525C68.5831 69.895 67.5678 75.5081 69.9252 79.1029C72.7405 83.3224 76.1873 88.2795 79.6503 89.1593C81.5908 89.387 83.5058 89.5978 85.4013 89.7738C86.7804 89.8956 86.0363 90.4736 85.1977 90.6312C84.4267 90.5067 83.7114 90.3527 82.9094 90.1967C82.0062 90.7914 82.0237 90.7474 79.5773 90.5579C79.2248 90.5292 78.8181 90.447 78.364 90.2872C76.3103 89.3658 77.8257 90.3919 76.6845 89.8908C74.9935 89.4229 69.6749 83.8089 71.0411 84.6052C70.6799 84.2963 70.345 84.0039 69.9983 83.6904C69.1972 82.6879 68.4358 81.6689 67.6982 80.6356C65.127 77.0204 65.2801 72.3696 66.0485 68.3162C66.2322 67.3893 66.0977 67.3101 66.3275 66.3586C66.5675 65.3911 66.8418 64.5158 67.138 63.6665C67.6414 62.2393 68.2305 60.9043 69.0963 59.4128C69.8879 58.1448 69.8354 57.8152 71.2279 56.3365C72.7452 54.9748 72.7699 55.0793 75.1701 53.6391C74.2737 53.9081 75.6928 53.0678 77.8435 52.6923C79.9901 52.2814 82.6695 52.5329 84.0091 52.6902C84.1759 52.707 84.8622 52.7439 85.6902 52.7981C86.4634 52.8543 87.6556 52.8902 87.8093 52.7845C88.0742 52.6902 88.3098 52.5988 88.5128 52.5199C89.8958 52.0241 91.8729 50.8197 92.8053 48.6339C93.2416 47.6261 93.2643 46.9217 93.5533 45.7432C93.7511 44.9109 94.1166 43.9006 94.2737 42.7635C94.4328 41.6454 94.5513 39.0731 94.6386 38.5745C94.9131 36.8144 94.7146 38.7769 94.9309 37.5758C95.1556 36.5151 95.3927 35.3451 96.2567 34.1537C99.8714 29.5082 106.165 29.4185 110.613 29.6424C111.312 29.6864 110.357 29.4603 110.449 29.4635C115.183 29.7399 112.646 29.7099 113.885 29.9956C115.131 30.1445 123.753 32.2562 123.866 32.1279C124.036 32.5183 125.98 32.8776 126.474 33.0409C128.371 33.6563 127.907 33.7933 129.745 34.3842C130.419 34.6059 129.195 33.9356 129.907 34.2117C130.725 34.5295 131.505 34.9149 132.301 35.3263C133.026 35.7075 133.714 35.9582 134.659 35.6229C134.992 35.5013 135.126 35.3521 135.566 35.0921C135.693 35.0144 135.847 34.923 136.042 34.805C136.858 34.547 139.706 31.4226 138.228 32.6996C140.043 30.8978 140.229 30.3124 142.063 27.7803C142.529 27.1351 143.307 26.4227 144.266 25.0153C144.592 24.5385 144.41 24.4221 144.935 23.7277C146.148 22.1299 147.471 20.813 149.124 18.8848C150.713 17.0358 152.389 15.1386 154.148 13.2791C155.823 11.5066 157.712 9.89729 159.753 8.56496C160.914 7.82972 160.727 8.17344 162.451 7.19525C162.697 7.04249 164.74 5.77635 166.023 5.2777C166.773 4.91162 170.843 3.6552 171.677 3.48536C173.042 3.12947 173.239 2.87747 174.001 2.73683C176.207 2.36664 174.514 3.03083 177.059 2.09996C177.966 2.16194 179.498 1.88459 180.033 2.09271C180.46 1.86607 180.98 1.78597 181.608 1.71982C182.229 1.65452 182.963 1.60831 183.826 1.46978C185.567 1.18919 187.006 0.52919 187.457 1.16517C188.279 1.02891 191.797 0.910555 192.39 0.945168C194.138 0.992393 193.195 1.12864 194.511 1.18179C194.742 1.19521 194.508 1.04549 195.993 1.17656C196.975 1.18779 204.055 2.18392 204.458 2.33931C209.197 3.43025 201.835 1.95479 200.767 2.00546C200.588 1.94493 200.412 1.88507 200.221 1.82442C198.095 1.49385 199.276 1.92151 200.231 2.11367C201.181 2.30254 202.995 2.46145 203.771 2.69338C204.158 2.80918 203.857 3.08922 202.67 2.85284C203.932 3.16571 202.168 2.98473 202.658 3.16358C203.204 3.31539 208.876 4.48522 208.941 4.34839C207.885 4.10004 206.565 3.82808 205.489 3.61381C204.125 3.03321 208.673 2.73679 212.477 4.19699C215.21 5.26997 210.525 4.18731 217.215 5.84659C216.205 5.5264 215.353 5.24811 214.428 4.97637C214.394 4.7162 215.827 5.39398 216.62 5.55391C217.003 5.62724 214.758 4.78846 216.765 5.32182C218.373 6.16702 219.787 6.23648 222.617 7.21878C221.812 7.00081 221.004 6.78977 220.197 6.58745C224.897 8.42984 213.781 4.77424 223.008 8.05119C221.896 7.66583 220.788 7.28368 219.658 6.93208C220.163 7.23036 219.177 7.29644 219.64 7.53017C220.849 8.14079 222.761 8.6723 224.287 9.25956C224.955 9.51599 224.504 9.45496 224.56 9.4764C225.473 9.83079 225.322 9.61757 226.128 9.91765C226.641 10.1094 227.627 10.5333 228.53 10.9386C229.423 11.3373 230.213 11.7185 230.441 11.8111C231.646 12.3021 229.786 11.1589 229.904 11.1925C230.72 11.3846 232.24 12.2173 232.231 12.0142C231.33 11.6214 230.057 11.0639 228.705 10.5115C224.402 8.76947 219.75 6.9353 227.52 9.62276C225.019 8.35363 225.708 8.18699 229.124 9.4866C229.344 9.57165 229.573 9.66319 229.812 9.76148C233.087 11.1546 230.928 10.3879 232.539 11.3214C232.747 11.4003 236.971 13.6793 237.214 13.7186C236.903 13.8755 238.121 14.8754 237.066 14.6163C236.921 14.5759 235.235 13.6298 235.711 14.1675C235.952 14.4356 236.652 15.1347 236.441 15.1941C236.832 15.2918 237.259 15.399 237.66 15.506C240.141 16.9649 240.406 17.3246 241.581 18.3744C241.572 18.2678 240.585 17.1406 242.326 18.499C242.413 18.5715 242.43 18.7296 243.285 19.4462C245.013 20.9238 245.324 21.2555 243.749 20.4773C247.497 23.2273 247.979 24.2266 251.291 27.6095C251.004 26.6092 249.843 25.3535 246.511 22.5146C246.441 22.3026 246.448 22.159 246.375 21.9449C250.544 26.0666 248.412 24.0894 250.906 26.2905C251.528 26.8064 254.274 30.18 253.592 28.8637C253.443 28.5378 251.65 26.5083 251.938 26.6659C252.013 26.6829 254.205 29.1542 254.342 29.4126C256.206 32.5692 252.345 27.3773 258.057 35.543C258.204 35.7719 258.374 35.7798 258.672 36.2338C259.222 37.08 259.092 37.1795 259.57 37.9419C260.048 38.7099 260.84 39.7125 261.272 41.0222C262.045 43.3955 259.293 38.2633 258.033 35.9834C257.455 35.537 261.393 42.4388 263.447 47.8528C264.536 50.4873 265.163 52.6997 265.285 53.0597C266.776 57.8014 264.479 49.8594 264.313 49.4588C264.3 49.2887 264.932 49.1181 263.995 47.6238C263.932 47.5272 263.863 47.4239 263.785 47.3131C263.631 47.0925 263.691 47.4021 263.759 47.7224C263.855 48.1785 263.97 48.6712 263.588 47.8562C263.58 47.8385 263.572 47.8211 263.563 47.804C262.927 46.4593 263.343 46.9287 263.314 46.8214C263.216 46.4532 262.474 44.9394 262.414 44.7399C261.427 41.5325 262.219 41.5149 263.084 45.9566C264.059 47.6454 262.631 43.4369 263.725 45.5693C264.057 46.2205 264.332 46.8363 264.559 47.3882C265.266 49.1152 265.488 50.3927 265.568 50.6556C266.698 54.8941 265.76 49.8935 267.008 55.1214C267.601 58.0449 265.707 50.8514 267.235 57.4757C268.273 63.0778 267.872 60.0271 268.325 60.3745C268.426 60.457 269.026 63.5477 268.31 59.3234C268.193 59.2184 268.029 59.0192 267.892 58.7652C267.784 57.7247 267.897 55.9053 267.779 55.3515C267.204 52.6596 266.965 52.8694 266.778 51.227C266.813 52.4326 266.443 50.5708 266.136 49.9285C265.172 47.9174 265.843 49.9281 264.947 47.2259C264.782 46.7494 264.555 46.1003 264.239 45.244C264.398 45.9803 264.525 46.6539 264.656 47.3475C264.661 47.3754 264.667 47.4032 264.672 47.4312C264.661 47.4056 264.651 47.38 264.64 47.3544C264.381 46.7489 264.114 46.1294 263.84 45.507C263.749 44.4137 262.143 41.043 263.858 43.977C262.272 40.2271 261.353 38.8111 260.71 38.1618C260.582 38.0331 260.274 37.5157 259.907 36.8936C259.912 37.0491 259.801 37.3128 259.721 37.2289C259.011 36.4779 258.548 34.9332 258.965 35.2991C258.71 34.873 258.502 34.5308 258.429 34.4096C257.965 33.6399 259.037 35.0431 258.688 34.4036C258.58 34.1789 257.154 32.1162 257.165 32.0485C257.253 31.6095 259.618 35.0426 254.71 28.2677C254.33 28.309 256.757 31.3361 255.853 30.7682C254.912 30.1515 253.971 28.1483 253.282 28.0994C253.227 27.9121 253.23 27.8128 253.201 27.6393C250.842 25.2698 251.055 25.0086 250.406 24.2039C249.197 22.5627 242.112 16.7271 248.15 22.3304C247.238 21.5483 246.299 20.7676 245.348 20.0427C245.564 19.3432 246.076 19.8621 241.396 16.4565C240.351 15.7306 240.166 15.2342 238.901 14.9031C239.254 14.6562 235.866 12.966 235.555 12.7813C233.699 11.4001 241.314 15.1867 241.764 16.4617C243.077 17.0549 242.886 17.3302 244.18 18.2342C246.038 19.5772 246.342 19.7209 248.216 21.7029C250.561 23.1057 240.163 14.9577 246.718 19.5932C250.223 21.7927 261.228 32.7463 266.442 46.6017C268.826 52.0668 269.985 58.0196 270.693 62.9848C270.864 63.8451 271.183 64.1137 272.191 64.4996C273.159 64.8284 274.399 64.9256 275.533 64.9375C277.836 64.9471 279.866 64.6975 281.274 64.5573C282.764 64.4015 284.197 64.2309 285.712 64.1428C286.457 64.1029 287.231 64.077 288.089 64.1445C288.942 64.2862 289.956 64.1362 291.44 65.502C295.405 69.7743 296.547 75.027 296.332 79.7437C296.125 83.4736 294.285 86.6419 292.221 89.1254C288.053 93.7157 282.756 95.2578 276.939 97.0459C275.481 97.5538 265.89 99.8196 264.901 99.7812C264.827 99.7713 264.815 99.7435 264.881 99.6933C264.934 99.6627 265.019 99.6237 265.14 99.5753C265.493 99.432 270.881 98.03 266.162 98.7924C266.89 98.7666 265.615 99.1654 264.814 99.4071C264.606 99.4748 264.449 99.5414 264.409 99.5602C262.711 100.498 262.536 101.167 262.014 101.738C261.513 102.395 260.754 103.179 258.42 106.668ZM237.68 121.351C247.066 115.441 240.057 119.61 241.672 117.849C240.461 118.614 239.266 119.383 238.072 120.15C238.406 119.981 238.738 119.813 239.072 119.643C239.073 119.643 239.075 119.642 239.076 119.641C238.612 120.21 238.144 120.782 237.68 121.351ZM81.4884 118.794C81.7666 119.115 82.0448 119.423 82.3472 119.758C83.0601 120.946 83.8353 122.075 84.7026 123.072C84.5563 122.992 84.4132 122.913 84.2669 122.826C83.2337 121.613 82.3294 120.238 81.4884 118.794ZM257.14 34.7391C256.193 32.9137 255.984 33.2763 254.509 30.9964C254.476 31.44 254.468 31.9115 254.436 32.3618C255.665 33.987 256.022 34.3043 257.149 36.2201C257.094 35.9524 257.034 35.6776 256.977 35.4111C256.756 35.1038 256.526 34.7935 256.311 34.5039C256.223 33.8676 258.197 36.8625 257.144 34.7447C257.142 34.7428 257.141 34.741 257.14 34.7391ZM242.832 19.6371C241.993 18.9093 238.445 16.3932 237.851 16.221C235.987 15.425 246.286 21.9802 238.609 17.3002C238.613 17.3715 238.547 17.3978 238.517 17.4466C239.883 18.3314 241.217 19.2666 242.524 20.2652C242.591 20.0288 242.774 19.8821 242.832 19.6371ZM267.568 95.6401C269.264 95.3306 277.034 93.0904 274.417 93.5066C273.659 93.646 270.251 94.8901 268.896 95.1826C268.026 95.3756 268.951 94.9485 267.249 95.4219C267.346 95.4928 267.416 95.5801 267.572 95.6384C267.571 95.6389 267.569 95.6395 267.568 95.6401ZM264.708 97.5335C266.428 97.0956 268.165 96.6533 269.891 96.202C268.575 96.2756 266.11 96.9966 265.891 96.708C266.359 96.5744 266.828 96.4408 267.294 96.3072C267.675 96.2932 268.047 96.281 268.422 96.2679C269.868 95.7415 268.95 95.8776 271.722 95.2531C269.932 95.1776 269.58 94.9932 264.934 96.583C265.528 96.248 265.174 95.8143 264.025 96.0326C263.44 96.1475 262.683 96.4573 261.96 97.0719C261.73 97.2738 262.159 97.0646 262.675 96.8728C263.193 96.6728 263.809 96.5234 263.825 96.5305C264.236 96.6432 263.018 97.1892 263.469 97.2729C263.562 97.2891 263.908 97.1926 264.282 97.1349C264.656 97.0784 265.056 97.0204 265.171 97.0675C265.271 97.1131 264.122 97.5773 264.708 97.5335ZM260.829 98.0911C261.243 97.5866 259.288 98.6486 258.247 100.066C256.657 102.233 259.43 99.0637 260.829 98.0911ZM81.4835 118.787C81.4852 118.789 81.4868 118.792 81.4884 118.794C81.4874 118.793 81.4863 118.792 81.4853 118.791C81.4847 118.789 81.4841 118.788 81.4835 118.787ZM247.09 23.3463C246.056 22.5588 244.603 21.3453 244.585 21.5796C244.13 21.1606 243.659 20.7418 243.179 20.3285C243.149 20.3776 243.123 20.4303 243.094 20.4788C244.566 21.6481 245.974 22.8805 247.315 24.1756C247.245 23.9022 247.193 23.6459 247.09 23.3463ZM229.877 12.2122C227.693 11.2572 229.432 12.2798 228.902 12.1896C228.74 12.1626 228.448 12.0586 228.122 11.9363C227.386 11.6594 226.483 11.2916 226.599 11.4712C227.084 11.6657 227.575 11.866 228.067 12.0702C228.908 12.419 229.722 12.7742 230.53 13.1446C230.264 12.8108 230.116 12.5278 229.873 12.2103C229.874 12.2109 229.876 12.2115 229.877 12.2122ZM196.618 137.312C198.219 137.243 197.593 137.547 200.702 136.92C200.7 136.921 200.697 136.921 200.695 136.921C197.682 137.194 193.855 137.261 190.569 137.185C192.567 137.513 194.115 137.369 196.618 137.312ZM259.499 39.8849C259.965 40.4075 258.564 37.5676 258.062 37.0527C257.289 36.2081 258.826 39.0788 259.499 39.8849ZM137.449 142.134C135.653 142.387 137.553 143.147 140.759 142.534C142.004 142.272 143.399 141.785 144.697 141.069C145.105 140.903 141.988 142.035 142.864 141.572C142.963 141.545 144.618 140.845 144.975 140.556C145.334 140.288 144.852 140.376 145.452 139.968C146.511 139.293 148.9 137.741 149.492 136.986C149.576 136.899 148.101 137.857 148.002 137.906C146.53 138.91 145.163 139.976 144.91 140.105C143.637 140.769 143.736 140.448 143.388 140.555C142.742 140.742 141.655 141.206 141.566 141.219C139.484 141.675 144.136 140.254 144.616 139.727C146.02 138.646 144.651 139.489 147.916 136.901C148.228 136.648 151.847 133.575 147.113 137.228C151.439 133.276 150.219 134.13 147.855 136.238C145.525 138.413 141.228 140.238 140.292 140.392C140.272 140.398 140.253 140.404 140.236 140.41C139.826 140.542 140.101 140.567 140.284 140.607C140.402 140.63 140.48 140.662 140.317 140.738C140.311 140.741 140.304 140.744 140.298 140.747C139.221 141.275 137.151 141.371 137.336 141.649C137.614 142.078 139.085 141.994 140.524 141.58C141.173 141.401 141.809 141.188 142.374 141.018C142.229 141.212 142.202 141.364 141.875 141.608C142.078 141.464 141.446 141.626 140.578 141.799C139.315 142.079 137.556 142.121 137.449 142.132C137.449 142.133 137.449 142.133 137.449 142.134ZM163.9 127.246C166.791 128.374 166.534 128.197 168.583 129.718C170.61 130.66 166.997 128.236 166.488 127.967C165.067 127.13 164.626 126.632 163.165 126.548C162.688 126.543 162.114 126.582 161.281 126.796C161.989 126.823 162.587 126.921 163.201 127.05C163.454 127.086 163.686 127.157 163.9 127.246ZM143.831 139.646C145.3 138.699 142.518 140.07 142.371 140.022C141.672 140.069 143.462 139.339 144.623 138.697C145.764 138.041 146.547 137.881 143.831 139.646ZM277.999 93.7294C278.884 93.4633 278.268 93.4615 279.021 93.1566C279.779 92.8687 282.426 92.0397 282.308 91.9418C282.201 91.8886 277.389 93.3418 282.075 91.5057C281.893 91.5073 281.928 91.4399 281.83 91.4145C280.555 91.923 279.232 92.3786 277.906 92.7952C278.691 92.7481 279.496 92.692 280.255 92.6183C279.563 93.0252 279.081 92.9756 279.041 92.9895C279.041 92.9897 279.041 92.9899 279.041 92.9901C277.659 93.4656 276.008 94.3025 277.999 93.7294ZM218.408 132.172C218.353 132.717 220.115 131.375 220.895 130.939C221.663 130.52 222.852 130.135 222.345 130.154C220.994 130.669 218.423 132.118 218.409 132.173C218.409 132.173 218.408 132.172 218.408 132.172ZM176.905 134.649C177.085 134.722 177.249 134.786 177.4 134.843C178.968 135.4 178.919 135.323 181.244 136.216C181.176 136.075 181.111 135.932 181.046 135.792C179.25 135.191 179.047 135.388 177.477 134.672C177.272 134.576 177.048 134.463 176.797 134.326C176.437 134.123 177.334 134.285 175.648 133.528C176.058 133.901 176.481 134.286 176.905 134.649ZM187.613 137.268C185.105 136.909 182.876 137.454 187.668 137.808C188.388 137.837 189.522 137.488 187.613 137.268ZM256.805 103.994C259.426 100.338 256.328 104.418 255.588 105.314C261.525 96.6515 254.891 106.311 253.991 106.895C253.397 108.012 252.267 110.105 253.856 108.017C254.51 107.138 254.164 107.385 254.202 107.332C255.376 105.681 255.412 106.012 256.805 103.994ZM158.922 128.304C159.084 128.227 158.759 128.187 159.274 127.938C159.796 127.671 161.076 127.428 161.184 127.317C161.281 127.139 158.714 127.853 158.063 128.36C157.396 128.815 157.509 129.044 158.922 128.304ZM174.581 133.944C176.584 134.881 173.682 132.668 173.297 132.403C169.699 130.234 174.732 133.893 174.581 133.944ZM251.505 113.013C254.684 108.557 251.872 111.493 249.368 113.677C249.107 114.04 248.838 114.4 248.565 114.749C249.162 113.919 249.939 112.783 249.962 112.6C249.954 112.391 249.392 113.319 246.577 115.94C249.8 113.221 247.236 115.651 247.222 115.68C247.413 116.632 251.65 111.806 251.502 113.016C251.503 113.015 251.504 113.014 251.505 113.013ZM152.785 132.565C151.113 134.278 146.704 138.274 149.014 136.69C150.322 135.376 151.514 133.968 152.785 132.565ZM272.919 66.3685C271.201 65.8554 269.588 65.2081 269.271 63.2056C269.306 64.1101 269.405 64.2678 269.28 64.1546C269.171 64.0353 269.003 63.6066 268.927 63.2691C268.925 63.2618 268.923 63.2546 268.922 63.2476C268.836 62.8944 268.83 62.9893 268.856 63.2574C268.864 63.7477 269.278 64.6373 269.297 64.6387C269.177 64.6887 268.924 64.3485 268.913 64.408C268.943 64.4036 268.916 65.1894 270.57 66.1839C269.703 65.8161 268.923 65.1422 268.51 64.2143C269.065 65.6867 270.005 66.236 270.678 66.6537C271.395 67.058 272.015 67.3237 272.958 67.5818C271.205 66.7306 273.585 67.6558 275.758 67.375C276.832 67.2661 273.767 66.6919 272.912 66.3672C272.915 66.3676 272.917 66.368 272.919 66.3685ZM255.005 108.598C255.252 108.094 255.447 107.603 255.665 107.107C255.988 106.614 256.308 106.123 256.625 105.637C256.727 105.62 256.827 105.613 256.935 105.584C257.385 104.958 257.129 105.149 257.248 104.956C257.248 104.956 257.249 104.956 257.249 104.956C258.984 102.205 259.796 101.05 261.791 99.6342C261.645 99.4538 261.499 99.2733 261.353 99.0929C260.918 99.4733 260.504 99.8996 260.128 100.331C260.007 100.642 259.901 100.949 259.798 101.262C259.32 101.717 258.864 102.193 258.412 102.69C258.132 103.144 257.801 103.694 257.573 104.101C255.518 105.919 259.344 101.203 259.255 101.056C259.047 100.85 255.541 105.898 255.177 106.702C255.12 106.815 256.264 105.996 254.796 107.702C254.557 107.966 253.663 107.477 252.931 109.906C252.82 110.253 254.069 109.682 255.005 108.598ZM271.758 96.9547C268.257 97.192 280.754 94.5913 275.3 95.5073C276.727 94.7881 276.443 94.8764 274.856 95.0312C274.717 95.0449 275.74 94.6747 275.648 94.6882C274.196 94.9424 272.502 95.4515 272.424 95.1889C272.043 95.3003 271.685 95.4026 271.303 95.5114C272.969 95.3649 270.46 96.1664 269.516 96.6085C269.087 96.8115 270.134 96.5946 269.773 96.7688C269.638 96.8341 268.173 97.1126 268.135 97.2135C268.058 97.4404 269.031 97.5013 270.614 97.2768C270.614 97.277 270.614 97.2772 270.614 97.2774C271.001 97.1707 271.372 97.0641 271.758 96.9547ZM212.177 136.12C211.505 135.939 209.263 136.581 213.464 134.995C213.232 134.998 212.996 135.003 212.759 135.006C212.032 135.258 211.365 135.48 210.617 135.714C208.716 137.467 204.272 137.207 207.093 137.339C207.411 137.351 209.128 136.809 207.458 137.473C207.461 137.473 207.463 137.473 207.466 137.472C209.862 136.78 210.126 136.554 212.177 136.12ZM227.34 129.212C230.674 126.728 225.539 129.643 223.084 130.95C222.123 131.477 221.607 131.79 222.206 131.572C222.255 131.553 222.628 131.369 223.158 131.101C224.706 130.336 227.499 128.813 227.34 129.212ZM182.931 138.461C185.493 139.073 185.745 138.62 185.511 138.44C185.273 138.253 183.494 138.035 183.28 137.949C182.562 137.694 184.131 138.018 183.205 137.685C182.885 137.641 178.659 136.144 178.493 136.022C177.399 135.69 178.82 136.634 178.506 136.549C177.974 136.413 177.391 136.155 176.91 135.932C176.42 135.705 176.026 135.515 175.845 135.53C175.398 135.562 176.078 135.858 176.829 136.111C177.373 136.295 177.969 136.456 178.149 136.524C179.45 137.011 179.259 137.167 180.245 137.546C181.218 137.907 181.913 138.023 182.79 138.261C183.087 138.34 182.802 138.427 182.931 138.461ZM191.537 138.77C188.818 138.987 195.403 139.56 196.192 139.332C198.453 138.999 192.818 138.761 191.537 138.77ZM263.193 98.0573C262.082 98.8045 263.051 98.2307 264.47 97.9366C265.722 97.6964 267.269 97.358 267.985 97.1479C267.756 97.132 265.795 97.4009 264.404 97.6575C263.848 97.7594 263.402 97.9375 263.193 98.0573ZM250.49 114.141C251.968 112.393 249.599 114.34 248.203 115.582C247.598 116.571 248.354 115.845 249.251 114.987C250.137 114.118 249.288 115.472 250.49 114.141ZM158.288 129.983C158.482 129.852 160.229 128.871 161.613 128.532C162.98 128.193 163.796 127.993 161.599 128.286C161.429 128.312 160.017 128.64 158.736 129.324C157.444 129.983 156.305 130.91 156.158 131.055C155.578 131.649 157.224 130.539 158.288 129.983ZM242.109 121.229C242.952 120.339 243.943 119.719 242.834 120.01C242.833 120.011 242.832 120.012 242.83 120.013C243.498 119.556 244.024 119.262 244.445 119.07C245.615 118.52 245.99 118.691 246.388 118.396C248.235 116.929 246.167 117.884 247.202 116.856C245.331 118.479 245.083 118.367 244.268 118.786C243.975 118.927 243.6 119.128 243.033 119.48C242.551 119.776 240.754 121.169 240.545 121.455C240.336 121.741 241.513 121.434 242.109 121.229ZM150.04 137.151C152.116 135.438 153.489 133.394 150.786 135.878C149.454 137.068 148.748 138.164 150.04 137.151ZM240.673 16.0778C240.939 16.4017 241.228 16.744 241.517 17.0923C240.678 16.5561 239.859 16.0618 238.995 15.5649C239.685 15.9439 240.35 16.3248 241.023 16.7272C239.518 15.6809 238.909 15.0415 240.669 16.0752C240.67 16.076 240.672 16.0769 240.673 16.0778ZM177.696 2.35452C176.858 2.378 175.333 3.0749 175.544 3.06274C177.105 2.95189 178.853 2.32177 177.696 2.35452ZM266.928 98.2252C269.913 97.5879 267.731 97.4703 265.902 97.8492C267.044 97.7048 265.238 98.5848 266.928 98.2252ZM200.767 2.00546C201.032 2.09562 201.3 2.18721 201.598 2.28491C200.647 2.07017 200.487 2.00303 200.767 2.00546ZM159.573 129.929C159.936 129.709 162.691 129.003 163.342 129.013C163.355 129.01 163.367 129.007 163.376 129.004C163.53 128.967 163.499 128.895 163.33 128.836C162.733 128.733 161.276 128.843 160.372 129.257C160.207 129.308 159.161 130.059 159.579 129.926C159.577 129.927 159.575 129.928 159.573 129.929ZM237.229 13.7079C237.231 13.7156 237.225 13.719 237.214 13.7186C237.22 13.7156 237.222 13.7103 237.229 13.7079ZM123.849 32.0934C123.864 32.108 123.871 32.1199 123.866 32.1279C123.862 32.1173 123.85 32.104 123.849 32.0934ZM180.431 138.463C181.401 139.396 184.188 139.743 182.139 138.938C182.025 138.899 180.71 138.559 180.431 138.463Z" fill="white"/>
</svg>
