<svg width="371" height="331" viewBox="0 0 371 331" fill="none" xmlns="http://www.w3.org/2000/svg">
<g opacity="0.3" filter="url(#filter0_f_969_7351)">
<path d="M65.2188 10L318.707 63.7629L316.06 320.599L75.6416 266.386C75.6416 266.386 75.707 242.686 75.7534 225.899C76.016 130.739 65.2188 10 65.2188 10Z" fill="#3E371E"/>
</g>
<path d="M56.0195 7L320.144 63.0187C320.144 63.0187 313.254 157.449 302.402 205.9C291.549 254.351 264.126 327.143 264.126 327.143L0.000836909 271.125C0.000836909 271.125 8.62973 245.593 13.6102 229.062C39.0791 144.528 56.0195 7 56.0195 7Z" fill="#F6EF7F"/>
<path d="M78.3237 136.221C77.0697 135.962 75.8218 135.377 74.58 134.467C73.3692 133.603 72.4353 132.389 71.7784 130.823C71.1688 129.226 71.103 127.272 71.581 124.96C72.14 122.256 72.9665 119.444 74.0605 116.524C75.1545 113.604 76.3857 110.712 77.754 107.849C79.1696 104.954 80.6312 102.233 82.1387 99.6842C83.6463 97.1357 85.0931 94.881 86.4791 92.9203C87.9043 90.9676 89.1539 89.469 90.2279 88.4243C91.3101 87.3405 92.1254 86.8553 92.674 86.9688C93.4186 87.1227 93.9848 87.5462 94.3727 88.2393C94.7997 88.9405 94.9039 89.8201 94.6852 90.8781C94.596 91.3091 94.1307 92.2753 93.2891 93.7766C92.4557 95.2387 91.4 97.0839 90.1221 99.3122C88.8442 101.54 87.4671 103.952 85.9906 106.548C84.5533 109.152 83.1512 111.784 81.7842 114.443C80.4172 117.103 79.2198 119.633 78.1919 122.036C77.164 124.439 76.4677 126.522 76.1032 128.285C75.9979 128.794 76.0337 129.312 76.2108 129.839C76.396 130.327 76.8021 130.636 77.4291 130.765C78.2911 130.944 79.566 131.003 81.2536 130.943C82.9804 130.892 84.8605 130.79 86.894 130.638C88.9356 130.448 90.8948 130.26 92.7716 130.076C94.6484 129.892 96.2346 129.73 97.5304 129.589C98.8261 129.448 99.5524 129.394 99.7091 129.426C100.179 129.524 100.543 129.742 100.8 130.081C101.064 130.381 101.144 130.786 101.039 131.295C100.909 131.922 100.289 132.55 99.1787 133.178C98.1073 133.815 96.7224 134.386 95.024 134.893C93.3649 135.408 91.5456 135.809 89.5661 136.094C87.5786 136.419 85.5998 136.602 83.6298 136.644C81.699 136.694 79.9303 136.554 78.3237 136.221ZM117.017 105.976C115.332 105.627 114.244 105.157 113.753 104.565C113.302 103.982 113.121 103.474 113.21 103.043C113.34 102.416 113.77 101.913 114.503 101.533C115.274 101.162 116.15 100.975 117.131 100.974C118.316 100.973 119.736 101.022 121.392 101.119C123.094 101.185 124.847 101.302 126.651 101.471C128.463 101.6 130.224 101.78 131.933 102.011C133.642 102.242 135.124 102.487 136.378 102.746C138.024 103.086 139.213 103.659 139.945 104.464C140.725 105.238 141.062 105.88 140.957 106.39C140.949 106.429 140.933 106.507 140.908 106.625C140.843 106.938 140.728 107.2 140.562 107.411C140.396 107.622 139.955 107.776 139.24 107.873C138.573 107.94 137.451 107.933 135.874 107.852C134.344 107.74 132.184 107.518 129.392 107.186C128.836 107.112 128.216 107.045 127.534 106.985C127.158 108.011 126.635 109.354 125.966 111.013C125.296 112.672 124.546 114.519 123.717 116.554C122.887 118.589 122.026 120.679 121.133 122.824C120.249 124.929 119.384 126.936 118.54 128.845C117.735 130.763 117.018 132.453 116.388 133.917C115.798 135.388 115.344 136.5 115.025 137.251C117.119 137.398 118.958 137.594 120.542 137.84C122.173 138.055 123.262 138.219 123.811 138.332C125.261 138.632 125.872 139.33 125.646 140.427C125.581 140.741 124.821 141.054 123.368 141.366C121.914 141.678 120.084 141.933 117.877 142.131C115.671 142.329 113.394 142.471 111.047 142.558C109.116 142.608 107.225 142.564 105.374 142.427C103.562 142.297 102.264 142.152 101.481 141.99C100.619 141.811 100.044 141.529 99.7558 141.143C99.4598 140.795 99.3685 140.347 99.4819 139.799C99.5954 139.25 99.8655 138.734 100.292 138.25C100.759 137.775 101.31 137.48 101.946 137.366C103.085 137.193 104.334 137.084 105.692 137.038C107.058 136.952 108.435 136.91 109.824 136.911C109.865 136.715 109.913 136.48 109.97 136.206C110.083 135.657 110.396 134.639 110.908 133.151C111.459 131.672 112.13 129.91 112.92 127.867C113.718 125.785 114.572 123.633 115.481 121.41C116.398 119.148 117.271 116.999 118.1 114.964C118.938 112.89 119.675 111.102 120.313 109.599C120.958 108.057 121.416 107.028 121.686 106.512C120.682 106.427 119.781 106.343 118.981 106.259C118.181 106.175 117.526 106.081 117.017 105.976ZM160.879 154.025C160.017 153.846 159.361 153.363 158.911 152.576C158.5 151.796 158.453 150.642 158.768 149.114C158.874 148.605 159.046 148.068 159.285 147.505C159.532 146.902 159.877 146.32 160.32 145.757C159.366 140.493 158.696 135.431 158.312 130.571C157.927 125.711 157.783 120.676 157.88 115.466C156.091 117.793 154.341 120.23 152.63 122.777C150.965 125.293 149.372 127.763 147.849 130.186C146.327 132.609 144.939 134.875 143.685 136.986C142.432 139.097 141.341 140.914 140.413 142.439C139.381 144.268 138.483 145.451 137.718 145.988C136.945 146.564 136.226 146.783 135.56 146.645C134.658 146.458 134.017 146.101 133.636 145.573C133.294 145.053 133.237 144.244 133.463 143.147C133.634 142.324 134.112 141.095 134.9 139.46C135.687 137.825 136.688 135.948 137.903 133.829C139.156 131.718 140.532 129.51 142.03 127.205C143.528 124.9 145.073 122.665 146.664 120.502C148.295 118.347 149.877 116.426 151.41 114.741C152.952 113.017 154.349 111.692 155.603 110.766C156.904 109.809 157.986 109.42 158.848 109.598C159.749 109.784 160.477 110.119 161.031 110.601C161.624 111.091 162.159 112.162 162.634 113.813C162.933 114.937 163.213 116.548 163.474 118.645C163.743 120.703 163.96 123.015 164.124 125.582C164.296 128.11 164.432 130.713 164.532 133.39C164.641 136.027 164.707 138.472 164.732 140.724C167.798 133.799 170.482 127.735 172.784 122.531C175.093 117.288 176.882 113.184 178.149 110.217C179.455 107.26 180.144 105.706 180.215 105.558C180.661 104.587 181.045 104.013 181.368 103.835C181.691 103.656 182.107 103.62 182.617 103.725C183.322 103.871 183.947 104.307 184.492 105.032C185.084 105.726 185.278 106.564 185.076 107.543C184.979 108.013 184.638 109.067 184.055 110.703C183.511 112.347 182.76 114.399 181.802 116.857C180.892 119.283 179.803 121.98 178.536 124.946C177.277 127.873 175.892 130.917 174.38 134.077C172.877 137.199 171.28 140.28 169.589 143.322C167.945 146.333 166.239 149.147 164.472 151.764C163.814 152.772 163.151 153.411 162.482 153.682C161.844 153.999 161.31 154.114 160.879 154.025ZM215.604 161.661C215.523 162.053 215.227 162.4 214.715 162.703C214.202 163.006 213.492 163.084 212.582 162.936C211.446 162.702 210.266 161.988 209.041 160.795C207.848 159.649 206.641 158.174 205.421 156.369C204.209 154.525 203.033 152.504 201.893 150.307C200.754 148.11 199.686 145.867 198.688 143.577C197.699 141.247 196.83 139.025 196.083 136.909C194.308 140.751 192.839 144.002 191.676 146.663C190.552 149.331 189.586 151.338 188.776 152.682C188.015 153.996 187.281 154.58 186.576 154.434C185.949 154.304 185.418 153.806 184.984 152.94C184.598 152.043 184.627 150.517 185.073 148.362C185.308 147.226 185.625 146.086 186.025 144.943C186.433 143.76 187.003 142.387 187.735 140.822C188.475 139.218 189.442 137.211 190.634 134.802C190.276 134.36 190.075 133.951 190.03 133.574C189.986 133.197 190.008 132.793 190.097 132.362C190.21 131.813 190.481 131.297 190.907 130.813C191.334 130.33 192.027 130.044 192.985 129.956C195.304 125.655 197.151 122.257 198.524 119.762C199.906 117.229 201.028 115.458 201.89 114.452C202.799 113.414 203.626 112.972 204.371 113.126C205.977 113.458 206.582 114.584 206.185 116.504C206.039 117.209 205.382 118.708 204.214 121C203.053 123.252 201.273 126.725 198.873 131.418C202.43 129.825 205.804 128.132 208.994 126.34C212.184 124.547 215.114 122.824 217.785 121.17C220.464 119.477 222.82 117.962 224.854 116.625C226.887 115.288 228.534 114.24 229.795 113.479C231.055 112.718 231.862 112.374 232.214 112.447C232.88 112.584 233.385 112.913 233.726 113.434C234.108 113.962 234.241 114.5 234.128 115.049C233.99 115.715 233.582 116.305 232.904 116.818C231.737 117.721 230.187 118.892 228.255 120.331C226.323 121.771 224.167 123.307 221.786 124.939C219.414 126.533 216.952 128.067 214.4 129.541C211.887 131.024 209.418 132.291 206.994 133.342C204.579 134.355 202.389 134.964 200.426 135.172C200.845 135.912 201.26 136.672 201.671 137.451C202.081 138.231 202.457 138.983 202.798 139.707C203.828 141.84 205.029 144.132 206.402 146.581C207.815 149.039 209.267 151.403 210.759 153.672C212.259 155.903 213.648 157.784 214.925 159.314C215.532 160.134 215.758 160.917 215.604 161.661ZM228.354 166.32C227.375 166.117 226.628 165.677 226.114 164.999C225.632 164.368 225.456 163.739 225.585 163.112C225.731 162.406 225.938 161.898 226.207 161.586C226.523 161.242 227.07 161.069 227.847 161.066C229.778 161.016 231.783 160.9 233.864 160.717C235.992 160.503 237.987 160.241 239.849 159.932C241.719 159.583 243.252 159.185 244.448 158.737C245.683 158.298 246.353 157.824 246.458 157.314C246.555 156.844 246.217 156.304 245.444 155.695C244.68 155.046 243.688 154.31 242.469 153.486C241.25 152.662 239.945 151.759 238.555 150.777C237.164 149.795 235.892 148.735 234.738 147.598C233.584 146.46 232.689 145.254 232.054 143.978C231.427 142.664 231.263 141.281 231.563 139.831C232.033 137.559 233.019 135.556 234.521 133.824C236.07 132.06 237.921 130.522 240.072 129.21C242.222 127.898 244.521 126.759 246.968 125.794C249.462 124.798 251.881 123.97 254.224 123.31C256.614 122.619 258.74 122.017 260.604 121.503C261.217 121.303 261.791 121.197 262.324 121.185C262.858 121.172 263.321 121.207 263.713 121.288C264.849 121.523 265.619 121.948 266.023 122.562C266.427 123.177 266.561 123.818 266.423 124.484C266.31 125.032 265.882 125.618 265.14 126.241C264.407 126.825 263.435 127.278 262.224 127.599C261.013 127.921 259.644 127.924 258.116 127.608L257.645 127.511C256.167 127.941 254.543 128.484 252.773 129.139C251.003 129.795 249.233 130.552 247.462 131.412C245.69 132.272 244.028 133.195 242.476 134.181C240.971 135.137 239.709 136.102 238.69 137.076C237.711 138.058 237.124 139.02 236.93 139.96C236.695 141.097 236.915 142.205 237.591 143.284C238.267 144.364 239.198 145.394 240.384 146.375C241.61 147.363 242.898 148.345 244.25 149.319C245.64 150.301 246.929 151.282 248.115 152.263C249.349 153.213 250.312 154.188 251.004 155.189C251.704 156.151 251.944 157.161 251.726 158.219C251.475 159.434 250.805 160.501 249.716 161.42C248.666 162.347 247.358 163.139 245.792 163.796C244.234 164.414 242.556 164.925 240.756 165.329C239.003 165.702 237.291 165.981 235.618 166.167C233.945 166.352 232.454 166.452 231.143 166.467C229.872 166.49 228.942 166.441 228.354 166.32ZM55.8065 191.18C55.1795 191.05 54.7147 190.73 54.4119 190.218C54.1092 189.706 54.0712 188.901 54.2981 187.804C54.4682 186.981 54.9983 185.701 55.8885 183.965C56.826 182.197 58.0046 180.153 59.4243 177.831C60.8832 175.518 62.4685 173.088 64.1801 170.54C65.9389 167.962 67.7329 165.411 69.562 162.888C71.3912 160.366 73.1561 158.054 74.857 155.954C76.5659 153.815 78.0999 152.028 79.459 150.593C80.818 149.157 81.9029 148.258 82.7136 147.894C83.658 147.477 84.4828 147.341 85.1882 147.487C85.58 147.568 85.9638 147.688 86.3394 147.847C86.7151 148.007 87.0198 148.213 87.2536 148.465C87.8698 149.042 88.2787 150.128 88.4803 151.722C88.7291 153.285 88.8307 155.166 88.7851 157.363C88.7476 159.521 88.5993 161.819 88.3403 164.258C88.1285 166.666 87.8816 169.046 87.5995 171.398C88.8075 171.485 89.8114 171.569 90.6113 171.653C91.4112 171.737 91.9875 171.815 92.3402 171.888C93.6725 172.163 94.4785 172.514 94.7583 172.94C95.038 173.365 95.1489 173.817 95.0909 174.295C95.0234 175.017 94.6979 175.603 94.1142 176.055C93.5306 176.506 92.7794 176.78 91.8606 176.876C91.5701 176.898 90.9539 176.913 90.0122 176.923C89.1177 176.901 88.0388 176.883 86.7754 176.867C86.5716 178.05 86.3643 179.151 86.1537 180.17C85.9903 181.158 85.8358 182.005 85.6899 182.71C84.9527 186.276 84.1823 188.915 83.3786 190.629C82.583 192.303 81.8069 193.389 81.0503 193.886C80.2937 194.384 79.6215 194.571 79.0337 194.45C78.3284 194.304 77.8791 194.007 77.6858 193.558C77.5006 193.071 77.489 192.435 77.6511 191.651L78.5138 187.478C78.8136 186.028 79.1343 184.378 79.4758 182.528C79.8647 180.647 80.2542 178.665 80.6444 176.58C78.2515 176.494 75.8234 176.38 73.3601 176.238C70.9361 176.105 68.8337 175.997 67.0528 175.915C65.7289 177.97 64.5672 179.834 63.5676 181.507C62.576 183.141 61.8655 184.404 61.436 185.296C60.4431 187.133 59.6103 188.493 58.9376 189.376C58.2729 190.219 57.6927 190.753 57.1968 190.977C56.7401 191.21 56.2767 191.277 55.8065 191.18ZM70.1328 171.097C72.2676 171.048 74.2964 171.018 76.2191 171.007C78.1811 171.004 79.9741 171.027 81.5982 171.077C82.2098 167.526 82.691 164.111 83.0418 160.833C83.4399 157.524 83.5591 154.873 83.3993 152.878C82.3875 154.017 81.1493 155.559 79.685 157.504C78.2206 159.448 76.6488 161.616 74.9696 164.006C73.3377 166.366 71.7255 168.729 70.1328 171.097ZM96.9421 202.565C96.2759 202.428 95.7847 201.938 95.4684 201.096C95.144 200.294 95.079 199.422 95.2734 198.482C95.3544 198.09 95.5057 197.753 95.7273 197.472C95.988 197.199 96.3305 197.025 96.7548 196.949C97.2263 196.842 97.6938 196.755 98.1572 196.687C98.668 196.589 99.1787 196.49 99.6894 196.391C99.6367 196.054 99.6157 195.661 99.6264 195.214C99.6372 194.767 99.7033 194.249 99.8248 193.661C99.9139 193.23 100.162 192.423 100.57 191.241C101.025 190.028 101.588 188.591 102.258 186.932C102.928 185.273 103.638 183.519 104.387 181.672C105.184 179.794 105.949 177.97 106.683 176.202C107.464 174.402 108.165 172.79 108.786 171.365C110.156 168.298 111.613 165.596 113.159 163.26C114.743 160.931 116.567 159.225 118.63 158.139C120.74 157.023 123.265 156.769 126.204 157.376C128.438 157.838 130.531 158.781 132.483 160.207C134.475 161.64 136.166 163.44 137.557 165.607C138.995 167.743 139.996 170.116 140.56 172.725C141.124 175.334 141.114 178.049 140.531 180.87C140.028 183.3 138.982 185.494 137.392 187.454C135.81 189.374 133.861 191.096 131.544 192.619C129.227 194.142 126.664 195.471 123.855 196.607C121.085 197.75 118.226 198.732 115.278 199.553C112.377 200.342 109.548 200.983 106.79 201.475C104.024 202.007 101.491 202.402 99.1898 202.662C98.8993 202.684 98.55 202.693 98.1419 202.691C97.7339 202.688 97.3339 202.646 96.9421 202.565ZM104.203 195.608C107.904 194.902 111.515 194.137 115.036 193.312C118.596 192.496 121.855 191.454 124.814 190.186C127.781 188.879 130.264 187.247 132.262 185.29C134.26 183.333 135.563 180.885 136.171 177.946C136.487 176.418 136.442 174.856 136.036 173.261C135.631 171.665 134.918 170.169 133.899 168.774C132.928 167.347 131.727 166.138 130.297 165.148C128.915 164.127 127.381 163.442 125.696 163.094C124.168 162.778 122.715 162.886 121.339 163.419C120.009 163.92 118.715 165.042 117.456 166.784C116.197 168.526 114.901 171.036 113.57 174.316C112.662 176.335 111.698 178.526 110.678 180.889C109.667 183.213 108.675 185.439 107.704 187.568C106.78 189.665 106.003 191.445 105.374 192.908C104.753 194.333 104.398 195.158 104.31 195.385C104.294 195.464 104.258 195.538 104.203 195.608ZM142.197 211.921C141.53 211.784 141.039 211.294 140.723 210.452C140.399 209.65 140.334 208.778 140.528 207.838C140.609 207.446 140.76 207.109 140.982 206.828C141.243 206.555 141.585 206.381 142.009 206.305C142.481 206.198 142.948 206.111 143.412 206.043C143.923 205.945 144.433 205.846 144.944 205.747C144.891 205.41 144.87 205.017 144.881 204.57C144.892 204.123 144.958 203.605 145.079 203.017C145.168 202.586 145.417 201.78 145.825 200.597C146.28 199.384 146.843 197.947 147.513 196.288C148.182 194.629 148.892 192.875 149.642 191.028C150.439 189.15 151.204 187.326 151.937 185.558C152.718 183.758 153.419 182.146 154.04 180.721C155.41 177.654 156.868 174.952 158.413 172.616C159.998 170.287 161.821 168.581 163.885 167.495C165.995 166.379 168.52 166.125 171.458 166.732C173.692 167.194 175.785 168.137 177.738 169.563C179.73 170.996 181.421 172.796 182.812 174.963C184.25 177.099 185.251 179.472 185.814 182.081C186.378 184.69 186.368 187.405 185.785 190.226C185.283 192.656 184.237 194.85 182.647 196.81C181.065 198.73 179.115 200.452 176.798 201.975C174.481 203.498 171.918 204.827 169.109 205.963C166.339 207.106 163.48 208.088 160.532 208.909C157.631 209.698 154.802 210.339 152.044 210.831C149.279 211.363 146.745 211.758 144.444 212.018C144.154 212.04 143.805 212.049 143.396 212.047C142.988 212.044 142.588 212.002 142.197 211.921ZM149.457 204.964C153.158 204.258 156.769 203.493 160.29 202.668C163.85 201.852 167.11 200.81 170.069 199.542C173.036 198.235 175.518 196.603 177.517 194.646C179.515 192.689 180.818 190.241 181.425 187.302C181.741 185.774 181.696 184.212 181.291 182.617C180.885 181.021 180.173 179.525 179.154 178.13C178.182 176.703 176.981 175.494 175.552 174.504C174.169 173.483 172.636 172.798 170.951 172.45C169.422 172.134 167.97 172.242 166.593 172.775C165.264 173.276 163.969 174.398 162.71 176.14C161.451 177.882 160.156 180.392 158.824 183.672C157.916 185.691 156.953 187.882 155.933 190.245C154.921 192.569 153.93 194.795 152.959 196.924C152.035 199.021 151.258 200.801 150.629 202.265C150.007 203.689 149.653 204.514 149.565 204.741C149.549 204.82 149.513 204.894 149.457 204.964ZM197.423 219.294C196.443 219.091 195.465 218.583 194.49 217.768C193.514 216.953 192.694 215.783 192.029 214.256C191.403 212.737 191.023 210.82 190.889 208.504C190.755 206.188 191.02 203.424 191.684 200.21C192.211 197.663 193.059 195.142 194.228 192.646C195.446 190.119 196.983 187.822 198.84 185.755C200.745 183.656 202.973 181.971 205.524 180.701C208.122 179.399 211.077 178.743 214.389 178.734C215.825 178.704 217.434 178.73 219.214 178.812C221.043 178.863 222.882 178.957 224.733 179.095C226.632 179.201 228.401 179.342 230.04 179.518C231.718 179.701 233.125 179.91 234.261 180.145C236.103 180.526 237.347 181.131 237.993 181.959C238.686 182.756 238.972 183.448 238.851 184.036C238.77 184.428 238.536 184.768 238.149 185.056C237.771 185.304 237.123 185.375 236.206 185.267C235.845 185.233 235.08 185.177 233.911 185.099C232.751 184.981 231.343 184.874 229.688 184.777C228.032 184.68 226.295 184.586 224.475 184.496C222.702 184.375 220.964 184.281 219.262 184.215C217.607 184.118 216.171 184.046 214.955 183.999C211.573 183.954 208.784 184.501 206.587 185.64C204.39 186.779 202.646 188.298 201.354 190.197C200.063 192.095 199.073 194.118 198.384 196.263C200.024 196.235 201.806 196.215 203.728 196.204C205.69 196.201 207.566 196.221 209.355 196.264C211.152 196.268 212.698 196.301 213.992 196.364C215.326 196.436 216.208 196.516 216.639 196.605C217.462 196.775 217.935 197.057 218.058 197.45C218.22 197.851 218.244 198.326 218.131 198.875C217.912 199.933 215.945 200.752 212.229 201.332C208.553 201.921 203.487 202.017 197.031 201.622C196.755 202.955 196.491 204.33 196.239 205.749C196.034 207.137 195.888 208.434 195.802 209.642C195.715 210.85 195.717 211.831 195.806 212.585C195.895 213.339 196.136 213.757 196.528 213.838C197.429 214.024 198.661 213.993 200.225 213.744C201.827 213.503 203.513 213.157 205.281 212.706C207.05 212.254 208.677 211.794 210.164 211.325C211.689 210.864 212.81 210.482 213.526 210.181C214.368 209.865 215.276 209.521 216.252 209.151C217.227 208.781 217.93 208.64 218.362 208.729C218.91 208.843 219.12 209.213 218.99 209.84C218.917 210.192 218.462 210.813 217.624 211.702C216.826 212.6 215.725 213.578 214.321 214.636C212.925 215.655 211.318 216.61 209.5 217.5C207.729 218.36 205.802 218.983 203.72 219.37C201.677 219.765 199.578 219.739 197.423 219.294ZM228.056 229.672C227.39 229.534 226.899 229.045 226.583 228.203C226.258 227.4 226.193 226.529 226.388 225.588C226.469 225.197 226.62 224.86 226.841 224.579C227.102 224.306 227.445 224.132 227.869 224.056C228.34 223.949 228.808 223.862 229.271 223.794C229.782 223.696 230.293 223.597 230.804 223.498C230.751 223.16 230.73 222.768 230.741 222.321C230.751 221.873 230.817 221.356 230.939 220.768C231.028 220.337 231.277 219.53 231.684 218.348C232.14 217.135 232.702 215.698 233.372 214.039C234.042 212.38 234.752 210.626 235.501 208.779C236.298 206.901 237.064 205.077 237.797 203.309C238.578 201.509 239.279 199.897 239.9 198.472C241.27 195.405 242.727 192.703 244.273 190.367C245.857 188.038 247.681 186.332 249.744 185.246C251.855 184.13 254.379 183.875 257.318 184.483C259.552 184.945 261.645 185.888 263.597 187.314C265.589 188.747 267.281 190.547 268.671 192.714C270.109 194.85 271.11 197.223 271.674 199.832C272.238 202.441 272.228 205.156 271.645 207.977C271.142 210.407 270.096 212.601 268.506 214.561C266.924 216.481 264.975 218.203 262.658 219.726C260.341 221.249 257.778 222.578 254.969 223.714C252.199 224.857 249.34 225.839 246.392 226.66C243.491 227.449 240.662 228.09 237.904 228.582C235.138 229.114 232.605 229.509 230.304 229.769C230.013 229.791 229.664 229.8 229.256 229.798C228.848 229.795 228.448 229.753 228.056 229.672ZM235.317 222.715C239.018 222.009 242.629 221.244 246.15 220.419C249.71 219.603 252.97 218.56 255.929 217.293C258.896 215.986 261.378 214.354 263.376 212.397C265.374 210.44 266.677 207.992 267.285 205.053C267.601 203.525 267.556 201.963 267.15 200.367C266.745 198.772 266.032 197.276 265.013 195.88C264.042 194.454 262.841 193.245 261.411 192.255C260.029 191.234 258.495 190.549 256.81 190.201C255.282 189.885 253.829 189.993 252.453 190.526C251.123 191.027 249.829 192.149 248.57 193.891C247.311 195.632 246.015 198.143 244.684 201.423C243.776 203.441 242.812 205.633 241.792 207.996C240.781 210.32 239.789 212.546 238.818 214.675C237.894 216.772 237.118 218.552 236.488 220.015C235.867 221.44 235.512 222.265 235.424 222.492C235.408 222.571 235.372 222.645 235.317 222.715Z" fill="black"/>
<path d="M76.293 224.546C76.5572 224.571 77.6337 224.719 78.1105 224.773C77.5534 224.787 75.3324 224.459 76.293 224.546ZM125.186 224.653C124.793 224.623 124.401 224.594 124.009 224.565C125.115 224.717 126.606 224.89 127.631 225.039C127.799 225.064 127.356 225.066 127.753 225.118C128.151 225.171 128.084 225.083 128.664 225.148C129.314 225.221 132.279 225.653 133.308 225.784C137.156 226.269 141.049 226.726 144.9 227.261C140.904 226.8 144.918 227.382 146.033 227.502C146.279 227.529 146.264 227.378 150.247 227.94C152.788 228.3 150.415 228.195 154.662 228.656C151.419 228.076 154.636 228.513 157.176 228.85C157.625 228.909 161.168 229.411 162.744 229.621C163.278 229.692 164.102 229.728 164.822 229.825C165.315 229.891 165.681 229.984 166.404 230.083C167.643 230.251 168.91 230.426 170.128 230.596C172.28 230.897 174.392 231.201 176.533 231.521C174.504 231.426 178.094 231.833 178.239 231.865C179.044 232.036 175.372 231.516 176.821 231.761C178.845 232.049 180.855 232.34 182.894 232.64C181.238 232.367 185.107 232.805 185.816 232.98C185.52 232.75 194.995 234.559 196.453 234.75C196.751 234.787 194.806 234.377 199.378 235.171C199.874 235.258 199.677 235.278 199.937 235.317C200.089 235.339 201.066 235.332 202.053 235.593C202.421 235.691 200.034 235.39 205.209 236.234C203.194 235.705 212.353 237.392 214.045 237.768C213.71 237.682 213.37 237.596 213.044 237.513C214.71 237.883 215.002 237.881 215.39 237.956C216.895 238.252 218.971 238.71 220.384 238.983C222.039 239.304 222.061 239.2 223.976 239.629C223.525 239.514 223.07 239.398 222.622 239.285C223.95 239.556 225.264 239.831 226.594 240.112C223.5 239.616 227.254 240.254 227.503 240.305C227.893 240.381 227.316 240.319 227.978 240.45C228.046 240.464 227.961 240.39 228.969 240.596C229.265 240.657 229.508 240.708 229.711 240.752C231.03 241.039 230.861 241.055 231.625 241.22C231.704 241.238 231.445 241.128 232.973 241.456C237.852 242.528 232.941 241.481 232.754 241.452C232.503 241.409 234.142 241.964 230.005 240.997C231.403 241.319 231.501 241.435 231.667 241.473C231.815 241.505 234.222 242.03 234.353 242.06C235.529 242.299 234.514 242.002 234.744 242.044C234.948 242.077 237.813 242.838 238.544 242.834C239.886 243.346 237.712 242.775 235.378 242.26C235.031 242.212 237.581 242.851 237.706 242.885C240.986 243.697 239.213 243.116 239.954 243.209C240.346 243.26 241.649 243.698 240.452 243.258C243.44 244.027 241.608 243.623 241.802 243.684C242.073 243.771 243.152 244.027 243.268 244.065C243.456 244.125 242.781 243.983 243.534 244.207C243.662 244.245 244.907 244.516 243.333 244.039C245.428 244.636 245.274 244.536 245.953 244.869C247.451 245.066 246.97 245.328 247.52 245.513C249.025 246.029 248.634 245.709 248.72 245.725C249.298 245.823 253.443 247.376 254.558 247.945C254.051 247.814 251.19 246.529 250.525 246.347C248.328 245.651 253.569 247.542 251.925 247.121C252.594 247.328 253.29 247.56 253.982 247.819C254.575 248.15 254.437 248.136 254.557 248.215C254.61 248.253 254.76 248.329 255.079 248.495C255.259 248.59 255.465 248.697 255.773 248.877C255.922 248.964 256.096 249.069 256.317 249.221C256.535 249.382 256.767 249.505 257.23 250.015C257.412 250.213 257.46 250.282 257.396 250.18C257.332 250.08 257.158 249.866 256.995 249.71C256.653 249.377 256.271 249.122 255.94 248.92C255.27 248.519 254.704 248.268 255.011 248.376C255.144 248.427 255.523 248.605 255.97 248.869C256.207 249.01 256.445 249.158 256.746 249.396C256.884 249.505 257.067 249.662 257.243 249.853C257.349 249.969 257.466 250.11 257.576 250.276C257.698 250.457 257.862 250.75 257.964 251.1C258.139 251.59 258.123 252.538 257.814 253.125C257.681 253.409 257.512 253.642 257.366 253.808C257.245 253.945 257.132 254.049 257.033 254.132C256.824 254.303 256.708 254.369 256.635 254.415C256.558 254.462 256.515 254.485 256.505 254.493C256.494 254.501 256.524 254.488 256.594 254.45C256.67 254.406 256.748 254.371 256.971 254.203C257.168 254.038 257.457 253.839 257.793 253.22C258.134 252.641 258.179 251.599 257.991 251.093C257.903 250.792 257.784 250.554 257.666 250.359C257.561 250.189 257.479 250.081 257.387 249.967C257.196 249.74 257.092 249.645 256.949 249.515C256.837 249.416 256.73 249.329 256.624 249.249C256.535 249.181 256.45 249.12 256.371 249.064C256.074 248.859 255.896 248.752 256.021 248.808C256.115 248.855 256.266 248.935 256.538 249.123C256.656 249.205 256.831 249.332 257.035 249.516C257.159 249.629 257.248 249.709 257.431 249.925C257.517 250.029 257.603 250.141 257.701 250.298C257.822 250.492 257.952 250.736 258.052 251.075C258.303 251.636 258.13 253.119 257.55 253.724C257.29 254.048 257.099 254.198 256.888 254.35C256.705 254.477 256.582 254.543 256.444 254.612C256.171 254.742 256.042 254.783 255.861 254.84C255.729 254.881 255.603 254.913 255.478 254.941C255.056 255.034 254.709 255.07 254.438 255.097C253.858 255.151 253.411 255.161 253.13 255.165C252.657 255.141 252.648 255.219 254.989 254.943C253.24 255.16 252.645 254.929 251.399 255.014C250.627 255.042 254.999 255.33 248.439 255.239C248.309 255.154 251.06 255.246 251.118 255.23C251.216 255.22 250.733 255.023 250.642 255.013C250.295 255.014 243.724 254.947 242.356 254.773C242.897 254.915 237.395 254.576 236.816 254.576C236.658 254.578 237.243 254.677 237.074 254.676C236.003 254.668 233.142 254.393 231.825 254.316C230.303 254.229 230.532 254.301 230.439 254.296C229.793 254.256 230.313 254.245 229.915 254.222C229.294 254.189 225.133 253.936 224.953 253.933C224.892 253.932 225.559 254.041 224.662 254.001C224.515 253.994 224.58 253.917 221.929 253.79C218.703 253.633 224.144 254.028 222.803 254.032C220.775 253.785 220.804 253.907 220.237 253.862C220.202 253.86 220.125 253.851 220.014 253.838C219.532 253.781 218.354 253.639 217.03 253.56C218.053 253.61 219.051 253.658 220.022 253.704C220.156 253.711 220.289 253.717 220.422 253.723C220.3 253.714 220.167 253.704 220.023 253.694C218.907 253.615 217.034 253.512 216.249 253.443C215.81 253.405 216.182 253.344 215.218 253.284C215.007 253.271 214.204 253.427 216.707 253.495C216.902 253.581 215.724 253.458 215.159 253.442C215.074 253.44 214.735 253.541 214.014 253.417C213.859 253.388 215.701 253.15 210.905 253.095C210.748 253.093 211.289 253.174 211.135 253.173C211.036 253.173 209.773 253.071 209.654 253.069C209.516 253.067 210.099 253.155 209.935 253.154C209.097 253.148 208.009 252.88 209.734 253.01C209.161 252.948 208.583 252.885 208 252.822C208.616 253.01 207.081 252.802 206.253 252.751C201.101 252.431 204.542 252.759 203.653 252.749C202.208 252.729 203.299 252.553 201.193 252.484C200.987 252.477 203.575 252.762 198.531 252.354C199.283 252.402 200.029 252.449 200.768 252.496C200.361 252.326 198.064 252.319 197.911 252.311C195.949 252.194 197.294 252.236 194.336 252.103C194.078 252.092 193.517 252.017 192.959 251.996C190.643 251.905 196.004 252.253 196.158 252.321C196.215 252.353 190.455 251.943 190.237 251.913C189.394 251.794 192.876 252.073 192.216 251.953C191.959 251.91 183.743 251.381 182.079 251.231C180.173 251.061 179.337 250.808 179.307 251.022C178.785 250.772 178.297 250.882 178.052 250.862C175.099 250.629 175.111 250.627 172.566 250.462C172.01 250.426 171.545 250.327 171.347 250.324C171.232 250.322 171.441 250.406 170.878 250.386C170.094 250.358 165.399 249.942 165.052 249.878C164.707 249.814 167.038 250.008 166.624 249.914C164.939 249.784 163.308 249.679 161.614 249.546C160.908 249.491 161.274 249.474 160.969 249.451C160.841 249.441 158.393 249.297 158.497 249.321C158.74 249.377 166.271 249.91 164.283 249.84C163.897 249.826 162.553 249.625 162.759 249.764C156.034 249.237 149.307 248.703 142.581 248.163C146.455 248.366 150.798 248.777 154.848 249.072C155.404 249.113 157.279 249.265 157.055 249.186C153.611 248.912 149.33 248.622 146.027 248.331C145.921 248.321 146.314 248.295 145.918 248.256C145.18 248.184 142.758 248.09 142.355 248.036C142.286 248.025 143.665 248.056 143.251 247.978C142.188 247.777 141.896 248.021 140.976 247.947C140.265 247.891 135.49 247.396 134.288 247.384C133.013 247.372 137.812 247.705 137.451 247.748C134.205 247.57 130.925 247.241 127.854 247.011C127.8 247.007 128.264 247.098 127.581 247.053C126.393 246.974 126.089 246.872 125.507 246.813C124.878 246.751 122.669 246.589 122.379 246.538C122.342 246.531 122.794 246.489 122.862 246.492C123.824 246.535 124.159 246.662 124.247 246.671C124.576 246.7 124.903 246.687 125.204 246.713C125.698 246.755 125.976 246.813 126.622 246.866C127.07 246.904 126.643 246.801 127.075 246.838C127.232 246.852 128.936 247.142 129.11 246.994C129.167 246.951 115.128 245.785 113.717 245.71C114.912 245.824 116.12 245.94 117.33 246.054C114.866 245.813 111.948 245.709 111.741 245.502C102.889 244.781 94.0111 244.043 85.1763 243.279C84.9639 243.261 84.7524 243.243 84.5419 243.224C82.9051 243.069 83.823 243.025 81.156 242.832C81.869 242.932 82.5151 243.026 83.203 243.124C81.8747 242.985 75.7883 242.402 74.8219 242.34C74.6967 242.332 74.4916 242.425 73.0007 242.301C71.6657 242.19 71.4339 242.086 70.7282 242.006C70.1379 241.94 69.4614 241.9 69.2755 241.878C69.1368 241.862 69.0857 241.806 68.7546 241.767C67.7173 241.644 68.5416 241.863 67.5376 241.606C67.7847 241.623 68.0337 241.64 68.2847 241.657C67.0726 241.521 65.2942 241.281 67.1901 241.421C67.5071 241.444 67.2318 241.467 67.4645 241.489C76.736 242.324 69.3422 241.561 66.0708 241.331C65.2829 241.187 60.5247 240.775 60.406 240.747C60.1918 240.705 61.0009 240.726 59.9496 240.573C59.7173 240.544 53.4488 239.945 55.7202 240.081C56.2026 240.112 59.1746 240.432 59.9188 240.501C58.2401 240.185 54.2116 239.992 53.7584 239.936C51.942 239.72 57.2632 240.171 53.1733 239.722C50.0312 239.37 52.9745 239.79 51.7581 239.703C51.0937 239.659 47.542 239.141 47.6184 239.295C46.3925 239.166 47.1198 239.174 46.9688 239.15C46.8371 239.131 44.4122 238.881 43.6412 238.748C43.5464 238.732 43.8564 238.695 43.7585 238.676C43.569 238.644 41.2554 238.352 41.16 238.343C41.0993 238.339 41.6428 238.481 41.4132 238.466C41.1584 238.452 38.9166 238.117 38.7992 238.117C38.6177 238.122 41.3776 238.496 40.9065 238.503C39.6473 238.312 37.562 238.051 36.7219 237.977C36.9314 237.994 38.1612 238.18 38.5829 238.248C38.3734 238.331 35.729 237.918 36.6442 237.973C36.0712 237.929 36.4531 238.015 36.123 238.007C36.0351 238.004 35.2246 237.876 35.0648 237.869C35.0427 237.869 35.8766 238.046 35.7042 238.04C35.3896 238.032 32.9412 237.618 32.7441 237.573C32.1854 237.45 34.1868 237.747 34.3607 237.729C34.3865 237.727 32.7018 237.355 32.679 237.343C32.5923 237.242 34.4734 237.617 34.2683 237.505C33.8035 237.412 33.3392 237.318 32.8755 237.224C34.6823 237.453 38.0326 238.024 38.9191 238.058C36.2101 237.688 33.4189 237.208 33.458 237.014C33.4727 236.932 34.6335 237.075 34.5925 237.046C34.4359 236.943 32.8223 236.759 32.7653 236.745C32.7176 236.732 32.6962 236.724 32.6969 236.72C32.6969 236.72 32.6969 236.72 32.6969 236.72C32.7034 236.676 34.9871 237.023 35.1063 237.02C35.3053 237.016 34.3111 236.702 34.3199 236.669C34.3543 236.669 35.9877 236.9 35.4474 236.753C34.9041 236.607 33.4806 236.369 33.4337 236.355C33.168 236.276 35.6544 236.655 35.7374 236.645C35.7748 236.642 34.4506 236.361 34.4157 236.336C34.3853 236.312 35.4032 236.439 35.8173 236.446C36.1223 236.452 35.2564 236.278 35.4109 236.296C35.5245 236.313 37.8727 236.684 37.9896 236.691C38.1644 236.707 37.6189 236.571 37.702 236.571C37.8168 236.57 38.5789 236.704 38.4803 236.67C38.4048 236.648 35.4948 236.011 35.5195 235.963C35.5692 235.891 38.6453 236.568 35.8048 235.792C35.7823 235.786 35.0786 235.695 35.0579 235.689C34.6351 235.56 36.9013 235.841 34.1421 235.403C39.2887 236.138 34.8009 235.389 35.5807 235.377C35.8823 235.375 37.8818 235.668 37.8841 235.659C37.7064 235.564 37.0559 235.515 36.8511 235.45C36.732 235.414 38.5234 235.619 38.13 235.512C37.9306 235.46 36.0347 235.17 35.9631 235.152C35.2189 234.987 36.147 235.09 35.9873 235.033C35.8781 234.995 34.7427 234.808 34.7136 234.799C34.6653 234.784 36.2286 234.955 36.5511 234.975C36.7983 234.992 35.8892 234.811 36.0614 234.828C37.0967 234.937 39.2587 235.419 37.1846 234.886C37.0618 234.854 36.2588 234.732 36.2385 234.726C35.7574 234.588 37.221 234.817 37.493 234.809C37.9539 234.797 35.8457 234.513 37.6044 234.729C36.2961 234.469 35.5654 234.352 34.0228 234.112C38.2914 234.771 39.8231 234.78 35.0988 234.032C36.6033 234.281 36.4508 234.13 36.9041 234.2C37.174 234.245 39.3499 234.699 38.3828 234.275C38.2609 234.223 36.9344 234.06 37.3586 234.055C40.5317 234.56 37.4367 234.025 37.431 234.012C37.4933 233.89 45.2495 235.107 46.5868 235.219C48.1457 235.386 49.5395 235.416 49.8949 235.456C50.9896 235.579 50.0727 235.541 50.3153 235.592C50.5629 235.646 53.7654 235.87 53.9106 235.89C54.5268 235.983 53.8899 235.992 53.9542 236.003C54.7196 236.134 59.0002 236.511 60.1905 236.644C60.1414 236.589 57.775 236.35 59.2602 236.418C61.0279 236.499 61.0976 236.725 61.1427 236.739C69.1531 237.517 77.1894 238.222 85.2139 238.902C85.1002 238.777 79.8522 238.415 79.7414 238.388C79.3016 238.292 82.6861 238.566 85.5552 238.812C87.146 238.949 88.6085 239.081 89.0131 239.13C88.1716 239.035 87.3424 238.94 86.5261 238.845C87.948 238.831 91.0438 239.266 93.1147 239.378C93.7664 239.413 92.5238 239.258 92.5401 239.255C93.2907 239.266 94.4554 239.402 93.5709 239.399C95.3744 239.481 95.1077 239.533 96.5124 239.654C96.5808 239.66 95.9979 239.558 97.0891 239.625C97.5895 239.656 100.348 239.881 100.727 239.865C100.887 239.858 99.4898 239.534 99.3052 239.699C96.3266 239.367 98.3432 239.703 97.1905 239.604C97.0128 239.589 97.4377 239.523 94.4952 239.328C95.0694 239.194 98.4224 239.606 99.0004 239.63C100.191 239.683 95.3066 239.188 94.3873 239.254C94.8193 239.147 94.0376 239.206 92.9632 239.111C91.7569 239.004 92.2841 239.006 91.6321 238.951C89.8592 238.802 90.5824 238.963 89.1522 238.753C90.5287 239.143 86.7622 238.599 85.5884 238.421C85.5629 238.417 85.5384 238.413 85.5151 238.41C85.5397 238.412 85.5643 238.414 85.5889 238.416C87.377 238.553 89.2701 238.698 91.0766 238.835C90.9714 238.811 90.8665 238.788 90.7617 238.764C91.2499 238.807 91.7419 238.85 92.2377 238.894C92.1571 238.901 92.0765 238.908 91.9961 238.916C94.5361 239.035 95.1264 239.186 95.3385 239.205C98.0006 239.437 101.05 239.685 103.733 239.902C104.134 239.935 103.883 239.823 106.789 240.129C107.723 240.227 106.832 240.227 107.897 240.302C109.251 240.217 109.205 240.368 109.598 240.399C110.721 240.489 111.419 240.497 111.524 240.505C112.937 240.61 114.961 240.779 116.506 240.894C116.535 240.896 115.738 240.773 116.738 240.87C117.102 240.905 120.201 241.404 122.962 241.538C122.255 241.465 121.537 241.392 120.822 241.318C121.673 241.41 127.548 241.805 126.119 241.625C125.234 241.515 123.071 241.509 122.849 241.334C124.803 241.536 135.622 242.305 136.465 242.405C136.581 242.419 135.862 242.415 136.022 242.434C136.145 242.448 138.622 242.626 138.95 242.671C139.145 242.698 138.047 242.645 138.135 242.67C138.211 242.689 141.309 242.948 141.488 242.897C140.729 242.865 138.59 242.679 139.716 242.711C139.861 242.716 140.606 242.814 140.781 242.819C142.412 242.865 137.551 242.512 136.804 242.454C139.857 242.607 144.569 243.063 148.104 243.277C149.527 243.438 145.981 243.198 147.593 243.364C150.937 243.709 148.49 243.358 148.595 243.36C149.431 243.369 152.245 243.869 152.262 243.652C153.475 243.776 153.079 243.774 154.795 243.874C154.571 243.842 154.346 243.81 154.122 243.778C156.039 243.795 160.036 244.414 159.736 244.415C158.916 244.42 156.831 244.162 156.651 244.151C156.386 244.135 155.632 244.301 152.747 243.885C151.547 243.944 157.341 244.331 154.698 244.234C156.482 244.352 163.786 245 164.848 245.012C164.975 245.013 164.401 244.822 166.204 245.031C167.059 245.13 164.989 244.979 165.38 245.041C166.575 245.237 183.018 246.369 186.14 246.582C186.342 246.596 186.266 246.636 186.466 246.65C187.087 246.693 189.326 246.784 190.405 246.881C188.149 246.636 192.565 246.942 193.677 247.029C195.354 247.16 195.27 247.236 196.002 247.304C198.814 247.567 203.23 247.677 205.422 248.005C205.299 247.819 209.225 248.35 211.007 248.469C212.428 248.564 214.421 248.576 212.564 248.382C214.963 248.548 217.533 248.681 219.783 248.811C220.15 248.832 219.643 248.853 220.267 248.887C220.282 248.888 220.298 248.886 220.324 248.882C220.4 248.871 220.557 248.852 220.97 248.873C225.471 249.106 223.297 249.081 224.139 249.165C224.618 249.212 224.966 249.242 225.22 249.261C223.506 249.164 221.697 249.064 220.317 248.984C219.593 248.943 219.015 248.91 218.723 248.892C218.929 248.939 219.541 248.989 220.314 249.038C222.205 249.158 225.038 249.27 226.063 249.352C226.114 249.356 225.933 249.408 225.985 249.412C225.986 249.412 225.987 249.412 225.988 249.412C226.58 249.453 230.156 249.636 229.43 249.519C229.204 249.486 227.592 249.394 225.605 249.282C226.128 249.299 225.743 249.206 225.835 249.208C226.991 249.243 229.775 249.473 230.758 249.537C230.98 249.551 230.966 249.505 231.002 249.507C231.885 249.567 231.535 249.676 232.466 249.594C234.086 249.845 229.412 249.449 229.733 249.57C229.946 249.675 240.405 250.176 240.36 250.03C240.395 250.045 240.541 250.069 240.831 250.101C241.446 250.173 244.386 250.276 244.861 250.266C244.947 250.264 244.917 250.14 245.024 250.143C245.277 250.153 248.815 250.353 250.102 250.28C249.401 250.258 248.683 250.229 247.99 250.196C252.228 250.264 251.569 250.184 250.166 250.154C250.098 250.153 250.031 250.148 249.965 250.147C248.865 250.112 247.463 250.051 247.428 250.04C247.379 250.053 254.498 250.001 253.104 250.099C252.949 250.149 249.666 250.116 251.291 250.189C251.575 250.212 253.651 250.124 253.707 250.107C254.474 250.17 249.961 250.359 250.488 250.413C251.606 250.334 253.127 250.373 254.164 250.225C254.614 250.148 254.381 250.099 254.235 250.186C254.122 250.258 253.859 250.346 253.516 250.874C253.365 251.113 253.245 251.48 253.231 251.78C253.212 252.083 253.26 252.31 253.305 252.464C253.482 252.981 253.578 253.001 253.62 253.072C253.67 253.129 253.678 253.131 253.69 253.141C253.71 253.154 253.712 253.147 253.718 253.143C253.723 253.132 253.747 253.136 253.724 253.118C253.864 253.135 252.049 252.342 252.456 252.348C249.368 251.054 248.782 251.013 249.672 251.326C250.088 251.489 250.863 251.785 251.704 252.152C252.135 252.34 252.578 252.546 252.989 252.763C253.187 252.869 253.385 252.982 253.531 253.078C253.604 253.125 253.661 253.168 253.68 253.183C253.689 253.171 253.688 253.264 253.425 252.833C253.594 253.136 253.649 253.155 253.668 253.187C253.686 253.208 253.665 253.192 253.629 253.17C253.558 253.123 253.413 253.035 253.265 252.953C252.948 252.776 252.541 252.575 252.118 252.382C251.285 252.002 250.392 251.651 249.84 251.452C249.443 251.311 249.645 251.451 248.976 251.223C247.602 250.682 240.711 248.597 238.868 248.154C239.983 248.419 239.681 248.269 238.817 248.052C237.94 247.833 238.654 248.11 238.48 248.076C238.302 248.031 234.23 246.997 233.531 246.859C236.621 247.548 235.953 247.317 233.328 246.701C233.703 246.766 234.097 246.837 234.481 246.907C232.939 246.569 229.723 245.756 228.808 245.598C228.665 245.573 229.164 245.738 229.083 245.723C228.978 245.704 228.839 245.677 228.676 245.643C227.624 245.424 225.606 244.96 225.492 244.955C225.377 244.947 226.522 245.235 226.09 245.169C225.998 245.155 224.904 244.848 223.824 244.647C223.415 244.57 223.65 244.674 223.546 244.656C222.702 244.511 223.21 244.519 221.667 244.224C220.523 244.006 219.675 243.929 218.107 243.593C223.235 244.719 218.911 243.812 216.755 243.436C216.415 243.377 216.68 243.526 214.635 243.09C219.059 243.748 213.4 242.755 212.242 242.546C212.179 242.533 212.173 242.466 211.606 242.36C211.557 242.351 211.621 242.408 211.087 242.314C206.089 241.442 209.291 241.971 208.35 241.757C207.943 241.664 205.489 241.295 204.848 241.186C204.697 241.16 204.776 241.127 204.188 241.027C203.155 240.852 202.218 240.742 201.537 240.63C201.456 240.617 201.477 240.546 200.17 240.35C199.796 240.294 199.393 240.253 199.902 240.359C201.612 240.714 204.873 241.152 206.796 241.563C208.551 241.933 202.972 240.962 202.7 240.921C202.594 240.903 203.685 241.053 202.583 240.858C201.629 240.688 199.891 240.521 198.497 240.263C198.39 240.243 197.276 239.951 197.334 239.955C197.369 239.956 199.12 240.222 198.869 240.15C198.843 240.142 197.731 239.958 197.596 239.913C197.429 239.857 197.004 239.511 196.771 239.466C196.171 239.35 196.554 239.476 196.163 239.408C195.328 239.261 192.446 238.716 192.341 238.796C192.821 238.878 193.279 238.957 193.77 239.042C191.115 238.627 192.238 238.848 191.858 238.805C191.45 238.76 191.564 238.693 190.677 238.545C190.491 238.513 186.729 237.945 186.788 237.99C188.878 238.257 188.084 238.239 188.182 238.256C188.536 238.317 189.02 238.335 189.51 238.412C192.921 238.958 189.471 238.507 190.271 238.657C190.549 238.708 191.1 238.746 191.225 238.768C191.613 238.838 191.609 238.902 191.868 238.938C192.47 239.022 191.784 238.82 191.832 238.823C192.38 238.852 194.452 239.256 193.134 239.145C193.911 239.306 194.031 239.203 194.642 239.351C195.852 239.644 194.023 239.322 193.506 239.256C191.711 239.026 191.186 238.895 188.622 238.511C187.719 238.376 186.618 238.265 186.184 238.202C185.928 238.164 183.412 237.575 183.293 237.88C182.334 237.703 180.787 237.259 179.79 237.121C178.878 236.995 179.15 237.15 179.065 237.141C178.933 237.129 177.821 236.956 177.456 236.919C177.019 236.874 177.231 236.948 176.535 236.864C174.787 236.654 174.865 236.549 174.686 236.516C172.647 236.134 173.518 236.426 173.059 236.373C172.822 236.345 171.175 236.095 169.39 235.835C167.762 235.596 166.011 235.348 165.417 235.286C165.928 235.334 166.437 235.381 166.958 235.431C166.037 235.23 165.076 235.215 165.071 235.084C164.864 235.265 162.97 234.864 162.417 234.794C162.194 234.765 162.207 234.803 161.928 234.766C160.832 234.622 158.373 234.26 157.776 234.198C155.196 233.927 161.745 234.943 162.256 235.023C161.225 234.877 155.367 234.132 158.046 234.595C158.46 234.667 159.205 234.674 159.437 234.702C161.019 234.893 159.765 234.806 159.886 234.831C160.098 234.873 161.154 234.935 161.426 234.982C161.516 234.998 160.921 234.992 162.42 235.199C161.675 235.17 157.45 234.536 156.885 234.478C156.688 234.458 157.901 234.778 154.305 234.142C154.346 234.162 154.386 234.182 154.426 234.202C152.4 233.937 150.38 233.675 148.367 233.416C148.591 233.412 149.731 233.494 148.304 233.321C147.481 233.221 148.079 233.375 148.004 233.367C147.262 233.284 134.205 231.566 131.671 231.257C130.81 231.15 128.401 230.905 128.217 230.883C127.122 230.75 123.249 230.222 122.475 230.133C121.991 230.078 122.442 230.198 122.012 230.14C121.611 230.087 122.034 230.08 121.915 230.062C120.928 229.915 113.426 229.059 111.65 228.783C112.734 228.933 118.181 229.49 118.079 229.435C118.057 229.427 116.739 229.216 116.464 229.204C116.019 229.096 114.464 229.063 113.622 228.927C113.527 228.911 113.912 228.869 112.414 228.667C111.899 228.598 110.54 228.499 109.185 228.254C107.211 228.045 96.8646 226.661 96.1391 226.671C96.1162 226.673 97.5809 226.885 96.5839 226.803C95.2629 226.694 96.4614 226.663 94.9387 226.462C94.7203 226.433 90.4617 225.934 90.3175 225.927C89.017 225.869 92.7232 226.359 92.6705 226.364C92.5368 226.377 89.4525 226.02 89.3242 225.998C89.205 225.977 91.7432 226.152 88.7091 225.835C89.0521 225.892 89.3966 225.949 89.7425 226.007C88.3137 225.865 88.1966 225.759 87.8552 225.712C86.7722 225.564 85.6143 225.562 83.9081 225.185C83.4565 225.085 84.2214 225.127 84.1653 225.114C83.6219 224.987 82.9042 225.064 82.1085 224.846C82.0411 224.829 83.9694 224.988 80.6233 224.585C80.8523 224.624 81.0823 224.664 81.3132 224.703C80.8278 224.671 77.4561 224.281 77.0027 224.22C75.6859 224.044 76.8683 224.102 75.5117 223.949C76.3473 224.164 72.305 223.694 72.5368 223.623C71.9517 223.677 68.5458 223.174 66.9018 222.974C66.7188 222.952 66.5025 222.927 66.2707 222.902C65.1513 222.78 63.7545 222.649 63.4638 222.609C63.067 222.553 63.1928 222.484 62.4918 222.381C62.3092 222.354 60.1366 222.156 58.3017 221.848C57.9294 221.787 57.1917 221.555 57.8679 221.6C59.0362 221.678 61.1904 222.052 61.1704 221.965C61.1542 221.872 58.2277 221.576 57.4244 221.468C53.7941 220.978 55.914 221.135 55.8139 221.094C55.5988 220.997 53.5969 220.76 53.5041 220.743C53.1614 220.673 54.5872 220.788 54.6064 220.746C54.649 220.695 52.729 220.363 53.1718 220.397C53.8046 220.446 55.5639 220.742 55.6702 220.75C57.1125 220.868 55.162 220.504 54.6042 220.373C54.4397 220.334 55.1077 220.381 54.9706 220.359C52.8951 220.023 54.4983 220.486 53.1053 220.301C51.8699 220.137 53.4703 220.243 53.426 220.233C53.3731 220.222 51.8584 220.036 51.6485 219.98C51.5154 219.949 55.4301 220.251 55.2867 220.159C54.0457 220.027 52.7879 219.893 51.5613 219.762C51.4668 219.654 53.2533 219.939 53.4279 219.95C53.7991 219.974 52.7787 219.803 52.8322 219.778C52.8511 219.761 54.0604 219.836 52.9825 219.678C52.6032 219.623 51.7955 219.594 50.4374 219.362C55.2414 219.848 51.9046 219.394 51.7879 219.345C51.6418 219.293 53.9436 219.487 51.1652 219.169C51.0618 218.967 51.2477 219.119 52.0263 219.179C52.9923 219.254 50.7694 218.925 54.3032 219.395C54.0877 219.281 51.2952 218.953 51.1168 218.924C50.9859 218.902 51.6292 218.936 51.4029 218.894C48.76 218.406 50.5761 218.702 49.8261 218.502C49.7564 218.484 47.2473 218.143 49.1611 218.356C52.6492 218.745 54.1094 219.045 54.7116 218.848C52.1565 218.425 48.9959 218.221 48.2176 218.131C47.0163 217.992 48.2771 218.087 48.1228 218.054C48.102 218.049 47.8267 218.016 47.5566 217.983C47.2952 217.952 47.0331 217.921 47.0237 217.917C46.3059 217.626 51.6302 218.465 53.3118 218.63C52.894 218.55 52.3991 218.46 51.9738 218.378C52.572 218.449 53.1978 218.522 53.8038 218.593C50.9026 218.185 53.693 218.557 54.4566 218.482C54.6399 218.467 52.6924 218.298 54.8904 218.457C53.2868 218.241 53.8191 218.271 52.3374 218.14C52.3955 218.081 55.6929 218.4 56.9753 218.519C52.3997 217.897 55.014 218.454 51.0517 217.851C50.3104 217.845 52.2155 218.056 52.0443 218.05C51.4744 218.03 50.2212 217.803 48.6209 217.783C48.364 217.78 49.4262 217.994 47.8392 217.8C47.6551 217.777 46.6521 217.583 46.6733 217.58C46.8065 217.538 47.8077 217.68 47.8592 217.662C47.8933 217.643 46.7754 217.523 46.7741 217.517C46.7444 217.44 47.7121 217.601 47.5716 217.561C47.2714 217.476 43.2768 216.842 48.5153 217.514C44.1629 217.076 47.9424 217.526 49.6571 217.699C50.0876 217.743 50.1929 217.712 50.8265 217.773C51.61 217.847 52.5344 217.979 52.9637 218.022C53.4027 218.066 50.8998 217.664 54.5333 218.129C52.7035 217.808 49.4072 217.522 47.604 217.235C43.9644 216.655 50.1726 217.366 50.8381 217.432C51.0131 217.449 50.431 217.321 50.5483 217.331C50.7332 217.348 54.2559 217.796 54.6196 217.791C54.9813 217.786 53.3105 217.637 53.2258 217.576C53.1276 217.531 57.4512 217.988 55.1107 217.684C53.5161 217.477 50.6025 217.266 50.1057 217.059C52.4671 217.33 54.7673 217.593 57.1249 217.863C55.8418 217.653 54.5847 217.447 53.3072 217.238C55.913 217.532 58.1997 217.869 60.699 218.088C54.7145 217.192 62.6347 218.176 62.7475 218.168C62.7654 218.157 60.4529 217.735 60.0514 217.66C62.16 217.857 68.4751 218.585 64.8147 217.967C65.2929 218.055 66.3264 218.131 66.838 218.163C67.0047 218.172 67.1086 218.177 67.1034 218.174C67.0759 218.16 66.9819 218.14 66.8436 218.116C65.9467 217.968 63.4247 217.696 63.9209 217.694C64.6313 217.695 65.512 217.914 66.5767 218.032C66.6694 218.042 66.7605 218.052 66.85 218.062C71.8352 218.601 70.5662 218.049 75.7963 218.741C75.6915 218.714 75.5869 218.686 75.4826 218.659C81.2831 219.378 87.0724 220.1 92.8439 220.824C95.1312 220.975 101.17 221.635 104.123 222.012C104.725 222.088 107.631 222.512 107.858 222.552C108.265 222.625 106.009 222.355 107.023 222.522C107.244 222.557 112.188 223.196 111.844 223.083C111.291 223.006 109.543 222.826 109.263 222.775C107.281 222.408 122.542 224.399 123.305 224.451C122.97 224.386 122.635 224.321 122.3 224.256C123.261 224.388 124.223 224.52 125.186 224.653ZM80.215 224.817C79.6328 224.818 78.1888 224.591 77.326 224.508C76.163 224.396 74.0864 224.42 74.9939 224.255C76.7491 224.444 78.497 224.632 80.215 224.817ZM105.595 228.009C104.437 227.829 105.356 227.789 106.304 227.969C106.41 227.989 107.166 228.254 105.595 228.009ZM93.3945 226.445C93.4454 226.449 94.4547 226.576 94.4863 226.582C95.382 226.752 92.344 226.37 93.3945 226.445ZM152.354 233.809C151.075 233.645 151.984 233.906 152.783 233.955C152.834 233.958 152.438 233.82 152.354 233.809ZM151.445 233.684C150.464 233.429 148.425 233.413 150.022 233.598C150.178 233.617 151.491 233.696 151.445 233.684ZM101.452 227.44C101.588 227.409 102.785 227.578 103.3 227.653C103.28 227.694 101.953 227.496 101.452 227.44ZM131.904 231.227C131.961 231.196 127.787 230.667 127.497 230.681C128.158 230.743 131.853 231.254 131.904 231.227ZM142.608 232.552C142.504 232.532 141.064 232.354 141.101 232.393C141.799 232.527 143.078 232.642 142.608 232.552ZM163.852 235.391C163.929 235.394 162.886 235.038 165.417 235.527C165.788 235.599 164.446 235.468 164.577 235.494C164.854 235.547 165.073 235.584 165.249 235.61C164.065 235.463 162.808 235.299 162.7 235.271C162.149 235.135 163.814 235.389 163.852 235.391ZM175.004 236.808C175.243 236.807 176.826 237.056 177.171 237.121C177.231 237.133 176.955 237.183 177.653 237.278C178.214 237.355 177.381 237.14 178.485 237.317C179.603 237.497 178.097 237.341 178.192 237.36C178.328 237.386 180.057 237.6 179.992 237.644C179.956 237.679 178.092 237.376 177.65 237.32C177.07 237.246 177.764 237.414 176.796 237.258C176.184 237.16 176.541 237.095 176.412 237.07C176.301 237.049 174.15 236.805 175.007 236.808C175.006 236.808 175.005 236.808 175.004 236.808ZM165.57 235.649C165.48 235.641 165.375 235.628 165.249 235.61C165.357 235.623 165.464 235.636 165.57 235.649ZM83.5889 225.173C84.1922 225.281 82.3818 225.109 81.7226 224.983C81.7116 224.943 83.4884 225.155 83.5889 225.173ZM166.683 235.709C168.457 235.986 167.134 235.841 165.57 235.649C166.069 235.696 166.082 235.615 166.683 235.709ZM116.464 229.204C116.538 229.222 116.584 229.242 116.587 229.264C116.394 229.216 116.378 229.201 116.464 229.204ZM120.59 229.76C122.016 229.871 119.136 229.512 119.15 229.563C119.156 229.582 120.533 229.755 120.59 229.76ZM153.996 234.034C153.867 234.011 155.909 234.078 152.963 233.839C154.522 234.071 152.867 233.872 152.894 233.894C152.946 233.952 155.582 234.255 156.148 234.354C156.612 234.324 154.425 234.113 153.999 234.035C153.998 234.035 153.997 234.035 153.996 234.034ZM195.016 239.917C194.666 239.915 193.528 239.714 192.787 239.592C193.131 239.593 194.275 239.794 195.016 239.917ZM117.713 240.93C122.931 241.292 123.61 241.564 118.823 241.1C118.729 241.091 117.396 240.927 117.713 240.93ZM162.604 244.424C163.089 244.556 161.459 244.45 160.388 244.331C160.146 244.304 159.255 244.14 160.282 244.198C160.241 244.311 161.823 244.473 162.604 244.424ZM167.694 235.788C168.007 235.793 168.695 235.891 169.367 235.995C169.832 236.066 170.29 236.141 170.625 236.192C170.386 236.183 169.896 236.121 169.36 236.045C168.755 235.959 168.089 235.854 167.694 235.788ZM134.889 242.385C135.441 242.435 135.821 242.38 135.726 242.366C135.3 242.302 134.263 242.289 134.889 242.385ZM162.582 235.07C162.507 235.021 164.624 235.275 164.754 235.389C164.309 235.32 162.623 235.099 162.582 235.07ZM193.597 239.659C193.275 239.588 194.97 239.826 195.459 239.925C195.417 239.959 193.815 239.707 193.597 239.659ZM143.768 243.037C144.262 243.082 145.497 243.178 145.635 243.155C145.809 243.126 143.997 243.002 143.768 243.037ZM52.0082 235.33C51.9493 235.309 53.8443 235.404 54.7066 235.522C56.3039 235.743 52.0758 235.351 52.0082 235.33ZM129.664 242.024C128.112 241.824 129.836 242.034 129.775 241.946C128.723 241.862 126.127 241.655 127.907 241.876C128.254 241.919 129.175 241.98 129.664 242.024ZM131.103 242.163C131.272 242.149 132.397 242.151 131.429 242.082C130.983 242.051 130.247 242.088 131.103 242.163ZM63.7868 236.487C65.179 236.696 58.7832 236.038 58.6338 236.005C58.538 235.989 58.4716 235.975 58.4357 235.966C58.1876 235.965 56.9868 235.848 56.8622 235.775C57.2096 235.816 58.1997 235.911 58.3192 235.929C58.3692 235.937 58.4066 235.943 58.4323 235.949C58.8285 235.94 63.5631 236.454 63.7868 236.487ZM74.3501 237.534C72.7685 237.502 72.4872 237.291 72.6291 237.298C74.3691 237.378 73.2254 237.412 73.2823 237.424C73.3963 237.445 74.6256 237.491 74.3451 237.534C74.3468 237.534 74.3485 237.534 74.3501 237.534ZM65.9512 236.722C65.891 236.719 64.5568 236.587 64.4956 236.579C63.4058 236.413 67.1826 236.785 65.9512 236.722ZM183.401 237.919C184.355 238.082 183.401 238.006 182.785 237.889C182.733 237.878 182.576 237.778 183.401 237.919ZM131.869 242.204C132.085 242.234 137.782 242.722 137.444 242.592C136.965 242.568 130.491 242.015 131.869 242.204ZM174.423 245.428C173.415 245.354 174.521 245.337 175.054 245.412C175.252 245.44 174.676 245.447 174.423 245.428ZM159.763 234.596C158.728 234.509 158.965 234.361 159.848 234.543C159.882 234.55 159.804 234.6 159.763 234.596ZM166.403 244.784C169.86 244.98 169.031 245.227 164.531 244.791C164.674 244.788 164.816 244.785 164.958 244.781C159.764 244.35 164.601 244.734 165.879 244.811C166.363 244.84 165.962 244.759 166.4 244.784C166.401 244.784 166.402 244.784 166.403 244.784ZM179.705 245.817C183.025 246.275 176.657 245.673 174.838 245.569C176.617 245.608 178.904 245.788 175.79 245.469C180.368 245.783 178.464 245.732 178.643 245.752C178.86 245.776 179.564 245.797 179.705 245.817ZM170.905 245.178C170.713 245.171 169.262 245.02 168.735 244.988C169.478 244.968 172.187 245.229 170.905 245.178ZM85.4671 238.448C85.3405 238.496 85.0245 238.513 83.8789 238.393C84.2342 238.394 84.9746 238.432 85.4671 238.448ZM79.1621 224.382C78.3752 224.283 76.8031 224.072 77.2782 224.19C77.321 224.201 79.172 224.417 79.1621 224.382ZM148.401 243.517C148.569 243.537 152.911 243.869 151.416 243.692C150.965 243.639 147.013 243.348 148.401 243.517ZM125.92 241.782C126.289 241.811 127.757 241.914 127.791 241.903C127.893 241.863 126.087 241.749 125.92 241.782ZM75.1957 223.845C75.0846 223.825 72.7062 223.551 72.9544 223.609C73.4728 223.725 75.5373 223.907 75.1957 223.845ZM186.885 238.313C187.086 238.342 187.34 238.445 187.409 238.456C187.563 238.48 191.224 239.028 189.817 238.89C189.564 238.861 184.352 238.025 183.646 237.913C183.397 237.787 185.638 238.212 186.173 238.285C186.27 238.299 186.345 238.236 186.883 238.313C186.884 238.313 186.884 238.313 186.885 238.313ZM79.4906 237.997C79.3306 238.04 75.0071 237.697 75.0418 237.632C76.5479 237.757 78 237.876 79.4906 237.997ZM81.6901 238.197C82.6274 238.316 80.422 238.14 79.804 238.068C79.795 238.03 81.5473 238.179 81.6901 238.197ZM134.128 242.626C134.565 242.646 133.23 242.462 133.531 242.47C133.724 242.475 134.696 242.58 135.01 242.579C135.099 242.578 134.109 242.425 133.822 242.406C133.413 242.379 133.804 242.469 133.359 242.435C131.882 242.323 130.576 242.179 129.186 242.072C129.061 242.062 130.029 242.18 128.961 242.096C128.795 242.083 127.809 241.944 126.537 241.854C123.689 241.826 121.636 241.474 118.059 241.262C118.189 241.291 120.859 241.55 121.02 241.565C124.006 241.832 129.369 242.254 132.503 242.496C133.306 242.559 132.92 242.487 133.266 242.513C133.54 242.533 133.208 242.583 134.128 242.626ZM79.5797 224.389C79.23 224.271 77.8832 224.157 77.0529 224.053C77.3268 224.156 78.7888 224.277 79.5797 224.389ZM101.143 239.879C101.559 239.91 102.864 240.039 102.975 240.025C103.115 240.006 101.232 239.835 101.143 239.879ZM207.41 241.718C207.449 241.723 208.46 241.907 208.494 241.916C209.379 242.135 206.374 241.588 207.41 241.718ZM231.247 246.425C231.988 246.579 232.759 246.729 232.994 246.846C232.515 246.726 231.151 246.447 231.247 246.425ZM247.07 250.051C247.237 250.138 244.933 250.017 244.484 249.991C244.651 249.963 246.973 249.992 247.07 250.051ZM85.6141 238.716C85.5971 238.714 85.5803 238.713 85.5638 238.711C84.1783 238.592 84.4571 238.735 83.5724 238.604C83.4295 238.583 82.9693 238.288 84.5253 238.516C84.8067 238.557 83.7065 238.523 85.5639 238.71C85.5803 238.712 85.5971 238.714 85.6141 238.716ZM163.796 244.734C163.432 244.761 162.308 244.661 161.547 244.601C161.721 244.574 163.255 244.698 163.796 244.734ZM70.8773 223.266C70.1955 223.108 67.1518 222.8 67.8964 222.939C68.0287 222.962 70.418 223.208 70.8773 223.266ZM171.305 236.051C172.444 236.159 170.426 235.851 169.402 235.747C169.302 235.738 169.212 235.73 169.137 235.724C169.196 235.732 169.287 235.745 169.4 235.762C170.017 235.852 171.235 236.044 171.305 236.051ZM254.371 249.985C254.422 249.97 254.356 249.998 254.069 250.031C253.817 250.06 253.497 250.078 253.467 250.079C252.971 250.075 253.615 250.039 254.103 249.981C254.33 249.962 254.505 249.891 254.246 250C254.106 250.063 253.938 250.188 254.001 250.151C254.044 250.121 254.323 249.984 254.371 249.985ZM223.447 244.68C223.941 244.729 227.033 245.41 227.719 245.607C227.028 245.53 222.861 244.621 223.447 244.68ZM91.4313 239.169C90.4073 239.087 89.4941 238.995 88.5421 238.894C88.7705 238.872 91.3118 239.129 91.4313 239.169ZM250.166 250.154C250.098 250.153 250.031 250.148 249.965 250.147C250.034 250.149 250.101 250.152 250.166 250.154ZM114.073 241.037C114.916 241.121 114.747 241.032 114.695 241.025C114.061 240.95 113.122 240.943 114.073 241.037ZM78.6331 224.163C78.3406 224.059 76.909 223.94 76.1109 223.828C76.336 223.909 77.9579 224.089 78.6331 224.163ZM183.267 246.213C184.326 246.363 179.985 246.138 179.075 246.024C179.015 245.974 183.101 246.191 183.267 246.213ZM167.423 235.401C167.345 235.336 165.524 235.147 165.907 235.226C166.136 235.274 167.473 235.441 167.423 235.401ZM176.892 245.834C176.486 245.821 175.542 245.7 175.878 245.692C176.31 245.682 176.997 245.837 176.892 245.834ZM140.346 243.151C140.523 243.173 142.92 243.301 141.935 243.171C141.252 243.081 141.137 243.15 140.976 243.138C140.8 243.124 136.953 242.735 140.346 243.151ZM207.55 247.952C206.621 247.91 205.561 247.814 204.611 247.751C205.003 247.745 207.15 247.881 207.55 247.952ZM174.386 236.375C174.171 236.319 168.25 235.464 171.604 236.008C171.782 236.037 175.045 236.535 174.386 236.375ZM85.6141 238.716C85.7889 238.731 85.991 238.751 86.2264 238.776C85.9924 238.754 85.7899 238.733 85.6141 238.716ZM101.698 240.057C101.37 240.069 103.006 240.213 103.498 240.232C103.65 240.196 101.74 240.055 101.698 240.057ZM204.535 247.801C203.994 247.786 202.976 247.693 202.316 247.65C202.414 247.621 204.309 247.749 204.535 247.801ZM242.776 250.093C241.694 250.029 240.378 249.98 240.348 250.023C240.326 250.015 240.273 250.005 240.185 249.994C240.075 249.982 238.958 249.951 238.439 249.911C235.443 249.701 250.063 250.343 241.565 250.125C241.981 250.115 242.384 250.105 242.776 250.093ZM219.262 243.737C218.664 243.564 216.971 243.305 217.403 243.41C217.708 243.483 219.854 243.908 219.262 243.737ZM242.22 248.885C242.051 248.826 240.43 248.426 240.388 248.446C241.303 248.717 243.01 249.152 242.22 248.885ZM214.641 242.784C214.258 242.704 213.762 242.7 213.807 242.712C214.176 242.813 215.274 242.953 214.641 242.784ZM88.5202 239.195C89.1201 239.271 90.9017 239.357 91.318 239.334C91.3914 239.351 91.5903 239.382 91.9584 239.43C91.9573 239.43 91.9562 239.43 91.955 239.43C92.4277 239.497 107.237 240.733 97.3181 239.811C97.0075 239.782 97.4402 239.869 96.1682 239.755C96.0838 239.748 96.0451 239.702 95.7853 239.679C95.1754 239.624 92.0573 239.34 91.397 239.318C91.3922 239.31 91.3516 239.299 91.2647 239.285C90.4879 239.16 88.0862 239.14 88.5202 239.195ZM245.374 249.796C245.071 249.685 244.04 249.394 243.935 249.403C244.429 249.563 246.109 250.059 245.374 249.796ZM174.225 236.198C173.551 236.07 171.795 235.876 172.318 235.982C172.642 236.046 175.008 236.346 174.225 236.198ZM235.121 247.083C238.919 248.043 236.032 247.297 236.629 247.385C236.138 247.285 235.619 247.181 235.121 247.083ZM70.2992 237.467C70.9109 237.536 70.1859 237.577 69.479 237.454C69.26 237.416 69.9437 237.428 70.2992 237.467ZM42.0358 234.497C42.5507 234.665 39.976 234.25 40.9915 234.327C41.0435 234.332 41.9951 234.489 42.0358 234.497ZM61.74 236.737C62.1637 236.713 62.4844 236.736 63.6491 236.864C61.9024 236.714 63.5217 236.928 61.74 236.737ZM240.36 250.03C240.353 250.027 240.347 250.025 240.348 250.023C240.356 250.025 240.359 250.028 240.36 250.03ZM210.983 242.124C210.519 241.983 209.144 241.739 209.543 241.867C209.586 241.88 210.782 242.128 210.983 242.124ZM91.318 239.334C91.253 239.319 91.287 239.315 91.397 239.318C91.4015 239.326 91.3726 239.331 91.318 239.334ZM218.3 243.456C218.243 243.486 220.307 243.907 220.395 243.921C221.591 244.086 219.164 243.62 218.3 243.456ZM160.397 234.206C160.288 234.195 160.975 234.396 161.407 234.413C161.742 234.426 160.807 234.245 160.397 234.206ZM57.6674 236.36C57.0069 236.293 56.0747 236.197 55.9014 236.129C56.3645 236.185 57.6781 236.324 57.6674 236.36ZM43.0391 234.701C43.8198 234.746 45.6241 234.975 46.7449 235.119C46.7516 235.201 43.7703 234.784 43.0391 234.701ZM86.7069 239.013C86.7566 239.021 88.4339 239.185 88.2104 239.114C87.8747 239.01 86.2395 238.946 86.7069 239.013ZM163.617 234.703C164.369 234.771 162.667 234.425 161.878 234.403C161.474 234.392 163.479 234.69 163.617 234.703ZM206.746 241.291C205.77 241.149 208.165 241.626 208.516 241.635C208.068 241.55 207.088 241.34 206.746 241.291ZM239.597 248.034C236.651 247.119 238.192 247.809 238.747 247.923C238.827 247.939 239.67 248.057 239.597 248.034ZM63.2085 222.032C62.7562 222 64.4258 222.279 64.617 222.25C64.7593 222.234 63.4922 222.052 63.2085 222.032ZM225.22 249.261C225.35 249.268 225.479 249.275 225.605 249.282C225.51 249.279 225.385 249.272 225.22 249.261ZM197.93 239.575C200.075 240.154 199.849 239.946 200.046 239.979C200.463 240.051 201.387 240.268 202.154 240.388C201.278 240.264 200.392 240.14 199.513 240.019C200.215 240.146 206.196 241.256 206.334 241.249C206.518 241.229 204.633 240.916 204.576 240.902C204.498 240.882 204.225 240.691 204.048 240.655C203.77 240.594 198.743 239.741 197.93 239.575ZM233.312 246.53C233.787 246.656 233.914 246.743 234.146 246.783C234.224 246.797 234.25 246.747 234.516 246.795C234.114 246.706 233.704 246.615 233.312 246.53ZM194.027 239.14C193.431 238.977 196.155 239.442 196.256 239.467C196.716 239.587 194.524 239.273 194.027 239.14ZM217.277 243.21C217.178 243.186 215.082 242.765 215.098 242.806C215.639 242.935 218.454 243.485 217.277 243.21ZM234.84 246.867C235.552 247.04 236.924 247.43 236.778 247.311C236.777 247.311 236.776 247.311 236.775 247.31C236.148 247.164 235.467 247.008 234.84 246.867ZM166.181 234.886C164.831 234.569 165.451 234.819 166.668 235.03C167.051 235.025 166.399 234.937 166.181 234.886ZM161.783 234.183C161.4 234.106 157.44 233.594 158.034 233.744C158.249 233.797 160.519 234.043 160.633 234.064C160.791 234.093 160.052 234.068 161.273 234.219C161.206 234.184 161.914 234.208 161.783 234.183ZM165.057 234.647C163.699 234.36 163.36 234.496 164.397 234.64C164.802 234.696 165.251 234.688 165.057 234.647ZM170.658 235.447C170.415 235.404 169.972 235.331 169.471 235.259C168.968 235.187 168.406 235.116 167.942 235.082C168.453 235.156 168.96 235.229 169.465 235.303C170.175 235.406 170.879 235.508 171.575 235.61C171.718 235.597 171.089 235.523 170.654 235.446C170.656 235.446 170.657 235.446 170.658 235.447ZM34.7986 233.937C35.8712 234.167 33.3761 233.773 33.2703 233.742C32.9636 233.649 34.3183 233.835 34.7986 233.937ZM54.8654 219.382C54.559 219.325 54.3998 219.238 53.7017 219.19C54.4019 219.324 55.0194 219.448 55.7102 219.58C56.2391 219.529 55.2005 219.445 54.8654 219.382ZM52.3472 218.663C52.4435 218.672 51.941 218.436 53.1635 218.699C53.9996 218.879 49.4578 218.413 48.6623 218.24C49.56 218.311 51.5385 218.589 52.3472 218.663ZM44.5436 216.969C44.4847 216.948 46.2279 217.135 46.404 217.166C47.4544 217.344 44.8173 217.076 44.5436 216.969ZM50.0031 217.655C49.2159 217.527 50.9878 217.716 51.5132 217.799C51.5573 217.837 50.1221 217.674 50.0031 217.655ZM45.4618 238.026C46.2996 238.248 47.129 238.091 45.7759 237.979C45.712 237.973 45.4261 238.016 45.4618 238.026ZM46.2376 216.994C47.0373 217.123 45.2507 216.932 44.7297 216.85C44.6775 216.811 46.1233 216.975 46.2376 216.994ZM46.033 238.381C47.202 238.608 46.8075 238.271 46.6729 238.243C46.0559 238.125 44.0426 237.988 43.5965 237.957C46.6699 238.303 45.4906 238.272 46.033 238.381ZM51.397 238.824C52.4689 238.911 49.7343 238.552 49.2032 238.57C49.7366 238.628 51.1063 238.802 51.397 238.824ZM57.911 239.598C58.4906 239.667 60.2034 239.861 60.5009 239.845C59.8507 239.79 58.1774 239.579 57.911 239.598ZM59.1992 239.863C60.1012 240.014 60.3403 239.858 59.284 239.807C59.2432 239.805 59.1664 239.856 59.1992 239.863ZM64.2763 240.419C64.8813 240.548 65.5605 240.438 64.6009 240.343C64.3095 240.314 64.2136 240.405 64.2763 240.419ZM47.4469 238.86C48.3127 238.992 49.3943 238.992 47.5907 238.769C48.2516 238.828 48.8521 238.878 49.5149 238.934C47.1485 238.594 47.2858 238.778 46.6226 238.693C45.6518 238.566 45.759 238.436 45.951 238.415C45.164 238.41 41.8382 237.991 39.9323 237.729C41.5972 238.007 44.3336 238.427 45.9903 238.648C46.4709 238.714 46.9318 238.729 47.3339 238.781C47.987 238.865 47.3989 238.852 47.4435 238.86C47.4446 238.86 47.4457 238.86 47.4469 238.86ZM70.9495 241.039C72.6903 241.277 71.5908 241.004 70.6145 240.946C70.5725 240.945 70.9063 241.033 70.9495 241.039ZM43.9998 216.195C46.322 216.545 44.6088 216.437 49.4791 216.873C47.423 216.731 49.3745 216.935 48.9627 216.928C48.6232 216.92 47.4419 216.752 48.1338 216.901C47.207 216.718 43.2745 216.267 43.0734 216.233C43.0752 216.233 43.0771 216.233 43.0791 216.234C42.9588 216.213 43.2726 216.085 43.9998 216.195ZM57.8741 240.051C58.4556 240.321 58.6742 240.007 59.8188 240.296C61.3554 240.194 55.6426 239.88 54.9433 239.587C61.1449 240.251 50.8786 238.952 55.1623 239.719C51.6004 239.228 53.987 239.636 53.4309 239.618C52.8566 239.602 50.8185 239.333 50.9237 239.422C50.9249 239.423 50.926 239.423 50.9272 239.423C52.1444 239.551 53.3893 239.679 54.6352 239.804C53.4567 239.51 55.9637 239.824 56.8024 240.047C57.1541 240.048 57.5113 240.049 57.8741 240.051ZM50.8956 239.158C51.0067 239.176 53.7035 239.443 53.5295 239.389C53.1998 239.335 49.3434 238.938 50.8956 239.158ZM39.0553 237.707C40.0239 237.851 41.4969 238.087 42.0422 238.095C41.0702 237.966 39.5837 237.721 39.0553 237.707ZM88.7918 242.731C90.0324 242.782 86.21 242.446 87.3106 242.6C87.3618 242.608 88.7271 242.728 88.7918 242.731ZM60.6761 240.297C61.9109 240.482 61.3365 240.22 60.4232 240.184C60.3705 240.182 60.6194 240.288 60.6761 240.297ZM45.8802 216.394C45.9678 216.354 49.3345 216.792 49.9324 216.863C49.5801 216.868 45.7772 216.44 45.8802 216.394ZM37.3289 237.637C39.2224 238.116 41.8563 238.264 42.1442 238.306C42.4245 238.348 41.9736 238.367 42.0376 238.378C42.1823 238.406 45.2036 238.786 45.3669 238.797C45.4723 238.806 44.9415 238.629 45.563 238.67C44.3409 238.599 38.7992 237.802 38.514 237.756C38.2914 237.732 39.9459 238.101 37.3322 237.637C37.3311 237.637 37.33 237.637 37.3289 237.637ZM42.8589 238.425C42.0984 238.279 44.2469 238.553 44.7369 238.63C45.8774 238.811 42.9455 238.445 42.8589 238.425ZM47.962 239.096C48.1865 239.134 50.3782 239.392 50.5731 239.361C49.5497 239.181 47.4177 239.009 47.962 239.096ZM72.2929 241.516C72.8751 241.562 74.3991 241.738 74.5041 241.702C73.9197 241.657 72.4114 241.482 72.2929 241.516ZM57.4182 217.377C56.4772 217.226 58.6463 217.47 59.2886 217.565C59.3447 217.602 57.4703 217.386 57.4182 217.377ZM60.8429 240.748C61.1819 240.799 68.0678 241.415 69.0053 241.476C68.0903 241.362 61.2801 240.716 60.9579 240.697C60.8682 240.693 60.8008 240.741 60.8429 240.748ZM45.9958 239.177C45.3633 239.168 44.9603 239.037 44.8786 239.026C44.1094 238.921 42.4918 238.725 42.8514 238.707C44.2296 238.918 47.2653 239.197 45.9958 239.177ZM72.7583 241.861C75.067 242.043 70.6104 241.573 71.1872 241.694C71.2184 241.701 72.5213 241.842 72.7583 241.861ZM60.0827 240.693C59.5489 240.7 52.6944 239.954 51.5915 239.825C52.6032 239.835 53.3716 239.993 54.7074 240.128C55.0599 240.163 54.9709 240.112 55.0087 240.116C55.6266 240.178 55.1583 240.177 55.5421 240.218C55.8005 240.248 60.7938 240.688 60.0827 240.693ZM45.6325 239.18C45.2413 239.178 40.9467 238.635 40.7831 238.594C39.4985 238.349 45.2971 239.14 45.6325 239.18ZM60.6975 240.841C59.9401 240.885 56.5724 240.47 58.8818 240.643C59.0919 240.659 60.0748 240.806 60.6975 240.841ZM72.5003 241.948C72.6103 241.962 75.0195 242.199 75.0819 242.168C74.7088 242.121 71.1986 241.794 72.5003 241.948ZM71.2139 241.957C71.2739 241.961 70.705 241.839 71.8516 241.951C71.9389 241.96 72.1494 242.059 73.5485 242.155C73.8365 242.175 74.2927 242.162 74.2605 242.156C72.8121 241.904 68.2799 241.732 71.2139 241.957ZM45.5473 239.234C45.7703 239.295 45.213 239.328 44.7048 239.213C44.4879 239.164 44.9124 239.158 45.5473 239.234ZM80.1839 242.657C78.7623 242.595 83.2123 242.99 83.4258 242.992C83.291 242.943 80.3302 242.664 80.1839 242.657ZM59.6617 217.175C59.6606 217.175 59.6595 217.175 59.6584 217.175C60.8397 217.33 60.1018 217.293 60.1557 217.301C62.6653 217.675 62.0132 217.483 62.414 217.517C63.2768 217.591 63.0823 217.707 64.5456 217.824C62.1569 217.624 64.3169 217.847 64.3855 217.904C64.6094 218.134 61.2631 217.436 60.0733 217.336C59.9027 217.322 61.1318 217.533 60.6997 217.5C59.3183 217.394 55.1402 216.582 59.6617 217.175ZM44.318 239.174C43.7515 239.171 39.5841 238.546 40.6971 238.647C40.8646 238.672 45.153 239.197 44.318 239.174ZM239.771 254.448C238.74 254.452 241.119 254.62 241.535 254.596C241.731 254.585 240.246 254.447 239.771 254.448ZM256.48 249.356C255.7 248.796 255.067 248.57 254.765 248.467C254.449 248.371 254.494 248.425 255.268 248.819C255.345 248.859 255.656 248.984 255.962 249.127C256.247 249.253 256.567 249.439 256.48 249.356ZM177.574 250.543C178.822 250.709 178.757 250.563 177.837 250.498C177.512 250.475 177.534 250.537 177.574 250.543ZM225.231 253.756C225.342 253.767 226.802 253.845 226.753 253.809C226.19 253.757 224.439 253.674 225.231 253.756ZM177.174 250.534C177.918 250.562 176.65 250.368 175.744 250.402C176.203 250.427 177.095 250.531 177.174 250.534ZM63.2393 241.401C63.866 241.403 65.607 241.585 66.6236 241.669C66.7144 241.754 63.9667 241.458 63.2393 241.401ZM251.171 254.906C252.365 254.847 249.822 254.812 250.076 254.878C250.087 254.883 251.138 254.91 251.171 254.906ZM137.326 247.565C138.15 247.583 135.548 247.323 136.26 247.457C136.295 247.463 137.281 247.564 137.326 247.565ZM125.936 246.657C126.559 246.721 129.211 246.923 128.182 246.799C128.019 246.78 125.991 246.621 125.936 246.657ZM62.492 217.472C62.1827 217.357 64.0814 217.603 64.3795 217.652C64.4784 217.669 62.9173 217.624 62.492 217.472ZM185.674 251.137C186.32 251.173 188.006 251.312 188.301 251.292C187.515 251.245 185.458 251.041 185.674 251.137ZM245.917 254.82C246.933 254.937 248.617 254.963 248.2 254.844C246.332 254.808 248.421 254.954 245.917 254.82ZM173.012 250.322C173.532 250.366 173.937 250.29 173.879 250.281C173.32 250.193 172.498 250.243 173.012 250.322ZM211.889 252.956C211.92 253.003 213.56 253.09 213.342 253.047C213.274 253.032 211.87 252.918 211.889 252.956ZM84.967 243.368C85.7381 243.475 83.3676 243.314 82.7047 243.209C82.3723 243.111 84.8578 243.354 84.967 243.368ZM158.66 249.236C158.577 249.297 161.177 249.453 160.158 249.322C159.904 249.289 158.688 249.216 158.66 249.236ZM133.829 247.433C135.573 247.488 128.279 246.867 130.189 247.114C130.334 247.133 133.673 247.428 133.829 247.433ZM121.911 246.456C122.206 246.488 122.05 246.701 120.804 246.516C120.641 246.492 121.413 246.493 121.28 246.469C121.199 246.455 118.497 246.211 118.376 246.206C118.243 246.202 118.394 246.286 118.258 246.283C118.108 246.28 116.45 246.086 115.574 246.016C113.932 245.884 113.756 245.93 113.622 245.92C113.234 245.89 112.58 245.795 111.778 245.731C107.796 245.414 101.642 244.968 98.4792 244.581C101.319 244.865 104.01 245.029 106.808 245.237C105.973 245.296 110.963 245.474 108.046 245.385C109.371 245.462 120.918 246.352 121.907 246.455C121.909 246.455 121.91 246.456 121.911 246.456ZM251.624 246.936C252.375 247.117 248.666 245.809 248.326 245.819C248.815 245.976 251.519 246.89 251.624 246.936ZM243.463 255.071C243.09 255.07 242.782 255.211 240.923 255.055C240.921 255.055 240.92 255.055 240.918 255.055C240.387 255.01 240.995 255 240.898 254.982C240.873 254.976 239.176 254.826 240.585 254.877C242.699 254.949 240.764 254.997 241.916 255.047C242.055 255.054 244.217 255.056 244.086 255.032C244.076 255.03 243.428 255.023 243.316 255.011C242.901 254.967 243.104 254.928 243.046 254.924C242.892 254.915 239.439 254.847 238.975 254.753C238.785 254.728 244.421 254.914 244.612 254.923C244.754 254.936 244.69 255.063 244.836 255.081C244.921 255.092 247.154 255.111 247.463 255.128C247.55 255.133 247.616 255.139 247.664 255.143C247.319 255.097 249.384 255.139 249.303 255.181C249.287 255.2 247.847 255.164 247.811 255.158C247.789 255.157 247.77 255.154 247.752 255.153C248.017 255.218 243.259 255.066 244.294 255.17C242.933 255.16 244.5 255.071 243.463 255.071ZM236.859 254.858C237 254.852 237.14 254.845 237.279 254.838C234.867 254.753 232.105 254.539 229.357 254.383C228.644 254.342 229.462 254.473 228.524 254.396C227.813 254.337 227 254.211 227.401 254.217C227.499 254.219 228.974 254.355 229.742 254.393C231.92 254.501 231.401 254.399 231.523 254.404C231.683 254.411 233.043 254.536 233.817 254.575C235.745 254.67 236.588 254.671 239.225 254.853C237.738 254.83 238.496 254.969 236.859 254.858ZM147.693 248.616C147.598 248.654 146.038 248.495 145.469 248.459C145.562 248.42 147.124 248.579 147.693 248.616ZM132.707 225.725C132.219 225.737 135.802 226.213 134.865 226.031C134.658 225.991 133.157 225.783 132.707 225.725ZM148.796 227.853C149.279 227.896 147.354 227.589 147.349 227.646C147.35 227.665 148.735 227.847 148.796 227.853ZM205.891 252.9C205.804 252.896 204.489 252.79 204.446 252.784C203.58 252.646 207.91 252.985 205.891 252.9ZM168.367 230.41C167.201 230.281 169.267 230.59 170.114 230.698C170.501 230.748 170.652 230.758 170.177 230.672C170.17 230.67 170.15 230.667 170.119 230.663C169.818 230.617 168.442 230.418 168.367 230.41ZM175.35 231.389C174.958 231.334 173.172 231.054 173.142 231.072C173.106 231.104 175.147 231.422 175.35 231.389ZM172.64 250.575C172.826 250.673 170.485 250.438 169.661 250.388C169.474 250.291 171.825 250.527 172.64 250.575ZM187.523 251.71C177.569 251.064 179.784 251.045 188.118 251.711C188.126 251.765 188.151 251.75 187.523 251.71ZM174.796 250.784C175.162 250.757 176.287 250.855 177.043 250.914C176.905 250.941 175.348 250.815 174.796 250.784ZM128.456 225.069C129.084 225.08 131.82 225.512 131.328 225.477C131.214 225.469 128.223 225.077 128.456 225.069ZM205.063 252.915C205.299 253.013 202.288 252.775 202.068 252.741C201.143 252.606 204.832 252.918 205.063 252.915ZM158.535 249.606C158.004 249.63 156.512 249.486 155.549 249.413C155.992 249.391 157.72 249.544 158.535 249.606ZM165.482 250.171C165.421 250.169 164.077 250.064 164.017 250.057C162.92 249.913 166.721 250.21 165.482 250.171ZM58.0941 216.373C58.1317 216.375 59.162 216.503 59.1969 216.509C60.0921 216.678 57.0462 216.301 58.0941 216.373Z" fill="black" fill-opacity="0.9"/>
<defs>
<filter id="filter0_f_969_7351" x="55.2188" y="0" width="273.488" height="330.599" filterUnits="userSpaceOnUse" color-interpolation-filters="sRGB">
<feFlood flood-opacity="0" result="BackgroundImageFix"/>
<feBlend mode="normal" in="SourceGraphic" in2="BackgroundImageFix" result="shape"/>
<feGaussianBlur stdDeviation="5" result="effect1_foregroundBlur_969_7351"/>
</filter>
</defs>
</svg>
