<svg width="485" height="485" viewBox="0 0 485 485" fill="none" xmlns="http://www.w3.org/2000/svg">
<circle cx="242.5" cy="242.5" r="237.5" stroke="#71B560" stroke-width="10" stroke-linecap="round" stroke-dasharray="3 15"/>
<circle cx="243" cy="243" r="225" fill="#A7DB9A"/>
<path d="M128.526 159.92C128.099 161.52 127.95 162.608 128.078 163.184C128.227 163.76 128.515 164.048 128.942 164.048C129.262 164.048 129.571 163.941 129.87 163.728C130.19 163.515 130.595 163.152 131.086 162.64C131.47 162.277 131.769 162.064 131.982 162C132.217 161.915 132.451 161.925 132.686 162.032C132.985 162.16 133.134 162.437 133.134 162.864C133.155 163.269 132.995 163.813 132.654 164.496C131.737 166.352 130.297 167.877 128.334 169.072C126.371 170.245 124.163 170.832 121.71 170.832C119.833 170.832 118.51 170.405 117.742 169.552C116.974 168.677 116.59 167.493 116.59 166C116.59 165.552 116.611 165.051 116.654 164.496C116.718 163.941 116.793 163.376 116.878 162.8C116.985 162.224 117.091 161.669 117.198 161.136C117.305 160.581 117.411 160.08 117.518 159.632L118.222 161.264C117.561 163.269 116.633 164.987 115.438 166.416C114.265 167.845 112.867 168.944 111.246 169.712C109.625 170.459 107.811 170.832 105.806 170.832C103.011 170.832 100.867 169.968 99.374 168.24C97.8807 166.512 97.2727 163.995 97.55 160.688C97.7207 158.597 98.2007 156.539 98.99 154.512C99.7793 152.464 100.867 150.544 102.254 148.752C103.662 146.96 105.326 145.381 107.246 144.016C109.187 142.651 111.374 141.584 113.806 140.816C116.259 140.027 118.926 139.632 121.806 139.632C124.515 139.632 126.841 139.813 128.782 140.176C130.745 140.539 132.227 141.008 133.23 141.584C134.254 142.16 134.734 142.757 134.67 143.376C134.606 143.952 134.382 144.357 133.998 144.592C133.635 144.805 133.251 145.029 132.846 145.264C132.462 145.477 132.195 145.893 132.046 146.512L128.526 159.92ZM110.35 161.008C110.222 162.565 110.307 163.643 110.606 164.24C110.926 164.816 111.321 165.104 111.79 165.104C112.345 165.104 112.91 164.848 113.486 164.336C114.062 163.803 114.649 163.045 115.246 162.064C115.843 161.061 116.43 159.867 117.006 158.48C117.582 157.072 118.126 155.483 118.638 153.712C119.171 151.941 119.662 150.021 120.11 147.952C120.451 146.267 120.547 144.997 120.398 144.144C120.249 143.291 119.79 142.864 119.022 142.864C118.254 142.864 117.475 143.248 116.686 144.016C115.918 144.763 115.171 145.776 114.446 147.056C113.742 148.336 113.091 149.776 112.494 151.376C111.918 152.955 111.438 154.576 111.054 156.24C110.691 157.904 110.457 159.493 110.35 161.008ZM165.906 145.52L159.346 145.968C159.474 144.965 159.421 144.187 159.186 143.632C158.951 143.077 158.365 142.8 157.426 142.8C156.53 142.8 155.645 143.216 154.77 144.048C153.917 144.859 153.106 145.947 152.338 147.312C151.57 148.656 150.887 150.16 150.29 151.824C149.693 153.467 149.223 155.141 148.882 156.848C148.541 158.533 148.37 160.123 148.37 161.616C148.37 163.003 148.562 163.952 148.946 164.464C149.351 164.976 149.842 165.232 150.418 165.232C150.845 165.232 151.293 165.104 151.762 164.848C152.231 164.571 152.701 164.133 153.17 163.536C153.639 162.939 154.098 162.16 154.546 161.2C155.015 160.24 155.442 159.056 155.826 157.648L162.61 133.968C163.677 130.277 165.319 127.621 167.538 126C169.757 124.379 172.381 123.568 175.41 123.568C177.821 123.568 179.623 124.069 180.818 125.072C182.013 126.075 182.61 127.269 182.61 128.656C182.61 130.128 182.173 131.323 181.298 132.24C180.445 133.157 179.25 133.616 177.714 133.616C176.797 133.616 175.965 133.424 175.218 133.04C174.471 132.656 173.778 132.208 173.138 131.696C172.498 131.184 171.879 130.747 171.282 130.384C170.685 130 170.066 129.808 169.426 129.808C168.829 129.808 168.349 129.989 167.986 130.352C167.623 130.715 167.442 131.173 167.442 131.728C167.442 132.368 167.645 133.019 168.05 133.68C168.455 134.32 168.925 135.013 169.458 135.76C170.013 136.507 170.514 137.36 170.962 138.32C171.431 139.28 171.73 140.379 171.858 141.616C172.007 142.853 171.858 144.293 171.41 145.936L167.506 160.336C167.143 161.68 167.026 162.64 167.154 163.216C167.282 163.771 167.581 164.048 168.05 164.048C168.349 164.048 168.658 163.941 168.978 163.728C169.298 163.515 169.693 163.152 170.162 162.64C170.567 162.277 170.877 162.064 171.09 162C171.325 161.915 171.549 161.925 171.762 162.032C172.061 162.16 172.221 162.437 172.242 162.864C172.263 163.269 172.103 163.813 171.762 164.496C171.143 165.733 170.29 166.832 169.202 167.792C168.114 168.731 166.855 169.467 165.426 170C163.997 170.555 162.461 170.832 160.818 170.832C158.898 170.832 157.533 170.395 156.722 169.52C155.933 168.645 155.538 167.472 155.538 166C155.538 165.381 155.559 164.752 155.602 164.112C155.666 163.451 155.751 162.789 155.858 162.128C155.986 161.445 156.114 160.816 156.242 160.24L157.458 160.72C156.626 163.003 155.581 164.891 154.322 166.384C153.063 167.877 151.623 168.997 150.002 169.744C148.381 170.469 146.61 170.832 144.69 170.832C142.557 170.832 140.786 170.405 139.378 169.552C137.991 168.699 136.999 167.472 136.402 165.872C135.805 164.251 135.623 162.299 135.858 160.016C136.071 157.413 136.754 154.896 137.906 152.464C139.079 150.032 140.626 147.856 142.546 145.936C144.487 143.995 146.749 142.459 149.33 141.328C151.933 140.197 154.791 139.632 157.906 139.632C159.762 139.632 161.287 139.888 162.482 140.4C163.677 140.912 164.551 141.616 165.106 142.512C165.661 143.387 165.927 144.389 165.906 145.52ZM203.906 145.52L197.346 145.968C197.474 144.965 197.421 144.187 197.186 143.632C196.951 143.077 196.365 142.8 195.426 142.8C194.53 142.8 193.645 143.216 192.77 144.048C191.917 144.859 191.106 145.947 190.338 147.312C189.57 148.656 188.887 150.16 188.29 151.824C187.693 153.467 187.223 155.141 186.882 156.848C186.541 158.533 186.37 160.123 186.37 161.616C186.37 163.003 186.562 163.952 186.946 164.464C187.351 164.976 187.842 165.232 188.418 165.232C188.845 165.232 189.293 165.104 189.762 164.848C190.231 164.571 190.701 164.133 191.17 163.536C191.639 162.939 192.098 162.16 192.546 161.2C193.015 160.24 193.442 159.056 193.826 157.648L200.61 133.968C201.677 130.277 203.319 127.621 205.538 126C207.757 124.379 210.381 123.568 213.41 123.568C215.821 123.568 217.623 124.069 218.818 125.072C220.013 126.075 220.61 127.269 220.61 128.656C220.61 130.128 220.173 131.323 219.298 132.24C218.445 133.157 217.25 133.616 215.714 133.616C214.797 133.616 213.965 133.424 213.218 133.04C212.471 132.656 211.778 132.208 211.138 131.696C210.498 131.184 209.879 130.747 209.282 130.384C208.685 130 208.066 129.808 207.426 129.808C206.829 129.808 206.349 129.989 205.986 130.352C205.623 130.715 205.442 131.173 205.442 131.728C205.442 132.368 205.645 133.019 206.05 133.68C206.455 134.32 206.925 135.013 207.458 135.76C208.013 136.507 208.514 137.36 208.962 138.32C209.431 139.28 209.73 140.379 209.858 141.616C210.007 142.853 209.858 144.293 209.41 145.936L205.506 160.336C205.143 161.68 205.026 162.64 205.154 163.216C205.282 163.771 205.581 164.048 206.05 164.048C206.349 164.048 206.658 163.941 206.978 163.728C207.298 163.515 207.693 163.152 208.162 162.64C208.567 162.277 208.877 162.064 209.09 162C209.325 161.915 209.549 161.925 209.762 162.032C210.061 162.16 210.221 162.437 210.242 162.864C210.263 163.269 210.103 163.813 209.762 164.496C209.143 165.733 208.29 166.832 207.202 167.792C206.114 168.731 204.855 169.467 203.426 170C201.997 170.555 200.461 170.832 198.818 170.832C196.898 170.832 195.533 170.395 194.722 169.52C193.933 168.645 193.538 167.472 193.538 166C193.538 165.381 193.559 164.752 193.602 164.112C193.666 163.451 193.751 162.789 193.858 162.128C193.986 161.445 194.114 160.816 194.242 160.24L195.458 160.72C194.626 163.003 193.581 164.891 192.322 166.384C191.063 167.877 189.623 168.997 188.002 169.744C186.381 170.469 184.61 170.832 182.69 170.832C180.557 170.832 178.786 170.405 177.378 169.552C175.991 168.699 174.999 167.472 174.402 165.872C173.805 164.251 173.623 162.299 173.858 160.016C174.071 157.413 174.754 154.896 175.906 152.464C177.079 150.032 178.626 147.856 180.546 145.936C182.487 143.995 184.749 142.459 187.33 141.328C189.933 140.197 192.791 139.632 195.906 139.632C197.762 139.632 199.287 139.888 200.482 140.4C201.677 140.912 202.551 141.616 203.106 142.512C203.661 143.387 203.927 144.389 203.906 145.52ZM218.642 156.56C218.642 156.56 218.983 156.475 219.666 156.304C220.37 156.112 221.277 155.867 222.386 155.568C223.495 155.269 224.69 154.949 225.97 154.608C227.25 154.245 228.498 153.904 229.714 153.584C230.951 153.243 232.007 152.944 232.882 152.688L231.666 153.872C231.965 152.976 232.21 151.899 232.402 150.64C232.615 149.381 232.733 147.963 232.754 146.384C232.754 145.232 232.594 144.336 232.274 143.696C231.975 143.035 231.506 142.704 230.866 142.704C230.29 142.704 229.714 142.96 229.138 143.472C228.562 143.984 228.018 144.731 227.506 145.712C227.015 146.672 226.578 147.845 226.194 149.232C225.831 150.619 225.543 152.197 225.33 153.968C225.01 157.083 225.351 159.472 226.354 161.136C227.378 162.8 229.085 163.632 231.474 163.632C232.562 163.632 233.575 163.44 234.514 163.056C235.453 162.651 236.338 162.096 237.17 161.392C238.002 160.667 238.781 159.803 239.506 158.8C239.975 158.245 240.359 157.872 240.658 157.68C240.978 157.488 241.319 157.403 241.682 157.424C242.087 157.445 242.407 157.648 242.642 158.032C242.898 158.416 242.909 159.013 242.674 159.824C241.949 161.936 240.818 163.824 239.282 165.488C237.767 167.131 235.837 168.432 233.49 169.392C231.165 170.352 228.402 170.832 225.202 170.832C222.066 170.832 219.495 170.288 217.49 169.2C215.506 168.112 214.098 166.555 213.266 164.528C212.434 162.501 212.167 160.069 212.466 157.232C212.722 154.736 213.383 152.411 214.45 150.256C215.538 148.101 216.957 146.224 218.706 144.624C220.477 143.003 222.514 141.744 224.818 140.848C227.143 139.952 229.682 139.504 232.434 139.504C234.781 139.504 236.69 139.899 238.162 140.688C239.655 141.477 240.775 142.533 241.522 143.856C242.269 145.157 242.695 146.619 242.802 148.24C242.845 148.645 242.941 149.008 243.09 149.328C243.261 149.648 243.506 149.861 243.826 149.968C244.103 150.053 244.306 150.181 244.434 150.352C244.562 150.501 244.626 150.704 244.626 150.96C244.626 151.301 244.487 151.632 244.21 151.952C243.933 152.272 243.41 152.528 242.642 152.72C241.853 152.912 240.722 153.2 239.25 153.584C237.799 153.968 236.178 154.405 234.386 154.896C232.615 155.387 230.823 155.877 229.01 156.368C227.197 156.837 225.533 157.285 224.018 157.712C222.503 158.117 221.277 158.448 220.338 158.704C219.421 158.939 218.962 159.056 218.962 159.056L218.642 156.56ZM275.906 145.52L269.346 145.968C269.474 144.965 269.421 144.187 269.186 143.632C268.951 143.077 268.365 142.8 267.426 142.8C266.53 142.8 265.645 143.216 264.77 144.048C263.917 144.859 263.106 145.947 262.338 147.312C261.57 148.656 260.887 150.16 260.29 151.824C259.693 153.467 259.223 155.141 258.882 156.848C258.541 158.533 258.37 160.123 258.37 161.616C258.37 163.003 258.562 163.952 258.946 164.464C259.351 164.976 259.842 165.232 260.418 165.232C260.845 165.232 261.293 165.104 261.762 164.848C262.231 164.571 262.701 164.133 263.17 163.536C263.639 162.939 264.098 162.16 264.546 161.2C265.015 160.24 265.442 159.056 265.826 157.648L272.61 133.968C273.677 130.277 275.319 127.621 277.538 126C279.757 124.379 282.381 123.568 285.41 123.568C287.821 123.568 289.623 124.069 290.818 125.072C292.013 126.075 292.61 127.269 292.61 128.656C292.61 130.128 292.173 131.323 291.298 132.24C290.445 133.157 289.25 133.616 287.714 133.616C286.797 133.616 285.965 133.424 285.218 133.04C284.471 132.656 283.778 132.208 283.138 131.696C282.498 131.184 281.879 130.747 281.282 130.384C280.685 130 280.066 129.808 279.426 129.808C278.829 129.808 278.349 129.989 277.986 130.352C277.623 130.715 277.442 131.173 277.442 131.728C277.442 132.368 277.645 133.019 278.05 133.68C278.455 134.32 278.925 135.013 279.458 135.76C280.013 136.507 280.514 137.36 280.962 138.32C281.431 139.28 281.73 140.379 281.858 141.616C282.007 142.853 281.858 144.293 281.41 145.936L277.506 160.336C277.143 161.68 277.026 162.64 277.154 163.216C277.282 163.771 277.581 164.048 278.05 164.048C278.349 164.048 278.658 163.941 278.978 163.728C279.298 163.515 279.693 163.152 280.162 162.64C280.567 162.277 280.877 162.064 281.09 162C281.325 161.915 281.549 161.925 281.762 162.032C282.061 162.16 282.221 162.437 282.242 162.864C282.263 163.269 282.103 163.813 281.762 164.496C281.143 165.733 280.29 166.832 279.202 167.792C278.114 168.731 276.855 169.467 275.426 170C273.997 170.555 272.461 170.832 270.818 170.832C268.898 170.832 267.533 170.395 266.722 169.52C265.933 168.645 265.538 167.472 265.538 166C265.538 165.381 265.559 164.752 265.602 164.112C265.666 163.451 265.751 162.789 265.858 162.128C265.986 161.445 266.114 160.816 266.242 160.24L267.458 160.72C266.626 163.003 265.581 164.891 264.322 166.384C263.063 167.877 261.623 168.997 260.002 169.744C258.381 170.469 256.61 170.832 254.69 170.832C252.557 170.832 250.786 170.405 249.378 169.552C247.991 168.699 246.999 167.472 246.402 165.872C245.805 164.251 245.623 162.299 245.858 160.016C246.071 157.413 246.754 154.896 247.906 152.464C249.079 150.032 250.626 147.856 252.546 145.936C254.487 143.995 256.749 142.459 259.33 141.328C261.933 140.197 264.791 139.632 267.906 139.632C269.762 139.632 271.287 139.888 272.482 140.4C273.677 140.912 274.551 141.616 275.106 142.512C275.661 143.387 275.927 144.389 275.906 145.52ZM315.829 164.144L319.797 151.728C320.288 150.171 320.48 149.061 320.373 148.4C320.266 147.717 319.818 147.376 319.029 147.376C318.346 147.376 317.589 147.728 316.757 148.432C315.925 149.115 315.082 150.128 314.229 151.472C313.397 152.795 312.618 154.427 311.893 156.368C311.53 157.371 311.21 158.309 310.933 159.184C310.656 160.059 310.453 160.848 310.325 161.552C310.197 162.235 310.133 162.811 310.133 163.28C310.133 163.92 310.24 164.485 310.453 164.976C310.688 165.467 310.805 166.032 310.805 166.672C310.805 167.931 309.92 168.944 308.149 169.712C306.4 170.459 303.925 170.832 300.725 170.832C298.592 170.832 297.29 170.256 296.821 169.104C296.373 167.952 296.522 166.299 297.269 164.144L301.781 150.64C302.272 149.253 302.453 148.283 302.325 147.728C302.197 147.173 301.92 146.896 301.493 146.896C301.194 146.896 300.874 147.003 300.533 147.216C300.192 147.408 299.722 147.803 299.125 148.4C298.762 148.699 298.464 148.88 298.229 148.944C297.994 149.008 297.76 148.997 297.525 148.912C297.248 148.784 297.098 148.528 297.077 148.144C297.077 147.739 297.237 147.227 297.557 146.608C298.688 144.539 300.341 142.864 302.517 141.584C304.693 140.283 307.136 139.632 309.845 139.632C311.488 139.632 312.736 139.963 313.589 140.624C314.464 141.285 314.901 142.245 314.901 143.504C314.901 144.251 314.741 145.093 314.421 146.032C314.122 146.949 313.77 147.899 313.365 148.88C312.96 149.861 312.576 150.821 312.213 151.76C311.872 152.677 311.658 153.531 311.573 154.32L310.805 154.128C312.32 150.437 314.058 147.536 316.021 145.424C317.984 143.312 320 141.819 322.069 140.944C324.138 140.069 326.08 139.632 327.893 139.632C329.728 139.632 331.104 139.963 332.021 140.624C332.96 141.264 333.429 142.256 333.429 143.6C333.429 144.283 333.28 145.083 332.981 146C332.704 146.896 332.362 147.835 331.957 148.816C331.552 149.797 331.168 150.757 330.805 151.696C330.464 152.635 330.229 153.499 330.101 154.288L329.173 154.064C330.325 151.419 331.584 149.179 332.949 147.344C334.336 145.488 335.776 143.995 337.269 142.864C338.784 141.733 340.298 140.912 341.813 140.4C343.349 139.888 344.832 139.632 346.261 139.632C348.053 139.632 349.418 140.027 350.357 140.816C351.296 141.584 351.829 142.672 351.957 144.08C352.085 145.488 351.84 147.152 351.221 149.072L347.765 159.888C347.274 161.445 347.104 162.512 347.253 163.088C347.424 163.664 347.712 163.952 348.117 163.952C348.458 163.952 348.778 163.845 349.077 163.632C349.397 163.419 349.792 163.056 350.261 162.544C350.666 162.181 350.976 161.968 351.189 161.904C351.424 161.84 351.648 161.861 351.861 161.968C352.16 162.096 352.32 162.373 352.341 162.8C352.362 163.205 352.192 163.749 351.829 164.432C350.933 166.288 349.472 167.824 347.445 169.04C345.418 170.235 342.922 170.832 339.957 170.832C337.994 170.832 336.565 170.48 335.669 169.776C334.773 169.072 334.293 168.059 334.229 166.736C334.165 165.392 334.432 163.813 335.029 162L338.325 151.728C338.858 150.192 339.061 149.083 338.933 148.4C338.805 147.717 338.346 147.376 337.557 147.376C336.874 147.376 336.106 147.728 335.253 148.432C334.421 149.115 333.589 150.128 332.757 151.472C331.925 152.795 331.146 154.427 330.421 156.368C330.037 157.371 329.717 158.309 329.461 159.184C329.205 160.059 329.002 160.848 328.853 161.552C328.725 162.235 328.661 162.811 328.661 163.28C328.661 163.92 328.778 164.485 329.013 164.976C329.248 165.467 329.365 166.032 329.365 166.672C329.365 167.931 328.48 168.944 326.709 169.712C324.96 170.459 322.485 170.832 319.285 170.832C317.856 170.832 316.81 170.576 316.149 170.064C315.488 169.552 315.146 168.795 315.125 167.792C315.104 166.789 315.338 165.573 315.829 164.144ZM378.16 148.272C379.035 145.456 380.091 143.312 381.328 141.84C382.587 140.368 384.091 139.632 385.84 139.632C387.227 139.632 388.315 140.101 389.104 141.04C389.915 141.957 390.32 143.184 390.32 144.72C390.32 146.683 389.723 148.368 388.528 149.776C387.355 151.184 385.819 152.389 383.92 153.392C383.067 153.84 382.299 154.299 381.616 154.768C380.955 155.216 380.357 155.728 379.824 156.304C379.291 156.859 378.8 157.531 378.352 158.32C377.925 159.109 377.52 160.069 377.136 161.2L373.936 170.864C372.741 174.491 371.301 177.392 369.616 179.568C367.952 181.765 365.989 183.355 363.728 184.336C361.488 185.317 358.939 185.808 356.08 185.808C352.859 185.808 350.405 185.2 348.72 183.984C347.035 182.768 346.192 181.136 346.192 179.088C346.192 177.68 346.651 176.464 347.568 175.44C348.464 174.416 349.616 173.904 351.024 173.904C352.069 173.904 352.944 174.171 353.648 174.704C354.352 175.259 354.971 175.941 355.504 176.752C356.037 177.584 356.539 178.405 357.008 179.216C357.477 180.048 357.979 180.731 358.512 181.264C359.067 181.819 359.728 182.096 360.496 182.096C360.88 182.096 361.232 182.032 361.552 181.904C361.893 181.776 362.171 181.552 362.384 181.232C362.619 180.912 362.8 180.485 362.928 179.952C363.056 179.419 363.12 178.747 363.12 177.936C363.12 177.232 363.056 176.197 362.928 174.832C362.821 173.467 362.672 171.888 362.48 170.096C362.309 168.325 362.107 166.469 361.872 164.528C361.637 162.587 361.392 160.667 361.136 158.768C360.901 156.848 360.667 155.077 360.432 153.456C360.197 151.813 359.984 150.448 359.792 149.36C359.685 148.464 359.504 147.835 359.248 147.472C358.992 147.088 358.704 146.896 358.384 146.896C358.128 146.896 357.851 147.024 357.552 147.28C357.275 147.515 356.944 147.931 356.56 148.528C356.368 148.763 356.176 148.923 355.984 149.008C355.792 149.093 355.589 149.104 355.376 149.04C355.141 148.997 354.939 148.837 354.768 148.56C354.619 148.261 354.64 147.813 354.832 147.216C355.323 145.787 356.091 144.496 357.136 143.344C358.203 142.192 359.472 141.285 360.944 140.624C362.416 139.963 364.005 139.632 365.712 139.632C367.312 139.632 368.603 140.133 369.584 141.136C370.565 142.117 371.163 143.611 371.376 145.616C371.483 146.576 371.589 147.792 371.696 149.264C371.824 150.736 371.952 152.357 372.08 154.128C372.208 155.899 372.325 157.691 372.432 159.504C372.56 161.317 372.656 163.056 372.72 164.72C372.805 166.363 372.869 167.792 372.912 169.008L371.76 168.976L378.16 148.272ZM176.029 187.568C178.461 187.568 180.274 188.091 181.469 189.136C182.663 190.181 183.261 191.419 183.261 192.848C183.261 194.192 182.845 195.291 182.013 196.144C181.202 196.997 180.061 197.424 178.589 197.424C177.629 197.424 176.765 197.243 175.997 196.88C175.25 196.517 174.546 196.101 173.885 195.632C173.245 195.141 172.615 194.715 171.997 194.352C171.378 193.989 170.738 193.808 170.077 193.808C169.671 193.808 169.319 193.893 169.021 194.064C168.722 194.213 168.487 194.437 168.317 194.736C168.167 195.013 168.093 195.344 168.093 195.728C168.093 196.368 168.295 197.019 168.701 197.68C169.127 198.32 169.618 199.013 170.173 199.76C170.727 200.507 171.229 201.36 171.677 202.32C172.146 203.28 172.445 204.379 172.573 205.616C172.701 206.853 172.53 208.283 172.061 209.904L168.029 223.888C167.581 225.467 167.41 226.544 167.517 227.12C167.645 227.675 167.922 227.952 168.349 227.952C168.647 227.952 168.957 227.845 169.277 227.632C169.597 227.419 169.991 227.056 170.461 226.544C170.866 226.181 171.175 225.968 171.389 225.904C171.623 225.84 171.847 225.861 172.061 225.968C172.359 226.096 172.519 226.373 172.541 226.8C172.562 227.205 172.402 227.749 172.061 228.432C171.442 229.669 170.567 230.779 169.437 231.76C168.306 232.72 166.962 233.467 165.405 234C163.869 234.555 162.151 234.832 160.253 234.832C158.311 234.832 156.882 234.48 155.965 233.776C155.069 233.051 154.589 232.027 154.525 230.704C154.461 229.381 154.695 227.813 155.229 226L163.453 197.968C164.541 194.277 166.162 191.621 168.317 190C170.493 188.379 173.063 187.568 176.029 187.568ZM190.62 223.888C190.129 225.445 189.948 226.512 190.076 227.088C190.225 227.664 190.513 227.952 190.94 227.952C191.26 227.952 191.569 227.845 191.868 227.632C192.188 227.419 192.593 227.056 193.084 226.544C193.468 226.181 193.766 225.968 193.98 225.904C194.214 225.84 194.449 225.861 194.684 225.968C194.961 226.096 195.11 226.373 195.132 226.8C195.153 227.205 194.993 227.749 194.652 228.432C193.734 230.288 192.252 231.824 190.204 233.04C188.177 234.235 185.692 234.832 182.748 234.832C180.764 234.832 179.313 234.48 178.396 233.776C177.5 233.051 177.03 232.027 176.988 230.704C176.966 229.381 177.265 227.792 177.884 225.936L181.66 214.64C182.15 213.253 182.332 212.283 182.204 211.728C182.076 211.173 181.798 210.896 181.372 210.896C181.073 210.896 180.753 211.003 180.412 211.216C180.07 211.408 179.601 211.803 179.004 212.4C178.641 212.699 178.342 212.88 178.108 212.944C177.873 213.008 177.638 212.997 177.404 212.912C177.126 212.784 176.977 212.528 176.956 212.144C176.956 211.739 177.116 211.227 177.436 210.608C178.545 208.56 180.134 206.885 182.204 205.584C184.294 204.283 186.662 203.632 189.308 203.632C191.014 203.632 192.337 203.995 193.276 204.72C194.214 205.424 194.758 206.469 194.908 207.856C195.078 209.243 194.833 210.939 194.172 212.944L190.62 223.888ZM190.652 200.688C188.646 200.688 187.1 200.219 186.012 199.28C184.945 198.341 184.412 197.168 184.412 195.76C184.412 194.565 184.774 193.424 185.5 192.336C186.225 191.227 187.249 190.331 188.572 189.648C189.894 188.944 191.473 188.592 193.308 188.592C195.526 188.592 197.137 189.083 198.14 190.064C199.142 191.024 199.644 192.187 199.644 193.552C199.644 194.896 199.281 196.112 198.556 197.2C197.83 198.288 196.796 199.141 195.452 199.76C194.129 200.379 192.529 200.688 190.652 200.688ZM199.556 212.912C199.279 212.784 199.13 212.528 199.108 212.144C199.108 211.739 199.268 211.227 199.588 210.608C200.74 208.539 202.394 206.864 204.548 205.584C206.724 204.283 209.167 203.632 211.876 203.632C213.519 203.632 214.767 203.963 215.62 204.624C216.495 205.285 216.932 206.245 216.932 207.504C216.932 208.251 216.772 209.093 216.452 210.032C216.154 210.949 215.802 211.899 215.396 212.88C214.991 213.861 214.607 214.821 214.244 215.76C213.903 216.677 213.69 217.531 213.604 218.32L212.836 218.128C213.967 215.355 215.236 213.04 216.644 211.184C218.074 209.307 219.546 207.824 221.06 206.736C222.596 205.627 224.122 204.837 225.636 204.368C227.151 203.877 228.57 203.632 229.892 203.632C231.706 203.632 233.082 204.027 234.02 204.816C234.98 205.584 235.524 206.672 235.652 208.08C235.78 209.488 235.535 211.152 234.916 213.072L231.396 223.888C230.884 225.445 230.692 226.512 230.82 227.088C230.97 227.664 231.268 227.952 231.716 227.952C232.015 227.952 232.324 227.845 232.644 227.632C232.964 227.419 233.359 227.056 233.828 226.544C234.212 226.181 234.511 225.968 234.724 225.904C234.959 225.84 235.194 225.861 235.428 225.968C235.727 226.096 235.887 226.373 235.908 226.8C235.93 227.205 235.77 227.749 235.428 228.432C234.49 230.288 233.007 231.824 230.98 233.04C228.954 234.235 226.468 234.832 223.524 234.832C221.562 234.832 220.122 234.48 219.204 233.776C218.287 233.072 217.796 232.059 217.732 230.736C217.69 229.413 217.978 227.835 218.596 226L221.956 215.728C222.511 214.192 222.724 213.083 222.596 212.4C222.468 211.717 221.988 211.376 221.156 211.376C220.644 211.376 220.079 211.579 219.46 211.984C218.863 212.368 218.234 212.944 217.572 213.712C216.932 214.459 216.292 215.397 215.652 216.528C215.034 217.637 214.458 218.917 213.924 220.368C213.562 221.371 213.242 222.309 212.964 223.184C212.708 224.059 212.506 224.848 212.356 225.552C212.228 226.235 212.164 226.811 212.164 227.28C212.164 227.92 212.271 228.485 212.484 228.976C212.719 229.467 212.836 230.032 212.836 230.672C212.836 231.931 211.951 232.944 210.18 233.712C208.431 234.459 205.956 234.832 202.756 234.832C200.623 234.832 199.322 234.256 198.852 233.104C198.404 231.952 198.554 230.299 199.3 228.144L203.812 214.64C204.303 213.253 204.484 212.283 204.356 211.728C204.228 211.173 203.951 210.896 203.524 210.896C203.226 210.896 202.906 211.003 202.564 211.216C202.223 211.408 201.754 211.803 201.156 212.4C200.794 212.699 200.495 212.88 200.26 212.944C200.026 213.008 199.791 212.997 199.556 212.912ZM254.295 214.896L253.079 215.376C253.591 213.541 254.337 211.899 255.319 210.448C256.321 208.976 257.505 207.739 258.871 206.736C260.236 205.712 261.751 204.944 263.415 204.432C265.079 203.899 266.849 203.632 268.727 203.632C271.201 203.632 273.111 204.24 274.455 205.456C275.82 206.672 276.332 208.475 275.991 210.864C275.713 212.955 274.657 214.779 272.823 216.336C270.988 217.872 268.257 219.195 264.631 220.304C261.025 221.413 256.375 222.341 250.679 223.088L250.583 220.656C253.484 220.315 255.873 219.781 257.751 219.056C259.649 218.331 261.1 217.413 262.103 216.304C263.127 215.173 263.777 213.829 264.055 212.272C264.289 211.205 264.183 210.373 263.735 209.776C263.308 209.157 262.7 208.848 261.911 208.848C261.057 208.848 260.183 209.115 259.287 209.648C258.412 210.16 257.569 210.917 256.759 211.92C255.948 212.901 255.191 214.117 254.487 215.568C253.783 217.019 253.185 218.672 252.695 220.528C252.353 221.829 252.097 222.907 251.927 223.76C251.756 224.592 251.628 225.285 251.543 225.84C251.479 226.395 251.447 226.875 251.447 227.28C251.447 227.92 251.564 228.485 251.799 228.976C252.033 229.467 252.151 230.032 252.151 230.672C252.151 231.504 251.756 232.24 250.967 232.88C250.177 233.499 249.025 233.979 247.511 234.32C246.017 234.661 244.183 234.832 242.007 234.832C240.577 234.832 239.543 234.587 238.903 234.096C238.263 233.605 237.921 232.869 237.879 231.888C237.857 230.885 238.06 229.648 238.487 228.176L244.919 205.04C245.943 201.392 247.425 198.267 249.367 195.664C251.308 193.061 253.783 191.067 256.791 189.68C259.82 188.272 263.468 187.568 267.735 187.568C271.447 187.568 274.284 188.144 276.247 189.296C278.209 190.448 279.191 191.941 279.191 193.776C279.191 195.12 278.732 196.283 277.815 197.264C276.897 198.245 275.628 198.736 274.007 198.736C272.812 198.736 271.703 198.373 270.679 197.648C269.676 196.923 268.727 196.08 267.831 195.12C266.956 194.139 266.092 193.285 265.239 192.56C264.407 191.813 263.553 191.44 262.679 191.44C262.209 191.44 261.783 191.579 261.399 191.856C261.036 192.133 260.695 192.581 260.375 193.2C260.076 193.819 259.777 194.651 259.479 195.696C258.732 198.235 258.071 200.517 257.495 202.544C256.94 204.571 256.449 206.363 256.023 207.92C255.596 209.477 255.233 210.832 254.935 211.984C254.657 213.115 254.444 214.085 254.295 214.896ZM254.967 221.552L265.271 218.928L266.999 224.624C267.276 225.563 267.639 226.235 268.087 226.64C268.535 227.045 269.047 227.248 269.623 227.248C270.049 227.248 270.444 227.131 270.807 226.896C271.191 226.661 271.607 226.299 272.055 225.808C272.353 225.552 272.62 225.392 272.855 225.328C273.111 225.264 273.335 225.264 273.527 225.328C273.783 225.392 273.964 225.552 274.071 225.808C274.199 226.064 274.209 226.437 274.103 226.928C273.569 228.613 272.769 230.043 271.703 231.216C270.657 232.389 269.409 233.285 267.959 233.904C266.508 234.523 264.908 234.832 263.159 234.832C261.303 234.832 259.863 234.341 258.839 233.36C257.815 232.379 257.079 230.917 256.631 228.976L254.967 221.552ZM289.752 231.952C290.648 231.952 291.362 231.653 291.896 231.056C292.45 230.459 292.738 229.691 292.76 228.752C292.76 228.069 292.61 227.451 292.312 226.896C292.013 226.341 291.49 225.776 290.744 225.2C289.997 224.624 288.93 223.952 287.544 223.184C285.858 222.245 284.482 221.328 283.416 220.432C282.349 219.515 281.57 218.544 281.08 217.52C280.589 216.475 280.365 215.301 280.408 214C280.472 212.123 281.122 210.395 282.36 208.816C283.597 207.216 285.368 205.936 287.672 204.976C289.997 203.995 292.824 203.504 296.152 203.504C298.84 203.504 301.058 203.835 302.808 204.496C304.557 205.136 305.858 206.011 306.712 207.12C307.586 208.208 308.034 209.435 308.056 210.8C308.077 212.272 307.768 213.413 307.128 214.224C306.509 215.013 305.666 215.408 304.6 215.408C303.49 215.408 302.541 215.035 301.752 214.288C300.962 213.541 300.226 212.197 299.544 210.256C298.968 208.869 298.317 207.856 297.592 207.216C296.866 206.576 296.002 206.256 295 206.256C294.168 206.256 293.496 206.523 292.984 207.056C292.493 207.589 292.248 208.357 292.248 209.36C292.248 210.043 292.397 210.704 292.696 211.344C293.016 211.984 293.613 212.677 294.488 213.424C295.362 214.149 296.6 215.024 298.2 216.048C299.97 217.093 301.357 218.085 302.36 219.024C303.384 219.941 304.088 220.891 304.472 221.872C304.856 222.832 305.005 223.931 304.92 225.168C304.813 227.045 304.088 228.709 302.744 230.16C301.4 231.611 299.565 232.752 297.24 233.584C294.914 234.416 292.205 234.832 289.112 234.832C286.104 234.832 283.672 234.48 281.816 233.776C279.981 233.051 278.648 232.101 277.816 230.928C276.984 229.755 276.568 228.475 276.568 227.088C276.61 225.787 276.93 224.741 277.528 223.952C278.125 223.141 278.957 222.736 280.024 222.736C281.346 222.736 282.402 223.173 283.192 224.048C283.981 224.901 284.696 226.235 285.336 228.048C285.954 229.52 286.594 230.544 287.256 231.12C287.938 231.675 288.77 231.952 289.752 231.952ZM328.284 185.712C330.716 185.712 332.444 186.224 333.468 187.248C334.492 188.272 334.866 189.648 334.588 191.376C334.524 192.101 334.29 193.008 333.884 194.096C333.479 195.163 332.999 196.229 332.444 197.296L321.884 217.296C321.564 217.829 321.212 218.224 320.828 218.48C320.466 218.736 320.028 218.864 319.516 218.864C319.026 218.864 318.663 218.736 318.428 218.48C318.215 218.224 318.119 217.819 318.14 217.264L318.46 197.008C318.482 196.219 318.524 195.451 318.588 194.704C318.652 193.936 318.759 193.253 318.908 192.656C319.442 190.395 320.476 188.677 322.012 187.504C323.548 186.309 325.639 185.712 328.284 185.712ZM315.644 234.672C313.66 234.672 312.124 234.192 311.036 233.232C309.948 232.272 309.404 231.045 309.404 229.552C309.404 228.251 309.778 227.045 310.524 225.936C311.292 224.805 312.38 223.909 313.788 223.248C315.196 222.565 316.86 222.224 318.78 222.224C320.828 222.224 322.354 222.725 323.356 223.728C324.359 224.731 324.86 225.989 324.86 227.504C324.86 228.741 324.498 229.915 323.772 231.024C323.047 232.112 321.991 232.997 320.604 233.68C319.239 234.341 317.586 234.672 315.644 234.672Z" fill="#598F4C"/>
<path d="M242.643 378.006L206.596 384.715C194.129 387.035 182.685 384.619 172.263 377.468C161.841 370.317 155.47 360.508 153.15 348.041C150.83 335.575 153.246 324.13 160.397 313.708C167.548 303.287 177.357 296.916 189.824 294.596L225.871 287.887L229.226 305.911L193.178 312.619C185.668 314.017 179.774 317.833 175.495 324.069C171.217 330.304 169.776 337.177 171.174 344.687C172.572 352.197 176.388 358.091 182.623 362.37C188.859 366.648 195.731 368.089 203.241 366.691L239.289 359.982L242.643 378.006ZM208.899 346.99L205.544 328.966L277.64 315.549L280.994 333.572L208.899 346.99ZM260.667 374.652L257.313 356.628L293.361 349.919C300.871 348.521 306.765 344.705 311.043 338.47C315.322 332.234 316.762 325.362 315.365 317.852C313.967 310.342 310.151 304.447 303.915 300.169C297.68 295.89 290.807 294.45 283.297 295.847L247.25 302.556L243.895 284.532L279.943 277.824C292.41 275.504 303.854 277.919 314.276 285.07C324.698 292.222 331.069 302.031 333.389 314.497C335.709 326.964 333.293 338.408 326.142 348.83C318.99 359.252 309.181 365.623 296.715 367.943L260.667 374.652Z" fill="#58AC43"/>
</svg>
