<svg width="485" height="485" viewBox="0 0 485 485" fill="none" xmlns="http://www.w3.org/2000/svg">
<circle cx="242.5" cy="242.5" r="237.5" stroke="#FFA9C3" stroke-width="10" stroke-linecap="round" stroke-dasharray="3 15"/>
<circle cx="243" cy="243" r="225" fill="#FFCBDB"/>
<path d="M139 380H230V320.362L198.637 289H139V380ZM139 393C135.425 393 132.365 391.727 129.819 389.181C127.273 386.635 126 383.575 126 380V289C126 285.425 127.273 282.365 129.819 279.819C132.365 277.273 135.425 276 139 276H204L243 315V380C243 383.575 241.727 386.635 239.181 389.181C236.635 391.727 233.575 393 230 393H139ZM152 367H217V354H152V367ZM152 341H217V328H152V341ZM152 315H197.5V302H152V315Z" fill="#CE3F69"/>
<path d="M327.374 340.542H262.5V332.458H327.374L304.741 309.825L310.5 304.167L342.833 336.5L310.5 368.833L304.741 363.175L327.374 340.542Z" fill="#CE3F69"/>
<path d="M99.7518 167.952C100.648 167.952 101.362 167.653 101.896 167.056C102.45 166.459 102.738 165.691 102.76 164.752C102.76 164.069 102.61 163.451 102.312 162.896C102.013 162.341 101.49 161.776 100.744 161.2C99.9971 160.624 98.9304 159.952 97.5438 159.184C95.8584 158.245 94.4824 157.328 93.4158 156.432C92.3491 155.515 91.5704 154.544 91.0798 153.52C90.5891 152.475 90.3651 151.301 90.4078 150C90.4718 148.123 91.1224 146.395 92.3598 144.816C93.5971 143.216 95.3678 141.936 97.6718 140.976C99.9971 139.995 102.824 139.504 106.152 139.504C108.84 139.504 111.058 139.835 112.808 140.496C114.557 141.136 115.858 142.011 116.712 143.12C117.586 144.208 118.034 145.435 118.056 146.8C118.077 148.272 117.768 149.413 117.128 150.224C116.509 151.013 115.666 151.408 114.6 151.408C113.49 151.408 112.541 151.035 111.752 150.288C110.962 149.541 110.226 148.197 109.544 146.256C108.968 144.869 108.317 143.856 107.592 143.216C106.866 142.576 106.002 142.256 105 142.256C104.168 142.256 103.496 142.523 102.984 143.056C102.493 143.589 102.248 144.357 102.248 145.36C102.248 146.043 102.397 146.704 102.696 147.344C103.016 147.984 103.613 148.677 104.488 149.424C105.362 150.149 106.6 151.024 108.2 152.048C109.97 153.093 111.357 154.085 112.36 155.024C113.384 155.941 114.088 156.891 114.472 157.872C114.856 158.832 115.005 159.931 114.92 161.168C114.813 163.045 114.088 164.709 112.744 166.16C111.4 167.611 109.565 168.752 107.24 169.584C104.914 170.416 102.205 170.832 99.1118 170.832C96.1038 170.832 93.6718 170.48 91.8158 169.776C89.9811 169.051 88.6478 168.101 87.8158 166.928C86.9838 165.755 86.5678 164.475 86.5678 163.088C86.6104 161.787 86.9304 160.741 87.5278 159.952C88.1251 159.141 88.9571 158.736 90.0238 158.736C91.3464 158.736 92.4024 159.173 93.1918 160.048C93.9811 160.901 94.6958 162.235 95.3358 164.048C95.9544 165.52 96.5944 166.544 97.2558 167.12C97.9384 167.675 98.7704 167.952 99.7518 167.952ZM156.645 161.552C156.943 161.68 157.093 161.947 157.093 162.352C157.114 162.736 156.965 163.227 156.645 163.824C155.514 165.915 153.85 167.611 151.653 168.912C149.477 170.192 147.045 170.832 144.357 170.832C142.693 170.832 141.434 170.501 140.581 169.84C139.727 169.179 139.301 168.219 139.301 166.96C139.301 166.213 139.45 165.381 139.749 164.464C140.069 163.525 140.431 162.565 140.837 161.584C141.242 160.603 141.615 159.643 141.957 158.704C142.319 157.765 142.543 156.912 142.629 156.144L143.397 156.336C142.266 159.109 140.986 161.424 139.557 163.28C138.149 165.136 136.677 166.619 135.141 167.728C133.626 168.837 132.111 169.627 130.597 170.096C129.103 170.587 127.685 170.832 126.341 170.832C124.57 170.832 123.205 170.448 122.245 169.68C121.306 168.891 120.762 167.792 120.613 166.384C120.485 164.955 120.741 163.291 121.381 161.392L124.901 150.544C125.413 148.987 125.594 147.931 125.445 147.376C125.295 146.8 125.007 146.512 124.581 146.512C124.282 146.512 123.973 146.619 123.653 146.832C123.333 147.024 122.927 147.387 122.437 147.92C122.053 148.261 121.743 148.464 121.509 148.528C121.295 148.592 121.071 148.581 120.837 148.496C120.559 148.368 120.41 148.101 120.389 147.696C120.367 147.269 120.527 146.715 120.869 146.032C121.786 144.155 123.258 142.619 125.285 141.424C127.333 140.229 129.829 139.632 132.773 139.632C134.735 139.632 136.175 139.984 137.093 140.688C138.01 141.392 138.49 142.405 138.533 143.728C138.597 145.029 138.309 146.608 137.669 148.464L134.309 158.736C133.775 160.272 133.573 161.381 133.701 162.064C133.829 162.725 134.287 163.056 135.077 163.056C135.589 163.056 136.143 162.864 136.741 162.48C137.359 162.096 137.989 161.531 138.629 160.784C139.29 160.016 139.93 159.077 140.549 157.968C141.167 156.837 141.754 155.547 142.309 154.096C142.693 153.093 143.013 152.155 143.269 151.28C143.525 150.405 143.717 149.616 143.845 148.912C143.994 148.208 144.069 147.621 144.069 147.152C144.069 146.533 143.951 145.979 143.717 145.488C143.482 144.997 143.365 144.432 143.365 143.792C143.365 142.533 144.239 141.531 145.989 140.784C147.759 140.016 150.255 139.632 153.477 139.632C155.631 139.632 156.933 140.208 157.381 141.36C157.829 142.512 157.669 144.165 156.901 146.32L152.389 159.824C151.919 161.189 151.749 162.16 151.877 162.736C152.005 163.291 152.282 163.568 152.709 163.568C153.007 163.568 153.327 163.461 153.669 163.248C154.01 163.035 154.469 162.64 155.045 162.064C155.407 161.744 155.706 161.552 155.941 161.488C156.197 161.424 156.431 161.445 156.645 161.552ZM180.672 131.6L174.56 151.856L173.024 151.92C173.963 148.933 175.179 146.544 176.672 144.752C178.166 142.96 179.798 141.659 181.568 140.848C183.36 140.037 185.152 139.632 186.944 139.632C189.739 139.632 191.883 140.507 193.376 142.256C194.891 144.005 195.648 146.331 195.648 149.232C195.648 152.048 195.147 154.757 194.144 157.36C193.142 159.941 191.776 162.245 190.048 164.272C188.342 166.299 186.39 167.899 184.192 169.072C182.016 170.245 179.734 170.832 177.344 170.832C174.976 170.832 173.014 170.256 171.456 169.104C169.92 167.931 169.238 166.085 169.408 163.568L171.136 165.136L163.68 169.008C162.998 169.477 162.379 169.829 161.824 170.064C161.27 170.32 160.768 170.448 160.32 170.448C159.531 170.448 159.019 170.085 158.784 169.36C158.571 168.635 158.72 167.387 159.232 165.616L166.08 141.04C167.104 137.392 168.587 134.267 170.528 131.664C172.491 129.04 174.976 127.035 177.984 125.648C181.014 124.261 184.651 123.568 188.896 123.568C192.544 123.568 195.328 124.144 197.248 125.296C199.19 126.448 200.16 127.941 200.16 129.776C200.16 131.12 199.712 132.283 198.816 133.264C197.942 134.245 196.736 134.736 195.2 134.736C193.984 134.736 192.875 134.373 191.872 133.648C190.87 132.923 189.92 132.08 189.024 131.12C188.128 130.139 187.254 129.285 186.4 128.56C185.568 127.813 184.715 127.44 183.84 127.44C183.136 127.44 182.539 127.749 182.048 128.368C181.579 128.987 181.12 130.064 180.672 131.6ZM180.768 145.104C180.086 145.189 179.382 145.627 178.656 146.416C177.952 147.205 177.27 148.24 176.608 149.52C175.947 150.779 175.35 152.197 174.816 153.776C174.283 155.333 173.835 156.944 173.472 158.608C173.131 160.272 172.918 161.883 172.832 163.44C172.79 164.592 172.96 165.488 173.344 166.128C173.75 166.768 174.251 167.088 174.848 167.088C175.552 167.088 176.267 166.683 176.992 165.872C177.718 165.061 178.422 163.984 179.104 162.64C179.808 161.296 180.438 159.803 180.992 158.16C181.547 156.517 181.984 154.843 182.304 153.136C182.624 151.429 182.784 149.84 182.784 148.368C182.784 147.536 182.699 146.875 182.528 146.384C182.379 145.893 182.144 145.541 181.824 145.328C181.526 145.115 181.174 145.04 180.768 145.104ZM217.048 164.144L221.016 151.728C221.506 150.171 221.698 149.061 221.592 148.4C221.485 147.717 221.037 147.376 220.248 147.376C219.565 147.376 218.808 147.728 217.976 148.432C217.144 149.115 216.301 150.128 215.448 151.472C214.616 152.795 213.837 154.427 213.112 156.368C212.749 157.371 212.429 158.309 212.152 159.184C211.874 160.059 211.672 160.848 211.544 161.552C211.416 162.235 211.352 162.811 211.352 163.28C211.352 163.92 211.458 164.485 211.672 164.976C211.906 165.467 212.024 166.032 212.024 166.672C212.024 167.931 211.138 168.944 209.368 169.712C207.618 170.459 205.144 170.832 201.944 170.832C199.81 170.832 198.509 170.256 198.04 169.104C197.592 167.952 197.741 166.299 198.488 164.144L203 150.64C203.49 149.253 203.672 148.283 203.544 147.728C203.416 147.173 203.138 146.896 202.712 146.896C202.413 146.896 202.093 147.003 201.752 147.216C201.41 147.408 200.941 147.803 200.344 148.4C199.981 148.699 199.682 148.88 199.448 148.944C199.213 149.008 198.978 148.997 198.744 148.912C198.466 148.784 198.317 148.528 198.296 148.144C198.296 147.739 198.456 147.227 198.776 146.608C199.906 144.539 201.56 142.864 203.736 141.584C205.912 140.283 208.354 139.632 211.064 139.632C212.706 139.632 213.954 139.963 214.808 140.624C215.682 141.285 216.12 142.245 216.12 143.504C216.12 144.251 215.96 145.093 215.64 146.032C215.341 146.949 214.989 147.899 214.584 148.88C214.178 149.861 213.794 150.821 213.432 151.76C213.09 152.677 212.877 153.531 212.792 154.32L212.024 154.128C213.538 150.437 215.277 147.536 217.24 145.424C219.202 143.312 221.218 141.819 223.288 140.944C225.357 140.069 227.298 139.632 229.112 139.632C230.946 139.632 232.322 139.963 233.24 140.624C234.178 141.264 234.648 142.256 234.648 143.6C234.648 144.283 234.498 145.083 234.2 146C233.922 146.896 233.581 147.835 233.176 148.816C232.77 149.797 232.386 150.757 232.024 151.696C231.682 152.635 231.448 153.499 231.32 154.288L230.392 154.064C231.544 151.419 232.802 149.179 234.168 147.344C235.554 145.488 236.994 143.995 238.488 142.864C240.002 141.733 241.517 140.912 243.032 140.4C244.568 139.888 246.05 139.632 247.48 139.632C249.272 139.632 250.637 140.027 251.576 140.816C252.514 141.584 253.048 142.672 253.176 144.08C253.304 145.488 253.058 147.152 252.44 149.072L248.984 159.888C248.493 161.445 248.322 162.512 248.472 163.088C248.642 163.664 248.93 163.952 249.336 163.952C249.677 163.952 249.997 163.845 250.296 163.632C250.616 163.419 251.01 163.056 251.48 162.544C251.885 162.181 252.194 161.968 252.408 161.904C252.642 161.84 252.866 161.861 253.08 161.968C253.378 162.096 253.538 162.373 253.56 162.8C253.581 163.205 253.41 163.749 253.048 164.432C252.152 166.288 250.69 167.824 248.664 169.04C246.637 170.235 244.141 170.832 241.176 170.832C239.213 170.832 237.784 170.48 236.888 169.776C235.992 169.072 235.512 168.059 235.448 166.736C235.384 165.392 235.65 163.813 236.248 162L239.544 151.728C240.077 150.192 240.28 149.083 240.152 148.4C240.024 147.717 239.565 147.376 238.776 147.376C238.093 147.376 237.325 147.728 236.472 148.432C235.64 149.115 234.808 150.128 233.976 151.472C233.144 152.795 232.365 154.427 231.64 156.368C231.256 157.371 230.936 158.309 230.68 159.184C230.424 160.059 230.221 160.848 230.072 161.552C229.944 162.235 229.88 162.811 229.88 163.28C229.88 163.92 229.997 164.485 230.232 164.976C230.466 165.467 230.584 166.032 230.584 166.672C230.584 167.931 229.698 168.944 227.928 169.712C226.178 170.459 223.704 170.832 220.504 170.832C219.074 170.832 218.029 170.576 217.368 170.064C216.706 169.552 216.365 168.795 216.344 167.792C216.322 166.789 216.557 165.573 217.048 164.144ZM270.995 159.888C270.504 161.445 270.323 162.512 270.451 163.088C270.6 163.664 270.888 163.952 271.315 163.952C271.635 163.952 271.944 163.845 272.243 163.632C272.563 163.419 272.968 163.056 273.459 162.544C273.843 162.181 274.141 161.968 274.355 161.904C274.589 161.84 274.824 161.861 275.059 161.968C275.336 162.096 275.485 162.373 275.507 162.8C275.528 163.205 275.368 163.749 275.027 164.432C274.109 166.288 272.627 167.824 270.579 169.04C268.552 170.235 266.067 170.832 263.123 170.832C261.139 170.832 259.688 170.48 258.771 169.776C257.875 169.051 257.405 168.027 257.363 166.704C257.341 165.381 257.64 163.792 258.259 161.936L262.035 150.64C262.525 149.253 262.707 148.283 262.579 147.728C262.451 147.173 262.173 146.896 261.747 146.896C261.448 146.896 261.128 147.003 260.787 147.216C260.445 147.408 259.976 147.803 259.379 148.4C259.016 148.699 258.717 148.88 258.483 148.944C258.248 149.008 258.013 148.997 257.779 148.912C257.501 148.784 257.352 148.528 257.331 148.144C257.331 147.739 257.491 147.227 257.811 146.608C258.92 144.56 260.509 142.885 262.579 141.584C264.669 140.283 267.037 139.632 269.683 139.632C271.389 139.632 272.712 139.995 273.651 140.72C274.589 141.424 275.133 142.469 275.283 143.856C275.453 145.243 275.208 146.939 274.547 148.944L270.995 159.888ZM271.027 136.688C269.021 136.688 267.475 136.219 266.387 135.28C265.32 134.341 264.787 133.168 264.787 131.76C264.787 130.565 265.149 129.424 265.875 128.336C266.6 127.227 267.624 126.331 268.947 125.648C270.269 124.944 271.848 124.592 273.683 124.592C275.901 124.592 277.512 125.083 278.515 126.064C279.517 127.024 280.019 128.187 280.019 129.552C280.019 130.896 279.656 132.112 278.931 133.2C278.205 134.288 277.171 135.141 275.827 135.76C274.504 136.379 272.904 136.688 271.027 136.688ZM283.639 144.656L282.103 144.176C281.719 144.005 281.431 143.792 281.239 143.536C281.068 143.259 280.983 142.949 280.983 142.608C280.983 142.139 281.185 141.765 281.591 141.488C281.996 141.211 282.519 141.072 283.159 141.072H285.239C285.836 141.072 286.38 140.944 286.871 140.688C287.361 140.432 287.873 140.059 288.407 139.568L295.735 133.968C296.119 133.627 296.492 133.381 296.855 133.232C297.217 133.061 297.623 132.976 298.071 132.976C298.583 132.976 298.956 133.115 299.191 133.392C299.447 133.669 299.575 134.021 299.575 134.448C299.575 134.704 299.543 135.056 299.479 135.504C299.415 135.952 299.297 136.464 299.127 137.04L292.855 159.824C292.428 161.381 292.343 162.469 292.599 163.088C292.876 163.707 293.431 164.016 294.263 164.016C294.881 164.016 295.489 163.824 296.087 163.44C296.705 163.056 297.367 162.427 298.071 161.552C298.412 161.189 298.679 160.944 298.871 160.816C299.084 160.688 299.319 160.624 299.575 160.624C299.873 160.624 300.108 160.752 300.279 161.008C300.449 161.243 300.471 161.595 300.343 162.064C300.087 163.109 299.553 164.155 298.743 165.2C297.932 166.224 296.897 167.163 295.639 168.016C294.38 168.869 292.929 169.552 291.287 170.064C289.665 170.576 287.895 170.832 285.975 170.832C284.055 170.832 282.583 170.48 281.559 169.776C280.535 169.051 279.948 167.952 279.799 166.48C279.649 164.987 279.905 163.088 280.567 160.784L284.247 147.92C284.567 146.853 284.673 146.085 284.567 145.616C284.46 145.147 284.151 144.827 283.639 144.656ZM294.871 144.656L296.023 141.2H302.999C303.852 141.2 304.279 141.595 304.279 142.384C304.279 143.088 304.001 143.643 303.447 144.048C302.892 144.453 302.145 144.656 301.207 144.656H294.871ZM308.764 144.656L307.228 144.176C306.844 144.005 306.556 143.792 306.364 143.536C306.193 143.259 306.108 142.949 306.108 142.608C306.108 142.139 306.31 141.765 306.716 141.488C307.121 141.211 307.644 141.072 308.284 141.072H310.364C310.961 141.072 311.505 140.944 311.996 140.688C312.486 140.432 312.998 140.059 313.532 139.568L320.86 133.968C321.244 133.627 321.617 133.381 321.98 133.232C322.342 133.061 322.748 132.976 323.196 132.976C323.708 132.976 324.081 133.115 324.316 133.392C324.572 133.669 324.7 134.021 324.7 134.448C324.7 134.704 324.668 135.056 324.604 135.504C324.54 135.952 324.422 136.464 324.252 137.04L317.98 159.824C317.553 161.381 317.468 162.469 317.724 163.088C318.001 163.707 318.556 164.016 319.388 164.016C320.006 164.016 320.614 163.824 321.212 163.44C321.83 163.056 322.492 162.427 323.196 161.552C323.537 161.189 323.804 160.944 323.996 160.816C324.209 160.688 324.444 160.624 324.7 160.624C324.998 160.624 325.233 160.752 325.404 161.008C325.574 161.243 325.596 161.595 325.468 162.064C325.212 163.109 324.678 164.155 323.868 165.2C323.057 166.224 322.022 167.163 320.764 168.016C319.505 168.869 318.054 169.552 316.412 170.064C314.79 170.576 313.02 170.832 311.1 170.832C309.18 170.832 307.708 170.48 306.684 169.776C305.66 169.051 305.073 167.952 304.924 166.48C304.774 164.987 305.03 163.088 305.692 160.784L309.372 147.92C309.692 146.853 309.798 146.085 309.692 145.616C309.585 145.147 309.276 144.827 308.764 144.656ZM319.996 144.656L321.148 141.2H328.124C328.977 141.2 329.404 141.595 329.404 142.384C329.404 143.088 329.126 143.643 328.572 144.048C328.017 144.453 327.27 144.656 326.332 144.656H319.996ZM334.548 156.56C334.548 156.56 334.89 156.475 335.572 156.304C336.276 156.112 337.183 155.867 338.292 155.568C339.402 155.269 340.596 154.949 341.876 154.608C343.156 154.245 344.404 153.904 345.62 153.584C346.858 153.243 347.914 152.944 348.788 152.688L347.572 153.872C347.871 152.976 348.116 151.899 348.308 150.64C348.522 149.381 348.639 147.963 348.66 146.384C348.66 145.232 348.5 144.336 348.18 143.696C347.882 143.035 347.412 142.704 346.772 142.704C346.196 142.704 345.62 142.96 345.044 143.472C344.468 143.984 343.924 144.731 343.412 145.712C342.922 146.672 342.484 147.845 342.1 149.232C341.738 150.619 341.45 152.197 341.236 153.968C340.916 157.083 341.258 159.472 342.26 161.136C343.284 162.8 344.991 163.632 347.38 163.632C348.468 163.632 349.482 163.44 350.42 163.056C351.359 162.651 352.244 162.096 353.076 161.392C353.908 160.667 354.687 159.803 355.412 158.8C355.882 158.245 356.266 157.872 356.564 157.68C356.884 157.488 357.226 157.403 357.588 157.424C357.994 157.445 358.314 157.648 358.548 158.032C358.804 158.416 358.815 159.013 358.58 159.824C357.855 161.936 356.724 163.824 355.188 165.488C353.674 167.131 351.743 168.432 349.396 169.392C347.071 170.352 344.308 170.832 341.108 170.832C337.972 170.832 335.402 170.288 333.396 169.2C331.412 168.112 330.004 166.555 329.172 164.528C328.34 162.501 328.074 160.069 328.372 157.232C328.628 154.736 329.29 152.411 330.356 150.256C331.444 148.101 332.863 146.224 334.612 144.624C336.383 143.003 338.42 141.744 340.724 140.848C343.05 139.952 345.588 139.504 348.34 139.504C350.687 139.504 352.596 139.899 354.068 140.688C355.562 141.477 356.682 142.533 357.428 143.856C358.175 145.157 358.602 146.619 358.708 148.24C358.751 148.645 358.847 149.008 358.996 149.328C359.167 149.648 359.412 149.861 359.732 149.968C360.01 150.053 360.212 150.181 360.34 150.352C360.468 150.501 360.532 150.704 360.532 150.96C360.532 151.301 360.394 151.632 360.116 151.952C359.839 152.272 359.316 152.528 358.548 152.72C357.759 152.912 356.628 153.2 355.156 153.584C353.706 153.968 352.084 154.405 350.292 154.896C348.522 155.387 346.73 155.877 344.916 156.368C343.103 156.837 341.439 157.285 339.924 157.712C338.41 158.117 337.183 158.448 336.244 158.704C335.327 158.939 334.868 159.056 334.868 159.056L334.548 156.56ZM391.812 145.52L385.252 145.968C385.38 144.965 385.327 144.187 385.092 143.632C384.858 143.077 384.271 142.8 383.332 142.8C382.436 142.8 381.551 143.216 380.676 144.048C379.823 144.859 379.012 145.947 378.244 147.312C377.476 148.656 376.794 150.16 376.196 151.824C375.599 153.467 375.13 155.141 374.788 156.848C374.447 158.533 374.276 160.123 374.276 161.616C374.276 163.003 374.468 163.952 374.852 164.464C375.258 164.976 375.748 165.232 376.324 165.232C376.751 165.232 377.199 165.104 377.668 164.848C378.138 164.571 378.607 164.133 379.076 163.536C379.546 162.939 380.004 162.16 380.452 161.2C380.922 160.24 381.348 159.056 381.732 157.648L388.516 133.968C389.583 130.277 391.226 127.621 393.444 126C395.663 124.379 398.287 123.568 401.316 123.568C403.727 123.568 405.53 124.069 406.724 125.072C407.919 126.075 408.516 127.269 408.516 128.656C408.516 130.128 408.079 131.323 407.204 132.24C406.351 133.157 405.156 133.616 403.62 133.616C402.703 133.616 401.871 133.424 401.124 133.04C400.378 132.656 399.684 132.208 399.044 131.696C398.404 131.184 397.786 130.747 397.188 130.384C396.591 130 395.972 129.808 395.332 129.808C394.735 129.808 394.255 129.989 393.892 130.352C393.53 130.715 393.348 131.173 393.348 131.728C393.348 132.368 393.551 133.019 393.956 133.68C394.362 134.32 394.831 135.013 395.364 135.76C395.919 136.507 396.42 137.36 396.868 138.32C397.338 139.28 397.636 140.379 397.764 141.616C397.914 142.853 397.764 144.293 397.316 145.936L393.412 160.336C393.05 161.68 392.932 162.64 393.06 163.216C393.188 163.771 393.487 164.048 393.956 164.048C394.255 164.048 394.564 163.941 394.884 163.728C395.204 163.515 395.599 163.152 396.068 162.64C396.474 162.277 396.783 162.064 396.996 162C397.231 161.915 397.455 161.925 397.668 162.032C397.967 162.16 398.127 162.437 398.148 162.864C398.17 163.269 398.01 163.813 397.668 164.496C397.05 165.733 396.196 166.832 395.108 167.792C394.02 168.731 392.762 169.467 391.332 170C389.903 170.555 388.367 170.832 386.724 170.832C384.804 170.832 383.439 170.395 382.628 169.52C381.839 168.645 381.444 167.472 381.444 166C381.444 165.381 381.466 164.752 381.508 164.112C381.572 163.451 381.658 162.789 381.764 162.128C381.892 161.445 382.02 160.816 382.148 160.24L383.364 160.72C382.532 163.003 381.487 164.891 380.228 166.384C378.97 167.877 377.53 168.997 375.908 169.744C374.287 170.469 372.516 170.832 370.596 170.832C368.463 170.832 366.692 170.405 365.284 169.552C363.898 168.699 362.906 167.472 362.308 165.872C361.711 164.251 361.53 162.299 361.764 160.016C361.978 157.413 362.66 154.896 363.812 152.464C364.986 150.032 366.532 147.856 368.452 145.936C370.394 143.995 372.655 142.459 375.236 141.328C377.839 140.197 380.698 139.632 383.812 139.632C385.668 139.632 387.194 139.888 388.388 140.4C389.583 140.912 390.458 141.616 391.012 142.512C391.567 143.387 391.834 144.389 391.812 145.52ZM140.954 228.144L144.922 215.728C145.413 214.171 145.605 213.061 145.498 212.4C145.391 211.717 144.943 211.376 144.154 211.376C143.471 211.376 142.714 211.728 141.882 212.432C141.05 213.115 140.207 214.128 139.354 215.472C138.522 216.795 137.743 218.427 137.018 220.368C136.655 221.371 136.335 222.309 136.058 223.184C135.781 224.059 135.578 224.848 135.45 225.552C135.322 226.235 135.258 226.811 135.258 227.28C135.258 227.92 135.365 228.485 135.578 228.976C135.813 229.467 135.93 230.032 135.93 230.672C135.93 231.931 135.045 232.944 133.274 233.712C131.525 234.459 129.05 234.832 125.85 234.832C123.717 234.832 122.415 234.256 121.946 233.104C121.498 231.952 121.647 230.299 122.394 228.144L126.906 214.64C127.397 213.253 127.578 212.283 127.45 211.728C127.322 211.173 127.045 210.896 126.618 210.896C126.319 210.896 125.999 211.003 125.658 211.216C125.317 211.408 124.847 211.803 124.25 212.4C123.887 212.699 123.589 212.88 123.354 212.944C123.119 213.008 122.885 212.997 122.65 212.912C122.373 212.784 122.223 212.528 122.202 212.144C122.202 211.739 122.362 211.227 122.682 210.608C123.813 208.539 125.466 206.864 127.642 205.584C129.818 204.283 132.261 203.632 134.97 203.632C136.613 203.632 137.861 203.963 138.714 204.624C139.589 205.285 140.026 206.245 140.026 207.504C140.026 208.251 139.866 209.093 139.546 210.032C139.247 210.949 138.895 211.899 138.49 212.88C138.085 213.861 137.701 214.821 137.338 215.76C136.997 216.677 136.783 217.531 136.698 218.32L135.93 218.128C137.445 214.437 139.183 211.536 141.146 209.424C143.109 207.312 145.125 205.819 147.194 204.944C149.263 204.069 151.205 203.632 153.018 203.632C154.853 203.632 156.229 203.963 157.146 204.624C158.085 205.264 158.554 206.256 158.554 207.6C158.554 208.283 158.405 209.083 158.106 210C157.829 210.896 157.487 211.835 157.082 212.816C156.677 213.797 156.293 214.757 155.93 215.696C155.589 216.635 155.354 217.499 155.226 218.288L154.298 218.064C155.45 215.419 156.709 213.179 158.074 211.344C159.461 209.488 160.901 207.995 162.394 206.864C163.909 205.733 165.423 204.912 166.938 204.4C168.474 203.888 169.957 203.632 171.386 203.632C173.178 203.632 174.543 204.027 175.482 204.816C176.421 205.584 176.954 206.672 177.082 208.08C177.21 209.488 176.965 211.152 176.346 213.072L172.89 223.888C172.399 225.445 172.229 226.512 172.378 227.088C172.549 227.664 172.837 227.952 173.242 227.952C173.583 227.952 173.903 227.845 174.202 227.632C174.522 227.419 174.917 227.056 175.386 226.544C175.791 226.181 176.101 225.968 176.314 225.904C176.549 225.84 176.773 225.861 176.986 225.968C177.285 226.096 177.445 226.373 177.466 226.8C177.487 227.205 177.317 227.749 176.954 228.432C176.058 230.288 174.597 231.824 172.57 233.04C170.543 234.235 168.047 234.832 165.082 234.832C163.119 234.832 161.69 234.48 160.794 233.776C159.898 233.072 159.418 232.059 159.354 230.736C159.29 229.392 159.557 227.813 160.154 226L163.45 215.728C163.983 214.192 164.186 213.083 164.058 212.4C163.93 211.717 163.471 211.376 162.682 211.376C161.999 211.376 161.231 211.728 160.378 212.432C159.546 213.115 158.714 214.128 157.882 215.472C157.05 216.795 156.271 218.427 155.546 220.368C155.162 221.371 154.842 222.309 154.586 223.184C154.33 224.059 154.127 224.848 153.978 225.552C153.85 226.235 153.786 226.811 153.786 227.28C153.786 227.92 153.903 228.485 154.138 228.976C154.373 229.467 154.49 230.032 154.49 230.672C154.49 231.931 153.605 232.944 151.834 233.712C150.085 234.459 147.61 234.832 144.41 234.832C142.981 234.832 141.935 234.576 141.274 234.064C140.613 233.552 140.271 232.795 140.25 231.792C140.229 230.789 140.463 229.573 140.954 228.144ZM203.285 212.272C204.16 209.456 205.216 207.312 206.453 205.84C207.712 204.368 209.216 203.632 210.965 203.632C212.352 203.632 213.44 204.101 214.229 205.04C215.04 205.957 215.445 207.184 215.445 208.72C215.445 210.683 214.848 212.368 213.653 213.776C212.48 215.184 210.944 216.389 209.045 217.392C208.192 217.84 207.424 218.299 206.741 218.768C206.08 219.216 205.482 219.728 204.949 220.304C204.416 220.859 203.925 221.531 203.477 222.32C203.05 223.109 202.645 224.069 202.261 225.2L199.061 234.864C197.866 238.491 196.426 241.392 194.741 243.568C193.077 245.765 191.114 247.355 188.853 248.336C186.613 249.317 184.064 249.808 181.205 249.808C177.984 249.808 175.53 249.2 173.845 247.984C172.16 246.768 171.317 245.136 171.317 243.088C171.317 241.68 171.776 240.464 172.693 239.44C173.589 238.416 174.741 237.904 176.149 237.904C177.194 237.904 178.069 238.171 178.773 238.704C179.477 239.259 180.096 239.941 180.629 240.752C181.162 241.584 181.664 242.405 182.133 243.216C182.602 244.048 183.104 244.731 183.637 245.264C184.192 245.819 184.853 246.096 185.621 246.096C186.005 246.096 186.357 246.032 186.677 245.904C187.018 245.776 187.296 245.552 187.509 245.232C187.744 244.912 187.925 244.485 188.053 243.952C188.181 243.419 188.245 242.747 188.245 241.936C188.245 241.232 188.181 240.197 188.053 238.832C187.946 237.467 187.797 235.888 187.605 234.096C187.434 232.325 187.232 230.469 186.997 228.528C186.762 226.587 186.517 224.667 186.261 222.768C186.026 220.848 185.792 219.077 185.557 217.456C185.322 215.813 185.109 214.448 184.917 213.36C184.81 212.464 184.629 211.835 184.373 211.472C184.117 211.088 183.829 210.896 183.509 210.896C183.253 210.896 182.976 211.024 182.677 211.28C182.4 211.515 182.069 211.931 181.685 212.528C181.493 212.763 181.301 212.923 181.109 213.008C180.917 213.093 180.714 213.104 180.501 213.04C180.266 212.997 180.064 212.837 179.893 212.56C179.744 212.261 179.765 211.813 179.957 211.216C180.448 209.787 181.216 208.496 182.261 207.344C183.328 206.192 184.597 205.285 186.069 204.624C187.541 203.963 189.13 203.632 190.837 203.632C192.437 203.632 193.728 204.133 194.709 205.136C195.69 206.117 196.288 207.611 196.501 209.616C196.608 210.576 196.714 211.792 196.821 213.264C196.949 214.736 197.077 216.357 197.205 218.128C197.333 219.899 197.45 221.691 197.557 223.504C197.685 225.317 197.781 227.056 197.845 228.72C197.93 230.363 197.994 231.792 198.037 233.008L196.885 232.976L203.285 212.272ZM257.526 223.92C257.099 225.52 256.95 226.608 257.078 227.184C257.227 227.76 257.515 228.048 257.942 228.048C258.262 228.048 258.571 227.941 258.87 227.728C259.19 227.515 259.595 227.152 260.086 226.64C260.47 226.277 260.769 226.064 260.982 226C261.217 225.915 261.451 225.925 261.686 226.032C261.985 226.16 262.134 226.437 262.134 226.864C262.155 227.269 261.995 227.813 261.654 228.496C260.737 230.352 259.297 231.877 257.334 233.072C255.371 234.245 253.163 234.832 250.71 234.832C248.833 234.832 247.51 234.405 246.742 233.552C245.974 232.677 245.59 231.493 245.59 230C245.59 229.552 245.611 229.051 245.654 228.496C245.718 227.941 245.793 227.376 245.878 226.8C245.985 226.224 246.091 225.669 246.198 225.136C246.305 224.581 246.411 224.08 246.518 223.632L247.222 225.264C246.561 227.269 245.633 228.987 244.438 230.416C243.265 231.845 241.867 232.944 240.246 233.712C238.625 234.459 236.811 234.832 234.806 234.832C232.011 234.832 229.867 233.968 228.374 232.24C226.881 230.512 226.273 227.995 226.55 224.688C226.721 222.597 227.201 220.539 227.99 218.512C228.779 216.464 229.867 214.544 231.254 212.752C232.662 210.96 234.326 209.381 236.246 208.016C238.187 206.651 240.374 205.584 242.806 204.816C245.259 204.027 247.926 203.632 250.806 203.632C253.515 203.632 255.841 203.813 257.782 204.176C259.745 204.539 261.227 205.008 262.23 205.584C263.254 206.16 263.734 206.757 263.67 207.376C263.606 207.952 263.382 208.357 262.998 208.592C262.635 208.805 262.251 209.029 261.846 209.264C261.462 209.477 261.195 209.893 261.046 210.512L257.526 223.92ZM239.35 225.008C239.222 226.565 239.307 227.643 239.606 228.24C239.926 228.816 240.321 229.104 240.79 229.104C241.345 229.104 241.91 228.848 242.486 228.336C243.062 227.803 243.649 227.045 244.246 226.064C244.843 225.061 245.43 223.867 246.006 222.48C246.582 221.072 247.126 219.483 247.638 217.712C248.171 215.941 248.662 214.021 249.11 211.952C249.451 210.267 249.547 208.997 249.398 208.144C249.249 207.291 248.79 206.864 248.022 206.864C247.254 206.864 246.475 207.248 245.686 208.016C244.918 208.763 244.171 209.776 243.446 211.056C242.742 212.336 242.091 213.776 241.494 215.376C240.918 216.955 240.438 218.576 240.054 220.24C239.691 221.904 239.457 223.493 239.35 225.008ZM286.106 201.584L275.386 242.448C275.109 243.472 275.002 244.229 275.066 244.72C275.151 245.232 275.578 245.563 276.346 245.712L278.298 246.096C278.874 246.203 279.279 246.384 279.514 246.64C279.77 246.917 279.898 247.237 279.898 247.6C279.919 248.048 279.727 248.411 279.322 248.688C278.917 248.987 278.394 249.147 277.754 249.168L260.09 249.424C259.599 249.445 259.205 249.328 258.906 249.072C258.607 248.816 258.458 248.485 258.458 248.08C258.458 247.696 258.575 247.355 258.81 247.056C259.045 246.779 259.482 246.48 260.122 246.16C260.783 245.904 261.285 245.659 261.626 245.424C261.967 245.211 262.234 244.944 262.426 244.624C262.597 244.304 262.757 243.867 262.906 243.312L273.818 203.632C274.01 202.971 274.394 202.331 274.97 201.712C275.567 201.093 276.282 200.517 277.114 199.984C277.946 199.429 278.799 198.949 279.674 198.544C280.57 198.139 281.413 197.829 282.202 197.616C282.991 197.381 283.642 197.264 284.154 197.264C285.263 197.264 285.957 197.616 286.234 198.32C286.533 199.003 286.49 200.091 286.106 201.584ZM269.242 212.688C268.837 213.029 268.421 213.211 267.994 213.232C267.567 213.253 267.226 213.125 266.97 212.848C266.735 212.549 266.693 212.155 266.842 211.664C267.013 211.152 267.354 210.672 267.866 210.224C269.295 208.923 270.927 207.771 272.762 206.768C274.618 205.765 276.741 204.976 279.13 204.4C281.519 203.803 284.207 203.504 287.194 203.504C290.437 203.504 293.178 204.133 295.418 205.392C297.658 206.651 299.29 208.464 300.314 210.832C301.338 213.179 301.637 216.016 301.21 219.344C300.847 222.459 299.877 225.168 298.298 227.472C296.719 229.776 294.714 231.557 292.282 232.816C289.85 234.075 287.151 234.704 284.186 234.704C281.455 234.704 279.279 234.171 277.658 233.104C276.037 232.037 274.981 230.693 274.49 229.072L276.922 227.92C277.391 228.837 277.935 229.552 278.554 230.064C279.194 230.555 279.93 230.811 280.762 230.832C281.829 230.832 282.863 230.405 283.866 229.552C284.869 228.677 285.775 227.301 286.586 225.424C287.397 223.525 288.058 221.04 288.57 217.968C289.018 215.429 289.146 213.339 288.954 211.696C288.762 210.053 288.314 208.827 287.61 208.016C286.927 207.205 286.053 206.768 284.986 206.704C282.511 206.597 279.919 207.013 277.21 207.952C274.522 208.891 271.866 210.469 269.242 212.688ZM324.669 201.584L313.949 242.448C313.671 243.472 313.565 244.229 313.629 244.72C313.714 245.232 314.141 245.563 314.909 245.712L316.861 246.096C317.437 246.203 317.842 246.384 318.077 246.64C318.333 246.917 318.461 247.237 318.461 247.6C318.482 248.048 318.29 248.411 317.885 248.688C317.479 248.987 316.957 249.147 316.317 249.168L298.652 249.424C298.162 249.445 297.767 249.328 297.468 249.072C297.17 248.816 297.02 248.485 297.02 248.08C297.02 247.696 297.138 247.355 297.372 247.056C297.607 246.779 298.044 246.48 298.684 246.16C299.346 245.904 299.847 245.659 300.188 245.424C300.53 245.211 300.796 244.944 300.988 244.624C301.159 244.304 301.319 243.867 301.468 243.312L312.381 203.632C312.573 202.971 312.957 202.331 313.533 201.712C314.13 201.093 314.845 200.517 315.677 199.984C316.509 199.429 317.362 198.949 318.237 198.544C319.133 198.139 319.975 197.829 320.765 197.616C321.554 197.381 322.205 197.264 322.717 197.264C323.826 197.264 324.519 197.616 324.797 198.32C325.095 199.003 325.053 200.091 324.669 201.584ZM307.805 212.688C307.399 213.029 306.983 213.211 306.557 213.232C306.13 213.253 305.789 213.125 305.533 212.848C305.298 212.549 305.255 212.155 305.405 211.664C305.575 211.152 305.917 210.672 306.429 210.224C307.858 208.923 309.49 207.771 311.325 206.768C313.181 205.765 315.303 204.976 317.693 204.4C320.082 203.803 322.77 203.504 325.757 203.504C328.999 203.504 331.741 204.133 333.981 205.392C336.221 206.651 337.853 208.464 338.877 210.832C339.901 213.179 340.199 216.016 339.773 219.344C339.41 222.459 338.439 225.168 336.861 227.472C335.282 229.776 333.277 231.557 330.845 232.816C328.413 234.075 325.714 234.704 322.749 234.704C320.018 234.704 317.842 234.171 316.221 233.104C314.599 232.037 313.543 230.693 313.053 229.072L315.485 227.92C315.954 228.837 316.498 229.552 317.117 230.064C317.757 230.555 318.493 230.811 319.325 230.832C320.391 230.832 321.426 230.405 322.429 229.552C323.431 228.677 324.338 227.301 325.149 225.424C325.959 223.525 326.621 221.04 327.133 217.968C327.581 215.429 327.709 213.339 327.517 211.696C327.325 210.053 326.877 208.827 326.173 208.016C325.49 207.205 324.615 206.768 323.549 206.704C321.074 206.597 318.482 207.013 315.773 207.952C313.085 208.891 310.429 210.469 307.805 212.688ZM361.503 185.712C363.935 185.712 365.663 186.224 366.687 187.248C367.711 188.272 368.084 189.648 367.807 191.376C367.743 192.101 367.508 193.008 367.103 194.096C366.698 195.163 366.218 196.229 365.663 197.296L355.103 217.296C354.783 217.829 354.431 218.224 354.047 218.48C353.684 218.736 353.247 218.864 352.735 218.864C352.244 218.864 351.882 218.736 351.647 218.48C351.434 218.224 351.338 217.819 351.359 217.264L351.679 197.008C351.7 196.219 351.743 195.451 351.807 194.704C351.871 193.936 351.978 193.253 352.127 192.656C352.66 190.395 353.695 188.677 355.231 187.504C356.767 186.309 358.858 185.712 361.503 185.712ZM348.863 234.672C346.879 234.672 345.343 234.192 344.255 233.232C343.167 232.272 342.623 231.045 342.623 229.552C342.623 228.251 342.996 227.045 343.743 225.936C344.511 224.805 345.599 223.909 347.007 223.248C348.415 222.565 350.079 222.224 351.999 222.224C354.047 222.224 355.572 222.725 356.575 223.728C357.578 224.731 358.079 225.989 358.079 227.504C358.079 228.741 357.716 229.915 356.991 231.024C356.266 232.112 355.21 232.997 353.823 233.68C352.458 234.341 350.804 234.672 348.863 234.672Z" fill="#C2466B"/>
</svg>
