<svg width="559" height="381" viewBox="0 0 559 381" fill="none" xmlns="http://www.w3.org/2000/svg">
<g opacity="0.3" filter="url(#filter0_f_1031_361)">
<path d="M34.3384 44.2671L479.058 10.7667C479.058 10.7667 490.518 249.583 496.638 275.234C501.59 295.988 509.901 344.048 509.901 344.048L48.9397 370.573C48.9397 370.573 48.9385 338.176 48.9369 302.366C48.9354 266.556 34.3384 44.2671 34.3384 44.2671Z" fill="#3E371E"/>
</g>
<path d="M33.5535 37.9449L481.055 4.23495C481.055 4.23495 487.601 244.475 504.733 270.279C531.554 310.675 558.412 322.777 558.412 322.777L80.9107 356.486C80.9107 356.486 65.0555 334.165 57.2321 297.583C49.4088 261.001 33.5535 37.9449 33.5535 37.9449Z" fill="#F6EF7F"/>
<path d="M99.0071 188.004C97.6241 188.105 96.5592 187.8 95.8123 187.09C95.0655 186.379 94.6632 185.626 94.6053 184.831C94.5374 183.898 94.6587 183.176 94.9693 182.667C95.2798 182.158 95.9276 181.746 96.9127 181.431C98.2064 181.059 99.547 180.614 100.934 180.096C102.356 179.575 103.708 179.042 104.989 178.497C106.302 177.915 107.443 177.345 108.41 176.788C109.375 176.197 110.066 175.66 110.483 175.178C109.907 174.907 108.999 174.608 107.759 174.281C106.516 173.92 105.13 173.499 103.6 173.02C102.103 172.503 100.65 171.879 99.2408 171.147C97.832 170.415 96.6551 169.527 95.7103 168.484C94.7654 167.44 94.2414 166.21 94.1383 164.792C93.995 162.821 94.3617 160.935 95.2387 159.134C96.1156 157.332 97.3298 155.627 98.8813 154.02C100.433 152.412 102.131 150.916 103.977 149.53C105.857 148.142 107.729 146.876 109.592 145.733C111.488 144.552 113.184 143.508 114.682 142.599C115.245 142.211 115.782 141.946 116.293 141.804C116.836 141.626 117.332 141.52 117.782 141.488C119.338 141.374 120.437 141.677 121.08 142.395C121.724 143.113 122.074 143.869 122.132 144.664C122.172 145.218 121.961 145.893 121.497 146.692C121.031 147.456 120.251 148.19 119.155 148.895C118.094 149.598 116.657 150.155 114.845 150.565C114.536 150.622 114.262 150.676 114.022 150.729C112.69 151.521 111.263 152.459 109.743 153.543C108.223 154.626 106.793 155.756 105.454 156.931C104.146 158.068 103.081 159.189 102.257 160.291C101.434 161.394 101.052 162.36 101.112 163.19C101.18 164.124 101.622 164.943 102.438 165.648C103.252 166.319 104.269 166.923 105.49 167.46C106.743 167.96 108.046 168.438 109.4 168.896C110.789 169.351 112.092 169.83 113.311 170.332C114.561 170.797 115.592 171.348 116.403 171.984C117.214 172.62 117.651 173.37 117.713 174.235C117.799 175.41 117.483 176.563 116.766 177.693C116.049 178.822 115.084 179.901 113.873 180.927C112.659 181.919 111.318 182.833 109.849 183.67C108.381 184.507 106.922 185.239 105.473 185.865C104.061 186.524 102.777 187.035 101.622 187.397C100.466 187.759 99.5949 187.961 99.0071 188.004ZM157.985 149.095C158.181 151.792 158.147 154.662 157.881 157.705C157.648 160.711 157.117 163.687 156.289 166.632C155.492 169.54 154.349 172.213 152.857 174.65C151.366 177.088 149.495 179.083 147.245 180.637C145.029 182.189 142.365 183.078 139.253 183.304C135.692 183.563 132.739 182.631 130.395 180.507C128.051 178.384 126.708 174.971 126.366 170.269C126.197 167.952 126.292 165.669 126.649 163.418C127.039 161.13 127.48 159.065 127.971 157.222C127.88 156.916 127.819 156.555 127.788 156.14C127.68 154.653 127.803 153.237 128.157 151.89C128.543 150.507 129.063 149.287 129.716 148.232C130.401 147.139 131.137 146.269 131.924 145.62C132.746 144.97 133.537 144.617 134.298 144.561C135.093 144.504 135.804 144.73 136.433 145.24C137.093 145.714 137.47 146.607 137.566 147.921C137.624 148.716 137.41 149.844 136.926 151.305C136.473 152.728 135.954 154.434 135.369 156.423C134.781 158.377 134.28 160.569 133.866 162.997C133.484 165.389 133.391 167.933 133.587 170.63C133.859 174.364 135.861 176.095 139.596 175.824C141.532 175.683 143.151 175.009 144.454 173.802C145.788 172.558 146.836 170.952 147.597 168.985C148.392 167.016 148.996 164.817 149.411 162.388C149.825 159.96 150.096 157.472 150.223 154.925C150.349 152.344 150.395 149.873 150.362 147.512C150.37 146.19 150.699 145.211 151.347 144.573C152.031 143.932 152.874 143.575 153.876 143.502C154.533 143.455 155.147 143.532 155.718 143.733C156.286 143.901 156.773 144.386 157.18 145.191C157.586 145.996 157.854 147.297 157.985 149.095ZM175.409 182.29C173.991 182.394 172.903 182.247 172.144 181.85C171.422 181.486 170.92 181.035 170.638 180.5C170.39 179.962 170.255 179.537 170.233 179.226C170.16 178.223 170.549 177.361 171.4 176.638C172.283 175.879 173.295 175.458 174.436 175.375C175.543 175.294 176.897 175.039 178.5 174.61C180.134 174.143 181.845 173.532 183.632 172.777C185.454 172.019 187.178 171.111 188.804 170.054C190.465 168.995 191.891 167.814 193.082 166.511C194.274 165.207 195.058 163.812 195.437 162.325C194.666 162.242 193.898 162.193 193.132 162.18C192.364 162.131 191.6 162.135 190.839 162.19C188.28 162.376 185.656 162.845 182.964 163.597C180.273 164.349 177.598 165.082 174.939 165.797C174.292 165.983 173.695 165.905 173.149 165.562C173.133 166.293 173.113 166.973 173.089 167.6C173.097 168.19 173.109 168.832 173.125 169.526C173.179 171.226 173.119 172.551 172.945 173.502C172.802 174.416 172.607 175.073 172.358 175.474C172.109 175.874 171.832 176.12 171.525 176.212C171.219 176.304 170.928 176.36 170.651 176.38C170.548 176.388 170.478 176.393 170.444 176.395C169.821 176.44 169.222 176.328 168.647 176.057C168.071 175.786 167.575 175.179 167.159 174.236C166.74 173.258 166.458 171.767 166.312 169.761C165.849 163.4 166.148 157.955 167.209 153.429C168.302 148.866 170.079 145.33 172.538 142.823C175.029 140.278 178.124 138.871 181.824 138.602C184.728 138.391 187.051 139.021 188.792 140.493C190.53 141.931 191.506 144.119 191.72 147.058C191.828 148.545 191.642 150.053 191.162 151.583C190.683 153.112 189.96 154.642 188.994 156.172C189.64 155.986 190.273 155.836 190.89 155.721C191.505 155.572 192.089 155.478 192.642 155.437C195.892 155.201 198.338 155.614 199.979 156.676C201.618 157.704 202.508 159.186 202.649 161.122C202.79 163.059 202.368 164.914 201.385 166.689C200.437 168.461 199.115 170.121 197.42 171.67C195.757 173.181 193.896 174.585 191.835 175.882C189.772 177.144 187.697 178.251 185.611 179.202C183.523 180.119 181.577 180.834 179.772 181.347C177.969 181.896 176.515 182.21 175.409 182.29ZM173.383 160.175C173.583 160.056 173.802 159.971 174.042 159.919C177.116 159.174 179.45 158.291 181.044 157.272C182.639 156.252 183.698 155.045 184.222 153.652C184.746 152.258 184.941 150.627 184.805 148.76C184.77 148.276 184.663 147.763 184.484 147.22C184.306 146.676 183.995 146.23 183.553 145.88C183.142 145.492 182.539 145.328 181.744 145.386C179.116 145.577 177.146 146.919 175.833 149.413C174.551 151.87 173.735 155.457 173.383 160.175ZM245.796 176.023C244.794 176.096 244.01 175.841 243.447 175.256C242.917 174.669 242.614 173.839 242.536 172.767C242.473 171.903 242.453 171.157 242.477 170.53C242.501 169.902 242.592 169.235 242.749 168.529C242.903 167.788 243.099 166.887 243.334 165.827C243.602 164.73 243.935 163.333 244.333 161.636C244.574 160.645 244.862 159.355 245.198 157.767C245.567 156.141 245.925 154.377 246.273 152.475C246.619 150.538 246.878 148.607 247.051 146.683C247.256 144.722 247.299 142.929 247.181 141.304C247.101 140.197 246.785 139.195 246.233 138.296C243.248 141.711 240.508 146.082 238.01 151.407C235.547 156.731 233.456 162.861 231.736 169.799C231.202 171.541 230.524 172.737 229.703 173.388C228.879 174.004 228.069 174.341 227.274 174.399C227.032 174.417 226.659 174.305 226.154 174.063C225.648 173.787 225.158 173.267 224.685 172.502C224.213 171.737 223.923 170.628 223.818 169.176C223.793 168.83 223.848 168.392 223.983 167.86C224.115 167.295 224.332 166.688 224.632 166.041C224.813 164.22 224.898 162.285 224.888 160.235C224.91 158.148 224.864 156.083 224.75 154.04C224.668 151.961 224.562 150.022 224.431 148.224C224.331 146.841 224.139 145.639 223.856 144.616C222.318 146.883 220.899 149.593 219.599 152.747C218.299 155.9 217.151 159.233 216.155 162.747C215.194 166.258 214.435 169.685 213.879 173.027C213.729 173.837 213.541 174.598 213.315 175.31C213.086 175.987 212.71 176.553 212.187 177.008C211.696 177.426 210.95 177.672 209.947 177.745C208.84 177.825 207.978 177.436 207.359 176.577C206.741 175.719 206.377 174.546 206.269 173.059C206.186 171.918 206.321 170.431 206.675 168.598C207.025 166.73 207.538 164.695 208.212 162.49C208.883 160.252 209.673 157.97 210.581 155.645C211.522 153.282 212.52 151.002 213.577 148.805C214.634 146.608 215.724 144.634 216.848 142.884C218.004 141.097 219.117 139.678 220.188 138.627C221.291 137.539 222.326 136.959 223.294 136.889C223.329 136.886 223.38 136.883 223.45 136.878C224.21 136.822 224.907 136.841 225.539 136.934C226.204 136.99 226.801 137.312 227.33 137.899C227.891 138.449 228.412 139.401 228.893 140.757C229.374 142.112 229.845 144.042 230.305 146.546C230.42 147.163 230.525 147.903 230.623 148.764C230.718 149.592 230.798 150.455 230.863 151.354C231.818 148.712 232.888 146.219 234.073 143.873C235.293 141.525 236.566 139.434 237.892 137.6C239.253 135.763 240.624 134.307 242.006 133.234C243.388 132.16 244.701 131.578 245.946 131.487C247.398 131.382 248.773 131.647 250.07 132.282C251.365 132.883 252.454 133.986 253.335 135.59C254.216 137.194 254.761 139.431 254.97 142.301C255.191 145.344 255.13 148.32 254.785 151.23C254.438 154.105 253.942 156.835 253.296 159.42C252.649 162.004 251.988 164.381 251.312 166.55C250.633 168.685 250.072 170.533 249.63 172.095C249.258 173.2 248.804 174.119 248.266 174.853C247.726 175.553 246.903 175.943 245.796 176.023ZM268.148 145.826C266.488 145.947 265.3 145.86 264.583 145.564C263.867 145.269 263.422 144.884 263.248 144.41C263.075 143.936 262.975 143.526 262.95 143.18C262.948 143.146 262.946 143.129 262.946 143.129C262.891 142.368 263.184 141.617 263.825 140.875C264.464 140.099 265.395 139.527 266.62 139.16C267.642 138.877 268.855 138.58 270.257 138.269C271.692 137.922 273.198 137.604 274.776 137.315C276.386 136.989 277.93 136.721 279.409 136.509C280.889 136.297 282.199 136.15 283.34 136.067C284.861 135.956 286.053 136.095 286.915 136.484C287.775 136.839 288.381 137.281 288.733 137.812C289.119 138.34 289.325 138.794 289.353 139.174C289.378 139.52 289.317 139.872 289.169 140.231C289.021 140.589 288.614 140.966 287.948 141.362C287.316 141.756 286.286 142.161 284.856 142.578C283.427 142.994 281.443 143.434 278.904 143.897C278.665 143.949 278.408 144.003 278.134 144.057C278 145.562 277.835 147.364 277.641 149.463C277.443 151.528 277.219 153.7 276.967 155.977C276.748 158.218 276.522 160.372 276.29 162.439C276.09 164.47 275.904 166.204 275.73 167.642C277.138 167.4 278.375 167.206 279.442 167.059C280.543 166.909 281.284 166.821 281.664 166.793C282.875 166.705 283.723 166.904 284.21 167.39C284.695 167.841 284.966 168.465 285.024 169.26C285.047 169.571 284.529 170.095 283.47 170.833C282.412 171.57 280.925 172.391 279.009 173.295C277.128 174.196 274.947 175.033 272.466 175.804C270.834 176.305 269.213 176.719 267.603 177.044C265.993 177.37 264.825 177.559 264.099 177.612C262.681 177.715 261.746 177.522 261.294 177.034C260.876 176.543 260.638 175.9 260.58 175.105C260.53 174.413 260.685 173.689 261.047 172.933C261.444 172.174 262.029 171.61 262.801 171.241C263.609 170.87 264.503 170.509 265.486 170.16C266.469 169.81 267.488 169.493 268.545 169.207C268.549 168.303 268.6 167.1 268.7 165.598C268.799 164.097 268.905 162.455 269.019 160.674C269.165 158.856 269.31 157.021 269.453 155.168C269.628 153.279 269.795 151.511 269.954 149.866C270.144 148.184 270.299 146.73 270.418 145.505C269.423 145.681 268.666 145.789 268.148 145.826ZM293.714 140.056C292.055 140.177 290.816 140.111 289.998 139.857C289.212 139.567 288.682 139.206 288.407 138.774C288.165 138.305 288.03 137.88 288.002 137.5C287.967 137.016 288.203 136.443 288.711 135.78C289.216 135.083 290.253 134.521 291.821 134.094C293.386 133.633 295.248 133.184 297.406 132.749C299.562 132.28 301.859 131.852 304.299 131.466C306.736 131.045 309.211 130.657 311.722 130.3C314.233 129.944 316.628 129.648 318.905 129.413C321.179 129.143 323.198 128.944 324.961 128.816C326.794 128.683 328.219 128.683 329.237 128.818C330.254 128.952 330.982 129.16 331.42 129.441C331.892 129.719 332.175 130.029 332.269 130.37C332.398 130.708 332.474 131.033 332.497 131.344C332.502 131.413 332.505 131.465 332.508 131.499C332.538 131.914 332.467 132.371 332.295 132.871C332.157 133.367 331.79 133.811 331.192 134.202C330.593 134.558 329.67 134.782 328.426 134.873C327.976 134.905 326.979 135.047 325.433 135.299C323.887 135.55 321.998 135.861 319.766 136.232C317.533 136.603 315.163 136.984 312.654 137.375C312.387 138.959 312.086 140.806 311.753 142.915C311.455 145.022 311.146 147.235 310.828 149.552C310.545 151.867 310.276 154.145 310.022 156.388C309.766 158.597 309.567 160.645 309.426 162.532C309.283 164.384 309.202 165.902 309.184 167.085C309.161 168.686 308.776 169.844 308.029 170.558C307.314 171.236 306.576 171.602 305.815 171.658C305.262 171.698 304.7 171.617 304.129 171.415C303.561 171.248 303.077 170.814 302.679 170.113C302.277 169.378 302.023 168.267 301.915 166.78C301.804 165.259 301.807 163.381 301.922 161.149C302.035 158.881 302.224 156.452 302.487 153.86C302.785 151.267 303.133 148.652 303.533 146.016C303.966 143.377 304.43 140.911 304.923 138.615C302.619 138.957 300.487 139.268 298.526 139.55C296.563 139.797 294.959 139.966 293.714 140.056ZM331.151 137.333C329.491 137.454 328.253 137.388 327.435 137.134C326.649 136.844 326.119 136.483 325.844 136.051C325.601 135.582 325.466 135.157 325.438 134.777C325.403 134.293 325.64 133.72 326.148 133.057C326.653 132.36 327.69 131.798 329.257 131.371C330.823 130.91 332.684 130.461 334.843 130.026C336.998 129.557 339.296 129.129 341.736 128.743C344.173 128.322 346.647 127.934 349.159 127.577C351.67 127.221 354.064 126.925 356.341 126.69C358.616 126.42 360.634 126.221 362.398 126.093C364.23 125.96 365.655 125.96 366.673 126.095C367.691 126.229 368.419 126.437 368.856 126.718C369.328 126.996 369.612 127.306 369.706 127.647C369.835 127.985 369.91 128.31 369.933 128.621C369.938 128.69 369.942 128.742 369.944 128.776C369.975 129.191 369.904 129.648 369.731 130.147C369.594 130.644 369.226 131.088 368.629 131.479C368.029 131.835 367.107 132.059 365.862 132.149C365.413 132.182 364.415 132.324 362.869 132.576C361.324 132.827 359.434 133.138 357.202 133.509C354.97 133.88 352.599 134.261 350.09 134.652C349.823 136.236 349.523 138.082 349.19 140.192C348.891 142.299 348.583 144.512 348.265 146.829C347.981 149.143 347.713 151.422 347.459 153.665C347.202 155.874 347.004 157.921 346.863 159.809C346.72 161.661 346.639 163.179 346.621 164.362C346.598 165.963 346.213 167.12 345.466 167.835C344.75 168.513 344.012 168.879 343.251 168.935C342.698 168.975 342.136 168.894 341.565 168.692C340.997 168.525 340.514 168.091 340.115 167.39C339.714 166.655 339.459 165.544 339.351 164.057C339.241 162.535 339.243 160.658 339.359 158.425C339.472 156.158 339.66 153.729 339.924 151.137C340.221 148.543 340.57 145.929 340.969 143.293C341.403 140.654 341.867 138.187 342.36 135.892C340.056 136.234 337.924 136.545 335.963 136.827C334 137.074 332.396 137.243 331.151 137.333ZM377.294 166.146C376.361 166.214 375.324 166.063 374.185 165.694C373.078 165.288 371.999 164.55 370.948 163.479C369.897 162.408 368.987 160.893 368.219 158.933C367.451 156.973 366.955 154.454 366.731 151.377C366.565 149.095 366.69 146.757 367.107 144.363C367.556 141.932 368.361 139.615 369.521 137.41C370.682 135.205 372.242 133.249 374.204 131.543C376.2 129.833 378.644 128.561 381.538 127.725C382.728 127.36 384.092 127 385.631 126.645C387.201 126.252 388.791 125.894 390.401 125.568C392.008 125.208 393.533 124.906 394.975 124.662C396.452 124.415 397.692 124.255 398.694 124.183C400.354 124.062 401.615 124.196 402.478 124.585C403.34 124.974 403.931 125.453 404.25 126.02C404.567 126.553 404.742 127.045 404.775 127.494C404.815 128.047 404.682 128.613 404.377 129.192C404.106 129.767 403.268 130.193 401.863 130.469C401.554 130.526 400.903 130.661 399.911 130.872C398.916 131.049 397.717 131.292 396.314 131.603C394.946 131.911 393.493 132.242 391.955 132.598C390.449 132.916 388.978 133.249 387.544 133.596C386.141 133.907 384.928 134.186 383.903 134.435C381.651 135.016 379.852 135.842 378.505 136.913C377.155 137.949 376.129 139.136 375.427 140.473C374.759 141.808 374.304 143.197 374.062 144.639C375.422 144.228 376.834 143.812 378.298 143.393C379.762 142.974 381.143 142.595 382.439 142.257C383.77 141.917 384.914 141.643 385.872 141.434C386.83 141.226 387.482 141.109 387.828 141.083C389.176 140.985 390.001 141.099 390.303 141.425C390.639 141.748 390.834 142.272 390.887 142.999C390.935 143.655 390.402 144.459 389.289 145.409C388.174 146.324 386.369 147.307 383.873 148.357C381.377 149.408 378.079 150.413 373.978 151.371C373.98 151.406 373.981 151.423 373.981 151.423C373.963 152.12 373.969 152.919 373.999 153.82C374.028 154.687 374.073 155.553 374.136 156.417C374.199 157.282 374.302 157.987 374.446 158.532C374.59 159.078 374.801 159.341 375.077 159.32C375.838 159.265 376.881 159.033 378.207 158.624C379.533 158.214 380.923 157.731 382.377 157.173C383.831 156.616 385.182 156.083 386.431 155.575C387.678 155.032 388.586 154.619 389.157 154.334C389.996 153.925 390.835 153.517 391.674 153.108C392.548 152.697 393.244 152.472 393.763 152.435C394.282 152.397 394.746 152.572 395.157 152.959C395.565 153.312 395.728 153.891 395.648 154.696C395.639 155.044 395.317 155.641 394.683 156.487C394.082 157.295 393.228 158.226 392.123 159.28C391.05 160.296 389.751 161.312 388.226 162.327C386.733 163.304 385.057 164.156 383.198 164.882C381.371 165.571 379.403 165.992 377.294 166.146ZM408.711 166.624C407.708 166.697 406.893 166.478 406.265 165.967C405.674 165.489 405.343 164.766 405.273 163.798C405.207 162.899 405.394 162.12 405.833 161.463C406.269 160.771 407.157 160.081 408.498 159.392C408.599 159.35 408.7 159.308 408.801 159.266C407.924 159.156 407.284 158.716 406.88 157.946C406.511 157.173 406.289 156.268 406.214 155.231C406.171 154.643 406.206 153.685 406.317 152.356C406.429 151.027 406.579 149.504 406.767 147.787C406.955 146.07 407.162 144.369 407.387 142.685C407.609 140.965 407.795 139.457 407.944 138.16C408.387 135.174 409.046 132.519 409.919 130.196C410.793 127.873 412.066 126.025 413.739 124.652C415.409 123.245 417.628 122.44 420.394 122.239C422.503 122.086 424.61 122.384 426.715 123.135C428.853 123.848 430.826 124.939 432.636 126.406C434.446 127.873 435.93 129.642 437.089 131.713C438.282 133.781 438.972 136.095 439.158 138.653C439.369 141.557 438.441 144.562 436.372 147.667C434.304 150.772 431.311 153.822 427.393 156.819C423.507 159.778 418.91 162.528 413.603 165.069C412.729 165.48 411.937 165.816 411.226 166.076C410.552 166.368 409.714 166.551 408.711 166.624ZM412.53 157.483C417.397 155.113 421.303 152.899 424.247 150.843C427.191 148.787 429.28 146.688 430.515 144.548C431.784 142.405 432.324 140.037 432.136 137.443C432.03 135.991 431.445 134.643 430.382 133.4C429.318 132.157 427.997 131.193 426.417 130.508C424.836 129.789 423.198 129.491 421.504 129.614C419.671 129.747 418.256 130.598 417.257 132.165C416.257 133.698 415.556 136.251 415.156 139.826C414.948 141.266 414.731 142.828 414.506 144.513C414.313 146.161 414.116 147.757 413.916 149.3C413.747 150.807 413.596 152.07 413.461 153.087C413.361 154.103 413.3 154.698 413.278 154.873C413.181 155.923 412.931 156.793 412.53 157.483ZM187.336 232.413C186.334 232.486 185.55 232.23 184.986 231.646C184.457 231.058 184.154 230.229 184.076 229.157C184.013 228.293 183.993 227.547 184.017 226.92C184.041 226.292 184.131 225.625 184.289 224.919C184.443 224.177 184.638 223.277 184.874 222.217C185.142 221.12 185.475 219.723 185.873 218.025C186.113 217.035 186.402 215.745 186.738 214.156C187.107 212.531 187.465 210.767 187.813 208.865C188.159 206.928 188.418 204.997 188.591 203.073C188.796 201.111 188.839 199.318 188.721 197.693C188.641 196.587 188.324 195.584 187.773 194.686C184.788 198.101 182.048 202.471 179.55 207.797C177.087 213.121 174.996 219.251 173.276 226.189C172.742 227.931 172.064 229.127 171.243 229.778C170.419 230.394 169.609 230.731 168.814 230.789C168.572 230.806 168.199 230.694 167.694 230.453C167.188 230.177 166.698 229.657 166.225 228.891C165.752 228.126 165.463 227.018 165.358 225.566C165.333 225.22 165.388 224.781 165.523 224.25C165.655 223.684 165.872 223.078 166.172 222.43C166.353 220.61 166.438 218.674 166.428 216.624C166.45 214.537 166.404 212.473 166.29 210.43C166.208 208.351 166.102 206.412 165.971 204.614C165.871 203.231 165.679 202.028 165.396 201.006C163.858 203.273 162.439 205.983 161.139 209.136C159.839 212.29 158.691 215.623 157.695 219.137C156.734 222.648 155.975 226.074 155.419 229.417C155.269 230.227 155.081 230.988 154.855 231.7C154.626 232.377 154.25 232.943 153.727 233.398C153.236 233.816 152.489 234.062 151.487 234.135C150.38 234.215 149.518 233.826 148.899 232.967C148.281 232.108 147.917 230.936 147.809 229.449C147.726 228.308 147.861 226.821 148.215 224.988C148.565 223.12 149.078 221.084 149.752 218.88C150.423 216.642 151.213 214.36 152.121 212.034C153.062 209.672 154.06 207.392 155.117 205.195C156.174 202.998 157.264 201.024 158.388 199.274C159.544 197.487 160.657 196.068 161.728 195.016C162.83 193.928 163.866 193.349 164.834 193.279C164.869 193.276 164.92 193.272 164.99 193.267C165.75 193.212 166.447 193.231 167.079 193.324C167.744 193.38 168.341 193.701 168.87 194.288C169.431 194.838 169.952 195.791 170.433 197.147C170.914 198.502 171.385 200.431 171.845 202.935C171.959 203.553 172.065 204.292 172.163 205.154C172.258 205.981 172.338 206.845 172.403 207.744C173.358 205.102 174.428 202.608 175.613 200.263C176.833 197.915 178.106 195.824 179.432 193.989C180.793 192.152 182.164 190.697 183.546 189.623C184.928 188.55 186.241 187.968 187.486 187.877C188.938 187.771 190.313 188.036 191.61 188.672C192.905 189.273 193.994 190.375 194.875 191.98C195.756 193.584 196.301 195.821 196.51 198.691C196.731 201.733 196.67 204.71 196.325 207.62C195.978 210.495 195.482 213.225 194.836 215.809C194.189 218.394 193.528 220.771 192.852 222.94C192.173 225.075 191.612 226.923 191.169 228.485C190.798 229.589 190.343 230.509 189.806 231.243C189.266 231.943 188.443 232.333 187.336 232.413ZM222.202 234.413C220.819 234.514 219.792 234.241 219.119 233.595C218.446 232.948 218.076 232.158 218.008 231.225C217.928 230.118 218.336 227.604 219.232 223.68C220.126 219.722 221.645 214.329 223.79 207.499C222.691 209.108 221.565 210.598 220.413 211.968C219.262 213.337 218.091 214.448 216.902 215.299C215.745 216.113 214.578 216.563 213.403 216.649C210.809 216.837 208.729 216.189 207.161 214.704C205.593 213.219 204.682 210.731 204.428 207.239C204.167 203.643 204.221 200.563 204.59 197.999C204.957 195.4 205.481 193.276 206.16 191.628C206.84 189.98 207.534 188.765 208.241 187.984C208.947 187.168 209.507 186.744 209.922 186.714C211.166 186.624 212.139 186.848 212.838 187.388C213.57 187.891 213.972 188.644 214.045 189.647C214.116 190.615 213.984 191.667 213.649 192.804C213.349 193.938 212.993 195.25 212.58 196.74C212.167 198.23 211.826 199.992 211.557 202.028C211.32 204.026 211.301 206.391 211.5 209.123C211.545 209.745 211.775 210.041 212.19 210.011C213.4 209.923 214.613 209.4 215.83 208.443C217.078 207.448 218.29 206.196 219.467 204.685C220.677 203.172 221.809 201.526 222.861 199.746C223.911 197.932 224.858 196.142 225.703 194.378C226.583 192.61 227.302 191.029 227.861 189.633C228.218 188.807 228.545 188.053 228.843 187.371C229.139 186.655 229.549 186.086 230.075 185.665C230.598 185.21 231.343 184.948 232.311 184.877C233.522 184.789 234.462 185.051 235.132 185.663C235.837 186.272 236.233 187.181 236.321 188.391C236.371 189.083 235.853 191.032 234.765 194.24C233.675 197.413 232.334 202.15 230.742 208.453C229.582 213.056 228.611 216.915 227.83 220.031C227.049 223.146 226.38 225.663 225.824 227.58C225.301 229.461 224.848 230.884 224.467 231.85C224.085 232.816 223.715 233.469 223.358 233.808C223.002 234.181 222.617 234.383 222.202 234.413ZM258.17 227.939C257.34 227.999 256.596 227.81 255.939 227.371C255.281 226.932 254.895 225.918 254.779 224.327C254.726 223.601 254.901 222.424 255.304 220.796C255.707 219.168 256.263 217.25 256.971 215.044C257.712 212.8 258.547 210.428 259.478 207.927C260.408 205.426 261.391 202.939 262.428 200.465C263.465 197.992 264.479 195.693 265.472 193.57C266.464 191.447 267.393 189.642 268.258 188.154C269.155 186.629 269.897 185.602 270.484 185.072C271.336 184.35 272.211 183.956 273.11 183.891C273.594 183.855 274.064 183.873 274.521 183.944C275.013 184.013 275.423 184.157 275.752 184.376C276.511 184.773 277.213 185.591 277.859 186.83C278.538 188.032 279.166 189.498 279.744 191.229C280.356 192.957 280.892 194.83 281.351 196.847C281.843 198.827 282.281 200.794 282.667 202.747C283.968 202.479 284.861 202.327 285.345 202.292C286.382 202.216 287.31 202.305 288.128 202.558C288.943 202.777 289.401 203.335 289.501 204.231C289.633 205.091 289.409 205.837 288.829 206.47C288.284 207.1 287.555 207.588 286.641 207.932C286.237 208.101 285.25 208.399 283.682 208.825C283.914 210.581 284.074 212.064 284.163 213.274C284.386 216.351 284.387 218.75 284.164 220.469C283.977 222.186 283.65 223.426 283.184 224.19C282.753 224.951 282.265 225.421 281.722 225.6C281.216 225.81 280.756 225.931 280.341 225.961C280.306 225.963 280.272 225.966 280.237 225.969C279.234 226.041 278.472 225.836 277.95 225.353C277.463 224.867 277.176 224.019 277.088 222.809L276.82 219.126C276.737 217.985 276.626 216.707 276.489 215.292C276.351 213.877 276.172 212.378 275.953 210.795C273.938 211.289 271.923 211.784 269.909 212.278C267.926 212.735 266.217 213.137 264.783 213.485C264.239 215.088 263.77 216.53 263.377 217.81C262.981 219.056 262.721 220.03 262.599 220.734C262.203 222.466 261.816 223.833 261.437 224.833C261.056 225.8 260.671 226.488 260.284 226.899C259.934 227.341 259.588 227.61 259.248 227.704C258.909 227.833 258.55 227.911 258.17 227.939ZM267.171 206.898C268.598 206.447 269.976 206.034 271.304 205.659C272.63 205.25 273.889 204.88 275.082 204.55C274.753 202.419 274.393 200.342 274.003 198.32C273.612 196.298 273.204 194.503 272.777 192.935C272.004 194.729 271.1 196.88 270.066 199.388C269.064 201.86 268.099 204.363 267.171 206.898ZM317.284 208.988C315.278 209.134 313.29 209.035 311.319 208.692C309.382 208.346 307.539 207.855 305.789 207.217C305.255 210.384 304.846 213.838 304.561 217.578C304.499 218.625 304.36 219.591 304.147 220.475C303.93 221.325 303.547 222.031 302.997 222.592C302.447 223.154 301.602 223.476 300.461 223.559C299.389 223.637 298.65 223.274 298.244 222.469C297.838 221.664 297.59 220.657 297.502 219.447C297.475 219.066 297.541 218.071 297.702 216.46C297.863 214.85 298.069 212.906 298.321 210.628C298.57 208.316 298.831 205.933 299.104 203.48C297.584 202.166 296.781 200.921 296.695 199.745C296.652 199.158 296.785 198.592 297.093 198.048C297.433 197.467 298.139 197.138 299.211 197.06C299.349 197.05 299.543 197.088 299.793 197.174C299.998 195.213 300.166 193.462 300.297 191.924C300.461 190.347 300.534 189.212 300.519 188.518C300.492 187.2 300.629 186.216 300.93 185.569C301.228 184.887 301.628 184.423 302.132 184.178C302.668 183.896 303.212 183.734 303.765 183.694C304.491 183.641 305.056 183.757 305.459 184.04C305.862 184.324 306.102 185.001 306.18 186.073C306.256 187.111 306.307 188.063 306.336 188.93C307.819 185.902 309.434 183.734 311.181 182.425C312.925 181.081 314.886 180.331 317.065 180.172C319.208 180.016 321.118 180.468 322.794 181.528C324.47 182.588 325.821 184.193 326.846 186.343C327.904 188.456 328.544 191.051 328.768 194.128C329.11 198.83 328.276 202.419 326.266 204.894C324.289 207.332 321.295 208.696 317.284 208.988ZM307.107 200.969C308.437 201.568 309.847 202.073 311.336 202.486C312.824 202.865 314.328 202.999 315.85 202.888C318.304 202.71 320.056 201.939 321.104 200.577C322.186 199.212 322.621 197.06 322.407 194.121C322.027 188.9 320.264 186.404 317.118 186.633C315.112 186.779 313.24 188.045 311.502 190.431C309.799 192.814 308.334 196.327 307.107 200.969ZM355.784 206.188C353.779 206.334 351.79 206.235 349.819 205.892C347.882 205.546 346.039 205.054 344.289 204.417C343.755 207.584 343.346 211.037 343.062 214.777C342.999 215.825 342.86 216.791 342.647 217.675C342.431 218.525 342.047 219.231 341.497 219.792C340.947 220.353 340.102 220.676 338.961 220.759C337.889 220.837 337.15 220.473 336.744 219.669C336.338 218.864 336.091 217.856 336.003 216.646C335.975 216.266 336.042 215.271 336.202 213.66C336.363 212.049 336.57 210.105 336.821 207.828C337.07 205.516 337.331 203.133 337.605 200.68C336.084 199.366 335.281 198.121 335.195 196.945C335.152 196.357 335.285 195.791 335.593 195.248C335.933 194.667 336.639 194.337 337.711 194.259C337.849 194.249 338.043 194.287 338.293 194.373C338.498 192.412 338.666 190.662 338.797 189.123C338.961 187.547 339.035 186.412 339.019 185.718C338.992 184.399 339.129 183.416 339.43 182.768C339.728 182.086 340.129 181.623 340.632 181.378C341.168 181.095 341.712 180.934 342.265 180.894C342.991 180.841 343.556 180.956 343.959 181.24C344.362 181.523 344.602 182.201 344.68 183.273C344.756 184.31 344.808 185.262 344.836 186.129C346.319 183.101 347.934 180.933 349.681 179.624C351.425 178.281 353.387 177.53 355.565 177.372C357.709 177.216 359.618 177.668 361.294 178.728C362.97 179.787 364.321 181.392 365.346 183.542C366.404 185.655 367.044 188.25 367.268 191.327C367.61 196.03 366.776 199.618 364.767 202.093C362.789 204.531 359.795 205.896 355.784 206.188ZM345.607 198.169C346.937 198.767 348.347 199.273 349.837 199.686C351.324 200.064 352.828 200.198 354.35 200.088C356.805 199.909 358.556 199.139 359.604 197.776C360.686 196.412 361.121 194.26 360.907 191.321C360.527 186.1 358.764 183.604 355.618 183.833C353.612 183.979 351.741 185.244 350.002 187.63C348.299 190.013 346.834 193.526 345.607 198.169ZM376.363 206.046C375.879 206.082 375.433 205.923 375.025 205.57C374.649 205.18 374.423 204.45 374.345 203.378C374.289 202.617 374.341 201.414 374.499 199.769C374.658 198.124 374.902 196.229 375.233 194.085C375.595 191.903 376.021 189.631 376.509 187.266C376.995 184.867 377.537 182.517 378.134 180.214C378.729 177.876 379.357 175.763 380.019 173.872C380.334 172.946 380.873 172.229 381.635 171.721C382.43 171.177 383.311 170.87 384.279 170.799C385.282 170.726 386.042 171.14 386.559 172.041C387.077 172.942 387.376 173.945 387.456 175.052C387.486 175.467 387.335 176.26 387.004 177.431C386.706 178.6 386.288 180.02 385.749 181.693C385.211 183.366 384.613 185.182 383.956 187.142C383.331 189.064 382.692 191.022 382.037 193.016C381.415 194.973 380.838 196.84 380.307 198.617C379.776 200.393 379.35 201.953 379.031 203.298C378.822 204.251 378.49 204.936 378.033 205.351C377.612 205.764 377.055 205.996 376.363 206.046ZM374.719 220.712C374.304 220.742 373.813 220.674 373.244 220.507C372.676 220.339 372.156 219.873 371.683 219.108C371.247 218.375 370.968 217.162 370.844 215.468C370.749 214.154 371.091 213.121 371.87 212.369C372.65 211.617 373.731 211.191 375.114 211.09C376.29 211.005 377.213 211.268 377.883 211.879C378.587 212.489 378.984 213.398 379.072 214.608C379.152 215.715 378.947 216.72 378.457 217.625C378.001 218.527 377.411 219.248 376.685 219.787C375.997 220.359 375.341 220.667 374.719 220.712Z" fill="black"/>
<defs>
<filter id="filter0_f_1031_361" x="24.3389" y="0.766602" width="495.562" height="379.807" filterUnits="userSpaceOnUse" color-interpolation-filters="sRGB">
<feFlood flood-opacity="0" result="BackgroundImageFix"/>
<feBlend mode="normal" in="SourceGraphic" in2="BackgroundImageFix" result="shape"/>
<feGaussianBlur stdDeviation="5" result="effect1_foregroundBlur_1031_361"/>
</filter>
</defs>
</svg>
