<svg width="497" height="497" viewBox="0 0 497 497" fill="none" xmlns="http://www.w3.org/2000/svg">
<g filter="url(#filter0_d_487_5869)">
<path fill-rule="evenodd" clip-rule="evenodd" d="M379.906 6H339.094C333.424 19.5108 320.07 29 304.5 29C288.93 29 275.576 19.5108 269.906 6H229.094C223.424 19.5108 210.07 29 194.5 29C178.93 29 165.576 19.5108 159.906 6H119.094C113.424 19.5108 100.07 29 84.5 29C68.9298 29 55.576 19.5108 49.9062 6H10V46.3432C22.9767 52.2412 32 65.3169 32 80.5C32 95.6831 22.9767 108.759 10 114.657V156.343C22.9767 162.241 32 175.317 32 190.5C32 205.683 22.9767 218.759 10 224.657V266.343C22.9767 272.241 32 285.317 32 300.5C32 315.683 22.9767 328.759 10 334.657V376.343C22.9767 382.241 32 395.317 32 410.5C32 425.683 22.9767 438.759 10 444.657V483H46.7962C51.6513 467.915 65.801 457 82.5 457C99.1991 457 113.349 467.915 118.204 483H156.796C161.651 467.915 175.801 457 192.5 457C209.199 457 223.349 467.915 228.204 483H266.796C271.651 467.915 285.801 457 302.5 457C319.199 457 333.349 467.915 338.204 483H376.796C381.651 467.915 395.801 457 412.5 457C429.199 457 443.349 467.915 448.204 483H487V441.675C475.105 435.387 467 422.89 467 408.5C467 394.11 475.105 381.613 487 375.325V331.675C475.105 325.387 467 312.89 467 298.5C467 284.11 475.105 271.613 487 265.325V221.675C475.105 215.387 467 202.89 467 188.5C467 174.11 475.105 161.613 487 155.325V111.675C475.105 105.387 467 92.8902 467 78.5C467 64.1098 475.105 51.6127 487 45.3252V6H449.094C443.424 19.5108 430.07 29 414.5 29C398.93 29 385.576 19.5108 379.906 6Z" fill="#93ECAC"/>
</g>
<rect x="62" y="46" width="385" height="385" rx="10" fill="#A8F7BE"/>
<path d="M100.402 299.49C100.402 298.842 100.402 298.104 100.402 297.276C100.438 296.412 100.492 295.584 100.564 294.792C99.988 294.828 99.304 294.864 98.512 294.9C97.756 294.9 97.18 294.918 96.784 294.954V290.85C98.476 290.85 99.88 290.76 100.996 290.58C102.148 290.4 103.048 290.184 103.696 289.932C104.38 289.68 104.848 289.446 105.1 289.23H108.016V305.052C109.24 303.972 110.482 303.216 111.742 302.784C113.002 302.352 114.19 302.136 115.306 302.136C117.466 302.136 119.356 302.694 120.976 303.81C122.632 304.926 123.91 306.51 124.81 308.562C125.746 310.614 126.214 313.026 126.214 315.798C126.214 318.678 125.674 321.27 124.594 323.574C123.55 325.842 122.056 327.624 120.112 328.92C118.168 330.216 115.828 330.864 113.092 330.864C112.12 330.864 110.878 330.648 109.366 330.216C107.89 329.82 106.522 328.956 105.262 327.624L103.642 330H100.402V299.49ZM108.016 321.9C108.016 323.124 108.214 324.096 108.61 324.816C109.006 325.536 109.51 326.058 110.122 326.382C110.734 326.706 111.346 326.886 111.958 326.922C113.578 326.958 114.838 326.49 115.738 325.518C116.674 324.546 117.322 323.268 117.682 321.684C118.078 320.064 118.276 318.372 118.276 316.608C118.276 314.952 118.078 313.386 117.682 311.91C117.286 310.434 116.656 309.246 115.792 308.346C114.928 307.41 113.794 306.96 112.39 306.996C111.49 307.032 110.662 307.266 109.906 307.698C109.15 308.094 108.52 308.634 108.016 309.318V321.9ZM146.747 330.864C144.587 330.864 142.841 330.45 141.509 329.622C140.213 328.794 139.259 327.498 138.647 325.734C138.071 323.97 137.783 321.702 137.783 318.93V312.72C137.783 312.072 137.801 311.334 137.837 310.506C137.873 309.642 137.909 308.814 137.945 308.022C137.369 308.058 136.685 308.094 135.893 308.13C135.137 308.13 134.561 308.148 134.165 308.184V304.08H134.705C136.937 304.08 138.701 303.9 139.997 303.54C141.293 303.18 142.121 302.82 142.481 302.46H145.451V318.984C145.451 321.324 145.757 323.07 146.369 324.222C146.981 325.338 147.953 325.896 149.285 325.896C150.221 325.896 151.157 325.644 152.093 325.14C153.065 324.6 153.857 323.988 154.469 323.304V312.72C154.469 312.072 154.487 311.334 154.523 310.506C154.559 309.642 154.613 308.814 154.685 308.022C154.109 308.058 153.425 308.094 152.633 308.13C151.877 308.13 151.301 308.148 150.905 308.184V304.08H152.201C153.893 304.08 155.387 303.9 156.683 303.54C157.979 303.144 158.807 302.784 159.167 302.46H162.137V321.306C162.137 321.81 162.119 322.53 162.083 323.466C162.047 324.366 161.993 325.23 161.921 326.058C162.497 325.986 163.127 325.95 163.811 325.95C164.531 325.914 165.071 325.896 165.431 325.896V330H155.171C155.135 329.532 155.081 329.064 155.009 328.596C154.973 328.128 154.919 327.66 154.847 327.192C153.731 328.128 152.525 328.974 151.229 329.73C149.969 330.486 148.475 330.864 146.747 330.864ZM186.77 330.864C185.222 330.864 183.71 330.666 182.234 330.27C180.758 329.874 179.606 329.37 178.778 328.758L178.886 330.378H174.782L174.566 321.09H178.076C178.184 322.17 178.616 323.16 179.372 324.06C180.128 324.96 181.118 325.68 182.342 326.22C183.566 326.724 184.934 326.976 186.446 326.976C187.058 326.976 187.634 326.886 188.174 326.706C188.75 326.526 189.218 326.238 189.578 325.842C189.974 325.41 190.172 324.888 190.172 324.276C190.172 323.592 189.92 323.034 189.416 322.602C188.948 322.17 188.246 321.756 187.31 321.36C186.41 320.964 185.276 320.514 183.908 320.01C182.792 319.578 181.658 319.128 180.506 318.66C179.39 318.192 178.346 317.634 177.374 316.986C176.438 316.302 175.682 315.474 175.106 314.502C174.53 313.494 174.242 312.27 174.242 310.83C174.242 309.786 174.44 308.76 174.836 307.752C175.232 306.708 175.844 305.772 176.672 304.944C177.5 304.08 178.544 303.396 179.804 302.892C181.1 302.388 182.63 302.136 184.394 302.136C185.366 302.136 186.464 302.298 187.688 302.622C188.948 302.91 190.01 303.36 190.874 303.972V302.406H194.978V311.964H191.468C191.252 310.704 190.802 309.624 190.118 308.724C189.47 307.824 188.624 307.14 187.58 306.672C186.536 306.168 185.366 305.916 184.07 305.916C183.17 305.916 182.342 306.132 181.586 306.564C180.866 306.996 180.506 307.734 180.506 308.778C180.506 309.606 180.794 310.272 181.37 310.776C181.946 311.244 182.738 311.64 183.746 311.964C184.754 312.288 185.87 312.666 187.094 313.098C188.93 313.71 190.55 314.43 191.954 315.258C193.394 316.086 194.528 317.094 195.356 318.282C196.184 319.434 196.598 320.856 196.598 322.548C196.598 324.42 196.13 325.968 195.194 327.192C194.258 328.416 193.034 329.334 191.522 329.946C190.046 330.558 188.462 330.864 186.77 330.864ZM205.959 326.49C206.967 326.49 207.687 326.292 208.119 325.896C208.551 325.5 208.821 324.942 208.929 324.222C209.073 323.466 209.145 322.62 209.145 321.684V312.72C209.145 312.072 209.163 311.334 209.199 310.506C209.235 309.642 209.289 308.814 209.361 308.022C208.785 308.058 208.101 308.094 207.309 308.13C206.553 308.13 205.977 308.148 205.581 308.184V304.08C207.237 304.08 208.641 303.99 209.793 303.81C210.945 303.63 211.845 303.414 212.493 303.162C213.177 302.91 213.645 302.676 213.897 302.46H216.813V321.306C216.813 321.81 216.795 322.53 216.759 323.466C216.723 324.366 216.669 325.23 216.597 326.058C217.173 325.986 217.803 325.95 218.487 325.95C219.207 325.914 219.747 325.896 220.107 325.896V330H205.959V326.49ZM212.709 298.194C211.485 298.194 210.477 297.762 209.685 296.898C208.893 296.034 208.497 294.99 208.497 293.766C208.497 292.542 208.911 291.498 209.739 290.634C210.567 289.77 211.539 289.338 212.655 289.338C213.807 289.338 214.761 289.77 215.517 290.634C216.309 291.498 216.705 292.542 216.705 293.766C216.705 294.99 216.345 296.034 215.625 296.898C214.905 297.762 213.933 298.194 212.709 298.194ZM229.025 330V326.49C230.033 326.49 230.753 326.292 231.185 325.896C231.617 325.5 231.887 324.942 231.995 324.222C232.139 323.466 232.211 322.62 232.211 321.684V312.612C232.211 311.964 232.229 311.244 232.265 310.452C232.301 309.624 232.355 308.814 232.427 308.022C231.851 308.058 231.167 308.094 230.375 308.13C229.619 308.13 229.043 308.148 228.647 308.184V304.08C230.303 304.08 231.707 303.99 232.859 303.81C234.011 303.63 234.911 303.414 235.559 303.162C236.243 302.91 236.711 302.676 236.963 302.46H239.609C239.681 302.928 239.717 303.27 239.717 303.486C239.717 303.702 239.717 303.918 239.717 304.134C239.753 304.314 239.825 304.656 239.933 305.16C240.653 304.584 241.481 304.08 242.417 303.648C243.353 303.18 244.289 302.82 245.225 302.568C246.161 302.28 246.989 302.136 247.709 302.136C251.021 302.136 253.361 303.09 254.729 304.998C256.133 306.87 256.835 309.894 256.835 314.07V321.306C256.835 321.81 256.817 322.53 256.781 323.466C256.745 324.366 256.691 325.23 256.619 326.058C257.231 325.986 257.879 325.95 258.563 325.95C259.247 325.914 259.769 325.896 260.129 325.896V330H245.981V326.49C246.989 326.49 247.709 326.292 248.141 325.896C248.609 325.5 248.897 324.942 249.005 324.222C249.149 323.466 249.221 322.62 249.221 321.684L249.167 314.016C249.167 311.676 248.825 309.948 248.141 308.832C247.493 307.68 246.377 307.104 244.793 307.104C243.893 307.104 242.993 307.302 242.093 307.698C241.229 308.094 240.491 308.562 239.879 309.102C239.879 309.606 239.879 310.128 239.879 310.668C239.879 311.172 239.879 311.676 239.879 312.18V321.306C239.879 321.81 239.861 322.53 239.825 323.466C239.789 324.366 239.735 325.23 239.663 326.058C240.239 325.986 240.869 325.95 241.553 325.95C242.273 325.914 242.813 325.896 243.173 325.896V330H229.025ZM281.553 330.864C278.925 330.864 276.603 330.288 274.587 329.136C272.571 327.948 271.005 326.292 269.889 324.168C268.773 322.008 268.215 319.47 268.215 316.554C268.215 314.034 268.773 311.676 269.889 309.48C271.005 307.284 272.571 305.52 274.587 304.188C276.639 302.82 279.015 302.136 281.715 302.136C283.227 302.136 284.703 302.352 286.143 302.784C287.583 303.18 288.879 303.882 290.031 304.89C291.219 305.898 292.155 307.266 292.839 308.994C293.559 310.722 293.901 312.882 293.865 315.474L276.153 315.798C276.153 317.742 276.387 319.488 276.855 321.036C277.359 322.584 278.169 323.808 279.285 324.708C280.401 325.608 281.895 326.058 283.767 326.058C284.487 326.058 285.297 325.932 286.197 325.68C287.133 325.428 288.069 325.014 289.005 324.438C289.977 323.826 290.877 323.016 291.705 322.008L294.135 324.276C292.839 326.112 291.453 327.516 289.977 328.488C288.501 329.424 287.025 330.054 285.549 330.378C284.109 330.702 282.777 330.864 281.553 330.864ZM276.477 312.018H286.413C286.377 310.506 286.161 309.318 285.765 308.454C285.405 307.554 284.901 306.906 284.253 306.51C283.605 306.114 282.849 305.916 281.985 305.916C280.401 305.916 279.159 306.492 278.259 307.644C277.359 308.76 276.765 310.218 276.477 312.018ZM315.632 330.864C314.084 330.864 312.572 330.666 311.096 330.27C309.62 329.874 308.468 329.37 307.64 328.758L307.748 330.378H303.644L303.428 321.09H306.938C307.046 322.17 307.478 323.16 308.234 324.06C308.99 324.96 309.98 325.68 311.204 326.22C312.428 326.724 313.796 326.976 315.308 326.976C315.92 326.976 316.496 326.886 317.036 326.706C317.612 326.526 318.08 326.238 318.44 325.842C318.836 325.41 319.034 324.888 319.034 324.276C319.034 323.592 318.782 323.034 318.278 322.602C317.81 322.17 317.108 321.756 316.172 321.36C315.272 320.964 314.138 320.514 312.77 320.01C311.654 319.578 310.52 319.128 309.368 318.66C308.252 318.192 307.208 317.634 306.236 316.986C305.3 316.302 304.544 315.474 303.968 314.502C303.392 313.494 303.104 312.27 303.104 310.83C303.104 309.786 303.302 308.76 303.698 307.752C304.094 306.708 304.706 305.772 305.534 304.944C306.362 304.08 307.406 303.396 308.666 302.892C309.962 302.388 311.492 302.136 313.256 302.136C314.228 302.136 315.326 302.298 316.55 302.622C317.81 302.91 318.872 303.36 319.736 303.972V302.406H323.84V311.964H320.33C320.114 310.704 319.664 309.624 318.98 308.724C318.332 307.824 317.486 307.14 316.442 306.672C315.398 306.168 314.228 305.916 312.932 305.916C312.032 305.916 311.204 306.132 310.448 306.564C309.728 306.996 309.368 307.734 309.368 308.778C309.368 309.606 309.656 310.272 310.232 310.776C310.808 311.244 311.6 311.64 312.608 311.964C313.616 312.288 314.732 312.666 315.956 313.098C317.792 313.71 319.412 314.43 320.816 315.258C322.256 316.086 323.39 317.094 324.218 318.282C325.046 319.434 325.46 320.856 325.46 322.548C325.46 324.42 324.992 325.968 324.056 327.192C323.12 328.416 321.896 329.334 320.384 329.946C318.908 330.558 317.324 330.864 315.632 330.864ZM347.241 330.864C345.693 330.864 344.181 330.666 342.705 330.27C341.229 329.874 340.077 329.37 339.249 328.758L339.357 330.378H335.253L335.037 321.09H338.547C338.655 322.17 339.087 323.16 339.843 324.06C340.599 324.96 341.589 325.68 342.813 326.22C344.037 326.724 345.405 326.976 346.917 326.976C347.529 326.976 348.105 326.886 348.645 326.706C349.221 326.526 349.689 326.238 350.049 325.842C350.445 325.41 350.643 324.888 350.643 324.276C350.643 323.592 350.391 323.034 349.887 322.602C349.419 322.17 348.717 321.756 347.781 321.36C346.881 320.964 345.747 320.514 344.379 320.01C343.263 319.578 342.129 319.128 340.977 318.66C339.861 318.192 338.817 317.634 337.845 316.986C336.909 316.302 336.153 315.474 335.577 314.502C335.001 313.494 334.713 312.27 334.713 310.83C334.713 309.786 334.911 308.76 335.307 307.752C335.703 306.708 336.315 305.772 337.143 304.944C337.971 304.08 339.015 303.396 340.275 302.892C341.571 302.388 343.101 302.136 344.865 302.136C345.837 302.136 346.935 302.298 348.159 302.622C349.419 302.91 350.481 303.36 351.345 303.972V302.406H355.449V311.964H351.939C351.723 310.704 351.273 309.624 350.589 308.724C349.941 307.824 349.095 307.14 348.051 306.672C347.007 306.168 345.837 305.916 344.541 305.916C343.641 305.916 342.813 306.132 342.057 306.564C341.337 306.996 340.977 307.734 340.977 308.778C340.977 309.606 341.265 310.272 341.841 310.776C342.417 311.244 343.209 311.64 344.217 311.964C345.225 312.288 346.341 312.666 347.565 313.098C349.401 313.71 351.021 314.43 352.425 315.258C353.865 316.086 354.999 317.094 355.827 318.282C356.655 319.434 357.069 320.856 357.069 322.548C357.069 324.42 356.601 325.968 355.665 327.192C354.729 328.416 353.505 329.334 351.993 329.946C350.517 330.558 348.933 330.864 347.241 330.864ZM114.226 390C114.154 389.496 114.1 389.082 114.064 388.758C114.064 388.398 114.046 387.984 114.01 387.516C112.786 388.74 111.49 389.604 110.122 390.108C108.754 390.612 107.368 390.864 105.964 390.864C103.66 390.864 101.86 390.18 100.564 388.812C99.268 387.444 98.62 385.734 98.62 383.682C98.62 381.954 99.052 380.478 99.916 379.254C100.816 378.03 101.986 377.04 103.426 376.284C104.902 375.492 106.522 374.898 108.286 374.502C110.086 374.07 111.886 373.818 113.686 373.746V370.938C113.686 370.002 113.56 369.156 113.308 368.4C113.092 367.644 112.696 367.05 112.12 366.618C111.58 366.186 110.806 365.988 109.798 366.024C109.114 366.06 108.448 366.204 107.8 366.456C107.152 366.708 106.594 367.068 106.126 367.536C106.414 367.86 106.594 368.22 106.666 368.616C106.738 368.976 106.774 369.3 106.774 369.588C106.774 370.308 106.486 371.064 105.91 371.856C105.334 372.612 104.416 372.972 103.156 372.936C102.076 372.9 101.248 372.522 100.672 371.802C100.096 371.082 99.808 370.236 99.808 369.264C99.808 367.824 100.312 366.582 101.32 365.538C102.364 364.458 103.75 363.63 105.478 363.054C107.206 362.442 109.114 362.136 111.202 362.136C114.37 362.136 116.818 362.964 118.546 364.62C120.31 366.24 121.192 368.85 121.192 372.45C121.192 373.674 121.192 374.718 121.192 375.582C121.192 376.446 121.174 377.31 121.138 378.174C121.138 379.038 121.138 380.082 121.138 381.306C121.138 381.81 121.12 382.53 121.084 383.466C121.048 384.366 120.994 385.23 120.922 386.058C121.534 385.986 122.182 385.95 122.866 385.95C123.55 385.914 124.072 385.896 124.432 385.896V390H114.226ZM113.632 377.58C112.624 377.688 111.67 377.868 110.77 378.12C109.87 378.372 109.078 378.714 108.394 379.146C107.746 379.578 107.224 380.1 106.828 380.712C106.468 381.324 106.288 382.008 106.288 382.764C106.324 383.772 106.648 384.492 107.26 384.924C107.872 385.356 108.574 385.572 109.366 385.572C110.194 385.572 110.968 385.392 111.688 385.032C112.408 384.672 113.056 384.204 113.632 383.628C113.632 383.268 113.632 382.926 113.632 382.602C113.632 382.242 113.632 381.882 113.632 381.522C113.632 380.874 113.632 380.226 113.632 379.578C113.632 378.894 113.632 378.228 113.632 377.58ZM143.354 390.864C141.194 390.864 139.286 390.306 137.63 389.19C136.01 388.074 134.732 386.49 133.796 384.438C132.896 382.386 132.446 379.974 132.446 377.202C132.446 374.286 133.004 371.694 134.12 369.426C135.236 367.158 136.802 365.376 138.818 364.08C140.834 362.784 143.174 362.136 145.838 362.136C146.81 362.136 147.674 362.244 148.43 362.46C149.222 362.64 149.96 362.856 150.644 363.108V359.544C150.644 359.04 150.662 358.32 150.698 357.384C150.734 356.448 150.788 355.584 150.86 354.792C150.284 354.828 149.6 354.864 148.808 354.9C148.016 354.936 147.422 354.954 147.026 354.954V350.85C148.718 350.85 150.122 350.76 151.238 350.58C152.39 350.4 153.29 350.184 153.938 349.932C154.622 349.68 155.09 349.446 155.342 349.23H158.258V381.306C158.258 381.81 158.24 382.53 158.204 383.466C158.168 384.366 158.114 385.23 158.042 386.058C158.654 385.986 159.302 385.95 159.986 385.95C160.67 385.914 161.192 385.896 161.552 385.896V390H151.292C151.256 389.604 151.202 389.19 151.13 388.758C151.094 388.326 151.04 387.912 150.968 387.516C149.78 388.74 148.556 389.604 147.296 390.108C146.036 390.612 144.722 390.864 143.354 390.864ZM146.162 385.95C147.098 385.95 147.962 385.716 148.754 385.248C149.546 384.744 150.176 384.114 150.644 383.358C150.644 382.818 150.644 382.278 150.644 381.738C150.644 381.198 150.644 380.658 150.644 380.118V367.158C150.284 366.87 149.744 366.636 149.024 366.456C148.304 366.24 147.566 366.132 146.81 366.132C145.154 366.168 143.858 366.69 142.922 367.698C141.986 368.706 141.32 369.984 140.924 371.532C140.564 373.08 140.384 374.7 140.384 376.392C140.384 377.904 140.564 379.398 140.924 380.874C141.32 382.35 141.932 383.574 142.76 384.546C143.624 385.482 144.758 385.95 146.162 385.95ZM170.5 390V386.49C171.508 386.49 172.228 386.292 172.66 385.896C173.092 385.5 173.362 384.942 173.47 384.222C173.614 383.466 173.686 382.62 173.686 381.684V372.612C173.686 371.964 173.704 371.244 173.74 370.452C173.776 369.624 173.83 368.814 173.902 368.022C173.326 368.058 172.642 368.094 171.85 368.13C171.094 368.13 170.518 368.148 170.122 368.184V364.08C171.778 364.08 173.182 363.99 174.334 363.81C175.486 363.63 176.386 363.414 177.034 363.162C177.718 362.91 178.186 362.676 178.438 362.46H181.084C181.156 362.82 181.192 363.27 181.192 363.81C181.228 364.35 181.264 364.8 181.3 365.16C182.524 364.224 183.838 363.486 185.242 362.946C186.682 362.406 188.032 362.136 189.292 362.136C190.948 362.136 192.316 362.442 193.396 363.054C194.476 363.63 195.34 364.512 195.988 365.7C197.284 364.62 198.706 363.756 200.254 363.108C201.838 362.46 203.35 362.136 204.79 362.136C207.706 362.136 209.902 362.982 211.378 364.674C212.89 366.33 213.646 369.228 213.646 373.368V381.306C213.646 381.81 213.628 382.53 213.592 383.466C213.556 384.366 213.502 385.23 213.43 386.058C214.006 385.986 214.636 385.95 215.32 385.95C216.04 385.914 216.58 385.896 216.94 385.896V390H203.278V386.49C204.106 386.49 204.7 386.292 205.06 385.896C205.456 385.5 205.708 384.942 205.816 384.222C205.924 383.466 205.978 382.62 205.978 381.684V373.422C205.942 371.082 205.546 369.462 204.79 368.562C204.07 367.662 203.098 367.194 201.874 367.158C200.938 367.122 200.056 367.284 199.228 367.644C198.436 368.004 197.716 368.436 197.068 368.94C197.248 369.66 197.374 370.452 197.446 371.316C197.518 372.18 197.554 373.098 197.554 374.07C197.554 375.294 197.554 376.5 197.554 377.688C197.554 378.876 197.554 380.082 197.554 381.306C197.554 381.81 197.536 382.53 197.5 383.466C197.464 384.366 197.41 385.23 197.338 386.058C197.914 385.986 198.544 385.95 199.228 385.95C199.912 385.914 200.452 385.896 200.848 385.896V390H186.916V386.49C187.852 386.49 188.518 386.292 188.914 385.896C189.346 385.5 189.616 384.942 189.724 384.222C189.832 383.466 189.886 382.62 189.886 381.684L189.832 373.26C189.832 370.92 189.49 369.318 188.806 368.454C188.122 367.59 187.168 367.14 185.944 367.104C185.044 367.104 184.198 367.302 183.406 367.698C182.65 368.094 181.966 368.562 181.354 369.102C181.354 369.57 181.354 370.02 181.354 370.452C181.354 370.884 181.354 371.334 181.354 371.802V381.306C181.354 381.81 181.336 382.53 181.3 383.466C181.264 384.366 181.21 385.23 181.138 386.058C181.714 385.986 182.308 385.95 182.92 385.95C183.532 385.914 184.018 385.896 184.378 385.896V390H170.5ZM225.576 386.49C226.584 386.49 227.304 386.292 227.736 385.896C228.168 385.5 228.438 384.942 228.546 384.222C228.69 383.466 228.762 382.62 228.762 381.684V372.72C228.762 372.072 228.78 371.334 228.816 370.506C228.852 369.642 228.906 368.814 228.978 368.022C228.402 368.058 227.718 368.094 226.926 368.13C226.17 368.13 225.594 368.148 225.198 368.184V364.08C226.854 364.08 228.258 363.99 229.41 363.81C230.562 363.63 231.462 363.414 232.11 363.162C232.794 362.91 233.262 362.676 233.514 362.46H236.43V381.306C236.43 381.81 236.412 382.53 236.376 383.466C236.34 384.366 236.286 385.23 236.214 386.058C236.79 385.986 237.42 385.95 238.104 385.95C238.824 385.914 239.364 385.896 239.724 385.896V390H225.576V386.49ZM232.326 358.194C231.102 358.194 230.094 357.762 229.302 356.898C228.51 356.034 228.114 354.99 228.114 353.766C228.114 352.542 228.528 351.498 229.356 350.634C230.184 349.77 231.156 349.338 232.272 349.338C233.424 349.338 234.378 349.77 235.134 350.634C235.926 351.498 236.322 352.542 236.322 353.766C236.322 354.99 235.962 356.034 235.242 356.898C234.522 357.762 233.55 358.194 232.326 358.194ZM248.642 390V386.49C249.65 386.49 250.37 386.292 250.802 385.896C251.234 385.5 251.504 384.942 251.612 384.222C251.756 383.466 251.828 382.62 251.828 381.684V372.612C251.828 371.964 251.846 371.244 251.882 370.452C251.918 369.624 251.972 368.814 252.044 368.022C251.468 368.058 250.784 368.094 249.992 368.13C249.236 368.13 248.66 368.148 248.264 368.184V364.08C249.92 364.08 251.324 363.99 252.476 363.81C253.628 363.63 254.528 363.414 255.176 363.162C255.86 362.91 256.328 362.676 256.58 362.46H259.226C259.298 362.928 259.334 363.27 259.334 363.486C259.334 363.702 259.334 363.918 259.334 364.134C259.37 364.314 259.442 364.656 259.55 365.16C260.27 364.584 261.098 364.08 262.034 363.648C262.97 363.18 263.906 362.82 264.842 362.568C265.778 362.28 266.606 362.136 267.326 362.136C270.638 362.136 272.978 363.09 274.346 364.998C275.75 366.87 276.452 369.894 276.452 374.07V381.306C276.452 381.81 276.434 382.53 276.398 383.466C276.362 384.366 276.308 385.23 276.236 386.058C276.848 385.986 277.496 385.95 278.18 385.95C278.864 385.914 279.386 385.896 279.746 385.896V390H265.598V386.49C266.606 386.49 267.326 386.292 267.758 385.896C268.226 385.5 268.514 384.942 268.622 384.222C268.766 383.466 268.838 382.62 268.838 381.684L268.784 374.016C268.784 371.676 268.442 369.948 267.758 368.832C267.11 367.68 265.994 367.104 264.41 367.104C263.51 367.104 262.61 367.302 261.71 367.698C260.846 368.094 260.108 368.562 259.496 369.102C259.496 369.606 259.496 370.128 259.496 370.668C259.496 371.172 259.496 371.676 259.496 372.18V381.306C259.496 381.81 259.478 382.53 259.442 383.466C259.406 384.366 259.352 385.23 259.28 386.058C259.856 385.986 260.486 385.95 261.17 385.95C261.89 385.914 262.43 385.896 262.79 385.896V390H248.642ZM292.476 390.864C291.324 390.864 290.37 390.45 289.614 389.622C288.894 388.794 288.534 387.804 288.534 386.652C288.534 385.5 288.93 384.51 289.722 383.682C290.514 382.854 291.432 382.44 292.476 382.44C293.592 382.44 294.51 382.854 295.23 383.682C295.986 384.51 296.364 385.5 296.364 386.652C296.364 387.804 296.004 388.794 295.284 389.622C294.6 390.45 293.664 390.864 292.476 390.864Z" fill="#217839"/>
<path d="M182.5 185.5H193.5V180H199C200.558 180 201.865 179.473 202.919 178.419C203.973 177.365 204.5 176.058 204.5 174.5V158C204.5 156.442 203.973 155.135 202.919 154.081C201.865 153.027 200.558 152.5 199 152.5H182.5V147H204.5V136H193.5V130.5H182.5V136H177C175.442 136 174.135 136.527 173.081 137.581C172.027 138.635 171.5 139.942 171.5 141.5V158C171.5 159.558 172.027 160.865 173.081 161.919C174.135 162.973 175.442 163.5 177 163.5H193.5V169H171.5V180H182.5V185.5ZM144 202C140.975 202 138.385 200.923 136.231 198.769C134.077 196.615 133 194.025 133 191V125C133 121.975 134.077 119.385 136.231 117.231C138.385 115.077 140.975 114 144 114H232C235.025 114 237.615 115.077 239.769 117.231C241.923 119.385 243 121.975 243 125V191C243 194.025 241.923 196.615 239.769 198.769C237.615 200.923 235.025 202 232 202H144Z" fill="#75DD92"/>
<path d="M74.5 264C78.1 257.6 87.3333 239.667 91.5 231.5L102.5 250L117.5 206.5L136.5 242L161 182.5L183 213.5L201.5 182.5L214.5 195L254.5 110L270.5 168.5L278.5 154.5L295 206.5L302 182.5L320.5 231.5L336 182.5L343 200L367.5 128.5L387.5 163.5L429.5 68" stroke="#50B06B" stroke-width="10"/>
<path d="M405 79L429.5 69L438.5 93" stroke="#50B06B" stroke-width="10"/>
<defs>
<filter id="filter0_d_487_5869" x="0" y="0" width="497" height="497" filterUnits="userSpaceOnUse" color-interpolation-filters="sRGB">
<feFlood flood-opacity="0" result="BackgroundImageFix"/>
<feColorMatrix in="SourceAlpha" type="matrix" values="0 0 0 0 0 0 0 0 0 0 0 0 0 0 0 0 0 0 127 0" result="hardAlpha"/>
<feOffset dy="4"/>
<feGaussianBlur stdDeviation="5"/>
<feComposite in2="hardAlpha" operator="out"/>
<feColorMatrix type="matrix" values="0 0 0 0 0 0 0 0 0 0 0 0 0 0 0 0 0 0 0.1 0"/>
<feBlend mode="normal" in2="BackgroundImageFix" result="effect1_dropShadow_487_5869"/>
<feBlend mode="normal" in="SourceGraphic" in2="effect1_dropShadow_487_5869" result="shape"/>
</filter>
</defs>
</svg>
