<svg width="527" height="379" viewBox="0 0 527 379" fill="none" xmlns="http://www.w3.org/2000/svg">
<g filter="url(#filter0_d_1023_87)">
<mask id="mask0_1023_87" style="mask-type:alpha" maskUnits="userSpaceOnUse" x="5" y="5" width="509" height="361">
<ellipse cx="259.75" cy="185.5" rx="180" ry="254.25" transform="rotate(90 259.75 185.5)" fill="#0A4153"/>
</mask>
<g mask="url(#mask0_1023_87)">
<ellipse cx="259.75" cy="185.5" rx="180" ry="254.25" transform="rotate(90 259.75 185.5)" fill="#730030"/>
<path d="M496.94 185.5C496.94 229.835 470.853 270.305 427.999 299.822C385.158 329.331 325.805 347.68 260.099 347.68C194.392 347.68 135.039 329.331 92.1982 299.822C49.3439 270.305 23.2569 229.835 23.2568 185.5C23.2568 141.166 49.3439 100.695 92.1982 71.1779C135.04 41.6696 194.392 23.3195 260.099 23.3195C325.805 23.3195 385.158 41.6696 427.999 71.1779C470.853 100.695 496.94 141.166 496.94 185.5Z" stroke="#FF9E9E" stroke-width="6.12"/>
<path d="M180.084 71.6016L175.49 56.9762L183.904 54.3329L184.42 55.9758L177.789 58.0589L179.211 62.5868L185.141 60.7239L185.651 62.3467L179.721 64.2096L181.351 69.3986L187.982 67.3154L188.499 68.9583L180.084 71.6016ZM202.372 65.3724C201.389 65.594 200.505 65.6209 199.721 65.4532C198.951 65.2824 198.305 64.9328 197.784 64.4043C197.263 63.8759 196.9 63.1899 196.696 62.3462L198.54 61.9307C198.709 62.6819 199.096 63.219 199.699 63.5422C200.317 63.8623 201.083 63.9192 201.998 63.713C202.859 63.5191 203.48 63.1566 203.863 62.6255C204.259 62.0913 204.372 61.4486 204.203 60.6975C204.068 60.0965 203.785 59.6077 203.356 59.2308C202.94 58.8509 202.412 58.6399 201.771 58.5978L199.6 58.4198C198.505 58.3365 197.594 57.9892 196.868 57.3778C196.155 56.7635 195.687 55.9578 195.462 54.9608C195.281 54.155 195.301 53.4184 195.524 52.7511C195.757 52.0671 196.165 51.4873 196.746 51.0118C197.325 50.5226 198.058 50.178 198.946 49.978C200.257 49.6825 201.392 49.8143 202.35 50.3733C203.305 50.9186 203.927 51.7975 204.214 53.0099L202.371 53.4254C202.204 52.6879 201.85 52.1651 201.307 51.8569C200.774 51.532 200.105 51.4604 199.299 51.642C198.507 51.8205 197.929 52.1517 197.564 52.6357C197.214 53.1166 197.115 53.6985 197.269 54.3814C197.408 54.996 197.691 55.4917 198.121 55.8685C198.55 56.2453 199.094 56.4601 199.751 56.5128L201.948 56.7067C203.015 56.7961 203.907 57.1549 204.623 57.7829C205.338 58.411 205.81 59.2303 206.038 60.241C206.222 61.0604 206.193 61.8206 205.949 62.5213C205.705 63.2221 205.273 63.8217 204.654 64.3201C204.048 64.8154 203.287 65.1662 202.372 65.3724ZM219.823 61.6581L217.887 48.1674L213.729 48.7641L213.485 47.0596L223.67 45.5975L223.915 47.3021L219.758 47.8988L221.694 61.3895L219.823 61.6581ZM239.518 59.5234C238.987 59.559 238.55 59.4339 238.209 59.1481C237.881 58.8614 237.699 58.4597 237.665 57.9428C237.628 57.3981 237.753 56.9547 238.039 56.6128C238.338 56.27 238.754 56.0808 239.284 56.0452C239.815 56.0096 240.245 56.1421 240.574 56.4428C240.917 56.7425 241.106 57.1648 241.143 57.7096C241.178 58.2264 241.045 58.6492 240.744 58.9781C240.457 59.306 240.048 59.4878 239.518 59.5234ZM272.875 58.757L273.031 56.8313L278.1 52.2488C278.965 51.462 279.605 50.7554 280.021 50.129C280.438 49.4886 280.671 48.8614 280.721 48.2474C280.79 47.3962 280.607 46.7072 280.172 46.1803C279.751 45.6546 279.136 45.359 278.327 45.2934C277.434 45.221 276.709 45.4151 276.152 45.8756C275.609 46.3373 275.301 47.0076 275.23 47.8868L273.346 47.7341C273.449 46.8154 273.723 46.037 274.168 45.3988C274.628 44.7478 275.221 44.2692 275.949 43.9629C276.69 43.6578 277.528 43.5431 278.463 43.6189C279.383 43.6935 280.164 43.9393 280.805 44.3564C281.46 44.7607 281.943 45.3054 282.252 45.9907C282.562 46.6759 282.68 47.4721 282.607 48.3791C282.536 49.2443 282.237 50.0838 281.707 50.8977C281.178 51.7116 280.346 52.6204 279.211 53.624L275.128 57.2119L282.098 57.7767L281.959 59.4931L272.875 58.757ZM295.964 61.3183C295.037 61.1717 294.257 60.8639 293.622 60.395C293.004 59.9145 292.561 59.3128 292.292 58.59C292.026 57.8533 291.964 57.0356 292.106 56.1368L293.156 49.4993C293.301 48.5867 293.612 47.828 294.091 47.2233C294.569 46.6187 295.175 46.1902 295.91 45.9378C296.66 45.6739 297.499 45.6152 298.425 45.7617C299.365 45.9105 300.145 46.2252 300.763 46.7057C301.384 47.1724 301.829 47.7672 302.097 48.49C302.365 49.2128 302.427 50.0306 302.283 50.9432L301.233 57.5807C301.091 58.4795 300.779 59.2382 300.299 59.8567C299.82 60.4613 299.206 60.8957 298.455 61.1596C297.721 61.412 296.89 61.4648 295.964 61.3183ZM296.217 59.7211C297.046 59.8524 297.752 59.6947 298.333 59.248C298.93 58.7896 299.295 58.1387 299.428 57.2952L300.478 50.6577C300.612 49.8142 300.464 49.0893 300.036 48.4828C299.623 47.8648 299.002 47.4901 298.172 47.3589C297.343 47.2276 296.629 47.3912 296.033 47.8495C295.452 48.2962 295.094 48.9413 294.961 49.7848L293.911 56.4223C293.777 57.2658 293.917 57.9966 294.329 58.6146C294.758 59.221 295.387 59.5899 296.217 59.7211ZM297.001 54.7638C296.628 54.7047 296.342 54.539 296.144 54.2668C295.96 53.9967 295.899 53.6681 295.96 53.2809C296.019 52.9075 296.177 52.6277 296.433 52.4415C296.705 52.2436 297.028 52.1742 297.401 52.2333C297.775 52.2923 298.053 52.4569 298.237 52.727C298.437 52.9854 298.508 53.3013 298.449 53.6747C298.388 54.0619 298.221 54.3544 297.949 54.5523C297.69 54.7523 297.374 54.8228 297.001 54.7638ZM310.266 63.5212L310.67 61.8473L314.712 62.823L317.536 51.126L312.765 53.1715L313.257 51.1302L317.232 49.4324L319.743 50.0385L316.549 63.2665L319.856 64.0649L319.452 65.7388L310.266 63.5212ZM332.692 69.5945C331.504 69.2193 330.626 68.6044 330.059 67.75C329.492 66.8956 329.307 65.9266 329.502 64.8432L331.304 65.4123C331.19 66.0075 331.295 66.5327 331.621 66.988C331.952 67.43 332.484 67.7669 333.218 67.9988C334.059 68.2644 334.758 68.2356 335.315 67.9124C335.886 67.5935 336.302 67.0201 336.563 66.1924L337.012 64.7706C337.274 63.9429 337.263 63.2347 336.979 62.6458C336.708 62.0612 336.159 61.6382 335.331 61.3768C334.811 61.2124 334.313 61.2092 333.837 61.3673C333.365 61.512 332.971 61.784 332.654 62.183L330.852 61.6139L333.507 53.5554L341.197 55.9839L340.678 57.6259L334.731 55.7476L333.134 60.5947L333.695 60.7718L332.97 61.1154C333.168 60.4879 333.571 60.072 334.178 59.8675C334.8 59.6673 335.531 59.7 336.372 59.9656C337.564 60.3275 338.369 60.9855 338.787 61.9397C339.223 62.8848 339.232 64.0181 338.815 65.3398L338.366 66.7616C337.957 68.0565 337.252 68.9643 336.25 69.485C335.253 69.9922 334.067 70.0288 332.692 69.5945Z" fill="#FF9E9E"/>
<path d="M220.255 180.136C217.575 179.474 215.808 176.92 216.132 174.179L216.962 167.149C217.194 165.189 216.275 163.309 214.882 161.909C214.86 161.886 214.837 161.864 214.815 161.841C213.47 160.482 211.585 159.748 209.696 160.043L202.518 161.162C199.799 161.586 197.188 159.926 196.418 157.285L191.919 141.844C191.145 139.187 192.475 136.37 195.019 135.28L203.041 131.843C203.941 131.458 204.531 130.605 204.766 129.654L205.525 126.583C205.76 125.632 205.635 124.603 205.018 123.842L199.52 117.064C197.777 114.915 197.912 111.803 199.834 109.812L211.008 98.2441C212.92 96.265 216.003 96.0123 218.211 97.6538L224.042 101.988C225.577 103.129 227.586 103.353 229.418 102.808C229.465 102.794 229.511 102.78 229.558 102.767C231.428 102.219 233.063 100.954 233.762 99.135L236.321 92.4766C237.311 89.9 240.065 88.4637 242.744 89.1258L258.449 93.0066C261.129 93.6688 262.896 96.2223 262.572 98.9635L261.742 105.993C261.51 107.954 262.429 109.834 263.821 111.234C263.844 111.256 263.867 111.279 263.889 111.302C265.234 112.66 267.118 113.394 269.007 113.099L276.186 111.98C278.905 111.556 281.516 113.216 282.285 115.858L286.785 131.299C287.559 133.956 286.229 136.772 283.685 137.862L275.663 141.299C274.763 141.685 274.173 142.537 273.938 143.488L273.179 146.56C272.947 147.499 272.973 148.535 273.582 149.285L279.069 156.05C280.813 158.199 280.678 161.311 278.755 163.302L267.592 174.86C265.676 176.843 262.584 177.092 260.375 175.44L254.665 171.168C253.129 170.02 251.113 169.791 249.275 170.338C249.232 170.351 249.189 170.363 249.146 170.376C247.276 170.924 245.641 172.188 244.941 174.007L242.383 180.666C241.393 183.242 238.639 184.679 235.959 184.017L220.255 180.136ZM226.353 167.22C226.034 169.863 227.736 172.328 230.32 172.966C232.886 173.6 235.524 172.236 236.489 169.775L238.03 165.848C238.845 163.77 240.851 162.451 243.06 162.129C244.264 161.953 245.442 161.696 246.596 161.356C247.739 161.02 248.854 160.614 249.942 160.136C251.966 159.247 254.34 159.31 256.121 160.619L259.624 163.195C261.736 164.749 264.673 164.495 266.486 162.601C268.308 160.7 268.429 157.74 266.768 155.697L263.941 152.219C262.606 150.575 262.556 148.271 263.323 146.297C263.766 145.159 264.137 143.983 264.437 142.77C264.737 141.557 264.956 140.343 265.094 139.13C265.335 137.026 266.452 135.01 268.399 134.178L272.539 132.409C274.95 131.379 276.216 128.715 275.493 126.195C274.768 123.669 272.273 122.082 269.678 122.496L265.48 123.165C263.237 123.523 261.05 122.421 259.653 120.629C258.928 119.7 258.146 118.828 257.307 118.013C256.453 117.184 255.539 116.414 254.567 115.704C252.749 114.377 251.588 112.25 251.858 110.015L252.351 105.922C252.669 103.28 250.967 100.815 248.384 100.176C245.818 99.5421 243.18 100.907 242.214 103.367L240.674 107.294C239.858 109.372 237.853 110.692 235.644 111.014C234.44 111.189 233.261 111.447 232.108 111.786C230.965 112.122 229.85 112.529 228.761 113.007C226.738 113.895 224.364 113.833 222.583 112.523L219.066 109.937C216.962 108.389 214.036 108.643 212.229 110.529C210.405 112.433 210.295 115.402 211.973 117.437L214.735 120.784C216.108 122.447 216.185 124.781 215.395 126.788C214.961 127.888 214.586 129.083 214.267 130.372C213.967 131.586 213.753 132.78 213.624 133.955C213.388 136.103 212.24 138.138 210.253 138.986L206.164 140.734C203.754 141.764 202.488 144.428 203.211 146.947C203.935 149.473 206.431 151.061 209.026 150.647L213.224 149.977C215.467 149.619 217.654 150.722 219.051 152.513C219.775 153.443 220.558 154.315 221.397 155.129C222.251 155.958 223.164 156.728 224.137 157.438C225.955 158.765 227.116 160.893 226.846 163.127L226.353 167.22ZM235.644 152.554C240.053 153.644 244.2 153.019 248.085 150.679C251.97 148.34 254.456 144.971 255.543 140.572C256.63 136.173 256 132.034 253.651 128.155C251.303 124.275 247.925 121.79 243.516 120.701C239.031 119.593 234.865 120.213 231.018 122.562C227.171 124.91 224.704 128.284 223.617 132.683C222.53 137.082 223.141 141.216 225.452 145.087C227.762 148.957 231.159 151.446 235.644 152.554Z" fill="#FF9E9E"/>
<path d="M216.343 174.529L262.059 157.734C264.143 156.969 265.525 155.023 265.864 152.829C266.007 151.907 266.186 150.997 266.403 150.099C266.9 148.036 267.635 145.942 268.607 143.818C272.835 134.581 279.661 128.209 289.086 124.702C298.512 121.196 307.843 121.556 317.08 125.784C320.405 127.306 323.358 129.215 325.937 131.513C326.774 132.259 327.577 133.036 328.344 133.844C330.798 136.428 329.486 140.482 326.147 141.724L308.377 148.335C305.515 149.4 304.058 152.584 305.123 155.446L306.677 159.623C307.742 162.485 310.925 163.942 313.788 162.877L331.558 156.266C334.897 155.024 338.539 157.234 338.37 160.793C338.318 161.907 338.219 163.019 338.072 164.131C337.623 167.556 336.636 170.931 335.114 174.256C330.887 183.494 324.06 189.865 314.635 193.372C305.21 196.879 295.878 196.518 286.641 192.291C284.517 191.318 282.592 190.214 280.868 188.978C280.117 188.44 279.386 187.868 278.676 187.264C276.985 185.825 274.667 185.256 272.59 186.038L227.013 203.209C225.398 203.81 223.805 203.751 222.234 203.032C220.664 202.314 219.578 201.147 218.977 199.531L212.665 182.565C212.064 180.949 212.123 179.356 212.841 177.786C213.56 176.216 214.727 175.13 216.343 174.529Z" fill="#F87272"/>
<path d="M171.784 258.953C169.88 258.953 168.214 258.603 166.786 257.903C165.386 257.175 164.294 256.139 163.51 254.795C162.754 253.423 162.376 251.827 162.376 250.007V236.399C162.376 234.551 162.754 232.955 163.51 231.611C164.294 230.267 165.386 229.245 166.786 228.545C168.214 227.817 169.88 227.453 171.784 227.453C173.688 227.453 175.34 227.817 176.74 228.545C178.14 229.273 179.218 230.309 179.974 231.653C180.758 232.969 181.15 234.551 181.15 236.399H176.614C176.614 234.803 176.194 233.585 175.354 232.745C174.514 231.905 173.324 231.485 171.784 231.485C170.244 231.485 169.04 231.905 168.172 232.745C167.332 233.585 166.912 234.789 166.912 236.357V250.007C166.912 251.575 167.332 252.793 168.172 253.661C169.04 254.501 170.244 254.921 171.784 254.921C173.324 254.921 174.514 254.501 175.354 253.661C176.194 252.793 176.614 251.575 176.614 250.007H181.15C181.15 251.827 180.758 253.409 179.974 254.753C179.218 256.097 178.14 257.133 176.74 257.861C175.34 258.589 173.688 258.953 171.784 258.953ZM196.799 258.953C194.895 258.953 193.243 258.603 191.843 257.903C190.471 257.175 189.407 256.139 188.651 254.795C187.923 253.423 187.559 251.827 187.559 250.007V236.399C187.559 234.551 187.923 232.955 188.651 231.611C189.407 230.267 190.471 229.245 191.843 228.545C193.243 227.817 194.895 227.453 196.799 227.453C198.703 227.453 200.341 227.817 201.713 228.545C203.113 229.245 204.177 230.267 204.905 231.611C205.661 232.955 206.039 234.537 206.039 236.357V250.007C206.039 251.827 205.661 253.423 204.905 254.795C204.177 256.139 203.113 257.175 201.713 257.903C200.341 258.603 198.703 258.953 196.799 258.953ZM196.799 254.921C198.339 254.921 199.501 254.501 200.285 253.661C201.097 252.793 201.503 251.575 201.503 250.007V236.399C201.503 234.803 201.097 233.585 200.285 232.745C199.501 231.905 198.339 231.485 196.799 231.485C195.287 231.485 194.125 231.905 193.313 232.745C192.501 233.585 192.095 234.803 192.095 236.399V250.007C192.095 251.575 192.501 252.793 193.313 253.661C194.125 254.501 195.287 254.921 196.799 254.921ZM212.155 258.533V227.873H217.741L220.807 237.701C221.115 238.625 221.381 239.521 221.605 240.389C221.829 241.229 221.983 241.859 222.067 242.279C222.179 241.859 222.333 241.229 222.529 240.389C222.753 239.521 223.005 238.625 223.285 237.701L226.225 227.873H231.811V258.533H227.527V248.201C227.527 246.885 227.555 245.429 227.611 243.833C227.695 242.209 227.807 240.585 227.947 238.961C228.087 237.309 228.227 235.741 228.367 234.257C228.507 232.745 228.633 231.429 228.745 230.309L224.209 245.219H219.841L215.221 230.309C215.361 231.401 215.501 232.675 215.641 234.131C215.781 235.559 215.907 237.085 216.019 238.709C216.131 240.333 216.229 241.971 216.313 243.623C216.397 245.247 216.439 246.773 216.439 248.201V258.533H212.155ZM238.094 258.533V227.873H248.132C250.12 227.873 251.842 228.251 253.298 229.007C254.782 229.763 255.916 230.841 256.7 232.241C257.512 233.613 257.918 235.237 257.918 237.113C257.918 238.961 257.512 240.585 256.7 241.985C255.888 243.385 254.754 244.463 253.298 245.219C251.842 245.975 250.12 246.353 248.132 246.353H242.63V258.533H238.094ZM242.63 242.279H248.132C249.7 242.279 250.946 241.817 251.87 240.893C252.822 239.941 253.298 238.681 253.298 237.113C253.298 235.517 252.822 234.257 251.87 233.333C250.946 232.409 249.7 231.947 248.132 231.947H242.63V242.279ZM272.35 258.953C269.41 258.953 267.142 258.155 265.546 256.559C263.95 254.935 263.152 252.737 263.152 249.965V227.873H267.688V249.965C267.688 251.505 268.066 252.723 268.822 253.619C269.606 254.515 270.782 254.963 272.35 254.963C273.89 254.963 275.052 254.515 275.836 253.619C276.62 252.723 277.012 251.505 277.012 249.965V227.873H281.548V249.965C281.548 252.737 280.75 254.935 279.154 256.559C277.558 258.155 275.29 258.953 272.35 258.953ZM295.266 258.533V232.031H287.076V227.831H307.992V232.031H299.802V258.533H295.266ZM314.065 258.533V227.873H332.083V231.905H318.517V240.599H330.613V244.589H318.517V254.501H332.083V258.533H314.065ZM338.829 258.533V227.873H348.447C350.379 227.873 352.059 228.251 353.487 229.007C354.915 229.735 356.021 230.771 356.805 232.115C357.617 233.459 358.023 235.041 358.023 236.861C358.023 238.905 357.491 240.683 356.427 242.195C355.391 243.679 353.977 244.729 352.185 245.345L358.443 258.533H353.277L347.691 245.933H343.365V258.533H338.829ZM343.365 241.943H348.447C349.959 241.943 351.163 241.495 352.059 240.599C352.955 239.675 353.403 238.457 353.403 236.945C353.403 235.377 352.955 234.145 352.059 233.249C351.163 232.353 349.959 231.905 348.447 231.905H343.365V241.943ZM213.331 300.533V269.873H231.349V273.905H217.783V282.599H229.879V286.589H217.783V296.501H231.349V300.533H213.331ZM237.968 300.533V269.873H243.68L252.626 295.367C252.57 294.555 252.5 293.589 252.416 292.469C252.332 291.349 252.262 290.187 252.206 288.983C252.178 287.779 252.164 286.687 252.164 285.707V269.873H256.364V300.533H250.652L241.748 275.039C241.804 275.767 241.86 276.677 241.916 277.769C242 278.861 242.056 279.995 242.084 281.171C242.14 282.347 242.168 283.439 242.168 284.447V300.533H237.968ZM272.518 300.953C270.614 300.953 268.948 300.603 267.52 299.903C266.12 299.175 265.028 298.139 264.244 296.795C263.488 295.423 263.11 293.827 263.11 292.007V278.399C263.11 276.551 263.488 274.955 264.244 273.611C265.028 272.267 266.12 271.245 267.52 270.545C268.948 269.817 270.614 269.453 272.518 269.453C274.422 269.453 276.074 269.817 277.474 270.545C278.874 271.273 279.952 272.309 280.708 273.653C281.492 274.969 281.884 276.551 281.884 278.399H277.348C277.348 276.803 276.928 275.585 276.088 274.745C275.248 273.905 274.058 273.485 272.518 273.485C270.978 273.485 269.774 273.905 268.906 274.745C268.066 275.585 267.646 276.789 267.646 278.357V292.007C267.646 293.575 268.066 294.793 268.906 295.661C269.774 296.529 270.978 296.963 272.518 296.963C274.058 296.963 275.248 296.529 276.088 295.661C276.928 294.793 277.348 293.575 277.348 292.007V288.563H271.636V284.573H281.884V292.007C281.884 293.827 281.492 295.409 280.708 296.753C279.952 298.097 278.874 299.133 277.474 299.861C276.074 300.589 274.422 300.953 272.518 300.953ZM297.534 300.953C296.414 300.953 295.518 300.631 294.846 299.987C294.174 299.315 293.838 298.419 293.838 297.299C293.838 296.151 294.174 295.241 294.846 294.569C295.518 293.869 296.414 293.519 297.534 293.519C298.682 293.519 299.578 293.869 300.222 294.569C300.894 295.241 301.23 296.151 301.23 297.299C301.23 298.419 300.894 299.315 300.222 299.987C299.578 300.631 298.682 300.953 297.534 300.953Z" fill="white"/>
<g opacity="0.5">
<g opacity="0.7" filter="url(#filter1_f_1023_87)">
<rect x="196" y="365.623" width="413.079" height="40.8916" transform="rotate(-45.9959 196 365.623)" fill="url(#paint0_linear_1023_87)" fill-opacity="0.2"/>
</g>
<g filter="url(#filter2_f_1023_87)">
<rect x="225.413" y="394.031" width="413.079" height="61.3123" transform="rotate(-45.9959 225.413 394.031)" fill="url(#paint1_linear_1023_87)" fill-opacity="0.4"/>
</g>
</g>
<g opacity="0.5">
<g opacity="0.7" filter="url(#filter3_f_1023_87)">
<rect x="-27.5" y="245.623" width="413.079" height="61.3123" transform="rotate(-45.9959 -27.5 245.623)" fill="url(#paint2_linear_1023_87)" fill-opacity="0.2"/>
</g>
<g opacity="0.5" filter="url(#filter4_f_1023_87)">
<rect x="16.6011" y="288.218" width="413.079" height="61.3123" transform="rotate(-45.9959 16.6011 288.218)" fill="url(#paint3_linear_1023_87)" fill-opacity="0.4"/>
</g>
</g>
</g>
</g>
<defs>
<filter id="filter0_d_1023_87" x="0.0999999" y="0.0999846" width="526.5" height="378" filterUnits="userSpaceOnUse" color-interpolation-filters="sRGB">
<feFlood flood-opacity="0" result="BackgroundImageFix"/>
<feColorMatrix in="SourceAlpha" type="matrix" values="0 0 0 0 0 0 0 0 0 0 0 0 0 0 0 0 0 0 127 0" result="hardAlpha"/>
<feOffset dx="3.6" dy="3.6"/>
<feGaussianBlur stdDeviation="4.5"/>
<feComposite in2="hardAlpha" operator="out"/>
<feColorMatrix type="matrix" values="0 0 0 0 0 0 0 0 0 0 0 0 0 0 0 0 0 0 0.1 0"/>
<feBlend mode="normal" in2="BackgroundImageFix" result="effect1_dropShadow_1023_87"/>
<feBlend mode="normal" in="SourceGraphic" in2="effect1_dropShadow_1023_87" result="shape"/>
</filter>
<filter id="filter1_f_1023_87" x="181" y="53.5001" width="346.383" height="355.531" filterUnits="userSpaceOnUse" color-interpolation-filters="sRGB">
<feFlood flood-opacity="0" result="BackgroundImageFix"/>
<feBlend mode="normal" in="SourceGraphic" in2="BackgroundImageFix" result="shape"/>
<feGaussianBlur stdDeviation="7.5" result="effect1_foregroundBlur_1023_87"/>
</filter>
<filter id="filter2_f_1023_87" x="210.413" y="81.9079" width="361.071" height="369.718" filterUnits="userSpaceOnUse" color-interpolation-filters="sRGB">
<feFlood flood-opacity="0" result="BackgroundImageFix"/>
<feBlend mode="normal" in="SourceGraphic" in2="BackgroundImageFix" result="shape"/>
<feGaussianBlur stdDeviation="7.5" result="effect1_foregroundBlur_1023_87"/>
</filter>
<filter id="filter3_f_1023_87" x="-42.5" y="-66.4999" width="361.071" height="369.718" filterUnits="userSpaceOnUse" color-interpolation-filters="sRGB">
<feFlood flood-opacity="0" result="BackgroundImageFix"/>
<feBlend mode="normal" in="SourceGraphic" in2="BackgroundImageFix" result="shape"/>
<feGaussianBlur stdDeviation="7.5" result="effect1_foregroundBlur_1023_87"/>
</filter>
<filter id="filter4_f_1023_87" x="1.60107" y="-23.9057" width="361.071" height="369.718" filterUnits="userSpaceOnUse" color-interpolation-filters="sRGB">
<feFlood flood-opacity="0" result="BackgroundImageFix"/>
<feBlend mode="normal" in="SourceGraphic" in2="BackgroundImageFix" result="shape"/>
<feGaussianBlur stdDeviation="7.5" result="effect1_foregroundBlur_1023_87"/>
</filter>
<linearGradient id="paint0_linear_1023_87" x1="402.539" y1="365.623" x2="402.539" y2="406.515" gradientUnits="userSpaceOnUse">
<stop stop-color="white" stop-opacity="0"/>
<stop offset="1" stop-color="white"/>
</linearGradient>
<linearGradient id="paint1_linear_1023_87" x1="431.952" y1="394.031" x2="431.952" y2="455.343" gradientUnits="userSpaceOnUse">
<stop/>
<stop offset="1" stop-opacity="0"/>
</linearGradient>
<linearGradient id="paint2_linear_1023_87" x1="179.039" y1="245.623" x2="179.039" y2="306.936" gradientUnits="userSpaceOnUse">
<stop stop-color="white" stop-opacity="0"/>
<stop offset="1" stop-color="white"/>
</linearGradient>
<linearGradient id="paint3_linear_1023_87" x1="223.14" y1="288.218" x2="223.14" y2="349.53" gradientUnits="userSpaceOnUse">
<stop/>
<stop offset="1" stop-opacity="0"/>
</linearGradient>
</defs>
</svg>
