<svg width="497" height="497" viewBox="0 0 497 497" fill="none" xmlns="http://www.w3.org/2000/svg">
<g filter="url(#filter0_d_487_6148)">
<path fill-rule="evenodd" clip-rule="evenodd" d="M379.906 6H339.094C333.424 19.5108 320.07 29 304.5 29C288.93 29 275.576 19.5108 269.906 6H229.094C223.424 19.5108 210.07 29 194.5 29C178.93 29 165.576 19.5108 159.906 6H119.094C113.424 19.5108 100.07 29 84.5 29C68.9298 29 55.576 19.5108 49.9062 6H10V46.3432C22.9767 52.2412 32 65.3169 32 80.5C32 95.6831 22.9767 108.759 10 114.657V156.343C22.9767 162.241 32 175.317 32 190.5C32 205.683 22.9767 218.759 10 224.657V266.343C22.9767 272.241 32 285.317 32 300.5C32 315.683 22.9767 328.759 10 334.657V376.343C22.9767 382.241 32 395.317 32 410.5C32 425.683 22.9767 438.759 10 444.657V483H46.7962C51.6513 467.915 65.801 457 82.5 457C99.1991 457 113.349 467.915 118.204 483H156.796C161.651 467.915 175.801 457 192.5 457C209.199 457 223.349 467.915 228.204 483H266.796C271.651 467.915 285.801 457 302.5 457C319.199 457 333.349 467.915 338.204 483H376.796C381.651 467.915 395.801 457 412.5 457C429.199 457 443.349 467.915 448.204 483H487V441.675C475.105 435.387 467 422.89 467 408.5C467 394.11 475.105 381.613 487 375.325V331.675C475.105 325.387 467 312.89 467 298.5C467 284.11 475.105 271.613 487 265.325V221.675C475.105 215.387 467 202.89 467 188.5C467 174.11 475.105 161.613 487 155.325V111.675C475.105 105.387 467 92.8902 467 78.5C467 64.1098 475.105 51.6127 487 45.3252V6H449.094C443.424 19.5108 430.07 29 414.5 29C398.93 29 385.576 19.5108 379.906 6Z" fill="#F49A9A"/>
</g>
<g filter="url(#filter1_d_487_6148)">
<path fill-rule="evenodd" clip-rule="evenodd" d="M379.906 6H339.094C333.424 19.5108 320.07 29 304.5 29C288.93 29 275.576 19.5108 269.906 6H229.094C223.424 19.5108 210.07 29 194.5 29C178.93 29 165.576 19.5108 159.906 6H119.094C113.424 19.5108 100.07 29 84.5 29C68.9298 29 55.576 19.5108 49.9062 6H10V46.3432C22.9767 52.2412 32 65.3169 32 80.5C32 95.6831 22.9767 108.759 10 114.657V156.343C22.9767 162.241 32 175.317 32 190.5C32 205.683 22.9767 218.759 10 224.657V266.343C22.9767 272.241 32 285.317 32 300.5C32 315.683 22.9767 328.759 10 334.657V376.343C22.9767 382.241 32 395.317 32 410.5C32 425.683 22.9767 438.759 10 444.657V483H46.7962C51.6513 467.915 65.801 457 82.5 457C99.1991 457 113.349 467.915 118.204 483H156.796C161.651 467.915 175.801 457 192.5 457C209.199 457 223.349 467.915 228.204 483H266.796C271.651 467.915 285.801 457 302.5 457C319.199 457 333.349 467.915 338.204 483H376.796C381.651 467.915 395.801 457 412.5 457C429.199 457 443.349 467.915 448.204 483H487V441.675C475.105 435.387 467 422.89 467 408.5C467 394.11 475.105 381.613 487 375.325V331.675C475.105 325.387 467 312.89 467 298.5C467 284.11 475.105 271.613 487 265.325V221.675C475.105 215.387 467 202.89 467 188.5C467 174.11 475.105 161.613 487 155.325V111.675C475.105 105.387 467 92.8902 467 78.5C467 64.1098 475.105 51.6127 487 45.3252V6H449.094C443.424 19.5108 430.07 29 414.5 29C398.93 29 385.576 19.5108 379.906 6Z" fill="#F49A9A"/>
</g>
<rect x="62" y="46" width="385" height="385" rx="10" fill="#F7A5A5"/>
<path d="M132.248 322.864C129.836 322.864 127.622 322.324 125.606 321.244C123.59 320.164 121.97 318.598 120.746 316.546C119.558 314.494 118.964 312.01 118.964 309.094C118.964 307.042 119.306 305.116 119.99 303.316C120.674 301.516 121.628 299.932 122.852 298.564C124.112 297.196 125.588 296.116 127.28 295.324C129.008 294.532 130.916 294.136 133.004 294.136C135.308 294.136 137.216 294.496 138.728 295.216C140.276 295.9 141.428 296.818 142.184 297.97C142.976 299.086 143.372 300.274 143.372 301.534C143.372 302.578 143.048 303.514 142.4 304.342C141.788 305.134 140.906 305.548 139.754 305.584C138.386 305.62 137.432 305.242 136.892 304.45C136.352 303.622 136.082 302.83 136.082 302.074C136.082 301.75 136.136 301.372 136.244 300.94C136.352 300.472 136.514 300.058 136.73 299.698C136.478 299.158 136.1 298.762 135.596 298.51C135.092 298.258 134.57 298.096 134.03 298.024C133.526 297.916 133.112 297.88 132.788 297.916C131.06 298.024 129.638 298.888 128.522 300.508C127.406 302.128 126.848 304.468 126.848 307.528C126.848 309.328 127.064 311.02 127.496 312.604C127.964 314.152 128.72 315.43 129.764 316.438C130.808 317.446 132.212 317.986 133.976 318.058C135.488 318.094 136.964 317.734 138.404 316.978C139.844 316.222 141.068 315.196 142.076 313.9L144.56 316.33C143.264 318.13 141.914 319.498 140.51 320.434C139.106 321.37 137.702 322 136.298 322.324C134.93 322.684 133.58 322.864 132.248 322.864ZM166.083 322.864C163.491 322.864 161.151 322.306 159.063 321.19C156.975 320.074 155.319 318.49 154.095 316.438C152.907 314.35 152.313 311.902 152.313 309.094C152.313 306.106 152.925 303.496 154.149 301.264C155.409 298.996 157.065 297.25 159.117 296.026C161.205 294.766 163.473 294.136 165.921 294.136C168.513 294.136 170.835 294.694 172.887 295.81C174.939 296.926 176.559 298.528 177.747 300.616C178.935 302.668 179.529 305.134 179.529 308.014C179.529 311.038 178.953 313.666 177.801 315.898C176.649 318.13 175.065 319.858 173.049 321.082C171.033 322.27 168.711 322.864 166.083 322.864ZM166.299 319.03C167.739 318.994 168.819 318.49 169.539 317.518C170.295 316.546 170.817 315.322 171.105 313.846C171.393 312.37 171.537 310.876 171.537 309.364C171.537 308.032 171.429 306.682 171.213 305.314C171.033 303.946 170.727 302.704 170.295 301.588C169.863 300.472 169.269 299.572 168.513 298.888C167.793 298.204 166.893 297.88 165.813 297.916C164.409 297.952 163.293 298.456 162.465 299.428C161.673 300.4 161.097 301.624 160.737 303.1C160.413 304.54 160.251 306.052 160.251 307.636C160.251 309.472 160.449 311.272 160.845 313.036C161.241 314.8 161.871 316.258 162.735 317.41C163.635 318.526 164.823 319.066 166.299 319.03ZM188.839 322V318.49C189.847 318.49 190.567 318.292 190.999 317.896C191.431 317.5 191.701 316.942 191.809 316.222C191.953 315.466 192.025 314.62 192.025 313.684V304.612C192.025 303.964 192.043 303.244 192.079 302.452C192.115 301.624 192.169 300.814 192.241 300.022C191.665 300.058 190.981 300.094 190.189 300.13C189.433 300.13 188.857 300.148 188.461 300.184V296.08C190.117 296.08 191.521 295.99 192.673 295.81C193.825 295.63 194.725 295.414 195.373 295.162C196.057 294.91 196.525 294.676 196.777 294.46H199.423C199.495 294.82 199.531 295.27 199.531 295.81C199.567 296.35 199.603 296.8 199.639 297.16C200.863 296.224 202.177 295.486 203.581 294.946C205.021 294.406 206.371 294.136 207.631 294.136C209.287 294.136 210.655 294.442 211.735 295.054C212.815 295.63 213.679 296.512 214.327 297.7C215.623 296.62 217.045 295.756 218.593 295.108C220.177 294.46 221.689 294.136 223.129 294.136C226.045 294.136 228.241 294.982 229.717 296.674C231.229 298.33 231.985 301.228 231.985 305.368V313.306C231.985 313.81 231.967 314.53 231.931 315.466C231.895 316.366 231.841 317.23 231.769 318.058C232.345 317.986 232.975 317.95 233.659 317.95C234.379 317.914 234.919 317.896 235.279 317.896V322H221.617V318.49C222.445 318.49 223.039 318.292 223.399 317.896C223.795 317.5 224.047 316.942 224.155 316.222C224.263 315.466 224.317 314.62 224.317 313.684V305.422C224.281 303.082 223.885 301.462 223.129 300.562C222.409 299.662 221.437 299.194 220.213 299.158C219.277 299.122 218.395 299.284 217.567 299.644C216.775 300.004 216.055 300.436 215.407 300.94C215.587 301.66 215.713 302.452 215.785 303.316C215.857 304.18 215.893 305.098 215.893 306.07C215.893 307.294 215.893 308.5 215.893 309.688C215.893 310.876 215.893 312.082 215.893 313.306C215.893 313.81 215.875 314.53 215.839 315.466C215.803 316.366 215.749 317.23 215.677 318.058C216.253 317.986 216.883 317.95 217.567 317.95C218.251 317.914 218.791 317.896 219.187 317.896V322H205.255V318.49C206.191 318.49 206.857 318.292 207.253 317.896C207.685 317.5 207.955 316.942 208.063 316.222C208.171 315.466 208.225 314.62 208.225 313.684L208.171 305.26C208.171 302.92 207.829 301.318 207.145 300.454C206.461 299.59 205.507 299.14 204.283 299.104C203.383 299.104 202.537 299.302 201.745 299.698C200.989 300.094 200.305 300.562 199.693 301.102C199.693 301.57 199.693 302.02 199.693 302.452C199.693 302.884 199.693 303.334 199.693 303.802V313.306C199.693 313.81 199.675 314.53 199.639 315.466C199.603 316.366 199.549 317.23 199.477 318.058C200.053 317.986 200.647 317.95 201.259 317.95C201.871 317.914 202.357 317.896 202.717 317.896V322H188.839ZM243.164 335.77V332.26C244.172 332.26 244.892 332.062 245.324 331.666C245.792 331.27 246.08 330.694 246.188 329.938C246.332 329.218 246.404 328.39 246.404 327.454V304.612C246.404 303.964 246.422 303.244 246.458 302.452C246.494 301.624 246.548 300.814 246.62 300.022C246.044 300.058 245.36 300.094 244.568 300.13C243.776 300.13 243.182 300.148 242.786 300.184V296.08C244.478 296.08 245.882 295.99 246.998 295.81C248.15 295.63 249.05 295.414 249.698 295.162C250.382 294.91 250.85 294.676 251.102 294.46H253.748C253.82 294.82 253.874 295.27 253.91 295.81C253.946 296.314 253.982 296.728 254.018 297.052C255.278 295.972 256.52 295.216 257.744 294.784C259.004 294.352 260.192 294.136 261.308 294.136C263.468 294.136 265.358 294.694 266.978 295.81C268.634 296.926 269.912 298.51 270.812 300.562C271.748 302.614 272.216 305.026 272.216 307.798C272.216 310.678 271.658 313.27 270.542 315.574C269.426 317.842 267.86 319.624 265.844 320.92C263.864 322.216 261.524 322.864 258.824 322.864C257.852 322.864 256.97 322.756 256.178 322.54C255.422 322.36 254.702 322.144 254.018 321.892V327.076C254.018 327.58 254 328.282 253.964 329.182C253.964 330.118 253.928 331 253.856 331.828C254.432 331.756 255.062 331.702 255.746 331.666C256.43 331.666 256.952 331.666 257.312 331.666V335.77H243.164ZM257.96 318.814C259.616 318.778 260.894 318.292 261.794 317.356C262.73 316.384 263.378 315.124 263.738 313.576C264.098 312.028 264.278 310.372 264.278 308.608C264.278 306.952 264.08 305.386 263.684 303.91C263.288 302.434 262.658 301.246 261.794 300.346C260.93 299.41 259.796 298.96 258.392 298.996C257.492 299.032 256.664 299.266 255.908 299.698C255.152 300.094 254.522 300.652 254.018 301.372C254.018 302.488 254.018 303.604 254.018 304.72C254.018 305.8 254.018 306.88 254.018 307.96C254.018 309.04 254.018 310.138 254.018 311.254C254.018 312.334 254.018 313.432 254.018 314.548C254.018 315.628 254.018 316.726 254.018 317.842C254.414 318.094 254.972 318.328 255.692 318.544C256.412 318.76 257.168 318.85 257.96 318.814ZM292.714 322.864C290.554 322.864 288.808 322.45 287.476 321.622C286.18 320.794 285.226 319.498 284.614 317.734C284.038 315.97 283.75 313.702 283.75 310.93V304.72C283.75 304.072 283.768 303.334 283.804 302.506C283.84 301.642 283.876 300.814 283.912 300.022C283.336 300.058 282.652 300.094 281.86 300.13C281.104 300.13 280.528 300.148 280.132 300.184V296.08H280.672C282.904 296.08 284.668 295.9 285.964 295.54C287.26 295.18 288.088 294.82 288.448 294.46H291.418V310.984C291.418 313.324 291.724 315.07 292.336 316.222C292.948 317.338 293.92 317.896 295.252 317.896C296.188 317.896 297.124 317.644 298.06 317.14C299.032 316.6 299.824 315.988 300.436 315.304V304.72C300.436 304.072 300.454 303.334 300.49 302.506C300.526 301.642 300.58 300.814 300.652 300.022C300.076 300.058 299.392 300.094 298.6 300.13C297.844 300.13 297.268 300.148 296.872 300.184V296.08H298.168C299.86 296.08 301.354 295.9 302.65 295.54C303.946 295.144 304.774 294.784 305.134 294.46H308.104V313.306C308.104 313.81 308.086 314.53 308.05 315.466C308.014 316.366 307.96 317.23 307.888 318.058C308.464 317.986 309.094 317.95 309.778 317.95C310.498 317.914 311.038 317.896 311.398 317.896V322H301.138C301.102 321.532 301.048 321.064 300.976 320.596C300.94 320.128 300.886 319.66 300.814 319.192C299.698 320.128 298.492 320.974 297.196 321.73C295.936 322.486 294.442 322.864 292.714 322.864ZM330.797 322.864C329.717 322.864 328.673 322.738 327.665 322.486C326.693 322.234 325.793 321.766 324.965 321.082C324.173 320.362 323.543 319.318 323.075 317.95C322.607 316.582 322.373 314.764 322.373 312.496L322.481 299.482H318.809V295C319.925 294.964 321.005 294.586 322.049 293.866C323.093 293.146 323.975 292.21 324.695 291.058C325.451 289.906 325.955 288.7 326.207 287.44H330.203L330.149 295H337.007V299.158L330.149 299.32L330.095 312.604C330.095 313.432 330.167 314.26 330.311 315.088C330.491 315.88 330.815 316.546 331.283 317.086C331.751 317.59 332.435 317.842 333.335 317.842C333.839 317.842 334.523 317.662 335.387 317.302C336.287 316.942 337.241 316.042 338.249 314.602L340.841 317.032C339.869 318.472 338.861 319.588 337.817 320.38C336.773 321.172 335.765 321.748 334.793 322.108C333.857 322.468 333.029 322.684 332.309 322.756C331.589 322.828 331.085 322.864 330.797 322.864ZM360.61 322.864C357.982 322.864 355.66 322.288 353.644 321.136C351.628 319.948 350.062 318.292 348.946 316.168C347.83 314.008 347.272 311.47 347.272 308.554C347.272 306.034 347.83 303.676 348.946 301.48C350.062 299.284 351.628 297.52 353.644 296.188C355.696 294.82 358.072 294.136 360.772 294.136C362.284 294.136 363.76 294.352 365.2 294.784C366.64 295.18 367.936 295.882 369.088 296.89C370.276 297.898 371.212 299.266 371.896 300.994C372.616 302.722 372.958 304.882 372.922 307.474L355.21 307.798C355.21 309.742 355.444 311.488 355.912 313.036C356.416 314.584 357.226 315.808 358.342 316.708C359.458 317.608 360.952 318.058 362.824 318.058C363.544 318.058 364.354 317.932 365.254 317.68C366.19 317.428 367.126 317.014 368.062 316.438C369.034 315.826 369.934 315.016 370.762 314.008L373.192 316.276C371.896 318.112 370.51 319.516 369.034 320.488C367.558 321.424 366.082 322.054 364.606 322.378C363.166 322.702 361.834 322.864 360.61 322.864ZM355.534 304.018H365.47C365.434 302.506 365.218 301.318 364.822 300.454C364.462 299.554 363.958 298.906 363.31 298.51C362.662 298.114 361.906 297.916 361.042 297.916C359.458 297.916 358.216 298.492 357.316 299.644C356.416 300.76 355.822 302.218 355.534 304.018ZM382.269 318.49C383.277 318.49 383.997 318.292 384.429 317.896C384.861 317.5 385.131 316.942 385.239 316.222C385.383 315.466 385.455 314.62 385.455 313.684V304.612C385.455 303.964 385.473 303.244 385.509 302.452C385.545 301.624 385.599 300.814 385.671 300.022C385.095 300.058 384.411 300.094 383.619 300.13C382.863 300.13 382.287 300.148 381.891 300.184V296.08H384.051C385.455 296.08 386.733 295.9 387.885 295.54C389.073 295.18 389.847 294.82 390.207 294.46H392.853C392.925 294.82 392.979 295.504 393.015 296.512C393.051 297.484 393.069 298.348 393.069 299.104C394.041 297.916 394.959 296.962 395.823 296.242C396.687 295.522 397.533 295 398.361 294.676C399.225 294.316 400.089 294.136 400.953 294.136C402.213 294.136 403.311 294.496 404.247 295.216C405.183 295.9 405.651 297.034 405.651 298.618C405.651 299.158 405.525 299.734 405.273 300.346C405.021 300.922 404.625 301.408 404.085 301.804C403.545 302.2 402.807 302.398 401.871 302.398C401.151 302.398 400.413 302.182 399.657 301.75C398.901 301.318 398.469 300.49 398.361 299.266C397.641 299.266 396.921 299.572 396.201 300.184C395.481 300.76 394.833 301.462 394.257 302.29C393.717 303.082 393.339 303.82 393.123 304.504V313.306C393.123 313.81 393.105 314.53 393.069 315.466C393.033 316.366 392.979 317.23 392.907 318.058C393.483 317.986 394.113 317.95 394.797 317.95C395.517 317.914 396.057 317.896 396.417 317.896V322H382.269V318.49ZM298.763 382.864C296.135 382.864 293.813 382.288 291.797 381.136C289.781 379.948 288.215 378.292 287.099 376.168C285.983 374.008 285.425 371.47 285.425 368.554C285.425 366.034 285.983 363.676 287.099 361.48C288.215 359.284 289.781 357.52 291.797 356.188C293.849 354.82 296.225 354.136 298.925 354.136C300.437 354.136 301.913 354.352 303.353 354.784C304.793 355.18 306.089 355.882 307.241 356.89C308.429 357.898 309.365 359.266 310.049 360.994C310.769 362.722 311.111 364.882 311.075 367.474L293.363 367.798C293.363 369.742 293.597 371.488 294.065 373.036C294.569 374.584 295.379 375.808 296.495 376.708C297.611 377.608 299.105 378.058 300.977 378.058C301.697 378.058 302.507 377.932 303.407 377.68C304.343 377.428 305.279 377.014 306.215 376.438C307.187 375.826 308.087 375.016 308.915 374.008L311.345 376.276C310.049 378.112 308.663 379.516 307.187 380.488C305.711 381.424 304.235 382.054 302.759 382.378C301.319 382.702 299.987 382.864 298.763 382.864ZM293.687 364.018H303.623C303.587 362.506 303.371 361.318 302.975 360.454C302.615 359.554 302.111 358.906 301.463 358.51C300.815 358.114 300.059 357.916 299.195 357.916C297.611 357.916 296.369 358.492 295.469 359.644C294.569 360.76 293.975 362.218 293.687 364.018ZM320.422 382V378.49C321.43 378.49 322.15 378.292 322.582 377.896C323.014 377.5 323.284 376.942 323.392 376.222C323.536 375.466 323.608 374.62 323.608 373.684V364.612C323.608 363.964 323.626 363.244 323.662 362.452C323.698 361.624 323.752 360.814 323.824 360.022C323.248 360.058 322.564 360.094 321.772 360.13C321.016 360.13 320.44 360.148 320.044 360.184V356.08C321.7 356.08 323.104 355.99 324.256 355.81C325.408 355.63 326.308 355.414 326.956 355.162C327.64 354.91 328.108 354.676 328.36 354.46H331.006C331.078 354.928 331.114 355.27 331.114 355.486C331.114 355.702 331.114 355.918 331.114 356.134C331.15 356.314 331.222 356.656 331.33 357.16C332.05 356.584 332.878 356.08 333.814 355.648C334.75 355.18 335.686 354.82 336.622 354.568C337.558 354.28 338.386 354.136 339.106 354.136C342.418 354.136 344.758 355.09 346.126 356.998C347.53 358.87 348.232 361.894 348.232 366.07V373.306C348.232 373.81 348.214 374.53 348.178 375.466C348.142 376.366 348.088 377.23 348.016 378.058C348.628 377.986 349.276 377.95 349.96 377.95C350.644 377.914 351.166 377.896 351.526 377.896V382H337.378V378.49C338.386 378.49 339.106 378.292 339.538 377.896C340.006 377.5 340.294 376.942 340.402 376.222C340.546 375.466 340.618 374.62 340.618 373.684L340.564 366.016C340.564 363.676 340.222 361.948 339.538 360.832C338.89 359.68 337.774 359.104 336.19 359.104C335.29 359.104 334.39 359.302 333.49 359.698C332.626 360.094 331.888 360.562 331.276 361.102C331.276 361.606 331.276 362.128 331.276 362.668C331.276 363.172 331.276 363.676 331.276 364.18V373.306C331.276 373.81 331.258 374.53 331.222 375.466C331.186 376.366 331.132 377.23 331.06 378.058C331.636 377.986 332.266 377.95 332.95 377.95C333.67 377.914 334.21 377.896 334.57 377.896V382H320.422ZM371.762 396.634C368.666 396.634 366.218 396.292 364.418 395.608C362.618 394.96 361.34 394.096 360.584 393.016C359.828 391.936 359.45 390.784 359.45 389.56C359.45 388.804 359.612 388.048 359.936 387.292C360.26 386.536 360.782 385.798 361.502 385.078C362.258 384.394 363.284 383.818 364.58 383.35C363.104 382.954 362.06 382.324 361.448 381.46C360.872 380.56 360.584 379.606 360.584 378.598C360.584 377.662 360.962 376.618 361.718 375.466C362.474 374.278 363.842 373.378 365.822 372.766C364.31 372.154 363.068 371.2 362.096 369.904C361.124 368.608 360.602 367.042 360.53 365.206C360.458 363.046 360.998 361.138 362.15 359.482C363.302 357.79 364.814 356.476 366.686 355.54C368.558 354.604 370.52 354.136 372.572 354.136C373.508 354.136 374.588 354.262 375.812 354.514C377.036 354.766 378.098 355.198 378.998 355.81C379.394 354.694 379.898 353.65 380.51 352.678C381.158 351.67 381.932 350.86 382.832 350.248C383.732 349.6 384.74 349.276 385.856 349.276C387.08 349.276 387.998 349.6 388.61 350.248C389.258 350.86 389.582 351.688 389.582 352.732C389.582 353.164 389.474 353.65 389.258 354.19C389.078 354.694 388.736 355.126 388.232 355.486C387.764 355.846 387.098 356.026 386.234 356.026C385.694 356.026 385.154 355.828 384.614 355.432C384.074 355 383.75 354.496 383.642 353.92C383.174 354.064 382.706 354.532 382.238 355.324C381.77 356.116 381.5 356.818 381.428 357.43C382.472 358.33 383.264 359.374 383.804 360.562C384.344 361.75 384.614 363.028 384.614 364.396C384.614 366.484 384.02 368.338 382.832 369.958C381.68 371.542 380.168 372.802 378.296 373.738C376.46 374.638 374.48 375.088 372.356 375.088C371.888 375.088 371.366 375.07 370.79 375.034C370.214 374.962 369.656 374.926 369.116 374.926C368.324 374.926 367.658 375.07 367.118 375.358C366.578 375.646 366.308 376.042 366.308 376.546C366.308 377.23 366.83 377.698 367.874 377.95C368.918 378.202 370.7 378.4 373.22 378.544C375.992 378.688 378.404 379.048 380.456 379.624C382.544 380.164 384.164 381.028 385.316 382.216C386.468 383.404 387.044 385.042 387.044 387.13C387.044 388.678 386.594 390.028 385.694 391.18C384.794 392.368 383.588 393.358 382.076 394.15C380.6 394.978 378.962 395.59 377.162 395.986C375.362 396.418 373.562 396.634 371.762 396.634ZM373.328 392.908C375.884 392.908 377.81 392.44 379.106 391.504C380.438 390.568 381.104 389.596 381.104 388.588C381.104 387.832 380.816 387.202 380.24 386.698C379.664 386.23 378.8 385.852 377.648 385.564C376.532 385.276 375.092 385.096 373.328 385.024C372.536 384.952 371.618 384.898 370.574 384.862C369.53 384.826 368.612 384.736 367.82 384.592C367.28 385.024 366.866 385.564 366.578 386.212C366.29 386.86 366.128 387.49 366.092 388.102C366.02 389.542 366.632 390.694 367.928 391.558C369.26 392.458 371.06 392.908 373.328 392.908ZM372.572 371.47C373.544 371.47 374.354 371.164 375.002 370.552C375.686 369.94 376.19 369.166 376.514 368.23C376.874 367.294 377.054 366.34 377.054 365.368C377.054 364.108 376.892 362.902 376.568 361.75C376.244 360.562 375.74 359.608 375.056 358.888C374.408 358.132 373.562 357.754 372.518 357.754C371.078 357.754 369.962 358.402 369.17 359.698C368.378 360.994 367.982 362.47 367.982 364.126C367.982 365.386 368.162 366.592 368.522 367.744C368.882 368.86 369.404 369.76 370.088 370.444C370.772 371.128 371.6 371.47 372.572 371.47ZM399.714 382.864C398.562 382.864 397.608 382.45 396.852 381.622C396.132 380.794 395.772 379.804 395.772 378.652C395.772 377.5 396.168 376.51 396.96 375.682C397.752 374.854 398.67 374.44 399.714 374.44C400.83 374.44 401.748 374.854 402.468 375.682C403.224 376.51 403.602 377.5 403.602 378.652C403.602 379.804 403.242 380.794 402.522 381.622C401.838 382.45 400.902 382.864 399.714 382.864Z" fill="#BC4040"/>
<path d="M227.238 213.47L229.83 191.532C228.523 190.621 227.327 189.619 226.241 188.528C225.155 187.436 224.111 186.296 223.108 185.108L201.225 188.52L190.701 152.403L211.069 143.677C211.149 142.874 211.279 142.112 211.457 141.392L212.566 136.903C212.744 136.182 212.984 135.448 213.287 134.7L199.329 117.491L225.463 90.4331L243.238 103.645C244.679 103.061 246.162 102.545 247.687 102.099C249.212 101.652 250.709 101.317 252.179 101.092L260.104 80.4709L296.762 89.5297L294.17 111.468C295.477 112.379 296.673 113.381 297.759 114.472C298.845 115.564 299.889 116.704 300.892 117.892L322.775 114.48L333.299 150.597L312.932 159.323C312.851 160.126 312.722 160.888 312.544 161.608L311.434 166.097C311.256 166.818 310.96 167.538 310.547 168.259L324.505 185.468L298.37 212.526L280.762 199.355C279.321 199.939 277.838 200.455 276.313 200.901C274.788 201.348 273.291 201.683 271.821 201.908L263.897 222.529L227.238 213.47ZM242.189 203.053L255.352 206.306L262.04 189.26C265.703 189.224 269.218 188.711 272.587 187.72C275.955 186.73 279.162 185.318 282.209 183.483L297.021 194.376L306.313 184.677L294.653 170.329C295.592 168.915 296.385 167.376 297.031 165.713C297.678 164.05 298.22 162.332 298.659 160.559C299.097 158.785 299.417 157.012 299.619 155.24C299.822 153.467 299.837 151.736 299.665 150.047L316.665 142.782L312.96 129.871L294.739 132.777C292.925 129.624 290.758 126.825 288.239 124.379C285.72 121.934 282.848 119.843 279.623 118.105L281.812 99.9473L268.648 96.6944L261.96 113.74C258.298 113.776 254.782 114.289 251.414 115.28C248.045 116.27 244.838 117.682 241.792 119.517L226.98 108.624L217.687 118.323L229.388 132.504C228.422 134.03 227.622 135.596 226.989 137.204C226.356 138.811 225.807 140.557 225.342 142.441C224.903 144.215 224.59 145.96 224.401 147.677C224.213 149.395 224.191 151.153 224.335 152.953L207.335 160.218L211.04 173.129L229.261 170.223C231.075 173.376 233.242 176.175 235.761 178.621C238.281 181.066 241.153 183.157 244.377 184.895L242.189 203.053ZM256.582 174.857C263.025 176.449 269.085 175.536 274.763 172.117C280.44 168.699 284.073 163.775 285.661 157.347C287.25 150.919 286.328 144.87 282.897 139.2C279.465 133.53 274.528 129.9 268.085 128.307C261.531 126.688 255.443 127.594 249.821 131.027C244.199 134.459 240.594 139.389 239.005 145.818C237.417 152.246 238.31 158.288 241.687 163.944C245.063 169.6 250.028 173.238 256.582 174.857Z" fill="#D65959"/>
<path d="M244.266 224.474L306.195 180.833C305.525 177.739 305.152 174.658 305.074 171.589C304.997 168.52 305.24 165.319 305.803 161.986C308.252 147.495 315.406 136.034 327.264 127.604C339.122 119.175 352.297 116.184 366.789 118.633C372.006 119.515 376.847 121.078 381.312 123.323C385.777 125.569 389.89 128.35 393.651 131.669L356.552 158.042L369.557 176.338L406.657 149.965C408.556 154.608 409.831 159.407 410.485 164.362C411.138 169.317 411.024 174.403 410.142 179.619C407.693 194.111 400.539 205.572 388.681 214.001C376.822 222.431 363.647 225.421 349.156 222.972C345.823 222.409 342.72 221.587 339.847 220.505C336.974 219.423 334.186 218.058 331.484 216.409L269.916 260.557C267.883 262.003 265.635 262.517 263.172 262.101C260.708 261.684 258.754 260.46 257.309 258.427L242.135 237.082C240.69 235.049 240.176 232.8 240.592 230.337C241.008 227.873 242.233 225.919 244.266 224.474Z" fill="#B64C4C"/>
<defs>
<filter id="filter0_d_487_6148" x="0" y="0" width="497" height="497" filterUnits="userSpaceOnUse" color-interpolation-filters="sRGB">
<feFlood flood-opacity="0" result="BackgroundImageFix"/>
<feColorMatrix in="SourceAlpha" type="matrix" values="0 0 0 0 0 0 0 0 0 0 0 0 0 0 0 0 0 0 127 0" result="hardAlpha"/>
<feOffset dy="4"/>
<feGaussianBlur stdDeviation="5"/>
<feComposite in2="hardAlpha" operator="out"/>
<feColorMatrix type="matrix" values="0 0 0 0 0 0 0 0 0 0 0 0 0 0 0 0 0 0 0.1 0"/>
<feBlend mode="normal" in2="BackgroundImageFix" result="effect1_dropShadow_487_6148"/>
<feBlend mode="normal" in="SourceGraphic" in2="effect1_dropShadow_487_6148" result="shape"/>
</filter>
<filter id="filter1_d_487_6148" x="0" y="0" width="497" height="497" filterUnits="userSpaceOnUse" color-interpolation-filters="sRGB">
<feFlood flood-opacity="0" result="BackgroundImageFix"/>
<feColorMatrix in="SourceAlpha" type="matrix" values="0 0 0 0 0 0 0 0 0 0 0 0 0 0 0 0 0 0 127 0" result="hardAlpha"/>
<feOffset dy="4"/>
<feGaussianBlur stdDeviation="5"/>
<feComposite in2="hardAlpha" operator="out"/>
<feColorMatrix type="matrix" values="0 0 0 0 0 0 0 0 0 0 0 0 0 0 0 0 0 0 0.1 0"/>
<feBlend mode="normal" in2="BackgroundImageFix" result="effect1_dropShadow_487_6148"/>
<feBlend mode="normal" in="SourceGraphic" in2="effect1_dropShadow_487_6148" result="shape"/>
</filter>
</defs>
</svg>
