<svg width="497" height="497" viewBox="0 0 497 497" fill="none" xmlns="http://www.w3.org/2000/svg">
<g filter="url(#filter0_d_486_5760)">
<path fill-rule="evenodd" clip-rule="evenodd" d="M379.906 6H339.094C333.424 19.5108 320.07 29 304.5 29C288.93 29 275.576 19.5108 269.906 6H229.094C223.424 19.5108 210.07 29 194.5 29C178.93 29 165.576 19.5108 159.906 6H119.094C113.424 19.5108 100.07 29 84.5 29C68.9298 29 55.576 19.5108 49.9062 6H10V46.3432C22.9767 52.2412 32 65.3169 32 80.5C32 95.6831 22.9767 108.759 10 114.657V156.343C22.9767 162.241 32 175.317 32 190.5C32 205.683 22.9767 218.759 10 224.657V266.343C22.9767 272.241 32 285.317 32 300.5C32 315.683 22.9767 328.759 10 334.657V376.343C22.9767 382.241 32 395.317 32 410.5C32 425.683 22.9767 438.759 10 444.657V483H46.7962C51.6513 467.915 65.801 457 82.5 457C99.1991 457 113.349 467.915 118.204 483H156.796C161.651 467.915 175.801 457 192.5 457C209.199 457 223.349 467.915 228.204 483H266.796C271.651 467.915 285.801 457 302.5 457C319.199 457 333.349 467.915 338.204 483H376.796C381.651 467.915 395.801 457 412.5 457C429.199 457 443.349 467.915 448.204 483H487V441.675C475.105 435.387 467 422.89 467 408.5C467 394.11 475.105 381.613 487 375.325V331.675C475.105 325.387 467 312.89 467 298.5C467 284.11 475.105 271.613 487 265.325V221.675C475.105 215.387 467 202.89 467 188.5C467 174.11 475.105 161.613 487 155.325V111.675C475.105 105.387 467 92.8902 467 78.5C467 64.1098 475.105 51.6127 487 45.3252V6H449.094C443.424 19.5108 430.07 29 414.5 29C398.93 29 385.576 19.5108 379.906 6Z" fill="#83D6F1"/>
</g>
<rect x="62" y="46" width="385" height="385" rx="10" fill="#92E4FF"/>
<path d="M132.248 322.864C129.836 322.864 127.622 322.324 125.606 321.244C123.59 320.164 121.97 318.598 120.746 316.546C119.558 314.494 118.964 312.01 118.964 309.094C118.964 307.042 119.306 305.116 119.99 303.316C120.674 301.516 121.628 299.932 122.852 298.564C124.112 297.196 125.588 296.116 127.28 295.324C129.008 294.532 130.916 294.136 133.004 294.136C135.308 294.136 137.216 294.496 138.728 295.216C140.276 295.9 141.428 296.818 142.184 297.97C142.976 299.086 143.372 300.274 143.372 301.534C143.372 302.578 143.048 303.514 142.4 304.342C141.788 305.134 140.906 305.548 139.754 305.584C138.386 305.62 137.432 305.242 136.892 304.45C136.352 303.622 136.082 302.83 136.082 302.074C136.082 301.75 136.136 301.372 136.244 300.94C136.352 300.472 136.514 300.058 136.73 299.698C136.478 299.158 136.1 298.762 135.596 298.51C135.092 298.258 134.57 298.096 134.03 298.024C133.526 297.916 133.112 297.88 132.788 297.916C131.06 298.024 129.638 298.888 128.522 300.508C127.406 302.128 126.848 304.468 126.848 307.528C126.848 309.328 127.064 311.02 127.496 312.604C127.964 314.152 128.72 315.43 129.764 316.438C130.808 317.446 132.212 317.986 133.976 318.058C135.488 318.094 136.964 317.734 138.404 316.978C139.844 316.222 141.068 315.196 142.076 313.9L144.56 316.33C143.264 318.13 141.914 319.498 140.51 320.434C139.106 321.37 137.702 322 136.298 322.324C134.93 322.684 133.58 322.864 132.248 322.864ZM166.083 322.864C163.491 322.864 161.151 322.306 159.063 321.19C156.975 320.074 155.319 318.49 154.095 316.438C152.907 314.35 152.313 311.902 152.313 309.094C152.313 306.106 152.925 303.496 154.149 301.264C155.409 298.996 157.065 297.25 159.117 296.026C161.205 294.766 163.473 294.136 165.921 294.136C168.513 294.136 170.835 294.694 172.887 295.81C174.939 296.926 176.559 298.528 177.747 300.616C178.935 302.668 179.529 305.134 179.529 308.014C179.529 311.038 178.953 313.666 177.801 315.898C176.649 318.13 175.065 319.858 173.049 321.082C171.033 322.27 168.711 322.864 166.083 322.864ZM166.299 319.03C167.739 318.994 168.819 318.49 169.539 317.518C170.295 316.546 170.817 315.322 171.105 313.846C171.393 312.37 171.537 310.876 171.537 309.364C171.537 308.032 171.429 306.682 171.213 305.314C171.033 303.946 170.727 302.704 170.295 301.588C169.863 300.472 169.269 299.572 168.513 298.888C167.793 298.204 166.893 297.88 165.813 297.916C164.409 297.952 163.293 298.456 162.465 299.428C161.673 300.4 161.097 301.624 160.737 303.1C160.413 304.54 160.251 306.052 160.251 307.636C160.251 309.472 160.449 311.272 160.845 313.036C161.241 314.8 161.871 316.258 162.735 317.41C163.635 318.526 164.823 319.066 166.299 319.03ZM188.839 322V318.49C189.847 318.49 190.567 318.292 190.999 317.896C191.431 317.5 191.701 316.942 191.809 316.222C191.953 315.466 192.025 314.62 192.025 313.684V304.612C192.025 303.964 192.043 303.244 192.079 302.452C192.115 301.624 192.169 300.814 192.241 300.022C191.665 300.058 190.981 300.094 190.189 300.13C189.433 300.13 188.857 300.148 188.461 300.184V296.08C190.117 296.08 191.521 295.99 192.673 295.81C193.825 295.63 194.725 295.414 195.373 295.162C196.057 294.91 196.525 294.676 196.777 294.46H199.423C199.495 294.82 199.531 295.27 199.531 295.81C199.567 296.35 199.603 296.8 199.639 297.16C200.863 296.224 202.177 295.486 203.581 294.946C205.021 294.406 206.371 294.136 207.631 294.136C209.287 294.136 210.655 294.442 211.735 295.054C212.815 295.63 213.679 296.512 214.327 297.7C215.623 296.62 217.045 295.756 218.593 295.108C220.177 294.46 221.689 294.136 223.129 294.136C226.045 294.136 228.241 294.982 229.717 296.674C231.229 298.33 231.985 301.228 231.985 305.368V313.306C231.985 313.81 231.967 314.53 231.931 315.466C231.895 316.366 231.841 317.23 231.769 318.058C232.345 317.986 232.975 317.95 233.659 317.95C234.379 317.914 234.919 317.896 235.279 317.896V322H221.617V318.49C222.445 318.49 223.039 318.292 223.399 317.896C223.795 317.5 224.047 316.942 224.155 316.222C224.263 315.466 224.317 314.62 224.317 313.684V305.422C224.281 303.082 223.885 301.462 223.129 300.562C222.409 299.662 221.437 299.194 220.213 299.158C219.277 299.122 218.395 299.284 217.567 299.644C216.775 300.004 216.055 300.436 215.407 300.94C215.587 301.66 215.713 302.452 215.785 303.316C215.857 304.18 215.893 305.098 215.893 306.07C215.893 307.294 215.893 308.5 215.893 309.688C215.893 310.876 215.893 312.082 215.893 313.306C215.893 313.81 215.875 314.53 215.839 315.466C215.803 316.366 215.749 317.23 215.677 318.058C216.253 317.986 216.883 317.95 217.567 317.95C218.251 317.914 218.791 317.896 219.187 317.896V322H205.255V318.49C206.191 318.49 206.857 318.292 207.253 317.896C207.685 317.5 207.955 316.942 208.063 316.222C208.171 315.466 208.225 314.62 208.225 313.684L208.171 305.26C208.171 302.92 207.829 301.318 207.145 300.454C206.461 299.59 205.507 299.14 204.283 299.104C203.383 299.104 202.537 299.302 201.745 299.698C200.989 300.094 200.305 300.562 199.693 301.102C199.693 301.57 199.693 302.02 199.693 302.452C199.693 302.884 199.693 303.334 199.693 303.802V313.306C199.693 313.81 199.675 314.53 199.639 315.466C199.603 316.366 199.549 317.23 199.477 318.058C200.053 317.986 200.647 317.95 201.259 317.95C201.871 317.914 202.357 317.896 202.717 317.896V322H188.839ZM243.164 335.77V332.26C244.172 332.26 244.892 332.062 245.324 331.666C245.792 331.27 246.08 330.694 246.188 329.938C246.332 329.218 246.404 328.39 246.404 327.454V304.612C246.404 303.964 246.422 303.244 246.458 302.452C246.494 301.624 246.548 300.814 246.62 300.022C246.044 300.058 245.36 300.094 244.568 300.13C243.776 300.13 243.182 300.148 242.786 300.184V296.08C244.478 296.08 245.882 295.99 246.998 295.81C248.15 295.63 249.05 295.414 249.698 295.162C250.382 294.91 250.85 294.676 251.102 294.46H253.748C253.82 294.82 253.874 295.27 253.91 295.81C253.946 296.314 253.982 296.728 254.018 297.052C255.278 295.972 256.52 295.216 257.744 294.784C259.004 294.352 260.192 294.136 261.308 294.136C263.468 294.136 265.358 294.694 266.978 295.81C268.634 296.926 269.912 298.51 270.812 300.562C271.748 302.614 272.216 305.026 272.216 307.798C272.216 310.678 271.658 313.27 270.542 315.574C269.426 317.842 267.86 319.624 265.844 320.92C263.864 322.216 261.524 322.864 258.824 322.864C257.852 322.864 256.97 322.756 256.178 322.54C255.422 322.36 254.702 322.144 254.018 321.892V327.076C254.018 327.58 254 328.282 253.964 329.182C253.964 330.118 253.928 331 253.856 331.828C254.432 331.756 255.062 331.702 255.746 331.666C256.43 331.666 256.952 331.666 257.312 331.666V335.77H243.164ZM257.96 318.814C259.616 318.778 260.894 318.292 261.794 317.356C262.73 316.384 263.378 315.124 263.738 313.576C264.098 312.028 264.278 310.372 264.278 308.608C264.278 306.952 264.08 305.386 263.684 303.91C263.288 302.434 262.658 301.246 261.794 300.346C260.93 299.41 259.796 298.96 258.392 298.996C257.492 299.032 256.664 299.266 255.908 299.698C255.152 300.094 254.522 300.652 254.018 301.372C254.018 302.488 254.018 303.604 254.018 304.72C254.018 305.8 254.018 306.88 254.018 307.96C254.018 309.04 254.018 310.138 254.018 311.254C254.018 312.334 254.018 313.432 254.018 314.548C254.018 315.628 254.018 316.726 254.018 317.842C254.414 318.094 254.972 318.328 255.692 318.544C256.412 318.76 257.168 318.85 257.96 318.814ZM292.714 322.864C290.554 322.864 288.808 322.45 287.476 321.622C286.18 320.794 285.226 319.498 284.614 317.734C284.038 315.97 283.75 313.702 283.75 310.93V304.72C283.75 304.072 283.768 303.334 283.804 302.506C283.84 301.642 283.876 300.814 283.912 300.022C283.336 300.058 282.652 300.094 281.86 300.13C281.104 300.13 280.528 300.148 280.132 300.184V296.08H280.672C282.904 296.08 284.668 295.9 285.964 295.54C287.26 295.18 288.088 294.82 288.448 294.46H291.418V310.984C291.418 313.324 291.724 315.07 292.336 316.222C292.948 317.338 293.92 317.896 295.252 317.896C296.188 317.896 297.124 317.644 298.06 317.14C299.032 316.6 299.824 315.988 300.436 315.304V304.72C300.436 304.072 300.454 303.334 300.49 302.506C300.526 301.642 300.58 300.814 300.652 300.022C300.076 300.058 299.392 300.094 298.6 300.13C297.844 300.13 297.268 300.148 296.872 300.184V296.08H298.168C299.86 296.08 301.354 295.9 302.65 295.54C303.946 295.144 304.774 294.784 305.134 294.46H308.104V313.306C308.104 313.81 308.086 314.53 308.05 315.466C308.014 316.366 307.96 317.23 307.888 318.058C308.464 317.986 309.094 317.95 309.778 317.95C310.498 317.914 311.038 317.896 311.398 317.896V322H301.138C301.102 321.532 301.048 321.064 300.976 320.596C300.94 320.128 300.886 319.66 300.814 319.192C299.698 320.128 298.492 320.974 297.196 321.73C295.936 322.486 294.442 322.864 292.714 322.864ZM330.797 322.864C329.717 322.864 328.673 322.738 327.665 322.486C326.693 322.234 325.793 321.766 324.965 321.082C324.173 320.362 323.543 319.318 323.075 317.95C322.607 316.582 322.373 314.764 322.373 312.496L322.481 299.482H318.809V295C319.925 294.964 321.005 294.586 322.049 293.866C323.093 293.146 323.975 292.21 324.695 291.058C325.451 289.906 325.955 288.7 326.207 287.44H330.203L330.149 295H337.007V299.158L330.149 299.32L330.095 312.604C330.095 313.432 330.167 314.26 330.311 315.088C330.491 315.88 330.815 316.546 331.283 317.086C331.751 317.59 332.435 317.842 333.335 317.842C333.839 317.842 334.523 317.662 335.387 317.302C336.287 316.942 337.241 316.042 338.249 314.602L340.841 317.032C339.869 318.472 338.861 319.588 337.817 320.38C336.773 321.172 335.765 321.748 334.793 322.108C333.857 322.468 333.029 322.684 332.309 322.756C331.589 322.828 331.085 322.864 330.797 322.864ZM360.61 322.864C357.982 322.864 355.66 322.288 353.644 321.136C351.628 319.948 350.062 318.292 348.946 316.168C347.83 314.008 347.272 311.47 347.272 308.554C347.272 306.034 347.83 303.676 348.946 301.48C350.062 299.284 351.628 297.52 353.644 296.188C355.696 294.82 358.072 294.136 360.772 294.136C362.284 294.136 363.76 294.352 365.2 294.784C366.64 295.18 367.936 295.882 369.088 296.89C370.276 297.898 371.212 299.266 371.896 300.994C372.616 302.722 372.958 304.882 372.922 307.474L355.21 307.798C355.21 309.742 355.444 311.488 355.912 313.036C356.416 314.584 357.226 315.808 358.342 316.708C359.458 317.608 360.952 318.058 362.824 318.058C363.544 318.058 364.354 317.932 365.254 317.68C366.19 317.428 367.126 317.014 368.062 316.438C369.034 315.826 369.934 315.016 370.762 314.008L373.192 316.276C371.896 318.112 370.51 319.516 369.034 320.488C367.558 321.424 366.082 322.054 364.606 322.378C363.166 322.702 361.834 322.864 360.61 322.864ZM355.534 304.018H365.47C365.434 302.506 365.218 301.318 364.822 300.454C364.462 299.554 363.958 298.906 363.31 298.51C362.662 298.114 361.906 297.916 361.042 297.916C359.458 297.916 358.216 298.492 357.316 299.644C356.416 300.76 355.822 302.218 355.534 304.018ZM382.269 318.49C383.277 318.49 383.997 318.292 384.429 317.896C384.861 317.5 385.131 316.942 385.239 316.222C385.383 315.466 385.455 314.62 385.455 313.684V304.612C385.455 303.964 385.473 303.244 385.509 302.452C385.545 301.624 385.599 300.814 385.671 300.022C385.095 300.058 384.411 300.094 383.619 300.13C382.863 300.13 382.287 300.148 381.891 300.184V296.08H384.051C385.455 296.08 386.733 295.9 387.885 295.54C389.073 295.18 389.847 294.82 390.207 294.46H392.853C392.925 294.82 392.979 295.504 393.015 296.512C393.051 297.484 393.069 298.348 393.069 299.104C394.041 297.916 394.959 296.962 395.823 296.242C396.687 295.522 397.533 295 398.361 294.676C399.225 294.316 400.089 294.136 400.953 294.136C402.213 294.136 403.311 294.496 404.247 295.216C405.183 295.9 405.651 297.034 405.651 298.618C405.651 299.158 405.525 299.734 405.273 300.346C405.021 300.922 404.625 301.408 404.085 301.804C403.545 302.2 402.807 302.398 401.871 302.398C401.151 302.398 400.413 302.182 399.657 301.75C398.901 301.318 398.469 300.49 398.361 299.266C397.641 299.266 396.921 299.572 396.201 300.184C395.481 300.76 394.833 301.462 394.257 302.29C393.717 303.082 393.339 303.82 393.123 304.504V313.306C393.123 313.81 393.105 314.53 393.069 315.466C393.033 316.366 392.979 317.23 392.907 318.058C393.483 317.986 394.113 317.95 394.797 317.95C395.517 317.914 396.057 317.896 396.417 317.896V322H382.269V318.49ZM196.017 382.864C194.469 382.864 192.957 382.666 191.481 382.27C190.005 381.874 188.853 381.37 188.025 380.758L188.133 382.378H184.029L183.813 373.09H187.323C187.431 374.17 187.863 375.16 188.619 376.06C189.375 376.96 190.365 377.68 191.589 378.22C192.813 378.724 194.181 378.976 195.693 378.976C196.305 378.976 196.881 378.886 197.421 378.706C197.997 378.526 198.465 378.238 198.825 377.842C199.221 377.41 199.419 376.888 199.419 376.276C199.419 375.592 199.167 375.034 198.663 374.602C198.195 374.17 197.493 373.756 196.557 373.36C195.657 372.964 194.523 372.514 193.155 372.01C192.039 371.578 190.905 371.128 189.753 370.66C188.637 370.192 187.593 369.634 186.621 368.986C185.685 368.302 184.929 367.474 184.353 366.502C183.777 365.494 183.489 364.27 183.489 362.83C183.489 361.786 183.687 360.76 184.083 359.752C184.479 358.708 185.091 357.772 185.919 356.944C186.747 356.08 187.791 355.396 189.051 354.892C190.347 354.388 191.877 354.136 193.641 354.136C194.613 354.136 195.711 354.298 196.935 354.622C198.195 354.91 199.257 355.36 200.121 355.972V354.406H204.225V363.964H200.715C200.499 362.704 200.049 361.624 199.365 360.724C198.717 359.824 197.871 359.14 196.827 358.672C195.783 358.168 194.613 357.916 193.317 357.916C192.417 357.916 191.589 358.132 190.833 358.564C190.113 358.996 189.753 359.734 189.753 360.778C189.753 361.606 190.041 362.272 190.617 362.776C191.193 363.244 191.985 363.64 192.993 363.964C194.001 364.288 195.117 364.666 196.341 365.098C198.177 365.71 199.797 366.43 201.201 367.258C202.641 368.086 203.775 369.094 204.603 370.282C205.431 371.434 205.845 372.856 205.845 374.548C205.845 376.42 205.377 377.968 204.441 379.192C203.505 380.416 202.281 381.334 200.769 381.946C199.293 382.558 197.709 382.864 196.017 382.864ZM227.95 382.864C225.538 382.864 223.324 382.324 221.308 381.244C219.292 380.164 217.672 378.598 216.448 376.546C215.26 374.494 214.666 372.01 214.666 369.094C214.666 367.042 215.008 365.116 215.692 363.316C216.376 361.516 217.33 359.932 218.554 358.564C219.814 357.196 221.29 356.116 222.982 355.324C224.71 354.532 226.618 354.136 228.706 354.136C231.01 354.136 232.918 354.496 234.43 355.216C235.978 355.9 237.13 356.818 237.886 357.97C238.678 359.086 239.074 360.274 239.074 361.534C239.074 362.578 238.75 363.514 238.102 364.342C237.49 365.134 236.608 365.548 235.456 365.584C234.088 365.62 233.134 365.242 232.594 364.45C232.054 363.622 231.784 362.83 231.784 362.074C231.784 361.75 231.838 361.372 231.946 360.94C232.054 360.472 232.216 360.058 232.432 359.698C232.18 359.158 231.802 358.762 231.298 358.51C230.794 358.258 230.272 358.096 229.732 358.024C229.228 357.916 228.814 357.88 228.49 357.916C226.762 358.024 225.34 358.888 224.224 360.508C223.108 362.128 222.55 364.468 222.55 367.528C222.55 369.328 222.766 371.02 223.198 372.604C223.666 374.152 224.422 375.43 225.466 376.438C226.51 377.446 227.914 377.986 229.678 378.058C231.19 378.094 232.666 377.734 234.106 376.978C235.546 376.222 236.77 375.196 237.778 373.9L240.262 376.33C238.966 378.13 237.616 379.498 236.212 380.434C234.808 381.37 233.404 382 232 382.324C230.632 382.684 229.282 382.864 227.95 382.864ZM248.555 378.49C249.563 378.49 250.283 378.292 250.715 377.896C251.147 377.5 251.417 376.942 251.525 376.222C251.669 375.466 251.741 374.62 251.741 373.684V364.72C251.741 364.072 251.759 363.334 251.795 362.506C251.831 361.642 251.885 360.814 251.957 360.022C251.381 360.058 250.697 360.094 249.905 360.13C249.149 360.13 248.573 360.148 248.177 360.184V356.08C249.833 356.08 251.237 355.99 252.389 355.81C253.541 355.63 254.441 355.414 255.089 355.162C255.773 354.91 256.241 354.676 256.493 354.46H259.409V373.306C259.409 373.81 259.391 374.53 259.355 375.466C259.319 376.366 259.265 377.23 259.193 378.058C259.769 377.986 260.399 377.95 261.083 377.95C261.803 377.914 262.343 377.896 262.703 377.896V382H248.555V378.49ZM255.305 350.194C254.081 350.194 253.073 349.762 252.281 348.898C251.489 348.034 251.093 346.99 251.093 345.766C251.093 344.542 251.507 343.498 252.335 342.634C253.163 341.77 254.135 341.338 255.251 341.338C256.403 341.338 257.357 341.77 258.113 342.634C258.905 343.498 259.301 344.542 259.301 345.766C259.301 346.99 258.941 348.034 258.221 348.898C257.501 349.762 256.529 350.194 255.305 350.194ZM284.419 382.864C281.791 382.864 279.469 382.288 277.453 381.136C275.437 379.948 273.871 378.292 272.755 376.168C271.639 374.008 271.081 371.47 271.081 368.554C271.081 366.034 271.639 363.676 272.755 361.48C273.871 359.284 275.437 357.52 277.453 356.188C279.505 354.82 281.881 354.136 284.581 354.136C286.093 354.136 287.569 354.352 289.009 354.784C290.449 355.18 291.745 355.882 292.897 356.89C294.085 357.898 295.021 359.266 295.705 360.994C296.425 362.722 296.767 364.882 296.731 367.474L279.019 367.798C279.019 369.742 279.253 371.488 279.721 373.036C280.225 374.584 281.035 375.808 282.151 376.708C283.267 377.608 284.761 378.058 286.633 378.058C287.353 378.058 288.163 377.932 289.063 377.68C289.999 377.428 290.935 377.014 291.871 376.438C292.843 375.826 293.743 375.016 294.571 374.008L297.001 376.276C295.705 378.112 294.319 379.516 292.843 380.488C291.367 381.424 289.891 382.054 288.415 382.378C286.975 382.702 285.643 382.864 284.419 382.864ZM279.343 364.018H289.279C289.243 362.506 289.027 361.318 288.631 360.454C288.271 359.554 287.767 358.906 287.119 358.51C286.471 358.114 285.715 357.916 284.851 357.916C283.267 357.916 282.025 358.492 281.125 359.644C280.225 360.76 279.631 362.218 279.343 364.018ZM306.078 382V378.49C307.086 378.49 307.806 378.292 308.238 377.896C308.67 377.5 308.94 376.942 309.048 376.222C309.192 375.466 309.264 374.62 309.264 373.684V364.612C309.264 363.964 309.282 363.244 309.318 362.452C309.354 361.624 309.408 360.814 309.48 360.022C308.904 360.058 308.22 360.094 307.428 360.13C306.672 360.13 306.096 360.148 305.7 360.184V356.08C307.356 356.08 308.76 355.99 309.912 355.81C311.064 355.63 311.964 355.414 312.612 355.162C313.296 354.91 313.764 354.676 314.016 354.46H316.662C316.734 354.928 316.77 355.27 316.77 355.486C316.77 355.702 316.77 355.918 316.77 356.134C316.806 356.314 316.878 356.656 316.986 357.16C317.706 356.584 318.534 356.08 319.47 355.648C320.406 355.18 321.342 354.82 322.278 354.568C323.214 354.28 324.042 354.136 324.762 354.136C328.074 354.136 330.414 355.09 331.782 356.998C333.186 358.87 333.888 361.894 333.888 366.07V373.306C333.888 373.81 333.87 374.53 333.834 375.466C333.798 376.366 333.744 377.23 333.672 378.058C334.284 377.986 334.932 377.95 335.616 377.95C336.3 377.914 336.822 377.896 337.182 377.896V382H323.034V378.49C324.042 378.49 324.762 378.292 325.194 377.896C325.662 377.5 325.95 376.942 326.058 376.222C326.202 375.466 326.274 374.62 326.274 373.684L326.22 366.016C326.22 363.676 325.878 361.948 325.194 360.832C324.546 359.68 323.43 359.104 321.846 359.104C320.946 359.104 320.046 359.302 319.146 359.698C318.282 360.094 317.544 360.562 316.932 361.102C316.932 361.606 316.932 362.128 316.932 362.668C316.932 363.172 316.932 363.676 316.932 364.18V373.306C316.932 373.81 316.914 374.53 316.878 375.466C316.842 376.366 316.788 377.23 316.716 378.058C317.292 377.986 317.922 377.95 318.606 377.95C319.326 377.914 319.866 377.896 320.226 377.896V382H306.078ZM358.552 382.864C356.14 382.864 353.926 382.324 351.91 381.244C349.894 380.164 348.274 378.598 347.05 376.546C345.862 374.494 345.268 372.01 345.268 369.094C345.268 367.042 345.61 365.116 346.294 363.316C346.978 361.516 347.932 359.932 349.156 358.564C350.416 357.196 351.892 356.116 353.584 355.324C355.312 354.532 357.22 354.136 359.308 354.136C361.612 354.136 363.52 354.496 365.032 355.216C366.58 355.9 367.732 356.818 368.488 357.97C369.28 359.086 369.676 360.274 369.676 361.534C369.676 362.578 369.352 363.514 368.704 364.342C368.092 365.134 367.21 365.548 366.058 365.584C364.69 365.62 363.736 365.242 363.196 364.45C362.656 363.622 362.386 362.83 362.386 362.074C362.386 361.75 362.44 361.372 362.548 360.94C362.656 360.472 362.818 360.058 363.034 359.698C362.782 359.158 362.404 358.762 361.9 358.51C361.396 358.258 360.874 358.096 360.334 358.024C359.83 357.916 359.416 357.88 359.092 357.916C357.364 358.024 355.942 358.888 354.826 360.508C353.71 362.128 353.152 364.468 353.152 367.528C353.152 369.328 353.368 371.02 353.8 372.604C354.268 374.152 355.024 375.43 356.068 376.438C357.112 377.446 358.516 377.986 360.28 378.058C361.792 378.094 363.268 377.734 364.708 376.978C366.148 376.222 367.372 375.196 368.38 373.9L370.864 376.33C369.568 378.13 368.218 379.498 366.814 380.434C365.41 381.37 364.006 382 362.602 382.324C361.234 382.684 359.884 382.864 358.552 382.864ZM391.955 382.864C389.327 382.864 387.005 382.288 384.989 381.136C382.973 379.948 381.407 378.292 380.291 376.168C379.175 374.008 378.617 371.47 378.617 368.554C378.617 366.034 379.175 363.676 380.291 361.48C381.407 359.284 382.973 357.52 384.989 356.188C387.041 354.82 389.417 354.136 392.117 354.136C393.629 354.136 395.105 354.352 396.545 354.784C397.985 355.18 399.281 355.882 400.433 356.89C401.621 357.898 402.557 359.266 403.241 360.994C403.961 362.722 404.303 364.882 404.267 367.474L386.555 367.798C386.555 369.742 386.789 371.488 387.257 373.036C387.761 374.584 388.571 375.808 389.687 376.708C390.803 377.608 392.297 378.058 394.169 378.058C394.889 378.058 395.699 377.932 396.599 377.68C397.535 377.428 398.471 377.014 399.407 376.438C400.379 375.826 401.279 375.016 402.107 374.008L404.537 376.276C403.241 378.112 401.855 379.516 400.379 380.488C398.903 381.424 397.427 382.054 395.951 382.378C394.511 382.702 393.179 382.864 391.955 382.864ZM386.879 364.018H396.815C396.779 362.506 396.563 361.318 396.167 360.454C395.807 359.554 395.303 358.906 394.655 358.51C394.007 358.114 393.251 357.916 392.387 357.916C390.803 357.916 389.561 358.492 388.661 359.644C387.761 360.76 387.167 362.218 386.879 364.018Z" fill="#22687E"/>
<path d="M231.72 196.784L174.12 171.696V160.304L231.72 134.704V147.504L190.632 165.68L231.72 183.856V196.784ZM250.059 240.688L240.075 234.16L311.499 109.36L323.147 116.784L250.059 240.688ZM331.495 134.704L389.095 159.792V171.184L331.495 196.784V183.984L372.583 165.808L331.495 147.632V134.704Z" fill="#42A3C1"/>
<defs>
<filter id="filter0_d_486_5760" x="0" y="0" width="497" height="497" filterUnits="userSpaceOnUse" color-interpolation-filters="sRGB">
<feFlood flood-opacity="0" result="BackgroundImageFix"/>
<feColorMatrix in="SourceAlpha" type="matrix" values="0 0 0 0 0 0 0 0 0 0 0 0 0 0 0 0 0 0 127 0" result="hardAlpha"/>
<feOffset dy="4"/>
<feGaussianBlur stdDeviation="5"/>
<feComposite in2="hardAlpha" operator="out"/>
<feColorMatrix type="matrix" values="0 0 0 0 0 0 0 0 0 0 0 0 0 0 0 0 0 0 0.1 0"/>
<feBlend mode="normal" in2="BackgroundImageFix" result="effect1_dropShadow_486_5760"/>
<feBlend mode="normal" in="SourceGraphic" in2="effect1_dropShadow_486_5760" result="shape"/>
</filter>
</defs>
</svg>
