<svg width="528" height="379" viewBox="0 0 528 379" fill="none" xmlns="http://www.w3.org/2000/svg">
<g filter="url(#filter0_d_979_7474)">
<mask id="mask0_979_7474" style="mask-type:alpha" maskUnits="userSpaceOnUse" x="6" y="6" width="509" height="360">
<ellipse cx="260.25" cy="186" rx="180" ry="254.25" transform="rotate(90 260.25 186)" fill="#0A4153"/>
</mask>
<g mask="url(#mask0_979_7474)">
<ellipse cx="260.25" cy="186" rx="180" ry="254.25" transform="rotate(90 260.25 186)" fill="#0A4153"/>
<path d="M496.94 186C496.94 230.335 470.853 270.805 427.999 300.322C385.158 329.831 325.805 348.18 260.099 348.18C194.392 348.18 135.039 329.831 92.1982 300.322C49.3439 270.805 23.2569 230.335 23.2568 186C23.2568 141.666 49.3439 101.195 92.1982 71.6779C135.04 42.1696 194.392 23.8195 260.099 23.8195C325.805 23.8195 385.158 42.1696 427.999 71.6779C470.853 101.195 496.94 141.666 496.94 186Z" stroke="#83D6F1" stroke-width="6.12"/>
<path d="M180.584 72.1016L175.99 57.4762L184.404 54.8329L184.92 56.4758L178.289 58.5589L179.711 63.0868L185.641 61.2239L186.151 62.8467L180.221 64.7096L181.851 69.8986L188.482 67.8154L188.999 69.4583L180.584 72.1016ZM202.872 65.8724C201.889 66.094 201.005 66.1209 200.221 65.9532C199.451 65.7824 198.805 65.4328 198.284 64.9043C197.763 64.3759 197.4 63.6899 197.196 62.8462L199.04 62.4307C199.209 63.1819 199.596 63.719 200.199 64.0422C200.817 64.3623 201.583 64.4192 202.498 64.213C203.359 64.0191 203.98 63.6566 204.363 63.1255C204.759 62.5913 204.872 61.9486 204.703 61.1975C204.568 60.5965 204.285 60.1077 203.856 59.7308C203.44 59.3509 202.912 59.1399 202.271 59.0978L200.1 58.9198C199.005 58.8365 198.094 58.4892 197.368 57.8778C196.655 57.2635 196.187 56.4578 195.962 55.4608C195.781 54.655 195.801 53.9184 196.024 53.2511C196.257 52.5671 196.665 51.9873 197.246 51.5118C197.825 51.0226 198.558 50.678 199.446 50.478C200.757 50.1825 201.892 50.3143 202.85 50.8733C203.805 51.4186 204.427 52.2975 204.714 53.5099L202.871 53.9254C202.704 53.1879 202.35 52.6651 201.807 52.3569C201.274 52.032 200.605 51.9604 199.799 52.142C199.007 52.3205 198.429 52.6517 198.064 53.1357C197.714 53.6166 197.615 54.1985 197.769 54.8814C197.908 55.496 198.191 55.9917 198.621 56.3685C199.05 56.7453 199.594 56.9601 200.251 57.0128L202.448 57.2067C203.515 57.2961 204.407 57.6549 205.123 58.2829C205.838 58.911 206.31 59.7303 206.538 60.741C206.722 61.5604 206.693 62.3206 206.449 63.0213C206.205 63.7221 205.773 64.3217 205.154 64.8201C204.548 65.3154 203.787 65.6662 202.872 65.8724ZM220.323 62.1581L218.387 48.6674L214.229 49.2641L213.985 47.5596L224.17 46.0975L224.415 47.8021L220.258 48.3988L222.194 61.8895L220.323 62.1581ZM240.018 60.0234C239.487 60.059 239.05 59.9339 238.709 59.6481C238.381 59.3614 238.199 58.9597 238.165 58.4428C238.128 57.8981 238.253 57.4547 238.539 57.1128C238.838 56.77 239.254 56.5808 239.784 56.5452C240.315 56.5096 240.745 56.6421 241.074 56.9428C241.417 57.2425 241.606 57.6648 241.643 58.2096C241.678 58.7264 241.545 59.1492 241.244 59.4781C240.957 59.806 240.548 59.9878 240.018 60.0234ZM273.375 59.257L273.531 57.3313L278.6 52.7488C279.465 51.962 280.105 51.2554 280.521 50.629C280.938 49.9886 281.171 49.3614 281.221 48.7474C281.29 47.8962 281.107 47.2072 280.672 46.6803C280.251 46.1546 279.636 45.859 278.827 45.7934C277.934 45.721 277.209 45.9151 276.652 46.3756C276.109 46.8373 275.801 47.5076 275.73 48.3868L273.846 48.2341C273.949 47.3154 274.223 46.537 274.668 45.8988C275.128 45.2478 275.721 44.7692 276.449 44.4629C277.19 44.1578 278.028 44.0431 278.963 44.1189C279.883 44.1935 280.664 44.4393 281.305 44.8564C281.96 45.2607 282.443 45.8054 282.752 46.4907C283.062 47.1759 283.18 47.9721 283.107 48.8791C283.036 49.7443 282.737 50.5838 282.207 51.3977C281.678 52.2116 280.846 53.1204 279.711 54.124L275.628 57.7119L282.598 58.2767L282.459 59.9931L273.375 59.257ZM296.464 61.8183C295.537 61.6717 294.757 61.3639 294.122 60.895C293.504 60.4145 293.061 59.8128 292.792 59.09C292.526 58.3533 292.464 57.5356 292.606 56.6368L293.656 49.9993C293.801 49.0867 294.112 48.328 294.591 47.7233C295.069 47.1187 295.675 46.6902 296.41 46.4378C297.16 46.1739 297.999 46.1152 298.925 46.2617C299.865 46.4105 300.645 46.7252 301.263 47.2057C301.884 47.6724 302.329 48.2672 302.597 48.99C302.865 49.7128 302.927 50.5306 302.783 51.4432L301.733 58.0807C301.591 58.9795 301.279 59.7382 300.799 60.3567C300.32 60.9613 299.706 61.3957 298.955 61.6596C298.221 61.912 297.39 61.9648 296.464 61.8183ZM296.717 60.2211C297.546 60.3524 298.252 60.1947 298.833 59.748C299.43 59.2896 299.795 58.6387 299.928 57.7952L300.978 51.1577C301.112 50.3142 300.964 49.5893 300.536 48.9828C300.123 48.3648 299.502 47.9901 298.672 47.8589C297.843 47.7276 297.129 47.8912 296.533 48.3495C295.952 48.7962 295.594 49.4413 295.461 50.2848L294.411 56.9223C294.277 57.7658 294.417 58.4966 294.829 59.1146C295.258 59.721 295.887 60.0899 296.717 60.2211ZM297.501 55.2638C297.128 55.2047 296.842 55.039 296.644 54.7668C296.46 54.4967 296.399 54.1681 296.46 53.7809C296.519 53.4075 296.677 53.1277 296.933 52.9415C297.205 52.7436 297.528 52.6742 297.901 52.7333C298.275 52.7923 298.553 52.9569 298.737 53.227C298.937 53.4854 299.008 53.8013 298.949 54.1747C298.888 54.5619 298.721 54.8544 298.449 55.0523C298.19 55.2523 297.874 55.3228 297.501 55.2638ZM310.766 64.0212L311.17 62.3473L315.212 63.323L318.036 51.626L313.265 53.6715L313.757 51.6302L317.732 49.9324L320.243 50.5385L317.049 63.7665L320.356 64.5649L319.952 66.2388L310.766 64.0212ZM333.192 70.0945C332.004 69.7193 331.126 69.1044 330.559 68.25C329.992 67.3956 329.807 66.4266 330.002 65.3432L331.804 65.9123C331.69 66.5075 331.795 67.0327 332.121 67.488C332.452 67.93 332.984 68.2669 333.718 68.4988C334.559 68.7644 335.258 68.7356 335.815 68.4124C336.386 68.0935 336.802 67.5201 337.063 66.6924L337.512 65.2706C337.774 64.4429 337.763 63.7347 337.479 63.1458C337.208 62.5612 336.659 62.1382 335.831 61.8768C335.311 61.7124 334.813 61.7092 334.337 61.8673C333.865 62.012 333.471 62.284 333.154 62.683L331.352 62.1139L334.007 54.0554L341.697 56.4839L341.178 58.1259L335.231 56.2476L333.634 61.0947L334.195 61.2718L333.47 61.6154C333.668 60.9879 334.071 60.572 334.678 60.3675C335.3 60.1673 336.031 60.2 336.872 60.4656C338.064 60.8275 338.869 61.4855 339.287 62.4397C339.723 63.3848 339.732 64.5181 339.315 65.8398L338.866 67.2616C338.457 68.5565 337.752 69.4643 336.75 69.985C335.753 70.4922 334.567 70.5288 333.192 70.0945Z" fill="#83D6F1"/>
<path d="M339.721 142.889C336.617 144.936 333.248 146.984 329.616 149.031C326.049 151.013 322.45 152.895 318.817 154.678C315.184 156.462 311.816 158.08 308.712 159.533C305.607 160.92 302.965 162.01 300.786 162.802C298.606 163.595 297.186 163.991 296.526 163.991C295.139 163.991 293.917 163.562 292.86 162.703C291.803 161.845 291.275 160.788 291.275 159.533C291.275 158.476 292.332 157.155 294.445 155.57C296.625 153.985 299.465 152.202 302.965 150.22C306.466 148.239 310.33 146.125 314.557 143.88C318.85 141.634 323.11 139.322 327.337 136.945C323.837 134.699 320.369 132.585 316.935 130.604C313.566 128.623 310.462 126.839 307.622 125.254C304.848 123.603 302.635 122.183 300.984 120.994C299.333 119.739 298.507 118.748 298.507 118.022C298.507 116.503 298.969 115.248 299.894 114.257C300.819 113.266 302.239 112.771 304.154 112.771C304.683 112.771 305.838 113.134 307.622 113.861C309.405 114.587 311.585 115.578 314.161 116.833C316.736 118.088 319.51 119.541 322.483 121.192C325.521 122.777 328.526 124.461 331.498 126.245C334.536 128.028 337.343 129.811 339.919 131.595C341.24 132.519 342.132 133.477 342.594 134.468C343.123 135.392 343.387 136.284 343.387 137.143C343.387 138.133 343.09 139.124 342.495 140.115C341.967 141.04 341.042 141.964 339.721 142.889Z" fill="#42CAF5"/>
<path d="M234.836 196.586C233.383 196.586 232.26 195.925 231.468 194.604C230.675 193.35 230.279 191.93 230.279 190.344C230.279 189.354 230.807 187.471 231.864 184.697C232.921 181.989 234.341 178.654 236.124 174.691C237.973 170.662 240.087 166.27 242.465 161.514C244.842 156.693 247.385 151.706 250.093 146.555C252.801 141.337 255.509 136.152 258.217 131C260.991 125.849 263.666 120.961 266.242 116.338C268.818 111.714 271.196 107.586 273.375 103.954C274.234 102.633 275.257 101.477 276.446 100.486C277.701 99.4954 279.088 99 280.607 99C282.126 99 283.348 99.6275 284.273 100.882C285.264 102.071 285.759 103.491 285.759 105.142C285.759 105.737 285.132 107.388 283.877 110.096C282.622 112.738 280.905 116.206 278.725 120.499C276.545 124.726 274.003 129.58 271.096 135.062C268.256 140.544 265.185 146.422 261.883 152.697C258.646 158.906 255.311 165.279 251.877 171.818C248.508 178.357 245.206 184.862 241.969 191.335C241.309 192.788 240.351 194.01 239.096 195.001C237.841 196.058 236.421 196.586 234.836 196.586Z" fill="#42CAF5"/>
<path d="M228.333 117.427C228.333 118.286 227.276 119.409 225.162 120.796C223.115 122.183 220.341 123.768 216.84 125.551C213.34 127.335 209.476 129.25 205.249 131.297C201.088 133.345 196.894 135.458 192.667 137.638C196.233 140.148 199.8 142.493 203.366 144.672C206.933 146.852 210.169 148.833 213.075 150.617C216.048 152.4 218.392 153.985 220.11 155.372C221.893 156.693 222.785 157.783 222.785 158.641C222.785 159.896 222.322 161.118 221.397 162.307C220.473 163.43 218.987 163.991 216.939 163.991C216.345 163.991 215.123 163.595 213.274 162.802C211.424 161.944 209.179 160.821 206.537 159.434C203.895 157.981 201.022 156.363 197.917 154.579C194.879 152.796 191.808 150.914 188.704 148.932C185.666 146.885 182.825 144.87 180.184 142.889C178.995 142.03 178.169 141.172 177.707 140.313C177.31 139.388 177.112 138.53 177.112 137.737C177.112 136.614 177.41 135.558 178.004 134.567C178.664 133.51 179.754 132.552 181.273 131.694C184.312 129.844 187.548 128.028 190.982 126.245C194.483 124.395 197.95 122.678 201.385 121.093C204.885 119.442 208.155 118.022 211.193 116.833C214.231 115.578 216.807 114.587 218.921 113.861C221.1 113.134 222.586 112.771 223.379 112.771C225.228 112.771 226.516 113.167 227.243 113.96C227.969 114.686 228.333 115.842 228.333 117.427Z" fill="#42CAF5"/>
<path d="M172.284 251.006C170.38 251.006 168.714 250.656 167.286 249.956C165.886 249.228 164.794 248.192 164.01 246.848C163.254 245.476 162.876 243.88 162.876 242.06V228.452C162.876 226.604 163.254 225.008 164.01 223.664C164.794 222.32 165.886 221.298 167.286 220.598C168.714 219.87 170.38 219.506 172.284 219.506C174.188 219.506 175.84 219.87 177.24 220.598C178.64 221.326 179.718 222.362 180.474 223.706C181.258 225.022 181.65 226.604 181.65 228.452H177.114C177.114 226.856 176.694 225.638 175.854 224.798C175.014 223.958 173.824 223.538 172.284 223.538C170.744 223.538 169.54 223.958 168.672 224.798C167.832 225.638 167.412 226.842 167.412 228.41V242.06C167.412 243.628 167.832 244.846 168.672 245.714C169.54 246.554 170.744 246.974 172.284 246.974C173.824 246.974 175.014 246.554 175.854 245.714C176.694 244.846 177.114 243.628 177.114 242.06H181.65C181.65 243.88 181.258 245.462 180.474 246.806C179.718 248.15 178.64 249.186 177.24 249.914C175.84 250.642 174.188 251.006 172.284 251.006ZM197.299 251.006C195.395 251.006 193.743 250.656 192.343 249.956C190.971 249.228 189.907 248.192 189.151 246.848C188.423 245.476 188.059 243.88 188.059 242.06V228.452C188.059 226.604 188.423 225.008 189.151 223.664C189.907 222.32 190.971 221.298 192.343 220.598C193.743 219.87 195.395 219.506 197.299 219.506C199.203 219.506 200.841 219.87 202.213 220.598C203.613 221.298 204.677 222.32 205.405 223.664C206.161 225.008 206.539 226.59 206.539 228.41V242.06C206.539 243.88 206.161 245.476 205.405 246.848C204.677 248.192 203.613 249.228 202.213 249.956C200.841 250.656 199.203 251.006 197.299 251.006ZM197.299 246.974C198.839 246.974 200.001 246.554 200.785 245.714C201.597 244.846 202.003 243.628 202.003 242.06V228.452C202.003 226.856 201.597 225.638 200.785 224.798C200.001 223.958 198.839 223.538 197.299 223.538C195.787 223.538 194.625 223.958 193.813 224.798C193.001 225.638 192.595 226.856 192.595 228.452V242.06C192.595 243.628 193.001 244.846 193.813 245.714C194.625 246.554 195.787 246.974 197.299 246.974ZM212.655 250.586V219.926H218.241L221.307 229.754C221.615 230.678 221.881 231.574 222.105 232.442C222.329 233.282 222.483 233.912 222.567 234.332C222.679 233.912 222.833 233.282 223.029 232.442C223.253 231.574 223.505 230.678 223.785 229.754L226.725 219.926H232.311V250.586H228.027V240.254C228.027 238.938 228.055 237.482 228.111 235.886C228.195 234.262 228.307 232.638 228.447 231.014C228.587 229.362 228.727 227.794 228.867 226.31C229.007 224.798 229.133 223.482 229.245 222.362L224.709 237.272H220.341L215.721 222.362C215.861 223.454 216.001 224.728 216.141 226.184C216.281 227.612 216.407 229.138 216.519 230.762C216.631 232.386 216.729 234.024 216.813 235.676C216.897 237.3 216.939 238.826 216.939 240.254V250.586H212.655ZM238.594 250.586V219.926H248.632C250.62 219.926 252.342 220.304 253.798 221.06C255.282 221.816 256.416 222.894 257.2 224.294C258.012 225.666 258.418 227.29 258.418 229.166C258.418 231.014 258.012 232.638 257.2 234.038C256.388 235.438 255.254 236.516 253.798 237.272C252.342 238.028 250.62 238.406 248.632 238.406H243.13V250.586H238.594ZM243.13 234.332H248.632C250.2 234.332 251.446 233.87 252.37 232.946C253.322 231.994 253.798 230.734 253.798 229.166C253.798 227.57 253.322 226.31 252.37 225.386C251.446 224.462 250.2 224 248.632 224H243.13V234.332ZM272.85 251.006C269.91 251.006 267.642 250.208 266.046 248.612C264.45 246.988 263.652 244.79 263.652 242.018V219.926H268.188V242.018C268.188 243.558 268.566 244.776 269.322 245.672C270.106 246.568 271.282 247.016 272.85 247.016C274.39 247.016 275.552 246.568 276.336 245.672C277.12 244.776 277.512 243.558 277.512 242.018V219.926H282.048V242.018C282.048 244.79 281.25 246.988 279.654 248.612C278.058 250.208 275.79 251.006 272.85 251.006ZM295.766 250.586V224.084H287.576V219.884H308.492V224.084H300.302V250.586H295.766ZM314.565 250.586V219.926H332.583V223.958H319.017V232.652H331.113V236.642H319.017V246.554H332.583V250.586H314.565ZM339.329 250.586V219.926H348.947C350.879 219.926 352.559 220.304 353.987 221.06C355.415 221.788 356.521 222.824 357.305 224.168C358.117 225.512 358.523 227.094 358.523 228.914C358.523 230.958 357.991 232.736 356.927 234.248C355.891 235.732 354.477 236.782 352.685 237.398L358.943 250.586H353.777L348.191 237.986H343.865V250.586H339.329ZM343.865 233.996H348.947C350.459 233.996 351.663 233.548 352.559 232.652C353.455 231.728 353.903 230.51 353.903 228.998C353.903 227.43 353.455 226.198 352.559 225.302C351.663 224.406 350.459 223.958 348.947 223.958H343.865V233.996ZM184.833 293.006C182.761 293.006 180.983 292.67 179.499 291.998C178.015 291.298 176.867 290.318 176.055 289.058C175.243 287.77 174.837 286.244 174.837 284.48H179.331C179.331 285.88 179.821 286.986 180.801 287.798C181.781 288.582 183.139 288.974 184.875 288.974C186.499 288.974 187.773 288.582 188.697 287.798C189.621 287.014 190.083 285.936 190.083 284.564C190.083 283.416 189.761 282.422 189.117 281.582C188.501 280.742 187.605 280.168 186.429 279.86L182.565 278.726C180.325 278.082 178.589 276.99 177.357 275.45C176.153 273.882 175.551 272.02 175.551 269.864C175.551 268.184 175.929 266.714 176.685 265.454C177.441 264.194 178.519 263.214 179.919 262.514C181.319 261.814 182.971 261.464 184.875 261.464C187.675 261.464 189.915 262.22 191.595 263.732C193.303 265.244 194.171 267.274 194.199 269.822H189.663C189.663 268.478 189.229 267.428 188.361 266.672C187.521 265.888 186.331 265.496 184.791 265.496C183.307 265.496 182.145 265.86 181.305 266.588C180.465 267.288 180.045 268.282 180.045 269.57C180.045 270.718 180.353 271.712 180.969 272.552C181.613 273.392 182.523 273.98 183.699 274.316L187.605 275.492C189.845 276.108 191.567 277.2 192.771 278.768C193.975 280.336 194.577 282.212 194.577 284.396C194.577 286.104 194.171 287.616 193.359 288.932C192.547 290.22 191.413 291.228 189.957 291.956C188.501 292.656 186.793 293.006 184.833 293.006ZM210.059 293.006C208.155 293.006 206.489 292.656 205.061 291.956C203.661 291.228 202.569 290.192 201.785 288.848C201.029 287.476 200.651 285.88 200.651 284.06V270.452C200.651 268.604 201.029 267.008 201.785 265.664C202.569 264.32 203.661 263.298 205.061 262.598C206.489 261.87 208.155 261.506 210.059 261.506C211.963 261.506 213.615 261.87 215.015 262.598C216.415 263.326 217.493 264.362 218.249 265.706C219.033 267.022 219.425 268.604 219.425 270.452H214.889C214.889 268.856 214.469 267.638 213.629 266.798C212.789 265.958 211.599 265.538 210.059 265.538C208.519 265.538 207.315 265.958 206.447 266.798C205.607 267.638 205.187 268.842 205.187 270.41V284.06C205.187 285.628 205.607 286.846 206.447 287.714C207.315 288.554 208.519 288.974 210.059 288.974C211.599 288.974 212.789 288.554 213.629 287.714C214.469 286.846 214.889 285.628 214.889 284.06H219.425C219.425 285.88 219.033 287.462 218.249 288.806C217.493 290.15 216.415 291.186 215.015 291.914C213.615 292.642 211.963 293.006 210.059 293.006ZM226.591 292.586V288.554H232.765V265.958H226.591V261.926H243.559V265.958H237.385V288.554H243.559V292.586H226.591ZM251.606 292.586V261.926H269.624V265.958H256.058V274.652H268.154V278.642H256.058V288.554H269.624V292.586H251.606ZM276.244 292.586V261.926H281.956L290.902 287.42C290.846 286.608 290.776 285.642 290.692 284.522C290.608 283.402 290.538 282.24 290.482 281.036C290.454 279.832 290.44 278.74 290.44 277.76V261.926H294.64V292.586H288.928L280.024 267.092C280.08 267.82 280.136 268.73 280.192 269.822C280.276 270.914 280.332 272.048 280.36 273.224C280.416 274.4 280.444 275.492 280.444 276.5V292.586H276.244ZM310.793 293.006C308.889 293.006 307.223 292.656 305.795 291.956C304.395 291.228 303.303 290.192 302.519 288.848C301.763 287.476 301.385 285.88 301.385 284.06V270.452C301.385 268.604 301.763 267.008 302.519 265.664C303.303 264.32 304.395 263.298 305.795 262.598C307.223 261.87 308.889 261.506 310.793 261.506C312.697 261.506 314.349 261.87 315.749 262.598C317.149 263.326 318.227 264.362 318.983 265.706C319.767 267.022 320.159 268.604 320.159 270.452H315.623C315.623 268.856 315.203 267.638 314.363 266.798C313.523 265.958 312.333 265.538 310.793 265.538C309.253 265.538 308.049 265.958 307.181 266.798C306.341 267.638 305.921 268.842 305.921 270.41V284.06C305.921 285.628 306.341 286.846 307.181 287.714C308.049 288.554 309.253 288.974 310.793 288.974C312.333 288.974 313.523 288.554 314.363 287.714C315.203 286.846 315.623 285.628 315.623 284.06H320.159C320.159 285.88 319.767 287.462 318.983 288.806C318.227 290.15 317.149 291.186 315.749 291.914C314.349 292.642 312.697 293.006 310.793 293.006ZM327.157 292.586V261.926H345.175V265.958H331.609V274.652H343.705V278.642H331.609V288.554H345.175V292.586H327.157Z" fill="white"/>
<g opacity="0.5">
<g opacity="0.7" filter="url(#filter1_f_979_7474)">
<rect x="196.5" y="366.123" width="413.079" height="40.8916" transform="rotate(-45.9959 196.5 366.123)" fill="url(#paint0_linear_979_7474)" fill-opacity="0.2"/>
</g>
<g filter="url(#filter2_f_979_7474)">
<rect x="225.913" y="394.531" width="413.079" height="61.3123" transform="rotate(-45.9959 225.913 394.531)" fill="url(#paint1_linear_979_7474)" fill-opacity="0.4"/>
</g>
</g>
<g opacity="0.5">
<g opacity="0.7" filter="url(#filter3_f_979_7474)">
<rect x="-27" y="246.123" width="413.079" height="61.3123" transform="rotate(-45.9959 -27 246.123)" fill="url(#paint2_linear_979_7474)" fill-opacity="0.2"/>
</g>
<g opacity="0.5" filter="url(#filter4_f_979_7474)">
<rect x="17.1011" y="288.718" width="413.079" height="61.3123" transform="rotate(-45.9959 17.1011 288.718)" fill="url(#paint3_linear_979_7474)" fill-opacity="0.4"/>
</g>
</g>
</g>
</g>
<defs>
<filter id="filter0_d_979_7474" x="0.6" y="0.6" width="526.5" height="378" filterUnits="userSpaceOnUse" color-interpolation-filters="sRGB">
<feFlood flood-opacity="0" result="BackgroundImageFix"/>
<feColorMatrix in="SourceAlpha" type="matrix" values="0 0 0 0 0 0 0 0 0 0 0 0 0 0 0 0 0 0 127 0" result="hardAlpha"/>
<feOffset dx="3.6" dy="3.6"/>
<feGaussianBlur stdDeviation="4.5"/>
<feComposite in2="hardAlpha" operator="out"/>
<feColorMatrix type="matrix" values="0 0 0 0 0 0 0 0 0 0 0 0 0 0 0 0 0 0 0.1 0"/>
<feBlend mode="normal" in2="BackgroundImageFix" result="effect1_dropShadow_979_7474"/>
<feBlend mode="normal" in="SourceGraphic" in2="effect1_dropShadow_979_7474" result="shape"/>
</filter>
<filter id="filter1_f_979_7474" x="181.5" y="54.0001" width="346.383" height="355.531" filterUnits="userSpaceOnUse" color-interpolation-filters="sRGB">
<feFlood flood-opacity="0" result="BackgroundImageFix"/>
<feBlend mode="normal" in="SourceGraphic" in2="BackgroundImageFix" result="shape"/>
<feGaussianBlur stdDeviation="7.5" result="effect1_foregroundBlur_979_7474"/>
</filter>
<filter id="filter2_f_979_7474" x="210.913" y="82.4078" width="361.071" height="369.718" filterUnits="userSpaceOnUse" color-interpolation-filters="sRGB">
<feFlood flood-opacity="0" result="BackgroundImageFix"/>
<feBlend mode="normal" in="SourceGraphic" in2="BackgroundImageFix" result="shape"/>
<feGaussianBlur stdDeviation="7.5" result="effect1_foregroundBlur_979_7474"/>
</filter>
<filter id="filter3_f_979_7474" x="-42" y="-65.9999" width="361.071" height="369.718" filterUnits="userSpaceOnUse" color-interpolation-filters="sRGB">
<feFlood flood-opacity="0" result="BackgroundImageFix"/>
<feBlend mode="normal" in="SourceGraphic" in2="BackgroundImageFix" result="shape"/>
<feGaussianBlur stdDeviation="7.5" result="effect1_foregroundBlur_979_7474"/>
</filter>
<filter id="filter4_f_979_7474" x="2.10107" y="-23.4057" width="361.071" height="369.718" filterUnits="userSpaceOnUse" color-interpolation-filters="sRGB">
<feFlood flood-opacity="0" result="BackgroundImageFix"/>
<feBlend mode="normal" in="SourceGraphic" in2="BackgroundImageFix" result="shape"/>
<feGaussianBlur stdDeviation="7.5" result="effect1_foregroundBlur_979_7474"/>
</filter>
<linearGradient id="paint0_linear_979_7474" x1="403.039" y1="366.123" x2="403.039" y2="407.015" gradientUnits="userSpaceOnUse">
<stop stop-color="white" stop-opacity="0"/>
<stop offset="1" stop-color="white"/>
</linearGradient>
<linearGradient id="paint1_linear_979_7474" x1="432.452" y1="394.531" x2="432.452" y2="455.843" gradientUnits="userSpaceOnUse">
<stop/>
<stop offset="1" stop-opacity="0"/>
</linearGradient>
<linearGradient id="paint2_linear_979_7474" x1="179.539" y1="246.123" x2="179.539" y2="307.436" gradientUnits="userSpaceOnUse">
<stop stop-color="white" stop-opacity="0"/>
<stop offset="1" stop-color="white"/>
</linearGradient>
<linearGradient id="paint3_linear_979_7474" x1="223.64" y1="288.718" x2="223.64" y2="350.03" gradientUnits="userSpaceOnUse">
<stop/>
<stop offset="1" stop-opacity="0"/>
</linearGradient>
</defs>
</svg>
