<svg width="497" height="497" viewBox="0 0 497 497" fill="none" xmlns="http://www.w3.org/2000/svg">
<g filter="url(#filter0_d_487_6198)">
<path fill-rule="evenodd" clip-rule="evenodd" d="M379.906 6H339.094C333.424 19.5108 320.07 29 304.5 29C288.93 29 275.576 19.5108 269.906 6H229.094C223.424 19.5108 210.07 29 194.5 29C178.93 29 165.576 19.5108 159.906 6H119.094C113.424 19.5108 100.07 29 84.5 29C68.9298 29 55.576 19.5108 49.9062 6H10V46.3432C22.9767 52.2412 32 65.3169 32 80.5C32 95.6831 22.9767 108.759 10 114.657V156.343C22.9767 162.241 32 175.317 32 190.5C32 205.683 22.9767 218.759 10 224.657V266.343C22.9767 272.241 32 285.317 32 300.5C32 315.683 22.9767 328.759 10 334.657V376.343C22.9767 382.241 32 395.317 32 410.5C32 425.683 22.9767 438.759 10 444.657V483H46.7962C51.6513 467.915 65.801 457 82.5 457C99.1991 457 113.349 467.915 118.204 483H156.796C161.651 467.915 175.801 457 192.5 457C209.199 457 223.349 467.915 228.204 483H266.796C271.651 467.915 285.801 457 302.5 457C319.199 457 333.349 467.915 338.204 483H376.796C381.651 467.915 395.801 457 412.5 457C429.199 457 443.349 467.915 448.204 483H487V441.675C475.105 435.387 467 422.89 467 408.5C467 394.11 475.105 381.613 487 375.325V331.675C475.105 325.387 467 312.89 467 298.5C467 284.11 475.105 271.613 487 265.325V221.675C475.105 215.387 467 202.89 467 188.5C467 174.11 475.105 161.613 487 155.325V111.675C475.105 105.387 467 92.8902 467 78.5C467 64.1098 475.105 51.6127 487 45.3252V6H449.094C443.424 19.5108 430.07 29 414.5 29C398.93 29 385.576 19.5108 379.906 6Z" fill="#F49A9A"/>
</g>
<g filter="url(#filter1_d_487_6198)">
<path fill-rule="evenodd" clip-rule="evenodd" d="M379.906 6H339.094C333.424 19.5108 320.07 29 304.5 29C288.93 29 275.576 19.5108 269.906 6H229.094C223.424 19.5108 210.07 29 194.5 29C178.93 29 165.576 19.5108 159.906 6H119.094C113.424 19.5108 100.07 29 84.5 29C68.9298 29 55.576 19.5108 49.9062 6H10V46.3432C22.9767 52.2412 32 65.3169 32 80.5C32 95.6831 22.9767 108.759 10 114.657V156.343C22.9767 162.241 32 175.317 32 190.5C32 205.683 22.9767 218.759 10 224.657V266.343C22.9767 272.241 32 285.317 32 300.5C32 315.683 22.9767 328.759 10 334.657V376.343C22.9767 382.241 32 395.317 32 410.5C32 425.683 22.9767 438.759 10 444.657V483H46.7962C51.6513 467.915 65.801 457 82.5 457C99.1991 457 113.349 467.915 118.204 483H156.796C161.651 467.915 175.801 457 192.5 457C209.199 457 223.349 467.915 228.204 483H266.796C271.651 467.915 285.801 457 302.5 457C319.199 457 333.349 467.915 338.204 483H376.796C381.651 467.915 395.801 457 412.5 457C429.199 457 443.349 467.915 448.204 483H487V441.675C475.105 435.387 467 422.89 467 408.5C467 394.11 475.105 381.613 487 375.325V331.675C475.105 325.387 467 312.89 467 298.5C467 284.11 475.105 271.613 487 265.325V221.675C475.105 215.387 467 202.89 467 188.5C467 174.11 475.105 161.613 487 155.325V111.675C475.105 105.387 467 92.8902 467 78.5C467 64.1098 475.105 51.6127 487 45.3252V6H449.094C443.424 19.5108 430.07 29 414.5 29C398.93 29 385.576 19.5108 379.906 6Z" fill="#F49A9A"/>
</g>
<rect x="62" y="46" width="385" height="385" rx="10" fill="#F7A5A5"/>
<path d="M105.469 365.768C103.133 365.768 101.069 365.256 99.277 364.232C97.485 363.176 96.093 361.704 95.101 359.816C94.109 357.896 93.613 355.64 93.613 353.048C93.613 350.808 94.109 348.712 95.101 346.76C96.093 344.808 97.485 343.24 99.277 342.056C101.101 340.84 103.213 340.232 105.613 340.232C106.957 340.232 108.269 340.424 109.549 340.808C110.829 341.16 111.981 341.784 113.005 342.68C114.061 343.576 114.893 344.792 115.501 346.328C116.141 347.864 116.445 349.784 116.413 352.088L100.669 352.376C100.669 354.104 100.877 355.656 101.293 357.032C101.741 358.408 102.461 359.496 103.453 360.296C104.445 361.096 105.773 361.496 107.437 361.496C108.077 361.496 108.797 361.384 109.597 361.16C110.429 360.936 111.261 360.568 112.093 360.056C112.957 359.512 113.757 358.792 114.493 357.896L116.653 359.912C115.501 361.544 114.269 362.792 112.957 363.656C111.645 364.488 110.333 365.048 109.021 365.336C107.741 365.624 106.557 365.768 105.469 365.768ZM100.957 349.016H109.789C109.757 347.672 109.565 346.616 109.213 345.848C108.893 345.048 108.445 344.472 107.869 344.12C107.293 343.768 106.621 343.592 105.853 343.592C104.445 343.592 103.341 344.104 102.541 345.128C101.741 346.12 101.213 347.416 100.957 349.016ZM124.721 365V361.88C125.617 361.88 126.257 361.704 126.641 361.352C127.025 361 127.265 360.504 127.361 359.864C127.489 359.192 127.553 358.44 127.553 357.608V349.544C127.553 348.968 127.569 348.328 127.601 347.624C127.633 346.888 127.681 346.168 127.745 345.464C127.233 345.496 126.625 345.528 125.921 345.56C125.249 345.56 124.737 345.576 124.385 345.608V341.96C125.857 341.96 127.105 341.88 128.129 341.72C129.153 341.56 129.953 341.368 130.529 341.144C131.137 340.92 131.553 340.712 131.777 340.52H134.129C134.193 340.936 134.225 341.24 134.225 341.432C134.225 341.624 134.225 341.816 134.225 342.008C134.257 342.168 134.321 342.472 134.417 342.92C135.057 342.408 135.793 341.96 136.625 341.576C137.457 341.16 138.289 340.84 139.121 340.616C139.953 340.36 140.689 340.232 141.329 340.232C144.273 340.232 146.353 341.08 147.569 342.776C148.817 344.44 149.441 347.128 149.441 350.84V357.272C149.441 357.72 149.425 358.36 149.393 359.192C149.361 359.992 149.313 360.76 149.249 361.496C149.793 361.432 150.369 361.4 150.977 361.4C151.585 361.368 152.049 361.352 152.369 361.352V365H139.793V361.88C140.689 361.88 141.329 361.704 141.713 361.352C142.129 361 142.385 360.504 142.481 359.864C142.609 359.192 142.673 358.44 142.673 357.608L142.625 350.792C142.625 348.712 142.321 347.176 141.713 346.184C141.137 345.16 140.145 344.648 138.737 344.648C137.937 344.648 137.137 344.824 136.337 345.176C135.569 345.528 134.913 345.944 134.369 346.424C134.369 346.872 134.369 347.336 134.369 347.816C134.369 348.264 134.369 348.712 134.369 349.16V357.272C134.369 357.72 134.353 358.36 134.321 359.192C134.289 359.992 134.241 360.76 134.177 361.496C134.689 361.432 135.249 361.4 135.857 361.4C136.497 361.368 136.977 361.352 137.297 361.352V365H124.721ZM170.357 378.008C167.605 378.008 165.429 377.704 163.829 377.096C162.229 376.52 161.093 375.752 160.421 374.792C159.749 373.832 159.413 372.808 159.413 371.72C159.413 371.048 159.557 370.376 159.845 369.704C160.133 369.032 160.597 368.376 161.237 367.736C161.909 367.128 162.821 366.616 163.973 366.2C162.661 365.848 161.733 365.288 161.189 364.52C160.677 363.72 160.421 362.872 160.421 361.976C160.421 361.144 160.757 360.216 161.429 359.192C162.101 358.136 163.317 357.336 165.077 356.792C163.733 356.248 162.629 355.4 161.765 354.248C160.901 353.096 160.437 351.704 160.373 350.072C160.309 348.152 160.789 346.456 161.813 344.984C162.837 343.48 164.181 342.312 165.845 341.48C167.509 340.648 169.253 340.232 171.077 340.232C171.909 340.232 172.869 340.344 173.957 340.568C175.045 340.792 175.989 341.176 176.789 341.72C177.141 340.728 177.589 339.8 178.133 338.936C178.709 338.04 179.397 337.32 180.197 336.776C180.997 336.2 181.893 335.912 182.885 335.912C183.973 335.912 184.789 336.2 185.333 336.776C185.909 337.32 186.197 338.056 186.197 338.984C186.197 339.368 186.101 339.8 185.909 340.28C185.749 340.728 185.445 341.112 184.997 341.432C184.581 341.752 183.989 341.912 183.221 341.912C182.741 341.912 182.261 341.736 181.781 341.384C181.301 341 181.013 340.552 180.917 340.04C180.501 340.168 180.085 340.584 179.669 341.288C179.253 341.992 179.013 342.616 178.949 343.16C179.877 343.96 180.581 344.888 181.061 345.944C181.541 347 181.781 348.136 181.781 349.352C181.781 351.208 181.253 352.856 180.197 354.296C179.173 355.704 177.829 356.824 176.165 357.656C174.533 358.456 172.773 358.856 170.885 358.856C170.469 358.856 170.005 358.84 169.493 358.808C168.981 358.744 168.485 358.712 168.005 358.712C167.301 358.712 166.709 358.84 166.229 359.096C165.749 359.352 165.509 359.704 165.509 360.152C165.509 360.76 165.973 361.176 166.901 361.4C167.829 361.624 169.413 361.8 171.653 361.928C174.117 362.056 176.261 362.376 178.085 362.888C179.941 363.368 181.381 364.136 182.405 365.192C183.429 366.248 183.941 367.704 183.941 369.56C183.941 370.936 183.541 372.136 182.741 373.16C181.941 374.216 180.869 375.096 179.525 375.8C178.213 376.536 176.757 377.08 175.157 377.432C173.557 377.816 171.957 378.008 170.357 378.008ZM171.749 374.696C174.021 374.696 175.733 374.28 176.885 373.448C178.069 372.616 178.661 371.752 178.661 370.856C178.661 370.184 178.405 369.624 177.893 369.176C177.381 368.76 176.613 368.424 175.589 368.168C174.597 367.912 173.317 367.752 171.749 367.688C171.045 367.624 170.229 367.576 169.301 367.544C168.373 367.512 167.557 367.432 166.853 367.304C166.373 367.688 166.005 368.168 165.749 368.744C165.493 369.32 165.349 369.88 165.317 370.424C165.253 371.704 165.797 372.728 166.949 373.496C168.133 374.296 169.733 374.696 171.749 374.696ZM171.077 355.64C171.941 355.64 172.661 355.368 173.237 354.824C173.845 354.28 174.293 353.592 174.581 352.76C174.901 351.928 175.061 351.08 175.061 350.216C175.061 349.096 174.917 348.024 174.629 347C174.341 345.944 173.893 345.096 173.285 344.456C172.709 343.784 171.957 343.448 171.029 343.448C169.749 343.448 168.757 344.024 168.053 345.176C167.349 346.328 166.997 347.64 166.997 349.112C166.997 350.232 167.157 351.304 167.477 352.328C167.797 353.32 168.261 354.12 168.869 354.728C169.477 355.336 170.213 355.64 171.077 355.64ZM192.493 361.88C193.389 361.88 194.029 361.704 194.413 361.352C194.797 361 195.037 360.504 195.133 359.864C195.261 359.192 195.325 358.44 195.325 357.608V349.64C195.325 349.064 195.341 348.408 195.373 347.672C195.405 346.904 195.453 346.168 195.517 345.464C195.005 345.496 194.397 345.528 193.693 345.56C193.021 345.56 192.509 345.576 192.157 345.608V341.96C193.629 341.96 194.877 341.88 195.901 341.72C196.925 341.56 197.725 341.368 198.301 341.144C198.909 340.92 199.325 340.712 199.549 340.52H202.141V357.272C202.141 357.72 202.125 358.36 202.093 359.192C202.061 359.992 202.013 360.76 201.949 361.496C202.461 361.432 203.021 361.4 203.629 361.4C204.269 361.368 204.749 361.352 205.069 361.352V365H192.493V361.88ZM198.493 336.728C197.405 336.728 196.509 336.344 195.805 335.576C195.101 334.808 194.749 333.88 194.749 332.792C194.749 331.704 195.117 330.776 195.853 330.008C196.589 329.24 197.453 328.856 198.445 328.856C199.469 328.856 200.317 329.24 200.989 330.008C201.693 330.776 202.045 331.704 202.045 332.792C202.045 333.88 201.725 334.808 201.085 335.576C200.445 336.344 199.581 336.728 198.493 336.728ZM212.996 365V361.88C213.892 361.88 214.532 361.704 214.916 361.352C215.3 361 215.54 360.504 215.636 359.864C215.764 359.192 215.828 358.44 215.828 357.608V349.544C215.828 348.968 215.844 348.328 215.876 347.624C215.908 346.888 215.956 346.168 216.02 345.464C215.508 345.496 214.9 345.528 214.196 345.56C213.524 345.56 213.012 345.576 212.66 345.608V341.96C214.132 341.96 215.38 341.88 216.404 341.72C217.428 341.56 218.228 341.368 218.804 341.144C219.412 340.92 219.828 340.712 220.052 340.52H222.404C222.468 340.936 222.5 341.24 222.5 341.432C222.5 341.624 222.5 341.816 222.5 342.008C222.532 342.168 222.596 342.472 222.692 342.92C223.332 342.408 224.068 341.96 224.9 341.576C225.732 341.16 226.564 340.84 227.396 340.616C228.228 340.36 228.964 340.232 229.604 340.232C232.548 340.232 234.628 341.08 235.844 342.776C237.092 344.44 237.716 347.128 237.716 350.84V357.272C237.716 357.72 237.7 358.36 237.668 359.192C237.636 359.992 237.588 360.76 237.524 361.496C238.068 361.432 238.644 361.4 239.252 361.4C239.86 361.368 240.324 361.352 240.644 361.352V365H228.068V361.88C228.964 361.88 229.604 361.704 229.988 361.352C230.404 361 230.66 360.504 230.756 359.864C230.884 359.192 230.948 358.44 230.948 357.608L230.9 350.792C230.9 348.712 230.596 347.176 229.988 346.184C229.412 345.16 228.42 344.648 227.012 344.648C226.212 344.648 225.412 344.824 224.612 345.176C223.844 345.528 223.188 345.944 222.644 346.424C222.644 346.872 222.644 347.336 222.644 347.816C222.644 348.264 222.644 348.712 222.644 349.16V357.272C222.644 357.72 222.628 358.36 222.596 359.192C222.564 359.992 222.516 360.76 222.452 361.496C222.964 361.432 223.524 361.4 224.132 361.4C224.772 361.368 225.252 361.352 225.572 361.352V365H212.996ZM259.688 365.768C257.352 365.768 255.288 365.256 253.496 364.232C251.704 363.176 250.312 361.704 249.32 359.816C248.328 357.896 247.832 355.64 247.832 353.048C247.832 350.808 248.328 348.712 249.32 346.76C250.312 344.808 251.704 343.24 253.496 342.056C255.32 340.84 257.432 340.232 259.832 340.232C261.176 340.232 262.488 340.424 263.768 340.808C265.048 341.16 266.2 341.784 267.224 342.68C268.28 343.576 269.112 344.792 269.72 346.328C270.36 347.864 270.664 349.784 270.632 352.088L254.888 352.376C254.888 354.104 255.096 355.656 255.512 357.032C255.96 358.408 256.68 359.496 257.672 360.296C258.664 361.096 259.992 361.496 261.656 361.496C262.296 361.496 263.016 361.384 263.816 361.16C264.648 360.936 265.48 360.568 266.312 360.056C267.176 359.512 267.976 358.792 268.712 357.896L270.872 359.912C269.72 361.544 268.488 362.792 267.176 363.656C265.864 364.488 264.552 365.048 263.24 365.336C261.96 365.624 260.776 365.768 259.688 365.768ZM255.176 349.016H264.008C263.976 347.672 263.784 346.616 263.432 345.848C263.112 345.048 262.664 344.472 262.088 344.12C261.512 343.768 260.84 343.592 260.072 343.592C258.664 343.592 257.56 344.104 256.76 345.128C255.96 346.12 255.432 347.416 255.176 349.016ZM290.316 365.768C287.98 365.768 285.916 365.256 284.124 364.232C282.332 363.176 280.94 361.704 279.948 359.816C278.956 357.896 278.46 355.64 278.46 353.048C278.46 350.808 278.956 348.712 279.948 346.76C280.94 344.808 282.332 343.24 284.124 342.056C285.948 340.84 288.06 340.232 290.46 340.232C291.804 340.232 293.116 340.424 294.396 340.808C295.676 341.16 296.828 341.784 297.852 342.68C298.908 343.576 299.74 344.792 300.348 346.328C300.988 347.864 301.292 349.784 301.26 352.088L285.516 352.376C285.516 354.104 285.724 355.656 286.14 357.032C286.588 358.408 287.308 359.496 288.3 360.296C289.292 361.096 290.62 361.496 292.284 361.496C292.924 361.496 293.644 361.384 294.444 361.16C295.276 360.936 296.108 360.568 296.94 360.056C297.804 359.512 298.604 358.792 299.34 357.896L301.5 359.912C300.348 361.544 299.116 362.792 297.804 363.656C296.492 364.488 295.18 365.048 293.868 365.336C292.588 365.624 291.404 365.768 290.316 365.768ZM285.804 349.016H294.636C294.604 347.672 294.412 346.616 294.06 345.848C293.74 345.048 293.292 344.472 292.716 344.12C292.14 343.768 291.468 343.592 290.7 343.592C289.292 343.592 288.188 344.104 287.388 345.128C286.588 346.12 286.06 347.416 285.804 349.016ZM309.568 361.88C310.464 361.88 311.104 361.704 311.488 361.352C311.872 361 312.112 360.504 312.208 359.864C312.336 359.192 312.4 358.44 312.4 357.608V349.544C312.4 348.968 312.416 348.328 312.448 347.624C312.48 346.888 312.528 346.168 312.592 345.464C312.08 345.496 311.472 345.528 310.768 345.56C310.096 345.56 309.584 345.576 309.232 345.608V341.96H311.152C312.4 341.96 313.536 341.8 314.56 341.48C315.616 341.16 316.304 340.84 316.624 340.52H318.976C319.04 340.84 319.088 341.448 319.12 342.344C319.152 343.208 319.168 343.976 319.168 344.648C320.032 343.592 320.848 342.744 321.616 342.104C322.384 341.464 323.136 341 323.872 340.712C324.64 340.392 325.408 340.232 326.176 340.232C327.296 340.232 328.272 340.552 329.104 341.192C329.936 341.8 330.352 342.808 330.352 344.216C330.352 344.696 330.24 345.208 330.016 345.752C329.792 346.264 329.44 346.696 328.96 347.048C328.48 347.4 327.824 347.576 326.992 347.576C326.352 347.576 325.696 347.384 325.024 347C324.352 346.616 323.968 345.88 323.872 344.792C323.232 344.792 322.592 345.064 321.952 345.608C321.312 346.12 320.736 346.744 320.224 347.48C319.744 348.184 319.408 348.84 319.216 349.448V357.272C319.216 357.72 319.2 358.36 319.168 359.192C319.136 359.992 319.088 360.76 319.024 361.496C319.536 361.432 320.096 361.4 320.704 361.4C321.344 361.368 321.824 361.352 322.144 361.352V365H309.568V361.88ZM337.43 361.88C338.326 361.88 338.966 361.704 339.35 361.352C339.734 361 339.974 360.504 340.07 359.864C340.198 359.192 340.262 358.44 340.262 357.608V349.64C340.262 349.064 340.278 348.408 340.31 347.672C340.342 346.904 340.39 346.168 340.454 345.464C339.942 345.496 339.334 345.528 338.63 345.56C337.958 345.56 337.446 345.576 337.094 345.608V341.96C338.566 341.96 339.814 341.88 340.838 341.72C341.862 341.56 342.662 341.368 343.238 341.144C343.846 340.92 344.262 340.712 344.486 340.52H347.078V357.272C347.078 357.72 347.062 358.36 347.03 359.192C346.998 359.992 346.95 360.76 346.886 361.496C347.398 361.432 347.958 361.4 348.566 361.4C349.206 361.368 349.686 361.352 350.006 361.352V365H337.43V361.88ZM343.43 336.728C342.342 336.728 341.446 336.344 340.742 335.576C340.038 334.808 339.686 333.88 339.686 332.792C339.686 331.704 340.054 330.776 340.79 330.008C341.526 329.24 342.39 328.856 343.382 328.856C344.406 328.856 345.254 329.24 345.926 330.008C346.63 330.776 346.982 331.704 346.982 332.792C346.982 333.88 346.662 334.808 346.022 335.576C345.382 336.344 344.518 336.728 343.43 336.728ZM357.934 365V361.88C358.83 361.88 359.47 361.704 359.854 361.352C360.238 361 360.478 360.504 360.574 359.864C360.702 359.192 360.766 358.44 360.766 357.608V349.544C360.766 348.968 360.782 348.328 360.814 347.624C360.846 346.888 360.894 346.168 360.958 345.464C360.446 345.496 359.838 345.528 359.134 345.56C358.462 345.56 357.95 345.576 357.598 345.608V341.96C359.07 341.96 360.318 341.88 361.342 341.72C362.366 341.56 363.166 341.368 363.742 341.144C364.35 340.92 364.766 340.712 364.99 340.52H367.342C367.406 340.936 367.438 341.24 367.438 341.432C367.438 341.624 367.438 341.816 367.438 342.008C367.47 342.168 367.534 342.472 367.63 342.92C368.27 342.408 369.006 341.96 369.838 341.576C370.67 341.16 371.502 340.84 372.334 340.616C373.166 340.36 373.902 340.232 374.542 340.232C377.486 340.232 379.566 341.08 380.782 342.776C382.03 344.44 382.654 347.128 382.654 350.84V357.272C382.654 357.72 382.638 358.36 382.606 359.192C382.574 359.992 382.526 360.76 382.462 361.496C383.006 361.432 383.582 361.4 384.19 361.4C384.798 361.368 385.262 361.352 385.582 361.352V365H373.006V361.88C373.902 361.88 374.542 361.704 374.926 361.352C375.342 361 375.598 360.504 375.694 359.864C375.822 359.192 375.886 358.44 375.886 357.608L375.838 350.792C375.838 348.712 375.534 347.176 374.926 346.184C374.35 345.16 373.358 344.648 371.95 344.648C371.15 344.648 370.35 344.824 369.55 345.176C368.782 345.528 368.126 345.944 367.582 346.424C367.582 346.872 367.582 347.336 367.582 347.816C367.582 348.264 367.582 348.712 367.582 349.16V357.272C367.582 357.72 367.566 358.36 367.534 359.192C367.502 359.992 367.454 360.76 367.39 361.496C367.902 361.432 368.462 361.4 369.07 361.4C369.71 361.368 370.19 361.352 370.51 361.352V365H357.934ZM403.569 378.008C400.817 378.008 398.641 377.704 397.041 377.096C395.441 376.52 394.305 375.752 393.633 374.792C392.961 373.832 392.625 372.808 392.625 371.72C392.625 371.048 392.769 370.376 393.057 369.704C393.345 369.032 393.809 368.376 394.449 367.736C395.121 367.128 396.033 366.616 397.185 366.2C395.873 365.848 394.945 365.288 394.401 364.52C393.889 363.72 393.633 362.872 393.633 361.976C393.633 361.144 393.969 360.216 394.641 359.192C395.313 358.136 396.529 357.336 398.289 356.792C396.945 356.248 395.841 355.4 394.977 354.248C394.113 353.096 393.649 351.704 393.585 350.072C393.521 348.152 394.001 346.456 395.025 344.984C396.049 343.48 397.393 342.312 399.057 341.48C400.721 340.648 402.465 340.232 404.289 340.232C405.121 340.232 406.081 340.344 407.169 340.568C408.257 340.792 409.201 341.176 410.001 341.72C410.353 340.728 410.801 339.8 411.345 338.936C411.921 338.04 412.609 337.32 413.409 336.776C414.209 336.2 415.105 335.912 416.097 335.912C417.185 335.912 418.001 336.2 418.545 336.776C419.121 337.32 419.409 338.056 419.409 338.984C419.409 339.368 419.313 339.8 419.121 340.28C418.961 340.728 418.657 341.112 418.209 341.432C417.793 341.752 417.201 341.912 416.433 341.912C415.953 341.912 415.473 341.736 414.993 341.384C414.513 341 414.225 340.552 414.129 340.04C413.713 340.168 413.297 340.584 412.881 341.288C412.465 341.992 412.225 342.616 412.161 343.16C413.089 343.96 413.793 344.888 414.273 345.944C414.753 347 414.993 348.136 414.993 349.352C414.993 351.208 414.465 352.856 413.409 354.296C412.385 355.704 411.041 356.824 409.377 357.656C407.745 358.456 405.985 358.856 404.097 358.856C403.681 358.856 403.217 358.84 402.705 358.808C402.193 358.744 401.697 358.712 401.217 358.712C400.513 358.712 399.921 358.84 399.441 359.096C398.961 359.352 398.721 359.704 398.721 360.152C398.721 360.76 399.185 361.176 400.113 361.4C401.041 361.624 402.625 361.8 404.865 361.928C407.329 362.056 409.473 362.376 411.297 362.888C413.153 363.368 414.593 364.136 415.617 365.192C416.641 366.248 417.153 367.704 417.153 369.56C417.153 370.936 416.753 372.136 415.953 373.16C415.153 374.216 414.081 375.096 412.737 375.8C411.425 376.536 409.969 377.08 408.369 377.432C406.769 377.816 405.169 378.008 403.569 378.008ZM404.961 374.696C407.233 374.696 408.945 374.28 410.097 373.448C411.281 372.616 411.873 371.752 411.873 370.856C411.873 370.184 411.617 369.624 411.105 369.176C410.593 368.76 409.825 368.424 408.801 368.168C407.809 367.912 406.529 367.752 404.961 367.688C404.257 367.624 403.441 367.576 402.513 367.544C401.585 367.512 400.769 367.432 400.065 367.304C399.585 367.688 399.217 368.168 398.961 368.744C398.705 369.32 398.561 369.88 398.529 370.424C398.465 371.704 399.009 372.728 400.161 373.496C401.345 374.296 402.945 374.696 404.961 374.696ZM404.289 355.64C405.153 355.64 405.873 355.368 406.449 354.824C407.057 354.28 407.505 353.592 407.793 352.76C408.113 351.928 408.273 351.08 408.273 350.216C408.273 349.096 408.129 348.024 407.841 347C407.553 345.944 407.105 345.096 406.497 344.456C405.921 343.784 405.169 343.448 404.241 343.448C402.961 343.448 401.969 344.024 401.265 345.176C400.561 346.328 400.209 347.64 400.209 349.112C400.209 350.232 400.369 351.304 400.689 352.328C401.009 353.32 401.473 354.12 402.081 354.728C402.689 355.336 403.425 355.64 404.289 355.64Z" fill="#BC4040"/>
<path d="M183.656 246.023L186.248 224.084C184.941 223.173 183.745 222.172 182.659 221.08C181.573 219.989 180.529 218.849 179.526 217.66L157.643 221.073L147.119 184.956L167.486 176.23C167.567 175.426 167.696 174.664 167.874 173.944L168.984 169.455C169.162 168.735 169.402 168 169.705 167.252L155.746 150.044L181.881 122.986L199.656 136.198C201.097 135.613 202.58 135.098 204.105 134.651C205.63 134.205 207.127 133.869 208.597 133.645L216.522 113.023L253.18 122.082L250.588 144.021C251.895 144.932 253.091 145.933 254.177 147.025C255.263 148.116 256.307 149.256 257.31 150.445L279.193 147.032L289.717 183.149L269.349 191.875C269.269 192.679 269.139 193.441 268.961 194.161L267.852 198.65C267.674 199.37 267.378 200.091 266.964 200.812L280.923 218.02L254.788 245.078L237.18 231.907C235.739 232.492 234.256 233.007 232.731 233.454C231.206 233.9 229.709 234.236 228.239 234.46L220.314 255.082L183.656 246.023ZM198.606 235.605L211.77 238.858L218.458 221.812C222.121 221.776 225.636 221.263 229.004 220.273C232.373 219.282 235.58 217.87 238.627 216.036L253.438 226.928L262.731 217.229L251.071 202.882C252.01 201.467 252.802 199.929 253.449 198.266C254.096 196.603 254.638 194.885 255.076 193.111C255.515 191.338 255.835 189.565 256.037 187.792C256.24 186.019 256.255 184.288 256.083 182.599L273.083 175.334L269.378 162.424L251.157 165.33C249.343 162.177 247.176 159.377 244.657 156.932C242.137 154.487 239.265 152.395 236.041 150.657L238.229 132.5L225.066 129.247L218.378 146.293C214.715 146.329 211.2 146.842 207.832 147.832C204.463 148.823 201.256 150.235 198.209 152.069L183.397 141.177L174.105 150.876L185.806 165.057C184.84 166.582 184.04 168.149 183.407 169.756C182.774 171.364 182.225 173.11 181.759 174.994C181.321 176.767 181.008 178.512 180.819 180.23C180.631 181.947 180.608 183.706 180.753 185.506L163.753 192.771L167.458 205.681L185.679 202.775C187.493 205.928 189.66 208.728 192.179 211.173C194.699 213.618 197.57 215.71 200.795 217.448L198.606 235.605ZM213 207.41C219.443 209.002 225.503 208.089 231.18 204.67C236.858 201.251 240.491 196.328 242.079 189.9C243.668 183.471 242.746 177.422 239.315 171.753C235.883 166.083 230.946 162.452 224.503 160.86C217.949 159.24 211.861 160.147 206.239 163.579C200.617 167.012 197.012 171.942 195.423 178.37C193.835 184.799 194.728 190.841 198.104 196.497C201.481 202.152 206.446 205.79 213 207.41Z" fill="#D65959"/>
<path d="M200.684 257.026L262.613 213.386C261.943 210.292 261.57 207.21 261.492 204.141C261.415 201.073 261.657 197.872 262.221 194.539C264.67 180.047 271.823 168.586 283.682 160.157C295.54 151.727 308.715 148.737 323.207 151.186C328.424 152.067 333.265 153.631 337.73 155.876C342.194 158.121 346.308 160.903 350.069 164.222L312.969 190.595L325.975 208.89L363.075 182.518C364.973 187.161 366.249 191.96 366.902 196.915C367.556 201.869 367.441 206.955 366.56 212.172C364.111 226.663 356.957 238.124 345.098 246.554C333.24 254.984 320.065 257.974 305.574 255.525C302.24 254.962 299.138 254.139 296.265 253.057C293.392 251.976 290.604 250.61 287.902 248.961L226.334 293.11C224.301 294.555 222.053 295.069 219.589 294.653C217.126 294.237 215.172 293.012 213.726 290.979L198.553 269.634C197.108 267.601 196.593 265.353 197.01 262.889C197.426 260.426 198.651 258.472 200.684 257.026Z" fill="#B64C4C"/>
<defs>
<filter id="filter0_d_487_6198" x="0" y="0" width="497" height="497" filterUnits="userSpaceOnUse" color-interpolation-filters="sRGB">
<feFlood flood-opacity="0" result="BackgroundImageFix"/>
<feColorMatrix in="SourceAlpha" type="matrix" values="0 0 0 0 0 0 0 0 0 0 0 0 0 0 0 0 0 0 127 0" result="hardAlpha"/>
<feOffset dy="4"/>
<feGaussianBlur stdDeviation="5"/>
<feComposite in2="hardAlpha" operator="out"/>
<feColorMatrix type="matrix" values="0 0 0 0 0 0 0 0 0 0 0 0 0 0 0 0 0 0 0.1 0"/>
<feBlend mode="normal" in2="BackgroundImageFix" result="effect1_dropShadow_487_6198"/>
<feBlend mode="normal" in="SourceGraphic" in2="effect1_dropShadow_487_6198" result="shape"/>
</filter>
<filter id="filter1_d_487_6198" x="0" y="0" width="497" height="497" filterUnits="userSpaceOnUse" color-interpolation-filters="sRGB">
<feFlood flood-opacity="0" result="BackgroundImageFix"/>
<feColorMatrix in="SourceAlpha" type="matrix" values="0 0 0 0 0 0 0 0 0 0 0 0 0 0 0 0 0 0 127 0" result="hardAlpha"/>
<feOffset dy="4"/>
<feGaussianBlur stdDeviation="5"/>
<feComposite in2="hardAlpha" operator="out"/>
<feColorMatrix type="matrix" values="0 0 0 0 0 0 0 0 0 0 0 0 0 0 0 0 0 0 0.1 0"/>
<feBlend mode="normal" in2="BackgroundImageFix" result="effect1_dropShadow_487_6198"/>
<feBlend mode="normal" in="SourceGraphic" in2="effect1_dropShadow_487_6198" result="shape"/>
</filter>
</defs>
</svg>
