<svg width="497" height="497" viewBox="0 0 497 497" fill="none" xmlns="http://www.w3.org/2000/svg">
<g filter="url(#filter0_d_487_6018)">
<path fill-rule="evenodd" clip-rule="evenodd" d="M379.906 6H339.094C333.424 19.5108 320.07 29 304.5 29C288.93 29 275.576 19.5108 269.906 6H229.094C223.424 19.5108 210.07 29 194.5 29C178.93 29 165.576 19.5108 159.906 6H119.094C113.424 19.5108 100.07 29 84.5 29C68.9298 29 55.576 19.5108 49.9062 6H10V46.3432C22.9767 52.2412 32 65.3169 32 80.5C32 95.6831 22.9767 108.759 10 114.657V156.343C22.9767 162.241 32 175.317 32 190.5C32 205.683 22.9767 218.759 10 224.657V266.343C22.9767 272.241 32 285.317 32 300.5C32 315.683 22.9767 328.759 10 334.657V376.343C22.9767 382.241 32 395.317 32 410.5C32 425.683 22.9767 438.759 10 444.657V483H46.7962C51.6513 467.915 65.801 457 82.5 457C99.1991 457 113.349 467.915 118.204 483H156.796C161.651 467.915 175.801 457 192.5 457C209.199 457 223.349 467.915 228.204 483H266.796C271.651 467.915 285.801 457 302.5 457C319.199 457 333.349 467.915 338.204 483H376.796C381.651 467.915 395.801 457 412.5 457C429.199 457 443.349 467.915 448.204 483H487V441.675C475.105 435.387 467 422.89 467 408.5C467 394.11 475.105 381.613 487 375.325V331.675C475.105 325.387 467 312.89 467 298.5C467 284.11 475.105 271.613 487 265.325V221.675C475.105 215.387 467 202.89 467 188.5C467 174.11 475.105 161.613 487 155.325V111.675C475.105 105.387 467 92.8902 467 78.5C467 64.1098 475.105 51.6127 487 45.3252V6H449.094C443.424 19.5108 430.07 29 414.5 29C398.93 29 385.576 19.5108 379.906 6Z" fill="#83D6F1"/>
</g>
<rect x="62" y="46" width="385" height="385" rx="10" fill="#92E4FF"/>
<path d="M289.815 318.49C290.823 318.49 291.543 318.292 291.975 317.896C292.407 317.5 292.677 316.942 292.785 316.222C292.929 315.466 293.001 314.62 293.001 313.684V304.72C293.001 304.072 293.019 303.334 293.055 302.506C293.091 301.642 293.145 300.814 293.217 300.022C292.641 300.058 291.957 300.094 291.165 300.13C290.409 300.13 289.833 300.148 289.437 300.184V296.08C291.093 296.08 292.497 295.99 293.649 295.81C294.801 295.63 295.701 295.414 296.349 295.162C297.033 294.91 297.501 294.676 297.753 294.46H300.669V313.306C300.669 313.81 300.651 314.53 300.615 315.466C300.579 316.366 300.525 317.23 300.453 318.058C301.029 317.986 301.659 317.95 302.343 317.95C303.063 317.914 303.603 317.896 303.963 317.896V322H289.815V318.49ZM296.565 290.194C295.341 290.194 294.333 289.762 293.541 288.898C292.749 288.034 292.353 286.99 292.353 285.766C292.353 284.542 292.767 283.498 293.595 282.634C294.423 281.77 295.395 281.338 296.511 281.338C297.663 281.338 298.617 281.77 299.373 282.634C300.165 283.498 300.561 284.542 300.561 285.766C300.561 286.99 300.201 288.034 299.481 288.898C298.761 289.762 297.789 290.194 296.565 290.194ZM312.881 322V318.49C313.889 318.49 314.609 318.292 315.041 317.896C315.473 317.5 315.743 316.942 315.851 316.222C315.995 315.466 316.067 314.62 316.067 313.684V304.612C316.067 303.964 316.085 303.244 316.121 302.452C316.157 301.624 316.211 300.814 316.283 300.022C315.707 300.058 315.023 300.094 314.231 300.13C313.475 300.13 312.899 300.148 312.503 300.184V296.08C314.159 296.08 315.563 295.99 316.715 295.81C317.867 295.63 318.767 295.414 319.415 295.162C320.099 294.91 320.567 294.676 320.819 294.46H323.465C323.537 294.928 323.573 295.27 323.573 295.486C323.573 295.702 323.573 295.918 323.573 296.134C323.609 296.314 323.681 296.656 323.789 297.16C324.509 296.584 325.337 296.08 326.273 295.648C327.209 295.18 328.145 294.82 329.081 294.568C330.017 294.28 330.845 294.136 331.565 294.136C334.877 294.136 337.217 295.09 338.585 296.998C339.989 298.87 340.691 301.894 340.691 306.07V313.306C340.691 313.81 340.673 314.53 340.637 315.466C340.601 316.366 340.547 317.23 340.475 318.058C341.087 317.986 341.735 317.95 342.419 317.95C343.103 317.914 343.625 317.896 343.985 317.896V322H329.837V318.49C330.845 318.49 331.565 318.292 331.997 317.896C332.465 317.5 332.753 316.942 332.861 316.222C333.005 315.466 333.077 314.62 333.077 313.684L333.023 306.016C333.023 303.676 332.681 301.948 331.997 300.832C331.349 299.68 330.233 299.104 328.649 299.104C327.749 299.104 326.849 299.302 325.949 299.698C325.085 300.094 324.347 300.562 323.735 301.102C323.735 301.606 323.735 302.128 323.735 302.668C323.735 303.172 323.735 303.676 323.735 304.18V313.306C323.735 313.81 323.717 314.53 323.681 315.466C323.645 316.366 323.591 317.23 323.519 318.058C324.095 317.986 324.725 317.95 325.409 317.95C326.129 317.914 326.669 317.896 327.029 317.896V322H312.881ZM355.959 293.434C355.959 289.078 356.913 285.964 358.821 284.092C360.729 282.184 363.303 281.23 366.543 281.23C368.235 281.23 369.585 281.482 370.593 281.986C371.601 282.454 372.321 283.048 372.753 283.768C373.185 284.488 373.401 285.226 373.401 285.982C373.401 286.918 373.113 287.746 372.537 288.466C371.961 289.186 371.133 289.564 370.053 289.6C369.009 289.636 368.199 289.366 367.623 288.79C367.047 288.178 366.759 287.422 366.759 286.522C366.759 286.342 366.759 286.162 366.759 285.982C366.795 285.802 366.831 285.622 366.867 285.442C366.687 285.262 366.471 285.154 366.219 285.118C366.003 285.046 365.805 285.01 365.625 285.01C365.049 285.01 364.599 285.19 364.275 285.55C363.951 285.874 363.735 286.288 363.627 286.792C363.519 287.296 363.465 287.818 363.465 288.358V295H369.513V299.158L363.519 299.32L363.573 313.198C363.573 313.702 363.555 314.44 363.519 315.412C363.483 316.348 363.429 317.23 363.357 318.058C363.969 317.986 364.653 317.95 365.409 317.95C366.201 317.914 366.777 317.896 367.137 317.896V322H352.719V318.49C353.727 318.49 354.447 318.292 354.879 317.896C355.347 317.5 355.635 316.942 355.743 316.222C355.887 315.466 355.959 314.62 355.959 313.684V299.428L352.017 299.482V295H355.959V293.434ZM390.858 322.864C388.266 322.864 385.926 322.306 383.838 321.19C381.75 320.074 380.094 318.49 378.87 316.438C377.682 314.35 377.088 311.902 377.088 309.094C377.088 306.106 377.7 303.496 378.924 301.264C380.184 298.996 381.84 297.25 383.892 296.026C385.98 294.766 388.248 294.136 390.696 294.136C393.288 294.136 395.61 294.694 397.662 295.81C399.714 296.926 401.334 298.528 402.522 300.616C403.71 302.668 404.304 305.134 404.304 308.014C404.304 311.038 403.728 313.666 402.576 315.898C401.424 318.13 399.84 319.858 397.824 321.082C395.808 322.27 393.486 322.864 390.858 322.864ZM391.074 319.03C392.514 318.994 393.594 318.49 394.314 317.518C395.07 316.546 395.592 315.322 395.88 313.846C396.168 312.37 396.312 310.876 396.312 309.364C396.312 308.032 396.204 306.682 395.988 305.314C395.808 303.946 395.502 302.704 395.07 301.588C394.638 300.472 394.044 299.572 393.288 298.888C392.568 298.204 391.668 297.88 390.588 297.916C389.184 297.952 388.068 298.456 387.24 299.428C386.448 300.4 385.872 301.624 385.512 303.1C385.188 304.54 385.026 306.052 385.026 307.636C385.026 309.472 385.224 311.272 385.62 313.036C386.016 314.8 386.646 316.258 387.51 317.41C388.41 318.526 389.598 319.066 391.074 319.03ZM178.826 382.864C177.278 382.864 175.766 382.666 174.29 382.27C172.814 381.874 171.662 381.37 170.834 380.758L170.942 382.378H166.838L166.622 373.09H170.132C170.24 374.17 170.672 375.16 171.428 376.06C172.184 376.96 173.174 377.68 174.398 378.22C175.622 378.724 176.99 378.976 178.502 378.976C179.114 378.976 179.69 378.886 180.23 378.706C180.806 378.526 181.274 378.238 181.634 377.842C182.03 377.41 182.228 376.888 182.228 376.276C182.228 375.592 181.976 375.034 181.472 374.602C181.004 374.17 180.302 373.756 179.366 373.36C178.466 372.964 177.332 372.514 175.964 372.01C174.848 371.578 173.714 371.128 172.562 370.66C171.446 370.192 170.402 369.634 169.43 368.986C168.494 368.302 167.738 367.474 167.162 366.502C166.586 365.494 166.298 364.27 166.298 362.83C166.298 361.786 166.496 360.76 166.892 359.752C167.288 358.708 167.9 357.772 168.728 356.944C169.556 356.08 170.6 355.396 171.86 354.892C173.156 354.388 174.686 354.136 176.45 354.136C177.422 354.136 178.52 354.298 179.744 354.622C181.004 354.91 182.066 355.36 182.93 355.972V354.406H187.034V363.964H183.524C183.308 362.704 182.858 361.624 182.174 360.724C181.526 359.824 180.68 359.14 179.636 358.672C178.592 358.168 177.422 357.916 176.126 357.916C175.226 357.916 174.398 358.132 173.642 358.564C172.922 358.996 172.562 359.734 172.562 360.778C172.562 361.606 172.85 362.272 173.426 362.776C174.002 363.244 174.794 363.64 175.802 363.964C176.81 364.288 177.926 364.666 179.15 365.098C180.986 365.71 182.606 366.43 184.01 367.258C185.45 368.086 186.584 369.094 187.412 370.282C188.24 371.434 188.654 372.856 188.654 374.548C188.654 376.42 188.186 377.968 187.25 379.192C186.314 380.416 185.09 381.334 183.578 381.946C182.102 382.558 180.518 382.864 178.826 382.864ZM203.793 396.634C202.425 396.634 201.255 396.22 200.283 395.392C199.347 394.6 198.879 393.538 198.879 392.206C198.879 391.234 199.185 390.37 199.797 389.614C200.445 388.894 201.273 388.516 202.281 388.48C203.073 388.444 203.739 388.696 204.279 389.236C204.855 389.812 205.143 390.586 205.143 391.558C205.143 391.666 205.143 391.774 205.143 391.882C205.143 391.99 205.125 392.116 205.089 392.26C205.161 392.26 205.251 392.242 205.359 392.206C205.683 392.098 206.025 391.792 206.385 391.288C206.781 390.82 207.159 390.19 207.519 389.398C207.915 388.57 208.293 387.634 208.653 386.59C209.049 385.582 209.391 384.52 209.679 383.404L201.147 366.286C200.139 364.27 199.473 362.758 199.149 361.75C198.861 360.706 198.663 359.788 198.555 358.996L196.071 359.104V355H209.517V358.456C208.185 358.6 207.447 359.104 207.303 359.968C207.195 360.832 207.357 361.732 207.789 362.668L213.081 374.764C213.441 373.828 213.909 372.388 214.485 370.444C215.061 368.464 215.745 366.322 216.537 364.018C216.681 363.55 216.861 363.01 217.077 362.398C217.329 361.75 217.599 361.12 217.887 360.508C218.175 359.86 218.481 359.338 218.805 358.942L215.727 359.104V355H225.339V358.456C224.223 358.708 223.287 359.392 222.531 360.508C221.811 361.624 221.163 362.992 220.587 364.612L213.837 383.89C212.829 386.806 211.875 389.2 210.975 391.072C210.075 392.98 209.067 394.384 207.951 395.284C206.835 396.184 205.449 396.634 203.793 396.634ZM245.577 382.864C244.029 382.864 242.517 382.666 241.041 382.27C239.565 381.874 238.413 381.37 237.585 380.758L237.693 382.378H233.589L233.373 373.09H236.883C236.991 374.17 237.423 375.16 238.179 376.06C238.935 376.96 239.925 377.68 241.149 378.22C242.373 378.724 243.741 378.976 245.253 378.976C245.865 378.976 246.441 378.886 246.981 378.706C247.557 378.526 248.025 378.238 248.385 377.842C248.781 377.41 248.979 376.888 248.979 376.276C248.979 375.592 248.727 375.034 248.223 374.602C247.755 374.17 247.053 373.756 246.117 373.36C245.217 372.964 244.083 372.514 242.715 372.01C241.599 371.578 240.465 371.128 239.313 370.66C238.197 370.192 237.153 369.634 236.181 368.986C235.245 368.302 234.489 367.474 233.913 366.502C233.337 365.494 233.049 364.27 233.049 362.83C233.049 361.786 233.247 360.76 233.643 359.752C234.039 358.708 234.651 357.772 235.479 356.944C236.307 356.08 237.351 355.396 238.611 354.892C239.907 354.388 241.437 354.136 243.201 354.136C244.173 354.136 245.271 354.298 246.495 354.622C247.755 354.91 248.817 355.36 249.681 355.972V354.406H253.785V363.964H250.275C250.059 362.704 249.609 361.624 248.925 360.724C248.277 359.824 247.431 359.14 246.387 358.672C245.343 358.168 244.173 357.916 242.877 357.916C241.977 357.916 241.149 358.132 240.393 358.564C239.673 358.996 239.313 359.734 239.313 360.778C239.313 361.606 239.601 362.272 240.177 362.776C240.753 363.244 241.545 363.64 242.553 363.964C243.561 364.288 244.677 364.666 245.901 365.098C247.737 365.71 249.357 366.43 250.761 367.258C252.201 368.086 253.335 369.094 254.163 370.282C254.991 371.434 255.405 372.856 255.405 374.548C255.405 376.42 254.937 377.968 254.001 379.192C253.065 380.416 251.841 381.334 250.329 381.946C248.853 382.558 247.269 382.864 245.577 382.864ZM275.458 382.864C274.378 382.864 273.334 382.738 272.326 382.486C271.354 382.234 270.454 381.766 269.626 381.082C268.834 380.362 268.204 379.318 267.736 377.95C267.268 376.582 267.034 374.764 267.034 372.496L267.142 359.482H263.47V355C264.586 354.964 265.666 354.586 266.71 353.866C267.754 353.146 268.636 352.21 269.356 351.058C270.112 349.906 270.616 348.7 270.868 347.44H274.864L274.81 355H281.668V359.158L274.81 359.32L274.756 372.604C274.756 373.432 274.828 374.26 274.972 375.088C275.152 375.88 275.476 376.546 275.944 377.086C276.412 377.59 277.096 377.842 277.996 377.842C278.5 377.842 279.184 377.662 280.048 377.302C280.948 376.942 281.902 376.042 282.91 374.602L285.502 377.032C284.53 378.472 283.522 379.588 282.478 380.38C281.434 381.172 280.426 381.748 279.454 382.108C278.518 382.468 277.69 382.684 276.97 382.756C276.25 382.828 275.746 382.864 275.458 382.864ZM305.271 382.864C302.643 382.864 300.321 382.288 298.305 381.136C296.289 379.948 294.723 378.292 293.607 376.168C292.491 374.008 291.933 371.47 291.933 368.554C291.933 366.034 292.491 363.676 293.607 361.48C294.723 359.284 296.289 357.52 298.305 356.188C300.357 354.82 302.733 354.136 305.433 354.136C306.945 354.136 308.421 354.352 309.861 354.784C311.301 355.18 312.597 355.882 313.749 356.89C314.937 357.898 315.873 359.266 316.557 360.994C317.277 362.722 317.619 364.882 317.583 367.474L299.871 367.798C299.871 369.742 300.105 371.488 300.573 373.036C301.077 374.584 301.887 375.808 303.003 376.708C304.119 377.608 305.613 378.058 307.485 378.058C308.205 378.058 309.015 377.932 309.915 377.68C310.851 377.428 311.787 377.014 312.723 376.438C313.695 375.826 314.595 375.016 315.423 374.008L317.853 376.276C316.557 378.112 315.171 379.516 313.695 380.488C312.219 381.424 310.743 382.054 309.267 382.378C307.827 382.702 306.495 382.864 305.271 382.864ZM300.195 364.018H310.131C310.095 362.506 309.879 361.318 309.483 360.454C309.123 359.554 308.619 358.906 307.971 358.51C307.323 358.114 306.567 357.916 305.703 357.916C304.119 357.916 302.877 358.492 301.977 359.644C301.077 360.76 300.483 362.218 300.195 364.018ZM326.929 382V378.49C327.937 378.49 328.657 378.292 329.089 377.896C329.521 377.5 329.791 376.942 329.899 376.222C330.043 375.466 330.115 374.62 330.115 373.684V364.612C330.115 363.964 330.133 363.244 330.169 362.452C330.205 361.624 330.259 360.814 330.331 360.022C329.755 360.058 329.071 360.094 328.279 360.13C327.523 360.13 326.947 360.148 326.551 360.184V356.08C328.207 356.08 329.611 355.99 330.763 355.81C331.915 355.63 332.815 355.414 333.463 355.162C334.147 354.91 334.615 354.676 334.867 354.46H337.513C337.585 354.82 337.621 355.27 337.621 355.81C337.657 356.35 337.693 356.8 337.729 357.16C338.953 356.224 340.267 355.486 341.671 354.946C343.111 354.406 344.461 354.136 345.721 354.136C347.377 354.136 348.745 354.442 349.825 355.054C350.905 355.63 351.769 356.512 352.417 357.7C353.713 356.62 355.135 355.756 356.683 355.108C358.267 354.46 359.779 354.136 361.219 354.136C364.135 354.136 366.331 354.982 367.807 356.674C369.319 358.33 370.075 361.228 370.075 365.368V373.306C370.075 373.81 370.057 374.53 370.021 375.466C369.985 376.366 369.931 377.23 369.859 378.058C370.435 377.986 371.065 377.95 371.749 377.95C372.469 377.914 373.009 377.896 373.369 377.896V382H359.707V378.49C360.535 378.49 361.129 378.292 361.489 377.896C361.885 377.5 362.137 376.942 362.245 376.222C362.353 375.466 362.407 374.62 362.407 373.684V365.422C362.371 363.082 361.975 361.462 361.219 360.562C360.499 359.662 359.527 359.194 358.303 359.158C357.367 359.122 356.485 359.284 355.657 359.644C354.865 360.004 354.145 360.436 353.497 360.94C353.677 361.66 353.803 362.452 353.875 363.316C353.947 364.18 353.983 365.098 353.983 366.07C353.983 367.294 353.983 368.5 353.983 369.688C353.983 370.876 353.983 372.082 353.983 373.306C353.983 373.81 353.965 374.53 353.929 375.466C353.893 376.366 353.839 377.23 353.767 378.058C354.343 377.986 354.973 377.95 355.657 377.95C356.341 377.914 356.881 377.896 357.277 377.896V382H343.345V378.49C344.281 378.49 344.947 378.292 345.343 377.896C345.775 377.5 346.045 376.942 346.153 376.222C346.261 375.466 346.315 374.62 346.315 373.684L346.261 365.26C346.261 362.92 345.919 361.318 345.235 360.454C344.551 359.59 343.597 359.14 342.373 359.104C341.473 359.104 340.627 359.302 339.835 359.698C339.079 360.094 338.395 360.562 337.783 361.102C337.783 361.57 337.783 362.02 337.783 362.452C337.783 362.884 337.783 363.334 337.783 363.802V373.306C337.783 373.81 337.765 374.53 337.729 375.466C337.693 376.366 337.639 377.23 337.567 378.058C338.143 377.986 338.737 377.95 339.349 377.95C339.961 377.914 340.447 377.896 340.807 377.896V382H326.929ZM394.425 382.864C392.877 382.864 391.365 382.666 389.889 382.27C388.413 381.874 387.261 381.37 386.433 380.758L386.541 382.378H382.437L382.221 373.09H385.731C385.839 374.17 386.271 375.16 387.027 376.06C387.783 376.96 388.773 377.68 389.997 378.22C391.221 378.724 392.589 378.976 394.101 378.976C394.713 378.976 395.289 378.886 395.829 378.706C396.405 378.526 396.873 378.238 397.233 377.842C397.629 377.41 397.827 376.888 397.827 376.276C397.827 375.592 397.575 375.034 397.071 374.602C396.603 374.17 395.901 373.756 394.965 373.36C394.065 372.964 392.931 372.514 391.563 372.01C390.447 371.578 389.313 371.128 388.161 370.66C387.045 370.192 386.001 369.634 385.029 368.986C384.093 368.302 383.337 367.474 382.761 366.502C382.185 365.494 381.897 364.27 381.897 362.83C381.897 361.786 382.095 360.76 382.491 359.752C382.887 358.708 383.499 357.772 384.327 356.944C385.155 356.08 386.199 355.396 387.459 354.892C388.755 354.388 390.285 354.136 392.049 354.136C393.021 354.136 394.119 354.298 395.343 354.622C396.603 354.91 397.665 355.36 398.529 355.972V354.406H402.633V363.964H399.123C398.907 362.704 398.457 361.624 397.773 360.724C397.125 359.824 396.279 359.14 395.235 358.672C394.191 358.168 393.021 357.916 391.725 357.916C390.825 357.916 389.997 358.132 389.241 358.564C388.521 358.996 388.161 359.734 388.161 360.778C388.161 361.606 388.449 362.272 389.025 362.776C389.601 363.244 390.393 363.64 391.401 363.964C392.409 364.288 393.525 364.666 394.749 365.098C396.585 365.71 398.205 366.43 399.609 367.258C401.049 368.086 402.183 369.094 403.011 370.282C403.839 371.434 404.253 372.856 404.253 374.548C404.253 376.42 403.785 377.968 402.849 379.192C401.913 380.416 400.689 381.334 399.177 381.946C397.701 382.558 396.117 382.864 394.425 382.864Z" fill="#22687E"/>
<path d="M231.72 196.784L174.12 171.696V160.304L231.72 134.704V147.504L190.632 165.68L231.72 183.856V196.784ZM250.059 240.688L240.075 234.16L311.499 109.36L323.147 116.784L250.059 240.688ZM331.495 134.704L389.095 159.792V171.184L331.495 196.784V183.984L372.583 165.808L331.495 147.632V134.704Z" fill="#42A3C1"/>
<defs>
<filter id="filter0_d_487_6018" x="0" y="0" width="497" height="497" filterUnits="userSpaceOnUse" color-interpolation-filters="sRGB">
<feFlood flood-opacity="0" result="BackgroundImageFix"/>
<feColorMatrix in="SourceAlpha" type="matrix" values="0 0 0 0 0 0 0 0 0 0 0 0 0 0 0 0 0 0 127 0" result="hardAlpha"/>
<feOffset dy="4"/>
<feGaussianBlur stdDeviation="5"/>
<feComposite in2="hardAlpha" operator="out"/>
<feColorMatrix type="matrix" values="0 0 0 0 0 0 0 0 0 0 0 0 0 0 0 0 0 0 0.1 0"/>
<feBlend mode="normal" in2="BackgroundImageFix" result="effect1_dropShadow_487_6018"/>
<feBlend mode="normal" in="SourceGraphic" in2="effect1_dropShadow_487_6018" result="shape"/>
</filter>
</defs>
</svg>
