<svg width="497" height="497" viewBox="0 0 497 497" fill="none" xmlns="http://www.w3.org/2000/svg">
<g filter="url(#filter0_d_487_6044)">
<path fill-rule="evenodd" clip-rule="evenodd" d="M379.906 6H339.094C333.424 19.5108 320.07 29 304.5 29C288.93 29 275.576 19.5108 269.906 6H229.094C223.424 19.5108 210.07 29 194.5 29C178.93 29 165.576 19.5108 159.906 6H119.094C113.424 19.5108 100.07 29 84.5 29C68.9298 29 55.576 19.5108 49.9062 6H10V46.3432C22.9767 52.2412 32 65.3169 32 80.5C32 95.6831 22.9767 108.759 10 114.657V156.343C22.9767 162.241 32 175.317 32 190.5C32 205.683 22.9767 218.759 10 224.657V266.343C22.9767 272.241 32 285.317 32 300.5C32 315.683 22.9767 328.759 10 334.657V376.343C22.9767 382.241 32 395.317 32 410.5C32 425.683 22.9767 438.759 10 444.657V483H46.7962C51.6513 467.915 65.801 457 82.5 457C99.1991 457 113.349 467.915 118.204 483H156.796C161.651 467.915 175.801 457 192.5 457C209.199 457 223.349 467.915 228.204 483H266.796C271.651 467.915 285.801 457 302.5 457C319.199 457 333.349 467.915 338.204 483H376.796C381.651 467.915 395.801 457 412.5 457C429.199 457 443.349 467.915 448.204 483H487V441.675C475.105 435.387 467 422.89 467 408.5C467 394.11 475.105 381.613 487 375.325V331.675C475.105 325.387 467 312.89 467 298.5C467 284.11 475.105 271.613 487 265.325V221.675C475.105 215.387 467 202.89 467 188.5C467 174.11 475.105 161.613 487 155.325V111.675C475.105 105.387 467 92.8902 467 78.5C467 64.1098 475.105 51.6127 487 45.3252V6H449.094C443.424 19.5108 430.07 29 414.5 29C398.93 29 385.576 19.5108 379.906 6Z" fill="#83D6F1"/>
</g>
<rect x="62" y="46" width="385" height="385" rx="10" fill="#92E4FF"/>
<path d="M125.778 333.49C126.786 333.49 127.506 333.292 127.938 332.896C128.37 332.5 128.64 331.942 128.748 331.222C128.892 330.466 128.964 329.62 128.964 328.684V319.72C128.964 319.072 128.982 318.334 129.018 317.506C129.054 316.642 129.108 315.814 129.18 315.022C128.604 315.058 127.92 315.094 127.128 315.13C126.372 315.13 125.796 315.148 125.4 315.184V311.08C127.056 311.08 128.46 310.99 129.612 310.81C130.764 310.63 131.664 310.414 132.312 310.162C132.996 309.91 133.464 309.676 133.716 309.46H136.632V328.306C136.632 328.81 136.614 329.53 136.578 330.466C136.542 331.366 136.488 332.23 136.416 333.058C136.992 332.986 137.622 332.95 138.306 332.95C139.026 332.914 139.566 332.896 139.926 332.896V337H125.778V333.49ZM132.528 305.194C131.304 305.194 130.296 304.762 129.504 303.898C128.712 303.034 128.316 301.99 128.316 300.766C128.316 299.542 128.73 298.498 129.558 297.634C130.386 296.77 131.358 296.338 132.474 296.338C133.626 296.338 134.58 296.77 135.336 297.634C136.128 298.498 136.524 299.542 136.524 300.766C136.524 301.99 136.164 303.034 135.444 303.898C134.724 304.762 133.752 305.194 132.528 305.194ZM148.844 337V333.49C149.852 333.49 150.572 333.292 151.004 332.896C151.436 332.5 151.706 331.942 151.814 331.222C151.958 330.466 152.03 329.62 152.03 328.684V319.612C152.03 318.964 152.048 318.244 152.084 317.452C152.12 316.624 152.174 315.814 152.246 315.022C151.67 315.058 150.986 315.094 150.194 315.13C149.438 315.13 148.862 315.148 148.466 315.184V311.08C150.122 311.08 151.526 310.99 152.678 310.81C153.83 310.63 154.73 310.414 155.378 310.162C156.062 309.91 156.53 309.676 156.782 309.46H159.428C159.5 309.928 159.536 310.27 159.536 310.486C159.536 310.702 159.536 310.918 159.536 311.134C159.572 311.314 159.644 311.656 159.752 312.16C160.472 311.584 161.3 311.08 162.236 310.648C163.172 310.18 164.108 309.82 165.044 309.568C165.98 309.28 166.808 309.136 167.528 309.136C170.84 309.136 173.18 310.09 174.548 311.998C175.952 313.87 176.654 316.894 176.654 321.07V328.306C176.654 328.81 176.636 329.53 176.6 330.466C176.564 331.366 176.51 332.23 176.438 333.058C177.05 332.986 177.698 332.95 178.382 332.95C179.066 332.914 179.588 332.896 179.948 332.896V337H165.8V333.49C166.808 333.49 167.528 333.292 167.96 332.896C168.428 332.5 168.716 331.942 168.824 331.222C168.968 330.466 169.04 329.62 169.04 328.684L168.986 321.016C168.986 318.676 168.644 316.948 167.96 315.832C167.312 314.68 166.196 314.104 164.612 314.104C163.712 314.104 162.812 314.302 161.912 314.698C161.048 315.094 160.31 315.562 159.698 316.102C159.698 316.606 159.698 317.128 159.698 317.668C159.698 318.172 159.698 318.676 159.698 319.18V328.306C159.698 328.81 159.68 329.53 159.644 330.466C159.608 331.366 159.554 332.23 159.482 333.058C160.058 332.986 160.688 332.95 161.372 332.95C162.092 332.914 162.632 332.896 162.992 332.896V337H148.844ZM191.922 308.434C191.922 304.078 192.876 300.964 194.784 299.092C196.692 297.184 199.266 296.23 202.506 296.23C204.198 296.23 205.548 296.482 206.556 296.986C207.564 297.454 208.284 298.048 208.716 298.768C209.148 299.488 209.364 300.226 209.364 300.982C209.364 301.918 209.076 302.746 208.5 303.466C207.924 304.186 207.096 304.564 206.016 304.6C204.972 304.636 204.162 304.366 203.586 303.79C203.01 303.178 202.722 302.422 202.722 301.522C202.722 301.342 202.722 301.162 202.722 300.982C202.758 300.802 202.794 300.622 202.83 300.442C202.65 300.262 202.434 300.154 202.182 300.118C201.966 300.046 201.768 300.01 201.588 300.01C201.012 300.01 200.562 300.19 200.238 300.55C199.914 300.874 199.698 301.288 199.59 301.792C199.482 302.296 199.428 302.818 199.428 303.358V310H205.476V314.158L199.482 314.32L199.536 328.198C199.536 328.702 199.518 329.44 199.482 330.412C199.446 331.348 199.392 332.23 199.32 333.058C199.932 332.986 200.616 332.95 201.372 332.95C202.164 332.914 202.74 332.896 203.1 332.896V337H188.682V333.49C189.69 333.49 190.41 333.292 190.842 332.896C191.31 332.5 191.598 331.942 191.706 331.222C191.85 330.466 191.922 329.62 191.922 328.684V314.428L187.98 314.482V310H191.922V308.434ZM226.821 337.864C224.229 337.864 221.889 337.306 219.801 336.19C217.713 335.074 216.057 333.49 214.833 331.438C213.645 329.35 213.051 326.902 213.051 324.094C213.051 321.106 213.663 318.496 214.887 316.264C216.147 313.996 217.803 312.25 219.855 311.026C221.943 309.766 224.211 309.136 226.659 309.136C229.251 309.136 231.573 309.694 233.625 310.81C235.677 311.926 237.297 313.528 238.485 315.616C239.673 317.668 240.267 320.134 240.267 323.014C240.267 326.038 239.691 328.666 238.539 330.898C237.387 333.13 235.803 334.858 233.787 336.082C231.771 337.27 229.449 337.864 226.821 337.864ZM227.037 334.03C228.477 333.994 229.557 333.49 230.277 332.518C231.033 331.546 231.555 330.322 231.843 328.846C232.131 327.37 232.275 325.876 232.275 324.364C232.275 323.032 232.167 321.682 231.951 320.314C231.771 318.946 231.465 317.704 231.033 316.588C230.601 315.472 230.007 314.572 229.251 313.888C228.531 313.204 227.631 312.88 226.551 312.916C225.147 312.952 224.031 313.456 223.203 314.428C222.411 315.4 221.835 316.624 221.475 318.1C221.151 319.54 220.989 321.052 220.989 322.636C220.989 324.472 221.187 326.272 221.583 328.036C221.979 329.8 222.609 331.258 223.473 332.41C224.373 333.526 225.561 334.066 227.037 334.03ZM279.854 337.864C278.774 337.864 277.73 337.738 276.722 337.486C275.75 337.234 274.85 336.766 274.022 336.082C273.23 335.362 272.6 334.318 272.132 332.95C271.664 331.582 271.43 329.764 271.43 327.496L271.538 314.482H267.866V310C268.982 309.964 270.062 309.586 271.106 308.866C272.15 308.146 273.032 307.21 273.752 306.058C274.508 304.906 275.012 303.7 275.264 302.44H279.26L279.206 310H286.064V314.158L279.206 314.32L279.152 327.604C279.152 328.432 279.224 329.26 279.368 330.088C279.548 330.88 279.872 331.546 280.34 332.086C280.808 332.59 281.492 332.842 282.392 332.842C282.896 332.842 283.58 332.662 284.444 332.302C285.344 331.942 286.298 331.042 287.306 329.602L289.898 332.032C288.926 333.472 287.918 334.588 286.874 335.38C285.83 336.172 284.822 336.748 283.85 337.108C282.914 337.468 282.086 337.684 281.366 337.756C280.646 337.828 280.142 337.864 279.854 337.864ZM309.667 337.864C307.039 337.864 304.717 337.288 302.701 336.136C300.685 334.948 299.119 333.292 298.003 331.168C296.887 329.008 296.329 326.47 296.329 323.554C296.329 321.034 296.887 318.676 298.003 316.48C299.119 314.284 300.685 312.52 302.701 311.188C304.753 309.82 307.129 309.136 309.829 309.136C311.341 309.136 312.817 309.352 314.257 309.784C315.697 310.18 316.993 310.882 318.145 311.89C319.333 312.898 320.269 314.266 320.953 315.994C321.673 317.722 322.015 319.882 321.979 322.474L304.267 322.798C304.267 324.742 304.501 326.488 304.969 328.036C305.473 329.584 306.283 330.808 307.399 331.708C308.515 332.608 310.009 333.058 311.881 333.058C312.601 333.058 313.411 332.932 314.311 332.68C315.247 332.428 316.183 332.014 317.119 331.438C318.091 330.826 318.991 330.016 319.819 329.008L322.249 331.276C320.953 333.112 319.567 334.516 318.091 335.488C316.615 336.424 315.139 337.054 313.663 337.378C312.223 337.702 310.891 337.864 309.667 337.864ZM304.591 319.018H314.527C314.491 317.506 314.275 316.318 313.879 315.454C313.519 314.554 313.015 313.906 312.367 313.51C311.719 313.114 310.963 312.916 310.099 312.916C308.515 312.916 307.273 313.492 306.373 314.644C305.473 315.76 304.879 317.218 304.591 319.018ZM344.07 337.864C341.658 337.864 339.444 337.324 337.428 336.244C335.412 335.164 333.792 333.598 332.568 331.546C331.38 329.494 330.786 327.01 330.786 324.094C330.786 322.042 331.128 320.116 331.812 318.316C332.496 316.516 333.45 314.932 334.674 313.564C335.934 312.196 337.41 311.116 339.102 310.324C340.83 309.532 342.738 309.136 344.826 309.136C347.13 309.136 349.038 309.496 350.55 310.216C352.098 310.9 353.25 311.818 354.006 312.97C354.798 314.086 355.194 315.274 355.194 316.534C355.194 317.578 354.87 318.514 354.222 319.342C353.61 320.134 352.728 320.548 351.576 320.584C350.208 320.62 349.254 320.242 348.714 319.45C348.174 318.622 347.904 317.83 347.904 317.074C347.904 316.75 347.958 316.372 348.066 315.94C348.174 315.472 348.336 315.058 348.552 314.698C348.3 314.158 347.922 313.762 347.418 313.51C346.914 313.258 346.392 313.096 345.852 313.024C345.348 312.916 344.934 312.88 344.61 312.916C342.882 313.024 341.46 313.888 340.344 315.508C339.228 317.128 338.67 319.468 338.67 322.528C338.67 324.328 338.886 326.02 339.318 327.604C339.786 329.152 340.542 330.43 341.586 331.438C342.63 332.446 344.034 332.986 345.798 333.058C347.31 333.094 348.786 332.734 350.226 331.978C351.666 331.222 352.89 330.196 353.898 328.9L356.382 331.33C355.086 333.13 353.736 334.498 352.332 335.434C350.928 336.37 349.524 337 348.12 337.324C346.752 337.684 345.402 337.864 344.07 337.864ZM380.767 333.49C381.775 333.49 382.495 333.292 382.927 332.896C383.395 332.5 383.683 331.942 383.791 331.222C383.935 330.466 384.007 329.62 384.007 328.684L383.953 321.016C383.953 318.676 383.593 316.948 382.873 315.832C382.189 314.68 381.091 314.104 379.579 314.104C378.679 314.104 377.779 314.302 376.879 314.698C376.015 315.094 375.277 315.562 374.665 316.102V328.306C374.665 328.81 374.647 329.53 374.611 330.466C374.575 331.366 374.521 332.23 374.449 333.058C375.061 332.986 375.709 332.95 376.393 332.95C377.077 332.914 377.599 332.896 377.959 332.896V337H363.811V333.49C364.819 333.49 365.539 333.292 365.971 332.896C366.439 332.5 366.727 331.942 366.835 331.222C366.943 330.466 366.997 329.62 366.997 328.684V306.49C366.997 305.842 367.015 305.104 367.051 304.276C367.087 303.412 367.141 302.584 367.213 301.792C366.637 301.828 365.953 301.864 365.161 301.9C364.405 301.9 363.829 301.918 363.433 301.954V297.85C365.125 297.85 366.529 297.76 367.645 297.58C368.797 297.4 369.697 297.184 370.345 296.932C371.029 296.68 371.497 296.446 371.749 296.23H374.665V312.16C375.385 311.584 376.213 311.08 377.149 310.648C378.085 310.18 379.039 309.82 380.011 309.568C380.983 309.28 381.829 309.136 382.549 309.136C385.861 309.136 388.201 310.09 389.569 311.998C390.937 313.87 391.639 316.894 391.675 321.07V328.306C391.675 328.81 391.657 329.53 391.621 330.466C391.585 331.366 391.531 332.23 391.459 333.058C392.035 332.986 392.665 332.95 393.349 332.95C394.033 332.914 394.573 332.896 394.969 332.896V337H380.767V333.49Z" fill="#22687E"/>
<path d="M212.72 218.784L155.12 193.696V182.304L212.72 156.704V169.504L171.632 187.68L212.72 205.856V218.784ZM231.059 262.688L221.075 256.16L292.499 131.36L304.147 138.784L231.059 262.688ZM312.495 156.704L370.095 181.792V193.184L312.495 218.784V205.984L353.583 187.808L312.495 169.632V156.704Z" fill="#42A3C1"/>
<defs>
<filter id="filter0_d_487_6044" x="0" y="0" width="497" height="497" filterUnits="userSpaceOnUse" color-interpolation-filters="sRGB">
<feFlood flood-opacity="0" result="BackgroundImageFix"/>
<feColorMatrix in="SourceAlpha" type="matrix" values="0 0 0 0 0 0 0 0 0 0 0 0 0 0 0 0 0 0 127 0" result="hardAlpha"/>
<feOffset dy="4"/>
<feGaussianBlur stdDeviation="5"/>
<feComposite in2="hardAlpha" operator="out"/>
<feColorMatrix type="matrix" values="0 0 0 0 0 0 0 0 0 0 0 0 0 0 0 0 0 0 0.1 0"/>
<feBlend mode="normal" in2="BackgroundImageFix" result="effect1_dropShadow_487_6044"/>
<feBlend mode="normal" in="SourceGraphic" in2="effect1_dropShadow_487_6044" result="shape"/>
</filter>
</defs>
</svg>
