<svg width="497" height="497" viewBox="0 0 497 497" fill="none" xmlns="http://www.w3.org/2000/svg">
<g filter="url(#filter0_d_487_5907)">
<path fill-rule="evenodd" clip-rule="evenodd" d="M379.906 6H339.094C333.424 19.5108 320.07 29 304.5 29C288.93 29 275.576 19.5108 269.906 6H229.094C223.424 19.5108 210.07 29 194.5 29C178.93 29 165.576 19.5108 159.906 6H119.094C113.424 19.5108 100.07 29 84.5 29C68.9298 29 55.576 19.5108 49.9062 6H10V46.3432C22.9767 52.2412 32 65.3169 32 80.5C32 95.6831 22.9767 108.759 10 114.657V156.343C22.9767 162.241 32 175.317 32 190.5C32 205.683 22.9767 218.759 10 224.657V266.343C22.9767 272.241 32 285.317 32 300.5C32 315.683 22.9767 328.759 10 334.657V376.343C22.9767 382.241 32 395.317 32 410.5C32 425.683 22.9767 438.759 10 444.657V483H46.7962C51.6513 467.915 65.801 457 82.5 457C99.1991 457 113.349 467.915 118.204 483H156.796C161.651 467.915 175.801 457 192.5 457C209.199 457 223.349 467.915 228.204 483H266.796C271.651 467.915 285.801 457 302.5 457C319.199 457 333.349 467.915 338.204 483H376.796C381.651 467.915 395.801 457 412.5 457C429.199 457 443.349 467.915 448.204 483H487V441.675C475.105 435.387 467 422.89 467 408.5C467 394.11 475.105 381.613 487 375.325V331.675C475.105 325.387 467 312.89 467 298.5C467 284.11 475.105 271.613 487 265.325V221.675C475.105 215.387 467 202.89 467 188.5C467 174.11 475.105 161.613 487 155.325V111.675C475.105 105.387 467 92.8902 467 78.5C467 64.1098 475.105 51.6127 487 45.3252V6H449.094C443.424 19.5108 430.07 29 414.5 29C398.93 29 385.576 19.5108 379.906 6Z" fill="#BAB2EC"/>
</g>
<rect x="62" y="46" width="385" height="385" rx="10" fill="#D1CAFF"/>
<path d="M219.44 331V327.49C220.448 327.49 221.168 327.292 221.6 326.896C222.032 326.5 222.302 325.942 222.41 325.222C222.554 324.466 222.626 323.62 222.626 322.684V313.612C222.626 312.964 222.644 312.244 222.68 311.452C222.716 310.624 222.77 309.814 222.842 309.022C222.266 309.058 221.582 309.094 220.79 309.13C220.034 309.13 219.458 309.148 219.062 309.184V305.08C220.718 305.08 222.122 304.99 223.274 304.81C224.426 304.63 225.326 304.414 225.974 304.162C226.658 303.91 227.126 303.676 227.378 303.46H230.024C230.096 303.82 230.132 304.27 230.132 304.81C230.168 305.35 230.204 305.8 230.24 306.16C231.464 305.224 232.778 304.486 234.182 303.946C235.622 303.406 236.972 303.136 238.232 303.136C239.888 303.136 241.256 303.442 242.336 304.054C243.416 304.63 244.28 305.512 244.928 306.7C246.224 305.62 247.646 304.756 249.194 304.108C250.778 303.46 252.29 303.136 253.73 303.136C256.646 303.136 258.842 303.982 260.318 305.674C261.83 307.33 262.586 310.228 262.586 314.368V322.306C262.586 322.81 262.568 323.53 262.532 324.466C262.496 325.366 262.442 326.23 262.37 327.058C262.946 326.986 263.576 326.95 264.26 326.95C264.98 326.914 265.52 326.896 265.88 326.896V331H252.218V327.49C253.046 327.49 253.64 327.292 254 326.896C254.396 326.5 254.648 325.942 254.756 325.222C254.864 324.466 254.918 323.62 254.918 322.684V314.422C254.882 312.082 254.486 310.462 253.73 309.562C253.01 308.662 252.038 308.194 250.814 308.158C249.878 308.122 248.996 308.284 248.168 308.644C247.376 309.004 246.656 309.436 246.008 309.94C246.188 310.66 246.314 311.452 246.386 312.316C246.458 313.18 246.494 314.098 246.494 315.07C246.494 316.294 246.494 317.5 246.494 318.688C246.494 319.876 246.494 321.082 246.494 322.306C246.494 322.81 246.476 323.53 246.44 324.466C246.404 325.366 246.35 326.23 246.278 327.058C246.854 326.986 247.484 326.95 248.168 326.95C248.852 326.914 249.392 326.896 249.788 326.896V331H235.856V327.49C236.792 327.49 237.458 327.292 237.854 326.896C238.286 326.5 238.556 325.942 238.664 325.222C238.772 324.466 238.826 323.62 238.826 322.684L238.772 314.26C238.772 311.92 238.43 310.318 237.746 309.454C237.062 308.59 236.108 308.14 234.884 308.104C233.984 308.104 233.138 308.302 232.346 308.698C231.59 309.094 230.906 309.562 230.294 310.102C230.294 310.57 230.294 311.02 230.294 311.452C230.294 311.884 230.294 312.334 230.294 312.802V322.306C230.294 322.81 230.276 323.53 230.24 324.466C230.204 325.366 230.15 326.23 230.078 327.058C230.654 326.986 231.248 326.95 231.86 326.95C232.472 326.914 232.958 326.896 233.318 326.896V331H219.44ZM289.528 331C289.456 330.496 289.402 330.082 289.366 329.758C289.366 329.398 289.348 328.984 289.312 328.516C288.088 329.74 286.792 330.604 285.424 331.108C284.056 331.612 282.67 331.864 281.266 331.864C278.962 331.864 277.162 331.18 275.866 329.812C274.57 328.444 273.922 326.734 273.922 324.682C273.922 322.954 274.354 321.478 275.218 320.254C276.118 319.03 277.288 318.04 278.728 317.284C280.204 316.492 281.824 315.898 283.588 315.502C285.388 315.07 287.188 314.818 288.988 314.746V311.938C288.988 311.002 288.862 310.156 288.61 309.4C288.394 308.644 287.998 308.05 287.422 307.618C286.882 307.186 286.108 306.988 285.1 307.024C284.416 307.06 283.75 307.204 283.102 307.456C282.454 307.708 281.896 308.068 281.428 308.536C281.716 308.86 281.896 309.22 281.968 309.616C282.04 309.976 282.076 310.3 282.076 310.588C282.076 311.308 281.788 312.064 281.212 312.856C280.636 313.612 279.718 313.972 278.458 313.936C277.378 313.9 276.55 313.522 275.974 312.802C275.398 312.082 275.11 311.236 275.11 310.264C275.11 308.824 275.614 307.582 276.622 306.538C277.666 305.458 279.052 304.63 280.78 304.054C282.508 303.442 284.416 303.136 286.504 303.136C289.672 303.136 292.12 303.964 293.848 305.62C295.612 307.24 296.494 309.85 296.494 313.45C296.494 314.674 296.494 315.718 296.494 316.582C296.494 317.446 296.476 318.31 296.44 319.174C296.44 320.038 296.44 321.082 296.44 322.306C296.44 322.81 296.422 323.53 296.386 324.466C296.35 325.366 296.296 326.23 296.224 327.058C296.836 326.986 297.484 326.95 298.168 326.95C298.852 326.914 299.374 326.896 299.734 326.896V331H289.528ZM288.934 318.58C287.926 318.688 286.972 318.868 286.072 319.12C285.172 319.372 284.38 319.714 283.696 320.146C283.048 320.578 282.526 321.1 282.13 321.712C281.77 322.324 281.59 323.008 281.59 323.764C281.626 324.772 281.95 325.492 282.562 325.924C283.174 326.356 283.876 326.572 284.668 326.572C285.496 326.572 286.27 326.392 286.99 326.032C287.71 325.672 288.358 325.204 288.934 324.628C288.934 324.268 288.934 323.926 288.934 323.602C288.934 323.242 288.934 322.882 288.934 322.522C288.934 321.874 288.934 321.226 288.934 320.578C288.934 319.894 288.934 319.228 288.934 318.58ZM318.715 331.864C317.635 331.864 316.591 331.738 315.583 331.486C314.611 331.234 313.711 330.766 312.883 330.082C312.091 329.362 311.461 328.318 310.993 326.95C310.525 325.582 310.291 323.764 310.291 321.496L310.399 308.482H306.727V304C307.843 303.964 308.923 303.586 309.967 302.866C311.011 302.146 311.893 301.21 312.613 300.058C313.369 298.906 313.873 297.7 314.125 296.44H318.121L318.067 304H324.925V308.158L318.067 308.32L318.013 321.604C318.013 322.432 318.085 323.26 318.229 324.088C318.409 324.88 318.733 325.546 319.201 326.086C319.669 326.59 320.353 326.842 321.253 326.842C321.757 326.842 322.441 326.662 323.305 326.302C324.205 325.942 325.159 325.042 326.167 323.602L328.759 326.032C327.787 327.472 326.779 328.588 325.735 329.38C324.691 330.172 323.683 330.748 322.711 331.108C321.775 331.468 320.947 331.684 320.227 331.756C319.507 331.828 319.003 331.864 318.715 331.864ZM351.822 327.49C352.83 327.49 353.55 327.292 353.982 326.896C354.45 326.5 354.738 325.942 354.846 325.222C354.99 324.466 355.062 323.62 355.062 322.684L355.008 315.016C355.008 312.676 354.648 310.948 353.928 309.832C353.244 308.68 352.146 308.104 350.634 308.104C349.734 308.104 348.834 308.302 347.934 308.698C347.07 309.094 346.332 309.562 345.72 310.102V322.306C345.72 322.81 345.702 323.53 345.666 324.466C345.63 325.366 345.576 326.23 345.504 327.058C346.116 326.986 346.764 326.95 347.448 326.95C348.132 326.914 348.654 326.896 349.014 326.896V331H334.866V327.49C335.874 327.49 336.594 327.292 337.026 326.896C337.494 326.5 337.782 325.942 337.89 325.222C337.998 324.466 338.052 323.62 338.052 322.684V300.49C338.052 299.842 338.07 299.104 338.106 298.276C338.142 297.412 338.196 296.584 338.268 295.792C337.692 295.828 337.008 295.864 336.216 295.9C335.46 295.9 334.884 295.918 334.488 295.954V291.85C336.18 291.85 337.584 291.76 338.7 291.58C339.852 291.4 340.752 291.184 341.4 290.932C342.084 290.68 342.552 290.446 342.804 290.23H345.72V306.16C346.44 305.584 347.268 305.08 348.204 304.648C349.14 304.18 350.094 303.82 351.066 303.568C352.038 303.28 352.884 303.136 353.604 303.136C356.916 303.136 359.256 304.09 360.624 305.998C361.992 307.87 362.694 310.894 362.73 315.07V322.306C362.73 322.81 362.712 323.53 362.676 324.466C362.64 325.366 362.586 326.23 362.514 327.058C363.09 326.986 363.72 326.95 364.404 326.95C365.088 326.914 365.628 326.896 366.024 326.896V331H351.822V327.49ZM376.804 345.634L372.592 342.88L402.724 290.23L407.638 293.362L376.804 345.634ZM276.895 391.864C275.347 391.864 273.835 391.666 272.359 391.27C270.883 390.874 269.731 390.37 268.903 389.758L269.011 391.378H264.907L264.691 382.09H268.201C268.309 383.17 268.741 384.16 269.497 385.06C270.253 385.96 271.243 386.68 272.467 387.22C273.691 387.724 275.059 387.976 276.571 387.976C277.183 387.976 277.759 387.886 278.299 387.706C278.875 387.526 279.343 387.238 279.703 386.842C280.099 386.41 280.297 385.888 280.297 385.276C280.297 384.592 280.045 384.034 279.541 383.602C279.073 383.17 278.371 382.756 277.435 382.36C276.535 381.964 275.401 381.514 274.033 381.01C272.917 380.578 271.783 380.128 270.631 379.66C269.515 379.192 268.471 378.634 267.499 377.986C266.563 377.302 265.807 376.474 265.231 375.502C264.655 374.494 264.367 373.27 264.367 371.83C264.367 370.786 264.565 369.76 264.961 368.752C265.357 367.708 265.969 366.772 266.797 365.944C267.625 365.08 268.669 364.396 269.929 363.892C271.225 363.388 272.755 363.136 274.519 363.136C275.491 363.136 276.589 363.298 277.813 363.622C279.073 363.91 280.135 364.36 280.999 364.972V363.406H285.103V372.964H281.593C281.377 371.704 280.927 370.624 280.243 369.724C279.595 368.824 278.749 368.14 277.705 367.672C276.661 367.168 275.491 366.916 274.195 366.916C273.295 366.916 272.467 367.132 271.711 367.564C270.991 367.996 270.631 368.734 270.631 369.778C270.631 370.606 270.919 371.272 271.495 371.776C272.071 372.244 272.863 372.64 273.871 372.964C274.879 373.288 275.995 373.666 277.219 374.098C279.055 374.71 280.675 375.43 282.079 376.258C283.519 377.086 284.653 378.094 285.481 379.282C286.309 380.434 286.723 381.856 286.723 383.548C286.723 385.42 286.255 386.968 285.319 388.192C284.383 389.416 283.159 390.334 281.647 390.946C280.171 391.558 278.587 391.864 276.895 391.864ZM306.776 391.864C305.696 391.864 304.652 391.738 303.644 391.486C302.672 391.234 301.772 390.766 300.944 390.082C300.152 389.362 299.522 388.318 299.054 386.95C298.586 385.582 298.352 383.764 298.352 381.496L298.46 368.482H294.788V364C295.904 363.964 296.984 363.586 298.028 362.866C299.072 362.146 299.954 361.21 300.674 360.058C301.43 358.906 301.934 357.7 302.186 356.44H306.182L306.128 364H312.986V368.158L306.128 368.32L306.074 381.604C306.074 382.432 306.146 383.26 306.29 384.088C306.47 384.88 306.794 385.546 307.262 386.086C307.73 386.59 308.414 386.842 309.314 386.842C309.818 386.842 310.502 386.662 311.366 386.302C312.266 385.942 313.22 385.042 314.228 383.602L316.82 386.032C315.848 387.472 314.84 388.588 313.796 389.38C312.752 390.172 311.744 390.748 310.772 391.108C309.836 391.468 309.008 391.684 308.288 391.756C307.568 391.828 307.064 391.864 306.776 391.864ZM338.803 391C338.731 390.496 338.677 390.082 338.641 389.758C338.641 389.398 338.623 388.984 338.587 388.516C337.363 389.74 336.067 390.604 334.699 391.108C333.331 391.612 331.945 391.864 330.541 391.864C328.237 391.864 326.437 391.18 325.141 389.812C323.845 388.444 323.197 386.734 323.197 384.682C323.197 382.954 323.629 381.478 324.493 380.254C325.393 379.03 326.563 378.04 328.003 377.284C329.479 376.492 331.099 375.898 332.863 375.502C334.663 375.07 336.463 374.818 338.263 374.746V371.938C338.263 371.002 338.137 370.156 337.885 369.4C337.669 368.644 337.273 368.05 336.697 367.618C336.157 367.186 335.383 366.988 334.375 367.024C333.691 367.06 333.025 367.204 332.377 367.456C331.729 367.708 331.171 368.068 330.703 368.536C330.991 368.86 331.171 369.22 331.243 369.616C331.315 369.976 331.351 370.3 331.351 370.588C331.351 371.308 331.063 372.064 330.487 372.856C329.911 373.612 328.993 373.972 327.733 373.936C326.653 373.9 325.825 373.522 325.249 372.802C324.673 372.082 324.385 371.236 324.385 370.264C324.385 368.824 324.889 367.582 325.897 366.538C326.941 365.458 328.327 364.63 330.055 364.054C331.783 363.442 333.691 363.136 335.779 363.136C338.947 363.136 341.395 363.964 343.123 365.62C344.887 367.24 345.769 369.85 345.769 373.45C345.769 374.674 345.769 375.718 345.769 376.582C345.769 377.446 345.751 378.31 345.715 379.174C345.715 380.038 345.715 381.082 345.715 382.306C345.715 382.81 345.697 383.53 345.661 384.466C345.625 385.366 345.571 386.23 345.499 387.058C346.111 386.986 346.759 386.95 347.443 386.95C348.127 386.914 348.649 386.896 349.009 386.896V391H338.803ZM338.209 378.58C337.201 378.688 336.247 378.868 335.347 379.12C334.447 379.372 333.655 379.714 332.971 380.146C332.323 380.578 331.801 381.1 331.405 381.712C331.045 382.324 330.865 383.008 330.865 383.764C330.901 384.772 331.225 385.492 331.837 385.924C332.449 386.356 333.151 386.572 333.943 386.572C334.771 386.572 335.545 386.392 336.265 386.032C336.985 385.672 337.633 385.204 338.209 384.628C338.209 384.268 338.209 383.926 338.209 383.602C338.209 383.242 338.209 382.882 338.209 382.522C338.209 381.874 338.209 381.226 338.209 380.578C338.209 379.894 338.209 379.228 338.209 378.58ZM367.99 391.864C366.91 391.864 365.866 391.738 364.858 391.486C363.886 391.234 362.986 390.766 362.158 390.082C361.366 389.362 360.736 388.318 360.268 386.95C359.8 385.582 359.566 383.764 359.566 381.496L359.674 368.482H356.002V364C357.118 363.964 358.198 363.586 359.242 362.866C360.286 362.146 361.168 361.21 361.888 360.058C362.644 358.906 363.148 357.7 363.4 356.44H367.396L367.342 364H374.2V368.158L367.342 368.32L367.288 381.604C367.288 382.432 367.36 383.26 367.504 384.088C367.684 384.88 368.008 385.546 368.476 386.086C368.944 386.59 369.628 386.842 370.528 386.842C371.032 386.842 371.716 386.662 372.58 386.302C373.48 385.942 374.434 385.042 375.442 383.602L378.034 386.032C377.062 387.472 376.054 388.588 375.01 389.38C373.966 390.172 372.958 390.748 371.986 391.108C371.05 391.468 370.222 391.684 369.502 391.756C368.782 391.828 368.278 391.864 367.99 391.864ZM397.425 391.864C395.877 391.864 394.365 391.666 392.889 391.27C391.413 390.874 390.261 390.37 389.433 389.758L389.541 391.378H385.437L385.221 382.09H388.731C388.839 383.17 389.271 384.16 390.027 385.06C390.783 385.96 391.773 386.68 392.997 387.22C394.221 387.724 395.589 387.976 397.101 387.976C397.713 387.976 398.289 387.886 398.829 387.706C399.405 387.526 399.873 387.238 400.233 386.842C400.629 386.41 400.827 385.888 400.827 385.276C400.827 384.592 400.575 384.034 400.071 383.602C399.603 383.17 398.901 382.756 397.965 382.36C397.065 381.964 395.931 381.514 394.563 381.01C393.447 380.578 392.313 380.128 391.161 379.66C390.045 379.192 389.001 378.634 388.029 377.986C387.093 377.302 386.337 376.474 385.761 375.502C385.185 374.494 384.897 373.27 384.897 371.83C384.897 370.786 385.095 369.76 385.491 368.752C385.887 367.708 386.499 366.772 387.327 365.944C388.155 365.08 389.199 364.396 390.459 363.892C391.755 363.388 393.285 363.136 395.049 363.136C396.021 363.136 397.119 363.298 398.343 363.622C399.603 363.91 400.665 364.36 401.529 364.972V363.406H405.633V372.964H402.123C401.907 371.704 401.457 370.624 400.773 369.724C400.125 368.824 399.279 368.14 398.235 367.672C397.191 367.168 396.021 366.916 394.725 366.916C393.825 366.916 392.997 367.132 392.241 367.564C391.521 367.996 391.161 368.734 391.161 369.778C391.161 370.606 391.449 371.272 392.025 371.776C392.601 372.244 393.393 372.64 394.401 372.964C395.409 373.288 396.525 373.666 397.749 374.098C399.585 374.71 401.205 375.43 402.609 376.258C404.049 377.086 405.183 378.094 406.011 379.282C406.839 380.434 407.253 381.856 407.253 383.548C407.253 385.42 406.785 386.968 405.849 388.192C404.913 389.416 403.689 390.334 402.177 390.946C400.701 391.558 399.117 391.864 397.425 391.864Z" fill="#524797"/>
<path d="M115.5 79L116.008 262" stroke="#7B6EC6" stroke-width="10"/>
<path d="M97 230H412.5" stroke="#7B6EC6" stroke-width="10"/>
<path d="M101 93L116 80L130.5 93.5" stroke="#7B6EC6" stroke-width="10"/>
<path d="M380.384 155.323L399.974 158.523L398.886 178.305" stroke="#7B6EC6" stroke-width="10"/>
<path d="M101 251.5L116 264.5L130.5 251" stroke="#7B6EC6" stroke-width="10"/>
<path d="M103 244.5L90 229.5L103.5 215" stroke="#7B6EC6" stroke-width="10"/>
<path d="M399.5 244.5L412.5 229.5L399 215" stroke="#7B6EC6" stroke-width="10"/>
<path d="M116 132.5C122.167 122 125.5 97.9727 154.5 98.5C198.5 99.3 189 171 222.5 171C251.5 171 259.5 137 289.5 137C317 137 334.5 195.5 357 186.5C375 179.3 389.5 167.167 394.5 162" stroke="#7B6EC6" stroke-width="10"/>
<defs>
<filter id="filter0_d_487_5907" x="0" y="0" width="497" height="497" filterUnits="userSpaceOnUse" color-interpolation-filters="sRGB">
<feFlood flood-opacity="0" result="BackgroundImageFix"/>
<feColorMatrix in="SourceAlpha" type="matrix" values="0 0 0 0 0 0 0 0 0 0 0 0 0 0 0 0 0 0 127 0" result="hardAlpha"/>
<feOffset dy="4"/>
<feGaussianBlur stdDeviation="5"/>
<feComposite in2="hardAlpha" operator="out"/>
<feColorMatrix type="matrix" values="0 0 0 0 0 0 0 0 0 0 0 0 0 0 0 0 0 0 0.1 0"/>
<feBlend mode="normal" in2="BackgroundImageFix" result="effect1_dropShadow_487_5907"/>
<feBlend mode="normal" in="SourceGraphic" in2="effect1_dropShadow_487_5907" result="shape"/>
</filter>
</defs>
</svg>
