<svg width="528" height="379" viewBox="0 0 528 379" fill="none" xmlns="http://www.w3.org/2000/svg">
<g filter="url(#filter0_d_1023_182)">
<mask id="mask0_1023_182" style="mask-type:alpha" maskUnits="userSpaceOnUse" x="6" y="6" width="509" height="360">
<ellipse cx="260.25" cy="186" rx="180" ry="254.25" transform="rotate(90 260.25 186)" fill="#0A4153"/>
</mask>
<g mask="url(#mask0_1023_182)">
<ellipse cx="260.25" cy="186" rx="180" ry="254.25" transform="rotate(90 260.25 186)" fill="#524797"/>
<path d="M496.94 186C496.94 230.335 470.853 270.805 427.999 300.322C385.158 329.831 325.805 348.18 260.099 348.18C194.392 348.18 135.039 329.831 92.1982 300.322C49.3439 270.805 23.2569 230.335 23.2568 186C23.2568 141.666 49.3439 101.195 92.1982 71.6779C135.04 42.1696 194.392 23.8195 260.099 23.8195C325.805 23.8195 385.158 42.1696 427.999 71.6779C470.853 101.195 496.94 141.666 496.94 186Z" stroke="#D1CAFF" stroke-width="6.12"/>
<path d="M180.584 72.1016L175.99 57.4762L184.404 54.8329L184.92 56.4758L178.289 58.5589L179.711 63.0868L185.641 61.2239L186.151 62.8467L180.221 64.7096L181.851 69.8986L188.482 67.8154L188.999 69.4583L180.584 72.1016ZM202.872 65.8724C201.889 66.094 201.005 66.1209 200.221 65.9532C199.451 65.7824 198.805 65.4328 198.284 64.9043C197.763 64.3759 197.4 63.6899 197.196 62.8462L199.04 62.4307C199.209 63.1819 199.596 63.719 200.199 64.0422C200.817 64.3623 201.583 64.4192 202.498 64.213C203.359 64.0191 203.98 63.6566 204.363 63.1255C204.759 62.5913 204.872 61.9486 204.703 61.1975C204.568 60.5965 204.285 60.1077 203.856 59.7308C203.44 59.3509 202.912 59.1399 202.271 59.0978L200.1 58.9198C199.005 58.8365 198.094 58.4892 197.368 57.8778C196.655 57.2635 196.187 56.4578 195.962 55.4608C195.781 54.655 195.801 53.9184 196.024 53.2511C196.257 52.5671 196.665 51.9873 197.246 51.5118C197.825 51.0226 198.558 50.678 199.446 50.478C200.757 50.1825 201.892 50.3143 202.85 50.8733C203.805 51.4186 204.427 52.2975 204.714 53.5099L202.871 53.9254C202.704 53.1879 202.35 52.6651 201.807 52.3569C201.274 52.032 200.605 51.9604 199.799 52.142C199.007 52.3205 198.429 52.6517 198.064 53.1357C197.714 53.6166 197.615 54.1985 197.769 54.8814C197.908 55.496 198.191 55.9917 198.621 56.3685C199.05 56.7453 199.594 56.9601 200.251 57.0128L202.448 57.2067C203.515 57.2961 204.407 57.6549 205.123 58.2829C205.838 58.911 206.31 59.7303 206.538 60.741C206.722 61.5604 206.693 62.3206 206.449 63.0213C206.205 63.7221 205.773 64.3217 205.154 64.8201C204.548 65.3154 203.787 65.6662 202.872 65.8724ZM220.323 62.1581L218.387 48.6674L214.229 49.2641L213.985 47.5596L224.17 46.0975L224.415 47.8021L220.258 48.3988L222.194 61.8895L220.323 62.1581ZM240.018 60.0234C239.487 60.059 239.05 59.9339 238.709 59.6481C238.381 59.3614 238.199 58.9597 238.165 58.4428C238.128 57.8981 238.253 57.4547 238.539 57.1128C238.838 56.77 239.254 56.5808 239.784 56.5452C240.315 56.5096 240.745 56.6421 241.074 56.9428C241.417 57.2425 241.606 57.6648 241.643 58.2096C241.678 58.7264 241.545 59.1492 241.244 59.4781C240.957 59.806 240.548 59.9878 240.018 60.0234ZM273.375 59.257L273.531 57.3313L278.6 52.7488C279.465 51.962 280.105 51.2554 280.521 50.629C280.938 49.9886 281.171 49.3614 281.221 48.7474C281.29 47.8962 281.107 47.2072 280.672 46.6803C280.251 46.1546 279.636 45.859 278.827 45.7934C277.934 45.721 277.209 45.9151 276.652 46.3756C276.109 46.8373 275.801 47.5076 275.73 48.3868L273.846 48.2341C273.949 47.3154 274.223 46.537 274.668 45.8988C275.128 45.2478 275.721 44.7692 276.449 44.4629C277.19 44.1578 278.028 44.0431 278.963 44.1189C279.883 44.1935 280.664 44.4393 281.305 44.8564C281.96 45.2607 282.443 45.8054 282.752 46.4907C283.062 47.1759 283.18 47.9721 283.107 48.8791C283.036 49.7443 282.737 50.5838 282.207 51.3977C281.678 52.2116 280.846 53.1204 279.711 54.124L275.628 57.7119L282.598 58.2767L282.459 59.9931L273.375 59.257ZM296.464 61.8183C295.537 61.6717 294.757 61.3639 294.122 60.895C293.504 60.4145 293.061 59.8128 292.792 59.09C292.526 58.3533 292.464 57.5356 292.606 56.6368L293.656 49.9993C293.801 49.0867 294.112 48.328 294.591 47.7233C295.069 47.1187 295.675 46.6902 296.41 46.4378C297.16 46.1739 297.999 46.1152 298.925 46.2617C299.865 46.4105 300.645 46.7252 301.263 47.2057C301.884 47.6724 302.329 48.2672 302.597 48.99C302.865 49.7128 302.927 50.5306 302.783 51.4432L301.733 58.0807C301.591 58.9795 301.279 59.7382 300.799 60.3567C300.32 60.9613 299.706 61.3957 298.955 61.6596C298.221 61.912 297.39 61.9648 296.464 61.8183ZM296.717 60.2211C297.546 60.3524 298.252 60.1947 298.833 59.748C299.43 59.2896 299.795 58.6387 299.928 57.7952L300.978 51.1577C301.112 50.3142 300.964 49.5893 300.536 48.9828C300.123 48.3648 299.502 47.9901 298.672 47.8589C297.843 47.7276 297.129 47.8912 296.533 48.3495C295.952 48.7962 295.594 49.4413 295.461 50.2848L294.411 56.9223C294.277 57.7658 294.417 58.4966 294.829 59.1146C295.258 59.721 295.887 60.0899 296.717 60.2211ZM297.501 55.2638C297.128 55.2047 296.842 55.039 296.644 54.7668C296.46 54.4967 296.399 54.1681 296.46 53.7809C296.519 53.4075 296.677 53.1277 296.933 52.9415C297.205 52.7436 297.528 52.6742 297.901 52.7333C298.275 52.7923 298.553 52.9569 298.737 53.227C298.937 53.4854 299.008 53.8013 298.949 54.1747C298.888 54.5619 298.721 54.8544 298.449 55.0523C298.19 55.2523 297.874 55.3228 297.501 55.2638ZM310.766 64.0212L311.17 62.3473L315.212 63.323L318.036 51.626L313.265 53.6715L313.757 51.6302L317.732 49.9324L320.243 50.5385L317.049 63.7665L320.356 64.5649L319.952 66.2388L310.766 64.0212ZM333.192 70.0945C332.004 69.7193 331.126 69.1044 330.559 68.25C329.992 67.3956 329.807 66.4266 330.002 65.3432L331.804 65.9123C331.69 66.5075 331.795 67.0327 332.121 67.488C332.452 67.93 332.984 68.2669 333.718 68.4988C334.559 68.7644 335.258 68.7356 335.815 68.4124C336.386 68.0935 336.802 67.5201 337.063 66.6924L337.512 65.2706C337.774 64.4429 337.763 63.7347 337.479 63.1458C337.208 62.5612 336.659 62.1382 335.831 61.8768C335.311 61.7124 334.813 61.7092 334.337 61.8673C333.865 62.012 333.471 62.284 333.154 62.683L331.352 62.1139L334.007 54.0554L341.697 56.4839L341.178 58.1259L335.231 56.2476L333.634 61.0947L334.195 61.2718L333.47 61.6154C333.668 60.9879 334.071 60.572 334.678 60.3675C335.3 60.1673 336.031 60.2 336.872 60.4656C338.064 60.8275 338.869 61.4855 339.287 62.4397C339.723 63.3848 339.732 64.5181 339.315 65.8398L338.866 67.2616C338.457 68.5565 337.752 69.4643 336.75 69.985C335.753 70.4922 334.567 70.5288 333.192 70.0945Z" fill="#D1CAFF"/>
<path d="M172.433 88.5L172.761 206.883" stroke="#AB91F2" stroke-width="6.469"/>
<path d="M160.466 186.182H364.563" stroke="#AB91F2" stroke-width="6.469"/>
<path d="M163.053 97.5567L172.756 89.147L182.136 97.8801" stroke="#AB91F2" stroke-width="6.469"/>
<path d="M343.787 137.873L356.459 139.943L355.756 152.74" stroke="#AB91F2" stroke-width="6.469"/>
<path d="M163.053 200.09L172.756 208.5L182.136 199.767" stroke="#AB91F2" stroke-width="6.469"/>
<path d="M164.346 195.562L155.937 185.858L164.67 176.478" stroke="#AB91F2" stroke-width="6.469"/>
<path d="M356.153 195.562L364.562 185.858L355.829 176.478" stroke="#AB91F2" stroke-width="6.469"/>
<path d="M172.756 123.109C176.745 116.317 178.901 100.773 197.662 101.115C226.125 101.632 219.98 148.015 241.651 148.015C260.411 148.015 265.586 126.02 284.993 126.02C302.783 126.02 314.104 163.864 328.659 158.042C340.303 153.384 349.683 145.535 352.918 142.193" stroke="#AB91F2" stroke-width="6.469"/>
<path d="M200.064 262.5V231.84H205.65L208.716 241.668C209.024 242.592 209.29 243.488 209.514 244.356C209.738 245.196 209.892 245.826 209.976 246.246C210.088 245.826 210.242 245.196 210.438 244.356C210.662 243.488 210.914 242.592 211.194 241.668L214.134 231.84H219.72V262.5H215.436V252.168C215.436 250.852 215.464 249.396 215.52 247.8C215.604 246.176 215.716 244.552 215.856 242.928C215.996 241.276 216.136 239.708 216.276 238.224C216.416 236.712 216.542 235.396 216.654 234.276L212.118 249.186H207.75L203.13 234.276C203.27 235.368 203.41 236.642 203.55 238.098C203.69 239.526 203.816 241.052 203.928 242.676C204.04 244.3 204.138 245.938 204.222 247.59C204.306 249.214 204.348 250.74 204.348 252.168V262.5H200.064ZM224.281 262.5L232.093 231.84H238.057L245.869 262.5H241.291L239.443 254.73H230.749L228.901 262.5H224.281ZM231.589 250.992H238.561L236.461 242.13C236.097 240.562 235.789 239.204 235.537 238.056C235.313 236.88 235.159 236.082 235.075 235.662C234.991 236.082 234.837 236.88 234.613 238.056C234.389 239.204 234.081 240.548 233.689 242.088L231.589 250.992ZM257.991 262.5V235.998H249.801V231.798H270.717V235.998H262.527V262.5H257.991ZM276.412 262.5V231.84H280.948V244.524H289.936V231.84H294.472V262.5H289.936V248.724H280.948V262.5H276.412ZM300.882 267.12L315.666 227.64H320.37L305.586 267.12H300.882ZM210.018 304.92C207.946 304.92 206.168 304.584 204.684 303.912C203.2 303.212 202.052 302.232 201.24 300.972C200.428 299.684 200.022 298.158 200.022 296.394H204.516C204.516 297.794 205.006 298.9 205.986 299.712C206.966 300.496 208.324 300.888 210.06 300.888C211.684 300.888 212.958 300.496 213.882 299.712C214.806 298.928 215.268 297.85 215.268 296.478C215.268 295.33 214.946 294.336 214.302 293.496C213.686 292.656 212.79 292.082 211.614 291.774L207.75 290.64C205.51 289.996 203.774 288.904 202.542 287.364C201.338 285.796 200.736 283.934 200.736 281.778C200.736 280.098 201.114 278.628 201.87 277.368C202.626 276.108 203.704 275.128 205.104 274.428C206.504 273.728 208.156 273.378 210.06 273.378C212.86 273.378 215.1 274.134 216.78 275.646C218.488 277.158 219.356 279.188 219.384 281.736H214.848C214.848 280.392 214.414 279.342 213.546 278.586C212.706 277.802 211.516 277.41 209.976 277.41C208.492 277.41 207.33 277.774 206.49 278.502C205.65 279.202 205.23 280.196 205.23 281.484C205.23 282.632 205.538 283.626 206.154 284.466C206.798 285.306 207.708 285.894 208.884 286.23L212.79 287.406C215.03 288.022 216.752 289.114 217.956 290.682C219.16 292.25 219.762 294.126 219.762 296.31C219.762 298.018 219.356 299.53 218.544 300.846C217.732 302.134 216.598 303.142 215.142 303.87C213.686 304.57 211.978 304.92 210.018 304.92ZM232.807 304.5V277.998H224.617V273.798H245.533V277.998H237.343V304.5H232.807ZM249.465 304.5L257.277 273.84H263.241L271.053 304.5H266.475L264.627 296.73H255.933L254.085 304.5H249.465ZM256.773 292.992H263.745L261.645 284.13C261.281 282.562 260.973 281.204 260.721 280.056C260.497 278.88 260.343 278.082 260.259 277.662C260.175 278.082 260.021 278.88 259.797 280.056C259.573 281.204 259.265 282.548 258.873 284.088L256.773 292.992ZM283.174 304.5V277.998H274.984V273.798H295.9V277.998H287.71V304.5H283.174ZM310.752 304.92C308.68 304.92 306.902 304.584 305.418 303.912C303.934 303.212 302.786 302.232 301.974 300.972C301.162 299.684 300.756 298.158 300.756 296.394H305.25C305.25 297.794 305.74 298.9 306.72 299.712C307.7 300.496 309.058 300.888 310.794 300.888C312.418 300.888 313.692 300.496 314.616 299.712C315.54 298.928 316.002 297.85 316.002 296.478C316.002 295.33 315.68 294.336 315.036 293.496C314.42 292.656 313.524 292.082 312.348 291.774L308.484 290.64C306.244 289.996 304.508 288.904 303.276 287.364C302.072 285.796 301.47 283.934 301.47 281.778C301.47 280.098 301.848 278.628 302.604 277.368C303.36 276.108 304.438 275.128 305.838 274.428C307.238 273.728 308.89 273.378 310.794 273.378C313.594 273.378 315.834 274.134 317.514 275.646C319.222 277.158 320.09 279.188 320.118 281.736H315.582C315.582 280.392 315.148 279.342 314.28 278.586C313.44 277.802 312.25 277.41 310.71 277.41C309.226 277.41 308.064 277.774 307.224 278.502C306.384 279.202 305.964 280.196 305.964 281.484C305.964 282.632 306.272 283.626 306.888 284.466C307.532 285.306 308.442 285.894 309.618 286.23L313.524 287.406C315.764 288.022 317.486 289.114 318.69 290.682C319.894 292.25 320.496 294.126 320.496 296.31C320.496 298.018 320.09 299.53 319.278 300.846C318.466 302.134 317.332 303.142 315.876 303.87C314.42 304.57 312.712 304.92 310.752 304.92Z" fill="white"/>
<g opacity="0.5">
<g opacity="0.7" filter="url(#filter1_f_1023_182)">
<rect x="196.5" y="366.123" width="413.079" height="40.8916" transform="rotate(-45.9959 196.5 366.123)" fill="url(#paint0_linear_1023_182)" fill-opacity="0.2"/>
</g>
<g filter="url(#filter2_f_1023_182)">
<rect x="225.913" y="394.531" width="413.079" height="61.3123" transform="rotate(-45.9959 225.913 394.531)" fill="url(#paint1_linear_1023_182)" fill-opacity="0.4"/>
</g>
</g>
<g opacity="0.5">
<g opacity="0.7" filter="url(#filter3_f_1023_182)">
<rect x="-27" y="246.123" width="413.079" height="61.3123" transform="rotate(-45.9959 -27 246.123)" fill="url(#paint2_linear_1023_182)" fill-opacity="0.2"/>
</g>
<g opacity="0.5" filter="url(#filter4_f_1023_182)">
<rect x="17.1016" y="288.718" width="413.079" height="61.3123" transform="rotate(-45.9959 17.1016 288.718)" fill="url(#paint3_linear_1023_182)" fill-opacity="0.4"/>
</g>
</g>
</g>
</g>
<defs>
<filter id="filter0_d_1023_182" x="0.6" y="0.6" width="526.5" height="378" filterUnits="userSpaceOnUse" color-interpolation-filters="sRGB">
<feFlood flood-opacity="0" result="BackgroundImageFix"/>
<feColorMatrix in="SourceAlpha" type="matrix" values="0 0 0 0 0 0 0 0 0 0 0 0 0 0 0 0 0 0 127 0" result="hardAlpha"/>
<feOffset dx="3.6" dy="3.6"/>
<feGaussianBlur stdDeviation="4.5"/>
<feComposite in2="hardAlpha" operator="out"/>
<feColorMatrix type="matrix" values="0 0 0 0 0 0 0 0 0 0 0 0 0 0 0 0 0 0 0.1 0"/>
<feBlend mode="normal" in2="BackgroundImageFix" result="effect1_dropShadow_1023_182"/>
<feBlend mode="normal" in="SourceGraphic" in2="effect1_dropShadow_1023_182" result="shape"/>
</filter>
<filter id="filter1_f_1023_182" x="181.5" y="54.0001" width="346.383" height="355.531" filterUnits="userSpaceOnUse" color-interpolation-filters="sRGB">
<feFlood flood-opacity="0" result="BackgroundImageFix"/>
<feBlend mode="normal" in="SourceGraphic" in2="BackgroundImageFix" result="shape"/>
<feGaussianBlur stdDeviation="7.5" result="effect1_foregroundBlur_1023_182"/>
</filter>
<filter id="filter2_f_1023_182" x="210.913" y="82.4078" width="361.071" height="369.718" filterUnits="userSpaceOnUse" color-interpolation-filters="sRGB">
<feFlood flood-opacity="0" result="BackgroundImageFix"/>
<feBlend mode="normal" in="SourceGraphic" in2="BackgroundImageFix" result="shape"/>
<feGaussianBlur stdDeviation="7.5" result="effect1_foregroundBlur_1023_182"/>
</filter>
<filter id="filter3_f_1023_182" x="-42" y="-65.9999" width="361.071" height="369.718" filterUnits="userSpaceOnUse" color-interpolation-filters="sRGB">
<feFlood flood-opacity="0" result="BackgroundImageFix"/>
<feBlend mode="normal" in="SourceGraphic" in2="BackgroundImageFix" result="shape"/>
<feGaussianBlur stdDeviation="7.5" result="effect1_foregroundBlur_1023_182"/>
</filter>
<filter id="filter4_f_1023_182" x="2.10156" y="-23.4057" width="361.071" height="369.718" filterUnits="userSpaceOnUse" color-interpolation-filters="sRGB">
<feFlood flood-opacity="0" result="BackgroundImageFix"/>
<feBlend mode="normal" in="SourceGraphic" in2="BackgroundImageFix" result="shape"/>
<feGaussianBlur stdDeviation="7.5" result="effect1_foregroundBlur_1023_182"/>
</filter>
<linearGradient id="paint0_linear_1023_182" x1="403.039" y1="366.123" x2="403.039" y2="407.015" gradientUnits="userSpaceOnUse">
<stop stop-color="white" stop-opacity="0"/>
<stop offset="1" stop-color="white"/>
</linearGradient>
<linearGradient id="paint1_linear_1023_182" x1="432.452" y1="394.531" x2="432.452" y2="455.843" gradientUnits="userSpaceOnUse">
<stop/>
<stop offset="1" stop-opacity="0"/>
</linearGradient>
<linearGradient id="paint2_linear_1023_182" x1="179.539" y1="246.123" x2="179.539" y2="307.436" gradientUnits="userSpaceOnUse">
<stop stop-color="white" stop-opacity="0"/>
<stop offset="1" stop-color="white"/>
</linearGradient>
<linearGradient id="paint3_linear_1023_182" x1="223.641" y1="288.718" x2="223.641" y2="350.03" gradientUnits="userSpaceOnUse">
<stop/>
<stop offset="1" stop-opacity="0"/>
</linearGradient>
</defs>
</svg>
