<svg width="497" height="497" viewBox="0 0 497 497" fill="none" xmlns="http://www.w3.org/2000/svg">
<g filter="url(#filter0_d_486_5828)">
<path fill-rule="evenodd" clip-rule="evenodd" d="M379.906 6H339.094C333.424 19.5108 320.07 29 304.5 29C288.93 29 275.576 19.5108 269.906 6H229.094C223.424 19.5108 210.07 29 194.5 29C178.93 29 165.576 19.5108 159.906 6H119.094C113.424 19.5108 100.07 29 84.5 29C68.9298 29 55.576 19.5108 49.9062 6H10V46.3432C22.9767 52.2412 32 65.3169 32 80.5C32 95.6831 22.9767 108.759 10 114.657V156.343C22.9767 162.241 32 175.317 32 190.5C32 205.683 22.9767 218.759 10 224.657V266.343C22.9767 272.241 32 285.317 32 300.5C32 315.683 22.9767 328.759 10 334.657V376.343C22.9767 382.241 32 395.317 32 410.5C32 425.683 22.9767 438.759 10 444.657V483H46.7962C51.6513 467.915 65.801 457 82.5 457C99.1991 457 113.349 467.915 118.204 483H156.796C161.651 467.915 175.801 457 192.5 457C209.199 457 223.349 467.915 228.204 483H266.796C271.651 467.915 285.801 457 302.5 457C319.199 457 333.349 467.915 338.204 483H376.796C381.651 467.915 395.801 457 412.5 457C429.199 457 443.349 467.915 448.204 483H487V441.675C475.105 435.387 467 422.89 467 408.5C467 394.11 475.105 381.613 487 375.325V331.675C475.105 325.387 467 312.89 467 298.5C467 284.11 475.105 271.613 487 265.325V221.675C475.105 215.387 467 202.89 467 188.5C467 174.11 475.105 161.613 487 155.325V111.675C475.105 105.387 467 92.8902 467 78.5C467 64.1098 475.105 51.6127 487 45.3252V6H449.094C443.424 19.5108 430.07 29 414.5 29C398.93 29 385.576 19.5108 379.906 6Z" fill="#E3EEA3"/>
</g>
<rect x="62" y="46" width="385" height="385" rx="10" fill="#E8F9A4"/>
<path d="M112.214 323V319.49C113.222 319.49 113.942 319.292 114.374 318.896C114.806 318.5 115.076 317.942 115.184 317.222C115.328 316.466 115.4 315.62 115.4 314.684V305.612C115.4 304.964 115.418 304.244 115.454 303.452C115.49 302.624 115.544 301.814 115.616 301.022C115.04 301.058 114.356 301.094 113.564 301.13C112.808 301.13 112.232 301.148 111.836 301.184V297.08C113.492 297.08 114.896 296.99 116.048 296.81C117.2 296.63 118.1 296.414 118.748 296.162C119.432 295.91 119.9 295.676 120.152 295.46H122.798C122.87 295.928 122.906 296.27 122.906 296.486C122.906 296.702 122.906 296.918 122.906 297.134C122.942 297.314 123.014 297.656 123.122 298.16C123.842 297.584 124.67 297.08 125.606 296.648C126.542 296.18 127.478 295.82 128.414 295.568C129.35 295.28 130.178 295.136 130.898 295.136C134.21 295.136 136.55 296.09 137.918 297.998C139.322 299.87 140.024 302.894 140.024 307.07V314.306C140.024 314.81 140.006 315.53 139.97 316.466C139.934 317.366 139.88 318.23 139.808 319.058C140.42 318.986 141.068 318.95 141.752 318.95C142.436 318.914 142.958 318.896 143.318 318.896V323H129.17V319.49C130.178 319.49 130.898 319.292 131.33 318.896C131.798 318.5 132.086 317.942 132.194 317.222C132.338 316.466 132.41 315.62 132.41 314.684L132.356 307.016C132.356 304.676 132.014 302.948 131.33 301.832C130.682 300.68 129.566 300.104 127.982 300.104C127.082 300.104 126.182 300.302 125.282 300.698C124.418 301.094 123.68 301.562 123.068 302.102C123.068 302.606 123.068 303.128 123.068 303.668C123.068 304.172 123.068 304.676 123.068 305.18V314.306C123.068 314.81 123.05 315.53 123.014 316.466C122.978 317.366 122.924 318.23 122.852 319.058C123.428 318.986 124.058 318.95 124.742 318.95C125.462 318.914 126.002 318.896 126.362 318.896V323H112.214ZM166.956 323C166.884 322.496 166.83 322.082 166.794 321.758C166.794 321.398 166.776 320.984 166.74 320.516C165.516 321.74 164.22 322.604 162.852 323.108C161.484 323.612 160.098 323.864 158.694 323.864C156.39 323.864 154.59 323.18 153.294 321.812C151.998 320.444 151.35 318.734 151.35 316.682C151.35 314.954 151.782 313.478 152.646 312.254C153.546 311.03 154.716 310.04 156.156 309.284C157.632 308.492 159.252 307.898 161.016 307.502C162.816 307.07 164.616 306.818 166.416 306.746V303.938C166.416 303.002 166.29 302.156 166.038 301.4C165.822 300.644 165.426 300.05 164.85 299.618C164.31 299.186 163.536 298.988 162.528 299.024C161.844 299.06 161.178 299.204 160.53 299.456C159.882 299.708 159.324 300.068 158.856 300.536C159.144 300.86 159.324 301.22 159.396 301.616C159.468 301.976 159.504 302.3 159.504 302.588C159.504 303.308 159.216 304.064 158.64 304.856C158.064 305.612 157.146 305.972 155.886 305.936C154.806 305.9 153.978 305.522 153.402 304.802C152.826 304.082 152.538 303.236 152.538 302.264C152.538 300.824 153.042 299.582 154.05 298.538C155.094 297.458 156.48 296.63 158.208 296.054C159.936 295.442 161.844 295.136 163.932 295.136C167.1 295.136 169.548 295.964 171.276 297.62C173.04 299.24 173.922 301.85 173.922 305.45C173.922 306.674 173.922 307.718 173.922 308.582C173.922 309.446 173.904 310.31 173.868 311.174C173.868 312.038 173.868 313.082 173.868 314.306C173.868 314.81 173.85 315.53 173.814 316.466C173.778 317.366 173.724 318.23 173.652 319.058C174.264 318.986 174.912 318.95 175.596 318.95C176.28 318.914 176.802 318.896 177.162 318.896V323H166.956ZM166.362 310.58C165.354 310.688 164.4 310.868 163.5 311.12C162.6 311.372 161.808 311.714 161.124 312.146C160.476 312.578 159.954 313.1 159.558 313.712C159.198 314.324 159.018 315.008 159.018 315.764C159.054 316.772 159.378 317.492 159.99 317.924C160.602 318.356 161.304 318.572 162.096 318.572C162.924 318.572 163.698 318.392 164.418 318.032C165.138 317.672 165.786 317.204 166.362 316.628C166.362 316.268 166.362 315.926 166.362 315.602C166.362 315.242 166.362 314.882 166.362 314.522C166.362 313.874 166.362 313.226 166.362 312.578C166.362 311.894 166.362 311.228 166.362 310.58ZM196.144 323.864C195.064 323.864 194.02 323.738 193.012 323.486C192.04 323.234 191.14 322.766 190.312 322.082C189.52 321.362 188.89 320.318 188.422 318.95C187.954 317.582 187.72 315.764 187.72 313.496L187.828 300.482H184.156V296C185.272 295.964 186.352 295.586 187.396 294.866C188.44 294.146 189.322 293.21 190.042 292.058C190.798 290.906 191.302 289.7 191.554 288.44H195.55L195.496 296H202.354V300.158L195.496 300.32L195.442 313.604C195.442 314.432 195.514 315.26 195.658 316.088C195.838 316.88 196.162 317.546 196.63 318.086C197.098 318.59 197.782 318.842 198.682 318.842C199.186 318.842 199.87 318.662 200.734 318.302C201.634 317.942 202.588 317.042 203.596 315.602L206.188 318.032C205.216 319.472 204.208 320.588 203.164 321.38C202.12 322.172 201.112 322.748 200.14 323.108C199.204 323.468 198.376 323.684 197.656 323.756C196.936 323.828 196.432 323.864 196.144 323.864ZM224.336 323.864C222.176 323.864 220.43 323.45 219.098 322.622C217.802 321.794 216.848 320.498 216.236 318.734C215.66 316.97 215.372 314.702 215.372 311.93V305.72C215.372 305.072 215.39 304.334 215.426 303.506C215.462 302.642 215.498 301.814 215.534 301.022C214.958 301.058 214.274 301.094 213.482 301.13C212.726 301.13 212.15 301.148 211.754 301.184V297.08H212.294C214.526 297.08 216.29 296.9 217.586 296.54C218.882 296.18 219.71 295.82 220.07 295.46H223.04V311.984C223.04 314.324 223.346 316.07 223.958 317.222C224.57 318.338 225.542 318.896 226.874 318.896C227.81 318.896 228.746 318.644 229.682 318.14C230.654 317.6 231.446 316.988 232.058 316.304V305.72C232.058 305.072 232.076 304.334 232.112 303.506C232.148 302.642 232.202 301.814 232.274 301.022C231.698 301.058 231.014 301.094 230.222 301.13C229.466 301.13 228.89 301.148 228.494 301.184V297.08H229.79C231.482 297.08 232.976 296.9 234.272 296.54C235.568 296.144 236.396 295.784 236.756 295.46H239.726V314.306C239.726 314.81 239.708 315.53 239.672 316.466C239.636 317.366 239.582 318.23 239.51 319.058C240.086 318.986 240.716 318.95 241.4 318.95C242.12 318.914 242.66 318.896 243.02 318.896V323H232.76C232.724 322.532 232.67 322.064 232.598 321.596C232.562 321.128 232.508 320.66 232.436 320.192C231.32 321.128 230.114 321.974 228.818 322.73C227.558 323.486 226.064 323.864 224.336 323.864ZM251.939 319.49C252.947 319.49 253.667 319.292 254.099 318.896C254.531 318.5 254.801 317.942 254.909 317.222C255.053 316.466 255.125 315.62 255.125 314.684V305.612C255.125 304.964 255.143 304.244 255.179 303.452C255.215 302.624 255.269 301.814 255.341 301.022C254.765 301.058 254.081 301.094 253.289 301.13C252.533 301.13 251.957 301.148 251.561 301.184V297.08H253.721C255.125 297.08 256.403 296.9 257.555 296.54C258.743 296.18 259.517 295.82 259.877 295.46H262.523C262.595 295.82 262.649 296.504 262.685 297.512C262.721 298.484 262.739 299.348 262.739 300.104C263.711 298.916 264.629 297.962 265.493 297.242C266.357 296.522 267.203 296 268.031 295.676C268.895 295.316 269.759 295.136 270.623 295.136C271.883 295.136 272.981 295.496 273.917 296.216C274.853 296.9 275.321 298.034 275.321 299.618C275.321 300.158 275.195 300.734 274.943 301.346C274.691 301.922 274.295 302.408 273.755 302.804C273.215 303.2 272.477 303.398 271.541 303.398C270.821 303.398 270.083 303.182 269.327 302.75C268.571 302.318 268.139 301.49 268.031 300.266C267.311 300.266 266.591 300.572 265.871 301.184C265.151 301.76 264.503 302.462 263.927 303.29C263.387 304.082 263.009 304.82 262.793 305.504V314.306C262.793 314.81 262.775 315.53 262.739 316.466C262.703 317.366 262.649 318.23 262.577 319.058C263.153 318.986 263.783 318.95 264.467 318.95C265.187 318.914 265.727 318.896 266.087 318.896V323H251.939V319.49ZM298.033 323C297.961 322.496 297.907 322.082 297.871 321.758C297.871 321.398 297.853 320.984 297.817 320.516C296.593 321.74 295.297 322.604 293.929 323.108C292.561 323.612 291.175 323.864 289.771 323.864C287.467 323.864 285.667 323.18 284.371 321.812C283.075 320.444 282.427 318.734 282.427 316.682C282.427 314.954 282.859 313.478 283.723 312.254C284.623 311.03 285.793 310.04 287.233 309.284C288.709 308.492 290.329 307.898 292.093 307.502C293.893 307.07 295.693 306.818 297.493 306.746V303.938C297.493 303.002 297.367 302.156 297.115 301.4C296.899 300.644 296.503 300.05 295.927 299.618C295.387 299.186 294.613 298.988 293.605 299.024C292.921 299.06 292.255 299.204 291.607 299.456C290.959 299.708 290.401 300.068 289.933 300.536C290.221 300.86 290.401 301.22 290.473 301.616C290.545 301.976 290.581 302.3 290.581 302.588C290.581 303.308 290.293 304.064 289.717 304.856C289.141 305.612 288.223 305.972 286.963 305.936C285.883 305.9 285.055 305.522 284.479 304.802C283.903 304.082 283.615 303.236 283.615 302.264C283.615 300.824 284.119 299.582 285.127 298.538C286.171 297.458 287.557 296.63 289.285 296.054C291.013 295.442 292.921 295.136 295.009 295.136C298.177 295.136 300.625 295.964 302.353 297.62C304.117 299.24 304.999 301.85 304.999 305.45C304.999 306.674 304.999 307.718 304.999 308.582C304.999 309.446 304.981 310.31 304.945 311.174C304.945 312.038 304.945 313.082 304.945 314.306C304.945 314.81 304.927 315.53 304.891 316.466C304.855 317.366 304.801 318.23 304.729 319.058C305.341 318.986 305.989 318.95 306.673 318.95C307.357 318.914 307.879 318.896 308.239 318.896V323H298.033ZM297.439 310.58C296.431 310.688 295.477 310.868 294.577 311.12C293.677 311.372 292.885 311.714 292.201 312.146C291.553 312.578 291.031 313.1 290.635 313.712C290.275 314.324 290.095 315.008 290.095 315.764C290.131 316.772 290.455 317.492 291.067 317.924C291.679 318.356 292.381 318.572 293.173 318.572C294.001 318.572 294.775 318.392 295.495 318.032C296.215 317.672 296.863 317.204 297.439 316.628C297.439 316.268 297.439 315.926 297.439 315.602C297.439 315.242 297.439 314.882 297.439 314.522C297.439 313.874 297.439 313.226 297.439 312.578C297.439 311.894 297.439 311.228 297.439 310.58ZM315.875 319.49C316.883 319.49 317.603 319.292 318.035 318.896C318.503 318.5 318.791 317.942 318.899 317.222C319.007 316.466 319.061 315.62 319.061 314.684V292.49C319.061 291.842 319.079 291.104 319.115 290.276C319.151 289.412 319.205 288.584 319.277 287.792C318.701 287.828 318.017 287.864 317.225 287.9C316.469 287.9 315.893 287.918 315.497 287.954V283.85C317.189 283.85 318.593 283.76 319.709 283.58C320.861 283.4 321.761 283.184 322.409 282.932C323.093 282.68 323.561 282.446 323.813 282.23H326.729V314.306C326.729 314.81 326.711 315.53 326.675 316.466C326.639 317.366 326.585 318.23 326.513 319.058C327.125 318.986 327.773 318.95 328.457 318.95C329.141 318.914 329.663 318.896 330.023 318.896V323H315.875V319.49ZM124.634 383.864C123.086 383.864 121.574 383.666 120.098 383.27C118.622 382.874 117.47 382.37 116.642 381.758L116.75 383.378H112.646L112.43 374.09H115.94C116.048 375.17 116.48 376.16 117.236 377.06C117.992 377.96 118.982 378.68 120.206 379.22C121.43 379.724 122.798 379.976 124.31 379.976C124.922 379.976 125.498 379.886 126.038 379.706C126.614 379.526 127.082 379.238 127.442 378.842C127.838 378.41 128.036 377.888 128.036 377.276C128.036 376.592 127.784 376.034 127.28 375.602C126.812 375.17 126.11 374.756 125.174 374.36C124.274 373.964 123.14 373.514 121.772 373.01C120.656 372.578 119.522 372.128 118.37 371.66C117.254 371.192 116.21 370.634 115.238 369.986C114.302 369.302 113.546 368.474 112.97 367.502C112.394 366.494 112.106 365.27 112.106 363.83C112.106 362.786 112.304 361.76 112.7 360.752C113.096 359.708 113.708 358.772 114.536 357.944C115.364 357.08 116.408 356.396 117.668 355.892C118.964 355.388 120.494 355.136 122.258 355.136C123.23 355.136 124.328 355.298 125.552 355.622C126.812 355.91 127.874 356.36 128.738 356.972V355.406H132.842V364.964H129.332C129.116 363.704 128.666 362.624 127.982 361.724C127.334 360.824 126.488 360.14 125.444 359.672C124.4 359.168 123.23 358.916 121.934 358.916C121.034 358.916 120.206 359.132 119.45 359.564C118.73 359.996 118.37 360.734 118.37 361.778C118.37 362.606 118.658 363.272 119.234 363.776C119.81 364.244 120.602 364.64 121.61 364.964C122.618 365.288 123.734 365.666 124.958 366.098C126.794 366.71 128.414 367.43 129.818 368.258C131.258 369.086 132.392 370.094 133.22 371.282C134.048 372.434 134.462 373.856 134.462 375.548C134.462 377.42 133.994 378.968 133.058 380.192C132.122 381.416 130.898 382.334 129.386 382.946C127.91 383.558 126.326 383.864 124.634 383.864ZM156.567 383.864C154.155 383.864 151.941 383.324 149.925 382.244C147.909 381.164 146.289 379.598 145.065 377.546C143.877 375.494 143.283 373.01 143.283 370.094C143.283 368.042 143.625 366.116 144.309 364.316C144.993 362.516 145.947 360.932 147.171 359.564C148.431 358.196 149.907 357.116 151.599 356.324C153.327 355.532 155.235 355.136 157.323 355.136C159.627 355.136 161.535 355.496 163.047 356.216C164.595 356.9 165.747 357.818 166.503 358.97C167.295 360.086 167.691 361.274 167.691 362.534C167.691 363.578 167.367 364.514 166.719 365.342C166.107 366.134 165.225 366.548 164.073 366.584C162.705 366.62 161.751 366.242 161.211 365.45C160.671 364.622 160.401 363.83 160.401 363.074C160.401 362.75 160.455 362.372 160.563 361.94C160.671 361.472 160.833 361.058 161.049 360.698C160.797 360.158 160.419 359.762 159.915 359.51C159.411 359.258 158.889 359.096 158.349 359.024C157.845 358.916 157.431 358.88 157.107 358.916C155.379 359.024 153.957 359.888 152.841 361.508C151.725 363.128 151.167 365.468 151.167 368.528C151.167 370.328 151.383 372.02 151.815 373.604C152.283 375.152 153.039 376.43 154.083 377.438C155.127 378.446 156.531 378.986 158.295 379.058C159.807 379.094 161.283 378.734 162.723 377.978C164.163 377.222 165.387 376.196 166.395 374.9L168.879 377.33C167.583 379.13 166.233 380.498 164.829 381.434C163.425 382.37 162.021 383 160.617 383.324C159.249 383.684 157.899 383.864 156.567 383.864ZM177.172 379.49C178.18 379.49 178.9 379.292 179.332 378.896C179.764 378.5 180.034 377.942 180.142 377.222C180.286 376.466 180.358 375.62 180.358 374.684V365.72C180.358 365.072 180.376 364.334 180.412 363.506C180.448 362.642 180.502 361.814 180.574 361.022C179.998 361.058 179.314 361.094 178.522 361.13C177.766 361.13 177.19 361.148 176.794 361.184V357.08C178.45 357.08 179.854 356.99 181.006 356.81C182.158 356.63 183.058 356.414 183.706 356.162C184.39 355.91 184.858 355.676 185.11 355.46H188.026V374.306C188.026 374.81 188.008 375.53 187.972 376.466C187.936 377.366 187.882 378.23 187.81 379.058C188.386 378.986 189.016 378.95 189.7 378.95C190.42 378.914 190.96 378.896 191.32 378.896V383H177.172V379.49ZM183.922 351.194C182.698 351.194 181.69 350.762 180.898 349.898C180.106 349.034 179.71 347.99 179.71 346.766C179.71 345.542 180.124 344.498 180.952 343.634C181.78 342.77 182.752 342.338 183.868 342.338C185.02 342.338 185.974 342.77 186.73 343.634C187.522 344.498 187.918 345.542 187.918 346.766C187.918 347.99 187.558 349.034 186.838 349.898C186.118 350.762 185.146 351.194 183.922 351.194ZM213.036 383.864C210.408 383.864 208.086 383.288 206.07 382.136C204.054 380.948 202.488 379.292 201.372 377.168C200.256 375.008 199.698 372.47 199.698 369.554C199.698 367.034 200.256 364.676 201.372 362.48C202.488 360.284 204.054 358.52 206.07 357.188C208.122 355.82 210.498 355.136 213.198 355.136C214.71 355.136 216.186 355.352 217.626 355.784C219.066 356.18 220.362 356.882 221.514 357.89C222.702 358.898 223.638 360.266 224.322 361.994C225.042 363.722 225.384 365.882 225.348 368.474L207.636 368.798C207.636 370.742 207.87 372.488 208.338 374.036C208.842 375.584 209.652 376.808 210.768 377.708C211.884 378.608 213.378 379.058 215.25 379.058C215.97 379.058 216.78 378.932 217.68 378.68C218.616 378.428 219.552 378.014 220.488 377.438C221.46 376.826 222.36 376.016 223.188 375.008L225.618 377.276C224.322 379.112 222.936 380.516 221.46 381.488C219.984 382.424 218.508 383.054 217.032 383.378C215.592 383.702 214.26 383.864 213.036 383.864ZM207.96 365.018H217.896C217.86 363.506 217.644 362.318 217.248 361.454C216.888 360.554 216.384 359.906 215.736 359.51C215.088 359.114 214.332 358.916 213.468 358.916C211.884 358.916 210.642 359.492 209.742 360.644C208.842 361.76 208.248 363.218 207.96 365.018ZM234.695 383V379.49C235.703 379.49 236.423 379.292 236.855 378.896C237.287 378.5 237.557 377.942 237.665 377.222C237.809 376.466 237.881 375.62 237.881 374.684V365.612C237.881 364.964 237.899 364.244 237.935 363.452C237.971 362.624 238.025 361.814 238.097 361.022C237.521 361.058 236.837 361.094 236.045 361.13C235.289 361.13 234.713 361.148 234.317 361.184V357.08C235.973 357.08 237.377 356.99 238.529 356.81C239.681 356.63 240.581 356.414 241.229 356.162C241.913 355.91 242.381 355.676 242.633 355.46H245.279C245.351 355.928 245.387 356.27 245.387 356.486C245.387 356.702 245.387 356.918 245.387 357.134C245.423 357.314 245.495 357.656 245.603 358.16C246.323 357.584 247.151 357.08 248.087 356.648C249.023 356.18 249.959 355.82 250.895 355.568C251.831 355.28 252.659 355.136 253.379 355.136C256.691 355.136 259.031 356.09 260.399 357.998C261.803 359.87 262.505 362.894 262.505 367.07V374.306C262.505 374.81 262.487 375.53 262.451 376.466C262.415 377.366 262.361 378.23 262.289 379.058C262.901 378.986 263.549 378.95 264.233 378.95C264.917 378.914 265.439 378.896 265.799 378.896V383H251.651V379.49C252.659 379.49 253.379 379.292 253.811 378.896C254.279 378.5 254.567 377.942 254.675 377.222C254.819 376.466 254.891 375.62 254.891 374.684L254.837 367.016C254.837 364.676 254.495 362.948 253.811 361.832C253.163 360.68 252.047 360.104 250.463 360.104C249.563 360.104 248.663 360.302 247.763 360.698C246.899 361.094 246.161 361.562 245.549 362.102C245.549 362.606 245.549 363.128 245.549 363.668C245.549 364.172 245.549 364.676 245.549 365.18V374.306C245.549 374.81 245.531 375.53 245.495 376.466C245.459 377.366 245.405 378.23 245.333 379.058C245.909 378.986 246.539 378.95 247.223 378.95C247.943 378.914 248.483 378.896 248.843 378.896V383H234.695ZM287.169 383.864C284.757 383.864 282.543 383.324 280.527 382.244C278.511 381.164 276.891 379.598 275.667 377.546C274.479 375.494 273.885 373.01 273.885 370.094C273.885 368.042 274.227 366.116 274.911 364.316C275.595 362.516 276.549 360.932 277.773 359.564C279.033 358.196 280.509 357.116 282.201 356.324C283.929 355.532 285.837 355.136 287.925 355.136C290.229 355.136 292.137 355.496 293.649 356.216C295.197 356.9 296.349 357.818 297.105 358.97C297.897 360.086 298.293 361.274 298.293 362.534C298.293 363.578 297.969 364.514 297.321 365.342C296.709 366.134 295.827 366.548 294.675 366.584C293.307 366.62 292.353 366.242 291.813 365.45C291.273 364.622 291.003 363.83 291.003 363.074C291.003 362.75 291.057 362.372 291.165 361.94C291.273 361.472 291.435 361.058 291.651 360.698C291.399 360.158 291.021 359.762 290.517 359.51C290.013 359.258 289.491 359.096 288.951 359.024C288.447 358.916 288.033 358.88 287.709 358.916C285.981 359.024 284.559 359.888 283.443 361.508C282.327 363.128 281.769 365.468 281.769 368.528C281.769 370.328 281.985 372.02 282.417 373.604C282.885 375.152 283.641 376.43 284.685 377.438C285.729 378.446 287.133 378.986 288.897 379.058C290.409 379.094 291.885 378.734 293.325 377.978C294.765 377.222 295.989 376.196 296.997 374.9L299.481 377.33C298.185 379.13 296.835 380.498 295.431 381.434C294.027 382.37 292.623 383 291.219 383.324C289.851 383.684 288.501 383.864 287.169 383.864ZM320.572 383.864C317.944 383.864 315.622 383.288 313.606 382.136C311.59 380.948 310.024 379.292 308.908 377.168C307.792 375.008 307.234 372.47 307.234 369.554C307.234 367.034 307.792 364.676 308.908 362.48C310.024 360.284 311.59 358.52 313.606 357.188C315.658 355.82 318.034 355.136 320.734 355.136C322.246 355.136 323.722 355.352 325.162 355.784C326.602 356.18 327.898 356.882 329.05 357.89C330.238 358.898 331.174 360.266 331.858 361.994C332.578 363.722 332.92 365.882 332.884 368.474L315.172 368.798C315.172 370.742 315.406 372.488 315.874 374.036C316.378 375.584 317.188 376.808 318.304 377.708C319.42 378.608 320.914 379.058 322.786 379.058C323.506 379.058 324.316 378.932 325.216 378.68C326.152 378.428 327.088 378.014 328.024 377.438C328.996 376.826 329.896 376.016 330.724 375.008L333.154 377.276C331.858 379.112 330.472 380.516 328.996 381.488C327.52 382.424 326.044 383.054 324.568 383.378C323.128 383.702 321.796 383.864 320.572 383.864ZM315.496 365.018H325.432C325.396 363.506 325.18 362.318 324.784 361.454C324.424 360.554 323.92 359.906 323.272 359.51C322.624 359.114 321.868 358.916 321.004 358.916C319.42 358.916 318.178 359.492 317.278 360.644C316.378 361.76 315.784 363.218 315.496 365.018ZM354.651 383.864C353.103 383.864 351.591 383.666 350.115 383.27C348.639 382.874 347.487 382.37 346.659 381.758L346.767 383.378H342.663L342.447 374.09H345.957C346.065 375.17 346.497 376.16 347.253 377.06C348.009 377.96 348.999 378.68 350.223 379.22C351.447 379.724 352.815 379.976 354.327 379.976C354.939 379.976 355.515 379.886 356.055 379.706C356.631 379.526 357.099 379.238 357.459 378.842C357.855 378.41 358.053 377.888 358.053 377.276C358.053 376.592 357.801 376.034 357.297 375.602C356.829 375.17 356.127 374.756 355.191 374.36C354.291 373.964 353.157 373.514 351.789 373.01C350.673 372.578 349.539 372.128 348.387 371.66C347.271 371.192 346.227 370.634 345.255 369.986C344.319 369.302 343.563 368.474 342.987 367.502C342.411 366.494 342.123 365.27 342.123 363.83C342.123 362.786 342.321 361.76 342.717 360.752C343.113 359.708 343.725 358.772 344.553 357.944C345.381 357.08 346.425 356.396 347.685 355.892C348.981 355.388 350.511 355.136 352.275 355.136C353.247 355.136 354.345 355.298 355.569 355.622C356.829 355.91 357.891 356.36 358.755 356.972V355.406H362.859V364.964H359.349C359.133 363.704 358.683 362.624 357.999 361.724C357.351 360.824 356.505 360.14 355.461 359.672C354.417 359.168 353.247 358.916 351.951 358.916C351.051 358.916 350.223 359.132 349.467 359.564C348.747 359.996 348.387 360.734 348.387 361.778C348.387 362.606 348.675 363.272 349.251 363.776C349.827 364.244 350.619 364.64 351.627 364.964C352.635 365.288 353.751 365.666 354.975 366.098C356.811 366.71 358.431 367.43 359.835 368.258C361.275 369.086 362.409 370.094 363.237 371.282C364.065 372.434 364.479 373.856 364.479 375.548C364.479 377.42 364.011 378.968 363.075 380.192C362.139 381.416 360.915 382.334 359.403 382.946C357.927 383.558 356.343 383.864 354.651 383.864Z" fill="#8AAF4F"/>
<path d="M215.009 134.457C235.923 146.532 252.343 161.328 262.063 175.281C272.033 189.594 273.947 201.375 269.688 208.75C265.43 216.125 254.272 220.359 236.891 218.881C219.947 217.44 198.923 210.617 178.009 198.543C157.096 186.468 140.675 171.672 130.955 157.719C120.985 143.406 119.072 131.625 123.33 124.25C127.588 116.875 138.747 112.641 156.128 114.119C173.071 115.56 194.096 122.383 215.009 134.457Z" stroke="#AED76A" stroke-width="10"/>
<path d="M178.009 134.457C157.096 146.532 140.675 161.328 130.955 175.281C120.985 189.594 119.072 201.375 123.33 208.75C127.588 216.125 138.747 220.359 156.128 218.881C173.071 217.44 194.096 210.617 215.009 198.543C235.923 186.468 252.343 171.672 262.063 157.719C272.033 143.406 273.947 131.625 269.688 124.25C265.43 116.875 254.272 112.641 236.891 114.119C219.947 115.56 198.923 122.383 178.009 134.457Z" stroke="#AED76A" stroke-width="10"/>
<path d="M233.509 166.5C233.509 190.649 228.906 212.268 221.681 227.662C214.271 243.453 205.026 251 196.509 251C187.993 251 178.747 243.453 171.337 227.662C164.113 212.268 159.509 190.649 159.509 166.5C159.509 142.351 164.113 120.732 171.337 105.338C178.747 89.547 187.993 82 196.509 82C205.026 82 214.271 89.547 221.681 105.338C228.906 120.732 233.509 142.351 233.509 166.5Z" stroke="#AED76A" stroke-width="10"/>
<circle cx="197" cy="166" r="15" fill="#ADD76A"/>
<defs>
<filter id="filter0_d_486_5828" x="0" y="0" width="497" height="497" filterUnits="userSpaceOnUse" color-interpolation-filters="sRGB">
<feFlood flood-opacity="0" result="BackgroundImageFix"/>
<feColorMatrix in="SourceAlpha" type="matrix" values="0 0 0 0 0 0 0 0 0 0 0 0 0 0 0 0 0 0 127 0" result="hardAlpha"/>
<feOffset dy="4"/>
<feGaussianBlur stdDeviation="5"/>
<feComposite in2="hardAlpha" operator="out"/>
<feColorMatrix type="matrix" values="0 0 0 0 0 0 0 0 0 0 0 0 0 0 0 0 0 0 0.1 0"/>
<feBlend mode="normal" in2="BackgroundImageFix" result="effect1_dropShadow_486_5828"/>
<feBlend mode="normal" in="SourceGraphic" in2="effect1_dropShadow_486_5828" result="shape"/>
</filter>
</defs>
</svg>
