<svg width="497" height="497" viewBox="0 0 497 497" fill="none" xmlns="http://www.w3.org/2000/svg">
<g filter="url(#filter0_d_487_5947)">
<path fill-rule="evenodd" clip-rule="evenodd" d="M379.906 6H339.094C333.424 19.5108 320.07 29 304.5 29C288.93 29 275.576 19.5108 269.906 6H229.094C223.424 19.5108 210.07 29 194.5 29C178.93 29 165.576 19.5108 159.906 6H119.094C113.424 19.5108 100.07 29 84.5 29C68.9298 29 55.576 19.5108 49.9062 6H10V46.3432C22.9767 52.2412 32 65.3169 32 80.5C32 95.6831 22.9767 108.759 10 114.657V156.343C22.9767 162.241 32 175.317 32 190.5C32 205.683 22.9767 218.759 10 224.657V266.343C22.9767 272.241 32 285.317 32 300.5C32 315.683 22.9767 328.759 10 334.657V376.343C22.9767 382.241 32 395.317 32 410.5C32 425.683 22.9767 438.759 10 444.657V483H46.7962C51.6513 467.915 65.801 457 82.5 457C99.1991 457 113.349 467.915 118.204 483H156.796C161.651 467.915 175.801 457 192.5 457C209.199 457 223.349 467.915 228.204 483H266.796C271.651 467.915 285.801 457 302.5 457C319.199 457 333.349 467.915 338.204 483H376.796C381.651 467.915 395.801 457 412.5 457C429.199 457 443.349 467.915 448.204 483H487V441.675C475.105 435.387 467 422.89 467 408.5C467 394.11 475.105 381.613 487 375.325V331.675C475.105 325.387 467 312.89 467 298.5C467 284.11 475.105 271.613 487 265.325V221.675C475.105 215.387 467 202.89 467 188.5C467 174.11 475.105 161.613 487 155.325V111.675C475.105 105.387 467 92.8902 467 78.5C467 64.1098 475.105 51.6127 487 45.3252V6H449.094C443.424 19.5108 430.07 29 414.5 29C398.93 29 385.576 19.5108 379.906 6Z" fill="#F4C791"/>
</g>
<rect x="62" y="46" width="385" height="385" rx="10" fill="#FDD4A3"/>
<path d="M104.064 129V125.88C104.96 125.88 105.6 125.704 105.984 125.352C106.4 125 106.656 124.504 106.752 123.864C106.88 123.192 106.944 122.44 106.944 121.608V108.936L103.44 108.984V105H106.944C107.136 100.584 108.16 97.448 110.016 95.592C111.872 93.704 114.672 92.76 118.416 92.76C121.2 92.76 123.424 93.096 125.088 93.768C126.752 94.44 127.952 95.224 128.688 96.12C129.424 96.984 129.776 97.72 129.744 98.328C129.744 99.032 129.504 99.752 129.024 100.488C128.544 101.192 127.808 101.56 126.816 101.592C125.92 101.624 125.184 101.368 124.608 100.824C124.032 100.248 123.744 99.544 123.744 98.712C123.744 98.552 123.76 98.392 123.792 98.232C123.824 98.04 123.856 97.864 123.888 97.704C123.76 97.544 123.344 97.256 122.64 96.84C121.968 96.392 120.88 96.168 119.376 96.168C117.584 96.168 116.272 96.552 115.44 97.32C114.64 98.056 114.128 99.016 113.904 100.2C113.712 101.352 113.616 102.568 113.616 103.848V105H117.6C119.072 105 120.512 105 121.92 105C123.328 105 124.528 104.968 125.52 104.904C126.512 104.84 127.12 104.712 127.344 104.52H129.936V121.272C129.936 121.72 129.92 122.36 129.888 123.192C129.856 123.992 129.808 124.76 129.744 125.496C130.288 125.432 130.864 125.4 131.472 125.4C132.08 125.368 132.544 125.352 132.864 125.352V129H120.288V125.88C121.184 125.88 121.824 125.704 122.208 125.352C122.624 125 122.88 124.504 122.976 123.864C123.072 123.192 123.12 122.44 123.12 121.608V112.728C123.12 112.152 123.136 111.496 123.168 110.76C123.2 109.992 123.248 109.256 123.312 108.552L113.664 108.792L113.712 121.176C113.712 121.624 113.696 122.28 113.664 123.144C113.632 123.976 113.584 124.76 113.52 125.496C114.064 125.432 114.672 125.4 115.344 125.4C116.048 125.368 116.56 125.352 116.88 125.352V129H104.064ZM140.784 129V125.88C141.68 125.88 142.32 125.704 142.704 125.352C143.088 125 143.328 124.504 143.424 123.864C143.552 123.192 143.616 122.44 143.616 121.608V113.544C143.616 112.968 143.632 112.328 143.664 111.624C143.696 110.888 143.744 110.168 143.808 109.464C143.296 109.496 142.688 109.528 141.984 109.56C141.312 109.56 140.8 109.576 140.448 109.608V105.96C141.92 105.96 143.168 105.88 144.192 105.72C145.216 105.56 146.016 105.368 146.592 105.144C147.2 104.92 147.616 104.712 147.84 104.52H150.192C150.256 104.936 150.288 105.24 150.288 105.432C150.288 105.624 150.288 105.816 150.288 106.008C150.32 106.168 150.384 106.472 150.48 106.92C151.12 106.408 151.856 105.96 152.688 105.576C153.52 105.16 154.352 104.84 155.184 104.616C156.016 104.36 156.752 104.232 157.392 104.232C160.336 104.232 162.416 105.08 163.632 106.776C164.88 108.44 165.504 111.128 165.504 114.84V121.272C165.504 121.72 165.488 122.36 165.456 123.192C165.424 123.992 165.376 124.76 165.312 125.496C165.856 125.432 166.432 125.4 167.04 125.4C167.648 125.368 168.112 125.352 168.432 125.352V129H155.856V125.88C156.752 125.88 157.392 125.704 157.776 125.352C158.192 125 158.448 124.504 158.544 123.864C158.672 123.192 158.736 122.44 158.736 121.608L158.688 114.792C158.688 112.712 158.384 111.176 157.776 110.184C157.2 109.16 156.208 108.648 154.8 108.648C154 108.648 153.2 108.824 152.4 109.176C151.632 109.528 150.976 109.944 150.432 110.424C150.432 110.872 150.432 111.336 150.432 111.816C150.432 112.264 150.432 112.712 150.432 113.16V121.272C150.432 121.72 150.416 122.36 150.384 123.192C150.352 123.992 150.304 124.76 150.24 125.496C150.752 125.432 151.312 125.4 151.92 125.4C152.56 125.368 153.04 125.352 153.36 125.352V129H140.784ZM187.475 129.768C185.139 129.768 183.075 129.256 181.283 128.232C179.491 127.176 178.099 125.704 177.107 123.816C176.115 121.896 175.619 119.64 175.619 117.048C175.619 114.808 176.115 112.712 177.107 110.76C178.099 108.808 179.491 107.24 181.283 106.056C183.107 104.84 185.219 104.232 187.619 104.232C188.963 104.232 190.275 104.424 191.555 104.808C192.835 105.16 193.987 105.784 195.011 106.68C196.067 107.576 196.899 108.792 197.507 110.328C198.147 111.864 198.451 113.784 198.419 116.088L182.675 116.376C182.675 118.104 182.883 119.656 183.299 121.032C183.747 122.408 184.467 123.496 185.459 124.296C186.451 125.096 187.779 125.496 189.443 125.496C190.083 125.496 190.803 125.384 191.603 125.16C192.435 124.936 193.267 124.568 194.099 124.056C194.963 123.512 195.763 122.792 196.499 121.896L198.659 123.912C197.507 125.544 196.275 126.792 194.963 127.656C193.651 128.488 192.339 129.048 191.027 129.336C189.747 129.624 188.563 129.768 187.475 129.768ZM182.963 113.016H191.795C191.763 111.672 191.571 110.616 191.219 109.848C190.899 109.048 190.451 108.472 189.875 108.12C189.299 107.768 188.627 107.592 187.859 107.592C186.451 107.592 185.347 108.104 184.547 109.128C183.747 110.12 183.219 111.416 182.963 113.016ZM237.481 129C237.417 128.552 237.369 128.184 237.337 127.896C237.337 127.576 237.321 127.208 237.289 126.792C236.201 127.88 235.049 128.648 233.833 129.096C232.617 129.544 231.385 129.768 230.137 129.768C228.089 129.768 226.489 129.16 225.337 127.944C224.185 126.728 223.609 125.208 223.609 123.384C223.609 121.848 223.993 120.536 224.761 119.448C225.561 118.36 226.601 117.48 227.881 116.808C229.193 116.104 230.633 115.576 232.201 115.224C233.801 114.84 235.401 114.616 237.001 114.552V112.056C237.001 111.224 236.889 110.472 236.665 109.8C236.473 109.128 236.121 108.6 235.609 108.216C235.129 107.832 234.441 107.656 233.545 107.688C232.937 107.72 232.345 107.848 231.769 108.072C231.193 108.296 230.697 108.616 230.281 109.032C230.537 109.32 230.697 109.64 230.761 109.992C230.825 110.312 230.857 110.6 230.857 110.856C230.857 111.496 230.601 112.168 230.089 112.872C229.577 113.544 228.761 113.864 227.641 113.832C226.681 113.8 225.945 113.464 225.433 112.824C224.921 112.184 224.665 111.432 224.665 110.568C224.665 109.288 225.113 108.184 226.009 107.256C226.937 106.296 228.169 105.56 229.705 105.048C231.241 104.504 232.937 104.232 234.793 104.232C237.609 104.232 239.785 104.968 241.321 106.44C242.889 107.88 243.673 110.2 243.673 113.4C243.673 114.488 243.673 115.416 243.673 116.184C243.673 116.952 243.657 117.72 243.625 118.488C243.625 119.256 243.625 120.184 243.625 121.272C243.625 121.72 243.609 122.36 243.577 123.192C243.545 123.992 243.497 124.76 243.433 125.496C243.977 125.432 244.553 125.4 245.161 125.4C245.769 125.368 246.233 125.352 246.553 125.352V129H237.481ZM236.953 117.96C236.057 118.056 235.209 118.216 234.409 118.44C233.609 118.664 232.905 118.968 232.297 119.352C231.721 119.736 231.257 120.2 230.905 120.744C230.585 121.288 230.425 121.896 230.425 122.568C230.457 123.464 230.745 124.104 231.289 124.488C231.833 124.872 232.457 125.064 233.161 125.064C233.897 125.064 234.585 124.904 235.225 124.584C235.865 124.264 236.441 123.848 236.953 123.336C236.953 123.016 236.953 122.712 236.953 122.424C236.953 122.104 236.953 121.784 236.953 121.464C236.953 120.888 236.953 120.312 236.953 119.736C236.953 119.128 236.953 118.536 236.953 117.96ZM254.109 125.88C255.005 125.88 255.645 125.704 256.029 125.352C256.413 125 256.653 124.504 256.749 123.864C256.877 123.192 256.941 122.44 256.941 121.608V113.544C256.941 112.968 256.957 112.328 256.989 111.624C257.021 110.888 257.069 110.168 257.133 109.464C256.621 109.496 256.013 109.528 255.309 109.56C254.637 109.56 254.125 109.576 253.773 109.608V105.96H255.693C256.941 105.96 258.077 105.8 259.101 105.48C260.157 105.16 260.845 104.84 261.165 104.52H263.517C263.581 104.84 263.629 105.448 263.661 106.344C263.693 107.208 263.709 107.976 263.709 108.648C264.573 107.592 265.389 106.744 266.157 106.104C266.925 105.464 267.677 105 268.413 104.712C269.181 104.392 269.949 104.232 270.717 104.232C271.837 104.232 272.813 104.552 273.645 105.192C274.477 105.8 274.893 106.808 274.893 108.216C274.893 108.696 274.781 109.208 274.557 109.752C274.333 110.264 273.981 110.696 273.501 111.048C273.021 111.4 272.365 111.576 271.533 111.576C270.893 111.576 270.237 111.384 269.565 111C268.893 110.616 268.509 109.88 268.413 108.792C267.773 108.792 267.133 109.064 266.493 109.608C265.853 110.12 265.277 110.744 264.765 111.48C264.285 112.184 263.949 112.84 263.757 113.448V121.272C263.757 121.72 263.741 122.36 263.709 123.192C263.677 123.992 263.629 124.76 263.565 125.496C264.077 125.432 264.637 125.4 265.245 125.4C265.885 125.368 266.365 125.352 266.685 125.352V129H254.109V125.88ZM291.475 129.768C290.515 129.768 289.587 129.656 288.691 129.432C287.827 129.208 287.027 128.792 286.291 128.184C285.587 127.544 285.027 126.616 284.611 125.4C284.195 124.184 283.987 122.568 283.987 120.552L284.083 108.984H280.819V105C281.811 104.968 282.771 104.632 283.699 103.992C284.627 103.352 285.411 102.52 286.051 101.496C286.723 100.472 287.171 99.4 287.395 98.28H290.947L290.899 105H296.995V108.696L290.899 108.84L290.851 120.648C290.851 121.384 290.915 122.12 291.043 122.856C291.203 123.56 291.491 124.152 291.907 124.632C292.323 125.08 292.931 125.304 293.731 125.304C294.179 125.304 294.787 125.144 295.555 124.824C296.355 124.504 297.203 123.704 298.099 122.424L300.403 124.584C299.539 125.864 298.643 126.856 297.715 127.56C296.787 128.264 295.891 128.776 295.027 129.096C294.195 129.416 293.459 129.608 292.819 129.672C292.179 129.736 291.731 129.768 291.475 129.768ZM317.639 129.768C316.263 129.768 314.919 129.592 313.607 129.24C312.295 128.888 311.271 128.44 310.535 127.896L310.631 129.336H306.983L306.791 121.08H309.911C310.007 122.04 310.391 122.92 311.063 123.72C311.735 124.52 312.615 125.16 313.703 125.64C314.791 126.088 316.007 126.312 317.351 126.312C317.895 126.312 318.407 126.232 318.887 126.072C319.399 125.912 319.815 125.656 320.135 125.304C320.487 124.92 320.663 124.456 320.663 123.912C320.663 123.304 320.439 122.808 319.991 122.424C319.575 122.04 318.951 121.672 318.119 121.32C317.319 120.968 316.311 120.568 315.095 120.12C314.103 119.736 313.095 119.336 312.071 118.92C311.079 118.504 310.151 118.008 309.287 117.432C308.455 116.824 307.783 116.088 307.271 115.224C306.759 114.328 306.503 113.24 306.503 111.96C306.503 111.032 306.679 110.12 307.031 109.224C307.383 108.296 307.927 107.464 308.663 106.728C309.399 105.96 310.327 105.352 311.447 104.904C312.599 104.456 313.959 104.232 315.527 104.232C316.391 104.232 317.367 104.376 318.455 104.664C319.575 104.92 320.519 105.32 321.287 105.864V104.472H324.935V112.968H321.815C321.623 111.848 321.223 110.888 320.615 110.088C320.039 109.288 319.287 108.68 318.359 108.264C317.431 107.816 316.391 107.592 315.239 107.592C314.439 107.592 313.703 107.784 313.031 108.168C312.391 108.552 312.071 109.208 312.071 110.136C312.071 110.872 312.327 111.464 312.839 111.912C313.351 112.328 314.055 112.68 314.951 112.968C315.847 113.256 316.839 113.592 317.927 113.976C319.559 114.52 320.999 115.16 322.247 115.896C323.527 116.632 324.535 117.528 325.271 118.584C326.007 119.608 326.375 120.872 326.375 122.376C326.375 124.04 325.959 125.416 325.127 126.504C324.295 127.592 323.207 128.408 321.863 128.952C320.551 129.496 319.143 129.768 317.639 129.768ZM335.656 142.008L331.912 139.56L358.696 92.76L363.064 95.544L335.656 142.008ZM103.488 201.24V198.12C104.384 198.12 105.024 197.944 105.408 197.592C105.824 197.24 106.08 196.728 106.176 196.056C106.304 195.416 106.368 194.68 106.368 193.848V173.544C106.368 172.968 106.384 172.328 106.416 171.624C106.448 170.888 106.496 170.168 106.56 169.464C106.048 169.496 105.44 169.528 104.736 169.56C104.032 169.56 103.504 169.576 103.152 169.608V165.96C104.656 165.96 105.904 165.88 106.896 165.72C107.92 165.56 108.72 165.368 109.296 165.144C109.904 164.92 110.32 164.712 110.544 164.52H112.896C112.96 164.84 113.008 165.24 113.04 165.72C113.072 166.168 113.104 166.536 113.136 166.824C114.256 165.864 115.36 165.192 116.448 164.808C117.568 164.424 118.624 164.232 119.616 164.232C121.536 164.232 123.216 164.728 124.656 165.72C126.128 166.712 127.264 168.12 128.064 169.944C128.896 171.768 129.312 173.912 129.312 176.376C129.312 178.936 128.816 181.24 127.824 183.288C126.832 185.304 125.44 186.888 123.648 188.04C121.888 189.192 119.808 189.768 117.408 189.768C116.544 189.768 115.76 189.672 115.056 189.48C114.384 189.32 113.744 189.128 113.136 188.904V193.512C113.136 193.96 113.12 194.584 113.088 195.384C113.088 196.216 113.056 197 112.992 197.736C113.504 197.672 114.064 197.624 114.672 197.592C115.28 197.592 115.744 197.592 116.064 197.592V201.24H103.488ZM116.64 186.168C118.112 186.136 119.248 185.704 120.048 184.872C120.88 184.008 121.456 182.888 121.776 181.512C122.096 180.136 122.256 178.664 122.256 177.096C122.256 175.624 122.08 174.232 121.728 172.92C121.376 171.608 120.816 170.552 120.048 169.752C119.28 168.92 118.272 168.52 117.024 168.552C116.224 168.584 115.488 168.792 114.816 169.176C114.144 169.528 113.584 170.024 113.136 170.664C113.136 171.656 113.136 172.648 113.136 173.64C113.136 174.6 113.136 175.56 113.136 176.52C113.136 177.48 113.136 178.456 113.136 179.448C113.136 180.408 113.136 181.384 113.136 182.376C113.136 183.336 113.136 184.312 113.136 185.304C113.488 185.528 113.984 185.736 114.624 185.928C115.264 186.12 115.936 186.2 116.64 186.168ZM148.972 189.768C146.636 189.768 144.572 189.256 142.78 188.232C140.988 187.176 139.596 185.704 138.604 183.816C137.612 181.896 137.116 179.64 137.116 177.048C137.116 174.808 137.612 172.712 138.604 170.76C139.596 168.808 140.988 167.24 142.78 166.056C144.604 164.84 146.716 164.232 149.116 164.232C150.46 164.232 151.772 164.424 153.052 164.808C154.332 165.16 155.484 165.784 156.508 166.68C157.564 167.576 158.396 168.792 159.004 170.328C159.644 171.864 159.948 173.784 159.916 176.088L144.172 176.376C144.172 178.104 144.38 179.656 144.796 181.032C145.244 182.408 145.964 183.496 146.956 184.296C147.948 185.096 149.276 185.496 150.94 185.496C151.58 185.496 152.3 185.384 153.1 185.16C153.932 184.936 154.764 184.568 155.596 184.056C156.46 183.512 157.26 182.792 157.996 181.896L160.156 183.912C159.004 185.544 157.772 186.792 156.46 187.656C155.148 188.488 153.836 189.048 152.524 189.336C151.244 189.624 150.06 189.768 148.972 189.768ZM144.46 173.016H153.292C153.26 171.672 153.068 170.616 152.716 169.848C152.396 169.048 151.948 168.472 151.372 168.12C150.796 167.768 150.124 167.592 149.356 167.592C147.948 167.592 146.844 168.104 146.044 169.128C145.244 170.12 144.716 171.416 144.46 173.016ZM168.224 185.88C169.12 185.88 169.76 185.704 170.144 185.352C170.528 185 170.768 184.504 170.864 183.864C170.992 183.192 171.056 182.44 171.056 181.608V173.544C171.056 172.968 171.072 172.328 171.104 171.624C171.136 170.888 171.184 170.168 171.248 169.464C170.736 169.496 170.128 169.528 169.424 169.56C168.752 169.56 168.24 169.576 167.888 169.608V165.96H169.808C171.056 165.96 172.192 165.8 173.216 165.48C174.272 165.16 174.96 164.84 175.28 164.52H177.632C177.696 164.84 177.744 165.448 177.776 166.344C177.808 167.208 177.824 167.976 177.824 168.648C178.688 167.592 179.504 166.744 180.272 166.104C181.04 165.464 181.792 165 182.528 164.712C183.296 164.392 184.064 164.232 184.832 164.232C185.952 164.232 186.928 164.552 187.76 165.192C188.592 165.8 189.008 166.808 189.008 168.216C189.008 168.696 188.896 169.208 188.672 169.752C188.448 170.264 188.096 170.696 187.616 171.048C187.136 171.4 186.48 171.576 185.648 171.576C185.008 171.576 184.352 171.384 183.68 171C183.008 170.616 182.624 169.88 182.528 168.792C181.888 168.792 181.248 169.064 180.608 169.608C179.968 170.12 179.392 170.744 178.88 171.48C178.4 172.184 178.064 172.84 177.872 173.448V181.272C177.872 181.72 177.856 182.36 177.824 183.192C177.792 183.992 177.744 184.76 177.68 185.496C178.192 185.432 178.752 185.4 179.36 185.4C180 185.368 180.48 185.352 180.8 185.352V189H168.224V185.88ZM199.063 163.608C199.063 159.736 199.911 156.968 201.607 155.304C203.303 153.608 205.591 152.76 208.471 152.76C209.975 152.76 211.175 152.984 212.071 153.432C212.967 153.848 213.607 154.376 213.991 155.016C214.375 155.656 214.567 156.312 214.567 156.984C214.567 157.816 214.311 158.552 213.799 159.192C213.287 159.832 212.551 160.168 211.591 160.2C210.663 160.232 209.943 159.992 209.431 159.48C208.919 158.936 208.663 158.264 208.663 157.464C208.663 157.304 208.663 157.144 208.663 156.984C208.695 156.824 208.727 156.664 208.759 156.504C208.599 156.344 208.407 156.248 208.183 156.216C207.991 156.152 207.815 156.12 207.655 156.12C207.143 156.12 206.743 156.28 206.455 156.6C206.167 156.888 205.975 157.256 205.879 157.704C205.783 158.152 205.735 158.616 205.735 159.096V165H211.111V168.696L205.783 168.84L205.831 181.176C205.831 181.624 205.815 182.28 205.783 183.144C205.751 183.976 205.703 184.76 205.639 185.496C206.183 185.432 206.791 185.4 207.463 185.4C208.167 185.368 208.679 185.352 208.999 185.352V189H196.183V185.88C197.079 185.88 197.719 185.704 198.103 185.352C198.519 185 198.775 184.504 198.871 183.864C198.999 183.192 199.063 182.44 199.063 181.608V168.936L195.559 168.984V165H199.063V163.608ZM230.084 189.768C227.78 189.768 225.7 189.272 223.844 188.28C221.988 187.288 220.516 185.88 219.428 184.056C218.372 182.2 217.844 180.024 217.844 177.528C217.844 174.872 218.388 172.552 219.476 170.568C220.596 168.552 222.068 167 223.892 165.912C225.748 164.792 227.764 164.232 229.94 164.232C232.244 164.232 234.308 164.728 236.132 165.72C237.956 166.712 239.396 168.136 240.452 169.992C241.508 171.816 242.036 174.008 242.036 176.568C242.036 179.256 241.524 181.592 240.5 183.576C239.476 185.56 238.068 187.096 236.276 188.184C234.484 189.24 232.42 189.768 230.084 189.768ZM230.276 186.36C231.556 186.328 232.516 185.88 233.156 185.016C233.828 184.152 234.292 183.064 234.548 181.752C234.804 180.44 234.932 179.112 234.932 177.768C234.932 176.584 234.836 175.384 234.644 174.168C234.484 172.952 234.212 171.848 233.828 170.856C233.444 169.864 232.916 169.064 232.244 168.456C231.604 167.848 230.804 167.56 229.844 167.592C228.596 167.624 227.604 168.072 226.868 168.936C226.164 169.8 225.652 170.888 225.332 172.2C225.044 173.48 224.9 174.824 224.9 176.232C224.9 177.864 225.076 179.464 225.428 181.032C225.78 182.6 226.34 183.896 227.108 184.92C227.908 185.912 228.964 186.392 230.276 186.36ZM250.312 185.88C251.208 185.88 251.848 185.704 252.232 185.352C252.616 185 252.856 184.504 252.952 183.864C253.08 183.192 253.144 182.44 253.144 181.608V173.544C253.144 172.968 253.16 172.328 253.192 171.624C253.224 170.888 253.272 170.168 253.336 169.464C252.824 169.496 252.216 169.528 251.512 169.56C250.84 169.56 250.328 169.576 249.976 169.608V165.96H251.896C253.144 165.96 254.28 165.8 255.304 165.48C256.36 165.16 257.048 164.84 257.368 164.52H259.72C259.784 164.84 259.832 165.448 259.864 166.344C259.896 167.208 259.912 167.976 259.912 168.648C260.776 167.592 261.592 166.744 262.36 166.104C263.128 165.464 263.88 165 264.616 164.712C265.384 164.392 266.152 164.232 266.92 164.232C268.04 164.232 269.016 164.552 269.848 165.192C270.68 165.8 271.096 166.808 271.096 168.216C271.096 168.696 270.984 169.208 270.76 169.752C270.536 170.264 270.184 170.696 269.704 171.048C269.224 171.4 268.568 171.576 267.736 171.576C267.096 171.576 266.44 171.384 265.768 171C265.096 170.616 264.712 169.88 264.616 168.792C263.976 168.792 263.336 169.064 262.696 169.608C262.056 170.12 261.48 170.744 260.968 171.48C260.488 172.184 260.152 172.84 259.96 173.448V181.272C259.96 181.72 259.944 182.36 259.912 183.192C259.88 183.992 259.832 184.76 259.768 185.496C260.28 185.432 260.84 185.4 261.448 185.4C262.088 185.368 262.568 185.352 262.888 185.352V189H250.312V185.88ZM278.174 189V185.88C279.07 185.88 279.71 185.704 280.094 185.352C280.478 185 280.718 184.504 280.814 183.864C280.942 183.192 281.006 182.44 281.006 181.608V173.544C281.006 172.968 281.022 172.328 281.054 171.624C281.086 170.888 281.134 170.168 281.198 169.464C280.686 169.496 280.078 169.528 279.374 169.56C278.702 169.56 278.19 169.576 277.838 169.608V165.96C279.31 165.96 280.558 165.88 281.582 165.72C282.606 165.56 283.406 165.368 283.982 165.144C284.59 164.92 285.006 164.712 285.23 164.52H287.582C287.646 164.84 287.678 165.24 287.678 165.72C287.71 166.2 287.742 166.6 287.774 166.92C288.862 166.088 290.03 165.432 291.278 164.952C292.558 164.472 293.758 164.232 294.878 164.232C296.35 164.232 297.566 164.504 298.526 165.048C299.486 165.56 300.254 166.344 300.83 167.4C301.982 166.44 303.246 165.672 304.622 165.096C306.03 164.52 307.374 164.232 308.654 164.232C311.246 164.232 313.198 164.984 314.51 166.488C315.854 167.96 316.526 170.536 316.526 174.216V181.272C316.526 181.72 316.51 182.36 316.478 183.192C316.446 183.992 316.398 184.76 316.334 185.496C316.846 185.432 317.406 185.4 318.014 185.4C318.654 185.368 319.134 185.352 319.454 185.352V189H307.31V185.88C308.046 185.88 308.574 185.704 308.894 185.352C309.246 185 309.47 184.504 309.566 183.864C309.662 183.192 309.71 182.44 309.71 181.608V174.264C309.678 172.184 309.326 170.744 308.654 169.944C308.014 169.144 307.15 168.728 306.062 168.696C305.23 168.664 304.446 168.808 303.71 169.128C303.006 169.448 302.366 169.832 301.79 170.28C301.95 170.92 302.062 171.624 302.126 172.392C302.19 173.16 302.222 173.976 302.222 174.84C302.222 175.928 302.222 177 302.222 178.056C302.222 179.112 302.222 180.184 302.222 181.272C302.222 181.72 302.206 182.36 302.174 183.192C302.142 183.992 302.094 184.76 302.03 185.496C302.542 185.432 303.102 185.4 303.71 185.4C304.318 185.368 304.798 185.352 305.15 185.352V189H292.766V185.88C293.598 185.88 294.19 185.704 294.542 185.352C294.926 185 295.166 184.504 295.262 183.864C295.358 183.192 295.406 182.44 295.406 181.608L295.358 174.12C295.358 172.04 295.054 170.616 294.446 169.848C293.838 169.08 292.99 168.68 291.902 168.648C291.102 168.648 290.35 168.824 289.646 169.176C288.974 169.528 288.366 169.944 287.822 170.424C287.822 170.84 287.822 171.24 287.822 171.624C287.822 172.008 287.822 172.408 287.822 172.824V181.272C287.822 181.72 287.806 182.36 287.774 183.192C287.742 183.992 287.694 184.76 287.63 185.496C288.142 185.432 288.67 185.4 289.214 185.4C289.758 185.368 290.19 185.352 290.51 185.352V189H278.174ZM327.131 185.88C328.027 185.88 328.667 185.704 329.051 185.352C329.435 185 329.675 184.504 329.771 183.864C329.899 183.192 329.963 182.44 329.963 181.608V173.64C329.963 173.064 329.979 172.408 330.011 171.672C330.043 170.904 330.091 170.168 330.155 169.464C329.643 169.496 329.035 169.528 328.331 169.56C327.659 169.56 327.147 169.576 326.795 169.608V165.96C328.267 165.96 329.515 165.88 330.539 165.72C331.563 165.56 332.363 165.368 332.939 165.144C333.547 164.92 333.963 164.712 334.187 164.52H336.779V181.272C336.779 181.72 336.763 182.36 336.731 183.192C336.699 183.992 336.651 184.76 336.587 185.496C337.099 185.432 337.659 185.4 338.267 185.4C338.907 185.368 339.387 185.352 339.707 185.352V189H327.131V185.88ZM333.131 160.728C332.043 160.728 331.147 160.344 330.443 159.576C329.739 158.808 329.387 157.88 329.387 156.792C329.387 155.704 329.755 154.776 330.491 154.008C331.227 153.24 332.091 152.856 333.083 152.856C334.107 152.856 334.955 153.24 335.627 154.008C336.331 154.776 336.683 155.704 336.683 156.792C336.683 157.88 336.363 158.808 335.723 159.576C335.083 160.344 334.219 160.728 333.131 160.728ZM347.634 189V185.88C348.53 185.88 349.17 185.704 349.554 185.352C349.938 185 350.178 184.504 350.274 183.864C350.402 183.192 350.466 182.44 350.466 181.608V173.544C350.466 172.968 350.482 172.328 350.514 171.624C350.546 170.888 350.594 170.168 350.658 169.464C350.146 169.496 349.538 169.528 348.834 169.56C348.162 169.56 347.65 169.576 347.298 169.608V165.96C348.77 165.96 350.018 165.88 351.042 165.72C352.066 165.56 352.866 165.368 353.442 165.144C354.05 164.92 354.466 164.712 354.69 164.52H357.042C357.106 164.936 357.138 165.24 357.138 165.432C357.138 165.624 357.138 165.816 357.138 166.008C357.17 166.168 357.234 166.472 357.33 166.92C357.97 166.408 358.706 165.96 359.538 165.576C360.37 165.16 361.202 164.84 362.034 164.616C362.866 164.36 363.602 164.232 364.242 164.232C367.186 164.232 369.266 165.08 370.482 166.776C371.73 168.44 372.354 171.128 372.354 174.84V181.272C372.354 181.72 372.338 182.36 372.306 183.192C372.274 183.992 372.226 184.76 372.162 185.496C372.706 185.432 373.282 185.4 373.89 185.4C374.498 185.368 374.962 185.352 375.282 185.352V189H362.706V185.88C363.602 185.88 364.242 185.704 364.626 185.352C365.042 185 365.298 184.504 365.394 183.864C365.522 183.192 365.586 182.44 365.586 181.608L365.538 174.792C365.538 172.712 365.234 171.176 364.626 170.184C364.05 169.16 363.058 168.648 361.65 168.648C360.85 168.648 360.05 168.824 359.25 169.176C358.482 169.528 357.826 169.944 357.282 170.424C357.282 170.872 357.282 171.336 357.282 171.816C357.282 172.264 357.282 172.712 357.282 173.16V181.272C357.282 181.72 357.266 182.36 357.234 183.192C357.202 183.992 357.154 184.76 357.09 185.496C357.602 185.432 358.162 185.4 358.77 185.4C359.41 185.368 359.89 185.352 360.21 185.352V189H347.634ZM393.269 202.008C390.517 202.008 388.341 201.704 386.741 201.096C385.141 200.52 384.005 199.752 383.333 198.792C382.661 197.832 382.325 196.808 382.325 195.72C382.325 195.048 382.469 194.376 382.757 193.704C383.045 193.032 383.509 192.376 384.149 191.736C384.821 191.128 385.733 190.616 386.885 190.2C385.573 189.848 384.645 189.288 384.101 188.52C383.589 187.72 383.333 186.872 383.333 185.976C383.333 185.144 383.669 184.216 384.341 183.192C385.013 182.136 386.229 181.336 387.989 180.792C386.645 180.248 385.541 179.4 384.677 178.248C383.813 177.096 383.349 175.704 383.285 174.072C383.221 172.152 383.701 170.456 384.725 168.984C385.749 167.48 387.093 166.312 388.757 165.48C390.421 164.648 392.165 164.232 393.989 164.232C394.821 164.232 395.781 164.344 396.869 164.568C397.957 164.792 398.901 165.176 399.701 165.72C400.053 164.728 400.501 163.8 401.045 162.936C401.621 162.04 402.309 161.32 403.109 160.776C403.909 160.2 404.805 159.912 405.797 159.912C406.885 159.912 407.701 160.2 408.245 160.776C408.821 161.32 409.109 162.056 409.109 162.984C409.109 163.368 409.013 163.8 408.821 164.28C408.661 164.728 408.357 165.112 407.909 165.432C407.493 165.752 406.901 165.912 406.133 165.912C405.653 165.912 405.173 165.736 404.693 165.384C404.213 165 403.925 164.552 403.829 164.04C403.413 164.168 402.997 164.584 402.581 165.288C402.165 165.992 401.925 166.616 401.861 167.16C402.789 167.96 403.493 168.888 403.973 169.944C404.453 171 404.693 172.136 404.693 173.352C404.693 175.208 404.165 176.856 403.109 178.296C402.085 179.704 400.741 180.824 399.077 181.656C397.445 182.456 395.685 182.856 393.797 182.856C393.381 182.856 392.917 182.84 392.405 182.808C391.893 182.744 391.397 182.712 390.917 182.712C390.213 182.712 389.621 182.84 389.141 183.096C388.661 183.352 388.421 183.704 388.421 184.152C388.421 184.76 388.885 185.176 389.813 185.4C390.741 185.624 392.325 185.8 394.565 185.928C397.029 186.056 399.173 186.376 400.997 186.888C402.853 187.368 404.293 188.136 405.317 189.192C406.341 190.248 406.853 191.704 406.853 193.56C406.853 194.936 406.453 196.136 405.653 197.16C404.853 198.216 403.781 199.096 402.437 199.8C401.125 200.536 399.669 201.08 398.069 201.432C396.469 201.816 394.869 202.008 393.269 202.008ZM394.661 198.696C396.933 198.696 398.645 198.28 399.797 197.448C400.981 196.616 401.573 195.752 401.573 194.856C401.573 194.184 401.317 193.624 400.805 193.176C400.293 192.76 399.525 192.424 398.501 192.168C397.509 191.912 396.229 191.752 394.661 191.688C393.957 191.624 393.141 191.576 392.213 191.544C391.285 191.512 390.469 191.432 389.765 191.304C389.285 191.688 388.917 192.168 388.661 192.744C388.405 193.32 388.261 193.88 388.229 194.424C388.165 195.704 388.709 196.728 389.861 197.496C391.045 198.296 392.645 198.696 394.661 198.696ZM393.989 179.64C394.853 179.64 395.573 179.368 396.149 178.824C396.757 178.28 397.205 177.592 397.493 176.76C397.813 175.928 397.973 175.08 397.973 174.216C397.973 173.096 397.829 172.024 397.541 171C397.253 169.944 396.805 169.096 396.197 168.456C395.621 167.784 394.869 167.448 393.941 167.448C392.661 167.448 391.669 168.024 390.965 169.176C390.261 170.328 389.909 171.64 389.909 173.112C389.909 174.232 390.069 175.304 390.389 176.328C390.709 177.32 391.173 178.12 391.781 178.728C392.389 179.336 393.125 179.64 393.989 179.64ZM117.312 249C117.248 248.552 117.2 248.184 117.168 247.896C117.168 247.576 117.152 247.208 117.12 246.792C116.032 247.88 114.88 248.648 113.664 249.096C112.448 249.544 111.216 249.768 109.968 249.768C107.92 249.768 106.32 249.16 105.168 247.944C104.016 246.728 103.44 245.208 103.44 243.384C103.44 241.848 103.824 240.536 104.592 239.448C105.392 238.36 106.432 237.48 107.712 236.808C109.024 236.104 110.464 235.576 112.032 235.224C113.632 234.84 115.232 234.616 116.832 234.552V232.056C116.832 231.224 116.72 230.472 116.496 229.8C116.304 229.128 115.952 228.6 115.44 228.216C114.96 227.832 114.272 227.656 113.376 227.688C112.768 227.72 112.176 227.848 111.6 228.072C111.024 228.296 110.528 228.616 110.112 229.032C110.368 229.32 110.528 229.64 110.592 229.992C110.656 230.312 110.688 230.6 110.688 230.856C110.688 231.496 110.432 232.168 109.92 232.872C109.408 233.544 108.592 233.864 107.472 233.832C106.512 233.8 105.776 233.464 105.264 232.824C104.752 232.184 104.496 231.432 104.496 230.568C104.496 229.288 104.944 228.184 105.84 227.256C106.768 226.296 108 225.56 109.536 225.048C111.072 224.504 112.768 224.232 114.624 224.232C117.44 224.232 119.616 224.968 121.152 226.44C122.72 227.88 123.504 230.2 123.504 233.4C123.504 234.488 123.504 235.416 123.504 236.184C123.504 236.952 123.488 237.72 123.456 238.488C123.456 239.256 123.456 240.184 123.456 241.272C123.456 241.72 123.44 242.36 123.408 243.192C123.376 243.992 123.328 244.76 123.264 245.496C123.808 245.432 124.384 245.4 124.992 245.4C125.6 245.368 126.064 245.352 126.384 245.352V249H117.312ZM116.784 237.96C115.888 238.056 115.04 238.216 114.24 238.44C113.44 238.664 112.736 238.968 112.128 239.352C111.552 239.736 111.088 240.2 110.736 240.744C110.416 241.288 110.256 241.896 110.256 242.568C110.288 243.464 110.576 244.104 111.12 244.488C111.664 244.872 112.288 245.064 112.992 245.064C113.728 245.064 114.416 244.904 115.056 244.584C115.696 244.264 116.272 243.848 116.784 243.336C116.784 243.016 116.784 242.712 116.784 242.424C116.784 242.104 116.784 241.784 116.784 241.464C116.784 240.888 116.784 240.312 116.784 239.736C116.784 239.128 116.784 238.536 116.784 237.96ZM133.94 245.88C134.836 245.88 135.476 245.704 135.86 245.352C136.244 245 136.484 244.504 136.58 243.864C136.708 243.192 136.772 242.44 136.772 241.608V233.544C136.772 232.968 136.788 232.328 136.82 231.624C136.852 230.888 136.9 230.168 136.964 229.464C136.452 229.496 135.844 229.528 135.14 229.56C134.468 229.56 133.956 229.576 133.604 229.608V225.96H135.524C136.772 225.96 137.908 225.8 138.932 225.48C139.988 225.16 140.676 224.84 140.996 224.52H143.348C143.412 224.84 143.46 225.448 143.492 226.344C143.524 227.208 143.54 227.976 143.54 228.648C144.404 227.592 145.22 226.744 145.988 226.104C146.756 225.464 147.508 225 148.244 224.712C149.012 224.392 149.78 224.232 150.548 224.232C151.668 224.232 152.644 224.552 153.476 225.192C154.308 225.8 154.724 226.808 154.724 228.216C154.724 228.696 154.612 229.208 154.388 229.752C154.164 230.264 153.812 230.696 153.332 231.048C152.852 231.4 152.196 231.576 151.364 231.576C150.724 231.576 150.068 231.384 149.396 231C148.724 230.616 148.34 229.88 148.244 228.792C147.604 228.792 146.964 229.064 146.324 229.608C145.684 230.12 145.108 230.744 144.596 231.48C144.116 232.184 143.78 232.84 143.588 233.448V241.272C143.588 241.72 143.572 242.36 143.54 243.192C143.508 243.992 143.46 244.76 143.396 245.496C143.908 245.432 144.468 245.4 145.076 245.4C145.716 245.368 146.196 245.352 146.516 245.352V249H133.94V245.88ZM171.306 249.768C170.346 249.768 169.418 249.656 168.522 249.432C167.658 249.208 166.858 248.792 166.122 248.184C165.418 247.544 164.858 246.616 164.442 245.4C164.026 244.184 163.818 242.568 163.818 240.552L163.914 228.984H160.65V225C161.642 224.968 162.602 224.632 163.53 223.992C164.458 223.352 165.242 222.52 165.882 221.496C166.554 220.472 167.002 219.4 167.226 218.28H170.778L170.73 225H176.826V228.696L170.73 228.84L170.682 240.648C170.682 241.384 170.746 242.12 170.874 242.856C171.034 243.56 171.322 244.152 171.738 244.632C172.154 245.08 172.762 245.304 173.562 245.304C174.01 245.304 174.618 245.144 175.386 244.824C176.186 244.504 177.034 243.704 177.93 242.424L180.234 244.584C179.37 245.864 178.474 246.856 177.546 247.56C176.618 248.264 175.722 248.776 174.858 249.096C174.026 249.416 173.29 249.608 172.65 249.672C172.01 249.736 171.562 249.768 171.306 249.768ZM197.471 249.768C196.095 249.768 194.751 249.592 193.439 249.24C192.127 248.888 191.103 248.44 190.367 247.896L190.463 249.336H186.815L186.623 241.08H189.743C189.839 242.04 190.223 242.92 190.895 243.72C191.567 244.52 192.447 245.16 193.535 245.64C194.623 246.088 195.839 246.312 197.183 246.312C197.727 246.312 198.239 246.232 198.719 246.072C199.231 245.912 199.647 245.656 199.967 245.304C200.319 244.92 200.495 244.456 200.495 243.912C200.495 243.304 200.271 242.808 199.823 242.424C199.407 242.04 198.783 241.672 197.951 241.32C197.151 240.968 196.143 240.568 194.927 240.12C193.935 239.736 192.927 239.336 191.903 238.92C190.911 238.504 189.983 238.008 189.119 237.432C188.287 236.824 187.615 236.088 187.103 235.224C186.591 234.328 186.335 233.24 186.335 231.96C186.335 231.032 186.511 230.12 186.863 229.224C187.215 228.296 187.759 227.464 188.495 226.728C189.231 225.96 190.159 225.352 191.279 224.904C192.431 224.456 193.791 224.232 195.359 224.232C196.223 224.232 197.199 224.376 198.287 224.664C199.407 224.92 200.351 225.32 201.119 225.864V224.472H204.767V232.968H201.647C201.455 231.848 201.055 230.888 200.447 230.088C199.871 229.288 199.119 228.68 198.191 228.264C197.263 227.816 196.223 227.592 195.071 227.592C194.271 227.592 193.535 227.784 192.863 228.168C192.223 228.552 191.903 229.208 191.903 230.136C191.903 230.872 192.159 231.464 192.671 231.912C193.183 232.328 193.887 232.68 194.783 232.968C195.679 233.256 196.671 233.592 197.759 233.976C199.391 234.52 200.831 235.16 202.079 235.896C203.359 236.632 204.367 237.528 205.103 238.584C205.839 239.608 206.207 240.872 206.207 242.376C206.207 244.04 205.791 245.416 204.959 246.504C204.127 247.592 203.039 248.408 201.695 248.952C200.383 249.496 198.975 249.768 197.471 249.768Z" fill="#B07A39"/>
<path d="M352.205 368.251C343.126 371.311 333.958 372.458 324.7 371.694C315.442 370.93 306.779 368.548 298.712 364.547C290.644 360.546 283.504 355.092 277.293 348.185C271.082 341.278 266.446 333.285 263.387 324.205C260.29 315.016 259.179 305.773 260.053 296.478C260.928 287.183 263.431 278.51 267.561 270.461C271.691 262.411 277.265 255.262 284.283 249.013C291.301 242.764 299.46 238.073 308.761 234.939C317.619 231.954 326.491 230.659 335.378 231.055C344.265 231.451 352.576 233.336 360.309 236.709C368.042 240.083 374.893 244.864 380.862 251.052C386.831 257.239 391.251 264.596 394.124 273.121C398.415 285.854 397.833 296.931 392.377 306.352C386.921 315.773 378.657 322.349 367.585 326.08L355.295 330.222C354.299 330.558 353.7 331.068 353.499 331.752C353.298 332.436 353.309 333.11 353.533 333.775C353.981 335.103 355.455 336.733 357.955 338.665C360.456 340.596 362.247 343.168 363.329 346.379C365.194 351.915 365.052 356.524 362.903 360.208C360.754 363.891 357.188 366.572 352.205 368.251ZM295.52 320.775C298.398 319.805 300.462 318.061 301.71 315.545C302.958 313.028 303.097 310.331 302.127 307.452C301.157 304.573 299.413 302.51 296.897 301.262C294.38 300.014 291.683 299.875 288.804 300.845C285.925 301.815 283.862 303.558 282.614 306.075C281.366 308.591 281.227 311.289 282.197 314.168C283.167 317.047 284.91 319.11 287.427 320.358C289.943 321.606 292.641 321.745 295.52 320.775ZM306.495 287.486C309.374 286.516 311.437 284.772 312.685 282.256C313.933 279.739 314.072 277.042 313.102 274.163C312.132 271.284 310.388 269.221 307.872 267.973C305.355 266.725 302.658 266.586 299.779 267.556C296.9 268.526 294.837 270.27 293.589 272.786C292.341 275.303 292.202 278 293.172 280.879C294.142 283.758 295.885 285.821 298.402 287.069C300.918 288.317 303.616 288.456 306.495 287.486ZM339.711 276.293C342.59 275.322 344.653 273.579 345.901 271.063C347.149 268.546 347.288 265.848 346.318 262.97C345.348 260.091 343.604 258.028 341.088 256.78C338.571 255.532 335.874 255.393 332.995 256.363C330.116 257.333 328.053 259.076 326.805 261.593C325.557 264.109 325.418 266.807 326.388 269.686C327.358 272.564 329.102 274.628 331.618 275.876C334.135 277.124 336.832 277.263 339.711 276.293ZM368.595 296.149C371.474 295.179 373.537 293.436 374.785 290.92C376.033 288.403 376.172 285.705 375.202 282.827C374.232 279.948 372.489 277.885 369.972 276.637C367.456 275.389 364.758 275.25 361.879 276.22C359.001 277.19 356.937 278.933 355.689 281.45C354.441 283.966 354.302 286.664 355.272 289.543C356.243 292.421 357.986 294.485 360.502 295.733C363.019 296.981 365.717 297.12 368.595 296.149Z" fill="#D9A05B"/>
<path d="M301 401.5C306.375 401.5 311.69 400.186 316.946 397.558C322.201 394.93 326.442 391.467 329.667 387.167C326.561 387.167 323.396 385.942 320.171 383.494C316.946 381.045 315.333 377.492 315.333 372.833C315.333 366.861 313.243 361.785 309.063 357.604C304.882 353.424 299.806 351.333 293.833 351.333C287.861 351.333 282.785 353.424 278.604 357.604C274.424 361.785 272.333 366.861 272.333 372.833C272.333 380.717 275.14 387.465 280.754 393.079C286.368 398.693 293.117 401.5 301 401.5ZM259.792 358.5L279.5 338.792L215.358 274.65C214.045 273.336 212.402 272.649 210.431 272.59C208.46 272.53 206.758 273.217 205.325 274.65L195.65 284.325C194.217 285.758 193.5 287.43 193.5 289.342C193.5 291.253 194.217 292.925 195.65 294.358L259.792 358.5Z" fill="#CA9351"/>
<defs>
<filter id="filter0_d_487_5947" x="0" y="0" width="497" height="497" filterUnits="userSpaceOnUse" color-interpolation-filters="sRGB">
<feFlood flood-opacity="0" result="BackgroundImageFix"/>
<feColorMatrix in="SourceAlpha" type="matrix" values="0 0 0 0 0 0 0 0 0 0 0 0 0 0 0 0 0 0 127 0" result="hardAlpha"/>
<feOffset dy="4"/>
<feGaussianBlur stdDeviation="5"/>
<feComposite in2="hardAlpha" operator="out"/>
<feColorMatrix type="matrix" values="0 0 0 0 0 0 0 0 0 0 0 0 0 0 0 0 0 0 0.1 0"/>
<feBlend mode="normal" in2="BackgroundImageFix" result="effect1_dropShadow_487_5947"/>
<feBlend mode="normal" in="SourceGraphic" in2="effect1_dropShadow_487_5947" result="shape"/>
</filter>
</defs>
</svg>
