<svg width="528" height="379" viewBox="0 0 528 379" fill="none" xmlns="http://www.w3.org/2000/svg">
<g filter="url(#filter0_d_1023_271)">
<mask id="mask0_1023_271" style="mask-type:alpha" maskUnits="userSpaceOnUse" x="6" y="6" width="509" height="360">
<ellipse cx="260.25" cy="186" rx="180" ry="254.25" transform="rotate(90 260.25 186)" fill="#0A4153"/>
</mask>
<g mask="url(#mask0_1023_271)">
<ellipse cx="260.25" cy="186" rx="180" ry="254.25" transform="rotate(90 260.25 186)" fill="#995A1E"/>
<path d="M496.94 186C496.94 230.335 470.853 270.805 427.999 300.322C385.158 329.831 325.805 348.18 260.099 348.18C194.392 348.18 135.039 329.831 92.1982 300.322C49.3439 270.805 23.2569 230.335 23.2568 186C23.2568 141.666 49.3439 101.195 92.1982 71.6779C135.04 42.1696 194.392 23.8195 260.099 23.8195C325.805 23.8195 385.158 42.1696 427.999 71.6779C470.853 101.195 496.94 141.666 496.94 186Z" stroke="#FDD4A3" stroke-width="6.12"/>
<path d="M180.584 72.1016L175.99 57.4762L184.404 54.8329L184.92 56.4758L178.289 58.5589L179.711 63.0868L185.641 61.2239L186.151 62.8467L180.221 64.7096L181.851 69.8986L188.482 67.8154L188.999 69.4583L180.584 72.1016ZM202.872 65.8724C201.889 66.094 201.005 66.1209 200.221 65.9532C199.451 65.7824 198.805 65.4328 198.284 64.9043C197.763 64.3759 197.4 63.6899 197.196 62.8462L199.04 62.4307C199.209 63.1819 199.596 63.719 200.199 64.0422C200.817 64.3623 201.583 64.4192 202.498 64.213C203.359 64.0191 203.98 63.6566 204.363 63.1255C204.759 62.5913 204.872 61.9486 204.703 61.1975C204.568 60.5965 204.285 60.1077 203.856 59.7308C203.44 59.3509 202.912 59.1399 202.271 59.0978L200.1 58.9198C199.005 58.8365 198.094 58.4892 197.368 57.8778C196.655 57.2635 196.187 56.4578 195.962 55.4608C195.781 54.655 195.801 53.9184 196.024 53.2511C196.257 52.5671 196.665 51.9873 197.246 51.5118C197.825 51.0226 198.558 50.678 199.446 50.478C200.757 50.1825 201.892 50.3143 202.85 50.8733C203.805 51.4186 204.427 52.2975 204.714 53.5099L202.871 53.9254C202.704 53.1879 202.35 52.6651 201.807 52.3569C201.274 52.032 200.605 51.9604 199.799 52.142C199.007 52.3205 198.429 52.6517 198.064 53.1357C197.714 53.6166 197.615 54.1985 197.769 54.8814C197.908 55.496 198.191 55.9917 198.621 56.3685C199.05 56.7453 199.594 56.9601 200.251 57.0128L202.448 57.2067C203.515 57.2961 204.407 57.6549 205.123 58.2829C205.838 58.911 206.31 59.7303 206.538 60.741C206.722 61.5604 206.693 62.3206 206.449 63.0213C206.205 63.7221 205.773 64.3217 205.154 64.8201C204.548 65.3154 203.787 65.6662 202.872 65.8724ZM220.323 62.1581L218.387 48.6674L214.229 49.2641L213.985 47.5596L224.17 46.0975L224.415 47.8021L220.258 48.3988L222.194 61.8895L220.323 62.1581ZM240.018 60.0234C239.487 60.059 239.05 59.9339 238.709 59.6481C238.381 59.3614 238.199 58.9597 238.165 58.4428C238.128 57.8981 238.253 57.4547 238.539 57.1128C238.838 56.77 239.254 56.5808 239.784 56.5452C240.315 56.5096 240.745 56.6421 241.074 56.9428C241.417 57.2425 241.606 57.6648 241.643 58.2096C241.678 58.7264 241.545 59.1492 241.244 59.4781C240.957 59.806 240.548 59.9878 240.018 60.0234ZM273.375 59.257L273.531 57.3313L278.6 52.7488C279.465 51.962 280.105 51.2554 280.521 50.629C280.938 49.9886 281.171 49.3614 281.221 48.7474C281.29 47.8962 281.107 47.2072 280.672 46.6803C280.251 46.1546 279.636 45.859 278.827 45.7934C277.934 45.721 277.209 45.9151 276.652 46.3756C276.109 46.8373 275.801 47.5076 275.73 48.3868L273.846 48.2341C273.949 47.3154 274.223 46.537 274.668 45.8988C275.128 45.2478 275.721 44.7692 276.449 44.4629C277.19 44.1578 278.028 44.0431 278.963 44.1189C279.883 44.1935 280.664 44.4393 281.305 44.8564C281.96 45.2607 282.443 45.8054 282.752 46.4907C283.062 47.1759 283.18 47.9721 283.107 48.8791C283.036 49.7443 282.737 50.5838 282.207 51.3977C281.678 52.2116 280.846 53.1204 279.711 54.124L275.628 57.7119L282.598 58.2767L282.459 59.9931L273.375 59.257ZM296.464 61.8183C295.537 61.6717 294.757 61.3639 294.122 60.895C293.504 60.4145 293.061 59.8128 292.792 59.09C292.526 58.3533 292.464 57.5356 292.606 56.6368L293.656 49.9993C293.801 49.0867 294.112 48.328 294.591 47.7233C295.069 47.1187 295.675 46.6902 296.41 46.4378C297.16 46.1739 297.999 46.1152 298.925 46.2617C299.865 46.4105 300.645 46.7252 301.263 47.2057C301.884 47.6724 302.329 48.2672 302.597 48.99C302.865 49.7128 302.927 50.5306 302.783 51.4432L301.733 58.0807C301.591 58.9795 301.279 59.7382 300.799 60.3567C300.32 60.9613 299.706 61.3957 298.955 61.6596C298.221 61.912 297.39 61.9648 296.464 61.8183ZM296.717 60.2211C297.546 60.3524 298.252 60.1947 298.833 59.748C299.43 59.2896 299.795 58.6387 299.928 57.7952L300.978 51.1577C301.112 50.3142 300.964 49.5893 300.536 48.9828C300.123 48.3648 299.502 47.9901 298.672 47.8589C297.843 47.7276 297.129 47.8912 296.533 48.3495C295.952 48.7962 295.594 49.4413 295.461 50.2848L294.411 56.9223C294.277 57.7658 294.417 58.4966 294.829 59.1146C295.258 59.721 295.887 60.0899 296.717 60.2211ZM297.501 55.2638C297.128 55.2047 296.842 55.039 296.644 54.7668C296.46 54.4967 296.399 54.1681 296.46 53.7809C296.519 53.4075 296.677 53.1277 296.933 52.9415C297.205 52.7436 297.528 52.6742 297.901 52.7333C298.275 52.7923 298.553 52.9569 298.737 53.227C298.937 53.4854 299.008 53.8013 298.949 54.1747C298.888 54.5619 298.721 54.8544 298.449 55.0523C298.19 55.2523 297.874 55.3228 297.501 55.2638ZM310.766 64.0212L311.17 62.3473L315.212 63.323L318.036 51.626L313.265 53.6715L313.757 51.6302L317.732 49.9324L320.243 50.5385L317.049 63.7665L320.356 64.5649L319.952 66.2388L310.766 64.0212ZM333.192 70.0945C332.004 69.7193 331.126 69.1044 330.559 68.25C329.992 67.3956 329.807 66.4266 330.002 65.3432L331.804 65.9123C331.69 66.5075 331.795 67.0327 332.121 67.488C332.452 67.93 332.984 68.2669 333.718 68.4988C334.559 68.7644 335.258 68.7356 335.815 68.4124C336.386 68.0935 336.802 67.5201 337.063 66.6924L337.512 65.2706C337.774 64.4429 337.763 63.7347 337.479 63.1458C337.208 62.5612 336.659 62.1382 335.831 61.8768C335.311 61.7124 334.813 61.7092 334.337 61.8673C333.865 62.012 333.471 62.284 333.154 62.683L331.352 62.1139L334.007 54.0554L341.697 56.4839L341.178 58.1259L335.231 56.2476L333.634 61.0947L334.195 61.2718L333.47 61.6154C333.668 60.9879 334.071 60.572 334.678 60.3675C335.3 60.1673 336.031 60.2 336.872 60.4656C338.064 60.8275 338.869 61.4855 339.287 62.4397C339.723 63.3848 339.732 64.5181 339.315 65.8398L338.866 67.2616C338.457 68.5565 337.752 69.4643 336.75 69.985C335.753 70.4922 334.567 70.5288 333.192 70.0945Z" fill="#FDD4A3"/>
<path d="M298.149 176.603C292.22 178.601 286.233 179.35 280.187 178.851C274.141 178.352 268.483 176.797 263.215 174.184C257.946 171.571 253.283 168.009 249.227 163.498C245.17 158.987 242.143 153.767 240.145 147.838C238.123 141.837 237.397 135.801 237.968 129.73C238.54 123.66 240.174 117.996 242.871 112.739C245.568 107.483 249.209 102.814 253.792 98.7329C258.375 94.6521 263.704 91.5884 269.777 89.5416C275.562 87.5923 281.356 86.7468 287.16 87.0053C292.964 87.2637 298.391 88.4946 303.441 90.6979C308.491 92.9012 312.966 96.0233 316.864 100.064C320.762 104.105 323.649 108.909 325.525 114.477C328.327 122.792 327.947 130.026 324.384 136.179C320.821 142.331 315.424 146.626 308.193 149.063L300.167 151.767C299.516 151.987 299.125 152.32 298.994 152.766C298.863 153.213 298.87 153.654 299.017 154.087C299.309 154.955 300.272 156.02 301.904 157.281C303.537 158.542 304.707 160.222 305.414 162.319C306.632 165.934 306.539 168.944 305.136 171.35C303.732 173.755 301.403 175.506 298.149 176.603ZM261.13 145.598C263.01 144.964 264.358 143.826 265.173 142.182C265.988 140.539 266.078 138.777 265.445 136.897C264.811 135.017 263.673 133.67 262.029 132.855C260.386 132.04 258.624 131.949 256.744 132.582C254.864 133.216 253.517 134.354 252.702 135.998C251.887 137.641 251.796 139.403 252.43 141.283C253.063 143.163 254.202 144.51 255.845 145.325C257.488 146.14 259.25 146.231 261.13 145.598ZM268.298 123.858C270.178 123.224 271.525 122.086 272.34 120.443C273.155 118.799 273.246 117.037 272.612 115.157C271.979 113.277 270.84 111.93 269.197 111.115C267.553 110.3 265.792 110.209 263.912 110.843C262.032 111.476 260.684 112.615 259.869 114.258C259.054 115.902 258.963 117.663 259.597 119.543C260.23 121.423 261.369 122.771 263.012 123.586C264.656 124.401 266.418 124.491 268.298 123.858ZM289.99 116.548C291.87 115.915 293.217 114.776 294.032 113.133C294.847 111.489 294.938 109.727 294.304 107.847C293.671 105.967 292.532 104.62 290.889 103.805C289.245 102.99 287.484 102.899 285.604 103.533C283.724 104.166 282.376 105.305 281.561 106.948C280.746 108.592 280.656 110.353 281.289 112.233C281.923 114.113 283.061 115.461 284.705 116.276C286.348 117.091 288.11 117.182 289.99 116.548ZM308.853 129.516C310.733 128.882 312.08 127.744 312.895 126.1C313.71 124.457 313.801 122.695 313.168 120.815C312.534 118.935 311.396 117.588 309.752 116.773C308.109 115.958 306.347 115.867 304.467 116.501C302.587 117.134 301.239 118.273 300.424 119.916C299.609 121.559 299.519 123.321 300.152 125.201C300.786 127.081 301.924 128.429 303.568 129.244C305.211 130.059 306.973 130.149 308.853 129.516Z" fill="#D89F5A"/>
<path d="M264.709 198.316C268.219 198.316 271.69 197.458 275.122 195.742C278.554 194.026 281.324 191.764 283.43 188.956C281.402 188.956 279.334 188.156 277.228 186.557C275.122 184.958 274.069 182.637 274.069 179.595C274.069 175.695 272.704 172.38 269.974 169.65C267.244 166.92 263.929 165.554 260.028 165.554C256.128 165.554 252.813 166.92 250.083 169.65C247.353 172.38 245.988 175.695 245.988 179.595C245.988 184.744 247.821 189.151 251.487 192.817C255.153 196.483 259.56 198.316 264.709 198.316ZM237.797 170.235L250.668 157.364L208.779 115.476C207.921 114.617 206.849 114.169 205.562 114.13C204.275 114.091 203.163 114.539 202.227 115.476L195.909 121.794C194.973 122.73 194.505 123.822 194.505 125.07C194.505 126.318 194.973 127.41 195.909 128.346L237.797 170.235Z" fill="#D37B12"/>
<path d="M162 248.5V223.631H177.003V227.033H165.572V234.45H176.119V237.852H165.64V248.5H162ZM182.739 248.5V245.234H187.74V226.931H182.739V223.665H196.483V226.931H191.482V245.234H196.483V248.5H182.739ZM202.559 248.5V223.665H207.186L214.432 244.316C214.387 243.658 214.33 242.875 214.262 241.968C214.194 241.061 214.138 240.12 214.092 239.145C214.07 238.169 214.058 237.285 214.058 236.491V223.665H217.46V248.5H212.834L205.621 227.85C205.667 228.44 205.712 229.177 205.757 230.061C205.825 230.946 205.871 231.864 205.893 232.817C205.939 233.769 205.961 234.654 205.961 235.47V248.5H202.559ZM223.4 248.5V223.665H237.995V226.931H227.007V233.973H236.804V237.205H227.007V245.234H237.995V248.5H223.4ZM262.463 248.5L268.791 223.665H273.621L279.949 248.5H276.241L274.744 242.206H267.702L266.205 248.5H262.463ZM268.382 239.179H274.03L272.329 232C272.034 230.73 271.784 229.63 271.58 228.7C271.399 227.748 271.274 227.101 271.206 226.761C271.138 227.101 271.013 227.748 270.832 228.7C270.65 229.63 270.401 230.719 270.083 231.966L268.382 239.179ZM284.256 248.5V223.665H292.047C293.612 223.665 294.973 223.972 296.129 224.584C297.286 225.174 298.182 226.013 298.817 227.101C299.475 228.19 299.804 229.471 299.804 230.946C299.804 232.601 299.373 234.042 298.511 235.266C297.672 236.468 296.526 237.319 295.075 237.818L300.144 248.5H295.959L291.435 238.294H287.931V248.5H284.256ZM287.931 235.062H292.047C293.272 235.062 294.247 234.699 294.973 233.973C295.698 233.225 296.061 232.238 296.061 231.014C296.061 229.744 295.698 228.746 294.973 228.02C294.247 227.294 293.272 226.931 292.047 226.931H287.931V235.062ZM310.166 248.5V227.033H303.532V223.631H320.474V227.033H313.84V248.5H310.166ZM332.504 248.84C330.826 248.84 329.386 248.568 328.184 248.024C326.982 247.457 326.052 246.663 325.394 245.642C324.736 244.599 324.407 243.363 324.407 241.934H328.048C328.048 243.068 328.444 243.964 329.238 244.622C330.032 245.257 331.132 245.574 332.538 245.574C333.854 245.574 334.886 245.257 335.634 244.622C336.382 243.987 336.757 243.114 336.757 242.002C336.757 241.072 336.496 240.267 335.974 239.587C335.475 238.906 334.75 238.441 333.797 238.192L330.667 237.273C328.853 236.752 327.447 235.867 326.449 234.62C325.473 233.35 324.986 231.842 324.986 230.095C324.986 228.734 325.292 227.544 325.904 226.523C326.517 225.502 327.39 224.709 328.524 224.142C329.658 223.575 330.996 223.291 332.538 223.291C334.806 223.291 336.621 223.904 337.981 225.128C339.365 226.353 340.068 227.997 340.091 230.061H336.416C336.416 228.973 336.065 228.122 335.362 227.51C334.681 226.875 333.718 226.557 332.47 226.557C331.268 226.557 330.327 226.852 329.647 227.442C328.966 228.009 328.626 228.814 328.626 229.857C328.626 230.787 328.875 231.592 329.374 232.272C329.896 232.953 330.633 233.429 331.586 233.701L334.75 234.654C336.564 235.153 337.959 236.037 338.934 237.307C339.909 238.578 340.397 240.097 340.397 241.866C340.397 243.25 340.068 244.474 339.41 245.54C338.753 246.584 337.834 247.4 336.655 247.99C335.475 248.557 334.092 248.84 332.504 248.84ZM344.908 252.242L356.883 220.263H360.693L348.718 252.242H344.908ZM161.864 280.5V255.665H169.995C171.605 255.665 173 255.972 174.179 256.584C175.381 257.196 176.3 258.069 176.935 259.203C177.593 260.315 177.922 261.63 177.922 263.15C177.922 264.647 177.593 265.962 176.935 267.096C176.277 268.23 175.359 269.103 174.179 269.716C173 270.328 171.605 270.634 169.995 270.634H165.538V280.5H161.864ZM165.538 267.334H169.995C171.265 267.334 172.274 266.96 173.023 266.212C173.794 265.44 174.179 264.42 174.179 263.15C174.179 261.857 173.794 260.836 173.023 260.088C172.274 259.34 171.265 258.965 169.995 258.965H165.538V267.334ZM182.603 280.5V255.665H197.198V258.931H186.209V265.973H196.007V269.205H186.209V277.234H197.198V280.5H182.603ZM202.662 280.5V255.665H210.452C212.017 255.665 213.378 255.972 214.535 256.584C215.691 257.174 216.587 258.013 217.222 259.101C217.88 260.19 218.209 261.471 218.209 262.946C218.209 264.601 217.778 266.042 216.916 267.266C216.077 268.468 214.931 269.319 213.48 269.818L218.549 280.5H214.364L209.84 270.294H206.336V280.5H202.662ZM206.336 267.062H210.452C211.677 267.062 212.652 266.699 213.378 265.973C214.104 265.225 214.466 264.238 214.466 263.014C214.466 261.744 214.104 260.746 213.378 260.02C212.652 259.294 211.677 258.931 210.452 258.931H206.336V267.062ZM223.196 280.5V255.631H238.199V259.033H226.768V266.45H237.315V269.852H226.836V280.5H223.196ZM250.807 280.84C249.265 280.84 247.927 280.557 246.793 279.99C245.682 279.4 244.82 278.561 244.207 277.472C243.618 276.361 243.323 275.068 243.323 273.594V262.571C243.323 261.075 243.618 259.782 244.207 258.693C244.82 257.605 245.682 256.777 246.793 256.21C247.927 255.62 249.265 255.325 250.807 255.325C252.35 255.325 253.676 255.62 254.788 256.21C255.922 256.777 256.783 257.605 257.373 258.693C257.986 259.782 258.292 261.063 258.292 262.537V273.594C258.292 275.068 257.986 276.361 257.373 277.472C256.783 278.561 255.922 279.4 254.788 279.99C253.676 280.557 252.35 280.84 250.807 280.84ZM250.807 277.574C252.055 277.574 252.996 277.234 253.631 276.554C254.289 275.851 254.618 274.864 254.618 273.594V262.571C254.618 261.279 254.289 260.292 253.631 259.612C252.996 258.931 252.055 258.591 250.807 258.591C249.583 258.591 248.641 258.931 247.984 259.612C247.326 260.292 246.997 261.279 246.997 262.571V273.594C246.997 274.864 247.326 275.851 247.984 276.554C248.641 277.234 249.583 277.574 250.807 277.574ZM263.858 280.5V255.665H271.648C273.213 255.665 274.574 255.972 275.731 256.584C276.887 257.174 277.783 258.013 278.418 259.101C279.076 260.19 279.405 261.471 279.405 262.946C279.405 264.601 278.974 266.042 278.112 267.266C277.273 268.468 276.128 269.319 274.676 269.818L279.745 280.5H275.561L271.036 270.294H267.532V280.5H263.858ZM267.532 267.062H271.648C272.873 267.062 273.848 266.699 274.574 265.973C275.3 265.225 275.663 264.238 275.663 263.014C275.663 261.744 275.3 260.746 274.574 260.02C273.848 259.294 272.873 258.931 271.648 258.931H267.532V267.062ZM283.644 280.5V255.665H288.169L290.652 263.626C290.902 264.375 291.117 265.1 291.299 265.803C291.48 266.484 291.605 266.994 291.673 267.334C291.763 266.994 291.888 266.484 292.047 265.803C292.228 265.1 292.433 264.375 292.659 263.626L295.041 255.665H299.565V280.5H296.095V272.131C296.095 271.065 296.118 269.886 296.163 268.593C296.231 267.278 296.322 265.962 296.436 264.647C296.549 263.309 296.662 262.038 296.776 260.836C296.889 259.612 296.991 258.546 297.082 257.639L293.408 269.716H289.87L286.127 257.639C286.241 258.523 286.354 259.555 286.468 260.734C286.581 261.891 286.683 263.127 286.774 264.443C286.865 265.758 286.944 267.085 287.012 268.423C287.08 269.738 287.114 270.974 287.114 272.131V280.5H283.644ZM305.131 280.5V277.234H310.132V258.931H305.131V255.665H318.875V258.931H313.875V277.234H318.875V280.5H305.131ZM324.952 280.5V255.665H329.578L336.825 276.316C336.779 275.658 336.723 274.875 336.655 273.968C336.587 273.061 336.53 272.12 336.485 271.145C336.462 270.169 336.451 269.285 336.451 268.491V255.665H339.853V280.5H335.226L328.014 259.85C328.059 260.44 328.104 261.177 328.15 262.061C328.218 262.946 328.263 263.864 328.286 264.817C328.331 265.769 328.354 266.654 328.354 267.47V280.5H324.952ZM352.937 280.84C351.395 280.84 350.045 280.557 348.889 279.99C347.755 279.4 346.87 278.561 346.235 277.472C345.623 276.361 345.316 275.068 345.316 273.594V262.571C345.316 261.075 345.623 259.782 346.235 258.693C346.87 257.605 347.755 256.777 348.889 256.21C350.045 255.62 351.395 255.325 352.937 255.325C354.479 255.325 355.817 255.62 356.951 256.21C358.085 256.799 358.958 257.639 359.571 258.727C360.206 259.793 360.523 261.075 360.523 262.571H356.849C356.849 261.279 356.509 260.292 355.829 259.612C355.148 258.931 354.184 258.591 352.937 258.591C351.69 258.591 350.714 258.931 350.011 259.612C349.331 260.292 348.991 261.267 348.991 262.537V273.594C348.991 274.864 349.331 275.851 350.011 276.554C350.714 277.257 351.69 277.608 352.937 277.608C354.184 277.608 355.148 277.257 355.829 276.554C356.509 275.851 356.849 274.864 356.849 273.594V270.804H352.222V267.572H360.523V273.594C360.523 275.068 360.206 276.35 359.571 277.438C358.958 278.527 358.085 279.366 356.951 279.956C355.817 280.545 354.479 280.84 352.937 280.84ZM221.665 312.5L227.993 287.665H232.824L239.152 312.5H235.444L233.947 306.206H226.905L225.408 312.5H221.665ZM227.585 303.179H233.232L231.531 296C231.236 294.73 230.987 293.63 230.783 292.7C230.601 291.748 230.477 291.101 230.409 290.761C230.341 291.101 230.216 291.748 230.034 292.7C229.853 293.63 229.603 294.719 229.286 295.966L227.585 303.179ZM243.459 312.5V287.665H251.25C252.814 287.665 254.175 287.972 255.332 288.584C256.489 289.174 257.384 290.013 258.02 291.101C258.677 292.19 259.006 293.471 259.006 294.946C259.006 296.601 258.575 298.042 257.713 299.266C256.874 300.468 255.729 301.319 254.277 301.818L259.346 312.5H255.162L250.637 302.294H247.133V312.5H243.459ZM247.133 299.062H251.25C252.474 299.062 253.45 298.699 254.175 297.973C254.901 297.225 255.264 296.238 255.264 295.014C255.264 293.744 254.901 292.746 254.175 292.02C253.45 291.294 252.474 290.931 251.25 290.931H247.133V299.062ZM269.369 312.5V291.033H262.735V287.631H279.677V291.033H273.043V312.5H269.369ZM291.707 312.84C290.028 312.84 288.588 312.568 287.386 312.024C286.184 311.457 285.254 310.663 284.597 309.642C283.939 308.599 283.61 307.363 283.61 305.934H287.25C287.25 307.068 287.647 307.964 288.441 308.622C289.235 309.257 290.335 309.574 291.741 309.574C293.056 309.574 294.088 309.257 294.837 308.622C295.585 307.987 295.959 307.114 295.959 306.002C295.959 305.072 295.698 304.267 295.177 303.587C294.678 302.906 293.952 302.441 293 302.192L289.87 301.273C288.055 300.752 286.649 299.867 285.651 298.62C284.676 297.35 284.188 295.842 284.188 294.095C284.188 292.734 284.495 291.544 285.107 290.523C285.719 289.502 286.592 288.709 287.726 288.142C288.86 287.575 290.199 287.291 291.741 287.291C294.009 287.291 295.823 287.904 297.184 289.128C298.567 290.353 299.271 291.997 299.293 294.061H295.619C295.619 292.973 295.268 292.122 294.564 291.51C293.884 290.875 292.92 290.557 291.673 290.557C290.471 290.557 289.529 290.852 288.849 291.442C288.169 292.009 287.828 292.814 287.828 293.857C287.828 294.787 288.078 295.592 288.577 296.272C289.099 296.953 289.836 297.429 290.788 297.701L293.952 298.654C295.766 299.153 297.161 300.037 298.137 301.307C299.112 302.578 299.599 304.097 299.599 305.866C299.599 307.25 299.271 308.474 298.613 309.54C297.955 310.584 297.037 311.4 295.857 311.99C294.678 312.557 293.294 312.84 291.707 312.84Z" fill="white"/>
<g opacity="0.5">
<g opacity="0.7" filter="url(#filter1_f_1023_271)">
<rect x="196.5" y="366.123" width="413.079" height="40.8916" transform="rotate(-45.9959 196.5 366.123)" fill="url(#paint0_linear_1023_271)" fill-opacity="0.2"/>
</g>
<g filter="url(#filter2_f_1023_271)">
<rect x="225.913" y="394.531" width="413.079" height="61.3123" transform="rotate(-45.9959 225.913 394.531)" fill="url(#paint1_linear_1023_271)" fill-opacity="0.4"/>
</g>
</g>
<g opacity="0.5">
<g opacity="0.7" filter="url(#filter3_f_1023_271)">
<rect x="-27" y="246.123" width="413.079" height="61.3123" transform="rotate(-45.9959 -27 246.123)" fill="url(#paint2_linear_1023_271)" fill-opacity="0.2"/>
</g>
<g opacity="0.5" filter="url(#filter4_f_1023_271)">
<rect x="17.1016" y="288.718" width="413.079" height="61.3123" transform="rotate(-45.9959 17.1016 288.718)" fill="url(#paint3_linear_1023_271)" fill-opacity="0.4"/>
</g>
</g>
</g>
</g>
<defs>
<filter id="filter0_d_1023_271" x="0.6" y="0.6" width="526.5" height="378" filterUnits="userSpaceOnUse" color-interpolation-filters="sRGB">
<feFlood flood-opacity="0" result="BackgroundImageFix"/>
<feColorMatrix in="SourceAlpha" type="matrix" values="0 0 0 0 0 0 0 0 0 0 0 0 0 0 0 0 0 0 127 0" result="hardAlpha"/>
<feOffset dx="3.6" dy="3.6"/>
<feGaussianBlur stdDeviation="4.5"/>
<feComposite in2="hardAlpha" operator="out"/>
<feColorMatrix type="matrix" values="0 0 0 0 0 0 0 0 0 0 0 0 0 0 0 0 0 0 0.1 0"/>
<feBlend mode="normal" in2="BackgroundImageFix" result="effect1_dropShadow_1023_271"/>
<feBlend mode="normal" in="SourceGraphic" in2="effect1_dropShadow_1023_271" result="shape"/>
</filter>
<filter id="filter1_f_1023_271" x="181.5" y="54.0001" width="346.383" height="355.531" filterUnits="userSpaceOnUse" color-interpolation-filters="sRGB">
<feFlood flood-opacity="0" result="BackgroundImageFix"/>
<feBlend mode="normal" in="SourceGraphic" in2="BackgroundImageFix" result="shape"/>
<feGaussianBlur stdDeviation="7.5" result="effect1_foregroundBlur_1023_271"/>
</filter>
<filter id="filter2_f_1023_271" x="210.913" y="82.4078" width="361.071" height="369.718" filterUnits="userSpaceOnUse" color-interpolation-filters="sRGB">
<feFlood flood-opacity="0" result="BackgroundImageFix"/>
<feBlend mode="normal" in="SourceGraphic" in2="BackgroundImageFix" result="shape"/>
<feGaussianBlur stdDeviation="7.5" result="effect1_foregroundBlur_1023_271"/>
</filter>
<filter id="filter3_f_1023_271" x="-42" y="-65.9999" width="361.071" height="369.718" filterUnits="userSpaceOnUse" color-interpolation-filters="sRGB">
<feFlood flood-opacity="0" result="BackgroundImageFix"/>
<feBlend mode="normal" in="SourceGraphic" in2="BackgroundImageFix" result="shape"/>
<feGaussianBlur stdDeviation="7.5" result="effect1_foregroundBlur_1023_271"/>
</filter>
<filter id="filter4_f_1023_271" x="2.10156" y="-23.4057" width="361.071" height="369.718" filterUnits="userSpaceOnUse" color-interpolation-filters="sRGB">
<feFlood flood-opacity="0" result="BackgroundImageFix"/>
<feBlend mode="normal" in="SourceGraphic" in2="BackgroundImageFix" result="shape"/>
<feGaussianBlur stdDeviation="7.5" result="effect1_foregroundBlur_1023_271"/>
</filter>
<linearGradient id="paint0_linear_1023_271" x1="403.039" y1="366.123" x2="403.039" y2="407.015" gradientUnits="userSpaceOnUse">
<stop stop-color="white" stop-opacity="0"/>
<stop offset="1" stop-color="white"/>
</linearGradient>
<linearGradient id="paint1_linear_1023_271" x1="432.452" y1="394.531" x2="432.452" y2="455.843" gradientUnits="userSpaceOnUse">
<stop/>
<stop offset="1" stop-opacity="0"/>
</linearGradient>
<linearGradient id="paint2_linear_1023_271" x1="179.539" y1="246.123" x2="179.539" y2="307.436" gradientUnits="userSpaceOnUse">
<stop stop-color="white" stop-opacity="0"/>
<stop offset="1" stop-color="white"/>
</linearGradient>
<linearGradient id="paint3_linear_1023_271" x1="223.641" y1="288.718" x2="223.641" y2="350.03" gradientUnits="userSpaceOnUse">
<stop/>
<stop offset="1" stop-opacity="0"/>
</linearGradient>
</defs>
</svg>
