<svg width="497" height="497" viewBox="0 0 497 497" fill="none" xmlns="http://www.w3.org/2000/svg">
<g filter="url(#filter0_d_487_5981)">
<path fill-rule="evenodd" clip-rule="evenodd" d="M379.906 6H339.094C333.424 19.5108 320.07 29 304.5 29C288.93 29 275.576 19.5108 269.906 6H229.094C223.424 19.5108 210.07 29 194.5 29C178.93 29 165.576 19.5108 159.906 6H119.094C113.424 19.5108 100.07 29 84.5 29C68.9298 29 55.576 19.5108 49.9062 6H10V46.3432C22.9767 52.2412 32 65.3169 32 80.5C32 95.6831 22.9767 108.759 10 114.657V156.343C22.9767 162.241 32 175.317 32 190.5C32 205.683 22.9767 218.759 10 224.657V266.343C22.9767 272.241 32 285.317 32 300.5C32 315.683 22.9767 328.759 10 334.657V376.343C22.9767 382.241 32 395.317 32 410.5C32 425.683 22.9767 438.759 10 444.657V483H46.7962C51.6513 467.915 65.801 457 82.5 457C99.1991 457 113.349 467.915 118.204 483H156.796C161.651 467.915 175.801 457 192.5 457C209.199 457 223.349 467.915 228.204 483H266.796C271.651 467.915 285.801 457 302.5 457C319.199 457 333.349 467.915 338.204 483H376.796C381.651 467.915 395.801 457 412.5 457C429.199 457 443.349 467.915 448.204 483H487V441.675C475.105 435.387 467 422.89 467 408.5C467 394.11 475.105 381.613 487 375.325V331.675C475.105 325.387 467 312.89 467 298.5C467 284.11 475.105 271.613 487 265.325V221.675C475.105 215.387 467 202.89 467 188.5C467 174.11 475.105 161.613 487 155.325V111.675C475.105 105.387 467 92.8902 467 78.5C467 64.1098 475.105 51.6127 487 45.3252V6H449.094C443.424 19.5108 430.07 29 414.5 29C398.93 29 385.576 19.5108 379.906 6Z" fill="#EA8FD0"/>
</g>
<rect x="62" y="46" width="385" height="385" rx="10" fill="#FFB0E9"/>
<path d="M106.46 320.88C107.356 320.88 107.996 320.704 108.38 320.352C108.796 320 109.052 319.504 109.148 318.864C109.276 318.192 109.34 317.44 109.34 316.608L109.292 309.792C109.292 307.712 108.972 306.176 108.332 305.184C107.724 304.16 106.748 303.648 105.404 303.648C104.604 303.648 103.804 303.824 103.004 304.176C102.236 304.528 101.58 304.944 101.036 305.424V316.272C101.036 316.72 101.02 317.36 100.988 318.192C100.956 318.992 100.908 319.76 100.844 320.496C101.388 320.432 101.964 320.4 102.572 320.4C103.18 320.368 103.644 320.352 103.964 320.352V324H91.3875V320.88C92.2835 320.88 92.9235 320.704 93.3075 320.352C93.7235 320 93.9795 319.504 94.0755 318.864C94.1715 318.192 94.2195 317.44 94.2195 316.608V296.88C94.2195 296.304 94.2355 295.648 94.2675 294.912C94.2995 294.144 94.3475 293.408 94.4115 292.704C93.8995 292.736 93.2915 292.768 92.5875 292.8C91.9155 292.8 91.4035 292.816 91.0515 292.848V289.2C92.5555 289.2 93.8035 289.12 94.7955 288.96C95.8195 288.8 96.6195 288.608 97.1955 288.384C97.8035 288.16 98.2195 287.952 98.4435 287.76H101.036V301.92C101.676 301.408 102.412 300.96 103.244 300.576C104.076 300.16 104.924 299.84 105.788 299.616C106.652 299.36 107.404 299.232 108.044 299.232C110.988 299.232 113.068 300.08 114.284 301.776C115.5 303.44 116.124 306.128 116.156 309.84V316.272C116.156 316.72 116.14 317.36 116.108 318.192C116.076 318.992 116.028 319.76 115.964 320.496C116.476 320.432 117.036 320.4 117.644 320.4C118.252 320.368 118.732 320.352 119.084 320.352V324H106.46V320.88ZM136.47 324.768C134.55 324.768 132.998 324.4 131.814 323.664C130.662 322.928 129.814 321.776 129.27 320.208C128.758 318.64 128.502 316.624 128.502 314.16V308.64C128.502 308.064 128.518 307.408 128.55 306.672C128.582 305.904 128.614 305.168 128.646 304.464C128.134 304.496 127.526 304.528 126.822 304.56C126.15 304.56 125.638 304.576 125.286 304.608V300.96H125.766C127.75 300.96 129.318 300.8 130.47 300.48C131.622 300.16 132.358 299.84 132.678 299.52H135.318V314.208C135.318 316.288 135.59 317.84 136.134 318.864C136.678 319.856 137.542 320.352 138.726 320.352C139.558 320.352 140.39 320.128 141.222 319.68C142.086 319.2 142.79 318.656 143.334 318.048V308.64C143.334 308.064 143.35 307.408 143.382 306.672C143.414 305.904 143.462 305.168 143.526 304.464C143.014 304.496 142.406 304.528 141.702 304.56C141.03 304.56 140.518 304.576 140.166 304.608V300.96H141.318C142.822 300.96 144.15 300.8 145.302 300.48C146.454 300.128 147.19 299.808 147.51 299.52H150.15V316.272C150.15 316.72 150.134 317.36 150.102 318.192C150.07 318.992 150.022 319.76 149.958 320.496C150.47 320.432 151.03 320.4 151.638 320.4C152.278 320.368 152.758 320.352 153.078 320.352V324H143.958C143.926 323.584 143.878 323.168 143.814 322.752C143.782 322.336 143.734 321.92 143.67 321.504C142.678 322.336 141.606 323.088 140.454 323.76C139.334 324.432 138.006 324.768 136.47 324.768ZM161.005 324V320.88C161.901 320.88 162.541 320.704 162.925 320.352C163.309 320 163.549 319.504 163.645 318.864C163.773 318.192 163.837 317.44 163.837 316.608V308.544C163.837 307.968 163.853 307.328 163.885 306.624C163.917 305.888 163.965 305.168 164.029 304.464C163.517 304.496 162.909 304.528 162.205 304.56C161.533 304.56 161.021 304.576 160.669 304.608V300.96C162.141 300.96 163.389 300.88 164.413 300.72C165.437 300.56 166.237 300.368 166.813 300.144C167.421 299.92 167.837 299.712 168.061 299.52H170.413C170.477 299.84 170.509 300.24 170.509 300.72C170.541 301.2 170.573 301.6 170.605 301.92C171.693 301.088 172.861 300.432 174.109 299.952C175.389 299.472 176.589 299.232 177.709 299.232C179.181 299.232 180.398 299.504 181.358 300.048C182.318 300.56 183.085 301.344 183.661 302.4C184.813 301.44 186.077 300.672 187.453 300.096C188.861 299.52 190.206 299.232 191.486 299.232C194.078 299.232 196.03 299.984 197.342 301.488C198.686 302.96 199.358 305.536 199.358 309.216V316.272C199.358 316.72 199.342 317.36 199.31 318.192C199.278 318.992 199.23 319.76 199.165 320.496C199.678 320.432 200.238 320.4 200.846 320.4C201.486 320.368 201.965 320.352 202.285 320.352V324H190.141V320.88C190.877 320.88 191.405 320.704 191.726 320.352C192.078 320 192.302 319.504 192.398 318.864C192.493 318.192 192.541 317.44 192.541 316.608V309.264C192.509 307.184 192.158 305.744 191.486 304.944C190.845 304.144 189.981 303.728 188.894 303.696C188.061 303.664 187.277 303.808 186.541 304.128C185.837 304.448 185.197 304.832 184.622 305.28C184.782 305.92 184.894 306.624 184.957 307.392C185.022 308.16 185.054 308.976 185.054 309.84C185.054 310.928 185.054 312 185.054 313.056C185.054 314.112 185.054 315.184 185.054 316.272C185.054 316.72 185.038 317.36 185.005 318.192C184.973 318.992 184.925 319.76 184.862 320.496C185.373 320.432 185.933 320.4 186.541 320.4C187.149 320.368 187.629 320.352 187.982 320.352V324H175.597V320.88C176.429 320.88 177.021 320.704 177.373 320.352C177.757 320 177.997 319.504 178.093 318.864C178.189 318.192 178.237 317.44 178.237 316.608L178.189 309.12C178.189 307.04 177.885 305.616 177.277 304.848C176.669 304.08 175.821 303.68 174.733 303.648C173.933 303.648 173.181 303.824 172.477 304.176C171.805 304.528 171.197 304.944 170.653 305.424C170.653 305.84 170.653 306.24 170.653 306.624C170.653 307.008 170.653 307.408 170.653 307.824V316.272C170.653 316.72 170.637 317.36 170.605 318.192C170.573 318.992 170.525 319.76 170.461 320.496C170.973 320.432 171.501 320.4 172.045 320.4C172.589 320.368 173.021 320.352 173.341 320.352V324H161.005ZM223.306 324C223.242 323.552 223.194 323.184 223.162 322.896C223.162 322.576 223.146 322.208 223.114 321.792C222.026 322.88 220.874 323.648 219.658 324.096C218.442 324.544 217.21 324.768 215.962 324.768C213.914 324.768 212.314 324.16 211.162 322.944C210.01 321.728 209.434 320.208 209.434 318.384C209.434 316.848 209.818 315.536 210.586 314.448C211.386 313.36 212.426 312.48 213.706 311.808C215.018 311.104 216.458 310.576 218.026 310.224C219.626 309.84 221.226 309.616 222.826 309.552V307.056C222.826 306.224 222.714 305.472 222.49 304.8C222.298 304.128 221.946 303.6 221.434 303.216C220.954 302.832 220.266 302.656 219.37 302.688C218.762 302.72 218.17 302.848 217.594 303.072C217.018 303.296 216.522 303.616 216.106 304.032C216.362 304.32 216.522 304.64 216.586 304.992C216.65 305.312 216.682 305.6 216.682 305.856C216.682 306.496 216.426 307.168 215.914 307.872C215.402 308.544 214.586 308.864 213.466 308.832C212.506 308.8 211.77 308.464 211.258 307.824C210.746 307.184 210.49 306.432 210.49 305.568C210.49 304.288 210.938 303.184 211.834 302.256C212.762 301.296 213.994 300.56 215.53 300.048C217.066 299.504 218.762 299.232 220.618 299.232C223.434 299.232 225.61 299.968 227.146 301.44C228.714 302.88 229.498 305.2 229.498 308.4C229.498 309.488 229.498 310.416 229.498 311.184C229.498 311.952 229.482 312.72 229.45 313.488C229.45 314.256 229.45 315.184 229.45 316.272C229.45 316.72 229.434 317.36 229.402 318.192C229.37 318.992 229.322 319.76 229.258 320.496C229.802 320.432 230.378 320.4 230.986 320.4C231.594 320.368 232.058 320.352 232.378 320.352V324H223.306ZM222.778 312.96C221.882 313.056 221.034 313.216 220.234 313.44C219.434 313.664 218.73 313.968 218.122 314.352C217.546 314.736 217.082 315.2 216.73 315.744C216.41 316.288 216.25 316.896 216.25 317.568C216.282 318.464 216.57 319.104 217.114 319.488C217.658 319.872 218.282 320.064 218.986 320.064C219.722 320.064 220.41 319.904 221.05 319.584C221.69 319.264 222.266 318.848 222.778 318.336C222.778 318.016 222.778 317.712 222.778 317.424C222.778 317.104 222.778 316.784 222.778 316.464C222.778 315.888 222.778 315.312 222.778 314.736C222.778 314.128 222.778 313.536 222.778 312.96ZM239.934 324V320.88C240.83 320.88 241.47 320.704 241.854 320.352C242.238 320 242.478 319.504 242.574 318.864C242.702 318.192 242.766 317.44 242.766 316.608V308.544C242.766 307.968 242.782 307.328 242.814 306.624C242.846 305.888 242.894 305.168 242.958 304.464C242.446 304.496 241.838 304.528 241.134 304.56C240.462 304.56 239.95 304.576 239.598 304.608V300.96C241.07 300.96 242.318 300.88 243.342 300.72C244.366 300.56 245.166 300.368 245.742 300.144C246.35 299.92 246.766 299.712 246.99 299.52H249.342C249.406 299.936 249.438 300.24 249.438 300.432C249.438 300.624 249.438 300.816 249.438 301.008C249.47 301.168 249.534 301.472 249.63 301.92C250.27 301.408 251.006 300.96 251.838 300.576C252.67 300.16 253.502 299.84 254.334 299.616C255.166 299.36 255.902 299.232 256.542 299.232C259.486 299.232 261.566 300.08 262.782 301.776C264.03 303.44 264.654 306.128 264.654 309.84V316.272C264.654 316.72 264.638 317.36 264.606 318.192C264.574 318.992 264.526 319.76 264.462 320.496C265.006 320.432 265.582 320.4 266.19 320.4C266.798 320.368 267.262 320.352 267.582 320.352V324H255.006V320.88C255.902 320.88 256.542 320.704 256.926 320.352C257.342 320 257.598 319.504 257.694 318.864C257.822 318.192 257.886 317.44 257.886 316.608L257.838 309.792C257.838 307.712 257.534 306.176 256.926 305.184C256.35 304.16 255.358 303.648 253.95 303.648C253.15 303.648 252.35 303.824 251.55 304.176C250.782 304.528 250.126 304.944 249.582 305.424C249.582 305.872 249.582 306.336 249.582 306.816C249.582 307.264 249.582 307.712 249.582 308.16V316.272C249.582 316.72 249.566 317.36 249.534 318.192C249.502 318.992 249.454 319.76 249.39 320.496C249.902 320.432 250.462 320.4 251.07 320.4C251.71 320.368 252.19 320.352 252.51 320.352V324H239.934ZM275.249 320.88C276.145 320.88 276.785 320.704 277.169 320.352C277.553 320 277.793 319.504 277.889 318.864C278.017 318.192 278.081 317.44 278.081 316.608V308.64C278.081 308.064 278.097 307.408 278.129 306.672C278.161 305.904 278.209 305.168 278.273 304.464C277.761 304.496 277.153 304.528 276.449 304.56C275.777 304.56 275.265 304.576 274.913 304.608V300.96C276.385 300.96 277.633 300.88 278.657 300.72C279.681 300.56 280.481 300.368 281.057 300.144C281.665 299.92 282.081 299.712 282.305 299.52H284.897V316.272C284.897 316.72 284.881 317.36 284.849 318.192C284.817 318.992 284.769 319.76 284.705 320.496C285.217 320.432 285.777 320.4 286.385 320.4C287.025 320.368 287.505 320.352 287.825 320.352V324H275.249V320.88ZM281.249 295.728C280.161 295.728 279.265 295.344 278.561 294.576C277.857 293.808 277.505 292.88 277.505 291.792C277.505 290.704 277.873 289.776 278.609 289.008C279.345 288.24 280.209 287.856 281.201 287.856C282.225 287.856 283.073 288.24 283.745 289.008C284.449 289.776 284.801 290.704 284.801 291.792C284.801 292.88 284.481 293.808 283.841 294.576C283.201 295.344 282.337 295.728 281.249 295.728ZM305.069 324.768C304.109 324.768 303.181 324.656 302.285 324.432C301.421 324.208 300.621 323.792 299.885 323.184C299.181 322.544 298.621 321.616 298.205 320.4C297.789 319.184 297.581 317.568 297.581 315.552L297.677 303.984H294.413V300C295.405 299.968 296.365 299.632 297.293 298.992C298.221 298.352 299.005 297.52 299.645 296.496C300.317 295.472 300.765 294.4 300.989 293.28H304.541L304.493 300H310.589V303.696L304.493 303.84L304.445 315.648C304.445 316.384 304.509 317.12 304.637 317.856C304.797 318.56 305.085 319.152 305.501 319.632C305.917 320.08 306.525 320.304 307.325 320.304C307.773 320.304 308.381 320.144 309.149 319.824C309.949 319.504 310.797 318.704 311.693 317.424L313.997 319.584C313.133 320.864 312.237 321.856 311.309 322.56C310.381 323.264 309.485 323.776 308.621 324.096C307.789 324.416 307.053 324.608 306.413 324.672C305.773 324.736 305.325 324.768 305.069 324.768ZM320.193 320.88C321.089 320.88 321.729 320.704 322.113 320.352C322.497 320 322.737 319.504 322.833 318.864C322.961 318.192 323.025 317.44 323.025 316.608V308.64C323.025 308.064 323.041 307.408 323.073 306.672C323.105 305.904 323.153 305.168 323.217 304.464C322.705 304.496 322.097 304.528 321.393 304.56C320.721 304.56 320.209 304.576 319.857 304.608V300.96C321.329 300.96 322.577 300.88 323.601 300.72C324.625 300.56 325.425 300.368 326.001 300.144C326.609 299.92 327.025 299.712 327.249 299.52H329.841V316.272C329.841 316.72 329.825 317.36 329.793 318.192C329.761 318.992 329.713 319.76 329.649 320.496C330.161 320.432 330.721 320.4 331.329 320.4C331.969 320.368 332.449 320.352 332.769 320.352V324H320.193V320.88ZM326.193 295.728C325.105 295.728 324.209 295.344 323.505 294.576C322.801 293.808 322.449 292.88 322.449 291.792C322.449 290.704 322.817 289.776 323.553 289.008C324.289 288.24 325.153 287.856 326.145 287.856C327.169 287.856 328.017 288.24 328.689 289.008C329.393 289.776 329.745 290.704 329.745 291.792C329.745 292.88 329.425 293.808 328.785 294.576C328.145 295.344 327.281 295.728 326.193 295.728ZM352.072 324.768C349.736 324.768 347.672 324.256 345.88 323.232C344.088 322.176 342.696 320.704 341.704 318.816C340.712 316.896 340.216 314.64 340.216 312.048C340.216 309.808 340.712 307.712 341.704 305.76C342.696 303.808 344.088 302.24 345.88 301.056C347.704 299.84 349.816 299.232 352.216 299.232C353.56 299.232 354.872 299.424 356.152 299.808C357.432 300.16 358.584 300.784 359.608 301.68C360.664 302.576 361.496 303.792 362.104 305.328C362.744 306.864 363.048 308.784 363.016 311.088L347.272 311.376C347.272 313.104 347.48 314.656 347.896 316.032C348.344 317.408 349.064 318.496 350.056 319.296C351.048 320.096 352.376 320.496 354.04 320.496C354.68 320.496 355.4 320.384 356.2 320.16C357.032 319.936 357.864 319.568 358.696 319.056C359.56 318.512 360.36 317.792 361.096 316.896L363.256 318.912C362.104 320.544 360.872 321.792 359.56 322.656C358.248 323.488 356.936 324.048 355.624 324.336C354.344 324.624 353.16 324.768 352.072 324.768ZM347.56 308.016H356.392C356.36 306.672 356.168 305.616 355.816 304.848C355.496 304.048 355.048 303.472 354.472 303.12C353.896 302.768 353.224 302.592 352.456 302.592C351.048 302.592 349.944 303.104 349.144 304.128C348.344 305.12 347.816 306.416 347.56 308.016ZM382.364 324.768C380.988 324.768 379.644 324.592 378.332 324.24C377.02 323.888 375.996 323.44 375.26 322.896L375.356 324.336H371.708L371.516 316.08H374.636C374.732 317.04 375.116 317.92 375.788 318.72C376.46 319.52 377.34 320.16 378.428 320.64C379.516 321.088 380.732 321.312 382.076 321.312C382.62 321.312 383.132 321.232 383.612 321.072C384.124 320.912 384.54 320.656 384.86 320.304C385.212 319.92 385.388 319.456 385.388 318.912C385.388 318.304 385.164 317.808 384.716 317.424C384.3 317.04 383.676 316.672 382.844 316.32C382.044 315.968 381.036 315.568 379.82 315.12C378.828 314.736 377.82 314.336 376.796 313.92C375.804 313.504 374.876 313.008 374.012 312.432C373.18 311.824 372.508 311.088 371.996 310.224C371.484 309.328 371.228 308.24 371.228 306.96C371.228 306.032 371.404 305.12 371.756 304.224C372.108 303.296 372.652 302.464 373.388 301.728C374.124 300.96 375.052 300.352 376.172 299.904C377.324 299.456 378.684 299.232 380.252 299.232C381.116 299.232 382.092 299.376 383.18 299.664C384.3 299.92 385.244 300.32 386.012 300.864V299.472H389.66V307.968H386.54C386.348 306.848 385.948 305.888 385.34 305.088C384.764 304.288 384.012 303.68 383.084 303.264C382.156 302.816 381.116 302.592 379.964 302.592C379.164 302.592 378.428 302.784 377.756 303.168C377.116 303.552 376.796 304.208 376.796 305.136C376.796 305.872 377.052 306.464 377.564 306.912C378.076 307.328 378.78 307.68 379.676 307.968C380.572 308.256 381.564 308.592 382.652 308.976C384.284 309.52 385.724 310.16 386.972 310.896C388.252 311.632 389.26 312.528 389.996 313.584C390.732 314.608 391.1 315.872 391.1 317.376C391.1 319.04 390.684 320.416 389.852 321.504C389.02 322.592 387.932 323.408 386.588 323.952C385.276 324.496 383.868 324.768 382.364 324.768ZM400.382 337.008L396.638 334.56L423.422 287.76L427.79 290.544L400.382 337.008ZM175.196 384.768C173.82 384.768 172.476 384.592 171.164 384.24C169.852 383.888 168.828 383.44 168.092 382.896L168.188 384.336H164.54L164.348 376.08H167.468C167.564 377.04 167.948 377.92 168.62 378.72C169.292 379.52 170.172 380.16 171.26 380.64C172.348 381.088 173.564 381.312 174.908 381.312C175.452 381.312 175.964 381.232 176.444 381.072C176.956 380.912 177.372 380.656 177.692 380.304C178.044 379.92 178.22 379.456 178.22 378.912C178.22 378.304 177.996 377.808 177.548 377.424C177.132 377.04 176.508 376.672 175.676 376.32C174.876 375.968 173.868 375.568 172.652 375.12C171.66 374.736 170.652 374.336 169.628 373.92C168.636 373.504 167.708 373.008 166.844 372.432C166.012 371.824 165.34 371.088 164.828 370.224C164.316 369.328 164.06 368.24 164.06 366.96C164.06 366.032 164.236 365.12 164.588 364.224C164.94 363.296 165.484 362.464 166.22 361.728C166.956 360.96 167.884 360.352 169.004 359.904C170.156 359.456 171.516 359.232 173.084 359.232C173.948 359.232 174.924 359.376 176.012 359.664C177.132 359.92 178.076 360.32 178.844 360.864V359.472H182.492V367.968H179.372C179.18 366.848 178.78 365.888 178.172 365.088C177.596 364.288 176.844 363.68 175.916 363.264C174.988 362.816 173.948 362.592 172.796 362.592C171.996 362.592 171.26 362.784 170.588 363.168C169.948 363.552 169.628 364.208 169.628 365.136C169.628 365.872 169.884 366.464 170.396 366.912C170.908 367.328 171.612 367.68 172.508 367.968C173.404 368.256 174.396 368.592 175.484 368.976C177.116 369.52 178.556 370.16 179.804 370.896C181.084 371.632 182.092 372.528 182.828 373.584C183.564 374.608 183.932 375.872 183.932 377.376C183.932 379.04 183.516 380.416 182.684 381.504C181.852 382.592 180.764 383.408 179.42 383.952C178.108 384.496 176.7 384.768 175.196 384.768ZM204.012 384.768C201.708 384.768 199.628 384.272 197.772 383.28C195.916 382.288 194.444 380.88 193.356 379.056C192.3 377.2 191.772 375.024 191.772 372.528C191.772 369.872 192.316 367.552 193.404 365.568C194.524 363.552 195.996 362 197.82 360.912C199.676 359.792 201.692 359.232 203.868 359.232C206.172 359.232 208.236 359.728 210.06 360.72C211.884 361.712 213.324 363.136 214.38 364.992C215.436 366.816 215.964 369.008 215.964 371.568C215.964 374.256 215.452 376.592 214.428 378.576C213.404 380.56 211.996 382.096 210.204 383.184C208.412 384.24 206.348 384.768 204.012 384.768ZM204.204 381.36C205.484 381.328 206.444 380.88 207.084 380.016C207.756 379.152 208.22 378.064 208.476 376.752C208.732 375.44 208.86 374.112 208.86 372.768C208.86 371.584 208.764 370.384 208.572 369.168C208.412 367.952 208.14 366.848 207.756 365.856C207.372 364.864 206.844 364.064 206.172 363.456C205.532 362.848 204.732 362.56 203.772 362.592C202.524 362.624 201.532 363.072 200.796 363.936C200.092 364.8 199.58 365.888 199.26 367.2C198.972 368.48 198.828 369.824 198.828 371.232C198.828 372.864 199.004 374.464 199.356 376.032C199.708 377.6 200.268 378.896 201.036 379.92C201.836 380.912 202.892 381.392 204.204 381.36ZM235.568 384.768C233.424 384.768 231.456 384.288 229.664 383.328C227.872 382.368 226.432 380.976 225.344 379.152C224.288 377.328 223.76 375.12 223.76 372.528C223.76 370.704 224.064 368.992 224.672 367.392C225.28 365.792 226.128 364.384 227.216 363.168C228.336 361.952 229.648 360.992 231.152 360.288C232.688 359.584 234.384 359.232 236.24 359.232C238.288 359.232 239.984 359.552 241.328 360.192C242.704 360.8 243.728 361.616 244.4 362.64C245.104 363.632 245.456 364.688 245.456 365.808C245.456 366.736 245.168 367.568 244.592 368.304C244.048 369.008 243.264 369.376 242.24 369.408C241.024 369.44 240.176 369.104 239.696 368.4C239.216 367.664 238.976 366.96 238.976 366.288C238.976 366 239.024 365.664 239.12 365.28C239.216 364.864 239.36 364.496 239.552 364.176C239.328 363.696 238.992 363.344 238.544 363.12C238.096 362.896 237.632 362.752 237.152 362.688C236.704 362.592 236.336 362.56 236.048 362.592C234.512 362.688 233.248 363.456 232.256 364.896C231.264 366.336 230.768 368.416 230.768 371.136C230.768 372.736 230.96 374.24 231.344 375.648C231.76 377.024 232.432 378.16 233.36 379.056C234.288 379.952 235.536 380.432 237.104 380.496C238.448 380.528 239.76 380.208 241.04 379.536C242.32 378.864 243.408 377.952 244.304 376.8L246.512 378.96C245.36 380.56 244.16 381.776 242.912 382.608C241.664 383.44 240.416 384 239.168 384.288C237.952 384.608 236.752 384.768 235.568 384.768ZM253.884 380.88C254.78 380.88 255.42 380.704 255.804 380.352C256.188 380 256.428 379.504 256.524 378.864C256.652 378.192 256.716 377.44 256.716 376.608V368.64C256.716 368.064 256.732 367.408 256.764 366.672C256.796 365.904 256.844 365.168 256.908 364.464C256.396 364.496 255.788 364.528 255.084 364.56C254.412 364.56 253.9 364.576 253.548 364.608V360.96C255.02 360.96 256.268 360.88 257.292 360.72C258.316 360.56 259.116 360.368 259.692 360.144C260.3 359.92 260.716 359.712 260.94 359.52H263.532V376.272C263.532 376.72 263.516 377.36 263.484 378.192C263.452 378.992 263.404 379.76 263.34 380.496C263.852 380.432 264.412 380.4 265.02 380.4C265.66 380.368 266.14 380.352 266.46 380.352V384H253.884V380.88ZM259.884 355.728C258.796 355.728 257.9 355.344 257.196 354.576C256.492 353.808 256.14 352.88 256.14 351.792C256.14 350.704 256.508 349.776 257.244 349.008C257.98 348.24 258.844 347.856 259.836 347.856C260.86 347.856 261.708 348.24 262.38 349.008C263.084 349.776 263.436 350.704 263.436 351.792C263.436 352.88 263.116 353.808 262.476 354.576C261.836 355.344 260.972 355.728 259.884 355.728ZM287.731 384C287.667 383.552 287.619 383.184 287.587 382.896C287.587 382.576 287.571 382.208 287.539 381.792C286.451 382.88 285.299 383.648 284.083 384.096C282.867 384.544 281.635 384.768 280.387 384.768C278.339 384.768 276.739 384.16 275.587 382.944C274.435 381.728 273.859 380.208 273.859 378.384C273.859 376.848 274.243 375.536 275.011 374.448C275.811 373.36 276.851 372.48 278.131 371.808C279.443 371.104 280.883 370.576 282.451 370.224C284.051 369.84 285.651 369.616 287.251 369.552V367.056C287.251 366.224 287.139 365.472 286.915 364.8C286.723 364.128 286.371 363.6 285.859 363.216C285.379 362.832 284.691 362.656 283.795 362.688C283.187 362.72 282.595 362.848 282.019 363.072C281.443 363.296 280.947 363.616 280.531 364.032C280.787 364.32 280.947 364.64 281.011 364.992C281.075 365.312 281.107 365.6 281.107 365.856C281.107 366.496 280.851 367.168 280.339 367.872C279.827 368.544 279.011 368.864 277.891 368.832C276.931 368.8 276.195 368.464 275.683 367.824C275.171 367.184 274.915 366.432 274.915 365.568C274.915 364.288 275.363 363.184 276.259 362.256C277.187 361.296 278.419 360.56 279.955 360.048C281.491 359.504 283.187 359.232 285.043 359.232C287.859 359.232 290.035 359.968 291.571 361.44C293.139 362.88 293.923 365.2 293.923 368.4C293.923 369.488 293.923 370.416 293.923 371.184C293.923 371.952 293.907 372.72 293.875 373.488C293.875 374.256 293.875 375.184 293.875 376.272C293.875 376.72 293.859 377.36 293.827 378.192C293.795 378.992 293.747 379.76 293.683 380.496C294.227 380.432 294.803 380.4 295.411 380.4C296.019 380.368 296.483 380.352 296.803 380.352V384H287.731ZM287.203 372.96C286.307 373.056 285.459 373.216 284.659 373.44C283.859 373.664 283.155 373.968 282.547 374.352C281.971 374.736 281.507 375.2 281.155 375.744C280.835 376.288 280.675 376.896 280.675 377.568C280.707 378.464 280.995 379.104 281.539 379.488C282.083 379.872 282.707 380.064 283.411 380.064C284.147 380.064 284.835 379.904 285.475 379.584C286.115 379.264 286.691 378.848 287.203 378.336C287.203 378.016 287.203 377.712 287.203 377.424C287.203 377.104 287.203 376.784 287.203 376.464C287.203 375.888 287.203 375.312 287.203 374.736C287.203 374.128 287.203 373.536 287.203 372.96ZM303.591 380.88C304.487 380.88 305.127 380.704 305.511 380.352C305.927 380 306.183 379.504 306.279 378.864C306.375 378.192 306.423 377.44 306.423 376.608V356.88C306.423 356.304 306.439 355.648 306.471 354.912C306.503 354.144 306.551 353.408 306.615 352.704C306.103 352.736 305.495 352.768 304.791 352.8C304.119 352.8 303.607 352.816 303.255 352.848V349.2C304.759 349.2 306.007 349.12 306.999 348.96C308.023 348.8 308.823 348.608 309.399 348.384C310.007 348.16 310.423 347.952 310.647 347.76H313.239V376.272C313.239 376.72 313.223 377.36 313.191 378.192C313.159 378.992 313.111 379.76 313.047 380.496C313.591 380.432 314.167 380.4 314.775 380.4C315.383 380.368 315.847 380.352 316.167 380.352V384H303.591V380.88ZM352.561 384.768C351.185 384.768 349.841 384.592 348.529 384.24C347.217 383.888 346.193 383.44 345.457 382.896L345.553 384.336H341.905L341.713 376.08H344.833C344.929 377.04 345.313 377.92 345.985 378.72C346.657 379.52 347.537 380.16 348.625 380.64C349.713 381.088 350.929 381.312 352.273 381.312C352.817 381.312 353.329 381.232 353.809 381.072C354.321 380.912 354.737 380.656 355.057 380.304C355.409 379.92 355.585 379.456 355.585 378.912C355.585 378.304 355.361 377.808 354.913 377.424C354.497 377.04 353.873 376.672 353.041 376.32C352.241 375.968 351.233 375.568 350.017 375.12C349.025 374.736 348.017 374.336 346.993 373.92C346.001 373.504 345.073 373.008 344.209 372.432C343.377 371.824 342.705 371.088 342.193 370.224C341.681 369.328 341.425 368.24 341.425 366.96C341.425 366.032 341.601 365.12 341.953 364.224C342.305 363.296 342.849 362.464 343.585 361.728C344.321 360.96 345.249 360.352 346.369 359.904C347.521 359.456 348.881 359.232 350.449 359.232C351.313 359.232 352.289 359.376 353.377 359.664C354.497 359.92 355.441 360.32 356.209 360.864V359.472H359.857V367.968H356.737C356.545 366.848 356.145 365.888 355.537 365.088C354.961 364.288 354.209 363.68 353.281 363.264C352.353 362.816 351.313 362.592 350.161 362.592C349.361 362.592 348.625 362.784 347.953 363.168C347.313 363.552 346.993 364.208 346.993 365.136C346.993 365.872 347.249 366.464 347.761 366.912C348.273 367.328 348.977 367.68 349.873 367.968C350.769 368.256 351.761 368.592 352.849 368.976C354.481 369.52 355.921 370.16 357.169 370.896C358.449 371.632 359.457 372.528 360.193 373.584C360.929 374.608 361.297 375.872 361.297 377.376C361.297 379.04 360.881 380.416 360.049 381.504C359.217 382.592 358.129 383.408 356.785 383.952C355.473 384.496 354.065 384.768 352.561 384.768ZM380.946 384.768C378.802 384.768 376.834 384.288 375.042 383.328C373.25 382.368 371.81 380.976 370.722 379.152C369.666 377.328 369.138 375.12 369.138 372.528C369.138 370.704 369.442 368.992 370.05 367.392C370.658 365.792 371.506 364.384 372.594 363.168C373.714 361.952 375.026 360.992 376.53 360.288C378.066 359.584 379.762 359.232 381.618 359.232C383.666 359.232 385.362 359.552 386.706 360.192C388.082 360.8 389.106 361.616 389.778 362.64C390.482 363.632 390.834 364.688 390.834 365.808C390.834 366.736 390.546 367.568 389.97 368.304C389.426 369.008 388.642 369.376 387.618 369.408C386.402 369.44 385.554 369.104 385.074 368.4C384.594 367.664 384.354 366.96 384.354 366.288C384.354 366 384.402 365.664 384.498 365.28C384.594 364.864 384.738 364.496 384.93 364.176C384.706 363.696 384.37 363.344 383.922 363.12C383.474 362.896 383.01 362.752 382.53 362.688C382.082 362.592 381.714 362.56 381.426 362.592C379.89 362.688 378.626 363.456 377.634 364.896C376.642 366.336 376.146 368.416 376.146 371.136C376.146 372.736 376.338 374.24 376.722 375.648C377.138 377.024 377.81 378.16 378.738 379.056C379.666 379.952 380.914 380.432 382.482 380.496C383.826 380.528 385.138 380.208 386.418 379.536C387.698 378.864 388.786 377.952 389.682 376.8L391.89 378.96C390.738 380.56 389.538 381.776 388.29 382.608C387.042 383.44 385.794 384 384.546 384.288C383.33 384.608 382.13 384.768 380.946 384.768ZM399.262 380.88C400.158 380.88 400.798 380.704 401.182 380.352C401.566 380 401.806 379.504 401.902 378.864C402.03 378.192 402.094 377.44 402.094 376.608V368.64C402.094 368.064 402.11 367.408 402.142 366.672C402.174 365.904 402.222 365.168 402.286 364.464C401.774 364.496 401.166 364.528 400.462 364.56C399.79 364.56 399.278 364.576 398.926 364.608V360.96C400.398 360.96 401.646 360.88 402.67 360.72C403.694 360.56 404.494 360.368 405.07 360.144C405.678 359.92 406.094 359.712 406.318 359.52H408.91V376.272C408.91 376.72 408.894 377.36 408.862 378.192C408.83 378.992 408.782 379.76 408.718 380.496C409.23 380.432 409.79 380.4 410.398 380.4C411.038 380.368 411.518 380.352 411.838 380.352V384H399.262V380.88ZM405.262 355.728C404.174 355.728 403.278 355.344 402.574 354.576C401.87 353.808 401.518 352.88 401.518 351.792C401.518 350.704 401.886 349.776 402.622 349.008C403.358 348.24 404.222 347.856 405.214 347.856C406.238 347.856 407.086 348.24 407.758 349.008C408.462 349.776 408.814 350.704 408.814 351.792C408.814 352.88 408.494 353.808 407.854 354.576C407.214 355.344 406.35 355.728 405.262 355.728ZM423.413 384.768C422.389 384.768 421.541 384.4 420.869 383.664C420.229 382.928 419.909 382.048 419.909 381.024C419.909 380 420.261 379.12 420.965 378.384C421.669 377.648 422.485 377.28 423.413 377.28C424.405 377.28 425.221 377.648 425.861 378.384C426.533 379.12 426.869 380 426.869 381.024C426.869 382.048 426.549 382.928 425.909 383.664C425.301 384.4 424.469 384.768 423.413 384.768Z" fill="#BB539E"/>
<path d="M314.853 185.225L325.946 186.505L327.578 179.668C328.349 179.476 329.057 179.23 329.7 178.929C330.344 178.629 330.924 178.274 331.439 177.865L337.498 181.375L344.132 172.586L339.066 167.786C339.336 167.068 339.514 166.339 339.599 165.599C339.684 164.86 339.677 164.109 339.578 163.349L345.604 159.829L341.146 149.76L334.447 151.797C334.039 151.281 333.555 150.804 332.997 150.365C332.439 149.926 331.806 149.525 331.098 149.162L331.066 142.133L319.973 140.853L318.341 147.69C317.57 147.882 316.862 148.128 316.219 148.429C315.575 148.729 314.995 149.084 314.48 149.493L308.421 145.983L301.787 154.772L306.853 159.572C306.583 160.29 306.405 161.019 306.32 161.759C306.235 162.498 306.242 163.249 306.341 164.009L300.315 167.529L304.773 177.598L311.472 175.561C311.881 176.077 312.364 176.554 312.922 176.993C313.48 177.432 314.113 177.833 314.821 178.196L314.853 185.225ZM321.999 171.999C319.688 171.732 317.817 170.697 316.386 168.892C314.955 167.088 314.373 165.03 314.64 162.719C314.906 160.408 315.942 158.537 317.746 157.106C319.551 155.675 321.609 155.092 323.92 155.359C326.231 155.626 328.102 156.661 329.533 158.466C330.964 160.27 331.546 162.328 331.279 164.639C331.013 166.95 329.977 168.821 328.173 170.252C326.368 171.683 324.31 172.265 321.999 171.999ZM282.64 220.85L285.392 197C280.678 191.585 277.235 185.497 275.064 178.737C272.894 171.976 272.219 165.037 273.041 157.918C274.641 144.052 280.854 132.826 291.681 124.24C302.507 115.653 314.854 112.16 328.72 113.76C340.275 115.094 350.121 119.672 358.258 127.496C366.394 135.32 371.174 144.841 372.596 156.058L376.526 185.316C376.785 187.126 376.278 188.683 375.003 189.988C373.729 191.293 372.167 191.839 370.318 191.626L359.225 190.345L357.305 206.985C356.953 210.036 355.565 212.522 353.142 214.443C350.719 216.365 347.982 217.15 344.932 216.798L333.839 215.518L332.558 226.611L282.64 220.85Z" fill="#E66EC4"/>
<path d="M185.757 252.463C181.147 253.366 176.878 252.498 172.952 249.858C169.026 247.218 166.611 243.593 165.708 238.983L160.782 213.835L185.929 208.91L182.235 190.049C177.291 190.728 172.433 190.555 167.663 189.531C162.893 188.507 158.322 186.465 153.951 183.404L152.145 174.183L142.505 176.072L109.926 154.165C113.696 146.754 119.024 140.995 125.908 136.891C132.793 132.786 140.007 129.995 147.551 128.517C151.323 127.778 155.045 127.339 158.717 127.2C162.389 127.061 166.192 127.404 170.125 128.229L167.868 116.704L268.456 96.9999L289.802 205.971C291.17 212.956 289.888 219.372 285.956 225.22C282.024 231.067 276.566 234.675 269.58 236.044L185.757 252.463ZM202.694 205.626L252.988 195.774L256.272 212.539C256.737 214.914 257.931 216.747 259.852 218.039C261.773 219.331 263.922 219.744 266.297 219.279C268.672 218.814 270.505 217.62 271.797 215.699C273.089 213.778 273.502 211.63 273.037 209.255L254.975 117.049L187.916 130.184L188.902 135.214L249.048 175.656L251.346 187.391L239.611 189.69L211.042 170.48L209.694 172.485C208.121 174.824 206.402 176.974 204.538 178.935C202.673 180.896 200.636 182.528 198.425 183.831L202.694 205.626ZM146.346 157.911L165.625 154.135L169.156 172.157C171.051 172.946 172.948 173.372 174.846 173.436C176.745 173.499 178.672 173.339 180.627 172.956C183.841 172.327 186.644 171.27 189.037 169.786C191.43 168.301 193.637 166.056 195.66 163.048L197.008 161.044L182.974 151.607C178.128 148.349 172.993 146.2 167.567 145.159C162.14 144.119 156.563 144.16 150.835 145.282C148.041 145.829 145.428 146.558 142.995 147.47C140.563 148.382 138.171 149.503 135.821 150.834L146.346 157.911Z" fill="#D95EB6"/>
<defs>
<filter id="filter0_d_487_5981" x="0" y="0" width="497" height="497" filterUnits="userSpaceOnUse" color-interpolation-filters="sRGB">
<feFlood flood-opacity="0" result="BackgroundImageFix"/>
<feColorMatrix in="SourceAlpha" type="matrix" values="0 0 0 0 0 0 0 0 0 0 0 0 0 0 0 0 0 0 127 0" result="hardAlpha"/>
<feOffset dy="4"/>
<feGaussianBlur stdDeviation="5"/>
<feComposite in2="hardAlpha" operator="out"/>
<feColorMatrix type="matrix" values="0 0 0 0 0 0 0 0 0 0 0 0 0 0 0 0 0 0 0.1 0"/>
<feBlend mode="normal" in2="BackgroundImageFix" result="effect1_dropShadow_487_5981"/>
<feBlend mode="normal" in="SourceGraphic" in2="effect1_dropShadow_487_5981" result="shape"/>
</filter>
</defs>
</svg>
