<svg width="527" height="379" viewBox="0 0 527 379" fill="none" xmlns="http://www.w3.org/2000/svg">
<g filter="url(#filter0_d_1023_241)">
<mask id="mask0_1023_241" style="mask-type:alpha" maskUnits="userSpaceOnUse" x="5" y="6" width="509" height="360">
<ellipse cx="259.75" cy="186" rx="180" ry="254.25" transform="rotate(90 259.75 186)" fill="#0A4153"/>
</mask>
<g mask="url(#mask0_1023_241)">
<ellipse cx="259.75" cy="186" rx="180" ry="254.25" transform="rotate(90 259.75 186)" fill="#BB539E"/>
<path d="M496.94 186C496.94 230.335 470.853 270.805 427.999 300.322C385.158 329.831 325.805 348.18 260.099 348.18C194.392 348.18 135.039 329.831 92.1982 300.322C49.3439 270.805 23.2569 230.335 23.2568 186C23.2568 141.666 49.3439 101.195 92.1982 71.6779C135.04 42.1696 194.392 23.8195 260.099 23.8195C325.805 23.8195 385.158 42.1696 427.999 71.6779C470.853 101.195 496.94 141.666 496.94 186Z" stroke="#FFB0E9" stroke-width="6.12"/>
<path d="M180.084 72.1016L175.49 57.4762L183.904 54.8329L184.42 56.4758L177.789 58.5589L179.211 63.0868L185.141 61.2239L185.651 62.8467L179.721 64.7096L181.351 69.8986L187.982 67.8154L188.499 69.4583L180.084 72.1016ZM202.372 65.8724C201.389 66.094 200.505 66.1209 199.721 65.9532C198.951 65.7824 198.305 65.4328 197.784 64.9043C197.263 64.3759 196.9 63.6899 196.696 62.8462L198.54 62.4307C198.709 63.1819 199.096 63.719 199.699 64.0422C200.317 64.3623 201.083 64.4192 201.998 64.213C202.859 64.0191 203.48 63.6566 203.863 63.1255C204.259 62.5913 204.372 61.9486 204.203 61.1975C204.068 60.5965 203.785 60.1077 203.356 59.7308C202.94 59.3509 202.412 59.1399 201.771 59.0978L199.6 58.9198C198.505 58.8365 197.594 58.4892 196.868 57.8778C196.155 57.2635 195.687 56.4578 195.462 55.4608C195.281 54.655 195.301 53.9184 195.524 53.2511C195.757 52.5671 196.165 51.9873 196.746 51.5118C197.325 51.0226 198.058 50.678 198.946 50.478C200.257 50.1825 201.392 50.3143 202.35 50.8733C203.305 51.4186 203.927 52.2975 204.214 53.5099L202.371 53.9254C202.204 53.1879 201.85 52.6651 201.307 52.3569C200.774 52.032 200.105 51.9604 199.299 52.142C198.507 52.3205 197.929 52.6517 197.564 53.1357C197.214 53.6166 197.115 54.1985 197.269 54.8814C197.408 55.496 197.691 55.9917 198.121 56.3685C198.55 56.7453 199.094 56.9601 199.751 57.0128L201.948 57.2067C203.015 57.2961 203.907 57.6549 204.623 58.2829C205.338 58.911 205.81 59.7303 206.038 60.741C206.222 61.5604 206.193 62.3206 205.949 63.0213C205.705 63.7221 205.273 64.3217 204.654 64.8201C204.048 65.3154 203.287 65.6662 202.372 65.8724ZM219.823 62.1581L217.887 48.6674L213.729 49.2641L213.485 47.5596L223.67 46.0975L223.915 47.8021L219.758 48.3988L221.694 61.8895L219.823 62.1581ZM239.518 60.0234C238.987 60.059 238.55 59.9339 238.209 59.6481C237.881 59.3614 237.699 58.9597 237.665 58.4428C237.628 57.8981 237.753 57.4547 238.039 57.1128C238.338 56.77 238.754 56.5808 239.284 56.5452C239.815 56.5096 240.245 56.6421 240.574 56.9428C240.917 57.2425 241.106 57.6648 241.143 58.2096C241.178 58.7264 241.045 59.1492 240.744 59.4781C240.457 59.806 240.048 59.9878 239.518 60.0234ZM272.875 59.257L273.031 57.3313L278.1 52.7488C278.965 51.962 279.605 51.2554 280.021 50.629C280.438 49.9886 280.671 49.3614 280.721 48.7474C280.79 47.8962 280.607 47.2072 280.172 46.6803C279.751 46.1546 279.136 45.859 278.327 45.7934C277.434 45.721 276.709 45.9151 276.152 46.3756C275.609 46.8373 275.301 47.5076 275.23 48.3868L273.346 48.2341C273.449 47.3154 273.723 46.537 274.168 45.8988C274.628 45.2478 275.221 44.7692 275.949 44.4629C276.69 44.1578 277.528 44.0431 278.463 44.1189C279.383 44.1935 280.164 44.4393 280.805 44.8564C281.46 45.2607 281.943 45.8054 282.252 46.4907C282.562 47.1759 282.68 47.9721 282.607 48.8791C282.536 49.7443 282.237 50.5838 281.707 51.3977C281.178 52.2116 280.346 53.1204 279.211 54.124L275.128 57.7119L282.098 58.2767L281.959 59.9931L272.875 59.257ZM295.964 61.8183C295.037 61.6717 294.257 61.3639 293.622 60.895C293.004 60.4145 292.561 59.8128 292.292 59.09C292.026 58.3533 291.964 57.5356 292.106 56.6368L293.156 49.9993C293.301 49.0867 293.612 48.328 294.091 47.7233C294.569 47.1187 295.175 46.6902 295.91 46.4378C296.66 46.1739 297.499 46.1152 298.425 46.2617C299.365 46.4105 300.145 46.7252 300.763 47.2057C301.384 47.6724 301.829 48.2672 302.097 48.99C302.365 49.7128 302.427 50.5306 302.283 51.4432L301.233 58.0807C301.091 58.9795 300.779 59.7382 300.299 60.3567C299.82 60.9613 299.206 61.3957 298.455 61.6596C297.721 61.912 296.89 61.9648 295.964 61.8183ZM296.217 60.2211C297.046 60.3524 297.752 60.1947 298.333 59.748C298.93 59.2896 299.295 58.6387 299.428 57.7952L300.478 51.1577C300.612 50.3142 300.464 49.5893 300.036 48.9828C299.623 48.3648 299.002 47.9901 298.172 47.8589C297.343 47.7276 296.629 47.8912 296.033 48.3495C295.452 48.7962 295.094 49.4413 294.961 50.2848L293.911 56.9223C293.777 57.7658 293.917 58.4966 294.329 59.1146C294.758 59.721 295.387 60.0899 296.217 60.2211ZM297.001 55.2638C296.628 55.2047 296.342 55.039 296.144 54.7668C295.96 54.4967 295.899 54.1681 295.96 53.7809C296.019 53.4075 296.177 53.1277 296.433 52.9415C296.705 52.7436 297.028 52.6742 297.401 52.7333C297.775 52.7923 298.053 52.9569 298.237 53.227C298.437 53.4854 298.508 53.8013 298.449 54.1747C298.388 54.5619 298.221 54.8544 297.949 55.0523C297.69 55.2523 297.374 55.3228 297.001 55.2638ZM310.266 64.0212L310.67 62.3473L314.712 63.323L317.536 51.626L312.765 53.6715L313.257 51.6302L317.232 49.9324L319.743 50.5385L316.549 63.7665L319.856 64.5649L319.452 66.2388L310.266 64.0212ZM332.692 70.0945C331.504 69.7193 330.626 69.1044 330.059 68.25C329.492 67.3956 329.307 66.4266 329.502 65.3432L331.304 65.9123C331.19 66.5075 331.295 67.0327 331.621 67.488C331.952 67.93 332.484 68.2669 333.218 68.4988C334.059 68.7644 334.758 68.7356 335.315 68.4124C335.886 68.0935 336.302 67.5201 336.563 66.6924L337.012 65.2706C337.274 64.4429 337.263 63.7347 336.979 63.1458C336.708 62.5612 336.159 62.1382 335.331 61.8768C334.811 61.7124 334.313 61.7092 333.837 61.8673C333.365 62.012 332.971 62.284 332.654 62.683L330.852 62.1139L333.507 54.0554L341.197 56.4839L340.678 58.1259L334.731 56.2476L333.134 61.0947L333.695 61.2718L332.97 61.6154C333.168 60.9879 333.571 60.572 334.178 60.3675C334.8 60.1673 335.531 60.2 336.372 60.4656C337.564 60.8275 338.369 61.4855 338.787 62.4397C339.223 63.3848 339.232 64.5181 338.815 65.8398L338.366 67.2616C337.957 68.5565 337.252 69.4643 336.25 69.985C335.253 70.4922 334.067 70.5288 332.692 70.0945Z" fill="#FFB0E9"/>
<path d="M311.226 160.225L319.238 161.149L320.417 156.211C320.974 156.072 321.485 155.895 321.95 155.678C322.415 155.461 322.833 155.204 323.206 154.909L327.582 157.444L332.374 151.095L328.715 147.628C328.91 147.11 329.038 146.583 329.1 146.049C329.161 145.515 329.156 144.973 329.084 144.423L333.437 141.881L330.217 134.608L325.379 136.08C325.083 135.707 324.734 135.362 324.331 135.045C323.928 134.728 323.471 134.439 322.96 134.177L322.936 129.099L314.924 128.175L313.745 133.113C313.188 133.252 312.677 133.43 312.212 133.647C311.747 133.864 311.329 134.12 310.956 134.415L306.58 131.881L301.788 138.229L305.447 141.696C305.252 142.215 305.124 142.741 305.062 143.275C305.001 143.809 305.006 144.351 305.078 144.901L300.725 147.443L303.945 154.716L308.783 153.245C309.079 153.617 309.428 153.962 309.831 154.279C310.234 154.596 310.691 154.886 311.202 155.148L311.226 160.225ZM316.388 150.672C314.718 150.479 313.367 149.731 312.333 148.428C311.3 147.124 310.879 145.638 311.072 143.969C311.264 142.299 312.012 140.948 313.316 139.914C314.619 138.881 316.105 138.46 317.774 138.653C319.444 138.845 320.795 139.593 321.829 140.897C322.862 142.2 323.283 143.686 323.09 145.356C322.898 147.025 322.15 148.376 320.846 149.41C319.543 150.444 318.057 150.864 316.388 150.672ZM287.958 185.957L289.946 168.73C286.541 164.819 284.054 160.422 282.486 155.538C280.919 150.655 280.431 145.643 281.025 140.501C282.181 130.486 286.668 122.377 294.488 116.175C302.308 109.973 311.226 107.45 321.242 108.606C329.588 109.569 336.7 112.876 342.577 118.527C348.454 124.179 351.906 131.055 352.933 139.158L355.772 160.291C355.959 161.598 355.593 162.723 354.672 163.665C353.751 164.608 352.623 165.002 351.288 164.848L343.275 163.923L341.889 175.942C341.634 178.146 340.632 179.941 338.882 181.329C337.132 182.717 335.155 183.284 332.951 183.03L324.939 182.105L324.014 190.118L287.958 185.957Z" fill="#FAA8E3"/>
<path d="M217.979 208.791C214.649 209.443 211.566 208.816 208.73 206.909C205.894 205.002 204.15 202.384 203.498 199.054L199.94 180.89L218.104 177.332L215.435 163.709C211.864 164.199 208.355 164.075 204.91 163.335C201.464 162.595 198.163 161.12 195.006 158.91L193.701 152.249L186.738 153.613L163.206 137.79C165.93 132.437 169.778 128.278 174.751 125.313C179.723 122.348 184.934 120.332 190.383 119.265C193.108 118.731 195.796 118.414 198.448 118.313C201.101 118.213 203.847 118.461 206.688 119.057L205.058 110.732L277.713 96.4999L293.13 175.209C294.119 180.255 293.193 184.889 290.353 189.113C287.513 193.337 283.57 195.943 278.525 196.931L217.979 208.791ZM230.213 174.96L266.54 167.844L268.912 179.953C269.248 181.669 270.11 182.993 271.498 183.926C272.886 184.859 274.437 185.158 276.153 184.822C277.868 184.486 279.193 183.624 280.126 182.236C281.059 180.848 281.357 179.297 281.021 177.581L267.975 110.981L219.539 120.469L220.25 124.102L263.694 153.313L265.354 161.79L256.878 163.45L236.242 149.575L235.269 151.023C234.133 152.712 232.891 154.265 231.545 155.681C230.198 157.098 228.726 158.277 227.129 159.218L230.213 174.96ZM189.513 140.496L203.438 137.768L205.988 150.786C207.357 151.356 208.727 151.664 210.098 151.709C211.469 151.755 212.861 151.64 214.274 151.363C216.595 150.908 218.62 150.145 220.348 149.073C222.077 148.001 223.671 146.379 225.132 144.207L226.105 142.759L215.969 135.943C212.469 133.589 208.76 132.037 204.84 131.285C200.921 130.534 196.893 130.563 192.755 131.374C190.737 131.769 188.849 132.296 187.092 132.954C185.335 133.613 183.608 134.423 181.91 135.384L189.513 140.496Z" fill="#F971D3"/>
<path d="M151.199 263.5V238.665H154.873V248.939H162.153V238.665H165.827V263.5H162.153V252.341H154.873V263.5H151.199ZM178.912 263.84C176.53 263.84 174.693 263.194 173.401 261.901C172.108 260.586 171.461 258.805 171.461 256.56V238.665H175.136V256.56C175.136 257.807 175.442 258.794 176.054 259.52C176.689 260.245 177.642 260.608 178.912 260.608C180.159 260.608 181.1 260.245 181.735 259.52C182.371 258.794 182.688 257.807 182.688 256.56V238.665H186.362V256.56C186.362 258.805 185.716 260.586 184.423 261.901C183.13 263.194 181.293 263.84 178.912 263.84ZM191.35 263.5V238.665H195.875L198.358 246.626C198.607 247.375 198.823 248.1 199.004 248.803C199.186 249.484 199.311 249.994 199.379 250.334C199.469 249.994 199.594 249.484 199.753 248.803C199.934 248.1 200.138 247.375 200.365 246.626L202.747 238.665H207.271V263.5H203.801V255.131C203.801 254.065 203.824 252.886 203.869 251.593C203.937 250.278 204.028 248.962 204.141 247.647C204.255 246.309 204.368 245.038 204.482 243.836C204.595 242.612 204.697 241.546 204.788 240.639L201.114 252.716H197.576L193.833 240.639C193.947 241.523 194.06 242.555 194.174 243.734C194.287 244.891 194.389 246.127 194.48 247.443C194.57 248.758 194.65 250.085 194.718 251.423C194.786 252.738 194.82 253.974 194.82 255.131V263.5H191.35ZM210.966 263.5L217.294 238.665H222.125L228.452 263.5H224.744L223.247 257.206H216.205L214.708 263.5H210.966ZM216.886 254.179H222.533L220.832 247C220.537 245.73 220.288 244.63 220.083 243.7C219.902 242.748 219.777 242.101 219.709 241.761C219.641 242.101 219.516 242.748 219.335 243.7C219.154 244.63 218.904 245.719 218.587 246.966L216.886 254.179ZM232.658 263.5V238.665H237.284L244.531 259.316C244.485 258.658 244.428 257.875 244.36 256.968C244.292 256.061 244.236 255.12 244.19 254.145C244.168 253.169 244.156 252.285 244.156 251.491V238.665H247.558V263.5H242.932L235.719 242.85C235.765 243.44 235.81 244.177 235.855 245.061C235.923 245.946 235.969 246.864 235.992 247.817C236.037 248.769 236.06 249.654 236.06 250.47V263.5H232.658ZM253.635 263.5V260.234H258.636V241.931H253.635V238.665H267.379V241.931H262.378V260.234H267.379V263.5H253.635ZM279.068 263.5V242.033H272.434V238.631H289.376V242.033H282.742V263.5H279.068ZM294.432 263.5V260.234H299.433V241.931H294.432V238.665H308.176V241.931H303.175V260.234H308.176V263.5H294.432ZM314.695 263.5V238.665H329.289V241.931H318.301V248.973H328.099V252.205H318.301V260.234H329.289V263.5H314.695ZM342.204 263.84C340.525 263.84 339.085 263.568 337.883 263.024C336.681 262.457 335.751 261.663 335.093 260.642C334.436 259.599 334.107 258.363 334.107 256.934H337.747C337.747 258.068 338.144 258.964 338.938 259.622C339.731 260.257 340.831 260.574 342.238 260.574C343.553 260.574 344.585 260.257 345.333 259.622C346.082 258.987 346.456 258.114 346.456 257.002C346.456 256.072 346.195 255.267 345.674 254.587C345.175 253.906 344.449 253.441 343.496 253.192L340.366 252.273C338.552 251.752 337.146 250.867 336.148 249.62C335.173 248.35 334.685 246.842 334.685 245.095C334.685 243.734 334.991 242.544 335.604 241.523C336.216 240.502 337.089 239.709 338.223 239.142C339.357 238.575 340.695 238.291 342.238 238.291C344.506 238.291 346.32 238.904 347.681 240.128C349.064 241.353 349.767 242.997 349.79 245.061H346.116C346.116 243.973 345.764 243.122 345.061 242.51C344.381 241.875 343.417 241.557 342.17 241.557C340.967 241.557 340.026 241.852 339.346 242.442C338.665 243.009 338.325 243.814 338.325 244.857C338.325 245.787 338.575 246.592 339.074 247.272C339.595 247.953 340.332 248.429 341.285 248.701L344.449 249.654C346.263 250.153 347.658 251.037 348.633 252.307C349.609 253.578 350.096 255.097 350.096 256.866C350.096 258.25 349.767 259.474 349.11 260.54C348.452 261.584 347.533 262.4 346.354 262.99C345.175 263.557 343.791 263.84 342.204 263.84ZM354.608 267.242L366.583 235.263H370.393L358.418 267.242H354.608ZM158.615 297.84C156.937 297.84 155.497 297.568 154.295 297.024C153.093 296.457 152.163 295.663 151.505 294.642C150.847 293.599 150.518 292.363 150.518 290.934H154.159C154.159 292.068 154.555 292.964 155.349 293.622C156.143 294.257 157.243 294.574 158.649 294.574C159.965 294.574 160.997 294.257 161.745 293.622C162.493 292.987 162.868 292.114 162.868 291.002C162.868 290.072 162.607 289.267 162.085 288.587C161.586 287.906 160.86 287.441 159.908 287.192L156.778 286.273C154.964 285.752 153.558 284.867 152.56 283.62C151.584 282.35 151.097 280.842 151.097 279.095C151.097 277.734 151.403 276.544 152.015 275.523C152.628 274.502 153.501 273.709 154.635 273.142C155.769 272.575 157.107 272.291 158.649 272.291C160.917 272.291 162.732 272.904 164.092 274.128C165.476 275.353 166.179 276.997 166.202 279.061H162.527C162.527 277.973 162.176 277.122 161.473 276.51C160.792 275.875 159.829 275.557 158.581 275.557C157.379 275.557 156.438 275.852 155.757 276.442C155.077 277.009 154.737 277.814 154.737 278.857C154.737 279.787 154.986 280.592 155.485 281.272C156.007 281.953 156.744 282.429 157.697 282.701L160.86 283.654C162.675 284.153 164.07 285.037 165.045 286.307C166.02 287.578 166.508 289.097 166.508 290.866C166.508 292.25 166.179 293.474 165.521 294.54C164.864 295.584 163.945 296.4 162.766 296.99C161.586 297.557 160.203 297.84 158.615 297.84ZM178.912 297.84C177.37 297.84 176.031 297.557 174.897 296.99C173.786 296.4 172.924 295.561 172.312 294.472C171.722 293.361 171.427 292.068 171.427 290.594V279.571C171.427 278.075 171.722 276.782 172.312 275.693C172.924 274.605 173.786 273.777 174.897 273.21C176.031 272.62 177.37 272.325 178.912 272.325C180.454 272.325 181.781 272.62 182.892 273.21C184.026 273.777 184.888 274.605 185.478 275.693C186.09 276.782 186.396 278.063 186.396 279.537V290.594C186.396 292.068 186.09 293.361 185.478 294.472C184.888 295.561 184.026 296.4 182.892 296.99C181.781 297.557 180.454 297.84 178.912 297.84ZM178.912 294.574C180.159 294.574 181.1 294.234 181.735 293.554C182.393 292.851 182.722 291.864 182.722 290.594V279.571C182.722 278.279 182.393 277.292 181.735 276.612C181.1 275.931 180.159 275.591 178.912 275.591C177.687 275.591 176.746 275.931 176.088 276.612C175.43 277.292 175.102 278.279 175.102 279.571V290.594C175.102 291.864 175.43 292.851 176.088 293.554C176.746 294.234 177.687 294.574 178.912 294.574ZM199.447 297.84C197.904 297.84 196.555 297.557 195.398 296.99C194.264 296.4 193.38 295.561 192.745 294.472C192.132 293.361 191.826 292.068 191.826 290.594V279.571C191.826 278.075 192.132 276.782 192.745 275.693C193.38 274.605 194.264 273.777 195.398 273.21C196.555 272.62 197.904 272.325 199.447 272.325C200.989 272.325 202.327 272.62 203.461 273.21C204.595 273.799 205.468 274.639 206.081 275.727C206.716 276.793 207.033 278.075 207.033 279.571H203.359C203.359 278.279 203.019 277.292 202.338 276.612C201.658 275.931 200.694 275.591 199.447 275.591C198.199 275.591 197.224 275.931 196.521 276.612C195.84 277.292 195.5 278.267 195.5 279.537V290.594C195.5 291.864 195.84 292.851 196.521 293.554C197.224 294.234 198.199 294.574 199.447 294.574C200.694 294.574 201.658 294.234 202.338 293.554C203.019 292.851 203.359 291.864 203.359 290.594H207.033C207.033 292.068 206.716 293.35 206.081 294.438C205.468 295.527 204.595 296.366 203.461 296.956C202.327 297.545 200.989 297.84 199.447 297.84ZM212.837 297.5V294.234H217.838V275.931H212.837V272.665H226.581V275.931H221.58V294.234H226.581V297.5H212.837ZM231.365 297.5L237.693 272.665H242.523L248.851 297.5H245.143L243.646 291.206H236.604L235.107 297.5H231.365ZM237.284 288.179H242.932L241.231 281C240.936 279.73 240.686 278.63 240.482 277.7C240.301 276.748 240.176 276.101 240.108 275.761C240.04 276.101 239.915 276.748 239.734 277.7C239.552 278.63 239.303 279.719 238.985 280.966L237.284 288.179ZM254.009 297.5V272.665H257.683V294.132H268.535V297.5H254.009ZM301.406 297.84C299.728 297.84 298.288 297.568 297.086 297.024C295.884 296.457 294.954 295.663 294.296 294.642C293.638 293.599 293.309 292.363 293.309 290.934H296.949C296.949 292.068 297.346 292.964 298.14 293.622C298.934 294.257 300.034 294.574 301.44 294.574C302.756 294.574 303.788 294.257 304.536 293.622C305.284 292.987 305.659 292.114 305.659 291.002C305.659 290.072 305.398 289.267 304.876 288.587C304.377 287.906 303.651 287.441 302.699 287.192L299.569 286.273C297.755 285.752 296.348 284.867 295.351 283.62C294.375 282.35 293.888 280.842 293.888 279.095C293.888 277.734 294.194 276.544 294.806 275.523C295.419 274.502 296.292 273.709 297.426 273.142C298.56 272.575 299.898 272.291 301.44 272.291C303.708 272.291 305.523 272.904 306.883 274.128C308.267 275.353 308.97 276.997 308.993 279.061H305.318C305.318 277.973 304.967 277.122 304.264 276.51C303.583 275.875 302.619 275.557 301.372 275.557C300.17 275.557 299.229 275.852 298.548 276.442C297.868 277.009 297.528 277.814 297.528 278.857C297.528 279.787 297.777 280.592 298.276 281.272C298.798 281.953 299.535 282.429 300.488 282.701L303.651 283.654C305.466 284.153 306.861 285.037 307.836 286.307C308.811 287.578 309.299 289.097 309.299 290.866C309.299 292.25 308.97 293.474 308.312 294.54C307.654 295.584 306.736 296.4 305.557 296.99C304.377 297.557 302.994 297.84 301.406 297.84ZM321.839 297.84C320.297 297.84 318.947 297.557 317.79 296.99C316.656 296.4 315.772 295.561 315.137 294.472C314.525 293.361 314.218 292.068 314.218 290.594V279.571C314.218 278.075 314.525 276.782 315.137 275.693C315.772 274.605 316.656 273.777 317.79 273.21C318.947 272.62 320.297 272.325 321.839 272.325C323.381 272.325 324.719 272.62 325.853 273.21C326.987 273.799 327.86 274.639 328.473 275.727C329.108 276.793 329.425 278.075 329.425 279.571H325.751C325.751 278.279 325.411 277.292 324.731 276.612C324.05 275.931 323.086 275.591 321.839 275.591C320.591 275.591 319.616 275.931 318.913 276.612C318.233 277.292 317.893 278.267 317.893 279.537V290.594C317.893 291.864 318.233 292.851 318.913 293.554C319.616 294.234 320.591 294.574 321.839 294.574C323.086 294.574 324.05 294.234 324.731 293.554C325.411 292.851 325.751 291.864 325.751 290.594H329.425C329.425 292.068 329.108 293.35 328.473 294.438C327.86 295.527 326.987 296.366 325.853 296.956C324.719 297.545 323.381 297.84 321.839 297.84ZM335.229 297.5V294.234H340.23V275.931H335.229V272.665H348.974V275.931H343.973V294.234H348.974V297.5H335.229ZM362.5 297.84C361.593 297.84 360.867 297.579 360.323 297.058C359.779 296.513 359.506 295.788 359.506 294.88C359.506 293.951 359.779 293.213 360.323 292.669C360.867 292.102 361.593 291.819 362.5 291.819C363.43 291.819 364.156 292.102 364.677 292.669C365.222 293.213 365.494 293.951 365.494 294.88C365.494 295.788 365.222 296.513 364.677 297.058C364.156 297.579 363.43 297.84 362.5 297.84Z" fill="white"/>
<g opacity="0.5">
<g opacity="0.7" filter="url(#filter1_f_1023_241)">
<rect x="196" y="366.123" width="413.079" height="40.8916" transform="rotate(-45.9959 196 366.123)" fill="url(#paint0_linear_1023_241)" fill-opacity="0.2"/>
</g>
<g filter="url(#filter2_f_1023_241)">
<rect x="225.413" y="394.531" width="413.079" height="61.3123" transform="rotate(-45.9959 225.413 394.531)" fill="url(#paint1_linear_1023_241)" fill-opacity="0.4"/>
</g>
</g>
<g opacity="0.5">
<g opacity="0.7" filter="url(#filter3_f_1023_241)">
<rect x="-27.5" y="246.123" width="413.079" height="61.3123" transform="rotate(-45.9959 -27.5 246.123)" fill="url(#paint2_linear_1023_241)" fill-opacity="0.2"/>
</g>
<g opacity="0.5" filter="url(#filter4_f_1023_241)">
<rect x="16.6016" y="288.718" width="413.079" height="61.3123" transform="rotate(-45.9959 16.6016 288.718)" fill="url(#paint3_linear_1023_241)" fill-opacity="0.4"/>
</g>
</g>
</g>
</g>
<defs>
<filter id="filter0_d_1023_241" x="0.0999999" y="0.6" width="526.5" height="378" filterUnits="userSpaceOnUse" color-interpolation-filters="sRGB">
<feFlood flood-opacity="0" result="BackgroundImageFix"/>
<feColorMatrix in="SourceAlpha" type="matrix" values="0 0 0 0 0 0 0 0 0 0 0 0 0 0 0 0 0 0 127 0" result="hardAlpha"/>
<feOffset dx="3.6" dy="3.6"/>
<feGaussianBlur stdDeviation="4.5"/>
<feComposite in2="hardAlpha" operator="out"/>
<feColorMatrix type="matrix" values="0 0 0 0 0 0 0 0 0 0 0 0 0 0 0 0 0 0 0.1 0"/>
<feBlend mode="normal" in2="BackgroundImageFix" result="effect1_dropShadow_1023_241"/>
<feBlend mode="normal" in="SourceGraphic" in2="effect1_dropShadow_1023_241" result="shape"/>
</filter>
<filter id="filter1_f_1023_241" x="181" y="54.0001" width="346.383" height="355.531" filterUnits="userSpaceOnUse" color-interpolation-filters="sRGB">
<feFlood flood-opacity="0" result="BackgroundImageFix"/>
<feBlend mode="normal" in="SourceGraphic" in2="BackgroundImageFix" result="shape"/>
<feGaussianBlur stdDeviation="7.5" result="effect1_foregroundBlur_1023_241"/>
</filter>
<filter id="filter2_f_1023_241" x="210.413" y="82.4078" width="361.071" height="369.718" filterUnits="userSpaceOnUse" color-interpolation-filters="sRGB">
<feFlood flood-opacity="0" result="BackgroundImageFix"/>
<feBlend mode="normal" in="SourceGraphic" in2="BackgroundImageFix" result="shape"/>
<feGaussianBlur stdDeviation="7.5" result="effect1_foregroundBlur_1023_241"/>
</filter>
<filter id="filter3_f_1023_241" x="-42.5" y="-65.9999" width="361.071" height="369.718" filterUnits="userSpaceOnUse" color-interpolation-filters="sRGB">
<feFlood flood-opacity="0" result="BackgroundImageFix"/>
<feBlend mode="normal" in="SourceGraphic" in2="BackgroundImageFix" result="shape"/>
<feGaussianBlur stdDeviation="7.5" result="effect1_foregroundBlur_1023_241"/>
</filter>
<filter id="filter4_f_1023_241" x="1.60156" y="-23.4057" width="361.071" height="369.718" filterUnits="userSpaceOnUse" color-interpolation-filters="sRGB">
<feFlood flood-opacity="0" result="BackgroundImageFix"/>
<feBlend mode="normal" in="SourceGraphic" in2="BackgroundImageFix" result="shape"/>
<feGaussianBlur stdDeviation="7.5" result="effect1_foregroundBlur_1023_241"/>
</filter>
<linearGradient id="paint0_linear_1023_241" x1="402.539" y1="366.123" x2="402.539" y2="407.015" gradientUnits="userSpaceOnUse">
<stop stop-color="white" stop-opacity="0"/>
<stop offset="1" stop-color="white"/>
</linearGradient>
<linearGradient id="paint1_linear_1023_241" x1="431.952" y1="394.531" x2="431.952" y2="455.843" gradientUnits="userSpaceOnUse">
<stop/>
<stop offset="1" stop-opacity="0"/>
</linearGradient>
<linearGradient id="paint2_linear_1023_241" x1="179.039" y1="246.123" x2="179.039" y2="307.436" gradientUnits="userSpaceOnUse">
<stop stop-color="white" stop-opacity="0"/>
<stop offset="1" stop-color="white"/>
</linearGradient>
<linearGradient id="paint3_linear_1023_241" x1="223.141" y1="288.718" x2="223.141" y2="350.03" gradientUnits="userSpaceOnUse">
<stop/>
<stop offset="1" stop-opacity="0"/>
</linearGradient>
</defs>
</svg>
