<svg width="527" height="379" viewBox="0 0 527 379" fill="none" xmlns="http://www.w3.org/2000/svg">
<g filter="url(#filter0_d_989_7494)">
<mask id="mask0_989_7494" style="mask-type:alpha" maskUnits="userSpaceOnUse" x="5" y="6" width="509" height="360">
<ellipse cx="259.75" cy="186" rx="180" ry="254.25" transform="rotate(90 259.75 186)" fill="#0A4153"/>
</mask>
<g mask="url(#mask0_989_7494)">
<ellipse cx="259.75" cy="186" rx="180" ry="254.25" transform="rotate(90 259.75 186)" fill="#730030"/>
<path d="M496.94 186C496.94 230.335 470.853 270.805 427.999 300.322C385.158 329.831 325.805 348.18 260.099 348.18C194.392 348.18 135.039 329.831 92.1982 300.322C49.3439 270.805 23.2569 230.335 23.2568 186C23.2568 141.666 49.3439 101.195 92.1982 71.6779C135.04 42.1696 194.392 23.8195 260.099 23.8195C325.805 23.8195 385.158 42.1696 427.999 71.6779C470.853 101.195 496.94 141.666 496.94 186Z" stroke="#FF9E9E" stroke-width="6.12"/>
<path d="M180.084 72.1016L175.49 57.4762L183.904 54.8329L184.42 56.4758L177.789 58.5589L179.211 63.0868L185.141 61.2239L185.651 62.8467L179.721 64.7096L181.351 69.8986L187.982 67.8154L188.499 69.4583L180.084 72.1016ZM202.372 65.8724C201.389 66.094 200.505 66.1209 199.721 65.9532C198.951 65.7824 198.305 65.4328 197.784 64.9043C197.263 64.3759 196.9 63.6899 196.696 62.8462L198.54 62.4307C198.709 63.1819 199.096 63.719 199.699 64.0422C200.317 64.3623 201.083 64.4192 201.998 64.213C202.859 64.0191 203.48 63.6566 203.863 63.1255C204.259 62.5913 204.372 61.9486 204.203 61.1975C204.068 60.5965 203.785 60.1077 203.356 59.7308C202.94 59.3509 202.412 59.1399 201.771 59.0978L199.6 58.9198C198.505 58.8365 197.594 58.4892 196.868 57.8778C196.155 57.2635 195.687 56.4578 195.462 55.4608C195.281 54.655 195.301 53.9184 195.524 53.2511C195.757 52.5671 196.165 51.9873 196.746 51.5118C197.325 51.0226 198.058 50.678 198.946 50.478C200.257 50.1825 201.392 50.3143 202.35 50.8733C203.305 51.4186 203.927 52.2975 204.214 53.5099L202.371 53.9254C202.204 53.1879 201.85 52.6651 201.307 52.3569C200.774 52.032 200.105 51.9604 199.299 52.142C198.507 52.3205 197.929 52.6517 197.564 53.1357C197.214 53.6166 197.115 54.1985 197.269 54.8814C197.408 55.496 197.691 55.9917 198.121 56.3685C198.55 56.7453 199.094 56.9601 199.751 57.0128L201.948 57.2067C203.015 57.2961 203.907 57.6549 204.623 58.2829C205.338 58.911 205.81 59.7303 206.038 60.741C206.222 61.5604 206.193 62.3206 205.949 63.0213C205.705 63.7221 205.273 64.3217 204.654 64.8201C204.048 65.3154 203.287 65.6662 202.372 65.8724ZM219.823 62.1581L217.887 48.6674L213.729 49.2641L213.485 47.5596L223.67 46.0975L223.915 47.8021L219.758 48.3988L221.694 61.8895L219.823 62.1581ZM239.518 60.0234C238.987 60.059 238.55 59.9339 238.209 59.6481C237.881 59.3614 237.699 58.9597 237.665 58.4428C237.628 57.8981 237.753 57.4547 238.039 57.1128C238.338 56.77 238.754 56.5808 239.284 56.5452C239.815 56.5096 240.245 56.6421 240.574 56.9428C240.917 57.2425 241.106 57.6648 241.143 58.2096C241.178 58.7264 241.045 59.1492 240.744 59.4781C240.457 59.806 240.048 59.9878 239.518 60.0234ZM272.875 59.257L273.031 57.3313L278.1 52.7488C278.965 51.962 279.605 51.2554 280.021 50.629C280.438 49.9886 280.671 49.3614 280.721 48.7474C280.79 47.8962 280.607 47.2072 280.172 46.6803C279.751 46.1546 279.136 45.859 278.327 45.7934C277.434 45.721 276.709 45.9151 276.152 46.3756C275.609 46.8373 275.301 47.5076 275.23 48.3868L273.346 48.2341C273.449 47.3154 273.723 46.537 274.168 45.8988C274.628 45.2478 275.221 44.7692 275.949 44.4629C276.69 44.1578 277.528 44.0431 278.463 44.1189C279.383 44.1935 280.164 44.4393 280.805 44.8564C281.46 45.2607 281.943 45.8054 282.252 46.4907C282.562 47.1759 282.68 47.9721 282.607 48.8791C282.536 49.7443 282.237 50.5838 281.707 51.3977C281.178 52.2116 280.346 53.1204 279.211 54.124L275.128 57.7119L282.098 58.2767L281.959 59.9931L272.875 59.257ZM295.964 61.8183C295.037 61.6717 294.257 61.3639 293.622 60.895C293.004 60.4145 292.561 59.8128 292.292 59.09C292.026 58.3533 291.964 57.5356 292.106 56.6368L293.156 49.9993C293.301 49.0867 293.612 48.328 294.091 47.7233C294.569 47.1187 295.175 46.6902 295.91 46.4378C296.66 46.1739 297.499 46.1152 298.425 46.2617C299.365 46.4105 300.145 46.7252 300.763 47.2057C301.384 47.6724 301.829 48.2672 302.097 48.99C302.365 49.7128 302.427 50.5306 302.283 51.4432L301.233 58.0807C301.091 58.9795 300.779 59.7382 300.299 60.3567C299.82 60.9613 299.206 61.3957 298.455 61.6596C297.721 61.912 296.89 61.9648 295.964 61.8183ZM296.217 60.2211C297.046 60.3524 297.752 60.1947 298.333 59.748C298.93 59.2896 299.295 58.6387 299.428 57.7952L300.478 51.1577C300.612 50.3142 300.464 49.5893 300.036 48.9828C299.623 48.3648 299.002 47.9901 298.172 47.8589C297.343 47.7276 296.629 47.8912 296.033 48.3495C295.452 48.7962 295.094 49.4413 294.961 50.2848L293.911 56.9223C293.777 57.7658 293.917 58.4966 294.329 59.1146C294.758 59.721 295.387 60.0899 296.217 60.2211ZM297.001 55.2638C296.628 55.2047 296.342 55.039 296.144 54.7668C295.96 54.4967 295.899 54.1681 295.96 53.7809C296.019 53.4075 296.177 53.1277 296.433 52.9415C296.705 52.7436 297.028 52.6742 297.401 52.7333C297.775 52.7923 298.053 52.9569 298.237 53.227C298.437 53.4854 298.508 53.8013 298.449 54.1747C298.388 54.5619 298.221 54.8544 297.949 55.0523C297.69 55.2523 297.374 55.3228 297.001 55.2638ZM310.266 64.0212L310.67 62.3473L314.712 63.323L317.536 51.626L312.765 53.6715L313.257 51.6302L317.232 49.9324L319.743 50.5385L316.549 63.7665L319.856 64.5649L319.452 66.2388L310.266 64.0212ZM332.692 70.0945C331.504 69.7193 330.626 69.1044 330.059 68.25C329.492 67.3956 329.307 66.4266 329.502 65.3432L331.304 65.9123C331.19 66.5075 331.295 67.0327 331.621 67.488C331.952 67.93 332.484 68.2669 333.218 68.4988C334.059 68.7644 334.758 68.7356 335.315 68.4124C335.886 68.0935 336.302 67.5201 336.563 66.6924L337.012 65.2706C337.274 64.4429 337.263 63.7347 336.979 63.1458C336.708 62.5612 336.159 62.1382 335.331 61.8768C334.811 61.7124 334.313 61.7092 333.837 61.8673C333.365 62.012 332.971 62.284 332.654 62.683L330.852 62.1139L333.507 54.0554L341.197 56.4839L340.678 58.1259L334.731 56.2476L333.134 61.0947L333.695 61.2718L332.97 61.6154C333.168 60.9879 333.571 60.572 334.178 60.3675C334.8 60.1673 335.531 60.2 336.372 60.4656C337.564 60.8275 338.369 61.4855 338.787 62.4397C339.223 63.3848 339.232 64.5181 338.815 65.8398L338.366 67.2616C337.957 68.5565 337.252 69.4643 336.25 69.985C335.253 70.4922 334.067 70.5288 332.692 70.0945Z" fill="#FF9E9E"/>
<path d="M220.255 180.636C217.575 179.974 215.808 177.42 216.132 174.679L216.962 167.649C217.194 165.689 216.275 163.809 214.882 162.409C214.86 162.386 214.837 162.364 214.815 162.341C213.47 160.982 211.585 160.248 209.696 160.543L202.518 161.662C199.799 162.086 197.188 160.426 196.418 157.785L191.919 142.344C191.145 139.687 192.475 136.87 195.019 135.78L203.041 132.343C203.941 131.958 204.531 131.105 204.766 130.154L205.525 127.083C205.76 126.132 205.635 125.103 205.018 124.342L199.52 117.564C197.777 115.415 197.912 112.303 199.834 110.312L211.008 98.7441C212.92 96.765 216.003 96.5123 218.211 98.1538L224.042 102.488C225.577 103.629 227.586 103.853 229.418 103.308C229.465 103.294 229.511 103.28 229.558 103.267C231.428 102.719 233.063 101.454 233.762 99.635L236.321 92.9766C237.311 90.4 240.065 88.9637 242.744 89.6258L258.449 93.5066C261.129 94.1688 262.896 96.7223 262.572 99.4635L261.742 106.493C261.51 108.454 262.429 110.334 263.821 111.734C263.844 111.756 263.867 111.779 263.889 111.802C265.234 113.16 267.118 113.894 269.007 113.599L276.186 112.48C278.905 112.056 281.516 113.716 282.285 116.358L286.785 131.799C287.559 134.456 286.229 137.272 283.685 138.362L275.663 141.799C274.763 142.185 274.173 143.037 273.938 143.988L273.179 147.06C272.947 147.999 272.973 149.035 273.582 149.785L279.069 156.55C280.813 158.699 280.678 161.811 278.755 163.802L267.592 175.36C265.676 177.343 262.584 177.592 260.375 175.94L254.665 171.668C253.129 170.52 251.113 170.291 249.275 170.838C249.232 170.851 249.189 170.863 249.146 170.876C247.276 171.424 245.641 172.688 244.941 174.507L242.383 181.166C241.393 183.742 238.639 185.179 235.959 184.517L220.255 180.636ZM226.353 167.72C226.034 170.363 227.736 172.828 230.32 173.466C232.886 174.1 235.524 172.736 236.489 170.275L238.03 166.348C238.845 164.27 240.851 162.951 243.06 162.629C244.264 162.453 245.442 162.196 246.596 161.856C247.739 161.52 248.854 161.114 249.942 160.636C251.966 159.747 254.34 159.81 256.121 161.119L259.624 163.695C261.736 165.249 264.673 164.995 266.486 163.101C268.308 161.2 268.429 158.24 266.768 156.197L263.941 152.719C262.606 151.075 262.556 148.771 263.323 146.797C263.766 145.659 264.137 144.483 264.437 143.27C264.737 142.057 264.956 140.843 265.094 139.63C265.335 137.526 266.452 135.51 268.399 134.678L272.539 132.909C274.95 131.879 276.216 129.215 275.493 126.695C274.768 124.169 272.273 122.582 269.678 122.996L265.48 123.665C263.237 124.023 261.05 122.921 259.653 121.129C258.928 120.2 258.146 119.328 257.307 118.513C256.453 117.684 255.539 116.914 254.567 116.204C252.749 114.877 251.588 112.75 251.858 110.515L252.351 106.422C252.669 103.78 250.967 101.315 248.384 100.676C245.818 100.042 243.18 101.407 242.214 103.867L240.674 107.794C239.858 109.872 237.853 111.192 235.644 111.514C234.44 111.689 233.261 111.947 232.108 112.286C230.965 112.622 229.85 113.029 228.761 113.507C226.738 114.395 224.364 114.333 222.583 113.023L219.066 110.437C216.962 108.889 214.036 109.143 212.229 111.029C210.405 112.933 210.295 115.902 211.973 117.937L214.735 121.284C216.108 122.947 216.185 125.281 215.395 127.288C214.961 128.388 214.586 129.583 214.267 130.872C213.967 132.086 213.753 133.28 213.624 134.455C213.388 136.603 212.24 138.638 210.253 139.486L206.164 141.234C203.754 142.264 202.488 144.928 203.211 147.447C203.935 149.973 206.431 151.561 209.026 151.147L213.224 150.477C215.467 150.119 217.654 151.222 219.051 153.013C219.775 153.943 220.558 154.815 221.397 155.629C222.251 156.458 223.164 157.228 224.137 157.938C225.955 159.265 227.116 161.393 226.846 163.627L226.353 167.72ZM235.644 153.054C240.053 154.144 244.2 153.519 248.085 151.179C251.97 148.84 254.456 145.471 255.543 141.072C256.63 136.673 256 132.534 253.651 128.655C251.303 124.775 247.925 122.29 243.516 121.201C239.031 120.093 234.865 120.713 231.018 123.062C227.171 125.41 224.704 128.784 223.617 133.183C222.53 137.582 223.141 141.716 225.452 145.587C227.762 149.457 231.159 151.946 235.644 153.054Z" fill="#FF9E9E"/>
<path d="M216.343 175.029L262.059 158.234C264.143 157.469 265.525 155.523 265.864 153.329C266.007 152.407 266.186 151.497 266.403 150.599C266.9 148.536 267.635 146.442 268.607 144.318C272.835 135.081 279.661 128.709 289.086 125.202C298.512 121.696 307.843 122.056 317.08 126.284C320.405 127.806 323.358 129.715 325.937 132.013C326.774 132.759 327.577 133.536 328.344 134.344C330.798 136.928 329.486 140.982 326.147 142.224L308.377 148.835C305.515 149.9 304.058 153.084 305.123 155.946L306.677 160.123C307.742 162.985 310.925 164.442 313.788 163.377L331.558 156.766C334.897 155.524 338.539 157.734 338.37 161.293C338.318 162.407 338.219 163.519 338.072 164.631C337.623 168.056 336.636 171.431 335.114 174.756C330.887 183.994 324.06 190.365 314.635 193.872C305.21 197.379 295.878 197.018 286.641 192.791C284.517 191.818 282.592 190.714 280.868 189.478C280.117 188.94 279.386 188.368 278.676 187.764C276.985 186.325 274.667 185.756 272.59 186.538L227.013 203.709C225.398 204.31 223.805 204.251 222.234 203.532C220.664 202.814 219.578 201.647 218.977 200.031L212.665 183.065C212.064 181.449 212.123 179.856 212.841 178.286C213.56 176.716 214.727 175.63 216.343 175.029Z" fill="#F87272"/>
<path d="M171.742 259.453C169.67 259.453 167.892 259.117 166.408 258.445C164.924 257.745 163.776 256.765 162.964 255.505C162.152 254.217 161.746 252.691 161.746 250.927H166.24C166.24 252.327 166.73 253.433 167.71 254.245C168.69 255.029 170.048 255.421 171.784 255.421C173.408 255.421 174.682 255.029 175.606 254.245C176.53 253.461 176.992 252.383 176.992 251.011C176.992 249.863 176.67 248.869 176.026 248.029C175.41 247.189 174.514 246.615 173.338 246.307L169.474 245.173C167.234 244.529 165.498 243.437 164.266 241.897C163.062 240.329 162.46 238.467 162.46 236.311C162.46 234.631 162.838 233.161 163.594 231.901C164.35 230.641 165.428 229.661 166.828 228.961C168.228 228.261 169.88 227.911 171.784 227.911C174.584 227.911 176.824 228.667 178.504 230.179C180.212 231.691 181.08 233.721 181.108 236.269H176.572C176.572 234.925 176.138 233.875 175.27 233.119C174.43 232.335 173.24 231.943 171.7 231.943C170.216 231.943 169.054 232.307 168.214 233.035C167.374 233.735 166.954 234.729 166.954 236.017C166.954 237.165 167.262 238.159 167.878 238.999C168.522 239.839 169.432 240.427 170.608 240.763L174.514 241.939C176.754 242.555 178.476 243.647 179.68 245.215C180.884 246.783 181.486 248.659 181.486 250.843C181.486 252.551 181.08 254.063 180.268 255.379C179.456 256.667 178.322 257.675 176.866 258.403C175.41 259.103 173.702 259.453 171.742 259.453ZM196.799 259.453C194.895 259.453 193.243 259.103 191.843 258.403C190.471 257.675 189.407 256.639 188.651 255.295C187.923 253.923 187.559 252.327 187.559 250.507V236.899C187.559 235.051 187.923 233.455 188.651 232.111C189.407 230.767 190.471 229.745 191.843 229.045C193.243 228.317 194.895 227.953 196.799 227.953C198.703 227.953 200.341 228.317 201.713 229.045C203.113 229.745 204.177 230.767 204.905 232.111C205.661 233.455 206.039 235.037 206.039 236.857V250.507C206.039 252.327 205.661 253.923 204.905 255.295C204.177 256.639 203.113 257.675 201.713 258.403C200.341 259.103 198.703 259.453 196.799 259.453ZM196.799 255.421C198.339 255.421 199.501 255.001 200.285 254.161C201.097 253.293 201.503 252.075 201.503 250.507V236.899C201.503 235.303 201.097 234.085 200.285 233.245C199.501 232.405 198.339 231.985 196.799 231.985C195.287 231.985 194.125 232.405 193.313 233.245C192.501 234.085 192.095 235.303 192.095 236.899V250.507C192.095 252.075 192.501 253.293 193.313 254.161C194.125 255.001 195.287 255.421 196.799 255.421ZM213.079 259.033V228.331H231.601V232.531H217.489V241.687H230.509V245.887H217.573V259.033H213.079ZM244.898 259.033V232.531H236.708V228.331H257.624V232.531H249.434V259.033H244.898ZM263.95 259.033L260.632 228.373H264.706L266.764 250.381C266.82 250.941 266.862 251.557 266.89 252.229C266.946 252.901 266.988 253.559 267.016 254.203C267.072 254.847 267.1 255.407 267.1 255.883C267.156 255.407 267.212 254.847 267.268 254.203C267.324 253.559 267.38 252.901 267.436 252.229C267.52 251.557 267.604 250.941 267.688 250.381L270.334 228.373H274.534L277.012 250.381C277.068 250.941 277.124 251.557 277.18 252.229C277.264 252.901 277.348 253.559 277.432 254.203C277.516 254.847 277.572 255.407 277.6 255.883C277.628 255.407 277.656 254.847 277.684 254.203C277.74 253.559 277.796 252.901 277.852 252.229C277.908 251.557 277.964 250.941 278.02 250.381L280.12 228.373H284.068L280.624 259.033H275.374L272.896 236.731C272.84 236.143 272.784 235.527 272.728 234.883C272.672 234.211 272.616 233.567 272.56 232.951C272.504 232.307 272.448 231.775 272.392 231.355C272.364 231.775 272.322 232.307 272.266 232.951C272.21 233.567 272.154 234.211 272.098 234.883C272.042 235.527 271.972 236.143 271.888 236.731L269.242 259.033H263.95ZM286.74 259.033L294.552 228.373H300.516L308.328 259.033H303.75L301.902 251.263H293.208L291.36 259.033H286.74ZM294.048 247.525H301.02L298.92 238.663C298.556 237.095 298.248 235.737 297.996 234.589C297.772 233.413 297.618 232.615 297.534 232.195C297.45 232.615 297.296 233.413 297.072 234.589C296.848 235.737 296.54 237.081 296.148 238.621L294.048 247.525ZM313.645 259.033V228.373H323.263C325.195 228.373 326.875 228.751 328.303 229.507C329.731 230.235 330.837 231.271 331.621 232.615C332.433 233.959 332.839 235.541 332.839 237.361C332.839 239.405 332.307 241.183 331.243 242.695C330.207 244.179 328.793 245.229 327.001 245.845L333.259 259.033H328.093L322.507 246.433H318.181V259.033H313.645ZM318.181 242.443H323.263C324.775 242.443 325.979 241.995 326.875 241.099C327.771 240.175 328.219 238.957 328.219 237.445C328.219 235.877 327.771 234.645 326.875 233.749C325.979 232.853 324.775 232.405 323.263 232.405H318.181V242.443ZM339.249 259.033V228.373H357.267V232.405H343.701V241.099H355.797V245.089H343.701V255.001H357.267V259.033H339.249ZM213.331 301.033V270.373H231.349V274.405H217.783V283.099H229.879V287.089H217.783V297.001H231.349V301.033H213.331ZM237.968 301.033V270.373H243.68L252.626 295.867C252.57 295.055 252.5 294.089 252.416 292.969C252.332 291.849 252.262 290.687 252.206 289.483C252.178 288.279 252.164 287.187 252.164 286.207V270.373H256.364V301.033H250.652L241.748 275.539C241.804 276.267 241.86 277.177 241.916 278.269C242 279.361 242.056 280.495 242.084 281.671C242.14 282.847 242.168 283.939 242.168 284.947V301.033H237.968ZM272.518 301.453C270.614 301.453 268.948 301.103 267.52 300.403C266.12 299.675 265.028 298.639 264.244 297.295C263.488 295.923 263.11 294.327 263.11 292.507V278.899C263.11 277.051 263.488 275.455 264.244 274.111C265.028 272.767 266.12 271.745 267.52 271.045C268.948 270.317 270.614 269.953 272.518 269.953C274.422 269.953 276.074 270.317 277.474 271.045C278.874 271.773 279.952 272.809 280.708 274.153C281.492 275.469 281.884 277.051 281.884 278.899H277.348C277.348 277.303 276.928 276.085 276.088 275.245C275.248 274.405 274.058 273.985 272.518 273.985C270.978 273.985 269.774 274.405 268.906 275.245C268.066 276.085 267.646 277.289 267.646 278.857V292.507C267.646 294.075 268.066 295.293 268.906 296.161C269.774 297.029 270.978 297.463 272.518 297.463C274.058 297.463 275.248 297.029 276.088 296.161C276.928 295.293 277.348 294.075 277.348 292.507V289.063H271.636V285.073H281.884V292.507C281.884 294.327 281.492 295.909 280.708 297.253C279.952 298.597 278.874 299.633 277.474 300.361C276.074 301.089 274.422 301.453 272.518 301.453ZM297.534 301.453C296.414 301.453 295.518 301.131 294.846 300.487C294.174 299.815 293.838 298.919 293.838 297.799C293.838 296.651 294.174 295.741 294.846 295.069C295.518 294.369 296.414 294.019 297.534 294.019C298.682 294.019 299.578 294.369 300.222 295.069C300.894 295.741 301.23 296.651 301.23 297.799C301.23 298.919 300.894 299.815 300.222 300.487C299.578 301.131 298.682 301.453 297.534 301.453Z" fill="white"/>
<g opacity="0.5">
<g opacity="0.7" filter="url(#filter1_f_989_7494)">
<rect x="196" y="366.123" width="413.079" height="40.8916" transform="rotate(-45.9959 196 366.123)" fill="url(#paint0_linear_989_7494)" fill-opacity="0.2"/>
</g>
<g filter="url(#filter2_f_989_7494)">
<rect x="225.413" y="394.531" width="413.079" height="61.3123" transform="rotate(-45.9959 225.413 394.531)" fill="url(#paint1_linear_989_7494)" fill-opacity="0.4"/>
</g>
</g>
<g opacity="0.5">
<g opacity="0.7" filter="url(#filter3_f_989_7494)">
<rect x="-27.5" y="246.123" width="413.079" height="61.3123" transform="rotate(-45.9959 -27.5 246.123)" fill="url(#paint2_linear_989_7494)" fill-opacity="0.2"/>
</g>
<g opacity="0.5" filter="url(#filter4_f_989_7494)">
<rect x="16.6011" y="288.718" width="413.079" height="61.3123" transform="rotate(-45.9959 16.6011 288.718)" fill="url(#paint3_linear_989_7494)" fill-opacity="0.4"/>
</g>
</g>
</g>
</g>
<defs>
<filter id="filter0_d_989_7494" x="0.0999999" y="0.6" width="526.5" height="378" filterUnits="userSpaceOnUse" color-interpolation-filters="sRGB">
<feFlood flood-opacity="0" result="BackgroundImageFix"/>
<feColorMatrix in="SourceAlpha" type="matrix" values="0 0 0 0 0 0 0 0 0 0 0 0 0 0 0 0 0 0 127 0" result="hardAlpha"/>
<feOffset dx="3.6" dy="3.6"/>
<feGaussianBlur stdDeviation="4.5"/>
<feComposite in2="hardAlpha" operator="out"/>
<feColorMatrix type="matrix" values="0 0 0 0 0 0 0 0 0 0 0 0 0 0 0 0 0 0 0.1 0"/>
<feBlend mode="normal" in2="BackgroundImageFix" result="effect1_dropShadow_989_7494"/>
<feBlend mode="normal" in="SourceGraphic" in2="effect1_dropShadow_989_7494" result="shape"/>
</filter>
<filter id="filter1_f_989_7494" x="181" y="54.0001" width="346.383" height="355.531" filterUnits="userSpaceOnUse" color-interpolation-filters="sRGB">
<feFlood flood-opacity="0" result="BackgroundImageFix"/>
<feBlend mode="normal" in="SourceGraphic" in2="BackgroundImageFix" result="shape"/>
<feGaussianBlur stdDeviation="7.5" result="effect1_foregroundBlur_989_7494"/>
</filter>
<filter id="filter2_f_989_7494" x="210.413" y="82.4078" width="361.071" height="369.718" filterUnits="userSpaceOnUse" color-interpolation-filters="sRGB">
<feFlood flood-opacity="0" result="BackgroundImageFix"/>
<feBlend mode="normal" in="SourceGraphic" in2="BackgroundImageFix" result="shape"/>
<feGaussianBlur stdDeviation="7.5" result="effect1_foregroundBlur_989_7494"/>
</filter>
<filter id="filter3_f_989_7494" x="-42.5" y="-65.9999" width="361.071" height="369.718" filterUnits="userSpaceOnUse" color-interpolation-filters="sRGB">
<feFlood flood-opacity="0" result="BackgroundImageFix"/>
<feBlend mode="normal" in="SourceGraphic" in2="BackgroundImageFix" result="shape"/>
<feGaussianBlur stdDeviation="7.5" result="effect1_foregroundBlur_989_7494"/>
</filter>
<filter id="filter4_f_989_7494" x="1.60107" y="-23.4057" width="361.071" height="369.718" filterUnits="userSpaceOnUse" color-interpolation-filters="sRGB">
<feFlood flood-opacity="0" result="BackgroundImageFix"/>
<feBlend mode="normal" in="SourceGraphic" in2="BackgroundImageFix" result="shape"/>
<feGaussianBlur stdDeviation="7.5" result="effect1_foregroundBlur_989_7494"/>
</filter>
<linearGradient id="paint0_linear_989_7494" x1="402.539" y1="366.123" x2="402.539" y2="407.015" gradientUnits="userSpaceOnUse">
<stop stop-color="white" stop-opacity="0"/>
<stop offset="1" stop-color="white"/>
</linearGradient>
<linearGradient id="paint1_linear_989_7494" x1="431.952" y1="394.531" x2="431.952" y2="455.843" gradientUnits="userSpaceOnUse">
<stop/>
<stop offset="1" stop-opacity="0"/>
</linearGradient>
<linearGradient id="paint2_linear_989_7494" x1="179.039" y1="246.123" x2="179.039" y2="307.436" gradientUnits="userSpaceOnUse">
<stop stop-color="white" stop-opacity="0"/>
<stop offset="1" stop-color="white"/>
</linearGradient>
<linearGradient id="paint3_linear_989_7494" x1="223.14" y1="288.718" x2="223.14" y2="350.03" gradientUnits="userSpaceOnUse">
<stop/>
<stop offset="1" stop-opacity="0"/>
</linearGradient>
</defs>
</svg>
