<svg width="497" height="497" viewBox="0 0 497 497" fill="none" xmlns="http://www.w3.org/2000/svg">
<g filter="url(#filter0_d_486_5795)">
<path fill-rule="evenodd" clip-rule="evenodd" d="M379.906 6H339.094C333.424 19.5108 320.07 29 304.5 29C288.93 29 275.576 19.5108 269.906 6H229.094C223.424 19.5108 210.07 29 194.5 29C178.93 29 165.576 19.5108 159.906 6H119.094C113.424 19.5108 100.07 29 84.5 29C68.9298 29 55.576 19.5108 49.9062 6H10V46.3432C22.9767 52.2412 32 65.3169 32 80.5C32 95.6831 22.9767 108.759 10 114.657V156.343C22.9767 162.241 32 175.317 32 190.5C32 205.683 22.9767 218.759 10 224.657V266.343C22.9767 272.241 32 285.317 32 300.5C32 315.683 22.9767 328.759 10 334.657V376.343C22.9767 382.241 32 395.317 32 410.5C32 425.683 22.9767 438.759 10 444.657V483H46.7962C51.6513 467.915 65.801 457 82.5 457C99.1991 457 113.349 467.915 118.204 483H156.796C161.651 467.915 175.801 457 192.5 457C209.199 457 223.349 467.915 228.204 483H266.796C271.651 467.915 285.801 457 302.5 457C319.199 457 333.349 467.915 338.204 483H376.796C381.651 467.915 395.801 457 412.5 457C429.199 457 443.349 467.915 448.204 483H487V441.675C475.105 435.387 467 422.89 467 408.5C467 394.11 475.105 381.613 487 375.325V331.675C475.105 325.387 467 312.89 467 298.5C467 284.11 475.105 271.613 487 265.325V221.675C475.105 215.387 467 202.89 467 188.5C467 174.11 475.105 161.613 487 155.325V111.675C475.105 105.387 467 92.8902 467 78.5C467 64.1098 475.105 51.6127 487 45.3252V6H449.094C443.424 19.5108 430.07 29 414.5 29C398.93 29 385.576 19.5108 379.906 6Z" fill="#F49A9A"/>
</g>
<rect x="62" y="46" width="385" height="385" rx="10" fill="#F7A5A5"/>
<path d="M157.553 322.864C156.005 322.864 154.493 322.666 153.017 322.27C151.541 321.874 150.389 321.37 149.561 320.758L149.669 322.378H145.565L145.349 313.09H148.859C148.967 314.17 149.399 315.16 150.155 316.06C150.911 316.96 151.901 317.68 153.125 318.22C154.349 318.724 155.717 318.976 157.229 318.976C157.841 318.976 158.417 318.886 158.957 318.706C159.533 318.526 160.001 318.238 160.361 317.842C160.757 317.41 160.955 316.888 160.955 316.276C160.955 315.592 160.703 315.034 160.199 314.602C159.731 314.17 159.029 313.756 158.093 313.36C157.193 312.964 156.059 312.514 154.691 312.01C153.575 311.578 152.441 311.128 151.289 310.66C150.173 310.192 149.129 309.634 148.157 308.986C147.221 308.302 146.465 307.474 145.889 306.502C145.313 305.494 145.025 304.27 145.025 302.83C145.025 301.786 145.223 300.76 145.619 299.752C146.015 298.708 146.627 297.772 147.455 296.944C148.283 296.08 149.327 295.396 150.587 294.892C151.883 294.388 153.413 294.136 155.177 294.136C156.149 294.136 157.247 294.298 158.471 294.622C159.731 294.91 160.793 295.36 161.657 295.972V294.406H165.761V303.964H162.251C162.035 302.704 161.585 301.624 160.901 300.724C160.253 299.824 159.407 299.14 158.363 298.672C157.319 298.168 156.149 297.916 154.853 297.916C153.953 297.916 153.125 298.132 152.369 298.564C151.649 298.996 151.289 299.734 151.289 300.778C151.289 301.606 151.577 302.272 152.153 302.776C152.729 303.244 153.521 303.64 154.529 303.964C155.537 304.288 156.653 304.666 157.877 305.098C159.713 305.71 161.333 306.43 162.737 307.258C164.177 308.086 165.311 309.094 166.139 310.282C166.967 311.434 167.381 312.856 167.381 314.548C167.381 316.42 166.913 317.968 165.977 319.192C165.041 320.416 163.817 321.334 162.305 321.946C160.829 322.558 159.245 322.864 157.553 322.864ZM189.972 322.864C187.38 322.864 185.04 322.306 182.952 321.19C180.864 320.074 179.208 318.49 177.984 316.438C176.796 314.35 176.202 311.902 176.202 309.094C176.202 306.106 176.814 303.496 178.038 301.264C179.298 298.996 180.954 297.25 183.006 296.026C185.094 294.766 187.362 294.136 189.81 294.136C192.402 294.136 194.724 294.694 196.776 295.81C198.828 296.926 200.448 298.528 201.636 300.616C202.824 302.668 203.418 305.134 203.418 308.014C203.418 311.038 202.842 313.666 201.69 315.898C200.538 318.13 198.954 319.858 196.938 321.082C194.922 322.27 192.6 322.864 189.972 322.864ZM190.188 319.03C191.628 318.994 192.708 318.49 193.428 317.518C194.184 316.546 194.706 315.322 194.994 313.846C195.282 312.37 195.426 310.876 195.426 309.364C195.426 308.032 195.318 306.682 195.102 305.314C194.922 303.946 194.616 302.704 194.184 301.588C193.752 300.472 193.158 299.572 192.402 298.888C191.682 298.204 190.782 297.88 189.702 297.916C188.298 297.952 187.182 298.456 186.354 299.428C185.562 300.4 184.986 301.624 184.626 303.1C184.302 304.54 184.14 306.052 184.14 307.636C184.14 309.472 184.338 311.272 184.734 313.036C185.13 314.8 185.76 316.258 186.624 317.41C187.524 318.526 188.712 319.066 190.188 319.03ZM215.865 293.434C215.865 289.078 216.819 285.964 218.727 284.092C220.635 282.184 223.209 281.23 226.449 281.23C228.141 281.23 229.491 281.482 230.499 281.986C231.507 282.454 232.227 283.048 232.659 283.768C233.091 284.488 233.307 285.226 233.307 285.982C233.307 286.918 233.019 287.746 232.443 288.466C231.867 289.186 231.039 289.564 229.959 289.6C228.915 289.636 228.105 289.366 227.529 288.79C226.953 288.178 226.665 287.422 226.665 286.522C226.665 286.342 226.665 286.162 226.665 285.982C226.701 285.802 226.737 285.622 226.773 285.442C226.593 285.262 226.377 285.154 226.125 285.118C225.909 285.046 225.711 285.01 225.531 285.01C224.955 285.01 224.505 285.19 224.181 285.55C223.857 285.874 223.641 286.288 223.533 286.792C223.425 287.296 223.371 287.818 223.371 288.358V295H229.419V299.158L223.425 299.32L223.479 313.198C223.479 313.702 223.461 314.44 223.425 315.412C223.389 316.348 223.335 317.23 223.263 318.058C223.875 317.986 224.559 317.95 225.315 317.95C226.107 317.914 226.683 317.896 227.043 317.896V322H212.625V318.49C213.633 318.49 214.353 318.292 214.785 317.896C215.253 317.5 215.541 316.942 215.649 316.222C215.793 315.466 215.865 314.62 215.865 313.684V299.428L211.923 299.482V295H215.865V293.434ZM248.542 322.864C247.462 322.864 246.418 322.738 245.41 322.486C244.438 322.234 243.538 321.766 242.71 321.082C241.918 320.362 241.288 319.318 240.82 317.95C240.352 316.582 240.118 314.764 240.118 312.496L240.226 299.482H236.554V295C237.67 294.964 238.75 294.586 239.794 293.866C240.838 293.146 241.72 292.21 242.44 291.058C243.196 289.906 243.7 288.7 243.952 287.44H247.948L247.894 295H254.752V299.158L247.894 299.32L247.84 312.604C247.84 313.432 247.912 314.26 248.056 315.088C248.236 315.88 248.56 316.546 249.028 317.086C249.496 317.59 250.18 317.842 251.08 317.842C251.584 317.842 252.268 317.662 253.132 317.302C254.032 316.942 254.986 316.042 255.994 314.602L258.586 317.032C257.614 318.472 256.606 319.588 255.562 320.38C254.518 321.172 253.51 321.748 252.538 322.108C251.602 322.468 250.774 322.684 250.054 322.756C249.334 322.828 248.83 322.864 248.542 322.864ZM273.765 322.162L267.231 303.424C266.907 302.488 266.655 301.786 266.475 301.318C266.331 300.85 266.223 300.454 266.151 300.13C266.079 299.806 265.989 299.428 265.881 298.996L263.775 299.104V295H276.735V298.456C275.619 298.492 274.971 298.924 274.791 299.752C274.611 300.58 274.665 301.552 274.953 302.668L276.789 309.256C277.005 310.048 277.203 310.894 277.383 311.794C277.599 312.658 277.779 313.522 277.923 314.386C278.103 313.63 278.283 312.802 278.463 311.902C278.679 311.002 278.985 309.886 279.381 308.554L283.323 295H289.209L293.529 309.904C293.745 310.66 293.961 311.488 294.177 312.388C294.429 313.252 294.645 314.044 294.825 314.764C294.969 314.044 295.167 313.252 295.419 312.388C295.671 311.524 295.905 310.75 296.121 310.066L298.227 303.208C298.515 302.236 298.767 301.444 298.983 300.832C299.199 300.184 299.469 299.536 299.793 298.888L296.715 299.104V295H306.975V298.456C306.255 298.456 305.625 298.69 305.085 299.158C304.545 299.626 304.059 300.202 303.627 300.886C303.231 301.534 302.907 302.182 302.655 302.83C302.403 303.442 302.223 303.928 302.115 304.288L295.959 322.162H290.235L286.509 310.66C286.401 310.264 286.221 309.688 285.969 308.932C285.753 308.176 285.519 307.366 285.267 306.502C285.051 305.602 284.835 304.774 284.619 304.018C284.439 305.026 284.169 306.178 283.809 307.474C283.449 308.77 283.107 309.958 282.783 311.038C282.459 312.118 282.225 312.856 282.081 313.252L279.111 322.162H273.765ZM329.528 322C329.456 321.496 329.402 321.082 329.366 320.758C329.366 320.398 329.348 319.984 329.312 319.516C328.088 320.74 326.792 321.604 325.424 322.108C324.056 322.612 322.67 322.864 321.266 322.864C318.962 322.864 317.162 322.18 315.866 320.812C314.57 319.444 313.922 317.734 313.922 315.682C313.922 313.954 314.354 312.478 315.218 311.254C316.118 310.03 317.288 309.04 318.728 308.284C320.204 307.492 321.824 306.898 323.588 306.502C325.388 306.07 327.188 305.818 328.988 305.746V302.938C328.988 302.002 328.862 301.156 328.61 300.4C328.394 299.644 327.998 299.05 327.422 298.618C326.882 298.186 326.108 297.988 325.1 298.024C324.416 298.06 323.75 298.204 323.102 298.456C322.454 298.708 321.896 299.068 321.428 299.536C321.716 299.86 321.896 300.22 321.968 300.616C322.04 300.976 322.076 301.3 322.076 301.588C322.076 302.308 321.788 303.064 321.212 303.856C320.636 304.612 319.718 304.972 318.458 304.936C317.378 304.9 316.55 304.522 315.974 303.802C315.398 303.082 315.11 302.236 315.11 301.264C315.11 299.824 315.614 298.582 316.622 297.538C317.666 296.458 319.052 295.63 320.78 295.054C322.508 294.442 324.416 294.136 326.504 294.136C329.672 294.136 332.12 294.964 333.848 296.62C335.612 298.24 336.494 300.85 336.494 304.45C336.494 305.674 336.494 306.718 336.494 307.582C336.494 308.446 336.476 309.31 336.44 310.174C336.44 311.038 336.44 312.082 336.44 313.306C336.44 313.81 336.422 314.53 336.386 315.466C336.35 316.366 336.296 317.23 336.224 318.058C336.836 317.986 337.484 317.95 338.168 317.95C338.852 317.914 339.374 317.896 339.734 317.896V322H329.528ZM328.934 309.58C327.926 309.688 326.972 309.868 326.072 310.12C325.172 310.372 324.38 310.714 323.696 311.146C323.048 311.578 322.526 312.1 322.13 312.712C321.77 313.324 321.59 314.008 321.59 314.764C321.626 315.772 321.95 316.492 322.562 316.924C323.174 317.356 323.876 317.572 324.668 317.572C325.496 317.572 326.27 317.392 326.99 317.032C327.71 316.672 328.358 316.204 328.934 315.628C328.934 315.268 328.934 314.926 328.934 314.602C328.934 314.242 328.934 313.882 328.934 313.522C328.934 312.874 328.934 312.226 328.934 311.578C328.934 310.894 328.934 310.228 328.934 309.58ZM348.234 318.49C349.242 318.49 349.962 318.292 350.394 317.896C350.826 317.5 351.096 316.942 351.204 316.222C351.348 315.466 351.42 314.62 351.42 313.684V304.612C351.42 303.964 351.438 303.244 351.474 302.452C351.51 301.624 351.564 300.814 351.636 300.022C351.06 300.058 350.376 300.094 349.584 300.13C348.828 300.13 348.252 300.148 347.856 300.184V296.08H350.016C351.42 296.08 352.698 295.9 353.85 295.54C355.038 295.18 355.812 294.82 356.172 294.46H358.818C358.89 294.82 358.944 295.504 358.98 296.512C359.016 297.484 359.034 298.348 359.034 299.104C360.006 297.916 360.924 296.962 361.788 296.242C362.652 295.522 363.498 295 364.326 294.676C365.19 294.316 366.054 294.136 366.918 294.136C368.178 294.136 369.276 294.496 370.212 295.216C371.148 295.9 371.616 297.034 371.616 298.618C371.616 299.158 371.49 299.734 371.238 300.346C370.986 300.922 370.59 301.408 370.05 301.804C369.51 302.2 368.772 302.398 367.836 302.398C367.116 302.398 366.378 302.182 365.622 301.75C364.866 301.318 364.434 300.49 364.326 299.266C363.606 299.266 362.886 299.572 362.166 300.184C361.446 300.76 360.798 301.462 360.222 302.29C359.682 303.082 359.304 303.82 359.088 304.504V313.306C359.088 313.81 359.07 314.53 359.034 315.466C358.998 316.366 358.944 317.23 358.872 318.058C359.448 317.986 360.078 317.95 360.762 317.95C361.482 317.914 362.022 317.896 362.382 317.896V322H348.234V318.49ZM391.955 322.864C389.327 322.864 387.005 322.288 384.989 321.136C382.973 319.948 381.407 318.292 380.291 316.168C379.175 314.008 378.617 311.47 378.617 308.554C378.617 306.034 379.175 303.676 380.291 301.48C381.407 299.284 382.973 297.52 384.989 296.188C387.041 294.82 389.417 294.136 392.117 294.136C393.629 294.136 395.105 294.352 396.545 294.784C397.985 295.18 399.281 295.882 400.433 296.89C401.621 297.898 402.557 299.266 403.241 300.994C403.961 302.722 404.303 304.882 404.267 307.474L386.555 307.798C386.555 309.742 386.789 311.488 387.257 313.036C387.761 314.584 388.571 315.808 389.687 316.708C390.803 317.608 392.297 318.058 394.169 318.058C394.889 318.058 395.699 317.932 396.599 317.68C397.535 317.428 398.471 317.014 399.407 316.438C400.379 315.826 401.279 315.016 402.107 314.008L404.537 316.276C403.241 318.112 401.855 319.516 400.379 320.488C398.903 321.424 397.427 322.054 395.951 322.378C394.511 322.702 393.179 322.864 391.955 322.864ZM386.879 304.018H396.815C396.779 302.506 396.563 301.318 396.167 300.454C395.807 299.554 395.303 298.906 394.655 298.51C394.007 298.114 393.251 297.916 392.387 297.916C390.803 297.916 389.561 298.492 388.661 299.644C387.761 300.76 387.167 302.218 386.879 304.018ZM298.763 382.864C296.135 382.864 293.813 382.288 291.797 381.136C289.781 379.948 288.215 378.292 287.099 376.168C285.983 374.008 285.425 371.47 285.425 368.554C285.425 366.034 285.983 363.676 287.099 361.48C288.215 359.284 289.781 357.52 291.797 356.188C293.849 354.82 296.225 354.136 298.925 354.136C300.437 354.136 301.913 354.352 303.353 354.784C304.793 355.18 306.089 355.882 307.241 356.89C308.429 357.898 309.365 359.266 310.049 360.994C310.769 362.722 311.111 364.882 311.075 367.474L293.363 367.798C293.363 369.742 293.597 371.488 294.065 373.036C294.569 374.584 295.379 375.808 296.495 376.708C297.611 377.608 299.105 378.058 300.977 378.058C301.697 378.058 302.507 377.932 303.407 377.68C304.343 377.428 305.279 377.014 306.215 376.438C307.187 375.826 308.087 375.016 308.915 374.008L311.345 376.276C310.049 378.112 308.663 379.516 307.187 380.488C305.711 381.424 304.235 382.054 302.759 382.378C301.319 382.702 299.987 382.864 298.763 382.864ZM293.687 364.018H303.623C303.587 362.506 303.371 361.318 302.975 360.454C302.615 359.554 302.111 358.906 301.463 358.51C300.815 358.114 300.059 357.916 299.195 357.916C297.611 357.916 296.369 358.492 295.469 359.644C294.569 360.76 293.975 362.218 293.687 364.018ZM320.422 382V378.49C321.43 378.49 322.15 378.292 322.582 377.896C323.014 377.5 323.284 376.942 323.392 376.222C323.536 375.466 323.608 374.62 323.608 373.684V364.612C323.608 363.964 323.626 363.244 323.662 362.452C323.698 361.624 323.752 360.814 323.824 360.022C323.248 360.058 322.564 360.094 321.772 360.13C321.016 360.13 320.44 360.148 320.044 360.184V356.08C321.7 356.08 323.104 355.99 324.256 355.81C325.408 355.63 326.308 355.414 326.956 355.162C327.64 354.91 328.108 354.676 328.36 354.46H331.006C331.078 354.928 331.114 355.27 331.114 355.486C331.114 355.702 331.114 355.918 331.114 356.134C331.15 356.314 331.222 356.656 331.33 357.16C332.05 356.584 332.878 356.08 333.814 355.648C334.75 355.18 335.686 354.82 336.622 354.568C337.558 354.28 338.386 354.136 339.106 354.136C342.418 354.136 344.758 355.09 346.126 356.998C347.53 358.87 348.232 361.894 348.232 366.07V373.306C348.232 373.81 348.214 374.53 348.178 375.466C348.142 376.366 348.088 377.23 348.016 378.058C348.628 377.986 349.276 377.95 349.96 377.95C350.644 377.914 351.166 377.896 351.526 377.896V382H337.378V378.49C338.386 378.49 339.106 378.292 339.538 377.896C340.006 377.5 340.294 376.942 340.402 376.222C340.546 375.466 340.618 374.62 340.618 373.684L340.564 366.016C340.564 363.676 340.222 361.948 339.538 360.832C338.89 359.68 337.774 359.104 336.19 359.104C335.29 359.104 334.39 359.302 333.49 359.698C332.626 360.094 331.888 360.562 331.276 361.102C331.276 361.606 331.276 362.128 331.276 362.668C331.276 363.172 331.276 363.676 331.276 364.18V373.306C331.276 373.81 331.258 374.53 331.222 375.466C331.186 376.366 331.132 377.23 331.06 378.058C331.636 377.986 332.266 377.95 332.95 377.95C333.67 377.914 334.21 377.896 334.57 377.896V382H320.422ZM371.762 396.634C368.666 396.634 366.218 396.292 364.418 395.608C362.618 394.96 361.34 394.096 360.584 393.016C359.828 391.936 359.45 390.784 359.45 389.56C359.45 388.804 359.612 388.048 359.936 387.292C360.26 386.536 360.782 385.798 361.502 385.078C362.258 384.394 363.284 383.818 364.58 383.35C363.104 382.954 362.06 382.324 361.448 381.46C360.872 380.56 360.584 379.606 360.584 378.598C360.584 377.662 360.962 376.618 361.718 375.466C362.474 374.278 363.842 373.378 365.822 372.766C364.31 372.154 363.068 371.2 362.096 369.904C361.124 368.608 360.602 367.042 360.53 365.206C360.458 363.046 360.998 361.138 362.15 359.482C363.302 357.79 364.814 356.476 366.686 355.54C368.558 354.604 370.52 354.136 372.572 354.136C373.508 354.136 374.588 354.262 375.812 354.514C377.036 354.766 378.098 355.198 378.998 355.81C379.394 354.694 379.898 353.65 380.51 352.678C381.158 351.67 381.932 350.86 382.832 350.248C383.732 349.6 384.74 349.276 385.856 349.276C387.08 349.276 387.998 349.6 388.61 350.248C389.258 350.86 389.582 351.688 389.582 352.732C389.582 353.164 389.474 353.65 389.258 354.19C389.078 354.694 388.736 355.126 388.232 355.486C387.764 355.846 387.098 356.026 386.234 356.026C385.694 356.026 385.154 355.828 384.614 355.432C384.074 355 383.75 354.496 383.642 353.92C383.174 354.064 382.706 354.532 382.238 355.324C381.77 356.116 381.5 356.818 381.428 357.43C382.472 358.33 383.264 359.374 383.804 360.562C384.344 361.75 384.614 363.028 384.614 364.396C384.614 366.484 384.02 368.338 382.832 369.958C381.68 371.542 380.168 372.802 378.296 373.738C376.46 374.638 374.48 375.088 372.356 375.088C371.888 375.088 371.366 375.07 370.79 375.034C370.214 374.962 369.656 374.926 369.116 374.926C368.324 374.926 367.658 375.07 367.118 375.358C366.578 375.646 366.308 376.042 366.308 376.546C366.308 377.23 366.83 377.698 367.874 377.95C368.918 378.202 370.7 378.4 373.22 378.544C375.992 378.688 378.404 379.048 380.456 379.624C382.544 380.164 384.164 381.028 385.316 382.216C386.468 383.404 387.044 385.042 387.044 387.13C387.044 388.678 386.594 390.028 385.694 391.18C384.794 392.368 383.588 393.358 382.076 394.15C380.6 394.978 378.962 395.59 377.162 395.986C375.362 396.418 373.562 396.634 371.762 396.634ZM373.328 392.908C375.884 392.908 377.81 392.44 379.106 391.504C380.438 390.568 381.104 389.596 381.104 388.588C381.104 387.832 380.816 387.202 380.24 386.698C379.664 386.23 378.8 385.852 377.648 385.564C376.532 385.276 375.092 385.096 373.328 385.024C372.536 384.952 371.618 384.898 370.574 384.862C369.53 384.826 368.612 384.736 367.82 384.592C367.28 385.024 366.866 385.564 366.578 386.212C366.29 386.86 366.128 387.49 366.092 388.102C366.02 389.542 366.632 390.694 367.928 391.558C369.26 392.458 371.06 392.908 373.328 392.908ZM372.572 371.47C373.544 371.47 374.354 371.164 375.002 370.552C375.686 369.94 376.19 369.166 376.514 368.23C376.874 367.294 377.054 366.34 377.054 365.368C377.054 364.108 376.892 362.902 376.568 361.75C376.244 360.562 375.74 359.608 375.056 358.888C374.408 358.132 373.562 357.754 372.518 357.754C371.078 357.754 369.962 358.402 369.17 359.698C368.378 360.994 367.982 362.47 367.982 364.126C367.982 365.386 368.162 366.592 368.522 367.744C368.882 368.86 369.404 369.76 370.088 370.444C370.772 371.128 371.6 371.47 372.572 371.47ZM399.714 382.864C398.562 382.864 397.608 382.45 396.852 381.622C396.132 380.794 395.772 379.804 395.772 378.652C395.772 377.5 396.168 376.51 396.96 375.682C397.752 374.854 398.67 374.44 399.714 374.44C400.83 374.44 401.748 374.854 402.468 375.682C403.224 376.51 403.602 377.5 403.602 378.652C403.602 379.804 403.242 380.794 402.522 381.622C401.838 382.45 400.902 382.864 399.714 382.864Z" fill="#BC4040"/>
<path d="M227.238 213.47L229.83 191.532C228.523 190.621 227.327 189.619 226.241 188.528C225.155 187.436 224.111 186.296 223.108 185.108L201.225 188.52L190.701 152.403L211.069 143.677C211.149 142.874 211.279 142.112 211.457 141.392L212.566 136.903C212.744 136.182 212.984 135.448 213.287 134.7L199.329 117.491L225.463 90.4331L243.238 103.645C244.679 103.061 246.162 102.545 247.687 102.099C249.212 101.652 250.709 101.317 252.179 101.092L260.104 80.4709L296.762 89.5297L294.17 111.468C295.477 112.379 296.673 113.381 297.759 114.472C298.845 115.564 299.889 116.704 300.892 117.892L322.775 114.48L333.299 150.597L312.932 159.323C312.851 160.126 312.722 160.888 312.544 161.608L311.434 166.097C311.256 166.818 310.96 167.538 310.547 168.259L324.505 185.468L298.37 212.526L280.762 199.355C279.321 199.939 277.838 200.455 276.313 200.901C274.788 201.348 273.291 201.683 271.821 201.908L263.897 222.529L227.238 213.47ZM242.189 203.053L255.352 206.306L262.04 189.26C265.703 189.224 269.218 188.711 272.587 187.72C275.955 186.73 279.162 185.318 282.209 183.483L297.021 194.376L306.313 184.677L294.653 170.329C295.592 168.915 296.385 167.376 297.031 165.713C297.678 164.05 298.22 162.332 298.659 160.559C299.097 158.785 299.417 157.012 299.619 155.24C299.822 153.467 299.837 151.736 299.665 150.047L316.665 142.782L312.96 129.871L294.739 132.777C292.925 129.624 290.758 126.825 288.239 124.379C285.72 121.934 282.848 119.843 279.623 118.105L281.812 99.9473L268.648 96.6944L261.96 113.74C258.298 113.776 254.782 114.289 251.414 115.28C248.045 116.27 244.838 117.682 241.792 119.517L226.98 108.624L217.687 118.323L229.388 132.504C228.422 134.03 227.622 135.596 226.989 137.204C226.356 138.811 225.807 140.557 225.342 142.441C224.903 144.215 224.59 145.96 224.401 147.677C224.213 149.395 224.191 151.153 224.335 152.953L207.335 160.218L211.04 173.129L229.261 170.223C231.075 173.376 233.242 176.175 235.761 178.621C238.281 181.066 241.153 183.157 244.377 184.895L242.189 203.053ZM256.582 174.857C263.025 176.449 269.085 175.536 274.763 172.117C280.44 168.699 284.073 163.775 285.661 157.347C287.25 150.919 286.328 144.87 282.897 139.2C279.465 133.53 274.528 129.9 268.085 128.307C261.531 126.688 255.443 127.594 249.821 131.027C244.199 134.459 240.594 139.389 239.005 145.818C237.417 152.246 238.31 158.288 241.687 163.944C245.063 169.6 250.028 173.238 256.582 174.857Z" fill="#D65959"/>
<path d="M244.266 224.474L306.195 180.833C305.525 177.739 305.152 174.658 305.074 171.589C304.997 168.52 305.24 165.319 305.803 161.986C308.252 147.495 315.406 136.034 327.264 127.604C339.122 119.175 352.297 116.184 366.789 118.633C372.006 119.515 376.847 121.078 381.312 123.323C385.777 125.569 389.89 128.35 393.651 131.669L356.552 158.042L369.557 176.338L406.657 149.965C408.556 154.608 409.831 159.407 410.485 164.362C411.138 169.317 411.024 174.403 410.142 179.619C407.693 194.111 400.539 205.572 388.681 214.001C376.822 222.431 363.647 225.421 349.156 222.972C345.823 222.409 342.72 221.587 339.847 220.505C336.974 219.423 334.186 218.058 331.484 216.409L269.916 260.557C267.883 262.003 265.635 262.517 263.172 262.101C260.708 261.684 258.754 260.46 257.309 258.427L242.135 237.082C240.69 235.049 240.176 232.8 240.592 230.337C241.008 227.873 242.233 225.919 244.266 224.474Z" fill="#B64C4C"/>
<defs>
<filter id="filter0_d_486_5795" x="0" y="0" width="497" height="497" filterUnits="userSpaceOnUse" color-interpolation-filters="sRGB">
<feFlood flood-opacity="0" result="BackgroundImageFix"/>
<feColorMatrix in="SourceAlpha" type="matrix" values="0 0 0 0 0 0 0 0 0 0 0 0 0 0 0 0 0 0 127 0" result="hardAlpha"/>
<feOffset dy="4"/>
<feGaussianBlur stdDeviation="5"/>
<feComposite in2="hardAlpha" operator="out"/>
<feColorMatrix type="matrix" values="0 0 0 0 0 0 0 0 0 0 0 0 0 0 0 0 0 0 0.1 0"/>
<feBlend mode="normal" in2="BackgroundImageFix" result="effect1_dropShadow_486_5795"/>
<feBlend mode="normal" in="SourceGraphic" in2="effect1_dropShadow_486_5795" result="shape"/>
</filter>
</defs>
</svg>
