<svg width="497" height="497" viewBox="0 0 497 497" fill="none" xmlns="http://www.w3.org/2000/svg">
<g filter="url(#filter0_d_487_6096)">
<path fill-rule="evenodd" clip-rule="evenodd" d="M379.906 6H339.094C333.424 19.5108 320.07 29 304.5 29C288.93 29 275.576 19.5108 269.906 6H229.094C223.424 19.5108 210.07 29 194.5 29C178.93 29 165.576 19.5108 159.906 6H119.094C113.424 19.5108 100.07 29 84.5 29C68.9298 29 55.576 19.5108 49.9062 6H10V46.3432C22.9767 52.2412 32 65.3169 32 80.5C32 95.6831 22.9767 108.759 10 114.657V156.343C22.9767 162.241 32 175.317 32 190.5C32 205.683 22.9767 218.759 10 224.657V266.343C22.9767 272.241 32 285.317 32 300.5C32 315.683 22.9767 328.759 10 334.657V376.343C22.9767 382.241 32 395.317 32 410.5C32 425.683 22.9767 438.759 10 444.657V483H46.7962C51.6513 467.915 65.801 457 82.5 457C99.1991 457 113.349 467.915 118.204 483H156.796C161.651 467.915 175.801 457 192.5 457C209.199 457 223.349 467.915 228.204 483H266.796C271.651 467.915 285.801 457 302.5 457C319.199 457 333.349 467.915 338.204 483H376.796C381.651 467.915 395.801 457 412.5 457C429.199 457 443.349 467.915 448.204 483H487V441.675C475.105 435.387 467 422.89 467 408.5C467 394.11 475.105 381.613 487 375.325V331.675C475.105 325.387 467 312.89 467 298.5C467 284.11 475.105 271.613 487 265.325V221.675C475.105 215.387 467 202.89 467 188.5C467 174.11 475.105 161.613 487 155.325V111.675C475.105 105.387 467 92.8902 467 78.5C467 64.1098 475.105 51.6127 487 45.3252V6H449.094C443.424 19.5108 430.07 29 414.5 29C398.93 29 385.576 19.5108 379.906 6Z" fill="#83D6F1"/>
</g>
<rect x="62" y="46" width="385" height="385" rx="10" fill="#92E4FF"/>
<path d="M178.826 322.864C177.278 322.864 175.766 322.666 174.29 322.27C172.814 321.874 171.662 321.37 170.834 320.758L170.942 322.378H166.838L166.622 313.09H170.132C170.24 314.17 170.672 315.16 171.428 316.06C172.184 316.96 173.174 317.68 174.398 318.22C175.622 318.724 176.99 318.976 178.502 318.976C179.114 318.976 179.69 318.886 180.23 318.706C180.806 318.526 181.274 318.238 181.634 317.842C182.03 317.41 182.228 316.888 182.228 316.276C182.228 315.592 181.976 315.034 181.472 314.602C181.004 314.17 180.302 313.756 179.366 313.36C178.466 312.964 177.332 312.514 175.964 312.01C174.848 311.578 173.714 311.128 172.562 310.66C171.446 310.192 170.402 309.634 169.43 308.986C168.494 308.302 167.738 307.474 167.162 306.502C166.586 305.494 166.298 304.27 166.298 302.83C166.298 301.786 166.496 300.76 166.892 299.752C167.288 298.708 167.9 297.772 168.728 296.944C169.556 296.08 170.6 295.396 171.86 294.892C173.156 294.388 174.686 294.136 176.45 294.136C177.422 294.136 178.52 294.298 179.744 294.622C181.004 294.91 182.066 295.36 182.93 295.972V294.406H187.034V303.964H183.524C183.308 302.704 182.858 301.624 182.174 300.724C181.526 299.824 180.68 299.14 179.636 298.672C178.592 298.168 177.422 297.916 176.126 297.916C175.226 297.916 174.398 298.132 173.642 298.564C172.922 298.996 172.562 299.734 172.562 300.778C172.562 301.606 172.85 302.272 173.426 302.776C174.002 303.244 174.794 303.64 175.802 303.964C176.81 304.288 177.926 304.666 179.15 305.098C180.986 305.71 182.606 306.43 184.01 307.258C185.45 308.086 186.584 309.094 187.412 310.282C188.24 311.434 188.654 312.856 188.654 314.548C188.654 316.42 188.186 317.968 187.25 319.192C186.314 320.416 185.09 321.334 183.578 321.946C182.102 322.558 180.518 322.864 178.826 322.864ZM203.793 336.634C202.425 336.634 201.255 336.22 200.283 335.392C199.347 334.6 198.879 333.538 198.879 332.206C198.879 331.234 199.185 330.37 199.797 329.614C200.445 328.894 201.273 328.516 202.281 328.48C203.073 328.444 203.739 328.696 204.279 329.236C204.855 329.812 205.143 330.586 205.143 331.558C205.143 331.666 205.143 331.774 205.143 331.882C205.143 331.99 205.125 332.116 205.089 332.26C205.161 332.26 205.251 332.242 205.359 332.206C205.683 332.098 206.025 331.792 206.385 331.288C206.781 330.82 207.159 330.19 207.519 329.398C207.915 328.57 208.293 327.634 208.653 326.59C209.049 325.582 209.391 324.52 209.679 323.404L201.147 306.286C200.139 304.27 199.473 302.758 199.149 301.75C198.861 300.706 198.663 299.788 198.555 298.996L196.071 299.104V295H209.517V298.456C208.185 298.6 207.447 299.104 207.303 299.968C207.195 300.832 207.357 301.732 207.789 302.668L213.081 314.764C213.441 313.828 213.909 312.388 214.485 310.444C215.061 308.464 215.745 306.322 216.537 304.018C216.681 303.55 216.861 303.01 217.077 302.398C217.329 301.75 217.599 301.12 217.887 300.508C218.175 299.86 218.481 299.338 218.805 298.942L215.727 299.104V295H225.339V298.456C224.223 298.708 223.287 299.392 222.531 300.508C221.811 301.624 221.163 302.992 220.587 304.612L213.837 323.89C212.829 326.806 211.875 329.2 210.975 331.072C210.075 332.98 209.067 334.384 207.951 335.284C206.835 336.184 205.449 336.634 203.793 336.634ZM245.577 322.864C244.029 322.864 242.517 322.666 241.041 322.27C239.565 321.874 238.413 321.37 237.585 320.758L237.693 322.378H233.589L233.373 313.09H236.883C236.991 314.17 237.423 315.16 238.179 316.06C238.935 316.96 239.925 317.68 241.149 318.22C242.373 318.724 243.741 318.976 245.253 318.976C245.865 318.976 246.441 318.886 246.981 318.706C247.557 318.526 248.025 318.238 248.385 317.842C248.781 317.41 248.979 316.888 248.979 316.276C248.979 315.592 248.727 315.034 248.223 314.602C247.755 314.17 247.053 313.756 246.117 313.36C245.217 312.964 244.083 312.514 242.715 312.01C241.599 311.578 240.465 311.128 239.313 310.66C238.197 310.192 237.153 309.634 236.181 308.986C235.245 308.302 234.489 307.474 233.913 306.502C233.337 305.494 233.049 304.27 233.049 302.83C233.049 301.786 233.247 300.76 233.643 299.752C234.039 298.708 234.651 297.772 235.479 296.944C236.307 296.08 237.351 295.396 238.611 294.892C239.907 294.388 241.437 294.136 243.201 294.136C244.173 294.136 245.271 294.298 246.495 294.622C247.755 294.91 248.817 295.36 249.681 295.972V294.406H253.785V303.964H250.275C250.059 302.704 249.609 301.624 248.925 300.724C248.277 299.824 247.431 299.14 246.387 298.672C245.343 298.168 244.173 297.916 242.877 297.916C241.977 297.916 241.149 298.132 240.393 298.564C239.673 298.996 239.313 299.734 239.313 300.778C239.313 301.606 239.601 302.272 240.177 302.776C240.753 303.244 241.545 303.64 242.553 303.964C243.561 304.288 244.677 304.666 245.901 305.098C247.737 305.71 249.357 306.43 250.761 307.258C252.201 308.086 253.335 309.094 254.163 310.282C254.991 311.434 255.405 312.856 255.405 314.548C255.405 316.42 254.937 317.968 254.001 319.192C253.065 320.416 251.841 321.334 250.329 321.946C248.853 322.558 247.269 322.864 245.577 322.864ZM275.458 322.864C274.378 322.864 273.334 322.738 272.326 322.486C271.354 322.234 270.454 321.766 269.626 321.082C268.834 320.362 268.204 319.318 267.736 317.95C267.268 316.582 267.034 314.764 267.034 312.496L267.142 299.482H263.47V295C264.586 294.964 265.666 294.586 266.71 293.866C267.754 293.146 268.636 292.21 269.356 291.058C270.112 289.906 270.616 288.7 270.868 287.44H274.864L274.81 295H281.668V299.158L274.81 299.32L274.756 312.604C274.756 313.432 274.828 314.26 274.972 315.088C275.152 315.88 275.476 316.546 275.944 317.086C276.412 317.59 277.096 317.842 277.996 317.842C278.5 317.842 279.184 317.662 280.048 317.302C280.948 316.942 281.902 316.042 282.91 314.602L285.502 317.032C284.53 318.472 283.522 319.588 282.478 320.38C281.434 321.172 280.426 321.748 279.454 322.108C278.518 322.468 277.69 322.684 276.97 322.756C276.25 322.828 275.746 322.864 275.458 322.864ZM305.271 322.864C302.643 322.864 300.321 322.288 298.305 321.136C296.289 319.948 294.723 318.292 293.607 316.168C292.491 314.008 291.933 311.47 291.933 308.554C291.933 306.034 292.491 303.676 293.607 301.48C294.723 299.284 296.289 297.52 298.305 296.188C300.357 294.82 302.733 294.136 305.433 294.136C306.945 294.136 308.421 294.352 309.861 294.784C311.301 295.18 312.597 295.882 313.749 296.89C314.937 297.898 315.873 299.266 316.557 300.994C317.277 302.722 317.619 304.882 317.583 307.474L299.871 307.798C299.871 309.742 300.105 311.488 300.573 313.036C301.077 314.584 301.887 315.808 303.003 316.708C304.119 317.608 305.613 318.058 307.485 318.058C308.205 318.058 309.015 317.932 309.915 317.68C310.851 317.428 311.787 317.014 312.723 316.438C313.695 315.826 314.595 315.016 315.423 314.008L317.853 316.276C316.557 318.112 315.171 319.516 313.695 320.488C312.219 321.424 310.743 322.054 309.267 322.378C307.827 322.702 306.495 322.864 305.271 322.864ZM300.195 304.018H310.131C310.095 302.506 309.879 301.318 309.483 300.454C309.123 299.554 308.619 298.906 307.971 298.51C307.323 298.114 306.567 297.916 305.703 297.916C304.119 297.916 302.877 298.492 301.977 299.644C301.077 300.76 300.483 302.218 300.195 304.018ZM326.929 322V318.49C327.937 318.49 328.657 318.292 329.089 317.896C329.521 317.5 329.791 316.942 329.899 316.222C330.043 315.466 330.115 314.62 330.115 313.684V304.612C330.115 303.964 330.133 303.244 330.169 302.452C330.205 301.624 330.259 300.814 330.331 300.022C329.755 300.058 329.071 300.094 328.279 300.13C327.523 300.13 326.947 300.148 326.551 300.184V296.08C328.207 296.08 329.611 295.99 330.763 295.81C331.915 295.63 332.815 295.414 333.463 295.162C334.147 294.91 334.615 294.676 334.867 294.46H337.513C337.585 294.82 337.621 295.27 337.621 295.81C337.657 296.35 337.693 296.8 337.729 297.16C338.953 296.224 340.267 295.486 341.671 294.946C343.111 294.406 344.461 294.136 345.721 294.136C347.377 294.136 348.745 294.442 349.825 295.054C350.905 295.63 351.769 296.512 352.417 297.7C353.713 296.62 355.135 295.756 356.683 295.108C358.267 294.46 359.779 294.136 361.219 294.136C364.135 294.136 366.331 294.982 367.807 296.674C369.319 298.33 370.075 301.228 370.075 305.368V313.306C370.075 313.81 370.057 314.53 370.021 315.466C369.985 316.366 369.931 317.23 369.859 318.058C370.435 317.986 371.065 317.95 371.749 317.95C372.469 317.914 373.009 317.896 373.369 317.896V322H359.707V318.49C360.535 318.49 361.129 318.292 361.489 317.896C361.885 317.5 362.137 316.942 362.245 316.222C362.353 315.466 362.407 314.62 362.407 313.684V305.422C362.371 303.082 361.975 301.462 361.219 300.562C360.499 299.662 359.527 299.194 358.303 299.158C357.367 299.122 356.485 299.284 355.657 299.644C354.865 300.004 354.145 300.436 353.497 300.94C353.677 301.66 353.803 302.452 353.875 303.316C353.947 304.18 353.983 305.098 353.983 306.07C353.983 307.294 353.983 308.5 353.983 309.688C353.983 310.876 353.983 312.082 353.983 313.306C353.983 313.81 353.965 314.53 353.929 315.466C353.893 316.366 353.839 317.23 353.767 318.058C354.343 317.986 354.973 317.95 355.657 317.95C356.341 317.914 356.881 317.896 357.277 317.896V322H343.345V318.49C344.281 318.49 344.947 318.292 345.343 317.896C345.775 317.5 346.045 316.942 346.153 316.222C346.261 315.466 346.315 314.62 346.315 313.684L346.261 305.26C346.261 302.92 345.919 301.318 345.235 300.454C344.551 299.59 343.597 299.14 342.373 299.104C341.473 299.104 340.627 299.302 339.835 299.698C339.079 300.094 338.395 300.562 337.783 301.102C337.783 301.57 337.783 302.02 337.783 302.452C337.783 302.884 337.783 303.334 337.783 303.802V313.306C337.783 313.81 337.765 314.53 337.729 315.466C337.693 316.366 337.639 317.23 337.567 318.058C338.143 317.986 338.737 317.95 339.349 317.95C339.961 317.914 340.447 317.896 340.807 317.896V322H326.929ZM394.425 322.864C392.877 322.864 391.365 322.666 389.889 322.27C388.413 321.874 387.261 321.37 386.433 320.758L386.541 322.378H382.437L382.221 313.09H385.731C385.839 314.17 386.271 315.16 387.027 316.06C387.783 316.96 388.773 317.68 389.997 318.22C391.221 318.724 392.589 318.976 394.101 318.976C394.713 318.976 395.289 318.886 395.829 318.706C396.405 318.526 396.873 318.238 397.233 317.842C397.629 317.41 397.827 316.888 397.827 316.276C397.827 315.592 397.575 315.034 397.071 314.602C396.603 314.17 395.901 313.756 394.965 313.36C394.065 312.964 392.931 312.514 391.563 312.01C390.447 311.578 389.313 311.128 388.161 310.66C387.045 310.192 386.001 309.634 385.029 308.986C384.093 308.302 383.337 307.474 382.761 306.502C382.185 305.494 381.897 304.27 381.897 302.83C381.897 301.786 382.095 300.76 382.491 299.752C382.887 298.708 383.499 297.772 384.327 296.944C385.155 296.08 386.199 295.396 387.459 294.892C388.755 294.388 390.285 294.136 392.049 294.136C393.021 294.136 394.119 294.298 395.343 294.622C396.603 294.91 397.665 295.36 398.529 295.972V294.406H402.633V303.964H399.123C398.907 302.704 398.457 301.624 397.773 300.724C397.125 299.824 396.279 299.14 395.235 298.672C394.191 298.168 393.021 297.916 391.725 297.916C390.825 297.916 389.997 298.132 389.241 298.564C388.521 298.996 388.161 299.734 388.161 300.778C388.161 301.606 388.449 302.272 389.025 302.776C389.601 303.244 390.393 303.64 391.401 303.964C392.409 304.288 393.525 304.666 394.749 305.098C396.585 305.71 398.205 306.43 399.609 307.258C401.049 308.086 402.183 309.094 403.011 310.282C403.839 311.434 404.253 312.856 404.253 314.548C404.253 316.42 403.785 317.968 402.849 319.192C401.913 320.416 400.689 321.334 399.177 321.946C397.701 322.558 396.117 322.864 394.425 322.864ZM221.464 382C221.392 381.496 221.338 381.082 221.302 380.758C221.302 380.398 221.284 379.984 221.248 379.516C220.024 380.74 218.728 381.604 217.36 382.108C215.992 382.612 214.606 382.864 213.202 382.864C210.898 382.864 209.098 382.18 207.802 380.812C206.506 379.444 205.858 377.734 205.858 375.682C205.858 373.954 206.29 372.478 207.154 371.254C208.054 370.03 209.224 369.04 210.664 368.284C212.14 367.492 213.76 366.898 215.524 366.502C217.324 366.07 219.124 365.818 220.924 365.746V362.938C220.924 362.002 220.798 361.156 220.546 360.4C220.33 359.644 219.934 359.05 219.358 358.618C218.818 358.186 218.044 357.988 217.036 358.024C216.352 358.06 215.686 358.204 215.038 358.456C214.39 358.708 213.832 359.068 213.364 359.536C213.652 359.86 213.832 360.22 213.904 360.616C213.976 360.976 214.012 361.3 214.012 361.588C214.012 362.308 213.724 363.064 213.148 363.856C212.572 364.612 211.654 364.972 210.394 364.936C209.314 364.9 208.486 364.522 207.91 363.802C207.334 363.082 207.046 362.236 207.046 361.264C207.046 359.824 207.55 358.582 208.558 357.538C209.602 356.458 210.988 355.63 212.716 355.054C214.444 354.442 216.352 354.136 218.44 354.136C221.608 354.136 224.056 354.964 225.784 356.62C227.548 358.24 228.43 360.85 228.43 364.45C228.43 365.674 228.43 366.718 228.43 367.582C228.43 368.446 228.412 369.31 228.376 370.174C228.376 371.038 228.376 372.082 228.376 373.306C228.376 373.81 228.358 374.53 228.322 375.466C228.286 376.366 228.232 377.23 228.16 378.058C228.772 377.986 229.42 377.95 230.104 377.95C230.788 377.914 231.31 377.896 231.67 377.896V382H221.464ZM220.87 369.58C219.862 369.688 218.908 369.868 218.008 370.12C217.108 370.372 216.316 370.714 215.632 371.146C214.984 371.578 214.462 372.1 214.066 372.712C213.706 373.324 213.526 374.008 213.526 374.764C213.562 375.772 213.886 376.492 214.498 376.924C215.11 377.356 215.812 377.572 216.604 377.572C217.432 377.572 218.206 377.392 218.926 377.032C219.646 376.672 220.294 376.204 220.87 375.628C220.87 375.268 220.87 374.926 220.87 374.602C220.87 374.242 220.87 373.882 220.87 373.522C220.87 372.874 220.87 372.226 220.87 371.578C220.87 370.894 220.87 370.228 220.87 369.58ZM250.593 382.864C248.433 382.864 246.525 382.306 244.869 381.19C243.249 380.074 241.971 378.49 241.035 376.438C240.135 374.386 239.685 371.974 239.685 369.202C239.685 366.286 240.243 363.694 241.359 361.426C242.475 359.158 244.041 357.376 246.057 356.08C248.073 354.784 250.413 354.136 253.077 354.136C254.049 354.136 254.913 354.244 255.669 354.46C256.461 354.64 257.199 354.856 257.883 355.108V351.544C257.883 351.04 257.901 350.32 257.937 349.384C257.973 348.448 258.027 347.584 258.099 346.792C257.523 346.828 256.839 346.864 256.047 346.9C255.255 346.936 254.661 346.954 254.265 346.954V342.85C255.957 342.85 257.361 342.76 258.477 342.58C259.629 342.4 260.529 342.184 261.177 341.932C261.861 341.68 262.329 341.446 262.581 341.23H265.497V373.306C265.497 373.81 265.479 374.53 265.443 375.466C265.407 376.366 265.353 377.23 265.281 378.058C265.893 377.986 266.541 377.95 267.225 377.95C267.909 377.914 268.431 377.896 268.791 377.896V382H258.531C258.495 381.604 258.441 381.19 258.369 380.758C258.333 380.326 258.279 379.912 258.207 379.516C257.019 380.74 255.795 381.604 254.535 382.108C253.275 382.612 251.961 382.864 250.593 382.864ZM253.401 377.95C254.337 377.95 255.201 377.716 255.993 377.248C256.785 376.744 257.415 376.114 257.883 375.358C257.883 374.818 257.883 374.278 257.883 373.738C257.883 373.198 257.883 372.658 257.883 372.118V359.158C257.523 358.87 256.983 358.636 256.263 358.456C255.543 358.24 254.805 358.132 254.049 358.132C252.393 358.168 251.097 358.69 250.161 359.698C249.225 360.706 248.559 361.984 248.163 363.532C247.803 365.08 247.623 366.7 247.623 368.392C247.623 369.904 247.803 371.398 248.163 372.874C248.559 374.35 249.171 375.574 249.999 376.546C250.863 377.482 251.997 377.95 253.401 377.95ZM277.739 382V378.49C278.747 378.49 279.467 378.292 279.899 377.896C280.331 377.5 280.601 376.942 280.709 376.222C280.853 375.466 280.925 374.62 280.925 373.684V364.612C280.925 363.964 280.943 363.244 280.979 362.452C281.015 361.624 281.069 360.814 281.141 360.022C280.565 360.058 279.881 360.094 279.089 360.13C278.333 360.13 277.757 360.148 277.361 360.184V356.08C279.017 356.08 280.421 355.99 281.573 355.81C282.725 355.63 283.625 355.414 284.273 355.162C284.957 354.91 285.425 354.676 285.677 354.46H288.323C288.395 354.82 288.431 355.27 288.431 355.81C288.467 356.35 288.503 356.8 288.539 357.16C289.763 356.224 291.077 355.486 292.481 354.946C293.921 354.406 295.271 354.136 296.531 354.136C298.187 354.136 299.555 354.442 300.635 355.054C301.715 355.63 302.579 356.512 303.227 357.7C304.523 356.62 305.945 355.756 307.493 355.108C309.077 354.46 310.589 354.136 312.029 354.136C314.945 354.136 317.141 354.982 318.617 356.674C320.129 358.33 320.885 361.228 320.885 365.368V373.306C320.885 373.81 320.867 374.53 320.831 375.466C320.795 376.366 320.741 377.23 320.669 378.058C321.245 377.986 321.875 377.95 322.559 377.95C323.279 377.914 323.819 377.896 324.179 377.896V382H310.517V378.49C311.345 378.49 311.939 378.292 312.299 377.896C312.695 377.5 312.947 376.942 313.055 376.222C313.163 375.466 313.217 374.62 313.217 373.684V365.422C313.181 363.082 312.785 361.462 312.029 360.562C311.309 359.662 310.337 359.194 309.113 359.158C308.177 359.122 307.295 359.284 306.467 359.644C305.675 360.004 304.955 360.436 304.307 360.94C304.487 361.66 304.613 362.452 304.685 363.316C304.757 364.18 304.793 365.098 304.793 366.07C304.793 367.294 304.793 368.5 304.793 369.688C304.793 370.876 304.793 372.082 304.793 373.306C304.793 373.81 304.775 374.53 304.739 375.466C304.703 376.366 304.649 377.23 304.577 378.058C305.153 377.986 305.783 377.95 306.467 377.95C307.151 377.914 307.691 377.896 308.087 377.896V382H294.155V378.49C295.091 378.49 295.757 378.292 296.153 377.896C296.585 377.5 296.855 376.942 296.963 376.222C297.071 375.466 297.125 374.62 297.125 373.684L297.071 365.26C297.071 362.92 296.729 361.318 296.045 360.454C295.361 359.59 294.407 359.14 293.183 359.104C292.283 359.104 291.437 359.302 290.645 359.698C289.889 360.094 289.205 360.562 288.593 361.102C288.593 361.57 288.593 362.02 288.593 362.452C288.593 362.884 288.593 363.334 288.593 363.802V373.306C288.593 373.81 288.575 374.53 288.539 375.466C288.503 376.366 288.449 377.23 288.377 378.058C288.953 377.986 289.547 377.95 290.159 377.95C290.771 377.914 291.257 377.896 291.617 377.896V382H277.739ZM332.814 378.49C333.822 378.49 334.542 378.292 334.974 377.896C335.406 377.5 335.676 376.942 335.784 376.222C335.928 375.466 336 374.62 336 373.684V364.72C336 364.072 336.018 363.334 336.054 362.506C336.09 361.642 336.144 360.814 336.216 360.022C335.64 360.058 334.956 360.094 334.164 360.13C333.408 360.13 332.832 360.148 332.436 360.184V356.08C334.092 356.08 335.496 355.99 336.648 355.81C337.8 355.63 338.7 355.414 339.348 355.162C340.032 354.91 340.5 354.676 340.752 354.46H343.668V373.306C343.668 373.81 343.65 374.53 343.614 375.466C343.578 376.366 343.524 377.23 343.452 378.058C344.028 377.986 344.658 377.95 345.342 377.95C346.062 377.914 346.602 377.896 346.962 377.896V382H332.814V378.49ZM339.564 350.194C338.34 350.194 337.332 349.762 336.54 348.898C335.748 348.034 335.352 346.99 335.352 345.766C335.352 344.542 335.766 343.498 336.594 342.634C337.422 341.77 338.394 341.338 339.51 341.338C340.662 341.338 341.616 341.77 342.372 342.634C343.164 343.498 343.56 344.542 343.56 345.766C343.56 346.99 343.2 348.034 342.48 348.898C341.76 349.762 340.788 350.194 339.564 350.194ZM355.88 382V378.49C356.888 378.49 357.608 378.292 358.04 377.896C358.472 377.5 358.742 376.942 358.85 376.222C358.994 375.466 359.066 374.62 359.066 373.684V364.612C359.066 363.964 359.084 363.244 359.12 362.452C359.156 361.624 359.21 360.814 359.282 360.022C358.706 360.058 358.022 360.094 357.23 360.13C356.474 360.13 355.898 360.148 355.502 360.184V356.08C357.158 356.08 358.562 355.99 359.714 355.81C360.866 355.63 361.766 355.414 362.414 355.162C363.098 354.91 363.566 354.676 363.818 354.46H366.464C366.536 354.928 366.572 355.27 366.572 355.486C366.572 355.702 366.572 355.918 366.572 356.134C366.608 356.314 366.68 356.656 366.788 357.16C367.508 356.584 368.336 356.08 369.272 355.648C370.208 355.18 371.144 354.82 372.08 354.568C373.016 354.28 373.844 354.136 374.564 354.136C377.876 354.136 380.216 355.09 381.584 356.998C382.988 358.87 383.69 361.894 383.69 366.07V373.306C383.69 373.81 383.672 374.53 383.636 375.466C383.6 376.366 383.546 377.23 383.474 378.058C384.086 377.986 384.734 377.95 385.418 377.95C386.102 377.914 386.624 377.896 386.984 377.896V382H372.836V378.49C373.844 378.49 374.564 378.292 374.996 377.896C375.464 377.5 375.752 376.942 375.86 376.222C376.004 375.466 376.076 374.62 376.076 373.684L376.022 366.016C376.022 363.676 375.68 361.948 374.996 360.832C374.348 359.68 373.232 359.104 371.648 359.104C370.748 359.104 369.848 359.302 368.948 359.698C368.084 360.094 367.346 360.562 366.734 361.102C366.734 361.606 366.734 362.128 366.734 362.668C366.734 363.172 366.734 363.676 366.734 364.18V373.306C366.734 373.81 366.716 374.53 366.68 375.466C366.644 376.366 366.59 377.23 366.518 378.058C367.094 377.986 367.724 377.95 368.408 377.95C369.128 377.914 369.668 377.896 370.028 377.896V382H355.88ZM399.714 382.864C398.562 382.864 397.608 382.45 396.852 381.622C396.132 380.794 395.772 379.804 395.772 378.652C395.772 377.5 396.168 376.51 396.96 375.682C397.752 374.854 398.67 374.44 399.714 374.44C400.83 374.44 401.748 374.854 402.468 375.682C403.224 376.51 403.602 377.5 403.602 378.652C403.602 379.804 403.242 380.794 402.522 381.622C401.838 382.45 400.902 382.864 399.714 382.864Z" fill="#22687E"/>
<path d="M231.72 196.784L174.12 171.696V160.304L231.72 134.704V147.504L190.632 165.68L231.72 183.856V196.784ZM250.059 240.688L240.075 234.16L311.499 109.36L323.147 116.784L250.059 240.688ZM331.495 134.704L389.095 159.792V171.184L331.495 196.784V183.984L372.583 165.808L331.495 147.632V134.704Z" fill="#42A3C1"/>
<defs>
<filter id="filter0_d_487_6096" x="0" y="0" width="497" height="497" filterUnits="userSpaceOnUse" color-interpolation-filters="sRGB">
<feFlood flood-opacity="0" result="BackgroundImageFix"/>
<feColorMatrix in="SourceAlpha" type="matrix" values="0 0 0 0 0 0 0 0 0 0 0 0 0 0 0 0 0 0 127 0" result="hardAlpha"/>
<feOffset dy="4"/>
<feGaussianBlur stdDeviation="5"/>
<feComposite in2="hardAlpha" operator="out"/>
<feColorMatrix type="matrix" values="0 0 0 0 0 0 0 0 0 0 0 0 0 0 0 0 0 0 0.1 0"/>
<feBlend mode="normal" in2="BackgroundImageFix" result="effect1_dropShadow_487_6096"/>
<feBlend mode="normal" in="SourceGraphic" in2="effect1_dropShadow_487_6096" result="shape"/>
</filter>
</defs>
</svg>
