<svg width="528" height="379" viewBox="0 0 528 379" fill="none" xmlns="http://www.w3.org/2000/svg">
<g filter="url(#filter0_d_1023_70)">
<mask id="mask0_1023_70" style="mask-type:alpha" maskUnits="userSpaceOnUse" x="6" y="6" width="509" height="360">
<ellipse cx="260.25" cy="186" rx="180" ry="254.25" transform="rotate(90 260.25 186)" fill="#0A4153"/>
</mask>
<g mask="url(#mask0_1023_70)">
<ellipse cx="260.25" cy="186" rx="180" ry="254.25" transform="rotate(90 260.25 186)" fill="#0A4153"/>
<path d="M496.94 186C496.94 230.335 470.853 270.805 427.999 300.323C385.158 329.831 325.805 348.18 260.099 348.18C194.392 348.18 135.039 329.831 92.1982 300.322C49.3439 270.805 23.2569 230.335 23.2568 186C23.2568 141.666 49.3439 101.195 92.1982 71.678C135.04 42.1696 194.392 23.8196 260.099 23.8196C325.805 23.8196 385.158 42.1697 427.999 71.678C470.853 101.195 496.94 141.666 496.94 186Z" stroke="#83D6F1" stroke-width="6.12"/>
<path d="M180.584 72.1015L175.99 57.4762L184.404 54.8329L184.92 56.4757L178.289 58.5589L179.711 63.0867L185.641 61.2238L186.151 62.8466L180.221 64.7095L181.851 69.8985L188.482 67.8154L188.999 69.4582L180.584 72.1015ZM202.872 65.8723C201.889 66.0939 201.005 66.1209 200.221 65.9531C199.451 65.7823 198.805 65.4327 198.284 64.9043C197.763 64.3759 197.4 63.6898 197.196 62.8461L199.04 62.4306C199.209 63.1818 199.596 63.719 200.199 64.0421C200.817 64.3622 201.583 64.4191 202.498 64.2129C203.359 64.019 203.98 63.6565 204.363 63.1254C204.759 62.5912 204.872 61.9486 204.703 61.1974C204.568 60.5965 204.285 60.1076 203.856 59.7308C203.44 59.3509 202.912 59.1398 202.271 59.0977L200.1 58.9197C199.005 58.8364 198.094 58.4891 197.368 57.8778C196.655 57.2634 196.187 56.4577 195.962 55.4607C195.781 54.6549 195.801 53.9184 196.024 53.2511C196.257 52.567 196.665 51.9873 197.246 51.5118C197.825 51.0226 198.558 50.678 199.446 50.4779C200.757 50.1824 201.892 50.3142 202.85 50.8732C203.805 51.4185 204.427 52.2974 204.714 53.5099L202.871 53.9254C202.704 53.1879 202.35 52.665 201.807 52.3569C201.274 52.032 200.605 51.9603 199.799 52.1419C199.007 52.3204 198.429 52.6517 198.064 53.1356C197.714 53.6165 197.615 54.1984 197.769 54.8813C197.908 55.4959 198.191 55.9916 198.621 56.3684C199.05 56.7453 199.594 56.96 200.251 57.0127L202.448 57.2066C203.515 57.2961 204.407 57.6548 205.123 58.2829C205.838 58.9109 206.31 59.7303 206.538 60.7409C206.722 61.5604 206.693 62.3205 206.449 63.0213C206.205 63.722 205.773 64.3216 205.154 64.82C204.548 65.3153 203.787 65.6661 202.872 65.8723ZM220.323 62.158L218.387 48.6673L214.229 49.2641L213.985 47.5595L224.17 46.0975L224.415 47.802L220.258 48.3988L222.194 61.8895L220.323 62.158ZM240.018 60.0233C239.487 60.0589 239.05 59.9338 238.709 59.6481C238.381 59.3614 238.199 58.9596 238.165 58.4428C238.128 57.898 238.253 57.4547 238.539 57.1128C238.838 56.7699 239.254 56.5807 239.784 56.5451C240.315 56.5095 240.745 56.6421 241.074 56.9427C241.417 57.2425 241.606 57.6647 241.643 58.2095C241.678 58.7263 241.545 59.1492 241.244 59.478C240.957 59.806 240.548 59.9877 240.018 60.0233ZM273.375 59.257L273.531 57.3313L278.6 52.7487C279.465 51.962 280.105 51.2554 280.521 50.6289C280.938 49.9885 281.171 49.3613 281.221 48.7473C281.29 47.8961 281.107 47.2071 280.672 46.6803C280.251 46.1545 279.636 45.8589 278.827 45.7933C277.934 45.7209 277.209 45.915 276.652 46.3755C276.109 46.8372 275.801 47.5076 275.73 48.3867L273.846 48.2341C273.949 47.3153 274.223 46.5369 274.668 45.8988C275.128 45.2478 275.721 44.7692 276.449 44.4629C277.19 44.1577 278.028 44.043 278.963 44.1188C279.883 44.1934 280.664 44.4393 281.305 44.8564C281.96 45.2606 282.443 45.8054 282.752 46.4906C283.062 47.1759 283.18 47.972 283.107 48.879C283.036 49.7442 282.737 50.5837 282.207 51.3976C281.678 52.2115 280.846 53.1203 279.711 54.1239L275.628 57.7119L282.598 58.2767L282.459 59.993L273.375 59.257ZM296.464 61.8182C295.537 61.6716 294.757 61.3639 294.122 60.895C293.504 60.4144 293.061 59.8127 292.792 59.0899C292.526 58.3533 292.464 57.5355 292.606 56.6367L293.656 49.9993C293.801 49.0866 294.112 48.328 294.591 47.7233C295.069 47.1186 295.675 46.6901 296.41 46.4378C297.16 46.1738 297.999 46.1151 298.925 46.2617C299.865 46.4104 300.645 46.7251 301.263 47.2057C301.884 47.6724 302.329 48.2672 302.597 48.99C302.865 49.7128 302.927 50.5305 302.783 51.4432L301.733 58.0806C301.591 58.9794 301.279 59.7381 300.799 60.3566C300.32 60.9613 299.706 61.3956 298.955 61.6596C298.221 61.9119 297.39 61.9648 296.464 61.8182ZM296.717 60.2211C297.546 60.3523 298.252 60.1946 298.833 59.7479C299.43 59.2895 299.795 58.6386 299.928 57.7951L300.978 51.1577C301.112 50.3142 300.964 49.5892 300.536 48.9828C300.123 48.3647 299.502 47.9901 298.672 47.8588C297.843 47.7276 297.129 47.8911 296.533 48.3494C295.952 48.7962 295.594 49.4413 295.461 50.2848L294.411 56.9222C294.277 57.7657 294.417 58.4965 294.829 59.1146C295.258 59.721 295.887 60.0898 296.717 60.2211ZM297.501 55.2637C297.128 55.2047 296.842 55.039 296.644 54.7667C296.46 54.4966 296.399 54.168 296.46 53.7808C296.519 53.4075 296.677 53.1277 296.933 52.9414C297.205 52.7435 297.528 52.6741 297.901 52.7332C298.275 52.7923 298.553 52.9568 298.737 53.2269C298.937 53.4854 299.008 53.8013 298.949 54.1746C298.888 54.5618 298.721 54.8543 298.449 55.0522C298.19 55.2523 297.874 55.3228 297.501 55.2637ZM310.766 64.0212L311.17 62.3472L315.212 63.323L318.036 51.626L313.265 53.6715L313.757 51.6301L317.732 49.9323L320.243 50.5385L317.049 63.7665L320.356 64.5648L319.952 66.2387L310.766 64.0212ZM333.192 70.0944C332.004 69.7192 331.126 69.1044 330.559 68.2499C329.992 67.3955 329.807 66.4266 330.002 65.3431L331.804 65.9123C331.69 66.5074 331.795 67.0326 332.121 67.488C332.452 67.9299 332.984 68.2669 333.718 68.4988C334.559 68.7644 335.258 68.7356 335.815 68.4124C336.386 68.0934 336.802 67.52 337.063 66.6923L337.512 65.2706C337.774 64.4429 337.763 63.7346 337.479 63.1458C337.208 62.5612 336.659 62.1382 335.831 61.8768C335.311 61.7123 334.813 61.7092 334.337 61.8672C333.865 62.012 333.471 62.2839 333.154 62.683L331.352 62.1138L334.007 54.0553L341.697 56.4838L341.178 58.1259L335.231 56.2476L333.634 61.0947L334.195 61.2718L333.47 61.6153C333.668 60.9879 334.071 60.5719 334.678 60.3675C335.3 60.1672 336.031 60.1999 336.872 60.4655C338.064 60.8274 338.869 61.4855 339.287 62.4397C339.723 63.3847 339.732 64.5181 339.315 65.8397L338.866 67.2615C338.457 68.5565 337.752 69.4643 336.75 69.9849C335.753 70.4922 334.567 70.5287 333.192 70.0944Z" fill="#83D6F1"/>
<path d="M339.721 146.846C336.617 148.893 333.248 150.941 329.616 152.988C326.049 154.97 322.45 156.852 318.817 158.635C315.184 160.419 311.816 162.037 308.712 163.49C305.607 164.877 302.965 165.967 300.786 166.759C298.606 167.552 297.186 167.948 296.526 167.948C295.139 167.948 293.917 167.519 292.86 166.66C291.803 165.802 291.275 164.745 291.275 163.49C291.275 162.433 292.332 161.112 294.445 159.527C296.625 157.942 299.465 156.159 302.965 154.177C306.466 152.196 310.33 150.082 314.557 147.837C318.85 145.591 323.11 143.279 327.337 140.902C323.837 138.656 320.369 136.542 316.935 134.561C313.566 132.58 310.462 130.796 307.622 129.211C304.848 127.56 302.635 126.14 300.984 124.951C299.333 123.696 298.507 122.705 298.507 121.979C298.507 120.46 298.969 119.205 299.894 118.214C300.819 117.223 302.239 116.728 304.154 116.728C304.683 116.728 305.838 117.091 307.622 117.818C309.405 118.544 311.585 119.535 314.161 120.79C316.736 122.045 319.51 123.498 322.483 125.149C325.521 126.734 328.526 128.419 331.498 130.202C334.536 131.985 337.343 133.768 339.919 135.552C341.24 136.476 342.132 137.434 342.594 138.425C343.123 139.349 343.387 140.241 343.387 141.1C343.387 142.09 343.09 143.081 342.495 144.072C341.967 144.997 341.042 145.921 339.721 146.846Z" fill="#42CAF5"/>
<path d="M234.836 200.543C233.383 200.543 232.26 199.882 231.468 198.562C230.675 197.307 230.279 195.887 230.279 194.301C230.279 193.311 230.807 191.428 231.864 188.654C232.921 185.946 234.341 182.611 236.124 178.648C237.973 174.619 240.087 170.227 242.465 165.471C244.842 160.65 247.385 155.663 250.093 150.512C252.801 145.294 255.509 140.109 258.217 134.957C260.991 129.806 263.666 124.918 266.242 120.295C268.818 115.671 271.196 111.543 273.375 107.911C274.234 106.59 275.257 105.434 276.446 104.443C277.701 103.452 279.088 102.957 280.607 102.957C282.126 102.957 283.348 103.584 284.273 104.839C285.264 106.028 285.759 107.448 285.759 109.099C285.759 109.694 285.132 111.345 283.877 114.053C282.622 116.695 280.905 120.163 278.725 124.456C276.545 128.683 274.003 133.537 271.096 139.019C268.256 144.501 265.185 150.38 261.883 156.654C258.646 162.863 255.311 169.236 251.877 175.775C248.508 182.314 245.206 188.819 241.969 195.292C241.309 196.745 240.351 197.967 239.096 198.958C237.841 200.015 236.421 200.543 234.836 200.543Z" fill="#42CAF5"/>
<path d="M228.333 121.384C228.333 122.243 227.276 123.366 225.162 124.753C223.115 126.14 220.341 127.725 216.84 129.508C213.34 131.292 209.476 133.207 205.249 135.254C201.088 137.302 196.894 139.416 192.667 141.595C196.233 144.105 199.8 146.45 203.366 148.629C206.933 150.809 210.169 152.79 213.075 154.574C216.048 156.357 218.392 157.942 220.11 159.329C221.893 160.65 222.785 161.74 222.785 162.598C222.785 163.853 222.322 165.075 221.397 166.264C220.473 167.387 218.987 167.948 216.939 167.948C216.345 167.948 215.123 167.552 213.274 166.759C211.424 165.901 209.179 164.778 206.537 163.391C203.895 161.938 201.022 160.32 197.917 158.536C194.879 156.753 191.808 154.871 188.704 152.889C185.666 150.842 182.825 148.827 180.184 146.846C178.995 145.987 178.169 145.129 177.707 144.27C177.31 143.345 177.112 142.487 177.112 141.694C177.112 140.571 177.41 139.515 178.004 138.524C178.664 137.467 179.754 136.509 181.273 135.651C184.312 133.801 187.548 131.985 190.982 130.202C194.483 128.352 197.95 126.635 201.385 125.05C204.885 123.399 208.155 121.979 211.193 120.79C214.231 119.535 216.807 118.544 218.921 117.818C221.1 117.091 222.586 116.728 223.379 116.728C225.228 116.728 226.516 117.124 227.243 117.917C227.969 118.643 228.333 119.799 228.333 121.384Z" fill="#42CAF5"/>
<path d="M173.369 251.543L170.383 223.949H174.049L175.902 243.756C175.952 244.26 175.99 244.815 176.015 245.419C176.065 246.024 176.103 246.616 176.128 247.196C176.179 247.776 176.204 248.28 176.204 248.708C176.254 248.28 176.305 247.776 176.355 247.196C176.406 246.616 176.456 246.024 176.506 245.419C176.582 244.815 176.658 244.26 176.733 243.756L179.115 223.949H182.895L185.125 243.756C185.175 244.26 185.226 244.815 185.276 245.419C185.352 246.024 185.427 246.616 185.503 247.196C185.578 247.776 185.629 248.28 185.654 248.708C185.679 248.28 185.704 247.776 185.73 247.196C185.78 246.616 185.83 246.024 185.881 245.419C185.931 244.815 185.982 244.26 186.032 243.756L187.922 223.949H191.475L188.376 251.543H183.651L181.42 231.471C181.37 230.942 181.32 230.388 181.269 229.808C181.219 229.203 181.168 228.624 181.118 228.069C181.068 227.49 181.017 227.011 180.967 226.633C180.942 227.011 180.904 227.49 180.853 228.069C180.803 228.624 180.753 229.203 180.702 229.808C180.652 230.388 180.589 230.942 180.513 231.471L178.132 251.543H173.369ZM195.807 251.543V223.949H212.024V227.578H199.814V235.402H210.701V238.993H199.814V247.914H212.024V251.543H195.807ZM218.132 251.543V223.949H226.259C228.88 223.949 230.934 224.579 232.421 225.839C233.908 227.099 234.651 228.838 234.651 231.055C234.651 232.315 234.374 233.412 233.819 234.344C233.29 235.251 232.547 235.957 231.589 236.461C230.632 236.965 229.51 237.217 228.225 237.217V236.839C229.611 236.814 230.833 237.078 231.892 237.633C232.95 238.162 233.782 238.956 234.386 240.014C234.991 241.072 235.294 242.332 235.294 243.794C235.294 245.356 234.941 246.73 234.235 247.914C233.555 249.073 232.572 249.968 231.287 250.598C230.027 251.228 228.527 251.543 226.789 251.543H218.132ZM222.101 248.028H226.448C227.91 248.028 229.069 247.637 229.926 246.856C230.783 246.075 231.211 244.991 231.211 243.605C231.211 242.194 230.783 241.06 229.926 240.203C229.069 239.346 227.91 238.918 226.448 238.918H222.101V248.028ZM222.101 235.516H226.222C227.582 235.516 228.653 235.15 229.435 234.42C230.216 233.689 230.606 232.706 230.606 231.471C230.606 230.236 230.216 229.266 229.435 228.561C228.653 227.83 227.595 227.464 226.259 227.464H222.101V235.516ZM263.387 251.543V223.949H271.099C272.913 223.949 274.488 224.302 275.824 225.007C277.159 225.688 278.192 226.658 278.923 227.918C279.679 229.178 280.057 230.665 280.057 232.378V243.076C280.057 244.764 279.679 246.251 278.923 247.536C278.192 248.821 277.159 249.817 275.824 250.522C274.488 251.203 272.913 251.543 271.099 251.543H263.387ZM267.47 247.839H271.099C272.611 247.839 273.795 247.423 274.652 246.591C275.534 245.734 275.975 244.563 275.975 243.076V232.378C275.975 230.917 275.534 229.77 274.652 228.939C273.795 228.082 272.611 227.653 271.099 227.653H267.47V247.839ZM286.468 251.543V223.949H302.685V227.578H290.475V235.402H301.362V238.993H290.475V247.914H302.685V251.543H286.468ZM314.199 251.543L307.206 223.949H311.402L315.824 242.32C316.101 243.403 316.341 244.487 316.542 245.571C316.769 246.629 316.933 247.461 317.034 248.065C317.135 247.461 317.273 246.629 317.45 245.571C317.651 244.487 317.891 243.391 318.168 242.282L322.553 223.949H326.635L319.604 251.543H314.199ZM330.816 255.701L344.122 220.169H348.355L335.05 255.701H330.816ZM150.704 289.543L147.718 261.949H151.384L153.236 281.756C153.287 282.26 153.325 282.815 153.35 283.419C153.4 284.024 153.438 284.616 153.463 285.196C153.514 285.776 153.539 286.28 153.539 286.708C153.589 286.28 153.64 285.776 153.69 285.196C153.74 284.616 153.791 284.024 153.841 283.419C153.917 282.815 153.992 282.26 154.068 281.756L156.449 261.949H160.229L162.46 281.756C162.51 282.26 162.56 282.815 162.611 283.419C162.686 284.024 162.762 284.616 162.838 285.196C162.913 285.776 162.964 286.28 162.989 286.708C163.014 286.28 163.039 285.776 163.064 285.196C163.115 284.616 163.165 284.024 163.216 283.419C163.266 282.815 163.316 282.26 163.367 281.756L165.257 261.949H168.81L165.71 289.543H160.985L158.755 269.471C158.705 268.942 158.654 268.388 158.604 267.808C158.554 267.203 158.503 266.624 158.453 266.069C158.402 265.49 158.352 265.011 158.302 264.633C158.276 265.011 158.239 265.49 158.188 266.069C158.138 266.624 158.087 267.203 158.037 267.808C157.987 268.388 157.924 268.942 157.848 269.471L155.467 289.543H150.704ZM173.142 289.543V261.949H189.358V265.578H177.149V273.402H188.035V276.993H177.149V285.914H189.358V289.543H173.142ZM195.467 289.543V261.949H203.594C206.215 261.949 208.269 262.579 209.756 263.839C211.242 265.099 211.986 266.838 211.986 269.055C211.986 270.315 211.709 271.412 211.154 272.344C210.625 273.251 209.882 273.957 208.924 274.461C207.966 274.965 206.845 275.217 205.56 275.217V274.839C206.946 274.814 208.168 275.078 209.226 275.633C210.285 276.162 211.116 276.956 211.721 278.014C212.326 279.072 212.628 280.332 212.628 281.794C212.628 283.356 212.276 284.73 211.57 285.914C210.89 287.073 209.907 287.968 208.622 288.598C207.362 289.228 205.862 289.543 204.123 289.543H195.467ZM199.436 286.028H203.783C205.245 286.028 206.404 285.637 207.261 284.856C208.118 284.075 208.546 282.991 208.546 281.605C208.546 280.194 208.118 279.06 207.261 278.203C206.404 277.346 205.245 276.918 203.783 276.918H199.436V286.028ZM199.436 273.516H203.556C204.917 273.516 205.988 273.15 206.769 272.42C207.551 271.689 207.941 270.706 207.941 269.471C207.941 268.236 207.551 267.266 206.769 266.561C205.988 265.83 204.93 265.464 203.594 265.464H199.436V273.516ZM240.722 289.543V261.949H248.433C250.248 261.949 251.823 262.302 253.158 263.007C254.494 263.688 255.527 264.658 256.258 265.918C257.014 267.178 257.392 268.665 257.392 270.378V281.076C257.392 282.764 257.014 284.251 256.258 285.536C255.527 286.821 254.494 287.817 253.158 288.522C251.823 289.203 250.248 289.543 248.433 289.543H240.722ZM244.804 285.839H248.433C249.945 285.839 251.13 285.423 251.986 284.591C252.868 283.734 253.309 282.563 253.309 281.076V270.378C253.309 268.917 252.868 267.77 251.986 266.939C251.13 266.082 249.945 265.653 248.433 265.653H244.804V285.839ZM263.803 289.543V261.949H280.019V265.578H267.81V273.402H278.696V276.993H267.81V285.914H280.019V289.543H263.803ZM294.369 289.921C292.504 289.921 290.904 289.619 289.568 289.014C288.232 288.384 287.199 287.502 286.468 286.368C285.738 285.209 285.372 283.835 285.372 282.248H289.417C289.417 283.508 289.858 284.503 290.74 285.234C291.622 285.939 292.844 286.292 294.406 286.292C295.868 286.292 297.015 285.939 297.846 285.234C298.678 284.528 299.094 283.558 299.094 282.323C299.094 281.29 298.804 280.395 298.224 279.639C297.67 278.883 296.863 278.367 295.805 278.09L292.327 277.069C290.311 276.489 288.749 275.507 287.64 274.121C286.557 272.709 286.015 271.034 286.015 269.093C286.015 267.581 286.355 266.258 287.035 265.124C287.716 263.99 288.686 263.108 289.946 262.478C291.206 261.848 292.693 261.533 294.406 261.533C296.926 261.533 298.942 262.214 300.454 263.574C301.992 264.935 302.773 266.762 302.798 269.055H298.716C298.716 267.846 298.325 266.901 297.544 266.22C296.788 265.515 295.717 265.162 294.331 265.162C292.995 265.162 291.949 265.49 291.193 266.145C290.437 266.775 290.059 267.669 290.059 268.829C290.059 269.862 290.337 270.756 290.891 271.512C291.471 272.268 292.29 272.798 293.348 273.1L296.863 274.158C298.879 274.713 300.429 275.696 301.513 277.107C302.596 278.518 303.138 280.206 303.138 282.172C303.138 283.709 302.773 285.07 302.042 286.254C301.311 287.414 300.291 288.321 298.98 288.976C297.67 289.606 296.133 289.921 294.369 289.921ZM309.285 289.543V285.914H314.841V265.578H309.285V261.949H324.556V265.578H318.999V285.914H324.556V289.543H309.285ZM339.737 289.921C338.023 289.921 336.524 289.606 335.239 288.976C333.979 288.321 332.996 287.388 332.29 286.179C331.61 284.944 331.27 283.508 331.27 281.87V269.622C331.27 267.959 331.61 266.523 332.29 265.313C332.996 264.104 333.979 263.184 335.239 262.554C336.524 261.899 338.023 261.571 339.737 261.571C341.45 261.571 342.937 261.899 344.197 262.554C345.457 263.209 346.427 264.141 347.108 265.351C347.813 266.535 348.166 267.959 348.166 269.622H344.084C344.084 268.186 343.706 267.09 342.95 266.334C342.194 265.578 341.123 265.2 339.737 265.2C338.351 265.2 337.267 265.578 336.486 266.334C335.73 267.09 335.352 268.173 335.352 269.585V281.87C335.352 283.281 335.73 284.377 336.486 285.158C337.267 285.939 338.351 286.33 339.737 286.33C341.123 286.33 342.194 285.939 342.95 285.158C343.706 284.377 344.084 283.281 344.084 281.87V278.77H338.943V275.179H348.166V281.87C348.166 283.508 347.813 284.931 347.108 286.141C346.427 287.351 345.457 288.283 344.197 288.938C342.937 289.593 341.45 289.921 339.737 289.921ZM353.973 289.543V261.949H359.113L367.165 284.894C367.114 284.163 367.051 283.293 366.976 282.285C366.9 281.277 366.837 280.232 366.787 279.148C366.762 278.064 366.749 277.082 366.749 276.2V261.949H370.529V289.543H365.388L357.375 266.598C357.425 267.254 357.475 268.073 357.526 269.055C357.601 270.038 357.652 271.059 357.677 272.117C357.727 273.176 357.753 274.158 357.753 275.066V289.543H353.973Z" fill="white"/>
<g opacity="0.5">
<g opacity="0.7" filter="url(#filter1_f_1023_70)">
<rect x="196.5" y="366.123" width="413.079" height="40.8916" transform="rotate(-45.9959 196.5 366.123)" fill="url(#paint0_linear_1023_70)" fill-opacity="0.2"/>
</g>
<g filter="url(#filter2_f_1023_70)">
<rect x="225.913" y="394.531" width="413.079" height="61.3123" transform="rotate(-45.9959 225.913 394.531)" fill="url(#paint1_linear_1023_70)" fill-opacity="0.4"/>
</g>
</g>
<g opacity="0.5">
<g opacity="0.7" filter="url(#filter3_f_1023_70)">
<rect x="-27" y="246.123" width="413.079" height="61.3123" transform="rotate(-45.9959 -27 246.123)" fill="url(#paint2_linear_1023_70)" fill-opacity="0.2"/>
</g>
<g opacity="0.5" filter="url(#filter4_f_1023_70)">
<rect x="17.1011" y="288.718" width="413.079" height="61.3123" transform="rotate(-45.9959 17.1011 288.718)" fill="url(#paint3_linear_1023_70)" fill-opacity="0.4"/>
</g>
</g>
</g>
</g>
<defs>
<filter id="filter0_d_1023_70" x="0.6" y="0.6" width="526.5" height="378" filterUnits="userSpaceOnUse" color-interpolation-filters="sRGB">
<feFlood flood-opacity="0" result="BackgroundImageFix"/>
<feColorMatrix in="SourceAlpha" type="matrix" values="0 0 0 0 0 0 0 0 0 0 0 0 0 0 0 0 0 0 127 0" result="hardAlpha"/>
<feOffset dx="3.6" dy="3.6"/>
<feGaussianBlur stdDeviation="4.5"/>
<feComposite in2="hardAlpha" operator="out"/>
<feColorMatrix type="matrix" values="0 0 0 0 0 0 0 0 0 0 0 0 0 0 0 0 0 0 0.1 0"/>
<feBlend mode="normal" in2="BackgroundImageFix" result="effect1_dropShadow_1023_70"/>
<feBlend mode="normal" in="SourceGraphic" in2="effect1_dropShadow_1023_70" result="shape"/>
</filter>
<filter id="filter1_f_1023_70" x="181.5" y="54" width="346.383" height="355.531" filterUnits="userSpaceOnUse" color-interpolation-filters="sRGB">
<feFlood flood-opacity="0" result="BackgroundImageFix"/>
<feBlend mode="normal" in="SourceGraphic" in2="BackgroundImageFix" result="shape"/>
<feGaussianBlur stdDeviation="7.5" result="effect1_foregroundBlur_1023_70"/>
</filter>
<filter id="filter2_f_1023_70" x="210.913" y="82.4077" width="361.071" height="369.718" filterUnits="userSpaceOnUse" color-interpolation-filters="sRGB">
<feFlood flood-opacity="0" result="BackgroundImageFix"/>
<feBlend mode="normal" in="SourceGraphic" in2="BackgroundImageFix" result="shape"/>
<feGaussianBlur stdDeviation="7.5" result="effect1_foregroundBlur_1023_70"/>
</filter>
<filter id="filter3_f_1023_70" x="-42" y="-66" width="361.071" height="369.718" filterUnits="userSpaceOnUse" color-interpolation-filters="sRGB">
<feFlood flood-opacity="0" result="BackgroundImageFix"/>
<feBlend mode="normal" in="SourceGraphic" in2="BackgroundImageFix" result="shape"/>
<feGaussianBlur stdDeviation="7.5" result="effect1_foregroundBlur_1023_70"/>
</filter>
<filter id="filter4_f_1023_70" x="2.10107" y="-23.4058" width="361.071" height="369.718" filterUnits="userSpaceOnUse" color-interpolation-filters="sRGB">
<feFlood flood-opacity="0" result="BackgroundImageFix"/>
<feBlend mode="normal" in="SourceGraphic" in2="BackgroundImageFix" result="shape"/>
<feGaussianBlur stdDeviation="7.5" result="effect1_foregroundBlur_1023_70"/>
</filter>
<linearGradient id="paint0_linear_1023_70" x1="403.039" y1="366.123" x2="403.039" y2="407.015" gradientUnits="userSpaceOnUse">
<stop stop-color="white" stop-opacity="0"/>
<stop offset="1" stop-color="white"/>
</linearGradient>
<linearGradient id="paint1_linear_1023_70" x1="432.452" y1="394.531" x2="432.452" y2="455.843" gradientUnits="userSpaceOnUse">
<stop/>
<stop offset="1" stop-opacity="0"/>
</linearGradient>
<linearGradient id="paint2_linear_1023_70" x1="179.539" y1="246.123" x2="179.539" y2="307.436" gradientUnits="userSpaceOnUse">
<stop stop-color="white" stop-opacity="0"/>
<stop offset="1" stop-color="white"/>
</linearGradient>
<linearGradient id="paint3_linear_1023_70" x1="223.64" y1="288.718" x2="223.64" y2="350.03" gradientUnits="userSpaceOnUse">
<stop/>
<stop offset="1" stop-opacity="0"/>
</linearGradient>
</defs>
</svg>
