<svg width="497" height="497" viewBox="0 0 497 497" fill="none" xmlns="http://www.w3.org/2000/svg">
<g filter="url(#filter0_d_487_6122)">
<path fill-rule="evenodd" clip-rule="evenodd" d="M379.906 6H339.094C333.424 19.5108 320.07 29 304.5 29C288.93 29 275.576 19.5108 269.906 6H229.094C223.424 19.5108 210.07 29 194.5 29C178.93 29 165.576 19.5108 159.906 6H119.094C113.424 19.5108 100.07 29 84.5 29C68.9298 29 55.576 19.5108 49.9062 6H10V46.3432C22.9767 52.2412 32 65.3169 32 80.5C32 95.6831 22.9767 108.759 10 114.657V156.343C22.9767 162.241 32 175.317 32 190.5C32 205.683 22.9767 218.759 10 224.657V266.343C22.9767 272.241 32 285.317 32 300.5C32 315.683 22.9767 328.759 10 334.657V376.343C22.9767 382.241 32 395.317 32 410.5C32 425.683 22.9767 438.759 10 444.657V483H46.7962C51.6513 467.915 65.801 457 82.5 457C99.1991 457 113.349 467.915 118.204 483H156.796C161.651 467.915 175.801 457 192.5 457C209.199 457 223.349 467.915 228.204 483H266.796C271.651 467.915 285.801 457 302.5 457C319.199 457 333.349 467.915 338.204 483H376.796C381.651 467.915 395.801 457 412.5 457C429.199 457 443.349 467.915 448.204 483H487V441.675C475.105 435.387 467 422.89 467 408.5C467 394.11 475.105 381.613 487 375.325V331.675C475.105 325.387 467 312.89 467 298.5C467 284.11 475.105 271.613 487 265.325V221.675C475.105 215.387 467 202.89 467 188.5C467 174.11 475.105 161.613 487 155.325V111.675C475.105 105.387 467 92.8902 467 78.5C467 64.1098 475.105 51.6127 487 45.3252V6H449.094C443.424 19.5108 430.07 29 414.5 29C398.93 29 385.576 19.5108 379.906 6Z" fill="#83D6F1"/>
</g>
<rect x="62" y="46" width="385" height="385" rx="10" fill="#92E4FF"/>
<path d="M154.731 317.162L148.197 298.424C147.873 297.488 147.621 296.786 147.441 296.318C147.297 295.85 147.189 295.454 147.117 295.13C147.045 294.806 146.955 294.428 146.847 293.996L144.741 294.104V290H157.701V293.456C156.585 293.492 155.937 293.924 155.757 294.752C155.577 295.58 155.631 296.552 155.919 297.668L157.755 304.256C157.971 305.048 158.169 305.894 158.349 306.794C158.565 307.658 158.745 308.522 158.889 309.386C159.069 308.63 159.249 307.802 159.429 306.902C159.645 306.002 159.951 304.886 160.347 303.554L164.289 290H170.175L174.495 304.904C174.711 305.66 174.927 306.488 175.143 307.388C175.395 308.252 175.611 309.044 175.791 309.764C175.935 309.044 176.133 308.252 176.385 307.388C176.637 306.524 176.871 305.75 177.087 305.066L179.193 298.208C179.481 297.236 179.733 296.444 179.949 295.832C180.165 295.184 180.435 294.536 180.759 293.888L177.681 294.104V290H187.941V293.456C187.221 293.456 186.591 293.69 186.051 294.158C185.511 294.626 185.025 295.202 184.593 295.886C184.197 296.534 183.873 297.182 183.621 297.83C183.369 298.442 183.189 298.928 183.081 299.288L176.925 317.162H171.201L167.475 305.66C167.367 305.264 167.187 304.688 166.935 303.932C166.719 303.176 166.485 302.366 166.233 301.502C166.017 300.602 165.801 299.774 165.585 299.018C165.405 300.026 165.135 301.178 164.775 302.474C164.415 303.77 164.073 304.958 163.749 306.038C163.425 307.118 163.191 307.856 163.047 308.252L160.077 317.162H154.731ZM207.964 317.864C205.336 317.864 203.014 317.288 200.998 316.136C198.982 314.948 197.416 313.292 196.3 311.168C195.184 309.008 194.626 306.47 194.626 303.554C194.626 301.034 195.184 298.676 196.3 296.48C197.416 294.284 198.982 292.52 200.998 291.188C203.05 289.82 205.426 289.136 208.126 289.136C209.638 289.136 211.114 289.352 212.554 289.784C213.994 290.18 215.29 290.882 216.442 291.89C217.63 292.898 218.566 294.266 219.25 295.994C219.97 297.722 220.312 299.882 220.276 302.474L202.564 302.798C202.564 304.742 202.798 306.488 203.266 308.036C203.77 309.584 204.58 310.808 205.696 311.708C206.812 312.608 208.306 313.058 210.178 313.058C210.898 313.058 211.708 312.932 212.608 312.68C213.544 312.428 214.48 312.014 215.416 311.438C216.388 310.826 217.288 310.016 218.116 309.008L220.546 311.276C219.25 313.112 217.864 314.516 216.388 315.488C214.912 316.424 213.436 317.054 211.96 317.378C210.52 317.702 209.188 317.864 207.964 317.864ZM202.888 299.018H212.824C212.788 297.506 212.572 296.318 212.176 295.454C211.816 294.554 211.312 293.906 210.664 293.51C210.016 293.114 209.26 292.916 208.396 292.916C206.812 292.916 205.57 293.492 204.67 294.644C203.77 295.76 203.176 297.218 202.888 299.018ZM230.81 286.49C230.81 285.842 230.81 285.104 230.81 284.276C230.846 283.412 230.9 282.584 230.972 281.792C230.396 281.828 229.712 281.864 228.92 281.9C228.164 281.9 227.588 281.918 227.192 281.954V277.85C228.884 277.85 230.288 277.76 231.404 277.58C232.556 277.4 233.456 277.184 234.104 276.932C234.788 276.68 235.256 276.446 235.508 276.23H238.424V292.052C239.648 290.972 240.89 290.216 242.15 289.784C243.41 289.352 244.598 289.136 245.714 289.136C247.874 289.136 249.764 289.694 251.384 290.81C253.04 291.926 254.318 293.51 255.218 295.562C256.154 297.614 256.622 300.026 256.622 302.798C256.622 305.678 256.082 308.27 255.002 310.574C253.958 312.842 252.464 314.624 250.52 315.92C248.576 317.216 246.236 317.864 243.5 317.864C242.528 317.864 241.286 317.648 239.774 317.216C238.298 316.82 236.93 315.956 235.67 314.624L234.05 317H230.81V286.49ZM238.424 308.9C238.424 310.124 238.622 311.096 239.018 311.816C239.414 312.536 239.918 313.058 240.53 313.382C241.142 313.706 241.754 313.886 242.366 313.922C243.986 313.958 245.246 313.49 246.146 312.518C247.082 311.546 247.73 310.268 248.09 308.684C248.486 307.064 248.684 305.372 248.684 303.608C248.684 301.952 248.486 300.386 248.09 298.91C247.694 297.434 247.064 296.246 246.2 295.346C245.336 294.41 244.202 293.96 242.798 293.996C241.898 294.032 241.07 294.266 240.314 294.698C239.558 295.094 238.928 295.634 238.424 296.318V308.9ZM295.985 317.864C293.825 317.864 291.917 317.306 290.261 316.19C288.641 315.074 287.363 313.49 286.427 311.438C285.527 309.386 285.077 306.974 285.077 304.202C285.077 301.286 285.635 298.694 286.751 296.426C287.867 294.158 289.433 292.376 291.449 291.08C293.465 289.784 295.805 289.136 298.469 289.136C299.441 289.136 300.305 289.244 301.061 289.46C301.853 289.64 302.591 289.856 303.275 290.108V286.544C303.275 286.04 303.293 285.32 303.329 284.384C303.365 283.448 303.419 282.584 303.491 281.792C302.915 281.828 302.231 281.864 301.439 281.9C300.647 281.936 300.053 281.954 299.657 281.954V277.85C301.349 277.85 302.753 277.76 303.869 277.58C305.021 277.4 305.921 277.184 306.569 276.932C307.253 276.68 307.721 276.446 307.973 276.23H310.889V308.306C310.889 308.81 310.871 309.53 310.835 310.466C310.799 311.366 310.745 312.23 310.673 313.058C311.285 312.986 311.933 312.95 312.617 312.95C313.301 312.914 313.823 312.896 314.183 312.896V317H303.923C303.887 316.604 303.833 316.19 303.761 315.758C303.725 315.326 303.671 314.912 303.599 314.516C302.411 315.74 301.187 316.604 299.927 317.108C298.667 317.612 297.353 317.864 295.985 317.864ZM298.793 312.95C299.729 312.95 300.593 312.716 301.385 312.248C302.177 311.744 302.807 311.114 303.275 310.358C303.275 309.818 303.275 309.278 303.275 308.738C303.275 308.198 303.275 307.658 303.275 307.118V294.158C302.915 293.87 302.375 293.636 301.655 293.456C300.935 293.24 300.197 293.132 299.441 293.132C297.785 293.168 296.489 293.69 295.553 294.698C294.617 295.706 293.951 296.984 293.555 298.532C293.195 300.08 293.015 301.7 293.015 303.392C293.015 304.904 293.195 306.398 293.555 307.874C293.951 309.35 294.563 310.574 295.391 311.546C296.255 312.482 297.389 312.95 298.793 312.95ZM335.929 317.864C333.301 317.864 330.979 317.288 328.963 316.136C326.947 314.948 325.381 313.292 324.265 311.168C323.149 309.008 322.591 306.47 322.591 303.554C322.591 301.034 323.149 298.676 324.265 296.48C325.381 294.284 326.947 292.52 328.963 291.188C331.015 289.82 333.391 289.136 336.091 289.136C337.603 289.136 339.079 289.352 340.519 289.784C341.959 290.18 343.255 290.882 344.407 291.89C345.595 292.898 346.531 294.266 347.215 295.994C347.935 297.722 348.277 299.882 348.241 302.474L330.529 302.798C330.529 304.742 330.763 306.488 331.231 308.036C331.735 309.584 332.545 310.808 333.661 311.708C334.777 312.608 336.271 313.058 338.143 313.058C338.863 313.058 339.673 312.932 340.573 312.68C341.509 312.428 342.445 312.014 343.381 311.438C344.353 310.826 345.253 310.016 346.081 309.008L348.511 311.276C347.215 313.112 345.829 314.516 344.353 315.488C342.877 316.424 341.401 317.054 339.925 317.378C338.485 317.702 337.153 317.864 335.929 317.864ZM330.853 299.018H340.789C340.753 297.506 340.537 296.318 340.141 295.454C339.781 294.554 339.277 293.906 338.629 293.51C337.981 293.114 337.225 292.916 336.361 292.916C334.777 292.916 333.535 293.492 332.635 294.644C331.735 295.76 331.141 297.218 330.853 299.018ZM367.631 317.162L359.099 298.424C358.703 297.524 358.415 296.84 358.235 296.372C358.091 295.904 357.983 295.508 357.911 295.184C357.875 294.824 357.803 294.428 357.695 293.996L355.697 294.104V290H368.333V293.456C367.577 293.492 367.073 293.708 366.821 294.104C366.569 294.5 366.479 295.022 366.551 295.67C366.623 296.282 366.785 296.948 367.037 297.668L369.845 304.58C370.133 305.264 370.421 305.966 370.709 306.686C370.997 307.406 371.285 308.126 371.573 308.846H371.627C371.915 308.09 372.185 307.334 372.437 306.578C372.725 305.822 372.995 305.066 373.247 304.31L375.569 297.722C375.893 296.822 376.181 296.102 376.433 295.562C376.721 295.022 377.027 294.464 377.351 293.888L374.003 294.104V290H384.263V293.456C383.435 293.6 382.697 294.068 382.049 294.86C381.401 295.616 380.843 296.48 380.375 297.452C379.907 298.388 379.529 299.216 379.241 299.936L372.329 317.162H367.631ZM390.804 331.634L386.592 328.88L416.724 276.23L421.638 279.362L390.804 331.634ZM97.8943 377.162L91.3603 358.424C91.0363 357.488 90.7843 356.786 90.6043 356.318C90.4603 355.85 90.3523 355.454 90.2803 355.13C90.2083 354.806 90.1183 354.428 90.0103 353.996L87.9043 354.104V350H100.864V353.456C99.7483 353.492 99.1003 353.924 98.9203 354.752C98.7403 355.58 98.7943 356.552 99.0823 357.668L100.918 364.256C101.134 365.048 101.332 365.894 101.512 366.794C101.728 367.658 101.908 368.522 102.052 369.386C102.232 368.63 102.412 367.802 102.592 366.902C102.808 366.002 103.114 364.886 103.51 363.554L107.452 350H113.338L117.658 364.904C117.874 365.66 118.09 366.488 118.306 367.388C118.558 368.252 118.774 369.044 118.954 369.764C119.098 369.044 119.296 368.252 119.548 367.388C119.8 366.524 120.034 365.75 120.25 365.066L122.356 358.208C122.644 357.236 122.896 356.444 123.112 355.832C123.328 355.184 123.598 354.536 123.922 353.888L120.844 354.104V350H131.104V353.456C130.384 353.456 129.754 353.69 129.214 354.158C128.674 354.626 128.188 355.202 127.756 355.886C127.36 356.534 127.036 357.182 126.784 357.83C126.532 358.442 126.352 358.928 126.244 359.288L120.088 377.162H114.364L110.638 365.66C110.53 365.264 110.35 364.688 110.098 363.932C109.882 363.176 109.648 362.366 109.396 361.502C109.18 360.602 108.964 359.774 108.748 359.018C108.568 360.026 108.298 361.178 107.938 362.474C107.578 363.77 107.236 364.958 106.912 366.038C106.588 367.118 106.354 367.856 106.21 368.252L103.24 377.162H97.8943ZM151.126 377.864C148.498 377.864 146.176 377.288 144.16 376.136C142.144 374.948 140.578 373.292 139.462 371.168C138.346 369.008 137.788 366.47 137.788 363.554C137.788 361.034 138.346 358.676 139.462 356.48C140.578 354.284 142.144 352.52 144.16 351.188C146.212 349.82 148.588 349.136 151.288 349.136C152.8 349.136 154.276 349.352 155.716 349.784C157.156 350.18 158.452 350.882 159.604 351.89C160.792 352.898 161.728 354.266 162.412 355.994C163.132 357.722 163.474 359.882 163.438 362.474L145.726 362.798C145.726 364.742 145.96 366.488 146.428 368.036C146.932 369.584 147.742 370.808 148.858 371.708C149.974 372.608 151.468 373.058 153.34 373.058C154.06 373.058 154.87 372.932 155.77 372.68C156.706 372.428 157.642 372.014 158.578 371.438C159.55 370.826 160.45 370.016 161.278 369.008L163.708 371.276C162.412 373.112 161.026 374.516 159.55 375.488C158.074 376.424 156.598 377.054 155.122 377.378C153.682 377.702 152.35 377.864 151.126 377.864ZM146.05 359.018H155.986C155.95 357.506 155.734 356.318 155.338 355.454C154.978 354.554 154.474 353.906 153.826 353.51C153.178 353.114 152.422 352.916 151.558 352.916C149.974 352.916 148.732 353.492 147.832 354.644C146.932 355.76 146.338 357.218 146.05 359.018ZM173.973 346.49C173.973 345.842 173.973 345.104 173.973 344.276C174.009 343.412 174.063 342.584 174.135 341.792C173.559 341.828 172.875 341.864 172.083 341.9C171.327 341.9 170.751 341.918 170.355 341.954V337.85C172.047 337.85 173.451 337.76 174.567 337.58C175.719 337.4 176.619 337.184 177.267 336.932C177.951 336.68 178.419 336.446 178.671 336.23H181.587V352.052C182.811 350.972 184.053 350.216 185.313 349.784C186.573 349.352 187.761 349.136 188.877 349.136C191.037 349.136 192.927 349.694 194.547 350.81C196.203 351.926 197.481 353.51 198.381 355.562C199.317 357.614 199.785 360.026 199.785 362.798C199.785 365.678 199.245 368.27 198.165 370.574C197.121 372.842 195.627 374.624 193.683 375.92C191.739 377.216 189.399 377.864 186.663 377.864C185.691 377.864 184.449 377.648 182.937 377.216C181.461 376.82 180.093 375.956 178.833 374.624L177.213 377H173.973V346.49ZM181.587 368.9C181.587 370.124 181.785 371.096 182.181 371.816C182.577 372.536 183.081 373.058 183.693 373.382C184.305 373.706 184.917 373.886 185.529 373.922C187.149 373.958 188.409 373.49 189.309 372.518C190.245 371.546 190.893 370.268 191.253 368.684C191.649 367.064 191.847 365.372 191.847 363.608C191.847 361.952 191.649 360.386 191.253 358.91C190.857 357.434 190.227 356.246 189.363 355.346C188.499 354.41 187.365 353.96 185.961 353.996C185.061 354.032 184.233 354.266 183.477 354.698C182.721 355.094 182.091 355.634 181.587 356.318V368.9ZM239.148 377.864C236.988 377.864 235.08 377.306 233.424 376.19C231.804 375.074 230.526 373.49 229.59 371.438C228.69 369.386 228.24 366.974 228.24 364.202C228.24 361.286 228.798 358.694 229.914 356.426C231.03 354.158 232.596 352.376 234.612 351.08C236.628 349.784 238.968 349.136 241.632 349.136C242.604 349.136 243.468 349.244 244.224 349.46C245.016 349.64 245.754 349.856 246.438 350.108V346.544C246.438 346.04 246.456 345.32 246.492 344.384C246.528 343.448 246.582 342.584 246.654 341.792C246.078 341.828 245.394 341.864 244.602 341.9C243.81 341.936 243.216 341.954 242.82 341.954V337.85C244.512 337.85 245.916 337.76 247.032 337.58C248.184 337.4 249.084 337.184 249.732 336.932C250.416 336.68 250.884 336.446 251.136 336.23H254.052V368.306C254.052 368.81 254.034 369.53 253.998 370.466C253.962 371.366 253.908 372.23 253.836 373.058C254.448 372.986 255.096 372.95 255.78 372.95C256.464 372.914 256.986 372.896 257.346 372.896V377H247.086C247.05 376.604 246.996 376.19 246.924 375.758C246.888 375.326 246.834 374.912 246.762 374.516C245.574 375.74 244.35 376.604 243.09 377.108C241.83 377.612 240.516 377.864 239.148 377.864ZM241.956 372.95C242.892 372.95 243.756 372.716 244.548 372.248C245.34 371.744 245.97 371.114 246.438 370.358C246.438 369.818 246.438 369.278 246.438 368.738C246.438 368.198 246.438 367.658 246.438 367.118V354.158C246.078 353.87 245.538 353.636 244.818 353.456C244.098 353.24 243.36 353.132 242.604 353.132C240.948 353.168 239.652 353.69 238.716 354.698C237.78 355.706 237.114 356.984 236.718 358.532C236.358 360.08 236.178 361.7 236.178 363.392C236.178 364.904 236.358 366.398 236.718 367.874C237.114 369.35 237.726 370.574 238.554 371.546C239.418 372.482 240.552 372.95 241.956 372.95ZM279.092 377.864C276.464 377.864 274.142 377.288 272.126 376.136C270.11 374.948 268.544 373.292 267.428 371.168C266.312 369.008 265.754 366.47 265.754 363.554C265.754 361.034 266.312 358.676 267.428 356.48C268.544 354.284 270.11 352.52 272.126 351.188C274.178 349.82 276.554 349.136 279.254 349.136C280.766 349.136 282.242 349.352 283.682 349.784C285.122 350.18 286.418 350.882 287.57 351.89C288.758 352.898 289.694 354.266 290.378 355.994C291.098 357.722 291.44 359.882 291.404 362.474L273.692 362.798C273.692 364.742 273.926 366.488 274.394 368.036C274.898 369.584 275.708 370.808 276.824 371.708C277.94 372.608 279.434 373.058 281.306 373.058C282.026 373.058 282.836 372.932 283.736 372.68C284.672 372.428 285.608 372.014 286.544 371.438C287.516 370.826 288.416 370.016 289.244 369.008L291.674 371.276C290.378 373.112 288.992 374.516 287.516 375.488C286.04 376.424 284.564 377.054 283.088 377.378C281.648 377.702 280.316 377.864 279.092 377.864ZM274.016 359.018H283.952C283.916 357.506 283.7 356.318 283.304 355.454C282.944 354.554 282.44 353.906 281.792 353.51C281.144 353.114 280.388 352.916 279.524 352.916C277.94 352.916 276.698 353.492 275.798 354.644C274.898 355.76 274.304 357.218 274.016 359.018ZM313.17 377.864C311.622 377.864 310.11 377.666 308.634 377.27C307.158 376.874 306.006 376.37 305.178 375.758L305.286 377.378H301.182L300.966 368.09H304.476C304.584 369.17 305.016 370.16 305.772 371.06C306.528 371.96 307.518 372.68 308.742 373.22C309.966 373.724 311.334 373.976 312.846 373.976C313.458 373.976 314.034 373.886 314.574 373.706C315.15 373.526 315.618 373.238 315.978 372.842C316.374 372.41 316.572 371.888 316.572 371.276C316.572 370.592 316.32 370.034 315.816 369.602C315.348 369.17 314.646 368.756 313.71 368.36C312.81 367.964 311.676 367.514 310.308 367.01C309.192 366.578 308.058 366.128 306.906 365.66C305.79 365.192 304.746 364.634 303.774 363.986C302.838 363.302 302.082 362.474 301.506 361.502C300.93 360.494 300.642 359.27 300.642 357.83C300.642 356.786 300.84 355.76 301.236 354.752C301.632 353.708 302.244 352.772 303.072 351.944C303.9 351.08 304.944 350.396 306.204 349.892C307.5 349.388 309.03 349.136 310.794 349.136C311.766 349.136 312.864 349.298 314.088 349.622C315.348 349.91 316.41 350.36 317.274 350.972V349.406H321.378V358.964H317.868C317.652 357.704 317.202 356.624 316.518 355.724C315.87 354.824 315.024 354.14 313.98 353.672C312.936 353.168 311.766 352.916 310.47 352.916C309.57 352.916 308.742 353.132 307.986 353.564C307.266 353.996 306.906 354.734 306.906 355.778C306.906 356.606 307.194 357.272 307.77 357.776C308.346 358.244 309.138 358.64 310.146 358.964C311.154 359.288 312.27 359.666 313.494 360.098C315.33 360.71 316.95 361.43 318.354 362.258C319.794 363.086 320.928 364.094 321.756 365.282C322.584 366.434 322.998 367.856 322.998 369.548C322.998 371.42 322.53 372.968 321.594 374.192C320.658 375.416 319.434 376.334 317.922 376.946C316.446 377.558 314.862 377.864 313.17 377.864ZM332.359 373.49C333.367 373.49 334.087 373.292 334.519 372.896C334.951 372.5 335.221 371.942 335.329 371.222C335.473 370.466 335.545 369.62 335.545 368.684V359.72C335.545 359.072 335.563 358.334 335.599 357.506C335.635 356.642 335.689 355.814 335.761 355.022C335.185 355.058 334.501 355.094 333.709 355.13C332.953 355.13 332.377 355.148 331.981 355.184V351.08C333.637 351.08 335.041 350.99 336.193 350.81C337.345 350.63 338.245 350.414 338.893 350.162C339.577 349.91 340.045 349.676 340.297 349.46H343.213V368.306C343.213 368.81 343.195 369.53 343.159 370.466C343.123 371.366 343.069 372.23 342.997 373.058C343.573 372.986 344.203 372.95 344.887 372.95C345.607 372.914 346.147 372.896 346.507 372.896V377H332.359V373.49ZM339.109 345.194C337.885 345.194 336.877 344.762 336.085 343.898C335.293 343.034 334.897 341.99 334.897 340.766C334.897 339.542 335.311 338.498 336.139 337.634C336.967 336.77 337.939 336.338 339.055 336.338C340.207 336.338 341.161 336.77 341.917 337.634C342.709 338.498 343.105 339.542 343.105 340.766C343.105 341.99 342.745 343.034 342.025 343.898C341.305 344.762 340.333 345.194 339.109 345.194ZM367.035 391.634C363.939 391.634 361.491 391.292 359.691 390.608C357.891 389.96 356.613 389.096 355.857 388.016C355.101 386.936 354.723 385.784 354.723 384.56C354.723 383.804 354.885 383.048 355.209 382.292C355.533 381.536 356.055 380.798 356.775 380.078C357.531 379.394 358.557 378.818 359.853 378.35C358.377 377.954 357.333 377.324 356.721 376.46C356.145 375.56 355.857 374.606 355.857 373.598C355.857 372.662 356.235 371.618 356.991 370.466C357.747 369.278 359.115 368.378 361.095 367.766C359.583 367.154 358.341 366.2 357.369 364.904C356.397 363.608 355.875 362.042 355.803 360.206C355.731 358.046 356.271 356.138 357.423 354.482C358.575 352.79 360.087 351.476 361.959 350.54C363.831 349.604 365.793 349.136 367.845 349.136C368.781 349.136 369.861 349.262 371.085 349.514C372.309 349.766 373.371 350.198 374.271 350.81C374.667 349.694 375.171 348.65 375.783 347.678C376.431 346.67 377.205 345.86 378.105 345.248C379.005 344.6 380.013 344.276 381.129 344.276C382.353 344.276 383.271 344.6 383.883 345.248C384.531 345.86 384.855 346.688 384.855 347.732C384.855 348.164 384.747 348.65 384.531 349.19C384.351 349.694 384.009 350.126 383.505 350.486C383.037 350.846 382.371 351.026 381.507 351.026C380.967 351.026 380.427 350.828 379.887 350.432C379.347 350 379.023 349.496 378.915 348.92C378.447 349.064 377.979 349.532 377.511 350.324C377.043 351.116 376.773 351.818 376.701 352.43C377.745 353.33 378.537 354.374 379.077 355.562C379.617 356.75 379.887 358.028 379.887 359.396C379.887 361.484 379.293 363.338 378.105 364.958C376.953 366.542 375.441 367.802 373.569 368.738C371.733 369.638 369.753 370.088 367.629 370.088C367.161 370.088 366.639 370.07 366.063 370.034C365.487 369.962 364.929 369.926 364.389 369.926C363.597 369.926 362.931 370.07 362.391 370.358C361.851 370.646 361.581 371.042 361.581 371.546C361.581 372.23 362.103 372.698 363.147 372.95C364.191 373.202 365.973 373.4 368.493 373.544C371.265 373.688 373.677 374.048 375.729 374.624C377.817 375.164 379.437 376.028 380.589 377.216C381.741 378.404 382.317 380.042 382.317 382.13C382.317 383.678 381.867 385.028 380.967 386.18C380.067 387.368 378.861 388.358 377.349 389.15C375.873 389.978 374.235 390.59 372.435 390.986C370.635 391.418 368.835 391.634 367.035 391.634ZM368.601 387.908C371.157 387.908 373.083 387.44 374.379 386.504C375.711 385.568 376.377 384.596 376.377 383.588C376.377 382.832 376.089 382.202 375.513 381.698C374.937 381.23 374.073 380.852 372.921 380.564C371.805 380.276 370.365 380.096 368.601 380.024C367.809 379.952 366.891 379.898 365.847 379.862C364.803 379.826 363.885 379.736 363.093 379.592C362.553 380.024 362.139 380.564 361.851 381.212C361.563 381.86 361.401 382.49 361.365 383.102C361.293 384.542 361.905 385.694 363.201 386.558C364.533 387.458 366.333 387.908 368.601 387.908ZM367.845 366.47C368.817 366.47 369.627 366.164 370.275 365.552C370.959 364.94 371.463 364.166 371.787 363.23C372.147 362.294 372.327 361.34 372.327 360.368C372.327 359.108 372.165 357.902 371.841 356.75C371.517 355.562 371.013 354.608 370.329 353.888C369.681 353.132 368.835 352.754 367.791 352.754C366.351 352.754 365.235 353.402 364.443 354.698C363.651 355.994 363.255 357.47 363.255 359.126C363.255 360.386 363.435 361.592 363.795 362.744C364.155 363.86 364.677 364.76 365.361 365.444C366.045 366.128 366.873 366.47 367.845 366.47ZM390.884 377V373.49C391.892 373.49 392.612 373.292 393.044 372.896C393.476 372.5 393.746 371.942 393.854 371.222C393.998 370.466 394.07 369.62 394.07 368.684V359.612C394.07 358.964 394.088 358.244 394.124 357.452C394.16 356.624 394.214 355.814 394.286 355.022C393.71 355.058 393.026 355.094 392.234 355.13C391.478 355.13 390.902 355.148 390.506 355.184V351.08C392.162 351.08 393.566 350.99 394.718 350.81C395.87 350.63 396.77 350.414 397.418 350.162C398.102 349.91 398.57 349.676 398.822 349.46H401.468C401.54 349.928 401.576 350.27 401.576 350.486C401.576 350.702 401.576 350.918 401.576 351.134C401.612 351.314 401.684 351.656 401.792 352.16C402.512 351.584 403.34 351.08 404.276 350.648C405.212 350.18 406.148 349.82 407.084 349.568C408.02 349.28 408.848 349.136 409.568 349.136C412.88 349.136 415.22 350.09 416.588 351.998C417.992 353.87 418.694 356.894 418.694 361.07V368.306C418.694 368.81 418.676 369.53 418.64 370.466C418.604 371.366 418.55 372.23 418.478 373.058C419.09 372.986 419.738 372.95 420.422 372.95C421.106 372.914 421.628 372.896 421.988 372.896V377H407.84V373.49C408.848 373.49 409.568 373.292 410 372.896C410.468 372.5 410.756 371.942 410.864 371.222C411.008 370.466 411.08 369.62 411.08 368.684L411.026 361.016C411.026 358.676 410.684 356.948 410 355.832C409.352 354.68 408.236 354.104 406.652 354.104C405.752 354.104 404.852 354.302 403.952 354.698C403.088 355.094 402.35 355.562 401.738 356.102C401.738 356.606 401.738 357.128 401.738 357.668C401.738 358.172 401.738 358.676 401.738 359.18V368.306C401.738 368.81 401.72 369.53 401.684 370.466C401.648 371.366 401.594 372.23 401.522 373.058C402.098 372.986 402.728 372.95 403.412 372.95C404.132 372.914 404.672 372.896 405.032 372.896V377H390.884Z" fill="#22687E"/>
<path d="M231.72 196.784L174.12 171.696V160.304L231.72 134.704V147.504L190.632 165.68L231.72 183.856V196.784ZM250.059 240.688L240.075 234.16L311.499 109.36L323.147 116.784L250.059 240.688ZM331.495 134.704L389.095 159.792V171.184L331.495 196.784V183.984L372.583 165.808L331.495 147.632V134.704Z" fill="#42A3C1"/>
<defs>
<filter id="filter0_d_487_6122" x="0" y="0" width="497" height="497" filterUnits="userSpaceOnUse" color-interpolation-filters="sRGB">
<feFlood flood-opacity="0" result="BackgroundImageFix"/>
<feColorMatrix in="SourceAlpha" type="matrix" values="0 0 0 0 0 0 0 0 0 0 0 0 0 0 0 0 0 0 127 0" result="hardAlpha"/>
<feOffset dy="4"/>
<feGaussianBlur stdDeviation="5"/>
<feComposite in2="hardAlpha" operator="out"/>
<feColorMatrix type="matrix" values="0 0 0 0 0 0 0 0 0 0 0 0 0 0 0 0 0 0 0.1 0"/>
<feBlend mode="normal" in2="BackgroundImageFix" result="effect1_dropShadow_487_6122"/>
<feBlend mode="normal" in="SourceGraphic" in2="effect1_dropShadow_487_6122" result="shape"/>
</filter>
</defs>
</svg>
