<svg width="467" height="226" viewBox="0 0 467 226" fill="none" xmlns="http://www.w3.org/2000/svg">
<g filter="url(#filter0_d_1023_317)">
<path d="M6.12012 75.2C6.12012 36.9819 37.102 6 75.3201 6H383.32C421.538 6 452.52 36.9819 452.52 75.2V142.4C452.52 180.618 421.538 211.6 383.32 211.6H75.32C37.1019 211.6 6.12012 180.618 6.12012 142.4V75.2Z" fill="white" shape-rendering="crispEdges"/>
<path d="M75.3203 7.5H383.32C420.71 7.50006 451.021 37.8106 451.021 75.2002V142.4C451.02 179.79 420.71 210.1 383.32 210.1H75.3203C37.9308 210.1 7.62032 179.79 7.62012 142.4V75.2002C7.62012 37.8105 37.9306 7.5 75.3203 7.5Z" stroke="black" stroke-opacity="0.2" stroke-width="3" shape-rendering="crispEdges"/>
<rect x="27.3201" y="27.2" width="404" height="163.2" rx="48" fill="#FDE3BE"/>
<rect x="27.3201" y="27.2" width="404" height="163.2" rx="48" stroke="#730030" stroke-width="6.4"/>
<mask id="mask0_1023_317" style="mask-type:luminance" maskUnits="userSpaceOnUse" x="54" y="69" width="64" height="80">
<path d="M54.4199 69.0508H117.02V148.549H54.4199V69.0508Z" fill="white"/>
</mask>
<g mask="url(#mask0_1023_317)">
<path d="M85.4867 148.367C67.8056 142.897 57.1003 125.15 56.1596 114.436C56.1511 114.286 56.1426 114.245 56.1426 72.5723V69.5671H116.57V114.178C115.638 125.008 104.932 142.906 87.2678 148.367L86.4103 148.558L85.4867 148.367Z" fill="white"/>
</g>
<path d="M114.764 71.0654H57.6494V72.5721C57.6494 100.184 57.6495 114.228 57.6555 114.303C58.5546 124.592 68.8853 141.657 85.9255 146.926L86.1919 147.01L86.2837 147.034L86.3755 147.07L86.4673 147.034L86.5507 147.01L86.817 146.926C103.849 141.657 114.163 124.533 115.062 114.169V71.0654H114.764Z" fill="#454F59"/>
<path d="M86.4773 76.9507H96.0005V85.9579H88.1921C88.1921 85.9579 87.6092 84.6759 86.4607 84.6925C85.3452 84.6985 84.7542 85.9579 84.7542 85.9579H76.9458V76.9507H86.4773Z" fill="#730030" stroke="#730030" stroke-width="0.233889"/>
<path d="M86.2942 88.1221H113.557V114.178C112.774 123.135 103.451 140.208 86.3773 145.494C69.3038 140.208 59.9388 123.135 59.1562 114.178V88.1221H86.4273H86.2942Z" fill="#FAB83A" stroke="#FAB83A" stroke-width="0.233889"/>
<path d="M68.1634 85.6914H68.8293C68.6293 85.55 68.2549 85.3749 68.2301 84.7175C68.1878 83.7352 68.4217 82.9693 68.4217 82.9693L70.7858 83.1691L70.3194 82.4201L72.7751 80.0891L72.1092 79.8814L72.5338 78.2165L71.002 78.5408L70.7273 77.775L69.6533 78.9987L69.9366 76.1184L69.0543 76.8427L68.022 74.8364L66.9898 76.8427L66.1158 76.1184L66.3991 78.9987L65.3251 77.775L65.0502 78.5408L63.5187 78.2165L63.9432 79.8814L63.269 80.0891L65.7331 82.4201L65.2582 83.1691L67.6308 82.9693C67.6308 82.9693 67.8801 83.7435 67.8221 84.7175C67.7799 85.3751 67.423 85.5498 67.223 85.6914H68.1634Z" fill="#FAB83A" stroke="#FAB83A" stroke-width="0.233889"/>
<path d="M104.416 85.6914H103.75C103.95 85.55 104.325 85.3749 104.35 84.7175C104.392 83.7352 104.158 82.9693 104.158 82.9693L101.786 83.1691L102.26 82.4201L99.7964 80.0891L100.479 79.8814L100.046 78.2165L101.578 78.5408L101.852 77.775L102.926 78.9987L102.643 76.1184L103.525 76.8427L104.558 74.8364L105.59 76.8427L106.464 76.1184L106.181 78.9987L107.254 77.775L107.529 78.5408L109.061 78.2165L108.636 79.8814L109.311 80.0891L106.847 82.4201L107.321 83.1691L104.949 82.9693C104.949 82.9693 104.699 83.7435 104.757 84.7175C104.8 85.3751 105.157 85.5498 105.357 85.6914H104.416Z" fill="#FAB83A" stroke="#FAB83A" stroke-width="0.233889"/>
<path d="M86.4771 83.7685C87.5593 82.628 90.5312 84.4178 91.5302 84.5426C92.0128 84.603 94.402 84.5789 94.402 84.5789V75.5802L93.245 75.5741C93.245 75.5741 91.5468 75.6575 90.6728 75.2993C89.7987 74.9416 87.5343 74.1422 86.4771 75.7155C85.4199 74.1422 83.1474 74.9413 82.2734 75.2993C81.3993 75.6575 79.7094 75.5741 79.7094 75.5741L78.5439 75.5802V84.5789C78.5439 84.5789 80.9332 84.603 81.4159 84.5426C82.4149 84.4176 85.3949 82.628 86.4771 83.7685Z" fill="#FAB83A"/>
<path d="M86.4771 83.7684C87.5593 82.6279 90.5311 84.4178 91.53 84.5427C92.0127 84.6031 94.402 84.5788 94.402 84.5788V75.5801L93.245 75.574C93.245 75.574 91.5467 75.6573 90.6726 75.2991C89.7985 74.9409 87.5343 74.1421 86.4771 75.7154C85.4199 74.1421 83.1473 74.9411 82.2732 75.2991C81.3991 75.6567 79.7094 75.574 79.7094 75.574L78.5439 75.5801V84.5788C78.5439 84.5788 80.9331 84.6031 81.4159 84.5427C82.4149 84.4176 85.395 82.6279 86.4771 83.7684Z" stroke="#FAB83A" stroke-width="0.233889"/>
<path d="M86.1694 83.5436L86.4777 83.7683L86.7688 83.552V75.344L86.4777 75.7101L86.1694 75.344V83.5436Z" fill="#730030" stroke="#730030" stroke-width="0.233889"/>
<path d="M82.6569 99.2854C82.6569 99.2854 85.4206 99.4684 85.6371 97.096C85.6371 97.096 85.8533 98.8774 86.3946 98.8857C87.0189 98.8797 87.0188 97.0295 87.0188 97.0295C87.9678 99.5601 90.357 99.7265 90.357 99.7265C88.3509 98.3447 88.4589 94.6403 88.4838 94.3573C88.6004 92.501 90.1988 92.6757 90.3236 91.5769C90.4904 90.0536 88.6588 90.3781 88.6588 90.3781C88.6588 90.3781 89.4329 90.3842 89.5744 90.7612C89.9073 91.6352 88.409 91.7351 88.409 91.7351C86.5859 92.2099 85.9616 91.1274 85.304 91.0025C84.638 90.8859 84.5215 91.3191 84.38 91.4774C84.2386 91.6356 81.4248 91.794 80.8421 92.4181C80.1678 93.1257 80.2428 93.958 80.7007 94.4825C80.7007 94.4825 80.9587 93.4919 82.0244 93.4586C83.0566 93.4163 84.8546 94.7988 85.2542 95.6063C84.8047 95.6304 80.784 95.8897 80.2596 95.5067C79.9267 95.2572 79.5519 94.7575 79.5686 94.4329C79.5686 94.4329 79.3602 95.4651 79.8435 95.7897C80.3261 96.1226 80.4761 96.0645 80.7674 96.0808C81.0502 96.0989 84.9381 95.9811 85.346 95.9811C85.2542 96.2722 85.346 97.0217 84.4969 97.0966H81.2919C81.2919 97.0966 81.2002 97.9041 82.4491 97.5545C82.707 97.4796 83.5479 97.2549 83.8059 97.7044C83.9726 98.004 84.5382 99.0106 82.6569 99.2854Z" fill="#730030"/>
<path d="M82.6569 99.2854C82.6569 99.2854 85.4206 99.4684 85.6371 97.096C85.6371 97.096 85.8533 98.8775 86.3946 98.8859C87.0189 98.8798 87.0188 97.0295 87.0188 97.0295C87.9678 99.5601 90.357 99.7265 90.357 99.7265C88.3508 98.3446 88.459 94.6404 88.484 94.3573C88.6006 92.501 90.1988 92.6757 90.3236 91.5769C90.4904 90.0536 88.6588 90.3781 88.6588 90.3781C88.6588 90.3781 89.4329 90.3842 89.5744 90.7612C89.9073 91.6353 88.409 91.7351 88.409 91.7351C86.5859 92.2099 85.9616 91.1274 85.304 91.0025C84.638 90.8859 84.5215 91.3191 84.38 91.4774C84.2386 91.6356 81.4248 91.794 80.8421 92.4181C80.1678 93.1257 80.2428 93.958 80.7007 94.4825C80.7007 94.4825 80.9587 93.4919 82.0244 93.4586C83.0566 93.4163 84.8546 94.7988 85.2542 95.6063C84.8047 95.6304 80.784 95.8897 80.2596 95.5067C79.9267 95.2572 79.5519 94.7575 79.5686 94.4329C79.5686 94.4329 79.3602 95.465 79.8435 95.7897C80.3261 96.1226 80.4763 96.0645 80.7676 96.0808C81.0503 96.0989 84.9381 95.9813 85.346 95.9813C85.2542 96.2724 85.346 97.0219 84.4969 97.0968H81.2919C81.2919 97.0968 81.2002 97.9043 82.4491 97.5547C82.707 97.4798 83.5479 97.2549 83.8059 97.7044C83.9726 98.004 84.5382 99.0107 82.6569 99.2854Z" stroke="#730030" stroke-width="0.233889"/>
<path d="M84.7287 127.23C83.5883 127.971 81.6571 127.347 81.6571 127.347C81.6571 127.347 81.6993 127.88 79.9671 128.612C77.3699 129.703 74.6396 132.458 78.2108 136.471C78.2108 136.471 76.7291 131.901 79.0183 130.835C79.0183 130.835 81.0078 132.783 83.8881 128.92C84.4626 128.138 84.7287 127.23 84.7287 127.23Z" fill="#730030"/>
<path d="M84.7287 127.23C83.5883 127.971 81.6571 127.347 81.6571 127.347C81.6571 127.347 81.6993 127.88 79.9671 128.612C77.3699 129.703 74.6396 132.458 78.2108 136.471C78.2108 136.471 76.7291 131.901 79.0183 130.835C79.0183 130.835 81.0078 132.783 83.8881 128.92C84.4626 128.138 84.7287 127.23 84.7287 127.23Z" stroke="#730030" stroke-width="0.233889"/>
<path d="M78.2781 111.139C78.1863 112.321 78.0117 112.371 76.9295 112.904C76.9295 112.904 76.5049 112.505 76.2886 112.097C75.6226 110.806 76.7465 108.9 76.7465 108.9C75.5228 110.407 73.7497 109.899 73.7497 109.899C73.8826 108.617 75.6059 107.443 75.6059 107.443C74.0159 107.743 72.7673 106.869 72.7673 106.869C73.2083 106.028 74.8818 104.979 74.8818 104.979C73.2668 104.871 72.1348 103.864 72.1348 103.864C72.6174 103.173 74.4323 102.274 74.4323 102.274C73.5666 101.758 72.709 100.251 72.709 100.251C73.941 99.585 75.3646 99.7349 75.3646 99.7349C73.0836 98.0618 75.5477 93.5083 75.5477 93.5083C75.1979 100.384 80.5007 98.5946 80.0928 102.099C79.7515 104.979 76.6215 102.865 76.6215 102.865C76.0718 106.877 78.3695 107.252 78.3695 107.252C78.3695 107.252 78.253 108.218 78.2198 109.242C78.1775 110.482 78.3173 110.565 78.2781 111.139Z" fill="#730030"/>
<path d="M78.2781 111.139C78.1863 112.321 78.0117 112.371 76.9295 112.904C76.9295 112.904 76.5049 112.505 76.2886 112.097C75.6226 110.806 76.7465 108.9 76.7465 108.9C75.5228 110.407 73.7497 109.899 73.7497 109.899C73.8826 108.617 75.6059 107.443 75.6059 107.443C74.016 107.743 72.7673 106.869 72.7673 106.869C73.2083 106.028 74.8818 104.979 74.8818 104.979C73.2668 104.871 72.1348 103.864 72.1348 103.864C72.6174 103.173 74.4323 102.274 74.4323 102.274C73.5666 101.758 72.709 100.251 72.709 100.251C73.941 99.5849 75.3646 99.7349 75.3646 99.7349C73.0837 98.0617 75.5477 93.5083 75.5477 93.5083C75.1979 100.384 80.5006 98.5945 80.0926 102.099C79.7513 104.979 76.6215 102.865 76.6215 102.865C76.0724 106.877 78.3695 107.252 78.3695 107.252C78.3695 107.252 78.253 108.218 78.2198 109.242C78.1775 110.482 78.3173 110.565 78.2781 111.139Z" stroke="#730030" stroke-width="0.233889"/>
<path d="M71.2937 121.137C78.5942 120.962 79.901 115.427 79.901 115.427C79.2017 114.403 79.077 113.87 79.077 113.87L78.9688 113.57C78.4776 114.094 76.638 114.777 76.638 114.777C76.638 114.777 75.5808 113.862 75.3144 113.479C74.6068 112.455 74.4986 111.714 74.4986 111.714C73.2583 111.744 72.126 110.665 72.126 110.665C72.0511 109.533 72.5176 108.584 72.5176 108.584C71.6435 108.176 70.7277 107.277 70.7277 107.277C71.327 106.028 71.7101 105.62 71.7101 105.62C70.3033 104.53 70.2534 103.864 70.2534 103.864C70.6031 102.915 71.8849 101.991 71.8849 101.991C71.3352 101.25 70.811 99.8098 70.811 99.8098C71.8266 98.7943 72.8006 98.4862 72.8006 98.4862C72.6507 97.9117 72.684 97.3624 72.7257 96.7548C72.7257 96.7548 64.3512 92.3928 63.4272 89.5708C63.4272 89.5708 63.0358 92.0765 63.194 93.6914C63.3354 95.1315 65.5664 97.479 70.9523 101.084C67.6474 100.575 63.1191 98.8026 62.1285 97.0295C62.1285 97.0295 62.1103 99.6018 62.686 101.125C63.1523 102.357 65.4913 103.24 70.769 105.837C68.1634 107.269 63.5435 105.679 62.2199 104.347C62.2199 104.347 62.9523 106.586 63.8181 107.959C64.3678 108.834 66.5568 110.29 71.643 109.541C69.7534 111.889 66.1324 113.662 63.6767 112.546C63.6767 112.546 63.9261 114.777 65.4164 115.427C66.5235 115.909 68.8461 116.217 72.5589 113.345C70.3196 118.881 64.867 117.191 64.867 117.191C64.867 117.191 66.1573 119.397 67.5891 120.163C68.8628 120.837 71.4932 120.296 75.7553 115.66C75.7553 115.66 75.4891 119.763 71.2937 121.137Z" fill="#730030"/>
<path d="M71.2935 121.137C78.594 120.962 79.901 115.427 79.901 115.427C79.2017 114.403 79.077 113.87 79.077 113.87L78.9688 113.57C78.4776 114.094 76.638 114.777 76.638 114.777C76.638 114.777 75.5807 113.862 75.3144 113.479C74.6067 112.455 74.4986 111.714 74.4986 111.714C73.2583 111.75 72.1262 110.665 72.1262 110.665C72.0513 109.533 72.5176 108.584 72.5176 108.584C71.6435 108.176 70.7277 107.277 70.7277 107.277C71.327 106.028 71.7101 105.62 71.7101 105.62C70.3033 104.53 70.2534 103.864 70.2534 103.864C70.6031 102.915 71.8849 101.991 71.8849 101.991C71.3352 101.25 70.811 99.8098 70.811 99.8098C71.8266 98.7943 72.8006 98.4862 72.8006 98.4862C72.6507 97.9117 72.684 97.3625 72.7257 96.7548C72.7257 96.7548 64.3512 92.3928 63.4272 89.5708C63.4272 89.5708 63.0358 92.0765 63.194 93.6914C63.3354 95.1315 65.5665 97.479 70.9524 101.084C67.6476 100.575 63.1191 98.8026 62.1285 97.0295C62.1285 97.0295 62.1105 99.6018 62.6861 101.125C63.1525 102.357 65.4915 103.24 70.7692 105.837C68.1636 107.269 63.5435 105.679 62.2199 104.347C62.2199 104.347 62.9525 106.586 63.8182 107.959C64.368 108.833 66.557 110.29 71.6432 109.541C69.7536 111.889 66.1324 113.662 63.6767 112.546C63.6767 112.546 63.9262 114.777 65.4166 115.427C66.5237 115.909 68.8461 116.217 72.5589 113.345C70.3195 118.881 64.8672 117.191 64.8672 117.191C64.8672 117.191 66.1575 119.397 67.5893 120.163C68.863 120.837 71.4934 120.296 75.7555 115.66C75.7555 115.66 75.489 119.764 71.2935 121.137Z" stroke="#730030" stroke-width="0.233889"/>
<path d="M80.6999 116.933C80.6999 116.933 82.1317 118.948 82.5812 120.28C82.5812 120.28 79.7427 122.727 80.2505 125.416C80.2505 125.416 79.2931 123.468 79.9507 121.986L80.3089 121.021C80.3089 121.021 77.8533 122.194 76.23 121.32C76.23 121.32 77.9781 121.52 79.9094 118.465C80.9416 116.833 80.6999 116.933 80.6999 116.933Z" fill="#730030"/>
<path d="M80.6999 116.933C80.6999 116.933 82.1317 118.948 82.5812 120.28C82.5812 120.28 79.7427 122.727 80.2505 125.416C80.2505 125.416 79.2931 123.468 79.9507 121.986L80.3089 121.021C80.3089 121.021 77.8533 122.194 76.23 121.32C76.23 121.32 77.9782 121.52 79.9094 118.465C80.9417 116.833 80.6999 116.933 80.6999 116.933Z" stroke="#730030" stroke-width="0.233889"/>
<path d="M71.2601 125.208C70.9273 125.226 69.6451 124.758 69.3121 125.724C68.9291 126.856 70.2445 127.355 71.002 126.698C71.8178 125.99 73.0665 126.007 73.3579 126.506C73.4908 126.739 73.6659 127.239 72.5587 128.071C72.2174 128.337 70.3693 129.478 71.6596 130.701C72.1006 131.109 73.2996 130.943 73.6077 129.278C73.8324 128.029 74.2154 127.397 74.6732 127.189C74.9064 127.081 75.6554 126.864 76.0549 127.195L76.421 127.478C77.087 127.919 77.9194 127.395 77.7447 126.67C77.5447 125.838 76.8955 126.038 76.421 126.271C76.0713 126.446 75.6219 126.295 75.6219 126.295C75.3053 126.137 75.2057 125.779 75.7216 125.53C77.9526 124.472 78.3855 123.249 78.3855 123.249C77.32 123.374 76.4291 123.049 76.4291 123.049C76.4291 123.049 74.4229 125.729 72.8996 125.022C72.4084 124.788 72.2169 123.981 72.2086 123.606C72.1905 122.807 71.3097 122.391 70.8269 122.957C70.3606 123.498 70.8933 124.064 71.3682 124.247C71.6515 124.364 72.0841 124.73 71.9094 125.013C71.7348 125.297 71.4848 125.191 71.2601 125.208Z" fill="#730030"/>
<path d="M71.2601 125.208C70.9273 125.226 69.6451 124.758 69.3121 125.724C68.9291 126.856 70.2445 127.355 71.002 126.698C71.8178 125.99 73.0665 126.007 73.3579 126.506C73.4908 126.739 73.6659 127.239 72.5587 128.071C72.2174 128.337 70.3693 129.478 71.6596 130.702C72.1006 131.109 73.2996 130.943 73.6076 129.278C73.8324 128.029 74.2154 127.397 74.6732 127.189C74.9064 127.081 75.6554 126.864 76.0549 127.195L76.421 127.478C77.087 127.919 77.9193 127.395 77.7445 126.671C77.5445 125.838 76.8955 126.038 76.421 126.271C76.0713 126.446 75.6219 126.295 75.6219 126.295C75.3053 126.137 75.2055 125.78 75.7214 125.53C77.9524 124.472 78.3853 123.249 78.3853 123.249C77.3197 123.374 76.4291 123.049 76.4291 123.049C76.4291 123.049 74.4229 125.729 72.8996 125.022C72.4084 124.789 72.2169 123.981 72.2086 123.606C72.1905 122.807 71.3096 122.391 70.8267 122.957C70.3604 123.498 70.8932 124.064 71.368 124.247C71.6513 124.364 72.0839 124.73 71.9092 125.013C71.7346 125.297 71.4848 125.191 71.2601 125.208Z" stroke="#730030" stroke-width="0.233889"/>
<path d="M70.4861 122.269C70.4861 122.269 70.0785 122.452 70.0199 122.827C70.0199 122.827 69.2374 122.244 68.688 123.16C68.688 123.16 68.8379 121.695 70.4861 122.269Z" fill="#730030"/>
<path d="M70.4861 122.269C70.4861 122.269 70.0785 122.452 70.0199 122.827C70.0199 122.827 69.2374 122.244 68.688 123.16C68.688 123.16 68.8379 121.695 70.4861 122.269Z" stroke="#730030" stroke-width="0.233889"/>
<path d="M68.5625 125.999C68.5625 125.999 68.3795 126.406 68.7371 127.014C68.7371 127.014 67.7382 127.38 68.4043 128.654C68.4043 128.654 66.9474 127.264 68.5625 125.999Z" fill="#730030"/>
<path d="M68.5625 125.999C68.5625 125.999 68.3795 126.406 68.7371 127.014C68.7371 127.014 67.7383 127.38 68.4043 128.654C68.4043 128.654 66.9474 127.264 68.5625 125.999Z" stroke="#730030" stroke-width="0.233889"/>
<path d="M70.5861 130.444C70.5861 130.444 70.5619 130.893 71.1104 131.326C71.1104 131.326 70.3031 132.025 71.3685 132.983C71.3685 132.983 69.5289 132.192 70.5861 130.444Z" fill="#730030"/>
<path d="M70.5861 130.444C70.5861 130.444 70.5619 130.893 71.1104 131.326C71.1104 131.326 70.3031 132.025 71.3685 132.983C71.3685 132.983 69.5289 132.192 70.5861 130.444Z" stroke="#730030" stroke-width="0.233889"/>
<path d="M78.4195 127.447C78.6859 127.555 78.919 127.821 78.8109 128.537C78.8109 128.537 79.7931 127.522 78.4448 126.739L78.3035 126.665C78.3035 126.665 78.4532 127.089 78.2285 127.389L78.4195 127.447Z" fill="#730030"/>
<path d="M78.4195 127.447C78.6859 127.555 78.919 127.822 78.8109 128.538C78.8109 128.538 79.7931 127.522 78.4448 126.739L78.3035 126.665C78.3035 126.665 78.4532 127.089 78.2285 127.389L78.4195 127.447Z" stroke="#730030" stroke-width="0.233889"/>
<path d="M94.2441 127.38C93.9777 127.488 93.753 127.755 93.8527 128.471C93.8527 128.471 92.8705 127.455 94.2188 126.673L94.3602 126.598C94.3602 126.598 94.2104 127.022 94.4351 127.322L94.2441 127.38Z" fill="#730030"/>
<path d="M94.2441 127.38C93.9777 127.488 93.753 127.755 93.8527 128.471C93.8527 128.471 92.8705 127.455 94.2188 126.673L94.3602 126.598C94.3602 126.598 94.2104 127.022 94.4351 127.322L94.2441 127.38Z" stroke="#730030" stroke-width="0.233889"/>
<path d="M86.4028 100.967C87.102 100.759 87.4267 100.251 87.4267 100.251C87.9009 100.867 89.3246 101.208 90.0072 101.258C91.6804 105.637 95.2849 108.292 91.9468 114.219C88.4588 120.413 85.9366 121.254 90.7981 125.491C90.7981 125.491 87.693 126.356 86.9687 123.668C86.9687 123.668 87.1271 126.631 86.4028 127.414C85.6785 126.631 85.8199 123.709 85.8199 123.709C85.0956 126.398 81.9905 125.532 81.9905 125.532C86.852 121.295 84.3298 120.454 80.8501 114.261C77.5037 108.326 81.1412 105.662 82.8063 101.283C83.5721 101.208 84.8541 100.884 85.4285 100.268C85.4285 100.268 85.6952 100.767 86.4028 100.967Z" fill="#730030"/>
<path d="M86.4028 100.967C87.1021 100.759 87.4267 100.251 87.4267 100.251C87.9009 100.867 89.3246 101.208 90.0072 101.258C91.6805 105.637 95.2849 108.292 91.9468 114.219C88.4589 120.413 85.9366 121.254 90.7981 125.491C90.7981 125.491 87.693 126.356 86.9687 123.668C86.9687 123.668 87.1271 126.631 86.4028 127.414C85.6785 126.631 85.8199 123.709 85.8199 123.709C85.0956 126.398 81.9905 125.532 81.9905 125.532C86.852 121.295 84.3298 120.454 80.8501 114.261C77.5037 108.326 81.1412 105.662 82.8063 101.283C83.5721 101.208 84.8541 100.884 85.4285 100.268C85.4285 100.268 85.6952 100.767 86.4028 100.967Z" stroke="#730030" stroke-width="0.233889"/>
<path d="M88.0674 127.23C89.2079 127.971 91.139 127.347 91.139 127.347C91.139 127.347 91.0908 127.88 92.829 128.612C95.4262 129.703 98.1567 132.458 94.5855 136.471C94.5855 136.471 96.0672 131.901 93.778 130.835C93.778 130.835 91.7885 132.783 88.9165 128.92C88.3257 128.138 88.0674 127.23 88.0674 127.23Z" fill="#730030"/>
<path d="M88.0674 127.23C89.2078 127.971 91.139 127.347 91.139 127.347C91.139 127.347 91.0908 127.88 92.829 128.612C95.4262 129.703 98.1566 132.458 94.5855 136.471C94.5855 136.471 96.0672 131.901 93.778 130.835C93.778 130.835 91.7885 132.783 88.9165 128.92C88.3257 128.138 88.0674 127.23 88.0674 127.23Z" stroke="#730030" stroke-width="0.233889"/>
<path d="M94.5186 111.139C94.6104 112.321 94.7851 112.371 95.8673 112.904C95.8673 112.904 96.2919 112.505 96.5081 112.097C97.1741 110.806 96.0504 108.9 96.0504 108.9C97.2741 110.407 99.0472 109.899 99.0472 109.899C98.9143 108.617 97.1991 107.443 97.1991 107.443C98.7807 107.743 100.029 106.869 100.029 106.869C99.5884 106.028 97.9149 104.979 97.9149 104.979C99.5298 104.871 100.662 103.864 100.662 103.864C100.179 103.173 98.3645 102.274 98.3645 102.274C99.2302 101.758 100.088 100.251 100.088 100.251C98.8556 99.585 97.4323 99.7349 97.4323 99.7349C99.7132 98.0618 97.2492 93.5083 97.2492 93.5083C97.599 100.384 92.2962 98.5946 92.704 102.099C93.0453 104.979 96.1754 102.865 96.1754 102.865C96.7245 106.877 94.4272 107.252 94.4272 107.252C94.4272 107.252 94.5438 108.218 94.577 109.242C94.6193 110.482 94.4793 110.565 94.5186 111.139Z" fill="#730030"/>
<path d="M94.5186 111.139C94.6104 112.321 94.7851 112.371 95.8673 112.904C95.8673 112.904 96.2919 112.505 96.5081 112.097C97.1741 110.806 96.0504 108.9 96.0504 108.9C97.2741 110.407 99.0472 109.899 99.0472 109.899C98.9143 108.617 97.1991 107.443 97.1991 107.443C98.7807 107.743 100.029 106.869 100.029 106.869C99.5884 106.028 97.9149 104.979 97.9149 104.979C99.5298 104.871 100.662 103.864 100.662 103.864C100.179 103.173 98.3645 102.274 98.3645 102.274C99.2302 101.758 100.088 100.251 100.088 100.251C98.8556 99.5849 97.4323 99.7349 97.4323 99.7349C99.7132 98.0617 97.2492 93.5083 97.2492 93.5083C97.599 100.384 92.2962 98.5945 92.704 102.099C93.0453 104.979 96.1754 102.865 96.1754 102.865C96.7251 106.877 94.4272 107.252 94.4272 107.252C94.4272 107.252 94.5438 108.218 94.577 109.242C94.6193 110.482 94.4793 110.565 94.5186 111.139Z" stroke="#730030" stroke-width="0.233889"/>
<path d="M101.503 121.137C94.2025 120.962 92.9038 115.427 92.9038 115.427C93.5948 114.403 93.7196 113.87 93.7196 113.87L93.8363 113.57C94.3189 114.094 96.1587 114.777 96.1587 114.777C96.1587 114.777 97.2159 113.862 97.4823 113.479C98.1899 112.455 98.3066 111.714 98.3066 111.714C99.5386 111.744 100.671 110.665 100.671 110.665C100.746 109.533 100.279 108.584 100.279 108.584C101.153 108.176 102.061 107.277 102.061 107.277C101.47 106.028 101.087 105.62 101.087 105.62C102.493 104.53 102.544 103.864 102.544 103.864C102.194 102.915 100.912 101.991 100.912 101.991C101.462 101.25 101.986 99.8098 101.986 99.8098C100.97 98.7943 99.9962 98.4862 99.9962 98.4862C100.146 97.9117 100.113 97.3624 100.071 96.7548C100.071 96.7548 108.445 92.3928 109.369 89.5708C109.369 89.5708 109.761 92.0765 109.603 93.6914C109.461 95.1315 107.23 97.479 101.844 101.084C105.149 100.575 109.678 98.8026 110.668 97.0295C110.668 97.0295 110.686 99.6018 110.111 101.125C109.644 102.357 107.305 103.24 102.028 105.837C104.633 107.269 109.253 105.679 110.577 104.347C110.577 104.347 109.844 106.586 108.978 107.959C108.429 108.834 106.24 110.29 101.154 109.541C103.043 111.889 106.664 113.662 109.12 112.546C109.12 112.546 108.871 114.777 107.38 115.427C106.273 115.909 103.951 116.217 100.238 113.345C102.477 118.881 107.93 117.191 107.93 117.191C107.93 117.191 106.639 119.397 105.208 120.163C103.934 120.837 101.303 120.296 97.0412 115.66C97.0412 115.66 97.3075 119.763 101.503 121.137Z" fill="#730030"/>
<path d="M101.503 121.137C94.2025 120.962 92.9038 115.427 92.9038 115.427C93.5948 114.403 93.7196 113.87 93.7196 113.87L93.8363 113.57C94.3189 114.094 96.1587 114.777 96.1587 114.777C96.1587 114.777 97.2159 113.862 97.4823 113.479C98.1899 112.455 98.3066 111.714 98.3066 111.714C99.5386 111.75 100.671 110.665 100.671 110.665C100.746 109.533 100.279 108.584 100.279 108.584C101.153 108.176 102.061 107.277 102.061 107.277C101.47 106.028 101.087 105.62 101.087 105.62C102.493 104.53 102.544 103.864 102.544 103.864C102.194 102.915 100.912 101.991 100.912 101.991C101.461 101.25 101.986 99.8098 101.986 99.8098C100.97 98.7943 99.9962 98.4862 99.9962 98.4862C100.146 97.9117 100.113 97.3625 100.071 96.7548C100.071 96.7548 108.445 92.3928 109.369 89.5708C109.369 89.5708 109.761 92.0765 109.603 93.6914C109.461 95.1315 107.23 97.479 101.844 101.084C105.149 100.575 109.678 98.8026 110.668 97.0295C110.668 97.0295 110.686 99.6018 110.111 101.125C109.644 102.357 107.305 103.24 102.028 105.837C104.633 107.269 109.253 105.679 110.577 104.347C110.577 104.347 109.844 106.586 108.978 107.959C108.429 108.833 106.24 110.29 101.154 109.541C103.043 111.889 106.664 113.662 109.12 112.546C109.12 112.546 108.871 114.777 107.38 115.427C106.273 115.909 103.951 116.217 100.238 113.345C102.477 118.881 107.93 117.191 107.93 117.191C107.93 117.191 106.639 119.397 105.208 120.163C103.934 120.837 101.303 120.296 97.0412 115.66C97.0412 115.66 97.3075 119.764 101.503 121.137Z" stroke="#730030" stroke-width="0.233889"/>
<path d="M92.0966 116.933C92.0966 116.933 90.6648 118.948 90.2153 120.28C90.2153 120.28 93.0541 122.727 92.5463 125.416C92.5463 125.416 93.5035 123.468 92.8543 121.986L92.4882 121.021C92.4882 121.021 94.9439 122.194 96.5671 121.32C96.5671 121.32 94.819 121.52 92.8794 118.465C91.8555 116.833 92.0966 116.933 92.0966 116.933Z" fill="#730030"/>
<path d="M92.0966 116.933C92.0966 116.933 90.6649 118.948 90.2153 120.28C90.2153 120.28 93.0541 122.727 92.5463 125.416C92.5463 125.416 93.5035 123.468 92.8543 121.986L92.4882 121.021C92.4882 121.021 94.9439 122.194 96.5671 121.32C96.5671 121.32 94.819 121.52 92.8794 118.465C91.8555 116.833 92.0966 116.933 92.0966 116.933Z" stroke="#730030" stroke-width="0.233889"/>
<path d="M101.537 125.208C101.87 125.226 103.152 124.758 103.485 125.724C103.868 126.856 102.552 127.355 101.803 126.698C100.979 125.99 99.7305 126.007 99.4391 126.506C99.2977 126.739 99.1309 127.239 100.238 128.071C100.58 128.337 102.428 129.478 101.137 130.701C100.696 131.109 99.4975 130.943 99.1894 129.278C98.9732 128.029 98.5818 127.397 98.1239 127.189C97.8907 127.081 97.1415 126.864 96.742 127.195L96.3759 127.478C95.7099 127.919 94.8774 127.395 95.0522 126.67C95.2522 125.838 95.9014 126.038 96.3759 126.271C96.7256 126.446 97.175 126.295 97.175 126.295C97.4916 126.137 97.5912 125.779 97.0753 125.53C94.8444 124.472 94.4116 123.249 94.4116 123.249C95.4772 123.374 96.3678 123.049 96.3678 123.049C96.3678 123.049 98.3656 125.729 99.8974 125.022C100.397 124.788 100.58 123.981 100.588 123.606C100.606 122.807 101.487 122.391 101.97 122.957C102.437 123.498 101.904 124.064 101.429 124.247C101.146 124.364 100.713 124.73 100.888 125.013C101.062 125.297 101.312 125.191 101.537 125.208Z" fill="#730030"/>
<path d="M101.536 125.208C101.869 125.226 103.151 124.758 103.484 125.724C103.867 126.856 102.552 127.355 101.803 126.698C100.978 125.99 99.7298 126.007 99.4384 126.506C99.2971 126.739 99.1302 127.239 100.237 128.071C100.579 128.337 102.427 129.478 101.137 130.702C100.696 131.109 99.4966 130.943 99.1887 129.278C98.9724 128.029 98.5809 127.397 98.1231 127.189C97.8899 127.081 97.1408 126.864 96.7412 127.195L96.3751 127.478C95.7091 127.919 94.8766 127.395 95.0514 126.671C95.2514 125.838 95.9006 126.038 96.3751 126.271C96.7249 126.446 97.1742 126.295 97.1742 126.295C97.4908 126.137 97.5904 125.78 97.0745 125.53C94.8435 124.472 94.4106 123.249 94.4106 123.249C95.4762 123.374 96.367 123.049 96.367 123.049C96.367 123.049 98.3649 125.729 99.8966 125.022C100.396 124.789 100.579 123.981 100.588 123.606C100.606 122.807 101.487 122.391 101.969 122.957C102.436 123.498 101.903 124.064 101.428 124.247C101.145 124.364 100.712 124.73 100.887 125.013C101.061 125.297 101.312 125.191 101.536 125.208Z" stroke="#730030" stroke-width="0.233889"/>
<path d="M102.311 122.269C102.311 122.269 102.718 122.452 102.777 122.827C102.777 122.827 103.559 122.244 104.109 123.16C104.109 123.16 103.959 121.695 102.311 122.269Z" fill="#730030"/>
<path d="M102.311 122.269C102.311 122.269 102.718 122.452 102.777 122.827C102.777 122.827 103.559 122.244 104.109 123.16C104.109 123.16 103.959 121.695 102.311 122.269Z" stroke="#730030" stroke-width="0.233889"/>
<path d="M104.234 125.999C104.234 125.999 104.417 126.406 104.059 127.014C104.059 127.014 105.058 127.38 104.4 128.654C104.4 128.654 105.849 127.264 104.234 125.999Z" fill="#730030"/>
<path d="M104.234 125.999C104.234 125.999 104.417 126.406 104.059 127.014C104.059 127.014 105.058 127.38 104.4 128.654C104.4 128.654 105.849 127.264 104.234 125.999Z" stroke="#730030" stroke-width="0.233889"/>
<path d="M102.21 130.444C102.21 130.444 102.235 130.893 101.686 131.326C101.686 131.326 102.494 132.025 101.428 132.983C101.428 132.983 103.268 132.192 102.21 130.444Z" fill="#730030"/>
<path d="M102.21 130.444C102.21 130.444 102.235 130.893 101.686 131.326C101.686 131.326 102.494 132.025 101.428 132.983C101.428 132.983 103.268 132.192 102.21 130.444Z" stroke="#730030" stroke-width="0.233889"/>
<path d="M86.3939 129.52C86.6101 129.412 86.8348 129.37 87.1097 129.095C87.1097 129.095 88.9828 133.507 93.1949 133.049C93.1949 133.049 92.9532 133.99 91.2886 134.098C91.2886 134.098 94.1356 135.422 92.4957 136.754C91.4218 137.636 90.5727 135.18 90.5727 135.18C90.5727 135.18 90.4476 137.428 88.5082 137.445C88.5082 137.445 91.3885 135.763 88.3747 131.801C88.6659 134.581 87.7004 137.162 86.4018 137.162C85.0948 137.162 84.1292 134.581 84.4206 131.801C81.4071 135.763 84.2876 137.445 84.2876 137.445C82.3481 137.427 82.2233 135.18 82.2233 135.18C82.2233 135.18 81.3742 137.636 80.3003 136.754C78.6521 135.422 81.5157 134.098 81.5157 134.098C79.8425 133.99 79.6011 133.049 79.6011 133.049C83.8133 133.507 85.6861 129.095 85.6861 129.095C85.961 129.37 86.1773 129.412 86.3939 129.52Z" fill="#730030"/>
<path d="M86.3943 129.52C86.6105 129.412 86.8352 129.37 87.1101 129.095C87.1101 129.095 88.9832 133.507 93.1953 133.049C93.1953 133.049 92.9536 133.99 91.289 134.098C91.289 134.098 94.1361 135.422 92.4961 136.754C91.4223 137.636 90.5731 135.18 90.5731 135.18C90.5731 135.18 90.4481 137.428 88.5086 137.445C88.5086 137.445 91.3889 135.763 88.3757 131.801C88.6668 134.581 87.7013 137.162 86.4028 137.162C85.0958 137.162 84.1302 134.581 84.4215 131.801C81.4081 135.763 84.2886 137.445 84.2886 137.445C82.349 137.427 82.2243 135.18 82.2243 135.18C82.2243 135.18 81.3751 137.636 80.3013 136.754C78.6531 135.422 81.5165 134.098 81.5165 134.098C79.8434 133.99 79.6021 133.049 79.6021 133.049C83.8142 133.507 85.6873 129.095 85.6873 129.095C85.9621 129.37 86.1778 129.412 86.3943 129.52Z" stroke="#730030" stroke-width="0.233889"/>
<path d="M86.0031 92.7673L85.9669 92.6423L85.834 92.1343L85.7977 92.0093L85.6812 92.0576L83.4253 92.9316L84.6322 92.8652L84.5659 93.1067C84.5659 93.3816 84.7906 93.6148 85.0655 93.6148C85.3488 93.6148 85.5735 93.3816 85.5735 93.1067L85.4815 92.8156L85.8646 92.7734L86.0031 92.7673Z" fill="#FAB83A" stroke="#FAB83A" stroke-width="0.233889"/>
<path d="M92.2216 108.608C91.8223 107.818 91.3808 107.576 90.9729 107.443L90.7813 107.093C90.257 106.336 89.4078 106.236 88.7918 106.477C88.5755 106.561 88.442 106.619 88.3339 106.685L88.4753 106.502L88.4994 106.46C88.5991 106.327 88.691 106.193 88.8239 105.844C89.057 105.236 88.9567 104.379 88.2078 103.854L87.8581 103.671C87.7252 103.272 87.4836 102.822 86.6843 102.423L86.4681 102.306L86.2433 102.423C85.4525 102.814 85.2111 103.263 85.0779 103.671L84.7281 103.854C83.979 104.379 83.8707 105.236 84.1038 105.844C84.2373 106.194 84.337 106.326 84.4367 106.46L84.4608 106.502L84.6021 106.702C84.5024 106.635 84.3604 106.569 84.1194 106.477C83.5117 106.236 82.6626 106.336 82.1299 107.093L81.9468 107.443C81.5475 107.568 81.0978 107.809 80.6982 108.608L80.5815 108.833L80.6982 109.049C81.0897 109.84 81.539 110.082 81.9468 110.215L82.1299 110.573C82.6627 111.322 83.5117 111.422 84.1194 111.189C84.4692 111.056 84.6022 110.964 84.7355 110.865L84.7777 110.84L85.0025 110.674V112.697L84.7608 112.497L84.4612 112.921L84.4371 112.964C84.3374 113.089 84.237 113.23 84.1041 113.58C83.8709 114.187 83.9792 115.036 84.7285 115.569L85.0782 115.752C85.2033 116.152 85.4443 116.601 86.2437 117.001L86.4684 117.117L86.6847 117.001C87.4755 116.609 87.7253 116.16 87.8501 115.752L88.2078 115.569C88.957 115.036 89.0569 114.187 88.8239 113.58C88.6904 113.23 88.5991 113.088 88.4994 112.964L88.4753 112.921L88.1672 112.505L87.9255 112.697V110.682L88.1418 110.84L88.1781 110.865C88.311 110.964 88.4528 111.056 88.794 111.189C89.41 111.422 90.2592 111.322 90.7837 110.573L90.9751 110.223C91.3744 110.09 91.8243 109.849 92.2239 109.049L92.3319 108.833L92.2216 108.608Z" fill="#FAB83A" stroke="#FAB83A" stroke-width="0.233889"/>
<path d="M91.0307 108.775C91.0307 108.775 90.5898 108.167 89.9652 108.317C90.0401 108.143 90.0734 107.901 89.8988 107.66C89.6493 107.293 89.2745 107.327 89.108 107.393L89.0082 107.435L89.0746 107.527L89.1666 107.76C89.1726 107.885 89.1665 108.085 88.9249 108.268L88.3672 108.368H86.9356V106.22L87.0351 105.663C87.2182 105.421 87.4182 105.405 87.5432 105.421L87.7764 105.505L87.8682 105.58L87.9104 105.471C87.9769 105.313 88.0101 104.939 87.6525 104.68C87.4109 104.514 87.1615 104.548 86.9866 104.62C87.1365 103.996 86.5287 103.555 86.5287 103.555L86.5046 103.536H86.4563L86.4319 103.555C86.4319 103.555 85.8244 103.996 85.9742 104.62C85.7996 104.545 85.5494 104.512 85.3081 104.68C84.9499 104.938 84.9838 105.313 85.0502 105.471L85.0924 105.571L85.1759 105.511L85.4092 105.419C85.5427 105.401 85.7419 105.419 85.925 105.66L86.0247 106.193L86.0186 106.199V108.364H84.5202L83.971 108.264C83.7294 108.081 83.7131 107.881 83.7216 107.756L83.8129 107.523L83.8792 107.431L83.7797 107.389C83.6214 107.322 83.2384 107.289 82.9888 107.655C82.8221 107.897 82.8474 108.138 82.9283 108.313C82.304 108.163 81.8628 108.771 81.8628 108.771L81.8447 108.795V108.843L81.8628 108.867C81.8628 108.867 82.3038 109.475 82.9283 109.325C82.845 109.508 82.8203 109.75 82.9888 109.991C83.2383 110.349 83.6215 110.315 83.7797 110.249L83.8792 110.207L83.8129 110.123L83.7216 109.89C83.7156 109.757 83.7276 109.557 83.971 109.374L84.504 109.275L84.5099 109.281H86.0168V113.168L86.0227 113.192L85.9231 113.725C85.7401 113.967 85.54 113.975 85.4071 113.967L85.1741 113.883L85.0906 113.808L85.0484 113.908C84.9819 114.075 84.9487 114.449 85.3063 114.699C85.5479 114.874 85.7975 114.84 85.9723 114.765C85.8225 115.39 86.4303 115.831 86.4303 115.831L86.4544 115.837H86.5027L86.5269 115.831C86.5269 115.831 87.1346 115.39 86.9848 114.765C87.1594 114.84 87.4094 114.874 87.6507 114.699C88.0089 114.45 87.975 114.075 87.9086 113.908L87.8664 113.808L87.7746 113.875L87.5414 113.967C87.4163 113.973 87.2163 113.967 87.0333 113.725L86.9337 113.168V109.28H88.3654L88.3896 109.274L88.9223 109.374C89.164 109.557 89.1719 109.757 89.164 109.889L89.0807 110.123L89.0058 110.206L89.1054 110.248C89.2721 110.315 89.6467 110.348 89.8963 109.991C90.0708 109.749 90.0375 109.508 89.9626 109.324C90.587 109.474 91.0282 108.867 91.0282 108.867L91.0343 108.842V108.794L91.0307 108.775Z" fill="#730030" stroke="#730030" stroke-width="0.233889"/>
<path d="M139.022 129.8V87.752H146.683L150.887 101.23C151.31 102.498 151.675 103.726 151.982 104.917C152.289 106.069 152.5 106.933 152.615 107.509C152.769 106.933 152.98 106.069 153.249 104.917C153.556 103.726 153.902 102.498 154.286 101.23L158.318 87.752H165.979V129.8H160.103V115.63C160.103 113.826 160.142 111.829 160.219 109.64C160.334 107.413 160.487 105.186 160.679 102.958C160.871 100.693 161.063 98.5424 161.255 96.5072C161.447 94.4336 161.62 92.6288 161.774 91.0928L155.553 111.541H149.563L143.227 91.0928C143.419 92.5904 143.611 94.3376 143.803 96.3344C143.995 98.2928 144.167 100.386 144.321 102.613C144.475 104.84 144.609 107.086 144.724 109.352C144.839 111.579 144.897 113.672 144.897 115.63V129.8H139.022ZM186.116 130.376C183.505 130.376 181.22 129.896 179.262 128.936C177.342 127.938 175.844 126.517 174.769 124.674C173.732 122.792 173.214 120.603 173.214 118.107V99.4448C173.214 96.9104 173.732 94.7216 174.769 92.8784C175.844 91.0352 177.342 89.6336 179.262 88.6736C181.22 87.6752 183.505 87.176 186.116 87.176C188.727 87.176 190.993 87.6752 192.913 88.6736C194.833 89.672 196.311 91.0928 197.348 92.936C198.423 94.7408 198.961 96.9104 198.961 99.4448H192.74C192.74 97.256 192.164 95.5856 191.012 94.4336C189.86 93.2816 188.228 92.7056 186.116 92.7056C184.004 92.7056 182.353 93.2816 181.163 94.4336C180.011 95.5856 179.435 97.2368 179.435 99.3872V118.107C179.435 120.258 180.011 121.928 181.163 123.118C182.353 124.27 184.004 124.846 186.116 124.846C188.228 124.846 189.86 124.27 191.012 123.118C192.164 121.928 192.74 120.258 192.74 118.107H198.961C198.961 120.603 198.423 122.773 197.348 124.616C196.311 126.459 194.833 127.88 192.913 128.878C190.993 129.877 188.727 130.376 186.116 130.376ZM205.793 129.8V87.752H213.454L217.658 101.23C218.081 102.498 218.446 103.726 218.753 104.917C219.06 106.069 219.271 106.933 219.386 107.509C219.54 106.933 219.751 106.069 220.02 104.917C220.327 103.726 220.673 102.498 221.057 101.23L225.089 87.752H232.75V129.8H226.874V115.63C226.874 113.826 226.913 111.829 226.99 109.64C227.105 107.413 227.258 105.186 227.45 102.958C227.642 100.693 227.834 98.5424 228.026 96.5072C228.218 94.4336 228.391 92.6288 228.545 91.0928L222.324 111.541H216.334L209.998 91.0928C210.19 92.5904 210.382 94.3376 210.574 96.3344C210.766 98.2928 210.938 100.386 211.092 102.613C211.246 104.84 211.38 107.086 211.495 109.352C211.61 111.579 211.668 113.672 211.668 115.63V129.8H205.793ZM237.854 129.8L248.567 87.752H256.746L267.46 129.8H261.182L258.647 119.144H246.724L244.19 129.8H237.854ZM247.876 114.018H257.438L254.558 101.864C254.058 99.7136 253.636 97.8512 253.29 96.2768C252.983 94.664 252.772 93.5696 252.657 92.9936C252.542 93.5696 252.33 94.664 252.023 96.2768C251.716 97.8512 251.294 99.6944 250.756 101.806L247.876 114.018ZM286.215 130.376C283.373 130.376 280.935 129.915 278.9 128.994C276.865 128.034 275.29 126.69 274.177 124.962C273.063 123.195 272.506 121.102 272.506 118.683H278.669C278.669 120.603 279.341 122.12 280.685 123.234C282.029 124.309 283.892 124.846 286.273 124.846C288.5 124.846 290.247 124.309 291.514 123.234C292.781 122.158 293.415 120.68 293.415 118.798C293.415 117.224 292.973 115.861 292.09 114.709C291.245 113.557 290.017 112.77 288.404 112.347L283.105 110.792C280.033 109.909 277.652 108.411 275.962 106.299C274.311 104.149 273.485 101.595 273.485 98.6384C273.485 96.3344 274.004 94.3184 275.041 92.5904C276.077 90.8624 277.556 89.5184 279.476 88.5584C281.396 87.5984 283.661 87.1184 286.273 87.1184C290.113 87.1184 293.185 88.1552 295.489 90.2288C297.831 92.3024 299.021 95.0864 299.06 98.5808H292.839C292.839 96.7376 292.244 95.2976 291.053 94.2608C289.901 93.1856 288.269 92.648 286.157 92.648C284.122 92.648 282.529 93.1472 281.377 94.1456C280.225 95.1056 279.649 96.4688 279.649 98.2352C279.649 99.8096 280.071 101.173 280.916 102.325C281.799 103.477 283.047 104.283 284.66 104.744L290.017 106.357C293.089 107.202 295.45 108.699 297.101 110.85C298.753 113 299.578 115.573 299.578 118.568C299.578 120.91 299.021 122.984 297.908 124.789C296.794 126.555 295.239 127.938 293.242 128.936C291.245 129.896 288.903 130.376 286.215 130.376ZM316.317 129.8V93.4544H305.085V87.6944H333.77V93.4544H322.538V129.8H316.317ZM340.948 129.8V87.752H365.658V93.2816H347.053V105.205H363.642V110.677H347.053V124.27H365.658V129.8H340.948ZM373.757 129.8V87.752H386.948C389.597 87.752 391.901 88.2704 393.86 89.3072C395.818 90.3056 397.335 91.7264 398.41 93.5696C399.524 95.4128 400.08 97.5824 400.08 100.078C400.08 102.882 399.351 105.32 397.892 107.394C396.471 109.429 394.532 110.869 392.074 111.714L400.656 129.8H393.572L385.911 112.52H379.978V129.8H373.757ZM379.978 107.048H386.948C389.021 107.048 390.672 106.434 391.901 105.205C393.13 103.938 393.744 102.267 393.744 100.194C393.744 98.0432 393.13 96.3536 391.901 95.1248C390.672 93.896 389.021 93.2816 386.948 93.2816H379.978V107.048Z" fill="#730030"/>
</g>
<defs>
<filter id="filter0_d_1023_317" x="0.120117" y="0" width="466.4" height="225.6" filterUnits="userSpaceOnUse" color-interpolation-filters="sRGB">
<feFlood flood-opacity="0" result="BackgroundImageFix"/>
<feColorMatrix in="SourceAlpha" type="matrix" values="0 0 0 0 0 0 0 0 0 0 0 0 0 0 0 0 0 0 127 0" result="hardAlpha"/>
<feOffset dx="4" dy="4"/>
<feGaussianBlur stdDeviation="5"/>
<feComposite in2="hardAlpha" operator="out"/>
<feColorMatrix type="matrix" values="0 0 0 0 0 0 0 0 0 0 0 0 0 0 0 0 0 0 0.1 0"/>
<feBlend mode="normal" in2="BackgroundImageFix" result="effect1_dropShadow_1023_317"/>
<feBlend mode="normal" in="SourceGraphic" in2="effect1_dropShadow_1023_317" result="shape"/>
</filter>
</defs>
</svg>
