<svg width="497" height="497" viewBox="0 0 497 497" fill="none" xmlns="http://www.w3.org/2000/svg">
<g filter="url(#filter0_d_424_1991)">
<path fill-rule="evenodd" clip-rule="evenodd" d="M379.906 6H339.094C333.424 19.5108 320.07 29 304.5 29C288.93 29 275.576 19.5108 269.906 6H229.094C223.424 19.5108 210.07 29 194.5 29C178.93 29 165.576 19.5108 159.906 6H119.094C113.424 19.5108 100.07 29 84.5 29C68.9298 29 55.576 19.5108 49.9062 6H10V46.3432C22.9767 52.2412 32 65.3169 32 80.5C32 95.6831 22.9767 108.759 10 114.657V156.343C22.9767 162.241 32 175.317 32 190.5C32 205.683 22.9767 218.759 10 224.657V266.343C22.9767 272.241 32 285.317 32 300.5C32 315.683 22.9767 328.759 10 334.657V376.343C22.9767 382.241 32 395.317 32 410.5C32 425.683 22.9767 438.759 10 444.657V483H46.7962C51.6513 467.915 65.801 457 82.5 457C99.1991 457 113.349 467.915 118.204 483H156.796C161.651 467.915 175.801 457 192.5 457C209.199 457 223.349 467.915 228.204 483H266.796C271.651 467.915 285.801 457 302.5 457C319.199 457 333.349 467.915 338.204 483H376.796C381.651 467.915 395.801 457 412.5 457C429.199 457 443.349 467.915 448.204 483H487V441.675C475.105 435.387 467 422.89 467 408.5C467 394.11 475.105 381.613 487 375.325V331.675C475.105 325.387 467 312.89 467 298.5C467 284.11 475.105 271.613 487 265.325V221.675C475.105 215.387 467 202.89 467 188.5C467 174.11 475.105 161.613 487 155.325V111.675C475.105 105.387 467 92.8902 467 78.5C467 64.1098 475.105 51.6127 487 45.3252V6H449.094C443.424 19.5108 430.07 29 414.5 29C398.93 29 385.576 19.5108 379.906 6Z" fill="#71B46E"/>
</g>
<g clip-path="url(#clip0_424_1991)">
<rect x="59" y="52" width="385" height="385" rx="10" fill="#77C174"/>
<path d="M94.7103 259.125C100.141 306.43 135.945 325.379 171.181 328.608C201.746 226.631 112.656 208.817 73.6183 188.969C76.2913 191.523 90.0917 218.896 94.7103 259.125Z" fill="#4F8D4C"/>
<path d="M171.181 328.608C135.945 325.379 100.141 306.43 94.7103 259.125C90.0917 218.896 76.2913 191.523 73.6183 188.969C112.656 208.817 201.746 226.631 171.181 328.608ZM171.181 328.608C164.371 346.753 144.706 402.369 159.88 430.768" stroke="#4F8D4C" stroke-width="10" stroke-linejoin="round"/>
<path d="M309.42 281.604C247.374 236.415 190.604 293.079 169.975 327.06C201.574 348.239 234.815 352.017 259.192 328.791C277.599 311.252 276.858 291.386 309.42 281.604Z" fill="#4F8D4C" stroke="#4F8D4C" stroke-width="10" stroke-linejoin="round"/>
<ellipse cx="146.5" cy="466.737" rx="143.5" ry="70.2632" fill="#9A7D5B"/>
</g>
<path d="M197.043 137V90.92H205.875L225.907 121.64V90.92H234.739V137H225.907L205.875 106.28V137H197.043ZM263.444 137.96C258.836 137.96 254.857 136.957 251.508 134.952C248.18 132.947 245.609 130.141 243.796 126.536C242.004 122.931 241.108 118.739 241.108 113.96C241.108 109.181 242.004 104.989 243.796 101.384C245.609 97.7787 248.18 94.9733 251.508 92.968C254.857 90.9627 258.836 89.96 263.444 89.96C268.052 89.96 272.02 90.9627 275.347 92.968C278.697 94.9733 281.268 97.7787 283.06 101.384C284.873 104.989 285.78 109.181 285.78 113.96C285.78 118.739 284.873 122.931 283.06 126.536C281.268 130.141 278.697 132.947 275.347 134.952C272.02 136.957 268.052 137.96 263.444 137.96ZM263.444 129.768C266.366 129.811 268.798 129.181 270.74 127.88C272.681 126.579 274.132 124.733 275.092 122.344C276.073 119.955 276.564 117.16 276.564 113.96C276.564 110.76 276.073 107.987 275.092 105.64C274.132 103.293 272.681 101.469 270.74 100.168C268.798 98.8667 266.366 98.1947 263.444 98.152C260.521 98.1093 258.089 98.7387 256.148 100.04C254.206 101.341 252.745 103.187 251.764 105.576C250.804 107.965 250.324 110.76 250.324 113.96C250.324 117.16 250.804 119.933 251.764 122.28C252.745 124.627 254.206 126.451 256.148 127.752C258.089 129.053 260.521 129.725 263.444 129.768ZM300.15 137L286.07 90.92H295.03L306.55 128.808L318.262 90.92H327.222L313.142 137H300.15ZM332.683 137V90.92H341.387V137H332.683ZM370.756 137.96C366.148 137.96 362.169 136.957 358.82 134.952C355.492 132.947 352.921 130.141 351.108 126.536C349.316 122.931 348.42 118.739 348.42 113.96C348.42 109.181 349.316 104.989 351.108 101.384C352.921 97.7787 355.492 94.9733 358.82 92.968C362.169 90.9627 366.148 89.96 370.756 89.96C376.047 89.96 380.484 91.272 384.068 93.896C387.673 96.52 390.212 100.072 391.684 104.552L382.916 106.984C382.063 104.189 380.623 102.024 378.596 100.488C376.569 98.9307 373.956 98.152 370.756 98.152C367.833 98.152 365.391 98.8027 363.428 100.104C361.487 101.405 360.025 103.24 359.044 105.608C358.063 107.976 357.572 110.76 357.572 113.96C357.572 117.16 358.063 119.944 359.044 122.312C360.025 124.68 361.487 126.515 363.428 127.816C365.391 129.117 367.833 129.768 370.756 129.768C373.956 129.768 376.569 128.989 378.596 127.432C380.623 125.875 382.063 123.709 382.916 120.936L391.684 123.368C390.212 127.848 387.673 131.4 384.068 134.024C380.484 136.648 376.047 137.96 370.756 137.96ZM398.73 137V90.92H428.81V99.048H407.434V108.904H424.97V117.032H407.434V128.872H428.81V137H398.73ZM176.105 209V162.92H184.809V181.864H205.417V162.92H214.121V209H205.417V189.992H184.809V209H176.105ZM219.905 209L233.985 162.92H246.977L261.057 209H252.097L239.553 168.36H241.217L228.865 209H219.905ZM228.353 199.4V191.272H252.673V199.4H228.353ZM285.319 209.96C280.711 209.96 276.732 208.957 273.383 206.952C270.055 204.947 267.484 202.141 265.671 198.536C263.879 194.931 262.983 190.739 262.983 185.96C262.983 181.181 263.879 176.989 265.671 173.384C267.484 169.779 270.055 166.973 273.383 164.968C276.732 162.963 280.711 161.96 285.319 161.96C290.609 161.96 295.047 163.272 298.631 165.896C302.236 168.52 304.775 172.072 306.247 176.552L297.479 178.984C296.625 176.189 295.185 174.024 293.159 172.488C291.132 170.931 288.519 170.152 285.319 170.152C282.396 170.152 279.953 170.803 277.991 172.104C276.049 173.405 274.588 175.24 273.607 177.608C272.625 179.976 272.135 182.76 272.135 185.96C272.135 189.16 272.625 191.944 273.607 194.312C274.588 196.68 276.049 198.515 277.991 199.816C279.953 201.117 282.396 201.768 285.319 201.768C288.519 201.768 291.132 200.989 293.159 199.432C295.185 197.875 296.625 195.709 297.479 192.936L306.247 195.368C304.775 199.848 302.236 203.4 298.631 206.024C295.047 208.648 290.609 209.96 285.319 209.96ZM313.293 209V162.92H321.997V184.168L339.533 162.92H350.157L330.893 185.64L351.373 209H340.365L321.997 188.008V209H313.293ZM355.855 209V162.92H385.935V171.048H364.559V180.904H382.095V189.032H364.559V200.872H385.935V209H355.855ZM393.605 209V162.92H413.061C413.509 162.92 414.106 162.941 414.853 162.984C415.621 163.005 416.304 163.069 416.901 163.176C419.653 163.603 421.904 164.509 423.653 165.896C425.424 167.283 426.725 169.032 427.557 171.144C428.389 173.235 428.805 175.571 428.805 178.152C428.805 182.013 427.845 185.32 425.925 188.072C424.005 190.803 420.997 192.488 416.901 193.128L413.061 193.384H402.309V209H393.605ZM419.589 209L410.501 190.248L419.461 188.52L429.445 209H419.589ZM402.309 185.256H412.677C413.125 185.256 413.616 185.235 414.149 185.192C414.682 185.149 415.173 185.064 415.621 184.936C416.794 184.616 417.701 184.083 418.341 183.336C418.981 182.568 419.418 181.725 419.653 180.808C419.909 179.869 420.037 178.984 420.037 178.152C420.037 177.32 419.909 176.445 419.653 175.528C419.418 174.589 418.981 173.747 418.341 173C417.701 172.232 416.794 171.688 415.621 171.368C415.173 171.24 414.682 171.155 414.149 171.112C413.616 171.069 413.125 171.048 412.677 171.048H402.309V185.256Z" fill="white"/>
<defs>
<filter id="filter0_d_424_1991" x="0" y="0" width="497" height="497" filterUnits="userSpaceOnUse" color-interpolation-filters="sRGB">
<feFlood flood-opacity="0" result="BackgroundImageFix"/>
<feColorMatrix in="SourceAlpha" type="matrix" values="0 0 0 0 0 0 0 0 0 0 0 0 0 0 0 0 0 0 127 0" result="hardAlpha"/>
<feOffset dy="4"/>
<feGaussianBlur stdDeviation="5"/>
<feComposite in2="hardAlpha" operator="out"/>
<feColorMatrix type="matrix" values="0 0 0 0 0 0 0 0 0 0 0 0 0 0 0 0 0 0 0.1 0"/>
<feBlend mode="normal" in2="BackgroundImageFix" result="effect1_dropShadow_424_1991"/>
<feBlend mode="normal" in="SourceGraphic" in2="effect1_dropShadow_424_1991" result="shape"/>
</filter>
<clipPath id="clip0_424_1991">
<rect x="59" y="52" width="385" height="385" rx="10" fill="white"/>
</clipPath>
</defs>
</svg>
