<svg width="489" height="385" viewBox="0 0 489 385" fill="none" xmlns="http://www.w3.org/2000/svg">
<g filter="url(#filter0_d_961_6685)">
<rect x="6" y="6.32007" width="470.16" height="365.76" rx="51.723" fill="white" shape-rendering="crispEdges"/>
<rect x="7.35" y="7.67007" width="467.46" height="363.06" rx="50.373" stroke="black" stroke-opacity="0.2" stroke-width="2.7" shape-rendering="crispEdges"/>
<rect x="22.2002" y="22.52" width="437.76" height="333.36" rx="35.5268" fill="#DE4949"/>
<path d="M170.026 92.4639H166.326H162.625H158.924H155.224V88.7632H158.924H162.625V85.0624V81.3617V77.661V73.9603H158.924H155.224H151.523H147.822H144.121V77.661V81.3617V85.0624V88.7632H147.822H151.523V92.4639H147.822H144.121H140.421H136.72H133.019V88.7632H136.72V85.0624V81.3617V77.661V73.9603V70.2596V66.5589V62.8582V59.1575V55.4568V51.7561H133.019V48.0553H136.72H140.421H144.121H147.822H151.523V51.7561H147.822H144.121V55.4568V59.1575V62.8582V66.5589V70.2596H147.822H151.523H155.224H158.924H162.625V66.5589V62.8582V59.1575V55.4568V51.7561H158.924H155.224V48.0553H158.924H162.625H166.326H170.026H173.727V51.7561H170.026V55.4568V59.1575V62.8582V66.5589V70.2596V73.9603V77.661V81.3617V85.0624V88.7632H173.727V92.4639H170.026ZM205.553 77.661V73.9603V70.2596H201.852H198.152H194.451V73.9603V77.661V81.3617V85.0624V88.7632H198.152H201.852H205.553H209.254V85.0624H212.955V81.3617H216.655V85.0624V88.7632V92.4639H212.955H209.254H205.553H201.852H198.152H194.451H190.75H187.05H183.349V88.7632H187.05V85.0624V81.3617V77.661V73.9603V70.2596V66.5589V62.8582V59.1575V55.4568V51.7561H183.349V48.0553H187.05H190.75H194.451H198.152H201.852H205.553H209.254H212.955H216.655V51.7561V55.4568V59.1575H212.955V55.4568H209.254V51.7561H205.553H201.852H198.152H194.451V55.4568V59.1575V62.8582V66.5589H198.152H201.852H205.553V62.8582V59.1575H209.254V62.8582V66.5589V70.2596V73.9603V77.661H205.553ZM252.182 92.4639H248.481H244.781H241.08H237.379H233.679H229.978H226.277V88.7632H229.978V85.0624V81.3617V77.661V73.9603V70.2596V66.5589V62.8582V59.1575V55.4568V51.7561H226.277V48.0553H229.978H233.679H237.379H241.08V51.7561H237.379V55.4568V59.1575V62.8582V66.5589V70.2596V73.9603V77.661V81.3617V85.0624V88.7632H241.08H244.781V85.0624H248.481V81.3617H252.182V77.661H255.883V81.3617V85.0624V88.7632V92.4639H252.182ZM291.41 92.4639H287.709H284.008H280.308H276.607H272.906H269.205H265.505V88.7632H269.205V85.0624V81.3617V77.661V73.9603V70.2596V66.5589V62.8582V59.1575V55.4568V51.7561H265.505V48.0553H269.205H272.906H276.607H280.308V51.7561H276.607V55.4568V59.1575V62.8582V66.5589V70.2596V73.9603V77.661V81.3617V85.0624V88.7632H280.308H284.008V85.0624H287.709V81.3617H291.41V77.661H295.11V81.3617V85.0624V88.7632V92.4639H291.41ZM334.338 92.4639H330.637H326.937H323.236H319.535H315.834V88.7632H312.134V85.0624H308.433V81.3617V77.661V73.9603V70.2596V66.5589V62.8582V59.1575H312.134V55.4568V51.7561H315.834H319.535V48.0553H323.236H326.937H330.637H334.338V51.7561H338.039H341.739V55.4568V59.1575H345.44V62.8582V66.5589V70.2596V73.9603V77.661V81.3617V85.0624H341.739V88.7632H338.039V92.4639H334.338ZM326.937 88.7632H330.637V85.0624H334.338V81.3617H338.039V77.661V73.9603V70.2596V66.5589V62.8582H334.338V59.1575V55.4568H330.637V51.7561H326.937H323.236V55.4568H319.535V59.1575V62.8582H315.834V66.5589V70.2596V73.9603V77.661V81.3617H319.535V85.0624H323.236V88.7632H326.937Z" fill="white"/>
<path d="M187.613 140.864V110.624H191.847V140.864H187.613ZM222.368 140.864L222.195 137.105V129.589C222.195 128.005 222.008 126.68 221.633 125.614C221.288 124.549 220.741 123.742 219.992 123.195C219.272 122.648 218.307 122.374 217.097 122.374C215.974 122.374 214.995 122.605 214.16 123.065C213.353 123.526 212.677 124.246 212.129 125.225L208.501 123.843C209.019 122.864 209.667 122 210.445 121.251C211.222 120.473 212.158 119.869 213.253 119.437C214.347 118.976 215.629 118.745 217.097 118.745C219.142 118.745 220.841 119.149 222.195 119.955C223.549 120.761 224.557 121.928 225.219 123.454C225.91 124.981 226.241 126.867 226.213 129.113L226.169 140.864H222.368ZM216.017 141.382C213.454 141.382 211.453 140.806 210.013 139.654C208.601 138.473 207.896 136.846 207.896 134.773C207.896 132.555 208.63 130.87 210.099 129.718C211.597 128.537 213.67 127.947 216.32 127.947H222.325V131.187H217.443C215.456 131.187 214.059 131.504 213.253 132.137C212.446 132.742 212.043 133.592 212.043 134.686C212.043 135.694 212.417 136.486 213.166 137.062C213.944 137.609 215.009 137.883 216.363 137.883C217.544 137.883 218.566 137.638 219.43 137.149C220.294 136.63 220.971 135.91 221.461 134.989C221.95 134.067 222.195 133.016 222.195 131.835H223.621C223.621 134.773 222.987 137.105 221.72 138.833C220.481 140.533 218.581 141.382 216.017 141.382ZM231.38 140.864V119.264H235.225L235.398 122.245C236.089 121.093 236.953 120.229 237.99 119.653C239.027 119.048 240.222 118.745 241.576 118.745C243.304 118.745 244.772 119.149 245.982 119.955C247.192 120.733 248.07 121.928 248.617 123.541C249.251 121.985 250.144 120.805 251.296 119.998C252.448 119.163 253.816 118.745 255.4 118.745C257.848 118.745 259.763 119.552 261.145 121.165C262.528 122.749 263.204 125.197 263.176 128.509V140.864H259.115V129.805C259.115 127.846 258.899 126.363 258.467 125.355C258.064 124.318 257.516 123.598 256.825 123.195C256.134 122.792 255.328 122.576 254.406 122.547C252.793 122.547 251.54 123.166 250.648 124.405C249.784 125.643 249.352 127.385 249.352 129.632V140.864H245.248V129.805C245.248 127.846 245.046 126.363 244.643 125.355C244.24 124.318 243.678 123.598 242.958 123.195C242.267 122.792 241.46 122.576 240.539 122.547C238.926 122.547 237.673 123.166 236.78 124.405C235.916 125.643 235.484 127.385 235.484 129.632V140.864H231.38ZM292.23 140.864L292.058 137.105V129.589C292.058 128.005 291.87 126.68 291.496 125.614C291.15 124.549 290.603 123.742 289.854 123.195C289.134 122.648 288.17 122.374 286.96 122.374C285.837 122.374 284.858 122.605 284.022 123.065C283.216 123.526 282.539 124.246 281.992 125.225L278.363 123.843C278.882 122.864 279.53 122 280.307 121.251C281.085 120.473 282.021 119.869 283.115 119.437C284.21 118.976 285.491 118.745 286.96 118.745C289.005 118.745 290.704 119.149 292.058 119.955C293.411 120.761 294.419 121.928 295.082 123.454C295.773 124.981 296.104 126.867 296.075 129.113L296.032 140.864H292.23ZM285.88 141.382C283.317 141.382 281.315 140.806 279.875 139.654C278.464 138.473 277.758 136.846 277.758 134.773C277.758 132.555 278.493 130.87 279.962 129.718C281.459 128.537 283.533 127.947 286.182 127.947H292.187V131.187H287.306C285.318 131.187 283.922 131.504 283.115 132.137C282.309 132.742 281.906 133.592 281.906 134.686C281.906 135.694 282.28 136.486 283.029 137.062C283.806 137.609 284.872 137.883 286.226 137.883C287.406 137.883 288.429 137.638 289.293 137.149C290.157 136.63 290.834 135.91 291.323 134.989C291.813 134.067 292.058 133.016 292.058 131.835H293.483C293.483 134.773 292.85 137.105 291.582 138.833C290.344 140.533 288.443 141.382 285.88 141.382Z" fill="white"/>
<rect x="43.5161" y="168.18" width="395.128" height="166.384" rx="14.2107" fill="white"/>
<path d="M119.744 246.993C118.875 246.993 118.145 246.657 117.553 245.986C117 245.315 116.724 244.21 116.724 242.67C116.724 242.157 116.783 241.604 116.902 241.012C117.02 240.381 117.237 239.749 117.553 239.118C115.579 234.223 113.921 229.466 112.579 224.848C111.237 220.229 110.092 215.393 109.145 210.341C107.882 212.946 106.678 215.65 105.533 218.453C104.428 221.216 103.382 223.92 102.395 226.565C101.408 229.209 100.52 231.677 99.7304 233.966C98.941 236.256 98.2502 238.229 97.658 239.887C97.0265 241.861 96.3949 243.183 95.7633 243.854C95.1317 244.565 94.4804 244.92 93.8093 244.92C92.9014 244.92 92.2106 244.703 91.7369 244.269C91.3027 243.835 91.0856 243.065 91.0856 241.96C91.0856 241.131 91.3027 239.848 91.7369 238.111C92.1711 236.374 92.7632 234.361 93.5133 232.071C94.3027 229.782 95.1909 227.374 96.1778 224.848C97.1646 222.321 98.2107 219.854 99.316 217.446C100.461 215.038 101.605 212.867 102.75 210.933C103.895 208.959 104.981 207.4 106.007 206.255C107.073 205.071 108.04 204.479 108.908 204.479C109.816 204.479 110.586 204.656 111.217 205.012C111.889 205.367 112.619 206.295 113.408 207.795C113.921 208.821 114.514 210.321 115.185 212.295C115.856 214.229 116.527 216.42 117.198 218.867C117.869 221.275 118.52 223.762 119.152 226.328C119.783 228.854 120.336 231.203 120.81 233.374C122.389 226.071 123.77 219.676 124.954 214.19C126.139 208.663 127.047 204.341 127.678 201.222C128.349 198.104 128.705 196.466 128.744 196.308C128.981 195.281 129.237 194.65 129.514 194.413C129.79 194.176 130.185 194.058 130.698 194.058C131.409 194.058 132.099 194.354 132.77 194.946C133.481 195.498 133.836 196.268 133.836 197.255C133.836 197.729 133.718 198.814 133.481 200.512C133.284 202.209 132.968 204.341 132.534 206.907C132.139 209.433 131.626 212.255 130.994 215.374C130.362 218.453 129.632 221.67 128.803 225.025C127.974 228.341 127.047 231.637 126.02 234.914C125.033 238.15 123.948 241.21 122.764 244.091C122.329 245.197 121.816 245.947 121.224 246.341C120.672 246.776 120.178 246.993 119.744 246.993ZM151.116 244.032C148.787 244.032 146.952 243.144 145.61 241.368C144.267 239.591 143.596 237.282 143.596 234.44C143.596 233.413 143.735 232.328 144.011 231.183C144.327 229.999 144.721 228.933 145.195 227.986C144.919 227.709 144.702 227.334 144.544 226.861C144.386 226.348 144.307 225.716 144.307 224.966C144.307 222.637 144.702 220.505 145.491 218.571C146.281 216.637 147.327 214.959 148.629 213.538C149.932 212.078 151.373 210.953 152.952 210.163C154.57 209.374 156.208 208.979 157.866 208.979C160.59 208.979 162.801 209.966 164.498 211.939C166.195 213.874 167.044 216.834 167.044 220.821C167.044 222.913 166.728 225.045 166.097 227.216C165.505 229.387 164.676 231.479 163.61 233.492C162.583 235.506 161.38 237.302 159.998 238.881C158.656 240.46 157.215 241.723 155.675 242.67C154.175 243.578 152.656 244.032 151.116 244.032ZM149.103 225.973C149.34 226.288 149.458 226.703 149.458 227.216C149.458 227.808 149.34 228.4 149.103 228.992C148.906 229.584 148.689 230.394 148.452 231.42C148.215 232.446 148.096 233.907 148.096 235.802C148.096 237.696 148.846 238.644 150.346 238.644C152.004 238.644 153.544 237.992 154.965 236.69C156.386 235.348 157.649 233.631 158.754 231.538C159.86 229.446 160.708 227.216 161.301 224.848C161.932 222.44 162.248 220.17 162.248 218.038C162.248 216.657 161.991 215.69 161.478 215.137C160.965 214.545 160.037 214.249 158.695 214.249C157.314 214.249 155.873 214.722 154.373 215.67C152.912 216.578 151.689 217.821 150.702 219.4C149.715 220.979 149.221 222.755 149.221 224.729C149.221 225.163 149.182 225.578 149.103 225.973ZM180.777 241.96C180.185 241.96 179.593 241.525 179.001 240.657C178.448 239.789 178.033 238.565 177.757 236.986C177.481 235.328 177.224 233.433 176.987 231.302C176.751 229.17 176.553 227.078 176.395 225.025C176.237 222.973 176.119 221.157 176.04 219.578C175.961 217.999 175.922 216.933 175.922 216.38C175.922 214.328 176.237 212.808 176.869 211.821C177.54 210.795 178.389 210.282 179.415 210.282C180.126 210.282 180.639 210.479 180.955 210.874C181.27 211.229 181.428 212.058 181.428 213.361C181.428 214.229 181.448 215.354 181.487 216.736C181.527 218.117 181.586 219.617 181.665 221.236C181.744 223.17 181.823 225.223 181.902 227.394C181.981 229.525 182.04 231.637 182.08 233.729C183.027 232.15 184.113 230.394 185.336 228.459C186.599 226.525 187.882 224.552 189.185 222.538C190.488 220.486 191.751 218.532 192.974 216.676C194.198 214.821 195.284 213.203 196.231 211.821C197.178 210.439 197.909 209.433 198.422 208.801C199.093 208.012 199.705 207.459 200.257 207.143C200.85 206.828 201.363 206.67 201.797 206.67C202.389 206.67 202.863 206.887 203.218 207.321C203.613 207.755 203.81 208.367 203.81 209.157C203.81 209.63 203.711 210.163 203.514 210.755C203.356 211.308 203.06 211.88 202.626 212.472C201.56 214.091 200.277 215.986 198.777 218.157C197.277 220.328 195.718 222.578 194.099 224.907C192.481 227.236 190.902 229.506 189.363 231.716C187.823 233.887 186.481 235.802 185.336 237.46C183.323 240.46 181.803 241.96 180.777 241.96ZM208.625 243.736C207.875 243.736 207.204 243.46 206.612 242.907C206.019 242.315 205.723 241.407 205.723 240.183C205.723 239.315 205.842 238.111 206.079 236.571C206.316 234.992 206.631 233.275 207.026 231.42C207.421 229.565 207.835 227.729 208.27 225.913C208.743 224.058 209.217 222.4 209.691 220.94C210.164 219.479 210.579 218.394 210.934 217.683C211.25 217.13 211.546 216.775 211.822 216.617C212.138 216.459 212.434 216.38 212.71 216.38C213.263 216.38 213.737 216.558 214.131 216.913C214.566 217.269 214.783 217.959 214.783 218.986C214.783 219.578 214.664 220.565 214.427 221.946C214.23 223.288 213.954 224.867 213.599 226.683C213.283 228.459 212.927 230.295 212.533 232.19C212.177 234.045 211.822 235.821 211.467 237.519C211.112 239.216 210.835 240.637 210.638 241.782C210.48 242.414 210.204 242.907 209.809 243.262C209.454 243.578 209.059 243.736 208.625 243.736ZM214.427 210.992C213.52 210.992 212.651 210.716 211.822 210.163C211.033 209.611 210.638 208.722 210.638 207.499C210.638 206.472 210.875 205.643 211.348 205.012C211.862 204.38 212.454 203.926 213.125 203.65C213.835 203.334 214.447 203.176 214.96 203.176C215.474 203.176 216.046 203.295 216.678 203.531C217.349 203.729 217.921 204.124 218.395 204.716C218.868 205.268 219.105 206.097 219.105 207.203C219.105 207.953 218.849 208.624 218.335 209.216C217.822 209.768 217.191 210.203 216.441 210.518C215.73 210.834 215.059 210.992 214.427 210.992ZM232.333 244.269C230.399 244.269 228.721 243.835 227.3 242.966C225.918 242.058 224.853 240.894 224.103 239.473C223.353 238.052 222.978 236.591 222.978 235.091C222.978 231.933 223.53 229.052 224.635 226.446C225.741 223.802 227.122 221.473 228.78 219.459C230.478 217.407 232.214 215.67 233.991 214.249C235.807 212.828 237.445 211.762 238.905 211.051C240.405 210.301 241.471 209.926 242.103 209.926C243.366 209.926 243.998 210.558 243.998 211.821C243.998 212.413 243.603 213.104 242.813 213.893C242.024 214.643 241.017 215.532 239.794 216.558C238.57 217.584 237.267 218.749 235.886 220.051C234.504 221.315 233.201 222.755 231.978 224.374C230.754 225.953 229.747 227.729 228.958 229.703C228.168 231.637 227.774 233.769 227.774 236.098C227.774 238.466 228.741 239.65 230.675 239.65C232.451 239.65 234.267 239.315 236.122 238.644C238.017 237.973 239.872 237.104 241.688 236.039C243.544 234.933 245.32 233.788 247.017 232.604C248.715 231.42 250.254 230.295 251.636 229.229C253.017 228.124 254.182 227.236 255.129 226.565C256.077 225.894 256.748 225.558 257.142 225.558C257.932 225.558 258.327 225.992 258.327 226.861C258.327 227.532 257.873 228.42 256.965 229.525C256.057 230.631 254.833 231.835 253.294 233.137C251.754 234.44 250.037 235.762 248.142 237.104C246.248 238.407 244.333 239.611 242.399 240.716C240.465 241.782 238.609 242.65 236.833 243.322C235.096 243.953 233.596 244.269 232.333 244.269ZM279.722 217.92C279.722 219.183 279.327 220.426 278.538 221.65C277.748 222.834 276.702 223.979 275.399 225.084C274.097 226.15 272.656 227.157 271.077 228.104C269.498 229.052 267.919 229.881 266.34 230.591C264.761 231.302 263.32 231.874 262.018 232.308C261.702 233.848 261.544 235.21 261.544 236.394C261.544 237.144 261.722 237.677 262.077 237.992C262.432 238.308 262.985 238.466 263.735 238.466C265.393 238.466 267.149 238.17 269.005 237.578C270.86 236.986 272.755 236.216 274.689 235.269C276.623 234.321 278.478 233.315 280.255 232.249C282.031 231.183 283.65 230.177 285.11 229.229C286.61 228.282 287.854 227.512 288.84 226.92C289.827 226.328 290.479 226.032 290.794 226.032C291.268 226.032 291.623 226.19 291.86 226.505C292.137 226.782 292.275 227.117 292.275 227.512C292.275 227.828 291.781 228.44 290.794 229.348C289.847 230.256 288.564 231.321 286.946 232.545C285.327 233.729 283.511 234.953 281.498 236.216C279.485 237.479 277.393 238.664 275.222 239.769C273.09 240.874 271.018 241.762 269.005 242.433C267.031 243.104 265.255 243.44 263.676 243.44C261.623 243.44 260.024 242.67 258.88 241.131C257.735 239.591 257.162 237.203 257.162 233.966C257.162 231.795 257.439 229.604 257.991 227.394C258.583 225.183 259.373 223.071 260.36 221.058C261.386 219.005 262.511 217.19 263.735 215.611C264.998 213.992 266.32 212.729 267.702 211.821C269.084 210.874 270.426 210.4 271.728 210.4C274.215 210.4 276.169 211.091 277.59 212.472C279.011 213.854 279.722 215.67 279.722 217.92ZM263.261 227.749C264.485 226.999 265.748 226.209 267.051 225.38C268.353 224.552 269.557 223.703 270.663 222.834C271.768 221.966 272.656 221.058 273.327 220.111C274.038 219.124 274.393 218.117 274.393 217.091C274.393 215.63 273.603 214.9 272.024 214.9C271.038 214.9 269.992 215.532 268.886 216.795C267.82 218.019 266.794 219.617 265.807 221.591C264.82 223.565 263.972 225.617 263.261 227.749ZM92.6843 305.104C91.8159 305.104 91.1448 304.848 90.6711 304.335C90.1974 303.861 89.9606 302.657 89.9606 300.723C89.9606 298.946 90.2764 296.637 90.908 293.795C91.5395 290.913 92.3882 287.716 93.454 284.203C94.5198 280.69 95.7238 277.058 97.0659 273.308C98.4081 269.518 99.8094 265.808 101.27 262.176C102.77 258.505 104.211 255.15 105.592 252.11C106.106 251.005 106.638 250.235 107.191 249.801C107.744 249.367 108.395 249.15 109.145 249.15C109.658 249.15 110.092 249.308 110.448 249.623C110.842 249.9 111.04 250.373 111.04 251.044C111.04 251.281 110.783 252.051 110.27 253.354C109.796 254.656 109.125 256.373 108.257 258.505C107.428 260.637 106.5 263.025 105.474 265.67C104.448 268.314 103.402 271.097 102.336 274.018C101.27 276.94 100.263 279.88 99.316 282.841C98.3686 285.762 97.5594 288.565 96.8883 291.249C96.2172 293.933 95.7633 296.341 95.5264 298.473C96.4738 297.328 97.5594 295.867 98.7831 294.091C100.007 292.315 101.309 290.4 102.691 288.348C104.073 286.295 105.474 284.262 106.895 282.249C108.316 280.236 109.717 278.4 111.099 276.742C112.481 275.084 113.764 273.762 114.948 272.775C116.171 271.749 117.237 271.236 118.145 271.236C119.645 271.236 120.849 271.709 121.757 272.657C122.704 273.565 123.178 275.065 123.178 277.157C123.178 278.341 122.941 279.762 122.468 281.42C122.033 283.078 121.52 284.815 120.928 286.631C120.336 288.446 119.803 290.183 119.329 291.841C118.895 293.499 118.678 294.92 118.678 296.104C118.678 297.723 119.29 298.532 120.514 298.532C122.408 298.532 124.303 298.118 126.198 297.289C128.132 296.46 129.968 295.433 131.705 294.21C133.441 292.946 135.04 291.683 136.501 290.42C137.961 289.117 139.205 288.012 140.231 287.104C141.336 286.117 142.264 285.624 143.014 285.624C143.961 285.624 144.435 286.117 144.435 287.104C144.435 287.381 144.376 287.696 144.257 288.052C144.139 288.407 143.823 288.861 143.31 289.413C142.678 290.124 141.771 291.052 140.586 292.196C139.442 293.341 138.099 294.565 136.56 295.867C135.06 297.17 133.422 298.394 131.645 299.539C129.909 300.683 128.112 301.631 126.257 302.381C124.441 303.091 122.665 303.447 120.928 303.447C118.56 303.447 116.724 302.775 115.421 301.433C114.158 300.052 113.527 298.157 113.527 295.749C113.527 294.249 113.764 292.433 114.237 290.302C114.711 288.17 115.303 285.92 116.014 283.552C116.764 281.144 117.514 278.795 118.264 276.505C117 277.374 115.619 278.676 114.119 280.413C112.658 282.111 111.119 284.045 109.5 286.216C107.882 288.348 106.263 290.519 104.645 292.729C103.066 294.94 101.527 296.992 100.027 298.887C98.566 300.743 97.2041 302.243 95.9409 303.387C94.6777 304.532 93.5922 305.104 92.6843 305.104ZM142.994 303.979C141.494 303.979 140.251 303.289 139.264 301.907C138.316 300.486 137.843 298.65 137.843 296.4C137.843 294.308 138.356 292.236 139.382 290.183C140.448 288.131 141.849 286.157 143.586 284.262C145.323 282.367 147.218 280.63 149.27 279.051C151.323 277.433 153.376 276.032 155.428 274.847C157.521 273.663 159.435 272.736 161.172 272.065C162.909 271.393 164.29 271.058 165.317 271.058C165.869 271.058 166.323 271.176 166.679 271.413C167.034 271.611 167.212 271.986 167.212 272.538C167.212 272.893 167.073 273.229 166.797 273.545C166.837 273.545 166.876 273.545 166.915 273.545C167.784 273.545 168.218 274.058 168.218 275.084C168.218 275.44 168.08 276.17 167.804 277.275C167.527 278.341 167.212 279.683 166.856 281.301C166.501 282.92 166.185 284.716 165.909 286.69C165.633 288.624 165.494 290.598 165.494 292.611C165.494 294.308 166.146 295.157 167.448 295.157C168.909 295.157 170.389 294.821 171.889 294.15C173.389 293.479 174.85 292.67 176.271 291.723C177.692 290.736 178.995 289.769 180.179 288.821C181.363 287.834 182.37 287.006 183.199 286.334C184.028 285.663 184.62 285.328 184.975 285.328C185.291 285.328 185.567 285.427 185.804 285.624C186.041 285.821 186.159 286.137 186.159 286.571C186.159 286.966 185.764 287.677 184.975 288.703C184.185 289.729 183.139 290.894 181.837 292.196C180.534 293.499 179.074 294.762 177.455 295.986C175.837 297.21 174.179 298.216 172.481 299.006C170.784 299.795 169.165 300.19 167.626 300.19C166.442 300.19 165.356 299.835 164.369 299.124C163.422 298.374 162.652 297.111 162.06 295.335C161.507 293.558 161.231 291.111 161.231 287.992V286.512C159.297 289.709 157.264 292.631 155.132 295.275C153.04 297.92 150.948 300.032 148.856 301.611C146.803 303.19 144.849 303.979 142.994 303.979ZM164.192 275.321C163.994 275.4 163.718 275.519 163.363 275.676C161.547 276.505 159.652 277.532 157.678 278.755C155.744 279.979 153.849 281.341 151.994 282.841C150.178 284.341 148.54 285.9 147.08 287.519C145.619 289.137 144.455 290.775 143.586 292.433C142.718 294.091 142.284 295.71 142.284 297.289C142.284 297.802 142.382 298.196 142.58 298.473C142.816 298.749 143.211 298.887 143.764 298.887C144.553 298.887 145.58 298.394 146.843 297.407C148.106 296.381 149.488 295.039 150.988 293.381C152.527 291.723 154.067 289.887 155.606 287.874C157.146 285.861 158.606 283.828 159.988 281.775C161.409 279.723 162.633 277.828 163.659 276.091C163.817 275.815 163.994 275.558 164.192 275.321ZM192.03 303.269C190.096 303.269 188.418 302.835 186.997 301.966C185.615 301.058 184.549 299.894 183.799 298.473C183.049 297.052 182.674 295.591 182.674 294.091C182.674 290.933 183.227 288.052 184.332 285.446C185.438 282.802 186.819 280.473 188.477 278.459C190.175 276.407 191.911 274.67 193.688 273.249C195.504 271.828 197.142 270.762 198.602 270.051C200.102 269.301 201.168 268.926 201.8 268.926C203.063 268.926 203.695 269.558 203.695 270.821C203.695 271.413 203.3 272.104 202.51 272.893C201.721 273.643 200.714 274.532 199.49 275.558C198.267 276.584 196.964 277.749 195.583 279.051C194.201 280.315 192.898 281.755 191.675 283.374C190.451 284.953 189.444 286.729 188.655 288.703C187.865 290.637 187.471 292.769 187.471 295.098C187.471 297.466 188.438 298.65 190.372 298.65C192.148 298.65 193.964 298.315 195.819 297.644C197.714 296.973 199.569 296.104 201.385 295.039C203.241 293.933 205.017 292.788 206.714 291.604C208.412 290.42 209.951 289.295 211.333 288.229C212.714 287.124 213.879 286.236 214.826 285.565C215.774 284.894 216.445 284.558 216.839 284.558C217.629 284.558 218.024 284.992 218.024 285.861C218.024 286.532 217.57 287.42 216.662 288.525C215.754 289.631 214.53 290.835 212.991 292.137C211.451 293.44 209.734 294.762 207.839 296.104C205.945 297.407 204.03 298.611 202.096 299.716C200.162 300.782 198.306 301.65 196.53 302.322C194.793 302.953 193.293 303.269 192.03 303.269ZM243.498 305.578C240.932 305.578 238.563 304.966 236.392 303.743C234.261 302.519 232.326 300.94 230.589 299.006C228.892 297.071 227.372 294.999 226.03 292.788C224.727 290.538 223.602 288.427 222.655 286.453C221.984 289.65 221.451 292.236 221.056 294.21C220.701 296.183 220.405 297.683 220.168 298.71C219.971 299.736 219.773 300.427 219.576 300.782C219.379 301.137 219.122 301.315 218.806 301.315C217.938 301.315 217.109 300.841 216.319 299.894C215.53 298.946 215.135 297.723 215.135 296.223C215.135 294.644 215.412 292.552 215.964 289.946C216.517 287.302 217.247 284.38 218.155 281.183C219.102 277.946 220.188 274.611 221.412 271.176C222.635 267.703 223.899 264.328 225.201 261.051C226.543 257.735 227.885 254.716 229.228 251.992C229.899 250.65 230.471 249.781 230.945 249.387C231.458 248.992 232.07 248.794 232.78 248.794C233.925 248.794 234.497 249.327 234.497 250.393C234.497 250.788 234.379 251.222 234.142 251.696C233.945 252.169 233.728 252.702 233.491 253.295C232.78 255.031 231.991 256.985 231.122 259.156C230.293 261.328 229.445 263.597 228.576 265.966C227.747 268.334 226.958 270.683 226.208 273.012C225.458 275.341 224.806 277.492 224.254 279.466C225.951 278.282 227.945 277.097 230.234 275.913C232.524 274.729 234.892 273.663 237.34 272.716C239.787 271.729 242.096 270.939 244.267 270.347C246.438 269.755 248.234 269.459 249.655 269.459C250.405 269.459 250.978 269.696 251.373 270.17C251.807 270.604 252.024 271.097 252.024 271.65C252.024 272.084 251.886 272.518 251.609 272.953C251.373 273.347 250.859 273.703 250.07 274.018C247.465 274.926 244.879 275.854 242.313 276.801C239.747 277.709 237.063 278.696 234.261 279.762C231.497 280.788 228.478 282.012 225.201 283.433C226.228 285.17 227.431 287.045 228.813 289.058C230.195 291.032 231.675 292.907 233.254 294.683C234.833 296.42 236.451 297.861 238.109 299.006C239.767 300.111 241.425 300.664 243.083 300.664C245.254 300.664 247.346 300.21 249.359 299.302C251.373 298.394 253.228 297.289 254.925 295.986C256.662 294.683 258.182 293.42 259.485 292.196C260.787 290.933 261.814 289.946 262.564 289.236C262.958 288.881 263.314 288.644 263.629 288.525C263.985 288.367 264.3 288.288 264.577 288.288C265.129 288.288 265.504 288.584 265.702 289.177C265.939 289.729 265.741 290.341 265.11 291.012C264.636 291.565 263.906 292.413 262.919 293.558C261.932 294.703 260.728 295.966 259.307 297.348C257.925 298.69 256.386 299.993 254.688 301.256C253.031 302.519 251.234 303.545 249.3 304.335C247.405 305.164 245.471 305.578 243.498 305.578ZM282.954 275.972C282.954 278.499 281.75 280.946 279.342 283.315C276.934 285.683 273.263 287.854 268.329 289.828C268.171 290.815 268.092 291.644 268.092 292.315C268.092 293.894 268.289 295.039 268.684 295.749C269.118 296.46 269.829 296.815 270.816 296.815C272.276 296.815 273.914 296.361 275.73 295.453C277.546 294.506 279.421 293.302 281.355 291.841C283.29 290.341 285.184 288.762 287.04 287.104C288.934 285.446 290.671 283.887 292.25 282.426C293.829 280.926 295.171 279.723 296.277 278.815C297.382 277.867 298.132 277.394 298.527 277.394C299.079 277.394 299.533 277.65 299.888 278.163C300.244 278.637 300.421 279.288 300.421 280.117C300.421 281.144 300.362 282.328 300.244 283.67C300.125 284.973 299.987 286.354 299.829 287.815C300.856 284.933 302.138 282.426 303.678 280.295C305.257 278.124 306.935 276.328 308.711 274.907C310.487 273.486 312.224 272.42 313.922 271.709C315.619 270.999 317.079 270.643 318.303 270.643C319.448 270.643 320.297 270.861 320.849 271.295C321.402 271.729 321.678 272.242 321.678 272.834C321.678 273.387 321.422 273.9 320.908 274.374C320.435 274.808 319.33 275.38 317.593 276.091C315.579 276.88 313.685 277.808 311.908 278.874C310.172 279.94 308.553 281.4 307.053 283.255C305.553 285.071 304.211 287.499 303.027 290.538C301.842 293.578 300.836 297.486 300.007 302.262C299.849 303.21 299.573 303.881 299.178 304.275C298.783 304.71 298.309 304.927 297.757 304.927C297.362 304.927 296.967 304.749 296.573 304.394C296.178 304.078 295.862 303.308 295.625 302.085C295.388 300.821 295.27 298.848 295.27 296.164C295.27 294.348 295.349 292.374 295.507 290.242C295.704 288.111 295.981 285.88 296.336 283.552C294.52 285.525 292.507 287.598 290.296 289.769C288.086 291.9 285.796 293.894 283.428 295.749C281.059 297.565 278.73 299.045 276.441 300.19C274.151 301.335 272.02 301.907 270.046 301.907C267.954 301.907 266.276 301.177 265.013 299.716C263.75 298.256 263.118 296.085 263.118 293.203C263.118 289.887 263.552 286.848 264.421 284.084C265.289 281.321 266.414 278.933 267.796 276.92C269.177 274.867 270.658 273.288 272.237 272.183C273.816 271.078 275.335 270.525 276.796 270.525C278.77 270.525 280.289 271.038 281.355 272.065C282.421 273.051 282.954 274.354 282.954 275.972ZM269.276 285.505C270.46 284.677 271.743 283.749 273.125 282.723C274.546 281.696 275.75 280.65 276.737 279.584C277.763 278.479 278.276 277.472 278.276 276.565C278.276 276.012 278.138 275.617 277.862 275.38C277.586 275.143 277.112 275.025 276.441 275.025C275.375 275.025 274.388 275.558 273.48 276.624C272.572 277.65 271.763 278.973 271.053 280.591C270.342 282.17 269.75 283.808 269.276 285.505Z" fill="black"/>
<path d="M346.479 237.483C348.423 239.408 350.926 240.147 353.3 240.363C355.985 240.659 358.53 240.604 361.216 240.895C362.254 241 363.111 241.052 363.89 241.084C367.699 241.038 369.941 241.414 376.344 238.939C379.89 237.821 382.822 236.075 388.559 237.181C393.347 238.803 396.677 240.944 398.966 241.779C402.843 243.364 402.029 245.278 406.55 248.8C408.81 250.69 410.341 252.609 411.464 254.655C412.471 256.528 413.288 258.481 413.925 260.924C414.328 262.541 415.143 265.303 415.077 268.616C415.044 274.829 413.785 282.503 413.457 286.117C413.392 287.05 413.233 287.989 413.002 288.916C411.926 293.264 409.578 297.387 408.44 300.148C408.012 301.19 407.61 301.984 407.26 302.584C407.11 302.842 406.938 302.911 406.8 302.888C406.8 302.888 406.8 302.888 406.8 302.888C406.627 302.832 406.52 302.589 406.605 302.225C407.014 300.496 407.499 297.855 407.749 294.665C408.004 291.417 408.538 289.869 409.228 287.861C409.78 286.229 410.444 284.265 410.753 280.765C411.125 276.158 410.69 272.692 410.344 268.75C410.115 266.565 409.457 264.16 408.183 260.929C407.689 259.68 407.099 258.615 406.482 257.675C402.996 253.085 399.974 252.361 391.756 246.301C389.898 245.04 388.161 244.214 386.701 243.759C386.172 243.539 384.437 243.89 383.227 244.415C381.927 244.943 380.713 245.629 379.411 246.378C376.758 247.857 373.924 249.775 368.173 251.42C367.43 251.621 366.644 251.807 365.832 251.964C360.2 253.085 354.275 251.719 349.64 249.599C343.956 246.998 339.911 243.32 336.675 239.742C336.238 239.265 335.614 238.538 335.282 237.207C334.921 235.867 335.329 234.226 335.842 233.42C336.903 231.767 337.638 231.541 338.205 231.164C339.33 230.555 340.079 230.353 340.817 230.133C342.765 229.604 344.227 229.421 345.514 229.203C351.329 228.294 358.128 227.867 365.545 227.764C369.536 227.707 373.534 228.619 377.132 230.104C380.735 231.573 384.303 233.506 387.695 235.452C388.142 235.71 388.54 235.993 388.623 236.04C388.633 236.06 388.653 235.992 387.982 235.736C387.647 235.624 386.989 235.437 386.075 235.575C385.156 235.704 384.332 236.22 383.945 236.591C383.164 237.366 383.204 237.621 383.142 237.693C383.113 237.764 383.137 237.678 383.154 237.556C383.195 237.3 383.238 236.879 383.267 236.433C383.327 235.529 383.354 234.495 383.379 233.44C383.428 231.32 383.476 229.089 383.622 226.844C383.923 221.841 386.042 217.361 388.358 213.978C388.999 213.033 389.676 212.099 390.369 211.175C394.88 204.639 403.346 200.176 410.124 198.544C410.646 198.372 411.441 198.21 412.366 198.471C413.297 198.725 413.998 199.402 414.328 199.916C414.99 200.979 415.005 201.664 415.073 202.28C415.073 207.782 413.093 210.984 412.095 213.582C411.889 214.047 411.69 214.485 411.498 214.907C408.353 221.326 407.342 223.276 403.03 229.47C401.167 232.015 398.094 234.797 394.773 236.689L394.76 236.699C393.26 237.565 391.787 238.455 390.277 239.23L390.264 239.239C390.262 239.24 390.26 239.241 390.258 239.242C387.947 240.214 388.009 239.515 389.527 238.165L389.508 238.179C389.636 238.05 389.778 237.909 389.932 237.762C391.113 236.62 392.315 235.634 393.403 234.79L393.39 234.799C394.817 233.675 395.905 232.698 396.433 231.643C398.195 227.925 398.659 226.613 402.064 223.321C405.398 219.841 404.383 216.796 405.604 214.441C405.869 213.907 406.117 213.522 406.396 213.078C406.841 212.357 407.362 211.552 407.999 209.967C408.554 208.489 409.626 205.687 409.253 202.945C409.246 202.851 409.107 202.788 409.393 203.317C409.538 203.566 409.992 204.084 410.712 204.307C411.427 204.53 411.976 204.392 412.194 204.327C411.748 204.516 411.295 204.712 410.834 204.919C403.258 208.218 399.766 212.352 397.642 215.946C395.929 218.807 394.885 220.944 394.283 222.723C393.844 224.011 393.295 225.618 393.078 227.494C392.882 229.33 392.706 231.355 392.531 233.554C392.44 234.66 392.353 235.797 392.211 237.057C392.138 237.69 392.056 238.352 391.894 239.151C391.808 239.559 391.71 239.995 391.51 240.571C391.27 241.144 391.111 241.906 389.904 243.09C389.419 243.55 388.485 244.129 387.443 244.278C386.406 244.436 385.615 244.227 385.152 244.071C384.222 243.726 383.997 243.502 383.767 243.365C383.372 243.093 383.297 243.036 383.241 243.002C381.658 242.051 380.138 241.203 378.669 240.529C375.304 238.966 370.419 236.974 365.683 237.114C358.198 237.246 350.583 237.655 346.888 238.572C345.391 238.928 344.324 239.204 343.691 239.367C343.247 239.467 342.894 239.617 343.166 239.353C343.281 239.152 343.816 239.034 344.429 237.32C344.71 236.471 344.621 235.208 344.282 234.485C343.955 233.735 343.608 233.418 343.391 233.229C344.038 234.386 344.696 235.69 346.479 237.483Z" fill="#15C43B"/>
</g>
<defs>
<filter id="filter0_d_961_6685" x="0.6" y="0.920068" width="488.16" height="383.76" filterUnits="userSpaceOnUse" color-interpolation-filters="sRGB">
<feFlood flood-opacity="0" result="BackgroundImageFix"/>
<feColorMatrix in="SourceAlpha" type="matrix" values="0 0 0 0 0 0 0 0 0 0 0 0 0 0 0 0 0 0 127 0" result="hardAlpha"/>
<feOffset dx="3.6" dy="3.6"/>
<feGaussianBlur stdDeviation="4.5"/>
<feComposite in2="hardAlpha" operator="out"/>
<feColorMatrix type="matrix" values="0 0 0 0 0 0 0 0 0 0 0 0 0 0 0 0 0 0 0.1 0"/>
<feBlend mode="normal" in2="BackgroundImageFix" result="effect1_dropShadow_961_6685"/>
<feBlend mode="normal" in="SourceGraphic" in2="effect1_dropShadow_961_6685" result="shape"/>
</filter>
</defs>
</svg>
