<svg width="497" height="497" viewBox="0 0 497 497" fill="none" xmlns="http://www.w3.org/2000/svg">
<g filter="url(#filter0_d_425_2112)">
<path fill-rule="evenodd" clip-rule="evenodd" d="M379.906 6H339.094C333.424 19.5108 320.07 29 304.5 29C288.93 29 275.576 19.5108 269.906 6H229.094C223.424 19.5108 210.07 29 194.5 29C178.93 29 165.576 19.5108 159.906 6H119.094C113.424 19.5108 100.07 29 84.5 29C68.9298 29 55.576 19.5108 49.9062 6H10V46.3432C22.9767 52.2412 32 65.3169 32 80.5C32 95.6831 22.9767 108.759 10 114.657V156.343C22.9767 162.241 32 175.317 32 190.5C32 205.683 22.9767 218.759 10 224.657V266.343C22.9767 272.241 32 285.317 32 300.5C32 315.683 22.9767 328.759 10 334.657V376.343C22.9767 382.241 32 395.317 32 410.5C32 425.683 22.9767 438.759 10 444.657V483H46.7962C51.6513 467.915 65.801 457 82.5 457C99.1991 457 113.349 467.915 118.204 483H156.796C161.651 467.915 175.801 457 192.5 457C209.199 457 223.349 467.915 228.204 483H266.796C271.651 467.915 285.801 457 302.5 457C319.199 457 333.349 467.915 338.204 483H376.796C381.651 467.915 395.801 457 412.5 457C429.199 457 443.349 467.915 448.204 483H487V441.675C475.105 435.387 467 422.89 467 408.5C467 394.11 475.105 381.613 487 375.325V331.675C475.105 325.387 467 312.89 467 298.5C467 284.11 475.105 271.613 487 265.325V221.675C475.105 215.387 467 202.89 467 188.5C467 174.11 475.105 161.613 487 155.325V111.675C475.105 105.387 467 92.8902 467 78.5C467 64.1098 475.105 51.6127 487 45.3252V6H449.094C443.424 19.5108 430.07 29 414.5 29C398.93 29 385.576 19.5108 379.906 6Z" fill="#C27F83"/>
</g>
<rect x="59" y="52" width="385" height="385" rx="10" fill="#D3979A"/>
<path d="M321.977 255H103.467C102.89 255 102.333 255.256 101.961 255.697C86.3331 274.256 95.0851 293.351 101.979 301.301C102.344 301.722 102.876 301.949 103.434 301.949H321.819C323.543 301.949 324.494 299.878 323.5 298.469C312.847 283.381 318.048 267.333 323.74 258.459C324.657 257.029 323.675 255 321.977 255Z" fill="#F1F1F1"/>
<path d="M325.837 255H103.455C102.918 255 102.403 255.211 102.04 255.606C94.9329 263.342 85.8775 282.295 102.015 301.669C102.387 302.116 102.949 302.376 103.53 302.376H325.837" stroke="#A04550" stroke-width="6" stroke-linecap="round" stroke-linejoin="round"/>
<path d="M322.202 306.217H103.692C103.116 306.217 102.558 306.473 102.187 306.914C86.5584 325.473 95.3103 344.568 102.204 352.518C102.569 352.939 103.102 353.166 103.659 353.166H322.044C323.768 353.166 324.72 351.095 323.725 349.686C313.073 334.599 318.273 318.55 323.965 309.676C324.882 308.246 323.901 306.217 322.202 306.217Z" fill="#F1F1F1"/>
<path d="M326.062 306.217H103.68C103.143 306.217 102.629 306.428 102.265 306.824C95.1581 314.56 86.1028 333.513 102.241 352.886C102.612 353.333 103.174 353.593 103.755 353.593H326.062" stroke="#5B5283" stroke-width="6" stroke-linecap="round" stroke-linejoin="round"/>
<path d="M322.202 357.434H103.692C103.116 357.434 102.558 357.69 102.187 358.131C86.5584 376.69 95.3103 395.786 102.204 403.735C102.569 404.156 103.102 404.384 103.659 404.384H322.044C323.768 404.384 324.72 402.312 323.725 400.903C313.073 385.816 318.273 369.767 323.965 360.893C324.882 359.463 323.901 357.434 322.202 357.434Z" fill="#F1F1F1"/>
<path d="M326.062 357.434H103.68C103.143 357.434 102.629 357.645 102.265 358.041C95.1581 365.777 86.1028 384.73 102.241 404.104C102.612 404.55 103.174 404.81 103.755 404.81H326.062" stroke="#A03A65" stroke-width="6" stroke-linecap="round" stroke-linejoin="round"/>
<path d="M93.5945 148V109.12H100.938V125.104H118.326V109.12H125.67V148H118.326V131.962H100.938V148H93.5945ZM130.551 148L142.431 109.12H153.393L165.273 148H157.713L147.129 113.71H148.533L138.111 148H130.551ZM137.679 139.9V133.042H158.199V139.9H137.679ZM185.743 148.81C181.855 148.81 178.498 147.964 175.672 146.272C172.864 144.58 170.695 142.213 169.165 139.171C167.653 136.129 166.897 132.592 166.897 128.56C166.897 124.528 167.653 120.991 169.165 117.949C170.695 114.907 172.864 112.54 175.672 110.848C178.498 109.156 181.855 108.31 185.743 108.31C190.207 108.31 193.951 109.417 196.975 111.631C200.017 113.845 202.159 116.842 203.401 120.622L196.003 122.674C195.283 120.316 194.068 118.489 192.358 117.193C190.648 115.879 188.443 115.222 185.743 115.222C183.277 115.222 181.216 115.771 179.56 116.869C177.922 117.967 176.689 119.515 175.861 121.513C175.033 123.511 174.619 125.86 174.619 128.56C174.619 131.26 175.033 133.609 175.861 135.607C176.689 137.605 177.922 139.153 179.56 140.251C181.216 141.349 183.277 141.898 185.743 141.898C188.443 141.898 190.648 141.241 192.358 139.927C194.068 138.613 195.283 136.786 196.003 134.446L203.401 136.498C202.159 140.278 200.017 143.275 196.975 145.489C193.951 147.703 190.207 148.81 185.743 148.81ZM209.346 148V109.12H216.69V127.048L231.486 109.12H240.45L224.196 128.29L241.476 148H232.188L216.69 130.288V148H209.346ZM242.559 148L254.439 109.12H265.401L277.281 148H269.721L259.137 113.71H260.541L250.119 148H242.559ZM249.687 139.9V133.042H270.207V139.9H249.687ZM287.921 148V115.978H275.663V109.12H307.523V115.978H295.265V148H287.921ZM311.862 148V109.12H319.206V125.104H336.594V109.12H343.938V148H336.594V131.962H319.206V148H311.862ZM368.204 148.81C364.316 148.81 360.959 147.964 358.133 146.272C355.325 144.58 353.156 142.213 351.626 139.171C350.114 136.129 349.358 132.592 349.358 128.56C349.358 124.528 350.114 120.991 351.626 117.949C353.156 114.907 355.325 112.54 358.133 110.848C360.959 109.156 364.316 108.31 368.204 108.31C372.092 108.31 375.44 109.156 378.248 110.848C381.074 112.54 383.243 114.907 384.755 117.949C386.285 120.991 387.05 124.528 387.05 128.56C387.05 132.592 386.285 136.129 384.755 139.171C383.243 142.213 381.074 144.58 378.248 146.272C375.44 147.964 372.092 148.81 368.204 148.81ZM368.204 141.898C370.67 141.934 372.722 141.403 374.36 140.305C375.998 139.207 377.222 137.65 378.032 135.634C378.86 133.618 379.274 131.26 379.274 128.56C379.274 125.86 378.86 123.52 378.032 121.54C377.222 119.56 375.998 118.021 374.36 116.923C372.722 115.825 370.67 115.258 368.204 115.222C365.738 115.186 363.686 115.717 362.048 116.815C360.41 117.913 359.177 119.47 358.349 121.486C357.539 123.502 357.134 125.86 357.134 128.56C357.134 131.26 357.539 133.6 358.349 135.58C359.177 137.56 360.41 139.099 362.048 140.197C363.686 141.295 365.738 141.862 368.204 141.898ZM392.44 148V109.12H399.892L416.794 135.04V109.12H424.246V148H416.794L399.892 122.08V148H392.44ZM183.928 208V169.12H200.344C200.722 169.12 201.226 169.138 201.856 169.174C202.504 169.192 203.08 169.246 203.584 169.336C205.906 169.696 207.805 170.461 209.281 171.631C210.775 172.801 211.873 174.277 212.575 176.059C213.277 177.823 213.628 179.794 213.628 181.972C213.628 185.23 212.818 188.02 211.198 190.342C209.578 192.646 207.04 194.068 203.584 194.608L200.344 194.824H191.272V208H183.928ZM205.852 208L198.184 192.178L205.744 190.72L214.168 208H205.852ZM191.272 187.966H200.02C200.398 187.966 200.812 187.948 201.262 187.912C201.712 187.876 202.126 187.804 202.504 187.696C203.494 187.426 204.259 186.976 204.799 186.346C205.339 185.698 205.708 184.987 205.906 184.213C206.122 183.421 206.23 182.674 206.23 181.972C206.23 181.27 206.122 180.532 205.906 179.758C205.708 178.966 205.339 178.255 204.799 177.625C204.259 176.977 203.494 176.518 202.504 176.248C202.126 176.14 201.712 176.068 201.262 176.032C200.812 175.996 200.398 175.978 200.02 175.978H191.272V187.966ZM220.104 208V169.12H245.484V175.978H227.448V184.294H242.244V191.152H227.448V201.142H245.484V208H220.104ZM266.521 208.81C264.073 208.81 261.742 208.378 259.528 207.514C257.314 206.632 255.352 205.336 253.642 203.626C251.95 201.916 250.609 199.801 249.619 197.281C248.647 194.761 248.161 191.854 248.161 188.56C248.161 184.258 248.98 180.604 250.618 177.598C252.274 174.574 254.488 172.27 257.26 170.686C260.05 169.102 263.137 168.31 266.521 168.31C271.525 168.31 275.458 169.471 278.32 171.793C281.182 174.115 283.099 177.4 284.071 181.648L276.565 182.728C275.863 180.46 274.711 178.651 273.109 177.301C271.525 175.933 269.491 175.24 267.007 175.222C264.541 175.186 262.489 175.717 260.851 176.815C259.213 177.913 257.98 179.47 257.152 181.486C256.342 183.502 255.937 185.86 255.937 188.56C255.937 191.26 256.342 193.6 257.152 195.58C257.98 197.56 259.213 199.099 260.851 200.197C262.489 201.295 264.541 201.862 267.007 201.898C268.681 201.934 270.193 201.646 271.543 201.034C272.911 200.422 274.063 199.459 274.999 198.145C275.935 196.831 276.601 195.148 276.997 193.096H270.841V187.426H284.827C284.863 187.66 284.89 188.074 284.908 188.668C284.926 189.262 284.935 189.604 284.935 189.694C284.935 193.42 284.179 196.723 282.667 199.603C281.155 202.483 279.022 204.742 276.268 206.38C273.514 208 270.265 208.81 266.521 208.81ZM306.168 208.81C303.036 208.81 300.282 208.18 297.906 206.92C295.53 205.642 293.676 203.851 292.344 201.547C291.012 199.243 290.346 196.534 290.346 193.42V169.174L297.798 169.12V193.366C297.798 194.644 298.014 195.805 298.446 196.849C298.878 197.893 299.472 198.793 300.228 199.549C301.002 200.305 301.893 200.89 302.901 201.304C303.927 201.7 305.016 201.898 306.168 201.898C307.356 201.898 308.454 201.691 309.462 201.277C310.488 200.863 311.379 200.278 312.135 199.522C312.891 198.766 313.476 197.866 313.89 196.822C314.322 195.778 314.538 194.626 314.538 193.366V169.12H321.99V193.42C321.99 196.534 321.324 199.243 319.992 201.547C318.66 203.851 316.806 205.642 314.43 206.92C312.054 208.18 309.3 208.81 306.168 208.81ZM330.068 208V169.12H337.412V201.142H354.152V208H330.068ZM356.043 208L367.923 169.12H378.885L390.765 208H383.205L372.621 173.71H374.025L363.603 208H356.043ZM363.171 199.9V193.042H383.691V199.9H363.171ZM395.604 208V169.12H412.02C412.398 169.12 412.902 169.138 413.532 169.174C414.18 169.192 414.756 169.246 415.26 169.336C417.582 169.696 419.481 170.461 420.957 171.631C422.451 172.801 423.549 174.277 424.251 176.059C424.953 177.823 425.304 179.794 425.304 181.972C425.304 185.23 424.494 188.02 422.874 190.342C421.254 192.646 418.716 194.068 415.26 194.608L412.02 194.824H402.948V208H395.604ZM417.528 208L409.86 192.178L417.42 190.72L425.844 208H417.528ZM402.948 187.966H411.696C412.074 187.966 412.488 187.948 412.938 187.912C413.388 187.876 413.802 187.804 414.18 187.696C415.17 187.426 415.935 186.976 416.475 186.346C417.015 185.698 417.384 184.987 417.582 184.213C417.798 183.421 417.906 182.674 417.906 181.972C417.906 181.27 417.798 180.532 417.582 179.758C417.384 178.966 417.015 178.255 416.475 177.625C415.935 176.977 415.17 176.518 414.18 176.248C413.802 176.14 413.388 176.068 412.938 176.032C412.488 175.996 412.074 175.978 411.696 175.978H402.948V187.966Z" fill="white"/>
<defs>
<filter id="filter0_d_425_2112" x="0" y="0" width="497" height="497" filterUnits="userSpaceOnUse" color-interpolation-filters="sRGB">
<feFlood flood-opacity="0" result="BackgroundImageFix"/>
<feColorMatrix in="SourceAlpha" type="matrix" values="0 0 0 0 0 0 0 0 0 0 0 0 0 0 0 0 0 0 127 0" result="hardAlpha"/>
<feOffset dy="4"/>
<feGaussianBlur stdDeviation="5"/>
<feComposite in2="hardAlpha" operator="out"/>
<feColorMatrix type="matrix" values="0 0 0 0 0 0 0 0 0 0 0 0 0 0 0 0 0 0 0.1 0"/>
<feBlend mode="normal" in2="BackgroundImageFix" result="effect1_dropShadow_425_2112"/>
<feBlend mode="normal" in="SourceGraphic" in2="effect1_dropShadow_425_2112" result="shape"/>
</filter>
</defs>
</svg>
