<svg width="490" height="385" viewBox="0 0 490 385" fill="none" xmlns="http://www.w3.org/2000/svg">
<g filter="url(#filter0_d_961_6686)">
<rect x="6.28027" y="6.32007" width="470.16" height="365.76" rx="51.723" fill="white" shape-rendering="crispEdges"/>
<rect x="7.63027" y="7.67007" width="467.46" height="363.06" rx="50.373" stroke="black" stroke-opacity="0.2" stroke-width="2.7" shape-rendering="crispEdges"/>
<rect x="22.48" y="22.52" width="437.76" height="333.36" rx="35.5268" fill="#DE4949"/>
<path d="M170.306 92.4639H166.605H162.905H159.204H155.503V88.7632H159.204H162.905V85.0624V81.3617V77.661V73.9603H159.204H155.503H151.803H148.102H144.401V77.661V81.3617V85.0624V88.7632H148.102H151.803V92.4639H148.102H144.401H140.7H137H133.299V88.7632H137V85.0624V81.3617V77.661V73.9603V70.2596V66.5589V62.8582V59.1575V55.4568V51.7561H133.299V48.0553H137H140.7H144.401H148.102H151.803V51.7561H148.102H144.401V55.4568V59.1575V62.8582V66.5589V70.2596H148.102H151.803H155.503H159.204H162.905V66.5589V62.8582V59.1575V55.4568V51.7561H159.204H155.503V48.0553H159.204H162.905H166.605H170.306H174.007V51.7561H170.306V55.4568V59.1575V62.8582V66.5589V70.2596V73.9603V77.661V81.3617V85.0624V88.7632H174.007V92.4639H170.306ZM205.833 77.661V73.9603V70.2596H202.132H198.432H194.731V73.9603V77.661V81.3617V85.0624V88.7632H198.432H202.132H205.833H209.534V85.0624H213.234V81.3617H216.935V85.0624V88.7632V92.4639H213.234H209.534H205.833H202.132H198.432H194.731H191.03H187.329H183.629V88.7632H187.329V85.0624V81.3617V77.661V73.9603V70.2596V66.5589V62.8582V59.1575V55.4568V51.7561H183.629V48.0553H187.329H191.03H194.731H198.432H202.132H205.833H209.534H213.234H216.935V51.7561V55.4568V59.1575H213.234V55.4568H209.534V51.7561H205.833H202.132H198.432H194.731V55.4568V59.1575V62.8582V66.5589H198.432H202.132H205.833V62.8582V59.1575H209.534V62.8582V66.5589V70.2596V73.9603V77.661H205.833ZM252.462 92.4639H248.761H245.061H241.36H237.659H233.958H230.258H226.557V88.7632H230.258V85.0624V81.3617V77.661V73.9603V70.2596V66.5589V62.8582V59.1575V55.4568V51.7561H226.557V48.0553H230.258H233.958H237.659H241.36V51.7561H237.659V55.4568V59.1575V62.8582V66.5589V70.2596V73.9603V77.661V81.3617V85.0624V88.7632H241.36H245.061V85.0624H248.761V81.3617H252.462V77.661H256.163V81.3617V85.0624V88.7632V92.4639H252.462ZM291.689 92.4639H287.989H284.288H280.587H276.887H273.186H269.485H265.785V88.7632H269.485V85.0624V81.3617V77.661V73.9603V70.2596V66.5589V62.8582V59.1575V55.4568V51.7561H265.785V48.0553H269.485H273.186H276.887H280.587V51.7561H276.887V55.4568V59.1575V62.8582V66.5589V70.2596V73.9603V77.661V81.3617V85.0624V88.7632H280.587H284.288V85.0624H287.989V81.3617H291.689V77.661H295.39V81.3617V85.0624V88.7632V92.4639H291.689ZM334.618 92.4639H330.917H327.216H323.516H319.815H316.114V88.7632H312.413V85.0624H308.713V81.3617V77.661V73.9603V70.2596V66.5589V62.8582V59.1575H312.413V55.4568V51.7561H316.114H319.815V48.0553H323.516H327.216H330.917H334.618V51.7561H338.318H342.019V55.4568V59.1575H345.72V62.8582V66.5589V70.2596V73.9603V77.661V81.3617V85.0624H342.019V88.7632H338.318V92.4639H334.618ZM327.216 88.7632H330.917V85.0624H334.618V81.3617H338.318V77.661V73.9603V70.2596V66.5589V62.8582H334.618V59.1575V55.4568H330.917V51.7561H327.216H323.516V55.4568H319.815V59.1575V62.8582H316.114V66.5589V70.2596V73.9603V77.661V81.3617H319.815V85.0624H323.516V88.7632H327.216Z" fill="white"/>
<path d="M187.893 140.864V110.624H192.126V140.864H187.893ZM222.648 140.864L222.475 137.105V129.589C222.475 128.005 222.288 126.68 221.913 125.614C221.568 124.549 221.02 123.742 220.272 123.195C219.552 122.648 218.587 122.374 217.377 122.374C216.254 122.374 215.275 122.605 214.44 123.065C213.633 123.526 212.956 124.246 212.409 125.225L208.78 123.843C209.299 122.864 209.947 122 210.724 121.251C211.502 120.473 212.438 119.869 213.532 119.437C214.627 118.976 215.908 118.745 217.377 118.745C219.422 118.745 221.121 119.149 222.475 119.955C223.828 120.761 224.836 121.928 225.499 123.454C226.19 124.981 226.521 126.867 226.492 129.113L226.449 140.864H222.648ZM216.297 141.382C213.734 141.382 211.732 140.806 210.292 139.654C208.881 138.473 208.176 136.846 208.176 134.773C208.176 132.555 208.91 130.87 210.379 129.718C211.876 128.537 213.95 127.947 216.6 127.947H222.604V131.187H217.723C215.736 131.187 214.339 131.504 213.532 132.137C212.726 132.742 212.323 133.592 212.323 134.686C212.323 135.694 212.697 136.486 213.446 137.062C214.224 137.609 215.289 137.883 216.643 137.883C217.824 137.883 218.846 137.638 219.71 137.149C220.574 136.63 221.251 135.91 221.74 134.989C222.23 134.067 222.475 133.016 222.475 131.835H223.9C223.9 134.773 223.267 137.105 222 138.833C220.761 140.533 218.86 141.382 216.297 141.382ZM231.66 140.864V119.264H235.505L235.678 122.245C236.369 121.093 237.233 120.229 238.27 119.653C239.307 119.048 240.502 118.745 241.855 118.745C243.583 118.745 245.052 119.149 246.262 119.955C247.471 120.733 248.35 121.928 248.897 123.541C249.531 121.985 250.423 120.805 251.575 119.998C252.727 119.163 254.095 118.745 255.679 118.745C258.127 118.745 260.043 119.552 261.425 121.165C262.807 122.749 263.484 125.197 263.455 128.509V140.864H259.395V129.805C259.395 127.846 259.179 126.363 258.747 125.355C258.343 124.318 257.796 123.598 257.105 123.195C256.414 122.792 255.607 122.576 254.686 122.547C253.073 122.547 251.82 123.166 250.927 124.405C250.063 125.643 249.631 127.385 249.631 129.632V140.864H245.527V129.805C245.527 127.846 245.326 126.363 244.923 125.355C244.519 124.318 243.958 123.598 243.238 123.195C242.547 122.792 241.74 122.576 240.819 122.547C239.206 122.547 237.953 123.166 237.06 124.405C236.196 125.643 235.764 127.385 235.764 129.632V140.864H231.66ZM292.51 140.864L292.337 137.105V129.589C292.337 128.005 292.15 126.68 291.776 125.614C291.43 124.549 290.883 123.742 290.134 123.195C289.414 122.648 288.449 122.374 287.24 122.374C286.117 122.374 285.137 122.605 284.302 123.065C283.496 123.526 282.819 124.246 282.272 125.225L278.643 123.843C279.161 122.864 279.809 122 280.587 121.251C281.365 120.473 282.301 119.869 283.395 119.437C284.489 118.976 285.771 118.745 287.24 118.745C289.285 118.745 290.984 119.149 292.337 119.955C293.691 120.761 294.699 121.928 295.361 123.454C296.053 124.981 296.384 126.867 296.355 129.113L296.312 140.864H292.51ZM286.16 141.382C283.597 141.382 281.595 140.806 280.155 139.654C278.744 138.473 278.038 136.846 278.038 134.773C278.038 132.555 278.773 130.87 280.241 129.718C281.739 128.537 283.813 127.947 286.462 127.947H292.467V131.187H287.585C285.598 131.187 284.201 131.504 283.395 132.137C282.589 132.742 282.185 133.592 282.185 134.686C282.185 135.694 282.56 136.486 283.309 137.062C284.086 137.609 285.152 137.883 286.505 137.883C287.686 137.883 288.709 137.638 289.573 137.149C290.437 136.63 291.113 135.91 291.603 134.989C292.093 134.067 292.337 133.016 292.337 131.835H293.763C293.763 134.773 293.129 137.105 291.862 138.833C290.624 140.533 288.723 141.382 286.16 141.382Z" fill="white"/>
<rect x="43.7964" y="168.18" width="395.128" height="166.384" rx="14.2107" fill="white"/>
<path d="M362.134 295.833C363.955 295.57 365.296 294.605 367.118 295.899C368.892 297.207 370.343 294.132 372.605 296.89C374.749 299.672 376.259 296.511 379.341 297.41C380.571 297.784 381.752 298.624 382.787 299.566C384.252 300.917 385.394 302.431 386.337 302.959C387.921 303.837 390.157 304.97 391.836 306.968C393.499 308.937 396.615 310.245 397.981 312.848C398.843 314.482 399.876 316.543 400.616 318.231C401.157 319.323 401.504 320.356 401.658 321.066C402.053 323.012 402.07 323.425 403.24 324.745C403.904 325.503 404.288 326.805 403.964 328.202C403.803 328.908 403.178 329.058 402.665 328.685C401.912 328.137 401.879 327.404 400.987 327.374C399.208 327.326 398.522 327.296 398.856 325.969C399.175 324.629 397.132 325.243 397.069 324.676C396.994 324.174 397.945 323.413 396.108 322.192C395.961 322.091 395.786 321.97 395.611 321.863C392.84 320.133 391.551 319.168 390.584 318.512C389.643 317.877 388.66 315.464 386.999 314.551C385.379 313.624 382.623 311.089 381.027 310.798C379.452 310.498 380.206 309.359 379.565 308.059C379.291 307.517 378.679 307.626 377.994 307.86C377.061 308.198 376.027 308.803 375.439 308.193C374.416 307.152 374.951 305.415 373.234 305.122C371.542 304.849 370.335 303.131 369.369 303.589C368.422 304.055 369.023 301.902 367.815 302.054C366.618 302.216 366.068 301.765 365.305 300.82C364.553 299.862 361.69 298.597 360.444 299.292C359.218 299.971 358.251 298.256 357.531 297.791C357.315 297.647 357.144 297.468 357.025 297.29C356.975 297.214 356.966 297.067 356.983 296.926C357.004 296.75 357.067 296.581 357.147 296.568C357.546 296.508 358.154 296.299 358.931 295.768C360.388 294.786 360.315 296.11 362.134 295.833ZM375.265 284.934C378.597 287.216 379.419 283.807 383.242 284.161C387.088 284.536 390.934 288.058 392.9 288.801C393.033 288.849 393.17 288.898 393.305 288.945C395.509 289.742 398.116 290.885 400.265 292.812C401.111 293.57 402.136 294.209 403.204 294.852C405.05 295.967 407.003 297.103 408.315 298.783C410.079 301.036 412.409 304.049 413.758 306.093C414.002 306.459 414.216 306.793 414.388 307.085C415.526 309.024 415.788 309.464 417.537 310.667C418.543 311.369 419.448 312.786 419.589 314.398C419.662 315.211 419.07 315.477 418.415 315.142C417.457 314.655 417.161 313.855 416.244 313.998C414.41 314.293 413.751 314.457 413.563 312.97C413.342 311.467 411.489 312.597 411.131 311.955C410.879 311.514 411.175 310.952 410.319 310.098C409.909 309.691 409.231 309.216 408.099 308.672C404.599 306.997 402.831 305.944 401.578 305.262C400.656 304.765 399.491 303.216 398.107 302.068C397.603 301.65 397.071 301.282 396.52 301.03C394.585 300.116 391.214 297.725 389.447 297.511C389.314 297.487 389.185 297.468 389.065 297.458C387.179 297.32 387.734 296.072 386.639 294.834C385.499 293.6 383.392 296.471 381.931 295.584C380.423 294.706 380.531 292.881 378.452 292.907C376.404 292.95 374.497 291.527 373.509 292.189C372.947 292.569 372.746 291.999 372.396 291.52C372.121 291.165 371.795 290.862 371.19 291.036C369.786 291.448 368.972 291.109 367.812 290.319C366.654 289.525 362.967 288.735 361.634 289.616C360.305 290.484 358.854 288.949 357.97 288.715C357.704 288.641 357.499 288.532 357.327 288.433C357.253 288.392 357.16 288.282 357.079 288.165C356.975 288.022 356.952 287.825 357.065 287.752C357.58 287.43 358.259 287.096 359.095 286.411C360.668 285.166 360.856 286.498 362.938 285.933C365.032 285.384 366.344 284.217 368.725 285.144C370.416 285.809 371.284 284.316 372.851 284.178C373.516 284.127 374.293 284.298 375.265 284.934ZM319.504 253.936C321.408 252.598 323.365 252.967 324.213 253.219C327.391 254.263 328.558 256.156 329.61 257.244C331.292 259.185 332.928 261.464 334.296 264.058C334.98 265.353 335.599 266.73 336.124 268.159C336.166 268.275 336.207 268.393 336.249 268.51C341.58 266.996 347.251 264.249 355.438 262.669C355.881 262.649 356.398 262.662 357.028 262.805C357.779 262.974 358.922 263.431 359.816 264.502C361.656 267.059 360.864 268.54 360.821 269.143C360.425 270.545 360.07 270.972 359.737 271.538C359.083 272.543 358.469 273.254 357.856 273.929C355.962 275.984 353.876 277.922 351.73 279.895C350.659 280.876 349.572 281.857 348.519 282.812C347.988 283.295 347.475 283.76 346.975 284.226C346.932 284.266 346.888 284.308 346.844 284.349C348.365 287.686 349.434 290.714 350.108 292.833C350.727 294.792 351.152 296.245 351.566 297.512C351.645 297.736 351.706 297.952 351.747 298.168C351.796 298.423 351.826 298.699 351.791 299.023C351.751 299.385 351.617 299.774 351.332 300.106C351.041 300.437 350.734 300.592 350.444 300.695C349.387 300.996 348.743 300.817 348.041 300.732C346.67 300.506 345.255 300.141 343.411 299.642C340.167 298.798 336.16 296.691 332.876 294.93C332.47 294.731 332.177 294.594 332.007 294.493C331.812 294.394 331.683 294.337 331.685 294.191C331.726 293.83 332.638 293.561 333.628 293.687C336.618 294.073 338.618 295.279 340.266 295.049C342.485 294.744 343.824 294.636 345.355 295.156C345.124 293.689 344.374 291.361 340.593 285.871C340.531 285.786 340.469 285.701 340.407 285.617L339.824 284.771L339.93 283.348C340.052 282.558 340.228 282.304 340.338 282.059C340.403 281.935 340.436 281.876 340.463 281.828C340.492 281.777 340.52 281.73 340.546 281.685C340.648 281.514 340.763 281.347 340.816 281.265C340.948 281.066 341.091 280.869 341.193 280.725C341.436 280.391 341.626 280.134 341.836 279.857C342.244 279.32 342.631 278.823 343.001 278.35C343.75 277.397 344.445 276.524 345.101 275.701C345.373 275.36 345.637 275.027 345.894 274.704C343.642 275.333 341.372 276.026 339.483 276.729C338.761 276.992 337.971 277.264 337.052 277.549C336.592 277.69 336.1 277.835 335.566 277.974C335.261 278.052 335 278.117 334.603 278.195C334.439 278.227 334.175 278.275 333.865 278.307C333.737 278.32 333.467 278.348 333.079 278.337C332.98 278.334 332.871 278.329 332.749 278.317C332.687 278.311 332.622 278.303 332.552 278.294C332.517 278.289 332.481 278.283 332.444 278.277C332.387 278.268 332.302 278.253 332.223 278.237C331.652 278.075 330.31 277.903 329.103 276.005C328.777 275.417 328.751 275.27 328.673 275.083C328.618 274.934 328.573 274.805 328.541 274.709C328.47 274.498 328.42 274.343 328.371 274.188C328.273 273.883 328.184 273.608 328.092 273.332C327.913 272.791 327.723 272.256 327.517 271.722C327.106 270.657 326.632 269.602 326.096 268.58C325.751 267.917 325.377 267.273 324.988 266.652C324.96 266.817 324.929 266.988 324.903 267.165C324.729 268.391 324.836 269.563 324.904 270.998C324.927 271.724 324.958 272.521 324.754 273.569C324.553 274.571 324.01 276.128 322.414 277.358C321.58 277.901 321.253 277.99 320.974 278.132C320.716 278.252 320.524 278.34 320.37 278.419C320.052 278.577 319.811 278.71 319.565 278.842C319.086 279.1 318.624 279.342 318.143 279.566C317.178 280.015 316.137 280.389 314.914 280.602C314.396 280.695 313.917 280.763 313.468 280.815C315.891 282.446 317.988 283.889 319.615 284.591C320.214 284.856 320.697 285.188 321.186 285.718C321.438 285.998 321.673 286.287 321.98 286.833C322.214 287.366 322.839 288.177 322.499 290.075C321.883 290.946 321.046 291.723 321.034 294.242C321.023 295.609 320.926 296.786 320.758 297.866C320.427 299.987 319.81 301.741 318.901 303.886C318.593 304.611 318.216 305.685 317.818 306.948C317.807 306.983 317.797 307.019 317.786 307.054C319.61 305.525 321.04 304.148 321.734 302.867C322.034 302.364 322.365 301.904 322.747 301.444C324.882 298.882 328.011 297.12 329.681 295.594C330.299 295.039 330.862 294.65 331.321 294.404C331.515 294.299 331.687 294.329 331.79 294.427C331.916 294.552 331.939 294.778 331.773 294.987C330.968 295.983 329.994 297.689 328.918 299.85C327.769 302.172 326.833 302.953 325.58 304.102C324.632 304.959 323.563 306 321.873 307.941C320.076 310.011 318.456 311.395 317.409 312.887C317.251 313.036 317.042 313.234 316.617 313.441C316.403 313.542 316.127 313.642 315.78 313.692C315.348 313.767 314.624 313.701 314.094 313.425C313.548 313.156 313.19 312.767 312.981 312.463C312.857 312.277 312.848 312.249 312.8 312.163C312.761 312.088 312.727 312.018 312.699 311.953C312.587 311.691 312.542 311.499 312.509 311.345C312.476 311.179 312.468 311.108 312.459 311.042C312.452 310.975 312.447 310.915 312.443 310.861C312.435 310.758 312.433 310.647 312.431 310.601C312.426 310.359 312.433 310.217 312.437 310.077C312.445 309.819 312.456 309.615 312.47 309.408C312.497 309.005 312.528 308.646 312.567 308.276C312.645 307.542 312.748 306.82 312.881 306.071C313.148 304.574 313.54 302.979 314.112 301.163C314.623 299.535 314.791 298.183 314.807 296.941C314.875 294.76 314.384 293.201 314.567 290.546C314.096 290.113 313.528 289.6 312.917 289.027C308.88 285.345 306.122 284.565 303.019 283.671C302.63 283.544 302.228 283.41 301.738 283.183C301.498 283.072 301.222 282.931 300.889 282.71C300.551 282.46 300.144 282.243 299.481 281.301C299.168 280.81 298.687 279.995 298.643 278.619C298.586 277.227 299.284 275.86 299.813 275.241C300.91 273.979 301.422 273.841 301.85 273.544C302.663 273.068 303.107 272.853 303.586 272.607C304.739 272 306.059 271.396 307.712 270.811C309.392 270.217 311.216 269.686 313.106 269.241C314.048 269.019 315.021 268.816 316.004 268.638C316.097 268.622 316.19 268.607 316.282 268.591C316.388 267.584 316.437 266.423 316.491 265.279C316.619 262.511 316.738 259.736 317.396 257.118C317.608 256.342 318.012 255.04 319.504 253.936ZM388.771 272.369C389.418 272.359 390.066 272.41 390.713 272.504C394.49 273.042 398.29 275.103 400.39 275.393C401.789 275.582 403.475 275.774 405.287 276.18C406.686 276.494 408.144 276.933 409.567 277.569C412.484 278.87 416.395 279.283 419.583 281.012C419.978 281.223 420.359 281.454 420.719 281.707C424.243 284.117 428.29 287.956 429.936 289.942C431.591 291.927 431.97 292.401 434.137 293.47C435.382 294.088 436.745 295.413 437.445 297.089C437.798 297.933 437.268 298.318 436.455 298.069C435.264 297.706 434.681 296.893 433.731 297.159C431.831 297.693 431.08 297.881 430.417 296.263C429.744 294.643 427.967 295.931 427.407 295.25C426.841 294.589 427.545 293.484 423.38 291.983C419.562 290.671 417.494 290.075 416.055 289.712C415.92 289.677 415.788 289.642 415.661 289.611C414.087 289.214 411.235 287.022 408.563 286.588C407.139 286.349 405.02 285.714 403.007 285.26C401.267 284.865 399.584 284.591 398.541 284.679C396.293 284.88 396.547 283.539 394.911 282.488C393.272 281.458 391.435 284.526 389.448 283.913C389.424 283.906 389.4 283.897 389.376 283.889C387.323 283.198 387.16 281.349 384.803 281.682C383.002 281.964 381.085 281.405 379.8 281.56C379.447 281.603 379.15 281.698 378.927 281.876C377.881 282.711 377.554 280.498 376.011 281.156C374.476 281.819 373.493 281.645 372.009 281.107C370.536 280.552 366.131 280.608 364.778 281.802C363.431 282.968 361.419 281.837 360.311 281.813C359.973 281.804 359.697 281.743 359.472 281.676C359.374 281.649 359.277 281.541 359.2 281.421C359.103 281.272 359.072 281.082 359.19 281C359.699 280.64 360.4 280.144 361.211 279.278C362.741 277.685 363.219 278.937 365.51 277.888C367.801 276.863 369.108 275.418 372.073 275.838C374.919 276.266 375.307 273.094 379.195 274.276C379.325 274.315 379.459 274.359 379.593 274.409C383.825 276.025 384.283 272.494 388.771 272.369ZM349.284 296.797C349.233 296.791 349.126 296.778 348.941 296.833C349.194 296.877 349.409 296.839 349.284 296.797ZM315.337 291.296C315.49 291.494 315.508 291.479 315.484 291.445C315.456 291.404 315.389 291.331 315.299 291.239C315.314 291.259 315.325 291.279 315.337 291.296ZM316.101 269.789C316.036 269.895 315.989 269.988 315.96 270.058C315.849 270.333 315.885 270.39 315.924 270.335C315.979 270.262 316.042 270.057 316.101 269.789ZM333.055 269.222C332.939 269.236 332.922 269.247 332.944 269.248C332.976 269.254 333.131 269.235 333.262 269.217C333.268 269.215 333.275 269.215 333.281 269.214C333.176 269.214 333.107 269.218 333.055 269.222ZM351.756 266.589C351.757 266.584 351.704 266.581 351.613 266.931C351.62 266.918 351.627 266.905 351.633 266.892C351.707 266.746 351.761 266.614 351.756 266.589ZM321.283 262.032C321.06 261.879 321.169 262.077 321.485 262.222C321.498 262.227 321.513 262.233 321.528 262.238C321.429 262.146 321.347 262.075 321.283 262.032Z" fill="#F68D4C"/>
<path d="M71.1436 242.862C70.4392 242.862 69.846 242.528 69.364 241.861C68.882 241.193 68.641 239.784 68.641 237.634C68.641 236.077 68.8449 234.149 69.2527 231.85C69.6606 229.551 70.1982 227.086 70.8655 224.454C71.57 221.821 72.3115 219.189 73.0901 216.556C73.8687 213.924 74.6473 211.458 75.4259 209.16C76.2045 206.861 76.8904 204.915 77.4836 203.32C78.0768 201.689 78.5032 200.595 78.7627 200.039C78.911 199.668 79.1705 199.335 79.5413 199.038C79.912 198.741 80.3013 198.593 80.7092 198.593C81.5619 198.593 82.0995 198.816 82.322 199.261C82.5444 199.705 82.6557 200.187 82.6557 200.706C82.6557 201.522 82.2849 203.394 81.5434 206.323C80.8019 209.215 79.6525 213.516 78.0953 219.226C79.5413 218.892 81.1356 218.577 82.8781 218.28C84.6207 217.984 86.3632 217.706 88.1058 217.446C89.8855 217.187 91.5168 216.964 92.9998 216.779C94.5199 216.556 95.7805 216.39 96.7816 216.278C97.8197 216.167 98.45 216.111 98.6724 216.111C98.932 216.111 99.2471 216.186 99.6179 216.334C100.211 214.072 100.786 211.978 101.342 210.05C101.898 208.122 102.38 206.509 102.788 205.211C103.196 203.876 103.474 202.987 103.622 202.542C104.401 200.688 105.328 199.761 106.403 199.761C107.033 199.761 107.552 199.983 107.96 200.428C108.368 200.873 108.572 201.522 108.572 202.375C108.572 203.079 108.423 204.266 108.127 205.934C107.83 207.603 107.422 209.568 106.903 211.829C106.421 214.091 105.865 216.501 105.235 219.059C104.642 221.58 104.03 224.101 103.4 226.622C102.806 229.107 102.232 231.442 101.676 233.63C101.157 235.78 100.712 237.597 100.341 239.08C100.007 240.563 99.8032 241.527 99.7291 241.972C99.5808 242.899 99.3398 243.752 99.0061 244.53C98.6724 245.346 98.0421 245.754 97.1152 245.754C96.3737 245.754 95.8732 245.272 95.6137 244.308C95.3912 243.344 95.28 242.102 95.28 240.582C95.28 238.876 95.4283 236.93 95.7249 234.742C96.0215 232.518 96.4108 230.182 96.8928 227.735C97.4118 225.288 97.968 222.859 98.5612 220.449C97.5231 220.709 96.1327 221.005 94.3902 221.339C92.6847 221.673 90.7938 222.025 88.7176 222.396C86.6413 222.767 84.5651 223.119 82.4888 223.452C80.4126 223.786 78.5032 224.064 76.7606 224.287C75.7596 228.291 74.9624 231.683 74.3692 234.464C73.8131 237.208 73.3125 239.302 72.8676 240.748C72.4227 242.157 71.8481 242.862 71.1436 242.862ZM115.083 245.531C113.674 245.531 112.506 244.882 111.58 243.585C110.69 242.25 110.245 240.526 110.245 238.413C110.245 236.448 110.727 234.501 111.691 232.573C112.692 230.645 114.008 228.791 115.639 227.012C117.271 225.232 119.05 223.601 120.978 222.118C122.906 220.598 124.834 219.281 126.762 218.169C128.727 217.057 130.525 216.186 132.157 215.555C133.788 214.925 135.086 214.61 136.05 214.61C136.569 214.61 136.995 214.721 137.329 214.944C137.662 215.129 137.829 215.481 137.829 216C137.829 216.334 137.7 216.649 137.44 216.946C137.477 216.946 137.514 216.946 137.551 216.946C138.367 216.946 138.775 217.428 138.775 218.392C138.775 218.725 138.645 219.411 138.385 220.449C138.126 221.45 137.829 222.711 137.496 224.231C137.162 225.751 136.865 227.438 136.606 229.292C136.346 231.109 136.216 232.962 136.216 234.853C136.216 236.448 136.828 237.245 138.052 237.245C139.424 237.245 140.814 236.93 142.223 236.299C143.632 235.669 145.003 234.909 146.338 234.019C147.673 233.092 148.896 232.184 150.009 231.294C151.121 230.367 152.066 229.589 152.845 228.958C153.624 228.328 154.18 228.013 154.513 228.013C154.81 228.013 155.07 228.106 155.292 228.291C155.514 228.476 155.626 228.773 155.626 229.181C155.626 229.551 155.255 230.219 154.513 231.183C153.772 232.147 152.789 233.241 151.566 234.464C150.342 235.688 148.971 236.874 147.45 238.023C145.93 239.173 144.373 240.118 142.779 240.86C141.185 241.601 139.665 241.972 138.219 241.972C137.106 241.972 136.087 241.638 135.16 240.971C134.27 240.266 133.547 239.08 132.991 237.412C132.472 235.743 132.212 233.444 132.212 230.515V229.125C130.396 232.128 128.486 234.872 126.484 237.356C124.519 239.84 122.554 241.824 120.589 243.307C118.661 244.79 116.826 245.531 115.083 245.531ZM134.993 218.614C134.808 218.688 134.548 218.799 134.214 218.948C132.509 219.726 130.729 220.69 128.875 221.84C127.059 222.989 125.279 224.268 123.537 225.677C121.831 227.086 120.292 228.55 118.921 230.071C117.549 231.591 116.455 233.129 115.639 234.686C114.824 236.244 114.416 237.764 114.416 239.247C114.416 239.729 114.509 240.1 114.694 240.359C114.916 240.619 115.287 240.748 115.806 240.748C116.548 240.748 117.512 240.285 118.698 239.358C119.885 238.394 121.182 237.133 122.591 235.576C124.037 234.019 125.483 232.295 126.929 230.404C128.375 228.513 129.747 226.604 131.044 224.676C132.379 222.748 133.528 220.968 134.492 219.337C134.641 219.078 134.808 218.837 134.993 218.614ZM157.247 244.864C155.43 244.864 153.854 244.456 152.52 243.64C151.222 242.788 150.221 241.694 149.516 240.359C148.812 239.024 148.46 237.653 148.46 236.244C148.46 233.278 148.979 230.571 150.017 228.124C151.055 225.64 152.353 223.452 153.91 221.562C155.504 219.634 157.136 218.002 158.804 216.668C160.509 215.333 162.048 214.332 163.42 213.664C164.829 212.96 165.83 212.608 166.423 212.608C167.609 212.608 168.203 213.201 168.203 214.387C168.203 214.944 167.832 215.592 167.09 216.334C166.349 217.038 165.403 217.873 164.254 218.837C163.105 219.801 161.881 220.894 160.584 222.118C159.286 223.304 158.062 224.657 156.913 226.178C155.764 227.661 154.818 229.329 154.077 231.183C153.335 233 152.964 235.002 152.964 237.189C152.964 239.414 153.873 240.526 155.69 240.526C157.358 240.526 159.063 240.211 160.806 239.58C162.586 238.95 164.328 238.135 166.034 237.133C167.776 236.095 169.445 235.02 171.039 233.908C172.633 232.796 174.079 231.739 175.377 230.738C176.674 229.7 177.768 228.866 178.658 228.235C179.548 227.605 180.178 227.29 180.549 227.29C181.29 227.29 181.661 227.698 181.661 228.513C181.661 229.144 181.235 229.978 180.382 231.016C179.529 232.054 178.38 233.185 176.934 234.408C175.488 235.632 173.875 236.874 172.096 238.135C170.316 239.358 168.518 240.489 166.701 241.527C164.884 242.528 163.142 243.344 161.473 243.974C159.842 244.567 158.433 244.864 157.247 244.864ZM201.694 247.033C199.284 247.033 197.06 246.458 195.021 245.309C193.019 244.159 191.202 242.676 189.571 240.86C187.976 239.043 186.549 237.096 185.288 235.02C184.065 232.907 183.008 230.923 182.118 229.069C181.488 232.073 180.987 234.501 180.617 236.355C180.283 238.209 180.005 239.618 179.782 240.582C179.597 241.546 179.412 242.194 179.226 242.528C179.041 242.862 178.8 243.029 178.503 243.029C177.688 243.029 176.909 242.584 176.168 241.694C175.426 240.804 175.055 239.655 175.055 238.246C175.055 236.763 175.315 234.798 175.834 232.351C176.353 229.867 177.039 227.123 177.892 224.12C178.781 221.08 179.801 217.947 180.95 214.721C182.1 211.458 183.286 208.288 184.51 205.211C185.77 202.097 187.031 199.261 188.291 196.702C188.922 195.442 189.459 194.626 189.904 194.255C190.386 193.885 190.961 193.699 191.628 193.699C192.703 193.699 193.241 194.2 193.241 195.201C193.241 195.571 193.13 195.979 192.907 196.424C192.722 196.869 192.518 197.37 192.296 197.926C191.628 199.557 190.887 201.392 190.071 203.432C189.292 205.471 188.495 207.603 187.68 209.827C186.901 212.052 186.16 214.258 185.455 216.445C184.751 218.633 184.139 220.653 183.62 222.507C185.214 221.395 187.086 220.283 189.237 219.17C191.387 218.058 193.612 217.057 195.91 216.167C198.209 215.24 200.378 214.499 202.417 213.943C204.456 213.386 206.143 213.108 207.478 213.108C208.183 213.108 208.72 213.331 209.091 213.776C209.499 214.184 209.703 214.647 209.703 215.166C209.703 215.574 209.573 215.982 209.313 216.39C209.091 216.76 208.609 217.094 207.867 217.391C205.42 218.243 202.992 219.115 200.582 220.004C198.172 220.857 195.651 221.784 193.019 222.785C190.423 223.749 187.587 224.898 184.51 226.233C185.474 227.865 186.604 229.626 187.902 231.516C189.2 233.37 190.59 235.131 192.073 236.8C193.556 238.431 195.076 239.784 196.633 240.86C198.191 241.898 199.748 242.417 201.305 242.417C203.344 242.417 205.309 241.99 207.2 241.138C209.091 240.285 210.834 239.247 212.428 238.023C214.059 236.8 215.487 235.613 216.71 234.464C217.934 233.278 218.897 232.351 219.602 231.683C219.973 231.35 220.306 231.127 220.603 231.016C220.937 230.868 221.233 230.794 221.493 230.794C222.012 230.794 222.364 231.072 222.549 231.628C222.772 232.147 222.587 232.721 221.993 233.352C221.548 233.871 220.863 234.668 219.936 235.743C219.009 236.818 217.878 238.005 216.543 239.302C215.246 240.563 213.8 241.787 212.205 242.973C210.648 244.159 208.961 245.123 207.144 245.865C205.365 246.643 203.548 247.033 201.694 247.033ZM218.977 245.531C217.568 245.531 216.4 244.882 215.473 243.585C214.583 242.25 214.138 240.526 214.138 238.413C214.138 236.448 214.62 234.501 215.584 232.573C216.585 230.645 217.902 228.791 219.533 227.012C221.164 225.232 222.944 223.601 224.872 222.118C226.8 220.598 228.728 219.281 230.656 218.169C232.621 217.057 234.419 216.186 236.05 215.555C237.681 214.925 238.979 214.61 239.943 214.61C240.462 214.61 240.889 214.721 241.222 214.944C241.556 215.129 241.723 215.481 241.723 216C241.723 216.334 241.593 216.649 241.333 216.946C241.371 216.946 241.408 216.946 241.445 216.946C242.26 216.946 242.668 217.428 242.668 218.392C242.668 218.725 242.538 219.411 242.279 220.449C242.019 221.45 241.723 222.711 241.389 224.231C241.055 225.751 240.759 227.438 240.499 229.292C240.24 231.109 240.11 232.962 240.11 234.853C240.11 236.448 240.722 237.245 241.945 237.245C243.317 237.245 244.707 236.93 246.116 236.299C247.525 235.669 248.897 234.909 250.232 234.019C251.566 233.092 252.79 232.184 253.902 231.294C255.014 230.367 255.96 229.589 256.738 228.958C257.517 228.328 258.073 228.013 258.407 228.013C258.703 228.013 258.963 228.106 259.185 228.291C259.408 228.476 259.519 228.773 259.519 229.181C259.519 229.551 259.148 230.219 258.407 231.183C257.665 232.147 256.683 233.241 255.459 234.464C254.236 235.688 252.864 236.874 251.344 238.023C249.824 239.173 248.267 240.118 246.672 240.86C245.078 241.601 243.558 241.972 242.112 241.972C241 241.972 239.98 241.638 239.053 240.971C238.163 240.266 237.44 239.08 236.884 237.412C236.365 235.743 236.106 233.444 236.106 230.515V229.125C234.289 232.128 232.38 234.872 230.378 237.356C228.413 239.84 226.448 241.824 224.482 243.307C222.555 244.79 220.719 245.531 218.977 245.531ZM238.886 218.614C238.701 218.688 238.442 218.799 238.108 218.948C236.402 219.726 234.623 220.69 232.769 221.84C230.952 222.989 229.173 224.268 227.43 225.677C225.725 227.086 224.186 228.55 222.814 230.071C221.442 231.591 220.349 233.129 219.533 234.686C218.717 236.244 218.309 237.764 218.309 239.247C218.309 239.729 218.402 240.1 218.587 240.359C218.81 240.619 219.181 240.748 219.7 240.748C220.441 240.748 221.405 240.285 222.592 239.358C223.778 238.394 225.076 237.133 226.485 235.576C227.931 234.019 229.376 232.295 230.822 230.404C232.268 228.513 233.64 226.604 234.938 224.676C236.273 222.748 237.422 220.968 238.386 219.337C238.534 219.078 238.701 218.837 238.886 218.614ZM247.9 226.289C246.899 226.215 246.435 225.566 246.509 224.342C246.547 224.046 246.75 223.693 247.121 223.286C247.492 222.841 247.918 222.6 248.4 222.563C249.55 222.451 250.959 222.285 252.627 222.062C254.332 221.803 256.205 221.506 258.244 221.172C258.615 219.356 259.06 217.446 259.579 215.444C260.098 213.442 260.672 211.496 261.303 209.605C261.933 207.677 262.6 205.934 263.305 204.377C264.009 202.82 264.751 201.596 265.529 200.706C265.937 200.299 266.308 200.021 266.642 199.872C266.975 199.687 267.272 199.594 267.531 199.594C268.051 199.594 268.458 199.817 268.755 200.262C269.089 200.706 269.255 201.207 269.255 201.763C269.255 202.06 269.2 202.356 269.089 202.653C268.347 204.729 267.55 207.287 266.697 210.328C265.844 213.368 264.936 216.686 263.972 220.283C267.383 219.726 270.794 219.133 274.205 218.503C277.616 217.873 280.545 217.298 282.992 216.779C283.697 216.482 284.234 216.538 284.605 216.946C285.013 217.354 285.217 217.761 285.217 218.169C285.217 218.688 285.068 219.078 284.772 219.337C284.512 219.597 284.234 219.819 283.938 220.004L283.882 220.06C283.14 220.357 282.028 220.709 280.545 221.117C279.062 221.487 277.357 221.895 275.429 222.34C273.501 222.748 271.443 223.156 269.255 223.564C267.105 223.972 264.973 224.342 262.86 224.676C262.007 227.939 261.136 231.294 260.246 234.742C259.393 238.153 258.541 241.508 257.688 244.808C257.317 246.143 256.891 246.977 256.409 247.311C255.964 247.682 255.482 247.867 254.963 247.867C254.37 247.867 253.85 247.644 253.406 247.2C252.998 246.755 252.942 245.846 253.239 244.475L257.299 225.51C255.074 225.844 253.109 226.085 251.403 226.233C249.735 226.381 248.567 226.4 247.9 226.289ZM276.849 246.588C276.033 246.588 275.403 246.347 274.958 245.865C274.513 245.42 274.291 244.289 274.291 242.472C274.291 240.804 274.587 238.635 275.181 235.966C275.774 233.259 276.571 230.256 277.572 226.956C278.573 223.656 279.704 220.245 280.964 216.723C282.225 213.164 283.541 209.679 284.913 206.268C286.322 202.82 287.675 199.668 288.973 196.814C289.455 195.775 289.955 195.052 290.474 194.645C290.993 194.237 291.605 194.033 292.31 194.033C292.792 194.033 293.199 194.181 293.533 194.478C293.904 194.737 294.089 195.182 294.089 195.812C294.089 196.035 293.848 196.758 293.366 197.981C292.921 199.205 292.291 200.818 291.475 202.82C290.697 204.822 289.825 207.065 288.861 209.549C287.898 212.033 286.915 214.647 285.914 217.391C284.913 220.134 283.967 222.896 283.078 225.677C282.188 228.421 281.428 231.053 280.797 233.574C280.167 236.095 279.741 238.357 279.518 240.359C280.408 239.284 281.428 237.912 282.577 236.244C283.726 234.575 284.95 232.777 286.248 230.849C287.545 228.921 288.861 227.012 290.196 225.121C291.531 223.23 292.847 221.506 294.145 219.949C295.442 218.392 296.647 217.15 297.76 216.223C298.909 215.259 299.91 214.777 300.763 214.777C302.172 214.777 303.303 215.222 304.155 216.111C305.045 216.964 305.49 218.373 305.49 220.338C305.49 221.45 305.268 222.785 304.823 224.342C304.415 225.9 303.933 227.531 303.377 229.236C302.821 230.942 302.32 232.573 301.875 234.13C301.467 235.688 301.263 237.022 301.263 238.135C301.263 239.655 301.838 240.415 302.987 240.415C304.767 240.415 306.547 240.025 308.326 239.247C310.143 238.468 311.867 237.504 313.498 236.355C315.13 235.168 316.631 233.982 318.003 232.796C319.375 231.572 320.543 230.534 321.507 229.681C322.545 228.754 323.416 228.291 324.121 228.291C325.01 228.291 325.455 228.754 325.455 229.681C325.455 229.941 325.4 230.237 325.289 230.571C325.177 230.905 324.881 231.331 324.399 231.85C323.805 232.518 322.953 233.389 321.84 234.464C320.765 235.539 319.505 236.689 318.059 237.912C316.65 239.136 315.111 240.285 313.443 241.36C311.811 242.435 310.124 243.325 308.382 244.03C306.676 244.697 305.008 245.031 303.377 245.031C301.152 245.031 299.428 244.4 298.205 243.14C297.018 241.842 296.425 240.062 296.425 237.801C296.425 236.392 296.647 234.686 297.092 232.684C297.537 230.682 298.093 228.569 298.761 226.344C299.465 224.083 300.17 221.877 300.874 219.726C299.688 220.542 298.39 221.766 296.981 223.397C295.609 224.991 294.163 226.808 292.643 228.847C291.123 230.849 289.603 232.888 288.083 234.965C286.6 237.041 285.154 238.969 283.745 240.748C282.373 242.491 281.094 243.9 279.908 244.975C278.721 246.05 277.702 246.588 276.849 246.588ZM348.634 246.087C347.559 246.087 346.799 245.735 346.354 245.031C345.909 244.326 345.687 243.121 345.687 241.416C345.687 240.044 345.853 238.338 346.187 236.299C346.558 234.26 347.003 232.017 347.522 229.57C348.041 227.086 348.579 224.528 349.135 221.895C346.873 224.973 344.37 227.438 341.627 229.292C338.92 231.109 335.917 232.295 332.617 232.851C331.839 234.668 330.949 236.318 329.948 237.801C328.947 239.284 327.853 240.47 326.667 241.36C325.48 242.25 324.238 242.695 322.941 242.695C321.346 242.695 319.993 242.046 318.881 240.748C317.806 239.451 317.268 237.56 317.268 235.076C317.268 233.37 317.49 231.85 317.935 230.515C318.38 229.144 318.881 228.161 319.437 227.568C318.918 226.196 318.658 224.62 318.658 222.841C318.658 220.653 319.159 218.725 320.16 217.057C321.161 215.351 322.496 214.035 324.164 213.108C325.832 212.144 327.631 211.662 329.559 211.662C331.116 211.662 332.506 212.385 333.73 213.831C334.953 215.277 335.565 217.354 335.565 220.06C335.565 222.581 335.12 225.38 334.23 228.458C336.269 227.679 338.308 226.493 340.348 224.898C342.424 223.304 344.426 221.395 346.354 219.17C348.282 216.946 350.024 214.48 351.582 211.774C351.989 211.106 352.564 210.773 353.306 210.773C353.973 210.773 354.492 210.976 354.863 211.384C355.271 211.755 355.475 212.274 355.475 212.941C355.475 213.127 355.363 213.757 355.141 214.832C354.956 215.908 354.696 217.279 354.362 218.948C354.066 220.616 353.732 222.451 353.361 224.454C352.991 226.456 352.62 228.476 352.249 230.515C351.915 232.555 351.637 234.445 351.415 236.188C352.268 234.557 353.232 232.777 354.307 230.849C355.382 228.921 356.476 227.03 357.588 225.177C358.737 223.286 359.831 221.562 360.869 220.004C361.944 218.447 362.89 217.205 363.705 216.278C364.558 215.314 365.226 214.832 365.708 214.832C366.597 214.832 367.376 215.129 368.043 215.722C368.711 216.315 369.044 216.927 369.044 217.557C369.044 218.41 368.952 219.708 368.766 221.45C368.581 223.156 368.358 225.084 368.099 227.234C367.839 229.385 367.58 231.535 367.32 233.685C367.061 235.836 366.838 237.782 366.653 239.525C366.468 241.267 366.375 242.565 366.375 243.418C366.375 243.974 366.134 244.475 365.652 244.919C365.17 245.364 364.632 245.587 364.039 245.587C363.631 245.587 363.279 245.457 362.982 245.197C362.723 244.975 362.519 244.456 362.371 243.64C362.222 242.825 362.148 241.564 362.148 239.859C362.148 238.19 362.204 236.373 362.315 234.408C362.426 232.406 362.575 230.423 362.76 228.458C362.982 226.456 363.223 224.657 363.483 223.063C362.63 224.472 361.648 226.159 360.535 228.124C359.46 230.089 358.329 232.11 357.143 234.186C355.957 236.262 354.807 238.209 353.695 240.025C352.583 241.842 351.582 243.307 350.692 244.419C349.802 245.531 349.116 246.087 348.634 246.087ZM329.336 229.348C329.781 227.939 330.133 226.437 330.393 224.843C330.689 223.212 330.838 221.58 330.838 219.949C330.838 218.985 330.652 218.206 330.282 217.613C329.911 217.02 329.41 216.723 328.78 216.723C327.816 216.723 326.871 217.001 325.944 217.557C325.017 218.077 324.238 218.818 323.608 219.782C323.015 220.746 322.718 221.895 322.718 223.23C322.718 224.898 323.348 226.326 324.609 227.512C325.907 228.662 327.482 229.273 329.336 229.348ZM327.835 233.185C325.313 233.074 323.274 232.332 321.717 230.96C321.643 231.442 321.569 231.906 321.495 232.351C321.42 232.759 321.383 233.166 321.383 233.574C321.383 234.724 321.569 235.632 321.94 236.299C322.347 236.93 322.959 237.245 323.775 237.245C324.442 237.245 325.128 236.874 325.832 236.132C326.537 235.391 327.204 234.408 327.835 233.185ZM70.6987 299.473C70.1796 299.473 69.6977 299.325 69.2527 299.029C68.8449 298.732 68.5298 298.139 68.3073 297.249C68.0849 296.322 67.9736 294.969 67.9736 293.189C67.9736 289.482 68.3258 285.811 69.0303 282.178C69.7347 278.544 70.7358 275.133 72.0334 271.945C73.3311 268.719 74.8697 265.883 76.6494 263.436C78.4661 260.952 80.4682 259.005 82.6557 257.596C84.8802 256.187 87.2345 255.483 89.7186 255.483C92.4251 255.483 94.557 256.317 96.1142 257.986C97.6714 259.617 98.45 261.953 98.45 264.993C98.45 267.811 97.6528 270.146 96.0586 272C94.5014 273.854 92.3325 274.781 89.5518 274.781C89.0698 274.781 88.5507 274.744 87.9946 274.67C87.4384 274.558 86.8638 274.41 86.2706 274.225C88.5322 278.007 90.7938 281.288 93.0554 284.068C95.3171 286.849 97.6158 289.352 99.9515 291.576C102.324 293.764 104.734 295.877 107.181 297.916C107.552 298.25 107.83 298.584 108.016 298.917C108.201 299.214 108.294 299.566 108.294 299.974C108.294 300.604 108.145 301.068 107.849 301.364C107.589 301.661 107.033 301.809 106.18 301.809C105.253 301.809 104.104 301.401 102.732 300.586C101.398 299.77 99.933 298.658 98.3387 297.249C96.7445 295.84 95.1317 294.246 93.5003 292.466C91.869 290.686 90.2933 288.833 88.7732 286.905C87.2901 284.94 85.9554 283.03 84.769 281.177C83.5826 279.286 82.6371 277.543 81.9327 275.949C81.2653 274.355 80.9316 273.001 80.9316 271.889C80.9316 271.148 81.117 270.573 81.4878 270.165C81.8585 269.72 82.3591 269.498 82.9893 269.498C83.805 269.498 84.5465 269.609 85.2139 269.831C85.9183 270.054 86.6599 270.165 87.4384 270.165C89.4776 270.165 91.0904 269.646 92.2768 268.608C93.5003 267.533 94.1121 265.772 94.1121 263.325C94.1121 261.174 92.6661 260.099 89.7742 260.099C87.7721 260.099 85.8442 260.896 83.9904 262.49C82.1366 264.047 80.4311 266.291 78.8739 269.22C77.3538 272.149 76.0932 275.671 75.0922 279.786C74.0911 283.865 73.4423 288.425 73.1457 293.467C73.0716 295.21 72.9047 296.507 72.6452 297.36C72.4227 298.213 72.1447 298.788 71.811 299.084C71.5144 299.344 71.1436 299.473 70.6987 299.473ZM133.96 276.116C133.96 277.302 133.589 278.47 132.848 279.619C132.106 280.732 131.123 281.807 129.9 282.845C128.676 283.846 127.323 284.791 125.84 285.681C124.357 286.571 122.874 287.35 121.391 288.017C119.908 288.684 118.555 289.222 117.331 289.63C117.035 291.076 116.886 292.355 116.886 293.467C116.886 294.172 117.053 294.672 117.387 294.969C117.721 295.265 118.24 295.414 118.944 295.414C120.501 295.414 122.151 295.136 123.894 294.579C125.636 294.023 127.416 293.3 129.233 292.411C131.049 291.521 132.792 290.575 134.46 289.574C136.129 288.573 137.649 287.628 139.021 286.738C140.43 285.848 141.597 285.125 142.524 284.569C143.451 284.013 144.063 283.735 144.36 283.735C144.804 283.735 145.138 283.883 145.361 284.18C145.62 284.439 145.75 284.754 145.75 285.125C145.75 285.422 145.286 285.996 144.36 286.849C143.47 287.702 142.265 288.703 140.745 289.852C139.225 290.965 137.519 292.114 135.628 293.3C133.737 294.487 131.772 295.599 129.733 296.637C127.731 297.675 125.785 298.509 123.894 299.14C122.04 299.77 120.371 300.085 118.888 300.085C116.961 300.085 115.459 299.362 114.384 297.916C113.309 296.47 112.771 294.227 112.771 291.187C112.771 289.148 113.03 287.09 113.55 285.014C114.106 282.938 114.847 280.954 115.774 279.063C116.738 277.135 117.795 275.43 118.944 273.947C120.131 272.427 121.373 271.24 122.67 270.387C123.968 269.498 125.228 269.053 126.452 269.053C128.788 269.053 130.623 269.702 131.958 270.999C133.292 272.297 133.96 274.002 133.96 276.116ZM118.499 285.348C119.649 284.643 120.835 283.902 122.058 283.123C123.282 282.344 124.413 281.547 125.451 280.732C126.489 279.916 127.323 279.063 127.954 278.173C128.621 277.246 128.955 276.301 128.955 275.337C128.955 273.965 128.213 273.279 126.73 273.279C125.803 273.279 124.821 273.873 123.782 275.059C122.781 276.208 121.817 277.71 120.891 279.564C119.964 281.418 119.167 283.345 118.499 285.348ZM141.02 314.767C138.165 314.767 136.07 314.489 134.735 313.933C133.401 313.377 132.733 312.635 132.733 311.708C132.733 311.115 132.919 310.633 133.289 310.263C133.697 309.892 134.198 309.706 134.791 309.706C135.421 309.706 136.33 309.799 137.516 309.984C138.702 310.207 139.87 310.318 141.02 310.318C144.839 310.318 147.971 309.187 150.418 306.926C152.865 304.664 154.738 301.197 156.035 296.526C157.333 291.817 158.204 285.811 158.649 278.507C157.537 280.769 156.276 283.03 154.868 285.292C153.496 287.516 152.013 289.556 150.418 291.409C148.861 293.226 147.248 294.691 145.58 295.803C143.912 296.915 142.262 297.471 140.63 297.471C139.073 297.471 137.924 297.082 137.182 296.303C136.478 295.525 136.126 294.246 136.126 292.466C136.126 290.872 136.571 289.185 137.46 287.405C138.35 285.589 139.537 283.772 141.02 281.955C142.503 280.138 144.134 278.414 145.914 276.783C147.693 275.115 149.473 273.65 151.253 272.39C153.069 271.092 154.756 270.072 156.313 269.331C157.871 268.589 159.131 268.219 160.095 268.219C161.059 268.219 161.801 268.552 162.32 269.22C162.839 269.887 163.098 271.148 163.098 273.001C163.098 277.339 162.95 281.566 162.653 285.681C162.394 289.76 161.856 293.56 161.041 297.082C160.225 300.604 159.001 303.682 157.37 306.314C155.776 308.983 153.644 311.06 150.975 312.543C148.305 314.026 144.987 314.767 141.02 314.767ZM157.648 273.057C155.794 274.243 153.885 275.578 151.92 277.061C149.955 278.544 148.12 280.12 146.414 281.788C144.746 283.457 143.393 285.181 142.354 286.96C141.316 288.74 140.797 290.52 140.797 292.299C140.797 292.855 141.149 293.133 141.854 293.133C142.41 293.133 143.17 292.707 144.134 291.854C145.135 290.965 146.247 289.797 147.471 288.351C148.694 286.868 149.936 285.255 151.197 283.512C152.495 281.733 153.7 279.934 154.812 278.118C155.924 276.301 156.87 274.614 157.648 273.057ZM186.06 301.42C185.43 301.42 184.892 301.142 184.448 300.586C184.003 300.03 183.78 299.214 183.78 298.139C183.78 296.878 183.966 295.08 184.336 292.744C184.744 290.408 185.337 287.313 186.116 283.457C185.115 285.83 184.003 288.073 182.779 290.186C181.593 292.299 180.332 294.023 178.997 295.358C177.663 296.693 176.291 297.36 174.882 297.36C173.51 297.36 172.287 296.823 171.211 295.747C170.173 294.672 169.654 292.781 169.654 290.075C169.654 288.555 169.784 286.849 170.044 284.958C170.303 283.03 170.637 281.121 171.045 279.23C171.452 277.339 171.86 275.652 172.268 274.169C172.676 272.649 173.047 271.537 173.38 270.832C173.64 270.239 173.899 269.85 174.159 269.664C174.419 269.442 174.771 269.331 175.216 269.331C175.735 269.331 176.291 269.553 176.884 269.998C177.477 270.443 177.774 271.185 177.774 272.223C177.774 272.482 177.644 273.094 177.385 274.058C177.162 274.985 176.866 276.134 176.495 277.506C176.161 278.841 175.809 280.287 175.438 281.844C175.067 283.401 174.752 284.958 174.493 286.515C174.27 288.073 174.159 289.5 174.159 290.798C174.159 291.502 174.233 292.077 174.381 292.522C174.53 292.967 174.9 293.189 175.494 293.189C176.013 293.189 176.662 292.67 177.44 291.632C178.256 290.594 179.127 289.222 180.054 287.516C181.018 285.774 182.001 283.846 183.002 281.733C184.04 279.619 185.041 277.45 186.005 275.226C187.006 273.001 187.914 270.888 188.73 268.886C189.026 268.219 189.342 267.811 189.675 267.662C190.009 267.477 190.38 267.384 190.787 267.384C191.455 267.384 192.048 267.662 192.567 268.219C193.123 268.738 193.401 269.423 193.401 270.276C193.401 270.832 193.29 271.796 193.068 273.168C192.882 274.54 192.604 276.153 192.233 278.007C191.9 279.823 191.51 281.751 191.066 283.79C190.658 285.83 190.25 287.85 189.842 289.852C189.434 291.817 189.045 293.615 188.674 295.247C188.34 296.878 188.062 298.194 187.84 299.195C187.655 300.122 187.395 300.715 187.061 300.975C186.765 301.272 186.431 301.42 186.06 301.42ZM207.235 302.31C204.38 302.31 202.137 301.383 200.506 299.529C198.912 297.638 198.115 295.006 198.115 291.632C198.115 289.556 198.393 287.127 198.949 284.347C199.542 281.529 200.284 278.563 201.173 275.448C202.1 272.297 203.101 269.182 204.177 266.105C205.252 263.028 206.29 260.173 207.291 257.541C208.329 254.871 209.237 252.647 210.016 250.867C210.461 249.866 211.091 249.365 211.907 249.365C213.019 249.365 213.575 250.051 213.575 251.423C213.575 251.868 213.371 252.776 212.963 254.148C212.556 255.52 212.018 257.226 211.351 259.265C210.683 261.267 209.96 263.491 209.182 265.938C208.403 268.385 207.606 270.907 206.79 273.502C206.012 276.06 205.289 278.6 204.621 281.121C203.954 283.605 203.416 285.941 203.009 288.128C202.601 290.316 202.397 292.188 202.397 293.745C202.397 294.746 202.656 295.543 203.175 296.137C203.732 296.693 204.473 296.971 205.4 296.971C207.106 296.971 208.811 296.637 210.516 295.97C212.259 295.265 213.927 294.413 215.522 293.412C217.116 292.373 218.562 291.354 219.86 290.353C221.194 289.315 222.325 288.462 223.252 287.795C224.179 287.09 224.828 286.738 225.199 286.738C226.014 286.738 226.422 287.183 226.422 288.073C226.422 288.369 226.125 288.925 225.532 289.741C224.939 290.52 224.142 291.447 223.141 292.522C222.14 293.597 220.972 294.709 219.637 295.859C218.339 296.971 216.968 298.027 215.522 299.029C214.113 299.993 212.685 300.771 211.239 301.364C209.831 301.995 208.496 302.31 207.235 302.31ZM223.719 301.531C222.31 301.531 221.142 300.882 220.215 299.585C219.326 298.25 218.881 296.526 218.881 294.413C218.881 292.448 219.363 290.501 220.327 288.573C221.328 286.645 222.644 284.791 224.275 283.012C225.907 281.232 227.686 279.601 229.614 278.118C231.542 276.598 233.47 275.281 235.398 274.169C237.363 273.057 239.161 272.186 240.793 271.555C242.424 270.925 243.722 270.61 244.685 270.61C245.205 270.61 245.631 270.721 245.965 270.944C246.298 271.129 246.465 271.481 246.465 272C246.465 272.334 246.335 272.649 246.076 272.946C246.113 272.946 246.15 272.946 246.187 272.946C247.003 272.946 247.411 273.428 247.411 274.392C247.411 274.725 247.281 275.411 247.021 276.449C246.762 277.45 246.465 278.711 246.131 280.231C245.798 281.751 245.501 283.438 245.242 285.292C244.982 287.109 244.852 288.962 244.852 290.853C244.852 292.448 245.464 293.245 246.688 293.245C248.059 293.245 249.45 292.93 250.859 292.299C252.267 291.669 253.639 290.909 254.974 290.019C256.309 289.092 257.532 288.184 258.645 287.294C259.757 286.367 260.702 285.589 261.481 284.958C262.259 284.328 262.816 284.013 263.149 284.013C263.446 284.013 263.705 284.106 263.928 284.291C264.15 284.476 264.262 284.773 264.262 285.181C264.262 285.551 263.891 286.219 263.149 287.183C262.408 288.147 261.425 289.241 260.202 290.464C258.978 291.688 257.606 292.874 256.086 294.023C254.566 295.173 253.009 296.118 251.415 296.86C249.82 297.601 248.3 297.972 246.854 297.972C245.742 297.972 244.723 297.638 243.796 296.971C242.906 296.266 242.183 295.08 241.627 293.412C241.108 291.743 240.848 289.444 240.848 286.515V285.125C239.031 288.128 237.122 290.872 235.12 293.356C233.155 295.84 231.19 297.824 229.225 299.307C227.297 300.79 225.462 301.531 223.719 301.531ZM243.629 274.614C243.443 274.688 243.184 274.799 242.85 274.948C241.145 275.726 239.365 276.69 237.511 277.84C235.695 278.989 233.915 280.268 232.172 281.677C230.467 283.086 228.928 284.55 227.556 286.071C226.185 287.591 225.091 289.129 224.275 290.686C223.46 292.244 223.052 293.764 223.052 295.247C223.052 295.729 223.144 296.1 223.33 296.359C223.552 296.619 223.923 296.748 224.442 296.748C225.184 296.748 226.148 296.285 227.334 295.358C228.52 294.394 229.818 293.133 231.227 291.576C232.673 290.019 234.119 288.295 235.565 286.404C237.011 284.513 238.383 282.604 239.68 280.676C241.015 278.748 242.164 276.968 243.128 275.337C243.277 275.078 243.443 274.837 243.629 274.614ZM259.224 301.142C258.631 301.142 258.13 300.901 257.723 300.419C257.315 299.937 257.111 299.27 257.111 298.417C257.111 297.787 257.241 296.748 257.5 295.302C257.797 293.819 258.112 292.095 258.446 290.13C258.816 288.165 259.131 286.126 259.391 284.013C259.651 281.862 259.78 279.805 259.78 277.84C259.78 276.876 260.021 276.171 260.503 275.726C261.022 275.244 261.597 275.003 262.227 275.003C262.821 275.003 263.265 275.374 263.562 276.116C263.859 276.857 263.914 278.34 263.729 280.565C265.434 276.783 267.307 273.743 269.346 271.444C271.422 269.108 273.48 267.44 275.519 266.439C277.558 265.401 279.393 264.882 281.025 264.882C282.1 264.882 282.879 265.104 283.361 265.549C283.88 265.957 284.139 266.42 284.139 266.939C284.139 267.644 283.843 268.2 283.249 268.608C282.693 268.979 281.711 269.423 280.302 269.943C278.67 270.573 277.169 271.314 275.797 272.167C274.462 272.983 273.183 274.058 271.96 275.393C270.773 276.727 269.605 278.433 268.456 280.509C267.307 282.548 266.157 285.069 265.008 288.073C263.859 291.076 262.635 294.691 261.337 298.917C261.115 299.733 260.818 300.308 260.448 300.641C260.114 300.975 259.706 301.142 259.224 301.142Z" fill="black"/>
</g>
<defs>
<filter id="filter0_d_961_6686" x="0.880273" y="0.920068" width="488.16" height="383.76" filterUnits="userSpaceOnUse" color-interpolation-filters="sRGB">
<feFlood flood-opacity="0" result="BackgroundImageFix"/>
<feColorMatrix in="SourceAlpha" type="matrix" values="0 0 0 0 0 0 0 0 0 0 0 0 0 0 0 0 0 0 127 0" result="hardAlpha"/>
<feOffset dx="3.6" dy="3.6"/>
<feGaussianBlur stdDeviation="4.5"/>
<feComposite in2="hardAlpha" operator="out"/>
<feColorMatrix type="matrix" values="0 0 0 0 0 0 0 0 0 0 0 0 0 0 0 0 0 0 0.1 0"/>
<feBlend mode="normal" in2="BackgroundImageFix" result="effect1_dropShadow_961_6686"/>
<feBlend mode="normal" in="SourceGraphic" in2="effect1_dropShadow_961_6686" result="shape"/>
</filter>
</defs>
</svg>
