<svg width="497" height="497" viewBox="0 0 497 497" fill="none" xmlns="http://www.w3.org/2000/svg">
<g filter="url(#filter0_d_436_3717)">
<path fill-rule="evenodd" clip-rule="evenodd" d="M379.906 6H339.094C333.424 19.5108 320.07 29 304.5 29C288.93 29 275.576 19.5108 269.906 6H229.094C223.424 19.5108 210.07 29 194.5 29C178.93 29 165.576 19.5108 159.906 6H119.094C113.424 19.5108 100.07 29 84.5 29C68.9298 29 55.576 19.5108 49.9062 6H10V46.3432C22.9767 52.2412 32 65.3169 32 80.5C32 95.6831 22.9767 108.759 10 114.657V156.343C22.9767 162.241 32 175.317 32 190.5C32 205.683 22.9767 218.759 10 224.657V266.343C22.9767 272.241 32 285.317 32 300.5C32 315.683 22.9767 328.759 10 334.657V376.343C22.9767 382.241 32 395.317 32 410.5C32 425.683 22.9767 438.759 10 444.657V483H46.7962C51.6513 467.915 65.801 457 82.5 457C99.1991 457 113.349 467.915 118.204 483H156.796C161.651 467.915 175.801 457 192.5 457C209.199 457 223.349 467.915 228.204 483H266.796C271.651 467.915 285.801 457 302.5 457C319.199 457 333.349 467.915 338.204 483H376.796C381.651 467.915 395.801 457 412.5 457C429.199 457 443.349 467.915 448.204 483H487V441.675C475.105 435.387 467 422.89 467 408.5C467 394.11 475.105 381.613 487 375.325V331.675C475.105 325.387 467 312.89 467 298.5C467 284.11 475.105 271.613 487 265.325V221.675C475.105 215.387 467 202.89 467 188.5C467 174.11 475.105 161.613 487 155.325V111.675C475.105 105.387 467 92.8902 467 78.5C467 64.1098 475.105 51.6127 487 45.3252V6H449.094C443.424 19.5108 430.07 29 414.5 29C398.93 29 385.576 19.5108 379.906 6Z" fill="#A973BC"/>
</g>
<g clip-path="url(#clip0_436_3717)">
<rect x="59" y="52" width="385" height="385" rx="10" fill="#BF8AD2"/>
<rect x="65" y="-10.0909" width="51" height="260" transform="rotate(-34.5304 65 -10.0909)" fill="#FA8A8A"/>
<rect width="51" height="260" transform="matrix(-0.823825 -0.566844 -0.566844 0.823825 438.741 -10.0487)" fill="#FA8A8A"/>
<circle cx="248.847" cy="203.542" r="62.5" fill="#E0D19D"/>
<circle cx="249" cy="204" r="55" fill="#EFDFA4"/>
<circle cx="249.347" cy="204.042" r="50" fill="#FCF0C6"/>
</g>
<path d="M106.4 335L92.32 288.92H101.28L112.8 326.808L124.512 288.92H133.472L119.392 335H106.4ZM138.293 335V288.92H168.373V297.048H146.997V306.904H164.533V315.032H146.997V326.872H168.373V335H138.293ZM186.731 335V297.048H172.203V288.92H209.963V297.048H195.435V335H186.731ZM215.105 335V288.92H245.185V297.048H223.809V306.904H241.345V315.032H223.809V326.872H245.185V335H215.105ZM252.855 335V288.92H272.311C272.759 288.92 273.356 288.941 274.103 288.984C274.871 289.005 275.554 289.069 276.151 289.176C278.903 289.603 281.154 290.509 282.903 291.896C284.674 293.283 285.975 295.032 286.807 297.144C287.639 299.235 288.055 301.571 288.055 304.152C288.055 308.013 287.095 311.32 285.175 314.072C283.255 316.803 280.247 318.488 276.151 319.128L272.311 319.384H261.559V335H252.855ZM278.839 335L269.751 316.248L278.711 314.52L288.695 335H278.839ZM261.559 311.256H271.927C272.375 311.256 272.866 311.235 273.399 311.192C273.932 311.149 274.423 311.064 274.871 310.936C276.044 310.616 276.951 310.083 277.591 309.336C278.231 308.568 278.668 307.725 278.903 306.808C279.159 305.869 279.287 304.984 279.287 304.152C279.287 303.32 279.159 302.445 278.903 301.528C278.668 300.589 278.231 299.747 277.591 299C276.951 298.232 276.044 297.688 274.871 297.368C274.423 297.24 273.932 297.155 273.399 297.112C272.866 297.069 272.375 297.048 271.927 297.048H261.559V311.256ZM292.53 335L306.61 288.92H319.602L333.682 335H324.722L312.178 294.36H313.842L301.49 335H292.53ZM300.978 325.4V317.272H325.298V325.4H300.978ZM339.418 335V288.92H348.25L368.282 319.64V288.92H377.114V335H368.282L348.25 304.28V335H339.418ZM96.48 407V360.92H105.184V379.864H125.792V360.92H134.496V407H125.792V387.992H105.184V407H96.48ZM140.28 407L154.36 360.92H167.352L181.432 407H172.472L159.928 366.36H161.592L149.24 407H140.28ZM148.728 397.4V389.272H173.048V397.4H148.728ZM205.694 407.96C201.086 407.96 197.107 406.957 193.758 404.952C190.43 402.947 187.859 400.141 186.046 396.536C184.254 392.931 183.358 388.739 183.358 383.96C183.358 379.181 184.254 374.989 186.046 371.384C187.859 367.779 190.43 364.973 193.758 362.968C197.107 360.963 201.086 359.96 205.694 359.96C210.984 359.96 215.422 361.272 219.006 363.896C222.611 366.52 225.15 370.072 226.622 374.552L217.854 376.984C217 374.189 215.56 372.024 213.534 370.488C211.507 368.931 208.894 368.152 205.694 368.152C202.771 368.152 200.328 368.803 198.366 370.104C196.424 371.405 194.963 373.24 193.982 375.608C193 377.976 192.51 380.76 192.51 383.96C192.51 387.16 193 389.944 193.982 392.312C194.963 394.68 196.424 396.515 198.366 397.816C200.328 399.117 202.771 399.768 205.694 399.768C208.894 399.768 211.507 398.989 213.534 397.432C215.56 395.875 217 393.709 217.854 390.936L226.622 393.368C225.15 397.848 222.611 401.4 219.006 404.024C215.422 406.648 210.984 407.96 205.694 407.96ZM233.668 407V360.92H242.372V382.168L259.908 360.92H270.532L251.268 383.64L271.748 407H260.74L242.372 386.008V407H233.668ZM276.23 407V360.92H306.31V369.048H284.934V378.904H302.47V387.032H284.934V398.872H306.31V407H276.23ZM313.98 407V360.92H333.436C333.884 360.92 334.481 360.941 335.228 360.984C335.996 361.005 336.679 361.069 337.276 361.176C340.028 361.603 342.279 362.509 344.028 363.896C345.799 365.283 347.1 367.032 347.932 369.144C348.764 371.235 349.18 373.571 349.18 376.152C349.18 380.013 348.22 383.32 346.3 386.072C344.38 388.803 341.372 390.488 337.276 391.128L333.436 391.384H322.684V407H313.98ZM339.964 407L330.876 388.248L339.836 386.52L349.82 407H339.964ZM322.684 383.256H333.052C333.5 383.256 333.991 383.235 334.524 383.192C335.057 383.149 335.548 383.064 335.996 382.936C337.169 382.616 338.076 382.083 338.716 381.336C339.356 380.568 339.793 379.725 340.028 378.808C340.284 377.869 340.412 376.984 340.412 376.152C340.412 375.32 340.284 374.445 340.028 373.528C339.793 372.589 339.356 371.747 338.716 371C338.076 370.232 337.169 369.688 335.996 369.368C335.548 369.24 335.057 369.155 334.524 369.112C333.991 369.069 333.5 369.048 333.052 369.048H322.684V383.256Z" fill="white"/>
<defs>
<filter id="filter0_d_436_3717" x="0" y="0" width="497" height="497" filterUnits="userSpaceOnUse" color-interpolation-filters="sRGB">
<feFlood flood-opacity="0" result="BackgroundImageFix"/>
<feColorMatrix in="SourceAlpha" type="matrix" values="0 0 0 0 0 0 0 0 0 0 0 0 0 0 0 0 0 0 127 0" result="hardAlpha"/>
<feOffset dy="4"/>
<feGaussianBlur stdDeviation="5"/>
<feComposite in2="hardAlpha" operator="out"/>
<feColorMatrix type="matrix" values="0 0 0 0 0 0 0 0 0 0 0 0 0 0 0 0 0 0 0.1 0"/>
<feBlend mode="normal" in2="BackgroundImageFix" result="effect1_dropShadow_436_3717"/>
<feBlend mode="normal" in="SourceGraphic" in2="effect1_dropShadow_436_3717" result="shape"/>
</filter>
<clipPath id="clip0_436_3717">
<rect x="59" y="52" width="385" height="385" rx="10" fill="white"/>
</clipPath>
</defs>
</svg>
