<svg width="489" height="385" viewBox="0 0 489 385" fill="none" xmlns="http://www.w3.org/2000/svg">
<g filter="url(#filter0_d_961_6688)">
<rect x="5.83984" y="6.32007" width="470.16" height="365.76" rx="51.723" fill="white" shape-rendering="crispEdges"/>
<rect x="7.18984" y="7.67007" width="467.46" height="363.06" rx="50.373" stroke="black" stroke-opacity="0.2" stroke-width="2.7" shape-rendering="crispEdges"/>
<rect x="22.0396" y="22.52" width="437.76" height="333.36" rx="35.5268" fill="#DE4949"/>
<path d="M169.866 92.4639H166.165H162.464H158.764H155.063V88.7632H158.764H162.464V85.0624V81.3617V77.661V73.9603H158.764H155.063H151.362H147.661H143.961V77.661V81.3617V85.0624V88.7632H147.661H151.362V92.4639H147.661H143.961H140.26H136.559H132.859V88.7632H136.559V85.0624V81.3617V77.661V73.9603V70.2596V66.5589V62.8582V59.1575V55.4568V51.7561H132.859V48.0553H136.559H140.26H143.961H147.661H151.362V51.7561H147.661H143.961V55.4568V59.1575V62.8582V66.5589V70.2596H147.661H151.362H155.063H158.764H162.464V66.5589V62.8582V59.1575V55.4568V51.7561H158.764H155.063V48.0553H158.764H162.464H166.165H169.866H173.566V51.7561H169.866V55.4568V59.1575V62.8582V66.5589V70.2596V73.9603V77.661V81.3617V85.0624V88.7632H173.566V92.4639H169.866ZM205.393 77.661V73.9603V70.2596H201.692H197.991H194.29V73.9603V77.661V81.3617V85.0624V88.7632H197.991H201.692H205.393H209.093V85.0624H212.794V81.3617H216.495V85.0624V88.7632V92.4639H212.794H209.093H205.393H201.692H197.991H194.29H190.59H186.889H183.188V88.7632H186.889V85.0624V81.3617V77.661V73.9603V70.2596V66.5589V62.8582V59.1575V55.4568V51.7561H183.188V48.0553H186.889H190.59H194.29H197.991H201.692H205.393H209.093H212.794H216.495V51.7561V55.4568V59.1575H212.794V55.4568H209.093V51.7561H205.393H201.692H197.991H194.29V55.4568V59.1575V62.8582V66.5589H197.991H201.692H205.393V62.8582V59.1575H209.093V62.8582V66.5589V70.2596V73.9603V77.661H205.393ZM252.022 92.4639H248.321H244.62H240.919H237.219H233.518H229.817H226.117V88.7632H229.817V85.0624V81.3617V77.661V73.9603V70.2596V66.5589V62.8582V59.1575V55.4568V51.7561H226.117V48.0553H229.817H233.518H237.219H240.919V51.7561H237.219V55.4568V59.1575V62.8582V66.5589V70.2596V73.9603V77.661V81.3617V85.0624V88.7632H240.919H244.62V85.0624H248.321V81.3617H252.022V77.661H255.722V81.3617V85.0624V88.7632V92.4639H252.022ZM291.249 92.4639H287.548H283.848H280.147H276.446H272.746H269.045H265.344V88.7632H269.045V85.0624V81.3617V77.661V73.9603V70.2596V66.5589V62.8582V59.1575V55.4568V51.7561H265.344V48.0553H269.045H272.746H276.446H280.147V51.7561H276.446V55.4568V59.1575V62.8582V66.5589V70.2596V73.9603V77.661V81.3617V85.0624V88.7632H280.147H283.848V85.0624H287.548V81.3617H291.249V77.661H294.95V81.3617V85.0624V88.7632V92.4639H291.249ZM334.177 92.4639H330.477H326.776H323.075H319.374H315.674V88.7632H311.973V85.0624H308.272V81.3617V77.661V73.9603V70.2596V66.5589V62.8582V59.1575H311.973V55.4568V51.7561H315.674H319.374V48.0553H323.075H326.776H330.477H334.177V51.7561H337.878H341.579V55.4568V59.1575H345.279V62.8582V66.5589V70.2596V73.9603V77.661V81.3617V85.0624H341.579V88.7632H337.878V92.4639H334.177ZM326.776 88.7632H330.477V85.0624H334.177V81.3617H337.878V77.661V73.9603V70.2596V66.5589V62.8582H334.177V59.1575V55.4568H330.477V51.7561H326.776H323.075V55.4568H319.374V59.1575V62.8582H315.674V66.5589V70.2596V73.9603V77.661V81.3617H319.374V85.0624H323.075V88.7632H326.776Z" fill="white"/>
<path d="M187.452 140.864V110.624H191.686V140.864H187.452ZM222.207 140.864L222.034 137.105V129.589C222.034 128.005 221.847 126.68 221.473 125.614C221.127 124.549 220.58 123.742 219.831 123.195C219.111 122.648 218.146 122.374 216.937 122.374C215.814 122.374 214.834 122.605 213.999 123.065C213.193 123.526 212.516 124.246 211.969 125.225L208.34 123.843C208.858 122.864 209.506 122 210.284 121.251C211.062 120.473 211.998 119.869 213.092 119.437C214.186 118.976 215.468 118.745 216.937 118.745C218.982 118.745 220.681 119.149 222.034 119.955C223.388 120.761 224.396 121.928 225.058 123.454C225.75 124.981 226.081 126.867 226.052 129.113L226.009 140.864H222.207ZM215.857 141.382C213.294 141.382 211.292 140.806 209.852 139.654C208.441 138.473 207.735 136.846 207.735 134.773C207.735 132.555 208.47 130.87 209.938 129.718C211.436 128.537 213.51 127.947 216.159 127.947H222.164V131.187H217.282C215.295 131.187 213.898 131.504 213.092 132.137C212.286 132.742 211.882 133.592 211.882 134.686C211.882 135.694 212.257 136.486 213.006 137.062C213.783 137.609 214.849 137.883 216.202 137.883C217.383 137.883 218.406 137.638 219.27 137.149C220.134 136.63 220.81 135.91 221.3 134.989C221.79 134.067 222.034 133.016 222.034 131.835H223.46C223.46 134.773 222.826 137.105 221.559 138.833C220.321 140.533 218.42 141.382 215.857 141.382ZM231.22 140.864V119.264H235.065L235.237 122.245C235.929 121.093 236.793 120.229 237.829 119.653C238.866 119.048 240.061 118.745 241.415 118.745C243.143 118.745 244.612 119.149 245.821 119.955C247.031 120.733 247.909 121.928 248.457 123.541C249.09 121.985 249.983 120.805 251.135 119.998C252.287 119.163 253.655 118.745 255.239 118.745C257.687 118.745 259.602 119.552 260.985 121.165C262.367 122.749 263.044 125.197 263.015 128.509V140.864H258.954V129.805C258.954 127.846 258.738 126.363 258.306 125.355C257.903 124.318 257.356 123.598 256.665 123.195C255.973 122.792 255.167 122.576 254.245 122.547C252.633 122.547 251.38 123.166 250.487 124.405C249.623 125.643 249.191 127.385 249.191 129.632V140.864H245.087V129.805C245.087 127.846 244.885 126.363 244.482 125.355C244.079 124.318 243.517 123.598 242.797 123.195C242.106 122.792 241.3 122.576 240.378 122.547C238.765 122.547 237.513 123.166 236.62 124.405C235.756 125.643 235.324 127.385 235.324 129.632V140.864H231.22ZM292.07 140.864L291.897 137.105V129.589C291.897 128.005 291.71 126.68 291.335 125.614C290.99 124.549 290.443 123.742 289.694 123.195C288.974 122.648 288.009 122.374 286.799 122.374C285.676 122.374 284.697 122.605 283.862 123.065C283.055 123.526 282.379 124.246 281.831 125.225L278.203 123.843C278.721 122.864 279.369 122 280.147 121.251C280.924 120.473 281.86 119.869 282.954 119.437C284.049 118.976 285.331 118.745 286.799 118.745C288.844 118.745 290.543 119.149 291.897 119.955C293.25 120.761 294.258 121.928 294.921 123.454C295.612 124.981 295.943 126.867 295.914 129.113L295.871 140.864H292.07ZM285.719 141.382C283.156 141.382 281.155 140.806 279.715 139.654C278.303 138.473 277.598 136.846 277.598 134.773C277.598 132.555 278.332 130.87 279.801 129.718C281.299 128.537 283.372 127.947 286.022 127.947H292.026V131.187H287.145C285.158 131.187 283.761 131.504 282.954 132.137C282.148 132.742 281.745 133.592 281.745 134.686C281.745 135.694 282.119 136.486 282.868 137.062C283.646 137.609 284.711 137.883 286.065 137.883C287.246 137.883 288.268 137.638 289.132 137.149C289.996 136.63 290.673 135.91 291.163 134.989C291.652 134.067 291.897 133.016 291.897 131.835H293.322C293.322 134.773 292.689 137.105 291.422 138.833C290.183 140.533 288.283 141.382 285.719 141.382Z" fill="white"/>
<rect x="43.356" y="168.18" width="395.128" height="166.384" rx="14.2107" fill="white"/>
<path d="M81.4545 243.558C80.4676 243.558 79.4215 243.262 78.3163 242.67C77.211 242.078 76.1847 241.111 75.2373 239.769C74.3294 238.427 73.5794 236.65 72.9872 234.44C72.3951 232.229 72.0991 229.506 72.0991 226.269C72.0991 223.703 72.4149 221.098 73.0465 218.453C73.7175 215.768 74.7438 213.242 76.1254 210.874C77.5465 208.466 79.3623 206.393 81.5729 204.656C83.8229 202.88 86.5467 201.656 89.7441 200.985C91.1257 200.67 92.6849 200.374 94.4218 200.097C96.1981 199.781 97.9942 199.505 99.81 199.268C101.665 198.992 103.402 198.775 105.021 198.617C106.679 198.459 108.08 198.38 109.225 198.38C111.08 198.38 112.402 198.716 113.192 199.387C114.021 200.018 114.435 200.63 114.435 201.222C114.435 201.617 114.277 201.992 113.962 202.347C113.646 202.663 113.034 202.86 112.126 202.939C111.771 202.979 111.021 203.078 109.876 203.235C108.731 203.354 107.35 203.531 105.731 203.768C104.113 204.005 102.415 204.262 100.639 204.538C98.9021 204.775 97.2047 205.031 95.5468 205.308C93.9283 205.545 92.527 205.762 91.3428 205.959C88.0664 206.591 85.4808 207.676 83.5861 209.216C81.6913 210.755 80.3097 212.571 79.4413 214.663C78.5729 216.755 78.0202 218.907 77.7834 221.117C79.3623 220.762 81.0795 220.387 82.9348 219.992C84.8295 219.597 86.6453 219.242 88.3822 218.926C90.1191 218.571 91.6191 218.295 92.8823 218.097C94.1849 217.9 95.0533 217.801 95.4876 217.801C96.3165 217.801 96.8297 217.979 97.0271 218.334C97.2639 218.69 97.3823 219.144 97.3823 219.696C97.3823 220.762 95.6455 221.946 92.1717 223.249C88.7375 224.552 83.8624 225.657 77.5465 226.565C77.5465 227.907 77.5663 229.288 77.6057 230.709C77.6847 232.091 77.8031 233.374 77.961 234.558C78.1189 235.742 78.3163 236.69 78.5531 237.4C78.79 238.111 79.1058 238.466 79.5005 238.466C80.4084 238.466 81.5926 238.19 83.0532 237.637C84.5532 237.085 86.1124 236.414 87.7309 235.624C89.3493 234.835 90.8296 234.065 92.1717 233.315C93.5533 232.565 94.5599 231.973 95.1915 231.538C95.9415 231.065 96.7507 230.552 97.6192 229.999C98.4876 229.446 99.1389 229.17 99.5732 229.17C100.126 229.17 100.402 229.486 100.402 230.117C100.402 230.473 100.086 231.163 99.4547 232.19C98.8626 233.216 97.9942 234.381 96.8494 235.683C95.7047 236.946 94.3428 238.19 92.7638 239.414C91.2243 240.598 89.4875 241.585 87.5532 242.374C85.6585 243.164 83.6256 243.558 81.4545 243.558ZM114.224 241.308C113.632 241.308 113.197 241.091 112.921 240.657C112.645 240.223 112.507 239.67 112.507 238.999C112.507 238.446 112.862 237.657 113.572 236.631C114.322 235.565 115.29 234.321 116.474 232.9C117.698 231.44 119.04 229.881 120.5 228.223C121.961 226.565 123.441 224.887 124.941 223.19C123.125 220.111 121.744 217.683 120.796 215.907C119.849 214.091 119.375 212.67 119.375 211.643C119.375 210.933 119.612 210.282 120.086 209.689C120.559 209.058 121.033 208.742 121.507 208.742C122.059 208.742 122.592 209.078 123.106 209.749C123.658 210.38 124.329 211.466 125.119 213.005C125.908 214.505 126.974 216.578 128.316 219.222C130.487 216.617 132.283 214.486 133.704 212.828C135.165 211.17 136.329 209.887 137.198 208.979C138.106 208.071 138.816 207.439 139.329 207.084C139.882 206.689 140.356 206.492 140.75 206.492C141.224 206.492 141.619 206.689 141.935 207.084C142.251 207.439 142.408 208.032 142.408 208.86C142.408 209.65 142.033 210.617 141.283 211.762C140.573 212.907 139.625 214.15 138.441 215.492C137.257 216.834 135.974 218.216 134.593 219.637C133.25 221.019 131.967 222.361 130.744 223.663C132.717 227.058 134.612 230.019 136.428 232.545C138.244 235.032 139.704 237.085 140.81 238.703C141.954 240.321 142.527 241.506 142.527 242.256C142.527 242.769 142.408 243.164 142.172 243.44C141.935 243.677 141.481 243.795 140.81 243.795C140.336 243.795 139.783 243.598 139.152 243.203C138.52 242.808 137.711 242.039 136.724 240.894C135.777 239.749 134.533 238.091 132.994 235.92C131.494 233.71 129.638 230.828 127.428 227.275C126.046 228.815 124.665 230.413 123.283 232.071C121.941 233.69 120.658 235.21 119.434 236.631C118.25 238.012 117.204 239.137 116.296 240.006C115.388 240.874 114.697 241.308 114.224 241.308ZM150.273 261.026C149.602 261.026 149.069 260.789 148.675 260.315C148.319 259.841 148.142 258.934 148.142 257.591C148.142 255.657 148.28 253.407 148.556 250.841C148.833 248.276 149.208 245.552 149.681 242.67C150.194 239.789 150.747 236.907 151.339 234.025C151.971 231.144 152.622 228.4 153.293 225.795C154.004 223.19 154.694 220.88 155.366 218.867C156.037 216.815 156.648 215.196 157.201 214.012C157.793 212.828 158.306 212.236 158.741 212.236C159.491 212.236 160.083 212.453 160.517 212.887C160.991 213.321 161.227 213.972 161.227 214.841C161.227 215.946 160.892 217.742 160.221 220.229C159.55 222.676 158.681 225.874 157.616 229.821C158.602 228.006 159.668 226.111 160.813 224.137C161.958 222.163 163.162 220.249 164.425 218.394C165.688 216.499 166.951 214.801 168.214 213.301C169.517 211.801 170.78 210.597 172.004 209.689C173.228 208.782 174.412 208.328 175.557 208.328C176.78 208.328 177.866 208.722 178.813 209.512C179.761 210.262 180.491 211.288 181.004 212.591C181.557 213.854 181.833 215.275 181.833 216.854C181.833 220.13 181.28 223.308 180.175 226.387C179.07 229.427 177.53 232.17 175.557 234.617C173.622 237.025 171.333 238.94 168.688 240.361C166.083 241.782 163.26 242.493 160.221 242.493C159.076 242.493 158.05 242.433 157.142 242.315C156.234 242.197 155.444 242.058 154.773 241.9C154.3 244.506 153.846 247.19 153.412 249.953C152.977 252.716 152.543 255.657 152.109 258.776C151.99 259.605 151.793 260.177 151.517 260.493C151.24 260.848 150.826 261.026 150.273 261.026ZM176.622 212.828C175.793 212.828 174.807 213.301 173.662 214.249C172.557 215.196 171.353 216.459 170.05 218.038C168.787 219.578 167.504 221.295 166.201 223.19C164.899 225.045 163.635 226.94 162.412 228.874C161.188 230.808 160.063 232.604 159.037 234.262C158.05 235.92 157.241 237.302 156.609 238.407C159.688 238.328 162.392 237.716 164.721 236.571C167.05 235.387 169.043 233.887 170.701 232.071C172.359 230.216 173.701 228.223 174.728 226.091C175.793 223.92 176.563 221.828 177.037 219.815C177.511 217.762 177.747 215.986 177.747 214.486C177.747 213.38 177.372 212.828 176.622 212.828ZM212.018 216.972C212.018 219.499 210.814 221.946 208.406 224.315C205.998 226.683 202.327 228.854 197.393 230.828C197.235 231.815 197.156 232.644 197.156 233.315C197.156 234.894 197.353 236.039 197.748 236.749C198.182 237.46 198.893 237.815 199.88 237.815C201.34 237.815 202.978 237.361 204.794 236.453C206.61 235.506 208.485 234.302 210.419 232.841C212.353 231.341 214.248 229.762 216.103 228.104C217.998 226.446 219.735 224.887 221.314 223.426C222.893 221.926 224.235 220.723 225.34 219.815C226.446 218.867 227.196 218.394 227.59 218.394C228.143 218.394 228.597 218.65 228.952 219.163C229.308 219.637 229.485 220.288 229.485 221.117C229.485 222.144 229.426 223.328 229.308 224.67C229.189 225.973 229.051 227.354 228.893 228.815C229.919 225.933 231.202 223.426 232.742 221.295C234.321 219.124 235.998 217.328 237.775 215.907C239.551 214.486 241.288 213.42 242.985 212.709C244.683 211.999 246.143 211.643 247.367 211.643C248.512 211.643 249.36 211.861 249.913 212.295C250.466 212.729 250.742 213.242 250.742 213.834C250.742 214.387 250.486 214.9 249.972 215.374C249.499 215.808 248.393 216.38 246.657 217.091C244.643 217.88 242.749 218.808 240.972 219.874C239.235 220.94 237.617 222.4 236.117 224.255C234.617 226.071 233.275 228.499 232.091 231.538C230.906 234.578 229.9 238.486 229.071 243.262C228.913 244.21 228.637 244.881 228.242 245.275C227.847 245.71 227.373 245.927 226.821 245.927C226.426 245.927 226.031 245.749 225.636 245.394C225.242 245.078 224.926 244.308 224.689 243.085C224.452 241.821 224.334 239.848 224.334 237.164C224.334 235.348 224.413 233.374 224.571 231.242C224.768 229.111 225.044 226.88 225.4 224.552C223.584 226.525 221.571 228.598 219.36 230.769C217.15 232.9 214.86 234.894 212.492 236.749C210.123 238.565 207.794 240.045 205.505 241.19C203.215 242.335 201.083 242.907 199.11 242.907C197.018 242.907 195.34 242.177 194.077 240.716C192.814 239.256 192.182 237.085 192.182 234.203C192.182 230.887 192.616 227.848 193.485 225.084C194.353 222.321 195.478 219.933 196.86 217.92C198.241 215.867 199.722 214.288 201.301 213.183C202.88 212.078 204.399 211.525 205.86 211.525C207.834 211.525 209.353 212.038 210.419 213.065C211.485 214.051 212.018 215.354 212.018 216.972ZM198.34 226.505C199.524 225.677 200.807 224.749 202.189 223.723C203.61 222.696 204.814 221.65 205.801 220.584C206.827 219.479 207.34 218.472 207.34 217.565C207.34 217.012 207.202 216.617 206.926 216.38C206.649 216.143 206.176 216.025 205.505 216.025C204.439 216.025 203.452 216.558 202.544 217.624C201.636 218.65 200.827 219.973 200.116 221.591C199.406 223.17 198.814 224.808 198.34 226.505ZM244.386 224.492C243.32 224.413 242.826 223.723 242.905 222.42C242.945 222.104 243.162 221.729 243.557 221.295C243.951 220.821 244.405 220.565 244.919 220.525C246.142 220.407 247.642 220.229 249.419 219.992C251.234 219.716 253.228 219.4 255.399 219.045C255.794 217.111 256.267 215.078 256.82 212.946C257.373 210.814 257.985 208.742 258.656 206.729C259.327 204.676 260.037 202.821 260.787 201.163C261.537 199.505 262.327 198.202 263.156 197.255C263.59 196.821 263.985 196.525 264.34 196.367C264.695 196.17 265.011 196.071 265.287 196.071C265.84 196.071 266.274 196.308 266.59 196.781C266.945 197.255 267.123 197.788 267.123 198.38C267.123 198.696 267.064 199.012 266.945 199.327C266.156 201.538 265.307 204.262 264.399 207.499C263.491 210.736 262.524 214.268 261.498 218.097C265.129 217.505 268.761 216.874 272.393 216.203C276.024 215.532 279.143 214.92 281.748 214.367C282.498 214.051 283.07 214.111 283.465 214.545C283.899 214.979 284.116 215.413 284.116 215.847C284.116 216.4 283.959 216.815 283.643 217.091C283.366 217.367 283.07 217.604 282.755 217.801L282.695 217.861C281.906 218.176 280.722 218.551 279.143 218.986C277.564 219.38 275.748 219.815 273.695 220.288C271.643 220.723 269.452 221.157 267.123 221.591C264.833 222.025 262.564 222.42 260.314 222.775C259.406 226.249 258.478 229.821 257.531 233.492C256.623 237.124 255.715 240.696 254.807 244.21C254.412 245.631 253.958 246.519 253.445 246.874C252.971 247.269 252.458 247.466 251.905 247.466C251.274 247.466 250.721 247.229 250.248 246.756C249.813 246.282 249.754 245.315 250.07 243.854L254.392 223.663C252.024 224.019 249.932 224.275 248.116 224.433C246.34 224.591 245.096 224.611 244.386 224.492ZM70.2043 305.104C69.3359 305.104 68.6648 304.848 68.1911 304.335C67.7174 303.861 67.4806 302.657 67.4806 300.723C67.4806 298.946 67.7964 296.637 68.428 293.795C69.0596 290.913 69.9083 287.716 70.9741 284.203C72.0399 280.69 73.2438 277.058 74.586 273.308C75.9281 269.518 77.3294 265.808 78.79 262.176C80.29 258.505 81.7308 255.15 83.1124 252.11C83.6256 251.005 84.1585 250.235 84.7111 249.801C85.2637 249.367 85.9151 249.15 86.6651 249.15C87.1782 249.15 87.6125 249.308 87.9677 249.623C88.3625 249.9 88.5598 250.373 88.5598 251.044C88.5598 251.281 88.3033 252.051 87.7901 253.354C87.3164 254.656 86.6453 256.373 85.7769 258.505C84.9479 260.637 84.0203 263.025 82.994 265.67C81.9676 268.314 80.9216 271.097 79.8558 274.018C78.79 276.94 77.7834 279.88 76.836 282.841C75.8886 285.762 75.0794 288.565 74.4083 291.249C73.7373 293.933 73.2833 296.341 73.0465 298.473C73.9938 297.328 75.0794 295.867 76.3031 294.091C77.5268 292.315 78.8294 290.4 80.211 288.348C81.5926 286.295 82.994 284.262 84.415 282.249C85.8361 280.236 87.2374 278.4 88.619 276.742C90.0006 275.084 91.2836 273.762 92.4678 272.775C93.6915 271.749 94.7573 271.236 95.6652 271.236C97.1652 271.236 98.3692 271.709 99.2771 272.657C100.224 273.565 100.698 275.065 100.698 277.157C100.698 278.341 100.461 279.762 99.9876 281.42C99.5534 283.078 99.0402 284.815 98.4481 286.631C97.856 288.446 97.3231 290.183 96.8494 291.841C96.4152 293.499 96.1981 294.92 96.1981 296.104C96.1981 297.723 96.81 298.532 98.0337 298.532C99.9284 298.532 101.823 298.118 103.718 297.289C105.652 296.46 107.488 295.433 109.225 294.21C110.961 292.946 112.56 291.683 114.021 290.42C115.481 289.117 116.725 288.012 117.751 287.104C118.856 286.117 119.784 285.624 120.534 285.624C121.481 285.624 121.955 286.117 121.955 287.104C121.955 287.381 121.896 287.696 121.777 288.052C121.659 288.407 121.343 288.861 120.83 289.413C120.198 290.124 119.291 291.052 118.106 292.196C116.962 293.341 115.619 294.565 114.08 295.867C112.58 297.17 110.942 298.394 109.165 299.539C107.429 300.683 105.632 301.631 103.777 302.381C101.961 303.091 100.185 303.447 98.4481 303.447C96.0797 303.447 94.2441 302.775 92.9415 301.433C91.6783 300.052 91.0467 298.157 91.0467 295.749C91.0467 294.249 91.2836 292.433 91.7572 290.302C92.2309 288.17 92.8231 285.92 93.5336 283.552C94.2836 281.144 95.0336 278.795 95.7836 276.505C94.5204 277.374 93.1388 278.676 91.6388 280.413C90.1783 282.111 88.6388 284.045 87.0203 286.216C85.4019 288.348 83.7835 290.519 82.165 292.729C80.586 294.94 79.0465 296.992 77.5465 298.887C76.086 300.743 74.7241 302.243 73.4609 303.387C72.1978 304.532 71.1122 305.104 70.2043 305.104ZM120.514 303.979C119.014 303.979 117.771 303.289 116.784 301.907C115.836 300.486 115.363 298.65 115.363 296.4C115.363 294.308 115.876 292.236 116.902 290.183C117.968 288.131 119.369 286.157 121.106 284.262C122.843 282.367 124.738 280.63 126.79 279.051C128.843 277.433 130.896 276.032 132.948 274.847C135.041 273.663 136.955 272.736 138.692 272.065C140.429 271.393 141.81 271.058 142.837 271.058C143.389 271.058 143.843 271.176 144.199 271.413C144.554 271.611 144.732 271.986 144.732 272.538C144.732 272.893 144.593 273.229 144.317 273.545C144.357 273.545 144.396 273.545 144.435 273.545C145.304 273.545 145.738 274.058 145.738 275.084C145.738 275.44 145.6 276.17 145.324 277.275C145.047 278.341 144.732 279.683 144.376 281.301C144.021 282.92 143.705 284.716 143.429 286.69C143.153 288.624 143.014 290.598 143.014 292.611C143.014 294.308 143.666 295.157 144.968 295.157C146.429 295.157 147.909 294.821 149.409 294.15C150.909 293.479 152.37 292.67 153.791 291.723C155.212 290.736 156.515 289.769 157.699 288.821C158.883 287.834 159.89 287.006 160.719 286.334C161.548 285.663 162.14 285.328 162.495 285.328C162.811 285.328 163.087 285.427 163.324 285.624C163.561 285.821 163.679 286.137 163.679 286.571C163.679 286.966 163.284 287.677 162.495 288.703C161.705 289.729 160.659 290.894 159.357 292.196C158.054 293.499 156.594 294.762 154.975 295.986C153.357 297.21 151.699 298.216 150.001 299.006C148.304 299.795 146.686 300.19 145.146 300.19C143.962 300.19 142.876 299.835 141.889 299.124C140.942 298.374 140.172 297.111 139.58 295.335C139.028 293.558 138.751 291.111 138.751 287.992V286.512C136.817 289.709 134.784 292.631 132.652 295.275C130.56 297.92 128.468 300.032 126.376 301.611C124.323 303.19 122.369 303.979 120.514 303.979ZM141.712 275.321C141.514 275.4 141.238 275.519 140.883 275.676C139.067 276.505 137.172 277.532 135.199 278.755C133.264 279.979 131.37 281.341 129.514 282.841C127.698 284.341 126.06 285.9 124.6 287.519C123.139 289.137 121.975 290.775 121.106 292.433C120.238 294.091 119.804 295.71 119.804 297.289C119.804 297.802 119.902 298.196 120.1 298.473C120.336 298.749 120.731 298.887 121.284 298.887C122.073 298.887 123.1 298.394 124.363 297.407C125.626 296.381 127.008 295.039 128.508 293.381C130.047 291.723 131.587 289.887 133.126 287.874C134.666 285.861 136.126 283.828 137.508 281.775C138.929 279.723 140.153 277.828 141.179 276.091C141.337 275.815 141.514 275.558 141.712 275.321ZM169.55 303.269C167.616 303.269 165.938 302.835 164.517 301.966C163.135 301.058 162.07 299.894 161.32 298.473C160.569 297.052 160.194 295.591 160.194 294.091C160.194 290.933 160.747 288.052 161.852 285.446C162.958 282.802 164.339 280.473 165.997 278.459C167.695 276.407 169.431 274.67 171.208 273.249C173.024 271.828 174.662 270.762 176.122 270.051C177.622 269.301 178.688 268.926 179.32 268.926C180.583 268.926 181.215 269.558 181.215 270.821C181.215 271.413 180.82 272.104 180.03 272.893C179.241 273.643 178.234 274.532 177.011 275.558C175.787 276.584 174.484 277.749 173.103 279.051C171.721 280.315 170.418 281.755 169.195 283.374C167.971 284.953 166.964 286.729 166.175 288.703C165.385 290.637 164.991 292.769 164.991 295.098C164.991 297.466 165.958 298.65 167.892 298.65C169.668 298.65 171.484 298.315 173.339 297.644C175.234 296.973 177.089 296.104 178.905 295.039C180.761 293.933 182.537 292.788 184.234 291.604C185.932 290.42 187.471 289.295 188.853 288.229C190.234 287.124 191.399 286.236 192.346 285.565C193.294 284.894 193.965 284.558 194.359 284.558C195.149 284.558 195.544 284.992 195.544 285.861C195.544 286.532 195.09 287.42 194.182 288.525C193.274 289.631 192.05 290.835 190.511 292.137C188.971 293.44 187.254 294.762 185.359 296.104C183.465 297.407 181.55 298.611 179.616 299.716C177.682 300.782 175.826 301.65 174.05 302.322C172.313 302.953 170.813 303.269 169.55 303.269ZM221.018 305.578C218.452 305.578 216.083 304.966 213.912 303.743C211.781 302.519 209.846 300.94 208.109 299.006C206.412 297.071 204.892 294.999 203.55 292.788C202.248 290.538 201.123 288.427 200.175 286.453C199.504 289.65 198.971 292.236 198.576 294.21C198.221 296.183 197.925 297.683 197.688 298.71C197.491 299.736 197.293 300.427 197.096 300.782C196.899 301.137 196.642 301.315 196.326 301.315C195.458 301.315 194.629 300.841 193.84 299.894C193.05 298.946 192.655 297.723 192.655 296.223C192.655 294.644 192.932 292.552 193.484 289.946C194.037 287.302 194.767 284.38 195.675 281.183C196.622 277.946 197.708 274.611 198.932 271.176C200.155 267.703 201.419 264.328 202.721 261.051C204.063 257.735 205.405 254.716 206.748 251.992C207.419 250.65 207.991 249.781 208.465 249.387C208.978 248.992 209.59 248.794 210.3 248.794C211.445 248.794 212.017 249.327 212.017 250.393C212.017 250.788 211.899 251.222 211.662 251.696C211.465 252.169 211.248 252.702 211.011 253.295C210.3 255.031 209.511 256.985 208.642 259.156C207.813 261.328 206.965 263.597 206.096 265.966C205.267 268.334 204.478 270.683 203.728 273.012C202.978 275.341 202.326 277.492 201.774 279.466C203.471 278.282 205.465 277.097 207.754 275.913C210.044 274.729 212.412 273.663 214.86 272.716C217.307 271.729 219.616 270.939 221.787 270.347C223.958 269.755 225.754 269.459 227.176 269.459C227.926 269.459 228.498 269.696 228.893 270.17C229.327 270.604 229.544 271.097 229.544 271.65C229.544 272.084 229.406 272.518 229.129 272.953C228.893 273.347 228.379 273.703 227.59 274.018C224.985 274.926 222.399 275.854 219.833 276.801C217.267 277.709 214.583 278.696 211.781 279.762C209.017 280.788 205.998 282.012 202.721 283.433C203.748 285.17 204.952 287.045 206.333 289.058C207.715 291.032 209.195 292.907 210.774 294.683C212.353 296.42 213.971 297.861 215.629 299.006C217.287 300.111 218.945 300.664 220.603 300.664C222.774 300.664 224.866 300.21 226.879 299.302C228.893 298.394 230.748 297.289 232.445 295.986C234.182 294.683 235.702 293.42 237.005 292.196C238.307 290.933 239.334 289.946 240.084 289.236C240.478 288.881 240.834 288.644 241.149 288.525C241.505 288.367 241.82 288.288 242.097 288.288C242.649 288.288 243.024 288.584 243.222 289.177C243.459 289.729 243.261 290.341 242.63 291.012C242.156 291.565 241.426 292.413 240.439 293.558C239.452 294.703 238.248 295.966 236.827 297.348C235.445 298.69 233.906 299.993 232.208 301.256C230.551 302.519 228.754 303.545 226.82 304.335C224.925 305.164 222.991 305.578 221.018 305.578ZM260.474 275.972C260.474 278.499 259.27 280.946 256.862 283.315C254.454 285.683 250.783 287.854 245.849 289.828C245.691 290.815 245.612 291.644 245.612 292.315C245.612 293.894 245.809 295.039 246.204 295.749C246.638 296.46 247.349 296.815 248.336 296.815C249.796 296.815 251.434 296.361 253.25 295.453C255.066 294.506 256.941 293.302 258.875 291.841C260.81 290.341 262.704 288.762 264.56 287.104C266.454 285.446 268.191 283.887 269.77 282.426C271.349 280.926 272.691 279.723 273.797 278.815C274.902 277.867 275.652 277.394 276.047 277.394C276.599 277.394 277.053 277.65 277.408 278.163C277.764 278.637 277.941 279.288 277.941 280.117C277.941 281.144 277.882 282.328 277.764 283.67C277.645 284.973 277.507 286.354 277.349 287.815C278.376 284.933 279.659 282.426 281.198 280.295C282.777 278.124 284.455 276.328 286.231 274.907C288.007 273.486 289.744 272.42 291.442 271.709C293.139 270.999 294.6 270.643 295.823 270.643C296.968 270.643 297.817 270.861 298.369 271.295C298.922 271.729 299.198 272.242 299.198 272.834C299.198 273.387 298.942 273.9 298.429 274.374C297.955 274.808 296.85 275.38 295.113 276.091C293.099 276.88 291.205 277.808 289.428 278.874C287.692 279.94 286.073 281.4 284.573 283.255C283.073 285.071 281.731 287.499 280.547 290.538C279.362 293.578 278.356 297.486 277.527 302.262C277.369 303.21 277.093 303.881 276.698 304.275C276.303 304.71 275.83 304.927 275.277 304.927C274.882 304.927 274.487 304.749 274.093 304.394C273.698 304.078 273.382 303.308 273.145 302.085C272.908 300.821 272.79 298.848 272.79 296.164C272.79 294.348 272.869 292.374 273.027 290.242C273.224 288.111 273.501 285.88 273.856 283.552C272.04 285.525 270.027 287.598 267.816 289.769C265.606 291.9 263.316 293.894 260.948 295.749C258.579 297.565 256.25 299.045 253.961 300.19C251.671 301.335 249.54 301.907 247.566 301.907C245.474 301.907 243.796 301.177 242.533 299.716C241.27 298.256 240.638 296.085 240.638 293.203C240.638 289.887 241.072 286.848 241.941 284.084C242.809 281.321 243.934 278.933 245.316 276.92C246.698 274.867 248.178 273.288 249.757 272.183C251.336 271.078 252.855 270.525 254.316 270.525C256.29 270.525 257.81 271.038 258.875 272.065C259.941 273.051 260.474 274.354 260.474 275.972ZM246.796 285.505C247.98 284.677 249.263 283.749 250.645 282.723C252.066 281.696 253.27 280.65 254.257 279.584C255.283 278.479 255.796 277.472 255.796 276.565C255.796 276.012 255.658 275.617 255.382 275.38C255.106 275.143 254.632 275.025 253.961 275.025C252.895 275.025 251.908 275.558 251 276.624C250.092 277.65 249.283 278.973 248.573 280.591C247.862 282.17 247.27 283.808 246.796 285.505Z" fill="black"/>
<path d="M413.062 199.895C414.519 198.507 416.885 197.238 419.568 199.239C420.235 199.759 420.737 200.126 421.367 200.527C422.624 201.355 423.036 201.943 423.584 202.358C424.097 202.781 424.588 203.094 425.095 203.422C426.099 204.074 427.15 204.801 427.822 206.155C427.856 206.246 427.886 206.334 427.914 206.419C428.42 208.187 428.32 208.62 428.349 209.336C428.342 209.982 428.277 210.542 428.187 211.084C428.004 212.167 427.715 213.159 427.44 214.087C426.96 216.202 426.233 217.52 426.047 218.509C425.63 220.593 425.061 223.13 423.849 225.423C423.74 225.638 423.626 225.85 423.501 226.067C422.591 227.731 421.277 230.43 419.653 232.099C418.552 233.313 417.309 234.328 415.932 234.912C413.956 235.758 411.54 236.554 409.496 237.076C408.089 237.449 406.82 237.703 405.94 237.811C404.011 238.038 403.357 238.079 402.159 238.918C400.852 240.76 399.429 242.587 397.968 244.285C395.451 247.292 391.839 249.392 389.123 250.592C388.333 250.953 387.543 251.283 386.755 251.577C385.648 251.99 384.462 252.431 383.297 252.88C382.716 253.105 382.136 253.334 381.619 253.552C381.364 253.659 381.122 253.767 380.954 253.838C380.871 253.873 380.808 253.9 380.804 253.878C380.805 253.835 380.855 253.843 381.155 253.329C380.162 254.549 379.146 256.832 378.283 258.694C377.536 260.101 377.442 262.509 377.389 263.941C377.338 265.929 377.453 267.263 377.717 268.432C377.889 269.264 378.657 270.023 380.205 270.93C380.337 270.978 380.472 271.027 380.611 271.077C382.556 271.845 384.742 272.69 387.015 274.965L387.055 275.011C387.244 275.361 387.387 275.725 387.489 276.085C389.852 275.584 392.077 274.493 396.185 274.809C396.465 274.829 396.737 274.85 396.991 274.871C397.662 275.055 398.816 274.564 401.913 276.427C403.357 277.419 404.251 278.906 404.635 279.885C405.042 280.904 405.176 281.66 405.277 282.334C405.746 287.5 404.831 290.837 404.532 293.913C404.379 295.129 404.279 296.554 404.34 296.819C404.345 296.872 404.365 297.032 404.369 297.309C404.477 297.978 403.895 299.995 402.981 300.758C402.144 301.569 401.586 301.756 401.19 301.936C400.4 302.246 399.999 302.307 399.591 302.393C395.384 303.004 392.042 303.205 387.699 303.301C386.748 303.313 385.783 303.308 384.806 303.28C378.862 303.109 371.607 304.634 365.01 304.104C363.069 303.947 360.875 303.78 358.65 303.595C355.082 303.28 351.501 303.035 348.307 302.396C346.87 302.076 345.545 301.791 344.399 301.372C344.271 301.324 344.144 301.275 344.02 301.224C343.649 301.126 343.366 300.916 343.209 300.759C343.075 300.627 342.989 300.505 342.924 300.399C342.811 300.21 342.773 300.097 342.736 299.991C342.679 299.81 342.659 299.684 342.644 299.575C342.617 299.365 342.614 299.211 342.613 299.061C342.614 298.769 342.63 298.532 342.647 298.299C342.683 297.842 342.728 297.441 342.767 297.066C342.845 296.315 342.906 295.676 342.936 295.032C342.996 293.753 342.935 292.47 342.745 290.468C342.704 290.028 342.678 289.566 342.671 289.074V289.058C342.658 287.777 342.825 286.262 343.13 284.917C343.329 283.993 343.539 283.062 343.776 282.146C344.116 280.759 344.779 280.964 345.175 282.386C345.428 283.334 345.472 284.234 345.505 285.019C345.541 285.959 345.598 286.688 346.005 287.264C346.528 288.003 346.947 288.584 347.226 289.144V289.11C347.749 290.165 347.785 291.145 347.183 292.845C346.527 294.696 347.379 295.887 347.873 296.865C348.144 296.89 348.443 296.912 348.773 296.927C349.693 296.981 350.847 296.898 352.457 296.686C354.679 296.386 356.654 296.101 358.37 295.868C362.535 295.294 365.3 294.995 367.387 294.741C370.339 294.38 376.585 295.143 381.405 294.522C382.96 294.322 385.025 294.173 387.253 294.038C389.734 293.876 392.747 293.75 395.062 293.557C395.444 292.576 396.051 291.802 396.483 290.134C396.872 288.673 396.252 287.171 395.512 285.956C395.621 286.019 395.729 286.073 395.829 286.112C396.511 286.369 396.565 286.224 396.413 286.134C396.259 286.028 395.936 285.898 395.605 285.757C395.499 285.71 395.396 285.66 395.296 285.612C394.978 285.125 394.653 284.694 394.389 284.345C394.235 284.19 394.078 284.118 394.16 284.444C394.207 284.605 394.337 284.895 394.644 285.248C394.659 285.266 394.677 285.284 394.694 285.302C393.092 284.434 392.083 283.572 389.181 283.568C388.174 283.571 387.174 283.501 386.194 283.401C382.967 283.072 380.013 282.393 378.492 282.919C376.516 283.612 376.347 281.371 373.539 281.846C371.27 282.24 369.737 282.141 367.932 281.743C367.511 281.651 367.08 281.544 366.616 281.425C364.262 280.751 357.226 280.872 354.14 281.75C354.012 281.787 353.892 281.827 353.781 281.868C351.046 282.879 347.815 281.445 345.908 281.123C345.311 281.023 344.841 280.876 344.481 280.718C344.327 280.652 344.259 280.508 344.258 280.366C344.252 280.189 344.361 280.013 344.552 279.988C345.49 279.864 346.89 279.541 348.524 278.844C350.957 277.806 351.684 278.421 353.989 278.314C354.557 278.287 355.228 278.202 356.055 278.014C356.427 277.928 356.785 277.835 357.134 277.741C356.836 277.75 356.563 277.487 356.412 277.011C356.395 276.945 356.379 276.877 356.368 276.806L356.407 276.622C356.558 275.177 357.372 274.616 357.165 273.65C356.834 271.861 356.872 270.901 358.21 270.374L358.527 270.123C358.692 270.088 358.867 270.068 359.071 270.053C360.84 269.95 360.295 267.837 361.037 267.609C361.569 267.432 362.463 268.067 363.061 266.854C363.039 266.806 363.131 266.401 363.12 265.852C363.034 262.388 362.415 260.4 362.028 259.351C361.972 259.209 361.932 259.046 361.898 258.87C361.623 257.453 361.741 256.697 361.62 255.724C361.521 254.802 361.25 253.915 360.704 253.346C360.579 253.215 360.449 253.072 360.31 252.919C358.686 250.918 355.986 247.76 354.408 247.337C354.106 247.243 353.895 247.151 353.748 247.048C352.702 246.322 353.052 245.309 352.175 243.907C351.247 242.386 348.525 243.639 346.79 242.432C345.434 242.832 344.213 243.264 342.402 242.508C342.275 242.455 342.15 242.413 342.027 242.382L341.757 242.345C339.517 241.489 337.689 244.156 334.681 240.781C333.099 238.791 331.969 238.636 330.31 238.282C328.945 237.958 327.303 237.393 325.989 235.77C324.065 233.347 323.619 230.543 323.019 228.529C322.619 227.331 322.254 226.176 321.868 225.385C320.991 223.641 320.046 221.188 319.889 218.564C319.837 217.748 319.837 216.907 319.911 216.054C320.116 213.82 319.587 211.439 319.819 208.492C319.875 207.881 319.957 207.265 320.116 206.573C320.309 205.854 320.406 205.193 321.216 203.766C321.499 203.295 321.984 202.645 322.61 202.15C322.957 201.946 323.343 201.712 323.854 201.434C324.391 201.169 324.948 200.787 326.296 200.511C327.038 200.495 329.253 200.287 330.833 201.147C332.106 201.784 332.413 202.341 332.826 202.823C333.197 203.308 333.465 203.744 333.706 204.152C334.179 204.962 334.522 205.648 334.775 206.183C335.316 207.336 335.641 207.966 336.147 208.464C336.551 208.855 337.058 209.183 337.862 209.562C338.576 209.896 339.32 210.481 339.97 211.241C340.008 211.154 340.042 211.072 340.068 210.993C340.18 210.663 340.335 210.4 340.497 210.198C340.566 210.113 340.711 210.071 340.854 210.077C341.031 210.074 341.205 210.137 341.228 210.244C341.337 210.763 341.63 211.554 342.286 212.464C343.514 214.163 342.192 214.38 342.871 216.692C343.252 217.98 343.822 218.968 344.131 220.073C344.374 220.834 344.481 221.6 344.32 222.682C344.106 225.31 347.25 224.456 347.092 228.37C347.093 228.67 347.117 228.949 347.157 229.208C347.552 232.01 350.276 230.431 352.848 232.455C352.924 232.515 353.001 232.576 353.078 232.64C355.082 234.274 357.311 237.482 359.248 239.11C359.611 239.406 359.929 239.66 360.22 239.861C362.536 241.454 365.336 243.769 367.152 247.01C367.289 247.254 367.433 247.495 367.585 247.74C369.413 250.354 371.012 254.564 371.206 256.678C371.409 257.684 371.471 258.673 371.388 259.614C371.02 263.038 370.217 266.693 367.749 269.904C366.871 270.862 365.857 271.477 365.179 271.768C362.984 272.644 362.351 272.73 361.135 273.872L361.255 273.776C361.102 273.961 360.944 274.172 360.781 274.414C360.148 275.369 359.022 276.326 357.963 277.113L357.991 276.974C357.922 277.063 357.852 277.166 357.78 277.274C357.65 277.475 357.509 277.605 357.369 277.677C360.703 276.756 363.192 275.6 367.726 276.167C367.743 276.169 367.761 276.171 367.778 276.173C371.808 276.717 373.359 274.637 377.538 274.941C377.092 274.578 376.573 274.048 375.986 273.172C375.194 271.974 374.307 270.952 373.672 269.682C372.93 268.512 372.011 267.725 371.942 266.604C371.9 265.764 372.141 265.281 372.22 264.131C372.422 262.883 371.837 261.498 372.603 256.899C372.715 256.387 372.832 255.827 372.961 255.213C373.39 253.269 373.749 251.562 374.676 249.585C375.154 248.77 375.464 248.52 375.713 248.256C375.964 248.011 376.163 247.839 376.346 247.687C376.707 247.388 377.002 247.169 377.281 246.965C377.834 246.565 378.31 246.247 378.765 245.948C379.669 245.355 380.453 244.866 381.175 244.419C382.61 243.533 383.758 242.841 384.735 242.233C384.844 242.166 384.95 242.102 385.053 242.038C386.826 240.932 389.485 240.063 391.384 238.229C392.669 236.985 393.816 235.69 394.582 234.387C395.168 233.396 395.887 232.178 396.514 230.798C397.271 229.14 398.03 227.098 398.624 225.132C399.441 222.526 399.666 220.378 399.557 218.762C399.551 218.685 399.546 218.609 399.539 218.535C399.203 215.369 400.088 214.845 400.837 212.82C400.054 213.091 399.093 213.269 398.015 213.156C397.168 213.07 396.487 212.926 395.848 212.755C393.604 212.144 392.384 211.161 388.793 211.655C384.198 212.29 379.498 211.331 377.479 212.186C375.46 213.041 375.113 210.827 372.212 211.494C369.312 212.161 367.52 211.976 364.912 211.403C363.801 211.159 361.722 210.991 359.497 210.955C356.479 210.907 353.196 211.101 351.562 211.687C349.781 212.304 347.83 212.084 345.875 211.399C344.885 210.986 344.009 210.546 343.294 210.296C342.705 210.091 342.252 209.86 341.918 209.65C341.776 209.561 341.724 209.412 341.736 209.27C341.749 209.093 341.894 208.932 342.101 208.939C343.077 208.974 344.524 208.93 346.255 208.535C346.282 208.527 346.309 208.518 346.337 208.509C349.169 207.474 349.693 208.656 353.963 207.848C355.956 207.456 357.563 206.945 359.249 206.563C361.163 206.124 363.178 205.851 365.931 206.116C371.081 206.61 372.055 203.208 379.379 204.681C386.7 206.169 387.25 202.626 394.511 201.857C394.828 201.825 395.154 201.798 395.468 201.776C397.25 201.657 399.074 201.647 401.199 201.833C402.331 201.975 403.267 201.939 405.473 202.713C406.043 202.943 406.783 203.27 407.64 203.991C408.119 204.381 408.574 204.931 408.936 205.504C409.104 204.543 409.338 203.635 410.355 202.75C410.4 202.7 410.445 202.653 410.494 202.602C411.258 201.732 412.453 200.477 413.062 199.895ZM345.371 296.074C345.55 296.281 345.887 296.502 346.617 296.672C346.309 296.441 345.891 296.205 345.371 296.074ZM398.064 293.154C398.121 293.129 398.153 293.057 397.69 293.204C397.645 293.223 397.593 293.242 397.534 293.265C397.733 293.229 397.911 293.194 398.064 293.154ZM394.694 285.302C394.885 285.406 395.084 285.51 395.296 285.612C395.369 285.723 395.44 285.838 395.512 285.956C395.219 285.786 394.912 285.544 394.694 285.302ZM383.955 275.632C383.375 275.432 382.834 275.326 382.311 275.422C381.851 275.507 381.439 275.581 381.06 275.636C382.917 276.195 384.334 276.372 385.562 276.331C385.54 276.337 385.396 276.248 385.287 276.2C385.147 276.131 384.994 276.058 384.846 275.992C384.542 275.855 384.245 275.733 383.955 275.632ZM385.562 276.319C385.566 276.326 385.566 276.329 385.563 276.331C385.57 276.33 385.576 276.331 385.582 276.331C385.559 276.309 385.538 276.286 385.516 276.265L385.562 276.319ZM329.518 207.99C329.532 208.313 329.393 208.864 329.212 209.549C328.865 210.661 328.44 212.611 328.752 214.152C328.933 215.072 329.037 216.381 329.187 217.731C329.364 219.453 329.891 221.042 330.596 221.713C331.509 222.577 331.003 223.137 330.759 224.17C330.715 224.49 330.689 224.842 330.722 225.247C330.861 227.094 334.468 226.761 334.891 228.475C335.295 230.082 333.955 231.392 335.325 232.26C335.407 232.305 335.484 232.351 335.557 232.398C336.72 233.188 337.842 234.909 338.854 234.584C339.887 234.214 339.176 236.349 340.573 236.266C341.536 236.184 342.135 236.36 342.777 236.796L342.519 236.761C342.839 236.919 343.158 237.123 343.515 237.368C343.814 237.573 344.264 237.781 344.798 237.974C344.573 237.532 344.224 237.075 343.644 236.58C342.375 235.482 341.563 233.783 341.035 232.393C340.746 231.585 340.424 230.87 339.922 230.54C338.722 229.707 340.683 228.698 339.617 227.236C338.566 225.709 338.577 224.468 339.059 222.849C339.234 222.264 339.366 221.3 339.496 220.246C339.729 218.48 339.716 216.38 339.122 215.398C338.728 214.749 338.775 214.049 338.985 213.377C338.423 213.155 337.976 212.935 337.396 213.151C335.573 213.809 334.728 213.95 334.135 212.296C333.987 211.876 333.768 211.637 333.503 211.493C332.682 211.029 331.495 211.404 331.161 210.806C330.946 210.41 331.066 210.005 330.806 209.406C330.677 209.108 330.454 208.759 330.067 208.367C329.918 208.217 329.725 208.043 329.512 207.877C329.513 207.914 329.515 207.952 329.518 207.99ZM416.487 205.764C416.363 205.36 416.071 204.937 415.873 205.244C415.807 205.362 415.777 205.448 415.756 205.501C415.527 205.692 415.739 205.562 415.675 205.496C415.631 205.425 415.432 205.43 415.152 205.522C414.998 205.621 414.836 205.714 414.661 205.811C413.416 206.545 410.956 209.199 410.367 210.865C410.256 211.22 410.033 211.518 409.725 211.753C409.421 214.716 409.069 217.335 408.98 219.255C408.976 219.357 408.971 219.46 408.966 219.563C408.87 221.965 408.435 225.105 407.539 227.977C407.145 229.29 406.688 230.631 406.119 232.001C406.243 231.898 406.374 231.787 406.509 231.665C406.579 231.6 406.653 231.53 406.727 231.459C409.363 228.911 410.574 227.675 411.363 226.768C411.713 226.357 412.41 225.985 413.121 225.522C413.998 224.949 414.614 224.498 414.826 223.624C414.915 223.247 415.078 222.762 415.272 222.163C416.044 219.896 417.091 217.241 416.917 215.998C416.68 214.396 418 214.771 418.877 213.771C418.91 213.734 418.935 213.696 418.955 213.659C419.455 212.28 416.432 210.848 416.883 209.539C416.963 209.317 417.077 209.167 417.217 209.115C417.366 209.077 417.497 209.071 417.807 209.502C418.188 208.668 418.63 207.846 417.963 206.982C417.743 206.71 417.594 206.46 417.55 206.34C417.516 206.211 417.559 206.287 418.094 206.518C418.113 206.416 417.799 206.185 417.586 206.106C417.355 206.017 417.133 206.029 416.968 206.212C416.681 206.543 416.636 206.17 416.487 205.764ZM401.296 210.013C401.257 209.696 401.162 209.447 401.091 209.611C401.06 209.693 401.048 209.913 401.149 210.238C401.19 210.374 401.257 210.521 401.334 210.666C401.337 210.445 401.325 210.227 401.296 210.013ZM328.5 207.32C328.336 207.281 328.178 207.338 328.549 207.565C328.616 207.71 328.726 207.811 328.713 207.9C328.708 207.945 328.68 207.991 328.612 208.046C328.534 208.104 328.465 208.163 328.146 208.279C328.586 208.204 328.729 208.141 328.809 208.137C328.883 208.131 328.88 208.166 328.855 208.221C328.802 208.333 328.663 208.516 328.518 208.709C328.907 208.405 329.181 208.012 329.291 207.841C329.312 207.808 329.331 207.779 329.348 207.754C329.076 207.561 328.78 207.395 328.5 207.32Z" fill="#FAB83A"/>
</g>
<defs>
<filter id="filter0_d_961_6688" x="0.439844" y="0.920068" width="488.16" height="383.76" filterUnits="userSpaceOnUse" color-interpolation-filters="sRGB">
<feFlood flood-opacity="0" result="BackgroundImageFix"/>
<feColorMatrix in="SourceAlpha" type="matrix" values="0 0 0 0 0 0 0 0 0 0 0 0 0 0 0 0 0 0 127 0" result="hardAlpha"/>
<feOffset dx="3.6" dy="3.6"/>
<feGaussianBlur stdDeviation="4.5"/>
<feComposite in2="hardAlpha" operator="out"/>
<feColorMatrix type="matrix" values="0 0 0 0 0 0 0 0 0 0 0 0 0 0 0 0 0 0 0.1 0"/>
<feBlend mode="normal" in2="BackgroundImageFix" result="effect1_dropShadow_961_6688"/>
<feBlend mode="normal" in="SourceGraphic" in2="effect1_dropShadow_961_6688" result="shape"/>
</filter>
</defs>
</svg>
