<svg width="497" height="497" viewBox="0 0 497 497" fill="none" xmlns="http://www.w3.org/2000/svg">
<g filter="url(#filter0_d_436_3752)">
<path fill-rule="evenodd" clip-rule="evenodd" d="M379.906 6H339.094C333.424 19.5108 320.07 29 304.5 29C288.93 29 275.576 19.5108 269.906 6H229.094C223.424 19.5108 210.07 29 194.5 29C178.93 29 165.576 19.5108 159.906 6H119.094C113.424 19.5108 100.07 29 84.5 29C68.9298 29 55.576 19.5108 49.9062 6H10V46.3432C22.9767 52.2412 32 65.3169 32 80.5C32 95.6831 22.9767 108.759 10 114.657V156.343C22.9767 162.241 32 175.317 32 190.5C32 205.683 22.9767 218.759 10 224.657V266.343C22.9767 272.241 32 285.317 32 300.5C32 315.683 22.9767 328.759 10 334.657V376.343C22.9767 382.241 32 395.317 32 410.5C32 425.683 22.9767 438.759 10 444.657V483H46.7962C51.6513 467.915 65.801 457 82.5 457C99.1991 457 113.349 467.915 118.204 483H156.796C161.651 467.915 175.801 457 192.5 457C209.199 457 223.349 467.915 228.204 483H266.796C271.651 467.915 285.801 457 302.5 457C319.199 457 333.349 467.915 338.204 483H376.796C381.651 467.915 395.801 457 412.5 457C429.199 457 443.349 467.915 448.204 483H487V441.675C475.105 435.387 467 422.89 467 408.5C467 394.11 475.105 381.613 487 375.325V331.675C475.105 325.387 467 312.89 467 298.5C467 284.11 475.105 271.613 487 265.325V221.675C475.105 215.387 467 202.89 467 188.5C467 174.11 475.105 161.613 487 155.325V111.675C475.105 105.387 467 92.8902 467 78.5C467 64.1098 475.105 51.6127 487 45.3252V6H449.094C443.424 19.5108 430.07 29 414.5 29C398.93 29 385.576 19.5108 379.906 6Z" fill="#63B1DD"/>
</g>
<g clip-path="url(#clip0_436_3752)">
<rect x="59" y="52" width="385" height="385" rx="10" fill="#71BFEB"/>
<path d="M305.666 91.1535C297.17 93.2426 289.682 92.024 287 91.1535V103.231C288.395 105.407 294.08 105.516 300.517 103.884C308.241 101.925 319.183 106.169 317.896 104.537C316.609 102.905 317.896 95.7234 317.896 94.4177C317.896 93.3732 314.892 93.3297 313.39 93.4385C314.163 91.8716 316.716 91.2623 317.896 91.1535C317.36 90.283 314.163 89.0644 305.666 91.1535Z" fill="#914343"/>
<path d="M286.5 123V91.5" stroke="#4E4223" stroke-width="2" stroke-linecap="round"/>
<path d="M59 332.5V461.5H444V260L416 232L401 253.5L286 122L200 222.5L178.5 207.5L59 332.5Z" fill="#68758F"/>
<path d="M137.5 281.5L132 255.5L178.5 207L200 222L188 257L169.5 241L137.5 281.5Z" fill="#E6F5FE"/>
<path d="M199.5 222L287 119L359.5 204.5L313.5 182.5L290.5 209.5L265.5 188L188 256.5L199.5 222Z" fill="#E6F5FF"/>
<path d="M444.5 275L428.5 264L419.5 277.5L400.5 253L416 231L444.5 259V275Z" fill="#DAE8F1"/>
</g>
<path d="M188.418 335V288.92H218.498V297.048H197.122V306.904H214.658V315.032H197.122V326.872H218.498V335H188.418ZM222.328 335L237.816 311.704L222.776 288.92H233.464L243.256 304.28L252.92 288.92H263.672L248.632 311.704L264.056 335H253.368L243.256 319.128L233.08 335H222.328ZM269.168 335V288.92H288.624C289.072 288.92 289.669 288.941 290.416 288.984C291.184 289.005 291.866 289.069 292.464 289.176C295.216 289.603 297.466 290.509 299.215 291.896C300.986 293.283 302.288 295.032 303.12 297.144C303.952 299.235 304.368 301.571 304.368 304.152C304.368 306.733 303.941 309.08 303.088 311.192C302.256 313.283 300.954 315.021 299.184 316.408C297.434 317.795 295.194 318.701 292.464 319.128C291.866 319.213 291.184 319.277 290.416 319.32C289.648 319.363 289.05 319.384 288.624 319.384H277.872V335H269.168ZM277.872 311.256H288.24C288.688 311.256 289.178 311.235 289.712 311.192C290.245 311.149 290.736 311.064 291.184 310.936C292.357 310.616 293.264 310.083 293.904 309.336C294.544 308.568 294.981 307.725 295.216 306.808C295.472 305.869 295.6 304.984 295.6 304.152C295.6 303.32 295.472 302.445 295.216 301.528C294.981 300.589 294.544 299.747 293.904 299C293.264 298.232 292.357 297.688 291.184 297.368C290.736 297.24 290.245 297.155 289.712 297.112C289.178 297.069 288.688 297.048 288.24 297.048H277.872V311.256ZM310.793 335V288.92H340.873V297.048H319.497V306.904H337.033V315.032H319.497V326.872H340.873V335H310.793ZM348.543 335V288.92H367.999C368.447 288.92 369.044 288.941 369.791 288.984C370.559 289.005 371.241 289.069 371.839 289.176C374.591 289.603 376.841 290.509 378.59 291.896C380.361 293.283 381.663 295.032 382.495 297.144C383.327 299.235 383.743 301.571 383.743 304.152C383.743 308.013 382.783 311.32 380.863 314.072C378.943 316.803 375.935 318.488 371.839 319.128L367.999 319.384H357.247V335H348.543ZM374.527 335L365.439 316.248L374.399 314.52L384.383 335H374.527ZM357.247 311.256H367.615C368.063 311.256 368.553 311.235 369.087 311.192C369.62 311.149 370.111 311.064 370.559 310.936C371.732 310.616 372.639 310.083 373.279 309.336C373.919 308.568 374.356 307.725 374.591 306.808C374.847 305.869 374.975 304.984 374.975 304.152C374.975 303.32 374.847 302.445 374.591 301.528C374.356 300.589 373.919 299.747 373.279 299C372.639 298.232 371.732 297.688 370.559 297.368C370.111 297.24 369.62 297.155 369.087 297.112C368.553 297.069 368.063 297.048 367.615 297.048H357.247V311.256ZM402.106 335V297.048H387.578V288.92H425.338V297.048H410.81V335H402.106ZM170.105 407V360.92H178.809V379.864H199.417V360.92H208.121V407H199.417V387.992H178.809V407H170.105ZM213.905 407L227.985 360.92H240.977L255.057 407H246.097L233.553 366.36H235.217L222.865 407H213.905ZM222.353 397.4V389.272H246.673V397.4H222.353ZM279.319 407.96C274.711 407.96 270.732 406.957 267.383 404.952C264.055 402.947 261.484 400.141 259.671 396.536C257.879 392.931 256.983 388.739 256.983 383.96C256.983 379.181 257.879 374.989 259.671 371.384C261.484 367.779 264.055 364.973 267.383 362.968C270.732 360.963 274.711 359.96 279.319 359.96C284.609 359.96 289.047 361.272 292.631 363.896C296.236 366.52 298.775 370.072 300.247 374.552L291.479 376.984C290.625 374.189 289.185 372.024 287.159 370.488C285.132 368.931 282.519 368.152 279.319 368.152C276.396 368.152 273.953 368.803 271.991 370.104C270.049 371.405 268.588 373.24 267.607 375.608C266.625 377.976 266.135 380.76 266.135 383.96C266.135 387.16 266.625 389.944 267.607 392.312C268.588 394.68 270.049 396.515 271.991 397.816C273.953 399.117 276.396 399.768 279.319 399.768C282.519 399.768 285.132 398.989 287.159 397.432C289.185 395.875 290.625 393.709 291.479 390.936L300.247 393.368C298.775 397.848 296.236 401.4 292.631 404.024C289.047 406.648 284.609 407.96 279.319 407.96ZM307.293 407V360.92H315.997V382.168L333.533 360.92H344.157L324.893 383.64L345.373 407H334.365L315.997 386.008V407H307.293ZM349.855 407V360.92H379.935V369.048H358.559V378.904H376.095V387.032H358.559V398.872H379.935V407H349.855ZM387.605 407V360.92H407.061C407.509 360.92 408.106 360.941 408.853 360.984C409.621 361.005 410.304 361.069 410.901 361.176C413.653 361.603 415.904 362.509 417.653 363.896C419.424 365.283 420.725 367.032 421.557 369.144C422.389 371.235 422.805 373.571 422.805 376.152C422.805 380.013 421.845 383.32 419.925 386.072C418.005 388.803 414.997 390.488 410.901 391.128L407.061 391.384H396.309V407H387.605ZM413.589 407L404.501 388.248L413.461 386.52L423.445 407H413.589ZM396.309 383.256H406.677C407.125 383.256 407.616 383.235 408.149 383.192C408.682 383.149 409.173 383.064 409.621 382.936C410.794 382.616 411.701 382.083 412.341 381.336C412.981 380.568 413.418 379.725 413.653 378.808C413.909 377.869 414.037 376.984 414.037 376.152C414.037 375.32 413.909 374.445 413.653 373.528C413.418 372.589 412.981 371.747 412.341 371C411.701 370.232 410.794 369.688 409.621 369.368C409.173 369.24 408.682 369.155 408.149 369.112C407.616 369.069 407.125 369.048 406.677 369.048H396.309V383.256Z" fill="white"/>
<defs>
<filter id="filter0_d_436_3752" x="0" y="0" width="497" height="497" filterUnits="userSpaceOnUse" color-interpolation-filters="sRGB">
<feFlood flood-opacity="0" result="BackgroundImageFix"/>
<feColorMatrix in="SourceAlpha" type="matrix" values="0 0 0 0 0 0 0 0 0 0 0 0 0 0 0 0 0 0 127 0" result="hardAlpha"/>
<feOffset dy="4"/>
<feGaussianBlur stdDeviation="5"/>
<feComposite in2="hardAlpha" operator="out"/>
<feColorMatrix type="matrix" values="0 0 0 0 0 0 0 0 0 0 0 0 0 0 0 0 0 0 0.1 0"/>
<feBlend mode="normal" in2="BackgroundImageFix" result="effect1_dropShadow_436_3752"/>
<feBlend mode="normal" in="SourceGraphic" in2="effect1_dropShadow_436_3752" result="shape"/>
</filter>
<clipPath id="clip0_436_3752">
<rect x="59" y="52" width="385" height="385" rx="10" fill="white"/>
</clipPath>
</defs>
</svg>
