<svg width="302" height="122" viewBox="0 0 302 122" fill="none" xmlns="http://www.w3.org/2000/svg">
<g filter="url(#filter0_d_1619_4689)">
<path d="M174.052 25.8157L144.142 38.4721L151.84 77.3165L186.692 64.904L174.052 25.8157Z" fill="#4363AD"/>
<g filter="url(#filter1_d_1619_4689)">
<path d="M163.595 62.8392L162.36 59.1525C162.256 58.843 162.192 58.6519 162.168 58.579C162.137 58.488 162.116 58.4243 162.104 58.3879C162.092 58.3515 162.067 58.2787 162.031 58.1694L162.021 58.1421C161.979 58.0147 161.954 57.9419 161.948 57.9236C161.936 57.8872 161.915 57.8235 161.884 57.7325C161.848 57.6233 161.78 57.423 161.683 57.1317L161.216 55.739C161.113 55.4295 161.049 55.2383 161.024 55.1655C160.994 55.0745 160.972 55.0108 160.96 54.9743C160.948 54.9379 160.924 54.8651 160.887 54.7559L160.878 54.7286C160.835 54.6011 160.811 54.5283 160.805 54.5101C160.792 54.4737 160.771 54.41 160.741 54.3189C160.704 54.2097 160.637 54.0095 160.539 53.7182L159.625 50.9873C160.312 50.7434 160.734 50.4309 160.89 50.0498C161.063 49.6622 161.053 49.1772 160.858 48.5946L160.226 46.7103C160.031 46.1277 159.743 45.7207 159.362 45.4893C158.993 45.2332 158.464 45.2272 157.777 45.471L157.045 43.2864L164.97 40.4753L165.702 42.6599C165.033 42.8974 164.626 43.2554 164.483 43.734C164.334 44.1944 164.344 44.6795 164.515 45.1892L165.146 47.0735C165.317 47.5832 165.593 47.9538 165.974 48.1853C166.355 48.4167 166.881 48.4137 167.55 48.1762L171.521 60.028L163.595 62.8392Z" fill="white" fill-opacity="0.9" shape-rendering="crispEdges"/>
</g>
<path d="M262.782 6.16845L238.794 28.5148L246.486 67.347L293.287 49.9387L262.782 6.16845Z" fill="#BC8055"/>
<path d="M253.29 40.7464C253.11 40.7623 252.952 40.6714 252.814 40.4737C252.685 40.2712 252.616 39.9616 252.606 39.545C252.566 38.5236 252.825 37.5283 253.382 36.5589C253.939 35.5895 254.773 34.7808 255.885 34.1328C256.573 33.7315 257.175 33.5637 257.691 33.6294C258.203 33.6869 258.606 33.9686 258.901 34.4744C259.075 34.773 259.2 35.15 259.277 35.6054C259.362 36.0559 259.429 36.5334 259.479 37.0379C259.524 37.5341 259.581 38.023 259.651 38.5046C259.729 38.9815 259.854 39.3971 260.028 39.7517L259.571 39.8842C259.358 38.5084 259.309 37.2811 259.425 36.2024C259.544 35.1107 259.78 34.1619 260.133 33.3563C260.48 32.5423 260.905 31.861 261.408 31.3125C261.914 30.7508 262.445 30.3079 263 29.9839C263.78 29.5294 264.464 29.3585 265.052 29.4713C265.635 29.5757 266.124 29.9186 266.518 30.4998C266.908 31.0727 267.193 31.8288 267.374 32.7679L268.257 37.1702C268.397 37.8668 268.561 38.3101 268.749 38.5002C268.933 38.682 269.108 38.7245 269.274 38.6278C269.373 38.5698 269.458 38.4869 269.529 38.3791C269.594 38.263 269.663 38.0951 269.735 37.8754C269.829 37.5983 269.927 37.4135 270.029 37.3209C270.125 37.22 270.251 37.1689 270.406 37.1676C270.59 37.16 270.747 37.2575 270.876 37.46C271.014 37.6576 271.094 37.9665 271.117 38.3867C271.167 39.3686 270.919 40.3353 270.374 41.2867C269.837 42.2333 269.009 43.033 267.889 43.6858C267.068 44.1645 266.373 44.3641 265.804 44.2845C265.244 44.2001 264.793 43.8849 264.453 43.3389C264.107 42.7847 263.846 42.0594 263.668 41.1631L262.815 36.8427C262.702 36.153 262.537 35.6883 262.319 35.4484C262.11 35.2038 261.843 35.1757 261.52 35.3643C261.313 35.4852 261.132 35.6904 260.979 35.9799C260.821 36.2611 260.701 36.6087 260.62 37.0226C260.543 37.4234 260.505 37.8839 260.509 38.4043C260.516 38.9115 260.568 39.4588 260.666 40.0462C260.749 40.5313 260.831 40.967 260.911 41.3533C260.987 41.7313 261.069 42.0616 261.156 42.3443C261.243 42.6269 261.34 42.8595 261.446 43.0419C261.601 43.3073 261.789 43.5253 262.011 43.6961C262.228 43.8585 262.418 44.0807 262.583 44.3627C262.902 44.91 262.806 45.5551 262.294 46.2978C261.778 47.0323 260.881 47.7718 259.604 48.5165C258.725 49.0291 258.029 49.0739 257.515 48.6509C257.01 48.223 256.659 47.439 256.461 46.2987L255.442 40.6919C255.325 40.0154 255.171 39.5887 254.979 39.4117C254.79 39.2216 254.613 39.175 254.447 39.2717C254.356 39.3249 254.271 39.4078 254.192 39.5204C254.121 39.6282 254.047 39.8051 253.968 40.0511C253.873 40.3067 253.772 40.4874 253.667 40.5931C253.566 40.6857 253.44 40.7368 253.29 40.7464Z" fill="#522607"/>
<path d="M8.31828 84.1144L12.1677 59.4289L54.0558 56.7015L64.6882 107.529L17.9145 111.528L8.31828 84.1144Z" fill="#D2BFC5"/>
<g filter="url(#filter2_d_1619_4689)">
<path d="M29.0888 97.6006L28.5546 95.0469L29.5718 94.7051C30.1662 94.4972 30.4085 94.1305 30.2985 93.6051L27.2318 78.9448L25.4207 79.2772L24.8601 76.5974L33.4709 74.5446C36.5506 73.8104 39.121 74.0582 41.1819 75.2881C43.2638 76.513 44.641 78.7334 45.3137 81.9492C45.7314 83.9459 45.8345 85.7529 45.6229 87.37C45.4069 88.9662 44.9364 90.292 44.2114 91.3475C42.7614 93.4585 40.6955 94.8337 38.0138 95.473L29.0888 97.6006ZM31.1251 78.3145L34.238 93.1955L37.4435 92.4313C39.2453 92.0018 40.5127 91.0156 41.2457 89.4727C41.9788 87.9299 42.0859 85.9183 41.567 83.4382C40.5558 78.6039 38.0075 76.6738 33.9221 77.6477L31.1251 78.3145Z" fill="#8C646F"/>
</g>
<path d="M66 46.6602H103.411V92.6157H70.6123L66 46.6602Z" fill="#E5BB2D"/>
<path d="M87.0399 76.3215C84.1479 76.753 81.8762 76.3358 80.2248 75.0699C78.5928 73.7782 77.6032 71.8064 77.256 69.1543C76.9058 66.4798 77.4451 64.3142 78.8738 62.6574C80.3249 60.9973 82.306 59.9799 84.8168 59.6052C89.9058 58.8459 92.6849 61.0434 93.1541 66.1977L83.6711 67.6128L83.8432 68.9275C84.1316 71.1301 84.6296 72.7514 85.3372 73.7915C86.0448 74.8316 87.0936 75.248 88.4835 75.0406C91.0841 74.6525 92.6054 73.0049 93.0476 70.0975L93.6661 70.1084C93.452 71.7901 92.8434 73.1641 91.8402 74.2304C90.8594 75.2933 89.2593 75.9903 87.0399 76.3215ZM83.6164 66.9335L87.0801 66.4167L86.8638 64.7648C86.6254 62.9443 86.3515 61.7249 86.0419 61.1066C85.7519 60.4625 85.2818 60.1889 84.6317 60.2859C84.0039 60.3796 83.5802 60.8094 83.3606 61.5755C83.1603 62.3157 83.1735 63.551 83.4001 65.2816L83.6164 66.9335Z" fill="black"/>
<mask id="path-9-inside-1_1619_4689" fill="white">
<path d="M108.527 58.7459L140.526 50.5919L146.633 96.1399L114.125 100.498L108.527 58.7459Z"/>
</mask>
<path d="M108.527 58.7459L140.526 50.5919L146.633 96.1399L114.125 100.498L108.527 58.7459Z" fill="#D55E6E"/>
<path d="M108.527 58.7459C111.07 58.3386 113.611 57.92 116.148 57.4901C124.499 56.0753 132.82 54.538 141.109 52.8782L138.188 50.9054C139.38 65.5197 140.949 80.0835 142.894 94.5968C142.984 95.2662 143.075 95.9355 143.166 96.6047L146.168 92.6734C135.335 94.1521 124.531 95.8409 113.755 97.7398L116.883 100.128C114.89 88.816 112.665 77.5347 110.209 66.2844C109.66 63.77 109.099 61.2571 108.527 58.7459C108.637 61.3192 108.758 63.8909 108.89 66.4611C109.484 77.9611 110.309 89.4301 111.366 100.868L111.869 103.719L114.494 103.257C125.39 102.25 136.258 101.033 147.097 99.6065L150.571 99.1323L150.099 95.6752C150.011 95.0056 149.922 94.336 149.832 93.6666C147.887 79.1533 145.564 64.6906 142.864 50.2784L142.355 47.5562L139.943 48.3056C131.871 50.815 123.83 53.447 115.82 56.2013C113.386 57.0382 110.955 57.8864 108.527 58.7459Z" fill="#B55764" mask="url(#path-9-inside-1_1619_4689)"/>
<path d="M123.65 88.9039C123.185 89.0384 122.568 89.1516 121.8 89.2435C121.032 89.3355 120.31 89.2678 119.634 89.0404C118.943 88.8174 118.485 88.291 118.261 87.4613C118.058 86.707 118.124 86.0213 118.459 85.404C118.775 84.776 119.178 84.261 119.668 83.8591C120.159 83.4572 120.539 83.2172 120.809 83.1391C121.424 82.9612 121.809 83.1589 121.964 83.7321C122.014 83.9778 121.903 84.254 121.629 84.5607C121.367 84.8479 121.041 85.0479 120.65 85.1608C120.47 85.2128 120.281 85.2024 120.084 85.1294C119.867 85.0457 119.698 84.9889 119.577 84.9589C119.456 85.1726 119.276 85.4931 119.035 85.9205C118.775 86.3371 118.715 86.8018 118.853 87.3147C119.008 87.888 119.356 88.2507 119.899 88.4028C120.422 88.5442 120.982 88.5777 121.576 88.5033C122.167 88.4139 122.613 88.3257 122.913 88.239C123.543 88.0567 124.264 87.58 125.075 86.8088C125.883 86.0225 126.531 84.9163 127.02 83.4903C127.524 82.0598 127.62 80.2841 127.306 78.163C127.186 77.4172 126.983 76.3944 126.697 75.0948C126.426 73.7908 126.335 72.4919 126.423 71.198C126.426 71.1484 126.415 71.0784 126.39 70.9878C126.011 71.8618 125.601 72.8015 125.161 73.8071C124.72 74.8126 124.293 75.7815 123.882 76.7137C123.485 77.6415 123.14 78.4324 122.847 79.0862C122.644 79.535 122.49 79.8318 122.383 79.9764C122.276 80.1211 122.231 80.1912 122.246 80.1869C122.231 80.1912 122.173 80.2161 122.072 80.2616C121.982 80.2876 121.892 80.2565 121.804 80.1683C121.753 80.1015 121.782 79.9387 121.89 79.6798C122.014 79.4165 122.14 79.136 122.27 78.8382C122.51 78.3462 122.874 77.5661 123.362 76.4979C123.851 75.4297 124.361 74.2904 124.892 73.0798C125.438 71.8649 125.902 70.7957 126.284 69.8722C126.252 69.3936 126.277 68.9472 126.359 68.5331C126.442 68.119 126.648 67.8642 126.978 67.7687C127.579 67.5952 127.946 67.7573 128.08 68.2551C128.143 68.5461 127.942 69.1815 127.478 70.1612C127.203 70.7611 127.071 71.1408 127.081 71.3003C127.088 71.4448 127.122 71.6302 127.183 71.8564C127.314 72.4039 127.55 73.0675 127.89 73.8475C128.241 74.608 128.611 75.4115 129.001 76.2582C129.387 77.0898 129.711 77.8989 129.971 78.6854C130.338 79.8642 130.482 80.9366 130.402 81.9027C130.651 81.8634 130.857 81.8199 131.023 81.7722C131.503 81.6334 131.992 81.2562 132.489 80.6409C133.002 80.0211 133.484 79.3206 133.937 78.5393C134.389 77.7579 134.768 77.0306 135.072 76.3574C135.39 75.6798 135.596 75.2137 135.69 74.9591L136.289 75.2006C136.107 75.5459 135.845 76.0768 135.505 76.7932C135.16 77.4946 134.756 78.2456 134.292 79.0464C133.824 79.8321 133.319 80.5391 132.777 81.1675C132.245 81.7765 131.687 82.1656 131.102 82.3348C130.966 82.3739 130.839 82.4108 130.719 82.4455C130.595 82.4651 130.47 82.4847 130.346 82.5044C130.064 84.2772 129.314 85.665 128.096 86.6676C126.873 87.6551 125.392 88.4006 123.65 88.9039Z" fill="#FFF3F3"/>
<path d="M204.813 66.9871L193.413 50.1871V20.7871H224.613L235.413 66.9871H204.813Z" fill="#E87999"/>
<path d="M213.571 57.9361C212.76 58.2617 211.906 58.517 211.007 58.702C210.118 58.8833 209.257 58.955 208.425 58.917C207.592 58.879 206.86 58.692 206.229 58.356C205.597 58.02 205.138 57.4957 204.852 56.783C204.759 56.5514 204.686 56.3323 204.634 56.1255C204.586 55.9277 204.549 55.746 204.524 55.5802L209.909 53.417C209.914 53.4563 209.923 53.5044 209.936 53.5614C209.952 53.6273 209.974 53.6959 210.003 53.7672C210.078 53.9543 210.221 54.1038 210.431 54.2158C210.645 54.3367 210.921 54.3916 211.258 54.3804C211.604 54.3656 212.008 54.2652 212.471 54.0791C213.068 53.8394 213.543 53.5401 213.895 53.1812C214.257 52.8188 214.498 52.4013 214.618 51.9287C214.751 51.4615 214.769 50.9525 214.672 50.4018L211.978 35.0034L217.363 32.8402L220.057 48.2386C220.291 49.5414 220.271 50.7029 219.998 51.723C219.737 52.7484 219.289 53.6529 218.652 54.4364C218.023 55.2163 217.266 55.8931 216.379 56.4666C215.505 57.0455 214.568 57.5353 213.571 57.9361ZM210.816 52.3541C209.73 52.7907 208.67 52.9473 207.638 52.8241C206.611 52.6883 205.677 52.2565 204.836 51.5286C203.995 50.8007 203.308 49.7731 202.775 48.4458C202.292 47.2432 202.035 46.0376 202.005 44.829C201.975 43.6204 202.157 42.4765 202.551 41.3974C202.95 40.3059 203.551 39.3405 204.352 38.5015C205.153 37.6625 206.137 37.0086 207.304 36.5398C208.257 36.1569 209.217 36.0245 210.186 36.1425C211.163 36.2569 212.046 36.6157 212.837 37.2189C213.633 37.8096 214.244 38.635 214.67 39.695C214.77 39.9445 214.866 40.2474 214.957 40.6038C215.058 40.9566 215.124 41.2765 215.156 41.5635L213.289 42.4379C213.265 42.3025 213.237 42.1688 213.205 42.0369C213.169 41.8962 213.128 41.7679 213.082 41.6521C212.899 41.1977 212.637 40.8683 212.297 40.6638C211.961 40.4468 211.591 40.3369 211.186 40.3339C210.787 40.3184 210.4 40.3858 210.026 40.5361C209.581 40.7151 209.196 40.9679 208.872 41.2946C208.545 41.6124 208.29 41.9835 208.109 42.4081C207.937 42.8291 207.852 43.2873 207.854 43.7829C207.853 44.2696 207.957 44.7712 208.164 45.2879C208.379 45.8224 208.649 46.2365 208.973 46.5302C209.298 46.8238 209.66 47.0042 210.06 47.0714C210.456 47.1296 210.859 47.0764 211.268 46.9118C211.74 46.7222 212.155 46.4417 212.513 46.0704C212.876 45.6866 213.139 45.2343 213.303 44.7135C213.471 44.1802 213.5 43.5946 213.388 42.9565L215.321 42.475C215.589 43.9917 215.562 45.4197 215.242 46.7589C214.921 48.0982 214.378 49.2577 213.613 50.2376C212.844 51.2085 211.912 51.914 210.816 52.3541Z" fill="black"/>
</g>
<defs>
<filter id="filter0_d_1619_4689" x="0.318359" y="0.167969" width="300.968" height="121.359" filterUnits="userSpaceOnUse" color-interpolation-filters="sRGB">
<feFlood flood-opacity="0" result="BackgroundImageFix"/>
<feColorMatrix in="SourceAlpha" type="matrix" values="0 0 0 0 0 0 0 0 0 0 0 0 0 0 0 0 0 0 127 0" result="hardAlpha"/>
<feOffset dy="2"/>
<feGaussianBlur stdDeviation="4"/>
<feComposite in2="hardAlpha" operator="out"/>
<feColorMatrix type="matrix" values="0 0 0 0 0 0 0 0 0 0 0 0 0 0 0 0 0 0 0.1 0"/>
<feBlend mode="normal" in2="BackgroundImageFix" result="effect1_dropShadow_1619_4689"/>
<feBlend mode="normal" in="SourceGraphic" in2="effect1_dropShadow_1619_4689" result="shape"/>
</filter>
<filter id="filter1_d_1619_4689" x="157.044" y="40.4756" width="16.8766" height="23.5633" filterUnits="userSpaceOnUse" color-interpolation-filters="sRGB">
<feFlood flood-opacity="0" result="BackgroundImageFix"/>
<feColorMatrix in="SourceAlpha" type="matrix" values="0 0 0 0 0 0 0 0 0 0 0 0 0 0 0 0 0 0 127 0" result="hardAlpha"/>
<feOffset dx="2.4" dy="1.2"/>
<feComposite in2="hardAlpha" operator="out"/>
<feColorMatrix type="matrix" values="0 0 0 0 0.025611 0 0 0 0 0 0 0 0 0 0.384165 0 0 0 0.6 0"/>
<feBlend mode="normal" in2="BackgroundImageFix" result="effect1_dropShadow_1619_4689"/>
<feBlend mode="normal" in="SourceGraphic" in2="effect1_dropShadow_1619_4689" result="shape"/>
</filter>
<filter id="filter2_d_1619_4689" x="24.7031" y="72.207" width="26.1585" height="26.1936" filterUnits="userSpaceOnUse" color-interpolation-filters="sRGB">
<feFlood flood-opacity="0" result="BackgroundImageFix"/>
<feColorMatrix in="SourceAlpha" type="matrix" values="0 0 0 0 0 0 0 0 0 0 0 0 0 0 0 0 0 0 127 0" result="hardAlpha"/>
<feOffset dx="3.2" dy="0.8"/>
<feComposite in2="hardAlpha" operator="out"/>
<feColorMatrix type="matrix" values="0 0 0 0 1 0 0 0 0 1 0 0 0 0 1 0 0 0 0.4 0"/>
<feBlend mode="normal" in2="BackgroundImageFix" result="effect1_dropShadow_1619_4689"/>
<feBlend mode="normal" in="SourceGraphic" in2="effect1_dropShadow_1619_4689" result="shape"/>
</filter>
</defs>
</svg>
