<svg width="308" height="82" viewBox="0 0 308 82" fill="none" xmlns="http://www.w3.org/2000/svg">
<g clip-path="url(#clip0_1378_470)">
<path d="M179.478 22.6471L197.218 16.0417L179.478 9.24755V0L209.863 12.2672V19.8162L179.478 32.0833V22.6471Z" fill="#A100FF"/>
<path d="M11.701 81.1523C5.28431 81.1523 0 77.944 0 70.7724V70.395C0 61.7136 7.54902 58.694 16.7966 58.694H21.1373V56.9955C21.1373 53.4097 19.6275 51.3337 15.8529 51.3337C12.4559 51.3337 10.7574 53.2209 10.5686 55.8631H1.13235C1.88725 47.9366 8.1152 44.1621 16.4191 44.1621C24.9118 44.1621 31.1397 47.7479 31.1397 56.618V80.3974H21.5147V76.2455C19.6275 78.8876 16.4191 81.1523 11.701 81.1523ZM21.1373 68.6964V65.2994H17.174C12.2672 65.2994 9.81373 66.6204 9.81373 69.8288V70.2062C9.81373 72.6597 11.3235 74.3582 14.7206 74.3582C18.1176 74.1695 21.1373 72.2822 21.1373 68.6964ZM53.598 81.1523C43.7843 81.1523 36.6127 75.1131 36.6127 63.0347V62.4685C36.6127 50.3901 44.1618 43.9734 53.598 43.9734C61.7132 43.9734 68.3186 48.1254 69.0735 57.3729H59.6373C59.0711 53.9758 57.1838 51.7111 53.7868 51.7111C49.6348 51.7111 46.6152 55.1082 46.6152 62.091V63.2234C46.6152 70.395 49.2574 73.6033 53.7868 73.6033C57.1838 73.6033 59.6373 71.1499 60.2034 67.1866H69.2623C68.6961 75.4905 63.223 81.1523 53.598 81.1523ZM90.5882 81.1523C80.7745 81.1523 73.6029 75.1131 73.6029 63.0347V62.4685C73.6029 50.3901 81.152 43.9734 90.5882 43.9734C98.7034 43.9734 105.309 48.1254 106.064 57.3729H96.6275C96.0613 53.9758 94.174 51.7111 90.777 51.7111C86.625 51.7111 83.6054 55.1082 83.6054 62.091V63.2234C83.6054 70.395 86.2476 73.6033 90.777 73.6033C94.174 73.6033 96.6275 71.1499 97.1936 67.1866H106.252C105.686 75.4905 100.213 81.1523 90.5882 81.1523ZM127.767 81.1523C117.576 81.1523 110.593 75.1131 110.593 63.2234V62.4685C110.593 50.5788 117.953 43.9734 127.578 43.9734C136.449 43.9734 143.809 48.8803 143.809 60.77V65.1106H120.596C120.973 71.5273 123.804 73.9807 127.956 73.9807C131.73 73.9807 133.806 71.9048 134.561 69.4513H143.809C142.676 76.0567 137.015 81.1523 127.767 81.1523ZM120.784 58.5053H133.995C133.806 53.2209 131.353 50.9562 127.39 50.9562C124.37 51.145 121.539 52.8435 120.784 58.5053ZM149.848 44.917H159.85V50.2013C161.549 46.8043 165.135 44.1621 170.608 44.1621C177.025 44.1621 181.365 48.1254 181.365 56.618V80.3974H171.363V58.1278C171.363 53.9758 169.664 52.0886 166.078 52.0886C162.681 52.0886 159.85 54.1646 159.85 58.694V80.3974H149.848V44.917ZM199.672 34.1597V44.917H206.466V52.2773H199.672V69.0739C199.672 71.716 200.804 73.0371 203.257 73.0371C204.767 73.0371 205.711 72.8484 206.654 72.4709V80.2087C205.522 80.5861 203.446 80.9636 200.993 80.9636C193.255 80.9636 189.669 77.3778 189.669 70.2062V52.2773H185.517V44.917H189.669V38.3116L199.672 34.1597ZM243.833 80.3974H234.02V75.1131C232.321 78.5102 228.924 81.1523 223.64 81.1523C217.223 81.1523 212.505 77.1891 212.505 68.8852V44.917H222.507V67.5641C222.507 71.716 224.206 73.6033 227.603 73.6033C231 73.6033 233.831 71.3386 233.831 66.9979V44.917H243.833V80.3974ZM251.194 44.917H261.196V51.5224C263.272 46.8043 266.669 44.5396 271.953 44.5396V54.3533C265.159 54.3533 261.196 56.4293 261.196 62.2798V80.5861H251.194V44.917ZM292.147 81.1523C281.956 81.1523 274.973 75.1131 274.973 63.2234V62.4685C274.973 50.5788 282.333 43.9734 291.958 43.9734C300.828 43.9734 308.189 48.8803 308.189 60.77V65.1106H285.164C285.542 71.5273 288.373 73.9807 292.525 73.9807C296.299 73.9807 298.375 71.9048 299.13 69.4513H308.377C306.868 76.0567 301.395 81.1523 292.147 81.1523ZM284.975 58.5053H298.375C298.186 53.2209 295.733 50.9562 291.77 50.9562C288.75 51.145 285.919 52.8435 284.975 58.5053Z" fill="white"/>
</g>
<defs>
<clipPath id="clip0_1378_470">
<rect width="308" height="81.152" fill="white"/>
</clipPath>
</defs>
</svg>
