<svg width="165" height="218" viewBox="0 0 165 218" fill="none" xmlns="http://www.w3.org/2000/svg">
<g clip-path="url(#clip0_1378_396)">
<path d="M82.2681 209.588C62.2607 209.588 46.1709 211.411 46.1709 213.794C46.1709 216.037 62.4007 218 82.2681 218C102.136 218 118.365 216.177 118.365 213.794C118.505 211.551 102.276 209.588 82.2681 209.588Z" fill="#DCDDDE"/>
<path d="M6.71577 186.457C7.97497 186.457 8.95436 186.036 9.79383 185.195C10.6333 184.354 11.053 183.232 11.053 181.971C11.053 180.709 10.6333 179.587 9.79383 178.746C8.95436 177.905 7.83506 177.484 6.71577 177.484C5.45656 177.484 4.47718 177.905 3.63771 178.746C2.79823 179.587 2.3785 180.709 2.3785 181.971C2.3785 183.232 2.79823 184.354 3.63771 185.195C4.47718 185.896 5.45656 186.457 6.71577 186.457ZM6.71577 174.961C8.53462 174.961 10.0737 175.662 11.4728 176.924C12.732 178.185 13.4315 179.868 13.4315 181.69C13.4315 183.513 12.732 185.195 11.4728 186.457C10.2136 187.718 8.53462 188.419 6.71577 188.419C5.03683 188.419 3.49779 187.859 2.23859 186.737V187.298C2.23859 187.578 2.09868 187.859 1.95877 188.139C1.67894 188.419 1.39912 188.419 1.11929 188.419C0.83947 188.419 0.559649 188.279 0.279825 188.139C1.06327e-06 187.859 0 187.718 0 187.298V171.316C0 171.035 0.139913 170.755 0.279825 170.475C0.559649 170.194 0.83947 170.194 1.11929 170.194C1.39912 170.194 1.67894 170.335 1.95877 170.475C2.23859 170.755 2.23859 170.895 2.23859 171.316V176.503C3.49779 175.662 5.03683 174.961 6.71577 174.961Z" fill="white"/>
<path d="M16.6495 174.961C16.9293 174.961 17.2091 175.101 17.489 175.241C17.7688 175.522 17.7688 175.662 17.7688 176.082V187.438C17.7688 187.718 17.6289 187.999 17.489 188.279C17.2091 188.559 17.0692 188.559 16.6495 188.559C16.3697 188.559 16.0898 188.419 15.81 188.279C15.5302 187.999 15.5302 187.859 15.5302 187.438V176.082C15.5302 175.802 15.6701 175.522 15.81 175.241C16.0898 175.101 16.3697 174.961 16.6495 174.961ZM16.6495 170.475C16.9293 170.475 17.0692 170.475 17.349 170.615C17.6289 170.755 17.7688 170.895 17.9087 171.176C18.0486 171.456 18.0486 171.596 18.0486 171.877C18.0486 172.157 18.0486 172.437 17.9087 172.578C17.7688 172.858 17.6289 172.998 17.349 173.138C17.0692 173.278 16.9293 173.278 16.6495 173.278C16.3697 173.278 16.2297 173.278 15.9499 173.138C15.6701 172.998 15.5302 172.858 15.3903 172.578C15.2504 172.297 15.2504 172.157 15.2504 171.877C15.2504 171.596 15.2504 171.316 15.3903 171.176C15.5302 170.895 15.6701 170.755 15.9499 170.615C16.0898 170.475 16.3697 170.475 16.6495 170.475Z" fill="white"/>
<path d="M26.8631 185.616C28.1223 185.616 29.1017 185.195 29.9412 184.354C30.7807 183.513 31.2004 182.531 31.2004 181.41C31.2004 180.288 30.7807 179.307 29.9412 178.466C29.1017 177.625 27.9824 177.204 26.8631 177.204C25.6039 177.204 24.6245 177.625 23.7851 178.466C22.9456 179.307 22.5259 180.288 22.5259 181.41C22.5259 182.531 22.9456 183.513 23.7851 184.354C24.6245 185.195 25.7438 185.616 26.8631 185.616ZM32.4596 175.101C32.7394 175.101 33.0192 175.241 33.2991 175.382C33.5789 175.662 33.5789 175.942 33.5789 176.223V186.597C33.5789 187.578 33.439 188.42 33.0192 189.261C32.7394 190.102 32.1798 190.803 31.6201 191.364C31.0605 191.924 30.3609 192.485 29.5215 192.765C28.682 193.186 27.8425 193.326 27.003 193.326C25.0443 193.326 23.2254 192.765 21.6864 191.644C21.4066 191.504 21.2667 191.223 21.2667 190.943C21.2667 190.663 21.2667 190.382 21.4066 190.102C21.5465 189.821 21.8263 189.681 22.1061 189.681C22.3859 189.681 22.6658 189.681 22.9456 189.821C24.0649 190.663 25.464 191.083 26.8631 191.083C28.1223 191.083 29.1017 190.663 29.9412 189.681C30.7807 188.84 31.2004 187.719 31.2004 186.457V186.317C29.9412 187.438 28.4022 187.999 26.7232 187.999C25.8837 187.999 24.9044 187.859 24.0649 187.438C23.2254 187.158 22.5259 186.597 21.9662 186.036C21.4066 185.475 20.8469 184.774 20.5671 183.933C20.1474 183.092 20.0074 182.251 20.0074 181.41C20.0074 180.569 20.1474 179.728 20.5671 178.886C20.8469 178.045 21.4066 177.484 21.9662 176.784C22.5259 176.223 23.2254 175.662 24.0649 175.382C24.9044 175.101 25.7438 174.821 26.7232 174.821C28.4022 174.821 29.9412 175.382 31.2004 176.503V176.083C31.2004 175.802 31.3403 175.522 31.4802 175.241C31.9 175.101 32.1798 175.101 32.4596 175.101Z" fill="white"/>
<path d="M43.0928 186.457C44.3521 186.457 45.3314 186.036 46.1709 185.195C47.0104 184.354 47.4301 183.232 47.4301 181.971C47.4301 180.709 47.0104 179.587 46.1709 178.746C45.3314 177.905 44.2121 177.484 43.0928 177.484C41.9736 177.484 40.8543 177.905 40.0148 178.746C39.1753 179.587 38.7556 180.709 38.7556 181.971C38.7556 183.232 39.1753 184.354 40.0148 185.195C40.8543 185.896 41.8336 186.457 43.0928 186.457ZM43.0928 174.961C44.9117 174.961 46.4507 175.662 47.8498 176.924C49.109 178.185 49.8086 179.868 49.8086 181.69C49.8086 183.513 49.109 185.195 47.8498 186.457C46.5906 187.718 44.9117 188.419 43.0928 188.419C41.4139 188.419 39.8749 187.859 38.6157 186.737V187.298C38.6157 187.578 38.4758 187.859 38.3358 188.139C38.056 188.419 37.7762 188.419 37.4964 188.419C37.2165 188.419 36.9367 188.279 36.6569 188.139C36.3771 187.859 36.3771 187.718 36.3771 187.298V171.316C36.3771 171.035 36.517 170.755 36.6569 170.475C36.9367 170.194 37.2165 170.194 37.4964 170.194C37.7762 170.194 38.056 170.335 38.3358 170.475C38.6157 170.755 38.6157 170.895 38.6157 171.316V176.503C39.8749 175.662 41.4139 174.961 43.0928 174.961Z" fill="#2CACE3"/>
<path d="M53.0266 170.475C53.3065 170.475 53.5863 170.615 53.8661 170.755C54.1459 171.035 54.1459 171.176 54.1459 171.596V187.578C54.1459 187.859 54.006 188.139 53.8661 188.419C53.5863 188.7 53.3065 188.7 53.0266 188.7C52.7468 188.7 52.467 188.559 52.1872 188.419C51.9074 188.139 51.9073 187.999 51.9073 187.578V171.596C51.9073 171.316 52.0473 171.035 52.1872 170.755C52.467 170.475 52.7468 170.475 53.0266 170.475Z" fill="#2CACE3"/>
<path d="M67.7173 174.961C67.9971 174.961 68.277 175.101 68.5568 175.241C68.8366 175.522 68.8366 175.802 68.8366 176.082V187.438C68.8366 187.718 68.6967 187.999 68.5568 188.279C68.277 188.56 68.137 188.56 67.7173 188.56C67.4375 188.56 67.1577 188.419 66.8778 188.279C66.598 187.999 66.598 187.718 66.598 187.438V187.158C65.4787 188.139 64.2195 188.7 62.8204 188.7C61.1415 188.7 59.7423 187.999 58.623 186.737C57.5037 185.335 56.9441 183.793 56.9441 181.971V176.223C56.9441 175.942 57.084 175.662 57.2239 175.382C57.5037 175.101 57.7836 175.101 58.0634 175.101C58.3432 175.101 58.623 175.241 58.9029 175.382C59.1827 175.662 59.1827 175.802 59.1827 176.223V181.971C59.1827 183.232 59.6024 184.354 60.302 185.195C61.0015 186.036 61.841 186.597 62.9603 186.597C63.9397 186.597 64.9191 186.176 65.6186 185.195C66.3182 184.354 66.7379 183.232 66.7379 181.971V176.223C66.7379 175.942 66.8778 175.662 67.0178 175.382C67.1577 175.101 67.4375 174.961 67.7173 174.961Z" fill="#2CACE3"/>
<path d="M81.8485 180.709C81.5686 179.727 81.009 178.886 80.3094 178.185C79.47 177.484 78.4906 177.204 77.5112 177.204C76.3919 177.204 75.5524 177.484 74.713 178.185C73.8735 178.886 73.3138 179.587 73.1739 180.709H81.8485ZM72.6143 186.597C72.0546 186.036 71.495 185.195 71.2152 184.494C70.7954 183.653 70.6555 182.812 70.6555 181.83C70.6555 180.008 71.3551 178.326 72.6143 177.064C73.3138 176.503 74.0134 175.942 74.8529 175.662C75.6923 175.241 76.5318 175.101 77.5112 175.101C79.3301 175.101 81.009 175.802 82.4081 177.064C82.9678 177.625 83.5274 178.466 83.8072 179.307C84.227 180.148 84.3669 180.989 84.3669 181.971C84.3669 182.251 84.227 182.531 84.0871 182.812C83.8072 183.092 83.5274 183.092 83.2476 183.092H73.034C73.3138 184.073 73.8735 184.915 74.713 185.475C75.5524 186.176 76.5318 186.457 77.5112 186.457C79.1901 186.457 80.4493 185.896 81.4287 184.915C81.5686 184.634 81.8485 184.494 82.2682 184.494C82.548 184.494 82.8279 184.634 83.1077 184.774C83.3875 184.915 83.5274 185.195 83.5274 185.616C83.5274 185.896 83.3875 186.176 83.2476 186.457C81.8485 187.999 80.0296 188.7 77.6511 188.7C75.5524 188.7 74.0134 187.999 72.6143 186.597Z" fill="#2CACE3"/>
<path d="M92.7615 186.457C94.0208 186.457 95.0001 186.036 95.8396 185.195C96.6791 184.354 97.0988 183.232 97.0988 181.971C97.0988 180.709 96.6791 179.587 95.8396 178.746C95.0001 177.905 93.8808 177.484 92.7615 177.484C91.5023 177.484 90.523 177.905 89.6835 178.746C88.844 179.587 88.4243 180.709 88.4243 181.971C88.4243 183.232 88.844 184.354 89.6835 185.195C90.523 185.896 91.6423 186.457 92.7615 186.457ZM92.7615 174.961C94.5804 174.961 96.1194 175.662 97.5185 176.924C98.7778 178.185 99.4773 179.868 99.4773 181.69C99.4773 183.513 98.7778 185.195 97.5185 186.457C96.2593 187.718 94.5804 188.419 92.7615 188.419C91.0826 188.419 89.5436 187.859 88.2844 186.737V187.298C88.2844 187.578 88.1445 187.859 88.0045 188.139C87.7247 188.419 87.4449 188.419 87.1651 188.419C86.8853 188.419 86.6054 188.279 86.3256 188.139C86.0458 187.859 86.0458 187.718 86.0458 187.298V171.316C86.0458 171.035 86.1857 170.755 86.3256 170.475C86.6054 170.194 86.8853 170.194 87.1651 170.194C87.4449 170.194 87.7247 170.335 88.0045 170.475C88.2844 170.755 88.2844 170.895 88.2844 171.316V176.503C89.6835 175.662 91.0826 174.961 92.7615 174.961Z" fill="white"/>
<path d="M112.069 174.961C112.349 174.961 112.629 175.101 112.909 175.241C113.189 175.522 113.189 175.802 113.189 176.082V187.438C113.189 187.718 113.049 187.999 112.909 188.279C112.629 188.56 112.489 188.56 112.069 188.56C111.79 188.56 111.51 188.419 111.23 188.279C110.95 187.999 110.95 187.718 110.95 187.438V187.158C109.831 188.139 108.572 188.7 107.173 188.7C105.494 188.7 104.094 187.999 102.975 186.737C101.856 185.335 101.296 183.793 101.296 181.971V176.223C101.296 175.942 101.436 175.662 101.576 175.382C101.856 175.101 102.136 175.101 102.416 175.101C102.695 175.101 102.975 175.241 103.255 175.382C103.535 175.662 103.535 175.802 103.535 176.223V181.971C103.535 183.232 103.955 184.354 104.654 185.195C105.354 186.036 106.193 186.597 107.312 186.597C108.292 186.597 109.271 186.176 109.971 185.195C110.67 184.354 111.09 183.232 111.09 181.971V176.223C111.09 175.942 111.23 175.662 111.37 175.382C111.37 175.101 111.65 174.961 112.069 174.961Z" fill="white"/>
<path d="M122.423 186.457C123.682 186.457 124.662 186.036 125.501 185.195C126.34 184.354 126.76 183.232 126.76 181.971C126.76 180.709 126.34 179.587 125.501 178.746C124.662 177.905 123.542 177.484 122.423 177.484C121.164 177.484 120.184 177.905 119.345 178.746C118.505 179.587 118.086 180.709 118.086 181.971C118.086 183.232 118.505 184.354 119.345 185.195C120.184 185.896 121.304 186.457 122.423 186.457ZM122.423 174.961C124.242 174.961 125.781 175.662 127.18 176.924C128.439 178.185 129.139 179.868 129.139 181.69C129.139 183.513 128.439 185.195 127.18 186.457C125.921 187.718 124.242 188.419 122.423 188.419C120.744 188.419 119.205 187.859 117.946 186.737V187.298C117.946 187.578 117.806 187.859 117.666 188.139C117.386 188.419 117.106 188.419 116.826 188.419C116.547 188.419 116.267 188.279 115.987 188.139C115.707 187.859 115.707 187.718 115.707 187.298V171.316C115.707 171.035 115.847 170.755 115.987 170.475C116.267 170.194 116.547 170.194 116.826 170.194C117.106 170.194 117.386 170.335 117.666 170.475C117.946 170.755 117.946 170.895 117.946 171.316V176.503C119.345 175.662 120.744 174.961 122.423 174.961Z" fill="white"/>
<path d="M137.813 186.457C139.072 186.457 140.052 186.036 140.891 185.195C141.731 184.354 142.15 183.232 142.15 181.971C142.15 180.709 141.731 179.587 140.891 178.746C140.052 177.905 138.932 177.484 137.813 177.484C136.554 177.484 135.575 177.905 134.735 178.746C133.896 179.587 133.476 180.709 133.476 181.971C133.476 183.232 133.896 184.354 134.735 185.195C135.575 185.896 136.554 186.457 137.813 186.457ZM137.813 174.961C139.632 174.961 141.171 175.662 142.57 176.924C143.829 178.185 144.529 179.868 144.529 181.69C144.529 183.513 143.829 185.195 142.57 186.457C141.311 187.718 139.632 188.419 137.813 188.419C136.134 188.419 134.595 187.859 133.336 186.737V187.298C133.336 187.578 133.196 187.859 133.056 188.139C132.776 188.419 132.497 188.419 132.217 188.419C131.937 188.419 131.657 188.279 131.377 188.139C131.097 187.859 131.097 187.718 131.097 187.298V171.316C131.097 171.035 131.237 170.755 131.377 170.475C131.657 170.194 131.937 170.194 132.217 170.194C132.497 170.194 132.776 170.335 133.056 170.475C133.336 170.755 133.336 170.895 133.336 171.316V176.503C134.595 175.662 136.134 174.961 137.813 174.961Z" fill="white"/>
<path d="M147.747 170.475C148.027 170.475 148.307 170.615 148.586 170.755C148.866 171.035 148.866 171.176 148.866 171.596V187.578C148.866 187.859 148.726 188.139 148.586 188.419C148.307 188.7 148.167 188.7 147.747 188.7C147.467 188.7 147.187 188.559 146.908 188.419C146.628 188.139 146.628 187.999 146.628 187.578V171.596C146.628 171.316 146.768 171.035 146.908 170.755C147.187 170.475 147.467 170.475 147.747 170.475Z" fill="white"/>
<path d="M162.158 180.709C161.878 179.727 161.318 178.886 160.619 178.185C159.779 177.484 158.8 177.204 157.821 177.204C156.701 177.204 155.862 177.484 155.022 178.185C154.183 178.886 153.623 179.587 153.483 180.709H162.158ZM152.924 186.597C152.364 186.036 151.804 185.195 151.525 184.494C151.105 183.653 150.965 182.812 150.965 181.83C150.965 180.008 151.665 178.326 152.924 177.064C153.623 176.503 154.323 175.942 155.162 175.662C156.002 175.241 156.841 175.101 157.821 175.101C159.64 175.101 161.318 175.802 162.718 177.064C163.277 177.625 163.837 178.466 164.117 179.307C164.536 180.148 164.676 180.989 164.676 181.971C164.676 182.251 164.536 182.531 164.397 182.812C164.117 183.092 163.837 183.092 163.557 183.092H153.343C153.623 184.073 154.183 184.915 155.022 185.475C155.862 186.176 156.841 186.457 157.821 186.457C159.5 186.457 160.759 185.896 161.738 184.915C161.878 184.634 162.158 184.494 162.578 184.494C162.857 184.494 163.137 184.634 163.417 184.774C163.697 184.915 163.837 185.195 163.837 185.616C163.837 185.896 163.697 186.176 163.557 186.457C162.158 187.999 160.339 188.7 157.961 188.7C155.862 188.7 154.323 187.999 152.924 186.597Z" fill="white"/>
<path d="M153.483 73.1807C153.483 113.556 121.583 146.361 82.2682 146.361C42.953 146.361 11.0531 113.556 11.0531 73.1807C11.0531 32.8051 42.953 0 82.2682 0C121.583 0 153.483 32.6649 153.483 73.1807Z" fill="#2CACE3"/>
<path d="M92.4817 82.2931C73.1739 102.481 45.1915 106.266 29.8012 90.7047C14.4109 75.1432 17.6289 46.2635 36.9367 26.0757C56.2446 5.88795 84.2269 2.10274 99.6172 17.6642C115.008 33.2256 111.79 62.1053 92.4817 82.2931Z" fill="#52B9E9"/>
<path d="M29.8013 54.5353C27.5627 54.8157 25.8837 57.0587 26.1636 59.3018C26.4434 61.6851 28.5421 63.3674 30.7807 62.9468C33.0192 62.6665 34.6982 60.4234 34.4184 58.1803C34.2785 55.797 32.1798 54.1147 29.8013 54.5353Z" fill="#C4DCF3"/>
<path d="M63.52 16.9633C44.3521 20.6083 34.4184 40.6559 34.4184 40.6559C34.2784 40.7961 29.5214 49.6283 33.2991 51.591C35.9574 52.8527 38.0561 50.3292 38.8955 48.9273C45.8911 37.4315 56.8043 29.1601 69.6761 28.5993C80.0296 28.0386 77.0915 14.4398 63.52 16.9633Z" fill="#C4DCF3"/>
<path d="M119.345 18.6455C131.377 30.2815 138.933 46.6841 138.933 64.769C138.933 100.098 110.391 128.837 74.9928 128.837C55.4052 128.837 37.7763 120.005 26.0237 105.986C37.0767 126.173 58.2034 139.772 82.2682 139.772C117.946 139.772 146.908 110.051 146.908 73.3208C146.908 50.6095 135.994 30.7021 119.345 18.6455Z" fill="#2899D5"/>
</g>
<defs>
<clipPath id="clip0_1378_396">
<rect width="164.676" height="218" fill="white"/>
</clipPath>
</defs>
</svg>
