<svg width="366" height="126" viewBox="0 0 366 126" fill="none" xmlns="http://www.w3.org/2000/svg">
<g clip-path="url(#clip0_1378_379)">
<path d="M311.734 57.2598C305.316 57.2598 301.373 63.6356 301.373 70.0289C301.376 70.8612 301.459 71.6912 301.618 72.5081C311.366 70.6414 316.122 65.4614 316.122 61.3489C316.122 58.7589 314.484 57.2598 311.734 57.2598Z" fill="#BA0C2F"/>
<path d="M225.049 69.7492C225.506 64.2147 226.386 58.7231 227.682 53.3225C230.994 38.9958 236.599 28.0817 244.509 28.0817C250.015 28.0817 252.057 31.8908 252.103 36.4C252.226 48.2767 242.543 62.7958 231.029 71.925C230.877 77.63 232.714 80.2667 236.072 80.2667C242.104 80.2667 248.125 74.1358 253.303 61.7925C254.011 60.1067 254.684 58.17 255.427 56.3092C256.462 53.7075 261.88 55.2125 261.108 57.8025C259.446 63.3267 256.784 70.6417 256.784 75.4717C256.784 78.7033 258.416 80.0508 260.821 80.0158C264.162 79.9692 266.9 77.5775 268.86 75.25C268.86 75.25 270.235 68.3783 270.639 66.4825C276.29 39.725 282.814 28.0875 291.374 28.0875C296.487 28.0875 299.079 31.22 299.079 36.2775C299.079 45.5583 292.667 56.2217 280.333 70.9508C284.654 72.5128 289.217 73.3065 293.813 73.2958C294.129 73.2958 294.878 73.2958 295.182 73.29C295.034 72.2308 294.958 71.1628 294.954 70.0933C294.954 59.6867 302.426 52.2667 311.641 52.2667C317.667 52.2667 322.353 55.0783 322.353 61.2558C322.353 68.9908 314.127 75.1217 303.76 77.2567C305.375 79.17 308.546 80.5408 312.98 80.5408C322.933 80.5408 330.603 75.67 335.687 70.9275V0H209.305V78.1258C214.905 76.0472 220.2 73.23 225.049 69.7492ZM262.219 40.9733C262.776 40.9687 263.327 41.0777 263.84 41.2937C264.352 41.5098 264.815 41.8282 265.199 42.2294C265.584 42.6306 265.881 43.106 266.074 43.6264C266.267 44.1468 266.351 44.7011 266.321 45.255C266.259 46.4037 265.76 47.4858 264.927 48.2811C264.093 49.0765 262.987 49.5254 261.833 49.5367C261.277 49.5413 260.725 49.4323 260.213 49.2163C259.7 49.0002 259.238 48.6818 258.853 48.2806C258.469 47.8794 258.171 47.404 257.978 46.8836C257.785 46.3632 257.702 45.809 257.732 45.255C257.797 44.1073 258.296 43.027 259.129 42.2322C259.962 41.4374 261.066 40.9875 262.219 40.9733Z" fill="#BA0C2F"/>
<path d="M291.292 33.0864C288.255 33.0864 282.112 41.8598 276.776 67.0598C285.809 55.6731 293.135 42.7873 293.135 36.0906C293.135 34.3289 292.62 33.0864 291.292 33.0864Z" fill="#BA0C2F"/>
<path d="M312.98 85.8606C304.31 85.8606 299.424 82.5065 296.809 78.254C295.961 78.2948 294.954 78.3181 294.041 78.3181C290.098 78.3794 286.168 77.8405 282.387 76.7198C284.891 82.2165 286.207 88.177 286.248 94.214C286.219 105.542 282.129 112.986 274.33 112.986C268.772 112.986 265.607 108.943 265.496 100.596C265.414 94.5115 266.227 89.4656 267.432 82.6348C265.259 84.4105 262.531 85.3722 259.721 85.3531C253.987 85.3765 250.793 81.7365 250.564 76.7256C246.1 82.7223 240.735 85.6098 235.136 85.6098C229.034 85.6098 225.775 81.7015 225.131 75.8623C220.166 79.0511 214.86 81.6786 209.311 83.6965V126H335.687V77.7581C329.272 82.9722 321.257 85.8325 312.98 85.8606Z" fill="#BA0C2F"/>
<path d="M244.521 33.0981C241.233 33.0981 235.429 42.8981 231.819 64.429C242.11 54.4131 246.305 41.4573 246.305 36.3065C246.311 33.9206 245.673 33.0981 244.521 33.0981Z" fill="#BA0C2F"/>
<path d="M274.816 76.5509C273.476 82.7517 271.639 93.6717 271.639 100.608C271.639 104.638 272.517 107.193 274.863 107.193C278.935 107.193 280.146 100.048 280.146 94.7626C280.146 87.9084 278.367 80.6926 275.629 75.7051L274.816 76.5509Z" fill="#BA0C2F"/>
<path d="M6.67571 70.9393C6.6666 72.4302 6.8375 73.9167 7.18473 75.3668C7.48433 76.6594 8.03274 77.8817 8.79954 78.966C9.54704 79.9946 10.5352 80.8256 11.6781 81.3868C13.002 82.0126 14.4553 82.3184 15.9199 82.2793C17.0101 82.2966 18.0944 82.1168 19.1203 81.7485C19.9714 81.4434 20.7812 81.0339 21.5308 80.5293C22.308 80.0398 23.018 79.4515 23.6429 78.7793C24.1349 79.3571 24.5902 79.965 25.0061 80.5993C25.5041 81.2538 25.7935 82.0423 25.8369 82.8626C25.8222 83.0998 25.7605 83.3318 25.6556 83.5451C25.3593 84.0876 24.9528 84.5624 24.462 84.9393C23.382 85.7938 22.1461 86.4316 20.8228 86.8176C18.9539 87.3834 17.0067 87.6493 15.054 87.6051C13.4326 87.5854 11.8189 87.3799 10.2447 86.9926C8.45448 86.5619 6.78467 85.7344 5.35929 84.5718C3.71928 83.2058 2.41443 81.4838 1.5446 79.5376C0.514867 77.3851 0 74.5404 0 71.0035C0 67.7251 0.54022 65.0243 1.62066 62.901C2.55435 60.9551 3.91389 59.2428 5.59917 57.8901C7.08604 56.7151 8.79246 55.8466 10.6191 55.3351C12.1423 54.8876 13.7181 54.6424 15.3056 54.606C16.8135 54.5901 18.3174 54.7645 19.7814 55.1251C20.9715 55.4188 22.1167 55.87 23.1866 56.4668C23.9467 56.8771 24.6281 57.4182 25.1992 58.0651C25.6135 58.5273 25.8516 59.1199 25.8721 59.7393C25.8721 60.8185 25.0588 62.3935 24.0408 63.741C23.1092 62.7487 22.0273 61.9082 20.8345 61.2501C19.4076 60.415 17.7793 59.9834 16.1247 60.0018C14.6496 59.9611 13.1836 60.2439 11.8302 60.8301C10.6762 61.3541 9.66803 62.1511 8.89315 63.1518C8.09975 64.1928 7.52651 65.3835 7.20813 66.6518C6.84304 68.0516 6.66404 69.4931 6.67571 70.9393Z" fill="white"/>
<path d="M58.1858 85.8609C57.6177 84.9965 57.2684 84.0077 57.1677 82.9792C56.9335 81.0908 56.8319 79.1884 56.8635 77.2859V66.2959C56.8877 64.573 56.6931 62.8541 56.2843 61.18C55.9477 59.7906 55.2517 58.5135 54.2658 57.4759C53.2161 56.4354 51.9232 55.6716 50.5037 55.2534C48.6143 54.7127 46.6531 54.4629 44.6881 54.5125C43.2867 54.516 41.8878 54.6311 40.5048 54.8567C39.1878 55.0603 37.8916 55.3805 36.6316 55.8134C35.6234 56.1467 34.6665 56.6179 33.7881 57.2134C33.4835 57.3833 33.2248 57.6245 33.0342 57.9161C32.8437 58.2077 32.7269 58.541 32.694 58.8875C32.7431 59.5047 32.8872 60.1107 33.1211 60.6842C33.3974 61.4671 33.7793 62.2089 34.2562 62.8892C35.5773 61.9628 37.0103 61.2063 38.5214 60.6375C40.2544 60.0263 42.0838 59.7319 43.9216 59.7684C46.4901 59.7684 48.2278 60.2564 49.1347 61.2325C50.0415 62.2125 50.494 63.6359 50.492 65.5025V66.5525C50.0293 66.5076 49.5645 66.4861 49.0996 66.4884H47.7071C45.8975 66.5511 44.0938 66.7284 42.3068 67.0192C40.3876 67.3128 38.5238 67.8929 36.7779 68.74C35.0921 69.5485 33.6103 70.7247 32.4424 72.1817C31.2209 73.7964 30.6004 75.7843 30.6872 77.805C30.6271 79.4167 30.9562 81.0191 31.6467 82.4775C32.2229 83.6214 33.0558 84.6174 34.0807 85.3884C35.0591 86.1101 36.1797 86.617 37.3688 86.8758C38.5496 87.1427 39.7562 87.2796 40.967 87.2842C43.0145 87.3693 45.0537 86.9778 46.9231 86.1408C48.3606 85.4317 49.6727 84.4938 50.808 83.3642C50.8353 83.9195 51.0023 84.459 51.2937 84.9331C51.5851 85.4071 51.9915 85.8004 52.4754 86.0767C53.5058 86.6046 54.6522 86.8673 55.8104 86.8408C56.1954 86.8425 56.5801 86.8231 56.963 86.7825C57.2799 86.7523 57.5946 86.7016 57.9049 86.6308C58.0161 86.6072 58.1157 86.5462 58.1871 86.4581C58.2584 86.3699 58.2972 86.26 58.2969 86.1467C58.2811 86.0445 58.2432 85.947 58.1858 85.8609ZM50.5681 77.5134C50.5361 78.109 50.3031 78.6764 49.907 79.1234C49.4044 79.738 48.7986 80.2611 48.1166 80.6692C47.3007 81.1703 46.4263 81.5699 45.513 81.8592C44.5098 82.1842 43.4611 82.3476 42.4063 82.3434C40.3527 82.3434 38.9543 81.8475 38.1996 80.8617C37.4482 79.8813 37.0504 78.677 37.0704 77.4433C37.012 76.2451 37.3902 75.0662 38.1352 74.1242C38.8851 73.2585 39.8321 72.5844 40.8968 72.1583C42.103 71.6671 43.3706 71.3413 44.6647 71.19C46.0175 71.0216 47.3793 70.9359 48.7427 70.9334H50.5622V77.5134H50.5681Z" fill="white"/>
<path d="M92.2722 86.6252H85.7486V68.7402C85.7486 67.5094 85.7057 66.3621 85.6199 65.2985C85.5615 64.3531 85.3253 63.427 84.9237 62.5685C84.5266 61.7947 83.8822 61.1749 83.0924 60.8069C81.979 60.3345 80.773 60.1191 79.5644 60.1769C77.6396 60.1021 75.7353 60.593 74.0881 61.5885C72.5669 62.5744 71.8063 63.8577 71.8063 65.316V86.631H65.2593V55.1777C65.3529 55.166 65.4699 55.1544 65.5986 55.1427C65.7098 55.131 65.8444 55.1252 65.9965 55.1194C66.1486 55.1135 66.33 55.1135 66.5406 55.1135C67.6366 55.0987 68.7168 55.3745 69.6707 55.9127C70.1495 56.2049 70.5526 56.6053 70.8474 57.0816C71.1422 57.5579 71.3203 58.0967 71.3675 58.6544C72.5669 57.4568 73.9744 56.4864 75.5215 55.7902C77.4708 54.9082 79.595 54.4775 81.735 54.5302C84.754 54.5302 87.0631 55.203 88.6623 56.5485C90.23 57.8424 91.3295 59.6127 91.7925 61.5885C92.027 62.5699 92.1603 63.5726 92.1903 64.581C92.2313 65.6777 92.2547 66.7452 92.2547 67.7719V86.6252H92.2722Z" fill="white"/>
<path d="M126.207 85.8609C125.639 84.9965 125.289 84.0077 125.189 82.9792C124.954 81.0908 124.853 79.1884 124.884 77.2859V66.2959C124.909 64.573 124.714 62.8541 124.305 61.18C123.969 59.7906 123.273 58.5135 122.287 57.4759C121.237 56.4354 119.944 55.6716 118.525 55.2534C116.635 54.7127 114.674 54.4629 112.709 54.5125C111.308 54.516 109.909 54.6311 108.526 54.8567C107.209 55.0603 105.912 55.3805 104.652 55.8134C103.644 56.1467 102.687 56.6179 101.809 57.2134C101.504 57.3833 101.246 57.6245 101.055 57.9161C100.865 58.2077 100.748 58.541 100.715 58.8875C100.764 59.5047 100.908 60.1107 101.142 60.6842C101.418 61.4671 101.8 62.2089 102.277 62.8892C103.598 61.9628 105.031 61.2063 106.542 60.6375C108.275 60.0263 110.105 59.7319 111.943 59.7684C114.511 59.7684 116.249 60.2564 117.156 61.2325C118.062 62.2125 118.515 63.6359 118.513 65.5025V66.5525C118.05 66.5076 117.585 66.4861 117.12 66.4884H115.728C113.918 66.5511 112.115 66.7284 110.328 67.0192C108.409 67.3128 106.545 67.8929 104.799 68.74C103.112 69.5499 101.629 70.7259 100.457 72.1817C99.2359 73.7964 98.6154 75.7843 98.7022 77.805C98.6421 79.4167 98.9712 81.0191 99.6618 82.4775C100.238 83.6214 101.071 84.6174 102.096 85.3884C103.074 86.1101 104.195 86.617 105.384 86.8758C106.565 87.1427 107.771 87.2796 108.982 87.2842C111.029 87.3693 113.069 86.9778 114.938 86.1408C116.376 85.4316 117.688 84.4938 118.823 83.3642C118.85 83.9195 119.017 84.459 119.309 84.9331C119.6 85.4071 120.007 85.8004 120.49 86.0767C121.521 86.6046 122.667 86.8673 123.825 86.8408C124.21 86.8425 124.595 86.8231 124.978 86.7825C125.295 86.7523 125.61 86.7016 125.92 86.6308C126.031 86.6072 126.131 86.5462 126.202 86.4581C126.273 86.3699 126.312 86.26 126.312 86.1467C126.306 86.0431 126.27 85.9435 126.207 85.8609ZM118.589 77.5134C118.557 78.109 118.324 78.6764 117.928 79.1234C117.425 79.738 116.819 80.2611 116.137 80.6692C115.322 81.1703 114.447 81.5699 113.534 81.8592C112.531 82.1842 111.482 82.3476 110.427 82.3434C108.374 82.3434 106.975 81.8475 106.22 80.8617C105.469 79.8813 105.071 78.677 105.091 77.4433C105.033 76.2451 105.411 75.0662 106.156 74.1242C106.906 73.2585 107.853 72.5844 108.918 72.1583C110.124 71.6671 111.391 71.3413 112.686 71.19C114.038 71.0216 115.4 70.9359 116.764 70.9334H118.583V77.5134H118.589Z" fill="white"/>
<path d="M161.153 85.8607C160.585 84.9964 160.236 84.0076 160.135 82.9791C159.901 81.0907 159.799 79.1883 159.831 77.2857V44.8991C159.862 43.9656 159.729 43.0338 159.439 42.1457C159.223 41.5132 158.855 40.9426 158.368 40.4832C157.933 40.0854 157.404 39.8044 156.83 39.6666C156.276 39.534 155.708 39.4655 155.139 39.4624C154.852 39.4624 154.524 39.4682 154.162 39.4857C153.886 39.4907 153.61 39.5121 153.337 39.5499V57.7207C152.382 56.8964 151.307 56.2217 150.148 55.7199C148.415 54.9843 146.542 54.6378 144.66 54.7049C142.985 54.7028 141.328 55.0381 139.786 55.6907C138.198 56.3608 136.785 57.3844 135.656 58.6832C134.375 60.2017 133.408 61.9584 132.812 63.8516C132.056 66.279 131.696 68.8119 131.747 71.3532C131.68 73.9508 132.048 76.5414 132.836 79.0182C133.434 80.8616 134.433 82.5506 135.761 83.9649C136.928 85.1666 138.363 86.0761 139.95 86.6191C141.518 87.1509 143.162 87.421 144.818 87.4182C146.826 87.4981 148.817 87.0216 150.569 86.0416C151.795 85.3624 152.88 84.4556 153.764 83.3699C153.791 83.9252 153.958 84.4647 154.25 84.9388C154.541 85.4128 154.947 85.8061 155.431 86.0824C156.462 86.6104 157.608 86.8731 158.766 86.8466C159.151 86.8483 159.536 86.8288 159.919 86.7882C160.236 86.758 160.55 86.7073 160.861 86.6366C160.972 86.613 161.071 86.5519 161.143 86.4638C161.214 86.3756 161.253 86.2657 161.253 86.1524C161.253 86.0469 161.218 85.9443 161.153 85.8607ZM153.337 78.0732C153.326 78.6223 153.153 79.1559 152.839 79.6074C152.469 80.1546 151.982 80.6129 151.412 80.9491C150.723 81.3648 149.981 81.6865 149.206 81.9057C148.31 82.1694 147.379 82.2991 146.444 82.2907C145.138 82.3358 143.843 82.0381 142.688 81.4274C141.671 80.8479 140.825 80.0107 140.237 79.0007C139.584 77.8637 139.142 76.6189 138.932 75.3257C138.675 73.8051 138.55 72.2653 138.558 70.7232C138.558 67.1416 139.24 64.4349 140.605 62.6032C141.237 61.7212 142.078 61.0088 143.053 60.5294C144.028 60.05 145.106 59.8186 146.193 59.8557C147.094 59.8432 147.993 59.9611 148.861 60.2057C149.585 60.4157 150.284 60.7052 150.944 61.0691C151.482 61.3706 151.983 61.7348 152.436 62.1541C152.798 62.5099 153.097 62.8074 153.337 63.0524V78.0732Z" fill="white"/>
<path d="M194.005 85.8609C193.437 84.9965 193.088 84.0077 192.987 82.9792C192.753 81.0908 192.651 79.1884 192.683 77.2859V66.2959C192.707 64.573 192.513 62.8541 192.104 61.18C191.767 59.7906 191.071 58.5135 190.085 57.4759C189.036 56.4354 187.743 55.6716 186.323 55.2534C184.434 54.7127 182.473 54.4629 180.508 54.5125C179.106 54.516 177.707 54.6311 176.324 54.8567C175.007 55.0603 173.711 55.3805 172.451 55.8134C171.443 56.1467 170.486 56.6179 169.608 57.2134C169.303 57.3833 169.044 57.6245 168.854 57.9161C168.663 58.2077 168.546 58.541 168.513 58.8875C168.563 59.5047 168.707 60.1107 168.941 60.6842C169.217 61.4671 169.599 62.2089 170.076 62.8892C171.397 61.9628 172.83 61.2063 174.341 60.6375C176.074 60.0263 177.903 59.7319 179.741 59.7684C182.31 59.7684 184.047 60.2564 184.954 61.2325C185.861 62.2125 186.313 63.6359 186.311 65.5025V66.5525C185.849 66.5076 185.384 66.4861 184.919 66.4884H183.527C181.717 66.5511 179.913 66.7284 178.126 67.0192C176.207 67.3128 174.343 67.8929 172.597 68.74C170.912 69.5485 169.43 70.7247 168.262 72.1817C167.04 73.7964 166.42 75.7843 166.507 77.805C166.447 79.4167 166.776 81.0191 167.466 82.4775C168.042 83.6214 168.875 84.6174 169.9 85.3884C170.879 86.1101 171.999 86.617 173.188 86.8758C174.369 87.1427 175.576 87.2796 176.786 87.2842C178.834 87.3693 180.873 86.9778 182.743 86.1408C184.18 85.4316 185.492 84.4938 186.627 83.3642C186.655 83.9195 186.822 84.459 187.113 84.9331C187.405 85.4071 187.811 85.8004 188.295 86.0767C189.325 86.6046 190.472 86.8673 191.63 86.8408C192.015 86.8425 192.4 86.8231 192.782 86.7825C193.099 86.7523 193.414 86.7016 193.724 86.6308C193.836 86.6072 193.935 86.5462 194.007 86.4581C194.078 86.3699 194.117 86.26 194.116 86.1467C194.106 86.0432 194.067 85.9444 194.005 85.8609ZM186.393 77.5134C186.361 78.109 186.128 78.6764 185.732 79.1234C185.23 79.738 184.624 80.2611 183.942 80.6692C183.126 81.1703 182.252 81.5699 181.338 81.8592C180.335 82.1842 179.286 82.3476 178.232 82.3434C176.178 82.3434 174.78 81.8475 174.025 80.8617C173.274 79.8813 172.876 78.677 172.896 77.4433C172.837 76.2451 173.216 75.0662 173.961 74.1242C174.71 73.2585 175.657 72.5844 176.722 72.1583C177.928 71.6671 179.196 71.3413 180.49 71.19C181.843 71.0216 183.205 70.9359 184.568 70.9334H186.388V77.5134H186.393Z" fill="white"/>
<path d="M261.839 49.5366C262.993 49.5254 264.099 49.0764 264.933 48.2811C265.766 47.4857 266.265 46.4036 266.327 45.2549C266.356 44.7011 266.272 44.1471 266.079 43.6269C265.886 43.1068 265.588 42.6315 265.204 42.2304C264.82 41.8293 264.357 41.5109 263.845 41.2947C263.333 41.0785 262.781 40.9691 262.225 40.9733C261.071 40.9845 259.965 41.4334 259.132 42.2288C258.298 43.0241 257.8 44.1062 257.738 45.2549C257.707 45.8089 257.791 46.3631 257.984 46.8835C258.177 47.4039 258.475 47.8793 258.859 48.2805C259.243 48.6817 259.706 49.0002 260.219 49.2162C260.731 49.4322 261.283 49.5413 261.839 49.5366Z" fill="white"/>
<path d="M312.975 80.5173C308.54 80.5173 305.369 79.1464 303.754 77.2331C314.127 75.0981 322.348 68.9673 322.348 61.2323C322.348 55.0548 317.661 52.2431 311.635 52.2431C302.42 52.2431 294.948 59.6631 294.948 70.0698C294.952 71.1392 295.028 72.2072 295.177 73.2664C294.867 73.2723 294.123 73.2723 293.808 73.2723C289.211 73.283 284.649 72.4893 280.327 70.9273C292.661 56.1981 299.073 45.5406 299.073 36.2539C299.073 31.1906 296.475 28.0639 291.368 28.0639C282.814 28.0639 276.285 39.6956 270.633 66.4589C270.229 68.3606 268.854 75.2264 268.854 75.2264C266.9 77.5539 264.162 79.9456 260.815 79.9923C258.41 80.0273 256.778 78.6856 256.778 75.4481C256.778 70.6181 259.44 63.3031 261.102 57.7789C261.88 55.1948 256.456 53.6898 255.421 56.2856C254.678 58.1523 254.005 60.0889 253.297 61.7689C248.113 74.1123 242.099 80.2431 236.066 80.2431C232.708 80.2431 230.871 77.6123 231.023 71.9014C242.543 62.7723 252.22 48.2531 252.097 36.3764C252.051 31.8673 250.009 28.0581 244.503 28.0581C236.593 28.0581 230.988 38.9723 227.676 53.2989C226.38 58.6996 225.5 64.1911 225.044 69.7256C220.194 73.2073 214.899 76.0265 209.299 78.1081V83.6731C214.847 81.6529 220.153 79.0254 225.12 75.8389C225.763 81.6781 229.022 85.5864 235.124 85.5864C240.724 85.5864 246.095 82.6989 250.553 76.7023C250.781 81.7189 253.976 85.3531 259.709 85.3298C262.52 85.3516 265.249 84.3896 267.421 82.6114C266.215 89.4481 265.402 94.4881 265.484 100.572C265.595 108.914 268.76 112.962 274.319 112.962C282.124 112.962 286.213 105.519 286.237 94.1906C286.196 88.1536 284.88 82.1929 282.375 76.6964C286.156 77.8167 290.086 78.3556 294.03 78.2948C294.943 78.2948 295.943 78.2714 296.797 78.2306C299.407 82.4831 304.298 85.8373 312.969 85.8373C321.243 85.81 329.258 82.9496 335.67 77.7348V70.8748C330.591 75.6406 322.927 80.5173 312.975 80.5173ZM244.521 33.0981C245.673 33.0981 246.305 33.9206 246.305 36.3123C246.305 41.4631 242.11 54.4189 231.819 64.4348C235.435 42.8923 241.233 33.0981 244.521 33.0981ZM291.292 33.0864C292.62 33.0864 293.135 34.3231 293.135 36.0964C293.135 42.7931 285.81 55.6731 276.776 67.0656C282.112 41.8656 288.255 33.0864 291.292 33.0864ZM274.869 107.193C272.522 107.193 271.645 104.632 271.645 100.607C271.645 93.6773 273.482 82.7573 274.822 76.5506L275.641 75.7048C278.379 80.6923 280.158 87.9081 280.158 94.7623C280.152 100.047 278.935 107.193 274.869 107.193ZM301.373 70.0289C301.373 63.6356 305.316 57.2598 311.734 57.2598C314.484 57.2598 316.128 58.7589 316.128 61.3489C316.128 65.4556 311.372 70.6356 301.624 72.5081C301.456 71.6923 301.372 70.8617 301.373 70.0289Z" fill="white"/>
<path d="M363.63 0.431641L359.681 11.0191L355.732 0.431641H353.362V13.0316H354.942V2.53164H355.03L358.891 13.0316H360.471L364.332 2.53164H364.42V13.0316H366V0.431641H363.63Z" fill="white"/>
<path d="M341.778 1.83164H346.078V13.0316H347.658V1.83164H351.958V0.431641H341.778V1.83164Z" fill="white"/>
</g>
<defs>
<clipPath id="clip0_1378_379">
<rect width="366" height="126" fill="white"/>
</clipPath>
</defs>
</svg>
