<svg id="svg" version="1.1" xmlns="http://www.w3.org/2000/svg" xmlns:xlink="http://www.w3.org/1999/xlink" width="400" height="646.8" viewBox="0, 0, 400,646.8"><g id="svgg"><path id="path0" d="M325.472 14.650 C 275.829 38.987,231.169 85.979,220.347 125.264 C 219.662 127.749,219.532 128.008,219.026 127.894 C 216.210 127.262,199.889 125.980,191.509 125.732 C 172.588 125.173,142.928 128.021,109.973 133.561 C 83.990 137.928,51.375 147.470,7.412 163.567 L 0.135 166.232 0.065 183.672 C 0.027 193.264,0.088 201.057,0.200 200.989 C 0.312 200.922,4.164 199.266,8.760 197.309 C 56.936 176.798,95.525 166.657,140.573 162.669 C 175.815 159.549,205.899 167.453,224.056 184.601 L 225.604 186.064 223.921 187.291 C 216.563 192.652,186.967 212.631,123.450 255.115 C 101.530 269.777,95.462 273.846,62.534 295.963 C 34.181 315.006,13.937 328.851,5.863 334.720 L 2.696 337.022 3.137 337.716 C 3.579 338.412,8.561 345.688,20.127 362.534 C 23.537 367.500,32.490 380.539,40.023 391.509 C 47.556 402.480,55.016 413.336,56.601 415.633 C 58.186 417.931,64.010 426.422,69.543 434.501 C 75.076 442.581,81.687 452.224,84.233 455.930 C 92.887 468.528,100.522 479.724,105.353 486.902 L 110.173 494.061 114.183 490.670 C 200.571 417.618,273.670 311.518,290.675 234.497 C 291.215 232.053,291.721 229.764,291.800 229.409 C 291.941 228.774,291.981 228.766,294.152 228.935 C 331.685 231.853,365.683 223.097,395.889 202.732 L 400.000 199.961 400.000 188.255 C 400.000 181.817,399.958 176.550,399.907 176.550 C 399.856 176.550,398.007 177.597,395.797 178.877 C 378.014 189.176,354.763 197.048,342.183 197.029 C 330.451 197.011,319.441 192.633,306.065 182.665 C 299.880 178.057,291.212 169.273,292.074 168.487 C 292.208 168.364,295.047 166.285,298.383 163.866 C 306.099 158.270,319.550 148.438,333.154 138.449 C 374.780 107.882,398.113 90.406,398.113 89.794 C 398.113 88.492,332.653 11.848,331.557 11.867 C 331.324 11.872,328.585 13.124,325.472 14.650 M317.218 52.830 C 320.907 57.192,325.351 62.774,332.344 71.833 C 344.492 87.568,350.276 94.971,352.471 97.597 C 353.706 99.074,354.717 100.385,354.717 100.510 C 354.717 101.330,308.932 131.377,279.198 150.069 L 276.590 151.709 273.943 149.516 C 258.440 136.677,254.070 124.232,258.729 106.191 C 264.460 83.999,283.025 62.922,308.722 49.435 L 312.534 47.435 313.565 48.583 C 314.132 49.214,315.776 51.125,317.218 52.830 M242.915 208.995 C 257.411 235.944,255.909 265.472,238.260 300.539 C 220.577 335.673,198.715 364.384,154.669 410.314 L 151.887 413.216 149.576 410.449 C 134.846 392.808,121.301 375.514,101.368 348.900 C 84.974 327.010,78.571 318.350,78.571 318.065 C 78.571 317.811,82.802 314.804,101.078 302.070 C 109.312 296.334,138.046 276.398,152.561 266.351 C 196.748 235.767,231.255 211.552,238.005 206.390 C 240.717 204.316,240.271 204.079,242.915 208.995 M143.755 504.794 C 139.702 506.246,138.320 509.343,137.710 518.343 C 136.685 533.441,139.582 540.547,146.765 540.555 C 152.909 540.562,154.792 537.408,155.167 526.482 L 155.336 521.563 151.118 521.563 L 146.900 521.563 146.900 523.585 L 146.900 525.606 148.922 525.606 L 150.943 525.606 150.941 527.830 C 150.935 534.786,148.402 538.047,144.825 535.704 C 141.713 533.665,141.391 512.773,144.421 509.413 C 146.398 507.221,149.553 508.608,150.443 512.062 C 150.794 513.424,150.633 513.402,152.967 512.417 C 155.187 511.481,155.159 511.533,154.443 509.619 C 152.860 505.388,148.097 503.238,143.755 504.794 M26.685 522.481 L 26.685 540.162 30.256 540.157 C 40.099 540.144,42.846 537.408,43.716 526.748 C 44.434 517.948,43.113 510.700,40.204 507.480 C 38.270 505.339,37.187 505.014,31.604 504.901 L 26.685 504.800 26.685 522.481 M85.714 506.739 L 85.714 508.625 87.466 508.625 L 89.218 508.625 89.218 524.394 L 89.218 540.162 91.509 540.162 L 93.801 540.162 93.801 522.507 L 93.801 504.852 89.757 504.852 L 85.714 504.852 85.714 506.739 M197.305 506.739 L 197.305 508.625 199.057 508.625 L 200.809 508.625 200.809 524.394 L 200.809 540.162 202.965 540.162 L 205.121 540.162 205.121 522.507 L 205.121 504.852 201.213 504.852 L 197.305 504.852 197.305 506.739 M246.900 506.873 L 246.900 508.895 249.596 508.895 L 252.291 508.895 252.291 524.528 L 252.291 540.162 254.717 540.162 L 257.143 540.162 257.143 524.528 L 257.143 508.895 259.704 508.895 L 262.264 508.895 262.264 506.873 L 262.264 504.852 254.582 504.852 L 246.900 504.852 246.900 506.873 M309.034 505.458 C 308.052 509.688,301.617 539.555,301.617 539.882 C 301.617 540.419,305.872 540.235,306.031 539.690 C 306.106 539.431,306.436 537.850,306.762 536.178 L 307.356 533.139 310.888 533.213 L 314.420 533.288 315.088 536.725 L 315.755 540.162 318.089 540.162 L 320.423 540.162 319.690 536.725 C 319.286 534.835,317.578 526.890,315.893 519.070 L 312.830 504.852 311.002 504.852 C 309.328 504.852,309.163 504.903,309.034 505.458 M363.073 522.507 L 363.073 540.162 369.272 540.162 L 375.472 540.162 375.472 538.275 L 375.472 536.388 371.563 536.388 L 367.655 536.388 367.655 520.620 L 367.655 504.852 365.364 504.852 L 363.073 504.852 363.073 522.507 M34.259 508.936 C 37.843 510.152,38.679 512.770,38.679 522.776 C 38.679 533.319,37.325 536.119,32.226 536.119 L 31.536 536.119 31.536 522.372 L 31.536 508.625 32.440 508.625 C 32.936 508.625,33.755 508.765,34.259 508.936 M311.565 516.182 C 311.871 518.484,312.487 522.392,312.934 524.866 C 313.381 527.341,313.747 529.429,313.747 529.508 C 313.747 529.586,312.473 529.650,310.916 529.650 C 309.360 529.650,308.086 529.559,308.087 529.447 C 308.087 529.336,308.446 527.305,308.885 524.933 C 309.323 522.561,309.957 518.655,310.292 516.254 C 310.626 513.853,310.925 511.913,310.955 511.943 C 310.985 511.973,311.259 513.881,311.565 516.182 M349.981 546.915 C 337.087 548.167,330.744 555.993,332.089 568.993 C 332.748 575.370,333.945 576.952,347.219 589.001 C 358.368 599.121,358.423 599.202,358.167 604.960 C 357.963 609.537,356.838 610.907,353.440 610.716 C 349.575 610.499,349.215 609.627,349.099 600.202 L 349.006 592.722 340.656 592.722 L 332.305 592.722 332.406 601.280 C 332.515 610.477,332.651 611.445,334.287 614.661 C 339.881 625.655,365.461 625.694,372.554 614.719 C 375.546 610.090,376.485 599.283,374.409 593.375 C 373.316 590.265,371.318 588.088,359.973 577.638 C 348.950 567.484,349.326 567.977,349.327 563.688 C 349.327 559.501,350.322 558.175,353.580 558.013 C 357.812 557.803,358.304 558.770,358.446 567.588 L 358.552 574.124 366.877 574.124 L 375.202 574.124 375.197 567.453 C 375.192 559.803,374.953 558.152,373.432 555.256 C 370.051 548.822,361.536 545.794,349.981 546.915 M26.146 584.638 L 26.146 621.027 51.255 620.958 L 76.364 620.889 79.667 606.065 C 81.483 597.911,82.981 591.304,82.994 591.382 C 83.111 592.053,88.703 619.955,88.814 620.418 L 88.959 621.024 97.867 621.024 C 106.224 621.024,106.766 620.995,106.636 620.553 C 106.309 619.439,98.320 590.665,97.495 587.626 L 96.587 584.282 97.651 580.484 C 98.236 578.394,99.828 572.743,101.188 567.925 L 103.662 559.164 108.974 559.091 L 114.286 559.018 114.286 590.021 L 114.286 621.024 122.775 621.024 L 131.265 621.024 131.333 590.094 L 131.402 559.164 137.062 559.164 L 142.722 559.164 142.791 590.094 L 142.859 621.024 151.349 621.024 L 159.838 621.024 159.838 604.274 L 159.838 587.523 161.770 587.685 C 167.811 588.191,168.720 590.431,168.736 604.852 C 168.745 613.430,169.401 616.301,171.929 618.829 C 174.339 621.239,170.739 621.024,208.748 621.024 L 242.316 621.024 242.384 590.368 L 242.453 559.712 247.298 590.372 L 252.144 621.033 259.559 620.961 L 266.975 620.889 270.109 602.561 C 271.833 592.480,274.200 578.614,275.368 571.747 L 277.493 559.263 277.562 590.144 L 277.630 621.024 285.042 621.024 L 292.453 621.024 292.453 584.636 L 292.453 548.248 280.323 548.248 C 273.652 548.248,268.194 548.303,268.194 548.370 C 268.194 548.503,264.955 569.745,262.071 588.526 C 260.771 596.992,260.195 600.142,260.053 599.577 C 259.886 598.914,258.048 584.602,254.205 554.043 L 253.494 548.383 241.033 548.313 L 228.571 548.243 228.571 579.246 L 228.571 610.249 217.992 610.178 L 207.412 610.108 207.342 598.181 L 207.272 586.253 216.035 586.253 L 224.798 586.253 224.798 580.866 L 224.798 575.479 216.105 575.408 L 207.412 575.337 207.412 567.251 L 207.412 559.164 216.375 559.093 L 225.337 559.022 225.337 553.635 L 225.337 548.248 207.817 548.248 L 190.296 548.248 190.296 583.962 C 190.296 623.428,190.437 620.657,188.545 618.564 C 186.094 615.850,185.722 613.794,185.557 602.022 C 185.327 585.662,183.883 583.164,174.026 582.070 C 172.142 581.861,172.286 581.666,174.798 581.029 C 182.209 579.148,185.705 574.084,185.705 565.229 C 185.705 556.277,181.971 551.175,173.828 549.003 L 171.563 548.399 131.500 548.316 L 91.437 548.233 91.287 548.847 C 91.205 549.185,89.908 555.767,88.406 563.475 C 86.074 575.440,85.445 578.433,85.445 577.569 C 85.445 577.315,79.774 549.220,79.622 548.720 C 79.487 548.275,77.974 548.248,52.812 548.248 L 26.146 548.248 26.146 584.638 M295.957 584.636 L 295.957 621.024 313.612 621.024 L 331.267 621.024 331.267 615.637 L 331.267 610.250 322.305 610.179 L 313.342 610.108 313.272 598.181 L 313.202 586.253 321.965 586.253 L 330.728 586.253 330.728 580.863 L 330.728 575.472 321.964 575.472 L 313.200 575.472 313.271 567.318 L 313.342 559.164 322.170 559.093 L 330.997 559.022 330.997 553.635 L 330.997 548.248 313.477 548.248 L 295.957 548.248 295.957 584.636 M64.507 559.299 C 66.064 564.562,68.221 571.808,69.299 575.401 L 71.260 581.935 70.403 585.240 C 69.931 587.057,67.847 595.094,65.772 603.100 C 61.261 620.501,61.497 619.876,61.474 614.492 L 61.456 610.250 52.493 610.179 L 43.531 610.108 43.461 598.181 L 43.391 586.253 52.154 586.253 L 60.916 586.253 60.916 580.863 L 60.916 575.472 52.152 575.472 L 43.388 575.472 43.460 567.318 L 43.531 559.164 52.358 559.093 L 61.186 559.022 61.186 554.120 C 61.186 551.182,61.284 549.321,61.430 549.474 C 61.565 549.615,62.949 554.036,64.507 559.299 M165.487 559.024 C 167.636 560.120,168.466 562.453,168.459 567.375 C 168.448 574.773,166.996 577.082,162.212 577.311 L 159.838 577.424 159.838 567.957 L 159.838 558.491 162.140 558.491 C 163.901 558.491,164.687 558.616,165.487 559.024 " stroke="none" fill="#fbfbfb" fill-rule="evenodd"></path><path id="path1" d="M0.000 83.019 C 0.000 128.679,0.039 166.038,0.087 166.038 C 0.135 166.038,2.773 165.081,5.950 163.912 C 68.034 141.063,105.054 132.021,156.604 127.112 C 169.559 125.879,172.412 125.748,186.388 125.745 C 200.453 125.741,203.368 125.894,214.935 127.238 C 217.441 127.529,219.511 127.736,219.534 127.698 C 219.558 127.659,219.919 126.354,220.338 124.798 C 228.571 94.198,257.000 59.485,296.540 31.750 C 308.601 23.290,330.644 10.841,331.961 11.746 C 332.425 12.065,354.876 37.980,370.484 56.214 C 385.381 73.616,397.280 87.957,398.140 89.544 C 398.463 90.141,387.048 98.927,360.782 118.298 C 342.792 131.565,324.219 145.191,301.213 162.000 C 296.321 165.574,292.284 168.595,292.241 168.712 C 291.749 170.076,302.967 180.601,309.704 185.094 C 327.727 197.113,338.860 199.363,356.835 194.617 C 371.820 190.661,384.080 185.619,396.429 178.335 L 400.000 176.228 400.000 88.114 L 400.000 0.000 200.000 0.000 L 0.000 0.000 0.000 83.019 M309.164 49.355 C 280.816 64.326,262.323 86.644,257.622 111.559 C 255.679 121.856,258.385 132.294,265.189 140.740 C 268.249 144.539,276.222 151.714,276.913 151.292 C 293.177 141.363,343.839 108.344,353.424 101.427 L 354.692 100.512 351.660 96.819 C 348.895 93.451,339.695 81.652,333.020 72.911 C 329.189 67.895,319.334 55.459,317.428 53.235 C 314.466 49.778,312.592 47.709,312.427 47.713 C 312.337 47.716,310.869 48.455,309.164 49.355 M145.553 162.424 C 145.034 162.480,142.911 162.656,140.836 162.815 C 98.026 166.096,53.116 178.060,5.191 198.952 L 0.005 201.213 0.003 424.057 L 0.000 646.900 200.000 646.900 L 400.000 646.900 400.000 423.562 C 400.000 300.727,399.909 200.265,399.798 200.315 C 399.687 200.365,397.291 201.936,394.474 203.807 C 365.206 223.240,334.846 231.114,296.335 229.262 L 291.995 229.053 291.667 230.766 C 281.776 282.464,238.266 359.931,185.040 420.609 C 182.965 422.975,180.365 425.947,179.263 427.213 C 177.676 429.036,172.065 435.219,171.427 435.849 C 171.352 435.923,168.851 438.592,165.871 441.779 C 155.652 452.706,139.228 468.665,125.217 481.281 C 120.592 485.445,110.472 494.070,110.211 494.070 C 110.074 494.070,109.397 493.191,108.707 492.116 C 108.017 491.041,104.966 486.523,101.928 482.075 C 87.889 461.525,81.485 452.160,76.955 445.553 C 66.546 430.373,56.332 415.488,51.893 409.030 C 49.345 405.323,43.762 397.197,39.486 390.970 C 28.687 375.245,20.623 363.511,15.496 356.065 C 7.215 344.036,2.960 337.767,2.809 337.374 C 2.490 336.543,23.671 321.794,63.642 295.013 C 66.961 292.790,76.166 286.619,84.097 281.301 C 92.028 275.982,112.163 262.499,128.841 251.339 C 191.868 209.162,216.114 192.770,224.762 186.486 L 225.369 186.045 223.868 184.625 C 211.562 172.987,193.667 165.600,171.294 162.924 C 167.751 162.500,148.322 162.123,145.553 162.424 M239.488 205.492 C 237.400 207.130,225.401 215.719,214.420 223.437 C 196.297 236.175,165.737 257.451,149.778 268.440 C 147.283 270.158,144.372 272.176,143.309 272.926 C 140.401 274.974,114.451 292.970,109.973 296.043 C 107.823 297.519,104.488 299.837,102.561 301.196 C 100.633 302.554,94.478 306.863,88.881 310.771 C 83.285 314.678,78.706 317.974,78.706 318.094 C 78.706 318.303,82.676 323.658,101.261 348.518 C 120.826 374.688,135.606 393.562,149.337 409.910 L 151.887 412.946 154.455 410.314 C 197.284 366.414,222.828 332.391,240.532 295.665 C 255.758 264.078,256.458 233.233,242.510 208.466 C 240.334 204.603,240.462 204.729,239.488 205.492 M150.469 504.912 C 152.005 505.565,153.472 507.118,154.336 509.006 C 155.461 511.461,155.424 511.555,152.965 512.556 C 150.530 513.546,150.661 513.591,150.052 511.571 C 149.463 509.621,148.640 508.853,146.964 508.692 C 143.580 508.367,142.592 511.488,142.592 522.507 C 142.592 532.957,143.532 536.119,146.639 536.119 C 149.557 536.119,150.674 533.951,150.674 528.289 L 150.674 525.606 148.652 525.606 L 146.631 525.606 146.631 523.585 L 146.631 521.563 151.078 521.563 L 155.526 521.563 155.522 523.113 C 155.487 536.642,153.127 541.061,146.160 540.645 C 141.693 540.379,139.314 537.852,138.087 532.075 C 137.017 527.035,137.459 514.015,138.844 509.778 C 140.399 505.021,145.601 502.844,150.469 504.912 M35.903 504.879 C 41.852 506.113,44.274 512.175,43.851 524.778 C 43.428 537.392,40.564 540.418,29.043 540.429 L 26.685 540.431 26.685 522.507 L 26.685 504.582 30.580 504.582 C 32.722 504.582,35.118 504.716,35.903 504.879 M93.801 522.472 L 93.801 540.362 91.509 540.407 L 89.218 540.453 89.218 524.674 L 89.218 508.895 87.466 508.895 L 85.714 508.895 85.714 506.739 L 85.714 504.582 89.757 504.582 L 93.801 504.582 93.801 522.472 M205.121 522.507 L 205.121 540.431 203.257 540.431 C 202.231 540.431,201.200 540.358,200.965 540.268 C 200.583 540.121,200.539 538.480,200.539 524.499 L 200.539 508.895 198.787 508.895 L 197.035 508.895 197.035 506.739 L 197.035 504.582 201.078 504.582 L 205.121 504.582 205.121 522.507 M262.534 506.739 L 262.534 508.895 259.838 508.895 L 257.143 508.895 257.143 524.663 L 257.143 540.431 254.717 540.431 L 252.291 540.431 252.291 524.663 L 252.291 508.895 249.461 508.895 L 246.631 508.895 246.631 506.739 L 246.631 504.582 254.582 504.582 L 262.534 504.582 262.534 506.739 M313.042 505.054 C 313.119 505.313,314.096 509.832,315.212 515.094 C 316.328 520.357,317.971 528.098,318.863 532.297 C 319.755 536.495,320.485 540.043,320.485 540.181 C 320.485 540.318,319.407 540.431,318.089 540.431 L 315.693 540.431 315.035 536.995 L 314.377 533.558 310.883 533.483 L 307.389 533.408 306.723 536.852 L 306.056 540.296 303.702 540.374 C 302.407 540.417,301.348 540.365,301.348 540.258 C 301.348 540.151,302.676 533.991,304.299 526.568 C 305.922 519.146,307.635 511.253,308.105 509.030 C 308.576 506.806,309.014 504.896,309.078 504.784 C 309.349 504.321,312.896 504.562,313.042 505.054 M367.655 520.343 L 367.655 536.104 371.631 536.179 L 375.606 536.253 375.685 538.342 L 375.764 540.431 369.284 540.431 L 362.803 540.431 362.803 522.507 L 362.803 504.582 365.229 504.582 L 367.655 504.582 367.655 520.343 M31.536 522.490 L 31.536 536.085 32.547 535.948 C 37.291 535.304,38.811 532.137,38.802 522.911 C 38.794 513.070,36.982 508.923,32.682 508.901 L 31.536 508.895 31.536 522.490 M310.810 513.308 C 310.765 514.543,310.008 519.419,309.058 524.596 L 308.181 529.380 310.864 529.380 L 313.548 529.380 313.396 528.504 C 313.313 528.022,312.922 525.809,312.528 523.585 C 312.133 521.361,311.592 517.965,311.325 516.038 C 311.057 514.111,310.826 512.882,310.810 513.308 M360.556 547.033 C 368.064 548.251,373.188 552.229,374.819 558.106 C 375.159 559.330,375.295 561.390,375.400 566.914 L 375.539 574.124 366.880 574.124 L 358.221 574.124 358.220 567.857 C 358.218 559.616,357.975 558.861,355.133 558.224 C 350.729 557.237,348.278 560.935,349.633 566.525 C 350.000 568.039,353.551 571.699,362.408 579.689 C 373.687 589.865,375.237 592.180,375.646 599.461 C 376.193 609.203,373.723 615.548,367.899 619.362 C 357.632 626.087,338.602 623.482,334.193 614.748 C 332.490 611.375,332.272 609.885,332.142 600.741 L 332.023 592.453 340.675 592.453 L 349.326 592.453 349.326 599.632 C 349.326 608.832,349.663 609.951,352.582 610.465 C 356.694 611.188,357.947 609.640,357.950 603.832 C 357.952 598.801,358.139 599.046,345.831 587.923 C 332.867 576.208,331.908 574.675,331.973 565.768 C 332.024 558.865,333.046 555.840,336.494 552.401 C 341.315 547.589,350.858 545.461,360.556 547.033 M80.064 550.086 C 80.698 553.516,85.434 576.629,85.520 576.715 C 85.567 576.762,86.873 570.374,88.423 562.521 L 91.240 548.241 131.671 548.312 L 172.102 548.383 174.259 548.990 C 182.267 551.244,185.876 556.351,185.830 565.364 C 185.783 574.309,182.292 579.233,174.528 581.301 L 172.642 581.804 174.798 581.985 C 180.032 582.424,183.465 584.965,184.967 589.511 C 185.493 591.105,185.552 592.063,185.726 601.752 C 185.956 614.639,186.247 616.130,189.066 618.853 L 190.027 619.782 190.027 584.038 C 190.027 560.483,190.119 548.262,190.296 548.203 C 190.444 548.154,198.389 548.145,207.951 548.184 L 225.337 548.256 225.337 553.777 L 225.337 559.299 216.442 559.299 L 207.547 559.299 207.547 567.251 L 207.547 575.202 216.307 575.202 L 225.067 575.202 225.067 580.728 L 225.067 586.253 216.307 586.253 L 207.547 586.253 207.547 598.113 L 207.547 609.973 218.058 609.973 L 228.569 609.973 228.638 579.100 L 228.706 548.227 241.088 548.243 C 247.898 548.251,253.514 548.302,253.568 548.356 C 253.621 548.410,254.142 552.328,254.724 557.063 C 256.308 569.954,259.806 597.306,260.008 598.383 C 260.219 599.511,259.947 601.131,264.557 571.294 C 266.413 559.286,267.993 549.158,268.069 548.787 L 268.207 548.113 280.330 548.186 L 292.453 548.259 292.453 584.642 L 292.453 621.024 285.042 621.024 L 277.630 621.024 277.562 590.742 L 277.493 560.459 272.422 590.001 C 269.634 606.248,267.289 619.875,267.212 620.283 L 267.073 621.024 259.552 621.024 L 252.032 621.024 251.891 620.418 C 251.757 619.844,246.999 589.627,243.888 569.597 L 242.453 560.353 242.384 590.689 L 242.316 621.024 208.613 621.024 C 170.662 621.024,174.132 621.219,171.873 618.962 C 169.144 616.234,168.741 614.289,168.472 602.561 C 168.174 589.557,167.591 588.250,161.945 587.923 L 159.838 587.801 159.838 604.413 L 159.838 621.024 151.213 621.024 L 142.588 621.024 142.588 590.162 L 142.588 559.299 137.062 559.299 L 131.536 559.299 131.536 590.162 L 131.536 621.024 122.911 621.024 L 114.286 621.024 114.286 590.162 L 114.286 559.299 109.049 559.299 L 103.812 559.299 103.408 560.714 C 103.186 561.493,101.589 567.118,99.860 573.215 L 96.716 584.301 100.492 597.878 C 105.408 615.554,106.739 620.427,106.739 620.755 C 106.739 620.929,103.549 621.024,97.748 621.024 L 88.758 621.024 85.837 606.410 L 82.917 591.796 81.115 600.009 C 80.123 604.525,78.866 610.283,78.321 612.803 C 77.776 615.323,77.145 618.204,76.918 619.205 L 76.507 621.024 51.326 621.024 L 26.146 621.024 26.146 584.637 L 26.146 548.251 52.628 548.182 C 67.193 548.144,79.250 548.152,79.420 548.199 C 79.591 548.246,79.880 549.095,80.064 550.086 M314.038 548.248 L 331.267 548.248 331.267 553.774 L 331.267 559.299 322.372 559.299 L 313.477 559.299 313.477 567.251 L 313.477 575.202 322.102 575.202 L 330.728 575.202 330.728 580.728 L 330.728 586.253 322.102 586.253 L 313.477 586.253 313.477 597.844 C 313.477 604.218,313.447 609.525,313.410 609.636 C 313.373 609.747,317.436 609.870,322.439 609.909 L 331.536 609.980 331.536 615.502 L 331.536 621.024 313.747 621.024 L 295.957 621.024 295.957 584.473 C 295.957 551.253,295.996 547.936,296.383 548.084 C 296.618 548.174,304.562 548.248,314.038 548.248 M61.477 554.650 L 61.456 559.299 52.561 559.299 L 43.666 559.299 43.666 567.251 L 43.666 575.202 52.426 575.202 L 61.186 575.202 61.186 580.728 L 61.186 586.253 52.426 586.253 L 43.666 586.253 43.666 598.113 L 43.666 609.973 52.695 609.973 L 61.725 609.973 61.742 613.814 L 61.759 617.655 64.577 607.008 C 66.127 601.152,68.231 593.121,69.253 589.160 L 71.112 581.959 70.573 580.130 C 69.026 574.878,61.936 551.253,61.734 550.674 C 61.581 550.237,61.491 551.634,61.477 554.650 M159.838 567.887 L 159.838 577.358 161.407 577.358 C 166.816 577.358,168.813 574.118,168.380 566.038 C 168.078 560.391,166.776 558.811,162.206 558.551 L 159.838 558.416 159.838 567.887 " stroke="none" fill="#647b8b" fill-rule="evenodd"></path><path id="path2" d="M246.723 506.873 C 246.724 508.059,246.771 508.511,246.828 507.877 C 246.885 507.243,246.885 506.273,246.827 505.721 C 246.769 505.169,246.722 505.687,246.723 506.873 M86.450 508.820 C 86.928 508.879,87.777 508.880,88.336 508.822 C 88.896 508.764,88.504 508.715,87.466 508.714 C 86.429 508.713,85.971 508.760,86.450 508.820 M198.046 508.820 C 198.528 508.880,199.316 508.880,199.798 508.820 C 200.280 508.761,199.885 508.712,198.922 508.712 C 197.958 508.712,197.564 508.761,198.046 508.820 M155.340 523.046 C 155.341 523.935,155.391 524.267,155.451 523.782 C 155.511 523.298,155.510 522.570,155.449 522.165 C 155.387 521.760,155.338 522.156,155.340 523.046 M369.621 536.319 C 370.777 536.370,372.597 536.370,373.665 536.318 C 374.733 536.267,373.787 536.226,371.563 536.226 C 369.340 536.227,368.466 536.269,369.621 536.319 M303.639 540.162 L 301.213 540.329 303.556 540.380 C 304.885 540.409,305.970 540.315,306.065 540.162 C 306.156 540.013,306.194 539.915,306.148 539.943 C 306.102 539.971,304.973 540.070,303.639 540.162 M27.830 540.360 C 28.534 540.415,29.687 540.415,30.391 540.360 C 31.095 540.304,30.519 540.259,29.111 540.259 C 27.702 540.259,27.126 540.304,27.830 540.360 M253.437 540.360 C 254.141 540.415,255.293 540.415,255.997 540.360 C 256.701 540.304,256.125 540.259,254.717 540.259 C 253.309 540.259,252.732 540.304,253.437 540.360 M317.057 540.360 C 317.765 540.416,318.857 540.415,319.483 540.359 C 320.108 540.302,319.528 540.257,318.194 540.257 C 316.860 540.258,316.348 540.304,317.057 540.360 M366.105 540.363 C 367.847 540.410,370.697 540.410,372.439 540.363 C 374.181 540.316,372.756 540.278,369.272 540.278 C 365.788 540.278,364.363 540.316,366.105 540.363 M331.111 553.639 C 331.111 556.678,331.150 557.921,331.198 556.402 C 331.246 554.882,331.246 552.396,331.198 550.876 C 331.150 549.356,331.111 550.600,331.111 553.639 M352.022 570.216 C 352.524 570.735,352.997 571.159,353.071 571.159 C 353.145 571.159,352.794 570.735,352.291 570.216 C 351.788 569.697,351.316 569.272,351.242 569.272 C 351.168 569.272,351.519 569.697,352.022 570.216 M61.030 580.863 C 61.030 583.902,61.069 585.145,61.117 583.625 C 61.166 582.106,61.166 579.619,61.117 578.100 C 61.069 576.580,61.030 577.823,61.030 580.863 M332.197 592.795 C 332.125 592.983,332.100 596.046,332.143 599.601 L 332.220 606.065 332.283 599.397 L 332.345 592.730 340.768 592.655 L 349.191 592.580 340.760 592.516 C 334.146 592.467,332.300 592.527,332.197 592.795 M168.575 603.908 C 168.575 606.577,168.616 607.632,168.665 606.253 C 168.714 604.874,168.713 602.691,168.664 601.401 C 168.615 600.112,168.575 601.240,168.575 603.908 M375.555 601.213 C 375.557 602.102,375.607 602.434,375.667 601.949 C 375.727 601.465,375.726 600.737,375.664 600.332 C 375.603 599.927,375.554 600.323,375.555 601.213 M352.224 623.106 C 352.706 623.166,353.494 623.166,353.976 623.106 C 354.458 623.046,354.063 622.997,353.100 622.997 C 352.136 622.997,351.742 623.046,352.224 623.106 " stroke="none" fill="#9ba6af" fill-rule="evenodd"></path><path id="path3" d="M267.925 144.020 C 267.925 144.066,268.319 144.460,268.801 144.896 L 269.677 145.687 268.885 144.811 C 268.147 143.995,267.925 143.811,267.925 144.020 M154.926 162.192 C 155.560 162.249,156.531 162.248,157.083 162.191 C 157.635 162.133,157.116 162.086,155.930 162.087 C 154.744 162.088,154.292 162.135,154.926 162.192 M297.305 175.067 C 298.110 175.883,298.829 176.550,298.903 176.550 C 298.978 176.550,298.379 175.883,297.574 175.067 C 296.769 174.252,296.049 173.585,295.975 173.585 C 295.901 173.585,296.499 174.252,297.305 175.067 M305.997 229.578 C 306.701 229.634,307.854 229.634,308.558 229.578 C 309.262 229.523,308.686 229.477,307.278 229.477 C 305.869 229.477,305.293 229.523,305.997 229.578 M143.514 464.218 L 142.722 465.094 143.598 464.303 C 144.080 463.867,144.474 463.473,144.474 463.427 C 144.474 463.218,144.252 463.402,143.514 464.218 M146.159 504.229 C 146.418 504.297,146.843 504.297,147.102 504.229 C 147.362 504.161,147.150 504.106,146.631 504.106 C 146.112 504.106,145.900 504.161,146.159 504.229 M150.757 527.089 C 150.759 527.978,150.809 528.310,150.869 527.825 C 150.929 527.341,150.928 526.613,150.866 526.208 C 150.805 525.803,150.756 526.199,150.757 527.089 M309.511 529.580 C 310.369 529.633,311.703 529.633,312.476 529.578 C 313.249 529.524,312.547 529.480,310.916 529.481 C 309.286 529.481,308.653 529.526,309.511 529.580 M90.094 540.358 C 90.650 540.416,91.560 540.416,92.116 540.358 C 92.672 540.300,92.217 540.252,91.105 540.252 C 89.993 540.252,89.538 540.300,90.094 540.358 M202.096 540.359 C 202.730 540.416,203.700 540.416,204.252 540.358 C 204.804 540.300,204.286 540.253,203.100 540.254 C 201.914 540.255,201.462 540.302,202.096 540.359 M43.516 567.251 C 43.516 571.698,43.552 573.555,43.598 571.378 C 43.643 569.200,43.643 565.562,43.598 563.292 C 43.553 561.022,43.516 562.803,43.516 567.251 M142.718 590.162 C 142.718 607.210,142.750 614.145,142.790 605.572 C 142.829 596.999,142.829 583.051,142.790 574.575 C 142.750 566.099,142.718 573.113,142.718 590.162 M313.327 567.251 C 313.327 571.698,313.364 573.555,313.409 571.378 C 313.454 569.200,313.454 565.562,313.409 563.292 C 313.364 561.022,313.327 562.803,313.327 567.251 M375.318 568.059 C 375.318 571.469,375.357 572.827,375.404 571.076 C 375.451 569.326,375.450 566.536,375.403 564.877 C 375.356 563.218,375.318 564.650,375.318 568.059 M43.520 598.113 C 43.520 604.710,43.555 607.409,43.598 604.111 C 43.641 600.812,43.641 595.414,43.598 592.116 C 43.555 588.817,43.520 591.516,43.520 598.113 M313.331 597.844 C 313.331 604.292,313.366 606.931,313.409 603.706 C 313.452 600.482,313.452 595.206,313.409 591.981 C 313.366 588.757,313.331 591.395,313.331 597.844 M358.044 603.639 C 358.045 604.825,358.092 605.276,358.149 604.642 C 358.206 604.008,358.205 603.038,358.147 602.486 C 358.089 601.934,358.043 602.453,358.044 603.639 " stroke="none" fill="#7e8c99" fill-rule="evenodd"></path><path id="path4" d="M362.930 522.642 C 362.930 532.204,362.964 536.115,363.005 531.334 C 363.047 526.553,363.047 518.730,363.005 513.949 C 362.964 509.168,362.930 513.080,362.930 522.642 M142.395 522.507 C 142.397 523.248,142.450 523.519,142.511 523.110 C 142.573 522.700,142.572 522.093,142.508 521.762 C 142.444 521.430,142.393 521.765,142.395 522.507 M207.397 567.251 C 207.397 571.698,207.434 573.555,207.479 571.378 C 207.524 569.200,207.524 565.562,207.479 563.292 C 207.434 561.022,207.397 562.803,207.397 567.251 M337.736 580.408 C 337.736 580.454,338.130 580.848,338.612 581.284 L 339.488 582.075 338.696 581.199 C 337.958 580.383,337.736 580.200,337.736 580.408 M207.401 598.383 C 207.401 604.832,207.437 607.470,207.480 604.245 C 207.523 601.021,207.523 595.745,207.480 592.520 C 207.437 589.296,207.401 591.934,207.401 598.383 " stroke="none" fill="#b4b4bc" fill-rule="evenodd"></path><path id="path5" d="M375.562 538.275 C 375.562 539.387,375.610 539.842,375.668 539.286 C 375.726 538.730,375.726 537.820,375.668 537.264 C 375.610 536.708,375.562 537.163,375.562 538.275 M106.941 559.230 C 108.312 559.279,110.556 559.279,111.927 559.230 C 113.299 559.182,112.177 559.142,109.434 559.142 C 106.691 559.142,105.569 559.182,106.941 559.230 M331.381 615.633 C 331.381 618.673,331.420 619.916,331.468 618.396 C 331.516 616.877,331.516 614.390,331.468 612.871 C 331.420 611.351,331.381 612.594,331.381 615.633 " stroke="none" fill="#8393a4" fill-rule="evenodd"></path><path id="path6" d="M263.460 59.097 L 262.668 59.973 263.544 59.181 C 264.026 58.746,264.420 58.352,264.420 58.305 C 264.420 58.097,264.198 58.280,263.460 59.097 M179.987 125.797 C 180.320 125.861,180.866 125.861,181.199 125.797 C 181.533 125.732,181.260 125.680,180.593 125.680 C 179.926 125.680,179.653 125.732,179.987 125.797 M192.116 125.797 C 192.449 125.861,192.995 125.861,193.329 125.797 C 193.662 125.732,193.389 125.680,192.722 125.680 C 192.055 125.680,191.782 125.732,192.116 125.797 M299.666 229.301 C 300.002 229.366,300.487 229.363,300.744 229.296 C 301.002 229.228,300.728 229.175,300.135 229.178 C 299.542 229.181,299.331 229.237,299.666 229.301 M313.952 229.301 C 314.287 229.366,314.772 229.363,315.030 229.296 C 315.288 229.228,315.013 229.175,314.420 229.178 C 313.827 229.181,313.617 229.237,313.952 229.301 M159.687 404.919 L 158.895 405.795 159.771 405.003 C 160.587 404.266,160.771 404.043,160.563 404.043 C 160.516 404.043,160.122 404.437,159.687 404.919 M158.882 448.854 L 157.817 450.000 158.962 448.935 C 160.028 447.944,160.232 447.709,160.028 447.709 C 159.984 447.709,159.468 448.224,158.882 448.854 M147.709 459.973 C 146.604 461.085,145.761 461.995,145.836 461.995 C 145.910 461.995,146.874 461.085,147.978 459.973 C 149.083 458.861,149.926 457.951,149.852 457.951 C 149.778 457.951,148.813 458.861,147.709 459.973 M28.235 504.782 C 29.161 504.834,30.677 504.834,31.604 504.782 C 32.530 504.729,31.772 504.686,29.919 504.686 C 28.066 504.686,27.308 504.729,28.235 504.782 M87.668 504.783 C 88.817 504.833,90.697 504.833,91.846 504.783 C 92.995 504.732,92.055 504.691,89.757 504.691 C 87.460 504.691,86.520 504.732,87.668 504.783 M197.147 504.948 C 197.070 505.148,197.051 506.088,197.104 507.036 L 197.201 508.760 197.253 506.813 L 197.305 504.866 201.280 504.784 L 205.256 504.701 201.272 504.642 C 198.126 504.595,197.258 504.659,197.147 504.948 M254.638 504.782 L 262.242 504.860 262.337 506.810 L 262.433 508.760 262.416 506.739 L 262.399 504.717 254.717 504.710 L 247.035 504.704 254.638 504.782 M309.900 504.777 C 310.378 504.836,311.227 504.837,311.786 504.779 C 312.346 504.721,311.954 504.672,310.916 504.671 C 309.879 504.669,309.421 504.717,309.900 504.777 M364.084 504.780 C 364.714 504.836,365.745 504.836,366.375 504.780 C 367.005 504.723,366.489 504.676,365.229 504.676 C 363.969 504.676,363.454 504.723,364.084 504.780 M200.665 524.394 C 200.665 533.140,200.700 536.679,200.741 532.258 C 200.783 527.837,200.783 520.681,200.741 516.355 C 200.699 512.030,200.665 515.647,200.665 524.394 M137.534 519.003 C 137.537 519.596,137.592 519.807,137.657 519.471 C 137.721 519.136,137.719 518.651,137.652 518.393 C 137.584 518.135,137.531 518.410,137.534 519.003 M142.386 520.350 C 142.389 520.943,142.444 521.154,142.509 520.819 C 142.573 520.484,142.571 519.998,142.503 519.741 C 142.436 519.483,142.383 519.757,142.386 520.350 M146.723 523.585 C 146.724 524.771,146.771 525.223,146.828 524.589 C 146.885 523.955,146.885 522.984,146.827 522.432 C 146.769 521.880,146.722 522.399,146.723 523.585 M142.386 524.663 C 142.389 525.256,142.444 525.467,142.509 525.132 C 142.573 524.796,142.571 524.311,142.503 524.053 C 142.436 523.796,142.383 524.070,142.386 524.663 M137.529 526.146 C 137.529 526.664,137.584 526.877,137.652 526.617 C 137.720 526.358,137.720 525.933,137.652 525.674 C 137.584 525.414,137.529 525.627,137.529 526.146 M308.962 533.354 C 309.963 533.405,311.600 533.405,312.601 533.354 C 313.602 533.302,312.783 533.259,310.782 533.259 C 308.780 533.259,307.962 533.302,308.962 533.354 M190.158 583.962 C 190.158 603.679,190.190 611.706,190.229 601.798 C 190.268 591.891,190.268 575.759,190.229 565.949 C 190.190 556.139,190.158 564.245,190.158 583.962 M61.186 554.174 L 61.186 559.022 52.358 559.097 L 43.531 559.172 52.493 559.236 L 61.456 559.299 61.456 554.313 C 61.456 551.570,61.395 549.326,61.321 549.326 C 61.247 549.326,61.186 551.508,61.186 554.174 M131.391 559.367 C 131.321 559.552,131.295 573.531,131.333 590.431 L 131.404 621.159 131.470 590.235 L 131.536 559.310 137.129 559.231 L 142.722 559.153 137.121 559.091 C 132.842 559.044,131.489 559.109,131.391 559.367 M211.927 559.231 C 214.410 559.276,218.474 559.276,220.957 559.231 C 223.440 559.187,221.408 559.150,216.442 559.150 C 211.476 559.150,209.444 559.187,211.927 559.231 M317.874 559.231 C 320.367 559.276,324.370 559.276,326.769 559.231 C 329.169 559.187,327.129 559.150,322.237 559.150 C 317.345 559.150,315.382 559.187,317.874 559.231 M358.336 568.464 C 358.336 571.651,358.375 572.955,358.422 571.361 C 358.470 569.768,358.470 567.160,358.422 565.566 C 358.375 563.972,358.336 565.276,358.336 568.464 M185.795 564.960 C 185.795 565.775,185.846 566.108,185.907 565.701 C 185.969 565.293,185.969 564.626,185.907 564.218 C 185.846 563.811,185.795 564.144,185.795 564.960 M47.793 575.404 C 50.286 575.448,54.289 575.448,56.688 575.404 C 59.088 575.359,57.049 575.323,52.156 575.323 C 47.264 575.323,45.301 575.359,47.793 575.404 M216.100 575.402 L 224.787 575.479 224.868 580.934 L 224.950 586.388 224.941 580.863 L 224.933 575.337 216.173 575.331 L 207.412 575.325 216.100 575.402 M317.605 575.404 C 320.097 575.448,324.100 575.448,326.500 575.404 C 328.899 575.359,326.860 575.323,321.968 575.323 C 317.075 575.323,315.112 575.359,317.605 575.404 M368.868 585.984 C 369.748 586.873,370.529 587.601,370.603 587.601 C 370.677 587.601,370.018 586.873,369.137 585.984 C 368.257 585.094,367.476 584.367,367.402 584.367 C 367.328 584.367,367.988 585.094,368.868 585.984 M349.174 599.461 C 349.174 603.241,349.212 604.788,349.258 602.898 C 349.304 601.007,349.304 597.914,349.258 596.024 C 349.212 594.134,349.174 595.681,349.174 599.461 M185.562 600.404 C 185.562 604.259,185.600 605.798,185.646 603.825 C 185.692 601.852,185.692 598.698,185.646 596.817 C 185.600 594.936,185.562 596.550,185.562 600.404 M354.447 595.822 C 355.253 596.637,355.972 597.305,356.046 597.305 C 356.120 597.305,355.522 596.637,354.717 595.822 C 353.912 595.007,353.192 594.340,353.118 594.340 C 353.044 594.340,353.642 595.007,354.447 595.822 M52.493 610.173 L 61.456 610.250 61.460 614.492 C 61.462 616.824,61.553 618.594,61.662 618.424 C 61.771 618.254,61.799 616.313,61.725 614.111 L 61.590 610.108 52.561 610.102 L 43.531 610.097 52.493 610.173 M212.736 610.175 C 215.664 610.218,220.455 610.218,223.383 610.175 C 226.311 610.131,223.915 610.096,218.059 610.096 C 212.204 610.096,209.808 610.131,212.736 610.175 M317.857 610.175 C 320.340 610.219,324.404 610.219,326.887 610.175 C 329.370 610.130,327.338 610.094,322.372 610.094 C 317.406 610.094,315.374 610.130,317.857 610.175 M335.580 616.796 C 335.580 616.842,335.974 617.237,336.456 617.672 L 337.332 618.464 336.540 617.588 C 335.802 616.771,335.580 616.588,335.580 616.796 " stroke="none" fill="#acbccc" fill-rule="evenodd"></path></g></svg>