<svg id="svg" version="1.1" xmlns="http://www.w3.org/2000/svg" xmlns:xlink="http://www.w3.org/1999/xlink" width="400" height="400" viewBox="0, 0, 400,400"><g id="svgg"><path id="path0" d="M179.000 120.018 C 173.720 120.215,168.196 120.562,166.723 120.788 C 165.251 121.015,163.112 121.200,161.969 121.200 C 160.827 121.200,158.791 121.377,157.446 121.593 C 154.746 122.027,149.800 122.748,146.400 123.202 C 137.978 124.326,129.416 126.812,122.200 130.227 C 114.464 133.889,107.724 141.678,104.569 150.600 C 104.180 151.700,103.736 152.780,103.581 153.000 C 103.427 153.220,103.196 153.940,103.069 154.600 C 102.942 155.260,102.548 156.970,102.194 158.400 C 100.757 164.206,100.630 167.361,100.615 197.600 C 100.599 230.350,100.698 232.154,103.133 243.400 C 103.714 246.079,106.426 253.618,107.510 255.566 C 108.072 256.575,108.883 258.030,109.312 258.800 C 111.272 262.319,116.301 267.426,119.376 269.021 C 119.922 269.305,120.871 269.805,121.485 270.132 C 122.098 270.460,123.320 271.023,124.200 271.384 C 125.080 271.744,126.113 272.210,126.495 272.419 C 126.877 272.629,127.516 272.800,127.915 272.800 C 128.314 272.800,128.811 272.955,129.020 273.145 C 129.405 273.494,131.677 274.173,134.600 274.814 C 135.480 275.007,137.460 275.450,139.000 275.799 C 141.932 276.463,143.631 276.741,151.200 277.796 C 155.854 278.444,159.174 278.765,170.400 279.651 C 178.688 280.306,224.809 280.296,234.600 279.638 C 247.909 278.743,254.731 278.089,260.000 277.203 C 266.445 276.119,267.564 275.913,270.200 275.324 C 282.572 272.558,289.642 267.575,293.360 259.000 C 293.742 258.120,294.215 257.040,294.412 256.600 C 294.608 256.160,295.062 254.810,295.420 253.600 C 295.779 252.390,296.223 251.040,296.409 250.600 C 296.594 250.160,296.841 249.260,296.958 248.600 C 297.075 247.940,297.449 245.960,297.789 244.200 C 299.037 237.737,299.301 233.449,299.473 216.900 L 299.647 200.000 248.256 200.000 C 219.991 200.000,196.581 200.109,196.233 200.243 C 195.687 200.452,195.600 201.521,195.600 208.043 L 195.600 215.600 234.151 215.600 C 268.108 215.600,272.762 215.672,273.205 216.206 C 274.295 217.519,273.033 239.346,271.581 244.300 C 271.371 245.015,270.999 246.275,270.754 247.100 C 268.720 253.939,265.352 257.908,259.800 260.006 C 257.376 260.922,256.784 261.070,251.000 262.204 C 231.829 265.962,173.619 265.394,150.200 261.221 C 146.880 260.629,144.222 259.937,143.820 259.558 C 143.611 259.361,143.133 259.200,142.757 259.200 C 140.336 259.200,134.229 254.273,132.505 250.929 C 130.199 246.456,130.211 246.485,129.493 244.000 C 127.023 235.450,126.806 232.336,126.807 205.400 C 126.808 172.216,127.399 162.779,129.951 155.200 C 132.847 146.599,137.937 141.191,144.446 139.797 C 145.191 139.638,145.980 139.370,146.200 139.201 C 146.420 139.033,147.230 138.795,148.000 138.674 C 148.770 138.553,150.930 138.157,152.800 137.795 C 161.150 136.178,182.423 134.793,198.823 134.797 C 209.920 134.801,238.826 135.865,242.477 136.404 C 243.949 136.622,245.960 136.800,246.946 136.800 C 251.582 136.800,260.879 139.258,263.875 141.276 C 269.079 144.781,272.000 152.193,272.000 161.891 C 272.000 164.115,272.109 166.219,272.243 166.567 C 272.603 167.507,298.029 167.529,298.808 166.590 C 300.169 164.950,298.491 148.899,296.382 143.400 C 293.302 135.365,284.237 126.400,279.192 126.400 C 278.933 126.400,278.154 126.155,277.460 125.856 C 276.365 125.383,273.726 124.707,269.400 123.789 C 263.656 122.572,251.344 121.242,238.200 120.419 C 229.400 119.868,190.130 119.602,179.000 120.018 " stroke="none" fill="#fafafa" fill-rule="evenodd"></path><path id="path1" d="M0.000 200.000 L 0.000 400.000 200.000 400.000 L 400.000 400.000 400.000 200.000 L 400.000 0.000 200.000 0.000 L 0.000 0.000 0.000 200.000 M241.400 119.531 C 245.580 119.750,249.720 120.121,250.600 120.355 C 251.480 120.589,253.674 120.785,255.476 120.790 C 257.278 120.796,258.864 120.980,259.000 121.200 C 259.136 121.420,260.452 121.603,261.924 121.606 C 263.396 121.609,265.320 121.871,266.200 122.188 C 267.080 122.505,268.529 122.773,269.420 122.782 C 270.311 122.792,271.211 122.962,271.420 123.159 C 271.629 123.356,272.520 123.602,273.400 123.705 C 274.934 123.884,277.021 124.519,278.495 125.254 C 278.877 125.444,279.492 125.600,279.863 125.600 C 280.470 125.600,284.158 127.296,286.200 128.514 C 287.798 129.467,293.838 135.842,294.686 137.471 C 296.197 140.371,296.298 140.578,296.698 141.600 C 296.913 142.150,297.384 143.281,297.745 144.114 C 298.105 144.946,298.400 146.125,298.400 146.734 C 298.400 147.342,298.565 148.011,298.768 148.220 C 298.970 148.429,299.225 149.770,299.335 151.200 C 299.444 152.630,299.716 154.790,299.938 156.000 C 300.617 159.703,300.514 167.029,299.771 167.771 C 299.225 168.318,297.378 168.400,285.594 168.400 C 269.167 168.400,270.806 169.262,270.786 160.611 C 270.775 156.155,270.624 154.341,270.200 153.600 C 269.886 153.050,269.622 152.015,269.614 151.300 C 269.606 150.585,269.420 150.000,269.200 150.000 C 268.980 150.000,268.800 149.745,268.800 149.432 C 268.800 148.665,267.602 146.474,266.500 145.227 C 266.005 144.667,265.600 144.095,265.600 143.957 C 265.600 143.348,260.656 140.400,259.634 140.400 C 259.263 140.400,258.748 140.188,258.490 139.930 C 257.995 139.435,255.783 138.998,250.800 138.411 C 249.150 138.216,246.830 137.864,245.645 137.629 C 244.460 137.393,241.481 137.200,239.025 137.200 C 236.217 137.200,234.391 137.031,234.104 136.744 C 233.416 136.056,170.623 136.017,169.936 136.704 C 169.603 137.037,168.032 137.200,165.170 137.200 C 162.397 137.200,160.304 137.410,159.200 137.800 C 158.265 138.130,156.453 138.400,155.173 138.400 C 153.894 138.400,152.736 138.580,152.600 138.800 C 152.464 139.020,151.508 139.206,150.476 139.213 C 149.444 139.220,148.251 139.490,147.824 139.813 C 147.396 140.136,146.552 140.400,145.947 140.400 C 145.342 140.400,144.736 140.580,144.600 140.800 C 144.464 141.020,144.051 141.200,143.682 141.200 C 140.655 141.200,134.834 146.251,132.850 150.600 C 132.549 151.260,132.054 152.278,131.751 152.862 C 131.448 153.446,131.200 154.290,131.200 154.738 C 131.200 155.186,131.020 155.664,130.800 155.800 C 130.580 155.936,130.394 156.622,130.386 157.324 C 130.378 158.026,130.114 159.050,129.800 159.600 C 129.486 160.150,129.222 161.467,129.214 162.526 C 129.206 163.586,129.037 164.756,128.839 165.128 C 128.010 166.676,127.415 217.125,128.106 227.200 C 128.781 237.043,129.222 240.547,129.959 241.923 C 130.201 242.376,130.400 243.122,130.400 243.579 C 130.400 244.037,130.555 244.723,130.745 245.105 C 130.934 245.487,131.605 246.880,132.236 248.200 C 134.237 252.391,136.988 255.544,139.867 256.946 C 140.710 257.357,141.878 257.942,142.462 258.246 C 143.046 258.551,143.980 258.800,144.538 258.800 C 145.096 258.800,145.664 258.980,145.800 259.200 C 145.936 259.420,146.678 259.600,147.450 259.600 C 148.221 259.600,149.246 259.811,149.726 260.068 C 150.654 260.565,153.629 260.993,160.306 261.592 C 162.564 261.794,164.634 262.104,164.906 262.280 C 167.297 263.829,240.214 263.611,245.197 262.040 C 245.966 261.798,247.530 261.600,248.674 261.600 C 249.817 261.600,250.864 261.420,251.000 261.200 C 251.136 260.980,252.002 260.799,252.924 260.798 C 253.846 260.796,255.116 260.526,255.746 260.198 C 256.376 259.869,257.233 259.600,257.651 259.600 C 258.069 259.600,258.723 259.441,259.105 259.248 C 259.487 259.054,260.644 258.507,261.676 258.032 C 263.462 257.209,266.400 254.695,266.400 253.989 C 266.400 253.806,266.625 253.416,266.900 253.121 C 267.701 252.263,268.800 250.132,268.800 249.438 C 268.800 249.087,268.980 248.800,269.200 248.800 C 269.420 248.800,269.600 248.338,269.600 247.774 C 269.600 247.209,269.813 246.354,270.074 245.874 C 271.259 243.687,272.781 229.821,272.793 221.100 L 272.800 216.400 233.800 216.400 L 194.800 216.400 194.800 208.080 C 194.800 202.142,194.937 199.623,195.280 199.280 C 195.977 198.583,299.223 198.583,299.920 199.280 C 300.586 199.946,300.607 234.774,299.942 236.803 C 299.690 237.571,299.344 239.550,299.171 241.200 C 298.729 245.444,298.155 248.562,297.641 249.523 C 297.399 249.976,297.200 250.799,297.200 251.350 C 297.200 251.902,297.020 252.464,296.800 252.600 C 296.580 252.736,296.400 253.272,296.400 253.791 C 296.400 254.310,296.147 255.245,295.837 255.868 C 295.527 256.490,295.094 257.450,294.873 258.000 C 293.960 260.280,294.129 259.958,292.029 263.406 C 289.931 266.848,283.614 272.400,281.794 272.400 C 281.467 272.400,281.200 272.580,281.200 272.800 C 281.200 273.020,280.885 273.206,280.500 273.213 C 280.115 273.220,279.451 273.490,279.024 273.813 C 278.596 274.136,277.741 274.400,277.124 274.400 C 276.506 274.400,276.000 274.580,276.000 274.800 C 276.000 275.020,275.562 275.200,275.026 275.200 C 274.490 275.200,273.545 275.406,272.926 275.658 C 271.797 276.117,269.704 276.549,265.600 277.169 C 264.390 277.352,262.771 277.703,262.003 277.951 C 261.234 278.198,259.580 278.400,258.326 278.400 C 257.073 278.400,255.936 278.580,255.800 278.800 C 255.664 279.020,254.168 279.200,252.476 279.200 C 250.784 279.200,247.989 279.470,246.265 279.800 C 244.354 280.166,240.809 280.400,237.188 280.400 C 233.659 280.400,231.147 280.562,231.000 280.800 C 230.839 281.061,220.804 281.200,202.200 281.200 C 183.596 281.200,173.561 281.061,173.400 280.800 C 173.256 280.567,171.008 280.400,168.012 280.400 C 165.102 280.400,161.509 280.140,159.735 279.800 C 158.011 279.470,155.396 279.200,153.924 279.200 C 152.452 279.200,151.136 279.020,151.000 278.800 C 150.864 278.580,149.548 278.399,148.076 278.398 C 146.485 278.396,144.936 278.153,144.254 277.798 C 143.624 277.469,142.240 277.200,141.178 277.200 C 140.116 277.200,139.136 277.020,139.000 276.800 C 138.864 276.580,137.998 276.394,137.076 276.386 C 136.154 276.378,134.950 276.114,134.400 275.800 C 133.850 275.486,132.815 275.222,132.100 275.214 C 131.385 275.206,130.800 275.020,130.800 274.800 C 130.800 274.580,130.275 274.400,129.632 274.400 C 128.990 274.400,127.955 274.147,127.332 273.837 C 126.710 273.527,125.750 273.110,125.200 272.910 C 119.381 270.790,109.600 263.325,109.600 261.003 C 109.600 260.671,109.441 260.400,109.247 260.400 C 109.052 260.400,108.781 260.085,108.644 259.700 C 108.506 259.315,107.861 258.100,107.209 257.000 C 106.053 255.048,105.855 254.650,105.219 253.000 C 105.050 252.560,104.616 251.519,104.255 250.686 C 103.895 249.854,103.600 248.729,103.600 248.186 C 103.600 247.644,103.420 247.200,103.200 247.200 C 102.980 247.200,102.794 246.615,102.786 245.900 C 102.778 245.185,102.514 244.150,102.200 243.600 C 101.886 243.050,101.622 241.871,101.614 240.980 C 101.606 240.089,101.435 239.189,101.232 238.980 C 101.030 238.771,100.784 237.430,100.686 236.000 C 100.588 234.570,100.307 232.680,100.063 231.800 C 99.306 229.073,99.433 165.773,100.200 163.600 C 100.530 162.665,100.800 161.123,100.800 160.173 C 100.800 159.224,100.961 158.348,101.158 158.226 C 101.355 158.105,101.600 157.329,101.704 156.503 C 101.886 155.047,102.542 152.932,103.254 151.505 C 103.444 151.123,103.600 150.565,103.600 150.265 C 103.600 149.965,104.050 148.873,104.600 147.838 C 105.150 146.804,105.600 145.697,105.600 145.379 C 105.600 145.060,105.777 144.800,105.992 144.800 C 106.208 144.800,106.498 144.350,106.636 143.800 C 106.774 143.250,107.047 142.800,107.243 142.800 C 107.440 142.800,107.600 142.608,107.600 142.373 C 107.600 141.289,116.611 131.600,117.619 131.600 C 117.820 131.600,118.969 130.970,120.173 130.200 C 121.377 129.430,122.536 128.800,122.748 128.800 C 122.961 128.800,123.645 128.547,124.268 128.237 C 124.890 127.927,125.850 127.502,126.400 127.292 C 126.950 127.083,128.081 126.616,128.914 126.255 C 129.746 125.895,130.860 125.600,131.390 125.600 C 131.920 125.600,132.464 125.420,132.600 125.200 C 132.736 124.980,133.422 124.794,134.124 124.786 C 134.826 124.778,135.850 124.514,136.400 124.200 C 136.950 123.886,138.154 123.622,139.076 123.614 C 139.998 123.606,140.864 123.420,141.000 123.200 C 141.136 122.980,142.116 122.800,143.178 122.800 C 144.240 122.800,145.624 122.531,146.254 122.202 C 146.936 121.847,148.485 121.604,150.076 121.602 C 151.548 121.601,152.864 121.420,153.000 121.200 C 153.136 120.980,154.452 120.800,155.924 120.800 C 157.396 120.800,160.011 120.530,161.735 120.200 C 163.509 119.860,167.102 119.600,170.012 119.600 C 173.051 119.600,175.255 119.434,175.403 119.195 C 175.720 118.682,230.530 118.961,241.400 119.531 " stroke="none" fill="#24345c" fill-rule="evenodd"></path><path id="path2" d="M183.600 119.578 C 181.290 119.700,190.470 119.800,204.000 119.800 C 217.530 119.800,226.170 119.686,223.200 119.547 C 216.731 119.244,189.520 119.266,183.600 119.578 M167.400 120.266 C 166.960 120.352,164.890 120.587,162.800 120.788 L 159.000 121.154 163.200 120.940 C 165.510 120.822,169.200 120.593,171.400 120.430 L 175.400 120.134 171.800 120.122 C 169.820 120.115,167.840 120.180,167.400 120.266 M238.800 120.405 C 246.968 120.965,252.687 121.186,249.200 120.807 C 247.550 120.628,243.500 120.393,240.200 120.285 C 234.650 120.105,234.545 120.113,238.800 120.405 M154.800 121.600 L 153.400 121.895 155.000 121.900 C 155.880 121.903,157.140 121.768,157.800 121.600 L 159.000 121.295 157.600 121.300 C 156.830 121.303,155.570 121.438,154.800 121.600 M253.800 121.579 C 255.016 121.910,258.673 122.126,258.367 121.849 C 258.275 121.766,256.940 121.598,255.400 121.475 C 253.634 121.335,253.043 121.373,253.800 121.579 M149.541 122.193 C 149.435 122.299,148.370 122.562,147.174 122.779 L 145.000 123.173 147.200 122.976 C 148.410 122.868,150.210 122.627,151.200 122.440 L 153.000 122.100 151.367 122.050 C 150.468 122.023,149.647 122.087,149.541 122.193 M261.200 122.474 C 265.389 123.163,268.338 123.272,265.000 122.615 C 263.460 122.311,261.480 122.074,260.600 122.088 C 259.131 122.111,259.181 122.142,261.200 122.474 M142.200 123.600 L 141.400 123.944 142.200 123.944 C 142.640 123.944,143.360 123.789,143.800 123.600 L 144.600 123.256 143.800 123.256 C 143.360 123.256,142.640 123.411,142.200 123.600 M268.400 123.600 C 268.730 123.813,269.450 123.973,270.000 123.954 L 271.000 123.920 270.000 123.600 C 268.458 123.106,267.636 123.106,268.400 123.600 M137.200 124.620 C 136.210 124.904,135.760 125.142,136.200 125.150 C 136.640 125.158,137.900 124.915,139.000 124.609 C 140.100 124.304,140.550 124.065,140.000 124.079 C 139.450 124.093,138.190 124.336,137.200 124.620 M273.200 124.590 C 274.190 124.919,275.360 125.172,275.800 125.153 C 276.682 125.115,274.529 124.452,272.600 124.169 C 271.817 124.054,272.026 124.200,273.200 124.590 M133.400 125.600 L 132.600 125.944 133.400 125.966 C 133.840 125.978,134.470 125.813,134.800 125.600 C 135.595 125.086,134.596 125.086,133.400 125.600 M276.981 125.569 C 277.106 125.772,277.792 126.063,278.505 126.216 C 279.217 126.369,280.509 126.833,281.375 127.247 C 283.139 128.090,283.543 128.183,282.972 127.612 C 282.661 127.301,277.353 125.200,276.878 125.200 C 276.809 125.200,276.855 125.366,276.981 125.569 M130.000 126.625 C 129.230 126.916,128.894 127.165,129.254 127.177 C 129.614 127.190,130.514 126.937,131.254 126.616 C 132.920 125.892,131.916 125.900,130.000 126.625 M124.042 128.837 C 123.075 129.266,122.403 129.736,122.548 129.882 C 122.694 130.027,123.026 129.934,123.287 129.673 C 123.547 129.413,124.039 129.194,124.380 129.187 C 124.721 129.180,125.349 128.910,125.776 128.587 C 126.820 127.798,126.173 127.891,124.042 128.837 M286.237 129.940 C 290.754 133.113,294.183 137.542,296.003 142.555 C 296.234 143.191,296.515 143.618,296.628 143.505 C 297.971 142.162,290.129 131.777,285.708 129.045 C 282.963 127.350,283.258 127.848,286.237 129.940 M116.800 133.131 C 113.491 135.574,110.208 139.203,107.850 143.023 C 105.160 147.383,105.585 147.127,108.633 142.552 C 111.412 138.382,114.548 135.032,117.700 132.867 C 119.310 131.761,119.940 131.179,119.500 131.206 C 119.445 131.209,118.230 132.076,116.800 133.131 M184.400 135.095 C 183.190 135.175,179.410 135.398,176.000 135.590 C 170.731 135.885,171.062 135.897,178.200 135.669 C 188.917 135.326,209.081 135.325,223.200 135.666 L 234.200 135.932 222.400 135.407 C 211.561 134.924,189.651 134.744,184.400 135.095 M163.000 136.421 C 162.243 136.627,162.834 136.665,164.600 136.525 C 166.140 136.402,167.475 136.234,167.567 136.151 C 167.873 135.874,164.216 136.090,163.000 136.421 M239.400 136.418 C 242.264 136.865,244.931 136.830,242.400 136.380 C 241.410 136.203,239.880 136.070,239.000 136.083 C 237.441 136.106,237.452 136.115,239.400 136.418 M154.800 137.451 L 152.600 137.991 154.800 137.749 C 156.010 137.617,157.900 137.374,159.000 137.211 L 161.000 136.913 159.000 136.912 C 157.900 136.911,156.010 137.153,154.800 137.451 M246.800 137.188 C 252.375 137.871,254.415 138.012,252.400 137.576 C 251.410 137.362,249.160 137.115,247.400 137.028 C 244.203 136.869,244.202 136.869,246.800 137.188 M149.600 138.400 C 148.813 138.909,150.216 138.909,151.400 138.400 C 152.133 138.085,152.116 138.054,151.200 138.034 C 150.650 138.022,149.930 138.187,149.600 138.400 M255.000 138.400 C 255.440 138.589,256.160 138.744,256.600 138.744 L 257.400 138.744 256.600 138.400 C 256.160 138.211,255.440 138.056,255.000 138.056 L 254.200 138.056 255.000 138.400 M146.180 139.161 C 145.971 139.360,145.440 139.623,145.000 139.747 C 144.527 139.880,144.609 139.905,145.200 139.808 C 145.750 139.718,146.830 139.473,147.600 139.263 L 149.000 138.882 147.780 138.841 C 147.109 138.818,146.389 138.963,146.180 139.161 M259.000 139.412 C 261.073 140.158,261.794 140.140,260.054 139.384 C 259.314 139.063,258.414 138.808,258.054 138.818 C 257.694 138.827,258.120 139.095,259.000 139.412 M261.600 140.190 C 261.600 140.294,262.163 140.670,262.850 141.026 C 264.511 141.885,267.433 144.928,268.250 146.648 C 268.610 147.407,268.986 147.948,269.085 147.849 C 269.682 147.251,266.168 142.830,263.803 141.202 C 262.102 140.031,261.600 139.801,261.600 140.190 M139.400 141.966 C 135.743 144.083,130.737 150.480,130.815 152.937 C 130.823 153.192,131.208 152.590,131.670 151.600 C 133.595 147.479,138.433 142.050,140.236 141.987 C 140.729 141.970,142.252 140.799,141.776 140.804 C 141.569 140.806,140.500 141.329,139.400 141.966 M296.824 144.400 C 296.817 144.730,297.071 145.720,297.388 146.600 C 297.705 147.480,297.970 147.930,297.976 147.600 C 297.983 147.270,297.729 146.280,297.412 145.400 C 297.095 144.520,296.830 144.070,296.824 144.400 M104.665 149.084 C 104.535 149.478,104.160 150.513,103.832 151.385 C 103.504 152.256,103.313 153.046,103.407 153.140 C 103.501 153.234,103.767 152.791,104.000 152.155 C 104.232 151.520,104.621 150.499,104.865 149.887 C 105.108 149.275,105.216 148.683,105.105 148.571 C 104.993 148.460,104.795 148.690,104.665 149.084 M298.080 149.200 C 298.080 149.750,298.224 150.650,298.400 151.200 L 298.720 152.200 298.720 151.200 C 298.720 150.650,298.576 149.750,298.400 149.200 L 298.080 148.200 298.080 149.200 M270.237 151.000 C 270.388 151.660,270.647 152.830,270.810 153.600 L 271.108 155.000 271.154 153.746 C 271.179 153.056,270.921 151.886,270.580 151.146 C 269.971 149.824,269.965 149.821,270.237 151.000 M299.106 159.290 C 299.263 164.351,299.191 166.129,298.808 166.590 C 298.190 167.335,272.629 167.527,272.263 166.790 C 272.151 166.565,272.106 166.610,272.163 166.890 C 272.305 167.589,298.222 167.846,299.052 167.157 C 299.661 166.651,299.732 160.976,299.197 155.600 C 299.017 153.799,298.981 155.274,299.106 159.290 M102.701 154.600 C 102.006 157.898,101.995 158.136,102.610 156.473 C 102.961 155.523,103.182 154.443,103.101 154.073 C 103.010 153.656,102.858 153.856,102.701 154.600 M271.477 157.600 C 271.603 159.030,271.772 160.275,271.853 160.367 C 272.142 160.695,271.914 156.980,271.584 156.000 C 271.374 155.373,271.334 155.970,271.477 157.600 M129.299 157.190 C 129.024 158.068,128.812 159.195,128.826 159.694 C 128.841 160.192,129.115 159.623,129.436 158.430 C 130.126 155.862,130.018 154.885,129.299 157.190 M101.422 159.822 C 101.272 160.625,101.238 161.372,101.348 161.482 C 101.458 161.592,101.672 161.025,101.822 160.222 C 101.973 159.419,102.006 158.673,101.896 158.563 C 101.786 158.453,101.573 159.019,101.422 159.822 M128.273 161.753 C 128.123 162.145,128.016 162.946,128.036 163.533 C 128.070 164.528,128.098 164.509,128.457 163.263 C 128.873 161.819,128.723 160.582,128.273 161.753 M100.466 166.200 C 99.825 171.018,100.044 227.780,100.720 231.800 L 101.123 234.200 100.931 231.600 C 100.454 225.138,100.351 169.741,100.811 167.200 C 101.070 165.770,101.218 164.060,101.140 163.400 C 101.060 162.723,100.767 163.943,100.466 166.200 M127.444 167.869 C 126.834 175.212,126.770 229.002,127.366 233.000 C 127.694 235.200,127.869 236.010,127.754 234.800 C 127.273 229.735,127.151 184.638,127.592 175.259 C 128.026 166.065,127.942 161.881,127.444 167.869 M195.292 207.900 L 195.400 215.800 234.200 216.000 L 273.000 216.200 273.218 221.600 L 273.436 227.000 273.518 221.780 C 273.575 218.155,273.453 216.413,273.120 216.080 C 272.753 215.713,263.547 215.600,234.120 215.600 L 195.600 215.600 195.600 208.033 C 195.600 202.354,195.725 200.416,196.100 200.265 C 196.396 200.146,196.310 200.050,195.892 200.032 C 195.233 200.002,195.191 200.556,195.292 207.900 M299.517 217.000 C 299.361 226.460,299.146 235.370,299.039 236.800 C 298.933 238.230,299.106 237.330,299.424 234.800 C 299.859 231.348,299.978 226.405,299.902 215.000 L 299.800 199.800 299.517 217.000 M272.692 232.400 C 272.522 235.370,272.305 238.700,272.208 239.800 C 272.112 240.900,272.301 240.270,272.628 238.400 C 272.968 236.458,273.175 233.285,273.111 231.000 L 273.000 227.000 272.692 232.400 M101.268 235.600 C 101.287 237.250,101.917 238.956,101.932 237.400 C 101.938 236.740,101.789 235.840,101.600 235.400 C 101.287 234.673,101.257 234.691,101.268 235.600 M128.056 238.200 C 128.056 238.640,128.211 239.360,128.400 239.800 L 128.744 240.600 128.744 239.800 C 128.744 239.360,128.589 238.640,128.400 238.200 L 128.056 237.400 128.056 238.200 M102.064 239.600 C 102.048 240.150,102.301 241.500,102.625 242.600 C 103.032 243.978,103.150 244.165,103.005 243.200 C 102.596 240.475,102.093 238.553,102.064 239.600 M298.219 241.527 C 298.055 242.477,298.017 243.350,298.134 243.468 C 298.426 243.759,298.926 240.973,298.700 240.321 C 298.600 240.035,298.384 240.577,298.219 241.527 M128.846 241.325 C 128.786 242.262,129.995 246.080,130.517 246.600 C 130.785 246.867,130.821 246.734,130.627 246.200 C 130.034 244.573,129.262 242.177,129.080 241.400 C 128.920 240.714,128.886 240.704,128.846 241.325 M271.429 243.029 C 271.281 243.615,271.251 244.184,271.361 244.294 C 271.471 244.404,271.681 244.015,271.829 243.429 C 271.976 242.842,272.006 242.273,271.896 242.163 C 271.786 242.053,271.576 242.442,271.429 243.029 M297.483 245.700 C 296.822 249.209,296.791 250.217,297.414 248.007 C 297.753 246.801,297.971 245.451,297.898 245.007 C 297.813 244.489,297.664 244.737,297.483 245.700 M103.212 245.200 C 103.212 245.530,103.387 246.070,103.600 246.400 C 103.945 246.933,103.988 246.933,103.988 246.400 C 103.988 246.070,103.813 245.530,103.600 245.200 C 103.255 244.667,103.212 244.667,103.212 245.200 M270.712 246.000 C 270.576 246.550,270.350 247.450,270.210 248.000 C 270.052 248.622,270.197 248.479,270.592 247.621 C 270.942 246.862,271.168 245.962,271.094 245.621 C 271.010 245.231,270.868 245.372,270.712 246.000 M104.000 247.439 C 104.000 248.003,105.528 252.066,105.848 252.351 C 106.002 252.488,105.994 252.240,105.831 251.800 C 105.669 251.360,105.260 250.190,104.924 249.200 C 104.295 247.349,104.000 246.787,104.000 247.439 M130.800 247.510 C 130.800 247.996,132.375 250.800,132.648 250.800 C 132.805 250.800,131.283 247.600,130.951 247.233 C 130.868 247.142,130.800 247.266,130.800 247.510 M296.247 250.843 C 296.153 251.149,295.779 252.365,295.415 253.544 C 295.052 254.723,294.828 255.761,294.917 255.850 C 295.005 255.939,295.463 254.806,295.933 253.333 C 296.404 251.860,296.705 250.572,296.604 250.470 C 296.502 250.369,296.342 250.536,296.247 250.843 M268.050 252.587 C 266.773 254.996,263.819 257.836,261.503 258.882 C 260.460 259.354,259.675 259.809,259.759 259.893 C 260.950 261.083,269.708 252.925,269.123 251.170 C 269.055 250.966,268.572 251.603,268.050 252.587 M132.813 251.497 C 132.770 253.109,140.699 259.246,142.737 259.178 C 143.102 259.165,142.680 258.848,141.800 258.473 C 138.321 256.991,136.554 255.589,133.639 252.000 C 133.192 251.450,132.821 251.223,132.813 251.497 M106.015 253.200 C 106.021 253.530,106.290 254.149,106.613 254.576 C 107.368 255.575,107.363 255.205,106.602 253.746 C 106.274 253.116,106.010 252.870,106.015 253.200 M107.697 256.734 C 107.963 257.437,108.594 258.505,109.100 259.106 C 109.949 260.117,109.939 260.047,108.960 258.200 C 107.649 255.723,107.056 255.035,107.697 256.734 M294.011 257.445 C 293.785 258.080,293.407 258.933,293.172 259.339 C 292.937 259.745,292.824 260.157,292.921 260.254 C 293.018 260.351,293.491 259.594,293.971 258.571 C 294.452 257.549,294.750 256.617,294.634 256.501 C 294.518 256.384,294.237 256.809,294.011 257.445 M146.800 260.442 C 147.570 260.678,148.920 260.936,149.800 261.015 L 151.400 261.160 149.800 260.782 C 148.920 260.575,147.570 260.317,146.800 260.210 L 145.400 260.014 146.800 260.442 M256.600 260.611 C 255.580 260.947,255.310 261.150,255.854 261.169 C 256.324 261.186,257.314 260.937,258.054 260.616 C 259.710 259.897,258.777 259.894,256.600 260.611 M110.999 261.800 C 113.196 264.922,116.414 267.783,120.156 269.942 C 122.165 271.101,126.479 272.854,126.723 272.611 C 126.826 272.507,126.391 272.234,125.755 272.003 C 123.762 271.279,122.050 270.497,120.000 269.374 C 118.415 268.505,113.209 264.443,113.183 264.055 C 113.174 263.915,112.425 262.990,111.520 262.000 L 109.873 260.200 110.999 261.800 M290.876 263.376 C 288.750 266.609,285.425 269.596,282.124 271.238 C 280.721 271.936,279.656 272.590,279.758 272.692 C 280.827 273.760,289.941 266.121,291.926 262.492 C 293.266 260.041,292.823 260.414,290.876 263.376 M152.400 261.588 C 152.730 261.808,153.615 261.991,154.367 261.994 C 156.160 262.002,155.841 261.775,153.600 261.450 C 152.342 261.267,151.981 261.309,152.400 261.588 M252.400 261.600 L 251.400 261.920 252.400 261.954 C 252.950 261.973,253.670 261.813,254.000 261.600 C 254.764 261.106,253.942 261.106,252.400 261.600 M158.000 262.411 C 159.210 262.612,161.820 262.859,163.800 262.959 L 167.400 263.140 164.400 262.811 C 158.731 262.188,155.405 261.980,158.000 262.411 M248.329 262.205 C 248.216 262.317,246.791 262.575,245.162 262.778 L 242.200 263.147 245.000 262.990 C 248.674 262.785,252.152 262.126,249.967 262.050 C 249.178 262.023,248.441 262.092,248.329 262.205 M169.600 263.602 C 171.410 263.943,175.878 264.129,175.567 263.851 C 175.475 263.769,173.690 263.603,171.600 263.482 C 168.937 263.328,168.338 263.364,169.600 263.602 M237.200 263.600 L 235.400 263.880 237.000 263.910 C 237.880 263.927,239.410 263.797,240.400 263.620 L 242.200 263.300 240.600 263.310 C 239.720 263.316,238.190 263.446,237.200 263.600 M194.480 264.541 C 202.780 264.728,214.830 264.728,221.280 264.541 C 231.627 264.240,229.860 264.200,206.200 264.200 C 179.909 264.200,179.687 264.206,194.480 264.541 M128.379 273.430 C 129.138 273.759,130.038 273.953,130.379 273.860 C 130.764 273.756,130.667 273.675,130.124 273.646 C 129.642 273.621,129.136 273.420,129.000 273.200 C 128.864 272.980,128.358 272.807,127.876 272.816 C 127.186 272.828,127.293 272.958,128.379 273.430 M277.000 273.414 C 275.385 274.154,276.351 274.155,278.054 273.416 C 278.794 273.094,279.130 272.839,278.800 272.848 C 278.470 272.857,277.660 273.112,277.000 273.414 M131.600 274.400 C 131.930 274.613,132.470 274.788,132.800 274.788 C 133.333 274.788,133.333 274.745,132.800 274.400 C 132.470 274.187,131.930 274.012,131.600 274.012 C 131.067 274.012,131.067 274.055,131.600 274.400 M274.000 274.400 C 273.467 274.745,273.467 274.788,274.000 274.788 C 274.330 274.788,274.870 274.613,275.200 274.400 C 275.733 274.055,275.733 274.012,275.200 274.012 C 274.870 274.012,274.330 274.187,274.000 274.400 M135.400 275.381 C 136.500 275.702,137.760 275.954,138.200 275.941 C 139.195 275.912,136.697 275.197,134.800 274.967 C 133.725 274.837,133.864 274.933,135.400 275.381 M269.600 275.448 C 268.003 275.930,267.958 275.973,269.200 275.828 C 271.268 275.585,273.688 274.879,272.400 274.893 C 271.850 274.899,270.590 275.149,269.600 275.448 M140.200 276.400 C 140.640 276.589,141.360 276.744,141.800 276.744 L 142.600 276.744 141.800 276.400 C 141.360 276.211,140.640 276.056,140.200 276.056 L 139.400 276.056 140.200 276.400 M265.200 276.400 L 264.200 276.720 265.200 276.732 C 265.750 276.738,266.560 276.589,267.000 276.400 L 267.800 276.056 267.000 276.068 C 266.560 276.074,265.750 276.224,265.200 276.400 M144.800 277.210 C 145.790 277.413,147.590 277.665,148.800 277.769 L 151.000 277.959 149.000 277.580 C 147.900 277.372,146.100 277.120,145.000 277.021 L 143.000 276.840 144.800 277.210 M260.341 276.993 C 260.235 277.099,259.170 277.362,257.974 277.579 L 255.800 277.973 258.000 277.776 C 259.210 277.668,261.010 277.427,262.000 277.240 L 263.800 276.900 262.167 276.850 C 261.268 276.823,260.447 276.887,260.341 276.993 M153.000 278.423 C 153.880 278.605,155.140 278.743,155.800 278.730 L 157.000 278.705 155.800 278.400 C 155.140 278.232,153.880 278.094,153.000 278.093 L 151.400 278.092 153.000 278.423 M250.600 278.400 L 249.400 278.705 250.800 278.705 C 251.570 278.705,252.740 278.568,253.400 278.400 L 254.600 278.095 253.200 278.095 C 252.430 278.095,251.260 278.232,250.600 278.400 M160.000 279.190 C 161.650 279.368,165.250 279.604,168.000 279.714 C 172.569 279.897,172.673 279.887,169.200 279.594 C 163.180 279.087,156.201 278.780,160.000 279.190 M242.705 279.028 C 242.579 279.154,239.894 279.412,236.738 279.601 L 231.000 279.945 236.800 279.733 C 239.990 279.616,244.040 279.389,245.800 279.227 L 249.000 278.932 245.967 278.866 C 244.298 278.830,242.831 278.903,242.705 279.028 M182.200 280.446 C 188.466 280.767,213.382 280.769,220.800 280.450 C 223.990 280.312,215.530 280.200,202.000 280.200 C 188.470 280.200,179.560 280.311,182.200 280.446 " stroke="none" fill="#949cac" fill-rule="evenodd"></path><path id="path3" d="M182.900 119.094 C 183.945 119.176,185.655 119.176,186.700 119.094 C 187.745 119.012,186.890 118.944,184.800 118.944 C 182.710 118.944,181.855 119.012,182.900 119.094 M220.500 119.096 C 221.765 119.175,223.835 119.175,225.100 119.096 C 226.365 119.016,225.330 118.951,222.800 118.951 C 220.270 118.951,219.235 119.016,220.500 119.096 M171.507 119.890 C 172.226 119.979,173.306 119.977,173.907 119.886 C 174.508 119.795,173.920 119.722,172.600 119.724 C 171.280 119.726,170.788 119.801,171.507 119.890 M236.307 119.890 C 237.026 119.979,238.106 119.977,238.707 119.886 C 239.308 119.795,238.720 119.722,237.400 119.724 C 236.080 119.726,235.588 119.801,236.307 119.890 M260.500 121.876 C 260.885 121.976,261.515 121.976,261.900 121.876 C 262.285 121.775,261.970 121.693,261.200 121.693 C 260.430 121.693,260.115 121.775,260.500 121.876 M171.300 136.287 C 171.905 136.378,172.895 136.378,173.500 136.287 C 174.105 136.195,173.610 136.120,172.400 136.120 C 171.190 136.120,170.695 136.195,171.300 136.287 M229.491 136.289 C 230.201 136.377,231.461 136.379,232.291 136.292 C 233.121 136.205,232.540 136.133,231.000 136.131 C 229.460 136.129,228.781 136.200,229.491 136.289 M164.500 137.076 C 164.885 137.176,165.515 137.176,165.900 137.076 C 166.285 136.975,165.970 136.893,165.200 136.893 C 164.430 136.893,164.115 136.975,164.500 137.076 M239.105 137.083 C 239.602 137.179,240.322 137.175,240.705 137.075 C 241.087 136.975,240.680 136.896,239.800 136.901 C 238.920 136.905,238.607 136.987,239.105 137.083 M99.789 197.600 C 99.789 213.110,99.839 219.455,99.900 211.700 C 99.961 203.945,99.961 191.255,99.900 183.500 C 99.839 175.745,99.789 182.090,99.789 197.600 M300.181 214.800 C 300.181 223.050,300.234 226.425,300.299 222.300 C 300.364 218.175,300.364 211.425,300.299 207.300 C 300.234 203.175,300.181 206.550,300.181 214.800 M214.700 216.300 C 225.315 216.359,242.685 216.359,253.300 216.300 C 263.915 216.241,255.230 216.192,234.000 216.192 C 212.770 216.192,204.085 216.241,214.700 216.300 M136.000 254.600 C 136.746 255.370,137.447 256.000,137.557 256.000 C 137.667 256.000,137.146 255.370,136.400 254.600 C 135.654 253.830,134.953 253.200,134.843 253.200 C 134.733 253.200,135.254 253.830,136.000 254.600 M171.700 263.087 C 172.305 263.178,173.295 263.178,173.900 263.087 C 174.505 262.995,174.010 262.920,172.800 262.920 C 171.590 262.920,171.095 262.995,171.700 263.087 M237.300 263.076 C 237.685 263.176,238.315 263.176,238.700 263.076 C 239.085 262.975,238.770 262.893,238.000 262.893 C 237.230 262.893,236.915 262.975,237.300 263.076 M182.100 263.894 C 183.145 263.976,184.855 263.976,185.900 263.894 C 186.945 263.812,186.090 263.744,184.000 263.744 C 181.910 263.744,181.055 263.812,182.100 263.894 M227.491 263.889 C 228.201 263.977,229.461 263.979,230.291 263.892 C 231.121 263.805,230.540 263.733,229.000 263.731 C 227.460 263.729,226.781 263.800,227.491 263.889 M169.507 280.290 C 170.226 280.379,171.306 280.377,171.907 280.286 C 172.508 280.195,171.920 280.122,170.600 280.124 C 169.280 280.126,168.788 280.201,169.507 280.290 M233.107 280.290 C 233.826 280.379,234.906 280.377,235.507 280.286 C 236.108 280.195,235.520 280.122,234.200 280.124 C 232.880 280.126,232.388 280.201,233.107 280.290 M181.113 281.095 C 182.276 281.176,184.076 281.176,185.113 281.093 C 186.151 281.011,185.200 280.945,183.000 280.946 C 180.800 280.947,179.951 281.014,181.113 281.095 M218.100 281.096 C 219.365 281.175,221.435 281.175,222.700 281.096 C 223.965 281.016,222.930 280.951,220.400 280.951 C 217.870 280.951,216.835 281.016,218.100 281.096 " stroke="none" fill="#5d6686" fill-rule="evenodd"></path><path id="path4" d="M195.926 119.100 C 200.176 119.164,207.016 119.164,211.126 119.099 C 215.237 119.034,211.760 118.981,203.400 118.981 C 195.040 118.982,191.677 119.035,195.926 119.100 M165.300 120.276 C 165.685 120.376,166.315 120.376,166.700 120.276 C 167.085 120.175,166.770 120.093,166.000 120.093 C 165.230 120.093,164.915 120.175,165.300 120.276 M244.305 120.283 C 244.802 120.379,245.522 120.375,245.905 120.275 C 246.287 120.175,245.880 120.096,245.000 120.101 C 244.120 120.105,243.807 120.187,244.305 120.283 M193.100 135.499 C 196.455 135.566,201.945 135.566,205.300 135.499 C 208.655 135.432,205.910 135.378,199.200 135.378 C 192.490 135.378,189.745 135.432,193.100 135.499 M181.113 135.895 C 182.276 135.976,184.076 135.976,185.113 135.893 C 186.151 135.811,185.200 135.745,183.000 135.746 C 180.800 135.747,179.951 135.814,181.113 135.895 M214.517 135.897 C 216.011 135.974,218.351 135.974,219.717 135.896 C 221.082 135.818,219.860 135.755,217.000 135.755 C 214.140 135.756,213.022 135.820,214.517 135.897 M241.700 137.076 C 242.085 137.176,242.715 137.176,243.100 137.076 C 243.485 136.975,243.170 136.893,242.400 136.893 C 241.630 136.893,241.315 136.975,241.700 137.076 M299.293 156.400 C 299.293 157.170,299.375 157.485,299.476 157.100 C 299.576 156.715,299.576 156.085,299.476 155.700 C 299.375 155.315,299.293 155.630,299.293 156.400 M299.750 162.600 C 299.751 165.020,299.816 165.958,299.896 164.685 C 299.976 163.412,299.975 161.432,299.894 160.285 C 299.814 159.138,299.749 160.180,299.750 162.600 M278.900 167.899 C 282.585 167.965,288.615 167.965,292.300 167.899 C 295.985 167.833,292.970 167.779,285.600 167.779 C 278.230 167.779,275.215 167.833,278.900 167.899 M127.746 175.000 C 127.747 177.200,127.814 178.049,127.895 176.887 C 127.976 175.724,127.976 173.924,127.893 172.887 C 127.811 171.849,127.745 172.800,127.746 175.000 M127.373 189.000 C 127.373 194.280,127.430 196.385,127.499 193.677 C 127.568 190.969,127.568 186.649,127.499 184.077 C 127.429 181.505,127.372 183.720,127.373 189.000 M194.967 208.000 C 194.967 212.290,195.026 214.045,195.098 211.900 C 195.170 209.755,195.170 206.245,195.098 204.100 C 195.026 201.955,194.967 203.710,194.967 208.000 M272.798 221.519 L 272.997 227.000 273.111 221.832 C 273.174 218.990,273.084 216.524,272.912 216.351 C 272.741 216.179,272.689 218.504,272.798 221.519 M127.331 227.000 C 127.333 228.540,127.405 229.121,127.492 228.291 C 127.579 227.461,127.577 226.201,127.489 225.491 C 127.400 224.781,127.329 225.460,127.331 227.000 M168.705 263.083 C 169.202 263.179,169.922 263.175,170.305 263.075 C 170.687 262.975,170.280 262.896,169.400 262.901 C 168.520 262.905,168.207 262.987,168.705 263.083 M239.700 263.076 C 240.085 263.176,240.715 263.176,241.100 263.076 C 241.485 262.975,241.170 262.893,240.400 262.893 C 239.630 262.893,239.315 262.975,239.700 263.076 M202.300 264.299 C 205.435 264.367,210.565 264.367,213.700 264.299 C 216.835 264.232,214.270 264.176,208.000 264.176 C 201.730 264.176,199.165 264.232,202.300 264.299 M163.300 279.876 C 163.685 279.976,164.315 279.976,164.700 279.876 C 165.085 279.775,164.770 279.693,164.000 279.693 C 163.230 279.693,162.915 279.775,163.300 279.876 M240.705 279.883 C 241.202 279.979,241.922 279.975,242.305 279.875 C 242.687 279.775,242.280 279.696,241.400 279.701 C 240.520 279.705,240.207 279.787,240.705 279.883 M194.126 281.100 C 198.266 281.165,204.926 281.165,208.926 281.099 C 212.927 281.034,209.540 280.981,201.400 280.981 C 193.260 280.981,189.987 281.034,194.126 281.100 " stroke="none" fill="#747c9c" fill-rule="evenodd"></path><path id="path5" d="M182.700 119.493 C 183.635 119.577,185.165 119.577,186.100 119.493 C 187.035 119.409,186.270 119.340,184.400 119.340 C 182.530 119.340,181.765 119.409,182.700 119.493 M221.100 119.495 C 222.255 119.576,224.145 119.576,225.300 119.495 C 226.455 119.414,225.510 119.348,223.200 119.348 C 220.890 119.348,219.945 119.414,221.100 119.495 M176.307 119.890 C 177.026 119.979,178.106 119.977,178.707 119.886 C 179.308 119.795,178.720 119.722,177.400 119.724 C 176.080 119.726,175.588 119.801,176.307 119.890 M229.700 119.891 C 230.525 119.978,231.875 119.978,232.700 119.891 C 233.525 119.805,232.850 119.734,231.200 119.734 C 229.550 119.734,228.875 119.805,229.700 119.891 M168.100 136.276 C 168.485 136.376,169.115 136.376,169.500 136.276 C 169.885 136.175,169.570 136.093,168.800 136.093 C 168.030 136.093,167.715 136.175,168.100 136.276 M234.905 136.287 C 235.514 136.379,236.414 136.377,236.905 136.282 C 237.397 136.187,236.900 136.111,235.800 136.114 C 234.700 136.117,234.297 136.195,234.905 136.287 M238.900 136.676 C 239.285 136.776,239.915 136.776,240.300 136.676 C 240.685 136.575,240.370 136.493,239.600 136.493 C 238.830 136.493,238.515 136.575,238.900 136.676 M271.740 163.600 C 271.740 165.470,271.809 166.235,271.893 165.300 C 271.977 164.365,271.977 162.835,271.893 161.900 C 271.809 160.965,271.740 161.730,271.740 163.600 M221.669 199.900 C 235.897 199.958,259.297 199.958,273.669 199.900 C 288.041 199.842,276.400 199.794,247.800 199.794 C 219.200 199.794,207.441 199.842,221.669 199.900 M172.105 263.487 C 172.714 263.579,173.614 263.577,174.105 263.482 C 174.597 263.387,174.100 263.311,173.000 263.314 C 171.900 263.317,171.497 263.395,172.105 263.487 M176.500 263.887 C 177.105 263.978,178.095 263.978,178.700 263.887 C 179.305 263.795,178.810 263.720,177.600 263.720 C 176.390 263.720,175.895 263.795,176.500 263.887 M233.505 263.883 C 234.002 263.979,234.722 263.975,235.105 263.875 C 235.487 263.775,235.080 263.696,234.200 263.701 C 233.320 263.705,233.007 263.787,233.505 263.883 M174.307 280.290 C 175.026 280.379,176.106 280.377,176.707 280.286 C 177.308 280.195,176.720 280.122,175.400 280.124 C 174.080 280.126,173.588 280.201,174.307 280.290 M227.500 280.289 C 228.215 280.378,229.385 280.378,230.100 280.289 C 230.815 280.201,230.230 280.128,228.800 280.128 C 227.370 280.128,226.785 280.201,227.500 280.289 M180.912 280.695 C 181.964 280.777,183.584 280.776,184.512 280.692 C 185.440 280.608,184.580 280.541,182.600 280.542 C 180.620 280.543,179.860 280.612,180.912 280.695 M218.515 280.696 C 219.788 280.776,221.768 280.775,222.915 280.694 C 224.062 280.614,223.020 280.549,220.600 280.550 C 218.180 280.551,217.242 280.616,218.515 280.696 " stroke="none" fill="#848ca4" fill-rule="evenodd"></path><path id="path6" d="M175.400 119.200 C 175.105 119.678,178.908 119.678,180.400 119.200 C 181.113 118.972,180.574 118.868,178.524 118.840 C 176.942 118.818,175.536 118.980,175.400 119.200 M227.800 119.200 C 228.955 119.696,234.768 119.696,234.000 119.200 C 233.670 118.987,231.960 118.822,230.200 118.834 C 228.045 118.849,227.261 118.968,227.800 119.200 M161.800 120.225 C 159.999 120.629,159.849 120.706,161.200 120.533 C 162.190 120.406,164.710 120.172,166.800 120.013 L 170.600 119.723 167.400 119.705 C 165.640 119.695,163.120 119.929,161.800 120.225 M243.800 120.010 C 246.220 120.164,249.010 120.398,250.000 120.531 C 251.033 120.668,250.692 120.529,249.200 120.204 C 247.770 119.892,244.980 119.658,243.000 119.684 L 239.400 119.730 243.800 120.010 M152.990 121.216 C 152.821 121.489,153.123 121.538,153.866 121.360 C 155.399 120.992,155.544 120.800,154.290 120.800 C 153.717 120.800,153.132 120.987,152.990 121.216 M256.833 120.944 C 257.305 121.350,259.243 121.593,259.010 121.216 C 258.868 120.987,258.283 120.800,257.710 120.800 C 257.136 120.800,256.742 120.865,256.833 120.944 M146.500 122.012 C 146.005 122.211,145.600 122.481,145.600 122.611 C 145.600 122.741,145.798 122.725,146.040 122.575 C 146.283 122.425,147.408 122.167,148.540 122.001 C 150.477 121.718,150.504 121.698,149.000 121.675 C 148.120 121.662,146.995 121.813,146.500 122.012 M263.800 122.024 C 264.680 122.203,265.940 122.458,266.600 122.591 C 267.488 122.770,267.384 122.674,266.200 122.222 C 265.320 121.887,264.060 121.632,263.400 121.656 C 262.335 121.695,262.380 121.737,263.800 122.024 M270.200 123.200 C 271.301 123.673,271.692 123.673,271.400 123.200 C 271.264 122.980,270.758 122.813,270.276 122.828 C 269.431 122.855,269.429 122.869,270.200 123.200 M136.400 124.242 C 135.736 124.649,135.669 124.762,136.200 124.578 C 136.640 124.426,137.540 124.162,138.200 123.991 C 139.298 123.708,139.315 123.680,138.400 123.655 C 137.850 123.640,136.950 123.904,136.400 124.242 M274.600 124.212 C 276.604 124.934,276.878 124.930,275.600 124.200 C 275.050 123.886,274.240 123.630,273.800 123.632 C 273.360 123.634,273.720 123.895,274.600 124.212 M129.200 126.200 C 127.894 126.947,128.351 126.955,130.054 126.216 C 130.794 125.894,131.130 125.631,130.800 125.630 C 130.470 125.629,129.750 125.886,129.200 126.200 M280.946 126.202 C 282.405 126.963,282.775 126.968,281.776 126.213 C 281.349 125.890,280.730 125.621,280.400 125.615 C 280.070 125.610,280.316 125.874,280.946 126.202 M187.633 135.748 C 187.725 135.829,196.890 135.981,208.000 136.086 C 220.140 136.200,224.369 136.163,218.600 135.993 C 207.965 135.680,187.372 135.516,187.633 135.748 M177.500 136.298 C 179.315 136.372,182.285 136.372,184.100 136.298 C 185.915 136.223,184.430 136.163,180.800 136.163 C 177.170 136.163,175.685 136.223,177.500 136.298 M167.000 136.800 C 166.378 137.067,166.573 137.150,167.876 137.172 C 168.798 137.187,169.664 137.020,169.800 136.800 C 170.100 136.314,168.131 136.314,167.000 136.800 M234.200 136.800 C 234.336 137.020,235.382 137.197,236.524 137.194 C 238.012 137.189,238.430 137.078,238.000 136.800 C 237.194 136.279,233.878 136.279,234.200 136.800 M159.093 137.441 C 158.961 137.573,157.896 137.820,156.726 137.991 C 154.795 138.272,154.746 138.302,156.200 138.320 C 157.710 138.338,161.316 137.295,159.967 137.230 C 159.618 137.214,159.225 137.308,159.093 137.441 M244.433 137.349 C 244.525 137.431,245.500 137.601,246.600 137.728 C 247.949 137.884,248.274 137.849,247.600 137.620 C 246.601 137.280,244.118 137.068,244.433 137.349 M249.505 138.283 C 250.002 138.379,250.722 138.375,251.105 138.275 C 251.487 138.175,251.080 138.096,250.200 138.101 C 249.320 138.105,249.007 138.187,249.505 138.283 M146.800 139.825 C 145.834 140.191,145.655 140.362,146.224 140.377 C 146.676 140.390,147.396 140.136,147.824 139.813 C 148.735 139.123,148.653 139.124,146.800 139.825 M258.224 139.787 C 258.651 140.110,259.270 140.379,259.600 140.385 C 259.930 140.390,259.684 140.126,259.054 139.798 C 257.595 139.037,257.225 139.032,258.224 139.787 M262.400 141.346 C 262.400 141.456,262.940 141.930,263.600 142.400 C 264.260 142.870,264.800 143.164,264.800 143.054 C 264.800 142.944,264.260 142.470,263.600 142.000 C 262.940 141.530,262.400 141.236,262.400 141.346 M136.676 144.900 C 135.430 146.133,135.425 146.149,136.581 145.203 C 137.252 144.655,137.971 144.070,138.180 143.903 C 138.389 143.736,138.431 143.600,138.274 143.600 C 138.117 143.600,137.398 144.185,136.676 144.900 M297.214 143.654 C 297.206 143.794,297.463 144.514,297.784 145.254 C 298.106 145.994,298.369 146.330,298.370 146.000 C 298.372 145.424,297.243 143.134,297.214 143.654 M266.281 144.987 C 266.677 145.531,267.166 145.981,267.370 145.987 C 267.573 145.994,267.317 145.550,266.800 145.000 C 265.601 143.723,265.357 143.718,266.281 144.987 M104.085 148.813 C 103.818 149.240,103.601 149.817,103.602 150.095 C 103.604 150.373,103.877 150.078,104.210 149.440 C 104.903 148.111,104.811 147.650,104.085 148.813 M131.870 151.810 C 131.721 152.245,131.491 152.870,131.358 153.200 C 131.226 153.530,131.419 153.390,131.788 152.890 C 132.158 152.389,132.388 151.764,132.300 151.500 C 132.210 151.231,132.022 151.367,131.870 151.810 M269.632 151.800 C 269.630 152.240,269.886 153.050,270.200 153.600 C 270.930 154.878,270.934 154.604,270.212 152.600 C 269.895 151.720,269.634 151.360,269.632 151.800 M102.065 154.617 C 101.809 155.178,101.607 155.854,101.616 156.119 C 101.624 156.383,101.897 155.988,102.222 155.239 C 102.905 153.665,102.761 153.090,102.065 154.617 M299.410 154.200 C 300.052 156.100,300.131 166.993,299.507 167.511 C 299.046 167.894,295.726 167.986,285.353 167.905 L 271.800 167.800 271.581 163.514 C 271.300 158.021,270.800 157.465,270.800 162.644 C 270.800 168.921,269.461 168.400,285.594 168.400 C 297.837 168.400,299.209 168.334,299.826 167.717 C 300.654 166.888,300.482 155.508,299.621 154.155 C 299.161 153.433,299.151 153.435,299.410 154.200 M129.942 157.800 C 129.816 158.460,129.586 159.360,129.431 159.800 C 129.276 160.240,129.442 160.095,129.799 159.477 C 130.157 158.859,130.387 157.959,130.310 157.477 C 130.193 156.747,130.132 156.801,129.942 157.800 M100.029 164.095 C 99.765 165.040,99.618 166.710,99.702 167.806 L 99.856 169.800 99.928 167.560 C 99.968 166.328,100.201 164.743,100.446 164.039 C 100.692 163.335,100.807 162.673,100.701 162.568 C 100.596 162.463,100.294 163.150,100.029 164.095 M128.629 164.229 C 128.481 164.815,128.451 165.384,128.561 165.494 C 128.671 165.604,128.881 165.215,129.029 164.629 C 129.176 164.042,129.206 163.473,129.096 163.363 C 128.986 163.253,128.776 163.642,128.629 164.229 M127.764 180.280 C 127.287 197.575,127.376 227.625,127.914 231.000 L 128.361 233.800 128.173 230.800 C 127.598 221.600,127.541 209.870,127.977 190.466 C 128.246 178.512,128.382 168.648,128.279 168.546 C 128.177 168.443,127.945 173.723,127.764 180.280 M195.283 199.300 C 194.951 199.700,205.460 199.800,247.600 199.800 C 289.740 199.800,300.249 199.700,299.917 199.300 C 299.589 198.905,288.634 198.800,247.600 198.800 C 206.566 198.800,195.611 198.905,195.283 199.300 M99.779 228.851 C 99.848 230.749,100.115 232.639,100.372 233.051 C 100.782 233.709,100.804 233.679,100.559 232.800 C 100.405 232.250,100.138 230.360,99.966 228.600 L 99.653 225.400 99.779 228.851 M272.476 229.644 C 272.434 230.878,272.315 232.768,272.211 233.844 L 272.022 235.800 272.429 233.846 C 272.653 232.771,272.772 230.881,272.694 229.646 L 272.551 227.400 272.476 229.644 M300.079 232.403 C 300.036 234.054,299.823 236.022,299.607 236.776 C 299.391 237.530,299.289 238.222,299.381 238.314 C 299.825 238.759,300.419 234.858,300.297 232.293 L 300.159 229.400 300.079 232.403 M271.714 237.800 C 271.717 238.900,271.795 239.303,271.887 238.695 C 271.979 238.086,271.977 237.186,271.882 236.695 C 271.787 236.203,271.711 236.700,271.714 237.800 M128.412 236.800 C 128.412 237.130,128.587 237.670,128.800 238.000 C 129.145 238.533,129.188 238.533,129.188 238.000 C 129.188 237.670,129.013 237.130,128.800 236.800 C 128.455 236.267,128.412 236.267,128.412 236.800 M100.828 237.876 C 100.813 238.358,100.980 238.864,101.200 239.000 C 101.673 239.292,101.673 238.901,101.200 237.800 C 100.869 237.029,100.855 237.031,100.828 237.876 M129.216 240.654 C 129.207 240.904,129.463 241.714,129.784 242.454 C 130.106 243.194,130.376 243.596,130.384 243.346 C 130.393 243.096,130.137 242.286,129.816 241.546 C 129.494 240.806,129.224 240.404,129.216 240.654 M101.655 241.600 C 101.640 242.150,101.904 243.050,102.242 243.600 C 102.649 244.264,102.762 244.331,102.578 243.800 C 102.426 243.360,102.162 242.460,101.991 241.800 C 101.708 240.702,101.680 240.685,101.655 241.600 M298.600 243.600 C 298.450 244.073,298.417 244.550,298.527 244.660 C 298.637 244.770,298.850 244.473,299.000 244.000 C 299.150 243.527,299.183 243.050,299.073 242.940 C 298.963 242.830,298.750 243.127,298.600 243.600 M270.065 245.817 C 269.809 246.378,269.607 247.054,269.616 247.319 C 269.624 247.583,269.897 247.188,270.222 246.439 C 270.905 244.865,270.761 244.290,270.065 245.817 M103.630 248.800 C 103.628 249.376,104.757 251.666,104.786 251.146 C 104.794 251.006,104.537 250.286,104.216 249.546 C 103.894 248.806,103.631 248.470,103.630 248.800 M266.319 254.003 C 265.442 255.543,265.702 255.542,266.800 254.000 C 267.270 253.340,267.507 252.801,267.327 252.803 C 267.147 252.804,266.693 253.344,266.319 254.003 M295.870 254.610 C 295.721 255.045,295.491 255.670,295.358 256.000 C 295.226 256.330,295.419 256.190,295.788 255.690 C 296.158 255.189,296.388 254.564,296.300 254.300 C 296.210 254.031,296.022 254.167,295.870 254.610 M148.200 260.011 C 151.097 260.804,151.385 260.837,150.054 260.222 C 149.314 259.880,148.324 259.618,147.854 259.641 C 147.209 259.672,147.294 259.762,148.200 260.011 M255.600 260.233 C 254.984 260.575,254.838 260.790,255.220 260.794 C 255.561 260.797,256.011 260.637,256.220 260.439 C 256.429 260.240,256.960 259.991,257.400 259.885 L 258.200 259.693 257.400 259.686 C 256.960 259.682,256.150 259.928,255.600 260.233 M109.613 261.078 C 109.632 261.521,111.183 263.351,111.376 263.157 C 111.462 263.070,111.097 262.495,110.566 261.878 C 110.035 261.260,109.606 260.900,109.613 261.078 M154.033 260.944 C 154.125 261.023,154.740 261.208,155.400 261.356 C 156.276 261.552,156.438 261.515,156.000 261.218 C 155.460 260.853,153.632 260.598,154.033 260.944 M251.000 261.200 C 250.708 261.673,251.099 261.673,252.200 261.200 C 252.971 260.869,252.969 260.855,252.124 260.828 C 251.642 260.813,251.136 260.980,251.000 261.200 M160.600 261.960 C 161.920 262.135,163.810 262.391,164.800 262.531 C 166.326 262.745,166.417 262.723,165.400 262.388 C 164.740 262.171,162.850 261.915,161.200 261.818 C 158.317 261.650,158.294 261.655,160.600 261.960 M244.200 262.209 C 241.532 262.895,243.156 262.894,246.200 262.208 C 247.604 261.891,248.102 261.673,247.400 261.681 C 246.740 261.689,245.300 261.926,244.200 262.209 M291.600 263.400 C 290.919 264.390,290.505 265.194,290.681 265.187 C 291.000 265.175,293.315 261.600,293.004 261.600 C 292.913 261.600,292.281 262.410,291.600 263.400 M175.200 263.200 C 175.530 263.413,176.790 263.588,178.000 263.588 C 179.566 263.588,180.027 263.476,179.600 263.200 C 179.270 262.987,178.010 262.812,176.800 262.812 C 175.234 262.812,174.773 262.924,175.200 263.200 M232.800 263.200 C 232.026 263.700,235.035 263.700,236.200 263.200 C 236.809 262.938,236.570 262.851,235.200 262.834 C 234.210 262.822,233.130 262.987,232.800 263.200 M197.072 263.900 C 202.392 263.963,211.212 263.963,216.672 263.900 C 222.133 263.837,217.780 263.785,207.000 263.785 C 196.220 263.785,191.753 263.837,197.072 263.900 M115.600 267.525 C 115.600 267.736,116.050 268.203,116.600 268.563 C 117.150 268.924,117.600 269.034,117.600 268.809 C 117.600 268.584,117.433 268.400,117.229 268.400 C 117.024 268.400,116.574 268.117,116.229 267.771 C 115.883 267.426,115.600 267.315,115.600 267.525 M122.400 271.800 C 122.950 272.114,123.580 272.372,123.800 272.372 C 124.020 272.372,123.750 272.114,123.200 271.800 C 122.650 271.486,122.020 271.228,121.800 271.228 C 121.580 271.228,121.850 271.486,122.400 271.800 M127.518 273.828 C 128.011 274.173,128.727 274.374,129.107 274.274 C 129.633 274.137,129.589 274.082,128.924 274.046 C 128.442 274.021,127.936 273.820,127.800 273.600 C 127.664 273.380,127.343 273.200,127.087 273.200 C 126.831 273.200,127.025 273.483,127.518 273.828 M278.200 273.814 C 277.540 274.117,277.281 274.372,277.624 274.382 C 277.966 274.392,278.596 274.136,279.024 273.813 C 279.972 273.096,279.769 273.096,278.200 273.814 M134.400 275.758 C 134.950 276.096,135.850 276.360,136.400 276.345 C 137.315 276.320,137.298 276.292,136.200 276.009 C 135.540 275.838,134.640 275.574,134.200 275.422 C 133.669 275.238,133.736 275.351,134.400 275.758 M271.200 275.825 C 270.430 276.116,270.094 276.365,270.454 276.377 C 270.814 276.390,271.714 276.137,272.454 275.816 C 274.120 275.092,273.116 275.100,271.200 275.825 M143.865 277.587 C 144.121 277.864,145.201 278.153,146.265 278.230 L 148.200 278.369 146.320 278.020 C 145.286 277.829,144.206 277.539,143.920 277.377 C 143.520 277.150,143.507 277.199,143.865 277.587 M259.105 278.283 C 259.602 278.379,260.322 278.375,260.705 278.275 C 261.087 278.175,260.680 278.096,259.800 278.101 C 258.920 278.105,258.607 278.187,259.105 278.283 M150.990 278.784 C 151.132 279.013,151.717 279.200,152.290 279.200 C 153.544 279.200,153.399 279.008,151.866 278.640 C 151.123 278.462,150.821 278.511,150.990 278.784 M253.800 278.800 C 253.126 279.090,253.200 279.148,254.276 279.172 C 254.978 279.187,255.664 279.020,255.800 278.800 C 256.096 278.320,254.916 278.320,253.800 278.800 M160.000 279.796 C 161.430 280.108,163.950 280.343,165.600 280.320 L 168.600 280.277 164.800 279.987 C 162.710 279.828,160.190 279.592,159.200 279.463 C 158.122 279.323,158.443 279.457,160.000 279.796 M246.286 279.448 C 246.149 279.584,243.824 279.827,241.119 279.987 C 236.286 280.274,236.263 280.279,239.800 280.321 C 242.994 280.358,250.163 279.367,247.567 279.248 C 246.998 279.221,246.422 279.311,246.286 279.448 M173.400 280.800 C 173.536 281.020,174.942 281.182,176.524 281.160 C 178.574 281.132,179.113 281.028,178.400 280.800 C 176.908 280.322,173.105 280.322,173.400 280.800 M225.600 280.800 C 224.900 281.024,225.524 281.132,227.676 281.160 C 229.368 281.182,230.864 281.020,231.000 280.800 C 231.296 280.321,227.094 280.321,225.600 280.800 " stroke="none" fill="#4c5c7c" fill-rule="evenodd"></path></g></svg>