<svg width="485" height="75" viewBox="0 0 485 75" fill="none" xmlns="http://www.w3.org/2000/svg">
<path fill-rule="evenodd" clip-rule="evenodd" d="M32.0666 40.2283L38.2783 43.1341C38.9122 43.3868 39.6724 43.2605 40.0531 42.8815C40.1757 42.7592 40.3111 42.6372 40.4517 42.5109C40.7535 42.239 41.0658 41.9568 41.3207 41.618C41.8279 41.1126 41.9546 40.3546 41.5741 39.8491L38.6584 33.6585C39.6724 32.0161 40.4332 30.121 40.9406 28.2259L47.5328 25.9517C48.1663 25.6991 48.5468 25.1937 48.6735 24.4356V23.5513V22.6669C48.6735 22.0352 48.1663 21.4034 47.5328 21.1508L41.0673 18.7503C40.5599 16.8552 39.7997 14.9601 38.7855 13.3177L39.4061 12C51.9082 15.778 60.9515 27.2974 60.9515 41.0027C60.9515 46.2801 59.5982 51.2334 57.2218 55.5453C57.0698 55.1898 56.5865 54.9558 56.2204 54.9558L50.9963 55.2107C50.1044 54.0642 49.0852 53.045 47.9385 52.1534L48.1933 46.9304C48.1933 46.5481 47.9385 46.0387 47.5562 45.9112C47.0466 45.6565 46.6641 45.529 46.1547 45.4018C45.7722 45.2743 45.2628 45.4018 45.0079 45.6565L41.5673 49.4782C40.1658 49.2233 38.6368 49.2233 37.2353 49.4782L33.795 45.6565C33.5403 45.2743 33.0307 45.1469 32.6484 45.4018C32.5365 45.4576 32.4247 45.4889 32.3237 45.5173C32.1948 45.5537 32.0828 45.585 32.0112 45.6565C31.7565 45.7838 31.5016 45.9112 31.374 45.9112C30.992 46.0387 30.7369 46.5481 30.7369 46.9304L30.992 52.1534C29.8448 53.045 28.6982 54.0642 27.9339 55.2107L22.7098 54.9558C22.3275 54.9558 21.8179 55.2107 21.6902 55.5927C21.4355 56.1023 21.3083 56.4845 21.1806 56.9941C21.053 57.3763 21.1807 57.8857 21.4355 58.1404L25.2579 61.58C25.0032 62.9814 25.0032 64.5101 25.2579 65.9113L21.4355 69.3508C21.2529 69.4723 21.1284 69.652 21.0761 69.8479C8.81797 65.8984 0 54.4343 0 41.0027C0 36.3801 1.0385 32.0061 2.89318 28.0939C3.41626 29.9946 4.17697 31.8898 5.19113 33.5321L2.14869 39.8491C1.89526 40.481 2.02198 41.239 2.40212 41.618C2.52476 41.7402 2.64742 41.8755 2.77412 42.0154C3.04107 42.3097 3.32653 42.6245 3.67013 42.8815C4.17697 43.3868 4.9377 43.5131 5.44454 43.1341L11.6566 40.2283C13.3047 41.239 15.2059 41.997 17.1074 42.5025L19.3896 49.0721C19.643 49.7038 20.1504 50.0828 20.9106 50.2091H21.7981H22.6854C23.3195 50.2091 23.953 49.7038 24.207 49.0721L26.4886 42.5025C28.6437 41.997 30.4185 41.239 32.0666 40.2283ZM39.2479 69.521C42.5171 69.521 45.1678 66.907 45.1678 63.6826C45.1678 60.4582 42.5171 57.8444 39.2479 57.8444C35.9787 57.8444 33.328 60.4582 33.328 63.6826C33.328 66.907 35.9787 69.521 39.2479 69.521ZM30.2562 23.4882C30.2562 28.0766 26.5262 31.7964 21.9249 31.7964C17.3235 31.7964 13.5934 28.0766 13.5934 23.4882C13.5934 18.8997 17.3235 15.1799 21.9249 15.1799C26.5262 15.1799 30.2562 18.8997 30.2562 23.4882Z" fill="white" style="fill:white;fill-opacity:1;"/>
<path d="M89.6299 22.6054C89.6299 21.8526 90.0064 21.4761 90.7592 21.4761H95.8408C96.5937 21.4761 96.9701 21.8526 96.9701 22.6054V36.7775H112.497V22.6054C112.497 21.8526 112.874 21.4761 113.627 21.4761H118.708C119.461 21.4761 119.837 21.8526 119.837 22.6054V59.8707C119.837 60.6236 119.461 61 118.708 61H113.627C112.874 61 112.497 60.6236 112.497 59.8707V43.666H96.9701V59.8707C96.9701 60.6236 96.5937 61 95.8408 61H90.7592C90.0064 61 89.6299 60.6236 89.6299 59.8707V22.6054ZM147.198 58.7415C146.219 59.5696 145.127 60.2472 143.923 60.7741C142.756 61.3011 141.213 61.5646 139.293 61.5646C137.524 61.5646 135.83 61.2823 134.211 60.7177C132.593 60.1531 131.162 59.3061 129.92 58.1769C128.678 57.01 127.68 55.5608 126.927 53.8292C126.212 52.0977 125.855 50.0651 125.855 47.7313C125.855 45.5481 126.212 43.6095 126.927 41.9156C127.68 40.1841 128.678 38.7349 129.92 37.568C131.162 36.3635 132.593 35.4601 134.211 34.8578C135.867 34.2179 137.618 33.8979 139.462 33.8979C141.269 33.8979 142.756 34.1426 143.923 34.6319C145.09 35.0836 146.162 35.7424 147.141 36.6081V35.5918C147.141 34.839 147.518 34.4626 148.27 34.4626H153.013C153.766 34.4626 154.142 34.839 154.142 35.5918V59.8707C154.142 60.6236 153.766 61 153.013 61H149.004C148.628 61 148.327 60.9059 148.101 60.7177C147.875 60.5295 147.668 60.1342 147.48 59.532L147.198 58.7415ZM147.141 46.0374C147.141 45.1716 147.028 44.4188 146.802 43.7789C146.576 43.139 146.162 42.5367 145.56 41.9721C144.92 41.3698 144.186 40.9181 143.358 40.617C142.53 40.2782 141.551 40.1088 140.422 40.1088C139.443 40.1088 138.502 40.297 137.599 40.6734C136.733 41.0122 135.962 41.5016 135.284 42.1415C134.606 42.7814 134.061 43.5907 133.647 44.5694C133.27 45.5104 133.082 46.5644 133.082 47.7313C133.082 48.9358 133.27 50.0086 133.647 50.9496C134.023 51.8907 134.531 52.6812 135.171 53.3211C135.849 53.961 136.62 54.4692 137.486 54.8456C138.389 55.1843 139.33 55.3537 140.309 55.3537C141.476 55.3537 142.53 55.1467 143.471 54.7326C144.412 54.3186 145.184 53.7351 145.786 52.9823C146.275 52.3424 146.614 51.7401 146.802 51.1755C147.028 50.6109 147.141 49.8769 147.141 48.9735V46.0374ZM185.289 55.4102C185.477 55.5984 185.571 55.8054 185.571 56.0313C185.571 56.2571 185.459 56.483 185.233 56.7088C183.501 58.5533 181.77 59.8331 180.038 60.5483C178.307 61.2259 176.33 61.5646 174.11 61.5646C172.19 61.5646 170.364 61.2823 168.633 60.7177C166.901 60.1154 165.358 59.2497 164.003 58.1204C162.685 56.9535 161.631 55.5043 160.841 53.7728C160.05 52.0413 159.655 50.0274 159.655 47.7313C159.655 45.661 160.032 43.7789 160.784 42.085C161.575 40.3535 162.629 38.8855 163.946 37.6809C165.301 36.4764 166.863 35.5542 168.633 34.9143C170.439 34.2367 172.359 33.8979 174.392 33.8979C176.801 33.8979 178.834 34.2932 180.49 35.0836C182.184 35.8365 183.558 36.7587 184.612 37.8503C184.913 38.1514 185.063 38.4338 185.063 38.6973C185.063 38.9231 184.95 39.1678 184.725 39.4313L181.958 42.8755C181.732 43.1013 181.506 43.2143 181.28 43.2143C181.017 43.2143 180.772 43.1013 180.546 42.8755C179.568 41.8968 178.608 41.2004 177.667 40.7864C176.763 40.3347 175.634 40.1088 174.279 40.1088C173.263 40.1088 172.303 40.297 171.399 40.6734C170.534 41.0122 169.762 41.5204 169.084 42.1979C168.407 42.8378 167.861 43.6471 167.447 44.6258C167.071 45.5669 166.882 46.6208 166.882 47.7877C166.882 48.917 167.071 49.9521 167.447 50.8932C167.823 51.8342 168.332 52.6435 168.971 53.3211C169.649 53.961 170.439 54.4692 171.343 54.8456C172.246 55.1843 173.206 55.3537 174.222 55.3537C175.427 55.3537 176.556 55.1279 177.61 54.6762C178.702 54.1868 179.737 53.4152 180.716 52.3612C180.942 52.1354 181.167 52.0224 181.393 52.0224C181.619 52.0224 181.845 52.1354 182.071 52.3612L185.289 55.4102ZM190.185 21.4761C190.185 20.7233 190.562 20.3469 191.315 20.3469H196.058C196.81 20.3469 197.187 20.7233 197.187 21.4761V41.5768L203.285 35.253C203.737 34.726 204.245 34.4626 204.809 34.4626H211.811C212.262 34.4626 212.488 34.6508 212.488 35.0272C212.488 35.253 212.413 35.4412 212.262 35.5918L203.341 44.7388L214.408 59.9272C214.521 60.1154 214.577 60.2848 214.577 60.4354C214.577 60.8118 214.352 61 213.9 61H206.955C206.39 61 205.939 60.7365 205.6 60.2095L198.203 50.0462L197.187 51.0626V59.8707C197.187 60.6236 196.81 61 196.058 61H191.315C190.562 61 190.185 60.6236 190.185 59.8707V21.4761ZM234.955 40.6734H230.946C230.193 40.6734 229.817 40.297 229.817 39.5442V35.5918C229.817 34.839 230.193 34.4626 230.946 34.4626H234.955V26.4449C234.955 25.692 235.331 25.3156 236.084 25.3156H240.827C241.58 25.3156 241.956 25.692 241.956 26.4449V34.4626H247.716C248.468 34.4626 248.845 34.839 248.845 35.5918V39.5442C248.845 40.297 248.468 40.6734 247.716 40.6734H241.956V51.7401C241.956 54.1492 242.954 55.3537 244.949 55.3537C245.514 55.3537 246.022 55.3161 246.473 55.2408C246.963 55.1279 247.358 55.0714 247.659 55.0714C248.036 55.0714 248.224 55.2785 248.224 55.6925V60.4354C248.224 60.7365 248.167 60.9247 248.054 61C247.941 61.1129 247.716 61.207 247.377 61.2823C246.85 61.3576 246.229 61.4141 245.514 61.4517C244.836 61.527 244.14 61.5646 243.424 61.5646C240.865 61.5646 238.813 60.9812 237.27 59.8143C235.727 58.6474 234.955 56.7653 234.955 54.168V40.6734ZM253.871 21.4761C253.871 20.7233 254.248 20.3469 255.001 20.3469H259.744C260.496 20.3469 260.873 20.7233 260.873 21.4761V37.8503C262.19 36.6081 263.658 35.6483 265.277 34.9707C266.895 34.2555 268.627 33.8979 270.471 33.8979C273.332 33.8979 275.534 34.6131 277.078 36.0435C278.659 37.4739 279.449 39.356 279.449 41.6898V59.8707C279.449 60.6236 279.073 61 278.32 61H273.577C272.824 61 272.448 60.6236 272.448 59.8707V44.0047C272.448 41.4075 271.13 40.1088 268.495 40.1088C267.253 40.1088 266.124 40.4664 265.107 41.1816C264.129 41.8592 263.319 42.6873 262.68 43.666C262.077 44.607 261.626 45.5481 261.324 46.4891C261.023 47.3925 260.873 48.6159 260.873 50.1592V59.8707C260.873 60.6236 260.496 61 259.744 61H255.001C254.248 61 253.871 60.6236 253.871 59.8707V21.4761ZM310.79 55.2408C310.978 55.429 311.072 55.636 311.072 55.8619C311.072 56.0877 310.96 56.3136 310.734 56.5395C309.83 57.4429 308.946 58.2145 308.08 58.8544C307.252 59.4567 306.367 59.9649 305.426 60.3789C304.523 60.793 303.544 61.0941 302.49 61.2823C301.436 61.4705 300.269 61.5646 298.989 61.5646C297.145 61.5646 295.376 61.2635 293.682 60.6612C292.026 60.059 290.539 59.1744 289.221 58.0075C287.942 56.8406 286.906 55.3914 286.116 53.6599C285.363 51.9283 284.987 49.9521 284.987 47.7313C284.987 45.6233 285.363 43.7224 286.116 42.0285C286.869 40.3347 287.866 38.8855 289.108 37.6809C290.388 36.4764 291.856 35.5542 293.513 34.9143C295.169 34.2367 296.919 33.8979 298.764 33.8979C301.06 33.8979 303.055 34.312 304.749 35.1401C306.443 35.9306 307.835 36.9846 308.927 38.302C310.056 39.5818 310.884 41.031 311.411 42.6496C311.938 44.2306 312.202 45.8304 312.202 47.449V49.1428C312.202 49.8957 311.825 50.2721 311.072 50.2721H291.875C292.365 52.0413 293.268 53.3775 294.585 54.2809C295.903 55.1467 297.465 55.5796 299.272 55.5796C300.777 55.5796 302.076 55.2785 303.168 54.6762C304.297 54.0739 305.294 53.3023 306.16 52.3612C306.424 52.0224 306.706 51.8531 307.007 51.8531C307.233 51.8531 307.478 51.9848 307.741 52.2483L310.79 55.2408ZM305.2 44.4C304.749 42.9696 303.958 41.8403 302.829 41.0122C301.7 40.1841 300.326 39.77 298.707 39.77C296.976 39.77 295.526 40.2217 294.36 41.1251C293.193 42.0285 292.365 43.1202 291.875 44.4H305.2ZM332.353 22.6054C332.353 21.8526 332.73 21.4761 333.482 21.4761H338.282C338.846 21.4761 339.26 21.5891 339.524 21.8149C339.825 22.0031 340.089 22.2666 340.314 22.6054L356.858 46.2068V22.6054C356.858 21.8526 357.234 21.4761 357.987 21.4761H363.069C363.822 21.4761 364.198 21.8526 364.198 22.6054V59.8707C364.198 60.6236 363.822 61 363.069 61H359.06C358.495 61 358.062 60.9059 357.761 60.7177C357.498 60.4918 357.253 60.2095 357.027 59.8707L339.693 35.4224V59.8707C339.693 60.6236 339.317 61 338.564 61H333.482C332.73 61 332.353 60.6236 332.353 59.8707V22.6054ZM384.293 61.5646C382.373 61.5646 380.547 61.2823 378.816 60.7177C377.122 60.1531 375.635 59.2873 374.355 58.1204C373.075 56.9535 372.059 55.5231 371.306 53.8292C370.553 52.0977 370.177 50.0651 370.177 47.7313C370.177 45.5857 370.535 43.666 371.25 41.9721C372.003 40.2406 373 38.7914 374.242 37.6245C375.522 36.4199 377.009 35.4977 378.703 34.8578C380.434 34.2179 382.298 33.8979 384.293 33.8979C386.25 33.8979 388.094 34.2179 389.826 34.8578C391.557 35.4977 393.044 36.4199 394.287 37.6245C395.566 38.7914 396.564 40.2406 397.279 41.9721C398.032 43.666 398.408 45.5857 398.408 47.7313C398.408 50.0651 398.032 52.0977 397.279 53.8292C396.526 55.5231 395.51 56.9535 394.23 58.1204C392.95 59.2873 391.445 60.1531 389.713 60.7177C388.019 61.2823 386.212 61.5646 384.293 61.5646ZM384.293 55.3537C386.438 55.3537 388.113 54.6574 389.318 53.2646C390.56 51.8719 391.181 50.0462 391.181 47.7877C391.181 46.5456 390.993 45.454 390.616 44.5129C390.24 43.5719 389.732 42.7814 389.092 42.1415C388.49 41.4639 387.774 40.9558 386.946 40.617C386.118 40.2782 385.234 40.1088 384.293 40.1088C383.352 40.1088 382.467 40.2782 381.639 40.617C380.811 40.9558 380.077 41.4639 379.437 42.1415C378.835 42.7814 378.345 43.5719 377.969 44.5129C377.592 45.454 377.404 46.5456 377.404 47.7877C377.404 50.0462 378.006 51.8719 379.211 53.2646C380.453 54.6574 382.147 55.3537 384.293 55.3537ZM404.071 35.5918C404.071 34.839 404.447 34.4626 405.2 34.4626H409.943C410.696 34.4626 411.072 34.839 411.072 35.5918V37.2857C412.013 36.2317 413.124 35.4036 414.404 34.8013C415.683 34.1991 417.208 33.8979 418.977 33.8979C421.612 33.8979 423.682 34.6884 425.188 36.2694C426.731 37.8127 427.503 39.8265 427.503 42.3109C427.503 43.0637 427.126 43.4401 426.374 43.4401H421.8C421.499 43.4401 421.292 43.3837 421.179 43.2707C421.066 43.1202 420.972 42.8755 420.897 42.5367C420.671 40.9181 419.636 40.1088 417.791 40.1088C416.813 40.1088 415.966 40.3158 415.25 40.7299C414.573 41.144 413.971 41.6521 413.444 42.2544C412.728 43.0825 412.145 44.08 411.693 45.2469C411.279 46.4138 411.072 47.8442 411.072 49.5381V59.8707C411.072 60.6236 410.696 61 409.943 61H405.2C404.447 61 404.071 60.6236 404.071 59.8707V35.5918ZM435.883 40.6734H431.874C431.121 40.6734 430.745 40.297 430.745 39.5442V35.5918C430.745 34.839 431.121 34.4626 431.874 34.4626H435.883V26.4449C435.883 25.692 436.259 25.3156 437.012 25.3156H441.755C442.508 25.3156 442.884 25.692 442.884 26.4449V34.4626H448.643C449.396 34.4626 449.773 34.839 449.773 35.5918V39.5442C449.773 40.297 449.396 40.6734 448.643 40.6734H442.884V51.7401C442.884 54.1492 443.882 55.3537 445.877 55.3537C446.441 55.3537 446.949 55.3161 447.401 55.2408C447.89 55.1279 448.286 55.0714 448.587 55.0714C448.963 55.0714 449.151 55.2785 449.151 55.6925V60.4354C449.151 60.7365 449.095 60.9247 448.982 61C448.869 61.1129 448.643 61.207 448.304 61.2823C447.777 61.3576 447.156 61.4141 446.441 61.4517C445.764 61.527 445.067 61.5646 444.352 61.5646C441.792 61.5646 439.741 60.9812 438.198 59.8143C436.654 58.6474 435.883 56.7653 435.883 54.168V40.6734ZM454.799 21.4761C454.799 20.7233 455.175 20.3469 455.928 20.3469H460.671C461.424 20.3469 461.8 20.7233 461.8 21.4761V37.8503C463.118 36.6081 464.586 35.6483 466.204 34.9707C467.823 34.2555 469.555 33.8979 471.399 33.8979C474.26 33.8979 476.462 34.6131 478.005 36.0435C479.586 37.4739 480.377 39.356 480.377 41.6898V59.8707C480.377 60.6236 480 61 479.247 61H474.504C473.752 61 473.375 60.6236 473.375 59.8707V44.0047C473.375 41.4075 472.058 40.1088 469.423 40.1088C468.181 40.1088 467.051 40.4664 466.035 41.1816C465.056 41.8592 464.247 42.6873 463.607 43.666C463.005 44.607 462.553 45.5481 462.252 46.4891C461.951 47.3925 461.8 48.6159 461.8 50.1592V59.8707C461.8 60.6236 461.424 61 460.671 61H455.928C455.175 61 454.799 60.6236 454.799 59.8707V21.4761Z" fill="white" style="fill:white;fill-opacity:1;"/>
</svg>
