<svg width="134" height="59" viewBox="0 0 134 59" fill="none" xmlns="http://www.w3.org/2000/svg">
<path d="M53.0849 58.2752C48.5127 58.0293 45.1011 56.1479 43.1058 52.7724C41.7671 50.5065 41.3597 47.5263 41.9721 44.4811C42.6508 41.107 44.955 38.0665 48.4913 35.8796C50.5234 34.622 52.2628 33.8414 55.8044 32.5965C56.6949 32.2836 57.4634 31.9955 57.5129 31.9553C57.584 31.8991 57.594 31.6994 57.5585 31.0515C57.4567 29.2083 57.7642 26.3367 58.2848 24.2643C59.1605 20.7769 60.8456 17.9636 63.082 16.2571C64.6874 15.031 66.7919 14.109 68.887 13.7137C70.0441 13.496 71.9817 13.4966 73.0705 13.7157C77.7358 14.6551 80.3541 18.251 79.323 22.3025C79.1059 23.1568 78.4198 24.5571 77.839 25.3316C76.3509 27.3162 74.1124 29.081 70.9513 30.76C70.554 30.9718 69.2528 31.611 68.0609 32.1818C66.8689 32.752 65.8565 33.2565 65.8096 33.3034C65.7433 33.3697 65.7601 33.5634 65.8887 34.2146C66.4817 37.2256 67.4786 39.7696 69.1811 42.6145C69.8578 43.7468 70.7938 45.1746 70.9004 45.2409C71.0545 45.336 71.6843 44.3183 72.095 43.3113C72.6028 42.0651 72.8936 40.4169 72.7502 39.5981C72.6471 39.0118 72.3268 38.3928 71.9181 37.9928C71.7305 37.8078 71.5751 37.633 71.5744 37.6042C71.5737 37.576 73.1603 37.5599 75.1013 37.57L78.6302 37.5881L78.6101 38.0356C78.5827 38.6474 78.3555 39.9519 78.1163 40.8805C77.4416 43.4915 76.17 45.7246 73.9717 48.1635C73.7124 48.4509 73.5 48.733 73.5 48.7906C73.5 48.8482 73.8645 49.2482 74.3093 49.6797C77.0879 52.3731 82.0097 55.4793 86.017 57.0679C86.4063 57.2226 86.7239 57.3801 86.7226 57.4176C86.7212 57.4632 84.4077 57.4927 79.9615 57.5047L73.2025 57.5221L72.8179 57.3057C72.0327 56.8642 70.294 55.4592 68.6237 53.9155C68.2699 53.5885 67.9349 53.3212 67.8793 53.3212C67.8237 53.3212 67.4304 53.5497 67.0069 53.8291C64.8368 55.2602 62.2432 56.5459 60.0496 57.2776C57.5545 58.1104 55.4949 58.4045 53.0849 58.2752ZM58.7759 52.4194C59.7876 52.2391 61.0305 51.872 62.1735 51.4157C63.3226 50.9574 64.747 50.2566 64.7979 50.1239C64.818 50.0717 64.5547 49.6315 64.2137 49.145C62.6412 46.9045 60.9615 43.7535 59.8325 40.9274C59.4164 39.8855 58.6392 37.578 58.4905 36.9455C58.4436 36.7439 58.3585 36.561 58.3015 36.5389C58.1441 36.4785 56.853 37.1666 55.7374 37.9063C51.7723 40.5348 49.8715 43.7434 50.2936 47.0962C50.4812 48.5862 50.9529 49.6723 51.8112 50.5896C53.3978 52.2847 55.8781 52.9366 58.7759 52.4194ZM65.5061 29.1058C66.9734 28.2468 69.301 26.1611 70.6029 24.5397C72.2692 22.4647 73.1549 20.5284 73.1556 18.9579C73.1556 18.0601 73.0283 17.6581 72.6129 17.2427C72.1995 16.8299 71.7332 16.6591 71.021 16.6584C68.9078 16.6584 66.6224 19.1669 65.6267 22.5799C65.1242 24.3005 65.0023 25.2265 64.9989 27.3283C64.9963 28.9336 65.0224 29.2907 65.143 29.2907C65.1691 29.2907 65.3326 29.2076 65.5061 29.1058ZM100.456 58.235C96.9737 57.8846 94.6789 57.364 92.09 56.3389C88.5671 54.9426 86.3675 53.2133 84.5095 50.3799C83.9534 49.5316 83.061 47.7508 82.7005 46.7665C81.0891 42.3813 80.7354 36.8605 81.6955 31.1011C82.6677 25.272 84.882 19.654 87.9373 15.2628C89.9192 12.4153 92.8679 9.4163 95.9117 7.15168C100.938 3.41304 106.724 1.11491 113.151 0.306884C115.101 0.0616615 116.193 -0.00131921 118.496 2.08063e-05C121.979 0.00203083 124.632 0.267354 128.136 0.963491C130.371 1.40838 133.931 2.36917 134 2.54672C134.034 2.6365 131.779 9.86654 131.685 9.9637C131.657 9.99385 131.31 9.76269 130.917 9.44779C127.748 6.92186 124.465 5.3842 121.144 4.87298C120.084 4.7095 118.09 4.70749 117.05 4.86896C112.395 5.58989 108.079 8.56405 104.247 13.6916C103.002 15.3573 101.631 17.5897 100.564 19.6855C99.119 22.5263 98.1254 25.0375 97.1204 28.3956C93.9191 39.0795 93.757 46.5441 96.638 50.5849C97.8246 52.2498 99.5592 53.3105 101.76 53.7158C103.024 53.949 106.091 53.8076 106.397 53.5028C106.446 53.4545 107.943 48.7692 109.724 43.0909C112.65 33.7637 112.967 32.7118 113 32.1831C113.044 31.4729 112.912 30.8384 112.593 30.2274C112.303 29.672 111.536 28.9182 110.904 28.5678C110.632 28.4164 110.408 28.269 110.407 28.2408C110.407 28.2127 115.316 28.1892 121.319 28.1892C127.321 28.1892 132.232 28.2127 132.231 28.2408C132.231 28.269 131.965 28.4143 131.641 28.5624C129.941 29.3396 128.71 30.5041 127.978 32.0277C127.819 32.3573 126.445 36.6239 124.382 43.194L121.044 53.827L120.079 54.2893C116.149 56.1754 111.342 57.5335 106.547 58.1131C105.666 58.2203 101.193 58.3094 100.456 58.235H100.456ZM0.00222281 57.4578C-0.0198874 57.423 0.125504 57.3004 0.324496 57.1858C1.51041 56.503 2.84171 55.0867 3.40586 53.9061C3.56934 53.5644 18.5393 5.8867 18.8696 4.65456C18.9279 4.43882 18.9768 3.98321 18.9775 3.64285C18.9822 2.603 18.6592 1.85326 17.8988 1.13367C17.6911 0.937361 17.5216 0.747749 17.5216 0.712238C17.5216 0.617767 43.6619 0.625807 44.8605 0.720948C47.4561 0.92664 50.0544 1.61675 52.0417 2.62712C55.4346 4.35239 57.466 6.97077 58.0905 10.4233C58.2647 11.3841 58.2982 13.5214 58.1555 14.5559C57.5739 18.7729 55.6631 23.2459 53.0614 26.482C48.8471 31.7242 41.9547 35.0762 33.4959 35.9982C30.8145 36.2903 27.4357 36.364 25.0431 36.1817C24.3516 36.1288 23.7714 36.1 23.754 36.1174C23.6689 36.2032 18.272 53.5195 18.2103 53.9061C18.0201 55.098 18.6338 56.4381 19.6917 57.1402C19.9008 57.2789 20.0535 57.4216 20.0321 57.4565C19.9785 57.5429 0.0551534 57.5436 0.00155281 57.4571L0.00222281 57.4578ZM29.6742 31.7383C31.6393 31.3898 33.3733 30.6622 35.0463 29.485C35.859 28.9135 37.5286 27.2459 38.2174 26.3179C39.9407 23.9977 41.2083 21.26 42.2308 17.654C42.882 15.3559 43.1594 13.6052 43.1587 11.8009C43.1587 10.4099 43.0328 9.57911 42.683 8.64713C42.1638 7.26424 41.1065 6.17146 39.7631 5.62875C38.6094 5.16243 37.6245 5.03981 35.2553 5.06728L33.4691 5.08738L29.317 18.308C27.0343 25.5795 25.1784 31.564 25.1938 31.6069C25.2099 31.6498 25.4967 31.7222 25.8303 31.7677C26.1653 31.8133 26.4849 31.8615 26.5419 31.8756C26.8018 31.9393 29.116 31.8374 29.6742 31.7383Z" fill="white"/>
</svg>
