<svg width="446" height="65" viewBox="0 0 446 65" fill="none" xmlns="http://www.w3.org/2000/svg">
<path d="M42.0196 51.4925C43.0227 49.0824 43.5072 46.4876 43.4392 43.8845C43.5328 40.0553 42.1981 36.3184 39.6902 33.3878C36.8934 30.3479 32.1072 27.8203 25.4764 25.8973C24.1927 25.5698 22.943 25.1248 21.7359 24.5789C20.6902 24.0751 19.7551 23.3865 18.9645 22.5468C18.1399 21.6231 17.7063 20.4223 17.7658 19.1878C17.7913 17.3908 18.8115 15.7449 20.4267 14.9136C23.7336 13.4776 27.4996 13.4776 30.7981 14.9136C32.2688 15.4426 33.6799 16.0976 35.0316 16.8702L40.5999 5.91162C38.109 4.3917 35.4312 3.22447 32.6173 2.42672C29.7184 1.68775 26.743 1.30987 23.7506 1.30987C20.9028 1.25949 18.0719 1.72134 15.394 2.67024C13.0137 3.58556 10.8459 4.98791 9.03518 6.76815C7.21594 8.56519 5.77075 10.7065 4.80162 13.0578C3.841 15.4762 3.36493 18.0626 3.38194 20.6574C3.53496 24.8057 5.31169 28.7272 8.32109 31.6159C11.1945 34.1015 14.5609 35.9658 18.2079 37.0742C19.9421 37.7292 21.8634 38.317 23.0875 38.7789C24.3457 39.2491 25.5529 39.8453 26.675 40.5759C27.4826 41.1469 28.1372 41.8943 28.5878 42.7676C28.9788 43.5989 29.1233 44.5143 29.0043 45.4212C28.8768 46.7983 28.2052 48.0747 27.1426 48.9733C25.3999 50.2245 23.2576 50.8039 21.1153 50.6107C18.5819 50.5436 16.0911 49.9557 13.7958 48.8809C11.7895 47.932 9.84279 46.8655 7.96404 45.6815L1.31616 56.9675C6.56136 61.225 13.1157 63.5846 19.8911 63.6518C23.2491 63.6518 26.59 63.1312 29.7779 62.0983C32.5238 61.1914 35.0656 59.789 37.2759 57.9584C39.2992 56.153 40.9144 53.9529 42.0196 51.4925Z" fill="white"/>
<path d="M77.9114 47.9654C74.5704 52.0801 68.4921 52.7435 64.3266 49.4518C60.161 46.1516 59.4809 40.1391 62.8134 36.0244C66.1543 31.9013 72.2326 31.2379 76.3982 34.5297C76.9507 34.9663 77.4608 35.4618 77.9114 35.9992L86.574 27.4087C82.434 22.8909 76.5427 20.3213 70.3709 20.3297C58.2908 20.2878 47.8684 28.8111 47.8684 41.9613C47.8684 55.1032 58.4013 63.6517 70.4814 63.6517C76.6617 63.6517 82.553 61.0737 86.7101 56.5559L77.9114 47.9654Z" fill="white"/>
<path d="M109.051 20.2881C96.9283 20.2713 87.0925 29.9787 87.084 41.9617C87.0754 53.9531 96.9028 63.6688 109.025 63.6772C121.148 63.6772 130.975 53.9615 130.975 41.9785C130.975 30.0038 121.165 20.2965 109.051 20.2881ZM109.051 51.5347C103.712 51.5011 99.4106 47.1932 99.4361 41.9113C99.4614 36.6378 103.806 32.3719 109.144 32.3803C114.483 32.3971 118.81 36.6797 118.81 41.9617C118.81 44.5061 117.782 46.9581 115.945 48.7551C114.118 50.5522 111.635 51.5515 109.051 51.5347Z" fill="white"/>
<path d="M158.936 21.3126H152.951V8.52344H139.825V21.3126H133.84V33.0605H139.825V62.6192H152.951V33.0605H158.936V21.3126Z" fill="white"/>
<path d="M171.5 1.31009C168.542 1.30169 165.864 3.05674 164.725 5.76069C163.586 8.45624 164.206 11.5717 166.297 13.6458C168.389 15.72 171.543 16.3414 174.272 15.2245C177.009 14.1077 178.794 11.4709 178.794 8.54021C178.794 4.55987 175.538 1.31849 171.5 1.31009Z" fill="white"/>
<path d="M164.937 21.3125H178.046V62.6023H164.937V21.3125Z" fill="white"/>
<path d="M229.316 62.6692V21.3122H216.548V25.6956L215.349 24.6712C212.374 21.8496 208.395 20.2709 204.272 20.2877C192.983 20.2877 183.453 30.2134 183.453 41.9613C183.453 53.7008 193.008 63.6517 204.272 63.6517C208.395 63.6602 212.374 62.0898 215.349 59.2683L216.548 58.2354V62.6188L229.316 62.6692ZM206.397 51.7106C200.94 51.6771 196.544 47.2768 196.578 41.8857C196.604 36.4946 201.042 32.1448 206.499 32.1616C211.957 32.1868 216.361 36.5702 216.352 41.9613C216.343 44.5561 215.289 47.0501 213.419 48.8807C211.557 50.7114 209.024 51.7274 206.397 51.7106Z" fill="white"/>
<path d="M248.894 62.6694V58.286L250.068 59.3104C253.051 62.1319 257.022 63.7023 261.153 63.6938C272.434 63.6938 281.964 53.7682 281.964 42.0035C281.964 30.2388 272.434 20.3299 261.153 20.3299C257.022 20.3215 253.051 21.8918 250.068 24.7133L248.894 25.7462V2.34277H236.1V62.6694H248.894ZM249.158 42.0035C249.133 38.0399 251.521 34.4627 255.219 32.9259C258.909 31.3892 263.168 32.2122 266.016 35.0001C268.855 37.788 269.714 42.0035 268.183 45.6647C266.662 49.3176 263.049 51.7108 259.045 51.7108C253.596 51.7108 249.175 47.3442 249.158 41.9615V42.0035Z" fill="white"/>
<path d="M332.291 62.6696V21.3126H319.522V25.696L318.323 24.6715C315.339 21.85 311.369 20.2797 307.238 20.2881C295.957 20.2881 286.427 30.2138 286.427 41.9617C286.427 53.7012 295.982 63.6521 307.238 63.6521C311.369 63.6606 315.339 62.0901 318.323 59.2686L319.522 58.2358V62.6192L332.291 62.6696ZM309.457 51.711C303.99 51.7194 299.553 47.3528 299.544 41.9533C299.536 36.5538 303.965 32.1704 309.431 32.162C314.889 32.162 319.318 36.537 319.318 41.9365C319.318 47.3276 314.906 51.6942 309.457 51.711Z" fill="white"/>
<path d="M359.494 32.4474C363.796 32.4641 367.281 35.9071 367.29 40.1646V62.6695H380.398V38.5607C380.398 27.6021 373.989 20.4644 363.855 20.4644C359.69 20.4644 355.303 22.2614 351.69 28.0472V21.472H338.564V62.6695H351.58V40.1646C351.58 38.0988 352.421 36.1254 353.909 34.6727C355.397 33.2283 357.403 32.4222 359.494 32.4474Z" fill="white"/>
<path d="M428.166 62.619L412.074 41.9783L427.036 21.3124H411.717L399.679 38.0399V2.34277H386.579V62.619H399.679V45.5975L412.89 62.619H428.166Z" fill="white"/>
<path d="M437.415 48.1837C434.449 48.167 431.771 49.9136 430.623 52.6091C429.475 55.3047 430.087 58.4201 432.17 60.5026C434.253 62.5852 437.398 63.215 440.144 62.1065C442.882 60.9897 444.675 58.3613 444.684 55.4306C444.693 51.4503 441.445 48.2089 437.415 48.1837ZM437.415 61.1744C435.044 61.1828 432.901 59.7805 431.992 57.6223C431.074 55.4558 431.575 52.9702 433.241 51.3075C434.916 49.6449 437.432 49.1494 439.626 50.0479C441.811 50.938 443.239 53.0458 443.239 55.3886C443.247 56.9254 442.635 58.3949 441.539 59.4782C440.45 60.5614 438.963 61.1744 437.415 61.1744Z" fill="white"/>
<path d="M437.39 56.5983H436.217V59.3358H434.797V51.4507H437.832C439.303 51.4507 440.493 52.6263 440.493 54.0791C440.468 55.0699 439.872 55.9601 438.963 56.3799L440.646 59.3358H438.92L437.39 56.5983ZM436.217 55.2799H437.9C438.572 55.2799 439.116 54.7424 439.116 54.0791C439.116 53.4073 438.572 52.8698 437.9 52.8698H436.217V55.2799Z" fill="white"/>
</svg>
