<svg width="490" height="111" viewBox="0 0 490 111" fill="none" xmlns="http://www.w3.org/2000/svg">
<g clip-path="url(#clip0_1378_303)">
<path d="M2.01038 55.333C2.01038 85.0206 26.0923 109.087 55.7995 109.087C85.507 109.087 109.59 85.0206 109.59 55.333C109.59 25.6453 85.507 1.5791 55.7995 1.5791C26.0923 1.5791 2.01038 25.6452 2.01038 55.333Z" fill="#0C0C4F" stroke="#EC796B" stroke-width="4"/>
<path fill-rule="evenodd" clip-rule="evenodd" d="M31.4581 42.3401L32.8204 38.1341C33.0973 37.2786 33.7729 36.613 34.632 36.3505L38.8614 35.0507C39.4468 34.872 39.4516 34.0466 38.8709 33.8585L34.6605 32.497C33.8061 32.2204 33.14 31.5452 32.8758 30.6866L31.5767 26.46C31.3979 25.8766 30.572 25.8702 30.3837 26.4522L29.0214 30.6581C28.7445 31.512 28.0689 32.1777 27.2097 32.4418L22.9804 33.7399C22.395 33.9201 22.3886 34.744 22.9709 34.9321L27.1812 36.2935C28.0356 36.5703 28.7018 37.247 28.966 38.1056L30.2651 42.3306C30.4438 42.9157 31.2698 42.922 31.4581 42.3401Z" fill="#FAFAFA"/>
<path fill-rule="evenodd" clip-rule="evenodd" d="M98.307 39.8921C96.5641 37.9436 93.8424 36.8466 91.1969 36.3967C88.5305 35.9646 85.7341 36.0047 83.1019 36.4721C77.7753 37.3725 72.9363 39.5766 68.7156 42.2957C66.5239 43.6301 64.6548 45.1743 62.7183 46.7468C61.7853 47.5421 60.9347 48.389 60.0487 49.2238L57.6281 51.6308C54.9978 54.3784 52.4052 56.8809 49.8968 58.9552C47.3782 61.02 45.0235 62.5882 42.703 63.6833C40.384 64.7841 37.9026 65.4314 34.6682 65.5351C31.4624 65.6481 27.6694 65.0698 23.6122 64.1154C19.5333 63.1652 15.2499 61.8108 10.4634 60.6454C12.1335 65.2757 14.6485 69.3675 17.8775 73.1077C21.1444 76.7833 25.2238 80.1336 30.4642 82.3368C35.6289 84.5889 42.1194 85.3973 48.1881 84.1777C54.273 83.007 59.6127 80.1929 63.9289 76.939C68.2562 73.6516 71.7571 69.9069 74.7085 66.0133C75.5231 64.9377 75.9541 64.3357 76.5437 63.4949L78.1735 61.0826C79.3059 59.5905 80.3369 57.8915 81.4581 56.4131C83.6559 53.3169 85.8221 50.2242 88.3398 47.3749C89.607 45.9297 90.9434 44.5474 92.5207 43.2189C93.308 42.5705 94.1575 41.9359 95.0992 41.3643C96.0548 40.7477 97.0642 40.2651 98.307 39.8921Z" fill="#EC796B"/>
<path fill-rule="evenodd" clip-rule="evenodd" d="M98.307 39.8921C96.4341 35.1687 92.9517 31.1926 88.2783 28.2586C83.6321 25.3569 77.1801 23.876 70.7868 25.1383C67.6278 25.7488 64.5675 26.9242 61.8822 28.4894C59.2088 30.0484 56.8132 31.925 54.7394 33.9383C53.7041 34.9483 52.7644 36.0019 51.8308 37.0615L49.4111 40.1445L45.6738 45.1072C40.9094 51.4925 35.7787 58.9755 27.359 61.1929C19.0932 63.3696 15.5083 61.4418 10.4634 60.6454C11.3858 63.0254 12.5284 65.3366 14.0775 67.3699C15.5977 69.4443 17.3932 71.3927 19.6256 73.0626C20.7537 73.8647 21.9448 74.6563 23.2676 75.3279C24.5844 75.9765 26.0045 76.5475 27.5203 76.9776C30.5353 77.8034 33.9297 78.0925 37.2163 77.6485C40.5044 77.21 43.6473 76.1685 46.3945 74.7855C49.1619 73.4158 51.5727 71.7473 53.7254 69.9867C58.0045 66.4352 61.3329 62.5114 64.1444 58.5451C65.5586 56.562 66.8423 54.5415 68.0295 52.5205L69.4269 50.1144C69.854 49.411 70.2862 48.7034 70.7253 48.0443C72.4955 45.3964 74.2272 43.2732 76.3306 41.6796C78.4047 40.0448 81.2933 38.8369 85.1529 38.5563C88.9964 38.2723 93.4338 38.7969 98.307 39.8921Z" fill="#FAFAFA"/>
<path fill-rule="evenodd" clip-rule="evenodd" d="M77.5126 79.1375C77.5126 82.6064 80.3285 85.4205 83.7997 85.4205C87.2716 85.4205 90.0834 82.6064 90.0834 79.1375C90.0834 75.6686 87.2716 72.8545 83.7997 72.8545C80.3285 72.8545 77.5126 75.6686 77.5126 79.1375Z" fill="#EC796B"/>
<path d="M482.931 39.9114V33.5673C482.931 33.3157 482.727 33.1118 482.475 33.1118H446.303C446.052 33.1118 445.848 33.3157 445.848 33.5673V39.9114H460.548V80.9537H468.229V39.9114H482.931Z" fill="white"/>
<path d="M408.043 33.1118C407.791 33.1118 407.587 33.3157 407.587 33.5673V80.4979C407.587 80.7492 407.791 80.9537 408.043 80.9537H438.483C438.734 80.9537 438.938 80.7492 438.938 80.4979V74.2211H415.268V59.1856H434.824V52.5883H415.268V39.844H437.252V33.5673C437.252 33.3157 437.048 33.1118 436.796 33.1118H408.043Z" fill="white"/>
<path d="M390.392 80.6752L390.557 80.9537H396.457C396.709 80.9537 396.913 80.7492 396.913 80.4979V33.5673C396.913 33.3157 396.709 33.1118 396.457 33.1118H389.367V66.2448C388.137 64.2863 386.707 62.1304 385.08 59.7775C383.007 56.7154 380.777 53.6092 378.39 50.4587C376.048 47.2635 373.661 44.1803 371.229 41.2091C368.839 38.1907 366.582 35.5509 364.456 33.2912L364.288 33.1118H358.735C358.483 33.1118 358.279 33.3157 358.279 33.5673V80.4979C358.279 80.7492 358.483 80.9537 358.735 80.9537H365.825V45.4593C366.795 46.6035 367.826 47.8715 368.921 49.2636C370.4 51.1446 371.924 53.1609 373.495 55.3126L373.496 55.3149L373.498 55.3172C375.066 57.4226 376.636 59.6181 378.206 61.9038L378.208 61.9068L378.21 61.9099C379.825 64.1966 381.372 66.4606 382.853 68.7018L382.854 68.7041L382.856 68.7062C384.335 70.9009 385.701 73.028 386.955 75.0868L386.957 75.0903L386.96 75.0945C388.262 77.1574 389.406 79.0179 390.392 80.6752Z" fill="white"/>
<path d="M349.002 34.0647L349.176 33.8741C349.443 33.5817 349.235 33.1118 348.839 33.1118H340.43L340.259 33.3094C339.143 34.6033 337.756 36.1239 336.097 37.872C334.48 39.577 332.751 41.3723 330.91 43.2575C329.069 45.1421 327.205 47.0266 325.32 48.9112C323.811 50.3828 322.404 51.7391 321.097 52.9802V33.1118H313.872C313.621 33.1118 313.417 33.3157 313.417 33.5673V80.4979C313.417 80.7492 313.621 80.9537 313.872 80.9537H321.097V59.2496C322.683 60.2873 324.304 61.5015 325.96 62.8935L325.963 62.8955L325.965 62.8974C327.971 64.546 329.934 66.3515 331.854 68.3144L331.858 68.3191L331.863 68.3237C333.826 70.2405 335.677 72.2685 337.417 74.4082L337.418 74.4103L337.42 74.4131C339.16 76.5081 340.697 78.6004 342.032 80.6905L342.199 80.9537H350.396C350.747 80.9537 350.966 80.5747 350.792 80.271L350.694 80.1006C349.464 77.9609 347.919 75.7151 346.064 73.3624C344.255 71.0133 342.312 68.7103 340.234 66.4528C338.155 64.195 336.031 62.0719 333.86 60.0836C331.895 58.2828 330.016 56.7366 328.226 55.4472C329.749 53.9618 331.363 52.3668 333.069 50.6622C334.959 48.7736 336.848 46.8627 338.738 44.9292C340.673 42.9507 342.518 41.0394 344.273 39.1953L344.275 39.1928L344.278 39.1903C346.032 37.3024 347.607 35.5938 349.002 34.0647Z" fill="white"/>
<path fill-rule="evenodd" clip-rule="evenodd" d="M269.817 32.7535C269.565 32.7536 269.361 32.9575 269.361 33.2089V80.5268C269.361 80.7788 269.565 80.9826 269.817 80.9826H276.325V63.5851H285.833C286.902 64.8649 287.945 66.2041 288.963 67.6024L288.967 67.6077L288.971 67.6129C290.635 69.7933 292.172 72.0677 293.584 74.4371L293.586 74.4392L293.587 74.442C294.865 76.5384 295.981 78.609 296.935 80.6538L297.088 80.9826H304.789C305.12 80.9826 305.34 80.6427 305.203 80.3425C304.317 78.4031 303.357 76.5035 302.291 74.6535C300.842 72.0677 299.253 69.5073 297.524 66.9729C296.536 65.5245 295.526 64.1175 294.496 62.7518C297.368 61.8741 299.642 60.2869 301.285 57.9832L301.287 57.9814C303.26 55.1933 304.238 51.9143 304.238 48.1691C304.238 45.5956 303.79 43.2407 302.884 41.1129C301.975 38.9541 300.606 37.1638 298.783 35.7514C296.972 34.3314 294.742 33.4279 292.115 33.0227C291.502 32.9099 290.869 32.8423 290.216 32.8193C289.579 32.7755 289.023 32.7532 288.55 32.7532C286.554 32.7532 284.557 32.753 282.56 32.7528C278.312 32.7524 274.065 32.7521 269.817 32.7535ZM297.144 48.1691C297.144 49.4121 296.937 50.6353 296.52 51.8409C296.114 52.9988 295.464 54.0138 294.566 54.8909C293.716 55.7213 292.594 56.3103 291.172 56.6399C290.722 56.7421 290.237 56.8146 289.716 56.8563L289.715 56.8563L289.714 56.8564C289.202 56.8991 288.749 56.9199 288.354 56.9199H276.325V39.4184H288.354C288.749 39.4184 289.202 39.4392 289.714 39.4819L289.726 39.4829L289.739 39.4834C290.245 39.5036 290.715 39.5743 291.15 39.6927L291.164 39.6966L291.178 39.6998C292.594 40.0074 293.713 40.5943 294.562 41.4427L294.564 41.4451L294.566 41.4473C295.463 42.323 296.112 43.3482 296.52 44.5286V44.5301L296.521 44.5316C296.936 45.714 297.144 46.9257 297.144 48.1691Z" fill="white"/>
<path fill-rule="evenodd" clip-rule="evenodd" d="M252.273 74.6372L252.274 74.6393L252.275 74.6414C252.95 76.5779 253.671 78.5592 254.438 80.5851L254.577 80.9537H262.281C262.598 80.9537 262.818 80.6396 262.709 80.3422C261.027 75.7214 259.328 71.1061 257.595 66.504C256.02 62.2777 254.468 58.2752 252.937 54.4969C251.452 50.7184 249.966 47.1191 248.48 43.6989C246.989 40.2228 245.421 36.7812 243.787 33.3702C243.71 33.2122 243.551 33.1118 243.376 33.1118H237.23C237.055 33.1118 236.895 33.2122 236.82 33.3702C235.185 36.7812 233.617 40.223 232.126 43.6992C230.64 47.1181 229.133 50.7164 227.603 54.494L227.601 54.4967L227.601 54.4994C226.115 58.2766 224.586 62.2781 223.012 66.5038C221.278 71.1061 219.579 75.7214 217.896 80.3422C217.788 80.6396 218.008 80.9537 218.324 80.9537H225.7L225.701 80.953H225.844L226.014 80.7715C227.793 78.8629 229.782 76.9891 231.981 75.1517L231.983 75.1503L231.985 75.1482C234.192 73.2647 236.494 71.518 238.89 69.9075L238.895 69.904L238.9 69.8998C241.26 68.2337 243.635 66.7385 246.025 65.4139L246.028 65.4124L246.03 65.4108C246.891 64.9213 247.738 64.4653 248.572 64.0426L250.185 68.6449L250.186 68.6484C250.904 70.6675 251.6 72.6636 252.273 74.6372ZM243.985 51.9436L243.986 51.9475L243.988 51.9514C244.637 53.5932 245.286 55.2624 245.935 56.9592C245.886 56.9806 245.837 57.0028 245.787 57.0257C243.503 58.0652 241.048 59.4089 238.424 61.054C235.911 62.629 233.418 64.3402 230.945 66.1872L231.992 63.1988C233.377 59.3147 234.762 55.5643 236.148 51.9475C237.421 48.6857 238.748 45.5484 240.127 42.5354C241.465 45.5472 242.751 48.6832 243.985 51.9436Z" fill="white"/>
<path d="M219.777 39.9114V33.5673C219.777 33.3157 219.573 33.1118 219.321 33.1118H183.149C182.898 33.1118 182.694 33.3157 182.694 33.5673V39.9114H197.394V80.4979C197.394 80.7492 197.598 80.9537 197.851 80.9537H204.62C204.871 80.9537 205.075 80.7492 205.075 80.4979V39.9114H219.777Z" fill="white"/>
<path d="M149.504 80.3716L149.502 80.3709C146.716 79.1841 144.399 77.4898 142.561 75.2865L142.559 75.2837L142.557 75.2816C140.739 73.0505 139.558 70.42 139.009 67.404C138.982 67.2532 139.016 67.0976 139.105 66.9726C139.194 66.8476 139.329 66.7637 139.481 66.7398L145.608 65.7748C145.898 65.7291 146.175 65.9111 146.248 66.1953C146.993 69.0864 148.525 71.3303 150.849 72.9569C153.207 74.5695 155.988 75.3843 159.215 75.3843C161.309 75.3843 163.18 75.061 164.836 74.425C166.511 73.7674 167.812 72.8452 168.761 71.6696C169.695 70.5135 170.167 69.1444 170.167 67.5351C170.167 66.536 169.99 65.7182 169.66 65.061C169.658 65.0551 169.655 65.0492 169.652 65.0432C169.332 64.343 168.885 63.7582 168.309 63.2818C168.303 63.2772 168.298 63.2726 168.293 63.2679C167.714 62.7518 167.05 62.3156 166.298 61.9604C165.528 61.597 164.725 61.2974 163.889 61.0618L163.881 61.0596L151.66 57.4321C150.299 57.0242 148.983 56.5143 147.713 55.9022L147.71 55.9005L147.706 55.8986C146.416 55.2541 145.261 54.458 144.242 53.5099L144.239 53.5068L144.237 53.5052C143.205 52.5203 142.386 51.3495 141.78 49.9986L141.779 49.9953C141.163 48.599 140.865 46.9756 140.865 45.1404C140.865 42.1983 141.625 39.6577 143.173 37.5496L143.173 37.5487C144.727 35.4396 146.822 33.837 149.438 32.7362C152.05 31.6371 154.981 31.105 158.221 31.1276C161.504 31.1503 164.458 31.7388 167.07 32.9064C169.703 34.0506 171.887 35.7028 173.611 37.8623C175.362 40.0264 176.529 42.6089 177.122 45.5953C177.152 45.7456 177.12 45.9016 177.033 46.028C176.947 46.1544 176.812 46.2405 176.662 46.2669L170.368 47.365C170.219 47.391 170.066 47.3566 169.942 47.2693C169.818 47.182 169.734 47.0491 169.709 46.8998C169.391 45.0364 168.685 43.4558 167.6 42.1419L167.593 42.1343C166.52 40.7886 165.175 39.7575 163.547 39.0393L163.542 39.0368C161.911 38.2959 160.114 37.9112 158.144 37.8898H158.143C156.255 37.8684 154.567 38.1687 153.071 38.7793C151.57 39.3918 150.399 40.2369 149.536 41.3054L149.533 41.3096C148.685 42.3375 148.264 43.5179 148.264 44.8742C148.264 46.221 148.648 47.2599 149.375 48.0452C150.16 48.8702 151.125 49.5363 152.279 50.0401C153.502 50.5419 154.689 50.9552 155.841 51.2811L155.843 51.2818L164.964 53.9097C166.027 54.2038 167.241 54.6086 168.605 55.1223C170.032 55.6515 171.408 56.3972 172.733 57.3556C174.096 58.3195 175.216 59.6065 176.096 61.2024C177 62.8193 177.433 64.83 177.433 67.2023C177.433 69.5868 176.951 71.7303 175.971 73.618C175.021 75.4939 173.687 77.0695 171.976 78.3408L171.971 78.3436C170.27 79.5848 168.299 80.5217 166.068 81.159C163.835 81.8188 161.45 82.1469 158.916 82.1469C155.454 82.1469 152.314 81.5591 149.504 80.3716Z" fill="white"/>
</g>
<defs>
<clipPath id="clip0_1378_303">
<rect width="489" height="111" fill="white" transform="translate(0.5)"/>
</clipPath>
</defs>
</svg>
