<svg width="353" height="86" viewBox="0 0 353 86" fill="none" xmlns="http://www.w3.org/2000/svg">
<g clip-path="url(#clip0_1378_421)">
<path d="M130.082 40.0033C129.139 36.3414 127.779 29.1007 119.956 29.1007C115.878 29.1007 112.771 31.8194 112.771 36.2859C112.771 47.3272 135.714 46.6059 135.714 61.9749C135.714 72.1562 126.67 75.9014 118.07 75.9014C111.828 75.9014 107.75 74.2646 105.447 73.0439C103.727 68.522 103.366 65.304 103.366 59.5614L106.751 58.8401C107.75 63.1401 110.108 73.1827 119.29 73.1827C123.812 73.1827 126.808 70.0201 126.808 65.2207C126.808 53.0975 104.587 54.0407 104.587 39.3375C104.587 30.2381 111.328 26.4375 120.566 26.4375C125.948 26.4375 129.166 27.5749 131.83 29.1007C132.412 32.624 132.606 36.4246 132.606 40.0865H130.082V40.0033Z" fill="white"/>
<path d="M164.676 72.2116C162.512 73.5155 159.155 75.8736 153.774 75.8736C142.649 75.8736 142.15 69.4097 142.15 61.4478V51.0445C142.15 48.5478 142.15 45.302 139.986 45.302C138.904 45.302 137.988 45.6626 137.683 45.7181V43.6374C143.065 41.8342 147.005 41.2794 150.75 41.0574V61.1981C150.75 66.8574 151.832 71.6568 158.85 71.6568C161.569 71.6568 163.234 70.3529 164.232 69.8536V50.989C164.232 48.4923 164.232 45.2465 162.068 45.2465C160.986 45.2465 160.071 45.6071 159.766 45.6626V43.582C165.148 41.7787 169.087 41.2239 172.832 41.002V62.4465C172.832 68.3278 172.832 71.1297 175.274 71.1297C175.69 71.1297 176.577 71.2129 177.271 71.0465L177.41 72.9052C174.108 74.0426 170.169 75.0691 166.59 75.7626L164.676 72.2116Z" fill="white"/>
<path d="M184.317 51.0447C184.317 48.5479 184.317 45.3021 182.153 45.3021C181.071 45.3021 180.156 45.6628 179.851 45.7183V43.6376C185.233 41.8344 189.033 41.2796 192.751 41.0576V45.2189C194.554 43.6376 197.994 41.0576 204.07 41.0576C210.533 41.0576 214.889 44.137 214.889 53.8189V67.9396C214.889 71.7402 215.25 72.517 217.83 72.7389L219.328 72.8776V74.7363H201.822V72.8776L203.321 72.7389C205.901 72.517 206.261 71.7402 206.261 67.9396V57.7583C206.261 52.0989 206.261 45.2189 198.799 45.2189C195.858 45.2189 193.999 46.717 192.834 47.9376V67.9396C192.834 71.7402 193.195 72.517 195.775 72.7389L197.273 72.8776V74.7363H179.906V72.8776L181.404 72.7389C183.846 72.517 184.206 71.7402 184.206 67.9396V51.0447H184.317Z" fill="white"/>
<path d="M232.422 72.9334L234.142 72.7114C237.527 72.0734 237.527 72.3508 237.527 64.1669V37.8398C237.527 30.8766 237.527 30.0166 234.142 29.5173L232.422 29.2953V27.4644H251.925V29.3231L250.205 29.545C246.848 30.0444 246.848 30.9044 246.848 37.8676V71.0747C249.012 71.574 251.231 72.0734 253.45 72.0734C263.576 72.0734 263.632 67.1908 265.712 61.254L268.292 61.7534C267.848 66.414 267.349 70.2147 265.796 74.7921H232.422V72.9334Z" fill="white"/>
<path d="M269.957 72.9331L271.455 72.7943C274.035 72.5169 274.396 71.7956 274.396 67.995V51.0724C274.396 48.5756 274.396 45.3298 272.232 45.3298C271.15 45.3298 270.234 45.6905 269.929 45.746V43.6653C275.311 41.8621 279.25 41.3072 282.996 41.0853V67.9672C282.996 71.7679 283.356 72.4892 285.936 72.7666L287.434 72.9053V74.764H269.929V72.9331H269.957ZM273.175 30.044C273.175 27.3253 275.339 25.106 278.196 25.106C280.915 25.106 283.218 27.3253 283.218 30.044C283.218 33.0679 280.915 35.1485 278.196 35.1485C275.339 35.1208 273.175 32.9847 273.175 30.044Z" fill="white"/>
<path d="M294.703 42.1677C294.703 32.2083 299.641 22.0825 310.904 22.0825C314.705 22.0825 317.146 23.2199 318.727 24.4406C318.228 26.6599 317.645 28.0193 315.87 29.8225H315.37C314.011 28.5186 310.71 25.6612 307.908 25.6612C303.608 25.6612 303.33 31.4593 303.33 38.0619V42.1399C305.494 42.2232 309.85 42.5006 312.236 42.778V44.6367C309.156 44.9974 306.354 45.2193 303.33 45.358V67.9399C303.33 71.7406 303.691 72.5174 306.354 72.7393L309.212 72.878V74.7367H290.292V72.878L291.734 72.7393C294.397 72.4619 294.758 71.7406 294.758 67.9399V45.358V42.1677H294.703Z" fill="white"/>
<path d="M343.723 71.2686C341.864 72.7666 337.342 75.846 330.101 75.846C321.64 75.846 313.318 70.4641 313.318 58.9234C313.318 47.5215 321.557 41.0576 329.741 41.0576C341.281 41.0576 343.14 48.5757 343.945 52.737C337.786 55.5944 329.824 57.897 322.361 59.617C323.138 63.917 325.302 71.657 335.123 71.657C339.007 71.657 342.003 70.0757 343.001 69.5763L343.723 71.2686ZM335.317 53.2086C334.818 48.0486 332.654 43.8041 328.132 43.8041C321.89 43.8041 321.89 54.9841 321.89 56.2879C326.44 55.5667 330.961 54.6234 335.317 53.2086Z" fill="white"/>
<path d="M46.7453 9.9873C46.6066 8.76665 46.5511 7.49052 46.6621 6.24214C46.7175 5.65956 46.8285 5.04923 46.9672 4.46665C46.995 4.32794 47.0504 4.07827 47.1059 3.80085C47.1614 3.55117 46.9117 3.38472 46.7175 3.52343C45.0253 4.91052 43.5272 6.76923 42.4175 8.65568C41.5021 10.2092 40.8363 11.9847 40.6698 13.8157C42.9446 14.0931 45.164 14.5647 47.3556 15.2583C47.4388 13.4828 46.9395 11.735 46.7453 9.9873Z" fill="#EAAB00"/>
<path d="M30.7105 14.01C32.7357 13.6771 34.7886 13.5383 36.8138 13.5661C36.7583 13.2887 36.7028 13.0112 36.6473 12.7616C36.4254 11.9016 35.8983 11.0971 35.5376 10.2925C35.1215 9.40479 34.7609 8.46157 34.4835 7.51834C34.2615 6.79705 34.0951 6.07576 34.0118 5.32673C33.9564 4.9106 33.9564 4.49447 33.9564 4.07834C33.9564 3.99512 33.9564 3.85641 33.9564 3.68995C33.9564 3.46802 33.7067 3.35705 33.568 3.5235C32.5138 4.9106 31.7925 6.57512 31.2376 8.26737C30.8493 9.46028 30.5441 10.6809 30.5164 11.9293C30.4886 12.4841 30.5164 13.039 30.6273 13.5661C30.6273 13.7048 30.6551 13.8712 30.7105 14.01Z" fill="#EAAB00"/>
<path d="M20.9729 16.5906C21.0284 16.7016 21.0838 16.8125 21.1671 16.9235C21.3613 16.8403 21.5555 16.7293 21.7497 16.6461C23.22 15.9803 24.7458 15.4532 26.2438 15.0093C26.1606 14.8151 26.0497 14.6209 25.9387 14.4545C25.5503 13.7609 24.9122 13.2061 24.4129 12.5958C23.8303 11.93 23.3032 11.2364 22.8316 10.4874C22.4987 9.93255 22.1658 9.32223 21.9161 8.7119C21.7774 8.379 21.6664 8.01836 21.5832 7.65771C21.5555 7.60223 21.5 7.46352 21.4722 7.32481C21.4167 7.13061 21.1671 7.10287 21.1116 7.29707C20.529 8.7119 20.3071 10.3209 20.2516 11.9022C20.2238 12.9842 20.2516 14.1216 20.5013 15.1758C20.6122 15.6751 20.7509 16.1467 20.9729 16.5906Z" fill="#EAAB00"/>
<path d="M58.9517 21.4452C61.06 23.1375 63.002 25.0517 64.722 27.2155C65.9981 25.5233 66.6917 23.4704 67.6626 21.6117C68.3562 20.3078 69.1607 19.0039 70.1317 17.8665C70.6033 17.3117 71.0749 16.7846 71.6297 16.3129C71.7407 16.202 71.9904 15.98 72.24 15.7581C72.462 15.5639 72.3233 15.2033 72.0459 15.231C69.4381 15.4529 66.6917 16.2852 64.3059 17.3949C62.253 18.3658 60.3665 19.7252 58.9517 21.4452Z" fill="#EAAB00"/>
<path d="M69.5493 35.2041C69.7435 35.6202 69.91 36.0641 70.0764 36.4802C71.9906 35.0377 73.2945 33.0125 74.8758 31.3202C75.9855 30.1273 77.1506 29.0177 78.4822 28.0744C79.1203 27.6306 79.7861 27.2144 80.4797 26.8538C80.6461 26.7706 80.9513 26.6041 81.2564 26.4377C81.5338 26.299 81.5061 25.8828 81.2009 25.8273C78.399 25.3557 75.2919 25.439 72.49 25.9661C70.1319 26.3822 67.8016 27.2699 65.8319 28.6848C67.2467 30.6822 68.5229 32.8738 69.5493 35.2041Z" fill="#EAAB00"/>
<path d="M58.0917 14.2325C58.3691 12.9009 58.7297 11.5693 59.2568 10.2931C59.5065 9.6828 59.8117 9.10022 60.1723 8.54539C60.2555 8.40668 60.3942 8.157 60.5607 7.90732C60.6994 7.68539 60.5052 7.40797 60.2555 7.49119C58.0362 8.37893 55.8168 9.82151 54.0136 11.4305C52.4878 12.7899 51.1562 14.4822 50.3794 16.3964C52.682 17.3673 54.9013 18.5602 56.9542 19.9751C57.6478 18.1441 57.7033 16.1189 58.0917 14.2325Z" fill="#EAAB00"/>
<path d="M78.5932 49.6859C76.7068 48.9369 74.6261 48.493 72.601 48.6317C72.6842 51.1562 72.49 53.6807 72.0739 56.1498C74.099 55.9833 75.9855 55.1233 77.8997 54.5962C79.2035 54.2356 80.5629 53.9582 81.95 53.9027C82.6158 53.8749 83.2539 53.8749 83.9197 53.9304C84.0584 53.9582 84.3635 53.9582 84.6687 53.9859C84.9461 54.0136 85.0848 53.7085 84.8906 53.542C83.0874 51.933 80.8403 50.6014 78.5932 49.6859Z" fill="#EAAB00"/>
<path d="M85.1126 39.5875C82.7545 38.45 79.9803 37.7287 77.3726 37.4513C75.1532 37.2294 72.8229 37.3958 70.6868 38.1726C71.5745 40.8081 72.1571 43.4991 72.4345 46.19C74.5152 45.4133 76.2352 43.9429 78.0939 42.8055C79.37 42.0287 80.7016 41.3629 82.1442 40.8636C82.81 40.6416 83.5035 40.4475 84.2248 40.3087C84.3913 40.281 84.6964 40.1978 85.0293 40.1423C85.3068 40.0591 85.39 39.6984 85.1126 39.5875Z" fill="#EAAB00"/>
<path d="M60.2278 77.1235C58.8684 78.3164 57.4259 79.3984 55.8723 80.3971C56.8988 81.4235 58.2304 82.0616 59.3955 82.8661C60.2001 83.4487 60.9768 84.0868 61.6704 84.8081C62.0033 85.1687 62.3084 85.5293 62.5581 85.9177C62.6136 86.001 62.7523 86.1674 62.8633 86.3616C62.9743 86.5281 63.2239 86.4726 63.2239 86.2784C63.2794 84.5306 63.002 82.6442 62.4472 80.9797C62.0033 79.5648 61.282 78.2055 60.2278 77.1235Z" fill="#EAAB00"/>
<path d="M67.1355 68.9946C66.0535 70.7424 64.8052 72.3791 63.4458 73.9327C64.9161 74.7095 66.5529 74.9314 68.1064 75.4585C69.1606 75.7914 70.2148 76.2075 71.1858 76.7901C71.6574 77.0675 72.1013 77.3449 72.5174 77.6779C72.6006 77.7611 72.7948 77.8998 73.0168 78.0385C73.1832 78.1772 73.4329 78.0385 73.3774 77.8166C72.8781 75.9301 71.9071 73.9882 70.7697 72.3791C69.7987 71.0475 68.5781 69.8269 67.1355 68.9946Z" fill="#EAAB00"/>
<path d="M76.318 61.6989C74.8754 60.5615 73.1832 59.6183 71.3799 59.2021C70.7974 61.4215 69.9929 63.5576 68.9941 65.6105C70.7974 65.9989 72.6283 65.7215 74.4038 65.777C75.6522 65.8047 76.9006 65.9434 78.1212 66.2486C78.7038 66.3873 79.2864 66.5815 79.8412 66.8034C79.9799 66.8589 80.2296 66.9421 80.4793 67.0531C80.7012 67.1363 80.9232 66.9144 80.8122 66.7202C79.647 64.8338 78.0103 63.086 76.318 61.6989Z" fill="#EAAB00"/>
<path d="M29.3789 79.176C23.5254 79.8973 18.1157 79.3425 13.788 77.5947C15.7022 79.1483 17.7551 80.5076 19.9467 81.6451C25.1899 84.3638 31.1544 85.8341 37.4518 85.6676C40.1428 85.5844 42.7505 85.2238 45.2473 84.6134C41.0305 84.1418 36.9802 82.9767 33.2351 81.2567C31.9312 80.6186 30.6273 79.9251 29.3789 79.176Z" fill="#EAAB00"/>
<path d="M60.949 64.334C60.949 64.334 61.1155 64.0844 60.949 63.8902C60.7826 63.7237 60.5329 63.9179 60.5329 63.9179C57.0374 67.3579 52.7929 70.5205 47.9103 73.1282C46.9948 73.6276 46.0516 74.0992 45.1084 74.5153C41.0303 76.4295 36.9245 77.7889 32.9574 78.5934C34.1226 79.2592 35.3432 79.8695 36.5916 80.4244C40.2813 82.0611 44.2484 83.1431 48.3819 83.6702C50.0187 83.0876 51.6 82.4218 53.1258 81.6173C50.9064 79.9527 48.8258 78.1495 46.8561 76.2631C52.9038 72.9895 57.7587 68.7727 60.949 64.334Z" fill="#EAAB00"/>
<path d="M4.46661 57.5922C4.74403 57.7309 5.02145 57.8974 5.32661 58.0361C6.40854 58.5355 7.62919 58.9239 8.9608 59.2013C10.0705 59.4509 11.2634 59.5897 12.5395 59.6729C12.0124 58.4522 11.5685 57.2039 11.1524 55.9277C10.5421 53.958 10.0427 51.9329 9.73758 49.8522C9.62661 49.1587 9.54338 48.4651 9.46016 47.7716C9.40467 47.189 9.34919 46.6064 9.32145 45.9961C9.2937 45.6909 9.2937 45.3858 9.2937 45.0529C9.23822 43.86 9.23822 42.6671 9.2937 41.5019C7.87887 41.3077 6.65822 40.9471 5.65951 40.42C5.5208 40.3645 5.40983 40.2813 5.29887 40.198C4.6608 39.8097 4.10596 39.3658 3.68983 38.8387C3.4679 38.5613 3.27371 38.2561 3.10725 37.9232C2.96854 37.618 2.85758 37.3129 2.77435 36.98C2.24725 38.3948 1.80338 39.8651 1.44274 41.3632C1.30403 41.9458 1.16532 42.5561 1.08209 43.1664C0.860157 44.3871 0.693705 45.6077 0.610479 46.8561C0.582738 47.1613 0.582738 47.4664 0.554996 47.7438C0.499512 48.6593 0.499512 49.5748 0.499512 50.518C0.527254 51.7109 0.610479 52.9039 0.776931 54.069C1.60919 55.5671 2.88532 56.7045 4.46661 57.5922Z" fill="#EAAB00"/>
<path d="M14.9808 41.5305C14.0375 41.6137 13.1498 41.6692 12.2898 41.6692C12.2898 42.5015 12.3175 43.3337 12.3453 44.1937V44.2215C12.373 44.4989 12.4008 44.7763 12.4008 45.0537C12.4285 45.5253 12.4562 45.9969 12.5117 46.4686C12.7337 48.7157 13.1221 50.8795 13.6492 52.9602C14.2317 55.2905 15.0085 57.5376 15.924 59.6737C20.6956 59.4795 26.1608 58.3144 31.7924 56.1782C29.5453 52.1002 27.6588 48.0221 26.0498 44.0828C25.7724 43.3892 25.495 42.6679 25.2175 41.9744C26.2717 41.5582 27.2982 41.1144 28.3524 40.615C34.9272 37.4802 40.1704 33.4021 43.1666 29.4073C43.3608 29.1299 43.5272 28.8802 43.7214 28.6028C43.7214 28.6028 43.9156 28.3253 43.6937 28.1034C43.4995 27.9092 43.2221 28.1034 43.2221 28.1034C42.6395 28.6582 42.0569 29.2131 41.3911 29.7679C38.3672 32.3479 34.5111 34.8169 30.1001 36.8976C28.1027 37.8408 26.1053 38.6176 24.1633 39.2834C22.2214 39.9492 20.335 40.4763 18.5317 40.8647C17.3666 41.1976 16.1459 41.3918 14.9808 41.5305Z" fill="#EAAB00"/>
<path d="M5.49318 36.5927C6.02027 37.0921 6.68608 37.5082 7.4906 37.8134C7.71253 37.8966 7.96221 37.9798 8.18414 38.0631C8.60027 38.2018 9.07189 38.3127 9.5435 38.396C9.59898 37.8411 9.68221 37.2863 9.76543 36.7592C9.84866 36.3153 9.90414 35.8992 9.98737 35.4553C10.2648 34.0127 10.6254 32.5979 11.0416 31.2108C11.9293 28.2424 13.0945 25.4127 14.5648 22.7218C14.9532 21.945 15.3693 21.196 15.8132 20.5024C15.9519 20.3082 16.0629 20.114 16.2016 19.8921C15.1196 20.6134 14.0932 21.4179 13.1222 22.2502C11.6241 23.5263 10.237 24.9411 8.96092 26.4392C7.04672 28.714 5.40995 31.2108 4.10608 33.9295C4.16156 34.3734 4.27253 34.8173 4.46672 35.2334C4.68866 35.7327 5.0493 36.1766 5.49318 36.5927Z" fill="#EAAB00"/>
<path d="M13.1499 32.819C13.0389 33.3461 12.9557 33.901 12.8725 34.428C12.6506 35.8151 12.4841 37.2022 12.4009 38.6171C14.4538 38.6448 16.7841 38.3951 19.3086 37.8403C20.6125 37.5629 21.9718 37.1745 23.3589 36.7584C23.1925 36.2868 23.0538 35.8151 22.8873 35.3713C22.2215 33.3739 21.6667 31.4874 21.1673 29.7119C21.0009 29.1016 20.8344 28.4913 20.668 27.9087C20.3906 26.91 20.1686 25.9668 19.9467 25.079C19.5028 23.3035 19.1422 21.75 18.8925 20.4461C18.7815 19.8913 18.6706 19.3642 18.5873 18.9203C18.5596 18.8093 18.5318 18.6984 18.5318 18.5874C18.4209 18.7539 18.3099 18.948 18.1989 19.1145C17.7828 19.8358 17.4222 20.5848 17.0338 21.3339C15.8686 23.7197 14.8977 26.1887 14.1486 28.7687C13.7602 30.1003 13.4273 31.4597 13.1499 32.819Z" fill="#EAAB00"/>
<path d="M25.8835 76.791C22.0274 73.8781 18.6706 70.2716 16.0351 66.1935C15.3693 65.1671 14.7312 64.0851 14.1487 63.0032C11.7074 62.9755 9.48802 62.6981 7.54608 62.1432C6.49189 61.8381 5.52092 61.4497 4.63318 61.0058C4.35576 60.8671 4.10609 60.7006 3.85641 60.5619C3.02415 60.0348 2.27512 59.4245 1.66479 58.731C2.10867 60.451 2.69125 62.1432 3.38479 63.7522C3.49576 64.0019 3.60673 64.2793 3.7177 64.529C4.10609 65.4168 4.54996 66.2768 5.02157 67.109C5.4377 67.8581 5.88157 68.5793 6.32544 69.3006C7.12996 70.5213 7.98996 71.6864 8.93318 72.7961C12.7893 75.931 18.8648 77.2903 25.8835 76.791Z" fill="#EAAB00"/>
<path d="M38.506 56.6774C36.8137 57.5097 35.0937 58.2587 33.4015 58.9245C27.7976 61.1439 22.3602 62.4477 17.5331 62.8639C18.1157 63.918 18.726 64.9168 19.364 65.9155C22.1105 70.049 25.5228 73.5722 29.4621 76.3742C33.8176 75.7084 38.4782 74.3768 43.1389 72.3793C40.0595 68.9393 37.3686 65.2497 34.955 61.4768C35.8982 61.0606 36.8415 60.6168 37.7847 60.1451C46.4124 55.8451 53.0428 50.1026 56.677 44.4155C56.677 44.4155 56.8711 44.138 56.6492 43.9439C56.4273 43.7219 56.1776 43.9439 56.1776 43.9439C51.8499 48.6322 45.7466 53.1264 38.506 56.6774Z" fill="#EAAB00"/>
</g>
<defs>
<clipPath id="clip0_1378_421">
<rect width="352.323" height="86" fill="white"/>
</clipPath>
</defs>
</svg>
