<svg width="325" height="66" viewBox="0 0 325 66" fill="none" xmlns="http://www.w3.org/2000/svg">
<g clip-path="url(#clip0_1378_326)">
<path d="M42.1985 19.4092H58.869C75.1555 19.4092 83.4267 27.5665 83.4267 41.8248V42.3386C83.4267 56.6612 74.9628 65.332 58.8051 65.332H42.1985V19.4092ZM58.4204 55.184C66.243 55.184 69.7054 51.0736 69.7054 42.5313V42.0175C69.7054 33.2825 66.243 29.5571 58.2923 29.5571H55.4067V55.184H58.4204ZM11.9987 29.6217H0.136963V19.4092H37.0692V29.6217H25.2071V65.332H11.9987V29.6217Z" fill="white"/>
</g>
<g clip-path="url(#clip1_1378_326)">
<path d="M299.793 29.6213H287.931V19.4092H324.863V29.6213H313.001V65.3316H299.793V29.6213ZM243.112 19.4092H257.924L272.543 44.9076V19.4092H284.084V65.3316H271.389L254.654 36.7507V65.3316H243.112V19.4092ZM206.437 19.4092H238.111V29.5571H219.517V37.4572H234.328V46.8344H219.517V55.184H239.137V65.3316H206.437V19.4092ZM158.989 19.4092H173.159L182.456 51.6513L191.817 19.4095H204.128L189.124 65.3316H174.185L158.989 19.4092ZM115.709 19.4092H130.52L145.14 44.9076V19.4092H156.681V65.3316H143.985L127.251 36.7507V65.3316H115.71L115.709 19.4092ZM96.6023 19.4092H109.875V65.3316H96.6023V19.4092Z" fill="white"/>
</g>
<g clip-path="url(#clip2_1378_326)">
<path d="M110.035 0.973145H96.7642V14.2442H110.035V0.973145Z" fill="white"/>
</g>
<defs>
<clipPath id="clip0_1378_326">
<rect width="83.5899" height="46.4747" fill="white" transform="translate(0 19.1592)"/>
</clipPath>
<clipPath id="clip1_1378_326">
<rect width="228.5" height="46.4747" fill="white" transform="translate(96.4995 19.1592)"/>
</clipPath>
<clipPath id="clip2_1378_326">
<rect width="13.5551" height="13.5551" fill="white" transform="translate(96.6609 0.763672)"/>
</clipPath>
</defs>
</svg>
