<svg width="1334" height="243" viewBox="0 0 1334 243" fill="none" xmlns="http://www.w3.org/2000/svg">
<g clip-path="url(#clip0_1449_479)">
<mask id="mask0_1449_479" style="mask-type:luminance" maskUnits="userSpaceOnUse" x="0" y="0" width="1334" height="243">
<path d="M0 -5.87885e-06H1333.33V242.703H0V-5.87885e-06Z" fill="white"/>
</mask>
<g mask="url(#mask0_1449_479)">
<path d="M670.332 117.645C667.474 123.212 666.084 129.291 666.084 135.845C666.084 142.4 667.512 148.48 670.332 154.045C673.15 159.612 677.106 163.969 682.196 167.192C687.249 170.415 693.034 172.027 699.444 172.027C705.853 172.027 711.309 170.708 715.886 168.035C720.426 165.361 723.796 161.772 725.993 157.232H754.192C751.701 164.263 748.076 170.745 743.389 176.604C738.664 182.463 732.548 187.187 725.041 190.812C717.497 194.437 708.745 196.232 698.712 196.232C687.761 196.232 677.729 193.559 668.646 188.139C659.528 182.719 652.424 175.432 647.26 166.167C642.061 156.939 639.496 146.832 639.496 135.845C639.496 124.86 642.097 114.789 647.26 105.524C652.424 96.296 659.565 88.972 668.646 83.552C677.729 78.1693 687.725 75.4586 698.712 75.4586C708.745 75.4586 717.497 77.2533 725.041 80.8787C732.584 84.468 738.701 89.228 743.389 95.088C748.076 100.947 751.664 107.428 754.192 114.46H725.993C723.796 109.919 720.426 106.329 715.886 103.656C711.346 100.984 705.853 99.6653 699.444 99.6653C693.034 99.6653 687.285 101.313 682.196 104.499C677.106 107.721 673.15 112.079 670.332 117.645ZM785.1 119.808C787.114 113.472 790.813 108.199 796.16 104.061C801.468 99.9226 808.682 97.836 817.765 97.836C823.442 97.836 828.531 98.9346 833.182 101.131C837.795 103.328 841.569 106.331 844.571 110.176C847.537 113.985 849.588 118.343 850.649 123.213H784.112C784.404 122.077 784.733 120.943 785.1 119.808ZM872.256 163.532C873.024 161.628 873.757 159.723 874.379 157.783H848.562C847.756 159.321 846.804 160.749 845.742 162.14C842.74 165.985 838.968 168.988 834.354 171.185C829.738 173.383 825.089 173.968 819.449 173.968C813.041 173.968 806.998 172.467 801.358 169.5C795.684 166.497 791.178 162.507 787.7 157.38C784.733 153.021 782.977 148.188 782.462 142.952H876.76C877.382 130.428 875.477 119.001 871.119 108.748H871.084C866.689 98.4947 859.95 90.4013 850.87 84.432C841.788 78.464 830.911 75.4973 818.241 75.4973C806.814 75.4973 796.416 78.2066 787.114 83.5906C777.813 89.0106 770.489 96.2973 765.142 105.452C759.796 114.644 757.16 124.715 757.16 135.664C757.16 138.155 757.305 140.571 757.597 142.952C758.477 151.301 760.966 159.064 765.033 166.315C770.268 175.653 777.63 183.049 787.114 188.544C796.597 194 807.366 196.783 819.411 196.783C832.082 196.783 842.961 193.816 852.041 187.848C861.124 181.879 867.862 173.785 872.256 163.532ZM556.694 154.192C553.472 159.832 549.188 164.3 543.768 167.595H543.841C538.421 170.891 532.453 172.503 525.86 172.503C519.269 172.503 513.3 170.891 507.88 167.595C502.46 164.3 498.174 159.832 494.953 154.192C491.73 148.552 490.12 142.84 490.12 136.101C490.12 129.364 491.694 123.248 494.806 117.683C497.92 112.116 502.241 107.757 507.733 104.536C513.226 101.313 519.233 99.7013 525.824 99.7013C532.416 99.7013 538.457 101.349 543.914 104.536C549.406 107.757 553.728 112.116 556.841 117.683C559.953 123.248 561.528 129.657 561.528 136.101C561.528 142.547 559.917 148.552 556.694 154.192ZM557.39 83.6253C547.905 78.1693 537.396 75.4226 525.788 75.4226C514.178 75.4226 503.669 78.1693 494.184 83.6253C484.7 89.1546 477.302 96.552 471.882 105.853C466.498 115.192 463.79 125.225 463.79 136.065C463.79 146.904 466.425 156.975 471.662 166.276C476.9 175.615 484.261 183.049 493.744 188.505H493.708C503.193 193.961 513.922 196.708 525.788 196.708C537.652 196.708 548.345 193.925 557.83 188.359C567.314 182.793 574.674 175.395 579.912 166.131C585.149 156.901 587.785 146.904 587.785 136.065C587.785 125.225 585.112 115.155 579.693 105.853C574.31 96.516 566.874 89.0813 557.39 83.6253ZM600.57 77.584H626.388V194.585H600.57V77.584ZM954.205 25.436H962.005V47.5186H955.964C950.178 47.5186 945.565 49.1293 942.158 52.352C938.753 55.5746 936.445 60.5187 935.309 67.256L933.502 77.584H962.005V99.8866H929.596L913.009 194.584H912.962L911.114 205.131C908.88 217.655 903.863 227.065 896.063 233.292H896.1C888.264 239.555 878.705 242.703 867.426 242.703C858.968 242.703 853.109 242.629 849.813 242.483L853.694 220.403H865.669C871.454 220.403 876.069 218.789 879.474 215.568C882.881 212.345 885.188 207.401 886.322 200.663L903.973 99.8866H884.848V77.584H907.879L910.52 62.7893C912.716 50.2653 917.731 40.8533 925.57 34.628L925.532 34.592C933.331 28.3293 942.926 25.436 954.205 25.436ZM487.305 25.436L417.289 194.584H389.092L319.073 25.436H348.442L403.776 162.508L459.108 25.436H487.305ZM1333.33 77.584L1290.12 194.585H1264.31L1236 111.795L1207.69 194.585H1181.87L1138.66 77.584H1165.54L1195.39 162.653L1224.06 77.584H1249.22L1277.67 162.653L1307.74 77.584H1333.33ZM979.182 25.436H1005V194.584H979.182V25.436ZM1111.61 154.192C1108.38 159.832 1104.1 164.3 1098.68 167.595H1098.75C1093.33 170.891 1087.36 172.503 1080.77 172.503C1074.18 172.503 1068.21 170.891 1062.79 167.595C1057.37 164.3 1053.09 159.832 1049.86 154.192C1046.64 148.552 1045.03 142.84 1045.03 136.101C1045.03 129.364 1046.61 123.248 1049.72 117.683C1052.83 112.116 1057.19 107.757 1062.64 104.536C1068.14 101.313 1074.14 99.7013 1080.74 99.7013C1087.33 99.7013 1093.37 101.349 1098.83 104.536C1104.32 107.757 1108.64 112.116 1111.75 117.683C1114.87 123.248 1116.44 129.657 1116.44 136.101C1116.44 142.547 1114.83 148.552 1111.61 154.192ZM1112.3 83.6253C1102.82 78.1693 1092.31 75.4226 1080.7 75.4226C1069.09 75.4226 1058.58 78.1693 1049.1 83.6253C1039.65 89.1546 1032.21 96.552 1026.79 105.853C1021.41 115.192 1018.7 125.225 1018.7 136.065C1018.7 146.904 1021.34 156.975 1026.57 166.276C1031.81 175.615 1039.17 183.049 1048.66 188.505H1048.62C1058.1 193.961 1068.8 196.708 1080.7 196.708C1092.6 196.708 1103.29 193.925 1112.78 188.359C1122.26 182.793 1129.62 175.395 1134.86 166.131C1140.1 156.901 1142.73 146.904 1142.73 136.065C1142.73 125.225 1140.02 115.155 1134.6 105.853C1129.22 96.516 1121.79 89.0813 1112.3 83.6253ZM600.57 25.436H626.388V51.2533H600.57V25.436ZM242.561 146.311C244.497 134.831 245.442 122.496 245.442 110.205C245.442 97.916 244.497 85.58 242.561 74.1C261.154 76.8467 275.47 91.9733 275.47 110.205C275.47 128.439 261.154 143.565 242.561 146.311ZM224.869 144.375C212.849 141.404 163.644 112.456 161.393 111.196V109.215C163.644 107.955 212.849 79.008 224.869 76.036C226.534 85.8506 227.616 97.24 227.616 110.205C227.616 123.171 226.534 134.561 224.869 144.375ZM208.077 184.667C206.817 185.523 205.286 185.343 203.89 184.621C196.462 180.615 169.406 138.343 169.406 136.901L170.712 135.507C178.816 141.133 199.389 155.135 220.773 161.707C216.856 174.177 212.038 182.011 208.077 184.667ZM203.89 35.7893C205.286 35.0693 206.817 34.8893 208.077 35.744C212.038 38.4 216.856 46.2333 220.773 58.704C199.389 65.2773 178.816 79.2773 170.712 84.9053L169.406 83.5093C169.406 82.0693 196.462 39.796 203.89 35.7893ZM131.95 111.196C129.7 112.456 80.4942 141.404 68.4742 144.375C66.8076 134.561 65.7276 123.171 65.7276 110.205C65.7276 97.24 66.8076 85.8506 68.4742 76.036C80.4942 79.008 129.7 107.955 131.95 109.215V111.196ZM89.4529 184.621C88.0569 185.343 86.5262 185.523 85.2662 184.667C81.3035 182.011 76.4875 174.177 72.5702 161.707C93.9542 155.135 114.528 141.133 122.632 135.507L123.937 136.901C123.937 138.343 96.8809 180.615 89.4529 184.621ZM85.2662 35.744C86.5262 34.8893 88.0569 35.0693 89.4529 35.7893C96.8809 39.796 123.937 82.0693 123.937 83.5093L122.632 84.9053C114.528 79.2773 93.9542 65.2773 72.5702 58.704C76.4875 46.2333 81.3035 38.4 85.2662 35.744ZM50.7809 146.311C32.1889 143.565 17.8729 128.439 17.8729 110.205C17.8729 91.9733 32.1889 76.8467 50.7809 74.1C48.8449 85.58 47.8996 97.916 47.8996 110.205C47.8996 122.496 48.8449 134.831 50.7809 146.311ZM238.51 55.868C231.892 33.088 220.773 16.836 205.286 16.836C184.622 16.836 156.305 74.8653 156.305 74.8653L154.46 74.46L154.956 67.9333C155.038 66.6827 155.121 64.1187 155.205 60.888C155.609 45.2667 155.436 29.6373 154.732 14.028L154.12 0.429315C154.108 0.189315 153.91 -2.62239e-05 153.669 -2.62239e-05H139.673C139.433 -2.62239e-05 139.234 0.189315 139.224 0.429315L138.612 14.028C137.908 29.6373 137.734 45.2667 138.138 60.888C138.221 64.1187 138.305 66.6827 138.388 67.9333L138.884 74.46L137.037 74.8653C137.037 74.8653 108.721 16.836 88.0569 16.836C72.5702 16.836 61.4502 33.088 54.8329 55.868C24.4449 56.8586 -0.000427246 80.808 -0.000427246 110.205C-0.000427246 139.603 24.4449 163.553 54.8329 164.544C61.4502 187.323 72.5702 203.575 88.0569 203.575C108.721 203.575 137.037 145.545 137.037 145.545L138.884 145.951L138.388 152.479C138.305 153.729 138.221 156.292 138.138 159.524C137.734 175.144 137.908 190.775 138.612 206.384L139.224 219.981C139.234 220.223 139.433 220.412 139.673 220.412H153.669C153.91 220.412 154.108 220.223 154.12 219.981L154.732 206.384C155.436 190.775 155.609 175.144 155.205 159.524C155.121 156.292 155.038 153.729 154.956 152.479L154.46 145.951L156.305 145.545C156.305 145.545 184.622 203.575 205.286 203.575C220.773 203.575 231.892 187.323 238.51 164.544C268.898 163.553 293.342 139.603 293.342 110.205C293.342 80.808 268.898 56.8586 238.51 55.868Z" fill="white"/>
</g>
</g>
<defs>
<clipPath id="clip0_1449_479">
<rect width="1333.33" height="242.703" fill="white"/>
</clipPath>
</defs>
</svg>
