<svg width="274" height="65" viewBox="0 0 274 65" fill="none" xmlns="http://www.w3.org/2000/svg">
<g clip-path="url(#clip0_1378_462)">
<path d="M40.7514 63.1928H9.23699C4.13554 63.1928 0 59.0574 0 53.9557V18.094C0 12.9925 4.13554 8.85693 9.23699 8.85693H54.3352L40.7514 63.1928Z" fill="#006DA8"/>
<path d="M40.9907 0H72.5053C77.6066 0 81.7421 4.13561 81.7421 9.23713V45.0988C81.7421 50.2005 77.6066 54.3359 72.5053 54.3359H27.407L40.9907 0Z" fill="#9F73FF"/>
<path d="M40.9907 0H72.5053C77.6066 0 81.7421 4.13561 81.7421 9.23713V45.0988C81.7421 50.2005 77.6066 54.3359 72.5053 54.3359H27.407L40.9907 0Z" fill="url(#paint0_linear_1378_462)"/>
<path d="M100.266 9.2793H106.915L116.733 41.3624L127.093 9.2793H132.968L142.786 41.3624L153.068 9.2793H159.485L146.343 48.7069H139.385L129.876 19.4068L119.98 48.7069L113.023 48.784L100.266 9.2793Z" fill="white"/>
<path d="M200.736 9.27929V48.7069H195.247L194.396 42.3676C191.097 46.903 186.588 49.1706 180.867 49.1706C177.208 49.1706 173.935 48.3716 171.049 46.7742C168.214 45.1765 165.972 42.8572 164.323 39.8163C162.725 36.7754 161.927 33.1677 161.927 28.993C161.927 25.0245 162.725 21.5198 164.323 18.4791C165.972 15.4382 168.24 13.0674 171.126 11.3666C174.012 9.66583 177.259 8.81543 180.867 8.81543C184.011 8.81543 186.717 9.40815 188.984 10.5936C191.252 11.7789 193.056 13.4024 194.396 15.464L195.247 9.27929H200.736ZM181.486 43.5271C184.011 43.5271 186.253 42.9343 188.212 41.749C190.221 40.512 191.768 38.8114 192.85 36.6466C193.932 34.4304 194.473 31.9308 194.473 29.1477C194.473 26.313 193.932 23.7876 192.85 21.5714C191.768 19.3037 190.221 17.5513 188.212 16.3144C186.253 15.0774 184.011 14.459 181.486 14.459C177.569 14.459 174.399 15.8248 171.977 18.5563C169.606 21.2364 168.42 24.7153 168.42 28.993C168.42 33.2708 169.606 36.7754 171.977 39.5071C174.399 42.1872 177.569 43.5271 181.486 43.5271Z" fill="white"/>
<path d="M229.394 9.2793V15.464H226.224C222.462 15.464 219.756 16.7267 218.107 19.2521C216.509 21.7776 215.71 24.8957 215.71 28.6065V48.7069H209.371V9.2793H214.86L215.71 15.2321C216.844 13.4282 218.313 11.9851 220.117 10.9028C221.921 9.82045 224.42 9.2793 227.616 9.2793H229.394Z" fill="white"/>
<path d="M255.059 8.81543C258.719 8.81543 261.966 9.6143 264.8 11.212C267.687 12.8097 269.928 15.129 271.526 18.1698C273.176 21.2106 274 24.8184 274 28.993C274 32.9616 273.176 36.4662 271.526 39.5071C269.928 42.548 267.687 44.9186 264.8 46.6193C261.914 48.3203 258.667 49.1706 255.059 49.1706C251.864 49.1706 249.132 48.6036 246.865 47.47C244.597 46.2843 242.819 44.6866 241.53 42.6768V64.1686H235.191V9.27929H240.68L241.53 15.6186C244.829 11.0832 249.339 8.81543 255.059 8.81543ZM254.441 43.5271C258.358 43.5271 261.502 42.1872 263.872 39.5071C266.295 36.7754 267.506 33.2708 267.506 28.993C267.506 24.7153 266.295 21.2364 263.872 18.5563C261.502 15.8248 258.358 14.459 254.441 14.459C251.915 14.459 249.648 15.0774 247.638 16.3144C245.679 17.4998 244.159 19.2006 243.076 21.4168C241.994 23.5814 241.453 26.0553 241.453 28.8384C241.453 31.6731 241.994 34.2243 243.076 36.492C244.159 38.7081 245.679 40.4346 247.638 41.6715C249.648 42.9085 251.915 43.5271 254.441 43.5271Z" fill="white"/>
</g>
<defs>
<linearGradient id="paint0_linear_1378_462" x1="45.9542" y1="44.4741" x2="90.6005" y2="8.10954" gradientUnits="userSpaceOnUse">
<stop stop-color="#01A4FF"/>
<stop offset="0.791667" stop-color="#01FFC2"/>
</linearGradient>
<clipPath id="clip0_1378_462">
<rect width="274" height="64.1963" fill="white"/>
</clipPath>
</defs>
</svg>
