<svg width="546" height="463" viewBox="0 0 546 463" fill="none" xmlns="http://www.w3.org/2000/svg">
<rect x="342.276" y="273.77" width="29.2223" height="4.49346" transform="rotate(48.5401 342.276 273.77)" fill="#3A325F"/>
<circle cx="360.5" cy="296.5" r="10.5" fill="#2D2554"/>
<path d="M215.095 229.957L126.527 262.276L195.64 153.311L207.102 154.531L215.095 229.957Z" fill="url(#paint0_linear_1165_696)"/>
<path d="M434.543 204.833L406.48 205.162L433.931 163.972L436.661 162.556L434.543 204.833Z" fill="url(#paint1_linear_1165_696)"/>
<path d="M37.9538 265.706C41.0892 306.554 157.059 318.046 245.039 311.293C412.027 269.838 471.621 245.504 469.249 214.607C466.114 173.759 236.087 197.71 148.107 204.463C95.8982 213.156 85.3108 218.282 37.9538 265.706Z" fill="url(#paint2_linear_1165_696)"/>
<path d="M277.034 273.952L157.31 293.551L156.154 296.598L322.069 373.41L335.149 370.187L277.034 273.952Z" fill="url(#paint3_linear_1165_696)"/>
<path d="M459.671 219.802L429.758 229.502L497.605 269.536L501.014 268.358L459.671 219.802Z" fill="url(#paint4_linear_1165_696)"/>
<path d="M454.129 210.837L408.585 207.651L487.365 133.545L502.629 135.093L454.129 210.837Z" fill="url(#paint5_linear_1165_696)"/>
<path d="M121.448 257.754L84.456 248.893L67.1596 237.438L60.8458 244.46L71.9858 253.939L117.805 265.961L121.448 257.754Z" fill="#5A51AD"/>
<defs>
<linearGradient id="paint0_linear_1165_696" x1="264.694" y1="172.008" x2="155.542" y2="254.286" gradientUnits="userSpaceOnUse">
<stop offset="0.095" stop-color="#FDE1FF"/>
<stop offset="1" stop-color="#B2A7F1"/>
</linearGradient>
<linearGradient id="paint1_linear_1165_696" x1="454.192" y1="193.87" x2="415.694" y2="206.59" gradientUnits="userSpaceOnUse">
<stop offset="0.095" stop-color="#FDE1FF"/>
<stop offset="1" stop-color="#BDB3FB"/>
</linearGradient>
<linearGradient id="paint2_linear_1165_696" x1="251.443" y1="193.017" x2="253.011" y2="365.556" gradientUnits="userSpaceOnUse">
<stop stop-color="#FDE1FF"/>
<stop offset="0.53" stop-color="#BBA7EB"/>
<stop offset="1" stop-color="#A094E1"/>
</linearGradient>
<linearGradient id="paint3_linear_1165_696" x1="459.892" y1="279.04" x2="166.417" y2="302.915" gradientUnits="userSpaceOnUse">
<stop stop-color="#FDE1FF"/>
<stop offset="1" stop-color="#9385E2"/>
</linearGradient>
<linearGradient id="paint4_linear_1165_696" x1="502.52" y1="216.858" x2="449.348" y2="194.24" gradientUnits="userSpaceOnUse">
<stop stop-color="#FDE1FF"/>
<stop offset="1" stop-color="#C1B9F1"/>
</linearGradient>
<linearGradient id="paint5_linear_1165_696" x1="493.947" y1="192.414" x2="422.088" y2="190.02" gradientUnits="userSpaceOnUse">
<stop offset="0.095" stop-color="#FDE1FF"/>
<stop offset="1" stop-color="#DEB8EF"/>
</linearGradient>
</defs>
</svg>
