<svg width="299" height="187" viewBox="0 0 299 187" fill="none" xmlns="http://www.w3.org/2000/svg">
<g filter="url(#filter0_d_1056_2108)">
<path d="M152.91 6.77994C273.41 6.77994 290.41 26.2798 290.41 90.2799C290.41 157.28 267.91 171.78 144.91 171.78C114.286 171.78 88.0873 170.432 67.0732 165.44C61.0592 170.262 53.7705 173.545 46.3516 174.94C29.7741 178.056 16.9307 174.94 16.9307 174.94C16.9307 174.94 23.6961 163.834 27.6953 145.987C15.1011 133.769 8.41016 115.993 8.41016 90.2799C8.41016 13.7799 44.9102 6.77994 152.91 6.77994Z" fill="#8F57AD"/>
<path d="M67.0732 165.44L67.9977 161.548C66.7977 161.263 65.5333 161.548 64.571 162.319L67.0732 165.44ZM46.3516 174.94L47.0906 178.871L47.0906 178.871L46.3516 174.94ZM16.9307 174.94L13.5146 172.859C12.8503 173.95 12.7466 175.292 13.2353 176.471C13.7241 177.651 14.7466 178.526 15.9875 178.827L16.9307 174.94ZM27.6953 145.987L31.5985 146.862C31.9028 145.504 31.4794 144.085 30.4805 143.116L27.6953 145.987ZM152.91 6.77994V10.7799C182.96 10.7799 206.383 11.9979 224.627 14.7811C242.898 17.5682 255.665 21.8823 264.629 27.8581C282.077 39.4902 286.41 58.3459 286.41 90.2799H290.41H294.41C294.41 58.2138 290.243 35.3195 269.066 21.2017C258.718 14.3025 244.642 9.74166 225.834 6.87254C207 3.99945 183.11 2.77994 152.91 2.77994V6.77994ZM290.41 90.2799H286.41C286.41 106.887 285.003 119.779 281.226 129.879C277.515 139.803 271.473 147.155 261.801 152.682C251.971 158.299 238.235 162.118 219.043 164.498C199.886 166.873 175.614 167.78 144.91 167.78V171.78V175.78C175.707 175.78 200.372 174.874 220.027 172.437C239.647 170.004 254.599 166.011 265.77 159.628C277.098 153.155 284.368 144.319 288.719 132.681C293.005 121.219 294.41 107.173 294.41 90.2799H290.41ZM144.91 171.78V167.78C114.325 167.78 88.526 166.425 67.9977 161.548L67.0732 165.44L66.1488 169.332C87.6486 174.439 114.246 175.78 144.91 175.78V171.78ZM67.0732 165.44L64.571 162.319C59.0808 166.722 52.4007 169.733 45.6126 171.009L46.3516 174.94L47.0906 178.871C55.1402 177.358 63.0377 173.803 69.5755 168.561L67.0732 165.44ZM46.3516 174.94L45.6126 171.009C37.7381 172.489 30.7403 172.49 25.7187 172.12C23.212 171.935 21.2101 171.658 19.8531 171.433C19.1749 171.32 18.6591 171.22 18.3231 171.15C18.1551 171.116 18.0322 171.089 17.9565 171.072C17.9187 171.063 17.8928 171.057 17.8789 171.054C17.8719 171.052 17.868 171.051 17.8672 171.051C17.8668 171.051 17.8671 171.051 17.8682 171.052C17.8688 171.052 17.8695 171.052 17.8705 171.052C17.8709 171.052 17.8718 171.052 17.872 171.052C17.8729 171.053 17.8739 171.053 16.9307 174.94C15.9875 178.827 15.9885 178.828 15.9896 178.828C15.99 178.828 15.9912 178.828 15.992 178.828C15.9938 178.829 15.9957 178.829 15.9978 178.83C16.002 178.831 16.0071 178.832 16.0129 178.833C16.0245 178.836 16.0393 178.84 16.0571 178.844C16.0929 178.852 16.141 178.863 16.2014 178.877C16.3219 178.904 16.4912 178.941 16.7068 178.985C17.1379 179.074 17.7549 179.193 18.5399 179.324C20.1091 179.585 22.3541 179.893 25.1304 180.098C30.6749 180.507 38.3876 180.507 47.0906 178.871L46.3516 174.94ZM16.9307 174.94C20.3468 177.021 20.3472 177.02 20.3477 177.019C20.348 177.019 20.3485 177.018 20.3489 177.018C20.3497 177.016 20.3506 177.015 20.3517 177.013C20.3537 177.01 20.3562 177.006 20.359 177.001C20.3647 176.991 20.3721 176.979 20.381 176.964C20.3989 176.934 20.4231 176.894 20.4533 176.843C20.5138 176.74 20.5985 176.595 20.705 176.408C20.918 176.033 21.2186 175.492 21.5877 174.793C22.3259 173.395 23.3396 171.361 24.4778 168.76C26.7525 163.562 29.5333 156.078 31.5985 146.862L27.6953 145.987L23.7921 145.112C21.8581 153.743 19.2565 160.736 17.1488 165.553C16.0956 167.959 15.1681 169.817 14.5128 171.059C14.1852 171.679 13.9259 172.145 13.7533 172.448C13.6671 172.6 13.6025 172.711 13.5619 172.779C13.5416 172.814 13.5274 172.838 13.5194 172.851C13.5154 172.858 13.513 172.862 13.5121 172.863C13.5117 172.864 13.5117 172.864 13.5121 172.863C13.5123 172.863 13.5126 172.862 13.5131 172.862C13.5133 172.861 13.5136 172.861 13.5137 172.861C13.5141 172.86 13.5146 172.859 16.9307 174.94ZM27.6953 145.987L30.4805 143.116C18.8962 131.878 12.4102 115.286 12.4102 90.2799H8.41016H4.41016C4.41016 116.7 11.3061 135.66 24.9101 148.858L27.6953 145.987ZM8.41016 90.2799H12.4102C12.4102 71.4077 14.6723 57.2708 19.4517 46.5939C24.1649 36.0648 31.4214 28.684 41.949 23.4201C52.6199 18.0847 66.7421 14.8824 85.1656 13.0493C103.56 11.2192 125.918 10.7799 152.91 10.7799V6.77994V2.77994C125.903 2.77994 103.198 3.2157 84.3735 5.08865C65.5782 6.95871 50.3254 10.2877 38.3713 16.2647C26.2739 22.3134 17.6554 31.0263 12.1499 43.3253C6.71053 55.4765 4.41016 70.9021 4.41016 90.2799H8.41016Z" fill="white"/>
</g>
<defs>
<filter id="filter0_d_1056_2108" x="0.410156" y="0.779938" width="298" height="185.545" filterUnits="userSpaceOnUse" color-interpolation-filters="sRGB">
<feFlood flood-opacity="0" result="BackgroundImageFix"/>
<feColorMatrix in="SourceAlpha" type="matrix" values="0 0 0 0 0 0 0 0 0 0 0 0 0 0 0 0 0 0 127 0" result="hardAlpha"/>
<feOffset dy="2"/>
<feGaussianBlur stdDeviation="2"/>
<feColorMatrix type="matrix" values="0 0 0 0 0.235294 0 0 0 0 0.12549 0 0 0 0 0.298039 0 0 0 0.2 0"/>
<feBlend mode="normal" in2="BackgroundImageFix" result="effect1_dropShadow_1056_2108"/>
<feBlend mode="normal" in="SourceGraphic" in2="effect1_dropShadow_1056_2108" result="shape"/>
</filter>
</defs>
</svg>
