<svg width="15" height="80" viewBox="0 0 15 80" fill="none" xmlns="http://www.w3.org/2000/svg">
<path d="M11 79.2769L0.499999 79.2769L0.499999 72.4369L2.72 72.4369L2.72 76.8619L4.64 76.8619L4.64 73.1569L6.785 73.1569L6.785 76.8619L8.78 76.8619L8.78 72.3619L11 72.3619L11 79.2769ZM11.18 67.5032C11.18 68.3932 10.97 69.0582 10.55 69.4982C10.12 69.9282 9.51 70.1432 8.72 70.1432L5.465 70.1432L5.465 71.3132L3.5 71.3132L3.5 70.1432L1.16 70.1432L1.16 67.8032L3.5 67.8032L3.5 66.0932L5.465 66.0932L5.465 67.8032L8.135 67.8032C8.435 67.8032 8.655 67.7482 8.795 67.6382C8.935 67.5282 9.005 67.3582 9.005 67.1282C9.005 67.0382 8.985 66.9332 8.945 66.8132C8.895 66.6932 8.835 66.5832 8.765 66.4832L10.475 65.6732C10.675 65.9132 10.845 66.2032 10.985 66.5432C11.115 66.8732 11.18 67.1932 11.18 67.5032ZM11 64.4873L0.499999 64.4873L0.499999 62.1473L4.4 62.1473C4.04 61.8973 3.77 61.5973 3.59 61.2473C3.41 60.8973 3.32 60.5073 3.32 60.0773C3.32 59.4673 3.445 58.9573 3.695 58.5473C3.935 58.1373 4.305 57.8323 4.805 57.6323C5.305 57.4223 5.945 57.3173 6.725 57.3173L11 57.3173L11 59.6573L7.16 59.6573C6.76 59.6573 6.445 59.7023 6.215 59.7923C5.975 59.8823 5.8 60.0123 5.69 60.1823C5.58 60.3523 5.52 60.5523 5.51 60.7823C5.5 61.2323 5.625 61.5723 5.885 61.8023C6.135 62.0323 6.52 62.1473 7.04 62.1473L11 62.1473L11 64.4873ZM11.18 53.4893C11.18 54.3693 10.985 55.0543 10.595 55.5443C10.195 56.0343 9.625 56.2793 8.885 56.2793C8.095 56.2793 7.505 56.0243 7.115 55.5143C6.725 55.0043 6.53 54.2893 6.53 53.3693L6.53 51.5393C6.14 51.5893 5.835 51.7093 5.615 51.8993C5.385 52.0793 5.27 52.3743 5.27 52.7843C5.27 53.0643 5.335 53.3093 5.465 53.5193C5.595 53.7293 5.77 53.9093 5.99 54.0593L5.315 56.1143C4.945 55.9343 4.61 55.6993 4.31 55.4093C4.01 55.1093 3.77 54.7443 3.59 54.3143C3.41 53.8843 3.32 53.3843 3.32 52.8143C3.32 52.0343 3.465 51.3743 3.755 50.8343C4.045 50.2943 4.45 49.8893 4.97 49.6193C5.49 49.3493 6.105 49.2143 6.815 49.2143L11 49.2443L11 51.4343L10.235 51.4643C10.545 51.6743 10.78 51.9493 10.94 52.2893C11.1 52.6293 11.18 53.0293 11.18 53.4893ZM9.41 52.9643C9.41 52.6743 9.35 52.4243 9.23 52.2143C9.11 51.9943 8.95 51.8243 8.75 51.7043C8.54 51.5743 8.315 51.5093 8.075 51.5093L8.045 51.5093L8.045 52.4993C8.045 52.9893 8.115 53.3443 8.255 53.5643C8.385 53.7843 8.575 53.8943 8.825 53.8943C9.005 53.8943 9.15 53.8143 9.26 53.6543C9.36 53.4843 9.41 53.2543 9.41 52.9643ZM11 47.7888L3.5 47.7888L3.5 45.5838L4.46 45.4938C4.1 45.2438 3.82 44.9388 3.62 44.5788C3.42 44.2188 3.32 43.8138 3.32 43.3638C3.32 42.7638 3.445 42.2588 3.695 41.8488C3.935 41.4388 4.305 41.1338 4.805 40.9338C5.305 40.7238 5.945 40.6188 6.725 40.6188L11 40.6188L11 42.9588L7.16 42.9588C6.76 42.9588 6.445 43.0038 6.215 43.0938C5.975 43.1838 5.8 43.3138 5.69 43.4838C5.58 43.6438 5.52 43.8438 5.51 44.0838C5.5 44.5338 5.625 44.8738 5.885 45.1038C6.135 45.3338 6.52 45.4488 7.04 45.4488L11 45.4488L11 47.7888ZM11 35.4195L0.499999 35.4195L0.499999 31.2945C0.499999 30.5345 0.649999 29.8595 0.95 29.2695C1.24 28.6795 1.65 28.2195 2.18 27.8895C2.7 27.5495 3.3 27.3795 3.98 27.3795C4.67 27.3795 5.285 27.5595 5.825 27.9195C6.355 28.2695 6.76 28.7395 7.04 29.3295L11 26.9595L11 29.7195L7.475 31.7295C7.475 31.7895 7.475 31.8545 7.475 31.9245C7.475 31.9845 7.475 32.0445 7.475 32.1045V33.0045L11 33.0045L11 35.4195ZM5.255 33.0045L5.255 31.3695C5.255 31.0895 5.2 30.8395 5.09 30.6195C4.98 30.3995 4.83 30.2295 4.64 30.1095C4.44 29.9795 4.22 29.9145 3.98 29.9145C3.61 29.9145 3.305 30.0545 3.065 30.3345C2.825 30.6045 2.705 30.9645 2.705 31.4145L2.705 33.0045L5.255 33.0045ZM11.18 22.2301C11.18 23.0201 11.015 23.7151 10.685 24.3151C10.345 24.9151 9.88 25.3901 9.29 25.7401C8.7 26.0801 8.02 26.2501 7.25 26.2501C6.48 26.2501 5.8 26.0851 5.21 25.7551C4.62 25.4151 4.16 24.9451 3.83 24.3451C3.49 23.7351 3.32 23.0451 3.32 22.2751C3.32 21.4851 3.49 20.7901 3.83 20.1901C4.16 19.5801 4.62 19.1101 5.21 18.7801C5.8 18.4401 6.48 18.2701 7.25 18.2701C8.02 18.2701 8.7 18.4401 9.29 18.7801C9.88 19.1101 10.345 19.5751 10.685 20.1751C11.015 20.7751 11.18 21.4601 11.18 22.2301ZM9.02 22.2301C9.02 21.9301 8.945 21.6651 8.795 21.4351C8.645 21.1951 8.44 21.0101 8.18 20.8801C7.91 20.7401 7.6 20.6701 7.25 20.6701C6.9 20.6701 6.595 20.7401 6.335 20.8801C6.065 21.0101 5.855 21.1951 5.705 21.4351C5.555 21.6751 5.48 21.9501 5.48 22.2601C5.48 22.5701 5.555 22.8451 5.705 23.0851C5.855 23.3251 6.065 23.5151 6.335 23.6551C6.595 23.7851 6.9 23.8501 7.25 23.8501C7.6 23.8501 7.91 23.7851 8.18 23.6551C8.44 23.5151 8.645 23.3251 8.795 23.0851C8.945 22.8351 9.02 22.5501 9.02 22.2301ZM11 17.1296L3.5 17.1296L3.5 14.9246L4.46 14.8346C4.1 14.5846 3.82 14.2796 3.62 13.9196C3.42 13.5596 3.32 13.1546 3.32 12.7046C3.32 12.1046 3.445 11.5996 3.695 11.1896C3.935 10.7796 4.305 10.4746 4.805 10.2746C5.305 10.0646 5.945 9.95958 6.725 9.95958L11 9.95958L11 12.2996L7.16 12.2996C6.76 12.2996 6.445 12.3446 6.215 12.4346C5.975 12.5246 5.8 12.6546 5.69 12.8246C5.58 12.9846 5.52 13.1846 5.51 13.4246C5.5 13.8746 5.625 14.2146 5.885 14.4446C6.135 14.6746 6.52 14.7896 7.04 14.7896L11 14.7896L11 17.1296ZM14.21 4.99095C14.21 5.60095 14.17 6.13595 14.09 6.59595C14.01 7.04595 13.905 7.43095 13.775 7.75095C13.645 8.07095 13.5 8.33595 13.34 8.54595L11.48 7.63095C11.55 7.47095 11.635 7.28095 11.735 7.06095C11.845 6.84095 11.94 6.57095 12.02 6.25095C12.1 5.93095 12.14 5.54595 12.14 5.09595C12.14 4.74595 12.07 4.43595 11.93 4.16595C11.8 3.88595 11.59 3.67095 11.3 3.52095C11.02 3.36095 10.665 3.28095 10.235 3.28095L9.545 3.28095C9.915 3.52095 10.205 3.83595 10.415 4.22595C10.615 4.60595 10.715 5.04095 10.715 5.53095C10.715 6.23095 10.575 6.83595 10.295 7.34595C10.005 7.84595 9.595 8.23595 9.065 8.51595C8.535 8.78595 7.905 8.92095 7.175 8.92095C6.375 8.92095 5.69 8.78595 5.12 8.51595C4.55 8.23595 4.11 7.84595 3.8 7.34595C3.48 6.83595 3.32 6.23095 3.32 5.53095C3.32 5.04095 3.435 4.60595 3.665 4.22595C3.885 3.83595 4.205 3.52095 4.625 3.28095L3.5 3.28095L3.5 0.940951L10.145 0.940951C10.985 0.940951 11.71 1.10095 12.32 1.42095C12.93 1.74095 13.395 2.20095 13.715 2.80095C14.045 3.40095 14.21 4.13095 14.21 4.99095ZM8.765 4.84095C8.765 4.54095 8.695 4.28595 8.555 4.07595C8.405 3.85595 8.205 3.69095 7.955 3.58095C7.705 3.46095 7.42 3.40095 7.1 3.40095C6.76 3.40095 6.465 3.46095 6.215 3.58095C5.965 3.70095 5.77 3.87095 5.63 4.09095C5.49 4.30095 5.42 4.55595 5.42 4.85595C5.42 5.14595 5.49 5.40595 5.63 5.63595C5.77 5.85595 5.965 6.03095 6.215 6.16095C6.465 6.28095 6.76 6.34595 7.1 6.35595C7.42 6.34595 7.705 6.28095 7.955 6.16095C8.205 6.03095 8.405 5.85095 8.555 5.62095C8.695 5.39095 8.765 5.13095 8.765 4.84095Z" fill="#776780"/>
</svg>
