<svg width="123" height="44" viewBox="0 0 123 44" fill="none" xmlns="http://www.w3.org/2000/svg">
<path d="M5.16 42.936C2.984 42.808 1.64 41.656 1.128 39.48C0.744 37.752 1.064 36.088 1.448 34.488C2.088 31.48 3.176 28.6 4.2 25.72L5.032 23.416C4.52 23.288 4.008 23.224 3.56 23.032C2.6 22.52 2.536 21.304 3.496 20.728C4.2 20.344 4.968 20.088 5.736 19.832C6.312 19.64 6.696 19.384 6.952 18.808L10.792 10.488C10.92 10.296 10.984 10.04 10.728 9.848C10.6 9.784 10.28 9.72 10.088 9.784C8.68 10.296 7.08 10.424 5.8 11.384C5.608 11.512 5.224 11.576 4.904 11.576C4.264 11.576 3.816 11.256 3.56 10.744C3.368 10.232 3.496 9.592 3.88 9.144C4.52 8.504 5.352 8.184 6.184 7.928C7.976 7.352 9.704 6.776 11.496 6.328C12.264 6.136 12.904 5.944 13.224 5.176C13.608 4.344 14.312 4.088 15.016 4.472C16.296 5.112 17.448 4.792 18.728 4.472L31.336 1.272C31.784 1.144 32.232 0.952 32.744 1.144C33.256 1.4 33.832 1.656 33.896 2.296C33.96 2.936 33.448 3.256 32.872 3.448C32.04 3.768 31.272 4.088 30.376 4.344C26.28 5.432 22.184 6.52 18.088 7.672L16.68 8.056C16.232 8.184 15.848 8.504 15.656 8.952L11.944 17.72C12.776 18.04 13.288 17.784 13.864 17.656C16.872 16.888 19.944 16.184 22.952 15.416C23.784 15.16 24.552 15.224 25.256 15.672C25.832 16.12 25.832 16.888 25.256 17.336C24.744 17.656 24.232 17.784 23.656 17.912C19.816 19 15.976 20.152 12.072 21.112C10.792 21.432 9.96 22.008 9.512 23.288C7.976 27.64 6.312 31.864 5.352 36.344C5.16 37.176 5.032 37.944 5.16 38.776C5.224 39.288 5.544 39.608 6.12 39.608C7.336 39.608 8.488 39.224 9.704 38.904C13.096 38.008 16.36 36.728 19.432 34.872C20.264 34.36 21.096 33.976 22.184 34.232C22.632 34.36 23.08 34.616 23.272 35.064C23.528 35.704 23.208 36.152 22.76 36.6C22.504 36.856 22.12 37.048 21.8 37.304C17.768 40.056 13.288 41.848 8.552 42.808C7.464 43.064 6.312 43 5.16 42.936ZM29.8125 38.328C28.9165 38.008 28.4685 37.176 28.5325 36.216C28.5965 35.512 28.6605 34.744 28.7885 34.04C29.7485 29.432 31.2845 24.952 32.6285 20.408C32.9485 19.384 33.2045 18.36 33.5245 17.4C33.7165 16.632 34.2925 16.312 34.9325 16.376C35.7005 16.44 36.2125 16.824 36.3405 17.528C36.4685 18.36 36.8525 19.192 36.1485 20.024C35.8285 20.408 35.7005 21.048 35.5725 21.56C34.9965 23.48 34.4205 25.464 33.9725 27.384C33.2045 30.392 34.6765 28.088 34.9325 27.704C37.3645 24.184 39.6685 20.536 42.2285 17.208C42.5485 16.824 42.8685 16.44 43.1245 16.056C43.6365 15.352 44.2765 15.224 45.0445 15.352C46.1325 15.544 46.5165 16.312 46.0045 17.272C45.8765 17.528 45.6845 17.784 45.4925 18.04C41.7805 23.48 38.2605 29.112 34.8045 34.68C34.3565 35.384 33.9085 36.024 33.4605 36.664C33.1405 37.112 32.7565 37.56 32.3085 37.944C31.6045 38.584 30.7085 38.648 29.8125 38.328ZM52.102 37.688C50.246 37.56 48.39 36.856 46.982 35.256C46.278 34.424 45.382 32.696 46.086 30.2C47.43 25.656 49.67 21.624 52.998 18.296C54.278 16.952 55.814 15.928 57.67 15.352C58.63 15.032 59.526 15.16 60.422 15.608C61.702 16.184 62.214 17.144 62.15 18.488C62.022 19.64 61.51 20.664 60.998 21.624C59.142 24.888 56.71 27.64 53.83 30.072C52.614 31.096 51.27 31.992 49.926 32.824C49.35 33.144 49.35 33.784 49.926 34.168C50.566 34.552 51.206 34.744 51.974 34.552C52.806 34.36 53.702 34.168 54.534 33.848C59.334 31.992 65.99 27.832 69.894 24.504C70.534 23.992 71.046 23.352 71.622 22.776C72.39 22.008 73.094 21.944 73.99 22.456C74.438 22.776 74.694 23.416 74.438 23.928C74.31 24.184 74.118 24.504 73.926 24.76C73.158 25.592 72.454 26.488 71.622 27.192C67.782 30.584 61.254 34.744 56.518 36.664C55.238 37.24 53.83 37.688 52.102 37.688ZM50.054 28.6C49.99 28.728 50.054 28.856 50.118 28.984C50.374 29.048 50.63 28.856 50.886 28.664C53.638 26.36 56.006 23.736 57.798 20.664C58.182 19.96 58.95 19.32 58.502 18.296C57.67 18.36 57.03 18.872 56.39 19.384C53.446 21.816 51.462 25.016 50.054 28.6ZM65.398 40.824C64.758 40.44 64.438 39.608 64.822 38.712C65.014 38.2 65.334 37.752 65.526 37.24C67.062 34.04 68.534 30.84 70.07 27.64C71.414 24.888 72.246 21.944 72.438 18.872C72.502 18.04 72.502 17.272 72.822 16.504C73.206 15.608 73.846 15.352 74.742 15.608C75.638 15.864 76.086 16.504 76.214 17.336C76.406 18.296 76.342 19.256 76.15 20.216L75.574 23.288C76.214 23.736 76.726 23.16 77.238 23.096C79.35 22.904 80.63 23.928 80.63 26.104C80.694 27.128 80.566 28.152 80.438 29.24C80.246 30.712 80.182 32.248 80.246 33.784C80.31 34.808 80.822 35.128 81.654 34.68C82.55 34.168 83.318 33.656 84.086 33.08C87.67 30.584 90.934 27.704 94.006 24.632C94.646 23.928 95.35 23.288 96.054 22.584C96.63 22.008 97.27 21.88 98.038 22.136C99.254 22.456 99.574 23.288 98.806 24.248C98.294 24.952 97.654 25.656 97.078 26.296C93.814 29.944 90.23 33.336 86.262 36.216C84.982 37.176 83.638 38.008 81.974 38.328C79.734 38.776 77.302 37.944 76.79 35C76.598 33.848 76.47 32.632 76.598 31.416C76.726 30.328 76.79 29.176 76.854 28.088L76.406 27.896C75.83 28.664 75.254 29.432 74.742 30.2C72.758 33.144 70.774 36.088 68.79 38.968C68.406 39.544 68.022 40.056 67.638 40.568C67.126 41.144 66.102 41.272 65.398 40.824ZM92.9595 41.144C92.3195 41.144 91.8715 40.888 91.6155 40.312C91.3595 39.672 91.4235 39.032 91.6155 38.392C92.2555 36.024 93.5995 31.544 94.2395 29.176C94.3675 28.664 95.5835 25.208 97.0555 21.112C95.3275 21.24 94.0475 21.304 93.9195 21.304C93.3435 21.24 92.7675 21.24 92.3195 20.92C91.8715 20.6 91.5515 20.28 91.6155 19.768C91.6155 19.128 92.0635 19 92.5755 18.936C93.7915 18.808 95.0075 18.68 96.2235 18.616L97.9515 18.488C99.7435 13.56 101.664 8.504 102.368 7.288C102.624 6.776 102.816 6.264 103.135 5.816C103.776 4.6 104.992 4.536 105.824 5.624C106.08 6.008 106.144 6.392 106.016 6.776C105.824 7.288 105.568 7.8 105.376 8.312C104.544 10.232 103.648 12.152 102.88 14.072L101.408 18.296C103.328 18.168 105.056 18.04 105.504 18.04C106.4 17.976 107.296 17.912 108.192 17.912C108.64 17.912 109.088 18.04 109.472 18.488C109.728 18.808 109.792 19.192 109.472 19.512C109.024 20.088 108.448 20.216 107.744 20.28L100.576 20.856C98.4635 27.064 95.5195 35.832 94.5595 38.776C94.4315 39.288 94.2395 39.864 94.0475 40.376C93.8555 40.824 93.4715 41.144 92.9595 41.144ZM105.627 42.744C104.539 43.192 103.579 43.064 102.619 42.424C102.107 42.104 101.851 41.656 101.787 41.016C101.787 40.376 101.979 39.992 102.619 39.736C106.651 38.136 109.98 35.512 112.86 32.312C113.756 31.288 114.588 30.136 115.036 28.856C115.292 28.088 115.164 27.576 114.46 27.192C113.692 26.808 112.86 26.488 112.092 26.104C109.084 24.504 108.764 22.264 111.26 19.96C113.116 18.168 115.164 16.632 117.468 15.416C118.108 15.032 118.748 14.84 119.452 14.52C120.156 14.2 120.86 14.456 121.5 14.84C122.78 15.544 122.78 16.632 121.5 17.4C121.116 17.592 120.796 17.784 120.412 17.912C117.724 19 115.804 21.112 113.692 22.968C114.204 23.8 114.844 23.8 115.292 24.12C115.932 24.504 116.572 24.824 117.148 25.272C119.068 26.68 119.58 28.536 118.812 30.84C118.364 32.12 117.724 33.336 116.892 34.424C114.012 38.392 110.044 40.888 105.627 42.744Z" fill="#3C204C"/>
</svg>
