<svg width="13" height="92" viewBox="0 0 13 92" fill="none" xmlns="http://www.w3.org/2000/svg">
<path d="M12 91.3707L1.5 91.3707L1.5 88.9557L9.78 88.9557L9.78 84.4857L12 84.4857L12 91.3707ZM12.18 80.8118C12.18 81.4118 12.06 81.9168 11.82 82.3268C11.57 82.7368 11.195 83.0468 10.695 83.2568C10.195 83.4568 9.555 83.5568 8.775 83.5568L4.5 83.5568L4.5 81.2168L8.34 81.2168C8.73 81.2168 9.045 81.1718 9.285 81.0818C9.525 80.9918 9.7 80.8618 9.81 80.6918C9.92 80.5218 9.98 80.3218 9.99 80.0918C9.99 79.6418 9.865 79.3018 9.615 79.0718C9.355 78.8418 8.97 78.7268 8.46 78.7268L4.5 78.7268L4.5 76.3868L12 76.3868L12 78.5918L11.04 78.6818C11.4 78.9218 11.68 79.2268 11.88 79.5968C12.08 79.9568 12.18 80.3618 12.18 80.8118ZM12.18 71.1182C12.18 71.9182 12.015 72.6332 11.685 73.2632C11.345 73.8832 10.88 74.3682 10.29 74.7182C9.69 75.0682 9.01 75.2432 8.25 75.2432C7.48 75.2432 6.8 75.0682 6.21 74.7182C5.62 74.3682 5.16 73.8882 4.83 73.2782C4.49 72.6582 4.32 71.9482 4.32 71.1482C4.32 70.3782 4.515 69.6732 4.905 69.0332C5.295 68.3932 5.86 67.9332 6.6 67.6532L7.35 69.8732C7.11 69.9832 6.915 70.1682 6.765 70.4282C6.605 70.6782 6.525 70.9582 6.525 71.2682C6.525 71.5782 6.6 71.8532 6.75 72.0932C6.89 72.3232 7.09 72.5082 7.35 72.6482C7.61 72.7782 7.91 72.8432 8.25 72.8432C8.59 72.8432 8.89 72.7782 9.15 72.6482C9.4 72.5082 9.6 72.3182 9.75 72.0782C9.9 71.8282 9.975 71.5482 9.975 71.2382C9.975 70.9282 9.895 70.6482 9.735 70.3982C9.575 70.1482 9.365 69.9632 9.105 69.8432L9.855 67.6232C10.605 67.9132 11.18 68.3782 11.58 69.0182C11.98 69.6482 12.18 70.3482 12.18 71.1182ZM12 66.5004L4.5 66.5004L4.5 64.1604L12 64.1604L12 66.5004ZM3.54 65.3304C3.54 65.6804 3.41 65.9904 3.15 66.2604C2.88 66.5204 2.57 66.6504 2.22 66.6504C1.85 66.6504 1.54 66.5204 1.29 66.2604C1.03 65.9904 0.9 65.6804 0.9 65.3304C0.9 64.9704 1.03 64.6604 1.29 64.4004C1.54 64.1404 1.85 64.0104 2.22 64.0104C2.57 64.0104 2.88 64.1404 3.15 64.4004C3.41 64.6604 3.54 64.9704 3.54 65.3304ZM12.18 60.0899C12.18 60.9699 11.985 61.6549 11.595 62.1449C11.195 62.6349 10.625 62.8799 9.885 62.8799C9.095 62.8799 8.505 62.6249 8.115 62.1149C7.725 61.6049 7.53 60.8899 7.53 59.9699L7.53 58.1399C7.14 58.1899 6.835 58.3099 6.615 58.4999C6.385 58.6799 6.27 58.9749 6.27 59.3849C6.27 59.6649 6.335 59.9099 6.465 60.1199C6.595 60.3299 6.77 60.5099 6.99 60.6599L6.315 62.7149C5.945 62.5349 5.61 62.2999 5.31 62.0099C5.01 61.7099 4.77 61.3449 4.59 60.9149C4.41 60.4849 4.32 59.9849 4.32 59.4149C4.32 58.6349 4.465 57.9749 4.755 57.4349C5.045 56.8949 5.45 56.4899 5.97 56.2199C6.49 55.9499 7.105 55.8149 7.815 55.8149L12 55.8449L12 58.0349L11.235 58.0649C11.545 58.2749 11.78 58.5499 11.94 58.8899C12.1 59.2299 12.18 59.6299 12.18 60.0899ZM10.41 59.5649C10.41 59.2749 10.35 59.0249 10.23 58.8149C10.11 58.5949 9.95 58.4249 9.75 58.3049C9.54 58.1749 9.315 58.1099 9.075 58.1099L9.045 58.1099L9.045 59.0999C9.045 59.5899 9.115 59.9449 9.255 60.1649C9.385 60.3849 9.575 60.4949 9.825 60.4949C10.005 60.4949 10.15 60.4149 10.26 60.2549C10.36 60.0849 10.41 59.8549 10.41 59.5649ZM12 54.3893L4.5 54.3893L4.5 52.1843L5.46 52.0943C5.1 51.8443 4.82 51.5393 4.62 51.1793C4.42 50.8193 4.32 50.4143 4.32 49.9643C4.32 49.3643 4.445 48.8593 4.695 48.4493C4.935 48.0393 5.305 47.7343 5.805 47.5343C6.305 47.3243 6.945 47.2193 7.725 47.2193L12 47.2193L12 49.5593L8.16 49.5593C7.76 49.5593 7.445 49.6043 7.215 49.6943C6.975 49.7843 6.8 49.9143 6.69 50.0843C6.58 50.2443 6.52 50.4443 6.51 50.6843C6.5 51.1343 6.625 51.4743 6.885 51.7043C7.135 51.9343 7.52 52.0493 8.04 52.0493L12 52.0493L12 54.3893ZM12 42.0201L1.5 42.0201L1.5 39.6051L9.78 39.6051L9.78 35.1351L12 35.1351L12 42.0201ZM12.18 31.7013C12.18 32.5813 11.985 33.2663 11.595 33.7563C11.195 34.2463 10.625 34.4913 9.885 34.4913C9.095 34.4913 8.505 34.2363 8.115 33.7263C7.725 33.2163 7.53 32.5013 7.53 31.5813L7.53 29.7513C7.14 29.8013 6.835 29.9213 6.615 30.1113C6.385 30.2913 6.27 30.5863 6.27 30.9963C6.27 31.2763 6.335 31.5213 6.465 31.7313C6.595 31.9413 6.77 32.1213 6.99 32.2713L6.315 34.3263C5.945 34.1463 5.61 33.9113 5.31 33.6213C5.01 33.3213 4.77 32.9563 4.59 32.5263C4.41 32.0963 4.32 31.5963 4.32 31.0263C4.32 30.2463 4.465 29.5863 4.755 29.0463C5.045 28.5063 5.45 28.1013 5.97 27.8313C6.49 27.5613 7.105 27.4263 7.815 27.4263L12 27.4563L12 29.6463L11.235 29.6763C11.545 29.8863 11.78 30.1613 11.94 30.5013C12.1 30.8413 12.18 31.2413 12.18 31.7013ZM10.41 31.1763C10.41 30.8863 10.35 30.6363 10.23 30.4263C10.11 30.2063 9.95 30.0363 9.75 29.9163C9.54 29.7863 9.315 29.7213 9.075 29.7213L9.045 29.7213V30.7113C9.045 31.2013 9.115 31.5563 9.255 31.7763C9.385 31.9963 9.575 32.1063 9.825 32.1063C10.005 32.1063 10.15 32.0263 10.26 31.8663C10.36 31.6963 10.41 31.4663 10.41 31.1763ZM12 23.8797L4.5 26.9247L4.5 24.5097L9.33 22.7097L4.5 20.9247L4.5 18.5097L12 21.5547L12 23.8797ZM12 17.6511L4.5 17.6511L4.5 15.3111L5.895 15.3111C5.425 15.0011 5.07 14.6061 4.83 14.1261C4.59 13.6461 4.47 13.1561 4.47 12.6561L6.75 12.6561C6.75 13.1161 6.8 13.5511 6.9 13.9611C7 14.3611 7.155 14.6861 7.365 14.9361C7.565 15.1861 7.825 15.3111 8.145 15.3111L12 15.3111L12 17.6511ZM12 11.5395L4.5 11.5395L4.5 9.19951L12 9.19951L12 11.5395ZM3.54 10.3695C3.54 10.7195 3.41 11.0295 3.15 11.2995C2.88 11.5595 2.57 11.6895 2.22 11.6895C1.85 11.6895 1.54 11.5595 1.29 11.2995C1.03 11.0295 0.9 10.7195 0.9 10.3695C0.9 10.0095 1.03 9.69951 1.29 9.43951C1.54 9.17951 1.85 9.04951 2.22 9.04951C2.57 9.04951 2.88 9.17951 3.15 9.43951C3.41 9.69951 3.54 10.0095 3.54 10.3695ZM12.18 3.794C12.18 4.594 12.015 5.309 11.685 5.939C11.345 6.559 10.88 7.044 10.29 7.394C9.69 7.744 9.01 7.919 8.25 7.919C7.48 7.919 6.8 7.744 6.21 7.394C5.62 7.044 5.16 6.564 4.83 5.954C4.49 5.334 4.32 4.624 4.32 3.824C4.32 3.054 4.515 2.349 4.905 1.709C5.295 1.069 5.86 0.608999 6.6 0.328999L7.35 2.549C7.11 2.659 6.915 2.844 6.765 3.104C6.605 3.354 6.525 3.634 6.525 3.944C6.525 4.254 6.6 4.529 6.75 4.769C6.89 4.999 7.09 5.184 7.35 5.324C7.61 5.454 7.91 5.519 8.25 5.519C8.59 5.519 8.89 5.454 9.15 5.324C9.4 5.184 9.6 4.994 9.75 4.754C9.9 4.504 9.975 4.224 9.975 3.914C9.975 3.604 9.895 3.324 9.735 3.074C9.575 2.824 9.365 2.639 9.105 2.519L9.855 0.298998C10.605 0.588999 11.18 1.054 11.58 1.694C11.98 2.324 12.18 3.024 12.18 3.794Z" fill="#776780"/>
</svg>
