<svg width="177" height="565" viewBox="0 0 177 565" fill="none" xmlns="http://www.w3.org/2000/svg">
<g filter="url(#filter0_d_2127_2533)">
<rect x="4" y="27" width="169" height="530" rx="5" fill="#FFFEFE"/>
</g>
<path d="M26.7995 538L23.2805 526.1L25.6435 526.1L28.0575 534.43L30.3525 526.1L32.6645 526.1L34.9765 534.311L37.3905 526.1L39.7535 526.1L36.2005 538L33.7525 538L31.5085 529.738L29.2305 538L26.7995 538ZM43.9926 538.204C43.154 538.204 42.4116 538.017 41.7656 537.643C41.1196 537.258 40.6096 536.731 40.2356 536.062C39.873 535.393 39.6916 534.623 39.6916 533.75C39.6916 532.877 39.8786 532.107 40.2526 531.438C40.638 530.769 41.1593 530.248 41.8166 529.874C42.4853 529.489 43.2503 529.296 44.1116 529.296C44.8596 529.296 45.5453 529.494 46.1686 529.891C46.8033 530.276 47.3076 530.849 47.6816 531.608C48.067 532.356 48.2596 533.268 48.2596 534.345L42.0376 534.345C42.0943 534.912 42.338 535.365 42.7686 535.705C43.1993 536.034 43.6866 536.198 44.2306 536.198C44.6953 536.198 45.075 536.102 45.3696 535.909C45.6643 535.705 45.891 535.444 46.0496 535.127L48.0556 535.909C47.8176 536.385 47.506 536.799 47.1206 537.15C46.7466 537.49 46.299 537.751 45.7776 537.932C45.2563 538.113 44.6613 538.204 43.9926 538.204ZM42.1566 532.679L45.8286 532.679C45.7946 532.328 45.6813 532.044 45.4886 531.829C45.296 531.614 45.0693 531.455 44.8086 531.353C44.548 531.251 44.293 531.2 44.0436 531.2C43.8056 531.2 43.545 531.251 43.2616 531.353C42.9896 531.444 42.746 531.597 42.5306 531.812C42.3266 532.027 42.202 532.316 42.1566 532.679ZM54.3747 538.204C53.7967 538.204 53.2924 538.085 52.8617 537.847C52.4311 537.598 52.0684 537.246 51.7737 536.793L51.6887 538L49.5637 538V526.1L51.8077 526.1V530.656C52.0911 530.214 52.4481 529.88 52.8787 529.653C53.3094 529.415 53.8081 529.296 54.3747 529.296C55.1567 529.296 55.8311 529.477 56.3977 529.84C56.9757 530.203 57.4234 530.718 57.7407 531.387C58.0581 532.044 58.2167 532.832 58.2167 533.75C58.2167 534.657 58.0581 535.444 57.7407 536.113C57.4234 536.782 56.9757 537.297 56.3977 537.66C55.8311 538.023 55.1567 538.204 54.3747 538.204ZM53.7967 536.147C54.2047 536.147 54.5617 536.045 54.8677 535.841C55.1851 535.637 55.4344 535.354 55.6157 534.991C55.7971 534.628 55.8877 534.215 55.8877 533.75C55.8877 533.285 55.7971 532.872 55.6157 532.509C55.4457 532.146 55.2021 531.869 54.8847 531.676C54.5787 531.472 54.2217 531.37 53.8137 531.37C53.4284 531.37 53.0827 531.472 52.7767 531.676C52.4707 531.88 52.2327 532.163 52.0627 532.526C51.8927 532.877 51.8077 533.285 51.8077 533.75C51.8077 534.215 51.8927 534.628 52.0627 534.991C52.2327 535.354 52.4651 535.637 52.7597 535.841C53.0657 536.045 53.4114 536.147 53.7967 536.147ZM69.5045 538.204C68.3031 538.204 67.2378 537.943 66.3085 537.422C65.3905 536.889 64.6708 536.164 64.1495 535.246C63.6281 534.317 63.3675 533.257 63.3675 532.067C63.3675 530.854 63.6281 529.789 64.1495 528.871C64.6708 527.942 65.3848 527.216 66.2915 526.695C67.2095 526.174 68.2635 525.913 69.4535 525.913C70.6548 525.913 71.7088 526.179 72.6155 526.712C73.5335 527.233 74.2531 527.959 74.7745 528.888C75.2958 529.806 75.5565 530.866 75.5565 532.067C75.5565 533.257 75.2958 534.317 74.7745 535.246C74.2645 536.164 73.5505 536.889 72.6325 537.422C71.7258 537.943 70.6831 538.204 69.5045 538.204ZM69.5045 536.079C70.2298 536.079 70.8645 535.909 71.4085 535.569C71.9638 535.218 72.3945 534.742 72.7005 534.141C73.0178 533.54 73.1765 532.849 73.1765 532.067C73.1765 531.274 73.0178 530.577 72.7005 529.976C72.3831 529.375 71.9468 528.905 71.3915 528.565C70.8361 528.214 70.1901 528.038 69.4535 528.038C68.7395 528.038 68.0991 528.214 67.5325 528.565C66.9771 528.905 66.5408 529.375 66.2235 529.976C65.9061 530.577 65.7475 531.274 65.7475 532.067C65.7475 532.849 65.9061 533.54 66.2235 534.141C66.5408 534.742 66.9828 535.218 67.5495 535.569C68.1161 535.909 68.7678 536.079 69.5045 536.079ZM77.1223 538V529.5L79.3663 529.5V531.064C79.7177 530.531 80.1597 530.135 80.6923 529.874C81.2363 529.602 81.7973 529.466 82.3753 529.466V531.642C81.854 531.642 81.361 531.704 80.8963 531.829C80.443 531.954 80.0747 532.158 79.7913 532.441C79.508 532.724 79.3663 533.087 79.3663 533.529V538L77.1223 538ZM87.3887 541.621C86.7427 541.621 86.1704 541.576 85.6717 541.485C85.1731 541.394 84.7537 541.275 84.4137 541.128C84.0737 540.981 83.7961 540.833 83.5807 540.686L84.4647 538.884C84.6234 538.975 84.8331 539.077 85.0937 539.19C85.3544 539.315 85.6661 539.417 86.0287 539.496C86.3914 539.587 86.8107 539.632 87.2867 539.632C87.7401 539.632 88.1367 539.541 88.4767 539.36C88.8281 539.19 89.1001 538.918 89.2927 538.544C89.4967 538.181 89.5987 537.717 89.5987 537.15V536.334C89.3154 536.776 88.9471 537.127 88.4937 537.388C88.0404 537.637 87.5247 537.762 86.9467 537.762C86.1647 537.762 85.4847 537.592 84.9067 537.252C84.3401 536.912 83.8981 536.436 83.5807 535.824C83.2634 535.212 83.1047 534.487 83.1047 533.648C83.1047 532.764 83.2634 531.999 83.5807 531.353C83.8981 530.696 84.3401 530.191 84.9067 529.84C85.4847 529.477 86.1647 529.296 86.9467 529.296C87.5247 529.296 88.0404 529.432 88.4937 529.704C88.9471 529.965 89.3154 530.339 89.5987 530.826V529.5L91.8427 529.5V537.082C91.8427 538.034 91.6614 538.85 91.2987 539.53C90.9361 540.221 90.4204 540.743 89.7517 541.094C89.0944 541.445 88.3067 541.621 87.3887 541.621ZM87.5927 535.875C87.9781 535.875 88.3124 535.779 88.5957 535.586C88.8904 535.382 89.1171 535.11 89.2757 534.77C89.4344 534.419 89.5137 534.022 89.5137 533.58C89.5137 533.127 89.4287 532.73 89.2587 532.39C89.1001 532.05 88.8734 531.784 88.5787 531.591C88.2954 531.398 87.9611 531.302 87.5757 531.302C87.1791 531.302 86.8277 531.398 86.5217 531.591C86.2157 531.784 85.9777 532.05 85.8077 532.39C85.6377 532.73 85.5471 533.127 85.5357 533.58C85.5471 534.022 85.6377 534.419 85.8077 534.77C85.9777 535.11 86.2157 535.382 86.5217 535.586C86.8391 535.779 87.1961 535.875 87.5927 535.875ZM96.5277 538.204C95.5077 538.204 94.7144 537.977 94.1477 537.524C93.5923 537.071 93.3147 536.43 93.3147 535.603C93.3147 534.696 93.615 534.016 94.2157 533.563C94.8277 533.098 95.6834 532.866 96.7827 532.866L98.7887 532.866C98.7094 532.345 98.545 531.948 98.2957 531.676C98.0464 531.393 97.6894 531.251 97.2247 531.251C96.862 531.251 96.5333 531.33 96.2387 531.489C95.944 531.648 95.6947 531.891 95.4907 532.22L93.5187 531.54C93.6773 531.177 93.9097 530.826 94.2157 530.486C94.5217 530.135 94.9184 529.851 95.4057 529.636C95.9044 529.409 96.5107 529.296 97.2247 529.296C98.086 529.296 98.8 529.46 99.3667 529.789C99.9447 530.118 100.37 530.582 100.642 531.183C100.925 531.772 101.061 532.475 101.05 533.291L100.999 538L98.9077 538L98.8737 537.014C98.6584 537.399 98.3524 537.694 97.9557 537.898C97.5704 538.102 97.0944 538.204 96.5277 538.204ZM96.9017 536.334C97.2643 536.334 97.593 536.249 97.8877 536.079C98.1824 535.909 98.4147 535.688 98.5847 535.416C98.7547 535.144 98.8397 534.861 98.8397 534.566V534.532L97.5647 534.532C96.828 534.532 96.318 534.623 96.0347 534.804C95.7513 534.974 95.6097 535.218 95.6097 535.535C95.6097 535.784 95.723 535.983 95.9497 536.13C96.1763 536.266 96.4937 536.334 96.9017 536.334ZM102.838 538V529.5L104.946 529.5L105.048 530.656C105.32 530.214 105.666 529.88 106.085 529.653C106.516 529.415 107.003 529.296 107.547 529.296C108.216 529.296 108.788 529.432 109.264 529.704C109.74 529.976 110.103 530.401 110.352 530.979C110.601 531.546 110.72 532.282 110.709 533.189V538L108.465 538V533.648C108.465 533.07 108.397 532.622 108.261 532.305C108.136 531.988 107.955 531.761 107.717 531.625C107.479 531.478 107.201 531.404 106.884 531.404C106.306 531.393 105.858 531.568 105.541 531.931C105.235 532.294 105.082 532.832 105.082 533.546V538L102.838 538ZM112.636 538V529.5L114.88 529.5V538L112.636 538ZM113.758 528.123C113.418 528.123 113.118 527.998 112.857 527.749C112.597 527.488 112.466 527.182 112.466 526.831C112.466 526.48 112.597 526.179 112.857 525.93C113.118 525.669 113.418 525.539 113.758 525.539C114.11 525.539 114.41 525.669 114.659 525.93C114.92 526.179 115.05 526.48 115.05 526.831C115.05 527.182 114.92 527.488 114.659 527.749C114.41 527.998 114.11 528.123 113.758 528.123ZM116.524 538V536.368L120.723 531.353L116.524 531.353V529.5L123.528 529.5V531.115L119.329 536.164L123.545 536.164V538L116.524 538ZM128.893 538.204C128.054 538.204 127.312 538.017 126.666 537.643C126.02 537.258 125.51 536.731 125.136 536.062C124.773 535.393 124.592 534.623 124.592 533.75C124.592 532.877 124.779 532.107 125.153 531.438C125.538 530.769 126.06 530.248 126.717 529.874C127.386 529.489 128.151 529.296 129.012 529.296C129.76 529.296 130.446 529.494 131.069 529.891C131.704 530.276 132.208 530.849 132.582 531.608C132.967 532.356 133.16 533.268 133.16 534.345L126.938 534.345C126.995 534.912 127.238 535.365 127.669 535.705C128.1 536.034 128.587 536.198 129.131 536.198C129.596 536.198 129.975 536.102 130.27 535.909C130.565 535.705 130.791 535.444 130.95 535.127L132.956 535.909C132.718 536.385 132.406 536.799 132.021 537.15C131.647 537.49 131.199 537.751 130.678 537.932C130.157 538.113 129.562 538.204 128.893 538.204ZM127.057 532.679L130.729 532.679C130.695 532.328 130.582 532.044 130.389 531.829C130.196 531.614 129.97 531.455 129.709 531.353C129.448 531.251 129.193 531.2 128.944 531.2C128.706 531.2 128.445 531.251 128.162 531.353C127.89 531.444 127.646 531.597 127.431 531.812C127.227 532.027 127.102 532.316 127.057 532.679ZM134.464 538V529.5L136.708 529.5V531.064C137.059 530.531 137.501 530.135 138.034 529.874C138.578 529.602 139.139 529.466 139.717 529.466V531.642C139.196 531.642 138.703 531.704 138.238 531.829C137.785 531.954 137.416 532.158 137.133 532.441C136.85 532.724 136.708 533.087 136.708 533.529V538L134.464 538ZM144.085 538.204C143.541 538.204 143.031 538.125 142.555 537.966C142.079 537.796 141.659 537.558 141.297 537.252C140.934 536.935 140.651 536.549 140.447 536.096L142.368 535.212C142.538 535.484 142.77 535.722 143.065 535.926C143.359 536.119 143.699 536.215 144.085 536.215C144.459 536.215 144.748 536.164 144.952 536.062C145.156 535.949 145.258 535.79 145.258 535.586C145.258 535.382 145.173 535.235 145.003 535.144C144.844 535.042 144.623 534.957 144.34 534.889L143.558 534.685C142.742 534.47 142.096 534.13 141.62 533.665C141.155 533.189 140.923 532.645 140.923 532.033C140.923 531.16 141.2 530.486 141.756 530.01C142.322 529.534 143.121 529.296 144.153 529.296C144.685 529.296 145.178 529.375 145.632 529.534C146.096 529.693 146.493 529.914 146.822 530.197C147.15 530.48 147.377 530.809 147.502 531.183L145.649 532.033C145.569 531.806 145.377 531.625 145.071 531.489C144.765 531.342 144.459 531.268 144.153 531.268C143.847 531.268 143.609 531.336 143.439 531.472C143.28 531.597 143.201 531.772 143.201 531.999C143.201 532.146 143.28 532.271 143.439 532.373C143.597 532.464 143.824 532.543 144.119 532.611L145.224 532.883C145.779 533.019 146.221 533.24 146.55 533.546C146.89 533.841 147.133 534.175 147.281 534.549C147.439 534.912 147.519 535.269 147.519 535.62C147.519 536.13 147.366 536.583 147.06 536.98C146.765 537.365 146.357 537.666 145.836 537.881C145.326 538.096 144.742 538.204 144.085 538.204Z" fill="#3C204C"/>
<rect x="14" y="400" width="150" height="103" fill="#E6E2F0" fill-opacity="0.4"/>
<path d="M160.225 490.193C160.225 490.773 160.13 491.283 159.94 491.723C159.75 492.153 159.505 492.518 159.205 492.818C158.895 493.108 158.575 493.333 158.245 493.493C157.905 493.643 157.59 493.733 157.3 493.763L156.595 491.663C157.055 491.533 157.405 491.343 157.645 491.093C157.885 490.843 158.005 490.533 158.005 490.163C158.005 489.883 157.945 489.628 157.825 489.398C157.695 489.168 157.5 488.983 157.24 488.843C156.97 488.703 156.63 488.633 156.22 488.633L149.5 488.633V486.218L156.85 486.218C157.36 486.218 157.825 486.313 158.245 486.503C158.655 486.693 159.01 486.963 159.31 487.313C159.6 487.663 159.825 488.083 159.985 488.573C160.145 489.063 160.225 489.603 160.225 490.193ZM160.18 482.178C160.18 483.058 159.985 483.743 159.595 484.233C159.195 484.723 158.625 484.968 157.885 484.968C157.095 484.968 156.505 484.713 156.115 484.203C155.725 483.693 155.53 482.978 155.53 482.058V480.228C155.14 480.278 154.835 480.398 154.615 480.588C154.385 480.768 154.27 481.063 154.27 481.473C154.27 481.753 154.335 481.998 154.465 482.208C154.595 482.418 154.77 482.598 154.99 482.748L154.315 484.803C153.945 484.623 153.61 484.388 153.31 484.098C153.01 483.798 152.77 483.433 152.59 483.003C152.41 482.573 152.32 482.073 152.32 481.503C152.32 480.723 152.465 480.063 152.755 479.523C153.045 478.983 153.45 478.578 153.97 478.308C154.49 478.038 155.105 477.903 155.815 477.903L160 477.933V480.123L159.235 480.153C159.545 480.363 159.78 480.638 159.94 480.978C160.1 481.318 160.18 481.718 160.18 482.178ZM158.41 481.653C158.41 481.363 158.35 481.113 158.23 480.903C158.11 480.683 157.95 480.513 157.75 480.393C157.54 480.263 157.315 480.198 157.075 480.198L157.045 480.198V481.188C157.045 481.678 157.115 482.033 157.255 482.253C157.385 482.473 157.575 482.583 157.825 482.583C158.005 482.583 158.15 482.503 158.26 482.343C158.36 482.173 158.41 481.943 158.41 481.653ZM160.18 473.657C160.18 474.147 160.11 474.607 159.97 475.037C159.83 475.457 159.63 475.827 159.37 476.147C159.1 476.457 158.775 476.687 158.395 476.837L157.585 474.902C157.835 474.772 158.025 474.592 158.155 474.362C158.275 474.132 158.335 473.897 158.335 473.657C158.335 473.417 158.295 473.227 158.215 473.087C158.125 472.947 158.005 472.877 157.855 472.877C157.695 472.877 157.57 472.947 157.48 473.087C157.39 473.227 157.31 473.432 157.24 473.702L157.09 474.362C156.91 475.052 156.61 475.587 156.19 475.967C155.77 476.347 155.285 476.537 154.735 476.537C153.965 476.537 153.37 476.272 152.95 475.742C152.53 475.212 152.32 474.477 152.32 473.537C152.32 472.997 152.395 472.527 152.545 472.127C152.685 471.717 152.885 471.377 153.145 471.107C153.395 470.827 153.685 470.627 154.015 470.507L154.795 472.367C154.595 472.437 154.44 472.582 154.33 472.802C154.22 473.022 154.165 473.257 154.165 473.507C154.165 473.727 154.215 473.897 154.315 474.017C154.415 474.137 154.54 474.197 154.69 474.197C154.81 474.197 154.915 474.127 155.005 473.987C155.085 473.837 155.16 473.622 155.23 473.342L155.425 472.547C155.545 472.077 155.73 471.682 155.98 471.362C156.22 471.042 156.505 470.802 156.835 470.642C157.155 470.482 157.5 470.402 157.87 470.402C158.35 470.402 158.765 470.542 159.115 470.822C159.455 471.092 159.72 471.472 159.91 471.962C160.09 472.452 160.18 473.017 160.18 473.657ZM160 469.3L152.5 469.3L152.5 467.095L153.445 467.005C153.075 466.765 152.795 466.47 152.605 466.12C152.415 465.76 152.32 465.365 152.32 464.935C152.32 464.315 152.45 463.805 152.71 463.405C152.96 462.995 153.345 462.695 153.865 462.505C153.365 462.275 152.985 461.96 152.725 461.56C152.455 461.16 152.32 460.71 152.32 460.21C152.32 459.31 152.595 458.635 153.145 458.185C153.695 457.725 154.55 457.5 155.71 457.51L160 457.51V459.85L156.16 459.85C155.76 459.85 155.445 459.895 155.215 459.985C154.975 460.065 154.8 460.185 154.69 460.345C154.58 460.505 154.52 460.695 154.51 460.915C154.5 461.345 154.625 461.675 154.885 461.905C155.135 462.125 155.52 462.235 156.04 462.235L160 462.235V464.575L156.16 464.575C155.76 464.575 155.445 464.62 155.215 464.71C154.975 464.79 154.8 464.91 154.69 465.07C154.58 465.23 154.52 465.42 154.51 465.64C154.5 466.07 154.625 466.4 154.885 466.63C155.135 466.85 155.52 466.96 156.04 466.96L160 466.96L160 469.3ZM160 455.952L152.5 455.952V453.612L160 453.612V455.952ZM151.54 454.782C151.54 455.132 151.41 455.442 151.15 455.712C150.88 455.972 150.57 456.102 150.22 456.102C149.85 456.102 149.54 455.972 149.29 455.712C149.03 455.442 148.9 455.132 148.9 454.782C148.9 454.422 149.03 454.112 149.29 453.852C149.54 453.592 149.85 453.462 150.22 453.462C150.57 453.462 150.88 453.592 151.15 453.852C151.41 454.112 151.54 454.422 151.54 454.782ZM160 451.941L152.5 451.941V449.736L153.46 449.646C153.1 449.396 152.82 449.091 152.62 448.731C152.42 448.371 152.32 447.966 152.32 447.516C152.32 446.916 152.445 446.411 152.695 446.001C152.935 445.591 153.305 445.286 153.805 445.086C154.305 444.876 154.945 444.771 155.725 444.771L160 444.771L160 447.111L156.16 447.111C155.76 447.111 155.445 447.156 155.215 447.246C154.975 447.336 154.8 447.466 154.69 447.636C154.58 447.796 154.52 447.996 154.51 448.236C154.5 448.686 154.625 449.026 154.885 449.256C155.135 449.486 155.52 449.601 156.04 449.601L160 449.601V451.941ZM160.18 439.742C160.18 440.522 160.015 441.212 159.685 441.812C159.355 442.412 158.895 442.882 158.305 443.222C157.715 443.562 157.03 443.732 156.25 443.732C155.47 443.732 154.785 443.562 154.195 443.222C153.605 442.882 153.145 442.412 152.815 441.812C152.485 441.202 152.32 440.502 152.32 439.712C152.32 439.002 152.49 438.362 152.83 437.792C153.17 437.222 153.68 436.772 154.36 436.442C155.03 436.102 155.86 435.932 156.85 435.932V441.302C157.28 441.252 157.625 441.077 157.885 440.777C158.135 440.467 158.26 440.102 158.26 439.682C158.26 439.312 158.18 439.002 158.02 438.752C157.85 438.502 157.64 438.327 157.39 438.227L158.095 436.142C158.575 436.342 158.97 436.627 159.28 436.997C159.59 437.357 159.82 437.772 159.97 438.242C160.11 438.712 160.18 439.212 160.18 439.742ZM155.29 441.242V438.377C155 438.417 154.77 438.512 154.6 438.662C154.42 438.812 154.29 438.987 154.21 439.187C154.13 439.387 154.09 439.587 154.09 439.787C154.09 439.977 154.13 440.177 154.21 440.387C154.28 440.597 154.405 440.782 154.585 440.942C154.755 441.092 154.99 441.192 155.29 441.242ZM160.18 426.243C160.18 427.323 159.95 428.278 159.49 429.108C159.02 429.928 158.38 430.573 157.57 431.043C156.75 431.513 155.81 431.748 154.75 431.748C153.69 431.748 152.755 431.513 151.945 431.043C151.125 430.573 150.485 429.928 150.025 429.108C149.555 428.278 149.32 427.323 149.32 426.243C149.32 425.573 149.42 424.968 149.62 424.428C149.81 423.878 150.075 423.398 150.415 422.988C150.755 422.578 151.145 422.238 151.585 421.968L152.785 423.963C152.545 424.113 152.33 424.313 152.14 424.563C151.95 424.803 151.805 425.068 151.705 425.358C151.595 425.648 151.54 425.943 151.54 426.243C151.54 426.833 151.675 427.358 151.945 427.818C152.215 428.268 152.595 428.623 153.085 428.883C153.565 429.143 154.12 429.273 154.75 429.273C155.38 429.273 155.94 429.148 156.43 428.898C156.91 428.648 157.29 428.288 157.57 427.818C157.85 427.348 157.99 426.803 157.99 426.183C157.99 425.753 157.91 425.363 157.75 425.013C157.59 424.663 157.37 424.383 157.09 424.173C156.81 423.963 156.48 423.838 156.1 423.798L156.1 426.168L154.24 426.168L154.24 421.473L155.665 421.473C156.645 421.493 157.475 421.713 158.155 422.133C158.825 422.553 159.33 423.118 159.67 423.828C160.01 424.528 160.18 425.333 160.18 426.243ZM160.18 417.763C160.18 418.363 160.06 418.868 159.82 419.278C159.57 419.688 159.195 419.998 158.695 420.208C158.195 420.408 157.555 420.508 156.775 420.508L152.5 420.508V418.168L156.34 418.168C156.73 418.168 157.045 418.123 157.285 418.033C157.525 417.943 157.7 417.813 157.81 417.643C157.92 417.473 157.98 417.273 157.99 417.043C157.99 416.593 157.865 416.253 157.615 416.023C157.355 415.793 156.97 415.678 156.46 415.678L152.5 415.678V413.338L160 413.338V415.543L159.04 415.633C159.4 415.873 159.68 416.178 159.88 416.548C160.08 416.908 160.18 417.313 160.18 417.763Z" fill="#776780"/>
<rect x="14" y="278" width="150" height="103" fill="#E6E2F0" fill-opacity="0.4"/>
<path d="M160 378.051L149.5 378.051V373.926C149.5 373.166 149.655 372.491 149.965 371.901C150.265 371.311 150.685 370.851 151.225 370.521C151.755 370.181 152.375 370.011 153.085 370.011C153.775 370.011 154.395 370.176 154.945 370.506C155.485 370.826 155.91 371.276 156.22 371.856C156.53 372.436 156.685 373.101 156.685 373.851V375.636L160 375.636V378.051ZM154.465 375.636V373.911C154.465 373.481 154.34 373.136 154.09 372.876C153.83 372.616 153.495 372.486 153.085 372.486C152.675 372.486 152.345 372.626 152.095 372.906C151.835 373.176 151.705 373.536 151.705 373.986V375.636L154.465 375.636ZM156.115 367.382C155.305 367.382 154.63 367.222 154.09 366.902C153.55 366.572 153.145 366.162 152.875 365.672C152.605 365.172 152.47 364.652 152.47 364.112L154.75 364.112C154.75 364.572 154.8 365.007 154.9 365.417C155 365.817 155.155 366.142 155.365 366.392C155.565 366.642 155.825 366.767 156.145 366.767L156.115 367.382ZM160 369.107L152.5 369.107V366.767L160 366.767V369.107ZM160 358.676L158.38 358.751L156.265 358.751C155.865 358.751 155.515 358.786 155.215 358.856C154.915 358.916 154.685 359.041 154.525 359.231C154.355 359.411 154.27 359.676 154.27 360.026C154.27 360.306 154.335 360.551 154.465 360.761C154.595 360.971 154.77 361.151 154.99 361.301L154.315 363.356C153.945 363.176 153.61 362.941 153.31 362.651C153.01 362.351 152.77 361.986 152.59 361.556C152.41 361.126 152.32 360.626 152.32 360.056C152.32 359.276 152.465 358.616 152.755 358.076C153.045 357.536 153.45 357.131 153.97 356.861C154.49 356.591 155.105 356.456 155.815 356.456L160 356.486V358.676ZM160.18 360.731C160.18 361.611 159.985 362.296 159.595 362.786C159.195 363.276 158.625 363.521 157.885 363.521C157.095 363.521 156.505 363.266 156.115 362.756C155.725 362.246 155.53 361.531 155.53 360.611V358.556L157.045 358.556V359.741C157.045 360.231 157.115 360.586 157.255 360.806C157.385 361.026 157.575 361.136 157.825 361.136C158.005 361.136 158.15 361.056 158.26 360.896C158.36 360.726 158.41 360.496 158.41 360.206C158.41 359.916 158.35 359.666 158.23 359.456C158.1 359.236 157.93 359.066 157.72 358.946C157.51 358.816 157.285 358.751 157.045 358.751V358.151C158.035 358.151 158.805 358.366 159.355 358.796C159.905 359.216 160.18 359.861 160.18 360.731ZM160 355.03L152.5 355.03V352.825L153.88 352.69L160 352.69V355.03ZM160 350.2L156.16 350.2V347.86L160 347.86V350.2ZM156.16 350.2C155.76 350.2 155.445 350.245 155.215 350.335C154.975 350.425 154.8 350.555 154.69 350.725C154.58 350.885 154.52 351.085 154.51 351.325C154.5 351.775 154.625 352.115 154.885 352.345C155.135 352.575 155.52 352.69 156.04 352.69V353.395C155.25 353.395 154.58 353.275 154.03 353.035C153.47 352.795 153.045 352.47 152.755 352.06C152.465 351.64 152.32 351.155 152.32 350.605C152.32 350.005 152.445 349.5 152.695 349.09C152.935 348.68 153.305 348.375 153.805 348.175C154.305 347.965 154.945 347.86 155.725 347.86L156.16 347.86V350.2ZM160 341.976L158.38 342.051L156.265 342.051C155.865 342.051 155.515 342.086 155.215 342.156C154.915 342.216 154.685 342.341 154.525 342.531C154.355 342.711 154.27 342.976 154.27 343.326C154.27 343.606 154.335 343.851 154.465 344.061C154.595 344.271 154.77 344.451 154.99 344.601L154.315 346.656C153.945 346.476 153.61 346.241 153.31 345.951C153.01 345.651 152.77 345.286 152.59 344.856C152.41 344.426 152.32 343.926 152.32 343.356C152.32 342.576 152.465 341.916 152.755 341.376C153.045 340.836 153.45 340.431 153.97 340.161C154.49 339.891 155.105 339.756 155.815 339.756L160 339.786V341.976ZM160.18 344.031C160.18 344.911 159.985 345.596 159.595 346.086C159.195 346.576 158.625 346.821 157.885 346.821C157.095 346.821 156.505 346.566 156.115 346.056C155.725 345.546 155.53 344.831 155.53 343.911V341.856L157.045 341.856V343.041C157.045 343.531 157.115 343.886 157.255 344.106C157.385 344.326 157.575 344.436 157.825 344.436C158.005 344.436 158.15 344.356 158.26 344.196C158.36 344.026 158.41 343.796 158.41 343.506C158.41 343.216 158.35 342.966 158.23 342.756C158.1 342.536 157.93 342.366 157.72 342.246C157.51 342.116 157.285 342.051 157.045 342.051V341.451C158.035 341.451 158.805 341.666 159.355 342.096C159.905 342.516 160.18 343.161 160.18 344.031ZM160 336L152.5 333.255V330.84L160 333.885V336ZM160 336.21L152.5 339.255V336.84L160 334.095V336.21ZM160 322.731L149.5 318.906V316.296L160 320.391V322.731ZM160 323.001L149.5 327.111V324.516L160 320.661V323.001ZM160 311.566L158.38 311.641L156.265 311.641C155.865 311.641 155.515 311.676 155.215 311.746C154.915 311.806 154.685 311.931 154.525 312.121C154.355 312.301 154.27 312.566 154.27 312.916C154.27 313.196 154.335 313.441 154.465 313.651C154.595 313.861 154.77 314.041 154.99 314.191L154.315 316.246C153.945 316.066 153.61 315.831 153.31 315.541C153.01 315.241 152.77 314.876 152.59 314.446C152.41 314.016 152.32 313.516 152.32 312.946C152.32 312.166 152.465 311.506 152.755 310.966C153.045 310.426 153.45 310.021 153.97 309.751C154.49 309.481 155.105 309.346 155.815 309.346L160 309.376V311.566ZM160.18 313.621C160.18 314.501 159.985 315.186 159.595 315.676C159.195 316.166 158.625 316.411 157.885 316.411C157.095 316.411 156.505 316.156 156.115 315.646C155.725 315.136 155.53 314.421 155.53 313.501V311.446L157.045 311.446V312.631C157.045 313.121 157.115 313.476 157.255 313.696C157.385 313.916 157.575 314.026 157.825 314.026C158.005 314.026 158.15 313.946 158.26 313.786C158.36 313.616 158.41 313.386 158.41 313.096C158.41 312.806 158.35 312.556 158.23 312.346C158.1 312.126 157.93 311.956 157.72 311.836C157.51 311.706 157.285 311.641 157.045 311.641V311.041C158.035 311.041 158.805 311.256 159.355 311.686C159.905 312.106 160.18 312.751 160.18 313.621ZM156.115 306.196C155.305 306.196 154.63 306.036 154.09 305.716C153.55 305.386 153.145 304.976 152.875 304.486C152.605 303.986 152.47 303.466 152.47 302.926L154.75 302.926C154.75 303.386 154.8 303.821 154.9 304.231C155 304.631 155.155 304.956 155.365 305.206C155.565 305.456 155.825 305.581 156.145 305.581L156.115 306.196ZM160 307.921L152.5 307.921V305.581L160 305.581V307.921ZM160 301.944L152.5 301.944V299.739L153.445 299.649C153.075 299.409 152.795 299.114 152.605 298.764C152.415 298.404 152.32 298.009 152.32 297.579C152.32 296.959 152.45 296.449 152.71 296.049C152.96 295.639 153.345 295.339 153.865 295.149C153.365 294.919 152.985 294.604 152.725 294.204C152.455 293.804 152.32 293.354 152.32 292.854C152.32 291.954 152.595 291.279 153.145 290.829C153.695 290.369 154.55 290.144 155.71 290.154L160 290.154V292.494L156.16 292.494C155.76 292.494 155.445 292.539 155.215 292.629C154.975 292.709 154.8 292.829 154.69 292.989C154.58 293.149 154.52 293.339 154.51 293.559C154.5 293.989 154.625 294.319 154.885 294.549C155.135 294.769 155.52 294.879 156.04 294.879L160 294.879V297.219L156.16 297.219C155.76 297.219 155.445 297.264 155.215 297.354C154.975 297.434 154.8 297.554 154.69 297.714C154.58 297.874 154.52 298.064 154.51 298.284C154.5 298.714 154.625 299.044 154.885 299.274C155.135 299.494 155.52 299.604 156.04 299.604L160 299.604V301.944ZM160 284.276L158.38 284.351L156.265 284.351C155.865 284.351 155.515 284.386 155.215 284.456C154.915 284.516 154.685 284.641 154.525 284.831C154.355 285.011 154.27 285.276 154.27 285.626C154.27 285.906 154.335 286.151 154.465 286.361C154.595 286.571 154.77 286.751 154.99 286.901L154.315 288.956C153.945 288.776 153.61 288.541 153.31 288.251C153.01 287.951 152.77 287.586 152.59 287.156C152.41 286.726 152.32 286.226 152.32 285.656C152.32 284.876 152.465 284.216 152.755 283.676C153.045 283.136 153.45 282.731 153.97 282.461C154.49 282.191 155.105 282.056 155.815 282.056L160 282.086V284.276ZM160.18 286.331C160.18 287.211 159.985 287.896 159.595 288.386C159.195 288.876 158.625 289.121 157.885 289.121C157.095 289.121 156.505 288.866 156.115 288.356C155.725 287.846 155.53 287.131 155.53 286.211V284.156L157.045 284.156V285.341C157.045 285.831 157.115 286.186 157.255 286.406C157.385 286.626 157.575 286.736 157.825 286.736C158.005 286.736 158.15 286.656 158.26 286.496C158.36 286.326 158.41 286.096 158.41 285.806C158.41 285.516 158.35 285.266 158.23 285.056C158.1 284.836 157.93 284.666 157.72 284.546C157.51 284.416 157.285 284.351 157.045 284.351V283.751C158.035 283.751 158.805 283.966 159.355 284.396C159.905 284.816 160.18 285.461 160.18 286.331Z" fill="#776780"/>
<rect x="14" y="156" width="150" height="103" fill="#E6E2F0" fill-opacity="0.4"/>
<path d="M160 247.277L149.5 247.277L149.5 240.437L151.72 240.437L151.72 244.862L153.64 244.862L153.64 241.157L155.785 241.157L155.785 244.862L157.78 244.862L157.78 240.362L160 240.362L160 247.277ZM160.18 235.503C160.18 236.393 159.97 237.058 159.55 237.498C159.12 237.928 158.51 238.143 157.72 238.143L154.465 238.143V239.313L152.5 239.313V238.143L150.16 238.143V235.803L152.5 235.803V234.093L154.465 234.093V235.803L157.135 235.803C157.435 235.803 157.655 235.748 157.795 235.638C157.935 235.528 158.005 235.358 158.005 235.128C158.005 235.038 157.985 234.933 157.945 234.813C157.895 234.693 157.835 234.583 157.765 234.483L159.475 233.673C159.675 233.913 159.845 234.203 159.985 234.543C160.115 234.873 160.18 235.193 160.18 235.503ZM160 232.487L149.5 232.487V230.147L153.4 230.147C153.04 229.897 152.77 229.597 152.59 229.247C152.41 228.897 152.32 228.507 152.32 228.077C152.32 227.467 152.445 226.957 152.695 226.547C152.935 226.137 153.305 225.832 153.805 225.632C154.305 225.422 154.945 225.317 155.725 225.317L160 225.317V227.657L156.16 227.657C155.76 227.657 155.445 227.702 155.215 227.792C154.975 227.882 154.8 228.012 154.69 228.182C154.58 228.352 154.52 228.552 154.51 228.782C154.5 229.232 154.625 229.572 154.885 229.802C155.135 230.032 155.52 230.147 156.04 230.147L160 230.147V232.487ZM160.18 221.489C160.18 222.369 159.985 223.054 159.595 223.544C159.195 224.034 158.625 224.279 157.885 224.279C157.095 224.279 156.505 224.024 156.115 223.514C155.725 223.004 155.53 222.289 155.53 221.369V219.539C155.14 219.589 154.835 219.709 154.615 219.899C154.385 220.079 154.27 220.374 154.27 220.784C154.27 221.064 154.335 221.309 154.465 221.519C154.595 221.729 154.77 221.909 154.99 222.059L154.315 224.114C153.945 223.934 153.61 223.699 153.31 223.409C153.01 223.109 152.77 222.744 152.59 222.314C152.41 221.884 152.32 221.384 152.32 220.814C152.32 220.034 152.465 219.374 152.755 218.834C153.045 218.294 153.45 217.889 153.97 217.619C154.49 217.349 155.105 217.214 155.815 217.214L160 217.244V219.434L159.235 219.464C159.545 219.674 159.78 219.949 159.94 220.289C160.1 220.629 160.18 221.029 160.18 221.489ZM158.41 220.964C158.41 220.674 158.35 220.424 158.23 220.214C158.11 219.994 157.95 219.824 157.75 219.704C157.54 219.574 157.315 219.509 157.075 219.509L157.045 219.509V220.499C157.045 220.989 157.115 221.344 157.255 221.564C157.385 221.784 157.575 221.894 157.825 221.894C158.005 221.894 158.15 221.814 158.26 221.654C158.36 221.484 158.41 221.254 158.41 220.964ZM160 215.789L152.5 215.789V213.584L153.46 213.494C153.1 213.244 152.82 212.939 152.62 212.579C152.42 212.219 152.32 211.814 152.32 211.364C152.32 210.764 152.445 210.259 152.695 209.849C152.935 209.439 153.305 209.134 153.805 208.934C154.305 208.724 154.945 208.619 155.725 208.619L160 208.619V210.959L156.16 210.959C155.76 210.959 155.445 211.004 155.215 211.094C154.975 211.184 154.8 211.314 154.69 211.484C154.58 211.644 154.52 211.844 154.51 212.084C154.5 212.534 154.625 212.874 154.885 213.104C155.135 213.334 155.52 213.449 156.04 213.449L160 213.449V215.789ZM160 203.42L149.5 203.42L149.5 199.295C149.5 198.535 149.65 197.86 149.95 197.27C150.24 196.68 150.65 196.22 151.18 195.89C151.7 195.55 152.3 195.38 152.98 195.38C153.67 195.38 154.285 195.56 154.825 195.92C155.355 196.27 155.76 196.74 156.04 197.33L160 194.96V197.72L156.475 199.73C156.475 199.79 156.475 199.855 156.475 199.925C156.475 199.985 156.475 200.045 156.475 200.105V201.005L160 201.005L160 203.42ZM154.255 201.005V199.37C154.255 199.09 154.2 198.84 154.09 198.62C153.98 198.4 153.83 198.23 153.64 198.11C153.44 197.98 153.22 197.915 152.98 197.915C152.61 197.915 152.305 198.055 152.065 198.335C151.825 198.605 151.705 198.965 151.705 199.415V201.005L154.255 201.005ZM160.18 190.23C160.18 191.02 160.015 191.715 159.685 192.315C159.345 192.915 158.88 193.39 158.29 193.74C157.7 194.08 157.02 194.25 156.25 194.25C155.48 194.25 154.8 194.085 154.21 193.755C153.62 193.415 153.16 192.945 152.83 192.345C152.49 191.735 152.32 191.045 152.32 190.275C152.32 189.485 152.49 188.79 152.83 188.19C153.16 187.58 153.62 187.11 154.21 186.78C154.8 186.44 155.48 186.27 156.25 186.27C157.02 186.27 157.7 186.44 158.29 186.78C158.88 187.11 159.345 187.575 159.685 188.175C160.015 188.775 160.18 189.46 160.18 190.23ZM158.02 190.23C158.02 189.93 157.945 189.665 157.795 189.435C157.645 189.195 157.44 189.01 157.18 188.88C156.91 188.74 156.6 188.67 156.25 188.67C155.9 188.67 155.595 188.74 155.335 188.88C155.065 189.01 154.855 189.195 154.705 189.435C154.555 189.675 154.48 189.95 154.48 190.26C154.48 190.57 154.555 190.845 154.705 191.085C154.855 191.325 155.065 191.515 155.335 191.655C155.595 191.785 155.9 191.85 156.25 191.85C156.6 191.85 156.91 191.785 157.18 191.655C157.44 191.515 157.645 191.325 157.795 191.085C157.945 190.835 158.02 190.55 158.02 190.23ZM160 185.13L152.5 185.13V182.925L153.46 182.835C153.1 182.585 152.82 182.28 152.62 181.92C152.42 181.56 152.32 181.155 152.32 180.705C152.32 180.105 152.445 179.6 152.695 179.19C152.935 178.78 153.305 178.475 153.805 178.275C154.305 178.065 154.945 177.96 155.725 177.96L160 177.96V180.3L156.16 180.3C155.76 180.3 155.445 180.345 155.215 180.435C154.975 180.525 154.8 180.655 154.69 180.825C154.58 180.985 154.52 181.185 154.51 181.425C154.5 181.875 154.625 182.215 154.885 182.445C155.135 182.675 155.52 182.79 156.04 182.79L160 182.79V185.13ZM163.21 172.991C163.21 173.601 163.17 174.136 163.09 174.596C163.01 175.046 162.905 175.431 162.775 175.751C162.645 176.071 162.5 176.336 162.34 176.546L160.48 175.631C160.55 175.471 160.635 175.281 160.735 175.061C160.845 174.841 160.94 174.571 161.02 174.251C161.1 173.931 161.14 173.546 161.14 173.096C161.14 172.746 161.07 172.436 160.93 172.166C160.8 171.886 160.59 171.671 160.3 171.521C160.02 171.361 159.665 171.281 159.235 171.281L158.545 171.281C158.915 171.521 159.205 171.836 159.415 172.226C159.615 172.606 159.715 173.041 159.715 173.531C159.715 174.231 159.575 174.836 159.295 175.346C159.005 175.846 158.595 176.236 158.065 176.516C157.535 176.786 156.905 176.921 156.175 176.921C155.375 176.921 154.69 176.786 154.12 176.516C153.55 176.236 153.11 175.846 152.8 175.346C152.48 174.836 152.32 174.231 152.32 173.531C152.32 173.041 152.435 172.606 152.665 172.226C152.885 171.836 153.205 171.521 153.625 171.281L152.5 171.281V168.941L159.145 168.941C159.985 168.941 160.71 169.101 161.32 169.421C161.93 169.741 162.395 170.201 162.715 170.801C163.045 171.401 163.21 172.131 163.21 172.991ZM157.765 172.841C157.765 172.541 157.695 172.286 157.555 172.076C157.405 171.856 157.205 171.691 156.955 171.581C156.705 171.461 156.42 171.401 156.1 171.401C155.76 171.401 155.465 171.461 155.215 171.581C154.965 171.701 154.77 171.871 154.63 172.091C154.49 172.301 154.42 172.556 154.42 172.856C154.42 173.146 154.49 173.406 154.63 173.636C154.77 173.856 154.965 174.031 155.215 174.161C155.465 174.281 155.76 174.346 156.1 174.356C156.42 174.346 156.705 174.281 156.955 174.161C157.205 174.031 157.405 173.851 157.555 173.621C157.695 173.391 157.765 173.131 157.765 172.841Z" fill="#776780"/>
<rect x="14" y="37" width="150" height="103" fill="#E6E2F0" fill-opacity="0.4"/>
<path d="M160 134.371L149.5 134.371V131.956L157.78 131.956V127.486L160 127.486V134.371ZM160.18 123.812C160.18 124.412 160.06 124.917 159.82 125.327C159.57 125.737 159.195 126.047 158.695 126.257C158.195 126.457 157.555 126.557 156.775 126.557L152.5 126.557L152.5 124.217L156.34 124.217C156.73 124.217 157.045 124.172 157.285 124.082C157.525 123.992 157.7 123.862 157.81 123.692C157.92 123.522 157.98 123.322 157.99 123.092C157.99 122.642 157.865 122.302 157.615 122.072C157.355 121.842 156.97 121.727 156.46 121.727L152.5 121.727V119.387L160 119.387V121.592L159.04 121.682C159.4 121.922 159.68 122.227 159.88 122.597C160.08 122.957 160.18 123.362 160.18 123.812ZM160.18 114.118C160.18 114.918 160.015 115.633 159.685 116.263C159.345 116.883 158.88 117.368 158.29 117.718C157.69 118.068 157.01 118.243 156.25 118.243C155.48 118.243 154.8 118.068 154.21 117.718C153.62 117.368 153.16 116.888 152.83 116.278C152.49 115.658 152.32 114.948 152.32 114.148C152.32 113.378 152.515 112.673 152.905 112.033C153.295 111.393 153.86 110.933 154.6 110.653L155.35 112.873C155.11 112.983 154.915 113.168 154.765 113.428C154.605 113.678 154.525 113.958 154.525 114.268C154.525 114.578 154.6 114.853 154.75 115.093C154.89 115.323 155.09 115.508 155.35 115.648C155.61 115.778 155.91 115.843 156.25 115.843C156.59 115.843 156.89 115.778 157.15 115.648C157.4 115.508 157.6 115.318 157.75 115.078C157.9 114.828 157.975 114.548 157.975 114.238C157.975 113.928 157.895 113.648 157.735 113.398C157.575 113.148 157.365 112.963 157.105 112.843L157.855 110.623C158.605 110.913 159.18 111.378 159.58 112.018C159.98 112.648 160.18 113.348 160.18 114.118ZM160 109.5L152.5 109.5V107.16L160 107.16V109.5ZM151.54 108.33C151.54 108.68 151.41 108.99 151.15 109.26C150.88 109.52 150.57 109.65 150.22 109.65C149.85 109.65 149.54 109.52 149.29 109.26C149.03 108.99 148.9 108.68 148.9 108.33C148.9 107.97 149.03 107.66 149.29 107.4C149.54 107.14 149.85 107.01 150.22 107.01C150.57 107.01 150.88 107.14 151.15 107.4C151.41 107.66 151.54 107.97 151.54 108.33ZM160.18 103.09C160.18 103.97 159.985 104.655 159.595 105.145C159.195 105.635 158.625 105.88 157.885 105.88C157.095 105.88 156.505 105.625 156.115 105.115C155.725 104.605 155.53 103.89 155.53 102.97V101.14C155.14 101.19 154.835 101.31 154.615 101.5C154.385 101.68 154.27 101.975 154.27 102.385C154.27 102.665 154.335 102.91 154.465 103.12C154.595 103.33 154.77 103.51 154.99 103.66L154.315 105.715C153.945 105.535 153.61 105.3 153.31 105.01C153.01 104.71 152.77 104.345 152.59 103.915C152.41 103.485 152.32 102.985 152.32 102.415C152.32 101.635 152.465 100.975 152.755 100.435C153.045 99.8949 153.45 99.4899 153.97 99.2199C154.49 98.9499 155.105 98.8149 155.815 98.8149L160 98.8449V101.035L159.235 101.065C159.545 101.275 159.78 101.55 159.94 101.89C160.1 102.23 160.18 102.63 160.18 103.09ZM158.41 102.565C158.41 102.275 158.35 102.025 158.23 101.815C158.11 101.595 157.95 101.425 157.75 101.305C157.54 101.175 157.315 101.11 157.075 101.11L157.045 101.11V102.1C157.045 102.59 157.115 102.945 157.255 103.165C157.385 103.385 157.575 103.495 157.825 103.495C158.005 103.495 158.15 103.415 158.26 103.255C158.36 103.085 158.41 102.855 158.41 102.565ZM160 97.3893L152.5 97.3893V95.1843L153.46 95.0943C153.1 94.8443 152.82 94.5393 152.62 94.1793C152.42 93.8193 152.32 93.4143 152.32 92.9643C152.32 92.3643 152.445 91.8593 152.695 91.4493C152.935 91.0393 153.305 90.7343 153.805 90.5343C154.305 90.3243 154.945 90.2193 155.725 90.2193L160 90.2193V92.5593L156.16 92.5593C155.76 92.5593 155.445 92.6043 155.215 92.6943C154.975 92.7843 154.8 92.9143 154.69 93.0843C154.58 93.2443 154.52 93.4443 154.51 93.6843C154.5 94.1343 154.625 94.4743 154.885 94.7043C155.135 94.9343 155.52 95.0493 156.04 95.0493L160 95.0493V97.3893ZM160 85.0201L149.5 85.0201V82.6051L157.78 82.6051L157.78 78.1351L160 78.1351L160 85.0201ZM160.18 74.7013C160.18 75.5813 159.985 76.2663 159.595 76.7563C159.195 77.2463 158.625 77.4913 157.885 77.4913C157.095 77.4913 156.505 77.2363 156.115 76.7263C155.725 76.2163 155.53 75.5013 155.53 74.5813V72.7513C155.14 72.8013 154.835 72.9213 154.615 73.1113C154.385 73.2913 154.27 73.5863 154.27 73.9963C154.27 74.2763 154.335 74.5213 154.465 74.7313C154.595 74.9413 154.77 75.1213 154.99 75.2713L154.315 77.3263C153.945 77.1463 153.61 76.9113 153.31 76.6213C153.01 76.3213 152.77 75.9563 152.59 75.5263C152.41 75.0963 152.32 74.5963 152.32 74.0263C152.32 73.2463 152.465 72.5863 152.755 72.0463C153.045 71.5063 153.45 71.1013 153.97 70.8313C154.49 70.5613 155.105 70.4263 155.815 70.4263L160 70.4563V72.6463L159.235 72.6763C159.545 72.8863 159.78 73.1613 159.94 73.5013C160.1 73.8413 160.18 74.2413 160.18 74.7013ZM158.41 74.1763C158.41 73.8863 158.35 73.6363 158.23 73.4263C158.11 73.2063 157.95 73.0363 157.75 72.9163C157.54 72.7863 157.315 72.7213 157.075 72.7213L157.045 72.7213V73.7113C157.045 74.2013 157.115 74.5563 157.255 74.7763C157.385 74.9963 157.575 75.1063 157.825 75.1063C158.005 75.1063 158.15 75.0263 158.26 74.8663C158.36 74.6963 158.41 74.4663 158.41 74.1763ZM160 66.8797L152.5 69.9247V67.5097L157.33 65.7097L152.5 63.9247L152.5 61.5097L160 64.5547V66.8797ZM160 60.6511L152.5 60.6511V58.3111L153.895 58.3111C153.425 58.0011 153.07 57.6061 152.83 57.1261C152.59 56.6461 152.47 56.1561 152.47 55.6561L154.75 55.6561C154.75 56.1161 154.8 56.5511 154.9 56.9611C155 57.3611 155.155 57.6861 155.365 57.9361C155.565 58.1861 155.825 58.3111 156.145 58.3111L160 58.3111V60.6511ZM160 54.5395L152.5 54.5395V52.1995L160 52.1995V54.5395ZM151.54 53.3695C151.54 53.7195 151.41 54.0295 151.15 54.2995C150.88 54.5595 150.57 54.6895 150.22 54.6895C149.85 54.6895 149.54 54.5595 149.29 54.2995C149.03 54.0295 148.9 53.7195 148.9 53.3695C148.9 53.0095 149.03 52.6995 149.29 52.4395C149.54 52.1795 149.85 52.0495 150.22 52.0495C150.57 52.0495 150.88 52.1795 151.15 52.4395C151.41 52.6995 151.54 53.0095 151.54 53.3695ZM160.18 46.794C160.18 47.594 160.015 48.309 159.685 48.939C159.345 49.559 158.88 50.044 158.29 50.394C157.69 50.744 157.01 50.919 156.25 50.919C155.48 50.919 154.8 50.744 154.21 50.394C153.62 50.044 153.16 49.564 152.83 48.954C152.49 48.334 152.32 47.624 152.32 46.824C152.32 46.054 152.515 45.349 152.905 44.709C153.295 44.069 153.86 43.609 154.6 43.329L155.35 45.549C155.11 45.659 154.915 45.844 154.765 46.104C154.605 46.354 154.525 46.634 154.525 46.944C154.525 47.254 154.6 47.529 154.75 47.769C154.89 47.999 155.09 48.184 155.35 48.324C155.61 48.454 155.91 48.519 156.25 48.519C156.59 48.519 156.89 48.454 157.15 48.324C157.4 48.184 157.6 47.994 157.75 47.754C157.9 47.504 157.975 47.224 157.975 46.914C157.975 46.604 157.895 46.324 157.735 46.074C157.575 45.824 157.365 45.639 157.105 45.519L157.855 43.299C158.605 43.589 159.18 44.054 159.58 44.694C159.98 45.324 160.18 46.024 160.18 46.794Z" fill="#776780"/>
<defs>
<filter id="filter0_d_2127_2533" x="0" y="27" width="177" height="538" filterUnits="userSpaceOnUse" color-interpolation-filters="sRGB">
<feFlood flood-opacity="0" result="BackgroundImageFix"/>
<feColorMatrix in="SourceAlpha" type="matrix" values="0 0 0 0 0 0 0 0 0 0 0 0 0 0 0 0 0 0 127 0" result="hardAlpha"/>
<feOffset dy="4"/>
<feGaussianBlur stdDeviation="2"/>
<feComposite in2="hardAlpha" operator="out"/>
<feColorMatrix type="matrix" values="0 0 0 0 0 0 0 0 0 0 0 0 0 0 0 0 0 0 0.25 0"/>
<feBlend mode="normal" in2="BackgroundImageFix" result="effect1_dropShadow_2127_2533"/>
<feBlend mode="normal" in="SourceGraphic" in2="effect1_dropShadow_2127_2533" result="shape"/>
</filter>
</defs>
</svg>
