<svg width="620" height="320" viewBox="0 0 620 320" fill="none" xmlns="http://www.w3.org/2000/svg">
<g filter="url(#filter0_d_481_4511)">
<rect x="15" y="11" width="590" height="290" rx="10" stroke="#AB8DEB" stroke-width="10" stroke-linecap="round" stroke-linejoin="round" stroke-dasharray="10 15"/>
<rect x="35" y="31" width="550" height="250" rx="10" fill="#BB9DFB"/>
<path d="M220.793 187.776L207.765 184.408L226.543 209.957L226.341 210.363L211.771 205.078L233 234.781L232.634 235.199L207.048 224.348L204.716 217.75L203.452 214.064C203.452 214.064 202.956 212.641 202.319 210.498C200.23 203.469 198.204 196.423 196.241 189.361C196.148 188.772 196.017 188.189 195.849 187.616C192.488 174.86 188.596 162.239 185.172 149.52C184.969 148.623 185.538 147.996 186.018 147.345C187.712 144.998 189.518 142.761 191.224 140.426C192.008 139.345 191.477 138.935 190.466 137.939C190.027 137.536 190.515 136.551 190.466 135.965C191.237 133.04 192.993 130.521 194.257 127.83C195.95 124.266 197.631 120.702 199.64 117.286C199.955 116.772 200.147 116.196 200.202 115.601C200.257 115.005 200.173 114.405 199.956 113.845C199.472 112.891 199.237 111.836 199.274 110.773C199.501 109.458 200.626 108.647 201.169 107.516C201.536 106.89 201.068 106.472 200.752 106.029C199.387 104.1 198.048 102.158 196.784 100.167C196.268 99.3207 195.502 98.6443 194.586 98.2258C194.486 97.9688 194.445 97.6935 194.467 97.4194C194.489 97.1454 194.572 96.8794 194.712 96.6405C196.38 93.642 197.947 90.5821 199.767 87.6327C200.12 87.0183 200.525 86.6127 201.283 87.0674L208.222 113.432C208.222 113.432 204.256 111.489 202.9 110.908L212.188 130.042L201.611 125.729L212.298 145.245L201.043 142.601L217.47 168.175L205.238 164.488L204.947 164.746C210.667 172.423 216.371 180.074 222.057 187.702C221.872 187.821 221.657 187.891 221.435 187.904C221.213 187.917 220.992 187.872 220.793 187.776Z" fill="#230F3D"/>
<path d="M112.207 187.776L125.235 184.409L106.457 209.958L106.659 210.363L121.229 205.079L100 234.782L100.366 235.199L126.518 224.446L128.284 217.751L129.548 214.064C129.548 214.064 130.044 212.642 130.681 210.498C132.77 203.469 134.796 196.424 136.759 189.361C136.852 188.772 136.983 188.19 137.151 187.616C140.512 174.86 144.404 162.24 147.828 149.521C148.031 148.623 147.462 147.997 146.982 147.345C145.288 144.998 146.38 143.261 144.674 140.926C143.89 139.844 143.663 139.504 144.674 138.509C145.113 138.105 142.485 136.552 142.534 135.966C141.763 133.041 140.007 130.522 138.743 127.831C137.05 124.267 135.369 120.703 133.36 117.287C133.045 116.773 132.853 116.197 132.798 115.601C132.743 115.006 132.827 114.405 133.044 113.846C133.528 112.892 133.763 111.837 133.726 110.773C133.499 109.459 133.342 109.286 132.798 108.156C135.215 109.385 135.204 107.959 135.52 107.517C136.885 105.588 137.024 103.707 138.288 101.716C138.804 100.869 137.498 98.6449 138.414 98.2264C138.515 97.9694 138.555 97.6941 138.533 97.42C138.511 97.146 138.428 96.8801 138.288 96.6411C136.62 93.6426 135.053 90.5827 133.233 87.6333C132.88 87.0189 132.475 86.6133 131.717 87.068L124.756 113.335C124.756 113.335 128.744 111.49 130.1 110.909L120.812 130.043L131.389 125.729L120.702 145.246L131.957 142.602L115.53 168.175L127.762 164.489L128.053 164.747C122.333 172.423 116.629 180.075 110.943 187.702C111.128 187.822 111.343 187.891 111.565 187.904C111.787 187.917 112.008 187.873 112.207 187.776Z" fill="#230F3D"/>
<path d="M207.31 47.5553C207.245 47.1186 206.765 46.8845 206.385 47.1112C204.321 48.3444 198.701 51.8524 195.514 55.3142C191.557 59.6115 186.989 66.8595 186.989 66.8595L201.666 88.4373L210.282 72.3826C210.655 71.6877 210.794 70.8913 210.678 70.1116L207.31 47.5553Z" fill="#513B7A"/>
<path d="M125.153 47.5264C125.22 47.0979 125.691 46.867 126.069 47.0811C128.197 48.2862 134.183 51.8237 137.566 55.3143C141.73 59.6115 145.891 66.8595 145.891 66.8595L130.725 87.7539L122.044 72.4233C121.637 71.7039 121.485 70.8683 121.613 70.0519L125.153 47.5264Z" fill="#513B7A"/>
<path d="M166.737 140.751H186.892L207.048 224.348L166.737 246.828V140.751Z" fill="#513B7A"/>
<path d="M166.766 140.923H146.61L126.518 224.446L166.766 247V140.923Z" fill="#513B7A"/>
<path d="M130.725 87.7539L145.891 66.8595L158.784 71.6901L141.328 107.775L130.725 87.7539Z" fill="#473772"/>
<path d="M201.666 88.4373L186.989 66.8595L174.135 71.6554L191.616 107.766L201.666 88.4373Z" fill="#473772"/>
<path d="M149.105 70.8939C149.484 69.9324 150.414 69.3003 151.45 69.3003L181.431 69.3003C182.466 69.3003 183.397 69.9325 183.776 70.894L200.959 114.48C201.223 115.148 201.188 115.895 200.863 116.535L183.147 151.485L168.726 182.522C167.824 184.464 165.057 184.464 164.155 182.522L149.733 151.485L132.018 116.535C131.693 115.895 131.658 115.148 131.921 114.48L149.105 70.8939Z" fill="#513B7A"/>
<path d="M166.765 139.667H186.921L207.077 223.77L166.765 246.386V139.667Z" fill="#513B7A"/>
<path d="M166.765 139.667H146.609L126.453 223.77L166.765 246.386V139.667Z" fill="#513B7A"/>
<path d="M145.876 144.099H188.291L198.259 187.457L167.084 233.525L135.272 187.457L145.876 144.099Z" fill="#694E9E"/>
<path d="M173.667 130.414L177.949 124.124C178.095 123.91 178.337 123.782 178.597 123.782H181.109C181.36 123.782 181.596 123.902 181.744 124.105L186.319 130.414L192.874 139.926C193.078 140.222 193.054 140.618 192.816 140.886L186.319 148.218L180.602 155.259C180.288 155.645 179.698 155.645 179.385 155.259L173.667 148.218L167.171 140.886C166.933 140.618 166.909 140.222 167.112 139.926L173.667 130.414Z" fill="#9080BB"/>
<path d="M151.334 124.126C151.48 123.911 151.723 123.782 151.983 123.782H154.034C154.269 123.782 154.491 123.887 154.639 124.067L159.865 130.414L166.419 139.926C166.623 140.222 166.599 140.618 166.361 140.886L159.865 148.218L154.147 155.259C153.833 155.645 153.244 155.645 152.93 155.259L147.212 148.218L140.713 140.882C140.476 140.615 140.451 140.223 140.65 139.928L151.334 124.126Z" fill="#9080BB"/>
<path d="M162.247 85.5462C162.707 84.8096 163.515 84.3619 164.385 84.362L171.799 84.3585C171.801 84.3585 171.803 84.3592 171.804 84.3605C171.805 84.3609 171.805 84.3614 171.805 84.362L185.041 107.479C185.432 108.161 185.481 108.988 185.172 109.711L175.803 131.656L169.113 148.753C168.278 150.886 165.254 150.886 164.419 148.753L157.728 131.656L148.384 109.767C148.061 109.012 148.129 108.148 148.563 107.452L162.247 85.5462Z" fill="#6D61AB"/>
<path d="M158.933 76.8887L166.766 63.1832L174.598 76.8887L183.142 96.5351L174.598 111.816L166.766 127.096L158.933 111.816L150.389 96.5351L158.933 76.8887Z" fill="#9080BB"/>
<path d="M147.08 108.897C147.661 108.404 147.664 107.534 147.087 107.044L138.412 99.6774C137.848 99.199 136.977 99.2927 136.53 99.8798L130.915 107.247C130.582 107.683 130.581 108.275 130.911 108.708L136.523 116.079C136.967 116.662 137.836 116.749 138.402 116.268L147.08 108.897Z" fill="#827697"/>
<path d="M144.435 109.736L146.665 108.663C147.109 108.449 146.957 107.783 146.464 107.783H130.98C130.604 107.783 130.521 108.311 130.879 108.426C130.897 108.431 130.914 108.438 130.931 108.447L133.664 109.866L136.606 111.682C137.276 112.096 138.102 112.173 138.838 111.89L144.435 109.736Z" fill="#E6E2F0"/>
<path d="M144.559 106.422L147.071 107.631C147.446 107.812 147.317 108.375 146.9 108.375H131.105C130.728 108.375 130.645 107.848 131.004 107.733C131.021 107.727 131.038 107.72 131.055 107.711L133.788 106.293L136.73 104.476C137.401 104.062 138.227 103.985 138.963 104.268L144.559 106.422Z" fill="white"/>
<path d="M186.526 108.513C185.951 108.016 185.95 107.14 186.522 106.645L195.028 99.2964C195.588 98.813 196.452 98.9059 196.895 99.4972L202.404 106.852C202.733 107.291 202.734 107.887 202.406 108.325L196.904 115.676C196.464 116.266 195.6 116.355 195.039 115.87L186.526 108.513Z" fill="#827697"/>
<path d="M189.119 109.345L186.92 108.269C186.48 108.054 186.634 107.393 187.124 107.393H202.34C202.716 107.393 202.8 107.918 202.443 108.035C202.425 108.041 202.408 108.048 202.391 108.057L199.705 109.475L196.845 111.272C196.168 111.698 195.328 111.777 194.582 111.485L189.119 109.345Z" fill="#E6E2F0"/>
<path d="M189.119 106.091L186.645 107.302C186.273 107.484 186.403 108.044 186.818 108.044H202.34C202.716 108.044 202.8 107.518 202.443 107.402C202.425 107.396 202.408 107.388 202.391 107.38L199.705 105.961L196.845 104.164C196.168 103.739 195.328 103.66 194.582 103.951L189.119 106.091Z" fill="white"/>
<path d="M160.827 161.036H172.705L184.403 170.921L173.695 179.707C173.695 179.707 169.499 179.707 166.766 179.707C164.033 179.707 159.837 179.707 159.837 179.707L149.13 170.921L160.827 161.036Z" fill="#3F2861"/>
<path d="M152.853 164.064C151.07 164.064 149.851 162.266 150.514 160.615L157.697 142.728C158.08 141.774 159.006 141.149 160.036 141.149H173.496C174.526 141.149 175.452 141.774 175.835 142.728L183.017 160.615C183.681 162.266 182.462 164.064 180.679 164.064L152.853 164.064Z" fill="#3F2961"/>
<path d="M160.827 153.786L172.705 153.786L184.402 162.902L174.324 172.977C174.324 172.977 169.499 172.977 166.766 172.977C164.033 172.977 159.207 172.977 159.207 172.977L149.13 162.902L160.827 153.786Z" fill="#9080BB"/>
<path d="M152.778 144.806L166.766 126.712L180.753 144.806L172.97 153.92H160.566L152.778 144.806Z" fill="#BBAED5"/>
<path d="M166.767 63.1983L143.026 70.9146L150.491 96.6387L162.987 70.9146L166.767 63.1983Z" fill="#6D61AB"/>
<path d="M166.767 63.1983L190.123 70.9146L183.075 96.7364L170.546 70.9146L166.767 63.1983Z" fill="#6D61AB"/>
<path d="M150.443 96.804C150.299 96.735 150.294 96.5328 150.434 96.4566L166.672 87.6097C166.731 87.5779 166.801 87.5779 166.86 87.6096L183.131 96.4565C183.271 96.5327 183.266 96.7351 183.122 96.804L166.851 104.605C166.797 104.63 166.735 104.63 166.681 104.604L150.443 96.804Z" fill="#BBAED5"/>
<path d="M126.346 233.714C126.868 231.849 129.473 231.741 130.147 233.557L132.557 240.046C132.859 240.859 133.649 241.384 134.515 241.349L141.431 241.062C143.367 240.982 144.274 243.426 142.755 244.629L137.328 248.926C136.649 249.463 136.393 250.378 136.695 251.19L139.104 257.679C139.779 259.496 137.735 261.114 136.122 260.041L130.358 256.207C129.636 255.727 128.688 255.766 128.009 256.304L122.581 260.601C121.062 261.804 118.892 260.36 119.414 258.494L121.279 251.828C121.512 250.994 121.182 250.104 120.461 249.624L114.697 245.79C113.084 244.717 113.786 242.207 115.722 242.126L122.638 241.84C123.504 241.804 124.248 241.215 124.481 240.381L126.346 233.714Z" fill="#F5D493"/>
<path d="M96.2804 206.829C97.1999 205.124 99.7644 205.592 100.023 207.512L100.947 214.372C101.062 215.231 101.718 215.918 102.57 216.073L109.38 217.314C111.286 217.662 111.634 220.245 109.888 221.085L103.649 224.083C102.868 224.458 102.417 225.294 102.533 226.153L103.456 233.013C103.715 234.933 101.365 236.062 100.028 234.661L95.2479 229.654C94.6496 229.027 93.7158 228.857 92.9348 229.232L86.6956 232.23C84.9493 233.07 83.1493 231.184 84.0688 229.479L87.354 223.386C87.7652 222.623 87.6386 221.682 87.0403 221.055L82.2605 216.048C80.9227 214.647 82.1599 212.352 84.0659 212.7L90.8761 213.941C91.7285 214.096 92.584 213.685 92.9952 212.923L96.2804 206.829Z" fill="#F5D493"/>
<path d="M132.09 200.573C132.032 198.636 134.486 197.756 135.671 199.289L139.907 204.764C140.437 205.449 141.348 205.715 142.164 205.423L148.68 203.086C150.504 202.432 152.099 204.494 151.008 206.095L147.11 211.816C146.622 212.532 146.65 213.48 147.18 214.166L151.416 219.641C152.602 221.173 151.133 223.328 149.274 222.785L142.629 220.845C141.797 220.602 140.903 220.922 140.415 221.638L136.517 227.359C135.426 228.96 132.924 228.229 132.865 226.293L132.657 219.373C132.631 218.507 132.05 217.756 131.218 217.514L124.573 215.574C122.713 215.031 122.635 212.425 124.459 211.771L130.975 209.435C131.79 209.142 132.325 208.358 132.299 207.492L132.09 200.573Z" fill="#F5D493"/>
<path d="M277.78 117.185V77.0093L285.718 76.3613V92.7773H293.278V77.0093L301.216 76.3613V116.537L293.278 117.185V100.013H285.718V116.537L277.78 117.185ZM305.656 116.861L314.188 76.8473L325.474 76.3613L334.222 116.537L325.582 116.861L324.124 108.167H314.458L312.73 116.861H305.656ZM315.916 101.687H322.666L318.94 82.3013L315.916 101.687ZM349.599 117.617C344.955 117.617 341.679 115.511 339.771 111.299C337.899 107.087 336.963 101.903 336.963 95.7473C336.963 92.4353 337.395 89.2493 338.259 86.1893C339.123 83.1293 340.509 80.6093 342.417 78.6293C344.361 76.6133 346.809 75.6053 349.761 75.6053C352.029 75.6053 354.009 76.3073 355.701 77.7113C357.429 79.1153 358.743 80.9513 359.643 83.2193C360.579 85.4513 361.047 87.7913 361.047 90.2393L353.379 90.6173C353.379 88.9973 353.109 87.1613 352.569 85.1093C352.029 83.0213 350.949 81.9773 349.329 81.9773C347.637 81.9773 346.467 83.3273 345.819 86.0273C345.171 88.7273 344.847 91.9673 344.847 95.7473C344.847 100.427 345.207 104.189 345.927 107.033C346.647 109.841 348.033 111.245 350.085 111.245C351.525 111.245 352.551 110.399 353.163 108.707C353.775 106.979 354.171 104.891 354.351 102.443L361.101 103.091C361.101 105.683 360.669 108.095 359.805 110.327C358.941 112.523 357.645 114.287 355.917 115.619C354.189 116.951 352.083 117.617 349.599 117.617ZM384.832 117.563L377.812 98.7173L374.734 104.063V116.861H366.796V77.0093L374.734 76.3613V94.0733L384.346 76.3613H392.77L384.076 93.1013L392.878 115.727L384.832 117.563ZM282.964 176.861L274.702 136.685L283.342 136.361L287.608 160.607L292.198 136.685L298.678 136.361L302.944 160.877L308.074 136.685L315.364 136.361L306.67 176.861H298.84L294.574 152.129L290.2 176.861H282.964ZM319.598 176.861V136.361H340.172L339.524 142.679H327.536V152.345H336.068L336.014 159.149H327.536V170.543H340.604L339.956 176.861H319.598ZM356.394 177.617C353.118 177.617 350.346 176.717 348.078 174.917C345.846 173.081 344.208 170.633 343.164 167.573L349.86 164.441L350.508 165.521C351.552 167.321 352.542 168.725 353.478 169.733C354.45 170.741 355.656 171.245 357.096 171.245C358.032 171.245 358.86 170.795 359.58 169.895C360.336 168.995 360.714 168.005 360.714 166.925C360.714 165.917 360.462 164.999 359.958 164.171C359.454 163.343 358.806 162.677 358.014 162.173L350.94 157.961C348.888 156.809 347.25 155.351 346.026 153.587C344.802 151.823 344.19 149.843 344.19 147.647C344.19 145.307 344.73 143.219 345.81 141.383C346.926 139.547 348.42 138.125 350.292 137.117C352.2 136.109 354.342 135.605 356.718 135.605C359.49 135.605 361.848 136.289 363.792 137.657C365.736 139.025 367.176 141.059 368.112 143.759L361.416 146.783C361.272 146.495 360.966 145.847 360.498 144.839C360.03 143.831 359.454 143.111 358.77 142.679C358.122 142.211 357.312 141.977 356.34 141.977C355.152 141.977 354.234 142.355 353.586 143.111C352.974 143.867 352.668 144.839 352.668 146.027C352.668 146.891 352.902 147.683 353.37 148.403C353.874 149.087 354.468 149.627 355.152 150.023L361.686 153.857C366.51 156.593 369.048 160.193 369.3 164.657C369.3 167.213 368.724 169.481 367.572 171.461C366.456 173.405 364.908 174.917 362.928 175.997C360.984 177.077 358.806 177.617 356.394 177.617ZM379.733 177.185V142.679H371.471L372.065 136.361H395.825L395.177 142.679H387.617V176.537L379.733 177.185ZM400.229 176.861V136.361H420.803L420.155 142.679H408.167V152.345H416.699L416.645 159.149H408.167V170.543H421.235L420.587 176.861H400.229ZM437.295 159.095H434.217V176.537L426.333 177.185V136.685L435.945 136.361C440.589 136.361 444.225 137.297 446.853 139.169C449.481 141.005 450.795 143.831 450.795 147.647C450.795 150.167 450.291 152.237 449.283 153.857C448.311 155.477 446.889 156.827 445.017 157.907L448.635 166.709L452.307 175.457L444.531 177.563L437.295 159.095ZM436.917 153.263C438.789 153.263 440.247 152.885 441.291 152.129C442.371 151.337 442.911 149.861 442.911 147.701C442.911 144.353 441.255 142.679 437.943 142.679H434.217V153.263H436.917ZM475.766 177.185L463.94 151.859V176.537L456.866 176.861V136.685L465.128 136.361L475.604 160.445V137.009L482.3 136.361V176.537L475.766 177.185ZM296.68 237.185L284.854 211.859V236.537L277.78 236.861V196.685L286.042 196.361L296.518 220.445V197.009L303.214 196.361V236.537L296.68 237.185ZM310.792 236.861V196.361H331.366L330.718 202.679H318.73V212.345H327.262L327.208 219.149H318.73V230.543H331.798L331.15 236.861H310.792ZM342.079 236.861L333.817 196.685L342.457 196.361L346.723 220.607L351.313 196.685L357.793 196.361L362.059 220.877L367.189 196.685L374.479 196.361L365.785 236.861H357.955L353.689 212.129L349.315 236.861H342.079ZM389.73 237.617C385.086 237.617 381.81 235.511 379.902 231.299C378.03 227.087 377.094 221.903 377.094 215.747C377.094 212.435 377.526 209.249 378.39 206.189C379.254 203.129 380.64 200.609 382.548 198.629C384.492 196.613 386.94 195.605 389.892 195.605C392.16 195.605 394.14 196.307 395.832 197.711C397.56 199.115 398.874 200.951 399.774 203.219C400.71 205.451 401.178 207.791 401.178 210.239L393.51 210.617C393.51 208.997 393.24 207.161 392.7 205.109C392.16 203.021 391.08 201.977 389.46 201.977C387.768 201.977 386.598 203.327 385.95 206.027C385.302 208.727 384.978 211.967 384.978 215.747C384.978 220.427 385.338 224.189 386.058 227.033C386.778 229.841 388.164 231.245 390.216 231.245C391.656 231.245 392.682 230.399 393.294 228.707C393.906 226.979 394.302 224.891 394.482 222.443L401.232 223.091C401.232 225.683 400.8 228.095 399.936 230.327C399.072 232.523 397.776 234.287 396.048 235.619C394.32 236.951 392.214 237.617 389.73 237.617ZM417.834 237.617C413.262 237.617 410.04 235.655 408.168 231.731C406.332 227.771 405.414 222.659 405.414 216.395C405.414 209.735 406.404 204.605 408.384 201.005C410.364 197.405 413.55 195.605 417.942 195.605C426.33 195.605 430.524 202.463 430.524 216.179C430.524 222.335 429.57 227.447 427.662 231.515C425.79 235.583 422.514 237.617 417.834 237.617ZM417.942 231.245C419.85 231.245 421.11 230.003 421.722 227.519C422.334 224.999 422.64 221.201 422.64 216.125C422.64 212.057 422.334 208.691 421.722 206.027C421.146 203.327 419.886 201.977 417.942 201.977C415.998 201.977 414.738 203.309 414.162 205.973C413.586 208.637 413.298 212.003 413.298 216.071C413.298 221.183 413.586 224.999 414.162 227.519C414.774 230.003 416.034 231.245 417.942 231.245ZM463.671 237.185V206.783L456.111 236.861H451.251L443.097 206.675V236.537L436.563 236.861V196.739L448.173 196.415L454.869 221.471L461.295 197.333L471.879 196.685V236.537L463.671 237.185ZM479.436 236.861V196.361H500.01L499.362 202.679H487.374V212.345H495.906L495.852 219.149H487.374V230.543H500.442L499.794 236.861H479.436ZM516.502 219.095H513.424V236.537L505.54 237.185V196.685L515.152 196.361C519.796 196.361 523.432 197.297 526.06 199.169C528.688 201.005 530.002 203.831 530.002 207.647C530.002 210.167 529.498 212.237 528.49 213.857C527.518 215.477 526.096 216.827 524.224 217.907L527.842 226.709L531.514 235.457L523.738 237.563L516.502 219.095ZM516.124 213.263C517.996 213.263 519.454 212.885 520.498 212.129C521.578 211.337 522.118 209.861 522.118 207.701C522.118 204.353 520.462 202.679 517.15 202.679H513.424V213.263H516.124Z" fill="white"/>
</g>
<defs>
<filter id="filter0_d_481_4511" x="0" y="0" width="620" height="320" filterUnits="userSpaceOnUse" color-interpolation-filters="sRGB">
<feFlood flood-opacity="0" result="BackgroundImageFix"/>
<feColorMatrix in="SourceAlpha" type="matrix" values="0 0 0 0 0 0 0 0 0 0 0 0 0 0 0 0 0 0 127 0" result="hardAlpha"/>
<feOffset dy="4"/>
<feGaussianBlur stdDeviation="5"/>
<feComposite in2="hardAlpha" operator="out"/>
<feColorMatrix type="matrix" values="0 0 0 0 0 0 0 0 0 0 0 0 0 0 0 0 0 0 0.1 0"/>
<feBlend mode="normal" in2="BackgroundImageFix" result="effect1_dropShadow_481_4511"/>
<feBlend mode="normal" in="SourceGraphic" in2="effect1_dropShadow_481_4511" result="shape"/>
</filter>
</defs>
</svg>
