<svg width="620" height="320" viewBox="0 0 620 320" fill="none" xmlns="http://www.w3.org/2000/svg">
<g filter="url(#filter0_d_481_4542)">
<rect x="15" y="11" width="590" height="290" rx="10" stroke="#839BEF" stroke-width="10" stroke-linecap="round" stroke-dasharray="10 15"/>
<rect x="35" y="31" width="550" height="250" rx="10" fill="#8FA8FF"/>
<path d="M207.528 186.329L195.283 183.164L212.931 207.18L212.741 207.561L199.048 202.594L219 230.514L218.656 230.907L194.609 220.708L192.417 214.505L191.23 211.04C191.23 211.04 190.763 209.703 190.165 207.688C188.201 201.08 186.297 194.458 184.452 187.819C184.365 187.265 184.242 186.718 184.084 186.179C180.925 174.188 177.267 162.325 174.049 150.369C173.858 149.526 174.393 148.936 174.844 148.324C176.436 146.118 178.134 144.015 179.737 141.821C180.474 140.804 179.975 140.419 179.025 139.483C178.611 139.104 179.07 138.178 179.025 137.627C179.749 134.878 181.4 132.51 182.588 129.98C184.179 126.63 185.758 123.28 187.647 120.069C187.943 119.586 188.123 119.045 188.175 118.485C188.226 117.925 188.147 117.361 187.944 116.834C187.488 115.938 187.268 114.946 187.302 113.946C187.516 112.71 188.573 111.948 189.084 110.885C189.428 110.296 188.989 109.903 188.692 109.488C187.409 107.674 186.15 105.849 184.963 103.977C184.477 103.181 183.757 102.546 182.896 102.152C182.802 101.911 182.764 101.652 182.785 101.394C182.805 101.137 182.884 100.887 183.015 100.662C184.583 97.8435 186.055 94.9671 187.766 92.1947C188.098 91.6172 188.478 91.236 189.191 91.6634L195.713 116.447C195.713 116.447 191.985 114.62 190.711 114.074L199.44 132.059L189.499 128.005L199.543 146.351L188.965 143.865L204.404 167.904L192.908 164.439L192.635 164.681C198.011 171.897 203.371 179.09 208.715 186.26C208.541 186.372 208.339 186.437 208.131 186.449C207.922 186.462 207.714 186.42 207.528 186.329Z" fill="#230F3D"/>
<path d="M105.472 186.33L117.717 183.164L100.069 207.18L100.259 207.562L113.952 202.594L94 230.515L94.3444 230.907L118.922 220.799L120.583 214.506L121.77 211.04C121.77 211.04 122.237 209.703 122.835 207.689C124.799 201.081 126.703 194.458 128.548 187.82C128.635 187.266 128.758 186.718 128.916 186.179C132.075 174.189 135.733 162.325 138.951 150.369C139.142 149.526 138.607 148.937 138.156 148.325C136.564 146.118 137.59 144.485 135.987 142.29C135.25 141.274 135.036 140.954 135.987 140.018C136.4 139.639 133.93 138.178 133.975 137.628C133.251 134.879 131.6 132.511 130.412 129.981C128.821 126.631 127.242 123.281 125.353 120.069C125.057 119.587 124.877 119.045 124.825 118.485C124.774 117.925 124.853 117.361 125.056 116.835C125.512 115.938 125.732 114.946 125.698 113.947C125.484 112.711 125.336 112.549 124.825 111.487C127.097 112.642 127.086 111.302 127.383 110.886C128.666 109.072 128.797 107.304 129.985 105.433C130.47 104.637 129.243 102.546 130.104 102.153C130.198 101.911 130.236 101.652 130.215 101.395C130.195 101.137 130.116 100.887 129.985 100.663C128.417 97.8441 126.945 94.9677 125.234 92.1953C124.902 91.6177 124.522 91.2365 123.809 91.6639L117.267 116.355C117.267 116.355 121.015 114.62 122.289 114.074L113.56 132.06L123.501 128.005L113.457 146.351L124.035 143.866L108.596 167.905L120.092 164.439L120.365 164.682C114.989 171.898 109.629 179.091 104.285 186.26C104.459 186.372 104.661 186.438 104.869 186.45C105.078 186.462 105.286 186.421 105.472 186.33Z" fill="#230F3D"/>
<path d="M194.855 54.522C194.794 54.1115 194.343 53.8914 193.986 54.1046C192.046 55.2637 186.764 58.5612 183.769 61.8154C180.05 65.8548 175.756 72.6679 175.756 72.6679L189.551 92.9511L197.649 77.8596C197.999 77.2064 198.13 76.4578 198.02 75.7249L194.855 54.522Z" fill="#513B7A"/>
<path d="M117.64 54.4948C117.703 54.092 118.145 53.875 118.501 54.0762C120.501 55.2091 126.127 58.5343 129.306 61.8154C133.22 65.8548 137.131 72.668 137.131 72.668L122.876 92.3087L114.718 77.8979C114.335 77.2217 114.192 76.4362 114.313 75.6688L117.64 54.4948Z" fill="#513B7A"/>
<path d="M156.722 142.126H175.666L194.609 220.708L156.722 241.838V142.126Z" fill="#513B7A"/>
<path d="M156.75 142.288H137.806L118.922 220.799L156.75 242V142.288Z" fill="#513B7A"/>
<path d="M122.876 92.3087L137.131 72.668L149.248 77.2087L132.842 111.129L122.876 92.3087Z" fill="#473772"/>
<path d="M189.551 92.9511L175.756 72.6679L163.675 77.176L180.105 111.12L189.551 92.9511Z" fill="#473772"/>
<path d="M140.151 76.4603C140.508 75.5565 141.382 74.9622 142.355 74.9622L170.533 74.9623C171.506 74.9623 172.38 75.5565 172.737 76.4604L188.887 117.432C189.134 118.059 189.101 118.762 188.796 119.363L172.146 152.216L158.592 181.391C157.744 183.216 155.144 183.216 154.296 181.391L140.742 152.216L124.092 119.363C123.787 118.762 123.754 118.059 124.001 117.432L140.151 76.4603Z" fill="#513B7A"/>
<path d="M156.749 141.107H175.693L194.636 220.164L156.749 241.423V141.107Z" fill="#513B7A"/>
<path d="M156.749 141.107H137.806L118.862 220.164L156.749 241.423V141.107Z" fill="#513B7A"/>
<path d="M137.116 145.273H176.981L186.349 186.03L157.048 229.334L127.15 186.03L137.116 145.273Z" fill="#694E9E"/>
<path d="M163.236 132.409L167.261 126.497C167.398 126.295 167.625 126.175 167.869 126.175H170.231C170.467 126.175 170.688 126.288 170.827 126.479L175.127 132.409L181.288 141.351C181.479 141.628 181.456 142.001 181.233 142.253L175.127 149.145L169.753 155.763C169.459 156.126 168.905 156.126 168.61 155.763L163.236 149.145L157.131 142.253C156.907 142.001 156.884 141.628 157.076 141.351L163.236 132.409Z" fill="#9080BB"/>
<path d="M142.246 126.499C142.383 126.296 142.612 126.175 142.856 126.175H144.784C145.004 126.175 145.213 126.273 145.353 126.443L150.264 132.41L156.424 141.351C156.616 141.629 156.593 142.001 156.369 142.253L150.264 149.145L144.89 155.763C144.595 156.126 144.041 156.126 143.747 155.763L138.373 149.145L132.264 142.249C132.042 141.998 132.017 141.63 132.205 141.352L142.246 126.499Z" fill="#9080BB"/>
<path d="M152.503 90.2334C152.935 89.541 153.695 89.1202 154.512 89.1203L161.48 89.117C161.482 89.117 161.484 89.1177 161.485 89.1189C161.485 89.1193 161.486 89.1198 161.486 89.1203L173.926 110.85C174.294 111.492 174.339 112.268 174.049 112.948L165.244 133.577L158.956 149.648C158.171 151.653 155.328 151.653 154.544 149.648L148.256 133.577L139.473 113.001C139.171 112.291 139.234 111.479 139.642 110.825L152.503 90.2334Z" fill="#6D61AB"/>
<path d="M149.389 82.0954L156.75 69.2122L164.111 82.0954L172.141 100.563L164.111 114.927L156.75 129.29L149.389 114.927L141.358 100.563L149.389 82.0954Z" fill="#9080BB"/>
<path d="M138.248 112.183C138.794 111.719 138.797 110.902 138.255 110.442L130.101 103.517C129.572 103.067 128.753 103.155 128.332 103.707L123.055 110.632C122.743 111.042 122.741 111.598 123.052 112.006L128.327 118.935C128.743 119.482 129.56 119.564 130.092 119.112L138.248 112.183Z" fill="#827697"/>
<path d="M135.762 112.972L137.858 111.963C138.276 111.762 138.132 111.136 137.669 111.136H123.117C122.763 111.136 122.685 111.632 123.022 111.74C123.038 111.745 123.055 111.752 123.07 111.76L125.639 113.094L128.404 114.801C129.034 115.191 129.811 115.263 130.502 114.997L135.762 112.972Z" fill="#E6E2F0"/>
<path d="M135.879 109.857L138.239 110.993C138.592 111.163 138.471 111.693 138.079 111.693H123.234C122.88 111.693 122.802 111.197 123.139 111.089C123.155 111.083 123.171 111.077 123.187 111.069L125.756 109.735L128.521 108.028C129.151 107.638 129.927 107.566 130.619 107.832L135.879 109.857Z" fill="white"/>
<path d="M175.322 111.822C174.781 111.355 174.78 110.531 175.318 110.066L183.312 103.159C183.838 102.704 184.65 102.792 185.066 103.347L190.244 110.261C190.553 110.673 190.554 111.234 190.246 111.645L185.076 118.556C184.661 119.11 183.85 119.194 183.323 118.738L175.322 111.822Z" fill="#827697"/>
<path d="M177.758 112.605L175.692 111.593C175.278 111.39 175.423 110.769 175.884 110.769H190.185C190.537 110.769 190.616 111.263 190.281 111.373C190.264 111.378 190.248 111.385 190.232 111.393L187.708 112.727L185.02 114.416C184.383 114.816 183.594 114.89 182.893 114.616L177.758 112.605Z" fill="#E6E2F0"/>
<path d="M177.758 109.546L175.434 110.684C175.083 110.855 175.206 111.381 175.596 111.381H190.185C190.537 111.381 190.616 110.887 190.281 110.778C190.264 110.772 190.248 110.765 190.232 110.757L187.708 109.424L185.02 107.734C184.383 107.334 183.594 107.26 182.893 107.534L177.758 109.546Z" fill="white"/>
<path d="M151.168 161.193H162.332L173.326 170.485L163.262 178.745C163.262 178.745 159.319 178.745 156.75 178.745C154.181 178.745 150.238 178.745 150.238 178.745L140.174 170.485L151.168 161.193Z" fill="#3F2861"/>
<path d="M143.674 164.04C141.998 164.04 140.853 162.35 141.476 160.798L148.227 143.984C148.587 143.087 149.457 142.5 150.425 142.5H163.075C164.043 142.5 164.913 143.087 165.273 143.984L172.024 160.798C172.647 162.35 171.502 164.04 169.826 164.04L143.674 164.04Z" fill="#3F2961"/>
<path d="M151.168 154.379L162.332 154.379L173.326 162.948L163.854 172.418C163.854 172.418 159.319 172.418 156.75 172.418C154.181 172.418 149.646 172.418 149.646 172.418L140.174 162.948L151.168 154.379Z" fill="#9080BB"/>
<path d="M143.603 145.938L156.75 128.929L169.896 145.938L162.58 154.504H150.923L143.603 145.938Z" fill="#BBAED5"/>
<path d="M156.751 69.2264L134.438 76.4797L141.454 100.66L153.199 76.4797L156.751 69.2264Z" fill="#6D61AB"/>
<path d="M156.751 69.2264L178.702 76.4797L172.078 100.752L160.303 76.4797L156.751 69.2264Z" fill="#6D61AB"/>
<path d="M141.409 100.816C141.274 100.751 141.269 100.561 141.4 100.489L156.662 92.1731C156.717 92.1432 156.783 92.1432 156.838 92.1731L172.13 100.489C172.262 100.561 172.257 100.751 172.122 100.816L156.83 108.148C156.779 108.172 156.721 108.172 156.67 108.148L141.409 100.816Z" fill="#BBAED5"/>
<path d="M169.631 205.134C166.836 204.789 164.26 206.778 164.244 209.593C164.202 216.998 166.052 224.321 169.656 230.854C174.084 238.881 180.935 245.303 189.231 249.204C197.526 253.106 206.842 254.286 215.849 252.578C224.856 250.87 233.092 246.36 239.383 239.692C245.674 233.024 249.698 224.54 250.88 215.449C252.062 206.358 250.342 197.127 245.965 189.072C241.589 181.017 234.779 174.551 226.509 170.596C219.778 167.377 212.36 165.956 204.97 166.428C202.16 166.608 200.324 169.296 200.831 172.065C201.338 174.834 203.999 176.627 206.813 176.548C212.074 176.401 217.32 177.503 222.111 179.794C228.443 182.822 233.656 187.772 237.007 193.939C240.358 200.106 241.675 207.174 240.77 214.134C239.865 221.094 236.784 227.591 231.968 232.696C227.151 237.801 220.845 241.253 213.949 242.561C207.054 243.869 199.921 242.965 193.57 239.978C187.219 236.991 181.973 232.074 178.583 225.929C176.017 221.279 174.613 216.106 174.454 210.846C174.369 208.032 172.425 205.479 169.631 205.134Z" fill="white"/>
<rect x="191.781" y="170.256" width="10" height="35" rx="5" transform="rotate(-44.0296 191.781 170.256)" fill="white"/>
<rect width="10" height="35" rx="5" transform="matrix(0.522542 0.852613 0.852613 -0.522542 191.647 168.185)" fill="white"/>
<path d="M301.656 117.616V77.4397L309.594 76.7917V93.2077H317.154V77.4397L325.092 76.7917V116.968L317.154 117.616V100.444H309.594V116.968L301.656 117.616ZM329.532 117.292L338.064 77.2777L349.35 76.7917L358.098 116.968L349.458 117.292L348 108.598H338.334L336.606 117.292H329.532ZM339.792 102.118H346.542L342.816 82.7317L339.792 102.118ZM373.475 118.048C368.831 118.048 365.555 115.942 363.647 111.73C361.775 107.518 360.839 102.334 360.839 96.1777C360.839 92.8657 361.271 89.6797 362.135 86.6197C362.999 83.5597 364.385 81.0397 366.293 79.0597C368.237 77.0437 370.685 76.0357 373.637 76.0357C375.905 76.0357 377.885 76.7377 379.577 78.1417C381.305 79.5457 382.619 81.3817 383.519 83.6497C384.455 85.8817 384.923 88.2217 384.923 90.6697L377.255 91.0477C377.255 89.4277 376.985 87.5917 376.445 85.5397C375.905 83.4517 374.825 82.4077 373.205 82.4077C371.513 82.4077 370.343 83.7577 369.695 86.4577C369.047 89.1577 368.723 92.3977 368.723 96.1777C368.723 100.858 369.083 104.62 369.803 107.464C370.523 110.272 371.909 111.676 373.961 111.676C375.401 111.676 376.427 110.83 377.039 109.138C377.651 107.41 378.047 105.322 378.227 102.874L384.977 103.522C384.977 106.114 384.545 108.526 383.681 110.758C382.817 112.954 381.521 114.718 379.793 116.05C378.065 117.382 375.959 118.048 373.475 118.048ZM408.707 117.994L401.687 99.1477L398.609 104.494V117.292H390.671V77.4397L398.609 76.7917V94.5037L408.221 76.7917H416.645L407.951 93.5317L416.753 116.158L408.707 117.994ZM306.84 177.292L298.578 137.116L307.218 136.792L311.484 161.038L316.074 137.116L322.554 136.792L326.82 161.308L331.95 137.116L339.24 136.792L330.546 177.292H322.716L318.45 152.56L314.076 177.292H306.84ZM343.474 177.292V136.792H364.048L363.4 143.11H351.412V152.776H359.944L359.89 159.58H351.412V170.974H364.48L363.832 177.292H343.474ZM380.27 178.048C376.994 178.048 374.222 177.148 371.954 175.348C369.722 173.512 368.084 171.064 367.04 168.004L373.736 164.872L374.384 165.952C375.428 167.752 376.418 169.156 377.354 170.164C378.326 171.172 379.532 171.676 380.972 171.676C381.908 171.676 382.736 171.226 383.456 170.326C384.212 169.426 384.59 168.436 384.59 167.356C384.59 166.348 384.338 165.43 383.834 164.602C383.33 163.774 382.682 163.108 381.89 162.604L374.816 158.392C372.764 157.24 371.126 155.782 369.902 154.018C368.678 152.254 368.066 150.274 368.066 148.078C368.066 145.738 368.606 143.65 369.686 141.814C370.802 139.978 372.296 138.556 374.168 137.548C376.076 136.54 378.218 136.036 380.594 136.036C383.366 136.036 385.724 136.72 387.668 138.088C389.612 139.456 391.052 141.49 391.988 144.19L385.292 147.214C385.148 146.926 384.842 146.278 384.374 145.27C383.906 144.262 383.33 143.542 382.646 143.11C381.998 142.642 381.188 142.408 380.216 142.408C379.028 142.408 378.11 142.786 377.462 143.542C376.85 144.298 376.544 145.27 376.544 146.458C376.544 147.322 376.778 148.114 377.246 148.834C377.75 149.518 378.344 150.058 379.028 150.454L385.562 154.288C390.386 157.024 392.924 160.624 393.176 165.088C393.176 167.644 392.6 169.912 391.448 171.892C390.332 173.836 388.784 175.348 386.804 176.428C384.86 177.508 382.682 178.048 380.27 178.048ZM403.609 177.616V143.11H395.347L395.941 136.792H419.701L419.053 143.11H411.493V176.968L403.609 177.616ZM424.105 177.292V136.792H444.679L444.031 143.11H432.043V152.776H440.575L440.521 159.58H432.043V170.974H445.111L444.463 177.292H424.105ZM461.171 159.526H458.093V176.968L450.209 177.616V137.116L459.821 136.792C464.465 136.792 468.101 137.728 470.729 139.6C473.357 141.436 474.671 144.262 474.671 148.078C474.671 150.598 474.167 152.668 473.159 154.288C472.187 155.908 470.765 157.258 468.893 158.338L472.511 167.14L476.183 175.888L468.407 177.994L461.171 159.526ZM460.793 153.694C462.665 153.694 464.123 153.316 465.167 152.56C466.247 151.768 466.787 150.292 466.787 148.132C466.787 144.784 465.131 143.11 461.819 143.11H458.093V153.694H460.793ZM499.642 177.616L487.816 152.29V176.968L480.742 177.292V137.116L489.004 136.792L499.48 160.876V137.44L506.176 136.792V176.968L499.642 177.616ZM312.618 219.526H309.54V236.968L301.656 237.616V197.116L311.268 196.792C315.912 196.792 319.548 197.728 322.176 199.6C324.804 201.436 326.118 204.262 326.118 208.078C326.118 210.598 325.614 212.668 324.606 214.288C323.634 215.908 322.212 217.258 320.34 218.338L323.958 227.14L327.63 235.888L319.854 237.994L312.618 219.526ZM312.24 213.694C314.112 213.694 315.57 213.316 316.614 212.56C317.694 211.768 318.234 210.292 318.234 208.132C318.234 204.784 316.578 203.11 313.266 203.11H309.54V213.694H312.24ZM332.189 237.292V196.792H352.763L352.115 203.11H340.127V212.776H348.659L348.605 219.58H340.127V230.974H353.195L352.547 237.292H332.189ZM363.531 237.616V203.11H355.269L355.863 196.792H379.623L378.975 203.11H371.415V236.968L363.531 237.616ZM395.799 238.048C391.767 238.048 388.743 236.752 386.727 234.16C384.711 231.568 383.703 228.166 383.703 223.954V197.116L391.641 196.792V224.602C391.641 226.006 391.713 227.194 391.857 228.166C392.037 229.138 392.451 229.966 393.099 230.65C393.747 231.334 394.737 231.676 396.069 231.676C397.329 231.676 398.247 231.334 398.823 230.65C399.435 229.93 399.813 229.102 399.957 228.166C400.101 227.194 400.173 225.97 400.173 224.494V197.44L407.409 196.792V223.036C407.409 226.852 406.653 230.308 405.141 233.404C403.665 236.5 400.551 238.048 395.799 238.048ZM425.68 219.526H422.602V236.968L414.718 237.616V197.116L424.33 196.792C428.974 196.792 432.61 197.728 435.238 199.6C437.866 201.436 439.18 204.262 439.18 208.078C439.18 210.598 438.676 212.668 437.668 214.288C436.696 215.908 435.274 217.258 433.402 218.338L437.02 227.14L440.692 235.888L432.916 237.994L425.68 219.526ZM425.302 213.694C427.174 213.694 428.632 213.316 429.676 212.56C430.756 211.768 431.296 210.292 431.296 208.132C431.296 204.784 429.64 203.11 426.328 203.11H422.602V213.694H425.302ZM464.152 237.616L452.326 212.29V236.968L445.252 237.292V197.116L453.514 196.792L463.99 220.876V197.44L470.686 196.792V236.968L464.152 237.616ZM478.263 237.292V196.792H498.837L498.189 203.11H486.201V212.776H494.733L494.679 219.58H486.201V230.974H499.269L498.621 237.292H478.263ZM504.367 237.292V196.792H524.941L524.293 203.11H512.305V212.776H520.837L520.783 219.58H512.305V230.974H525.373L524.725 237.292H504.367Z" fill="white"/>
</g>
<defs>
<filter id="filter0_d_481_4542" x="0" y="0" width="620" height="320" filterUnits="userSpaceOnUse" color-interpolation-filters="sRGB">
<feFlood flood-opacity="0" result="BackgroundImageFix"/>
<feColorMatrix in="SourceAlpha" type="matrix" values="0 0 0 0 0 0 0 0 0 0 0 0 0 0 0 0 0 0 127 0" result="hardAlpha"/>
<feOffset dy="4"/>
<feGaussianBlur stdDeviation="5"/>
<feComposite in2="hardAlpha" operator="out"/>
<feColorMatrix type="matrix" values="0 0 0 0 0 0 0 0 0 0 0 0 0 0 0 0 0 0 0.1 0"/>
<feBlend mode="normal" in2="BackgroundImageFix" result="effect1_dropShadow_481_4542"/>
<feBlend mode="normal" in="SourceGraphic" in2="effect1_dropShadow_481_4542" result="shape"/>
</filter>
</defs>
</svg>
